<?xml version="1.0" encoding="UTF-8"?>
<svg width="22px" height="23px" viewBox="0 0 22 23" version="1.1" xmlns="http://www.w3.org/2000/svg" xmlns:xlink="http://www.w3.org/1999/xlink">
    <!-- Generator: Sketch 46.2 (44496) - http://www.bohemiancoding.com/sketch -->
    <title>announce timer</title>
    <desc>Created with Sketch.</desc>
    <defs></defs>
    <g id="在线砍价-A发起人" stroke="none" stroke-width="1" fill="none" fill-rule="evenodd">
        <g id="发起人-001-自砍第一刀" transform="translate(-64.000000, -846.000000)" fill-rule="nonzero" fill="#818181">
            <g id="Group-20" transform="translate(64.000000, 845.500000)">
                <path d="M18.7795653,3.91108 C14.4902238,-0.378336135 7.51081835,-0.378336135 3.22147684,3.91108 C1.71652459,5.41603225 0.687079642,7.30671853 0.244332496,9.37881696 C-0.186698604,11.3964395 -0.0455090542,13.4868209 0.652603124,15.423849 C0.736481059,15.6564536 0.993114707,15.7770468 1.22564464,15.6932435 C1.45832383,15.6093655 1.57891702,15.3528065 1.49503908,15.120202 C0.853641521,13.3404823 0.723944143,11.4198716 1.12005098,9.56582596 C1.52653062,7.66319976 2.47217226,5.92668769 3.8546657,4.54419424 C7.79491382,0.603946131 14.2061283,0.603946131 18.1463764,4.54419424 C20.0228094,6.42070187 21.0732238,8.91502571 21.1040438,11.567852 C21.1348637,14.2158277 20.1480293,16.7300762 18.3254752,18.6473288 C18.3039087,18.6700147 18.2825661,18.6928498 18.2612235,18.7156849 C18.2234635,18.7560567 18.1857782,18.7965032 18.1463764,18.835905 C14.2061283,22.7761531 7.79491382,22.7761531 3.8546657,18.835905 C3.83369622,18.8149355 3.81324911,18.7935929 3.79302587,18.7722503 C3.79198113,18.7309083 3.79108563,18.6901633 3.79108563,18.6500153 C3.79108563,18.5598689 3.79280199,18.4700957 3.79608547,18.3806209 C3.79720484,18.3506965 3.79944357,18.3210705 3.80093606,18.2912207 C3.80384642,18.231745 3.80660753,18.1722693 3.81093575,18.1130921 C3.8135476,18.0777947 3.81735345,18.0428704 3.82048768,18.0077223 C3.82518903,17.9543658 3.82959187,17.9010092 3.83541258,17.8479512 C3.83951693,17.8104897 3.84488989,17.7733267 3.84959124,17.7360145 C3.85593432,17.6856429 3.8619789,17.6351222 3.86944135,17.5849745 C3.87511282,17.5467668 3.88182902,17.5089321 3.88809748,17.4709483 C3.8960823,17.4220692 3.90384325,17.3731902 3.91287281,17.3246096 C3.91996214,17.286178 3.92809621,17.2481195 3.93585716,17.2099118 C3.94548372,17.1622267 3.95496103,17.114467 3.96555771,17.0670805 C3.97413952,17.0286489 3.98369146,16.9904411 3.99287027,16.9522334 C4.00406395,16.9055931 4.015183,16.8589528 4.02727217,16.8126856 C4.03734647,16.7743286 4.04824165,16.7362701 4.05883833,16.698137 C4.07159912,16.6524668 4.08428528,16.606722 4.09794157,16.5613503 C4.10935911,16.5232918 4.12159753,16.4855318 4.1336867,16.4477718 C4.1480146,16.4029225 4.16234251,16.3579985 4.17749128,16.3135223 C4.19032669,16.2759862 4.2037591,16.2386739 4.21719151,16.2013617 C4.23308653,16.157184 4.24905617,16.1130063 4.26577206,16.0691271 C4.27995072,16.0320387 4.29465174,15.9953234 4.30942739,15.9585336 C4.3268149,15.9151767 4.34435166,15.8718199 4.36256004,15.8288362 C4.37808193,15.7922702 4.39405157,15.7560027 4.41017047,15.7197352 C4.42905046,15.6771246 4.44815433,15.6346632 4.4678552,15.5925004 C4.48464571,15.556606 4.50180935,15.5209355 4.51919686,15.4853396 C4.53964397,15.4434753 4.56031496,15.4016856 4.58150831,15.360269 C4.59949282,15.3251955 4.61777582,15.2902712 4.63635732,15.2554962 C4.65829692,15.2143034 4.68060965,15.17326 4.70337012,15.1324404 C4.72254861,15.0981131 4.74195098,15.0639351 4.76165185,15.0299809 C4.78508394,14.9896091 4.80888916,14.9494611 4.83314212,14.9094624 C4.85351461,14.8758814 4.87411097,14.8424496 4.89500583,14.809167 C4.91993041,14.7696161 4.94522812,14.730289 4.97089894,14.6912603 C4.9923908,14.6585002 5.0140319,14.6258893 5.03604613,14.5935023 C5.06238858,14.5546975 5.08932802,14.5163405 5.11649134,14.4780582 C5.13910256,14.4461935 5.16171378,14.4144035 5.18484738,14.3829865 C5.21268232,14.3450773 5.24111425,14.3075412 5.26969543,14.2702289 C5.2933514,14.2393344 5.31693274,14.2084398 5.34111108,14.1779184 C5.3704385,14.14083 5.40043755,14.1041894 5.43051123,14.067698 C5.45506268,14.0378482 5.47961414,14.0079984 5.50468798,13.9785218 C5.53558252,13.9422543 5.56714868,13.9065091 5.59878947,13.8708386 C5.62431105,13.8420336 5.64968338,13.8131539 5.6756527,13.7847966 C5.70803973,13.7494246 5.74109839,13.7147242 5.77423166,13.6800238 C5.80064873,13.6522635 5.82691656,13.6244285 5.85378138,13.5970413 C5.88773552,13.5625648 5.92243592,13.5288345 5.95706168,13.494955 C5.984225,13.4684633 6.01116444,13.4416731 6.03877551,13.4155546 C6.07444602,13.3818243 6.1109374,13.3489149 6.14727953,13.3159308 C6.17503984,13.2907824 6.20242703,13.2653354 6.23056047,13.2405601 C6.26809659,13.2075015 6.30660283,13.1754129 6.3448852,13.1431005 C6.37294401,13.1194445 6.40070432,13.0954155 6.42913626,13.0721326 C6.46876186,13.0397456 6.50935759,13.0083287 6.54980407,12.9766879 C6.57801213,12.9546737 6.60577244,12.9321371 6.634279,12.910496 C6.67688959,12.8781835 6.72039567,12.8469905 6.76382713,12.8156482 C6.79121432,12.7957981 6.81807914,12.7755002 6.84583945,12.7560232 C6.89374838,12.7223676 6.94277667,12.6899059 6.99165572,12.657295 C7.01575943,12.6412508 7.03934077,12.6246095 7.06359374,12.6087891 C7.12732306,12.5673725 7.19217175,12.5272992 7.25746818,12.4877482 C7.26761711,12.481629 7.27746755,12.475062 7.2876911,12.4689428 C7.3632111,12.4237204 7.43977583,12.3798411 7.51723606,12.3371559 C7.54372776,12.3226042 7.5709657,12.3089479 7.59775589,12.2946946 C7.64917217,12.2672328 7.7004392,12.2395471 7.75275097,12.2132793 C7.78625737,12.1964141 7.82058464,12.1805937 7.85438954,12.164251 C7.89707475,12.14358 7.93961072,12.1226851 7.9828183,12.1027604 C8.79435972,12.8779597 9.87693731,13.3168263 11.000633,13.3168263 C12.1243287,13.3168263 13.2069809,12.877885 14.0185223,12.1026111 C15.6027258,12.8357968 16.8993264,14.1513521 17.6032593,15.7511521 C17.7028084,15.9774136 17.9669045,16.0803207 18.1933898,15.980697 C18.419726,15.8810733 18.5224839,15.616828 18.4228602,15.3905665 C17.6528846,13.640622 16.3124048,12.2422336 14.6156675,11.3980813 C15.1079654,10.67594 15.3743002,9.82320585 15.3743002,8.94323377 C15.3743002,6.53159387 13.4122729,4.56956657 11.000633,4.56956657 C10.753402,4.56956657 10.552886,4.7700826 10.552886,5.01731356 C10.552886,5.26454452 10.753402,5.46506055 11.000633,5.46506055 C12.9185572,5.46506055 14.4788062,7.02538417 14.4788062,8.94323377 C14.4788062,9.8008185 14.160085,10.6266132 13.5814466,11.2683092 C13.581372,11.2683839 13.5812974,11.2684585 13.5812228,11.2685331 C12.9204975,12.0011964 11.9799303,12.421407 11.0005584,12.421407 C10.0211865,12.421407 9.08054467,12.0011964 8.41989399,11.2685331 C8.41981936,11.2683839 8.41967011,11.2683092 8.41952086,11.2682346 C7.84095713,10.6263147 7.52231053,9.80074387 7.52231053,8.94330839 C7.52231053,8.00721869 7.88879143,7.1290376 8.55429271,6.47070028 C8.73010802,6.29675058 8.73160051,6.01325211 8.55765081,5.83751142 C8.38377573,5.66162147 8.10027726,5.66027823 7.92446194,5.83407869 C7.08769745,6.66166437 6.62681655,7.76588307 6.62681655,8.9430099 C6.62681655,9.82208648 6.89247976,10.6742236 7.38395671,11.3959918 C7.37955386,11.3981559 7.37530026,11.4005439 7.37097204,11.4027826 C7.33604778,11.4202447 7.30194438,11.4387516 7.26731862,11.4565869 C7.2142606,11.4840487 7.16105333,11.5113612 7.10874156,11.5399424 C7.07172781,11.560091 7.03553493,11.5812844 6.9988943,11.6019554 C6.95001525,11.6296411 6.90106158,11.6571775 6.85285415,11.6857587 C6.81546728,11.7079968 6.7786774,11.7309811 6.74166365,11.7537416 C6.69539646,11.7822482 6.64912928,11.8106801 6.60353371,11.8400075 C6.56629608,11.863962 6.52973008,11.8885881 6.4929402,11.9130649 C6.44868787,11.9425416 6.40451017,11.9721675 6.36092946,12.0024651 C6.32428884,12.0279866 6.28809595,12.0540306 6.25190307,12.0800745 C6.20936711,12.1107452 6.16698039,12.1415651 6.12511605,12.172982 C6.08922167,12.1999215 6.05377503,12.227234 6.01840302,12.2546959 C5.97735955,12.2865605 5.93661457,12.3186491 5.89631734,12.35126 C5.86139308,12.379468 5.82676731,12.4080492 5.79229079,12.4367796 C5.75266518,12.4699129 5.71333807,12.5034193 5.67438408,12.5372988 C5.64057919,12.5666263 5.60699816,12.5961776 5.57371564,12.626102 C5.53528402,12.6606531 5.49737478,12.6955774 5.4596894,12.7308002 C5.42715312,12.7611723 5.39469147,12.7916191 5.36260293,12.8225883 C5.32536531,12.8585573 5.28872468,12.8950487 5.25215868,12.9316893 C5.22096564,12.962957 5.18977259,12.99415 5.15917655,13.0258654 C5.12298367,13.0634015 5.08746241,13.1016093 5.05201577,13.139817 C5.02238985,13.1717563 4.99254005,13.2035464 4.96343649,13.236008 C4.92798986,13.2754097 4.89351334,13.3156323 4.85888757,13.3557057 C4.83105263,13.3879435 4.80299382,13.4198828 4.77568126,13.4524937 C4.74053312,13.4945073 4.70650435,13.5373417 4.6722517,13.5800269 C4.64680475,13.611817 4.62083542,13.6431593 4.59583622,13.6753224 C4.55986721,13.7215896 4.52509219,13.7687523 4.49016793,13.8157657 C4.46822832,13.845317 4.44569173,13.874346 4.42419987,13.9041958 C4.38002217,13.9653879 4.33726233,14.0274754 4.29487562,14.0898615 C4.28375657,14.1062789 4.2719659,14.1222485 4.26092147,14.1387406 C4.20816195,14.217544 4.15689492,14.297243 4.10697113,14.3778375 C4.08973287,14.4056724 4.07353936,14.4341043 4.05667422,14.4620885 C4.02436181,14.5157435 3.99190015,14.5693239 3.96078174,14.6237252 C3.94137937,14.6576793 3.92302174,14.6922305 3.90414175,14.7264831 C3.8769038,14.7757353 3.84951661,14.8248382 3.82339804,14.8746874 C3.80399567,14.9116265 3.78563804,14.9490134 3.76675804,14.986251 C3.74243046,15.0343092 3.71802825,15.0822927 3.69467078,15.1308733 C3.67608928,15.1695288 3.65840327,15.208632 3.64041877,15.2475114 C3.61832992,15.2954949 3.59616644,15.3434038 3.57497309,15.3918351 C3.55751095,15.4317592 3.54079507,15.4720565 3.52400455,15.5122791 C3.50378131,15.5605611 3.48370732,15.6088432 3.4644542,15.6574983 C3.44826069,15.6983926 3.43273879,15.7395107 3.4172169,15.7806288 C3.39885927,15.8294332 3.38072552,15.8783122 3.36326338,15.9274898 C3.34848773,15.9692049 3.33415983,16.0111438 3.31998118,16.0531574 C3.30333991,16.1024842 3.2871464,16.1519603 3.27147525,16.2017348 C3.25811747,16.2440469 3.24520743,16.2865082 3.23252126,16.3290442 C3.21759636,16.3792665 3.20319384,16.429638 3.18923906,16.4802334 C3.17744838,16.5229186 3.16588159,16.5656785 3.15476254,16.6086622 C3.141554,16.65978 3.12901709,16.7111216 3.11677867,16.7626125 C3.10655511,16.8055962 3.09640618,16.8485053 3.08692887,16.8916383 C3.0754367,16.9438008 3.06476539,16.9962618 3.05431796,17.0487975 C3.04573615,17.0917812 3.03700508,17.1347649 3.02909488,17.1779725 C3.01931907,17.2315529 3.01051338,17.2854318 3.00178232,17.3393853 C2.99491686,17.3819212 2.98767829,17.4243826 2.98148445,17.4670678 C2.97335038,17.5227377 2.96648493,17.578706 2.95947023,17.6346744 C2.95432114,17.6761656 2.94864967,17.7175822 2.94409758,17.7592227 C2.93767987,17.8178776 2.93275466,17.8769055 2.92760557,17.9359335 C2.92417284,17.9752606 2.92006849,18.0144385 2.91723276,18.0539895 C2.91245679,18.1198829 2.90932256,18.1860748 2.90611371,18.2523414 C2.9045466,18.2852508 2.90208399,18.3179363 2.90089,18.3509203 C2.89730802,18.4503202 2.89529316,18.5500931 2.89529316,18.6502392 C2.89529316,18.7583701 2.89894976,18.8606057 2.9033526,18.9735125 C2.90439735,18.9996311 2.90805395,19.0250034 2.91327766,19.0497788 C2.91372541,19.051719 2.91394928,19.0536592 2.91439703,19.0555995 C2.91991924,19.0800017 2.92768019,19.1034338 2.93700825,19.1261196 C2.93790375,19.1283584 2.93872462,19.1305971 2.93969473,19.1328358 C2.94932129,19.1552232 2.96081347,19.1765658 2.97379813,19.1968637 C2.97543987,19.1994009 2.97700698,19.2019381 2.97864872,19.2044007 C2.99200651,19.2243255 3.00685678,19.2430562 3.0230503,19.2605183 C3.02424429,19.261787 3.02506516,19.2633541 3.02625915,19.2646227 L3.08536175,19.3275311 C3.1299872,19.3752908 3.17461265,19.4229013 3.22117834,19.4693923 C5.36588641,21.6141004 8.18303583,22.6864544 11.0002599,22.6864544 C13.8174839,22.6864544 16.6346333,21.6141004 18.7793414,19.4693923 C18.8259071,19.4229013 18.8705325,19.3752162 18.915158,19.3275311 L18.9742606,19.2646227 C20.9584514,17.1773009 22.0327456,14.4403728 21.9992392,11.5577777 C21.9658821,8.66943649 20.8223363,5.95385101 18.7795653,3.91108 Z" id="announce-timer"></path>
            </g>
        </g>
    </g>
</svg>