<?xml version="1.0" encoding="UTF-8"?>
<svg width="218px" height="196px" viewBox="0 0 218 196" version="1.1" xmlns="http://www.w3.org/2000/svg" xmlns:xlink="http://www.w3.org/1999/xlink">
    <!-- Generator: Sketch 46.2 (44496) - http://www.bohemiancoding.com/sketch -->
    <title>BG1</title>
    <desc>Created with Sketch.</desc>
    <defs>
        <path d="M12.8271979,0.459496804 L175.825483,36.0875372 L175.825483,36.0875372 C178.491879,36.670356 180.804193,38.3177134 182.226026,40.6474639 L216.077281,96.1145802 L216.077281,96.1145802 C218.954365,100.828838 217.465041,106.982837 212.750782,109.859922 C212.636631,109.929587 212.521094,109.996957 212.40424,110.061988 L60.3458124,194.685809 L60.3458124,194.685809 C55.5199558,197.371503 49.4306409,195.636558 46.7449468,190.810702 C46.325752,190.057461 46.0057123,189.253179 45.7927877,188.41786 L1.00167585,12.6988822 L1.00167585,12.6988822 C-0.362487948,7.34716266 2.87006465,1.90286356 8.22178415,0.538699763 C9.72984448,0.154292226 11.3068113,0.127171875 12.8271979,0.459496804 Z" id="path-1"></path>
    </defs>
    <g id="在线砍价-A发起人" stroke="none" stroke-width="1" fill="none" fill-rule="evenodd">
        <g id="发起人-000-活动尚未开始" transform="translate(-81.000000, -73.000000)">
            <g id="Group-9" transform="translate(0.000000, 57.000000)">
                <g id="Group-7" transform="translate(46.500000, 16.000000)">
                    <g id="BG1" transform="translate(34.000000, 0.000000)">
                        <g id="Rectangle-5" opacity="0.2">
                            <use fill-opacity="0.5" fill="#FFFFFF" fill-rule="evenodd" xlink:href="#path-1"></use>
                            <path stroke="#FFFFFF" stroke-width="1" d="M12.720429,0.94796422 C11.2760618,0.632255537 9.77794332,0.658019871 8.345286,1.02320703 C3.26115247,2.31916264 0.190227509,7.49124679 1.48618311,12.5753803 L46.277295,188.294358 C46.4795734,189.087911 46.783611,189.851979 47.1818461,190.567558 C49.7332555,195.152122 55.5181047,196.800319 60.1026684,194.248909 L212.161096,109.625089 C212.272107,109.563309 212.381868,109.499308 212.490311,109.433126 C216.968857,106.699896 218.383714,100.853597 215.650485,96.3750513 L181.79923,40.907935 C180.448488,38.694672 178.25179,37.1296825 175.718714,36.5760046 L12.720429,0.94796422 Z"></path>
                        </g>
                        <path d="M33.5,42.5 L82.5,42.5" id="Line" stroke="#FFFFFF" stroke-linecap="round"></path>
                    </g>
                </g>
            </g>
        </g>
    </g>
</svg>