<?xml version="1.0" encoding="UTF-8"?>
<svg width="23px" height="23px" viewBox="0 0 23 23" version="1.1" xmlns="http://www.w3.org/2000/svg" xmlns:xlink="http://www.w3.org/1999/xlink">
    <!-- Generator: Sketch 46.2 (44496) - http://www.bohemiancoding.com/sketch -->
    <title>discount timer</title>
    <desc>Created with Sketch.</desc>
    <defs></defs>
    <g id="在线砍价-A发起人" stroke="none" stroke-width="1" fill="none" fill-rule="evenodd">
        <g id="发起人-001-自砍第一刀" transform="translate(-223.000000, -846.000000)" fill-rule="nonzero" fill="#818181">
            <g id="Group-19" transform="translate(223.500000, 845.500000)">
                <path d="M20.4266254,17.5714952 L20.4283134,17.5721552 C18.456983,20.7299021 14.9508518,22.8308273 10.9540232,22.8308273 C7.07287632,22.8308273 3.65443302,20.8497579 1.65473575,17.8436616 C1.23211628,17.2083481 0.87286557,16.5272514 0.58600831,15.8093962 C0.583488683,15.8030909 0.585827323,15.7962151 0.592380988,15.7889317 C0.587546585,15.7634807 0.585016735,15.7372136 0.585016735,15.7103557 C0.585016735,15.4792074 0.772399398,15.2918248 1.00354763,15.2918248 C1.20303413,15.2918248 1.36992357,15.4313894 1.41190038,15.618203 C1.66723545,16.2345604 1.98208744,16.8244447 2.35168018,17.3800445 C4.25434746,20.2402779 7.45463892,21.9937655 10.9540232,21.9937655 C14.389439,21.9937655 17.5333597,20.3030446 19.4439033,17.5458041 C19.4538802,17.5314058 19.5278369,17.44601 19.5889927,17.3747396 L13.118429,10.9041758 C12.9151331,10.7008799 12.8134851,10.4344281 12.8134851,10.1679763 C12.8134851,9.90152446 12.9151331,9.63507264 13.118429,9.43177676 C13.5250207,9.02518499 14.1842362,9.02518499 14.590828,9.43177676 L20.5834712,15.4004653 C21.0399066,14.2232939 21.2777852,12.9640884 21.2777852,11.6700035 C21.2777852,6.16211298 16.9644978,1.66164474 11.5314412,1.36211694 C11.5021324,1.3686182 11.4716675,1.37204653 11.4404018,1.37204653 C11.2092536,1.37204653 11.0218709,1.18466387 11.0218709,0.953515638 C11.0218709,0.722367409 11.2092536,0.534984746 11.4404018,0.534984746 C11.4516213,0.534984746 11.4627376,0.535426203 11.4737343,0.536292695 C11.4717134,0.527099937 11.4695521,0.521925869 11.4672505,0.520770489 C17.3929718,0.78897579 22.1148469,5.67806312 22.1148469,11.6700035 C22.1148469,13.3607847 21.738876,14.9637531 21.0659762,16.3998666 L21.0559377,16.3840913 L20.9008168,16.7595003 L13.9989359,10.0236688 C13.9192371,9.94397001 13.7900198,9.94397001 13.710321,10.0236688 C13.6306222,10.1033676 13.6306222,10.2325849 13.710321,10.3122837 L20.6480815,17.2762204 L20.4266254,17.5714952 Z M5.64507507,2.60404737 L6.21801881,2.03110363 L6.21801881,2.03110363 C6.46639653,1.78272591 6.86909639,1.78272591 7.11747411,2.03110363 C7.36585184,2.27948135 7.36585184,2.68218121 7.11747411,2.93055894 L6.54453037,3.50350267 C6.29615265,3.7518804 5.89345279,3.7518804 5.64507507,3.50350267 C5.39669734,3.25512495 5.39669734,2.85242509 5.64507507,2.60404737 Z M7.84469951,3.98244417 C7.7503063,4.05429479 7.62320764,4.16603965 7.43207223,4.3442284 C7.42182408,4.35378239 7.13283759,4.62485906 7.03752762,4.71305308 C6.86593968,4.87183007 6.71122019,5.0108584 6.55107621,5.14882082 C6.13998133,5.50297492 5.72364361,5.82268926 5.26466045,6.12661088 C5.18229943,6.18114729 5.09891227,6.23491636 5.01351228,6.28849986 C3.72420081,7.09519069 2.8401545,7.20355421 1.7691115,6.93713732 C1.47104732,6.86299527 1.42427679,6.85435879 1.39255627,6.85751995 C1.39092738,6.85768228 1.37633246,6.86525994 1.30142743,6.94016497 C0.444096476,7.79749593 0.966644415,9.92845914 3.65041858,12.6122333 C6.39271789,15.3545326 8.41017667,15.8765299 9.32367986,14.9616653 C9.37917128,14.9062553 9.4218022,14.854883 9.4546421,14.8058813 C9.57771759,14.6222353 9.59047125,14.4700695 9.53264368,13.860677 C9.43291708,12.8097484 9.49312959,12.171161 9.93911308,11.306008 C10.2190463,10.7664403 10.5808967,10.2754182 11.0663906,9.72990772 C10.9969204,9.80796582 12.0663984,8.65994856 12.2168991,8.44734406 C12.2310416,8.42736579 12.2433143,8.40927344 12.2538876,8.39319879 L7.84469951,3.98244417 Z M9.91601249,15.5531165 C8.81992552,16.650837 6.47256789,16.6181667 3.05852651,13.2041254 C-0.352247832,9.79335102 -0.285273815,7.34308209 0.70953537,6.3482729 C1.70597807,5.35183021 2.15192701,7.09152115 4.56952569,5.57888846 C6.98549085,4.06298875 7.50821489,2.4637799 8.35274091,3.30667241 L12.9527124,7.90827746 C13.798872,8.75280348 11.6508029,9.82438776 10.6821299,11.6914927 C9.78533148,13.4311836 11.0120995,14.4586631 9.91601249,15.5531165 Z" id="discount-timer"></path>
            </g>
        </g>
    </g>
</svg>