<?xml version="1.0" encoding="UTF-8"?>
<svg width="43px" height="49px" viewBox="0 0 43 49" version="1.1" xmlns="http://www.w3.org/2000/svg" xmlns:xlink="http://www.w3.org/1999/xlink">
    <!-- Generator: Sketch 46.2 (44496) - http://www.bohemiancoding.com/sketch -->
    <title>embarrass</title>
    <desc>Created with Sketch.</desc>
    <defs>
        <polygon id="path-1" points="0.798054225 23.6358438 5.34634627 14.885813 27.3291332 11.7905991 34.7132737 20.1261848 33.8139317 23.3823386"></polygon>
    </defs>
    <g id="在线砍价-A发起人" stroke="none" stroke-width="1" fill="none" fill-rule="evenodd">
        <g id="发起人-001-自砍第一刀" transform="translate(-162.000000, -695.000000)">
            <g id="embarrass" transform="translate(161.187500, 694.000000)">
                <g id="Group-4">
                    <g id="Group">
                        <path d="M43.0149906,32.8535244 C41.0716044,32.8535244 39.4961787,31.2806844 39.4961787,29.340488 C39.4961787,27.4002916 41.0716044,25.8274517 43.0149906,25.8274517 C43.5469348,25.8274517 43.6504232,32.8535244 43.0149906,32.8535244 Z M42.2330324,30.5115001 C42.8808278,30.5115001 43.4059697,29.9872202 43.4059697,29.340488 C43.4059697,28.6937559 42.8808278,28.1694759 42.2330324,28.1694759 C41.585237,28.1694759 41.0600951,28.6937559 41.0600951,29.340488 C41.0600951,29.9872202 41.585237,30.5115001 42.2330324,30.5115001 Z" id="Combined-Shape" fill="#C4C3C8" transform="translate(41.474896, 29.340488) scale(-1, 1) rotate(3.000000) translate(-41.474896, -29.340488) "></path>
                        <path d="M6.93563766,34.7404932 C8.32371822,34.2699795 9.32252857,32.9580244 9.32252857,31.4131676 C9.32252857,29.9525133 8.4296314,28.700064 7.1590419,28.1701789 C6.74189932,27.9962143 6.58041826,34.8609008 6.93563766,34.7404932 Z" id="Oval-4" fill="#C4C3C8" transform="translate(8.031363, 31.454493) scale(-1, 1) rotate(3.000000) translate(-8.031363, -31.454493) "></path>
                        <path d="M7.66876336,46.4577246 L8.98183674,20.3277294 L41.95848,19.9381544 L40.5815593,46.4959605 L36.0863726,49.1158728 L7.66876336,46.4577246 Z M11.1688761,22.0423168 L10.533535,44.3651163 L35.4651587,48.1446036 L39.8550933,46.5441919 L40.3453094,20.8888393 L11.1688761,22.0423168 Z" id="Combined-Shape" fill="#C4C3C8" transform="translate(24.813622, 34.527014) scale(-1, 1) rotate(3.000000) translate(-24.813622, -34.527014) "></path>
                        <ellipse id="Oval-6" fill="#C4C3C8" transform="translate(32.768879, 36.003601) scale(-1, 1) rotate(3.000000) translate(-32.768879, -36.003601) " cx="32.7688789" cy="36.0036006" rx="2.68972162" ry="2.68530689"></ellipse>
                        <ellipse id="Oval-7" fill="#C4C3C8" transform="translate(15.223802, 37.404131) scale(-1, 1) rotate(3.000000) translate(-15.223802, -37.404131) " cx="15.2238018" cy="37.4041313" rx="2.38892615" ry="2.38500513"></ellipse>
                        <ellipse id="Oval-8" fill="#C4C3C8" transform="translate(27.321653, 30.082228) scale(-1, 1) rotate(3.000000) translate(-27.321653, -30.082228) " cx="27.3216527" cy="30.0822281" rx="1" ry="1.17101211"></ellipse>
                        <ellipse id="Oval-8" fill="#C4C3C8" transform="translate(15.787933, 30.686685) scale(-1, 1) rotate(3.000000) translate(-15.787933, -30.686685) " cx="15.7879333" cy="30.6866847" rx="1" ry="1.17101211"></ellipse>
                        <polygon id="Rectangle-9" fill="#C4C3C8" transform="translate(21.978019, 32.707514) scale(-1, 1) rotate(3.000000) translate(-21.978019, -32.707514) " points="21.1960607 29.194478 22.7599771 29.194478 23.5419353 36.2205507 20.4141025 36.2205507"></polygon>
                        <polygon id="Path-2" fill="#C4C3C8" transform="translate(22.547100, 11.236301) scale(-1, 1) rotate(3.000000) translate(-22.547100, -11.236301) " points="5.51546739 21.0314386 8.29142065 5.82431334 20.9233133 1.44116346 34.3936769 5.45772441 39.5787317 20.4277725"></polygon>
                        <ellipse id="Oval-3" fill="#C4C3C8" transform="translate(21.365960, 11.241573) scale(-1, 1) rotate(3.000000) translate(-21.365960, -11.241573) " cx="21.3659598" cy="11.2415734" rx="3.12783278" ry="3.12269896"></ellipse>
                        <g id="Path-3" transform="translate(17.755664, 17.713221) scale(-1, 1) rotate(3.000000) translate(-17.755664, -17.713221) ">
                            <use fill="#C4C3C8" fill-rule="evenodd" xlink:href="#path-1"></use>
                            <path stroke="#F7F5F6" stroke-width="2" d="M2.45150109,22.6231187 L33.0510781,22.3881666 L33.6048842,20.3830584 L26.9367303,12.855714 L5.99599239,15.8042056 L2.45150109,22.6231187 Z"></path>
                        </g>
                        <path d="M13.9966887,28.463707 C13.8175563,28.8198462 13.3819098,28.9642001 13.023645,28.7861305 C12.6653802,28.6080609 12.5201647,28.1749991 12.6992971,27.8188599 C12.8510143,27.5172258 13.1393731,27.1031788 13.5853622,26.6915032 C14.4889388,25.8574458 15.6621617,25.4242627 17.0768804,25.6251663 C17.4734068,25.6814769 17.7489339,26.0466666 17.6922872,26.4408405 C17.6356406,26.8350143 17.2682712,27.1089067 16.8717448,27.0525961 C15.9207727,26.917549 15.1731355,27.1935952 14.5723754,27.7481341 C14.3947547,27.9120891 14.2445246,28.0885804 14.1225617,28.2637038 C14.0529364,28.363677 14.0110014,28.4352514 13.9966887,28.463707 Z M31.4211547,26.5921503 C31.6002871,26.9482895 31.4550716,27.3813513 31.0968068,27.5594209 C30.738542,27.7374905 30.3028955,27.5931365 30.1237631,27.2369974 C30.1094504,27.2085417 30.0675154,27.1369674 29.9978901,27.0369942 C29.8759272,26.8618708 29.7256971,26.6853794 29.5480764,26.5214245 C28.9473162,25.9668856 28.1996791,25.6908394 27.248707,25.8258865 C26.8521806,25.882197 26.4848112,25.6083047 26.4281646,25.2141309 C26.3715179,24.819957 26.647045,24.4547673 27.0435714,24.3984567 C28.4582901,24.1975531 29.631513,24.6307362 30.5350896,25.4647936 C30.9810787,25.8764692 31.2694374,26.2905162 31.4211547,26.5921503 Z" id="expression" fill="#C4C3C8"></path>
                    </g>
                </g>
                <path d="M34.0355268,31.5199159 C35.7648685,31.5199159 37.166777,30.1215327 37.166777,28.3965396 C37.166777,26.7431135 34.0355268,20.3030063 34.0355268,20.3030063 C34.0355268,20.3030063 30.9042767,26.7431135 30.9042767,28.3965396 C30.9042767,30.1215327 32.3061851,31.5199159 34.0355268,31.5199159 Z" id="tear" fill="#6CC0E9" transform="translate(34.035527, 25.911461) rotate(-4.000000) translate(-34.035527, -25.911461) "></path>
            </g>
        </g>
    </g>
</svg>