<?xml version="1.0" encoding="UTF-8"?>
<svg width="41px" height="42px" viewBox="0 0 41 42" version="1.1" xmlns="http://www.w3.org/2000/svg" xmlns:xlink="http://www.w3.org/1999/xlink">
    <!-- Generator: Sketch 46.2 (44496) - http://www.bohemiancoding.com/sketch -->
    <title>hide</title>
    <desc>Created with Sketch.</desc>
    <defs></defs>
    <g id="在线砍价-A发起人" stroke="none" stroke-width="1" fill="none" fill-rule="evenodd">
        <g id="发起人-004-发起邀请" transform="translate(-168.000000, -638.000000)">
            <g id="hide" transform="translate(168.500000, 639.000000)">
                <circle id="Oval-9" stroke="#FFFFFF" cx="20" cy="20" r="20"></circle>
                <path d="M19,19 L10,19 L10,19 C9.44771525,19 9,19.4477153 9,20 C9,20.5522847 9.44771525,21 10,21 L19,21 L19,30 C19,30.5522847 19.4477153,31 20,31 C20.5522847,31 21,30.5522847 21,30 L21,21 L30,21 C30.5522847,21 31,20.5522847 31,20 C31,19.4477153 30.5522847,19 30,19 L21,19 L21,10 L21,10 C21,9.44771525 20.5522847,9 20,9 L20,9 L20,9 C19.4477153,9 19,9.44771525 19,10 L19,19 Z" id="Combined-Shape" fill="#FFFFFF" transform="translate(20.000000, 20.000000) rotate(45.000000) translate(-20.000000, -20.000000) "></path>
            </g>
        </g>
    </g>
</svg>