<?xml version="1.0" encoding="UTF-8"?>
<svg width="43px" height="36px" viewBox="0 0 43 36" version="1.1" xmlns="http://www.w3.org/2000/svg" xmlns:xlink="http://www.w3.org/1999/xlink">
    <!-- Generator: Sketch 46.2 (44496) - http://www.bohemiancoding.com/sketch -->
    <title>icon-已砍</title>
    <desc>Created with Sketch.</desc>
    <defs></defs>
    <g id="在线砍价-A发起人" stroke="none" stroke-width="1" fill="none" fill-rule="evenodd">
        <g id="发起人-002-自砍成功弹窗" transform="translate(-162.000000, -325.000000)">
            <g id="Group-7" transform="translate(62.000000, 295.000000)">
                <g id="Group-2" transform="translate(100.000000, 30.000000)">
                    <g id="icon-已砍">
                        <path d="M32.8655597,27.4032515 L32.8682231,27.4042929 C29.7577866,32.3867004 24.2256856,35.7016163 17.9193446,35.7016163 C11.7955304,35.7016163 6.40178663,32.5758132 3.24659179,27.8326856 C2.57976748,26.8302648 2.01292868,25.7556057 1.5603149,24.6229478 C1.55633934,24.6129991 1.56002933,24.6021502 1.57036994,24.5906581 C1.56274204,24.5505008 1.55875036,24.5090556 1.55875036,24.4666781 C1.55875036,24.101964 1.85440951,23.8063049 2.21912357,23.8063049 C2.5338806,23.8063049 2.79720481,24.026515 2.86343734,24.3212763 C3.26631427,25.2937874 3.76309916,26.2245281 4.34625597,27.1011736 C7.34835338,31.6141536 12.3978893,34.3808699 17.9193446,34.3808699 C23.3398682,34.3808699 28.3004603,31.7131891 31.3149852,27.3627151 C31.330727,27.339997 31.4474187,27.2052564 31.5439126,27.0928034 L21.3344225,16.8833133 C20.6928872,16.241778 20.6928872,15.2016439 21.3344225,14.5601087 C21.9759577,13.9185735 23.0160918,13.9185735 23.6576271,14.5601087 L33.1130368,23.9777218 C33.833217,22.1203382 34.2085505,20.1335181 34.2085505,18.091664 C34.2085505,9.40111468 27.4028893,2.30011274 18.8304156,1.82750693 C18.7841712,1.83776484 18.7361025,1.84317419 18.6867705,1.84317419 C18.3220564,1.84317419 18.0263972,1.54751504 18.0263972,1.18280098 C18.0263972,0.818086928 18.3220564,0.52242777 18.6867705,0.52242777 C18.7044729,0.52242777 18.7220126,0.523124317 18.7393637,0.524491499 C18.7361749,0.509986833 18.7327648,0.501823 18.7291333,0.5 C28.0789511,0.923184046 35.5292969,8.63736326 35.5292969,18.091664 C35.5292969,20.7594398 34.9360762,23.2886615 33.8743506,25.5546134 L33.8585115,25.5297226 L33.6137562,26.1220565 L22.7237183,15.4940174 C22.5979666,15.3682658 22.3940829,15.3682658 22.2683312,15.4940174 C22.1425796,15.6197691 22.1425796,15.8236529 22.2683312,15.9494045 L33.2149811,26.9373563 L32.8655597,27.4032515 Z M9.54269381,3.78706978 L10.4467052,2.88305838 C10.8386046,2.491159 11.473999,2.491159 11.8658984,2.88305838 C12.2577978,3.27495775 12.2577978,3.91035218 11.8658984,4.30225156 L10.961887,5.20626296 C10.5699876,5.59816234 9.93459319,5.59816234 9.54269381,5.20626296 C9.15079444,4.81436358 9.15079444,4.17896915 9.54269381,3.78706978 L9.54269381,3.78706978 Z M13.013341,5.96195421 C12.864404,6.07532273 12.6638631,6.25163782 12.3622827,6.53279048 C12.3461128,6.54786511 11.8901394,6.97557972 11.7397559,7.11473543 C11.4690183,7.36525952 11.2248962,7.58462347 10.9722153,7.80230557 C10.3235749,8.36110275 9.66666211,8.86555962 8.94246184,9.34509817 C8.81250964,9.43114769 8.68093834,9.51598648 8.54619115,9.60053247 C6.51186877,10.8733585 5.11698847,11.0443384 3.427058,10.6239762 C2.95676153,10.5069921 2.8829653,10.4933652 2.83291551,10.498353 C2.83034538,10.4986091 2.80731699,10.5105654 2.68912912,10.6287533 C1.33640126,11.9814812 2.16089634,15.3437922 6.3954525,19.5783483 C10.7223518,23.9052476 13.9055713,24.7288739 15.3469298,23.2853673 C15.4344862,23.1979394 15.5017508,23.1168823 15.5535668,23.0395656 C15.7477597,22.7498023 15.7678829,22.5097095 15.6766405,21.548188 C15.5192882,19.8899948 15.6142937,18.8824084 16.3179826,17.5173387 C16.7596714,16.6659891 17.330612,15.8912367 18.0966419,15.0305105 C17.9870293,15.1536734 19.6744905,13.3422902 19.9119561,13.0068351 C19.9342705,12.9753127 19.9536348,12.9467659 19.9703178,12.9214027 L13.013341,5.96195421 Z M16.2815337,24.2185804 C14.5520879,25.9506036 10.848342,25.8990553 5.46154375,20.5122571 C0.0799003483,15.1306137 0.18557438,11.2644905 1.75522037,9.69484455 C3.32744378,8.12262114 4.03107819,10.8675686 7.84565301,8.48088188 C11.6576504,6.08904037 12.4824234,3.56575068 13.8149471,4.89569703 L21.0729489,12.1562763 C22.4080501,13.4888 19.0187489,15.1795846 17.4903415,18.1255704 C16.0753404,20.8705178 18.0109794,22.4917121 16.2815337,24.2185804 Z" id="Combined-Shape" fill="#FFFFFF" fill-rule="nonzero"></path>
                        <g id="Group-23" transform="translate(25.931152, 18.931152)">
                            <circle id="Oval" fill="#FFFFFF" cx="8.28442383" cy="8.28442383" r="8.28442383"></circle>
                            <path d="M9.98334373,10.4188903 L6.4543134,10.4188903 L6.4543134,10.4188903 C6.11532446,10.4188903 5.84051963,10.6936951 5.84051963,11.0326841 C5.84051963,11.371673 6.11532446,11.6464778 6.4543134,11.6464778 L10.1171905,11.6464778 C10.2099114,11.6464778 10.2978305,11.6259185 10.3766376,11.5891099 C10.4450716,11.6154616 10.5194176,11.6299066 10.5971375,11.6299066 C10.9361264,11.6299066 11.2109313,11.3551017 11.2109313,11.0161128 L11.2109313,11.0161128 L11.2109313,4.09292594 C11.2109313,3.753937 10.9361264,3.47913217 10.5971375,3.47913217 C10.2581486,3.47913217 9.98334373,3.753937 9.98334373,4.09292594 L9.98334373,4.09292594 L9.98334373,10.4188903 Z" id="Combined-Shape" fill="#E75040" transform="translate(8.525725, 7.562805) rotate(45.000000) translate(-8.525725, -7.562805) "></path>
                        </g>
                    </g>
                </g>
            </g>
        </g>
    </g>
</svg>