<?xml version="1.0" encoding="UTF-8"?>
<svg width="97px" height="57px" viewBox="0 0 97 57" version="1.1" xmlns="http://www.w3.org/2000/svg" xmlns:xlink="http://www.w3.org/1999/xlink">
    <!-- Generator: Sketch 46.2 (44496) - http://www.bohemiancoding.com/sketch -->
    <title>最低价时的现价背景图</title>
    <desc>Created with Sketch.</desc>
    <defs>
        <polygon id="path-1" points="44.9112287 43.6265558 33.7372244 49.9972459 29.4550244 41.6059237 14.0474822 44.1227183 18.0506498 35.6125752 2.53800817 33.6011011 13.7538977 27.252423 2.29275653 21.2516532 17.7160796 18.7655633 13.3774423 10.3833991 28.8755318 12.4260432 32.8219328 3.90847885 44.2420883 9.93253205 55.4160926 3.56184198 59.6982926 11.9531641 74.1003706 9.4363696 71.1026672 17.9465127 86.6153088 19.9579868 75.3994193 26.3066649 86.8605605 32.3074347 71.4372375 34.7935246 75.7758747 43.1756887 60.2777852 41.1330447 56.3313842 49.650609"></polygon>
        <filter x="-8.9%" y="-11.8%" width="117.7%" height="132.3%" filterUnits="objectBoundingBox" id="filter-2">
            <feMorphology radius="0.5" operator="dilate" in="SourceAlpha" result="shadowSpreadOuter1"></feMorphology>
            <feOffset dx="0" dy="2" in="shadowSpreadOuter1" result="shadowOffsetOuter1"></feOffset>
            <feGaussianBlur stdDeviation="2" in="shadowOffsetOuter1" result="shadowBlurOuter1"></feGaussianBlur>
            <feComposite in="shadowBlurOuter1" in2="SourceAlpha" operator="out" result="shadowBlurOuter1"></feComposite>
            <feColorMatrix values="0 0 0 0 0.835294118   0 0 0 0 0.0666666667   0 0 0 0 0.0431372549  0 0 0 1 0" type="matrix" in="shadowBlurOuter1"></feColorMatrix>
        </filter>
        <polygon id="path-3" points="44.9112287 40.9753408 33.7372244 47.3460308 29.4550244 38.9547087 12.0365538 45.0064566 18.0506498 32.9613601 0.52707974 33.6011011 13.7538977 24.601208 0.281828096 20.3679148 17.7160796 16.1143482 11.9790368 9.30194908 28.8755318 9.77482814 32.8219328 1.25726379 44.2420883 7.28131699 55.4160926 0.910626925 59.6982926 9.30194908 76.3287465 7.9678183 71.1026672 15.2952977 89.3997813 19.4564169 75.3994193 23.6554498 89.8769531 32.3074347 71.4372375 32.1423095 77.7868032 44.0594271 60.2777852 38.4818296 56.3313842 46.999394"></polygon>
        <filter x="-7.8%" y="-10.8%" width="115.6%" height="130.1%" filterUnits="objectBoundingBox" id="filter-4">
            <feOffset dx="0" dy="2" in="SourceAlpha" result="shadowOffsetOuter1"></feOffset>
            <feGaussianBlur stdDeviation="2" in="shadowOffsetOuter1" result="shadowBlurOuter1"></feGaussianBlur>
            <feColorMatrix values="0 0 0 0 0.835294118   0 0 0 0 0.0666666667   0 0 0 0 0.0431372549  0 0 0 1 0" type="matrix" in="shadowBlurOuter1"></feColorMatrix>
        </filter>
    </defs>
    <g id="在线砍价-A发起人" stroke="none" stroke-width="1" fill="none" fill-rule="evenodd">
        <g id="发起人-006-已到达砍减最高值" transform="translate(-137.000000, -457.000000)">
            <g id="Group-11" transform="translate(140.500000, 458.000000)">
                <g id="最低价时的现价背景图">
                    <g id="Star">
                        <use fill="black" fill-opacity="1" filter="url(#filter-2)" xlink:href="#path-1"></use>
                        <use stroke="#FFFFFF" stroke-width="1" fill="#FFFFFF" fill-rule="evenodd" xlink:href="#path-1"></use>
                    </g>
                    <g id="Star">
                        <use fill="black" fill-opacity="1" filter="url(#filter-4)" xlink:href="#path-3"></use>
                        <use fill="#FFFFFF" fill-rule="evenodd" xlink:href="#path-3"></use>
                    </g>
                </g>
            </g>
        </g>
    </g>
</svg>