<?xml version="1.0" encoding="UTF-8"?>
<svg width="26px" height="11px" viewBox="0 0 26 11" version="1.1" xmlns="http://www.w3.org/2000/svg" xmlns:xlink="http://www.w3.org/1999/xlink">
    <!-- Generator: Sketch 46.2 (44496) - http://www.bohemiancoding.com/sketch -->
    <title>progress</title>
    <desc>Created with Sketch.</desc>
    <defs>
        <linearGradient x1="50%" y1="9.78597005%" x2="50%" y2="88.7084961%" id="linearGradient-1">
            <stop stop-color="#FFCF00" offset="0%"></stop>
            <stop stop-color="#FFB100" offset="98.8500478%"></stop>
        </linearGradient>
        <rect id="path-2" x="0.51751709" y="0.516418457" width="25.7999992" height="10"></rect>
    </defs>
    <g id="在线砍价-A发起人" stroke="none" stroke-width="1" fill="none" fill-rule="evenodd">
        <g id="发起人-001-自砍第一刀" transform="translate(-138.000000, -481.000000)">
            <g id="Group-22" transform="translate(12.000000, 182.000000)">
                <g id="Group-12" transform="translate(0.000000, 248.000000)">
                    <g id="进度条" transform="translate(36.500000, 49.886719)">
                        <g id="progress" transform="translate(89.000000, 1.000000)">
                            <mask id="mask-3" fill="white">
                                <use xlink:href="#path-2"></use>
                            </mask>
                            <use id="Rectangle-12" fill="url(#linearGradient-1)" xlink:href="#path-2"></use>
                            <g id="Group-10" mask="url(#mask-3)" fill-opacity="0.477864583" fill="#F8801C">
                                <g transform="translate(-1.500000, -1.000000)" id="Rectangle-13">
                                    <polygon points="9.07973777 0.5 11.5377877 0.5 14.9584137 12.5 12.5003638 12.5"></polygon>
                                    <polygon points="4.77815045 0.5 7.23620035 0.5 10.6568264 12.5 8.19877653 12.5"></polygon>
                                    <polygon points="0.476563127 0.5 2.93461303 0.5 6.3552391 12.5 3.89718921 12.5"></polygon>
                                    <polygon points="21.9844997 0.5 24.4425496 0.5 27.8631757 12.5 25.4051258 12.5"></polygon>
                                    <polygon points="17.6829124 0.5 20.1409623 0.5 23.5615884 12.5 21.1035385 12.5"></polygon>
                                    <polygon points="13.3813251 0.5 15.839375 0.5 19.2600011 12.5 16.8019512 12.5"></polygon>
                                    <polygon points="26.2860871 0.5 28.744137 0.5 32.164763 12.5 29.7067131 12.5"></polygon>
                                </g>
                            </g>
                        </g>
                    </g>
                </g>
            </g>
        </g>
    </g>
</svg>