<?xml version="1.0" encoding="UTF-8"?>
<svg width="62px" height="70px" viewBox="0 0 62 70" version="1.1" xmlns="http://www.w3.org/2000/svg" xmlns:xlink="http://www.w3.org/1999/xlink">
    <!-- Generator: Sketch 46.2 (44496) - http://www.bohemiancoding.com/sketch -->
    <title>sad</title>
    <desc>Created with Sketch.</desc>
    <defs>
        <polygon id="path-1" points="1.32260531 31.7278868 7.74858089 19.3655575 38.8065804 14.9925381 49.2391353 26.7693259 47.9685156 31.3697264"></polygon>
    </defs>
    <g id="在线砍价-A发起人" stroke="none" stroke-width="1" fill="none" fill-rule="evenodd">
        <g id="发起人-011-我的购买（空）" transform="translate(-152.000000, -110.000000)">
            <g id="sad" transform="translate(151.000000, 109.437500)">
                <g id="Group-4">
                    <g id="Group">
                        <path d="M61.6088123,46.4014004 C58.8388669,46.4014004 56.5933824,44.149638 56.5933824,41.3719483 C56.5933824,38.5942586 58.8388669,36.3424962 61.6088123,36.3424962 C62.3670025,36.3424962 62.5145066,46.4014004 61.6088123,46.4014004 Z M60.4942723,43.0484323 C61.4175875,43.0484323 62.1660823,42.2978449 62.1660823,41.3719483 C62.1660823,40.4460518 61.4175875,39.6954643 60.4942723,39.6954643 C59.5709572,39.6954643 58.8224624,40.4460518 58.8224624,41.3719483 C58.8224624,42.2978449 59.5709572,43.0484323 60.4942723,43.0484323 Z" id="Combined-Shape" fill="#C4C3C8" transform="translate(59.413686, 41.371948) scale(-1, 1) rotate(3.000000) translate(-59.413686, -41.371948) "></path>
                        <path d="M10.1842205,49.1028866 C12.1626783,48.4292739 13.5863018,46.5510083 13.5863018,44.339308 C13.5863018,42.2481566 12.3136384,40.4550827 10.5026428,39.6964707 C9.90808154,39.4474135 9.6779195,49.2752687 10.1842205,49.1028866 Z" id="Oval-4" fill="#C4C3C8" transform="translate(11.745979, 44.398472) scale(-1, 1) rotate(3.000000) translate(-11.745979, -44.398472) "></path>
                        <path d="M11.2291586,65.8779064 L13.1007072,28.4687974 L60.1029476,27.9110609 L58.1403962,65.9326471 L51.7333206,69.6834546 L11.2291586,65.8779064 Z M16.2179362,30.9234931 L15.3123724,62.8820157 L50.8478926,68.2929334 L57.1049503,66.0016977 L57.8036647,29.2721127 L16.2179362,30.9234931 Z" id="Combined-Shape" fill="#C4C3C8" transform="translate(35.666053, 48.797258) scale(-1, 1) rotate(3.000000) translate(-35.666053, -48.797258) "></path>
                        <polygon id="Rectangle-9" fill="#A1A1A1" transform="translate(31.624414, 46.192365) scale(-1, 1) rotate(3.000000) translate(-31.624414, -46.192365) " points="30.5098742 41.1629125 32.7389542 41.1629125 33.8534941 51.2218167 29.3953343 51.2218167"></polygon>
                        <polygon id="Path-2" fill="#C4C3C8" transform="translate(32.435536, 15.453019) scale(-1, 1) rotate(3.000000) translate(-32.435536, -15.453019) " points="8.16002466 29.4762655 10.8120454 9.22332154 30.1211221 1.42977209 49.320689 7.18009715 56.7110468 28.6120245"></polygon>
                        <g id="Path-3" transform="translate(25.280870, 23.360212) scale(-1, 1) rotate(3.000000) translate(-25.280870, -23.360212) ">
                            <use fill="#C4C3C8" fill-rule="evenodd" xlink:href="#path-1"></use>
                            <path stroke="#F7F5F6" stroke-width="2" d="M2.97605217,30.7151617 L47.2056619,30.3755543 L48.1307458,27.0261995 L38.4141775,16.057653 L8.39822701,20.2839501 L2.97605217,30.7151617 Z"></path>
                        </g>
                    </g>
                </g>
                <g id="Group-13" transform="translate(37.673758, 39.275460)">
                    <path d="M0.364370741,0.359152987 C0.398249489,1.82692177 0.681185404,2.84744379 1.21317849,3.42071905 C2.01116811,4.28063194 3.78707254,7.05310156 4.0569603,8.63206733 C4.32684806,10.2110331 4.46762877,12.9390082 5.04654875,14.4216085 C5.62546874,15.9042088 8.32846984,18.387582 8.46925055,21.1155571 C8.56310436,22.9342071 8.55532192,23.9395253 8.46925055,24.7055315 L15.436211,23.4385812 C15.9421078,20.2838071 15.9421078,17.8613386 15.436211,16.1711759 C14.6773659,13.6359317 11.2863344,12.6351589 10.3475641,9.04727088 C9.40879375,5.45938289 7.89532352,0.97785389 6.96822684,1.26695033 C6.35016239,1.4596813 5.25669373,1.05108029 0.364370741,0.359152987 Z" id="Path-8" fill="#BBD7F9"></path>
                    <path d="M6.66047763,11.4705339 C7.23939761,12.9531342 10.3413935,15.8664638 10.5721368,19.1207608 C10.6571804,20.3201756 10.7393463,21.9954013 10.8186348,24.146438 L14.6474304,23.7127521 C14.6688223,20.1671384 14.3835343,17.9322532 13.7915661,17.0080967 C12.9036139,15.6218619 10.6895702,14.0947671 10.2397573,11.4631574 C9.93988199,9.70875103 9.24965904,5.66822053 7.55075918,1.77311787 L4.73211884,2.09310474 C5.63174471,7.35632398 6.27453097,10.4821337 6.66047763,11.4705339 Z" id="Path-9" fill="#A7CBF5" transform="translate(9.690334, 12.959778) rotate(-3.000000) translate(-9.690334, -12.959778) "></path>
                </g>
                <g id="Group-13" transform="translate(19.771205, 51.775460) scale(-1, 1) translate(-19.771205, -51.775460) translate(13.271205, 39.275460)">
                    <path d="M0.364370741,0.359152987 C0.398249489,1.82692177 0.681185404,2.84744379 1.21317849,3.42071905 C2.01116811,4.28063194 3.78707254,7.05310156 4.0569603,8.63206733 C4.32684806,10.2110331 3.77959842,13.7881333 6.33475167,15.8368792 C8.03818718,17.2027098 9.72745429,20.1589272 11.402553,24.7055315 L12.1662663,12.2054108 C11.1881027,10.995473 10.5818686,9.94275972 10.3475641,9.04727088 C9.40879375,5.45938289 7.89532352,0.97785389 6.96822684,1.26695033 C6.35016239,1.4596813 5.25669373,1.05108029 0.364370741,0.359152987 Z" id="Path-8" fill="#BBD7F9"></path>
                    <path d="M7.927106,11.5908528 C8.50602599,13.0734531 10.3428079,15.9204756 10.5735512,19.1747726 C10.6585947,20.3741874 10.7407607,22.0494131 10.8200491,24.2004498 L11.9533147,14.8785943 C10.5470358,13.533407 9.76545247,12.4018808 9.60856462,11.4840157 C9.30868933,9.72960931 9.25107339,5.72223234 7.55217353,1.82712968 L5.3661402,2.18027007 C7.91955231,6.9211393 7.54115934,10.6024526 7.927106,11.5908528 Z" id="Path-9" fill="#A7CBF5" transform="translate(8.659727, 13.013790) rotate(-3.000000) translate(-8.659727, -13.013790) "></path>
                </g>
                <path d="M19.6691615,42.0027816 C19.7062995,41.9763888 19.8071804,41.9139741 19.9619967,41.83419 C20.2331889,41.6944319 20.5408744,41.5718596 20.8746044,41.4834625 C22.0033674,41.1844802 23.1297917,41.335816 24.235805,42.1428657 C24.696979,42.4793809 25.3433955,42.3789844 25.6796167,41.9186238 C26.0158379,41.4582633 25.9145437,40.8122679 25.4533698,40.4757527 C23.8080031,39.275141 22.0403717,39.0376586 20.3426495,39.4873446 C19.5046845,39.7093014 18.8635006,40.0397337 18.4698326,40.3195009 C18.0050291,40.6498218 17.8967104,41.294415 18.2278959,41.7592401 C18.5590815,42.2240652 19.2043581,42.3331024 19.6691615,42.0027816 L19.6691615,42.0027816 Z" id="expression" fill="#A1A1A1" transform="translate(21.957038, 40.808676) scale(1, -1) rotate(8.000000) translate(-21.957038, -40.808676) "></path>
                <path d="M39.3068917,41.3693064 C39.3440296,41.3429137 39.4449106,41.280499 39.5997269,41.2007149 C39.8709191,41.0609567 40.1786046,40.9383844 40.5123346,40.8499873 C41.6410976,40.551005 42.7675219,40.7023408 43.8735352,41.5093905 C44.3347092,41.8459057 44.9811257,41.7455092 45.3173469,41.2851487 C45.6535681,40.8247881 45.5522739,40.1787927 45.0911,39.8422775 C43.4457333,38.6416658 41.6781019,38.4041835 39.9803797,38.8538694 C39.1424147,39.0758263 38.5012308,39.4062585 38.1075628,39.6860257 C37.6427593,40.0163466 37.5344406,40.6609398 37.8656261,41.1257649 C38.1968117,41.5905901 38.8420882,41.6996273 39.3068917,41.3693064 L39.3068917,41.3693064 Z" id="expression" fill="#A1A1A1" transform="translate(41.594768, 40.175201) scale(1, -1) rotate(-12.000000) translate(-41.594768, -40.175201) "></path>
            </g>
        </g>
    </g>
</svg>