<?xml version="1.0" encoding="UTF-8"?>
<svg width="42px" height="43px" viewBox="0 0 42 43" version="1.1" xmlns="http://www.w3.org/2000/svg" xmlns:xlink="http://www.w3.org/1999/xlink">
    <!-- Generator: Sketch 46.2 (44496) - http://www.bohemiancoding.com/sketch -->
    <title>Group 2</title>
    <desc>Created with Sketch.</desc>
    <defs></defs>
    <g id="在线砍价-A发起人" stroke="none" stroke-width="1" fill="none" fill-rule="evenodd">
        <g id="发起人-009-购买成功" transform="translate(-98.000000, -235.000000)">
            <g id="Group-9" transform="translate(47.000000, 164.500000)">
                <g id="Group-10" transform="translate(51.500000, 69.500000)">
                    <g id="Group-2" transform="translate(0.000000, 2.000000)">
                        <circle id="Oval" stroke="#000000" cx="20.5" cy="20.5" r="20.5"></circle>
                        <path d="M25.0857864,25 L16.4142136,25 L16.4142136,25 C15.5857864,25 14.9142136,25.6715729 14.9142136,26.5 C14.9142136,27.3284271 15.5857864,28 16.4142136,28 L25.4142136,28 C25.6220587,28 25.8200305,27.9577269 26,27.8813094 C26.1799695,27.9577269 26.3779413,28 26.5857864,28 C27.4142136,28 28.0857864,27.3284271 28.0857864,26.5 L28.0857864,9.5 L28.0857864,9.5 C28.0857864,8.67157288 27.4142136,8 26.5857864,8 C25.7573593,8 25.0857864,8.67157288 25.0857864,9.5 L25.0857864,25 Z" id="Combined-Shape" fill="#E75040" transform="translate(21.500000, 18.000000) rotate(45.000000) translate(-21.500000, -18.000000) "></path>
                    </g>
                </g>
            </g>
        </g>
    </g>
</svg>