<?xml version="1.0" encoding="UTF-8"?>
<svg width="46px" height="52px" viewBox="0 0 46 52" version="1.1" xmlns="http://www.w3.org/2000/svg" xmlns:xlink="http://www.w3.org/1999/xlink">
    <!-- Generator: Sketch 46.2 (44496) - http://www.bohemiancoding.com/sketch -->
    <title>tips</title>
    <desc>Created with Sketch.</desc>
    <defs></defs>
    <g id="在线砍价-A发起人" stroke="none" stroke-width="1" fill="none" fill-rule="evenodd">
        <g id="发起人-009-购买成功" transform="translate(-67.000000, -332.000000)">
            <g id="Group-9" transform="translate(47.000000, 164.500000)">
                <g id="Group-5" transform="translate(20.500000, 167.500000)">
                    <g id="tips">
                        <polygon id="Line-2" fill="#6687C5" points="35 0 45.5 27 35 52 0 52 0 0"></polygon>
                        <path d="M9.81800006,29.88 C9.78466656,29.8066663 9.77799996,29.7350004 9.79800006,29.665 C9.81800016,29.5949996 9.87466626,29.5533334 9.96800006,29.54 L10.5580001,29.45 C10.6913341,29.4166665 10.7913331,29.361667 10.8580001,29.285 C10.9246671,29.2083329 10.9580001,29.0500012 10.9580001,28.81 L10.9580001,22.42 C10.9580001,22.286666 10.9896664,22.186667 11.0530001,22.12 C11.1163337,22.053333 11.2379992,22.0233333 11.4180001,22.03 L11.9080001,22.03 C12.0813343,22.0366667 12.1979998,22.073333 12.2580001,22.14 C12.3180004,22.206667 12.3480001,22.2999994 12.3480001,22.42 L12.3480001,29.12 C12.3480001,29.320001 12.3430001,29.5083325 12.3330001,29.685 C12.323,29.8616675 12.2913337,30.0199993 12.2380001,30.16 C12.1846665,30.3000007 12.1030006,30.4216661 11.9930001,30.525 C11.8829995,30.6283338 11.7280011,30.7099997 11.5280001,30.77 C11.4346663,30.8033335 11.3246674,30.8299999 11.1980001,30.85 C11.0713328,30.8700001 10.9313342,30.8866666 10.7780001,30.9 C10.624666,30.9133334 10.5180004,30.9100001 10.4580001,30.89 C10.3979998,30.8699999 10.3346671,30.8100005 10.2680001,30.71 C10.2279999,30.6499997 10.1880003,30.5833337 10.1480001,30.51 C10.1079999,30.4366663 10.0680003,30.361667 10.0280001,30.285 C9.98799986,30.2083329 9.94966691,30.1350003 9.91300006,30.065 C9.87633321,29.9949997 9.84466686,29.9333336 9.81800006,29.88 Z M7.00800006,28.94 C7.20800106,28.5333313 7.38299931,28.1516684 7.53300006,27.795 C7.68300081,27.4383315 7.81633281,27.0883351 7.93300006,26.745 C8.04966731,26.4016649 8.15466626,26.0550017 8.24800006,25.705 C8.34133386,25.3549982 8.43133296,24.9833353 8.51800006,24.59 C8.54466686,24.4833328 8.60299961,24.4000003 8.69300006,24.34 C8.78300051,24.2799997 8.89466606,24.2666665 9.02800006,24.3 C9.16800076,24.3333335 9.30299941,24.3733331 9.43300006,24.42 C9.56300071,24.4666669 9.65799976,24.5066665 9.71800006,24.54 C9.84466736,24.6000003 9.92633321,24.6683329 9.96300006,24.745 C9.99966691,24.821667 9.99133366,24.9333326 9.93800006,25.08 C9.80466606,25.4533352 9.64133436,25.8433313 9.44800006,26.25 C9.25466576,26.6566687 9.04300121,27.0483314 8.81300006,27.425 C8.58299891,27.8016685 8.34300131,28.1466651 8.09300006,28.46 C7.84299881,28.7733349 7.59800126,29.0199991 7.35800006,29.2 C7.31799986,29.2333335 7.27633361,29.245 7.23300006,29.235 C7.18966651,29.2249999 7.14800026,29.2050001 7.10800006,29.175 C7.06799986,29.1449998 7.03800016,29.1083335 7.01800006,29.065 C6.99799996,29.0216664 6.99466666,28.9800002 7.00800006,28.94 Z M13.1880001,24.56 C13.168,24.5199998 13.1713333,24.4783336 13.1980001,24.435 C13.2246669,24.3916665 13.2579999,24.3566668 13.2980001,24.33 C13.3380003,24.3033332 13.3813332,24.2866667 13.4280001,24.28 C13.474667,24.2733333 13.5113333,24.2833332 13.5380001,24.31 C13.7446678,24.5033343 13.9679989,24.733332 14.2080001,25 C14.4480013,25.266668 14.677999,25.5399986 14.8980001,25.82 C15.1180012,26.1000014 15.3129992,26.3699987 15.4830001,26.63 C15.6530009,26.8900013 15.7779997,27.1033325 15.8580001,27.27 C15.9380005,27.4433342 15.9780001,27.6083326 15.9780001,27.765 C15.9780001,27.9216674 15.9280006,28.0966657 15.8280001,28.29 C15.7079995,28.5233345 15.5546677,28.7166659 15.3680001,28.87 C15.2946664,28.9233336 15.2213338,28.9633332 15.1480001,28.99 C15.0746664,29.0166668 15.0046671,29.0200001 14.9380001,29 C14.8713331,28.9799999 14.809667,28.9350003 14.7530001,28.865 C14.6963331,28.7949996 14.6480003,28.6900007 14.6080001,28.55 C14.4479993,27.9699971 14.2546679,27.3566699 14.0280001,26.71 C13.8013323,26.0633301 13.5213351,25.3466706 13.1880001,24.56 Z M20.7180001,22.49 C20.7180001,22.2433321 20.8313323,22.12 21.0580001,22.12 L21.5080001,22.12 C21.7346679,22.12 21.8546667,22.2299989 21.8680001,22.45 L24.0780001,22.45 C24.0780001,22.2166655 24.1913323,22.1 24.4180001,22.1 L24.8880001,22.1 C25.1213346,22.1 25.2380001,22.2233321 25.2380001,22.47 L25.2380001,25.61 C25.2380001,25.7366673 25.209667,25.8233331 25.1530001,25.87 C25.0963331,25.9166669 25.0080007,25.94 24.8880001,25.94 L24.4180001,25.94 C24.3046662,25.94 24.2213337,25.9200002 24.1680001,25.88 C24.1146665,25.8399998 24.0846668,25.7666672 24.0780001,25.66 L21.8680001,25.66 L21.8680001,25.68 C21.8680001,25.8066673 21.8380004,25.8916665 21.7780001,25.935 C21.7179998,25.9783336 21.6280007,26 21.5080001,26 L21.0580001,26 C20.9446662,26 20.859667,25.9783336 20.8030001,25.935 C20.7463331,25.8916665 20.7180001,25.8066673 20.7180001,25.68 L20.7180001,22.49 Z M19.2580001,30.68 C19.504668,30.3933319 19.7063326,30.121668 19.8630001,29.865 C20.0196675,29.6083321 20.1479996,29.3516679 20.2480001,29.095 C20.3480006,28.838332 20.4263331,28.5800013 20.4830001,28.32 C20.539667,28.0599987 20.5913332,27.7833348 20.6380001,27.49 C20.6513335,27.4166663 20.6796665,27.3533336 20.7230001,27.3 C20.7663336,27.2466664 20.8446662,27.2266666 20.9580001,27.24 C21.1046675,27.2666668 21.2279996,27.2883332 21.3280001,27.305 C21.4280006,27.3216667 21.5279996,27.3433332 21.6280001,27.37 C21.7346673,27.3966668 21.7963333,27.4449996 21.8130001,27.515 C21.8296668,27.5850003 21.8280002,27.6733328 21.8080001,27.78 C21.7413331,28.1000016 21.651334,28.4133318 21.5380001,28.72 C21.6913342,28.8600007 21.8496659,28.9833328 22.0130001,29.09 C22.1763342,29.1966672 22.3579991,29.283333 22.5580001,29.35 L22.5580001,26.92 L20.0880001,26.92 C19.9946663,26.92 19.9480001,26.8666672 19.9480001,26.76 L19.9480001,26.61 C19.9480001,26.5033328 19.9946663,26.45 20.0880001,26.45 L25.8280001,26.45 C25.8680003,26.45 25.9063332,26.4633332 25.9430001,26.49 C25.9796669,26.5166668 25.9980001,26.5566664 25.9980001,26.61 L25.9980001,26.76 C25.9980001,26.8133336 25.9796669,26.8533332 25.9430001,26.88 C25.9063332,26.9066668 25.8680003,26.92 25.8280001,26.92 L23.7280001,26.92 L23.7280001,28.01 L25.5380001,28.01 C25.5780003,28.01 25.6096666,28.0266665 25.6330001,28.06 C25.6563335,28.0933335 25.6680001,28.1366664 25.6680001,28.19 L25.6680001,28.3 C25.6680001,28.4133339 25.6246672,28.47 25.5380001,28.47 L23.7280001,28.47 L23.7280001,29.52 C23.9280011,29.5266667 24.1396656,29.53 24.3630001,29.53 C24.5863345,29.53 24.8046657,29.5283333 25.0180001,29.525 C25.2313345,29.5216666 25.4313325,29.5166667 25.6180001,29.51 C25.8046677,29.5033333 25.9613328,29.4966667 26.0880001,29.49 C26.1546671,29.4833333 26.198,29.4916665 26.2180001,29.515 C26.2380002,29.5383334 26.2380002,29.5866663 26.2180001,29.66 C26.2113334,29.6933335 26.1980002,29.7416664 26.1780001,29.805 C26.158,29.8683337 26.1346669,29.9366663 26.1080001,30.01 L26.0280001,30.23 C26.0013333,30.3033337 25.9746669,30.3633331 25.9480001,30.41 C25.8946665,30.5100005 25.844667,30.5783331 25.7980001,30.615 C25.7513332,30.6516668 25.6813339,30.6733333 25.5880001,30.68 C25.4146659,30.6866667 25.2030013,30.6883333 24.9530001,30.685 C24.7029988,30.6816667 24.449668,30.6733334 24.1930001,30.66 C23.9363321,30.6466666 23.6946679,30.6300001 23.4680001,30.61 C23.2413323,30.5899999 23.071334,30.5666668 22.9580001,30.54 C22.7446657,30.4866664 22.5563342,30.421667 22.3930001,30.345 C22.2296659,30.268333 22.0846674,30.1750005 21.9580001,30.065 C21.8313328,29.9549995 21.7180006,29.8300007 21.6180001,29.69 C21.5179996,29.5499993 21.4213339,29.3866676 21.3280001,29.2 C21.1479992,29.5600018 20.9130015,29.8866652 20.6230001,30.18 C20.3329986,30.4733348 19.964669,30.7399988 19.5180001,30.98 C19.4713332,31.0000001 19.4280003,30.9983334 19.3880001,30.975 C19.3479999,30.9516665 19.3113336,30.9200002 19.2780001,30.88 C19.258,30.8466665 19.2446668,30.8116668 19.2380001,30.775 C19.2313334,30.7383331 19.238,30.7066668 19.2580001,30.68 Z M17.0780001,24.1 C17.0780001,24.0466664 17.0979999,24.0033335 17.1380001,23.97 C17.1780003,23.9366665 17.2246665,23.92 17.2780001,23.92 L18.0180001,23.92 L18.0180001,22.31 C18.0180001,22.1966661 18.0479998,22.1166669 18.1080001,22.07 C18.1680004,22.0233331 18.2713327,22 18.4180001,22 L18.7780001,22 C18.9180008,22 19.0196664,22.0316663 19.0830001,22.095 C19.1463337,22.1583336 19.1780001,22.2399995 19.1780001,22.34 L19.1780001,23.92 L19.9480001,23.92 C20.0013337,23.92 20.0479999,23.9366665 20.0880001,23.97 C20.1280003,24.0033335 20.1480001,24.0466664 20.1480001,24.1 L20.1480001,24.29 C20.1480001,24.3433336 20.1280003,24.3866665 20.0880001,24.42 C20.0479999,24.4533335 20.0013337,24.47 19.9480001,24.47 L19.1780001,24.47 L19.1780001,26.14 L19.9780001,25.97 C20.0180003,25.9633333 20.0563332,25.9749998 20.0930001,26.005 C20.1296669,26.0350001 20.1563333,26.0716665 20.1730001,26.115 C20.1896668,26.1583336 20.1963334,26.2049998 20.1930001,26.255 C20.1896667,26.3050002 20.1713336,26.3399999 20.1380001,26.36 C20.0246662,26.426667 19.8846676,26.5066662 19.7180001,26.6 C19.5513326,26.6933338 19.3713344,26.7899995 19.1780001,26.89 L19.1780001,29.51 C19.1780001,29.6966676 19.1680002,29.8549994 19.1480001,29.985 C19.128,30.1150007 19.0963336,30.2283329 19.0530001,30.325 C19.0096665,30.4216671 18.9546671,30.4999997 18.8880001,30.56 C18.8213331,30.6200003 18.7413339,30.6733331 18.6480001,30.72 C18.5546663,30.7733336 18.4496673,30.8099999 18.3330001,30.83 C18.2163328,30.8500001 18.101334,30.8666666 17.9880001,30.88 C17.8546661,30.8933334 17.7613337,30.8850001 17.7080001,30.855 C17.6546665,30.8249998 17.6013337,30.7633338 17.5480001,30.67 C17.4813331,30.5566661 17.4263336,30.4600004 17.3830001,30.38 C17.3396665,30.2999996 17.2980003,30.2166671 17.2580001,30.13 C17.2313333,30.063333 17.2263333,30.0050002 17.2430001,29.955 C17.2596668,29.9049998 17.3079997,29.8733334 17.3880001,29.86 L17.6680001,29.8 C17.8080008,29.7666665 17.9013332,29.7133337 17.9480001,29.64 C17.994667,29.5666663 18.0180001,29.430001 18.0180001,29.23 L18.0180001,27.47 C17.9379997,27.5100002 17.8630004,27.5449999 17.7930001,27.575 C17.7229997,27.6050001 17.6613337,27.6333332 17.6080001,27.66 C17.4946662,27.7133336 17.3980005,27.7366667 17.3180001,27.73 C17.2379997,27.7233333 17.1713337,27.6633339 17.1180001,27.55 C17.1113334,27.5299999 17.0996668,27.5000002 17.0830001,27.46 C17.0663333,27.4199998 17.0496668,27.3750002 17.0330001,27.325 C17.0163333,27.2749998 16.9980002,27.2216669 16.9780001,27.165 C16.958,27.108333 16.9446668,27.0600002 16.9380001,27.02 C16.9046666,26.8933327 16.9046666,26.7950004 16.9380001,26.725 C16.9713336,26.6549996 17.0546661,26.6033335 17.1880001,26.57 L18.0180001,26.39 L18.0180001,24.47 L17.2780001,24.47 C17.2246665,24.47 17.1780003,24.4533335 17.1380001,24.42 C17.0979999,24.3866665 17.0780001,24.3433336 17.0780001,24.29 L17.0780001,24.1 Z M21.8680001,25.22 L24.0780001,25.22 L24.0780001,24.27 L21.8680001,24.27 L21.8680001,25.22 Z M21.8680001,23.83 L24.0780001,23.83 L24.0780001,22.9 L21.8680001,22.9 L21.8680001,23.83 Z M30.0180001,30.03 C29.9846666,29.9566663 29.9746667,29.8900003 29.9880001,29.83 C30.0013335,29.7699997 30.0479997,29.7300001 30.1280001,29.71 L30.6480001,29.62 C30.7813341,29.5866665 30.8779998,29.5316671 30.9380001,29.455 C30.9980004,29.378333 31.0280001,29.2333344 31.0280001,29.02 L31.0280001,25.83 L27.2880001,25.83 C27.2346665,25.83 27.1896669,25.8100002 27.1530001,25.77 C27.1163332,25.7299998 27.0980001,25.6833336 27.0980001,25.63 L27.0980001,25.44 C27.0980001,25.3866664 27.1163332,25.3400002 27.1530001,25.3 C27.1896669,25.2599998 27.2346665,25.24 27.2880001,25.24 L35.8080001,25.24 C35.8613337,25.24 35.9079999,25.2599998 35.9480001,25.3 C35.9880003,25.3400002 36.0080001,25.3866664 36.0080001,25.44 L36.0080001,25.63 C36.0080001,25.6833336 35.9880003,25.7299998 35.9480001,25.77 C35.9079999,25.8100002 35.8613337,25.83 35.8080001,25.83 L32.3580001,25.83 L32.3580001,29.43 C32.3580001,29.8033352 32.3096672,30.0916656 32.2130001,30.295 C32.1163329,30.4983343 31.9546679,30.6466662 31.7280001,30.74 C31.6346663,30.7800002 31.5163341,30.8133332 31.3730001,30.84 C31.229666,30.8666668 31.0913341,30.8866666 30.9580001,30.9 C30.8779997,30.9066667 30.8080004,30.91 30.7480001,30.91 C30.6879998,30.91 30.6380003,30.9050001 30.5980001,30.895 C30.5579999,30.885 30.5213336,30.8650002 30.4880001,30.835 C30.4546666,30.8049999 30.4213336,30.7633336 30.3880001,30.71 C30.3279998,30.6033328 30.2596671,30.4800007 30.1830001,30.34 C30.106333,30.1999993 30.0513336,30.096667 30.0180001,30.03 Z M26.9980001,30.07 C27.4580024,29.5033305 27.8413319,28.9466694 28.1480001,28.4 C28.4546683,27.8533306 28.7046658,27.2966695 28.8980001,26.73 C28.9246669,26.6566663 28.9696664,26.5950002 29.0330001,26.545 C29.0963337,26.4949997 29.1946661,26.4899998 29.3280001,26.53 C29.4880009,26.5766669 29.6329994,26.6266664 29.7630001,26.68 C29.8930007,26.7333336 29.9846665,26.7766665 30.0380001,26.81 C30.151334,26.8700003 30.213,26.9399996 30.2230001,27.02 C30.2330001,27.1000004 30.2113337,27.1933328 30.1580001,27.3 C30.0313328,27.5533346 29.878001,27.8149987 29.6980001,28.085 C29.5179992,28.3550014 29.3096679,28.6249987 29.0730001,28.895 C28.8363322,29.1650014 28.5713349,29.4266654 28.2780001,29.68 C27.9846653,29.9333346 27.6613352,30.1666656 27.3080001,30.38 C27.2746666,30.4066668 27.2363336,30.4133334 27.1930001,30.4 C27.1496665,30.3866666 27.1113336,30.3633335 27.0780001,30.33 C27.0379999,30.2966665 27.0063335,30.2533336 26.9830001,30.2 C26.9596666,30.1466664 26.9646666,30.1033335 26.9980001,30.07 Z M32.9680001,26.98 C32.9346666,26.9466665 32.9263333,26.9050003 32.9430001,26.855 C32.9596668,26.8049997 32.9879999,26.7600002 33.0280001,26.72 C33.0613336,26.6866665 33.1013332,26.6650001 33.1480001,26.655 C33.194667,26.6449999 33.2446665,26.6533332 33.2980001,26.68 C33.6580019,26.8933344 33.9679988,27.0949991 34.2280001,27.285 C34.4880014,27.4750009 34.7096658,27.6499992 34.8930001,27.81 C35.0763343,27.9700008 35.2263328,28.1133327 35.3430001,28.24 C35.4596673,28.3666673 35.5546664,28.4766662 35.6280001,28.57 C35.7613341,28.7433342 35.8280001,28.8933327 35.8280001,29.02 C35.8280001,29.1466673 35.7980004,29.309999 35.7380001,29.51 C35.7246667,29.576667 35.6980003,29.6449996 35.6580001,29.715 C35.6179999,29.7850003 35.5780003,29.8466664 35.5380001,29.9 C35.4713331,30.0000005 35.3980005,30.0799997 35.3180001,30.14 C35.2379997,30.2000003 35.1580005,30.2316666 35.0780001,30.235 C34.9979997,30.2383334 34.9230004,30.2133336 34.8530001,30.16 C34.7829997,30.1066664 34.7213337,30.0166673 34.6680001,29.89 C34.5679996,29.6633322 34.4630006,29.4383345 34.3530001,29.215 C34.2429995,28.9916655 34.1213341,28.7616678 33.9880001,28.525 C33.8546661,28.2883321 33.7046676,28.0416679 33.5380001,27.785 C33.3713326,27.528332 33.1813345,27.2600014 32.9680001,26.98 Z M27.9580001,22.89 C27.9580001,22.8366664 27.9779999,22.7900002 28.0180001,22.75 C28.0580003,22.7099998 28.1046665,22.69 28.1580001,22.69 L35.0380001,22.69 C35.0913337,22.69 35.1363332,22.7099998 35.1730001,22.75 C35.2096669,22.7900002 35.2280001,22.8366664 35.2280001,22.89 L35.2280001,23.02 C35.2280001,23.0733336 35.2096669,23.1199998 35.1730001,23.16 C35.1363332,23.2000002 35.0913337,23.22 35.0380001,23.22 L28.1580001,23.22 C28.1046665,23.22 28.0580003,23.2000002 28.0180001,23.16 C27.9779999,23.1199998 27.9580001,23.0733336 27.9580001,23.02 L27.9580001,22.89 Z" fill="#FFFFFF"></path>
                    </g>
                </g>
            </g>
        </g>
    </g>
</svg>