<?xml version="1.0" encoding="UTF-8"?>
<svg width="19px" height="8px" viewBox="0 0 19 8" version="1.1" xmlns="http://www.w3.org/2000/svg" xmlns:xlink="http://www.w3.org/1999/xlink">
    <!-- Generator: Sketch 46.2 (44496) - http://www.bohemiancoding.com/sketch -->
    <title>upstair</title>
    <desc>Created with Sketch.</desc>
    <defs></defs>
    <g id="在线砍价-A发起人" stroke="none" stroke-width="1" fill="none" fill-rule="evenodd">
        <g id="发起人-001-自砍第一刀" transform="translate(-175.000000, -645.000000)" fill-rule="nonzero" fill="#E4020F">
            <g id="Group-15" transform="translate(157.500000, 626.000000)">
                <path d="M26.9127292,22.3260816 L26.4250458,22.320001 L26.670099,22.2322847 L26.9127292,22.3260816 Z M35.5855842,19.0410025 C35.9370126,18.9152093 36.327416,19.0885677 36.4575746,19.4282092 C36.5877332,19.7678507 36.4083587,20.14516 36.0569304,20.2709532 L26.6513388,23.6376681 L17.9267286,20.2648726 C17.5787751,20.1303593 17.4095318,19.7487032 17.5487132,19.4124199 C17.6878947,19.0761366 18.0827956,18.9125698 18.4307492,19.0470831 L26.670099,22.2322847 L35.5855842,19.0410025 Z M18.4307492,22.3260816 L26.670099,25.5112832 L35.5855842,22.320001 C35.9370126,22.1942079 36.327416,22.3675662 36.4575746,22.7072077 C36.5877332,23.0468493 36.4083587,23.4241586 36.0569304,23.5499518 L26.6513388,26.9166667 L17.9267286,23.5438711 C17.5787751,23.4093578 17.4095318,23.0277018 17.5487132,22.6914185 C17.6878947,22.3551352 18.0827956,22.1915683 18.4307492,22.3260816 Z" id="upstair"></path>
            </g>
        </g>
    </g>
</svg>