<?xml version="1.0" encoding="UTF-8"?>
<svg width="24px" height="17px" viewBox="0 0 24 17" version="1.1" xmlns="http://www.w3.org/2000/svg" xmlns:xlink="http://www.w3.org/1999/xlink">
    <!-- Generator: Sketch 46.2 (44496) - http://www.bohemiancoding.com/sketch -->
    <title>在哪儿</title>
    <desc>Created with Sketch.</desc>
    <defs>
        <path d="M20,0 L9,0 C6.443,0 6,2.974 6,3 L6,10.026 L10.271,13 L20,13 C21.656,13 23,11.656 23,10 L23,3 C23,1.344 21.656,0 20,0 Z" id="path-1"></path>
    </defs>
    <g id="在线砍价-A发起人" stroke="none" stroke-width="1" fill="none" fill-rule="evenodd">
        <g id="购买订单页面-copy" transform="translate(-24.000000, -420.000000)">
            <g id="在哪儿" transform="translate(25.000000, 420.000000)">
                <g id="card_in_use_1151219_easyicon.net">
                    <g id="Shape" fill-rule="nonzero">
                        <use fill="#FFFFFF" fill-rule="evenodd" xlink:href="#path-1"></use>
                        <path stroke="#000000" stroke-width="1" d="M6.5,9.76488639 L10.4279322,12.5 L20,12.5 C21.3798576,12.5 22.5,11.3798576 22.5,10 L22.5,3 C22.5,1.62014237 21.3798576,0.5 20,0.5 L9,0.5 C7.42843832,0.5 6.5,2.110947 6.5,3 L6.5,9.76488639 Z"></path>
                    </g>
                    <rect id="Rectangle-path" fill="#000000" fill-rule="nonzero" x="6" y="3" width="17" height="3"></rect>
                    <path d="M6.998,2.141 C5.875,1.692 5.02,2.391 3.665,3.509 L0,6.713 L0,15.998 L4.586,15.998 C8.64,15.998 9.043,14.273 11.027,12.587 L12.717,11.077 C13.82,10.055 14.739,8.896 13.934,7.834 C13.128,6.772 11.471,7.473 9.954,8.283 L6.998,10.1984863 L6.998,2.141 Z" id="Shape" stroke="#000000" fill="#FFFFFF" stroke-linecap="round"></path>
                </g>
            </g>
        </g>
    </g>
</svg>