<?xml version="1.0" encoding="UTF-8"?>
<svg width="105px" height="1545px" viewBox="0 0 105 1545" version="1.1" xmlns="http://www.w3.org/2000/svg" xmlns:xlink="http://www.w3.org/1999/xlink">
    <!-- Generator: Sketch 41.1 (35376) - http://www.bohemiancoding.com/sketch -->
    <title>COMBINE</title>
    <desc>Created with Sketch.</desc>
    <defs>
        <rect id="path-1" x="0" y="0" width="86" height="85"></rect>
        <rect id="path-3" x="0" y="0" width="67" height="66"></rect>
        <rect id="path-5" x="0" y="0" width="28" height="28" rx="14"></rect>
        <mask id="mask-6" maskContentUnits="userSpaceOnUse" maskUnits="objectBoundingBox" x="0" y="0" width="28" height="28" fill="white">
            <use xlink:href="#path-5"></use>
        </mask>
        <rect id="path-7" x="0" y="0" width="28" height="28" rx="14"></rect>
        <mask id="mask-8" maskContentUnits="userSpaceOnUse" maskUnits="objectBoundingBox" x="0" y="0" width="28" height="28" fill="white">
            <use xlink:href="#path-7"></use>
        </mask>
        <rect id="path-9" x="0" y="0" width="28" height="29.5555556" rx="14"></rect>
        <mask id="mask-10" maskContentUnits="userSpaceOnUse" maskUnits="objectBoundingBox" x="0" y="0" width="28" height="29.5555556" fill="white">
            <use xlink:href="#path-9"></use>
        </mask>
        <rect id="path-11" x="0" y="0" width="28" height="28" rx="14"></rect>
        <mask id="mask-12" maskContentUnits="userSpaceOnUse" maskUnits="objectBoundingBox" x="0" y="0" width="28" height="28" fill="white">
            <use xlink:href="#path-11"></use>
        </mask>
        <rect id="path-13" x="0" y="0" width="28" height="28" rx="14"></rect>
        <mask id="mask-14" maskContentUnits="userSpaceOnUse" maskUnits="objectBoundingBox" x="0" y="0" width="28" height="28" fill="white">
            <use xlink:href="#path-13"></use>
        </mask>
        <rect id="path-15" x="0" y="0" width="28" height="28" rx="14"></rect>
        <mask id="mask-16" maskContentUnits="userSpaceOnUse" maskUnits="objectBoundingBox" x="0" y="0" width="28" height="28" fill="white">
            <use xlink:href="#path-15"></use>
        </mask>
        <rect id="path-17" x="0" y="0" width="28" height="28" rx="14"></rect>
        <mask id="mask-18" maskContentUnits="userSpaceOnUse" maskUnits="objectBoundingBox" x="0" y="0" width="28" height="28" fill="white">
            <use xlink:href="#path-17"></use>
        </mask>
        <rect id="path-19" x="0" y="0" width="28" height="28" rx="14"></rect>
        <mask id="mask-20" maskContentUnits="userSpaceOnUse" maskUnits="objectBoundingBox" x="0" y="0" width="28" height="28" fill="white">
            <use xlink:href="#path-19"></use>
        </mask>
    </defs>
    <g id="Page-1" stroke="none" stroke-width="1" fill="none" fill-rule="evenodd">
        <g id="COMBINE">
            <g id="female" transform="translate(0.000000, 256.000000)">
                <g id="图层_1">
                    <ellipse id="Oval" fill="#FF7BAC" cx="6.32" cy="6.13888889" rx="6.25" ry="6.13888889"></ellipse>
                    <path d="M5.86,6.64964444 L5.86,8.46184444 L4.82,8.46184444 C4.5645683,8.46184444 4.3575,8.66523153 4.3575,8.91612222 C4.3575,9.16701291 4.5645683,9.3704 4.82,9.3704 L5.855,9.3704 L5.855,10.1856444 C5.855,10.4365351 6.0620683,10.6399222 6.3175,10.6399222 C6.5729317,10.6399222 6.78,10.4365351 6.78,10.1856444 L6.78,9.36548889 L7.815,9.36548889 C8.07043169,9.36548887 8.27749997,9.16210179 8.27749997,8.91121111 C8.27749997,8.66032043 8.07043169,8.45693335 7.815,8.45693333 L6.78,8.45693333 L6.78,6.64964444 C8.08769191,6.41465804 8.9970999,5.23889604 8.87698888,3.93847423 C8.75687786,2.63805243 7.64689599,1.64223481 6.3175,1.64223481 C4.98810401,1.64223481 3.87812214,2.63805243 3.75801112,3.93847423 C3.6379001,5.23889604 4.54730809,6.41465804 5.855,6.64964444 L5.86,6.64964444 Z M6.32,2.55377778 C7.22850841,2.55377778 7.965,3.27717618 7.965,4.16953333 C7.965,5.06189049 7.22850841,5.78528889 6.32,5.78528889 C5.41149159,5.78528889 4.675,5.06189049 4.675,4.16953333 C4.675,3.27717618 5.41149159,2.55377778 6.32,2.55377778 L6.32,2.55377778 Z" id="Shape" fill="#FFFFFF"></path>
                </g>
            </g>
            <g id="male" transform="translate(0.000000, 279.000000)">
                <g id="图层_1">
                    <ellipse id="Oval" fill="#4990E2" cx="6.32" cy="6.13888889" rx="6.25" ry="6.13888889"></ellipse>
                    <path d="M5.865,9.27708889 L4.82,8.46184444 C4.5645683,8.46184444 4.3575,8.66523153 4.3575,8.91612222 C4.3575,9.16701291 6.0620683,10.6399222 6.3175,10.6399222 C6.5729317,10.6399222 8.27749997,9.16210179 8.27749997,8.91121111 C8.27749997,8.66032043 8.07043169,8.45693335 7.815,8.45693333 L6.78,9.27708889 L6.78,6.64964444 C8.08769191,6.41465804 8.9970999,5.23889604 8.87698888,3.93847423 C8.75687786,2.63805243 7.64689599,1.64223481 6.3175,1.64223481 C4.98810401,1.64223481 3.87812214,2.63805243 3.75801112,3.93847423 C3.6379001,5.23889604 4.54730809,6.41465804 5.855,6.64964444 L5.865,9.27708889 Z M6.32,2.55377778 C7.22850841,2.55377778 7.965,3.27717618 7.965,4.16953333 C7.965,5.06189049 7.22850841,5.78528889 6.32,5.78528889 C5.41149159,5.78528889 4.675,5.06189049 4.675,4.16953333 C4.675,3.27717618 5.41149159,2.55377778 6.32,2.55377778 L6.32,2.55377778 Z" id="Shape" fill="#FFFFFF" transform="translate(6.317500, 6.141079) rotate(39.000000) translate(-6.317500, -6.141079) "></path>
                </g>
            </g>
            <g id="Icon-/-QR">
                <path d="M20.4552058,14.1176471 L17.6658596,14.1176471 L17.6658596,11.2941176 L20.4552058,11.2941176 L20.4552058,14.1176471 Z M28.8232446,2.82447059 L31.6135206,2.82447059 L31.6135206,0 L28.8232446,0 L28.8232446,2.82447059 Z M28.8232446,20.7068235 L31.6135206,20.7068235 L31.6135206,17.8823529 L28.8232446,17.8823529 L28.8232446,20.7068235 Z M17.6658596,32 L20.4552058,32 L20.4552058,29.1764706 L17.6658596,29.1764706 L17.6658596,32 Z M5.57869249,26.3529412 L2.78934625,26.3529412 L2.78934625,23.5294118 L5.57869249,23.5294118 L5.57869249,26.3529412 Z M0,23.5294118 L2.78934625,23.5294118 L2.78934625,17.8823529 L0,17.8823529 L0,23.5294118 Z M0,32 L2.78934625,32 L2.78934625,26.3529412 L0,26.3529412 L0,32 Z" id="Fill-1" fill="#000000"></path>
                <path d="M0,14.1176471 L13.9467312,14.1176471 L13.9467312,0 L0,0 L0,14.1176471 Z M2.78934625,2.82352941 L11.157385,2.82352941 L11.157385,11.2941176 L2.78934625,11.2941176 L2.78934625,2.82352941 Z" id="Fill-8" fill="#5FA5A1"></path>
                <path d="M28.8232446,11.2944941 L28.8232446,14.1176471 L26.0338983,14.1176471 L23.2445521,14.1176471 L23.2445521,11.2941176 L20.4552058,11.2941176 L20.4552058,8.47058824 L23.2445521,8.47058824 L26.0338983,8.47058824 L26.0338983,11.2941176 L28.8231516,11.2941176 L28.8231516,8.47002353 L27.8933695,8.47002353 L26.0338053,8.47002353 L26.0338053,2.82390588 L28.8231516,2.82390588 L28.8231516,5.64743529 L31.6124978,5.64743529 L31.6124978,11.2944941 L28.8232446,11.2944941 Z M17.6657666,-0.000188235294 L17.6657666,2.82428235 L17.6657666,5.64687059 L20.4551128,5.64687059 L20.4551128,2.82428235 L26.0338053,2.82428235 L26.0338053,-0.000188235294 L17.6657666,-0.000188235294 Z M5.57869249,17.8823529 L5.57869249,20.7058824 L8.36803874,20.7058824 L8.36803874,23.5294118 L11.157385,23.5294118 L11.157385,20.7058824 L13.9467312,20.7058824 L13.9467312,17.8823529 L5.57869249,17.8823529 Z M11.1571061,23.5294118 L11.1571061,26.3529412 L8.36775981,26.3529412 L8.36775981,29.1764706 L5.57934334,29.1764706 L5.57934334,32 L11.1571061,32 L11.1571061,29.1764706 L12.0868881,29.1764706 L13.9473821,29.1764706 L13.9473821,23.5294118 L11.1571061,23.5294118 Z M20.4552058,17.8823529 L20.4552058,20.7058824 L17.6658596,20.7058824 L17.6658596,26.3529412 L20.4552058,26.3529412 L20.4552058,23.5294118 L23.2445521,23.5294118 L23.2445521,26.3529412 L26.0338983,26.3529412 L26.0338983,23.5294118 L26.0338983,21.6470588 L26.0338983,17.8823529 L20.4552058,17.8823529 Z M28.8232446,26.3529412 L28.8232446,29.1774118 L26.0338983,29.1774118 L26.0338983,32 L31.6135206,32 L31.6135206,26.3529412 L28.8232446,26.3529412 Z" id="Fill-9" fill="#000000"></path>
                <polygon id="Path" fill="#5FA5A1" points="8.36803874 8.47058824 5.57869249 8.47058824 5.57869249 5.64705882 8.36803874 5.64705882"></polygon>
            </g>
            <g id="Group-2" transform="translate(0.000000, 42.000000)">
                <path d="M23.2727273,24.125 L23.2727273,0.875 C23.2727273,0.391125 22.9476364,0 22.5454545,0 L0.727272727,0 C0.325090909,0 0,0.391125 0,0.875 L0,25.875 C0,29.25775 2.27927273,32 5.09090909,32 L26.9090909,32 C29.7207273,32 32,29.25775 32,25.875 L32,25 C32,24.516125 31.6749091,24.125 31.2727273,24.125 L23.2727273,24.125 Z M1.45454545,25.875 L1.45454545,1.75 L21.8181818,1.75 L21.8181818,24.125 L9.45454545,24.125 C9.05236364,24.125 8.72727273,24.516125 8.72727273,25 L8.72727273,25.875 C8.72727273,28.29175 7.09963636,30.25 5.09090909,30.25 C3.08218182,30.25 1.45454545,28.29175 1.45454545,25.875 Z M26.9090909,30.25 L8.65090909,30.25 C9.59418182,29.137875 10.1818182,27.59 10.1818182,25.875 L30.5454545,25.875 C30.5454545,28.29175 28.9178182,30.25 26.9090909,30.25 L26.9090909,30.25 Z" id="Shape" fill="#000000"></path>
                <path d="M5.09090909,7.125 C4.68872727,7.125 4.36363636,7.516125 4.36363636,8 C4.36363636,8.483875 4.68872727,8.875 5.09090909,8.875 L13.0909091,8.875 C13.4930909,8.875 13.8181818,8.483875 13.8181818,8 C13.8181818,7.516125 13.4930909,7.125 13.0909091,7.125 L9.28222656,7.125 L5.09090909,7.125 Z M5.09090909,10.625 C4.68872727,10.625 4.36363636,11.016125 4.36363636,11.5 C4.36363636,11.983875 4.68872727,12.375 5.09090909,12.375 L13.0909091,12.375 C13.4930909,12.375 13.8181818,11.983875 13.8181818,11.5 C13.8181818,11.016125 13.4930909,10.625 13.0909091,10.625 L5.09090909,10.625 Z M9.45454545,14.125 L5.09090909,14.125 C4.68872727,14.125 4.36363636,14.516125 4.36363636,15 C4.36363636,15.483875 4.68872727,15.875 5.09090909,15.875 L9.45454545,15.875 C9.85672727,15.875 10.1818182,15.483875 10.1818182,15 C10.1818182,14.516125 9.85672727,14.125 9.45454545,14.125 Z" id="Combined-Shape" fill="#5FA5A1"></path>
            </g>
            <g id="Group-7" transform="translate(0.000000, 84.000000)">
                <path d="M31.2727273,0 L0.727272727,0 C0.325818182,0 0,0.325090909 0,0.727272727 L0,31.2727273 C0,31.6749091 0.325818182,32 0.727272727,32 L31.2727273,32 C31.6749091,32 32,31.6749091 32,31.2727273 L32,0.727272727 C32,0.325090909 31.6749091,0 31.2727273,0 Z M1.96533203,1.99902344 L15.2822632,1.99902344 L15.2822632,15.3159546 L1.96533203,15.3159546 L1.96533203,1.99902344 Z M30.0009766,1.99902344 L16.6840454,1.99902344 L16.6840454,15.3159546 L30.0009766,15.3159546 L30.0009766,1.99902344 Z M1.96533203,30.034668 L15.2822632,30.034668 L15.2822632,16.7177368 L1.96533203,16.7177368 L1.96533203,30.034668 Z M30.0009766,30.034668 L16.6840454,30.034668 L16.6840454,16.7177368 L30.0009766,16.7177368 L30.0009766,30.034668 Z" id="Combined-Shape" fill="#000000"></path>
                <path d="M15.8492859,15.8654694 C15.7224531,15.9913114 11.5082352,15.8198889 8.93689844,13.2485521 C7.71117836,12.0238229 7.68343368,10.070796 8.88140909,8.87876589 C10.0793845,7.68772665 12.0512381,7.70853515 13.2769582,8.93425524 C15.848295,11.5065829 15.8780215,15.8367339 15.8492859,15.8654694 L15.8492859,15.8654694 Z" id="Path" stroke="#5FA5A1" stroke-width="2"></path>
                <path d="M18.4759415,8.93547061 C19.7007632,7.71064887 21.6638473,7.68488401 22.8589403,8.87997707 C24.0540334,10.0750701 24.0292595,12.0371632 22.8034468,13.2629759 C20.2279519,15.8374799 16.0391805,15.9841414 15.913329,15.8582899 C15.8845913,15.8295522 15.9351301,11.4752911 18.4759415,8.93547061 L18.4759415,8.93547061 Z" id="Path" stroke="#5FA5A1" stroke-width="2"></path>
                <path d="M16.6757762,15.9166306 C16.6757762,15.9166306 11.9545937,15.3049044 11.9545937,25.1728516" id="Path-6" stroke="#5FA5A1" stroke-width="2" stroke-linecap="round"></path>
                <path d="M16.7001062,15.9166306 C16.7001062,15.9166306 21.4212886,15.3049044 21.4212886,25.1728516" id="Path-6" stroke="#5FA5A1" stroke-width="2" stroke-linecap="round"></path>
            </g>
            <g id="Group" transform="translate(0.000000, 126.000000)">
                <path d="M15.7386648,6.55276627 C16.4160898,6.55276627 16.9636648,6.00519126 16.9636648,5.32776625 C16.9636648,4.65034124 16.4160898,4.10276622 15.7386648,4.10276622 C15.0612397,4.10276622 14.5136647,4.65034124 14.5136647,5.32776625 C14.5136647,6.00519126 15.0612397,6.55276627 15.7386648,6.55276627 L15.7386648,6.55276627 Z M9.21366475,15.7027662 C8.53623974,15.7027662 7.98866473,16.2503412 7.98866473,16.9277662 C7.98866473,17.6051913 8.53623974,18.1527663 9.21366475,18.1527663 C9.89108977,18.1527663 10.4386648,17.6051913 10.4386648,16.9277662 C10.4386648,16.2503412 9.89108977,15.7027662 9.21366475,15.7027662 L9.21366475,15.7027662 Z M22.9886648,4.37776627 C23.6660898,4.37776627 24.2136648,3.83019126 24.2136648,3.15276625 C24.2136648,2.47534124 23.6660898,1.92776622 22.9886648,1.92776622 C22.3112397,1.92776622 21.7636647,2.47534124 21.7636647,3.15276625 C21.7636647,3.83019126 22.3112397,4.37776627 22.9886648,4.37776627 L22.9886648,4.37776627 Z M11.3886648,22.9527662 C10.7112397,22.9527662 10.1636647,23.5003412 10.1636647,24.1777662 C10.1636647,24.8551913 10.7112397,25.4027663 11.3886648,25.4027663 C12.0660898,25.4027663 12.6136648,24.8551913 12.6136648,24.1777662 C12.6136648,23.5003412 12.0660898,22.9527662 11.3886648,22.9527662 L11.3886648,22.9527662 Z M15.7386648,27.3027662 C15.0612397,27.3027662 14.5136647,27.8503412 14.5136647,28.5277662 C14.5136647,29.2051913 15.0612397,29.7527663 15.7386648,29.7527663 C16.4160898,29.7527663 16.9636648,29.2051913 16.9636648,28.5277662 C16.9636648,27.8503412 16.4160898,27.3027662 15.7386648,27.3027662 L15.7386648,27.3027662 Z M11.3886648,8.45276622 C10.7112397,8.45276622 10.1636647,9.00034124 10.1636647,9.67776625 C10.1636647,10.3551913 10.7112397,10.9027663 11.3886648,10.9027663 C12.0660898,10.9027663 12.6136648,10.3551913 12.6136648,9.67776625 C12.6136648,9.00034124 12.0660898,8.45276622 11.3886648,8.45276622 L11.3886648,8.45276622 Z" id="Shape" fill="#5FA5A1" transform="translate(16.101165, 15.840266) rotate(119.000000) translate(-16.101165, -15.840266) "></path>
                <path d="M29.9487384,18.5965987 C29.8807409,18.3919783 29.4489041,18.0906969 28.6532281,17.6931727 C28.4377282,17.5680572 28.1305884,17.3977495 27.7332735,17.1818311 C27.3353309,16.9659127 26.9744208,16.7669414 26.6507524,16.5849172 C26.3266656,16.4033114 26.0226643,16.2269362 25.7387483,16.0568377 C25.6933469,16.0227343 25.5512843,15.9233533 25.3125606,15.7584854 C25.0738369,15.5938267 24.8723549,15.4716403 24.7072778,15.3919263 C24.5426191,15.3124214 24.3806803,15.272669 24.2214614,15.272669 C23.9942449,15.272669 23.710329,15.4346078 23.3695043,15.7584854 C23.0286797,16.082363 22.7161002,16.4344857 22.4321842,16.8154812 C22.1480591,17.1962675 21.8469868,17.5483902 21.5289675,17.8722678 C21.2107389,18.1963546 20.9492099,18.3580842 20.7447988,18.3580842 C20.6424886,18.3580842 20.514444,18.3296298 20.3610833,18.2731395 C20.2079319,18.21644 20.0913946,18.167691 20.0114713,18.128357 C19.9321757,18.0883954 19.7959714,18.0090998 19.6026491,17.8894241 C19.4091176,17.7701669 19.3013676,17.70468 19.2787715,17.6931727 C17.7219414,16.8294992 16.3866786,15.8407101 15.2729833,14.727224 C14.1594972,13.6135287 13.1707082,12.278266 12.3070346,10.7214358 C12.2957366,10.6986305 12.2302497,10.5906713 12.1109925,10.3975582 C11.991526,10.204236 11.9120212,10.0680316 11.8722687,9.98831758 C11.8325163,9.90881275 11.7841858,9.7922754 11.7274863,9.63891477 C11.6707868,9.48555413 11.6423324,9.35771873 11.6423324,9.25540856 C11.6423324,9.05099746 11.8042712,8.7894684 12.1281488,8.47123985 C12.4520263,8.15322052 12.8043583,7.85193906 13.1849354,7.56802312 C13.5657217,7.28410718 13.9178444,6.97152765 14.241722,6.63070299 C14.5655995,6.28966911 14.7275383,6.00575317 14.7275383,5.77853673 C14.7275383,5.61952706 14.6877859,5.45737905 14.6082811,5.29272036 C14.5287762,5.12764322 14.4065899,4.92616124 14.241722,4.68743752 C14.076854,4.4487138 13.977473,4.30686044 13.9433696,4.26124977 C13.7730619,3.97733383 13.5971051,3.67333246 13.4150809,3.34945488 C13.2330567,3.02557731 13.0342946,2.66466721 12.8183762,2.26693383 C12.6024579,1.86940967 12.4321501,1.56247917 12.3070346,1.34656079 C11.9093013,0.551303243 11.608229,0.119257248 11.4036087,0.0512596943 C11.3241038,0.0171563059 11.2046374,0 11.0456277,0 C10.7386972,0 10.3382439,0.0566994986 9.84384941,0.170516942 C9.34945488,0.284125163 8.96029965,0.403382411 8.67617449,0.52849791 C8.10792416,0.767012406 7.50577967,1.46016901 6.86932257,2.60775849 C6.28977419,3.67584314 6,4.73283896 6,5.7783275 C6,6.08483955 6.01987621,6.3831919 6.05962862,6.67317531 C6.09938104,6.9629495 6.17051694,7.2897562 6.27282711,7.6533862 C6.37513727,8.01701619 6.45757123,8.2871234 6.51991976,8.46308015 C6.58226828,8.63903689 6.69880563,8.95433632 6.86932257,9.40897842 C7.03963029,9.86362053 7.14194046,10.1418874 7.17604384,10.2441976 C7.57377723,11.3578929 8.04536642,12.3521218 8.59081141,13.2273026 C9.48816989,14.6818226 10.7127535,16.1848823 12.2639346,17.7360635 C13.8151158,19.2872446 15.3179663,20.5118282 16.7726955,21.4096051 C17.6476671,21.9548409 18.6423144,22.4266393 19.7558005,22.8245819 C19.8581107,22.8584761 20.1365868,22.9607863 20.5910197,23.1315124 C21.0454526,23.3018202 21.3609612,23.4183575 21.536918,23.4809152 C21.7128747,23.543473 21.9829819,23.625907 22.3464027,23.7282171 C22.7104511,23.8305273 23.0370486,23.9016632 23.3268228,23.9416248 C23.616597,23.9809588 23.9149493,24.0012534 24.2216706,24.0012534 C25.2669499,24.0012534 26.3239457,23.71127 27.3922396,23.1319309 C28.5396199,22.4954738 29.2327765,21.8931201 29.4715002,21.3246605 C29.5968249,21.0409538 29.7158729,20.6515893 29.8294812,20.1571948 C29.9432986,19.6630095 29.9999981,19.2625562 29.9999981,18.9556257 C30.0002073,18.7959884 29.983051,18.6767312 29.9487384,18.5965987 L29.9487384,18.5965987 Z" id="Shape" fill="#000000" transform="translate(18.000000, 12.000627) scale(-1, 1) translate(-18.000000, -12.000627) "></path>
            </g>
            <path d="M5.2384235,873 L0.168055979,867.188124 C-0.13829648,866.83697 -0.0141226113,866.362525 0.445406077,866.128422 C0.904934766,865.894319 1.52580411,865.989208 1.83215657,866.340363 L6.91531201,872.166896 C6.97950971,872.186376 7.04202447,872.211264 7.10180843,872.24172 C7.4383681,872.413178 7.59503925,872.713558 7.53443191,873 C7.59503925,873.286442 7.4383681,873.586822 7.10180843,873.75828 C7.04202447,873.788736 6.97950971,873.813624 6.91531201,873.833104 L1.83215657,879.659637 C1.52580411,880.010792 0.904934766,880.105681 0.445406077,879.871578 C-0.0141226113,879.637475 -0.13829648,879.16303 0.168055979,878.811876 L5.2384235,873 Z" id="Combined-Shape" fill="#C3C3C3"></path>
            <path d="M8.2384235,894 L3.16805598,888.188124 C2.86170352,887.83697 2.98587739,887.362525 3.44540608,887.128422 C3.90493477,886.894319 4.52580411,886.989208 4.83215657,887.340363 L9.91531201,893.166896 C9.97950971,893.186376 10.0420245,893.211264 10.1018084,893.24172 C10.4383681,893.413178 10.5950393,893.713558 10.5344319,894 C10.5950393,894.286442 10.4383681,894.586822 10.1018084,894.75828 C10.0420245,894.788736 9.97950971,894.813624 9.91531201,894.833104 L4.83215657,900.659637 C4.52580411,901.010792 3.90493477,901.105681 3.44540608,900.871578 C2.98587739,900.637475 2.86170352,900.16303 3.16805598,899.811876 L8.2384235,894 Z" id="Combined-Shape" fill="#C3C3C3" transform="translate(6.773607, 894.000000) rotate(90.000000) translate(-6.773607, -894.000000) "></path>
            <g id="Group-11" transform="translate(0.000000, 301.000000)">
                <ellipse id="Oval-4" fill="#D8D8D8" cx="2.29090909" cy="19.3548387" rx="2.29090909" ry="2.32258065"></ellipse>
                <ellipse id="Oval-5" fill="#000000" cx="1.78181818" cy="19.3548387" rx="0.763636364" ry="0.774193548"></ellipse>
                <polygon id="Path-4" fill="#FFE2BE" points="1.15490057 30.4508569 22.4745739 31.8477823 23.459446 12.5574597 1.99012784 12.8150202"></polygon>
                <polygon id="Path-5" fill="#FFF2E2" points="3.41399148 13.9485887 3.00035511 28.7069052 22.0701349 31.2056452 22.4091974 13.1859879"></polygon>
                <ellipse id="Oval-6" fill="#E5B780" cx="9.16363636" cy="23.7419355" rx="2.03636364" ry="2.06451613"></ellipse>
                <ellipse id="Oval-7" fill="#E5B780" cx="20.6181818" cy="23.483871" rx="1.27272727" ry="1.29032258"></ellipse>
                <ellipse id="Oval-8" fill="#000000" cx="12.2181818" cy="19.3548387" rx="0.509090909" ry="0.774193548"></ellipse>
                <ellipse id="Oval-8" fill="#000000" cx="20.8727273" cy="19.3548387" rx="0.509090909" ry="0.774193548"></ellipse>
                <polygon id="Rectangle-9" fill="#000000" points="15.2727273 18.5806452 16.2909091 18.5806452 16.8 23.2258065 14.7636364 23.2258065"></polygon>
                <polygon id="Path-2" fill="#91D1CD" points="0.956036932 12.8097278 2.19122869 3.91859879 12.887358 0.37953629 20.6900213 2.92666331 24.0657315 12.8238407"></polygon>
                <polygon id="Path-2" fill="#75B8B5" points="0.956036932 12.8097278 2.19122869 3.91859879 3.97304688 3.31300403 3.19300426 12.8238407"></polygon>
                <ellipse id="Oval-3" fill="#75B8B5" cx="13.7454545" cy="6.70967742" rx="2.03636364" ry="2.06451613"></ellipse>
                <polygon id="Path-3" fill="#5FA5A1" points="4.64197443 12.7746976 12.1724432 7.52066532 23.0915483 6.7328629 27.696733 10.8412298 24.3901278 12.7459677"></polygon>
            </g>
            <g id="积分" transform="translate(0.000000, 196.000000)" fill="#000000">
                <g id="Layer_1">
                    <path d="M16.6666667,20 L3.33333333,20 C1.5,20 0,18.5 0,16.6666667 L0,3.33333333 C0,1.5 1.5,0 3.33333333,0 L16.6666667,0 C18.5,0 20,1.5 20,3.33333333 L20,16.6666667 C20,18.5 18.5,20 16.6666667,20 L16.6666667,20 Z M3.33333333,1.66666667 C2.41666667,1.66666667 1.66666667,2.41666667 1.66666667,3.33333333 L1.66666667,16.6666667 C1.66666667,17.5833333 2.41666667,18.3333333 3.33333333,18.3333333 L16.6666667,18.3333333 C17.5833333,18.3333333 18.3333333,17.5833333 18.3333333,16.6666667 L18.3333333,3.33333333 C18.3333333,2.41666667 17.5833333,1.66666667 16.6666667,1.66666667 L3.33333333,1.66666667 L3.33333333,1.66666667 Z" id="Shape"></path>
                    <g id="Group" transform="translate(0.000000, 5.833333)">
                        <path d="M19.1666667,2 L0.833333333,2 C0.333333333,2 0,1.66666667 0,1.16666667 C0,0.666666667 0.333333333,0.333333333 0.833333333,0.333333333 L19.1666667,0.333333333 C19.6666667,0.333333333 20,0.666666667 20,1.16666667 C20,1.66666667 19.6666667,2 19.1666667,2 L19.1666667,2 Z" id="Shape"></path>
                        <path d="M19.1666667,3.66666667 L0.833333333,3.66666667 C0.333333333,3.66666667 0,3.33333333 0,2.83333333 C0,2.33333333 0.333333333,2 0.833333333,2 L19.1666667,2 C19.6666667,2 20,2.33333333 20,2.83333333 C20,3.33333333 19.6666667,3.66666667 19.1666667,3.66666667 L19.1666667,3.66666667 Z" id="Shape"></path>
                    </g>
                </g>
            </g>
            <g id="余额" transform="translate(0.000000, 166.000000)" fill="#000000">
                <g id="Layer_1">
                    <g id="Group">
                        <path d="M10,20 C4.5,20 0,15.5 0,10 C0,4.5 4.5,0 10,0 C15.5,0 20,4.5 20,10 C20,15.5 15.5,20 10,20 L10,20 Z M10,1.66666667 C5.41666667,1.66666667 1.66666667,5.41666667 1.66666667,10 C1.66666667,14.5833333 5.41666667,18.3333333 10,18.3333333 C14.5833333,18.3333333 18.3333333,14.5833333 18.3333333,10 C18.3333333,5.41666667 14.5833333,1.66666667 10,1.66666667 L10,1.66666667 Z" id="Shape"></path>
                        <path d="M10,10.8333333 C8.41666667,10.8333333 7.08333333,9.83333333 6.75,8.5 C6.66666667,8.33333333 6.66666667,8.16666667 6.66666667,7.91666667 C6.66666667,6.33333333 8.16666667,5 10,5 C11.8333333,5 13.3333333,6.33333333 13.3333333,7.91666667 C13.3333333,8.16666667 13.3333333,8.33333333 13.25,8.5 C13.1666667,8.91666667 12.6666667,9.25 12.25,9.08333333 C11.8333333,9 11.5,8.5 11.6666667,8.08333333 L11.6666667,7.83333333 C11.6666667,7.25 10.9166667,6.66666667 10,6.66666667 C9.08333333,6.66666667 8.33333333,7.25 8.33333333,7.91666667 L8.33333333,8.16666667 C8.5,8.75 9.16666667,9.16666667 10,9.16666667 C10.5,9.16666667 10.8333333,9.5 10.8333333,10 C10.8333333,10.5 10.5,10.8333333 10,10.8333333 L10,10.8333333 Z" id="Shape"></path>
                        <path d="M10,15 C8.16666667,15 6.66666667,13.6666667 6.66666667,12.0833333 C6.66666667,11.8333333 6.66666667,11.6666667 6.75,11.5 C6.83333333,11.0833333 7.33333333,10.75 7.75,10.9166667 C8.16666667,11 8.5,11.5 8.33333333,11.9166667 L8.33333333,12.1666667 C8.33333333,12.8333333 9.08333333,13.4166667 10,13.4166667 C10.9166667,13.4166667 11.6666667,12.8333333 11.6666667,12.1666667 L11.6666667,11.9166667 C11.5,11.3333333 10.8333333,10.9166667 10,10.9166667 C9.5,10.9166667 9.16666667,10.5833333 9.16666667,10.0833333 C9.16666667,9.58333333 9.5,9.25 10,9.25 C11.5833333,9.25 12.9166667,10.25 13.25,11.5833333 C13.3333333,11.6666667 13.3333333,11.8333333 13.3333333,12.0833333 C13.3333333,13.6666667 11.8333333,15 10,15 L10,15 Z" id="Shape"></path>
                        <path d="M10,16.6666667 C9.5,16.6666667 9.16666667,16.3333333 9.16666667,15.8333333 L9.16666667,14.1666667 C9.16666667,13.6666667 9.5,13.3333333 10,13.3333333 C10.5,13.3333333 10.8333333,13.6666667 10.8333333,14.1666667 L10.8333333,15.8333333 C10.8333333,16.3333333 10.5,16.6666667 10,16.6666667 L10,16.6666667 Z" id="Shape"></path>
                        <path d="M10,6.66666667 C9.5,6.66666667 9.16666667,6.33333333 9.16666667,5.83333333 L9.16666667,4.16666667 C9.16666667,3.66666667 9.5,3.33333333 10,3.33333333 C10.5,3.33333333 10.8333333,3.66666667 10.8333333,4.16666667 L10.8333333,5.83333333 C10.8333333,6.33333333 10.5,6.66666667 10,6.66666667 L10,6.66666667 Z" id="Shape"></path>
                        <path d="M12.5,9.16666667 C12.25,9.16666667 12.0833333,9.08333333 11.9166667,8.91666667 C11.75,8.75 11.6666667,8.58333333 11.6666667,8.33333333 C11.6666667,8.08333333 11.75,7.91666667 11.9166667,7.75 C12.25,7.41666667 12.75,7.41666667 13.0833333,7.75 C13.25,7.91666667 13.3333333,8.08333333 13.3333333,8.33333333 C13.3333333,8.58333333 13.25,8.75 13.0833333,8.91666667 C12.9166667,9.08333333 12.75,9.16666667 12.5,9.16666667 L12.5,9.16666667 Z" id="Shape"></path>
                    </g>
                </g>
            </g>
            <g id="Group-4" transform="translate(0.000000, 813.000000)">
                <path d="M20,0 C8.954305,0 0,8.954305 0,20 C0,31.045695 8.954305,40 20,40 L78,40 L78,0 L20,0 Z" id="Combined-Shape" fill-opacity="0.5" fill="#5FA5A1"></path>
                <path d="M20.6666667,3 C11.4619208,3 4,10.4619208 4,19.6666667 C4,28.8714125 11.4619208,36.3333333 20.6666667,36.3333333 L77,36.3333333 L77,3 L20.6666667,3 Z" id="Combined-Shape" fill="#5FA5A1"></path>
                <path d="M34.088,19.64 L33.392,20.084 C34.028,20.924 34.604,21.728 35.108,22.496 C33.956,22.64 31.916,22.82 29.012,23.048 C29.888,22.196 30.752,20.876 31.604,19.076 L37.328,19.076 L37.328,18.236 L32.444,18.236 L32.444,15.968 L36.56,15.968 L36.56,15.128 L32.444,15.128 L32.444,13.22 L31.556,13.22 L31.556,15.128 L27.416,15.128 L27.416,15.968 L31.556,15.968 L31.556,18.236 L26.66,18.236 L26.66,19.076 L30.644,19.076 C29.564,21.236 28.508,22.592 27.476,23.156 L27.632,23.864 C30.128,23.72 32.768,23.504 35.552,23.216 C35.768,23.576 35.972,23.936 36.164,24.284 L36.896,23.768 C36.248,22.592 35.312,21.224 34.088,19.64 L34.088,19.64 Z M39.848,17.012 L39.428,17.624 C40.28,17.96 41.108,18.44 41.912,19.04 L42.356,18.344 C41.6,17.828 40.76,17.384 39.848,17.012 L39.848,17.012 Z M40.952,15.332 L40.544,15.944 C41.384,16.28 42.188,16.76 42.98,17.36 L43.424,16.676 C42.68,16.148 41.864,15.704 40.952,15.332 L40.952,15.332 Z M44.264,15.332 L44.264,17.852 C44.24,18.5 44.144,19.112 43.976,19.664 L38.864,19.664 L38.864,20.504 L43.628,20.504 C43.484,20.804 43.304,21.08 43.088,21.344 C42.296,22.196 40.916,22.88 38.924,23.396 L39.416,24.164 C41.396,23.636 42.824,22.892 43.7,21.944 C43.76,21.872 43.82,21.788 43.892,21.704 C45.476,22.436 47,23.276 48.488,24.224 L49.076,23.576 C47.648,22.676 46.064,21.836 44.324,21.056 C44.42,20.888 44.504,20.696 44.588,20.504 L49.34,20.504 L49.34,19.664 L44.876,19.664 C45.008,19.112 45.092,18.512 45.116,17.852 L45.116,15.332 L44.264,15.332 Z M39.32,13.904 L39.32,14.708 L47.564,14.708 C47.396,15.308 47.192,15.86 46.94,16.352 L47.756,16.58 C48.044,15.872 48.284,15.164 48.464,14.444 L48.464,13.904 L39.32,13.904 Z M51.812,15.068 L51.812,20 L55.568,20 L55.568,21.14 L50.672,21.14 L50.672,21.956 L55.568,21.956 L55.568,24.236 L56.432,24.236 L56.432,21.956 L61.328,21.956 L61.328,21.14 L56.432,21.14 L56.432,20 L60.188,20 L60.188,15.068 L57.884,15.068 C58.244,14.576 58.568,14.024 58.856,13.412 L58.016,13.112 C57.716,13.808 57.368,14.468 56.984,15.068 L51.812,15.068 Z M59.348,19.232 L56.432,19.232 L56.432,17.888 L59.348,17.888 L59.348,19.232 Z M55.568,19.232 L52.652,19.232 L52.652,17.888 L55.568,17.888 L55.568,19.232 Z M52.652,17.144 L52.652,15.824 L55.568,15.824 L55.568,17.144 L52.652,17.144 Z M56.432,15.824 L59.348,15.824 L59.348,17.144 L56.432,17.144 L56.432,15.824 Z M53.936,13.172 L53.204,13.52 C53.612,13.976 53.984,14.48 54.344,15.056 L55.064,14.696 C54.704,14.144 54.332,13.628 53.936,13.172 L53.936,13.172 Z" id="去买单" fill="#FFFFFF"></path>
            </g>
            <g id="percent" transform="translate(0.000000, 226.000000)" fill="#000000">
                <g id="Layer_1">
                    <path d="M16.6666667,20 L3.33333333,20 C1.5,20 0,18.5 0,16.6666667 L0,3.33333333 C0,1.5 1.5,0 3.33333333,0 L16.6666667,0 C18.5,0 20,1.5 20,3.33333333 L20,16.6666667 C20,18.5 18.5,20 16.6666667,20 L16.6666667,20 Z M3.33333333,1.66666667 C2.41666667,1.66666667 1.66666667,2.41666667 1.66666667,3.33333333 L1.66666667,16.6666667 C1.66666667,17.5833333 2.41666667,18.3333333 3.33333333,18.3333333 L16.6666667,18.3333333 C17.5833333,18.3333333 18.3333333,17.5833333 18.3333333,16.6666667 L18.3333333,3.33333333 C18.3333333,2.41666667 17.5833333,1.66666667 16.6666667,1.66666667 L3.33333333,1.66666667 L3.33333333,1.66666667 Z" id="Shape"></path>
                    <path d="M6.41666667,4.5 C8,4.58333333 8.83333333,5.5 8.83333333,7.33333333 C8.83333333,9.16666667 8,10.0833333 6.33333333,10.1666667 C4.83333333,10 4,9.08333333 4,7.25 C4,5.5 4.83333333,4.5 6.41666667,4.5 L6.41666667,4.5 Z M5.08333333,7.25 C5.08333333,8.41666667 5.58333333,9 6.41666667,9.08333333 C7.25,9.08333333 7.75,8.41666667 7.75,7.25 C7.75,6 7.33333333,5.41666667 6.41666667,5.41666667 C5.5,5.41666667 5.08333333,6 5.08333333,7.25 L5.08333333,7.25 Z M12.25,4.5 L13.5833333,4.5 L7.66666667,15.8333333 L6.33333333,15.8333333 L12.25,4.5 L12.25,4.5 Z M13.5,10.1666667 C15.0833333,10.25 15.9166667,11.1666667 15.9166667,13 C15.8333333,14.6666667 15,15.5833333 13.4166667,15.6666667 C11.9166667,15.5833333 11.0833333,14.75 11,13 C11.0833333,11.25 11.9166667,10.25 13.5,10.1666667 L13.5,10.1666667 Z M12.1666667,13 C12.1666667,14.1666667 12.6666667,14.75 13.5,14.75 C14.3333333,14.75 14.8333333,14.1666667 14.8333333,13 C14.8333333,11.75 14.4166667,11.1666667 13.5,11.1666667 C12.5833333,11.1666667 12.1666667,11.75 12.1666667,13 L12.1666667,13 Z" id="Shape"></path>
                </g>
            </g>
            <g id="2" transform="translate(0.000000, 689.000000)" fill="#DA5868">
                <g id="图层_1">
                    <g id="同享">
                        <path d="M24,12 C24,5.4 18.6,0 12,0 C5.4,0 0,5.4 0,12 C0,18.6 5.4,24 12,24 C18.6,24 24,18.6 24,12 L24,12 Z M2,12 C2,6.5 6.5,2 12,2 C17.5,2 22,6.5 22,12 C22,17.5 17.5,22 12,22 C6.5,22 2,17.5 2,12 L2,12 Z M11,4 L13,4 L13,15 L11,15 L11,4 L11,4 Z M11,17 L13,17 L13,19 L11,19 L11,17 L11,17 Z" id="Shape"></path>
                    </g>
                </g>
            </g>
            <g id="Layer_1" transform="translate(0.000000, 503.000000)">
                <path d="M103.874519,69.6415684 L82.9815696,36.8159929 C82.3302137,35.6815553 80.8859027,35.2924032 79.7578298,35.9480656 L30.882535,64.2807024 C29.7521021,64.9363648 29.3674245,66.3915581 30.0187804,67.5259957 L50.734731,100.528458 C51.386087,101.662896 52.8303979,102.052048 53.9584709,101.396386 L103.010765,72.8868617 C104.138838,72.2311992 104.525875,70.7807229 103.874519,69.6415684 L103.874519,69.6415684 Z" id="Shape" fill="#DA5868"></path>
                <path d="M59.7719924,60.7829497 C60.1216441,59.0398102 60.406992,57.5735757 60.7084159,56.1073412 C61.3996814,52.7572451 62.2115164,49.4343855 62.7500605,46.0525133 C63.1760729,43.3969493 62.332086,42.6933383 59.1209168,41.9261754 C57.0230064,41.4222991 57.1797469,43.2471483 56.874304,44.4727932 C55.9981652,47.968151 55.218482,51.4907453 54.4428179,55.0178791 C53.7997802,57.9458086 53.2170274,60.8873565 52.6021226,63.8652197 C57.4490189,64.1466641 61.9583204,64.4099508 66.8333495,64.6913952 C65.1292998,68.8767457 62.9711047,72.9985442 67.5929378,76.8570561 C68.8790131,73.3072252 70.1731263,69.9208136 71.3386321,66.4799289 C72.8819224,61.9314244 72.1384101,60.8192651 67.6733175,60.7874891 C65.1534137,60.7693314 62.6335099,60.7829497 59.7719924,60.7829497" id="Path" fill="#FFFFFF" transform="translate(62.337014, 59.348657) rotate(-27.000000) translate(-62.337014, -59.348657) "></path>
                <path d="M62.4414839,56.3481671 C62.7911356,54.6050276 63.0764836,53.1387931 63.3779075,51.6725586 C64.0691729,48.3224625 64.881008,44.9996029 65.419552,41.6177307 C65.8455644,38.9621667 65.0015775,38.2585557 61.7904083,37.4913928 C59.692498,36.9875165 59.8492384,38.8123657 59.5437955,40.0380106 C58.6676567,43.5333684 57.8879736,47.0559627 57.1123094,50.5830965 C56.4692717,53.511026 55.8865189,56.4525739 55.2716141,59.4304371 C60.1185104,59.7118815 64.6278119,59.9751682 69.5028411,60.2566126 C67.7987913,64.4419631 65.6405962,68.5637616 70.2624293,72.4222735 C71.5485046,68.8724426 72.8426179,65.486031 74.0081236,62.0451463 C75.5514139,57.4966418 74.8079017,56.3844825 70.342809,56.3527065 C67.8229052,56.3345488 65.3030014,56.3481671 62.4414839,56.3481671" id="Path" fill="#000000" transform="translate(65.006506, 54.913875) rotate(-27.000000) translate(-65.006506, -54.913875) "></path>
                <path d="M40.7260335,89.9246514 L2.96626934,89.9246514 C1.66355748,89.9246514 0.606284083,90.969466 0.606284083,92.2831494 C0.606284083,93.5968328 1.66355748,94.6416474 2.96626934,94.6416474 L40.7260335,94.6416474 C42.0287454,94.6416474 43.0860188,93.5968328 43.0860188,92.2831494 C43.0860188,90.969466 42.0287454,89.9246514 40.7260335,89.9246514 L40.7260335,89.9246514 Z M5.32625461,82.8491573 C5.32625461,84.1628407 6.383528,85.2076553 7.68623987,85.2076553 L36.006063,85.2076553 C37.3087749,85.2076553 38.3660483,84.1628407 38.3660483,82.8491573 C38.3660483,81.5354739 37.3087749,80.4906593 36.006063,80.4906593 L7.68623987,80.4906593 C6.38116802,80.4906593 5.32625461,81.5354739 5.32625461,82.8491573 L5.32625461,82.8491573 Z M12.4062104,71.0566672 L2.96626934,71.0566672 C1.66355748,71.0566672 0.606284083,72.1014818 0.606284083,73.4151652 C0.606284083,74.7288486 1.66355748,75.7736632 2.96626934,75.7736632 L12.4062104,75.7736632 C13.7089223,75.7736632 14.7661957,74.7288486 14.7661957,73.4151652 C14.7661957,72.1014818 13.7089223,71.0566672 12.4062104,71.0566672 L12.4062104,71.0566672 Z M104.122318,63.6439079 L92.1453924,43.1603526 C92.6150295,43.0117672 93.0681466,42.8183704 93.490584,42.5801621 C94.6304569,41.9292166 95.574451,41.0070439 96.2045671,40.1485506 C97.5237988,38.3490166 97.5662786,36.6862755 97.3703998,35.6060834 C97.3515199,35.499951 97.32792,35.3938186 97.3043202,35.2900447 C97.5355987,35.1839123 97.7763172,35.0565534 97.9910759,34.93627 C100.056063,33.733436 101.481494,31.6107877 101.710413,29.3890826 C102.014851,26.4102996 100.273182,23.7192534 98.0949153,21.9668893 C99.3575074,18.5258407 99.6643055,14.8654518 99.0035096,11.0564775 C98.4135133,7.64844783 96.8394031,1.73333478 92.9619473,0.422009881 C92.2893515,0.193235573 91.5506761,0.235688538 90.9583198,0.634274704 C90.3612436,0.992766403 89.9576861,1.60361739 89.8538467,2.29937431 L89.7098876,3.36541542 C89.492769,5.06117549 89.4125295,5.69325296 88.3977358,6.81589802 C87.3711422,7.94561858 86.1486699,9.05175415 84.6524392,10.1979842 C81.6080582,12.5187462 78.4055582,14.6461115 75.1251787,16.5140419 C72.0194381,18.2852739 68.5007001,20.2923557 66.4711127,23.8725557 C64.5571647,27.2499249 64.2220468,30.7664455 65.3430398,34.1933431 L44.0842926,46.3113059 C41.6393478,43.6391277 38.3849282,42.1674249 34.4697126,42.1178964 C30.3114186,42.063651 26.7926805,44.0660158 23.6869399,45.8372478 C20.4089204,47.7051783 16.9421021,49.3844289 13.3832443,50.8231126 C11.6321352,51.5306621 10.0509451,52.0259466 8.5452745,52.3372684 C7.05376382,52.6438731 6.45668755,52.3938723 4.86133751,51.7334929 L3.8536238,51.3231142 C3.19282793,51.0636794 2.45651253,51.1014154 1.84055637,51.4339636 C1.1962804,51.7429269 0.790362933,52.3537779 0.653483788,53.0424593 C-0.13475129,57.01417 4.26662122,61.3160704 6.95936441,63.525983 C9.9707056,65.9953304 13.3336846,67.5637316 16.9845818,68.2028846 C17.432979,70.9411008 18.9221297,73.7760154 21.6880324,75.0047929 C23.7506595,75.9222486 26.3254035,75.7642292 28.4139904,74.5991312 C28.6287491,74.4788478 28.8576676,74.3373379 29.0677063,74.1911111 C29.1455859,74.2642245 29.2281853,74.3373379 29.3107848,74.4057344 C30.1603795,75.1132838 31.6400903,75.9080976 33.8773563,75.6793233 C34.9464296,75.5708324 36.2279016,75.2241332 37.3677745,74.5731877 C37.7902119,74.3302625 38.1843294,74.0401672 38.5501271,73.7146945 L50.5270523,94.1982498 C51.1854882,95.3232534 52.6415991,95.7076885 53.779112,95.0567431 L103.251483,66.8561822 C104.388996,66.2052368 104.778394,64.7689115 104.122318,63.6439079 L104.122318,63.6439079 Z M70.6695265,26.3112427 C72.0666378,23.8442538 74.8679403,22.2475506 77.5748434,20.7050929 C81.0345818,18.7333885 84.4140807,16.4904569 87.6213007,14.042336 C89.3464499,12.7239356 90.776601,11.4314787 91.9943534,10.0847763 C92.5867097,9.43147233 93.0256669,8.80882885 93.3537049,8.20505336 C93.7029827,9.21920751 94.0263007,10.4267585 94.2622992,11.7805364 C94.8735354,15.3112079 94.4227782,18.6649921 92.9218276,21.752266 C92.3459912,22.9338735 92.846308,24.3772743 94.0404606,24.9810498 C95.5390512,25.7381277 97.0659617,27.4126613 96.9243626,28.8018166 C96.848843,29.528234 96.2800866,30.3183308 95.5060114,30.768804 C95.2298931,30.8961628 94.4982977,31.285315 93.8375018,31.0070123 C92.690549,30.5235202 91.3854772,30.9763518 90.8096408,32.0541854 C90.2361643,33.1343775 90.5807222,34.4905138 91.6096758,35.1933462 C92.1925921,35.5919324 92.5772697,36.030613 92.6386293,36.3702368 C92.690549,36.6532565 92.4852303,37.0070312 92.3058714,37.252315 C91.7748747,37.9763739 90.92764,38.5848664 90.3777634,38.6367534 C90.2668441,38.6485458 90.2149245,38.6414704 90.0922052,38.5329794 C89.809007,38.2829787 89.483329,38.1273178 89.1434912,38.0282609 L82.7007314,27.0117166 C82.0446555,25.886713 80.5885446,25.5022779 79.4510317,26.1508648 L69.6500129,31.7381466 C69.319615,29.9480466 69.6122531,28.1744561 70.6695265,26.3112427 L70.6695265,26.3112427 Z M35.5151861,69.6415684 C35.5505859,69.7972292 35.526986,69.8491162 35.4632664,69.9363806 C35.1423084,70.3821368 34.1841544,70.8019494 33.285,70.8939308 C32.9805619,70.9245913 32.5675645,70.9245913 32.3433659,70.73827 C32.0790475,70.5165711 31.8855287,69.9670411 31.8265291,69.2689257 C31.7226898,68.0401482 30.7055361,67.06373 29.4712638,67.0165601 C28.2393515,66.9693901 27.1867981,67.8585439 27.038119,69.0802458 C26.9507996,69.7830783 26.245164,70.2146834 25.9973655,70.3892123 C25.2138504,70.8255344 24.2344565,70.9175158 23.5618607,70.6179866 C22.2733088,70.0448715 21.5676732,67.9033553 21.6526326,66.2453312 C21.7210722,64.9222138 20.7039186,63.7712668 19.3799668,63.6722099 C15.9225884,63.4151336 12.7531282,62.1226767 9.96362564,59.8349336 C8.89455232,58.9552138 7.99539794,58.0754941 7.28268239,57.2688877 C7.97415807,57.2901142 8.74115328,57.2240763 9.60962786,57.0448304 C11.3984967,56.6769047 13.2487251,56.1014312 15.2665125,55.2853909 C19.0188891,53.7665182 22.6745063,51.9976447 26.1342447,50.0259403 C28.8411478,48.4834826 31.6424503,46.8867794 34.5051124,46.9268739 C36.6692189,46.9551759 38.3707682,47.5919704 39.7773195,48.7665024 L29.9763007,54.3514257 C28.8387878,55.0000126 28.4493902,56.4386964 29.1054661,57.5613415 L35.5458659,68.5778858 C35.4632664,68.919868 35.4373066,69.2736427 35.5151861,69.6415684 L35.5151861,69.6415684 Z M53.458154,89.8114435 L34.4154329,57.2453028 L79.7649097,31.3961644 L98.8076308,63.9599466 L53.458154,89.8114435 L53.458154,89.8114435 Z" id="Shape" fill="#000000"></path>
            </g>
            <g id="Group-4" transform="translate(0.000000, 750.585693)" stroke="#FFFFFF" stroke-linecap="round">
                <path d="M14.3146276,2.29995422 C12.7943147,0.873581581 10.7491753,0 8.5,0 C3.80557963,0 0,3.80557963 0,8.5 C0,13.1944204 3.80557963,17 8.5,17 L8.5,17 C13.1944204,17 17,13.1944204 17,8.5" id="Oval"></path>
                <path d="M3.5,6.5 L8.5,11.5" id="Line" stroke-width="2"></path>
                <path d="M8.5,11.5 L17.5,3.5" id="Line" stroke-width="2"></path>
            </g>
            <g id="Group-2" transform="translate(-24.000000, 908.000000)">
                <mask id="mask-2" fill="white">
                    <use xlink:href="#path-1"></use>
                </mask>
                <g id="Rectangle-3"></g>
                <g id="待使用" mask="url(#mask-2)">
                    <g transform="translate(65.500000, 26.296902) scale(-1, 1) translate(-65.500000, -26.296902) translate(8.000000, -31.703098)">
                        <polygon id="Rectangle-6" fill="#B79F72" transform="translate(57.582040, 58.314300) rotate(45.000000) translate(-57.582040, -58.314300) " points="46.1827102 89.8602953 46.1827102 26.6565055 68.4896061 -11.4487096 68.9813689 128.077309"></polygon>
                        <path d="M42.6673923,54.8763102 L42.6673923,55.5723102 L43.8193923,55.5723102 L43.8193923,59.7243102 L42.7033923,59.7723102 L42.8113923,60.5163102 C44.4793923,60.4203102 45.8833923,60.3003102 47.0233923,60.1683102 L47.0233923,61.2243102 L47.8633923,61.2243102 L47.8633923,60.0603102 C48.1033923,60.0123102 48.3433923,59.9763102 48.5593923,59.9403102 L48.5593923,59.2563102 C48.3433923,59.2923102 48.1033923,59.3283102 47.8633923,59.3643102 L47.8633923,55.5723102 L53.2513923,55.5723102 L53.2513923,54.8763102 L42.6673923,54.8763102 Z M44.5993923,59.6883102 L44.5993923,58.6563102 L47.0233923,58.6563102 L47.0233923,59.4723102 C46.3033923,59.5563102 45.4873923,59.6283102 44.5993923,59.6883102 L44.5993923,59.6883102 Z M44.5993923,58.0203102 L44.5993923,57.1203102 L47.0233923,57.1203102 L47.0233923,58.0203102 L44.5993923,58.0203102 Z M44.5993923,56.4723102 L44.5993923,55.5723102 L47.0233923,55.5723102 L47.0233923,56.4723102 L44.5993923,56.4723102 Z M44.1913923,50.6283102 L44.1913923,54.0843102 L51.7753923,54.0843102 L51.7753923,50.6283102 L44.1913923,50.6283102 Z M50.9473923,53.4603102 L45.0193923,53.4603102 L45.0193923,52.6563102 L50.9473923,52.6563102 L50.9473923,53.4603102 Z M45.0193923,52.0443102 L45.0193923,51.2763102 L50.9473923,51.2763102 L50.9473923,52.0443102 L45.0193923,52.0443102 Z M48.8713923,57.0843102 C49.1113923,57.9603102 49.5553923,58.7403102 50.2273923,59.4363102 C49.7113923,59.8683102 49.0873923,60.2283102 48.3673923,60.5403102 L48.8113923,61.2123102 C49.5913923,60.8763102 50.2633923,60.4683102 50.8153923,59.9883102 C51.3553923,60.4323102 52.0273923,60.8403102 52.8193923,61.2123102 L53.2633923,60.4923102 C52.5193923,60.1803102 51.8953923,59.8323102 51.3673923,59.4363102 C51.9433923,58.7643102 52.3513923,57.9723102 52.5793923,57.0483102 L52.5793923,56.3763102 L48.4873923,56.3763102 L48.4873923,57.0843102 L48.8713923,57.0843102 Z M50.7553923,58.9203102 C50.2033923,58.3803102 49.8313923,57.7683102 49.6153923,57.0843102 L51.7993923,57.0843102 C51.5833923,57.7563102 51.2353923,58.3683102 50.7553923,58.9203102 L50.7553923,58.9203102 Z M61.9153923,51.2403102 L61.9153923,58.7283102 L62.7553923,58.7283102 L62.7553923,51.2403102 L61.9153923,51.2403102 Z M64.0513923,61.0923102 C64.7953923,61.0923102 65.1793923,60.7203102 65.1793923,59.9763102 L65.1793923,50.2323102 L64.3153923,50.2323102 L64.3153923,59.7603102 C64.3153923,60.1323102 64.1233923,60.3243102 63.7513923,60.3243102 C63.2473923,60.3243102 62.7073923,60.3003102 62.1313923,60.2643102 L62.3233923,61.0923102 L64.0513923,61.0923102 Z M60.7153923,52.8723102 L57.2953923,53.4003102 C57.2233923,52.4523102 57.1873923,51.3963102 57.1873923,50.2203102 L56.2993923,50.2203102 C56.2993923,51.4443102 56.3473923,52.5483102 56.4433923,53.5323102 L54.8353923,53.7843102 L54.9673923,54.6243102 L56.5273923,54.3843102 C56.6233923,55.2243102 56.7433923,55.9563102 56.9113923,56.5803102 C57.0433923,57.1083102 57.1873923,57.5883102 57.3553923,58.0323102 C56.5753923,58.7523102 55.6753923,59.3043102 54.6673923,59.7003102 L55.1833923,60.4803102 C56.1073923,60.0963102 56.9473923,59.5683102 57.7153923,58.9203102 C57.8953923,59.3163102 58.0993923,59.6643102 58.3153923,59.9763102 C58.8673923,60.7443102 59.4193923,61.1283102 59.9713923,61.1283102 C60.2713923,61.1283102 60.5473923,60.8643102 60.7873923,60.3603102 C60.9793923,59.9403102 61.1593923,59.4243102 61.3273923,58.8003102 L60.5953923,58.3323102 C60.3553923,59.5563102 60.1393923,60.1803102 59.9233923,60.2163102 C59.5633923,60.2043102 59.1553923,59.8443102 58.7113923,59.1363102 C58.5793923,58.8963102 58.4473923,58.6323102 58.3273923,58.3323102 C59.2033923,57.4203102 59.9473923,56.2803102 60.5473923,54.9363102 L59.7913923,54.5403102 C59.2993923,55.6323102 58.6993923,56.5803102 57.9913923,57.3843102 C57.8593923,56.9763102 57.7393923,56.5203102 57.6313923,56.0043102 C57.5233923,55.4763102 57.4393923,54.9003102 57.3673923,54.2523102 L60.8473923,53.7123102 L60.7153923,52.8723102 Z M58.7713923,50.1723102 L58.0633923,50.5203102 C58.5073923,51.0483102 58.9273923,51.6363102 59.3233923,52.2963102 L60.0553923,51.9363102 C59.6473923,51.3003102 59.2273923,50.7123102 58.7713923,50.1723102 L58.7713923,50.1723102 Z M68.5753923,52.9083102 L68.5753923,57.6243102 L70.0993923,57.6243102 L70.0993923,58.0923102 C70.0993923,58.1883102 70.0873923,58.3083102 70.0753923,58.4283102 L67.1353923,58.4283102 L67.1353923,59.1963102 L69.8593923,59.1963102 C69.7873923,59.3403102 69.7033923,59.4723102 69.6073923,59.6043102 C69.2713923,59.9643102 68.6833923,60.2643102 67.8433923,60.5043102 L68.2873923,61.1883102 C69.2113923,60.9243102 69.8833923,60.5643102 70.2913923,60.0963102 C70.5073923,59.8443102 70.6633923,59.5443102 70.7833923,59.1963102 L74.1913923,59.1963102 L74.1913923,61.2243102 L75.0433923,61.2243102 L75.0433923,59.1963102 L77.7673923,59.1963102 L77.7673923,58.4283102 L75.0433923,58.4283102 L75.0433923,57.6243102 L76.4713923,57.6243102 L76.4713923,52.9083102 L68.5753923,52.9083102 Z M70.9633923,57.6243102 L74.1913923,57.6243102 L74.1913923,58.4283102 L70.9393923,58.4283102 C70.9513923,58.3203102 70.9633923,58.2123102 70.9633923,58.0923102 L70.9633923,57.6243102 Z M75.6313923,56.9523102 L69.4153923,56.9523102 L69.4153923,56.2083102 L75.6313923,56.2083102 L75.6313923,56.9523102 Z M69.4153923,55.5843102 L69.4153923,54.9123102 L75.6313923,54.9123102 L75.6313923,55.5843102 L69.4153923,55.5843102 Z M69.4153923,54.3003102 L69.4153923,53.5803102 L75.6313923,53.5803102 L75.6313923,54.3003102 L69.4153923,54.3003102 Z M68.9353923,51.7323102 L69.8593923,51.7323102 C70.0993923,52.0563102 70.3153923,52.3923102 70.5073923,52.7283102 L71.2273923,52.4643102 C71.0953923,52.2363102 70.9273923,51.9963102 70.7233923,51.7323102 L72.2953923,51.7323102 L72.2953923,51.0003102 L69.3193923,51.0003102 C69.4153923,50.7723102 69.5233923,50.5323102 69.6193923,50.2923102 L68.7913923,50.1123102 C68.4673923,51.0243102 67.9393923,51.8643102 67.2073923,52.6323102 L67.9273923,53.0763102 C68.3113923,52.6683102 68.6473923,52.2123102 68.9353923,51.7323102 L68.9353923,51.7323102 Z M73.8673923,51.6963102 L74.7793923,51.6963102 C75.0433923,52.0323102 75.2713923,52.3803102 75.4633923,52.7403102 L76.1833923,52.4763102 C76.0393923,52.2363102 75.8713923,51.9723102 75.6553923,51.6963102 L77.6593923,51.6963102 L77.6593923,50.9643102 L74.2393923,50.9643102 L74.4913923,50.3163102 L73.6513923,50.1363102 C73.3873923,50.9523102 72.9553923,51.7083102 72.3553923,52.3803102 L73.0633923,52.8363102 C73.3633923,52.4883102 73.6273923,52.1043102 73.8673923,51.6963102 L73.8673923,51.6963102 Z" id="最划算" fill="#FFFFFF" transform="translate(60.217392, 55.668310) scale(-1, 1) rotate(45.000000) translate(-60.217392, -55.668310) "></path>
                    </g>
                </g>
            </g>
            <g id="待使用-Clipped" transform="translate(34.022601, 1011.022601) rotate(-45.000000) translate(-34.022601, -1011.022601) translate(0.522601, 978.022601)">
                <mask id="mask-4" fill="white">
                    <use xlink:href="#path-3"></use>
                </mask>
                <g id="path-3"></g>
                <g id="待使用" mask="url(#mask-4)">
                    <g transform="translate(5.000000, -25.000000)" id="Rectangle-6">
                        <g transform="translate(45.825581, 45.383477) scale(-1, 1) translate(-45.825581, -45.383477) translate(0.825581, 0.383477)">
                            <polygon id="Shape" fill="#FDF0EE" transform="translate(44.860426, 45.279339) rotate(45.000000) translate(-44.860426, -45.279339) " points="35.9795536 69.7738765 35.9795536 20.6979927 53.3581818 -8.88958601 53.7412993 99.4482636"></polygon>
                        </g>
                    </g>
                </g>
            </g>
            <path d="M16.4475623,726.506955 C14.8282478,724.390274 12.0967766,723 9,723 C4.02943725,723 0,726.581722 0,731 C0,733.431347 1.22020343,735.609366 3.14597105,737.076601 L2,740.585693 L5.43758186,738.348835 C6.53007904,738.767845 7.73453924,739 9,739 C13.9705627,739 18,735.418278 18,731 C18,729.708596 17.655759,728.48866 17.0443937,727.408741 L6.01171875,734.217285 L4.09521484,729.177979 L6.82421875,730.527588 L16.4475623,726.506955 Z" id="Combined-Shape" fill="#FFFFFF"></path>
            <g id="Layer_1" transform="translate(0.000000, 396.000000)">
                <path d="M42,36 L31,36 L31,5 C31,4.447 30.553,4 30,4 L5,4 C4.447,4 4,4.447 4,5 L4,37 C4,40.667 5.938,42.751 9.435,42.959 C11.992,42.548 14,38.615 14,36 L16,36 C16,39.667 13.18,42.67 9.59,42.97 C9.729,42.976 9.855,43 10,43 L37,43 C39.866,43 43,40.866 43,38 L43,37 C43,36.447 42.553,36 42,36 L42,36 Z" id="Shape" fill="#C0E59B"></path>
                <path d="M17.5728454,26.1664842 L17.6162476,26.1974858 L17.8904926,25.8135429 L26.8716471,15.8344824 L27.2061294,15.4628353 L26.4628353,14.7938706 L26.1283529,15.1655176 L17.4271546,24.8335158 L10.7906191,20.0931333 L10.3837524,19.8025142 L9.80251417,20.6162476 L10.2093809,20.9068667 L17.1864571,25.8904926 L17.5371647,26.2061294 L17.5728454,26.1664842 Z" id="Combined-Shape" stroke="#FFFFFF" stroke-linecap="round"></path>
                <path d="M16.5728454,23.1664842 L16.6162476,23.1974858 L16.8904926,22.8135429 L25.8716471,12.8344824 L26.2061294,12.4628353 L25.4628353,11.7938706 L25.1283529,12.1655176 L16.4271546,21.8335158 L9.7906191,17.0931333 L9.38375236,16.8025142 L8.80251417,17.6162476 L9.2093809,17.9068667 L16.1864571,22.8904926 L16.5371647,23.2061294 L16.5728454,23.1664842 Z" id="Combined-Shape" stroke="#000000" stroke-linecap="round"></path>
                <path d="M43,35 L32,35 L32,1 C32,0.447 31.553,0 31,0 L1,0 C0.447,0 0,0.447 0,1 L0,37 C0,40.866 3.134,44 7,44 L37,44 C40.866,44 44,40.866 44,37 L44,36 C44,35.447 43.553,35 43,35 L43,35 Z M7,42 C4.238,42 2,39.762 2,37 L2,2 L30,2 L30,35 L13,35 C12.447,35 12,35.447 12,36 L12,37 C12,39.762 9.762,42 7,42 L7,42 Z M37,42 L11.895,42 C13.192,40.729 14,38.96 14,37 L42,37 C42,39.762 39.762,42 37,42 L37,42 Z" id="Shape" fill="#000000"></path>
            </g>
            <g id="Layer_1" transform="translate(0.000000, 450.000000)">
                <path d="M42,36 L31,36 L31,5 C31,4.447 30.553,4 30,4 L5,4 C4.447,4 4,4.447 4,5 L4,37 C4,40.667 5.938,42.751 9.435,42.959 C11.992,42.548 14,38.615 14,36 L16,36 C16,39.667 13.18,42.67 9.59,42.97 C9.729,42.976 9.855,43 10,43 L37,43 C39.866,43 43,40.866 43,38 L43,37 C43,36.447 42.553,36 42,36 L42,36 Z" id="Shape" fill="#FFDA8E"></path>
                <path d="M8.0420606,12.0964581 C8.06622267,12.1572799 8.07788712,12.1964391 8.0853857,12.2256003 L9.70841037,17.0955074 C9.78339611,17.3063007 9.93919981,17.4721025 10.1366623,17.5704171 C9.83505295,18.3785968 9.66591845,19.2509309 9.66591845,20.1649237 L9.66591845,25.9971479 C9.66591845,30.1388602 13.8559549,33.4957218 17.9976673,33.4957218 C22.1393796,33.4957218 26.3294161,30.1388602 26.3294161,25.9971479 L26.3294161,20.1649237 C26.3294161,19.2867574 26.171946,18.4469171 25.8928325,17.6653991 L26.6518548,15.9990493 L27.910782,12.2256003 C27.9182806,12.195606 27.9291119,12.1564467 27.9499412,12.095625 L27.910782,12.2256003 C27.8266314,12.5630361 28.4731751,11 27.162591,11 L8.83274356,11 C7.5213263,11 8.16787001,12.5622029 8.0853857,12.2256003 L8.0420606,12.0964581 Z" id="Shape" fill="#FFFFFF"></path>
                <path d="M43,35 L32,35 L32,1 C32,0.447 31.553,0 31,0 L1,0 C0.447,0 0,0.447 0,1 L0,37 C0,40.866 3.134,44 7,44 L37,44 C40.866,44 44,40.866 44,37 L44,36 C44,35.447 43.553,35 43,35 L43,35 Z M7,42 C4.238,42 2,39.762 2,37 L2,2 L30,2 L30,35 L13,35 C12.447,35 12,35.447 12,36 L12,37 C12,39.762 9.762,42 7,42 L7,42 Z M37,42 L11.895,42 C13.192,40.729 14,38.96 14,37 L42,37 C42,39.762 39.762,42 37,42 L37,42 Z" id="Shape" fill="#000000"></path>
                <path d="M5.04652521,8.20610396 C5.07310348,8.2730079 5.08593438,8.31608304 5.09418281,8.34816028 L6.87950995,13.7050582 C6.96199426,13.9369308 7.13337834,14.1193127 7.35058703,14.2274588 C7.01881679,15.1164564 6.83276884,16.076024 6.83276884,17.0814161 L6.83276884,23.4968627 C6.83276884,28.0527463 11.441809,31.745294 15.9976925,31.745294 C20.5535761,31.745294 25.1626163,28.0527463 25.1626163,23.4968627 L25.1626163,17.0814161 C25.1626163,16.1154331 24.9893992,15.1916088 24.6823743,14.331939 L25.5172988,12.4989542 L26.9021188,8.34816028 C26.9103672,8.31516655 26.9222816,8.27209141 26.9451939,8.20518747 L26.9021188,8.34816028 C26.809553,8.71933969 27.5207511,7 26.0791086,7 L5.91627647,7 C4.47371747,7 5.18491555,8.7184232 5.09418281,8.34816028 L5.04652521,8.20610396 Z M23.3296315,23.4968627 C23.3296315,27.0400222 19.5408521,29.9123093 15.9976925,29.9123093 C12.454533,29.9123093 8.66575358,27.0400222 8.66575358,23.4968627 L8.66575358,17.0814161 C8.66575358,16.0943538 8.89854264,15.1650305 9.29813332,14.331939 L22.6954188,14.331939 C23.0968425,15.1650305 23.3296315,16.0943538 23.3296315,17.0814161 L23.3296315,23.4968627 L23.3296315,23.4968627 Z M24.8079337,8.83298474 L23.5853329,12.4989542 L8.41005221,12.4989542 L7.18745138,8.83298474 L24.8079337,8.83298474 L24.8079337,8.83298474 Z M15.9976925,24.413355 C16.5045128,24.413355 16.9141849,24.003683 16.9141849,23.4968627 L16.9141849,19.8308932 C16.9141849,19.3240729 16.5045128,18.9144008 15.9976925,18.9144008 C15.4908723,18.9144008 15.0812002,19.3240729 15.0812002,19.8308932 L15.0812002,23.4968627 C15.0812002,24.003683 15.4908723,24.413355 15.9976925,24.413355 L15.9976925,24.413355 Z M19.663662,17.0814161 C19.1568418,17.0814161 18.7471697,17.4910882 18.7471697,17.9979085 C18.7471697,18.5047287 19.1568418,18.9144008 19.663662,18.9144008 C20.1704823,18.9144008 20.5801544,18.5047287 20.5801544,17.9979085 C20.5801544,17.4910882 20.1704823,17.0814161 19.663662,17.0814161 L19.663662,17.0814161 Z M12.3317231,18.9144008 C12.8385433,18.9144008 13.2482154,18.5047287 13.2482154,17.9979085 C13.2482154,17.4910882 12.8385433,17.0814161 12.3317231,17.0814161 C11.8249028,17.0814161 11.4152307,17.4910882 11.4152307,17.9979085 C11.4152307,18.5047287 11.8249028,18.9144008 12.3317231,18.9144008 L12.3317231,18.9144008 Z M19.663662,24.413355 C19.4024617,24.413355 19.1696726,24.5260836 19.0019545,24.7011337 C18.3338316,25.3637576 17.0021682,26.2463398 15.9976925,26.2463398 C14.985885,26.2463398 13.6395577,25.3206825 12.9760172,24.657142 C12.9760172,24.657142 12.8128816,24.413355 12.3317231,24.413355 C11.8249028,24.413355 11.4152307,24.8230271 11.4152307,25.3298474 C11.4152307,25.619459 11.5582035,25.8678284 11.7689967,26.0355465 C12.7789713,27.0097779 14.5212233,28.0793245 15.9976925,28.0793245 C17.5154039,28.0793245 19.3199774,26.9767842 20.3152881,25.9814735 L20.3116221,25.9778075 C20.4784237,25.8119224 20.5801544,25.5827993 20.5801544,25.3298474 C20.5801544,24.8230271 20.1704823,24.413355 19.663662,24.413355 L19.663662,24.413355 Z" id="Shape" fill="#000000"></path>
            </g>
            <g id="Group" transform="translate(0.000000, 777.585693)">
                <rect id="Rectangle" fill="#FFFFFF" x="0" y="0" width="22" height="25"></rect>
                <path d="M7.93263158,13.9361348 C7.77473684,13.7801123 7.51915789,13.7801123 7.36126316,13.9361348 L6.78947368,14.5011442 L6.21810526,13.9365509 C6.06021053,13.7805284 5.80463158,13.7805284 5.64673684,13.9365509 C5.48884211,14.0921573 5.48884211,14.3451217 5.64673684,14.5011442 L6.21810526,15.0657375 L5.64673684,15.6303308 C5.48884211,15.7863532 5.48884211,16.0393177 5.64673684,16.1949241 C5.80463158,16.3509465 6.06021053,16.3509465 6.21810526,16.1949241 L6.78947368,15.6303308 L7.36084211,16.1949241 C7.51873684,16.3509465 7.77431579,16.3509465 7.93221053,16.1949241 C8.09010526,16.0393177 8.09010526,15.7863532 7.93221053,15.6303308 L7.36084211,15.0657375 L7.93221053,14.5011442 C8.09052632,14.3451217 8.09052632,14.0917412 7.93263158,13.9361348 L7.93263158,13.9361348 Z M7.93263158,9.77553568 C7.77473684,9.61951321 7.51915789,9.61951321 7.36126316,9.77553568 L6.78947368,10.340545 L6.21810526,9.77595174 C6.06021053,9.61992927 5.80463158,9.61992927 5.64673684,9.77595174 C5.48884211,9.93155814 5.48884211,10.1845226 5.64673684,10.340545 L6.21810526,10.9051383 L5.64673684,11.4697316 C5.48884211,11.6257541 5.48884211,11.8783025 5.64673684,12.0343249 C5.80463158,12.1903474 6.06021053,12.1903474 6.21810526,12.0343249 L6.78947368,11.4697316 L7.36084211,12.0343249 C7.51873684,12.1903474 7.77431579,12.1903474 7.93221053,12.0343249 C8.09010526,11.8783025 8.09010526,11.6257541 7.93221053,11.4697316 L7.36084211,10.9051383 L7.93221053,10.340545 C8.09052632,10.1845226 8.09052632,9.93114208 7.93263158,9.77553568 L7.93263158,9.77553568 Z M18.5789474,4.66423965 L16.4736842,4.66423965 L16.4736842,3.83211983 C16.4736842,3.37278968 16.0964211,3 15.6315789,3 L14.7894737,3 C14.3246316,3 13.9473684,3.37278968 13.9473684,3.83211983 L13.9473684,4.66423965 L8.05263158,4.66423965 L8.05263158,3.83211983 C8.05263158,3.37278968 7.67536842,3 7.21052632,3 L6.36842105,3 C5.90357895,3 5.52631579,3.37278968 5.52631579,3.83211983 L5.52631579,4.66423965 L3.42105263,4.66423965 C3.18821053,4.66423965 3,4.85021843 3,5.08029956 L3,20.8905762 C3,21.1206574 3.18821053,21.3066362 3.42105263,21.3066362 L18.5789474,21.3066362 C18.8117895,21.3066362 19,21.1206574 19,20.8905762 L19,5.08029956 C19,4.85021843 18.8117895,4.66423965 18.5789474,4.66423965 L18.5789474,4.66423965 Z M14.7894737,4.24817974 C14.7894737,4.01809861 14.9776842,3.83211983 15.2105263,3.83211983 C15.4433684,3.83211983 15.6315789,4.01809861 15.6315789,4.24817974 L15.6315789,5.91241939 C15.6315789,6.14250052 15.4433684,6.3284793 15.2105263,6.3284793 C14.9776842,6.3284793 14.7894737,6.14250052 14.7894737,5.91241939 L14.7894737,4.24817974 L14.7894737,4.24817974 Z M6.36842105,4.24817974 C6.36842105,4.01809861 6.55663158,3.83211983 6.78947368,3.83211983 C7.02231579,3.83211983 7.21052632,4.01809861 7.21052632,4.24817974 L7.21052632,5.91241939 C7.21052632,6.14250052 7.02231579,6.3284793 6.78947368,6.3284793 C6.55663158,6.3284793 6.36842105,6.14250052 6.36842105,5.91241939 L6.36842105,4.24817974 L6.36842105,4.24817974 Z M18.1578947,20.4745163 L3.84210526,20.4745163 L3.84210526,5.49635948 L5.52631579,5.49635948 L5.52631579,6.3284793 C5.52631579,6.78780944 5.90357895,7.16059913 6.36842105,7.16059913 L7.21052632,7.16059913 C7.67536842,7.16059913 8.05263158,6.78780944 8.05263158,6.3284793 L8.05263158,5.49635948 L13.9473684,5.49635948 L13.9473684,6.3284793 C13.9473684,6.78780944 14.3246316,7.16059913 14.7894737,7.16059913 L15.6315789,7.16059913 C16.0964211,7.16059913 16.4736842,6.78780944 16.4736842,6.3284793 L16.4736842,5.49635948 L18.1578947,5.49635948 L18.1578947,20.4745163 L18.1578947,20.4745163 Z M15.6315789,10.4890784 L9.73684211,10.4890784 C9.504,10.4890784 9.31578947,10.6750572 9.31578947,10.9051383 C9.31578947,11.1352195 9.504,11.3211983 9.73684211,11.3211983 L15.6315789,11.3211983 C15.8644211,11.3211983 16.0526316,11.1352195 16.0526316,10.9051383 C16.0526316,10.6750572 15.8644211,10.4890784 15.6315789,10.4890784 L15.6315789,10.4890784 Z M13.9473684,14.6496776 L9.73684211,14.6496776 C9.504,14.6496776 9.31578947,14.8356563 9.31578947,15.0657375 C9.31578947,15.2958186 9.504,15.4817974 9.73684211,15.4817974 L13.9473684,15.4817974 C14.1802105,15.4817974 14.3684211,15.2958186 14.3684211,15.0657375 C14.3684211,14.8356563 14.1802105,14.6496776 13.9473684,14.6496776 L13.9473684,14.6496776 Z" id="Shape" fill="#000000"></path>
            </g>
            <g id="Certification_1200009_easyicon.net" transform="translate(0.000000, 343.000000)">
                <g id="Layer_1">
                    <g id="color_52_" transform="translate(2.942308, 3.909091)">
                        <path d="M39.9565385,30.3306364 L33.6913846,23.951 C34.9300962,21.68275 35.6401731,19.0744091 35.6401731,16.2950455 C35.6401731,7.56702273 28.6845577,0.491568182 20.1038077,0.491568182 C11.5240385,0.491568182 4.56744231,7.56702273 4.56744231,16.2950455 C4.56744231,19.0714773 5.27653846,21.6778636 6.51230769,23.9441591 L0.252057692,30.3130455 C-0.110826923,30.6814773 -0.0255,31.4535227 0.337384615,31.8219545 C0.662019231,32.1522727 0.911134615,32.0985227 0.911134615,32.0985227 L6.39461538,32.0985227 L6.39461538,37.6758182 C6.41619231,37.8810455 6.51426923,38.1048409 6.66923077,38.2631591 C7.03113462,38.6315909 7.76180769,38.6902273 8.12371154,38.3217955 L15.0861923,31.2404773 C16.6613077,31.7887273 18.3443077,32.0995 20.1028269,32.0995 C21.8554615,32.0995 23.5345385,31.7906818 25.1067115,31.2463409 L32.0819423,38.3511136 C32.4438462,38.7205227 33.1745192,38.6618864 33.5364231,38.2924773 C33.6913846,38.1351364 33.7884808,37.9103636 33.8110385,37.7041591 L33.8110385,32.1200227 L39.2945192,32.1200227 C39.2945192,32.1200227 39.5436346,32.1737727 39.8682692,31.8434545 C40.2321346,31.4730682 40.3184423,30.7000455 39.9565385,30.3306364 L39.9565385,30.3306364 Z" id="Shape" fill="#FFDA8E"></path>
                        <path d="M18.6305377,22.2573933 L18.6739399,22.2883949 L18.9481849,21.904452 L27.9293394,11.9253915 L28.2638217,11.5537444 L27.5205276,10.8847797 L27.1860452,11.2564267 L18.4848469,20.9244249 L11.8483114,16.1840424 L11.4414447,15.8934233 L10.8602065,16.7071567 L11.2670732,16.9977758 L18.2441494,21.9814017 L18.594857,22.2970385 L18.6305377,22.2573933 Z" id="Combined-Shape" stroke="#FFFFFF" stroke-linecap="round"></path>
                    </g>
                    <g id="outline_50_">
                        <path d="M42.8802115,31.8620227 L36.1580192,25.155 C37.4869615,22.7704545 38.25,20.0282273 38.25,17.1061818 C38.25,7.93056818 30.7853654,0.492545455 21.5769231,0.492545455 C12.3684808,0.492545455 4.90384615,7.93056818 4.90384615,17.1061818 C4.90384615,20.0243182 5.66394231,22.7645909 6.99190385,25.1481591 L0.272653846,31.8424773 C-0.115730769,32.2294773 -0.0245192308,33.0425682 0.364846154,33.4295682 C0.712038462,33.7755227 0.980769231,33.7198182 0.980769231,33.7198182 L6.86538462,33.7198182 L6.86538462,39.5834545 C6.88892308,39.7994318 6.99386538,40.0349545 7.16059615,40.2010909 C7.54898077,40.5880909 8.33261538,40.6496591 8.72198077,40.2626591 L16.1925,32.8177955 C17.8843269,33.3934091 19.6899231,33.7207955 21.5769231,33.7207955 C23.4580385,33.7207955 25.2597115,33.3963409 26.9466346,32.8236591 L34.4328462,40.2929545 C34.8212308,40.6809318 35.6048654,40.6203409 35.9942308,40.2313864 C36.1609615,40.06525 36.2649231,39.8297273 36.2894423,39.61375 L36.2894423,33.7422955 L42.1740577,33.7422955 C42.1740577,33.7422955 42.4408269,33.7989773 42.7899808,33.4510682 C43.1764038,33.0621136 43.2685962,32.2490227 42.8802115,31.8620227 L42.8802115,31.8620227 Z M8.77788462,37.3982727 L8.77788462,32.6487273 C8.75336538,32.43275 8.67294231,32.2206818 8.50719231,32.0555227 C8.17863462,31.7281364 7.91284615,31.7711364 7.91284615,31.7711364 L3.14532692,31.7867727 L8.09526923,26.8544773 C9.67921154,29.025 11.7721731,30.7919091 14.2054615,31.992 L8.77788462,37.3982727 L8.77788462,37.3982727 Z M21.5759423,31.7642955 C13.45125,31.7642955 6.86440385,25.2009318 6.86440385,17.1052045 C6.86440385,9.00947727 13.45125,2.44611364 21.5759423,2.44611364 C29.7006346,2.44611364 36.2874808,9.00947727 36.2874808,17.1052045 C36.2874808,25.2009318 29.7006346,31.7642955 21.5759423,31.7642955 L21.5759423,31.7642955 Z M35.2390385,31.7897045 C35.2390385,31.7897045 34.97325,31.7467045 34.6456731,32.0740909 C34.4789423,32.2402273 34.3995,32.4522955 34.3759615,32.6682727 L34.3759615,37.4236818 L28.9346538,31.9949318 C31.3708846,30.7967955 33.4667885,29.0298864 35.0517115,26.8593636 L40.0085192,31.8043636 L35.2390385,31.7897045 L35.2390385,31.7897045 Z" id="Shape" fill="#000000"></path>
                        <path d="M20.5728454,23.1664842 L20.6162476,23.1974858 L20.8904926,22.8135429 L29.8716471,12.8344824 L30.2061294,12.4628353 L29.4628353,11.7938706 L29.1283529,12.1655176 L20.4271546,21.8335158 L13.7906191,17.0931333 L13.3837524,16.8025142 L12.8025142,17.6162476 L13.2093809,17.9068667 L20.1864571,22.8904926 L20.5371647,23.2061294 L20.5728454,23.1664842 Z" id="Combined-Shape" stroke="#000000" stroke-linecap="round"></path>
                    </g>
                </g>
            </g>
            <g id="Group" transform="translate(0.000000, 615.000000)">
                <g id="rotate_clock_1188147_easyicon.net" fill="#000000">
                    <g id="Layer_1">
                        <path d="M32,64 C14.4,64 0,49.6 0,32 C0,14.4 14.4,0 32,0 C42.6666667,0 52.5333333,5.33333333 58.6666667,14.1333333 C59.4666667,15.4666667 59.2,17.0666667 57.8666667,17.8666667 C56.5333333,18.6666667 54.9333333,18.4 54.1333333,17.0666667 C49.3333333,9.86666667 40.8,5.33333333 32,5.33333333 C17.3333333,5.33333333 5.33333333,17.3333333 5.33333333,32 C5.33333333,46.6666667 17.3333333,58.6666667 32,58.6666667 C46.6666667,58.6666667 58.6666667,46.6666667 58.6666667,32 C58.6666667,30.4 59.7333333,29.3333333 61.3333333,29.3333333 C62.9333333,29.3333333 64,30.4 64,32 C64,49.6 49.6,64 32,64 L32,64 Z" id="Shape"></path>
                        <path d="M58.6666667,21.3333333 L48,21.3333333 C46.4,21.3333333 45.3333333,20.2666667 45.3333333,18.6666667 C45.3333333,17.0666667 46.4,16 48,16 L56,16 L56,8 C56,6.4 57.0666667,5.33333333 58.6666667,5.33333333 C60.2666667,5.33333333 61.3333333,6.4 61.3333333,8 L61.3333333,18.6666667 C61.3333333,20.2666667 60.2666667,21.3333333 58.6666667,21.3333333 L58.6666667,21.3333333 Z" id="Shape"></path>
                        <path d="M32,42.6666667 C26.1333333,42.6666667 21.3333333,37.8666667 21.3333333,32 C21.3333333,26.1333333 26.1333333,21.3333333 32,21.3333333 C37.8666667,21.3333333 42.6666667,26.1333333 42.6666667,32 C42.6666667,37.8666667 37.8666667,42.6666667 32,42.6666667 L32,42.6666667 Z M32,26.6666667 C29.0666667,26.6666667 26.6666667,29.0666667 26.6666667,32 C26.6666667,34.9333333 29.0666667,37.3333333 32,37.3333333 C34.9333333,37.3333333 37.3333333,34.9333333 37.3333333,32 C37.3333333,29.0666667 34.9333333,26.6666667 32,26.6666667 L32,26.6666667 Z" id="Shape"></path>
                    </g>
                </g>
                <circle id="Oval-2" fill="#5FA5A1" cx="32.5423729" cy="32.5423729" r="13.0169492"></circle>
            </g>
            <g id="Group-7" transform="translate(0.000000, 1021.000000)">
                <use id="Rectangle-13" stroke="#FF8F8F" mask="url(#mask-6)" stroke-width="2" xlink:href="#path-5"></use>
                <path d="M9.828125,15.0234375 L6.4140625,15.0234375 L6.4140625,13.640625 L21.5703125,13.640625 L21.5703125,15.0234375 L14.1875,15.0234375 L11.34375,19.09375 L17.6328125,19.09375 L17.0078125,16.34375 L20.328125,16.34375 L21.3125,20.5859375 L6.7265625,20.5859375 L6.7265625,19.359375 L9.828125,15.0234375 Z M17.6171875,11.4921875 L10.640625,11.4921875 L10.265625,12.1171875 L6.3359375,12.1171875 L9.2421875,7.2734375 L19.40625,7.2734375 L21.7421875,12.1171875 L17.859375,12.1171875 L17.6171875,11.4921875 Z M17.0859375,10.109375 L16.5625,8.765625 L12.3046875,8.765625 L11.484375,10.109375 L17.0859375,10.109375 Z" id="会" fill="#FF8F8F"></path>
            </g>
            <g id="Group-9" transform="translate(0.000000, 1059.000000)">
                <use id="Rectangle-13" stroke="#FF8F8F" mask="url(#mask-8)" stroke-width="2" xlink:href="#path-7"></use>
                <path d="M15.828125,8.6796875 L16.484375,8.6796875 L17.1015625,7.265625 L20.5234375,7.265625 L19.8828125,8.6796875 L21.421875,8.6796875 L21.421875,10.0625 L15.7109375,10.0625 L15.625,11.109375 L21.59375,11.109375 L21.59375,12.5 L20.3359375,12.5 L21.421875,14.46875 L17.4609375,14.46875 L16.359375,12.5 L11.9609375,12.5 L10.578125,14.46875 L6.6328125,14.46875 L7.984375,12.5 L6.4921875,12.5 L6.4921875,11.109375 L11.9921875,11.109375 L12.0625,10.0625 L6.75,10.0625 L6.75,8.6796875 L8.2421875,8.6796875 L7.734375,7.265625 L10.9921875,7.265625 L11.53125,8.6796875 L12.1640625,8.6796875 L12.28125,6.9453125 L15.96875,6.9453125 L15.828125,8.6796875 Z M12.453125,16.3125 L10.484375,20.6015625 L6.4296875,20.6015625 L8.609375,16.3125 L6.484375,16.3125 L6.484375,14.9296875 L21.2265625,14.9296875 L20.84375,20.6015625 L17.0546875,20.6015625 L17.375,16.3125 L12.453125,16.3125 Z" id="券" fill="#FF8F8F"></path>
            </g>
            <g id="Group-11" transform="translate(0.000000, 1097.000000)">
                <use id="Rectangle-13" stroke="#E5DB5D" mask="url(#mask-10)" stroke-width="2" xlink:href="#path-9"></use>
                <path d="M15.3889803,8.0390625 L15.9280428,6.9453125 L19.6233553,6.9453125 L19.1155428,8.0390625 L21.1389803,8.0390625 L20.7952303,14.3671875 L18.5686678,14.3671875 L18.2014803,19.2109375 L21.4124178,19.2109375 L21.4124178,20.6015625 L14.2561678,20.6015625 L14.8264803,14.3671875 L12.8186678,14.3671875 L10.2952303,20.6015625 L6.27960526,20.6015625 L9.05304276,14.3671875 L6.53741776,14.3671875 L7.33429276,8.0390625 L9.15460526,8.0390625 L8.67804276,6.9453125 L12.4358553,6.9453125 L12.9358553,8.0390625 L15.3889803,8.0390625 Z M10.8342928,9.421875 L10.4358553,12.984375 L17.1702303,12.984375 L17.3889803,9.421875 L10.8342928,9.421875 Z" id="兑" fill="#E5DB5D"></path>
            </g>
            <g id="Group-12" transform="translate(0.000000, 1137.000000)">
                <use id="Rectangle-13" stroke="#E0B266" mask="url(#mask-12)" stroke-width="2" xlink:href="#path-11"></use>
                <polygon id="充" fill="#E0B266" points="13.7265625 9.2265625 11.703125 12.0234375 17.6640625 12.0234375 17.0546875 10.125 20.453125 10.125 21.5 13.515625 19.0703125 13.515625 18.515625 19.0859375 21.4140625 19.0859375 21.4140625 20.578125 14.6328125 20.578125 15.4140625 13.515625 13.0390625 13.515625 10.4453125 20.796875 6.5859375 20.796875 9.3828125 13.515625 7.109375 13.515625 7.109375 12.2421875 9.4375 9.2265625 6.609375 9.2265625 6.609375 7.734375 12.1015625 7.734375 12.546875 6.953125 16.859375 6.953125 16.4140625 7.734375 21.3515625 7.734375 21.3515625 9.2265625"></polygon>
            </g>
            <g id="Group-14" transform="translate(0.000000, 1175.000000)">
                <use id="Rectangle-13" stroke="#50E3C2" mask="url(#mask-14)" stroke-width="2" xlink:href="#path-13"></use>
                <path d="M9.3125,13.171875 L8.8671875,13.171875 L8.3515625,20.3828125 L6.328125,20.3828125 L6.9921875,11.6796875 L9.40625,11.6796875 L9.4921875,10.2421875 L6.4375,10.2421875 L7.0703125,7.265625 L8.9921875,7.265625 L8.6875,8.75 L9.5859375,8.75 L9.6953125,6.96875 L12.6796875,6.96875 L12.59375,8.75 L12.921875,8.75 L12.921875,10.2421875 L12.5234375,10.2421875 L12.453125,11.6796875 L12.921875,11.6796875 L12.921875,13.171875 L12.3828125,13.171875 L12.0234375,20.5625 L8.859375,20.5625 L9.3125,13.171875 Z M20.7421875,13.453125 L21.5859375,13.453125 L21.5859375,14.9453125 L20.65625,14.9453125 L20.3203125,20.5625 L14.25,20.5625 L12.921875,15.4453125 L15.7890625,15.4453125 L16.984375,19.7578125 L17.296875,14.9453125 L12.7890625,14.9453125 L12.7890625,13.453125 L17.3984375,13.453125 L17.453125,12.609375 L20.7890625,12.609375 L20.7421875,13.453125 Z M19.3046875,7.9296875 L21.5,7.9296875 L21.5,9.421875 L19.1953125,9.421875 L19.1015625,10.7734375 L21.640625,10.7734375 L21.640625,12.265625 L12.984375,12.265625 L12.984375,10.7734375 L15.6640625,10.7734375 L15.765625,9.421875 L13.125,9.421875 L13.125,7.9296875 L15.8828125,7.9296875 L15.953125,6.96875 L19.3671875,6.96875 L19.3046875,7.9296875 Z" id="特" fill="#50E3C2"></path>
            </g>
            <g id="Group-15" transform="translate(0.000000, 1213.000000)">
                <use id="Rectangle-13" stroke="#8FC0FF" mask="url(#mask-16)" stroke-width="2" xlink:href="#path-15"></use>
                <polygon id="折" fill="#8FC0FF" points="13.2109375 7.7734375 13.2421875 7.265625 21.609375 7.265625 21.609375 8.7578125 16.7109375 8.7578125 16.5859375 10.8671875 21.421875 10.8671875 21.15625 20.59375 17.7890625 20.59375 18.078125 12.25 16.5078125 12.25 16.0234375 20.59375 12.4140625 20.59375 13.1171875 9.265625 11.7421875 9.265625 11.609375 11.96875 12.6328125 11.671875 12.6328125 13.3203125 11.5234375 13.640625 11.1875 20.6015625 6.5234375 20.6015625 6.5234375 19.1015625 7.5625 19.1015625 7.7890625 14.7265625 6.421875 15.125 6.421875 13.453125 7.875 13.0390625 8.0703125 9.265625 6.421875 9.265625 6.421875 7.7734375 8.1484375 7.7734375 8.1875 6.9375 11.859375 6.9375 11.8125 7.7734375"></polygon>
            </g>
            <g id="Group-18" transform="translate(0.000000, 1251.000000)">
                <use id="Rectangle-13" stroke="#A1D0EF" mask="url(#mask-18)" stroke-width="2" xlink:href="#path-17"></use>
                <path d="M12.2109375,13.7421875 L11.84375,20.6015625 L8.640625,20.6015625 L9.0078125,13.7421875 L8.5625,13.7421875 L8.0859375,20.6015625 L6.3203125,20.6015625 L6.8984375,12.359375 L9.0859375,12.359375 L9.140625,11.25 L6.421875,11.25 L6.421875,9.8671875 L9.21875,9.8671875 L9.28125,8.7578125 L6.578125,8.7578125 L6.578125,7.265625 L13.5546875,7.265625 L13.5546875,8.7578125 L12.4765625,8.7578125 L12.421875,9.8671875 L13.4453125,9.8671875 L13.4453125,11.25 L12.34375,11.25 L12.28125,12.359375 L13.3125,12.359375 L13.3125,13.7421875 L12.2109375,13.7421875 Z M13.421875,15.4296875 L14.03125,7.265625 L21.609375,7.265625 L21.328125,15.4296875 L13.421875,15.4296875 Z M16.71875,14.1484375 L18.1640625,14.1484375 L18.3984375,8.53125 L17.078125,8.53125 L16.71875,14.1484375 Z M18.671875,20.6015625 L18.0703125,15.890625 L20.875,15.890625 L21.546875,20.6015625 L18.671875,20.6015625 Z M15.78125,20.6015625 L12.890625,20.6015625 L14.125,15.890625 L16.9921875,15.890625 L15.78125,20.6015625 Z" id="积" fill="#A1D0EF"></path>
            </g>
            <g id="Group-19" transform="translate(0.000000, 1289.000000)">
                <use id="Rectangle-13" stroke="#A3A1EF" mask="url(#mask-20)" stroke-width="2" xlink:href="#path-19"></use>
                <path d="M14.4375,11.5078125 L13.8828125,18.6171875 L10.7265625,18.6171875 L11.734375,7.265625 L21.5625,7.265625 L21.5625,8.7578125 L14.65625,8.7578125 L14.6015625,9.5390625 L21.4609375,9.5390625 L21.4609375,10.921875 L20.3046875,13.8828125 L20.9609375,18.6171875 L18.296875,18.6171875 L17.7734375,14.4296875 L16.65625,18.6171875 L13.96875,18.6171875 L15.3046875,13.8828125 L14.4375,11.5078125 Z M14.4453125,11.4453125 L17.09375,11.4453125 L17.8203125,13.5859375 L18.8359375,10.921875 L14.484375,10.921875 L14.4453125,11.4453125 Z M10.0859375,19.0625 L21.5703125,19.0625 L21.5703125,20.5546875 L6.703125,20.5546875 L7.421875,12.21875 L6.421875,12.21875 L6.421875,10.703125 L10.7109375,10.703125 L10.0859375,19.0625 Z M7.53125,9.5390625 L6.8828125,6.953125 L9.96875,6.953125 L10.6484375,9.5390625 L7.53125,9.5390625 Z" id="返" fill="#A3A1EF"></path>
            </g>
            <g id="Group" transform="translate(0.000000, 1327.000000)">
                <g id="Layer_1">
                    <path d="M42,36 L31,36 L31,5 C31,4.447 30.553,4 30,4 L5,4 C4.447,4 4,4.447 4,5 L4,37 C4,40.667 5.938,42.751 9.435,42.959 C11.992,42.548 14,38.615 14,36 L16,36 C16,39.667 13.18,42.67 9.59,42.97 C9.729,42.976 9.855,43 10,43 L37,43 C39.866,43 43,40.866 43,38 L43,37 C43,36.447 42.553,36 42,36 L42,36 Z" id="Shape" fill="#C0E59B"></path>
                    <path d="M43,35 L32,35 L32,1 C32,0.447 31.553,0 31,0 L1,0 C0.447,0 0,0.447 0,1 L0,37 C0,40.866 3.134,44 7,44 L37,44 C40.866,44 44,40.866 44,37 L44,36 C44,35.447 43.553,35 43,35 L43,35 Z M7,42 C4.238,42 2,39.762 2,37 L2,2 L30,2 L30,35 L13,35 C12.447,35 12,35.447 12,36 L12,37 C12,39.762 9.762,42 7,42 L7,42 Z M37,42 L11.895,42 C13.192,40.729 14,38.96 14,37 L42,37 C42,39.762 39.762,42 37,42 L37,42 Z" id="Shape" fill="#000000"></path>
                </g>
                <polygon id="Line" fill="#FFFFFF" points="22.7254941 20.2741879 23.5970697 20.7644492 24.5775921 19.0212981 23.7060166 18.5310369 14.9902612 13.6284245 14.1186857 13.1381632 13.1381632 14.8813143 14.0097388 15.3715755"></polygon>
                <polygon id="Line" fill="#FFFFFF" points="14.0097388 18.5310369 13.1381632 19.0212981 14.1186857 20.7644492 14.9902612 20.2741879 23.7060166 15.3715755 24.5775921 14.8813143 23.5970697 13.1381632 22.7254941 13.6284245"></polygon>
                <polygon id="Line" fill="#000000" points="20.7254941 19.2741879 21.5970697 19.7644492 22.5775921 18.0212981 21.7060166 17.5310369 12.9902612 12.6284245 12.1186857 12.1381632 11.1381632 13.8813143 12.0097388 14.3715755"></polygon>
                <polygon id="Line" fill="#000000" points="12.0097388 17.5310369 11.1381632 18.0212981 12.1186857 19.7644492 12.9902612 19.2741879 21.7060166 14.3715755 22.5775921 13.8813143 21.5970697 12.1381632 20.7254941 12.6284245"></polygon>
            </g>
            <g id="待使用" transform="translate(-13.000000, 1368.000000)">
                <polygon id="Rectangle-6" fill="#E75040" transform="translate(29.221962, 29.221962) rotate(45.000000) translate(-29.221962, -29.221962) " points="19.8934989 42.1243021 19.8934989 16.2551411 38.296506 -2.14786592 38.5504254 60.5917903"></polygon>
                <path d="M15.061725,24.3435432 C14.621725,25.2935432 13.931725,26.1335432 12.971725,26.8735432 L13.181725,27.5635432 C14.341725,26.7135432 15.171725,25.7335432 15.691725,24.6335432 L15.061725,24.3435432 Z M15.431725,26.6435432 C14.931725,27.7635432 14.141725,28.7635432 13.061725,29.6335432 L13.271725,30.3235432 C13.701725,29.9935432 14.101725,29.6435432 14.461725,29.2635432 L14.461725,33.5235432 L15.151725,33.5235432 L15.151725,28.4635432 C15.511725,27.9835432 15.811725,27.4735432 16.051725,26.9335432 L15.431725,26.6435432 Z M18.801725,24.3835432 L18.801725,25.4735432 L16.571725,25.4735432 L16.571725,26.1235432 L18.801725,26.1235432 L18.801725,27.3735432 L16.191725,27.3735432 L16.191725,28.0335432 L22.151725,28.0335432 L22.151725,27.3735432 L19.491725,27.3735432 L19.491725,26.1235432 L21.741725,26.1235432 L21.741725,25.4735432 L19.491725,25.4735432 L19.491725,24.3835432 L18.801725,24.3835432 Z M16.241725,29.2535432 L16.241725,29.9235432 L20.121725,29.9235432 L20.121725,32.3135432 C20.121725,32.6535432 19.951725,32.8335432 19.621725,32.8335432 C19.201725,32.8335432 18.751725,32.8135432 18.291725,32.7835432 L18.451725,33.4735432 L19.871725,33.4735432 C20.511725,33.4735432 20.841725,33.1435432 20.841725,32.4935432 L20.841725,29.9235432 L22.011725,29.9235432 L22.011725,29.2535432 L20.841725,29.2535432 L20.841725,28.5135432 L20.121725,28.5135432 L20.121725,29.2535432 L16.241725,29.2535432 Z M17.421725,30.3135432 L16.861725,30.6635432 C17.401725,31.2235432 17.831725,31.7435432 18.151725,32.2035432 L18.711725,31.8035432 C18.411725,31.3835432 17.981725,30.8835432 17.421725,30.3135432 L17.421725,30.3135432 Z M26.231725,25.4235432 L26.231725,26.1135432 L28.851725,26.1135432 L28.851725,27.0635432 L26.571725,27.0635432 L26.571725,29.8935432 L28.811725,29.8935432 C28.751725,30.5935432 28.611725,31.1635432 28.401725,31.6035432 C27.871725,31.2235432 27.391725,30.7735432 26.961725,30.2335432 L26.411725,30.6135432 C26.871725,31.2035432 27.401725,31.7135432 27.991725,32.1335432 C27.531725,32.5735432 26.781725,32.8535432 25.761725,32.9635432 L26.071725,33.6235432 C27.231725,33.4535432 28.081725,33.0935432 28.621725,32.5435432 C29.681725,33.1635432 30.911725,33.5135432 32.311725,33.6035432 L32.491725,32.9135432 C31.181725,32.8435432 30.021725,32.5335432 29.021725,31.9835432 C29.291725,31.4835432 29.461725,30.7935432 29.541725,29.8935432 L31.921725,29.8935432 L31.921725,27.0635432 L29.581725,27.0635432 L29.581725,26.1135432 L32.331725,26.1135432 L32.331725,25.4235432 L29.581725,25.4235432 L29.581725,24.4035432 L28.851725,24.4035432 L28.851725,25.4235432 L26.231725,25.4235432 Z M31.241725,29.2435432 L29.571725,29.2435432 C29.571725,29.1635432 29.581725,29.0835432 29.581725,29.0035432 L29.581725,27.7035432 L31.241725,27.7035432 L31.241725,29.2435432 Z M28.841725,29.2435432 L27.251725,29.2435432 L27.251725,27.7035432 L28.851725,27.7035432 L28.851725,29.0035432 C28.851725,29.0835432 28.841725,29.1635432 28.841725,29.2435432 L28.841725,29.2435432 Z M24.401725,28.0135432 L24.401725,33.5935432 L25.121725,33.5935432 L25.121725,26.8635432 C25.491725,26.1735432 25.801725,25.4335432 26.051725,24.6535432 L25.371725,24.3435432 C24.911725,25.9235432 24.161725,27.3235432 23.121725,28.5435432 L23.361725,29.3035432 C23.741725,28.8935432 24.081725,28.4635432 24.401725,28.0135432 L24.401725,28.0135432 Z M35.161725,27.8935432 L37.701725,27.8935432 L37.701725,29.6435432 L35.161725,29.6435432 L35.161725,27.8935432 Z M35.121725,30.3035432 L37.701725,30.3035432 L37.701725,33.2335432 L38.441725,33.2335432 L38.441725,30.3035432 L41.161725,30.3035432 L41.161725,32.0435432 C41.161725,32.4635432 40.971725,32.6735432 40.611725,32.6735432 C40.271725,32.6735432 39.901725,32.6535432 39.501725,32.6335432 L39.691725,33.3435432 L40.841725,33.3435432 C41.541725,33.3435432 41.891725,32.9935432 41.891725,32.2935432 L41.891725,24.8035432 L34.441725,24.8035432 L34.441725,29.6035432 C34.421725,30.9735432 34.091725,32.1035432 33.451725,32.9935432 L34.001725,33.4835432 C34.641725,32.6435432 35.011725,31.5835432 35.121725,30.3035432 L35.121725,30.3035432 Z M41.161725,29.6435432 L38.441725,29.6435432 L38.441725,27.8935432 L41.161725,27.8935432 L41.161725,29.6435432 Z M41.161725,27.2235432 L38.441725,27.2235432 L38.441725,25.5035432 L41.161725,25.5035432 L41.161725,27.2235432 Z M37.701725,25.5035432 L37.701725,27.2235432 L35.161725,27.2235432 L35.161725,25.5035432 L37.701725,25.5035432 Z" fill="#FFFFFF" transform="translate(28.001725, 28.983543) rotate(-45.000000) translate(-28.001725, -28.983543) "></path>
            </g>
            <g id="待使用" transform="translate(-13.000000, 1423.000000)">
                <polygon id="Rectangle-6" fill="#B9B9B9" transform="translate(29.221962, 29.221962) rotate(45.000000) translate(-29.221962, -29.221962) " points="19.8934989 42.1243021 19.8934989 16.2551411 38.296506 -2.14786592 38.5504254 60.5917903"></polygon>
                <path d="M15.061725,24.3435432 C14.621725,25.2935432 13.931725,26.1335432 12.971725,26.8735432 L13.181725,27.5635432 C14.341725,26.7135432 15.171725,25.7335432 15.691725,24.6335432 L15.061725,24.3435432 Z M15.431725,26.6435432 C14.931725,27.7635432 14.141725,28.7635432 13.061725,29.6335432 L13.271725,30.3235432 C13.701725,29.9935432 14.101725,29.6435432 14.461725,29.2635432 L14.461725,33.5235432 L15.151725,33.5235432 L15.151725,28.4635432 C15.511725,27.9835432 15.811725,27.4735432 16.051725,26.9335432 L15.431725,26.6435432 Z M18.801725,24.3835432 L18.801725,25.4735432 L16.571725,25.4735432 L16.571725,26.1235432 L18.801725,26.1235432 L18.801725,27.3735432 L16.191725,27.3735432 L16.191725,28.0335432 L22.151725,28.0335432 L22.151725,27.3735432 L19.491725,27.3735432 L19.491725,26.1235432 L21.741725,26.1235432 L21.741725,25.4735432 L19.491725,25.4735432 L19.491725,24.3835432 L18.801725,24.3835432 Z M16.241725,29.2535432 L16.241725,29.9235432 L20.121725,29.9235432 L20.121725,32.3135432 C20.121725,32.6535432 19.951725,32.8335432 19.621725,32.8335432 C19.201725,32.8335432 18.751725,32.8135432 18.291725,32.7835432 L18.451725,33.4735432 L19.871725,33.4735432 C20.511725,33.4735432 20.841725,33.1435432 20.841725,32.4935432 L20.841725,29.9235432 L22.011725,29.9235432 L22.011725,29.2535432 L20.841725,29.2535432 L20.841725,28.5135432 L20.121725,28.5135432 L20.121725,29.2535432 L16.241725,29.2535432 Z M17.421725,30.3135432 L16.861725,30.6635432 C17.401725,31.2235432 17.831725,31.7435432 18.151725,32.2035432 L18.711725,31.8035432 C18.411725,31.3835432 17.981725,30.8835432 17.421725,30.3135432 L17.421725,30.3135432 Z M26.231725,25.4235432 L26.231725,26.1135432 L28.851725,26.1135432 L28.851725,27.0635432 L26.571725,27.0635432 L26.571725,29.8935432 L28.811725,29.8935432 C28.751725,30.5935432 28.611725,31.1635432 28.401725,31.6035432 C27.871725,31.2235432 27.391725,30.7735432 26.961725,30.2335432 L26.411725,30.6135432 C26.871725,31.2035432 27.401725,31.7135432 27.991725,32.1335432 C27.531725,32.5735432 26.781725,32.8535432 25.761725,32.9635432 L26.071725,33.6235432 C27.231725,33.4535432 28.081725,33.0935432 28.621725,32.5435432 C29.681725,33.1635432 30.911725,33.5135432 32.311725,33.6035432 L32.491725,32.9135432 C31.181725,32.8435432 30.021725,32.5335432 29.021725,31.9835432 C29.291725,31.4835432 29.461725,30.7935432 29.541725,29.8935432 L31.921725,29.8935432 L31.921725,27.0635432 L29.581725,27.0635432 L29.581725,26.1135432 L32.331725,26.1135432 L32.331725,25.4235432 L29.581725,25.4235432 L29.581725,24.4035432 L28.851725,24.4035432 L28.851725,25.4235432 L26.231725,25.4235432 Z M31.241725,29.2435432 L29.571725,29.2435432 C29.571725,29.1635432 29.581725,29.0835432 29.581725,29.0035432 L29.581725,27.7035432 L31.241725,27.7035432 L31.241725,29.2435432 Z M28.841725,29.2435432 L27.251725,29.2435432 L27.251725,27.7035432 L28.851725,27.7035432 L28.851725,29.0035432 C28.851725,29.0835432 28.841725,29.1635432 28.841725,29.2435432 L28.841725,29.2435432 Z M24.401725,28.0135432 L24.401725,33.5935432 L25.121725,33.5935432 L25.121725,26.8635432 C25.491725,26.1735432 25.801725,25.4335432 26.051725,24.6535432 L25.371725,24.3435432 C24.911725,25.9235432 24.161725,27.3235432 23.121725,28.5435432 L23.361725,29.3035432 C23.741725,28.8935432 24.081725,28.4635432 24.401725,28.0135432 L24.401725,28.0135432 Z M35.161725,27.8935432 L37.701725,27.8935432 L37.701725,29.6435432 L35.161725,29.6435432 L35.161725,27.8935432 Z M35.121725,30.3035432 L37.701725,30.3035432 L37.701725,33.2335432 L38.441725,33.2335432 L38.441725,30.3035432 L41.161725,30.3035432 L41.161725,32.0435432 C41.161725,32.4635432 40.971725,32.6735432 40.611725,32.6735432 C40.271725,32.6735432 39.901725,32.6535432 39.501725,32.6335432 L39.691725,33.3435432 L40.841725,33.3435432 C41.541725,33.3435432 41.891725,32.9935432 41.891725,32.2935432 L41.891725,24.8035432 L34.441725,24.8035432 L34.441725,29.6035432 C34.421725,30.9735432 34.091725,32.1035432 33.451725,32.9935432 L34.001725,33.4835432 C34.641725,32.6435432 35.011725,31.5835432 35.121725,30.3035432 L35.121725,30.3035432 Z M41.161725,29.6435432 L38.441725,29.6435432 L38.441725,27.8935432 L41.161725,27.8935432 L41.161725,29.6435432 Z M41.161725,27.2235432 L38.441725,27.2235432 L38.441725,25.5035432 L41.161725,25.5035432 L41.161725,27.2235432 Z M37.701725,25.5035432 L37.701725,27.2235432 L35.161725,27.2235432 L35.161725,25.5035432 L37.701725,25.5035432 Z" fill="#FFFFFF" transform="translate(28.001725, 28.983543) rotate(-45.000000) translate(-28.001725, -28.983543) "></path>
            </g>
            <g id="待使用" transform="translate(-13.000000, 1479.000000)">
                <polygon id="Rectangle-6" fill="#F6A623" transform="translate(29.221962, 29.221962) rotate(45.000000) translate(-29.221962, -29.221962) " points="19.8934989 42.1243021 19.8934989 16.2551411 38.296506 -2.14786592 38.5504254 60.5917903"></polygon>
                <path d="M15.201725,28.4835432 C15.501725,28.9135432 15.851725,29.4835432 16.261725,30.1835432 L16.661725,29.5735432 C16.161725,28.8735432 15.681725,28.2535432 15.201725,27.7035432 L15.201725,27.0535432 L16.381725,27.0535432 L16.381725,26.3635432 L15.201725,26.3635432 L15.201725,24.4135432 L14.511725,24.4135432 L14.511725,26.3635432 L13.131725,26.3635432 L13.131725,27.0535432 L14.481725,27.0535432 C14.181725,28.3735432 13.671725,29.5535432 12.961725,30.5935432 L13.261725,31.3235432 C13.771725,30.5035432 14.191725,29.5835432 14.511725,28.5635432 L14.511725,33.5735432 L15.201725,33.5735432 L15.201725,28.4835432 Z M16.631725,25.5035432 L16.631725,26.1535432 L18.571725,26.1535432 C17.931725,27.2435432 17.421725,27.9135432 17.021725,28.1735432 C16.981725,28.1935432 16.941725,28.2135432 16.881725,28.2335432 L17.031725,28.8235432 C17.821725,28.7935432 18.571725,28.7535432 19.271725,28.7135432 C18.451725,29.6335432 17.441725,30.3035432 16.231725,30.7335432 L16.621725,31.3335432 C18.561725,30.6135432 20.021725,29.2535432 21.021725,27.2735432 L20.441725,26.9635432 C20.241725,27.3635432 20.011725,27.7335432 19.751725,28.0935432 C19.131725,28.1435432 18.501725,28.1835432 17.861725,28.2235432 C18.281725,27.8135432 18.761725,27.1235432 19.311725,26.1535432 L22.051725,26.1535432 L22.051725,25.5035432 L19.831725,25.5035432 C19.691725,25.0835432 19.541725,24.7135432 19.391725,24.3935432 L18.651725,24.5135432 C18.831725,24.8135432 18.991725,25.1435432 19.131725,25.5035432 L16.631725,25.5035432 Z M19.831725,31.5435432 C20.571725,32.2435432 21.161725,32.9035432 21.601725,33.5235432 L22.121725,33.0035432 C21.621725,32.3735432 21.001725,31.7435432 20.281725,31.1035432 C20.931725,30.4435432 21.501725,29.6635432 21.981725,28.7635432 L21.371725,28.4435432 C20.201725,30.6335432 18.441725,32.1135432 16.091725,32.8835432 L16.481725,33.5035432 C17.761725,33.0635432 18.871725,32.4035432 19.831725,31.5435432 L19.831725,31.5435432 Z M29.361725,24.4335432 L29.361725,27.2035432 L27.461725,27.2035432 L27.461725,33.5435432 L28.181725,33.5435432 L28.181725,31.3335432 L31.231725,31.3335432 L31.231725,32.3835432 C31.231725,32.6935432 31.101725,32.8535432 30.851725,32.8535432 L29.891725,32.8235432 L30.081725,33.5135432 L31.081725,33.5135432 C31.661725,33.5135432 31.951725,33.1835432 31.951725,32.5435432 L31.951725,27.2035432 L30.071725,27.2035432 L30.071725,24.4335432 L29.361725,24.4335432 Z M28.181725,29.6135432 L31.231725,29.6135432 L31.231725,30.7135432 L28.181725,30.7135432 L28.181725,29.6135432 Z M31.231725,28.9935432 L28.181725,28.9935432 L28.181725,27.8835432 L31.231725,27.8835432 L31.231725,28.9935432 Z M27.811725,24.8135432 L27.201725,25.1035432 C27.541725,25.5935432 27.851725,26.1535432 28.141725,26.7835432 L28.721725,26.4935432 C28.431725,25.8835432 28.131725,25.3235432 27.811725,24.8135432 L27.811725,24.8135432 Z M31.611725,24.7235432 C31.371725,25.3035432 31.061725,25.8835432 30.661725,26.4835432 L31.251725,26.7835432 C31.641725,26.2035432 31.961725,25.6135432 32.211725,25.0035432 L31.611725,24.7235432 Z M24.541725,24.4235432 C24.261725,25.6235432 23.811725,26.7235432 23.191725,27.7235432 L23.781725,28.0935432 C24.141725,27.5335432 24.451725,26.9035432 24.721725,26.2135432 L26.791725,26.2135432 L26.791725,25.5335432 L24.961725,25.5335432 C25.061725,25.2235432 25.151725,24.9035432 25.241725,24.5635432 L24.541725,24.4235432 Z M24.241725,27.5535432 L24.241725,28.2035432 L24.881725,28.2035432 L24.881725,29.4635432 L23.501725,29.4635432 L23.501725,30.1335432 L24.881725,30.1335432 L24.881725,32.4135432 C24.881725,32.5435432 24.781725,32.6435432 24.581725,32.7135432 L24.881725,33.3335432 C25.711725,33.1135432 26.441725,32.8235432 27.071725,32.4735432 L26.951725,31.8335432 C26.491725,32.1035432 26.031725,32.3235432 25.581725,32.4835432 L25.581725,30.1335432 L26.961725,30.1335432 L26.961725,29.4635432 L25.581725,29.4635432 L25.581725,28.2035432 L26.621725,28.2035432 L26.621725,27.5535432 L24.241725,27.5535432 Z M37.661725,24.3635432 L37.661725,26.1635432 L34.081725,26.1635432 L34.081725,30.8635432 L34.801725,30.8635432 L34.801725,30.2335432 L37.661725,30.2335432 L37.661725,33.6435432 L38.401725,33.6435432 L38.401725,30.2335432 L41.271725,30.2335432 L41.271725,30.8635432 L41.991725,30.8635432 L41.991725,26.1635432 L38.401725,26.1635432 L38.401725,24.3635432 L37.661725,24.3635432 Z M34.801725,29.5335432 L34.801725,26.8635432 L37.661725,26.8635432 L37.661725,29.5335432 L34.801725,29.5335432 Z M38.401725,29.5335432 L38.401725,26.8635432 L41.271725,26.8635432 L41.271725,29.5335432 L38.401725,29.5335432 Z" id="核销中" fill="#FFFFFF" transform="translate(27.996725, 29.003543) rotate(-45.000000) translate(-27.996725, -29.003543) "></path>
            </g>
        </g>
    </g>
</svg>