<?xml version="1.0" encoding="UTF-8"?>
<svg width="187px" height="48px" viewBox="0 0 187 48" version="1.1" xmlns="http://www.w3.org/2000/svg" xmlns:xlink="http://www.w3.org/1999/xlink">
    <!-- Generator: Sketch 43.1 (39012) - http://www.bohemiancoding.com/sketch -->
    <title>normal</title>
    <desc>Created with Sketch.</desc>
    <defs>
        <linearGradient x1="54.7462146%" y1="28.8535505%" x2="0%" y2="100%" id="linearGradient-1">
            <stop stop-color="#FF919B" offset="0%"></stop>
            <stop stop-color="#DA0F2E" offset="100%"></stop>
        </linearGradient>
        <linearGradient x1="54.7462146%" y1="28.8535505%" x2="0%" y2="100%" id="linearGradient-2">
            <stop stop-color="#F5515F" offset="0%"></stop>
            <stop stop-color="#9F031B" offset="100%"></stop>
        </linearGradient>
    </defs>
    <g id="H5优化-&gt;-领券、会员卡样式合集" stroke="none" stroke-width="1" fill="none" fill-rule="evenodd">
        <g id="normal">
            <g id="呼叫买单按钮">
                <path d="M181.881601,8.75216177 L187.706426,25.3760122 C187.706426,25.3760122 173.586463,29.5842472 157.382294,27.2160094 C141.178125,24.8477716 126.667772,29.5842472 126.667772,29.5842472 L181.881601,8.75216177 Z" id="Rectangle-20" fill="#A90D23" transform="translate(157.187099, 19.168204) scale(1, -1) rotate(8.000000) translate(-157.187099, -19.168204) "></path>
                <rect id="Rectangle-5" fill="#3D7B77" x="0" y="3.45454545" width="170.424242" height="43.7575758" rx="21.8787879"></rect>
                <rect id="Rectangle-5" fill="#5FA5A1" x="0" y="0" width="170.424242" height="43.7575758" rx="21.8787879"></rect>
                <g id="Group-5" transform="translate(122.060606, 8.060606)">
                    <path d="M3.05580604,5.76485508 C3.05580604,5.76485508 16.8739879,1.0283795 33.7703273,3.39661729 C50.6666667,5.76485508 64.4848485,1.0283795 64.4848485,1.0283795 L61.7224736,19.3222069 C61.7224736,19.3222069 47.2121212,24.0586825 31.0079524,21.6904447 C14.8037835,19.3222069 0.293431138,24.0586825 0.293431138,24.0586825 L3.05580604,5.76485508 Z" id="Rectangle-20" fill="url(#linearGradient-1)"></path>
                    <path d="M3.05580604,6.91637024 C3.05580604,6.91637024 16.8739879,2.17989465 33.7703273,4.54813244 C50.6666667,6.91637024 64.4848485,2.17989465 64.4848485,2.17989465 L61.7224736,20.4737221 C61.7224736,20.4737221 47.2121212,25.2101977 31.0079524,22.8419599 C14.8037835,20.4737221 0.293431138,25.2101977 0.293431138,25.2101977 L3.05580604,6.91637024 Z" id="Rectangle-20" fill="url(#linearGradient-2)"></path>
                    <g id="Group-3" transform="translate(6.909091, 6.909091)" fill="#FFFFFF">
                        <path d="M2.9618705,10.0812099 L7.3645215,8.74851145 L6.99446639,7.52601173 L2.59181539,8.85871021 L2.9618705,10.0812099 Z M6.45688633,5.75008309 L2.05423533,7.08278157 L2.41678932,8.28050089 L6.81944032,6.94780241 L6.45688633,5.75008309 Z M5.90930477,3.94111392 L1.50665378,5.2738124 L1.87920926,6.50457225 L6.28186026,5.17187377 L5.90930477,3.94111392 Z M3.40242077,4.05974948 L6.36780859,3.16211579 L8.30309682,9.55545889 L7.66706656,9.74798756 L7.53954757,9.32672077 L3.13689657,10.6594193 L3.27691742,11.1219867 L2.66566757,11.3070143 L0.71787748,4.8723705 L2.79117091,4.24477703 C2.80505653,3.84382559 2.80219855,3.35777243 2.77076509,3.01562426 L3.50038051,2.89395407 C3.48399453,3.28664539 3.44782889,3.70335808 3.40242077,4.05974948 Z M12.61318,2.18495501 L9.33631292,2.67983901 L9.42265987,3.25158405 L12.699527,2.75670005 L12.61318,2.18495501 Z M13.771456,7.83169825 L13.2353084,8.09596011 C13.1694432,7.94880076 13.0886007,7.76026264 12.9979358,7.56447977 C10.721302,8.44072163 10.4282721,8.5809856 10.2500441,8.7300962 L10.244889,8.69596217 C10.2376443,8.70578444 10.238933,8.71431794 10.2402218,8.72285145 C10.1952899,8.59871511 10.0477811,8.31550746 9.95502663,8.16368089 C10.0864077,8.10892669 10.1625468,7.86176809 10.2513988,7.52540812 C10.3283388,7.22575971 10.5359612,6.17321134 10.5998027,5.15110539 L9.42217856,5.32895433 L9.33454285,4.74867579 L13.0636859,4.18548749 L13.1513216,4.76576603 L11.2568828,5.05187084 C11.1703314,5.98139696 10.9963553,6.96776697 10.7795369,7.78604435 L12.7375403,7.05393273 C12.5182103,6.64192151 12.2779471,6.20688729 12.0467052,5.83158762 L12.5453403,5.6079036 C12.9928468,6.31712415 13.5191061,7.25883914 13.771456,7.83169825 Z M14.894626,3.1321679 L16.7719978,2.84864061 C16.7719978,2.84864061 16.7982608,3.08033408 16.8111484,3.16566916 C17.2273158,6.67262783 17.3066289,7.89131759 17.0731951,8.3106098 C16.9274992,8.55954497 16.7756726,8.65229949 16.5077554,8.72767385 C16.247083,8.79322595 15.7849848,8.8542855 15.3288426,8.89698928 C15.2834228,8.71182962 15.1764919,8.46613447 15.0384924,8.30368468 C15.5228126,8.27418164 15.966555,8.2071661 16.1542922,8.17881337 C16.3006506,8.16543795 16.3906529,8.12566106 16.4592341,8.00183785 C16.6437313,7.72085835 16.5943728,6.58492615 16.2320202,3.54988795 L14.9605275,3.74191325 C15.1580934,5.85919887 15.0909459,7.84189962 14.0254802,9.22474976 C13.8913469,9.0879005 13.6372567,8.90807057 13.4609437,8.83868843 C14.453161,7.60655078 14.5277279,5.78856421 14.3375814,3.83599276 L13.1514238,4.01513046 L13.0599218,3.40925139 L14.2716799,3.22624741 C14.2070672,2.62503557 14.1142765,2.01062299 14.0227745,1.40474392 L14.6457206,1.31066441 C14.7372226,1.91654348 14.8214798,2.53224482 14.894626,3.1321679 Z M20.9385687,2.59749886 C20.6347776,2.25251275 20.014548,1.71832895 19.5288331,1.3528367 L19.1270438,1.7791897 C19.6132705,2.16193491 20.2256412,2.72225403 20.5213176,3.08474898 L20.9385687,2.59749886 Z M20.5236945,7.5312253 L21.5551438,6.79263738 C21.6031377,6.95526117 21.7232141,7.21935578 21.778811,7.34721778 C20.2080605,8.53350562 19.9721482,8.73045264 19.8394978,8.91570272 C19.773995,8.74496418 19.6019039,8.47377833 19.4856657,8.33908095 C19.6462425,8.22207511 19.8892461,7.97311333 19.8784994,7.61080108 L19.7868972,4.52252052 L18.4325395,4.56269244 L18.4138609,3.93295925 L20.4152047,3.87359692 L20.5236945,7.5312253 Z M26.2340593,3.8564158 L26.2532497,4.50340195 L24.0707497,4.56813759 L24.2007328,8.95039046 L23.5364937,8.97009261 L23.4065106,4.58783975 L21.2153842,4.65283126 L21.1961938,4.00584511 L23.3873202,3.94085359 L23.30365,1.11999397 L23.9678892,1.10029182 L24.0515593,3.92115144 L26.2340593,3.8564158 Z M30.1723132,7.76101819 L32.3622982,7.97812625 L32.435519,7.23954308 L30.2541222,7.02328642 L30.1987809,7.58151789 C30.1928211,7.64163512 30.1868612,7.70175236 30.1723132,7.76101819 Z M29.196961,5.96449886 L29.1458767,6.47978945 L33.5258467,6.91400557 L33.5769309,6.39871499 L29.196961,5.96449886 Z M29.2863584,5.06274034 L29.2378284,5.5522664 L33.6177983,5.98648252 L33.6663284,5.49695647 L29.2863584,5.06274034 Z M29.3766073,4.15239365 L29.3272258,4.65050788 L33.7071958,5.084724 L33.7565772,4.58660977 L29.3766073,4.15239365 Z M33.008368,3.29827326 L32.3213139,3.23016092 C32.0862499,3.50172522 31.8271242,3.75355895 31.5833979,3.93753868 L33.5071494,4.12825321 C33.4082001,3.90162914 33.215558,3.57031829 33.008368,3.29827326 Z M34.9731038,8.23695312 L34.9203168,8.76942005 L32.9536244,8.5744485 L32.8114399,10.008674 L32.1673266,9.94481864 L32.3095111,8.51059319 L29.9992917,8.28156547 C29.7318002,8.7927473 29.1216331,9.26128479 27.7075089,9.52870441 C27.636101,9.37419137 27.4856226,9.14245888 27.3601314,9.00860194 C28.4514588,8.84794259 29.0110965,8.53917483 29.286473,8.21089892 L27.3197807,8.01592737 L27.3725677,7.48346043 L29.5453763,7.69886568 C29.5607757,7.63101168 29.5667356,7.57089444 29.571844,7.51936538 L29.6271853,6.96113392 L28.4763696,6.84704576 L28.7922406,3.66083232 L29.7197636,3.75278397 C29.6543156,3.5381537 29.5226422,3.20421449 29.3755694,2.9381293 L28.9375724,2.89470768 C28.6621959,3.2229836 28.3730486,3.515204 28.0907126,3.73871899 C27.9798436,3.63232939 27.748666,3.42728697 27.60089,3.34325628 C28.1681904,2.95719494 28.7069496,2.33414441 29.0387412,1.69924836 L29.6074119,1.91173102 C29.5130902,2.07583191 29.4101804,2.23908139 29.3072706,2.40233088 L31.5573728,2.62539877 L31.5054371,3.14927753 L30.0368589,3.00368742 C30.1538361,3.22342612 30.2605222,3.45948976 30.3044628,3.62862494 L29.8228218,3.76300082 L31.5061043,3.92987604 C31.3703222,3.81234405 31.1589492,3.66997308 31.0189101,3.59538197 C31.5836562,3.23508516 32.0838057,2.65156989 32.3795418,2.03044458 L32.9756799,2.2283051 C32.889095,2.40184557 32.7939219,2.57453463 32.6824239,2.73693272 L35.413464,3.00767924 L35.3615283,3.531558 L33.7297748,3.36979121 C33.8828074,3.57575917 34.0075213,3.80493745 34.0772264,3.97662684 L33.6016194,4.13761866 L34.4518488,4.22190767 L34.1359779,7.40812111 L33.0796322,7.30339839 L33.0064114,8.04198156 L34.9731038,8.23695312 Z M43.2086638,4.22580609 L42.718769,4.55824225 C42.5016779,4.19441229 42.0261171,3.62041301 41.621261,3.20505143 L42.0837591,2.90595384 C42.4807591,3.30368901 42.9739462,3.86983221 43.2086638,4.22580609 Z M37.9972193,2.52579857 L38.592704,2.73365553 C38.31281,3.39505167 37.9729463,4.04514608 37.600127,4.65922196 L37.3470623,10.3582184 L36.734916,10.331036 L36.9443356,5.61492242 C36.6966163,5.94083485 36.4328021,6.24011624 36.1795239,6.49667158 C36.1170581,6.34703851 35.9419273,6.01098815 35.8367355,5.85081905 C36.6756976,5.05011157 37.4824544,3.80739621 37.9972193,2.52579857 Z M43.6832903,5.40447851 L40.5708278,5.26626922 C40.3218372,7.37171396 39.7614978,9.29055761 38.1504193,10.3593365 C38.0538492,10.1995502 37.8557321,9.99206086 37.6968954,9.87270354 C39.2081572,8.91179645 39.7177307,7.16347415 39.9414379,5.23832108 L38.0446463,5.15409381 L38.0718287,4.54194745 L40.0117292,4.62808897 C40.0659255,3.99122582 40.1032611,3.34497518 40.1315921,2.70696347 L40.7609821,2.73491161 C40.7326511,3.37292332 40.6953155,4.01917396 40.6324973,4.65565426 L43.7104727,4.79233215 L43.6832903,5.40447851 Z M41.737432,9.73248921 L42.6082318,9.77115719 C42.8582634,9.78225987 42.9187997,9.58625604 42.9948185,8.45795144 C43.1277899,8.57616019 43.3814663,8.69972887 43.5516047,8.75911657 C43.4342075,10.0410818 43.2546967,10.3873006 42.6339286,10.3597353 L41.6338021,10.3153246 C40.9613033,10.2854622 40.7894344,10.0704996 40.8204453,9.37213543 L40.9720544,5.95791061 L41.6014443,5.98585875 L41.4498352,9.40008357 C41.4383497,9.65873696 41.4787786,9.72100368 41.737432,9.73248921 Z M48.2606136,5.89532 L48.3134826,6.55774482 C48.8554666,6.51448832 49.4053668,6.4619423 49.9552671,6.40939627 C49.7033995,6.29097467 49.4535919,6.19836182 49.2130737,6.11366528 L49.5854632,5.7895819 L48.2606136,5.89532 Z M45.5249662,5.68076987 L47.581064,5.51666984 L47.5357477,4.94887713 L45.4796499,5.11297717 L45.5249662,5.68076987 Z M45.4020629,4.14084724 L45.4466926,4.70003702 L47.5027904,4.53593699 L47.4581607,3.9767472 L45.4020629,4.14084724 Z M50.2196979,3.75634507 L48.1033797,3.92525138 L48.1480094,4.48444116 L50.2643276,4.31553485 L50.2196979,3.75634507 Z M50.3426013,5.2962677 L50.297285,4.728475 L48.1809667,4.89738131 L48.226283,5.46517401 L50.3426013,5.2962677 Z M44.4888583,7.45171831 L44.4091303,6.88667206 C45.2787118,6.82592726 46.4222135,6.72600508 47.6689503,6.61784356 L47.6153946,5.94681582 L44.9484895,6.15966524 L44.756925,3.75945063 L47.4238301,3.54660122 L47.379887,2.99601435 L44.1279834,3.25555332 L44.0861001,2.73077521 L47.3380037,2.47123625 L47.2968071,1.95506107 L47.9420261,1.90356524 L47.9832227,2.41974042 L51.3297585,2.15264874 L51.3716418,2.67742684 L48.025106,2.94451853 L48.0690491,3.49510539 L50.8133805,3.27607648 L51.004945,5.67629108 L49.6542866,5.78408901 C50.426772,6.02545604 51.3131146,6.50015211 51.7755313,6.87015878 L51.3663067,7.27510149 C51.216301,7.13123472 50.9974719,6.99286083 50.7600638,6.83865432 C48.4672039,7.07359698 46.0532165,7.30954927 44.4888583,7.45171831 Z M49.2206249,8.05239168 L48.8127735,8.47454023 C48.4962429,8.19678282 47.8524782,7.83259205 47.3150181,7.6070982 L47.6918909,7.2307107 C48.2186883,7.4310824 48.8782855,7.7766941 49.2206249,8.05239168 Z M44.9939245,9.76630787 C45.3023375,9.29149161 45.5140992,8.58197309 45.6601069,8.0248837 L45.1009577,7.8530672 C44.9694093,8.37437169 44.7311523,9.07734712 44.4193063,9.50914879 L44.9939245,9.76630787 Z M47.4829959,9.16939654 L49.3498295,9.02040195 C49.7627696,8.98744462 49.8319566,8.87803008 49.8145494,8.11754009 C49.9683518,8.20049982 50.2253892,8.27522022 50.400194,8.29589968 C50.3903786,9.25768988 50.2103633,9.49715785 49.4361006,9.55895284 L47.4918407,9.71412693 C46.5197108,9.79171397 46.2485776,9.64885683 46.198455,9.02084369 L46.1016428,7.807832 L46.729656,7.7577094 L46.8257815,8.96211816 C46.8436334,9.18579407 46.941012,9.21265303 47.4829959,9.16939654 Z M50.3043103,7.63690791 L50.8311888,7.40438719 C51.2918687,7.86110967 51.7834867,8.48851733 51.9833326,8.93142647 L51.4234156,9.18389948 C51.224943,8.75819618 50.7491576,8.11220946 50.3043103,7.63690791 Z" id="自动计算优惠"></path>
                    </g>
                </g>
            </g>
        </g>
    </g>
</svg>