<?xml version="1.0" encoding="UTF-8"?>
<svg width="162px" height="41px" viewBox="0 0 162 41" version="1.1" xmlns="http://www.w3.org/2000/svg" xmlns:xlink="http://www.w3.org/1999/xlink">
    <!-- Generator: Sketch 43.1 (39012) - http://www.bohemiancoding.com/sketch -->
    <title>呼叫买单按钮</title>
    <desc>Created with Sketch.</desc>
    <defs>
        <linearGradient x1="54.7462146%" y1="28.8535505%" x2="0%" y2="100%" id="linearGradient-1">
            <stop stop-color="#FF919B" offset="0%"></stop>
            <stop stop-color="#DA0F2E" offset="100%"></stop>
        </linearGradient>
        <linearGradient x1="54.7462146%" y1="28.8535505%" x2="0%" y2="100%" id="linearGradient-2">
            <stop stop-color="#F5515F" offset="0%"></stop>
            <stop stop-color="#9F031B" offset="100%"></stop>
        </linearGradient>
    </defs>
    <g id="H5改版-&gt;-支付拆分" stroke="none" stroke-width="1" fill="none" fill-rule="evenodd">
        <g id="顾客扫码买单" transform="translate(-80.000000, -178.000000)">
            <g id="Group" transform="translate(80.000000, 146.000000)">
                <g id="Group-7" transform="translate(0.000000, 32.000000)">
                    <g id="呼叫买单按钮">
                        <path d="M157.949812,7.60056153 L163.008212,22.0370633 C163.008212,22.0370633 150.746139,25.6915831 136.674097,23.6349556 C122.602056,21.578328 110.00096,25.6915831 110.00096,25.6915831 L157.949812,7.60056153 Z" id="Rectangle-20" fill="#A90D23" transform="translate(136.504586, 16.646072) scale(1, -1) rotate(8.000000) translate(-136.504586, -16.646072) "></path>
                        <rect id="Rectangle-5" fill="#3D7B77" x="0" y="3" width="148" height="38" rx="19"></rect>
                        <rect id="Rectangle-5" fill="#5FA5A1" x="0" y="0" width="148" height="38" rx="19"></rect>
                        <g id="Group-5" transform="translate(106.000000, 7.000000)">
                            <path d="M2.6537263,5.00632152 C2.6537263,5.00632152 14.6537263,0.893066406 29.3268631,2.94969396 C44,5.00632152 56,0.893066406 56,0.893066406 L53.6010955,16.7798113 C53.6010955,16.7798113 41,20.8930664 26.9279586,18.8364388 C12.8559173,16.7798113 0.254821777,20.8930664 0.254821777,20.8930664 L2.6537263,5.00632152 Z" id="Rectangle-20" fill="url(#linearGradient-1)"></path>
                            <path d="M2.6537263,6.00632152 C2.6537263,6.00632152 14.6537263,1.89306641 29.3268631,3.94969396 C44,6.00632152 56,1.89306641 56,1.89306641 L53.6010955,17.7798113 C53.6010955,17.7798113 41,21.8930664 26.9279586,19.8364388 C12.8559173,17.7798113 0.254821777,21.8930664 0.254821777,21.8930664 L2.6537263,6.00632152 Z" id="Rectangle-20" fill="url(#linearGradient-2)"></path>
                            <path d="M8.5721507,14.7547349 L12.3955055,13.5973915 L12.0741419,12.535747 L8.25078705,13.6930904 L8.5721507,14.7547349 Z M11.607296,10.9934932 L7.78394121,12.1508366 L8.09879073,13.1909613 L11.9221455,12.0336179 L11.607296,10.9934932 Z M11.1317647,9.4225463 L7.30840986,10.5798897 L7.63194489,11.6487075 L11.4552997,10.4913641 L11.1317647,9.4225463 Z M8.95473383,9.52557191 L11.529939,8.74604792 L13.2105841,14.2981617 L12.658242,14.4653576 L12.5475018,14.0995207 L8.72414702,15.2568641 L8.84574408,15.6585674 L8.31492183,15.8192492 L6.62341992,10.2312691 L8.42391158,9.68625374 C8.43597014,9.33805906 8.43348821,8.91596027 8.40619074,8.61883159 L9.03980413,8.51317064 C9.02557419,8.85419205 8.99416719,9.21607413 8.95473383,9.52557191 Z M16.9535511,7.89746093 L14.1078507,8.32722861 L14.1828362,8.82374404 L17.0285366,8.39397636 L16.9535511,7.89746093 Z M17.9594223,12.8012116 L17.4938205,13.0307022 C17.4366217,12.9029059 17.3664164,12.7391755 17.2876811,12.5691535 C15.3106044,13.3301004 15.056131,13.4519085 14.901354,13.5813993 L14.8968773,13.5517566 C14.8905858,13.5602865 14.891705,13.5676972 14.8928242,13.5751078 C14.8538043,13.4673052 14.7257047,13.2213617 14.6451547,13.0895123 C14.7592488,13.0419627 14.8253696,12.8273249 14.9025305,12.5352228 C14.9693469,12.2750019 15.1496505,11.3609467 15.2050918,10.4733284 L14.1824182,10.6277761 L14.1063135,10.12385 L17.3447798,9.63476545 L17.4208845,10.1386916 L15.775714,10.387151 C15.700551,11.194371 15.5494664,12.0509555 15.3611768,12.7615648 L17.0615481,12.1257837 C16.8710774,11.7679845 16.6624278,11.3901916 16.4616124,11.0642735 L16.8946376,10.8700215 C17.2832617,11.4859236 17.7402763,12.3037287 17.9594223,12.8012116 Z M18.9348068,8.72004054 L20.565156,8.47381947 C20.565156,8.47381947 20.5879633,8.67502697 20.5991552,8.74913375 C20.9605637,11.7946505 21.0294409,12.8529863 20.8267221,13.2171085 C20.7001967,13.4332891 20.5683473,13.513839 20.3356823,13.5792957 C20.1093089,13.6362225 19.7080131,13.6892479 19.3118896,13.7263328 C19.2724461,13.5655363 19.1795851,13.3521694 19.0597434,13.2110946 C19.4803373,13.1854735 19.8656925,13.1272758 20.0287275,13.1026537 C20.1558282,13.0910382 20.2339881,13.0564951 20.2935454,12.9489645 C20.4537666,12.7049559 20.4109027,11.7184885 20.096228,9.08279743 L18.992037,9.24955624 C19.1636074,11.0882516 19.1052952,12.8100707 18.1800223,14.0109669 C18.0635381,13.8921241 17.8428808,13.735956 17.6897669,13.6757031 C18.5514293,12.6056888 18.6161848,11.026911 18.4510575,9.33125687 L17.4209733,9.48682382 L17.341511,8.96066568 L18.3938273,8.80174117 C18.3377163,8.27963615 18.2571348,7.74606733 18.1776726,7.21990919 L18.7186521,7.13820856 C18.7981143,7.6643667 18.8712851,8.19905471 18.9348068,8.72004054 Z M24.1834939,8.25572269 C23.9196753,7.95612949 23.3810548,7.49223303 22.9592498,7.17483187 L22.6103275,7.54508579 C23.032577,7.87746979 23.5643726,8.36406271 23.8211442,8.67886095 L24.1834939,8.25572269 Z M23.8232084,12.5402746 L24.7189406,11.8988693 C24.7606196,12.0400952 24.8648964,12.2694405 24.913178,12.3804786 C23.5491052,13.4106759 23.3442339,13.5817089 23.2290375,13.7425839 C23.1721535,13.594311 23.022706,13.3588075 22.9217623,13.2418335 C23.0612106,13.1402231 23.27224,12.9240195 23.2629074,12.6093799 L23.1833581,9.92745203 L22.0072054,9.96233817 L21.9909844,9.41546461 L23.7289936,9.36391312 L23.8232084,12.5402746 Z M28.7822094,9.34899267 L28.7988747,9.91084906 L26.9035458,9.96706686 L27.0164258,13.7727075 L26.4395866,13.7898173 L26.3267066,9.98417662 L24.4238863,10.0406166 L24.4072209,9.47876023 L26.3100412,9.42232023 L26.2373803,6.97262634 L26.8142195,6.95551658 L26.8868805,9.40521046 L28.7822094,9.34899267 Z M32.202272,12.7398316 L34.1041011,12.9283728 L34.1676875,12.2869716 L32.2733166,12.0991698 L32.2252571,12.5839497 C32.2200814,12.6361568 32.2149058,12.6883639 32.202272,12.7398316 Z M31.3552556,11.1796964 L31.3108929,11.6271856 L35.1145511,12.004268 L35.1589137,11.5567788 L31.3552556,11.1796964 Z M31.4328902,10.3965903 L31.3907457,10.821705 L35.1944038,11.1987875 L35.2365483,10.7736727 L31.4328902,10.3965903 Z M31.5112642,9.60602606 L31.4683803,10.0385989 L35.2720384,10.4156814 L35.3149223,9.98310849 L31.5112642,9.60602606 Z M34.6651617,8.86428993 L34.0685094,8.80513975 C33.8643749,9.0409719 33.6393447,9.25966962 33.4276877,9.41944148 L35.098314,9.585062 C35.0123843,9.38825689 34.8450899,9.10053956 34.6651617,8.86428993 Z M36.3713796,13.1531435 L36.3255382,13.615549 L34.6176212,13.4462316 L34.4941451,14.6917432 L33.9347837,14.6362899 L34.0582597,13.3907783 L32.0520165,13.1918858 C31.8197212,13.6358069 31.2898393,14.0426947 30.061784,14.2749275 C29.9997719,14.1407451 29.8690933,13.9395038 29.7601141,13.8232596 C30.7078458,13.6837396 31.193847,13.4155992 31.4329898,13.1305175 L29.7250727,12.9612001 L29.7709141,12.4987946 L31.6578268,12.685857 C31.6712,12.6269312 31.6763756,12.5747241 31.6808119,12.5299752 L31.7288714,12.0451952 L30.7294789,11.9461187 L31.0037879,9.17914386 L31.8092684,9.25899661 C31.7524319,9.07260716 31.638084,8.78260732 31.5103629,8.55153334 L31.1299971,8.51382509 C30.8908543,8.79890681 30.6397527,9.05267716 30.3945662,9.24678228 C30.2982852,9.15439131 30.0975257,8.97632815 29.969194,8.90335414 C30.4618495,8.56809034 30.9297194,8.02702015 31.2178542,7.47566305 L31.7116998,7.66018746 C31.6297889,7.80269613 31.5404198,7.94446542 31.4510507,8.08623471 L33.4050869,8.27995156 L33.3599849,8.73489891 L32.0846407,8.60846539 C32.1862261,8.7992911 32.2788745,9.00429374 32.3170335,9.15117429 L31.8987663,9.26786914 L33.3605643,9.41278709 C33.2426482,9.31071984 33.0590875,9.18708188 32.9374745,9.12230539 C33.427912,8.80941606 33.8622523,8.30267912 34.1190758,7.76328082 L34.6367746,7.93510706 C34.5615825,8.08581326 34.4789322,8.23578008 34.3821049,8.37680999 L36.7537976,8.61193197 L36.7086956,9.06687932 L35.2916465,8.92639763 C35.4245433,9.10526454 35.5328475,9.30428779 35.5933808,9.45338647 L35.1803537,9.59319515 L35.9187108,9.6663935 L35.6444018,12.4333683 L34.727049,12.3424249 L34.6634626,12.9838261 L36.3713796,13.1531435 Z M43.5233133,9.66977897 L43.0978784,9.95847353 C42.9093518,9.64251594 42.4963649,9.14404288 42.1447793,8.78333413 L42.5464224,8.52359149 C42.8911855,8.86899309 43.3194796,9.36064376 43.5233133,9.66977897 Z M38.9975851,8.19345665 L39.5147166,8.37396402 C39.2716508,8.94833435 38.976506,9.51289002 38.6527419,10.0461664 L38.4329752,14.995295 L37.9013744,14.9716892 L38.0832388,10.8761168 C37.8681142,11.1591461 37.6390123,11.4190483 37.4190602,11.6418464 C37.3648136,11.5119019 37.2127263,11.2200687 37.1213755,11.0809744 C37.8499479,10.3856232 38.5505525,9.30642303 38.9975851,8.19345665 Z M43.935489,10.6933629 L41.232561,10.5733391 C41.0163323,12.4017516 40.5297218,14.0681158 39.1306273,14.9962659 C39.0467638,14.8575041 38.8747147,14.677316 38.7367775,14.5736636 C40.0491892,13.7391917 40.4917135,12.2209118 40.6859855,10.5490683 L39.0387718,10.4759236 L39.0623776,9.94432278 L40.747028,10.0191299 C40.7940932,9.46606452 40.8265163,8.90484687 40.8511195,8.35078407 L41.397695,8.37505482 C41.3730917,8.92911762 41.3406687,9.49033528 41.2861161,10.0430682 L43.9590948,10.1617621 L43.935489,10.6933629 Z M42.2456647,14.4518985 L43.0018855,14.4854786 C43.2190182,14.4951204 43.2715892,14.3249066 43.3376056,13.3450631 C43.4530807,13.4477181 43.6733786,13.5550277 43.8211304,13.6066012 C43.7191802,14.7198868 43.5632893,15.0205505 43.0242011,14.9966123 L42.1556703,14.958045 C41.5716581,14.9321119 41.4224035,14.7454339 41.4493341,14.1389597 L41.5809946,11.173975 L42.1275701,11.1982458 L41.9959095,14.1632305 C41.9859353,14.3878505 42.0210446,14.4419242 42.2456647,14.4518985 Z M47.9105328,11.11962 L47.9564454,11.6948837 C48.4271157,11.6573188 48.9046607,11.6116867 49.3822056,11.5660547 C49.1634786,11.4632148 48.9465403,11.3827879 48.7376693,11.3092356 L49.0610602,11.0277948 L47.9105328,11.11962 Z M45.5348391,10.9333001 L47.3203977,10.7907922 L47.2810441,10.2977091 L45.4954854,10.440217 L45.5348391,10.9333001 Z M45.4281072,9.59599892 L45.4668646,10.0816111 L47.2524232,9.93910317 L47.2136659,9.45349099 L45.4281072,9.59599892 Z M49.6118429,9.26208914 L47.7739876,9.40877093 L47.812745,9.89438311 L49.6506003,9.74770132 L49.6118429,9.26208914 Z M49.7185748,10.5993904 L49.6792211,10.1063072 L47.8413658,10.252989 L47.8807195,10.7460722 L49.7185748,10.5993904 Z M44.6350612,12.4712291 L44.5658237,11.980531 C45.3209866,11.9277789 46.3140275,11.8410044 47.39672,11.7470747 L47.3502111,11.1643401 L45.0342146,11.349183 L44.8678559,9.26478607 L47.1838525,9.07994316 L47.1456914,8.60180194 L44.3216698,8.82719104 L44.2852974,8.37146269 L47.109319,8.14607359 L47.073543,7.69781619 L47.6338647,7.65309613 L47.6696408,8.10135353 L50.5758429,7.86940548 L50.6122152,8.32513384 L47.7060131,8.55708188 L47.7441742,9.0352231 L50.1274094,8.84501378 L50.293768,10.9294107 L49.1208278,11.0230247 C49.7916704,11.2326329 50.561389,11.6448689 50.9629614,11.9661905 L50.6075821,12.3178513 C50.477314,12.1929144 50.2872782,12.0727476 50.081108,11.9388314 C48.0899402,12.1428605 45.9935827,12.3477665 44.6350612,12.4712291 Z M48.7442269,12.9928665 L48.3900402,13.3594692 C48.1151583,13.1182588 47.5560995,12.8019878 47.0893578,12.6061642 L47.4166421,12.2793014 C47.874124,12.4533084 48.4469321,12.7534449 48.7442269,12.9928665 Z M45.0736713,14.4812674 C45.3415037,14.0689269 45.5254019,13.4527661 45.6521981,12.968978 L45.1666212,12.8197689 C45.0523818,13.2724807 44.8454744,13.8829593 44.5746607,14.257945 L45.0736713,14.4812674 Z M47.2352333,13.962897 L48.8564309,13.833507 C49.2150368,13.8048861 49.2751202,13.7098682 49.2600034,13.0494427 C49.3935686,13.1214867 49.6167853,13.1863755 49.7685895,13.2043339 C49.7600656,14.0395728 49.6037366,14.2475318 48.9313505,14.3011959 L47.2429143,14.4359523 C46.3986962,14.5033306 46.1632384,14.3792704 46.1197109,13.8338906 L46.0356372,12.7804857 L46.581017,12.7369582 L46.6644945,13.7828921 C46.6799974,13.977137 46.764563,14.0004618 47.2352333,13.962897 Z M49.6853221,12.6320516 L50.1428745,12.4301257 C50.5429386,12.8267531 50.96987,13.3716072 51.1434204,13.7562388 L50.6571767,13.9754917 C50.4848189,13.6058019 50.0716369,13.0448135 49.6853221,12.6320516 Z" id="自动计算优惠" fill="#FFFFFF"></path>
                        </g>
                        <path d="M28.828,14.504 L28.828,15.624 L42.22,15.624 L42.22,14.504 L36.22,14.504 C35.98,13.544 35.74,12.68 35.484,11.928 L34.156,12.152 C34.444,12.856 34.716,13.64 34.972,14.504 L28.828,14.504 Z M28.284,24.552 L36.22,24.552 C37.196,22.424 38.044,19.752 38.78,16.552 L39.996,16.872 C39.34,19.752 38.524,22.312 37.532,24.552 L42.764,24.552 L42.764,25.672 L28.284,25.672 L28.284,24.552 Z M32.268,16.616 C32.972,18.696 33.596,21.064 34.14,23.752 L32.908,24.056 C32.428,21.624 31.804,19.272 31.068,17.016 L32.268,16.616 Z M46.454,16.744 L46.454,18.952 L50.246,18.952 L50.246,16.744 L46.454,16.744 Z M50.246,15.704 L50.246,13.608 L46.454,13.608 L46.454,15.704 L50.246,15.704 Z M45.19,26.12 L44.79,25.016 C45.142,24.904 45.318,24.696 45.318,24.408 L45.318,12.568 L51.334,12.568 L51.334,20.024 L46.454,20.024 L46.454,24.632 C47.862,24.216 49.11,23.8 50.214,23.368 C49.894,22.808 49.558,22.248 49.206,21.704 L50.086,21.144 C51.094,22.696 51.862,24.056 52.39,25.208 L51.51,25.848 C51.286,25.352 51.03,24.84 50.742,24.328 C49.142,25 47.286,25.608 45.19,26.12 Z M56.998,24.392 C57.958,24.392 58.438,23.896 58.438,22.904 L58.438,12.568 L53.222,12.568 L53.222,26.552 L54.374,26.552 L54.374,13.656 L57.286,13.656 L57.286,22.648 C57.286,23.08 57.062,23.304 56.614,23.304 L55.254,23.272 L55.558,24.392 L56.998,24.392 Z M62.464,17.016 C63.68,17.512 64.8,18.104 65.808,18.792 L65.216,19.72 C64.144,18.92 63.04,18.28 61.904,17.832 L62.464,17.016 Z M63.936,14.776 C65.152,15.272 66.24,15.864 67.232,16.568 L66.64,17.48 C65.584,16.68 64.512,16.04 63.392,15.592 L63.936,14.776 Z M68.352,14.776 L69.488,14.776 L69.488,18.136 C69.456,19.016 69.344,19.816 69.168,20.552 L75.12,20.552 L75.12,21.672 L68.784,21.672 C68.672,21.928 68.56,22.184 68.432,22.408 C70.752,23.448 72.864,24.568 74.768,25.768 L73.984,26.632 C72,25.368 69.968,24.248 67.856,23.272 C67.76,23.384 67.68,23.496 67.6,23.592 C66.432,24.856 64.528,25.848 61.888,26.552 L61.232,25.528 C63.888,24.84 65.728,23.928 66.784,22.792 C67.072,22.44 67.312,22.072 67.504,21.672 L61.152,21.672 L61.152,20.552 L67.968,20.552 C68.192,19.816 68.32,19 68.352,18.136 L68.352,14.776 Z M61.76,12.872 L73.952,12.872 L73.952,13.592 C73.712,14.552 73.392,15.496 73.008,16.44 L71.92,16.136 C72.256,15.48 72.528,14.744 72.752,13.944 L61.76,13.944 L61.76,12.872 Z M78.666,14.424 L85.562,14.424 C86.074,13.624 86.538,12.744 86.938,11.816 L88.058,12.216 C87.674,13.032 87.242,13.768 86.762,14.424 L89.834,14.424 L89.834,21 L84.826,21 L84.826,22.52 L91.354,22.52 L91.354,23.608 L84.826,23.608 L84.826,26.648 L83.674,26.648 L83.674,23.608 L77.146,23.608 L77.146,22.52 L83.674,22.52 L83.674,21 L78.666,21 L78.666,14.424 Z M88.714,19.976 L88.714,18.184 L84.826,18.184 L84.826,19.976 L88.714,19.976 Z M83.674,19.976 L83.674,18.184 L79.786,18.184 L79.786,19.976 L83.674,19.976 Z M79.786,17.192 L83.674,17.192 L83.674,15.432 L79.786,15.432 L79.786,17.192 Z M84.826,15.432 L84.826,17.192 L88.714,17.192 L88.714,15.432 L84.826,15.432 Z M81.498,11.896 C82.026,12.504 82.522,13.192 83.002,13.928 L82.042,14.408 C81.562,13.64 81.066,12.968 80.522,12.36 L81.498,11.896 Z" id="立即买单" fill="#FFFFFF"></path>
                    </g>
                </g>
            </g>
        </g>
    </g>
</svg>