<?xml version="1.0" encoding="UTF-8"?>
<svg width="26px" height="25px" viewBox="0 0 26 25" version="1.1" xmlns="http://www.w3.org/2000/svg" xmlns:xlink="http://www.w3.org/1999/xlink">
    <!-- Generator: Sketch 48.1 (47250) - http://www.bohemiancoding.com/sketch -->
    <title>充</title>
    <desc>Created with Sketch.</desc>
    <defs></defs>
    <g id="有智能推荐" stroke="none" stroke-width="1" fill="none" fill-rule="evenodd" transform="translate(-191.000000, -102.000000)">
        <g id="Group" transform="translate(191.500000, 90.000000)" fill="#FFFFFF">
            <g id="Group-4" transform="translate(0.000000, 12.000000)">
                <path d="M0,8.40637507 C0.936243692,8.04110555 1.90475712,7.57669841 2.90556934,7.01313972 L2.43744984,7.8428192 L10.6698963,5.58859571 L14.1565795,5.00938551 L21.0815198,4.9467682 C21.9962406,4.9467682 22.6580581,5.1554905 23.0669922,5.57294138 C23.2606978,5.77123055 23.3575491,5.93299034 23.3575491,6.05822561 C23.3575491,6.20433341 23.2633881,6.34522097 23.0750632,6.48089251 C22.8867383,6.61656405 22.6903453,6.6843988 22.4858783,6.6843988 C22.3675027,6.6843988 21.7702527,6.57481958 20.6941105,6.35565787 C20.6187806,6.33478533 18.0468394,6.20433388 12.9782097,5.96429963 C12.7737427,5.95386336 11.358637,6.27738294 8.73285008,6.93486807 C6.8603627,7.41493658 5.13318042,8.05675768 3.55125142,8.86035063 C2.74414479,9.26736524 2.21684303,9.57001259 1.96933033,9.76830175 C1.54963488,10.123135 1.28060338,10.3162031 1.16222774,10.347512 C1.09765921,10.3683845 1.05461417,10.3840387 1.03309132,10.3944749 L0.984665166,10.4257836 C0.898573792,10.3944748 0.850148121,10.3683845 0.839386699,10.347512 L0.403551298,9.01689393 C0.328221345,8.77685967 0.193705591,8.57335542 0,8.40637507 Z M10.4761917,6.70005313 C11.7675623,6.74179821 12.4132379,7.11749837 12.4132379,7.82716487 C12.4132379,8.17156184 12.2571996,8.57335229 11.9451184,9.03254826 C11.6653214,9.42912659 11.046549,10.1231283 10.0887824,11.1145741 C12.348681,10.571888 14.0866246,10.300549 15.3026652,10.300549 C15.8622591,10.300549 16.2604258,10.4205643 16.497177,10.6605985 C16.6155527,10.7962701 16.6747396,10.9110674 16.6747396,11.0049938 C16.6747396,11.0676114 16.6478365,11.119792 16.5940294,11.1615371 C16.507938,11.2450273 14.8829877,11.5111482 11.7191297,11.9599079 C10.8044088,12.0851432 9.64219272,12.4190989 8.23244647,12.961785 C6.99488297,13.4418535 5.70353173,14.1254191 4.35835401,15.0125022 C4.27226264,15.0751198 4.20231445,15.1064282 4.14850734,15.1064282 C4.08393881,15.1064282 4.03013251,15.0803379 3.98708682,15.0281565 C3.96556398,15.0177203 3.90637705,14.3550269 3.80952425,13.0400567 C3.85256994,12.9148214 4.21845279,12.7687158 4.90718378,12.6017354 C5.23002643,12.5286815 6.15011419,11.9703494 7.66747466,10.9267222 C8.4315356,10.3944723 9.21172697,9.60654556 10.0080722,8.56291836 C10.589189,7.80107051 10.879743,7.36275366 10.879743,7.24795467 C10.879743,7.09141059 10.7452272,6.90877857 10.4761917,6.70005313 Z M8.81356034,14.6837613 L9.13640138,14.9342306 L9.20096959,14.7463786 C9.48076655,15.4247363 9.62066294,15.9726323 9.62066294,16.3900832 C9.62066294,18.0911956 8.94270354,19.6618309 7.5867644,21.1020365 C6.76889634,21.9682471 5.886473,22.5578876 4.93946788,22.8709757 C4.71347803,22.9440296 4.56282038,22.980556 4.48749043,22.980556 C4.04627214,22.980556 3.8256663,22.4430961 3.8256663,21.3681601 C3.8256663,21.0759445 3.87409197,20.8620041 3.97094477,20.7263326 C4.00322903,20.6637149 4.45520197,20.3819398 5.32687713,19.8809988 C5.54210556,19.7661998 6.0478848,19.3435371 6.84423001,18.6129981 C7.26392546,18.2372923 7.58138264,17.851156 7.79661107,17.4545777 C8.51762633,16.1917887 8.87812855,15.3568995 8.87812855,14.9498849 C8.87812855,14.9290124 8.85660603,14.8403054 8.81356034,14.6837613 Z M10.1533506,0 C12.6500005,0.93926448 13.8983067,1.91504128 13.8983067,2.92735966 C13.8983067,3.03172238 13.8391198,3.23522663 13.7207441,3.53787852 C13.5808456,3.8822755 13.4839943,4.07534363 13.4301872,4.11708872 C13.3010501,4.22145144 13.1396312,4.27363202 12.9459256,4.27363202 C12.7199358,4.27363202 12.4993299,4.20057921 12.2841015,4.0544714 C11.9935431,3.85618223 11.5415702,3.01607494 10.9281691,1.53412431 C10.8097935,1.2419087 10.6053296,0.829682137 10.3147712,0.297432265 L10.1533506,0 Z M12.5423743,11.8346733 L12.9943518,12.0381796 L12.9943518,11.9285993 C13.7261285,12.3251776 14.0920113,12.6904416 14.0920113,13.0244023 C14.0920113,13.1392013 13.9144505,13.3166153 13.5593236,13.5566495 C13.4301865,13.6401397 13.3494771,14.2663067 13.3171928,15.4351691 L13.2364826,16.9066761 C13.2364826,18.0859748 13.4678497,19.3748351 13.9305908,20.7732956 C14.1242964,21.3681631 15.1412416,22.1508763 15.7546427,22.2134939 C17.1428661,22.3596017 18.1435073,22.0979285 18.3103093,22.0196565 C18.4771113,21.9413844 20.9248456,20.529892 21.1831198,19.3505932 C21.2369269,18.5991817 21.2745913,18.2078273 21.2961141,18.1765185 C21.3283984,18.1452097 21.3768241,18.1295555 21.4413926,18.1295555 C21.527484,18.1295555 21.6458578,18.176518 21.7965177,18.2704445 C21.8395634,18.3017533 22.2323494,18.7452882 22.9748875,19.6010625 C23.9864612,20.6655623 24.5191436,21.2447667 24.5729507,21.3386931 C24.7020877,21.5578548 24.7666553,21.7717952 24.7666553,21.9805206 C24.7666553,22.0848834 24.7182296,22.3092598 24.6213768,22.6536568 C24.5460469,23.0189263 24.4491955,23.258957 24.3308199,23.373756 C24.2124442,23.488555 23.851942,23.6659689 23.2493024,23.9060032 C22.2484902,24.3234541 21.1185579,24.6678459 19.8594715,24.9391889 C19.6334817,24.9913703 18.741556,25.0975741 16.6462536,24.5947937 C15.8548039,24.4048806 14.6535046,24.0677674 14.0293422,23.5146449 C13.7064995,23.2328656 12.9889718,22.4378744 12.8490733,22.0726049 C12.6768906,21.613409 12.4993298,20.898535 12.3163856,19.9279617 C12.1011572,18.8112806 11.9935446,17.9242108 11.9935446,17.2667257 C11.9935446,17.1727992 12.1119184,16.2387669 12.3486697,14.4646007 L12.42938,13.3687976 C12.633847,12.6695674 12.736079,12.2990853 12.736079,12.2573402 C12.736079,12.1947225 12.6715114,12.053835 12.5423743,11.8346733 Z M14.7054093,7.73323889 L15.2703811,7.81151054 C16.314239,8.15590751 17.0944304,8.52638961 17.6109786,8.92296795 C18.9884406,9.98746769 19.6771613,10.8797556 19.6771613,11.5998583 C19.6771613,11.9964367 19.6018325,12.4295355 19.4511725,12.8991677 C19.3327969,13.2435647 19.1821393,13.4157606 18.9991951,13.4157606 C18.256657,13.4157606 17.6002201,12.9826618 17.0298648,12.1164512 C17.3311846,12.0120885 17.4818422,11.9129454 17.4818422,11.8190189 C17.4818422,11.6833474 17.2935202,11.3233014 16.9168704,10.7388702 C16.3142308,9.77873317 15.6255101,8.86035501 14.8506878,7.98370816 L14.7054093,7.73323889 Z" id="充"></path>
            </g>
        </g>
    </g>
</svg>