<?xml version="1.0" encoding="UTF-8"?>
<svg width="60px" height="75px" viewBox="0 0 60 75" version="1.1" xmlns="http://www.w3.org/2000/svg" xmlns:xlink="http://www.w3.org/1999/xlink">
    <!-- Generator: Sketch 48.1 (47250) - http://www.bohemiancoding.com/sketch -->
    <title>凑单ico</title>
    <desc>Created with Sketch.</desc>
    <defs>
        <linearGradient x1="50%" y1="11.6939415%" x2="50%" y2="100%" id="linearGradient-1">
            <stop stop-color="#F24020" offset="0%"></stop>
            <stop stop-color="#B73800" offset="100%"></stop>
        </linearGradient>
        <path d="M23.4587309,4.41233423 C23.4512833,4.52477424 23.4475004,4.63821616 23.4475004,4.75254165 C23.4475004,7.55340276 25.7180469,9.82394931 28.518908,9.82394931 C31.3197691,9.82394931 33.5903157,7.55340276 33.5903157,4.75254165 C33.5903157,4.63821616 33.5865327,4.52477424 33.5790851,4.41233423 L49.5766181,4.41233423 C51.2334724,4.41233423 52.5766181,5.75547998 52.5766181,7.41233423 L52.5766181,42.240472 C52.5766181,43.8973262 51.2334724,45.240472 49.5766181,45.240472 L7.32518259,45.240472 C5.66832834,45.240472 4.32518259,43.8973262 4.32518259,42.240472 L4.32518259,7.41233423 C4.32518259,5.75547998 5.66832834,4.41233423 7.32518259,4.41233423 L23.4587309,4.41233423 Z" id="path-2"></path>
        <filter x="-12.4%" y="-7.3%" width="124.9%" height="129.4%" filterUnits="objectBoundingBox" id="filter-3">
            <feOffset dx="0" dy="3" in="SourceAlpha" result="shadowOffsetOuter1"></feOffset>
            <feGaussianBlur stdDeviation="1.5" in="shadowOffsetOuter1" result="shadowBlurOuter1"></feGaussianBlur>
            <feColorMatrix values="0 0 0 0 0.627178997   0 0 0 0 0.140795285   0 0 0 0 0  0 0 0 0.656957654 0" type="matrix" in="shadowBlurOuter1"></feColorMatrix>
        </filter>
        <ellipse id="path-4" cx="7.87204742" cy="7.69448244" rx="7.87204742" ry="6.9250342"></ellipse>
        <filter x="-44.5%" y="-36.1%" width="188.9%" height="201.1%" filterUnits="objectBoundingBox" id="filter-5">
            <feOffset dx="0" dy="2" in="SourceAlpha" result="shadowOffsetOuter1"></feOffset>
            <feGaussianBlur stdDeviation="2" in="shadowOffsetOuter1" result="shadowBlurOuter1"></feGaussianBlur>
            <feColorMatrix values="0 0 0 0 0   0 0 0 0 0   0 0 0 0 0  0 0 0 0.111724411 0" type="matrix" in="shadowBlurOuter1"></feColorMatrix>
        </filter>
        <linearGradient x1="50%" y1="0%" x2="50%" y2="100%" id="linearGradient-6">
            <stop stop-color="#FFEE67" offset="0%"></stop>
            <stop stop-color="#FFE62A" offset="100%"></stop>
        </linearGradient>
        <linearGradient x1="50%" y1="0%" x2="50%" y2="100%" id="linearGradient-7">
            <stop stop-color="#FD8162" offset="0%"></stop>
            <stop stop-color="#FA4A33" offset="100%"></stop>
        </linearGradient>
        <path d="M57.6771546,0.273748903 L57.6771546,42.379739 C57.6771546,45.6934475 54.9908631,48.379739 51.6771546,48.379739 L6.67715458,48.379739 C3.36344608,48.379739 0.677154583,45.6934475 0.677154583,42.379739 L0.677154583,0.387965788 C9.03873914,5.20256869 18.736969,7.95657443 29.0784314,7.95657443 C39.501396,7.95657443 49.2709495,5.15898833 57.6771649,0.273742918 Z" id="path-8"></path>
        <ellipse id="path-10" cx="4.76301668" cy="4.12116607" rx="4.76301668" ry="3.70904946"></ellipse>
        <filter x="-73.5%" y="-67.4%" width="247.0%" height="288.7%" filterUnits="objectBoundingBox" id="filter-11">
            <feOffset dx="0" dy="2" in="SourceAlpha" result="shadowOffsetOuter1"></feOffset>
            <feGaussianBlur stdDeviation="2" in="shadowOffsetOuter1" result="shadowBlurOuter1"></feGaussianBlur>
            <feColorMatrix values="0 0 0 0 0   0 0 0 0 0   0 0 0 0 0  0 0 0 0.111724411 0" type="matrix" in="shadowBlurOuter1"></feColorMatrix>
        </filter>
        <linearGradient x1="50%" y1="0%" x2="50%" y2="100%" id="linearGradient-12">
            <stop stop-color="#E54C37" offset="0%"></stop>
            <stop stop-color="#CB240D" offset="100%"></stop>
        </linearGradient>
        <path d="M5.35693662,4.16240358 C5.11539477,3.82931142 5.18961096,3.3634785 5.52270312,3.12193665 C5.85579529,2.88039479 6.3216282,2.95461098 6.56317006,3.28770315 L9.12642934,6.82250081 L6.54845262,10.142012 C6.29608128,10.466976 5.82805856,10.5258239 5.50309461,10.2734526 C5.17813066,10.0210812 5.11928273,9.55305851 5.37165407,9.22809457 L7.26367729,6.79184591 L5.35693662,4.16240358 Z" id="path-13"></path>
        <filter x="-12.8%" y="-6.7%" width="125.6%" height="126.8%" filterUnits="objectBoundingBox" id="filter-14">
            <feOffset dx="0" dy="1" in="SourceAlpha" result="shadowOffsetOuter1"></feOffset>
            <feColorMatrix values="0 0 0 0 0.758157951   0 0 0 0 0.142359895   0 0 0 0 0.0592460472  0 0 0 1 0" type="matrix" in="shadowOffsetOuter1"></feColorMatrix>
        </filter>
    </defs>
    <g id="有智能推荐" stroke="none" stroke-width="1" fill="none" fill-rule="evenodd" transform="translate(-308.000000, -522.000000)">
        <g id="凑单ico" transform="translate(309.000000, 521.000000)">
            <path d="M33.8217816,3.59909641 L57.9059245,27.3701411 L44.8681291,48.956081 L13.9878206,49.0113036 L1.07730162,27.3701411 L23.8640071,3.72383913 C26.5466101,0.940038687 30.9780057,0.858001954 33.7618061,3.54060496 C33.7819144,3.5599823 33.8019066,3.5794798 33.8217816,3.59909641 Z" id="Combined-Shape" fill="url(#linearGradient-1)"></path>
            <g id="Combined-Shape" transform="translate(28.450900, 24.826403) rotate(-10.000000) translate(-28.450900, -24.826403) ">
                <use fill="black" fill-opacity="1" filter="url(#filter-3)" xlink:href="#path-2"></use>
                <use fill="#FFFEC4" fill-rule="evenodd" xlink:href="#path-2"></use>
            </g>
            <g id="coin" transform="translate(47.064985, 31.475281) scale(-1, 1) rotate(-36.000000) translate(-47.064985, -31.475281) translate(38.926590, 24.076740)">
                <g id="Oval-5">
                    <use fill="black" fill-opacity="1" filter="url(#filter-5)" xlink:href="#path-4"></use>
                    <use fill="#F9C514" fill-rule="evenodd" xlink:href="#path-4"></use>
                </g>
                <ellipse id="Oval-5" fill="url(#linearGradient-6)" cx="7.87204742" cy="6.9250342" rx="7.87204742" ry="6.9250342"></ellipse>
                <ellipse id="Oval-5" fill="#EDB211" cx="7.87204742" cy="6.9250342" rx="5.68536758" ry="5.00141359"></ellipse>
                <ellipse id="Oval-5" fill="#F8BF1B" cx="7.65337944" cy="6.73267214" rx="5.4666996" ry="4.80905153"></ellipse>
                <path d="M6.95276722,10.0028272 L8.35399166,10.0028272 L8.35399166,8.99177218 L9.85755272,8.99177218 L9.85755272,8.39621924 L8.35399166,8.39621924 L8.35399166,7.98071719 L9.85755272,7.98071719 L9.85755272,7.38516425 L8.62951332,7.38516425 L10.4558283,4.8229016 L8.83418655,4.8229016 L8.25165504,5.98630734 C7.97613338,6.53338504 7.88954086,6.71343593 7.69273968,7.08046275 L7.64550739,7.08046275 C7.45657825,6.71343593 7.38572983,6.56108518 7.08659203,5.98630734 L6.48831642,4.8229016 L4.83518646,4.8229016 L6.66150146,7.38516425 L5.43346207,7.38516425 L5.43346207,7.98071719 L6.95276722,7.98071719 L6.95276722,8.39621924 L5.43346207,8.39621924 L5.43346207,8.99177218 L6.95276722,8.99177218 L6.95276722,10.0028272 Z" id="￥" fill="#EDB211"></path>
                <path d="M6.95276722,9.61810306 L8.35399166,9.61810306 L8.35399166,8.60704806 L9.85755272,8.60704806 L9.85755272,8.01149512 L8.35399166,8.01149512 L8.35399166,7.59599307 L9.85755272,7.59599307 L9.85755272,7.00044013 L8.62951332,7.00044013 L10.4558283,4.43817747 L8.83418655,4.43817747 L8.25165504,5.60158322 C7.97613338,6.14866092 7.88954086,6.32871181 7.69273968,6.69573862 L7.64550739,6.69573862 C7.45657825,6.32871181 7.38572983,6.17636106 7.08659203,5.60158322 L6.48831642,4.43817747 L4.83518646,4.43817747 L6.66150146,7.00044013 L5.43346207,7.00044013 L5.43346207,7.59599307 L6.95276722,7.59599307 L6.95276722,8.01149512 L5.43346207,8.01149512 L5.43346207,8.60704806 L6.95276722,8.60704806 L6.95276722,9.61810306 Z" id="￥" fill="#FFE321"></path>
            </g>
            <g id="Group" transform="translate(0.322845, 26.780438)">
                <mask id="mask-9" fill="white">
                    <use xlink:href="#path-8"></use>
                </mask>
                <use id="Combined-Shape" fill="url(#linearGradient-7)" xlink:href="#path-8"></use>
                <path d="M2.92715458,-1.53366763 L2.92715458,41.2932525 C2.92716494,41.3054009 2.92716494,41.3054009 2.92721672,41.3175493 C2.94063549,43.9408675 5.07813316,46.0566091 7.7014514,46.0431903 L50.7734988,45.8228687 C53.3873337,45.8094985 55.499202,43.6867999 55.499202,41.0729309 L55.499202,-2.21731609 L2.92715458,-1.53366763 Z" id="Rectangle-10" stroke="#ED482F" stroke-width="0.5" mask="url(#mask-9)"></path>
            </g>
            <g id="coin" transform="translate(41.329337, 35.747713) rotate(23.000000) translate(-41.329337, -35.747713) translate(36.150359, 31.216107)">
                <g id="Oval-5">
                    <use fill="black" fill-opacity="1" filter="url(#filter-11)" xlink:href="#path-10"></use>
                    <use fill="#F9C514" fill-rule="evenodd" xlink:href="#path-10"></use>
                </g>
                <ellipse id="Oval-5" fill="url(#linearGradient-6)" cx="4.76301668" cy="3.70904946" rx="4.76301668" ry="3.70904946"></ellipse>
                <ellipse id="Oval-5" fill="#EDB211" cx="4.76301668" cy="3.70904946" rx="3.43995649" ry="2.67875794"></ellipse>
                <ellipse id="Oval-5" fill="#F8BF1B" cx="4.63071067" cy="3.60602031" rx="3.30765048" ry="2.57572879"></ellipse>
                <path d="M4.20680218,5.35751589 L5.05461915,5.35751589 L5.05461915,4.81599467 L5.96435534,4.81599467 L5.96435534,4.49701641 L5.05461915,4.49701641 L5.05461915,4.27447345 L5.96435534,4.27447345 L5.96435534,3.95549519 L5.22132473,3.95549519 L6.3263446,2.58314689 L5.34516317,2.58314689 L4.99269993,3.2062672 C4.82599435,3.49928211 4.77360117,3.59571739 4.65452575,3.79229702 L4.62594765,3.79229702 C4.51163525,3.59571739 4.4687681,3.51411831 4.28777346,3.2062672 L3.9257842,2.58314689 L2.92555069,2.58314689 L4.03057056,3.95549519 L3.28753996,3.95549519 L3.28753996,4.27447345 L4.20680218,4.27447345 L4.20680218,4.49701641 L3.28753996,4.49701641 L3.28753996,4.81599467 L4.20680218,4.81599467 L4.20680218,5.35751589 Z" id="￥" fill="#EDB211"></path>
                <path d="M4.20680218,5.15145758 L5.05461915,5.15145758 L5.05461915,4.60993636 L5.96435534,4.60993636 L5.96435534,4.29095811 L5.05461915,4.29095811 L5.05461915,4.06841514 L5.96435534,4.06841514 L5.96435534,3.74943689 L5.22132473,3.74943689 L6.3263446,2.37708859 L5.34516317,2.37708859 L4.99269993,3.0002089 C4.82599435,3.2932238 4.77360117,3.38965909 4.65452575,3.58623871 L4.62594765,3.58623871 C4.51163525,3.38965909 4.4687681,3.30806 4.28777346,3.0002089 L3.9257842,2.37708859 L2.92555069,2.37708859 L4.03057056,3.74943689 L3.28753996,3.74943689 L3.28753996,4.06841514 L4.20680218,4.06841514 L4.20680218,4.29095811 L3.28753996,4.29095811 L3.28753996,4.60993636 L4.20680218,4.60993636 L4.20680218,5.15145758 Z" id="￥" fill="#FFE321"></path>
            </g>
            <g id="Group-4" transform="translate(6.929777, 46.496352)">
                <path d="M12.6522997,9.81731761 L12.6743389,9.81731761 L13.0655105,9.59970479 L12.7873553,9.59970479 L12.6522997,9.81731761 Z M6.50980271,9.59970479 L6.32831856,9.59970479 L6.06380982,9.81345683 L6.06692975,9.81731761 L6.46308707,9.81731761 L6.50980271,9.59970479 Z M8.70572713,7.2998402 L8.40072418,7.2998402 L8.25937651,7.42063322 L8.68666701,7.42063322 L8.70572713,7.2998402 Z M11.2468686,7.42063322 L11.3705792,7.42063322 L11.5954462,7.2998402 L11.3268586,7.2998402 L11.2468686,7.42063322 Z M10.9621605,8.2998402 L10.6346188,8.81731761 L14.4498573,8.81731761 L13.3436657,10.5997048 L12.7850596,10.5997048 L13.5791854,12.5275163 L10.7277869,12.5275163 L9.9200129,10.5997048 L9.56542495,10.5997048 L8.35759618,12.5275163 L5.41088995,12.5275163 L6.6050705,10.5997048 L5.27234678,10.5997048 L5.65497748,8.81731761 L7.78005985,8.81731761 L8.05454273,8.2998402 L7.53556304,8.2998402 L7.83208601,6.42063322 L13.1084586,6.42063322 L11.8640338,8.2998402 L10.9621605,8.2998402 Z M-0.527277539,12.3217444 L2.71882485,5.14858909 L5.76619715,5.14858909 L2.46722661,12.3217444 L-0.527277539,12.3217444 Z M7.04501387,1.40067622 L6.62783531,1.40067622 L6.61153916,1.41473628 L7.04293119,1.41473628 L7.04501387,1.40067622 Z M14.9264626,1.41473628 L15.1766689,1.41473628 L15.2029867,1.40067622 L14.9358657,1.40067622 L14.9264626,1.41473628 Z M13.9123761,3.38002246 L14.0370996,3.38002246 L14.2613145,3.25922943 L13.9919456,3.25922943 L13.9123761,3.38002246 Z M14.2416898,5.32550171 L14.3613792,5.32550171 L14.5888607,5.20470869 L14.3233599,5.20470869 L14.2416898,5.32550171 Z M6.50828608,5.20470869 L6.19905007,5.20470869 L6.05903228,5.32550171 L6.49038112,5.32550171 L6.50828608,5.20470869 Z M7.47792386,3.25922943 L7.16982354,3.25922943 L7.02945103,3.38002246 L7.45970988,3.38002246 L7.47792386,3.25922943 Z M6.59607787,2.40067622 L5.8859753,2.40067622 L6.18014713,0.414736283 L9.55168783,0.414736283 L9.79139409,0.0229995091 L12.9845365,0.0229995091 L12.7418953,0.414736283 L16.7982733,0.414736283 L15.4839206,2.38002246 L15.7685669,2.38002246 L14.5306833,4.25922943 L10.3807763,4.25922943 L10.3399256,4.32550171 L16.1249233,4.32550171 L14.8543615,6.20470869 L14.6023874,6.20470869 L15.7538483,9.10422104 L12.7257066,9.10422104 L11.5525222,6.20470869 L9.20146108,6.20470869 L7.46469043,9.12292757 L4.35225586,9.12292757 L6.06716292,6.20470869 L5.34913148,6.20470869 L5.62768343,4.32550171 L7.18058329,4.32550171 L7.22093751,4.25922943 L6.3158327,4.25922943 L6.59607787,2.40067622 Z M5.90911684,5.15714293 L2.98070888,5.15714293 L2.18271411,0.228771354 L5.14684516,0.228771354 L5.90911684,5.15714293 Z M29.2924746,9.81731761 L29.6036906,9.81731761 L29.6980826,9.72292558 L29.6036906,9.62853354 L29.2924746,9.62853354 L29.2924746,9.81731761 Z M13.9642893,9.59970479 L13.9422501,9.59970479 L13.5510785,9.81731761 L13.8292337,9.81731761 L13.9642893,9.59970479 Z M22.024035,1.3135703 L25.841185,1.3135703 L26.7653623,0.0598729603 L29.8500229,0.0598729603 L28.9012405,1.3135703 L30.4256376,1.3135703 L28.7114999,8.60049373 L23.6128322,8.60049373 L23.5660635,8.81731761 L30.2924746,8.81731761 L30.2924746,10.6285335 L23.175386,10.6285335 L22.7657772,12.5275163 L20.0369571,12.5275163 L20.4639219,10.5997048 L12.1667317,10.5997048 L13.2729233,8.81731761 L20.8202097,8.81731761 L20.8655447,8.60049373 L15.8336387,8.60049373 L17.216636,1.3135703 L19.1506305,1.3135703 L18.9693862,0.785857674 L18.4496233,0.0229995091 L21.6178781,0.0229995091 L21.7088174,0.408083085 L21.702905,0.39488529 L22.024035,1.3135703 Z M21.2442464,6.7892778 L21.4476314,5.81654816 L19.1555792,5.81654816 L18.9644145,6.7892778 L21.2442464,6.7892778 Z M22.0104437,3.12478623 L19.684575,3.12478623 L19.5115266,4.00533224 L21.826333,4.00533224 L22.0104437,3.12478623 Z M24.0035098,6.7892778 L23.384161,6.7892778 L23.8729202,7.3947027 L24.0035098,6.7892778 Z M24.2133266,5.81654816 L24.2984361,5.42197306 L23.8096769,5.81654816 L24.2133266,5.81654816 Z M24.6040042,4.00533224 L23.9846554,4.00533224 L24.4734146,4.61075713 L24.6040042,4.00533224 Z M24.7939371,3.12478623 L24.8790466,2.73021112 L24.3902873,3.12478623 L24.7939371,3.12478623 Z M27.1798387,3.12478623 L27.8069772,3.12478623 L27.3195406,2.51340578 L27.1798387,3.12478623 Z M26.3424933,6.7892778 L26.2536928,7.17789735 L26.7411294,6.7892778 L26.3424933,6.7892778 Z" id="Combined-Shape" stroke="#E54C37" stroke-linejoin="round"></path>
                <path d="M11.5954462,7.7998402 L10.6868973,7.7998402 L9.72639723,9.31731761 L13.5510785,9.31731761 L13.0655105,10.0997048 L12.0383336,10.0997048 L12.8324594,12.0275163 L11.0604,12.0275163 L10.252626,10.0997048 L9.28865997,10.0997048 L8.08083119,12.0275163 L6.30877183,12.0275163 L7.50295238,10.0997048 L5.89107474,10.0997048 L6.05903228,9.31731761 L8.08083119,9.31731761 L8.88573892,7.7998402 L8.12064509,7.7998402 L8.25937651,6.92063322 L12.1776636,6.92063322 L11.5954462,7.7998402 Z M0.247803977,11.8217444 L3.04137157,5.64858909 L4.98590093,5.64858909 L2.14683546,11.8217444 L0.247803977,11.8217444 Z M9.23089355,1.90067622 L6.46549459,1.90067622 L6.61153916,0.914736283 L9.83191493,0.914736283 L10.0716212,0.522999509 L12.086693,0.522999509 L11.8440518,0.914736283 L15.862368,0.914736283 L15.2029867,1.90067622 L11.2356436,1.90067622 L10.6345374,2.88002246 L14.8404715,2.88002246 L14.2613145,3.75922943 L10.101622,3.75922943 L9.44436373,4.82550171 L15.1833066,4.82550171 L14.5888607,5.70470869 L13.8658425,5.70470869 L15.0173034,8.60422104 L13.062777,8.60422104 L11.8895926,5.70470869 L8.91718422,5.70470869 L7.18041356,8.62292757 L5.22602727,8.62292757 L6.94093433,5.70470869 L5.92870878,5.70470869 L6.05903228,4.82550171 L7.46152673,4.82550171 L8.11079634,3.75922943 L6.89687828,3.75922943 L7.02945103,2.88002246 L8.63712468,2.88002246 L9.23089355,1.90067622 Z M5.32583643,4.65714293 L3.40626161,4.65714293 L2.77018539,0.728771354 L4.71823484,0.728771354 L5.32583643,4.65714293 Z M21.2222023,0.522999509 L21.2309102,0.55987296 L21.6691451,1.8135703 L26.093774,1.8135703 L27.0179512,0.55987296 L28.8445871,0.55987296 L27.8958046,1.8135703 L29.7943726,1.8135703 L28.3154697,8.10049373 L23.2091825,8.10049373 L22.9467147,9.31731761 L29.7924746,9.31731761 L29.7924746,10.1285335 L22.7717362,10.1285335 L22.3621275,12.0275163 L20.6598115,12.0275163 L21.0867762,10.0997048 L13.0655105,10.0997048 L13.5510785,9.31731761 L21.2264787,9.31731761 L21.4809006,8.10049373 L16.4374601,8.10049373 L17.6306657,1.8135703 L19.8510249,1.8135703 L19.4204393,0.55987296 L19.395316,0.522999509 L21.2222023,0.522999509 Z M21.6505153,7.2892778 L22.0629873,5.31654816 L18.7442772,5.31654816 L18.3565886,7.2892778 L21.6505153,7.2892778 Z M22.6257996,2.62478623 L19.273273,2.62478623 L18.9037006,4.50533224 L22.232602,4.50533224 L22.6257996,2.62478623 Z M26.7411294,7.2892778 L27.8069772,2.62478623 L24.3902873,2.62478623 L23.9846554,4.50533224 L27.3772678,4.50533224 L26.5726221,5.31654816 L23.8096769,5.31654816 L23.384161,7.2892778 L26.7411294,7.2892778 Z" id="Combined-Shape" fill="#FFFFFF"></path>
            </g>
            <g id="Group-2" transform="translate(39.833333, 46.088235)">
                <circle id="Oval-6" fill="url(#linearGradient-12)" cx="6.70499992" cy="6.70499992" r="6.70499992"></circle>
                <g id="Line-2" fill-rule="nonzero">
                    <use fill="black" fill-opacity="1" filter="url(#filter-14)" xlink:href="#path-13"></use>
                    <use fill="#FFFFFF" fill-rule="evenodd" xlink:href="#path-13"></use>
                </g>
            </g>
        </g>
    </g>
</svg>