<?xml version="1.0" encoding="UTF-8"?>
<svg width="48px" height="37px" viewBox="0 0 48 37" version="1.1" xmlns="http://www.w3.org/2000/svg" xmlns:xlink="http://www.w3.org/1999/xlink">
    <!-- Generator: Sketch 43.1 (39012) - http://www.bohemiancoding.com/sketch -->
    <title>砍价LOGO</title>
    <desc>Created with Sketch.</desc>
    <defs></defs>
    <g id="H5功能-&gt;-砍价功能" stroke="none" stroke-width="1" fill="none" fill-rule="evenodd">
        <g id="1.-策略页（暂时）" transform="translate(-15.000000, -158.000000)">
            <g id="Group" transform="translate(0.000000, 142.000000)">
                <g id="砍价LOGO" transform="translate(16.000000, 17.000000)">
                    <path d="M29.7613,4.68623239 C26.6004932,1.77673002 22.3807512,0 17.7460317,0 C7.94516904,0 0,7.94516904 0,17.7460317 C0,27.5468944 7.94516904,35.4920635 17.7460317,35.4920635 L17.7460317,35.4920635 C22.8022758,35.4920635 27.3646259,33.377452 30.5969573,29.9843537" id="Oval-3" stroke="#FFFFFF" opacity="0.5"></path>
                    <g id="Group-13" transform="translate(7.000000, 7.000000)" fill="#FFFFFF">
                        <path d="M18.5747655,7.99425843 L19.7041455,9.73786259 L15.8008498,9.73786259 L14.7507246,7.99425843 L11.5210941,7.99425843 L10.5997578,9.73786259 L6.19121321,9.73786259 L7.15217687,7.99425843 L6.18130636,7.99425843 L6.18130636,6.36953636 L8.04379264,6.36953636 L8.51932104,5.50764112 L6.6865553,5.50764112 L6.6865553,3.88291905 L9.40102997,3.88291905 L9.83693101,3.0903717 L6.59739372,3.0903717 L6.59739372,1.46564963 L10.7285468,1.46564963 L11.2437026,0.524499655 L15.4541104,0.524499655 L14.9488614,1.46564963 L19.6942387,1.46564963 L19.6942387,3.0903717 L14.096873,3.0903717 L13.6807857,3.88291905 L19.6942387,3.88291905 L19.6942387,5.50764112 L12.8287973,5.50764112 L12.3730825,6.36953636 L19.7933071,6.36953636 L19.7933071,7.99425843 L18.5747655,7.99425843 Z M13.0566546,12.9773999 L26.9706708,12.9773999 L26.9706708,14.7309109 L18.0695166,14.7309109 L19.7933071,17.8317524 L15.7513156,17.8317524 L14.1067799,14.7309109 L12.0065294,14.7309109 L10.1638568,17.8317524 L5.55717533,17.8317524 L7.46919581,14.7309109 L5.70577795,14.7309109 L5.70577795,12.9773999 L8.54904157,12.9773999 L9.16326577,11.966902 L6.28037478,11.966902 L6.28037478,10.213391 L19.5852634,10.213391 L19.5852634,11.966902 L13.6510651,11.966902 L13.0566546,12.9773999 Z M5.94354216,6.78562372 L2.25819698,6.78562372 L0.841518595,0.524499655 L4.45751588,0.524499655 L5.94354216,6.78562372 Z M6.01289005,7.5385437 L4.35844746,17.8119387 L0.524499655,17.8119387 L2.25819698,7.5385437 L6.01289005,7.5385437 Z" id="凑"></path>
                        <path d="M32.3409119,14.8125707 L32.2418435,16.1599012 L39.8205776,16.1599012 L39.8205776,17.9134122 L32.1229614,17.9134122 L31.8851972,21.3808069 L27.1497268,21.3808069 L27.387491,17.9134122 L20.621118,17.9134122 L20.621118,16.1599012 L27.51628,16.1599012 L27.6054415,14.8125707 L21.0570191,14.8125707 L21.7108706,5.52985989 L23.7913074,5.52985989 L22.0436259,0.524499655 L26.363009,0.524499655 L28.1602247,5.52985989 L32.4201667,5.52985989 L33.1136456,4.1131815 L37.5122834,4.1131815 L36.7791771,5.52985989 L39.6224407,5.52985989 L39.2757013,14.8125707 L32.3409119,14.8125707 Z M32.459794,13.0590597 L34.777995,13.0590597 L34.8770635,10.7903929 L32.6183035,10.7903929 L32.459794,13.0590597 Z M27.8828331,10.7903929 L25.8023963,10.7903929 L25.6438868,13.0590597 L27.7243236,13.0590597 L27.8828331,10.7903929 Z M32.8659746,7.2833709 L32.7371856,9.16567086 L34.9464114,9.16567086 L35.0355729,7.2833709 L32.8659746,7.2833709 Z M28.0017152,9.16567086 L28.1305042,7.2833709 L26.0500674,7.2833709 L25.9212784,9.16567086 L28.0017152,9.16567086 Z" id="单"></path>
                    </g>
                </g>
            </g>
        </g>
    </g>
</svg>