<?xml version="1.0" encoding="UTF-8"?>
<svg width="84px" height="88px" viewBox="0 0 84 88" version="1.1" xmlns="http://www.w3.org/2000/svg" xmlns:xlink="http://www.w3.org/1999/xlink">
    <!-- Generator: Sketch 43.1 (39012) - http://www.bohemiancoding.com/sketch -->
    <title>出示买单</title>
    <desc>Created with Sketch.</desc>
    <defs></defs>
    <g id="H5优化-&gt;-领券、会员卡样式合集" stroke="none" stroke-width="1" fill="none" fill-rule="evenodd">
        <g id="1.-分店页扫码买单" transform="translate(-236.000000, -181.000000)">
            <g id="出示买单" transform="translate(236.000000, 181.000000)">
                <polygon id="Rectangle-2" fill="#F2F2F2" points="84 0 84 88 0 88"></polygon>
                <path d="M50.168,74.248 L48.296,74.248 L48.296,71.456 L47.704,71.456 L47.704,74.248 L45.832,74.248 L45.832,72.064 L45.256,72.064 L45.256,74.808 L47.704,74.808 L47.704,77.744 L45.448,77.744 L45.448,75.56 L44.864,75.56 L44.864,78.744 L45.448,78.744 L45.448,78.296 L50.552,78.296 L50.552,78.744 L51.136,78.744 L51.136,75.56 L50.552,75.56 L50.552,77.744 L48.296,77.744 L48.296,74.808 L50.744,74.808 L50.744,72.064 L50.168,72.064 L50.168,74.248 Z M55.752,78.704 L54.72,78.704 L54.6,78.144 C54.936,78.16 55.248,78.176 55.552,78.176 C55.792,78.176 55.912,78.056 55.912,77.832 L55.912,74.504 L52.768,74.504 L52.768,73.936 L59.584,73.936 L59.584,74.504 L56.496,74.504 L56.496,77.976 C56.496,78.456 56.248,78.704 55.752,78.704 Z M54,75.384 L54.568,75.504 C54.232,76.608 53.768,77.56 53.16,78.36 L52.656,78.048 C53.272,77.248 53.72,76.36 54,75.384 Z M58.224,75.304 C58.768,76.168 59.248,77.08 59.648,78.056 L59.12,78.296 C58.688,77.232 58.216,76.296 57.704,75.48 L58.224,75.304 Z M53.504,71.904 L53.504,72.464 L58.872,72.464 L58.872,71.904 L53.504,71.904 Z M61.584,74.008 C62.192,74.256 62.752,74.552 63.256,74.896 L62.96,75.36 C62.424,74.96 61.872,74.64 61.304,74.416 L61.584,74.008 Z M62.32,72.888 C62.928,73.136 63.472,73.432 63.968,73.784 L63.672,74.24 C63.144,73.84 62.608,73.52 62.048,73.296 L62.32,72.888 Z M64.528,72.888 L65.096,72.888 L65.096,74.568 C65.08,75.008 65.024,75.408 64.936,75.776 L67.912,75.776 L67.912,76.336 L64.744,76.336 C64.688,76.464 64.632,76.592 64.568,76.704 C65.728,77.224 66.784,77.784 67.736,78.384 L67.344,78.816 C66.352,78.184 65.336,77.624 64.28,77.136 C64.232,77.192 64.192,77.248 64.152,77.296 C63.568,77.928 62.616,78.424 61.296,78.776 L60.968,78.264 C62.296,77.92 63.216,77.464 63.744,76.896 C63.888,76.72 64.008,76.536 64.104,76.336 L60.928,76.336 L60.928,75.776 L64.336,75.776 C64.448,75.408 64.512,75 64.528,74.568 L64.528,72.888 Z M61.232,71.936 L67.328,71.936 L67.328,72.296 C67.208,72.776 67.048,73.248 66.856,73.72 L66.312,73.568 C66.48,73.24 66.616,72.872 66.728,72.472 L61.232,72.472 L61.232,71.936 Z M69.736,72.712 L73.184,72.712 C73.44,72.312 73.672,71.872 73.872,71.408 L74.432,71.608 C74.24,72.016 74.024,72.384 73.784,72.712 L75.32,72.712 L75.32,76 L72.816,76 L72.816,76.76 L76.08,76.76 L76.08,77.304 L72.816,77.304 L72.816,78.824 L72.24,78.824 L72.24,77.304 L68.976,77.304 L68.976,76.76 L72.24,76.76 L72.24,76 L69.736,76 L69.736,72.712 Z M74.76,75.488 L74.76,74.592 L72.816,74.592 L72.816,75.488 L74.76,75.488 Z M72.24,75.488 L72.24,74.592 L70.296,74.592 L70.296,75.488 L72.24,75.488 Z M70.296,74.096 L72.24,74.096 L72.24,73.216 L70.296,73.216 L70.296,74.096 Z M72.816,73.216 L72.816,74.096 L74.76,74.096 L74.76,73.216 L72.816,73.216 Z M71.152,71.448 C71.416,71.752 71.664,72.096 71.904,72.464 L71.424,72.704 C71.184,72.32 70.936,71.984 70.664,71.68 L71.152,71.448 Z" fill="#000000"></path>
                <path d="M56.625,47.125 L52.125,47.125 L52.125,51.625 L56.625,51.625 L56.625,47.125 Z M57.75,46 L57.75,46 L57.75,52.75 L51,52.75 L51,46 L57.75,46 Z M53.25,48.25 L55.5,48.25 L55.5,50.5 L53.25,50.5 L53.25,48.25 Z M67.875,47.125 L63.375,47.125 L63.375,51.625 L67.875,51.625 L67.875,47.125 Z M69,46 L69,46 L69,52.75 L62.25,52.75 L62.25,46 L69,46 Z M64.5,48.25 L66.75,48.25 L66.75,50.5 L64.5,50.5 L64.5,48.25 Z M56.625,58.375 L52.125,58.375 L52.125,62.875 L56.625,62.875 L56.625,58.375 Z M57.75,57.25 L57.75,57.25 L57.75,64 L51,64 L51,57.25 L57.75,57.25 Z M53.25,59.5 L55.5,59.5 L55.5,61.75 L53.25,61.75 L53.25,59.5 Z M58.875,46 L60,46 L60,47.125 L58.875,47.125 L58.875,46 Z M60,47.125 L61.125,47.125 L61.125,48.25 L60,48.25 L60,47.125 Z M58.875,48.25 L60,48.25 L60,49.375 L58.875,49.375 L58.875,48.25 Z M60,49.375 L61.125,49.375 L61.125,50.5 L60,50.5 L60,49.375 Z M58.875,50.5 L60,50.5 L60,51.625 L58.875,51.625 L58.875,50.5 Z M60,51.625 L61.125,51.625 L61.125,52.75 L60,52.75 L60,51.625 Z M58.875,52.75 L60,52.75 L60,53.875 L58.875,53.875 L58.875,52.75 Z M58.875,55 L60,55 L60,56.125 L58.875,56.125 L58.875,55 Z M60,56.125 L61.125,56.125 L61.125,57.25 L60,57.25 L60,56.125 Z M58.875,57.25 L60,57.25 L60,58.375 L58.875,58.375 L58.875,57.25 Z M60,58.375 L61.125,58.375 L61.125,59.5 L60,59.5 L60,58.375 Z M58.875,59.5 L60,59.5 L60,60.625 L58.875,60.625 L58.875,59.5 Z M60,60.625 L61.125,60.625 L61.125,61.75 L60,61.75 L60,60.625 Z M58.875,61.75 L60,61.75 L60,62.875 L58.875,62.875 L58.875,61.75 Z M60,62.875 L61.125,62.875 L61.125,64 L60,64 L60,62.875 Z M67.875,55 L69,55 L69,56.125 L67.875,56.125 L67.875,55 Z M52.125,55 L53.25,55 L53.25,56.125 L52.125,56.125 L52.125,55 Z M53.25,53.875 L54.375,53.875 L54.375,55 L53.25,55 L53.25,53.875 Z M51,53.875 L52.125,53.875 L52.125,55 L51,55 L51,53.875 Z M55.5,53.875 L56.625,53.875 L56.625,55 L55.5,55 L55.5,53.875 Z M56.625,55 L57.75,55 L57.75,56.125 L56.625,56.125 L56.625,55 Z M57.75,53.875 L58.875,53.875 L58.875,55 L57.75,55 L57.75,53.875 Z M61.125,55 L62.25,55 L62.25,56.125 L61.125,56.125 L61.125,55 Z M62.25,53.875 L63.375,53.875 L63.375,55 L62.25,55 L62.25,53.875 Z M63.375,55 L64.5,55 L64.5,56.125 L63.375,56.125 L63.375,55 Z M64.5,53.875 L65.625,53.875 L65.625,55 L64.5,55 L64.5,53.875 Z M65.625,55 L66.75,55 L66.75,56.125 L65.625,56.125 L65.625,55 Z M66.75,53.875 L67.875,53.875 L67.875,55 L66.75,55 L66.75,53.875 Z M67.875,57.25 L69,57.25 L69,58.375 L67.875,58.375 L67.875,57.25 Z M61.125,57.25 L62.25,57.25 L62.25,58.375 L61.125,58.375 L61.125,57.25 Z M62.25,56.125 L63.375,56.125 L63.375,57.25 L62.25,57.25 L62.25,56.125 Z M63.375,57.25 L64.5,57.25 L64.5,58.375 L63.375,58.375 L63.375,57.25 Z M65.625,57.25 L66.75,57.25 L66.75,58.375 L65.625,58.375 L65.625,57.25 Z M66.75,56.125 L67.875,56.125 L67.875,57.25 L66.75,57.25 L66.75,56.125 Z M67.875,59.5 L69,59.5 L69,60.625 L67.875,60.625 L67.875,59.5 Z M61.125,59.5 L62.25,59.5 L62.25,60.625 L61.125,60.625 L61.125,59.5 Z M62.25,58.375 L63.375,58.375 L63.375,59.5 L62.25,59.5 L62.25,58.375 Z M64.5,58.375 L65.625,58.375 L65.625,59.5 L64.5,59.5 L64.5,58.375 Z M65.625,59.5 L66.75,59.5 L66.75,60.625 L65.625,60.625 L65.625,59.5 Z M66.75,58.375 L67.875,58.375 L67.875,59.5 L66.75,59.5 L66.75,58.375 Z M67.875,61.75 L69,61.75 L69,62.875 L67.875,62.875 L67.875,61.75 Z M62.25,60.625 L63.375,60.625 L63.375,61.75 L62.25,61.75 L62.25,60.625 Z M63.375,61.75 L64.5,61.75 L64.5,62.875 L63.375,62.875 L63.375,61.75 Z M64.5,60.625 L65.625,60.625 L65.625,61.75 L64.5,61.75 L64.5,60.625 Z M65.625,61.75 L66.75,61.75 L66.75,62.875 L65.625,62.875 L65.625,61.75 Z M62.25,62.875 L63.375,62.875 L63.375,64 L62.25,64 L62.25,62.875 Z M64.5,62.875 L65.625,62.875 L65.625,64 L64.5,64 L64.5,62.875 Z M66.75,62.875 L67.875,62.875 L67.875,64 L66.75,64 L66.75,62.875 Z" id="Shape" fill="#000000" fill-rule="nonzero"></path>
            </g>
        </g>
    </g>
</svg>