<?xml version="1.0" encoding="UTF-8"?>
<svg width="55px" height="87px" viewBox="0 0 55 87" version="1.1" xmlns="http://www.w3.org/2000/svg" xmlns:xlink="http://www.w3.org/1999/xlink">
    <!-- Generator: Sketch 47 (45396) - http://www.bohemiancoding.com/sketch -->
    <title>凑单</title>
    <desc>Created with Sketch.</desc>
    <defs>
        <linearGradient x1="50%" y1="3.2286352%" x2="50%" y2="100%" id="linearGradient-1">
            <stop stop-color="#FF0800" offset="0%"></stop>
            <stop stop-color="#FF511B" offset="84.7556601%"></stop>
            <stop stop-color="#FF6B00" offset="100%"></stop>
        </linearGradient>
        <path d="M4.55970974,0.716796875 L50.6847617,0.716796875 C52.0220398,0.716796875 52.5069691,0.856035292 52.995858,1.11749593 C53.4847469,1.37895657 53.8684298,1.76263943 54.1298904,2.25152832 C54.3913511,2.74041721 54.5305895,3.22534657 54.5305895,4.56262467 L54.5305895,60.8069835 C54.5305895,62.1442616 54.3913511,62.6291909 54.1298904,63.1180798 C53.8684298,63.6069687 53.4847469,63.9906516 52.995858,64.2521122 C52.5069691,64.5135728 52.0220398,64.6528113 50.6847617,64.6528113 L4.55970974,64.6528113 C3.22243163,64.6528113 2.73750228,64.5135728 2.24861339,64.2521122 C1.7597245,63.9906516 1.37604164,63.6069687 1.114581,63.1180798 C0.85312036,62.6291909 0.713881943,62.1442616 0.713881943,60.8069835 L0.713881943,4.56262467 C0.713881943,3.22534657 0.85312036,2.74041721 1.114581,2.25152832 C1.37604164,1.76263943 1.7597245,1.37895657 2.24861339,1.11749593 C2.73750228,0.856035292 3.22243163,0.716796875 4.55970974,0.716796875 Z" id="path-2"></path>
        <filter x="-4.6%" y="-3.9%" width="109.3%" height="107.8%" filterUnits="objectBoundingBox" id="filter-4">
            <feGaussianBlur stdDeviation="2.5" in="SourceAlpha" result="shadowBlurInner1"></feGaussianBlur>
            <feOffset dx="0" dy="0" in="shadowBlurInner1" result="shadowOffsetInner1"></feOffset>
            <feComposite in="shadowOffsetInner1" in2="SourceAlpha" operator="arithmetic" k2="-1" k3="1" result="shadowInnerInner1"></feComposite>
            <feColorMatrix values="0 0 0 0 0.834768282   0 0 0 0 0.16303586   0 0 0 0 0.146242549  0 0 0 1 0" type="matrix" in="shadowInnerInner1"></feColorMatrix>
        </filter>
        <path d="M54.5338816,56.5390043 C45.5638817,50.5160465 36.5938817,47.5045675 27.6238818,47.5045675 C18.6538818,47.5045675 9.68388189,50.5160465 0.713881943,56.5390043" id="path-5"></path>
        <filter x="-5.6%" y="-44.3%" width="111.1%" height="170.7%" filterUnits="objectBoundingBox" id="filter-6">
            <feMorphology radius="1" operator="dilate" in="SourceAlpha" result="shadowSpreadOuter1"></feMorphology>
            <feOffset dx="0" dy="-1" in="shadowSpreadOuter1" result="shadowOffsetOuter1"></feOffset>
            <feMorphology radius="1" operator="erode" in="SourceAlpha" result="shadowInner"></feMorphology>
            <feOffset dx="0" dy="-1" in="shadowInner" result="shadowInner"></feOffset>
            <feComposite in="shadowOffsetOuter1" in2="shadowInner" operator="out" result="shadowOffsetOuter1"></feComposite>
            <feGaussianBlur stdDeviation="0.5" in="shadowOffsetOuter1" result="shadowBlurOuter1"></feGaussianBlur>
            <feColorMatrix values="0 0 0 0 0.916214923   0 0 0 0 0.0360714537   0 0 0 0 0  0 0 0 1 0" type="matrix" in="shadowBlurOuter1"></feColorMatrix>
        </filter>
        <circle id="path-7" cx="9.79459341" cy="9.81291295" r="9.57650284"></circle>
        <filter x="-10.4%" y="-15.7%" width="120.9%" height="120.9%" filterUnits="objectBoundingBox" id="filter-8">
            <feOffset dx="0" dy="-1" in="SourceAlpha" result="shadowOffsetOuter1"></feOffset>
            <feGaussianBlur stdDeviation="0.5" in="shadowOffsetOuter1" result="shadowBlurOuter1"></feGaussianBlur>
            <feColorMatrix values="0 0 0 0 0   0 0 0 0 0   0 0 0 0 0  0 0 0 0.140313632 0" type="matrix" in="shadowBlurOuter1"></feColorMatrix>
        </filter>
        <filter x="-10.4%" y="-15.7%" width="120.9%" height="120.9%" filterUnits="objectBoundingBox" id="filter-9">
            <feGaussianBlur stdDeviation="1" in="SourceAlpha" result="shadowBlurInner1"></feGaussianBlur>
            <feOffset dx="0" dy="0" in="shadowBlurInner1" result="shadowOffsetInner1"></feOffset>
            <feComposite in="shadowOffsetInner1" in2="SourceAlpha" operator="arithmetic" k2="-1" k3="1" result="shadowInnerInner1"></feComposite>
            <feColorMatrix values="0 0 0 0 0.862745098   0 0 0 0 0.890196078   0 0 0 0 0  0 0 0 1 0" type="matrix" in="shadowInnerInner1"></feColorMatrix>
        </filter>
        <circle id="path-10" cx="9.79382158" cy="9.81214112" r="7.79973061"></circle>
        <filter x="-3.2%" y="-3.2%" width="106.4%" height="106.4%" filterUnits="objectBoundingBox" id="filter-11">
            <feOffset dx="0" dy="1" in="SourceAlpha" result="shadowOffsetInner1"></feOffset>
            <feComposite in="shadowOffsetInner1" in2="SourceAlpha" operator="arithmetic" k2="-1" k3="1" result="shadowInnerInner1"></feComposite>
            <feColorMatrix values="0 0 0 0 0.889296344   0 0 0 0 0.670526177   0 0 0 0 0.129162715  0 0 0 1 0" type="matrix" in="shadowInnerInner1" result="shadowMatrixInner1"></feColorMatrix>
            <feOffset dx="0" dy="-1" in="SourceAlpha" result="shadowOffsetInner2"></feOffset>
            <feComposite in="shadowOffsetInner2" in2="SourceAlpha" operator="arithmetic" k2="-1" k3="1" result="shadowInnerInner2"></feComposite>
            <feColorMatrix values="0 0 0 0 0.868090986   0 0 0 0 0.632839987   0 0 0 0 0.0506934446  0 0 0 1 0" type="matrix" in="shadowInnerInner2" result="shadowMatrixInner2"></feColorMatrix>
            <feMerge>
                <feMergeNode in="shadowMatrixInner1"></feMergeNode>
                <feMergeNode in="shadowMatrixInner2"></feMergeNode>
            </feMerge>
        </filter>
    </defs>
    <g id="凑单V3.0" stroke="none" stroke-width="1" fill="none" fill-rule="evenodd">
        <g id="充值有礼弹窗收起" transform="translate(-315.000000, -512.000000)">
            <g id="凑单" transform="translate(313.990234, 511.984375)">
                <g id="Group-32" transform="translate(28.251193, 55.189706) scale(-1, -1) translate(-28.251193, -55.189706) translate(0.751193, 22.689706)">
                    <mask id="mask-3" fill="white">
                        <use xlink:href="#path-2"></use>
                    </mask>
                    <g id="Rectangle-11">
                        <use fill="url(#linearGradient-1)" fill-rule="evenodd" xlink:href="#path-2"></use>
                        <use fill="black" fill-opacity="1" filter="url(#filter-4)" xlink:href="#path-2"></use>
                        <path stroke="#E12E12" stroke-width="1" d="M4.55970974,1.21679687 C3.41596716,1.21679687 2.95768077,1.30529606 2.48441282,1.55840253 C2.08265816,1.77326327 1.77034834,2.0855731 1.5554876,2.48732775 C1.30238113,2.9605957 1.21388194,3.41888209 1.21388194,4.56262467 L1.21388194,60.8069835 C1.21388194,61.950726 1.30238113,62.4090124 1.5554876,62.8822804 C1.77034834,63.284035 2.08265816,63.5963449 2.48441282,63.8112056 C2.95768077,64.0643121 3.41596716,64.1528113 4.55970974,64.1528113 L50.6847617,64.1528113 C51.8285043,64.1528113 52.2867906,64.0643121 52.7600586,63.8112056 C53.1618133,63.5963449 53.4741231,63.284035 53.6889838,62.8822804 C53.9420903,62.4090124 54.0305895,61.950726 54.0305895,60.8069835 L54.0305895,4.56262467 C54.0305895,3.41888209 53.9420903,2.9605957 53.6889838,2.48732775 C53.4741231,2.0855731 53.1618133,1.77326327 52.7600586,1.55840253 C52.2867906,1.30529606 51.8285043,1.21679687 50.6847617,1.21679687 L4.55970974,1.21679687 Z"></path>
                    </g>
                    <g id="Line-3" stroke-linecap="square" mask="url(#mask-3)">
                        <use fill="black" fill-opacity="1" filter="url(#filter-6)" xlink:href="#path-5"></use>
                        <use stroke="#FDE403" stroke-width="2" xlink:href="#path-5"></use>
                    </g>
                    <g id="Group-6" mask="url(#mask-3)">
                        <g transform="translate(17.173142, 37.970131)">
                            <g id="Oval-6" fill="none" transform="translate(9.794593, 9.812913) scale(-1, 1) translate(-9.794593, -9.812913) ">
                                <use fill="black" fill-opacity="1" filter="url(#filter-8)" xlink:href="#path-7"></use>
                                <use fill="#FEE404" fill-rule="evenodd" xlink:href="#path-7"></use>
                                <use fill="black" fill-opacity="1" filter="url(#filter-9)" xlink:href="#path-7"></use>
                            </g>
                            <g id="Oval-6" fill="none" transform="translate(9.793822, 9.812141) scale(-1, 1) translate(-9.793822, -9.812141) ">
                                <use fill="#ECB122" fill-rule="evenodd" xlink:href="#path-10"></use>
                                <use fill="black" fill-opacity="1" filter="url(#filter-11)" xlink:href="#path-10"></use>
                            </g>
                            <polygon id="￥" fill="#DDA10D" fill-rule="evenodd" transform="translate(9.666376, 9.058125) scale(-1, -1) translate(-9.666376, -9.058125) " points="5.34220076 4.41433781 8.17578976 8.94105518 6.3014887 8.94105518 6.3014887 9.79957055 8.72184598 9.79957055 8.73660425 9.81257836 8.73660425 10.8922265 6.3014887 10.8922265 6.3014887 11.7507418 8.73660425 11.7507418 8.73660425 13.7019131 10.596147 13.7019131 10.596147 11.7507418 13.0460209 11.7507418 13.0460209 10.8922265 10.596147 10.8922265 10.596147 9.81257836 10.6109053 9.79957055 13.0460209 9.79957055 13.0460209 8.94105518 11.1569615 8.94105518 13.9905505 4.41433781 11.8948753 4.41433781 9.66637564 8.32968818 7.43787596 4.41433781"></polygon>
                            <polygon id="￥" fill="#FDE403" fill-rule="evenodd" transform="translate(9.726558, 9.598647) scale(-1, -1) translate(-9.726558, -9.598647) " points="5.40238293 4.95485967 8.23597193 9.48157705 6.36167087 9.48157705 6.36167087 10.3400924 8.78202815 10.3400924 8.79678642 10.3531002 8.79678642 11.4327483 6.36167087 11.4327483 6.36167087 12.2912637 8.79678642 12.2912637 8.79678642 14.242435 10.6563292 14.242435 10.6563292 12.2912637 13.106203 12.2912637 13.106203 11.4327483 10.6563292 11.4327483 10.6563292 10.3531002 10.6710875 10.3400924 13.106203 10.3400924 13.106203 9.48157705 11.2171437 9.48157705 14.0507327 4.95485967 11.9550575 4.95485967 9.72655782 8.87021004 7.49805813 4.95485967"></polygon>
                        </g>
                    </g>
                </g>
                <g id="推荐" transform="translate(1.000000, 0.000000)">
                    <rect id="Rectangle-12" fill="#000000" opacity="0.8" x="0.12967873" y="0.047412781" width="53.8297872" height="16.3829787" rx="8.19148936"></rect>
                    <path d="M18.809648,8.20499649 L18.809648,9.24414542 L20.2607118,9.24414542 L20.2607118,8.20499649 L18.809648,8.20499649 Z M18.809648,10.0679752 L18.809648,11.2288263 L20.2607118,11.2288263 L20.2607118,10.0679752 L18.809648,10.0679752 Z M18.809648,12.0807412 L18.809648,12.5020178 L17.929648,12.5020178 L17.929648,7.31563478 C17.7424139,7.58712414 17.5364565,7.8492518 17.3211373,8.11137946 L17.0215629,7.17520925 C17.7611373,6.18286883 18.2853927,5.10627308 18.5849671,3.92669861 L19.4462437,4.09520925 C19.3151799,4.56329436 19.156031,5.01265606 18.9687969,5.44329436 L20.4011373,5.44329436 C20.2513501,4.99393266 20.0828395,4.54457095 19.8956054,4.11393266 L20.7475203,3.8892518 C20.9534778,4.46031563 21.1219884,4.97520925 21.2343288,5.44329436 L22.6666693,5.44329436 L22.6666693,6.29520925 L21.1407118,6.29520925 L21.1407118,7.371805 L22.4794352,7.371805 L22.4794352,8.20499649 L21.1407118,8.20499649 L21.1407118,9.24414542 L22.4794352,9.24414542 L22.4794352,10.0679752 L21.1407118,10.0679752 L21.1407118,11.2288263 L22.769648,11.2288263 L22.769648,12.0807412 L18.809648,12.0807412 Z M20.2607118,6.29520925 L18.809648,6.29520925 L18.809648,7.371805 L20.2607118,7.371805 L20.2607118,6.29520925 Z M17.1807118,7.69010287 L17.1807118,8.59818797 C16.9185841,8.7198901 16.6470948,8.83223053 16.3849671,8.94457095 L16.3849671,11.4909539 C16.3849671,12.0994646 16.0666693,12.4084007 15.4394352,12.4084007 L14.596882,12.4084007 L14.4002863,11.5471241 C14.6530522,11.584571 14.8964565,11.6032944 15.130499,11.6032944 C15.3739033,11.6032944 15.4956054,11.4909539 15.4956054,11.2662731 L15.4956054,9.28159223 C15.1398607,9.40329436 14.7747544,9.51563478 14.4190097,9.61861351 L14.1943288,8.7198901 C14.6343288,8.62627308 15.0649671,8.51393266 15.4956054,8.38286883 L15.4956054,6.41691138 L14.3722012,6.41691138 L14.3722012,5.55563478 L15.4956054,5.55563478 L15.4956054,3.90797521 L16.3849671,3.90797521 L16.3849671,5.55563478 L17.2556054,5.55563478 L17.2556054,6.41691138 L16.3849671,6.41691138 L16.3849671,8.05520925 C16.6564565,7.94286883 16.9185841,7.8211667 17.1807118,7.69010287 Z M23.836882,4.50712414 L25.8964565,4.50712414 L25.8964565,3.91733691 L26.7951799,3.91733691 L26.7951799,4.50712414 L29.0607118,4.50712414 L29.0607118,3.91733691 L29.9594352,3.91733691 L29.9594352,4.50712414 L32.0190097,4.50712414 L32.0190097,5.32159223 L29.9594352,5.32159223 L29.9594352,5.93010287 L29.0607118,5.93010287 L29.0607118,5.32159223 L26.7951799,5.32159223 L26.7951799,5.92074117 L25.8964565,5.92074117 L25.8964565,5.32159223 L23.836882,5.32159223 L23.836882,4.50712414 Z M23.9866693,6.46371989 L26.5892224,6.46371989 C26.6922012,6.24840074 26.7858182,6.03308159 26.8700735,5.82712414 L27.7313501,5.97691138 C27.6751799,6.14542202 27.609648,6.30457095 27.5441161,6.46371989 L31.9722012,6.46371989 L31.9722012,7.27818797 L27.1415629,7.27818797 C26.8607118,7.75563478 26.5330522,8.20499649 26.1585841,8.63563478 L26.1585841,12.5675497 L25.3066693,12.5675497 L25.3066693,9.46882627 C24.9602863,9.76840074 24.5951799,10.0492518 24.2019884,10.3113795 L23.6402863,9.5811667 C24.6887969,8.90712414 25.503265,8.13946457 26.1024139,7.27818797 L23.9866693,7.27818797 L23.9866693,6.46371989 Z M29.1730522,9.25350712 C29.4164565,9.09435819 29.7441161,8.88840074 30.156031,8.63563478 L27.3475203,8.63563478 L27.3475203,7.8305284 L31.4292224,7.8305284 L31.4292224,8.46712414 C31.036031,8.77606031 30.5773076,9.11308159 30.0717756,9.48754968 L30.0717756,9.70286883 L32.0283714,9.70286883 L32.0283714,10.545422 L30.0717756,10.545422 L30.0717756,11.7062731 C30.0717756,12.2586135 29.7909246,12.5394646 29.2385841,12.5394646 L28.1058182,12.5394646 L27.8436905,11.678188 C28.2836905,11.7156348 28.6300735,11.7343582 28.8828395,11.7343582 C29.0700735,11.7343582 29.1730522,11.6407412 29.1730522,11.4535071 L29.1730522,10.545422 L26.6922012,10.545422 L26.6922012,9.70286883 L29.1730522,9.70286883 L29.1730522,9.25350712 Z M38.0479459,9.1692518 L37.3177331,9.1692518 L37.1211373,8.34542202 C37.3458182,8.38286883 37.5517756,8.40159223 37.7577331,8.40159223 C37.9075203,8.40159223 37.9917756,8.2798901 37.9917756,8.04584755 L37.9917756,5.86457095 L38.8717756,5.86457095 L38.8717756,8.2611667 C38.8717756,8.86031563 38.5909246,9.1692518 38.0479459,9.1692518 Z M34.116031,6.70712414 C33.9007118,6.9411667 33.6853927,7.15648585 33.4607118,7.36244329 L32.889648,6.68840074 C33.6853927,6.01435819 34.3687969,5.08754968 34.930499,3.89861351 L35.7917756,4.09520925 C35.5390097,4.63818797 35.2675203,5.13435819 34.9773076,5.58371989 L34.9773076,9.1505284 L34.116031,9.1505284 L34.116031,6.70712414 Z M37.036882,3.8892518 L37.8794352,4.08584755 C37.7764565,4.3011667 37.6734778,4.50712414 37.5798607,4.69435819 L41.2590097,4.69435819 L41.2590097,5.24669861 C41.1373076,5.71478372 40.9875203,6.17350712 40.8002863,6.62286883 L40.0139033,6.40754968 C40.1543288,6.13606031 40.276031,5.83648585 40.3790097,5.49946457 L37.1024139,5.49946457 C36.7466693,6.01435819 36.3628395,6.46371989 35.9415629,6.84754968 L35.3985841,6.18286883 C36.0351799,5.6211667 36.5875203,4.86286883 37.036882,3.8892518 Z M33.9381586,9.56244329 C33.769648,10.3113795 33.4887969,11.0041454 33.0956054,11.6594646 L33.8539033,12.1462731 C34.2564565,11.4628688 34.5747544,10.6577624 34.7994352,9.74031563 L33.9381586,9.56244329 Z M38.6564565,12.4084007 L36.2785841,12.4084007 C35.6419884,12.4084007 35.3236905,12.0620178 35.3236905,11.3786135 L35.3236905,9.47818797 L36.2224139,9.47818797 L36.2224139,11.2007412 C36.2224139,11.4441454 36.3347544,11.5658475 36.5594352,11.5658475 L38.4879459,11.5658475 C38.6470948,11.5658475 38.7687969,11.5096773 38.8530522,11.4066986 C38.9466693,11.2943582 39.0122012,10.9573369 39.0402863,10.3862731 L39.8828395,10.6671241 C39.8079459,11.5096773 39.676882,12.0152093 39.4802863,12.1837199 C39.2930522,12.3335071 39.0215629,12.4084007 38.6564565,12.4084007 Z M40.3228395,9.23478372 C40.9219884,10.0586135 41.3713501,10.7794646 41.689648,11.3973369 L40.9500735,11.9122305 C40.6130522,11.238188 40.1636905,10.4986135 39.6019884,9.68414542 L40.3228395,9.23478372 Z M36.7841161,6.68840074 L37.4956054,7.02542202 C37.1585841,7.73691138 36.756031,8.35478372 36.2879459,8.87903904 L35.6139033,8.41095393 C36.0726267,7.92414542 36.4658182,7.34371989 36.7841161,6.68840074 Z M40.0794352,6.67903904 C40.5287969,7.24074117 40.9219884,7.8492518 41.2683714,8.52329436 L40.5100735,8.91648585 C40.1543288,8.19563478 39.770499,7.55903904 39.3398607,7.00669861 L40.0794352,6.67903904 Z M37.4956054,9.23478372 C37.9449671,9.74967734 38.2819884,10.199039 38.516031,10.5922305 L37.823265,11.079039 C37.5798607,10.6484007 37.2428395,10.1803156 36.8215629,9.66542202 L37.4956054,9.23478372 Z" id="推荐您" fill="#FFFFFF"></path>
                </g>
            </g>
        </g>
    </g>
</svg>