<?xml version="1.0" encoding="UTF-8"?>
<svg width="129px" height="19px" viewBox="0 0 129 19" version="1.1" xmlns="http://www.w3.org/2000/svg" xmlns:xlink="http://www.w3.org/1999/xlink">
    <!-- Generator: Sketch 48.1 (47250) - http://www.bohemiancoding.com/sketch -->
    <title>label</title>
    <desc>Created with Sketch.</desc>
    <defs>
        <linearGradient x1="50%" y1="0%" x2="50%" y2="98.2641103%" id="linearGradient-1">
            <stop stop-color="#FFD284" offset="0%"></stop>
            <stop stop-color="#DEA56E" offset="100%"></stop>
        </linearGradient>
        <path d="M22.378,9.205 L21.762,9.909 C21.619,9.568 21.355,9.018 21.091,8.512 L21.091,13.858 L20.167,13.858 L20.167,8.963 C19.826,10.063 19.375,11.086 18.913,11.746 C18.814,11.46 18.572,10.998 18.396,10.734 C19.1,9.865 19.76,8.215 20.079,6.796 L18.55,6.796 L18.55,5.85 L20.167,5.85 L20.167,3.782 L21.091,3.782 L21.091,5.85 L22.323,5.85 L22.323,6.796 L21.091,6.796 L21.091,7.247 C21.388,7.632 22.202,8.897 22.378,9.205 Z M23.731,7.082 L23.731,8.226 L26.668,8.226 L26.668,7.082 L23.731,7.082 Z M26.668,5.135 L23.731,5.135 L23.731,6.246 L26.668,6.246 L26.668,5.135 Z M27.614,9.37 L28.296,10.074 C27.768,10.492 27.108,10.954 26.558,11.284 C27.086,12.01 27.768,12.582 28.604,12.923 C28.384,13.121 28.065,13.528 27.922,13.792 C26.184,12.956 25.194,11.284 24.633,9.117 L23.731,9.117 L23.731,12.549 L25.535,12.12 C25.524,12.395 25.546,12.802 25.579,13.022 C23.379,13.594 23.005,13.726 22.785,13.88 C22.719,13.649 22.499,13.22 22.345,13.044 C22.532,12.934 22.741,12.736 22.741,12.285 L22.741,4.244 L27.658,4.244 L27.658,9.117 L25.524,9.117 C25.678,9.634 25.876,10.118 26.107,10.558 C26.624,10.206 27.24,9.733 27.614,9.37 Z M32.905,9.403 L31.706,9.777 L31.706,12.637 C31.706,13.143 31.607,13.418 31.31,13.572 C31.013,13.737 30.573,13.77 29.88,13.77 C29.858,13.528 29.737,13.088 29.605,12.824 C30.045,12.835 30.452,12.835 30.573,12.835 C30.716,12.835 30.771,12.791 30.771,12.637 L30.771,10.074 L29.583,10.437 L29.352,9.447 C29.748,9.348 30.232,9.205 30.771,9.051 L30.771,6.862 L29.495,6.862 L29.495,5.916 L30.771,5.916 L30.771,3.793 L31.706,3.793 L31.706,5.916 L32.883,5.916 L32.883,6.862 L31.706,6.862 L31.706,8.787 L32.762,8.479 L32.905,9.403 Z M34.28,8.303 L36.194,8.303 L36.194,7.203 L34.291,7.203 L34.291,7.533 C34.291,7.775 34.291,8.028 34.28,8.303 Z M38.174,5.124 L34.291,5.124 L34.291,6.312 L38.174,6.312 L38.174,5.124 Z M38.262,12.659 L38.262,11.24 L35.215,11.24 L35.215,12.659 L38.262,12.659 Z M39.483,9.161 L37.151,9.161 L37.151,10.382 L39.186,10.382 L39.186,13.836 L38.262,13.836 L38.262,13.484 L35.215,13.484 L35.215,13.869 L34.324,13.869 L34.324,10.382 L36.194,10.382 L36.194,9.161 L34.236,9.161 C34.115,10.767 33.796,12.582 32.927,13.869 C32.74,13.704 32.322,13.385 32.08,13.286 C33.202,11.636 33.301,9.26 33.301,7.533 L33.301,4.233 L39.142,4.233 L39.142,7.203 L37.151,7.203 L37.151,8.303 L39.483,8.303 L39.483,9.161 Z M46.028,10.877 L48.382,10.877 C47.458,9.821 46.688,8.457 46.149,7.027 L46.028,7.027 L46.028,10.877 Z M42.552,10.877 L44.95,10.877 L44.95,7.027 L44.807,7.027 C44.268,8.468 43.487,9.821 42.552,10.877 Z M50.296,7.027 L47.172,7.027 C47.931,8.765 49.185,10.393 50.593,11.251 C50.34,11.46 49.966,11.856 49.79,12.153 C49.317,11.823 48.866,11.416 48.459,10.954 L48.459,11.911 L46.028,11.911 L46.028,13.858 L44.95,13.858 L44.95,11.911 L42.519,11.911 L42.519,10.932 C42.079,11.416 41.628,11.834 41.155,12.186 C40.979,11.922 40.649,11.559 40.396,11.35 C41.782,10.47 43.025,8.798 43.773,7.027 L40.737,7.027 L40.737,5.993 L44.95,5.993 L44.95,3.771 L46.028,3.771 L46.028,5.993 L50.296,5.993 L50.296,7.027 Z M60.009,6.576 L56.269,6.576 C55.928,7.467 55.532,8.259 55.092,8.864 C54.872,8.699 54.355,8.424 54.091,8.292 C54.96,7.247 55.587,5.52 55.917,3.771 L57.017,3.969 C56.896,4.508 56.764,5.047 56.61,5.564 L60.339,5.564 L60.548,5.498 L61.285,5.927 C61.021,7.027 60.537,8.193 60.141,8.985 C59.932,8.864 59.536,8.655 59.283,8.545 C59.525,8.05 59.8,7.302 60.009,6.576 Z M54.388,5.96 L53.739,6.807 C53.299,6.345 52.353,5.685 51.605,5.256 L52.221,4.519 C52.958,4.904 53.926,5.52 54.388,5.96 Z M53.673,8.754 L54.487,9.436 C53.849,10.569 53.09,11.801 52.408,12.813 L51.462,12.12 C52.078,11.306 52.98,9.975 53.673,8.754 Z M58.249,7.016 L58.249,7.72 C58.249,7.94 58.238,8.204 58.227,8.457 C58.711,10.58 59.701,12.208 61.593,12.879 C61.362,13.088 61.054,13.506 60.9,13.792 C59.393,13.143 58.458,11.966 57.853,10.36 C57.402,11.636 56.445,12.934 54.476,13.935 C54.311,13.682 53.937,13.308 53.684,13.121 C56.896,11.559 57.16,9.194 57.16,7.698 L57.16,7.016 L58.249,7.016 Z M71.35,4.057 L72.329,4.431 C71.966,5.168 71.526,5.96 71.152,6.488 L70.272,6.136 C70.635,5.575 71.108,4.706 71.35,4.057 Z M63.661,13.781 L62.759,13.121 C63.287,12.285 64.046,10.877 64.629,9.601 L65.377,10.228 C64.871,11.394 64.233,12.725 63.661,13.781 Z M64.992,8.017 L64.376,8.809 C63.969,8.413 63.133,7.852 62.44,7.5 L63.023,6.774 C63.705,7.093 64.563,7.61 64.992,8.017 Z M62.946,4.596 L63.551,3.892 C64.222,4.211 65.058,4.739 65.465,5.135 L64.827,5.927 C64.442,5.52 63.628,4.959 62.946,4.596 Z M67.83,6.103 L66.906,6.554 C66.741,6.004 66.301,5.135 65.85,4.508 L66.719,4.123 C67.17,4.728 67.643,5.553 67.83,6.103 Z M67.17,10.723 L70.888,10.723 L70.888,9.689 L67.17,9.689 L67.17,10.723 Z M70.888,7.808 L67.17,7.808 L67.17,8.82 L70.888,8.82 L70.888,7.808 Z M71.889,6.851 L71.889,12.681 C71.889,13.209 71.779,13.495 71.416,13.649 C71.064,13.814 70.503,13.825 69.667,13.825 C69.623,13.561 69.48,13.121 69.348,12.857 C69.909,12.89 70.503,12.89 70.668,12.879 C70.833,12.868 70.888,12.824 70.888,12.67 L70.888,11.592 L67.17,11.592 L67.17,13.869 L66.169,13.869 L66.169,6.851 L68.545,6.851 L68.545,3.771 L69.579,3.771 L69.579,6.851 L71.889,6.851 Z M76.828,6.488 L75.409,6.488 C75.376,6.719 75.343,6.928 75.299,7.148 L76.674,7.148 C76.762,6.939 76.806,6.719 76.828,6.488 Z M77.774,5.124 L77.774,5.773 L79.292,5.773 L79.292,5.124 L77.774,5.124 Z M81.657,5.124 L80.26,5.124 L80.26,5.773 L81.657,5.773 L81.657,5.124 Z M79.292,7.148 L79.292,6.488 L77.763,6.488 C77.752,6.719 77.719,6.928 77.675,7.148 L79.292,7.148 Z M75.024,12.252 L75.024,9.48 C74.749,9.568 74.463,9.645 74.155,9.711 C74.067,9.491 73.814,9.106 73.638,8.941 C74.947,8.655 75.739,8.292 76.201,7.852 L74.254,7.852 C74.375,7.291 74.507,6.466 74.584,5.784 L74.969,5.784 L74.969,5.773 L76.85,5.773 L76.85,5.124 L74.221,5.124 L74.221,4.42 L76.85,4.42 L76.85,3.771 L77.774,3.771 L77.774,4.42 L79.292,4.42 L79.292,3.771 L80.26,3.771 L80.26,4.42 L82.592,4.42 L82.592,6.488 L80.26,6.488 L80.26,7.148 L83.263,7.148 C83.263,7.148 83.252,7.346 83.241,7.467 C83.175,8.193 83.098,8.567 82.922,8.754 C82.779,8.919 82.581,8.985 82.35,8.996 C82.152,9.007 81.778,9.007 81.36,8.985 C81.349,8.787 81.272,8.501 81.184,8.314 C81.492,8.358 81.756,8.358 81.866,8.358 C81.987,8.358 82.053,8.347 82.119,8.281 C82.163,8.215 82.207,8.105 82.24,7.852 L80.26,7.852 L80.26,9.007 L79.292,9.007 L79.292,7.852 L77.411,7.852 C77.125,8.391 76.608,8.864 75.717,9.238 L82.042,9.238 L82.042,12.153 L81.008,12.153 L81.008,10.085 L76.014,10.085 L76.014,12.252 L75.024,12.252 Z M78.126,10.492 L79.149,10.492 C78.731,12.406 77.642,13.396 73.913,13.858 C73.847,13.605 73.649,13.198 73.473,12.989 C76.905,12.648 77.774,11.944 78.126,10.492 Z M78.709,12.428 L79.248,11.735 C80.59,12.054 82.449,12.637 83.439,13.077 L82.867,13.869 C81.943,13.429 80.084,12.791 78.709,12.428 Z M89.731,10.921 L89.731,12.219 L91.381,12.219 L91.381,10.921 L89.731,10.921 Z M91.381,7.863 L91.381,6.631 L89.731,6.631 L89.731,7.863 L91.381,7.863 Z M91.381,10.019 L91.381,8.765 L89.731,8.765 L89.731,10.019 L91.381,10.019 Z M94.494,12.219 L94.494,13.154 L89.731,13.154 L89.731,13.88 L88.752,13.88 L88.752,7.72 C88.499,8.105 88.224,8.468 87.949,8.776 L87.828,8.644 L87.949,9.414 L86.772,9.777 L86.772,12.67 C86.772,13.187 86.673,13.473 86.376,13.638 C86.068,13.814 85.617,13.847 84.924,13.847 C84.891,13.583 84.77,13.132 84.627,12.846 C85.056,12.868 85.474,12.868 85.595,12.857 C85.738,12.857 85.793,12.813 85.793,12.659 L85.793,10.085 C85.375,10.217 84.979,10.338 84.605,10.448 L84.374,9.458 C84.77,9.359 85.254,9.216 85.793,9.073 L85.793,6.829 L84.473,6.829 L84.473,5.883 L85.793,5.883 L85.793,3.793 L86.772,3.793 L86.772,5.883 L87.949,5.883 L87.949,6.829 L86.772,6.829 L86.772,8.787 L87.696,8.512 C87.531,8.336 87.344,8.138 87.201,8.039 C88.18,7.027 89.016,5.443 89.511,3.837 L90.49,4.09 C90.303,4.629 90.105,5.168 89.863,5.696 L91.733,5.696 C91.601,5.267 91.315,4.673 91.04,4.211 L91.92,3.859 C92.239,4.343 92.569,4.992 92.701,5.421 L92.063,5.696 L94.274,5.696 L94.274,6.631 L92.327,6.631 L92.327,7.863 L94.12,7.863 L94.12,8.765 L92.327,8.765 L92.327,10.019 L94.109,10.019 L94.109,10.921 L92.327,10.921 L92.327,12.219 L94.494,12.219 Z M105.263,7.687 L99.257,7.687 C98.927,8.259 98.553,8.787 98.146,9.282 L98.146,13.869 L97.178,13.869 L97.178,10.294 C96.804,10.646 96.397,10.954 95.99,11.24 C95.858,11.031 95.528,10.602 95.319,10.404 C96.43,9.744 97.376,8.809 98.124,7.687 L95.693,7.687 L95.693,6.774 L98.663,6.774 C98.74,6.609 98.817,6.444 98.894,6.268 L98.003,6.268 L98.003,5.432 L95.627,5.432 L95.627,4.53 L98.003,4.53 L98.003,3.782 L99.004,3.782 L99.004,4.53 L102.018,4.53 L102.018,3.771 L103.008,3.771 L103.008,4.53 L105.362,4.53 L105.362,5.432 L103.008,5.432 L103.008,6.257 L102.018,6.257 L102.018,5.432 L99.004,5.432 L99.004,6.015 L99.103,5.762 L100.071,6.015 C99.972,6.279 99.862,6.521 99.752,6.774 L105.263,6.774 L105.263,7.687 Z M105.428,10.635 L105.428,11.504 L102.711,11.504 L102.711,12.846 C102.711,13.319 102.623,13.561 102.26,13.704 C101.897,13.836 101.369,13.847 100.588,13.847 C100.533,13.583 100.39,13.22 100.258,12.978 C100.819,13 101.38,13 101.523,12.989 C101.688,12.978 101.732,12.956 101.732,12.813 L101.732,11.504 L98.817,11.504 L98.817,10.635 L101.732,10.635 L101.732,9.975 C102.117,9.788 102.535,9.546 102.909,9.271 L99.642,9.271 L99.642,8.468 L103.888,8.468 L104.075,8.413 L104.68,8.908 C104.141,9.403 103.426,9.909 102.711,10.294 L102.711,10.635 L105.428,10.635 Z" id="path-2"></path>
        <filter x="-4.0%" y="-24.6%" width="108.0%" height="168.9%" filterUnits="objectBoundingBox" id="filter-3">
            <feOffset dx="0" dy="1" in="SourceAlpha" result="shadowOffsetOuter1"></feOffset>
            <feGaussianBlur stdDeviation="1" in="shadowOffsetOuter1" result="shadowBlurOuter1"></feGaussianBlur>
            <feColorMatrix values="0 0 0 0 0.675090349   0 0 0 0 0.422751492   0 0 0 0 0.175085577  0 0 0 1 0" type="matrix" in="shadowBlurOuter1"></feColorMatrix>
        </filter>
    </defs>
    <g id="有智能推荐" stroke="none" stroke-width="1" fill="none" fill-rule="evenodd" transform="translate(-194.000000, -149.000000)">
        <g id="label" transform="translate(194.000000, 149.000000)">
            <path d="M16.8189547,2.45886462e-14 L119.38435,1.11022302e-14 C121.041204,1.07978711e-14 122.38435,1.34314575 122.38435,3 C122.38435,3.38635229 122.309722,3.76906749 122.164567,4.12711533 L120.087722,9.25 C117.820906,14.8414814 112.38999,18.5 106.35649,18.5 L3.79109501,18.5 C2.13424076,18.5 0.791095006,17.1568542 0.791095006,15.5 C0.791095006,15.1136477 0.865722674,14.7309325 1.0108772,14.3728847 L3.08772234,9.25 C5.35453913,3.65851858 10.7854547,2.59773317e-14 16.8189547,2.48689958e-14 Z" id="Rectangle-11" fill="url(#linearGradient-1)"></path>
            <path d="M122.636707,-9.72600459e-16 L125.853438,-1.77635684e-15 C127.510292,5.27719492e-15 128.853438,1.34314575 128.853438,3 C128.853438,3.38635229 128.778811,3.76906749 128.633656,4.12711533 L126.556811,9.25 C124.289994,14.8414814 118.859079,18.5 112.825578,18.5 L112.589747,18.5 C116.653559,16.9584886 119.969954,13.7316185 121.556811,9.5 L123.786797,3.55337032 C123.913109,3.21653915 123.977809,2.85973585 123.977809,2.5 C123.977809,1.45651462 123.445055,0.537460769 122.636707,-2.1012081e-12 Z" id="Combined-Shape" fill="url(#linearGradient-1)"></path>
            <g id="根据本次消费推荐">
                <use fill="black" fill-opacity="1" filter="url(#filter-3)" xlink:href="#path-2"></use>
                <use fill="#FFFFFF" fill-rule="evenodd" xlink:href="#path-2"></use>
            </g>
        </g>
    </g>
</svg>