<?xml version="1.0" encoding="UTF-8"?>
<svg width="27px" height="25px" viewBox="0 0 27 25" version="1.1" xmlns="http://www.w3.org/2000/svg" xmlns:xlink="http://www.w3.org/1999/xlink">
    <!-- Generator: Sketch 48.1 (47250) - http://www.bohemiancoding.com/sketch -->
    <title>送</title>
    <desc>Created with Sketch.</desc>
    <defs></defs>
    <g id="有智能推荐" stroke="none" stroke-width="1" fill="none" fill-rule="evenodd" transform="translate(-273.000000, -103.000000)">
        <g id="Group" transform="translate(191.500000, 90.000000)" fill="#FFFFFF">
            <g id="Group-4" transform="translate(0.000000, 12.000000)">
                <path d="M82.9912139,13.5253409 C83.1849195,13.7131938 83.3301965,13.8071188 83.4270493,13.8071188 C83.6422778,13.8071188 84.0296831,13.5149076 84.5892771,12.9304764 C85.148871,12.3460451 85.5739408,12.0538339 85.8644992,12.0538339 C86.0797276,12.0538339 86.2788109,12.1425409 86.4617551,12.3199575 C86.6662221,12.5078104 86.7576928,12.6904424 86.73617,12.867859 L86.445613,14.9342306 C87.4356638,17.3137006 87.9306818,18.5973428 87.9306818,18.7851957 L87.7531192,20.0375421 L90.158285,20.413246 L97.8305073,22.1646892 L106.983051,22.0707632 C107.66102,22.060327 108,22.1907784 108,22.4621215 C108,22.8482635 107.940813,23.1665651 107.822437,23.4170356 C107.76863,23.5213983 107.478076,23.7249026 106.950767,24.0275545 L106.627926,24.4658757 L105.449556,24.9981229 C104.846916,25.384265 104.481033,25.5982053 104.351896,25.6399504 C103.566312,25.8799847 102.700031,26 101.753026,26 C101.118102,26 100.149589,25.8904208 98.8474566,25.6712591 C98.0080657,25.5390663 96.3815166,24.9239432 93.9678092,23.8258899 C93.0961341,23.523238 91.8962535,23.0275225 90.3681317,22.3387285 C88.6032585,21.5351356 87.1074433,21.1333451 85.8806412,21.1333451 C85.7299813,21.1333451 85.5255174,21.1750896 85.2672433,21.2585798 C84.3740452,21.5612317 83.8628854,21.7125553 83.7337483,21.7125553 C83.5508042,21.7125553 83.3301983,21.587322 83.0719242,21.3368514 C82.9427871,21.2116162 82.7383232,20.8828785 82.4585262,20.3506287 C82.350912,20.1419032 82.2971057,20.032324 82.2971057,20.0218877 C82.3401514,19.8862162 82.404719,19.8183814 82.4908103,19.8183814 C82.6360893,19.8862171 82.7490825,19.9123074 82.8782196,19.9123074 C82.9427881,19.9123074 83.7283601,19.7662018 85.2349591,19.4739862 C86.3218627,19.2652607 86.8653064,18.832162 86.8653064,18.1746768 C86.8653064,18.1224955 86.4832817,16.995395 85.7192207,14.7933416 L86.1711982,12.5547724 C86.1066296,12.4712823 86.0205395,12.4295378 85.9129253,12.4295378 C85.8160725,12.4295378 85.7192212,12.4973726 85.6223684,12.6330441 C85.6008456,12.6539166 85.1703951,13.5514226 84.3310042,15.3255888 C84.3094814,15.3673339 84.2664364,15.3882061 84.2018678,15.3882061 C83.9543551,15.3882061 83.6691817,15.200356 83.3463391,14.8246503 C83.088065,14.5219984 82.9589298,14.214133 82.9589298,13.9010448 C82.9589298,13.7966821 82.9696911,13.6714487 82.9912139,13.5253409 Z M85.0735386,4.49279263 C85.6546554,4.49279263 86.1281509,4.58671767 86.4940392,4.77457057 C87.0536331,5.07722246 87.5163673,5.44770456 87.8822557,5.88602798 C88.0974841,6.15737105 88.2050967,6.39740171 88.2050967,6.60612715 C88.2050967,6.95052412 88.0329165,7.12272003 87.688551,7.12272003 C86.99982,7.12272003 86.3003381,6.53829756 85.5900843,5.3694351 L85.0735386,4.49279263 Z M91.5639687,13.2592173 L91.2734117,13.8853905 C92.1343255,13.5096847 92.7692398,13.2122554 93.1781739,12.9930937 C94.2758389,12.429535 95.0345077,12.1112335 95.4542032,12.0381796 C96.1967413,11.902508 96.6325723,11.7772746 96.7617094,11.6624757 C96.8262779,11.599858 96.9285099,11.323301 97.0684084,10.8327962 C97.2083069,10.3422914 97.2782551,9.86744814 97.2782551,9.40825217 C97.2782551,9.07429147 97.192165,8.81860664 97.0199822,8.64119001 C96.9338909,8.54726356 96.8478008,8.50030104 96.7617094,8.50030104 C96.6648566,8.50030104 96.5249602,8.54726356 96.342016,8.64119001 C96.3204932,8.65162628 95.8416171,8.78207773 94.9053734,9.03254826 C94.4533937,9.15778352 93.6570604,9.57001008 92.5163497,10.2692403 C92.4517812,10.3109854 92.3925943,10.3318576 92.3387872,10.3318576 C92.2096501,10.3318576 92.1020375,10.2640229 92.0159461,10.1283513 C91.962139,10.0344249 91.8921908,9.62741639 91.8060995,8.90731362 L93.1620318,8.78207898 C96.4119812,7.89499586 98.2252536,7.42537066 98.6019033,7.3731893 C99.7318526,7.21664522 100.668082,7.13837436 101.41062,7.13837436 C102.46524,7.13837436 103.315379,7.31057026 103.961065,7.65496724 C104.240862,7.81151132 104.380758,7.97848917 104.380758,8.15590579 C104.380758,8.39594005 104.267765,8.51595537 104.041775,8.51595537 C103.998729,8.51595537 103.939542,8.50551926 103.864212,8.48464672 C102.884923,8.1924311 101.706565,8.04632548 100.329103,8.04632548 C99.7802704,8.04632548 98.8601826,8.15590469 97.568812,8.37506641 C98.0853602,8.84469865 98.3705336,9.2203988 98.4243407,9.50217815 L98.7310397,11.1302284 C100.657334,10.9110667 101.658131,10.8014875 101.733461,10.8014875 C102.777319,10.8014875 103.665123,11.0467362 104.3969,11.537241 C104.62289,11.6937851 104.735883,11.8555449 104.735883,12.0225252 C104.735883,12.1164517 104.682077,12.2260309 104.574463,12.3512662 C104.466848,12.4765014 104.369997,12.5391181 104.283906,12.5391181 C104.251621,12.5391181 104.192434,12.5182459 104.106343,12.4765008 C103.374566,12.0694862 102.20697,11.8659819 100.603518,11.8659819 C99.8394568,11.8659819 99.2475875,11.9755611 98.827892,12.1947229 C98.5911408,12.3199581 98.3382511,13.4366225 98.0692156,15.5447494 C97.9185557,16.6718668 97.3051639,17.6372075 96.2290217,18.4408004 C95.4541993,19.0252317 94.7116724,19.3174429 94.0014185,19.3174429 C93.4418246,19.3174429 92.7800071,19.1243748 92.0159461,18.7382327 C91.6715806,18.5712523 91.375646,18.1903341 91.1281333,17.5954666 C91.4940216,17.6372117 91.8330013,17.6580839 92.1450825,17.6580839 C92.5863008,17.6580839 93.3503503,17.2928199 94.4372539,16.5622809 C94.9860864,16.1970113 95.3896337,15.7847848 95.6479078,15.3255888 C95.9922733,14.7307213 96.3097305,13.8332154 96.6002889,12.6330441 C94.3619132,13.2592204 92.9199043,13.8749512 92.274219,14.480255 C91.6392951,15.0751225 91.1980834,15.3725518 90.9505707,15.3725518 C90.7999108,15.3725518 90.6761563,15.3255893 90.5793035,15.2316628 C90.514735,15.1586089 90.4178836,14.9290144 90.2887466,14.5428723 C90.1703709,14.2924018 90.111184,14.1567323 90.111184,14.1358597 C90.111184,14.0732421 90.1327065,14.0158435 90.1757522,13.9636621 C90.2510822,13.8592994 90.4232623,13.7601563 90.6922979,13.6662299 C90.9075263,13.593176 91.1980803,13.4575065 91.5639687,13.2592173 Z M95.4380611,2.83343368 L94.9860837,4.35190367 L98.2629202,2.75516203 C96.1321587,4.4458381 94.9376588,5.56772051 94.6793847,6.12084293 C94.4856791,6.51742126 94.3188796,6.71570746 94.1789811,6.71570746 C93.9852755,6.71570746 93.8130953,6.6113463 93.6624354,6.40262086 C93.3073085,5.91211608 93.1297477,5.51554369 93.1297477,5.2128918 C93.1297477,4.82674974 93.8991778,4.03360496 95.4380611,2.83343368 Z M94.0337026,8.34375775 C96.185987,7.17489528 97.7759632,6.18868237 98.803679,5.38508943 C99.8313947,4.58149648 100.72727,3.6161558 101.491331,2.48903843 C101.685036,2.20725908 101.776507,1.99853677 101.765745,1.86286524 C101.754984,1.66457607 101.507475,1.56543297 101.023211,1.56543297 L100.732654,1.56543297 C100.711131,1.51325161 100.70037,1.47672521 100.70037,1.45585267 C100.711131,1.38279876 100.732654,1.33061818 100.764938,1.29930937 L101.572041,1.39323535 L101.136205,1.06449442 C102.621282,1.30452868 103.363809,1.75328164 103.363809,2.41076678 C103.363809,2.79690884 102.987165,3.30306044 102.233865,3.92923676 C101.986352,4.1379622 100.947891,4.90501669 99.118449,6.23042323 C98.3005809,6.82529074 97.4612026,7.2740437 96.6002889,7.57669559 C95.8685122,7.82716612 95.012992,8.08285095 94.0337026,8.34375775 Z M99.0538808,14.0262794 C100.130023,14.1828235 100.910214,14.4489445 101.394478,14.8246503 C102.298438,15.4925717 102.987158,16.2700623 103.460661,17.1571454 C103.718935,17.6372139 103.84807,18.0181321 103.84807,18.2999115 C103.84807,18.5712545 103.751219,18.8112852 103.557513,19.0200106 C103.503706,19.0826283 103.444519,19.1139366 103.379951,19.1139366 C103.024824,19.1139366 102.572851,18.8269434 102.024018,18.2529485 C101.615084,17.8354976 101.367575,17.5380683 101.281484,17.3606517 L100.006262,14.8716132 C99.9309319,14.7150692 99.6619004,14.4698205 99.1991592,14.1358597 L99.0538808,14.0262794 Z" id="送"></path>
            </g>
        </g>
    </g>
</svg>