<?xml version="1.0" encoding="UTF-8"?>
<svg width="21px" height="16px" viewBox="0 0 21 16" version="1.1" xmlns="http://www.w3.org/2000/svg" xmlns:xlink="http://www.w3.org/1999/xlink">
    <!-- Generator: Sketch 49 (51002) - http://www.bohemiancoding.com/sketch -->
    <title>tips</title>
    <desc>Created with Sketch.</desc>
    <defs>
        <linearGradient x1="0%" y1="0%" x2="101.999998%" y2="100.999999%" id="linearGradient-1">
            <stop stop-color="#3023AE" offset="0%"></stop>
            <stop stop-color="#FFB9EC" offset="100%"></stop>
        </linearGradient>
        <path d="M2.84131674,10.521682 L2.42814794,10.521682 L2.27320964,10.4700359 L2.01497915,10.4700359 L1.91168695,10.4442129 C1.84282514,10.4269974 1.80839475,10.4011746 1.80839475,10.3667437 C1.77396384,10.3667437 1.74814105,10.3495285 1.7309256,10.3150976 C1.71371015,10.2806667 1.68788736,10.2634515 1.65345645,10.2634515 C1.65345645,10.2290206 1.64484885,10.1773751 1.6276334,10.1085132 C1.61041795,10.0396514 1.58459516,9.97079066 1.55016425,9.90192885 C1.51573335,9.83306704 1.48991055,9.74699107 1.4726951,9.64369835 C1.45547965,9.54040564 1.42965686,9.43711447 1.39522595,9.33382175 C1.36079505,9.23052904 1.33497226,9.14445307 1.3177568,9.07559126 C1.30054135,9.00672945 1.29193375,8.95508386 1.29193375,8.92065296 L1.24028765,5.97682529 L1.16281851,6.00264834 C1.11117215,6.01986379 1.08534936,6.04568658 1.08534936,6.08011749 L0.930411058,6.23505579 C0.895980153,6.23505579 0.852942167,6.24366338 0.801295809,6.26087884 C0.749649452,6.27809429 0.706611466,6.30391708 0.672180561,6.33834799 L0.259011765,6.33834799 C0.259011765,6.30391708 0.250404168,6.27809429 0.233188715,6.26087884 L0.207365666,6.23505579 C0.172934761,6.20062488 0.138504372,6.1403717 0.104073467,6.05429444 L0.0524273673,5.92517919 C0.0524273673,5.89074829 0.0438197702,5.8563179 0.0266043176,5.82188699 L0.000781267881,5.77024089 C0.000781267881,5.73580999 0.00938886505,5.7013796 0.0266043176,5.66694869 L0.0524273673,5.61530259 L0.77547276,4.8406111 L0.904588008,4.788965 C0.990665271,4.7545341 1.05091845,4.72010371 1.08534936,4.6856728 L1.13699546,4.6856728 C1.17142636,4.6856728 1.21446435,4.67706521 1.2661107,4.65984975 C1.31775706,4.6426343 1.36079505,4.6340267 1.39522595,4.6340267 L1.49851815,4.6340267 C1.53294906,4.6340267 1.57598704,4.60820391 1.6276334,4.55655756 C1.67927976,4.5049112 1.70510255,4.44465802 1.70510255,4.37579621 C1.70510255,4.3413653 1.71371015,4.29832732 1.7309256,4.24668096 C1.74814105,4.1950346 1.75674865,4.13478142 1.75674865,4.06591961 C1.75674865,3.9970578 1.76535625,3.92819702 1.7825717,3.85933521 C1.79978715,3.7904734 1.80839475,3.73882782 1.80839475,3.70439691 C1.80839475,3.66996601 1.81700235,3.60971283 1.8342178,3.52363557 L1.93751,3.00717457 C1.95472545,2.92109731 1.96333305,2.86084413 1.96333305,2.82641322 L1.9891561,2.74894407 C2.00637155,2.69729772 2.02358674,2.63704454 2.0408022,2.56818273 C2.05801765,2.49932092 2.07523284,2.43906774 2.0924483,2.38742138 L2.11827135,2.30995223 C2.11827135,2.27552132 2.13548654,2.24109094 2.16991744,2.20666003 C2.20434835,2.17222913 2.22156354,2.13779874 2.22156354,2.10336783 C2.29042535,2.00007512 2.41093171,1.93121434 2.58308624,1.89678343 L2.78967064,1.89678343 L2.99625504,1.94842953 L3.15119333,2.02589868 C3.18562424,2.04311414 3.22005463,2.06893693 3.25448553,2.10336783 L3.25448553,2.98135152 C3.25448553,3.01578243 3.23727034,3.07603561 3.20283943,3.16211287 C3.16840853,3.24819013 3.15119333,3.30844331 3.15119333,3.34287422 L3.15119333,3.39452032 C3.15119333,3.42895122 3.14258574,3.47198921 3.12537028,3.52363557 C3.10815483,3.57528192 3.09954723,3.61831991 3.09954723,3.65275082 L3.09954723,3.70439691 C3.09954723,3.73882782 3.08233204,3.7904734 3.04790114,3.85933521 L2.99625504,3.96262741 L2.99625504,4.09174266 C2.99625504,4.14338902 2.98764744,4.1950346 2.97043199,4.24668096 C2.95321653,4.29832732 2.94460894,4.3499729 2.94460894,4.40161926 L2.94460894,4.53073451 C2.94460894,4.59959632 2.96182413,4.6340267 2.99625504,4.6340267 C3.03068594,4.6340267 3.07372393,4.6426343 3.12537028,4.65984975 C3.17701664,4.67706521 3.23726982,4.6942804 3.30613163,4.71149585 L3.51271603,4.76314195 C3.58157784,4.78035741 3.63322342,4.788965 3.66765433,4.788965 L3.74512348,4.788965 C3.79676984,4.788965 3.84841542,4.7975726 3.90006178,4.81478805 C3.95170813,4.83200351 4.00335372,4.8406111 4.05500007,4.8406111 L4.13246922,4.8406111 C4.47677828,4.90947291 4.80386697,5.02997927 5.11374511,5.2021338 L5.26868341,5.2537799 L5.37197561,5.3570721 L5.42362171,5.5120104 C5.45805262,5.5464413 5.53552099,5.58087169 5.65602916,5.61530259 C5.77653733,5.6497335 5.8540057,5.66694869 5.88843661,5.66694869 L5.88843661,5.77024089 L5.75932136,5.77024089 C5.67324409,5.77024089 5.56995293,5.77884849 5.44944476,5.79606394 C5.32893659,5.8132794 5.23425302,5.82188699 5.16539121,5.82188699 L4.77804547,5.82188699 C4.72639911,5.82188699 4.66614593,5.8132794 4.59728412,5.79606394 C4.52842231,5.77884849 4.46816913,5.77024089 4.41652277,5.77024089 L4.28740752,5.77024089 C4.25297662,5.77024089 4.17550824,5.7616333 4.05500007,5.74441784 C3.93449191,5.72720239 3.80537795,5.71859479 3.66765433,5.71859479 C3.52993071,5.71859479 3.40081675,5.7099872 3.28030858,5.69277174 C3.15980041,5.67555629 3.06511685,5.66694869 2.99625504,5.66694869 L2.94460894,5.77024089 L2.73802454,5.77024089 C2.70359363,5.77024089 2.66055565,5.77884849 2.60890929,5.79606394 L2.53144014,5.82188699 L2.50561709,5.87353309 C2.48840164,5.907964 2.47979404,5.95100198 2.47979404,6.00264834 C2.47979404,6.0542947 2.47118644,6.10594028 2.45397099,6.15758664 L2.42814794,6.23505579 C2.42814794,6.26948669 2.41954034,6.32113228 2.40232489,6.38999409 C2.38510944,6.4588559 2.37650184,6.51050148 2.37650184,6.54493238 L2.42814794,9.33382175 L2.58308624,9.64369835 L2.84131674,10.521682 Z M6.20329815,8.76571466 L6.20329815,8.19760757 C6.16886724,8.16317666 6.16025965,8.12013868 6.1774751,8.06849232 C6.19469055,8.01684596 6.20329815,7.97380797 6.20329815,7.93937707 L6.20329815,7.68114657 C6.20329815,7.61228476 6.21190575,7.54342398 6.2291212,7.47456217 L6.25494425,7.37126998 C6.25494425,7.33683907 6.26355185,7.27658589 6.2807673,7.19050863 C6.29798275,7.10443136 6.30659035,7.04417818 6.30659035,7.00974728 L6.51317475,6.38999409 C6.51317475,6.35556318 6.53038994,6.3125252 6.56482085,6.26087884 C6.59925175,6.20923248 6.63368214,6.18340969 6.66811304,6.18340969 L6.71975914,6.18340969 L6.82305134,6.13176359 L7.02963574,6.13176359 L7.10710489,6.15758664 C7.15875125,6.17480209 7.20178923,6.20062488 7.23622014,6.23505579 C7.23622014,6.26948669 7.25343533,6.29530948 7.28786624,6.31252494 C7.32229714,6.32974039 7.33951234,6.35556318 7.33951234,6.38999409 L7.44280454,6.90645508 L7.44280454,7.00974728 C7.44280454,7.04417818 7.45141213,7.09582377 7.46862759,7.16468558 C7.48584304,7.23354739 7.49445064,7.28519297 7.49445064,7.31962388 L7.49445064,7.42291608 L7.44280454,7.57785437 C7.44280454,7.61228528 7.43419694,7.66393086 7.41698149,7.73279267 L7.39115844,7.83608487 L7.39115844,8.14596147 L7.44280454,8.45583806 L7.49445064,8.66242246 L7.49445064,8.79153771 C7.49445064,8.87761497 7.48584304,8.97229854 7.46862759,9.07559126 C7.45141213,9.17888397 7.44280454,9.27356754 7.44280454,9.3596448 L7.44280454,9.54040615 L7.46862759,9.59205225 C7.48584304,9.62648316 7.50305823,9.66952114 7.52027368,9.7211675 C7.53748914,9.77281386 7.54609673,9.81585184 7.54609673,9.85028275 L7.54609673,9.90192885 C7.58052764,9.93635975 7.59774283,9.97939774 7.59774283,10.0310441 C7.59774283,10.0826905 7.58052764,10.1257284 7.54609673,10.1601593 C7.54609673,10.1945903 7.52888154,10.220413 7.49445064,10.2376285 L7.44280454,10.2634515 C7.40837363,10.2634515 7.34812045,10.2720591 7.26204319,10.2892746 C7.17596592,10.30649 7.11571274,10.3150976 7.08128184,10.3150976 L6.97798964,10.2634515 L6.92634354,10.2634515 C6.89191264,10.2290206 6.84026705,10.1945903 6.77140524,10.1601593 C6.70254343,10.1257284 6.65089785,10.0740829 6.61646694,10.005221 C6.51317423,9.86749743 6.44431345,9.75559866 6.40988255,9.6695214 C6.37545164,9.58344414 6.34962885,9.49736817 6.3324134,9.4112909 C6.31519795,9.32521364 6.30659035,9.23913767 6.30659035,9.15306041 C6.30659035,9.06698314 6.27215996,8.93786919 6.20329815,8.76571466 Z M6.18457404,3.13628982 L6.18457404,2.36159833 L6.33951234,2.20666003 C6.37394324,2.17222913 6.40837363,2.14640633 6.44280454,2.12919088 L6.49445064,2.10336783 L6.85597333,2.10336783 L6.90761943,2.12919088 C6.94205034,2.14640633 6.97648072,2.17222913 7.01091163,2.20666003 L7.16584993,2.36159833 C7.16584993,2.39602923 7.18306512,2.44767482 7.21749603,2.51653663 C7.25192693,2.58539844 7.26914213,2.67147441 7.26914213,2.77476712 C7.30357303,2.87805984 7.33800342,2.9899586 7.37243433,3.11046677 C7.40686523,3.23097494 7.42408043,3.30844331 7.42408043,3.34287422 L7.42408043,3.65275082 L7.37243433,3.75604301 C7.33800342,3.82490482 7.32078823,3.87655041 7.32078823,3.91098131 L7.24331908,4.01427351 C7.19167272,4.08313532 7.15724233,4.12617331 7.14002688,4.14338876 L6.90761943,4.37579621 L6.85597333,4.37579621 C6.82154243,4.3413653 6.76128925,4.30693491 6.67521198,4.27250401 C6.58913472,4.2380731 6.52888154,4.22085791 6.49445064,4.22085791 C6.49445064,4.186427 6.47723544,4.14338902 6.44280454,4.09174266 C6.40837363,4.0400963 6.37394324,3.99705832 6.33951234,3.96262741 L6.31368929,3.83351216 C6.29647383,3.7474349 6.28786624,3.68718172 6.28786624,3.65275082 C6.28786624,3.61831991 6.27925864,3.57528192 6.26204319,3.52363557 C6.24482774,3.47198921 6.23622014,3.42034363 6.23622014,3.36869727 C6.23622014,3.31705091 6.22761254,3.27401292 6.21039709,3.23958202 C6.19318164,3.20515111 6.18457404,3.17072073 6.18457404,3.13628982 Z M8.10994779,12.6417261 C8.07376209,12.6091443 8.04572226,12.5675168 8.02582744,12.5168422 L7.99598535,12.4408307 L7.97706472,12.0798034 L7.99879796,12.001089 C8.01328685,11.9486124 8.01963022,11.9051829 8.01782825,11.8707992 C8.01602627,11.8364155 8.02282013,11.8015818 8.03821001,11.7662971 C8.0535999,11.7310124 8.06039375,11.6961787 8.05859178,11.661795 C8.10573552,11.2455864 8.48919001,8.03628449 8.53467799,6.93059957 C8.60178966,6.23751927 8.65396116,5.58832935 8.69119404,4.98301032 C8.72842693,4.37769129 8.78690524,3.84884258 8.86663073,3.39644831 C8.89200458,3.22272774 8.92777579,3.0829425 8.97394545,2.97708838 C9.0201151,2.87123426 9.10836209,2.7459377 9.23868907,2.60119492 L9.23058023,2.44646896 C9.22877825,2.41208525 9.21793002,2.36955673 9.1980352,2.31888214 L9.16819312,2.24287063 L9.16008427,2.08814467 C9.1582823,2.05376095 9.16507615,2.01892726 9.18046604,1.98364256 L9.20355075,1.93071576 C9.36645947,1.7497873 9.53251916,1.62903215 9.70173479,1.5684467 C9.87095042,1.50786125 10.0428664,1.49885151 10.217488,1.54141722 C10.3921095,1.58398293 10.5603851,1.66997748 10.7223197,1.79940347 C10.8842544,1.92882947 11.0466371,2.06684932 11.2094727,2.21346717 C11.3723083,2.36008502 11.5269962,2.51574695 11.6735409,2.68045765 C11.8200857,2.84516835 11.9838198,3.0089756 12.1647483,3.17188432 C12.3456767,3.33479304 12.4858759,3.54293076 12.58535,3.79630371 C12.6848241,4.04967667 12.7408673,4.29670246 12.7534811,4.53738849 L12.7724017,4.89841573 L12.7316382,5.10741996 L12.7370441,5.2105706 L12.7913223,5.25944297 C12.7931243,5.29382669 12.8189117,5.29247523 12.8686853,5.25538855 C12.9184589,5.21830187 12.960537,5.19885783 12.9949207,5.19705586 C13.0962699,5.15726622 13.2139082,5.0993846 13.3478391,5.02340926 C13.48177,4.94743393 13.6165999,4.88865133 13.7523328,4.84705972 C13.853682,4.80727008 13.9414419,4.83714841 14.0156153,4.93669562 C14.0897887,5.03624283 14.1340826,5.22354849 14.1484984,5.49861824 C14.1159166,5.53480394 14.0742891,5.56284377 14.0236145,5.5827386 L13.8715915,5.64242276 C13.8209169,5.66231758 13.7788389,5.68176162 13.7453561,5.70075545 C13.7118734,5.71974928 13.6779407,5.73014703 13.643557,5.73194901 C13.5765915,5.76993667 13.4842901,5.81787103 13.3666501,5.87575352 C13.24901,5.93363601 13.1141801,5.9924186 12.9621563,6.05210307 C12.8101326,6.11178753 12.6667069,6.17102061 12.531875,6.22980408 C12.3970431,6.28858756 12.2789543,6.33787338 12.1776051,6.37766302 L12.0744545,6.38306892 C12.0400707,6.38487089 11.9975422,6.39571913 11.9468676,6.41561395 C11.896193,6.43550877 11.8536645,6.446357 11.8192808,6.44815898 L11.7161302,6.45356487 C11.6491647,6.49155254 11.5826507,6.53813544 11.5165862,6.59331497 C11.4505218,6.64849449 11.3758625,6.70412368 11.2926062,6.76020419 C11.2093498,6.81628471 11.13424,6.86331809 11.0672746,6.90130576 C11.0003091,6.93929343 10.9324437,6.96008892 10.8636762,6.96369287 L10.6057996,6.97720761 C10.5026485,6.98261353 10.4076442,6.97897309 10.3207839,6.96628617 L10.0602044,6.92822558 C9.97334408,6.91553866 9.91182201,6.89290467 9.87563632,6.86032292 C9.8412526,6.8621249 9.81456422,6.84628476 9.79557039,6.81280202 C9.77657656,6.77931929 9.74039141,6.74673804 9.68701385,6.71505728 C9.6336363,6.68337652 9.58930584,6.65984155 9.55402113,6.64445167 C9.51873642,6.62906178 9.50019336,6.60417536 9.49839139,6.56979164 L9.44681607,6.57249459 C9.44861804,6.6068783 9.44182419,6.64171199 9.4264343,6.6769967 C9.41104442,6.71228141 9.38615799,6.73082447 9.35177427,6.73262644 C9.30282855,7.1144513 9.26157839,7.47862834 9.22802256,7.82516849 C9.19446672,8.17170863 8.80602049,11.4502305 8.7045251,12.1451128 C8.67194335,12.1812985 8.65700419,12.2251785 8.65970715,12.2767541 L8.66646452,12.4056924 C8.63388277,12.4418781 8.601752,12.486659 8.57007125,12.5400366 L8.47502945,12.7001684 C8.44334869,12.753546 8.41121792,12.7983269 8.37863618,12.8345126 C8.34605444,12.8706983 8.31167123,12.8725003 8.27548554,12.8399185 L8.22391022,12.8426215 L8.16828048,12.7679614 C8.1311938,12.7181878 8.11174976,12.6761098 8.10994779,12.6417261 Z M10.1992306,6.08011749 C10.1992306,6.11454839 10.2078382,6.13176359 10.2250537,6.13176359 L10.2508767,6.13176359 C10.2508767,6.16619449 10.2680919,6.18340969 10.3025228,6.18340969 C10.3369537,6.18340969 10.3713841,6.16619449 10.405815,6.13176359 C10.4402459,6.13176359 10.4574611,6.11454839 10.4574611,6.08011749 L10.405815,6.02847139 L10.2508767,6.02847139 L10.1992306,6.08011749 Z M11.1805065,5.1504877 C11.2149374,5.1504877 11.2579754,5.1590953 11.3096218,5.17631075 C11.3612681,5.1935262 11.4043061,5.2107414 11.438737,5.22795685 C11.4731679,5.2451723 11.5162059,5.2623875 11.5678523,5.27960295 L11.6453214,5.305426 L11.9035519,5.305426 C11.9035519,5.27099509 11.9293747,5.22795711 11.9810211,5.17631075 L12.1101363,5.0471955 L12.1101363,4.9439033 C12.1101363,4.66845606 12.0670983,4.43605094 11.9810211,4.24668096 C11.8949438,4.05731098 11.7744374,3.87655144 11.6194984,3.70439691 C11.4645593,3.53224239 11.2924074,3.37730564 11.1030374,3.23958202 C10.9136674,3.1018584 10.7156927,2.94692165 10.5091072,2.77476712 L10.3541689,2.72312103 L10.1475845,2.72312103 C10.1131536,2.72312103 10.0787232,2.74033622 10.0442923,2.77476712 C10.0442923,2.84362893 10.0356847,2.92109731 10.0184693,3.00717457 C10.0012538,3.09325184 9.99264623,3.17072021 9.99264623,3.23958202 C9.95821533,3.30844383 9.94100013,3.4031274 9.94100013,3.52363557 L9.94100013,4.27250401 L9.91517709,4.32415011 C9.89796163,4.35858101 9.88935404,4.3930114 9.88935404,4.42744231 L9.88935404,4.6856728 C9.88935404,4.72010371 9.89796163,4.7459265 9.91517709,4.76314195 L9.94100013,4.788965 L9.99264623,4.788965 C10.0270771,4.788965 10.0701151,4.7975726 10.1217615,4.81478805 C10.1734078,4.83200351 10.2164458,4.8406111 10.2508767,4.8406111 L10.3541689,4.8406111 L10.4316381,4.86643415 C10.4832844,4.8836496 10.5091072,4.9094724 10.5091072,4.9439033 C10.5435381,4.9439033 10.5951837,4.9525109 10.6640455,4.96972635 L10.7673377,4.9955494 C10.8017686,4.9955494 10.836199,5.004157 10.8706299,5.02137245 L10.9739221,5.07301855 C11.008353,5.090234 11.051391,5.1074492 11.1030374,5.12466465 L11.1805065,5.1504877 Z M14.4530313,10.2744619 L14.3699856,10.2537005 C14.3146215,10.2398594 14.2661787,10.232939 14.2246557,10.232939 C14.1831326,10.232939 14.1346898,10.2260186 14.0793257,10.2121776 L13.99628,10.1914162 L13.7886658,10.1498934 L13.3319145,10.1498934 C13.2765505,10.1498934 13.2211872,10.1429729 13.1658232,10.1291319 C13.1104591,10.1152909 13.0620163,10.1083705 13.0204932,10.1083705 C12.9789702,10.1083705 12.9443681,10.0945297 12.9166861,10.0668477 L12.8959247,10.0668477 C12.8820837,10.0668477 12.8751633,10.0530069 12.8751633,10.0253248 C12.8474812,10.0253248 12.8336404,10.011484 12.8336404,9.98380198 L12.8751633,9.98380198 C12.8751633,9.95611994 12.8820837,9.92151792 12.8959247,9.87999487 C12.9097657,9.83847182 12.9166861,9.8038698 12.9166861,9.77618776 C12.9443681,9.77618776 12.9789702,9.75542655 13.0204932,9.7139035 L13.0827775,9.65161923 L14.4530313,9.65161923 L14.4530313,9.5270507 C14.4530313,9.49936867 14.4253497,9.45784624 14.3699856,9.40248217 L14.2454171,9.27791364 C14.2177351,9.27791364 14.1762126,9.25023203 14.1208486,9.19486796 L13.9547572,9.02877659 C13.8993931,8.97341252 13.8440299,8.92496969 13.7886658,8.88344663 L13.7056201,8.82116237 L13.4564831,8.57202531 C13.428801,8.54434328 13.4011194,8.53050247 13.3734374,8.53050247 C13.3734374,8.50282043 13.3526762,8.46821841 13.3111531,8.42669536 L13.2488689,8.3644111 C13.2211868,8.33672906 13.1865848,8.28828623 13.1450617,8.21908114 C13.1035387,8.14987606 13.0827775,8.10835363 13.0827775,8.09451262 C13.0827775,8.0806716 13.0689367,8.04606957 13.0412546,7.99070551 C13.0135726,7.93534144 12.9997318,7.89381901 12.9997318,7.86613698 L12.9582089,7.80385271 C12.9305269,7.76232966 12.9166861,7.72772764 12.9166861,7.70004561 L12.9166861,6.99415727 C12.9166861,6.96647524 12.9305269,6.91803241 12.9582089,6.84882732 C12.985891,6.77962224 12.9997318,6.7311794 12.9997318,6.70349737 C13.0274138,6.70349737 13.0689363,6.68273616 13.1243003,6.64121311 C13.1796644,6.59969005 13.2211868,6.56508803 13.2488689,6.537406 C13.331915,6.48204193 13.4426414,6.41975829 13.5810516,6.3505532 C13.7194618,6.28134812 13.8301882,6.2467461 13.9132343,6.2467461 C14.1346906,6.13601796 14.3492232,6.0529731 14.5568384,5.99760904 C14.7644537,5.94224497 14.992827,5.87304092 15.2419653,5.78999482 C15.2419653,5.76231279 15.2904082,5.73463117 15.3872953,5.70694913 L15.5326252,5.66542629 C15.6433534,5.63774426 15.7540798,5.61698304 15.864808,5.60314203 C15.9755361,5.58930101 16.0862626,5.58238061 16.1969907,5.58238061 L16.3630821,5.58238061 C16.3907641,5.58238061 16.4322865,5.58930101 16.4876506,5.60314203 C16.5430147,5.61698304 16.5845371,5.62390345 16.6122191,5.62390345 C16.6399012,5.62390345 16.6814236,5.63774426 16.7367877,5.66542629 C16.7921517,5.69310833 16.8198334,5.72078994 16.8198334,5.74847198 L16.8613562,5.81075624 C16.8890382,5.85227929 16.902879,5.88688132 16.902879,5.91456335 C16.9305611,5.94224538 16.9305611,5.969927 16.902879,5.99760904 L16.8198334,6.08065472 L16.6952648,6.2467461 C16.6675828,6.2467461 16.6468216,6.27442771 16.6329806,6.32979178 C16.6191395,6.38515585 16.6122191,6.42667828 16.6122191,6.45436031 C16.5845371,6.45436031 16.5568555,6.46820112 16.5291735,6.49588315 L16.4253664,6.59969026 C16.3838433,6.64121331 16.3354005,6.68273574 16.2800364,6.72425879 C16.2246723,6.76578184 16.1831499,6.80038387 16.1554679,6.8280659 L16.0724222,6.91111159 L15.9686151,6.91111159 C15.927092,6.91111159 15.8786492,6.91803199 15.8232851,6.93187301 C15.7679211,6.94571402 15.7125578,6.95263443 15.6571938,6.95263443 L15.3665339,6.95263443 C15.2834877,6.95263443 15.1935225,6.95955483 15.0966354,6.97339585 C14.9997483,6.98723687 14.9167034,6.99415727 14.8474983,6.99415727 L14.7021684,6.99415727 L14.6191227,7.03568012 C14.5637586,7.06336215 14.5083954,7.08412336 14.4530313,7.09796438 C14.3976672,7.1118054 14.342304,7.13256661 14.2869399,7.16024864 C14.2315759,7.18793068 14.1900534,7.2156123 14.1623714,7.24329433 L14.0793257,7.28481717 L13.9132343,7.45090855 L13.9132343,7.65852276 L13.9755186,7.74156845 C14.0170417,7.79693252 14.0516437,7.83845494 14.0793257,7.86613698 C14.0793257,7.89381901 14.0931665,7.92842103 14.1208486,7.96994409 C14.1485306,8.01146714 14.1831326,8.05298956 14.2246557,8.09451262 C14.2661787,8.13603567 14.3007807,8.17755809 14.3284628,8.21908114 L14.3699856,8.28136541 L14.4322699,8.34364967 C14.4461109,8.35749069 14.4530313,8.3782519 14.4530313,8.40593394 L15.8232851,9.44400502 L15.9893765,9.61009639 L15.9893765,10.0253248 L15.9686151,10.0876091 C15.9547741,10.1291321 15.9340128,10.1498934 15.9063308,10.1498934 L15.8440465,10.1914162 C15.8025235,10.2190982 15.7748419,10.2398594 15.7610009,10.2537005 C15.7471598,10.2675415 15.7194782,10.2813823 15.6779552,10.2952233 L15.6156709,10.3159847 L14.7644526,10.3159847 C14.7229296,10.3159847 14.6814071,10.3090643 14.6398841,10.2952233 C14.598361,10.2813823 14.5568386,10.2744619 14.5153156,10.2744619 L14.4530313,10.2744619 Z" id="path-2"></path>
        <filter x="-20.7%" y="-22.0%" width="141.4%" height="161.7%" filterUnits="objectBoundingBox" id="filter-3">
            <feOffset dx="0" dy="1" in="SourceAlpha" result="shadowOffsetOuter1"></feOffset>
            <feGaussianBlur stdDeviation="1" in="shadowOffsetOuter1" result="shadowBlurOuter1"></feGaussianBlur>
            <feColorMatrix values="0 0 0 0 0.415686275   0 0 0 0 0.247058824   0 0 0 0 0.741176471  0 0 0 1 0" type="matrix" in="shadowBlurOuter1"></feColorMatrix>
        </filter>
    </defs>
    <g id="推荐广告-V3.2" stroke="none" stroke-width="1" fill="none" fill-rule="evenodd">
        <g id="有智能推荐" transform="translate(-58.000000, -645.000000)">
            <g id="tips" transform="translate(60.000000, 645.000000)">
                <circle id="Oval-7" fill="url(#linearGradient-1)" cx="9" cy="7" r="7"></circle>
                <g>
                    <use fill="black" fill-opacity="1" filter="url(#filter-3)" xlink:href="#path-2"></use>
                    <use fill="#FFFFFF" fill-rule="evenodd" xlink:href="#path-2"></use>
                </g>
            </g>
        </g>
    </g>
</svg>