<?xml version="1.0" encoding="UTF-8"?>
<svg width="25px" height="25px" viewBox="0 0 25 25" version="1.1" xmlns="http://www.w3.org/2000/svg" xmlns:xlink="http://www.w3.org/1999/xlink">
    <!-- Generator: Sketch 49 (51002) - http://www.bohemiancoding.com/sketch -->
    <title>推荐办理ico</title>
    <desc>Created with Sketch.</desc>
    <defs></defs>
    <g id="推荐广告-V3.2" stroke="none" stroke-width="1" fill="none" fill-rule="evenodd">
        <g id="有智能推荐" transform="translate(-15.000000, -604.000000)" fill="#FFFFFF">
            <g id="Group-11" transform="translate(8.000000, 598.000000)">
                <g id="推荐办理ico" transform="translate(7.000000, 6.000000)">
                    <path d="M3.39277658,0.835824604 L3.39277658,2.47618618 L4.33000378,2.47618618 C4.61117334,2.50743132 4.76737631,2.64803233 4.79861737,2.89799344 C4.79861737,3.17919969 4.6580347,3.31980071 4.37686514,3.31980071 L3.43963794,3.31980071 L3.43963794,5.9912467 L4.1894197,5.61630691 C4.47058926,5.5225715 4.68927342,5.60068317 4.84547873,5.85064428 C4.93920192,6.10060539 4.84548014,6.30369575 4.56431057,6.45992144 C4.1269357,6.67863741 3.75204857,6.85048309 3.43963794,6.97546365 L3.43963794,10.3499217 C3.43963794,11.3497662 2.76796517,11.6778352 1.42459947,11.3341387 C1.08094778,11.2091581 0.92474481,11.0060678 0.955985873,10.7248615 C1.04970906,10.4749004 1.26839322,10.3967888 1.61204491,10.4905242 C2.33058935,10.7404853 2.64299529,10.6311289 2.5492721,10.1624519 L2.5492721,7.35040344 C2.48678998,7.38164858 2.3930682,7.41289325 2.26810395,7.44413839 C2.04941651,7.5378738 1.84635265,7.60036314 1.65890627,7.63160828 C1.34649564,7.7253437 1.12781148,7.66285436 1.00284723,7.44413839 C0.877882982,7.16293214 0.971604764,6.95984178 1.28401539,6.83486123 C1.34649752,6.80361609 1.50270049,6.74112675 1.75262899,6.64739133 C2.09628068,6.52241078 2.36182573,6.41305443 2.5492721,6.31931902 L2.5492721,3.31980071 L1.47146083,3.31980071 C1.19029127,3.31980071 1.0340883,3.19482203 1.00284723,2.94486092 C0.97160617,2.66365467 1.09656855,2.50743132 1.37773811,2.47618618 L2.5492721,2.47618618 L2.5492721,0.835824604 C2.5492721,0.585863495 2.68985478,0.44526248 2.97102434,0.414017342 C3.22095284,0.44526248 3.36153552,0.585863495 3.39277658,0.835824604 Z M6.29818089,0.788957131 C6.42314514,0.476505744 6.626209,0.367149399 6.90737856,0.460884815 C7.18854813,0.58586537 7.28226991,0.80457806 7.18854672,1.11702945 C7.09482353,1.39823569 6.92300027,1.77317173 6.67307176,2.24184881 C6.6418307,2.33558423 6.61059011,2.4136959 6.57934904,2.47618618 L8.64124887,2.47618618 C8.4538025,2.0075091 8.26635893,1.60132839 8.07891256,1.25763187 C7.92270724,0.945180481 7.96956813,0.710845456 8.21949664,0.554619763 C8.5006662,0.460884347 8.73497066,0.554618357 8.92241703,0.835824604 C9.29730978,1.58570793 9.54723454,2.13248966 9.67219879,2.47618618 L11.5466532,2.47618618 C11.7965817,2.50743132 11.9371644,2.66365467 11.9684054,2.94486092 C11.9371644,3.22606717 11.7965817,3.36666818 11.5466532,3.36666818 L9.29730791,3.36666818 L9.29730791,5.05389723 L11.4529305,5.05389723 C11.7341,5.08514237 11.890303,5.24136572 11.9215441,5.52257197 C11.9215441,5.80377821 11.7809614,5.94437923 11.4997918,5.94437923 L9.29730791,5.94437923 L9.29730791,7.63160828 L11.4997918,7.63160828 C11.7809614,7.66285342 11.9215441,7.80345443 11.9215441,8.05341554 C11.9215441,8.33462179 11.7809614,8.4752228 11.4997918,8.4752228 L9.29730791,8.4752228 L9.29730791,10.2093193 L11.6872373,10.2093193 C11.9371658,10.2093193 12.0777484,10.3499203 12.1089895,10.6311266 C12.0777484,10.9123328 11.9371658,11.0685562 11.6872373,11.0998013 L6.15759681,11.0998013 C6.12635574,11.3810076 5.97015277,11.5216086 5.68898321,11.5216086 C5.40781364,11.5216086 5.26723097,11.3810076 5.26723097,11.0998013 L5.26723097,4.3977526 C5.14226672,4.58522343 4.98606375,4.75706912 4.79861737,4.91329481 C4.51744781,5.16325592 4.26752306,5.21012292 4.04883562,5.05389723 C3.83014818,4.83518126 3.84576848,4.5852239 4.09569698,4.30401765 C5.09541098,3.30417322 5.82956494,2.13249809 6.29818089,0.788957131 Z M6.57934904,3.36666818 C6.26693842,3.36666818 6.12635574,3.50726919 6.15759681,3.78847544 L6.15759681,5.05389723 L8.45380343,5.05389723 L8.45380343,3.36666818 L6.57934904,3.36666818 Z M6.15759681,5.94437923 L6.15759681,7.63160828 L8.45380343,7.63160828 L8.45380343,5.94437923 L6.15759681,5.94437923 Z M6.15759681,10.2093193 L8.45380343,10.2093193 L8.45380343,8.4752228 L6.15759681,8.4752228 L6.15759681,10.2093193 Z M19.363849,2.71052355 C19.3326079,2.74176869 19.3013673,2.81988036 19.2701262,2.94486092 L24.1437076,2.94486092 C24.4561183,2.97610606 24.6279415,3.14795174 24.6591826,3.46040313 C24.6279415,3.77285451 24.4717386,3.92907786 24.190569,3.92907786 L18.7546513,3.92907786 C17.8174194,4.96016744 16.9739234,5.77252886 16.2241378,6.36618649 L16.2241378,10.9591989 C16.1928968,11.2404052 16.0210735,11.3810062 15.7086629,11.3810062 C15.3962523,11.3810062 15.2400493,11.2404052 15.2400493,10.9591989 L15.2400493,7.02233112 C14.9276387,7.27229223 14.5683718,7.49100492 14.162238,7.67847575 C13.8810685,7.83470145 13.6780046,7.78783444 13.5530403,7.53787333 C13.396835,7.25666708 13.4436959,7.02233206 13.6936244,6.83486123 C15.0994722,6.0849779 16.349096,5.11639313 17.4425332,3.92907786 L14.2559607,3.92907786 C13.881068,3.92907786 13.6936244,3.77285451 13.6936244,3.46040313 C13.6936244,3.14795174 13.881068,2.97610606 14.2559607,2.94486092 L18.0517309,2.94486092 C18.2079362,2.63240953 18.3172783,2.44494151 18.3797604,2.38245123 C18.8796174,2.00750957 19.2076436,2.11686592 19.363849,2.71052355 Z M17.2082264,0.554619763 L17.2082264,1.0232945 L21.1445806,1.0232945 L21.1445806,0.601487236 C21.1445806,0.320280988 21.3007836,0.164057639 21.6131942,0.1328125 C21.9256048,0.164057639 22.0974281,0.320280988 22.1286692,0.601487236 L22.1286692,1.0232945 L24.190569,1.0232945 C24.4717386,1.05453964 24.6279415,1.21076299 24.6591826,1.49196924 C24.6591826,1.80442062 24.5185999,1.96064397 24.2374304,1.96064397 L22.1286692,1.96064397 L22.1286692,2.10124639 C22.0974281,2.44494292 21.9412251,2.63241094 21.6600556,2.66365608 C21.3164039,2.63241094 21.1445806,2.44494292 21.1445806,2.10124639 L21.1445806,1.96064397 L17.2082264,1.96064397 L17.2082264,2.10124639 C17.1769853,2.38245264 17.0051621,2.53867599 16.6927514,2.56992113 C16.3803408,2.60116627 16.2241378,2.47618759 16.2241378,2.19498134 L16.2241378,1.96064397 L14.162238,1.96064397 C13.8810685,1.96064397 13.7248655,1.82004296 13.6936244,1.53883671 C13.6936244,1.22638532 13.8342071,1.05453964 14.1153767,1.0232945 L16.2241378,1.0232945 L16.2241378,0.695222183 C16.2241378,0.414015936 16.3647205,0.242170251 16.6458901,0.179679974 C16.9895418,0.148434835 17.1769853,0.273413515 17.2082264,0.554619763 Z M18.5203445,4.58522249 L23.2064805,4.58522249 C23.48765,4.61646763 23.6594733,4.72582398 23.7219554,4.91329481 C23.7531965,5.10076564 23.6438544,5.27261133 23.3939259,5.42883702 C21.9255959,6.20996549 21.1445811,6.69425787 21.0508579,6.8817287 C21.0508579,6.91297384 21.1289594,7.00670785 21.2851647,7.16293354 C21.4726111,7.35040438 21.7069155,7.56911706 21.9880851,7.81907817 L24.4248758,7.81907817 C24.7060454,7.85032331 24.8622483,8.00654666 24.8934894,8.28775291 C24.8622483,8.6002043 24.7060454,8.75642765 24.4248758,8.75642765 L22.3161146,8.75642765 C22.4098378,9.75627208 22.1911536,10.4905218 21.6600556,10.9591989 C20.7853058,11.5216114 19.6294038,11.5997231 18.192315,11.1935363 C17.8799043,11.0373106 17.754942,10.8029756 17.8174241,10.4905242 C17.9111473,10.2405631 18.1298314,10.1312067 18.4734831,10.1624519 C19.6294024,10.5373935 20.4572782,10.5530159 20.9571352,10.2093193 C21.3320279,10.0218485 21.4569903,9.53755611 21.3320261,8.75642765 L17.4425332,8.75642765 C17.1301226,8.75642765 16.9582993,8.61582663 16.9270582,8.33462038 C16.9270582,8.022169 17.0832612,7.85032331 17.3956718,7.81907817 L20.675967,7.81907817 C20.6134849,7.78783304 20.5197631,7.7253437 20.3947989,7.63160828 C19.8949419,7.22542148 19.6606374,6.92859711 19.6918785,6.74112628 C19.6918785,6.55365545 20.1604874,6.20996408 21.0977193,5.71004186 L21.3788874,5.52257197 L18.5672058,5.52257197 C18.2547952,5.52257197 18.0829719,5.38197095 18.0517309,5.1007647 C18.0517309,4.78831332 18.2079338,4.61646763 18.5203445,4.58522249 Z M5.82956729,13.4756217 L5.82956729,15.3034532 L9.01613975,15.3034532 C9.57847888,15.3034532 9.85964423,15.7408786 9.85964423,16.6157425 C9.85964423,21.2712681 9.54723829,23.7239747 8.92241703,23.9739358 C8.3600779,24.4426129 7.56344275,24.5519692 6.53248768,24.3020081 C6.18883599,24.1770276 6.04825332,23.9739372 6.11073545,23.692731 C6.17321757,23.3802796 6.37628143,23.2709232 6.71993312,23.3646587 C7.37599544,23.5208843 7.86022465,23.4896397 8.17263528,23.2709237 C8.67249228,23.0209626 8.92241703,20.8338357 8.92241703,16.7094774 C8.92241703,16.3657809 8.78183436,16.1939352 8.50066479,16.1939352 L5.82956729,16.1939352 C5.95453154,20.0370872 4.64242659,22.6928842 1.89321307,24.1614057 C1.54956138,24.3176314 1.28401633,24.2707644 1.09656995,24.0208033 C0.971605702,23.7708422 1.06532748,23.5521295 1.37773811,23.3646587 C3.814541,21.9898726 4.97044298,19.5996553 4.84547873,16.1939352 L2.12751987,16.1939352 C1.81510924,16.1939352 1.64328597,16.0533342 1.61204491,15.7721279 C1.61204491,15.4909217 1.76824788,15.3346983 2.08065851,15.3034532 L4.84547873,15.3034532 L4.84547873,13.5224892 C4.84547873,13.2100378 5.0016817,13.0381921 5.31409233,13.006947 C5.62650296,13.0381921 5.79832623,13.1944155 5.82956729,13.4756217 Z M11.1717623,17.5530919 C11.6716193,18.4592009 12.0621267,19.6308761 12.3432963,21.0681524 C12.3745374,21.4430941 12.2339547,21.6618068 11.9215441,21.7242971 C11.6403745,21.7242971 11.4841715,21.5368291 11.4529305,21.1618874 C11.1405198,19.8808367 10.7500124,18.7872733 10.2813965,17.8811642 C10.0939501,17.5687129 10.140811,17.3500002 10.4219805,17.2250196 C10.7031501,17.1312842 10.9530749,17.2406405 11.1717623,17.5530919 Z M2.83044026,17.459357 C2.95540451,17.1781507 3.15846838,17.0844167 3.43963794,17.1781521 C3.68956644,17.3031327 3.76766793,17.5218454 3.67394474,17.8342968 C3.17408774,18.9591218 2.56489615,19.9589512 1.84635171,20.8338151 C1.56518214,21.1150213 1.31525739,21.1618883 1.09656995,20.9744175 C0.877882513,20.7557015 0.89350281,20.5057442 1.14343131,20.2245379 C1.7370115,19.56839 2.2993422,18.6466722 2.83044026,17.459357 Z M16.5990287,14.7410435 L15.7555243,14.7410435 L15.7555243,17.9280317 L16.7396128,17.9280317 C16.9895413,17.9592769 17.130124,18.0998779 17.161365,18.349839 C17.130124,18.6310452 16.9895413,18.7716462 16.7396128,18.7716462 L15.7555243,18.7716462 L15.7555243,22.1929718 L16.7396128,21.5836947 C16.9583002,21.4587141 17.1613641,21.4899588 17.3488105,21.6774296 C17.5050158,21.9273907 17.4893955,22.1304811 17.3019491,22.2867068 C16.6458868,22.8178741 15.5368457,23.3334112 13.9747926,23.8333334 C13.693623,23.8958237 13.4905592,23.8020897 13.3655949,23.5521285 C13.3031128,23.2709223 13.3968346,23.0990766 13.6467631,23.0365863 C13.7404862,23.0053412 13.8498283,22.9584742 13.9747926,22.8959839 C14.3496853,22.7710034 14.646471,22.6460247 14.8651584,22.5210441 L14.8651584,18.7716462 L13.8810699,18.7716462 C13.5999003,18.7716462 13.4593176,18.6310452 13.4593176,18.349839 C13.4593176,18.0998779 13.5999003,17.9592769 13.8810699,17.9280317 L14.8651584,17.9280317 L14.8651584,14.7410435 L13.8342085,14.7410435 C13.58428,14.7410435 13.4436973,14.6004425 13.4124563,14.3192362 C13.4436973,14.03803 13.58428,13.8818066 13.8342085,13.8505615 L16.5990287,13.8505615 C16.8801983,13.8818066 17.020781,14.03803 17.020781,14.3192362 C17.020781,14.6004425 16.8801983,14.7410435 16.5990287,14.7410435 Z M18.192315,13.7099591 L23.3939259,13.7099591 C23.956265,13.678714 24.2374304,13.9911607 24.2374304,14.6473086 L24.2374304,18.6779113 C24.2374304,19.3028141 23.9406447,19.5996384 23.3470645,19.5683933 L21.191442,19.5683933 L21.191442,20.9744175 L23.9562622,20.9744175 C24.1437086,21.0056626 24.2530507,21.1462637 24.2842917,21.3962248 C24.2530507,21.677431 24.1437086,21.818032 23.9562622,21.818032 L21.191442,21.818032 L21.191442,23.2240562 L24.4717372,23.2240562 C24.6904246,23.2240562 24.815387,23.3646572 24.846628,23.6458635 C24.815387,23.8958246 24.6904246,24.0364256 24.4717372,24.0676708 L17.2550878,24.0676708 C17.0051593,24.0364256 16.8645766,23.8802023 16.8333355,23.598996 C16.8645766,23.3490349 17.0207796,23.2240562 17.3019491,23.2240562 L20.3010761,23.2240562 L20.3010761,21.818032 L17.8642854,21.818032 C17.6143569,21.818032 17.4737743,21.677431 17.4425332,21.3962248 C17.4737743,21.1462637 17.6143569,21.0056626 17.8642854,20.9744175 L20.3010761,20.9744175 L20.3010761,19.5683933 L18.1454536,19.5683933 C17.5206323,19.5996384 17.2238467,19.2871917 17.2550878,18.6310438 L17.2550878,14.6473086 C17.2238467,14.0224058 17.5362526,13.7099591 18.192315,13.7099591 Z M20.3010761,14.5535736 L18.5203445,14.5535736 C18.2391749,14.5535736 18.1142125,14.6941746 18.1454536,14.9753809 L18.1454536,16.2408027 L20.3010761,16.2408027 L20.3010761,14.5535736 Z M23.019035,14.5535736 L21.191442,14.5535736 L21.191442,16.2408027 L23.3470645,16.2408027 L23.3470645,15.0222484 C23.3470645,14.709797 23.2377225,14.5535736 23.019035,14.5535736 Z M20.3010761,18.7247788 L20.3010761,17.0844172 L18.1454536,17.0844172 L18.1454536,18.349839 C18.1454536,18.6310452 18.2860363,18.7560239 18.5672058,18.7247788 L20.3010761,18.7247788 Z M23.019035,18.7247788 C23.2689635,18.7560239 23.3783056,18.5998006 23.3470645,18.256104 L23.3470645,17.0844172 L21.191442,17.0844172 L21.191442,18.7247788 L23.019035,18.7247788 Z" id="推荐-办理"></path>
                </g>
            </g>
        </g>
    </g>
</svg>