<?xml version="1.0" encoding="UTF-8"?>
<svg width="40px" height="35px" viewBox="0 0 40 35" version="1.1" xmlns="http://www.w3.org/2000svg" xmlns:xlink="http://www.w3.org/1999/xlink">
    <!-- Generator: Sketch 49 (51002) - http://www.bohemiancoding.com/sketch -->
    <title>推荐办理ico</title>
    <desc>Created with Sketch.</desc>
    <defs>
        <linearGradient x1="-1.11022302e-14%" y1="50%" x2="100%" y2="50%" id="linearGradient-1">
            <stop stop-color="#067EFF" offset="0%"></stop>
            <stop stop-color="#00A8FF" offset="100%"></stop>
        </linearGradient>
    </defs>
    <g id="推荐广告-V3.2" stroke="none" stroke-width="1" fill="none" fill-rule="evenodd">
        <g id="有智能推荐" transform="translate(-9.000000, -599.000000)">
            <g id="Group-11" transform="translate(8.000000, 598.000000)">
                <g id="推荐办理ico" transform="translate(1.000000, 1.000000)">
                    <path d="M6.409713,-2.58960077e-16 L40,0 L40,35 L6.409713,35 C4.18091615,35 3.37270056,34.767936 2.55788574,34.3321682 C1.74307093,33.8964005 1.10359949,33.2569291 0.667831759,32.4421143 C0.232064028,31.6272994 1.00308841e-16,30.8190838 -1.72640051e-16,28.590287 L1.72640051e-16,6.409713 C-1.00308841e-16,4.18091615 0.232064028,3.37270056 0.667831759,2.55788574 C1.10359949,1.74307093 1.74307093,1.10359949 2.55788574,0.667831759 C3.37270056,0.232064028 4.18091615,1.50463262e-16 6.409713,-2.58960077e-16 Z" id="Rectangle-14" fill="url(#linearGradient-1)"></path>
                    <path d="M9.39277658,5.8358246 L9.39277658,7.47618618 L10.3300038,7.47618618 C10.6111733,7.50743132 10.7673763,7.64803233 10.7986174,7.89799344 C10.7986174,8.17919969 10.6580347,8.31980071 10.3768651,8.31980071 L9.43963794,8.31980071 L9.43963794,10.9912467 L10.1894197,10.6163069 C10.4705893,10.5225715 10.6892734,10.6006832 10.8454787,10.8506443 C10.9392019,11.1006054 10.8454801,11.3036957 10.5643106,11.4599214 C10.1269357,11.6786374 9.75204857,11.8504831 9.43963794,11.9754636 L9.43963794,15.3499217 C9.43963794,16.3497662 8.76796517,16.6778352 7.42459947,16.3341387 C7.08094778,16.2091581 6.92474481,16.0060678 6.95598587,15.7248615 C7.04970906,15.4749004 7.26839322,15.3967888 7.61204491,15.4905242 C8.33058935,15.7404853 8.64299529,15.6311289 8.5492721,15.1624519 L8.5492721,12.3504034 C8.48678998,12.3816486 8.3930682,12.4128932 8.26810395,12.4441384 C8.04941651,12.5378738 7.84635265,12.6003631 7.65890627,12.6316083 C7.34649564,12.7253437 7.12781148,12.6628544 7.00284723,12.4441384 C6.87788298,12.1629321 6.97160476,11.9598418 7.28401539,11.8348612 C7.34649752,11.8036161 7.50270049,11.7411267 7.75262899,11.6473913 C8.09628068,11.5224108 8.36182573,11.4130544 8.5492721,11.319319 L8.5492721,8.31980071 L7.47146083,8.31980071 C7.19029127,8.31980071 7.0340883,8.19482203 7.00284723,7.94486092 C6.97160617,7.66365467 7.09656855,7.50743132 7.37773811,7.47618618 L8.5492721,7.47618618 L8.5492721,5.8358246 C8.5492721,5.5858635 8.68985478,5.44526248 8.97102434,5.41401734 C9.22095284,5.44526248 9.36153552,5.5858635 9.39277658,5.8358246 Z M12.2981809,5.78895713 C12.4231451,5.47650574 12.626209,5.3671494 12.9073786,5.46088482 C13.1885481,5.58586537 13.2822699,5.80457806 13.1885467,6.11702945 C13.0948235,6.39823569 12.9230003,6.77317173 12.6730718,7.24184881 C12.6418307,7.33558423 12.6105901,7.4136959 12.579349,7.47618618 L14.6412489,7.47618618 C14.4538025,7.0075091 14.2663589,6.60132839 14.0789126,6.25763187 C13.9227072,5.94518048 13.9695681,5.71084546 14.2194966,5.55461976 C14.5006662,5.46088435 14.7349707,5.55461836 14.922417,5.8358246 C15.2973098,6.58570793 15.5472345,7.13248966 15.6721988,7.47618618 L17.5466532,7.47618618 C17.7965817,7.50743132 17.9371644,7.66365467 17.9684054,7.94486092 C17.9371644,8.22606717 17.7965817,8.36666818 17.5466532,8.36666818 L15.2973079,8.36666818 L15.2973079,10.0538972 L17.4529305,10.0538972 C17.7341,10.0851424 17.890303,10.2413657 17.9215441,10.522572 C17.9215441,10.8037782 17.7809614,10.9443792 17.4997918,10.9443792 L15.2973079,10.9443792 L15.2973079,12.6316083 L17.4997918,12.6316083 C17.7809614,12.6628534 17.9215441,12.8034544 17.9215441,13.0534155 C17.9215441,13.3346218 17.7809614,13.4752228 17.4997918,13.4752228 L15.2973079,13.4752228 L15.2973079,15.2093193 L17.6872373,15.2093193 C17.9371658,15.2093193 18.0777484,15.3499203 18.1089895,15.6311266 C18.0777484,15.9123328 17.9371658,16.0685562 17.6872373,16.0998013 L12.1575968,16.0998013 C12.1263557,16.3810076 11.9701528,16.5216086 11.6889832,16.5216086 C11.4078136,16.5216086 11.267231,16.3810076 11.267231,16.0998013 L11.267231,9.3977526 C11.1422667,9.58522343 10.9860637,9.75706912 10.7986174,9.91329481 C10.5174478,10.1632559 10.2675231,10.2101229 10.0488356,10.0538972 C9.83014818,9.83518126 9.84576848,9.5852239 10.095697,9.30401765 C11.095411,8.30417322 11.8295649,7.13249809 12.2981809,5.78895713 Z M12.579349,8.36666818 C12.2669384,8.36666818 12.1263557,8.50726919 12.1575968,8.78847544 L12.1575968,10.0538972 L14.4538034,10.0538972 L14.4538034,8.36666818 L12.579349,8.36666818 Z M12.1575968,10.9443792 L12.1575968,12.6316083 L14.4538034,12.6316083 L14.4538034,10.9443792 L12.1575968,10.9443792 Z M12.1575968,15.2093193 L14.4538034,15.2093193 L14.4538034,13.4752228 L12.1575968,13.4752228 L12.1575968,15.2093193 Z M25.363849,7.71052355 C25.3326079,7.74176869 25.3013673,7.81988036 25.2701262,7.94486092 L30.1437076,7.94486092 C30.4561183,7.97610606 30.6279415,8.14795174 30.6591826,8.46040313 C30.6279415,8.77285451 30.4717386,8.92907786 30.190569,8.92907786 L24.7546513,8.92907786 C23.8174194,9.96016744 22.9739234,10.7725289 22.2241378,11.3661865 L22.2241378,15.9591989 C22.1928968,16.2404052 22.0210735,16.3810062 21.7086629,16.3810062 C21.3962523,16.3810062 21.2400493,16.2404052 21.2400493,15.9591989 L21.2400493,12.0223311 C20.9276387,12.2722922 20.5683718,12.4910049 20.162238,12.6784758 C19.8810685,12.8347014 19.6780046,12.7878344 19.5530403,12.5378733 C19.396835,12.2566671 19.4436959,12.0223321 19.6936244,11.8348612 C21.0994722,11.0849779 22.349096,10.1163931 23.4425332,8.92907786 L20.2559607,8.92907786 C19.881068,8.92907786 19.6936244,8.77285451 19.6936244,8.46040313 C19.6936244,8.14795174 19.881068,7.97610606 20.2559607,7.94486092 L24.0517309,7.94486092 C24.2079362,7.63240953 24.3172783,7.44494151 24.3797604,7.38245123 C24.8796174,7.00750957 25.2076436,7.11686592 25.363849,7.71052355 Z M23.2082264,5.55461976 L23.2082264,6.0232945 L27.1445806,6.0232945 L27.1445806,5.60148724 C27.1445806,5.32028099 27.3007836,5.16405764 27.6131942,5.1328125 C27.9256048,5.16405764 28.0974281,5.32028099 28.1286692,5.60148724 L28.1286692,6.0232945 L30.190569,6.0232945 C30.4717386,6.05453964 30.6279415,6.21076299 30.6591826,6.49196924 C30.6591826,6.80442062 30.5185999,6.96064397 30.2374304,6.96064397 L28.1286692,6.96064397 L28.1286692,7.10124639 C28.0974281,7.44494292 27.9412251,7.63241094 27.6600556,7.66365608 C27.3164039,7.63241094 27.1445806,7.44494292 27.1445806,7.10124639 L27.1445806,6.96064397 L23.2082264,6.96064397 L23.2082264,7.10124639 C23.1769853,7.38245264 23.0051621,7.53867599 22.6927514,7.56992113 C22.3803408,7.60116627 22.2241378,7.47618759 22.2241378,7.19498134 L22.2241378,6.96064397 L20.162238,6.96064397 C19.8810685,6.96064397 19.7248655,6.82004296 19.6936244,6.53883671 C19.6936244,6.22638532 19.8342071,6.05453964 20.1153767,6.0232945 L22.2241378,6.0232945 L22.2241378,5.69522218 C22.2241378,5.41401594 22.3647205,5.24217025 22.6458901,5.17967997 C22.9895418,5.14843483 23.1769853,5.27341351 23.2082264,5.55461976 Z M24.5203445,9.58522249 L29.2064805,9.58522249 C29.48765,9.61646763 29.6594733,9.72582398 29.7219554,9.91329481 C29.7531965,10.1007656 29.6438544,10.2726113 29.3939259,10.428837 C27.9255959,11.2099655 27.1445811,11.6942579 27.0508579,11.8817287 C27.0508579,11.9129738 27.1289594,12.0067079 27.2851647,12.1629335 C27.4726111,12.3504044 27.7069155,12.5691171 27.9880851,12.8190782 L30.4248758,12.8190782 C30.7060454,12.8503233 30.8622483,13.0065467 30.8934894,13.2877529 C30.8622483,13.6002043 30.7060454,13.7564276 30.4248758,13.7564276 L28.3161146,13.7564276 C28.4098378,14.7562721 28.1911536,15.4905218 27.6600556,15.9591989 C26.7853058,16.5216114 25.6294038,16.5997231 24.192315,16.1935363 C23.8799043,16.0373106 23.754942,15.8029756 23.8174241,15.4905242 C23.9111473,15.2405631 24.1298314,15.1312067 24.4734831,15.1624519 C25.6294024,15.5373935 26.4572782,15.5530159 26.9571352,15.2093193 C27.3320279,15.0218485 27.4569903,14.5375561 27.3320261,13.7564276 L23.4425332,13.7564276 C23.1301226,13.7564276 22.9582993,13.6158266 22.9270582,13.3346204 C22.9270582,13.022169 23.0832612,12.8503233 23.3956718,12.8190782 L26.675967,12.8190782 C26.6134849,12.787833 26.5197631,12.7253437 26.3947989,12.6316083 C25.8949419,12.2254215 25.6606374,11.9285971 25.6918785,11.7411263 C25.6918785,11.5536554 26.1604874,11.2099641 27.0977193,10.7100419 L27.3788874,10.522572 L24.5672058,10.522572 C24.2547952,10.522572 24.0829719,10.381971 24.0517309,10.1007647 C24.0517309,9.78831332 24.2079338,9.61646763 24.5203445,9.58522249 Z M11.8295673,18.4756217 L11.8295673,20.3034532 L15.0161398,20.3034532 C15.5784789,20.3034532 15.8596442,20.7408786 15.8596442,21.6157425 C15.8596442,26.2712681 15.5472383,28.7239747 14.922417,28.9739358 C14.3600779,29.4426129 13.5634428,29.5519692 12.5324877,29.3020081 C12.188836,29.1770276 12.0482533,28.9739372 12.1107354,28.692731 C12.1732176,28.3802796 12.3762814,28.2709232 12.7199331,28.3646587 C13.3759954,28.5208843 13.8602246,28.4896397 14.1726353,28.2709237 C14.6724923,28.0209626 14.922417,25.8338357 14.922417,21.7094774 C14.922417,21.3657809 14.7818344,21.1939352 14.5006648,21.1939352 L11.8295673,21.1939352 C11.9545315,25.0370872 10.6424266,27.6928842 7.89321307,29.1614057 C7.54956138,29.3176314 7.28401633,29.2707644 7.09656995,29.0208033 C6.9716057,28.7708422 7.06532748,28.5521295 7.37773811,28.3646587 C9.814541,26.9898726 10.970443,24.5996553 10.8454787,21.1939352 L8.12751987,21.1939352 C7.81510924,21.1939352 7.64328597,21.0533342 7.61204491,20.7721279 C7.61204491,20.4909217 7.76824788,20.3346983 8.08065851,20.3034532 L10.8454787,20.3034532 L10.8454787,18.5224892 C10.8454787,18.2100378 11.0016817,18.0381921 11.3140923,18.006947 C11.626503,18.0381921 11.7983262,18.1944155 11.8295673,18.4756217 Z M17.1717623,22.5530919 C17.6716193,23.4592009 18.0621267,24.6308761 18.3432963,26.0681524 C18.3745374,26.4430941 18.2339547,26.6618068 17.9215441,26.7242971 C17.6403745,26.7242971 17.4841715,26.5368291 17.4529305,26.1618874 C17.1405198,24.8808367 16.7500124,23.7872733 16.2813965,22.8811642 C16.0939501,22.5687129 16.140811,22.3500002 16.4219805,22.2250196 C16.7031501,22.1312842 16.9530749,22.2406405 17.1717623,22.5530919 Z M8.83044026,22.459357 C8.95540451,22.1781507 9.15846838,22.0844167 9.43963794,22.1781521 C9.68956644,22.3031327 9.76766793,22.5218454 9.67394474,22.8342968 C9.17408774,23.9591218 8.56489615,24.9589512 7.84635171,25.8338151 C7.56518214,26.1150213 7.31525739,26.1618883 7.09656995,25.9744175 C6.87788251,25.7557015 6.89350281,25.5057442 7.14343131,25.2245379 C7.7370115,24.56839 8.2993422,23.6466722 8.83044026,22.459357 Z M22.5990287,19.7410435 L21.7555243,19.7410435 L21.7555243,22.9280317 L22.7396128,22.9280317 C22.9895413,22.9592769 23.130124,23.0998779 23.161365,23.349839 C23.130124,23.6310452 22.9895413,23.7716462 22.7396128,23.7716462 L21.7555243,23.7716462 L21.7555243,27.1929718 L22.7396128,26.5836947 C22.9583002,26.4587141 23.1613641,26.4899588 23.3488105,26.6774296 C23.5050158,26.9273907 23.4893955,27.1304811 23.3019491,27.2867068 C22.6458868,27.8178741 21.5368457,28.3334112 19.9747926,28.8333334 C19.693623,28.8958237 19.4905592,28.8020897 19.3655949,28.5521285 C19.3031128,28.2709223 19.3968346,28.0990766 19.6467631,28.0365863 C19.7404862,28.0053412 19.8498283,27.9584742 19.9747926,27.8959839 C20.3496853,27.7710034 20.646471,27.6460247 20.8651584,27.5210441 L20.8651584,23.7716462 L19.8810699,23.7716462 C19.5999003,23.7716462 19.4593176,23.6310452 19.4593176,23.349839 C19.4593176,23.0998779 19.5999003,22.9592769 19.8810699,22.9280317 L20.8651584,22.9280317 L20.8651584,19.7410435 L19.8342085,19.7410435 C19.58428,19.7410435 19.4436973,19.6004425 19.4124563,19.3192362 C19.4436973,19.03803 19.58428,18.8818066 19.8342085,18.8505615 L22.5990287,18.8505615 C22.8801983,18.8818066 23.020781,19.03803 23.020781,19.3192362 C23.020781,19.6004425 22.8801983,19.7410435 22.5990287,19.7410435 Z M24.192315,18.7099591 L29.3939259,18.7099591 C29.956265,18.678714 30.2374304,18.9911607 30.2374304,19.6473086 L30.2374304,23.6779113 C30.2374304,24.3028141 29.9406447,24.5996384 29.3470645,24.5683933 L27.191442,24.5683933 L27.191442,25.9744175 L29.9562622,25.9744175 C30.1437086,26.0056626 30.2530507,26.1462637 30.2842917,26.3962248 C30.2530507,26.677431 30.1437086,26.818032 29.9562622,26.818032 L27.191442,26.818032 L27.191442,28.2240562 L30.4717372,28.2240562 C30.6904246,28.2240562 30.815387,28.3646572 30.846628,28.6458635 C30.815387,28.8958246 30.6904246,29.0364256 30.4717372,29.0676708 L23.2550878,29.0676708 C23.0051593,29.0364256 22.8645766,28.8802023 22.8333355,28.598996 C22.8645766,28.3490349 23.0207796,28.2240562 23.3019491,28.2240562 L26.3010761,28.2240562 L26.3010761,26.818032 L23.8642854,26.818032 C23.6143569,26.818032 23.4737743,26.677431 23.4425332,26.3962248 C23.4737743,26.1462637 23.6143569,26.0056626 23.8642854,25.9744175 L26.3010761,25.9744175 L26.3010761,24.5683933 L24.1454536,24.5683933 C23.5206323,24.5996384 23.2238467,24.2871917 23.2550878,23.6310438 L23.2550878,19.6473086 C23.2238467,19.0224058 23.5362526,18.7099591 24.192315,18.7099591 Z M26.3010761,19.5535736 L24.5203445,19.5535736 C24.2391749,19.5535736 24.1142125,19.6941746 24.1454536,19.9753809 L24.1454536,21.2408027 L26.3010761,21.2408027 L26.3010761,19.5535736 Z M29.019035,19.5535736 L27.191442,19.5535736 L27.191442,21.2408027 L29.3470645,21.2408027 L29.3470645,20.0222484 C29.3470645,19.709797 29.2377225,19.5535736 29.019035,19.5535736 Z M26.3010761,23.7247788 L26.3010761,22.0844172 L24.1454536,22.0844172 L24.1454536,23.349839 C24.1454536,23.6310452 24.2860363,23.7560239 24.5672058,23.7247788 L26.3010761,23.7247788 Z M29.019035,23.7247788 C29.2689635,23.7560239 29.3783056,23.5998006 29.3470645,23.256104 L29.3470645,22.0844172 L27.191442,22.0844172 L27.191442,23.7247788 L29.019035,23.7247788 Z" id="推荐-办理" fill="#FFFFFF"></path>
                </g>
            </g>
        </g>
    </g>
</svg>