<?xml version="1.0" encoding="UTF-8"?>
<svg width="49px" height="48px" viewBox="0 0 49 48" version="1.1" xmlns="http://www.w3.org/2000/svg" xmlns:xlink="http://www.w3.org/1999/xlink">
    <!-- Generator: Sketch 48.1 (47250) - http://www.bohemiancoding.com/sketch -->
    <title>进店看看</title>
    <desc>Created with Sketch.</desc>
    <defs>
        <circle id="path-1" cx="20.5" cy="20.5" r="20.5"></circle>
        <filter x="-17.1%" y="-12.2%" width="134.1%" height="134.1%" filterUnits="objectBoundingBox" id="filter-2">
            <feOffset dx="0" dy="2" in="SourceAlpha" result="shadowOffsetOuter1"></feOffset>
            <feGaussianBlur stdDeviation="2" in="shadowOffsetOuter1" result="shadowBlurOuter1"></feGaussianBlur>
            <feColorMatrix values="0 0 0 0 0   0 0 0 0 0   0 0 0 0 0  0 0 0 0.314679574 0" type="matrix" in="shadowBlurOuter1"></feColorMatrix>
        </filter>
    </defs>
    <g id="1.-彩蛋计划--首页未购买-封面广告" stroke="none" stroke-width="1" fill="none" fill-rule="evenodd" transform="translate(-316.000000, -219.000000)">
        <g id="进店看看" transform="translate(320.000000, 220.500000)">
            <g id="Oval-2">
                <use fill="black" fill-opacity="1" filter="url(#filter-2)" xlink:href="#path-1"></use>
                <use fill="#FFFFFF" fill-rule="evenodd" xlink:href="#path-1"></use>
            </g>
            <path d="M13.352,12.404 L13.352,13.449 C13.352,13.68 13.341,13.922 13.33,14.175 L14.914,14.175 L14.914,12.404 L13.352,12.404 Z M14.914,15.154 L13.209,15.154 C13.033,16.177 12.604,17.189 11.702,17.904 C11.559,17.695 11.163,17.31 10.943,17.167 C11.658,16.606 12.021,15.902 12.186,15.154 L10.8,15.154 L10.8,14.175 L12.318,14.175 C12.34,13.922 12.34,13.68 12.34,13.438 L12.34,12.404 L10.877,12.404 L10.877,11.425 L12.34,11.425 L12.34,9.753 L13.352,9.753 L13.352,11.425 L14.914,11.425 L14.914,9.753 L15.926,9.753 L15.926,11.425 L17.268,11.425 L17.268,12.404 L15.926,12.404 L15.926,14.175 L17.477,14.175 L17.477,15.154 L15.926,15.154 L15.926,17.794 L14.914,17.794 L14.914,15.154 Z M10.404,11.469 L9.634,12.118 C9.304,11.623 8.567,10.831 7.962,10.281 L8.699,9.709 C9.293,10.237 10.052,10.985 10.404,11.469 Z M10.096,13.438 L10.096,17.398 C10.294,17.519 10.503,17.695 10.822,17.882 C11.537,18.311 12.505,18.377 13.726,18.377 C14.947,18.377 16.641,18.289 17.719,18.146 C17.598,18.432 17.433,18.927 17.411,19.213 C16.652,19.268 14.76,19.334 13.682,19.334 C12.329,19.334 11.416,19.202 10.635,18.751 C10.162,18.465 9.81,18.113 9.557,18.113 C9.216,18.113 8.699,18.784 8.215,19.488 L7.533,18.542 C8.072,17.97 8.622,17.519 9.095,17.31 L9.095,14.384 L7.698,14.384 L7.698,13.438 L10.096,13.438 Z M26.629,18.113 L26.629,16.419 L22.35,16.419 L22.35,18.113 L26.629,18.113 Z M24.737,12.096 L24.737,13.273 L28.191,13.273 L28.191,14.208 L24.737,14.208 L24.737,15.473 L27.674,15.473 L27.674,19.433 L26.629,19.433 L26.629,19.026 L22.35,19.026 L22.35,19.455 L21.349,19.455 L21.349,15.473 L23.681,15.473 L23.681,12.096 L24.737,12.096 Z M24.836,10.776 L28.499,10.776 L28.499,11.744 L20.535,11.744 L20.535,13.581 C20.535,15.308 20.37,17.915 19.369,19.598 C19.182,19.422 18.709,19.103 18.467,19.004 C19.402,17.431 19.479,15.165 19.479,13.57 L19.479,10.776 L23.681,10.776 C23.549,10.424 23.373,10.039 23.186,9.731 L24.198,9.5 C24.462,9.885 24.693,10.38 24.836,10.776 Z M15.354,27.737 L15.354,27.11 L10.954,27.11 L10.954,27.737 L15.354,27.737 Z M10.954,30.399 L15.354,30.399 L15.354,29.728 L10.954,29.728 L10.954,30.399 Z M10.954,28.419 L10.954,29.046 L15.354,29.046 L15.354,28.419 L10.954,28.419 Z M17.433,25.68 L11.438,25.68 C11.317,25.9 11.207,26.109 11.075,26.318 L16.377,26.318 L16.377,31.62 L15.354,31.62 L15.354,31.202 L10.954,31.202 L10.954,31.62 L9.975,31.62 L9.975,27.759 C9.447,28.32 8.831,28.826 8.127,29.233 C7.995,28.991 7.698,28.617 7.5,28.43 C8.688,27.759 9.601,26.791 10.272,25.68 L7.797,25.68 L7.797,24.866 L10.712,24.866 C10.822,24.657 10.921,24.426 11.02,24.206 L8.578,24.206 L8.578,23.403 L11.295,23.403 C11.372,23.194 11.427,22.985 11.482,22.776 C10.514,22.809 9.546,22.831 8.633,22.831 C8.622,22.6 8.534,22.259 8.435,22.05 C11.097,22.039 14.342,21.885 16.124,21.555 L16.74,22.292 C15.607,22.49 14.144,22.633 12.615,22.721 C12.549,22.952 12.472,23.172 12.395,23.403 L16.817,23.403 L16.817,24.206 L12.12,24.206 C12.032,24.426 11.933,24.657 11.834,24.866 L17.433,24.866 L17.433,25.68 Z M26.354,27.737 L26.354,27.11 L21.954,27.11 L21.954,27.737 L26.354,27.737 Z M21.954,30.399 L26.354,30.399 L26.354,29.728 L21.954,29.728 L21.954,30.399 Z M21.954,28.419 L21.954,29.046 L26.354,29.046 L26.354,28.419 L21.954,28.419 Z M28.433,25.68 L22.438,25.68 C22.317,25.9 22.207,26.109 22.075,26.318 L27.377,26.318 L27.377,31.62 L26.354,31.62 L26.354,31.202 L21.954,31.202 L21.954,31.62 L20.975,31.62 L20.975,27.759 C20.447,28.32 19.831,28.826 19.127,29.233 C18.995,28.991 18.698,28.617 18.5,28.43 C19.688,27.759 20.601,26.791 21.272,25.68 L18.797,25.68 L18.797,24.866 L21.712,24.866 C21.822,24.657 21.921,24.426 22.02,24.206 L19.578,24.206 L19.578,23.403 L22.295,23.403 C22.372,23.194 22.427,22.985 22.482,22.776 C21.514,22.809 20.546,22.831 19.633,22.831 C19.622,22.6 19.534,22.259 19.435,22.05 C22.097,22.039 25.342,21.885 27.124,21.555 L27.74,22.292 C26.607,22.49 25.144,22.633 23.615,22.721 C23.549,22.952 23.472,23.172 23.395,23.403 L27.817,23.403 L27.817,24.206 L23.12,24.206 C23.032,24.426 22.933,24.657 22.834,24.866 L28.433,24.866 L28.433,25.68 Z" id="进店-看看" fill="#B57935"></path>
            <polygon id="Triangle" fill="#B57935" transform="translate(34.500000, 20.500000) rotate(90.000000) translate(-34.500000, -20.500000) " points="34.5 19 37 22 32 22"></polygon>
        </g>
    </g>
</svg>