<?xml version="1.0" encoding="UTF-8"?>
<svg width="17px" height="16px" viewBox="0 0 17 16" version="1.1" xmlns="http://www.w3.org/2000/svg" xmlns:xlink="http://www.w3.org/1999/xlink">
    <!-- Generator: Sketch 48.1 (47250) - http://www.bohemiancoding.com/sketch -->
    <title>满</title>
    <desc>Created with Sketch.</desc>
    <defs></defs>
    <g id="1.-彩蛋计划-V3.0--首页未购买-封面广告" stroke="none" stroke-width="1" fill="none" fill-rule="evenodd" transform="translate(-54.000000, -677.000000)">
        <g id="Group-15" transform="translate(19.000000, 657.500000)" fill="#E6CA9F">
            <path d="M48.9352861,20.1054687 C48.9976721,19.8806201 49.2104701,19.7158203 49.4384202,19.7158203 L51.051206,19.7158203 C51.2360197,19.7158203 51.369242,19.8656414 51.3487663,20.0504551 C51.3467242,20.0688871 51.3431627,20.0872876 51.3381182,20.1054687 L51.3277605,20.1427992 C51.2820261,20.3076331 51.3761079,20.463528 51.5378981,20.4910003 C51.5540338,20.4937402 51.5705189,20.4951172 51.587185,20.4951172 C51.7844488,20.4951172 51.9266457,20.6550311 51.9047906,20.8522949 L51.8400363,21.4367676 C51.7824184,21.9568267 51.3141186,22.378418 50.7940595,22.378418 L42.0269696,22.378418 C41.5069105,22.378418 41.1320278,21.9568267 41.1896457,21.4367676 L41.2400101,20.9821777 C41.2698125,20.7131816 41.5120365,20.4951172 41.7810326,20.4951172 L41.9050597,20.4951172 C42.0723904,20.4951172 42.2230675,20.3594688 42.2416062,20.192138 C42.24362,20.1739618 42.243994,20.1558225 42.2427238,20.1379395 C42.2310305,19.9733077 42.3577,19.8155818 42.525648,19.7856488 C42.5438913,19.7823973 42.5622118,19.7807617 42.580388,19.7807617 L44.1850222,19.7807617 C44.4036047,19.7807617 44.578936,19.9270589 44.6130852,20.1379395 C44.6472344,20.34882 44.8225656,20.4951172 45.0411482,20.4951172 L48.432152,20.4951172 C48.6601022,20.4951172 48.8729001,20.3303174 48.9352861,20.1054687 Z M37.9288403,23.6123047 C37.5707258,23.2332531 37.3621377,22.7328954 37.3353567,22.1886659 L37.268933,20.8388371 C37.2444125,20.3405431 37.6356424,19.8719645 38.1427694,19.7922374 C38.1913559,19.784599 38.2400521,19.7807617 38.2883994,19.7807617 L38.3665201,19.7807617 C38.9441472,19.7807617 39.3963041,20.1884729 39.446833,20.7548828 L39.5035392,21.3905385 C39.5233226,21.6123038 39.6021798,21.818569 39.7322486,21.9887695 L39.7626911,22.0286049 C39.8694987,22.1683671 40.0372885,22.2485352 40.2230001,22.2485352 C40.3843978,22.2485352 40.5007407,22.3793738 40.4828593,22.5407715 L40.4001177,23.2875977 C40.3444866,23.7897237 39.8923351,24.1967773 39.390209,24.1967773 L39.330869,24.1967773 C38.785173,24.1967773 38.28341,23.9876042 37.9288403,23.6123047 Z M51.3863819,24.3591309 C51.328764,24.87919 50.8604642,25.3007812 50.3404051,25.3007812 L48.7168699,25.3007812 C48.4120077,25.3007812 48.1374871,25.5479209 48.1037111,25.8527832 C48.0699351,26.1576455 48.289694,26.4047852 48.5945562,26.4047852 L49.6660894,26.4047852 C50.5627431,26.4047852 51.2090926,27.1316666 51.1097515,28.0283203 L50.6528738,32.1520996 C50.5859023,32.7565839 50.2889689,33.3379047 49.8235866,33.7756348 C49.3606415,34.2110724 48.7582941,34.4575195 48.1569754,34.4575195 L47.8647391,34.4575195 C47.4343453,34.4575195 47.1240976,34.1086164 47.1717813,33.6782227 L47.200561,33.418457 C47.2323502,33.1315278 47.4907225,32.8989258 47.7776517,32.8989258 L48.089269,32.8989258 C48.2206831,32.8989258 48.3515903,32.8391894 48.445053,32.7365723 L48.477456,32.7009955 C48.5522015,32.618929 48.5992667,32.5169617 48.6109105,32.4118652 C48.6208446,32.3221999 48.5562096,32.2495117 48.4665443,32.2495117 L48.3691322,32.2495117 C48.2016704,32.2495117 48.0466349,32.1887292 47.9328245,32.0784549 L47.8375797,31.9861693 C47.707241,31.8598802 47.6058595,31.7066909 47.5390966,31.5351562 C47.5259151,31.5012889 47.4862536,31.4875614 47.4505101,31.5044951 C47.4259962,31.5161087 47.408694,31.5398486 47.4058168,31.5658174 L47.3984214,31.6325684 C47.3732412,31.8598454 47.2524456,32.0763632 47.0662793,32.2279104 L46.6807491,32.541748 C46.2440754,32.8972188 45.7079087,33.09375 45.1748052,33.09375 L44.0868774,33.09375 C43.746149,33.09375 43.5005362,32.817535 43.5382859,32.4768066 C43.5760355,32.1360782 43.8828526,31.8598633 44.223581,31.8598633 L45.2820245,31.8598633 C45.4134386,31.8598633 45.5443458,31.8001269 45.6378085,31.6975098 C45.7335295,31.5924133 45.7938024,31.4618315 45.8087137,31.3272423 C45.8247687,31.1823298 45.7342797,31.0805664 45.6087482,31.0805664 C45.4603012,31.0805664 45.3196223,31.0382349 45.2032131,30.9585373 L45.0077839,30.8247402 C44.8209736,30.6968438 44.69684,30.4986284 44.6596223,30.2687988 L44.6322197,30.0995805 C44.6299685,30.0856788 44.6165335,30.0774828 44.6022118,30.0812742 C44.5664436,30.2305878 44.5012178,30.349031 44.4004119,30.4329171 L44.1293922,30.6584473 C43.8533205,30.8881816 43.511569,31.015625 43.1715869,31.015625 L42.9208748,31.015625 C42.490481,31.015625 42.1029226,31.3645281 42.0552388,31.7949219 L41.8501835,33.645752 C41.7885919,34.2016773 41.2879956,34.6523437 40.7320704,34.6523437 C40.1761451,34.6523437 39.7754084,34.2016773 39.8369999,33.645752 L40.4845431,27.8010254 C40.5699765,27.0299032 41.264352,26.4047852 42.0354742,26.4047852 L42.8797125,26.4047852 C43.1845747,26.4047852 43.4590953,26.1576455 43.4928713,25.8527832 C43.5266473,25.5479209 43.3068884,25.3007812 43.0020262,25.3007812 L41.7031981,25.3007812 C41.1831389,25.3007812 40.8082562,24.87919 40.8658741,24.3591309 C40.9234919,23.8390717 41.3917917,23.4174805 41.9118509,23.4174805 L50.5490579,23.4174805 C51.069117,23.4174805 51.4439998,23.8390717 51.3863819,24.3591309 Z M37.5226077,28.1582031 C37.2223643,27.8205509 37.0486683,27.3846036 37.0264509,26.9129346 L36.9957609,26.2613926 C36.9715199,25.7467623 37.376357,25.2636998 37.8999899,25.1824424 C37.9495077,25.1747582 37.999129,25.1708984 38.0483984,25.1708984 L38.4263354,25.1708984 C38.8467859,25.1708984 39.1737593,25.4715852 39.203141,25.8852539 L39.2378347,26.3737103 C39.2482824,26.5208049 39.3042416,26.6562461 39.3982458,26.7619629 C39.490682,26.8659161 39.6252026,26.9243164 39.7722146,26.9243164 L39.8023777,26.9243164 C39.9458423,26.9243164 40.0492582,27.0406174 40.0333636,27.184082 L39.9650118,27.8010254 C39.9113676,28.2852184 39.4753644,28.6777344 38.9911714,28.6777344 L38.7193077,28.6777344 C38.2488692,28.6777344 37.8184033,28.4908534 37.5226077,28.1582031 Z M45.6721929,26.4047852 L45.8020757,26.4047852 C46.106938,26.4047852 46.3814586,26.1576455 46.4152346,25.8527832 C46.4490106,25.5479209 46.2292517,25.3007812 45.9243895,25.3007812 L45.7945066,25.3007812 C45.4896444,25.3007812 45.2151238,25.5479209 45.1813478,25.8527832 C45.1475718,26.1576455 45.3673307,26.4047852 45.6721929,26.4047852 Z M42.9347969,29.4245605 C43.0103083,29.3183248 43.0574469,29.196763 43.071173,29.0728719 L43.125743,28.5803223 C43.1475981,28.3830584 43.0054012,28.2231445 42.8081374,28.2231445 C42.6108736,28.2231445 42.4332426,28.3830584 42.4113876,28.5803223 L42.3286459,29.3271484 C42.3127514,29.470613 42.4161673,29.5869141 42.5596319,29.5869141 L42.6300624,29.5869141 C42.7475253,29.5869141 42.8632035,29.5252842 42.9347969,29.4245605 Z M45.6696244,29.6518555 L45.723868,29.7128575 C45.7630853,29.7569611 45.8201576,29.7817383 45.8825295,29.7817383 C45.9363287,29.7817383 45.9847735,29.7381254 45.990734,29.6843262 L46.0770731,28.9050293 C46.1187964,28.5284347 45.8473296,28.2231445 45.470735,28.2231445 L45.146028,28.2231445 C44.9487642,28.2231445 44.7711333,28.3830584 44.7492782,28.5803223 C44.7274231,28.7775861 44.86962,28.9375 45.0668839,28.9375 L45.1896379,28.9375 C45.3645531,28.9375 45.5025404,29.0589864 45.5215672,29.2297363 L45.534151,29.3426646 C45.5472003,29.4597712 45.5941957,29.5670286 45.6696244,29.6518555 Z M48.6067518,30.690918 L48.7018283,30.7978405 C48.7149007,30.8125417 48.7339248,30.8208008 48.7547154,30.8208008 C48.7726485,30.8208008 48.7887968,30.8062632 48.7907836,30.7883301 L49.0030339,28.8725586 C49.0427703,28.5138971 48.7842305,28.2231445 48.425569,28.2231445 L48.3930983,28.2231445 C48.0523699,28.2231445 47.7455528,28.4993595 47.7078032,28.8400879 L47.6682311,29.1972656 C47.6523365,29.3407302 47.7557524,29.4570312 47.899217,29.4570312 C48.0563984,29.4570312 48.1875322,29.5518886 48.2312764,29.6972308 L48.4401394,30.3911884 C48.4738848,30.5033094 48.5305114,30.6051784 48.6067518,30.690918 Z M36.0485329,32.9638672 C36.1940674,32.9638672 36.3400464,32.9060538 36.4543561,32.8031454 L36.5643732,32.7041016 C36.7527162,32.534544 36.8934691,32.3195943 36.9696891,32.0851265 L37.3989795,30.7645446 C37.5976459,30.1534078 38.1861006,29.7167969 38.8111112,29.7167969 C39.2867032,29.7167969 39.6295319,30.1023404 39.5768406,30.5779324 C39.5699368,30.6402459 39.5562897,30.7023755 39.5361392,30.7632294 L38.90223,32.677611 C38.7174338,33.2356884 38.3263676,33.723228 37.8131174,34.0354004 L37.624752,34.1499693 C37.2251124,34.3930407 36.7754121,34.5224609 36.3304446,34.5224609 C35.95385,34.5224609 35.6823832,34.2171707 35.7241065,33.8405762 L35.7960558,33.1911621 C35.8099635,33.0656306 35.9230014,32.9638672 36.0485329,32.9638672 Z" id="满"></path>
        </g>
    </g>
</svg>