<?xml version="1.0" encoding="UTF-8"?>
<svg width="51px" height="16px" viewBox="0 0 51 16" version="1.1" xmlns="http://www.w3.org/2000/svg" xmlns:xlink="http://www.w3.org/1999/xlink">
    <!-- Generator: Sketch 48.1 (47250) - http://www.bohemiancoding.com/sketch -->
    <title>人开奖</title>
    <desc>Created with Sketch.</desc>
    <defs></defs>
    <g id="1.-彩蛋计划-V3.0--首页未购买-封面广告" stroke="none" stroke-width="1" fill="none" fill-rule="evenodd" transform="translate(-123.000000, -677.000000)">
        <g id="Group-15" transform="translate(19.000000, 657.500000)" fill="#E6CA9F">
            <path d="M106.432997,32.4443359 C106.663342,32.2750626 106.844617,32.0461796 106.953361,31.7873083 L111.49239,20.9818805 C111.841042,20.1518936 112.671189,19.5859375 113.539965,19.5859375 C114.142524,19.5859375 114.576876,20.074408 114.510118,20.676967 C114.498491,20.7819074 114.471786,20.886299 114.430826,20.9869157 L114.029814,21.9719909 C113.841664,22.4341768 114.051515,22.9198675 114.498528,23.0568115 C114.57638,23.0806613 114.658551,23.0927734 114.742503,23.0927734 C115.431023,23.0927734 115.981215,23.5576414 116.081201,24.2238651 L117.186341,31.5876073 C117.232085,31.8924053 117.368038,32.1675036 117.577643,32.3793945 C117.784324,32.5883305 118.070952,32.7041016 118.381558,32.7041016 L118.645672,32.7041016 C119.058133,32.7041016 119.355453,33.038467 119.309757,33.4509277 L119.284574,33.6782227 C119.22497,34.2162149 118.740522,34.6523437 118.202529,34.6523437 L117.001714,34.6523437 C116.434102,34.6523437 115.905282,34.4574826 115.503676,34.1003418 C115.100135,33.7414801 114.835361,33.2520961 114.746941,32.7016643 L113.452668,24.6445642 C113.43484,24.5335836 113.342636,24.456543 113.22764,24.456543 C113.111389,24.456543 113.000007,24.5311851 112.951463,24.6416214 L109.158491,33.2706784 C108.968452,33.7030195 108.644168,34.0751887 108.237527,34.3276367 C107.828273,34.5817072 107.365468,34.7172852 106.907436,34.7172852 L105.629172,34.7172852 C105.073247,34.7172852 104.67251,34.2666187 104.734102,33.7106934 L104.777271,33.3210449 C104.815021,32.9803165 105.121838,32.7041016 105.462567,32.7041016 L105.663682,32.7041016 C105.93286,32.7041016 106.204174,32.6124903 106.432997,32.4443359 Z M124.089439,19.9106445 L136.493248,19.9106445 C137.120905,19.9106445 137.57335,20.4194615 137.503811,21.0471191 L137.428265,21.7290039 C137.400449,21.9800669 137.174373,22.1835938 136.92331,22.1835938 C136.672247,22.1835938 136.446171,22.3871206 136.418356,22.6381836 L136.087389,25.6254883 C136.059574,25.8765513 136.240552,26.0800781 136.491615,26.0800781 C136.742678,26.0800781 136.923656,26.2836049 136.89584,26.534668 L136.744747,27.8984375 C136.716931,28.1495005 136.490856,28.3530273 136.239792,28.3530273 C135.988729,28.3530273 135.762654,28.5565541 135.734838,28.8076172 L135.238388,33.2885742 C135.162889,33.970031 134.549255,34.5224609 133.867798,34.5224609 C133.186341,34.5224609 132.695116,33.970031 132.770615,33.2885742 L132.97567,31.4377441 C133.164419,29.7341021 131.936354,28.3530273 130.232712,28.3530273 L128.154587,28.3530273 C126.773741,28.3530273 125.530324,29.4724248 125.377339,30.8532715 L125.20466,32.4118652 C125.137689,33.0163496 124.840756,33.5976704 124.375373,34.0354004 C123.912428,34.470838 123.310081,34.7172852 122.708762,34.7172852 L122.319114,34.7172852 C121.799055,34.7172852 121.424172,34.2956939 121.48179,33.7756348 L121.542947,33.2236328 C121.566788,33.0084359 121.760568,32.8339844 121.975765,32.8339844 L122.111809,32.8339844 C122.272502,32.8339844 122.432801,32.7626081 122.549351,32.6391602 C122.668202,32.5132756 122.743232,32.3545966 122.761387,32.1907316 L123.125413,28.9050293 C123.159189,28.600167 122.93943,28.3530273 122.634568,28.3530273 C122.329706,28.3530273 122.109947,28.1058877 122.143723,27.8010254 L122.273231,26.6320801 C122.307007,26.3272178 122.581528,26.0800781 122.88639,26.0800781 C123.191252,26.0800781 123.465773,25.8329384 123.499549,25.5280762 L123.805333,22.7680664 C123.841096,22.4452711 123.60841,22.1835938 123.285615,22.1835938 C122.96282,22.1835938 122.730134,21.9219164 122.765897,21.5991211 L122.827053,21.0471191 C122.896592,20.4194615 123.461782,19.9106445 124.089439,19.9106445 Z M132.052705,22.1835938 L128.286103,22.1835938 C127.210119,22.1835938 126.241223,23.0558515 126.122013,24.1318359 C126.002804,25.2078204 126.778423,26.0800781 127.854408,26.0800781 L131.621009,26.0800781 C132.696994,26.0800781 133.66589,25.2078204 133.785099,24.1318359 C133.904309,23.0558515 133.128689,22.1835938 132.052705,22.1835938 Z M146.635367,21.2744141 L146.673791,21.2744141 C146.902807,21.2744141 147.13421,21.2066251 147.338837,21.0795898 C147.543235,20.9526968 147.710738,20.77106 147.819229,20.558662 L147.901444,20.3977051 C148.051702,20.1035373 148.357982,19.9106445 148.674811,19.9106445 L149.878635,19.9106445 C150.009401,19.9106445 150.103663,20.016651 150.089175,20.1474166 C150.085838,20.1775386 150.076783,20.207384 150.062498,20.2353516 C150.000481,20.3567644 150.04427,20.4945587 150.160302,20.5431239 C150.18703,20.5543109 150.216239,20.5600586 150.246361,20.5600586 L153.533359,20.5600586 C154.035485,20.5600586 154.397441,20.9671122 154.34181,21.4692383 C154.275816,22.064901 154.054545,22.6501188 153.700139,23.1663335 L151.876905,25.8219847 C151.498188,26.3736087 150.988022,26.8300647 150.399466,27.1438779 L150.096328,27.3055087 C149.527092,27.6090206 148.904296,27.7685547 148.288669,27.7685547 L146.532818,27.7685547 C146.012759,27.7685547 145.637876,27.3469634 145.695494,26.8269043 L145.713482,26.6645508 C145.761165,26.234157 146.148724,25.8852539 146.579118,25.8852539 L147.122024,25.8852539 C147.220502,25.8852539 147.309178,25.805422 147.320089,25.7069444 C147.321924,25.6903765 147.321442,25.6738894 147.318655,25.657959 C147.293321,25.5131261 147.206438,25.3923102 147.079175,25.3249471 L147.03352,25.3007812 C146.872154,25.2153666 146.688711,25.1708984 146.497718,25.1708984 L146.366025,25.1708984 C146.132895,25.1708984 145.964845,24.9819093 145.990673,24.7487793 L146.030245,24.3916016 C146.077929,23.9612078 146.465488,23.6123047 146.895881,23.6123047 L147.921235,23.6123047 C148.226589,23.6123047 148.515098,23.70269 148.750402,23.8720703 C148.985631,24.0413956 149.156647,24.2825989 149.241601,24.5648619 L149.277409,24.6838379 C149.324931,24.8417312 149.497292,24.9170241 149.662388,24.8520092 C149.724161,24.827683 149.778909,24.7856522 149.819103,24.7316964 L150.691625,23.5604265 C150.914995,23.2605768 150.870073,22.8633547 150.59129,22.673206 C150.49556,22.6079117 150.379992,22.5732422 150.25807,22.5732422 L149.612699,22.5732422 C149.269596,22.5732422 148.922512,22.6627809 148.605756,22.8330078 C148.288999,23.0032347 147.941915,23.0927734 147.598812,23.0927734 L146.953441,23.0927734 C146.451315,23.0927734 146.089359,22.6857198 146.14499,22.1835938 L146.202549,21.6640625 C146.226391,21.4488656 146.42017,21.2744141 146.635367,21.2744141 Z M142.921001,26.6645508 L143.54696,21.0146484 C143.614512,20.4049239 144.163553,19.9106445 144.773277,19.9106445 C145.383002,19.9106445 145.822519,20.4049239 145.754967,21.0146484 L145.129009,26.6645508 C145.061457,27.2742753 144.512416,27.7685547 143.902691,27.7685547 C143.292967,27.7685547 142.853449,27.2742753 142.921001,26.6645508 Z M140.607077,22.6381836 C140.327242,22.2996915 140.16643,21.8734711 140.145591,21.4150513 L140.128316,21.0350522 C140.106946,20.5649489 140.477313,20.1243089 140.955554,20.0508553 C141.000315,20.0439803 141.045164,20.0405273 141.089698,20.0405273 L141.567705,20.0405273 C141.874194,20.0405273 142.113035,20.2588195 142.136142,20.5600586 L142.151514,20.7604443 C142.16726,20.9657166 142.26098,21.1491044 142.414176,21.2744141 L142.533266,21.3718262 C142.610569,21.4350574 142.709325,21.4692383 142.81471,21.4692383 C142.904376,21.4692383 142.969011,21.5419264 142.959077,21.6315918 L142.88353,22.3134766 C142.831872,22.7797365 142.412017,23.1577148 141.945758,23.1577148 L141.748716,23.1577148 C141.29436,23.1577148 140.881105,22.9696528 140.607077,22.6381836 Z M139.518585,26.0151367 C139.666527,26.0151367 139.81593,25.9696308 139.946528,25.8847916 L140.095769,25.7878418 C140.323894,25.6396475 140.509896,25.4319906 140.630243,25.1911417 L140.737708,24.9760742 C140.91378,24.6237045 141.278793,24.3916016 141.656871,24.3916016 L142.036349,24.3916016 C142.433721,24.3916016 142.720165,24.7137353 142.67614,25.1111073 C142.667361,25.1903423 142.645555,25.2690332 142.611602,25.3440025 L142.242587,26.1587917 C142.035572,26.6158836 141.704654,27.0173701 141.290458,27.3139648 C140.879006,27.6085948 140.395075,27.7685547 139.915175,27.7685547 L139.876324,27.7685547 C139.44593,27.7685547 139.135683,27.4196516 139.183366,26.9892578 L139.266108,26.2424316 C139.280016,26.1169001 139.393054,26.0151367 139.518585,26.0151367 Z M139.934445,29.0024414 L144.188107,29.0024414 C144.421237,29.0024414 144.631164,28.8134522 144.656993,28.5803223 C144.682822,28.3471923 144.892749,28.1582031 145.125879,28.1582031 L146.684473,28.1582031 C146.917603,28.1582031 147.085654,28.3471923 147.059825,28.5803223 C147.033996,28.8134522 147.202047,29.0024414 147.435177,29.0024414 L152.338253,29.0024414 C152.876246,29.0024414 153.264055,29.4385703 153.204451,29.9765625 C153.144846,30.5145547 152.660398,30.9506836 152.122406,30.9506836 L148.854403,30.9506836 C148.591779,30.9506836 148.355293,31.1635822 148.326197,31.426206 C148.312224,31.5523224 148.348923,31.6732734 148.428221,31.7624512 L148.781989,32.1602969 C149.024287,32.4327839 149.331293,32.6407891 149.680469,32.769043 C150.031524,32.8979868 150.408832,32.9638672 150.79626,32.9638672 L151.996775,32.9638672 C152.480968,32.9638672 152.829997,33.3563832 152.776353,33.8405762 C152.722708,34.3247692 152.286705,34.7172852 151.802512,34.7172852 L149.643128,34.7172852 C149.288002,34.7172852 148.940753,34.6641857 148.612901,34.5597479 L148.240712,34.4411865 C147.737952,34.2810313 147.291821,34.0036766 146.936605,33.6304362 L146.443328,33.1121296 C145.910173,32.551921 144.985034,32.5439156 144.319299,33.09375 L143.770597,33.5469269 C143.354948,33.8902142 142.879383,34.1483642 142.376098,34.3039014 L142.007179,34.4179134 C141.643759,34.5302259 141.271146,34.5874023 140.902637,34.5874023 L139.120857,34.5874023 C138.654597,34.5874023 138.318495,34.209424 138.370153,33.7431641 C138.42181,33.2769041 138.841665,32.8989258 139.307925,32.8989258 L140.177116,32.8989258 C140.503433,32.8989258 140.833694,32.8326444 141.147869,32.7041016 C141.463685,32.5748871 141.764123,32.4030864 142.04,32.1939497 L142.652033,31.7299805 C142.856493,31.5749838 142.913412,31.2975076 142.779165,31.11022 C142.706736,31.0091741 142.588887,30.9506836 142.457726,30.9506836 L139.718597,30.9506836 C139.180605,30.9506836 138.792795,30.5145547 138.8524,29.9765625 C138.912005,29.4385703 139.396453,29.0024414 139.934445,29.0024414 Z" id="人开奖"></path>
        </g>
    </g>
</svg>