<?xml version="1.0" encoding="UTF-8"?>
<svg width="84px" height="16px" viewBox="0 0 84 16" version="1.1" xmlns="http://www.w3.org/2000/svg" xmlns:xlink="http://www.w3.org/1999/xlink">
    <!-- Generator: Sketch 48.1 (47250) - http://www.bohemiancoding.com/sketch -->
    <title>随机中奖率</title>
    <desc>Created with Sketch.</desc>
    <defs></defs>
    <g id="1.-彩蛋计划-V3.0--首页未购买-封面广告" stroke="none" stroke-width="1" fill="none" fill-rule="evenodd" transform="translate(-182.000000, -677.000000)">
        <g id="Group-15" transform="translate(19.000000, 657.500000)" fill="#E6CA9F">
            <path d="M174.264058,20.4301758 L174.61538,20.4301758 C174.825605,20.4301758 175.022405,20.2798324 175.082927,20.072998 C175.143448,19.8661637 175.340248,19.7158203 175.550474,19.7158203 L176.902532,19.7158203 C177.069862,19.7158203 177.190482,19.8514687 177.171943,20.0187995 C177.16993,20.0369757 177.166284,20.055115 177.161052,20.072998 C177.112879,20.2376298 177.204599,20.3953557 177.365914,20.4252887 C177.383437,20.4285402 177.401395,20.4301758 177.419572,20.4301758 L179.556782,20.4301758 C180.040975,20.4301758 180.390004,20.8226918 180.33636,21.3068848 C180.282715,21.7910778 179.846712,22.1835938 179.362519,22.1835938 L177.041649,22.1835938 C176.744394,22.1835938 176.462136,22.3834366 176.353723,22.6706543 C176.275716,22.8773182 176.375064,23.0895281 176.575622,23.1446385 C176.607212,23.153319 176.64027,23.1577148 176.673959,23.1577148 L178.118121,23.1577148 C179.194105,23.1577148 179.969725,24.0299726 179.850515,25.105957 L179.34802,29.6414777 C179.28245,30.2333164 178.999347,30.8040503 178.553652,31.2429199 L178.521384,31.2746936 C178.101004,31.688635 177.542674,31.9248047 176.984452,31.9248047 L176.822099,31.9248047 C176.427571,31.9248047 176.143178,31.6049769 176.186888,31.2104492 L176.215667,30.9506836 C176.243483,30.6996206 176.469559,30.4960937 176.720622,30.4960937 L177.03745,30.4960937 C177.125657,30.4960937 177.214134,30.4610536 177.283416,30.3986816 C177.352698,30.3363097 177.397111,30.2517152 177.406883,30.163508 L177.423998,30.0090332 C177.441879,29.8476355 177.325536,29.7167969 177.164139,29.7167969 L175.962722,29.7167969 C175.352998,29.7167969 174.803957,30.2110763 174.736405,30.8208008 L174.718418,30.9831543 C174.6608,31.5032134 174.1925,31.9248047 173.672441,31.9248047 C173.152382,31.9248047 172.777499,31.5032134 172.835117,30.9831543 L173.461075,25.333252 C173.474983,25.2077204 173.384494,25.105957 173.258963,25.105957 C173.133431,25.105957 173.042942,25.0041936 173.05685,24.8786621 L173.193553,23.6447754 C173.207461,23.5192439 173.320499,23.4174805 173.446031,23.4174805 C173.589695,23.4174805 173.732804,23.3521757 173.83498,23.239993 L174.045722,23.0086085 C174.190635,22.8495024 174.308746,22.6691292 174.394595,22.4758301 C174.44626,22.3595012 174.397322,22.2337637 174.285289,22.1949874 C174.263486,22.187441 174.240204,22.1835938 174.21634,22.1835938 L173.939912,22.1835938 C173.617117,22.1835938 173.384431,21.9219164 173.420194,21.5991211 L173.470558,21.1445312 C173.514268,20.7500036 173.86953,20.4301758 174.264058,20.4301758 Z M165.09742,34.5874023 L164.610359,34.5874023 C164.0903,34.5874023 163.715417,34.1658111 163.773035,33.645752 L165.046537,22.151123 C165.191575,20.8420086 166.370398,19.7807617 167.679513,19.7807617 C168.988627,19.7807617 169.932297,20.8420086 169.787259,22.151123 L169.544793,24.3396209 C169.489642,24.8374158 169.27664,25.3221477 168.936949,25.7229004 L168.458322,26.2875623 C168.429536,26.3215232 168.411486,26.3626007 168.406812,26.4047852 C168.402174,26.4466506 168.412889,26.487093 168.436967,26.5186 L168.796648,26.9892578 C169.052599,27.3241812 169.166501,27.7540901 169.117195,28.1991257 L168.76558,31.3728027 C168.698609,31.9772871 168.401675,32.5586079 167.936293,32.9963379 L167.8113,33.1139042 C167.428173,33.4742664 166.929678,33.6782227 166.432035,33.6782227 L166.107328,33.6782227 C165.856265,33.6782227 165.630189,33.8817495 165.602374,34.1328125 C165.574558,34.3838755 165.348483,34.5874023 165.09742,34.5874023 Z M170.70326,20.9172363 C170.768825,20.3254449 171.301718,19.8457031 171.893509,19.8457031 C172.485301,19.8457031 172.911891,20.3254449 172.846326,20.9172363 C172.780761,21.5090278 172.247868,21.9887695 171.656077,21.9887695 C171.064285,21.9887695 170.637695,21.5090278 170.70326,20.9172363 Z M166.909282,25.5605469 L166.967094,25.5605469 C167.157104,25.5605469 167.346826,25.4775181 167.486466,25.333252 C167.628436,25.186579 167.718237,24.9997716 167.739639,24.8065919 L168.048231,22.0212402 C168.082007,21.716378 167.862248,21.4692383 167.557386,21.4692383 C167.252524,21.4692383 166.978003,21.716378 166.944227,22.0212402 L166.591676,25.2033691 C166.569821,25.400633 166.712018,25.5605469 166.909282,25.5605469 Z M169.781187,25.7229004 L169.835149,25.2358398 C169.886806,24.7695799 170.306661,24.3916016 170.772921,24.3916016 L171.227511,24.3916016 C171.944834,24.3916016 172.461914,24.9731067 172.382441,25.6904297 L171.845231,30.539284 C171.7674,31.2417895 172.048841,31.8969909 172.593806,32.2819824 L172.64241,32.3163186 C173.180483,32.6964412 173.836584,32.8989258 174.530206,32.8989258 L178.207827,32.8989258 C178.638221,32.8989258 178.948469,33.2478289 178.900785,33.6782227 C178.853101,34.1086164 178.465543,34.4575195 178.035149,34.4575195 L173.842808,34.4575195 C173.436912,34.4575195 173.041686,34.388154 172.674196,34.2524184 L171.924596,33.9755466 C171.532158,33.8305961 171.070164,33.901983 170.696677,34.1652832 C170.304381,34.4418435 169.858285,34.5874023 169.416023,34.5874023 C169.039429,34.5874023 168.767962,34.2821121 168.809685,33.9055176 L168.888829,33.1911621 C168.902737,33.0656306 169.015775,32.9638672 169.141306,32.9638672 C169.285329,32.9638672 169.428998,32.8998956 169.533457,32.7892544 C169.67139,32.6431584 169.74642,32.4844794 169.764575,32.3206145 L170.416398,26.4372559 C170.438253,26.239992 170.296056,26.0800781 170.098793,26.0800781 C169.901529,26.0800781 169.759332,25.9201642 169.781187,25.7229004 Z M175.835221,25.8852539 L177.328873,25.8852539 C177.633736,25.8852539 177.908256,25.6381142 177.942032,25.333252 C177.975808,25.0283897 177.756049,24.78125 177.451187,24.78125 L175.957535,24.78125 C175.652673,24.78125 175.378152,25.0283897 175.344376,25.333252 C175.3106,25.6381142 175.530359,25.8852539 175.835221,25.8852539 Z M166.280006,32.1196289 L166.596835,32.1196289 C166.685042,32.1196289 166.773519,32.0845887 166.842801,32.0222168 C166.912083,31.9598449 166.956495,31.8752504 166.966268,31.7870432 L167.365373,28.1847204 C167.390746,27.9557045 167.347762,27.7318126 167.241838,27.5412598 C167.14035,27.3586867 166.947593,27.2490234 166.728167,27.2490234 L166.722214,27.2490234 C166.52495,27.2490234 166.347319,27.4089374 166.325464,27.6062012 L165.875781,31.6650391 C165.847965,31.9161021 166.028943,32.1196289 166.280006,32.1196289 Z M177.668625,27.8010254 C177.702401,27.4961631 177.482642,27.2490234 177.17778,27.2490234 L175.684128,27.2490234 C175.379265,27.2490234 175.104745,27.4961631 175.070969,27.8010254 C175.037193,28.1058877 175.256952,28.3530273 175.561814,28.3530273 L177.055466,28.3530273 C177.360329,28.3530273 177.634849,28.1058877 177.668625,27.8010254 Z M181.664342,22.2160645 C181.72196,21.6960053 182.190259,21.2744141 182.710319,21.2744141 L183.522086,21.2744141 C183.916614,21.2744141 184.271876,20.9545862 184.315586,20.5600586 C184.359296,20.165531 184.714558,19.8457031 185.109085,19.8457031 L185.888382,19.8457031 C186.28291,19.8457031 186.567304,20.165531 186.523594,20.5600586 C186.479883,20.9545862 186.764277,21.2744141 187.158805,21.2744141 L187.775748,21.2744141 C188.295807,21.2744141 188.67069,21.6960053 188.613072,22.2160645 C188.555454,22.7361236 188.087155,23.1577148 187.567095,23.1577148 L186.722857,23.1577148 C186.417995,23.1577148 186.143474,23.4048545 186.109698,23.7097168 C186.075922,24.0145791 186.295681,24.2617187 186.600543,24.2617187 L186.957721,24.2617187 C187.46727,24.2617187 187.843327,24.660816 187.81327,25.1696847 L187.434787,31.5773926 C187.426312,31.7208629 187.447754,31.8612508 187.497765,31.9897461 L187.539682,32.0974423 C187.560465,32.1508401 187.611304,32.1845703 187.671005,32.1845703 C187.724804,32.1845703 187.763585,32.2281832 187.757625,32.2819824 L187.700065,32.8015137 C187.694105,32.8553129 187.732886,32.8989258 187.786685,32.8989258 C187.847119,32.8989258 187.906635,32.8672175 187.943469,32.8153956 L187.999496,32.7365723 C188.075008,32.6303365 188.122146,32.5087747 188.135872,32.3848836 L189.154562,23.1901855 C189.355232,21.3789451 190.986207,19.9106445 192.797447,19.9106445 C194.608688,19.9106445 195.914314,21.3789451 195.713644,23.1901855 L194.704208,32.3013634 C194.689297,32.4359526 194.720635,32.5665344 194.793068,32.6716309 L194.870013,32.7832737 C194.892104,32.8153259 194.928858,32.8339844 194.969905,32.8339844 C195.005771,32.8339844 195.031625,32.8630596 195.027652,32.8989258 L194.93052,33.7756348 C194.88085,34.2239616 194.477143,34.5874023 194.028816,34.5874023 C193.521011,34.5874023 193.073975,34.336048 192.834954,33.9161302 L192.754983,33.7756348 C192.453909,33.2467001 192.330811,32.6218381 192.401678,31.9821988 L193.364961,23.2875977 C193.424566,22.7496054 193.036756,22.3134766 192.498764,22.3134766 C191.960772,22.3134766 191.476324,22.7496054 191.416719,23.2875977 L190.44501,32.0582451 C190.371051,32.7257985 190.057309,33.3706617 189.562062,33.8730469 L189.299717,34.1391732 C188.978239,34.465285 188.54528,34.6523437 188.111953,34.6523437 L187.754775,34.6523437 C187.575445,34.6523437 187.446175,34.5069675 187.466043,34.3276367 C187.485911,34.148306 187.356641,34.0029297 187.177311,34.0029297 L187.014957,34.0029297 C186.70869,34.0029297 186.436776,33.8573808 186.282415,33.6108188 L186.141658,33.3859863 C185.889362,32.9829904 185.766046,32.5039501 185.786062,32.0046153 L186.009233,26.4370133 C186.011427,26.3822737 185.970592,26.3398437 185.915716,26.3398437 C185.861917,26.3398437 185.813472,26.3834566 185.807511,26.4372559 L185.01607,33.5808105 C184.950505,34.172602 184.417612,34.6523437 183.82582,34.6523437 C183.234029,34.6523437 182.807438,34.172602 182.873003,33.5808105 L183.668043,26.4047852 C183.672016,26.368919 183.646162,26.3398437 183.610296,26.3398437 C183.573732,26.3398437 183.540275,26.3681548 183.53373,26.4046328 L182.496858,32.1837041 C182.40714,32.6837556 182.126366,33.1504009 181.71485,33.4833984 L181.446043,33.7009166 C181.205622,33.8954653 180.911063,34.0029297 180.618229,34.0029297 C180.367166,34.0029297 180.186188,33.7994029 180.214003,33.5483398 L180.336317,32.4443359 C180.344264,32.3726036 180.408857,32.3144531 180.48059,32.3144531 C180.561733,32.3144531 180.642001,32.2738996 180.694491,32.2063841 L180.76194,32.1196289 C180.861133,31.9920423 180.92713,31.8441369 180.95317,31.691066 L182.073635,25.1044755 C182.15415,24.631172 182.587101,24.2617187 183.061237,24.2617187 L183.353473,24.2617187 C183.658335,24.2617187 183.932856,24.0145791 183.966632,23.7097168 C184.000408,23.4048545 183.780649,23.1577148 183.475787,23.1577148 L182.501666,23.1577148 C181.981607,23.1577148 181.606724,22.7361236 181.664342,22.2160645 Z M201.676239,21.0795898 L204.046601,21.0795898 C204.369396,21.0795898 204.660065,20.8179125 204.695828,20.4951172 C204.73159,20.1723219 205.022259,19.9106445 205.345055,19.9106445 L206.773765,19.9106445 C207.096561,19.9106445 207.329247,20.1723219 207.293484,20.4951172 C207.257721,20.8179125 207.490407,21.0795898 207.813202,21.0795898 L210.183563,21.0795898 C211.815473,21.0795898 212.991829,22.4025141 212.811028,24.0344238 L212.124668,30.229511 C212.036313,31.0270042 211.649643,31.7949967 211.042242,32.3793945 C210.439664,32.9591519 209.647732,33.2885742 208.856571,33.2885742 L206.395615,33.2885742 C206.07282,33.2885742 205.782151,33.5502515 205.746388,33.8730469 C205.710625,34.1958422 205.419956,34.4575195 205.097161,34.4575195 L203.830804,34.4575195 C203.525941,34.4575195 203.306182,34.2103798 203.339958,33.9055176 C203.373734,33.6006553 203.153976,33.3535156 202.849113,33.3535156 L200.38134,33.3535156 C198.713564,33.3535156 197.511354,32.0015161 197.696129,30.3337402 L198.394036,24.0344238 C198.574837,22.4025141 200.044329,21.0795898 201.676239,21.0795898 Z M202.672693,23.2226562 C201.686374,23.2226562 200.79822,24.0222258 200.688944,25.0085449 L200.178105,29.6193848 C200.068829,30.6057038 200.779814,31.4052734 201.766133,31.4052734 C202.752452,31.4052734 203.640607,30.6057038 203.749882,29.6193848 L204.260722,25.0085449 C204.369997,24.0222258 203.659013,23.2226562 202.672693,23.2226562 Z M207.682996,31.340332 L209.077215,31.340332 C209.239097,31.340332 209.398178,31.2535906 209.494067,31.1130371 C209.595682,30.9640886 209.659129,30.7955067 209.678135,30.623955 L210.300272,25.0085449 C210.409548,24.0222258 209.698563,23.2226562 208.712244,23.2226562 C207.725925,23.2226562 206.83777,24.0222258 206.728495,25.0085449 L206.210461,29.6843262 C206.109133,30.598913 206.768409,31.340332 207.682996,31.340332 Z M222.078727,21.2744141 L222.117151,21.2744141 C222.346167,21.2744141 222.577569,21.2066251 222.782196,21.0795898 C222.986594,20.9526968 223.154097,20.77106 223.262588,20.558662 L223.344804,20.3977051 C223.495062,20.1035373 223.801342,19.9106445 224.11817,19.9106445 L225.321994,19.9106445 C225.45276,19.9106445 225.547022,20.016651 225.532534,20.1474166 C225.529197,20.1775386 225.520143,20.207384 225.505857,20.2353516 C225.443841,20.3567644 225.487629,20.4945587 225.603661,20.5431239 C225.630389,20.5543109 225.659598,20.5600586 225.68972,20.5600586 L228.976719,20.5600586 C229.478845,20.5600586 229.8408,20.9671122 229.785169,21.4692383 C229.719175,22.064901 229.497905,22.6501188 229.143498,23.1663335 L227.320264,25.8219847 C226.941548,26.3736087 226.431381,26.8300647 225.842825,27.1438779 L225.539687,27.3055087 C224.970452,27.6090206 224.347656,27.7685547 223.732029,27.7685547 L221.976178,27.7685547 C221.456118,27.7685547 221.081236,27.3469634 221.138854,26.8269043 L221.156841,26.6645508 C221.204525,26.234157 221.592083,25.8852539 222.022477,25.8852539 L222.565384,25.8852539 C222.663861,25.8852539 222.752538,25.805422 222.763448,25.7069444 C222.765284,25.6903765 222.764801,25.6738894 222.762015,25.657959 C222.73668,25.5131261 222.649797,25.3923102 222.522534,25.3249471 L222.47688,25.3007812 C222.315514,25.2153666 222.13207,25.1708984 221.941077,25.1708984 L221.809385,25.1708984 C221.576255,25.1708984 221.408204,24.9819093 221.434033,24.7487793 L221.473605,24.3916016 C221.521288,23.9612078 221.908847,23.6123047 222.339241,23.6123047 L223.364594,23.6123047 C223.669949,23.6123047 223.958457,23.70269 224.193762,23.8720703 C224.42899,24.0413956 224.600006,24.2825989 224.68496,24.5648619 L224.720769,24.6838379 C224.76829,24.8417312 224.940651,24.9170241 225.105748,24.8520092 C225.167521,24.827683 225.222268,24.7856522 225.262462,24.7316964 L226.134985,23.5604265 C226.358354,23.2605768 226.313432,22.8633547 226.034649,22.673206 C225.938919,22.6079117 225.823352,22.5732422 225.70143,22.5732422 L225.056059,22.5732422 C224.712956,22.5732422 224.365872,22.6627809 224.049115,22.8330078 C223.732358,23.0032347 223.385274,23.0927734 223.042171,23.0927734 L222.3968,23.0927734 C221.894674,23.0927734 221.532718,22.6857198 221.588349,22.1835938 L221.645909,21.6640625 C221.669751,21.4488656 221.86353,21.2744141 222.078727,21.2744141 Z M218.36436,26.6645508 L218.990319,21.0146484 C219.057871,20.4049239 219.606912,19.9106445 220.216637,19.9106445 C220.826361,19.9106445 221.265879,20.4049239 221.198327,21.0146484 L220.572368,26.6645508 C220.504816,27.2742753 219.955775,27.7685547 219.346051,27.7685547 C218.736326,27.7685547 218.296809,27.2742753 218.36436,26.6645508 Z M216.050436,22.6381836 C215.770602,22.2996915 215.609789,21.8734711 215.58895,21.4150513 L215.571676,21.0350522 C215.550305,20.5649489 215.920672,20.1243089 216.398913,20.0508553 C216.443675,20.0439803 216.488524,20.0405273 216.533057,20.0405273 L217.011064,20.0405273 C217.317553,20.0405273 217.556394,20.2588195 217.579502,20.5600586 L217.594873,20.7604443 C217.610619,20.9657166 217.704339,21.1491044 217.857535,21.2744141 L217.976626,21.3718262 C218.053929,21.4350574 218.152684,21.4692383 218.25807,21.4692383 C218.347735,21.4692383 218.41237,21.5419264 218.402436,21.6315918 L218.326889,22.3134766 C218.275232,22.7797365 217.855377,23.1577148 217.389117,23.1577148 L217.192075,23.1577148 C216.73772,23.1577148 216.324465,22.9696528 216.050436,22.6381836 Z M214.961945,26.0151367 C215.109886,26.0151367 215.25929,25.9696308 215.389888,25.8847916 L215.539129,25.7878418 C215.767253,25.6396475 215.953255,25.4319906 216.073602,25.1911417 L216.181067,24.9760742 C216.357139,24.6237045 216.722153,24.3916016 217.10023,24.3916016 L217.479708,24.3916016 C217.87708,24.3916016 218.163524,24.7137353 218.119499,25.1111073 C218.110721,25.1903423 218.088915,25.2690332 218.054961,25.3440025 L217.685946,26.1587917 C217.478931,26.6158836 217.148014,27.0173701 216.733818,27.3139648 C216.322365,27.6085948 215.838434,27.7685547 215.358534,27.7685547 L215.319684,27.7685547 C214.88929,27.7685547 214.579042,27.4196516 214.626726,26.9892578 L214.709467,26.2424316 C214.723375,26.1169001 214.836413,26.0151367 214.961945,26.0151367 Z M215.377804,29.0024414 L219.631466,29.0024414 C219.864596,29.0024414 220.074524,28.8134522 220.100352,28.5803223 C220.126181,28.3471923 220.336109,28.1582031 220.569239,28.1582031 L222.127832,28.1582031 C222.360962,28.1582031 222.529013,28.3471923 222.503184,28.5803223 C222.477356,28.8134522 222.645407,29.0024414 222.878537,29.0024414 L227.781613,29.0024414 C228.319605,29.0024414 228.707415,29.4385703 228.64781,29.9765625 C228.588205,30.5145547 228.103757,30.9506836 227.565765,30.9506836 L224.297762,30.9506836 C224.035138,30.9506836 223.798652,31.1635822 223.769556,31.426206 C223.755584,31.5523224 223.792283,31.6732734 223.87158,31.7624512 L224.225348,32.1602969 C224.467646,32.4327839 224.774652,32.6407891 225.123829,32.769043 C225.474884,32.8979868 225.852192,32.9638672 226.23962,32.9638672 L227.440134,32.9638672 C227.924327,32.9638672 228.273356,33.3563832 228.219712,33.8405762 C228.166068,34.3247692 227.730065,34.7172852 227.245872,34.7172852 L225.086488,34.7172852 C224.731361,34.7172852 224.384113,34.6641857 224.056261,34.5597479 L223.684072,34.4411865 C223.181311,34.2810313 222.735181,34.0036766 222.379965,33.6304362 L221.886688,33.1121296 C221.353532,32.551921 220.428393,32.5439156 219.762659,33.09375 L219.213956,33.5469269 C218.798307,33.8902142 218.322743,34.1483642 217.819457,34.3039014 L217.450538,34.4179134 C217.087118,34.5302259 216.714506,34.5874023 216.345997,34.5874023 L214.564216,34.5874023 C214.097957,34.5874023 213.761855,34.209424 213.813512,33.7431641 C213.86517,33.2769041 214.285025,32.8989258 214.751284,32.8989258 L215.620475,32.8989258 C215.946793,32.8989258 216.277054,32.8326444 216.591229,32.7041016 C216.907045,32.5748871 217.207482,32.4030864 217.48336,32.1939497 L218.095393,31.7299805 C218.299853,31.5749838 218.356771,31.2975076 218.222525,31.11022 C218.150095,31.0091741 218.032247,30.9506836 217.901086,30.9506836 L215.161956,30.9506836 C214.623964,30.9506836 214.236154,30.5145547 214.295759,29.9765625 C214.355364,29.4385703 214.839812,29.0024414 215.377804,29.0024414 Z M237.909666,20.2353516 C237.929534,20.0560208 238.091017,19.9106445 238.270347,19.9106445 L240.21859,19.9106445 C240.39792,19.9106445 240.52719,20.0560208 240.507322,20.2353516 C240.487454,20.4146823 240.616724,20.5600586 240.796054,20.5600586 L245.536777,20.5600586 C246.038903,20.5600586 246.400859,20.9671122 246.345228,21.4692383 C246.289597,21.9713644 245.837445,22.378418 245.335319,22.378418 L241.631747,22.378418 C240.92609,22.378418 240.218277,22.6587394 239.664019,23.1577148 C239.465993,23.3359898 239.43397,23.6250306 239.592494,23.8033055 C239.668619,23.8889162 239.779404,23.9370117 239.900475,23.9370117 L240.811567,23.9370117 C241.313693,23.9370117 241.675649,24.3440653 241.620018,24.8461914 L241.60203,25.0085449 C241.556333,25.4210056 241.184923,25.7553711 240.772462,25.7553711 C240.297746,25.7553711 239.823367,25.9597701 239.470493,26.3163607 L238.21868,27.5813564 C238.140268,27.6605939 238.134683,27.7812772 238.206206,27.8509101 C238.23767,27.881543 238.280617,27.8984375 238.327022,27.8984375 L238.495537,27.8984375 C238.65623,27.8984375 238.816529,27.8270612 238.93308,27.7036133 C239.058683,27.5705768 239.125929,27.4283595 239.1422,27.2814941 C239.156108,27.1559626 239.269146,27.0541992 239.394677,27.0541992 L240.46621,27.0541992 C240.93247,27.0541992 241.268572,27.4321776 241.216915,27.8984375 C241.158394,28.4266473 240.842545,28.9207063 240.373157,29.2182663 C239.854489,29.5470661 239.285451,29.7167969 238.722147,29.7167969 L235.787674,29.7167969 C235.231748,29.7167969 234.831012,29.2661304 234.892603,28.7102051 C234.964009,28.0656952 235.288521,27.4475827 235.79475,26.9918454 L236.454101,26.3982582 C236.617464,26.2511889 236.643882,26.0127424 236.513107,25.8656731 C236.450306,25.7950479 236.358914,25.7553711 236.259035,25.7553711 C235.756909,25.7553711 235.394953,25.3483175 235.450584,24.8461914 L235.454181,24.8137207 C235.520825,24.2121936 235.830146,23.6367372 236.310552,23.2205374 L236.420546,23.1252441 C236.611843,22.9595149 236.648101,22.6849734 236.501531,22.5120386 C236.429187,22.4266816 236.321434,22.378418 236.203209,22.378418 L232.347038,22.378418 C231.844912,22.378418 231.482956,21.9713644 231.538587,21.4692383 C231.594218,20.9671122 232.04637,20.5600586 232.548496,20.5600586 L237.548984,20.5600586 C237.728315,20.5600586 237.889798,20.4146823 237.909666,20.2353516 Z M232.762906,25.4342854 C232.342576,25.2229804 232.049828,24.8485512 231.943406,24.3917279 L231.867734,24.0668945 C231.772325,23.6573417 232.039633,23.2112057 232.464783,23.0704219 C232.549937,23.0422241 232.637672,23.027832 232.724413,23.027832 L233.648447,23.027832 C233.876618,23.027832 234.064599,23.1705756 234.118817,23.3850098 L234.164138,23.5642516 C234.193243,23.6793633 234.26264,23.776581 234.360689,23.8395996 C234.459863,23.903341 234.577694,23.9370117 234.701586,23.9370117 L234.804487,23.9370117 C234.965884,23.9370117 235.082227,24.0678504 235.064346,24.229248 L234.978007,25.0085449 C234.93231,25.4210056 234.5609,25.7553711 234.148439,25.7553711 C233.656752,25.7553711 233.183411,25.6456783 232.762906,25.4342854 Z M242.460378,24.0019531 L242.563279,24.0019531 C242.68717,24.0019531 242.812462,23.9682824 242.92576,23.904541 C243.037491,23.8416812 243.127202,23.7434177 243.178679,23.6275099 L243.271958,23.4174805 C243.375303,23.1847862 243.610455,23.027832 243.855736,23.027832 L244.768466,23.027832 C245.220058,23.027832 245.545587,23.3939196 245.495554,23.8455114 C245.487262,23.9203557 245.468734,23.9948456 245.440488,24.0668945 L245.340471,24.3220116 C245.145982,24.8181068 244.745703,25.2251834 244.250332,25.4306641 L244.17977,25.4599332 C243.709971,25.6548066 243.215316,25.7553711 242.726576,25.7553711 C242.308244,25.7553711 242.010923,25.4210056 242.05662,25.0085449 L242.135764,24.2941895 C242.153646,24.1327918 242.29898,24.0019531 242.460378,24.0019531 Z M231.31335,27.8984375 L231.481193,27.8984375 C231.605084,27.8984375 231.730376,27.8647668 231.843674,27.8010254 C231.955562,27.738077 232.045953,27.6403885 232.099166,27.5249078 L232.316064,27.0541992 C232.495296,26.6652325 232.891247,26.4047852 233.30335,26.4047852 L233.784253,26.4047852 C234.294801,26.4047852 234.662827,26.8186657 234.606263,27.3292132 C234.598315,27.4009548 234.582042,27.4724525 234.557774,27.5422628 L234.372543,28.0750964 C234.194384,28.587588 233.833652,29.0350048 233.36307,29.3271484 C232.885606,29.6235639 232.345668,29.7817383 231.811297,29.7817383 L231.68917,29.7817383 C231.169111,29.7817383 230.794228,29.360147 230.851846,28.8400879 L230.9166,28.2556152 C230.938456,28.0583514 231.116086,27.8984375 231.31335,27.8984375 Z M242.926129,29.2700934 L242.916651,29.262207 C242.510702,28.9243974 242.236475,28.4559145 242.132652,27.9228423 L242.05472,27.5227078 C241.965724,27.0657707 242.27654,26.5821659 242.748946,26.4425462 C242.833653,26.4175111 242.92026,26.4047852 243.005933,26.4047852 L243.589505,26.4047852 C243.940293,26.4047852 244.228445,26.6259965 244.308546,26.9567871 L244.388746,27.2879883 C244.423452,27.4313124 244.505526,27.5543636 244.622648,27.6386719 C244.7403,27.723362 244.884554,27.7685547 245.037232,27.7685547 L245.127789,27.7685547 C245.30712,27.7685547 245.43639,27.913931 245.416521,28.0932617 L245.322987,28.9375 C245.27133,29.4037599 244.851475,29.7817383 244.385215,29.7817383 C243.837568,29.7817383 243.324973,29.601991 242.926129,29.2700934 Z M236.675549,30.7883301 C236.705352,30.519334 236.947576,30.3012695 237.216572,30.3012695 L238.645283,30.3012695 C238.914279,30.3012695 239.108184,30.519334 239.078381,30.7883301 C239.048579,31.0573262 239.242484,31.2753906 239.51148,31.2753906 L244.349615,31.2753906 C244.851741,31.2753906 245.213696,31.6824442 245.158065,32.1845703 C245.102434,32.6866964 244.650283,33.09375 244.148157,33.09375 L239.537317,33.09375 C239.142789,33.09375 238.787527,33.4135778 238.743817,33.8081055 C238.700107,34.2026331 238.344845,34.5224609 237.950318,34.5224609 L236.911255,34.5224609 C236.516727,34.5224609 236.232334,34.2026331 236.276044,33.8081055 C236.319754,33.4135778 236.03536,33.09375 235.640833,33.09375 L231.094934,33.09375 C230.592808,33.09375 230.230852,32.6866964 230.286483,32.1845703 C230.342114,31.6824442 230.794266,31.2753906 231.296392,31.2753906 L236.134527,31.2753906 C236.403523,31.2753906 236.645747,31.0573262 236.675549,30.7883301 Z" id="随机中奖率"></path>
        </g>
    </g>
</svg>