<?xml version="1.0" encoding="UTF-8"?>
<svg width="67px" height="48px" viewBox="0 0 67 48" version="1.1" xmlns="http://www.w3.org/2000/svg" xmlns:xlink="http://www.w3.org/1999/xlink">
    <!-- Generator: Sketch 42 (36781) - http://www.bohemiancoding.com/sketch -->
    <title>1@1x</title>
    <desc>Created with Sketch.</desc>
    <defs>
        <path d="M4,26 L4,37.0038998 C4,38.6657405 5.34234735,40 6.99821673,40 L45,40 L51,24.078125 L45,8 L6.99821673,8 C5.34083335,8 4,9.34139976 4,10.9961002 L4,22 C5.1045695,22 6,22.8954305 6,24 C6,25.1045695 5.1045695,26 4,26 Z" id="path-1"></path>
        <filter x="-50%" y="-50%" width="200%" height="200%" filterUnits="objectBoundingBox" id="filter-2">
            <feOffset dx="0" dy="0" in="SourceAlpha" result="shadowOffsetOuter1"></feOffset>
            <feGaussianBlur stdDeviation="0.5" in="shadowOffsetOuter1" result="shadowBlurOuter1"></feGaussianBlur>
            <feColorMatrix values="0 0 0 0 0   0 0 0 0 0   0 0 0 0 0  0 0 0 0.249462183 0" type="matrix" in="shadowBlurOuter1"></feColorMatrix>
        </filter>
    </defs>
    <g id="H5优化-&gt;-买单完成/消费记录" stroke="none" stroke-width="1" fill="none" fill-rule="evenodd">
        <g id="Group-6">
            <polygon id="Rectangle-12" fill="#A67632" points="-3.55271368e-15 0 61 0 41.4667969 48 -3.55271368e-15 48"></polygon>
            <g id="Combined-Shape">
                <use fill="black" fill-opacity="1" filter="url(#filter-2)" xlink:href="#path-1"></use>
                <use fill="#FFFFFF" fill-rule="evenodd" xlink:href="#path-1"></use>
            </g>
            <polygon id="Rectangle-12" fill="#CE9C58" points="61 0 67 0 66 48 41 48"></polygon>
        </g>
    </g>
</svg>