<?xml version="1.0" encoding="UTF-8"?>
<svg width="24px" height="24px" viewBox="0 0 24 24" version="1.1" xmlns="http://www.w3.org/2000/svg" xmlns:xlink="http://www.w3.org/1999/xlink">
    <!-- Generator: Sketch 42 (36781) - http://www.bohemiancoding.com/sketch -->
    <title>3@1x</title>
    <desc>Created with Sketch.</desc>
    <defs></defs>
    <g id="H5优化-&gt;-买单完成/消费记录" stroke="none" stroke-width="1" fill="none" fill-rule="evenodd">
        <path d="M23.4545455,17.774292 C23.4545455,17.774292 24,18.0181102 24,18.3197465 L24,20.1818182 C24,22.2905455 22.2905455,24 20.1818182,24 L3.81818182,24 C1.70945455,24 0,22.2905455 0,20.1818182 L0,0.545454545 C0,0.243818182 0.243818182,0 0.545454545,0 L16.9090909,0 C17.2107273,0 17.4545455,0.243818182 17.4545455,0.545454545 L17.4545455,17.774292 L23.4545455,17.774292 Z M4.46055203,21.0514378 C5.76954279,21.0514378 6.83019497,19.9905963 6.83019497,18.6813717 L6.83019497,18.2073585 C6.83019497,17.9452292 7.04204105,17.7333453 7.30412356,17.7333453 L15.3609095,17.7333453 L15.3609095,2.09090909 L2.09090909,2.09090909 L2.09090909,18.6813717 C2.09090909,19.9905963 3.15156127,21.0514378 4.46055203,21.0514378 Z M8,22 L19.6748048,22 C20.9592427,22 22,21.1048 22,20 L8.97890716,20 C8.97890716,20.784 8.60315562,21.4916 8,22 Z M8.14581497,10.992284 L12.6388706,6 L14.1479965,7.22014338 L9.73283969,12.1258731 L9.76089364,12.1459117 L8.3392334,13.6749268 L3.63334234,10.313576 L5.05500258,8.78456091 L8.14581497,10.992284 Z" id="Combined-Shape" fill="#3ED365" fill-rule="nonzero"></path>
    </g>
</svg>