<?xml version="1.0" encoding="UTF-8"?>
<svg width="24px" height="24px" viewBox="0 0 24 24" version="1.1" xmlns="http://www.w3.org/2000/svg" xmlns:xlink="http://www.w3.org/1999/xlink">
    <!-- Generator: Sketch 42 (36781) - http://www.bohemiancoding.com/sketch -->
    <title>4@1x</title>
    <desc>Created with Sketch.</desc>
    <defs></defs>
    <g id="H5优化-&gt;-买单完成/消费记录" stroke="none" stroke-width="1" fill="none" fill-rule="evenodd">
        <path d="M13.4210075,8.32503433 L13.4263216,8.3404541 L13.4691772,8.3404541 L13.2178683,8.76418189 L13.1917436,8.76592241 L12.8728666,14.9472279 L5.40456287,14.4629306 L5.55202939,11.3812881 C5.23147669,11.2757166 5,10.9730184 5,10.6160739 C5,10.2321263 5.26782405,9.91094313 5.62624694,9.83034645 L5.653149,9.2681678 L5.64276123,9.26885986 L5.35406554,8.34708193 L5.76758969,5.26451422 L5.55124521,6.80573824 L5.76758969,5.26451422 L6.39176245,5.05456176 L6.3912888,5.06027735 L9.51445489,4.0375636 L12.247736,4.92062205 L12.7117833,6.26712054 L9.26401951,6.51330758 L6.62608847,8.3348177 L13.4210075,8.32503433 Z M23.4545455,17.774292 C23.4545455,17.774292 24,18.0181102 24,18.3197465 L24,20.1818182 C24,22.2905455 22.2905455,24 20.1818182,24 L3.81818182,24 C1.70945455,24 0,22.2905455 0,20.1818182 L0,0.545454545 C0,0.243818182 0.243818182,0 0.545454545,0 L16.9090909,0 C17.2107273,0 17.4545455,0.243818182 17.4545455,0.545454545 L17.4545455,17.774292 L23.4545455,17.774292 Z M4.46055203,21.0514378 C5.76954279,21.0514378 6.83019497,19.9905963 6.83019497,18.6813717 L6.83019497,18.2073585 C6.83019497,17.9452292 7.04204105,17.7333453 7.30412356,17.7333453 L15.3609095,17.7333453 L15.3609095,2.09090909 L2.09090909,2.09090909 L2.09090909,18.6813717 C2.09090909,19.9905963 3.15156127,21.0514378 4.46055203,21.0514378 Z M8,22 L19.6748048,22 C20.9592427,22 22,21.1048 22,20 L8.97890716,20 C8.97890716,20.784 8.60315562,21.4916 8,22 Z M10.3500522,10.3476703 L10.1717172,11.9580921 L10.8850575,11.9580921 L10.7067224,10.3476703 L10.3500522,10.3476703 Z M12.383403,10.8844775 C12.5214742,10.8844775 12.633403,10.7643091 12.633403,10.6160739 C12.633403,10.4678387 12.5214742,10.3476703 12.383403,10.3476703 C12.2453318,10.3476703 12.133403,10.4678387 12.133403,10.6160739 C12.133403,10.7643091 12.2453318,10.8844775 12.383403,10.8844775 Z M9.35170672,10.8844775 C9.48977791,10.8844775 9.60170672,10.7643091 9.60170672,10.6160739 C9.60170672,10.4678387 9.48977791,10.3476703 9.35170672,10.3476703 C9.21363553,10.3476703 9.10170672,10.4678387 9.10170672,10.6160739 C9.10170672,10.7643091 9.21363553,10.8844775 9.35170672,10.8844775 Z M12.2225705,12.4948994 C12.4687999,12.4948994 12.6684082,12.2946187 12.6684082,12.04756 C12.6684082,11.8005012 12.4687999,11.6002206 12.2225705,11.6002206 C11.9763412,11.6002206 11.7767328,11.8005012 11.7767328,12.04756 C11.7767328,12.2946187 11.9763412,12.4948994 12.2225705,12.4948994 Z M8.21003135,12.8527709 C8.60399832,12.8527709 8.92337165,12.5323218 8.92337165,12.1370278 C8.92337165,11.7417339 8.60399832,11.4212848 8.21003135,11.4212848 C7.81606438,11.4212848 7.49669105,11.7417339 7.49669105,12.1370278 C7.49669105,12.5323218 7.81606438,12.8527709 8.21003135,12.8527709 Z" id="Combined-Shape" fill="#F6A623" fill-rule="nonzero"></path>
    </g>
</svg>