<?xml version="1.0" encoding="UTF-8"?>
<svg width="52px" height="24px" viewBox="0 0 52 24" version="1.1" xmlns="http://www.w3.org/2000/svg" xmlns:xlink="http://www.w3.org/1999/xlink">
    <!-- Generator: Sketch 42 (36781) - http://www.bohemiancoding.com/sketch -->
    <title>5@1x</title>
    <desc>Created with Sketch.</desc>
    <defs>
        <path d="M312.370968,121.653654 L308.919355,121.653654 L305.467742,120 L302.016129,121.653654 L298.564516,121.653654 L295.112903,120 L291.66129,121.653654 L288.209677,121.653654 L284.758065,120 L281.306452,121.653654 L277.854839,121.653654 L274.403226,120 L270.951613,121.653654 L267.5,121.653654 L264.048387,120 L260.596774,121.653654 L257.145161,121.653654 L253.693548,120 L250.241935,121.653654 L246.790323,121.653654 L243.33871,120 L239.887097,121.653654 L236.435484,121.653654 L232.983871,120 L229.532258,121.653654 L226.080645,121.653654 L222.629032,120 L219.177419,121.653654 L215.725806,121.653654 L212.274194,120 L208.822581,121.653654 L205.370968,121.653654 L201.919355,120 L198.467742,121.653654 L195.016129,121.653654 L191.564516,120 L188.112903,121.653654 L184.66129,121.653654 L181.209677,120 L177.758065,121.653654 L174.306452,121.653654 L170.854839,120 L167.403226,121.653654 L163.951613,121.653654 L160.5,120 L157.048387,121.653654 L153.596774,121.653654 L150.145161,120 L146.693548,121.653654 L143.241935,121.653654 L139.790323,120 L136.33871,121.653654 L132.887097,121.653654 L129.435484,120 L125.983871,121.653654 L122.532258,121.653654 L119.080645,120 L115.629032,121.653654 L112.177419,121.653654 L108.725806,120 L105.274194,121.653654 L101.822581,121.653654 L98.3709677,120 L94.9193548,121.653654 L91.4677419,121.653654 L88.016129,120 L84.5645161,121.653654 L81.1129032,121.653654 L77.6612903,120 L74.2096774,121.653654 L70.7580645,121.653654 L67.3064516,120 L63.8548387,121.653654 L60.4032258,121.653654 L56.9516129,120 L53.5,121.653654 L50.0483871,121.653654 L46.5967742,120 L43.1451613,121.653654 L39.6935484,121.653654 L36.2419355,120 L32.7903226,121.653654 L29.3387097,121.653654 L25.8870968,120 L22.4354839,121.653654 L18.983871,121.653654 L15.5322581,120 L12.0806452,121.653654 L8.62903226,121.653654 L5.17741935,120 L1.72580645,121.653654 L0,121.653654 L0,344.657078 C0,345.758844 0.899027764,346.653654 2.00803471,346.653654 L318.991965,346.653654 C320.107417,346.653654 321,345.759757 321,344.657078 L321,121.653654 L319.274194,121.653654 L315.822581,120 L312.370968,121.653654 Z" id="path-1"></path>
        <filter x="-50%" y="-50%" width="200%" height="200%" filterUnits="objectBoundingBox" id="filter-2">
            <feGaussianBlur stdDeviation="1.5" in="SourceAlpha" result="shadowBlurInner1"></feGaussianBlur>
            <feOffset dx="0" dy="1" in="shadowBlurInner1" result="shadowOffsetInner1"></feOffset>
            <feComposite in="shadowOffsetInner1" in2="SourceAlpha" operator="arithmetic" k2="-1" k3="1" result="shadowInnerInner1"></feComposite>
            <feColorMatrix values="0 0 0 0 0   0 0 0 0 0   0 0 0 0 0  0 0 0 0.0686990489 0" type="matrix" in="shadowInnerInner1"></feColorMatrix>
        </filter>
    </defs>
    <g id="H5优化-&gt;-买单完成/消费记录" stroke="none" stroke-width="1" fill="none" fill-rule="evenodd">
        <g id="1.未绑定手机号的在线支付完成" transform="translate(0.000000, -111.000000)">
            <path d="M-1.5,119.5 L319.5,119.5" id="Line" stroke="#E6E6E6" stroke-linecap="square"></path>
            <rect id="Rectangle-2" fill="#FFFFFF" x="0" y="55" width="320" height="80"></rect>
            <g id="Combined-Shape">
                <use fill="#FFFCF5" fill-rule="evenodd" xlink:href="#path-1"></use>
                <use fill="black" fill-opacity="1" filter="url(#filter-2)" xlink:href="#path-1"></use>
            </g>
        </g>
    </g>
</svg>