<?xml version="1.0" encoding="UTF-8"?>
<svg width="166px" height="91px" viewBox="0 0 166 91" version="1.1" xmlns="http://www.w3.org/2000/svg" xmlns:xlink="http://www.w3.org/1999/xlink">
    <!-- Generator: Sketch 47 (45396) - http://www.bohemiancoding.com/sketch -->
    <title>couponBig-2 bg</title>
    <desc>Created with Sketch.</desc>
    <defs></defs>
    <g id="纸质券分领取页面-V1.1" stroke="none" stroke-width="1" fill="none" fill-rule="evenodd">
        <g id="couponBig-2-bg" transform="translate(0.000000, -1.000000)">
            <g id="Group-2" transform="translate(0.500000, 0.500000)">
                <polygon id="Rectangle-5" fill="#004C7F" points="82.5888672 82 0.177734375 41 82.5888672 1 165 41"></polygon>
                <g id="coupon01-bg" transform="translate(3.000000, 0.656000)">
                    <g id="coupon-bg">
                        <path d="M157.81423,72.7596923 C157.804379,73.5421108 157.712453,73.8472953 157.547982,74.1548301 C157.373675,74.480756 157.117886,74.7365446 156.79196,74.9108517 C156.466034,75.0851588 156.142748,75.1779844 155.251229,75.1779844 L3.52370388,75.1779844 C2.63218514,75.1779844 2.3088989,75.0851588 1.98297298,74.9108517 C1.65704705,74.7365446 1.40125848,74.480756 1.22695139,74.1548301 C1.08259735,73.8849115 0.994127204,73.6168033 0.967984324,73.0262552 C2.15650632,72.6247002 3.01181102,71.5041215 3.01181102,70.1845591 C3.01181102,68.8619767 2.15258681,67.7392898 0.959818682,67.3401173 L0.959818682,8.02900097 C2.15258681,7.62982847 3.01181102,6.50714159 3.01181102,5.18455914 C3.01181102,3.86460899 2.15600359,2.74375951 0.966936509,2.3425093 C0.991693375,1.73470743 1.08060304,1.46292061 1.22695139,1.189273 C1.40125848,0.863347076 1.65704705,0.607558502 1.98297298,0.433251409 C2.3088989,0.258944316 2.63218514,0.166118705 3.52370388,0.166118705 L155.251229,0.166118705 C156.142748,0.166118705 156.466034,0.258944316 156.79196,0.433251409 C157.117886,0.607558502 157.373675,0.863347076 157.547982,1.189273 C157.714183,1.50004222 157.806305,1.80841155 157.814513,2.6092567 C156.936284,3.13337864 156.348425,4.09058716 156.348425,5.18455914 C156.348425,6.27878069 156.936553,7.23617637 157.815114,7.76022021 L157.815114,67.6088981 C156.936553,68.1329419 156.348425,69.0903376 156.348425,70.1845591 C156.348425,71.2784134 156.936158,72.2355336 157.81423,72.7596923 Z" id="Combined-Shape" fill="#F8F5D6" transform="translate(79.387467, 37.672052) scale(-1, 1) translate(-79.387467, -37.672052) "></path>
                        <path d="M10.909713,3.21303972 C8.95315379,3.21303972 8.13735729,3.37057729 7.29368517,3.82177808 C6.56600459,4.21094591 5.99790619,4.77904431 5.60873836,5.50672489 C5.15753757,6.35039701 5,7.16619351 5,9.12275272 L5,61.7682277 C5,63.7247869 5.15753757,64.5405834 5.60873836,65.3842555 C5.99790619,66.1119361 6.56600459,66.6800345 7.29368517,67.0692023 C8.13735729,67.5204031 8.95315379,67.6779407 10.909713,67.6779407 L147.090287,67.6779407 C149.046846,67.6779407 149.862643,67.5204031 150.706315,67.0692023 C151.433995,66.6800345 152.002094,66.1119361 152.391262,65.3842555 C152.842462,64.5405834 153,63.7247869 153,61.7682277 L153,9.12275272 C153,7.16619351 152.842462,6.35039701 152.391262,5.50672489 C152.002094,4.77904431 151.433995,4.21094591 150.706315,3.82177808 C149.862643,3.37057729 149.046846,3.21303972 147.090287,3.21303972 L10.909713,3.21303972 Z" id="Rectangle-2" stroke="#E9E2C5"></path>
                    </g>
                </g>
                <path d="M0.177734375,41 L1.37044228,41.0597372 L1.37044228,41.0597372 C10.3254196,41.5082501 19.1794003,43.1590834 27.6943066,45.9678473 L135.447442,81.5117632 L135.447442,81.5117632 C138.069875,82.3768102 139.494517,85.2039714 138.62947,87.8264044 C137.953482,89.8756958 136.039041,91.2600981 133.881135,91.2600981 L5.17773438,91.2600981 L5.17773438,91.2600981 C2.41631063,91.2600981 0.177734375,89.0215218 0.177734375,86.2600981 L0.177734375,41 Z" id="Rectangle-2" fill="#2697ED"></path>
                <path d="M165,41 C155.52788,41.4129732 146.229094,43.0917826 137.538879,45.9578497 L29.7359618,81.5116779 L29.7359618,81.5116779 C27.1134817,82.3765822 25.688685,85.2036658 26.5535893,87.8261458 C27.2294972,89.8755692 29.144004,91.2600981 31.3020095,91.2600981 L160,91.2600981 L160,91.2600981 C162.761424,91.2600981 165,89.0215218 165,86.2600981 L165,41 Z" id="Rectangle-2" fill="#2697ED"></path>
                <polygon id="Rectangle-5" fill="#7DC2FF" points="82.5888672 47.4161827 161 91.2600981 4.17773438 91.2600981"></polygon>
                <g id="Group-7" transform="translate(69.500000, 58.500000)">
                    <ellipse id="Oval-2" fill="#3599E4" cx="13.4614815" cy="13.4086914" rx="13.0875515" ry="13.0362278"></ellipse>
                    <path d="M17.5760513,12.8727647 C15.7899749,12.8727647 14.3420739,12.0502168 14.3420739,11.0355526 C14.3420739,10.0208884 15.7899749,9.19834052 17.5760513,9.19834052 C19.3621278,9.19834052 20.8100288,10.0208884 20.8100288,11.0355526 C20.8100288,12.0502168 19.3621278,12.8727647 17.5760513,12.8727647 Z M17.6244725,13.9296505 C19.9384472,13.9296505 20.8603124,13.0189595 20.8603124,12.4565286 L20.8603124,14.8040256 C20.8603124,15.8190085 19.4123322,16.6403065 17.6244725,16.6403065 C15.8384752,16.6403065 14.3904951,15.8190085 14.3904951,14.8040256 L14.3904951,12.3987956 C14.3904951,12.9602953 15.3114291,13.9296505 17.6244725,13.9296505 Z M17.6244725,17.6459776 C19.6944789,17.6459776 20.8603124,16.685003 20.8603124,16.1235033 L20.8603124,18.5352516 C20.8603124,19.5502344 19.4123322,20.3724637 17.6244725,20.3724637 C15.8384752,20.3724637 14.3904951,19.5502344 14.3904951,18.5352516 L14.3904951,16.1523698 C14.3904951,16.7138695 15.5553974,17.6459776 17.6244725,17.6459776 Z M9.62752509,9.14805697 C7.60282514,9.14805697 5.96148153,8.3255091 5.96148153,7.31084489 C5.96148153,6.29618068 7.60282514,5.47363281 9.62752509,5.47363281 C11.652225,5.47363281 13.2935687,6.29618068 13.2935687,7.31084489 C13.2935687,8.3255091 11.652225,9.14805697 9.62752509,9.14805697 Z M9.74392221,10.2049428 C12.3651853,10.2049428 13.4108969,9.29425175 13.4108969,8.73182088 L13.4108969,11.0793179 C13.4108969,12.0943008 11.7701632,12.9155988 9.74392221,12.9155988 C7.71954357,12.9155988 6.07787865,12.0943008 6.07787865,11.0793179 L6.07787865,8.67408791 C6.07787865,9.2355876 7.12265916,10.2049428 9.74392221,10.2049428 Z M9.74392221,13.9212699 C12.0886257,13.9212699 13.4108969,12.9602953 13.4108969,12.3987956 L13.4108969,14.8105439 C13.4108969,15.8255267 11.7701632,16.6477559 9.74392221,16.6477559 C7.71954357,16.6477559 6.07787865,15.8255267 6.07787865,14.8105439 L6.07787865,12.4276621 C6.07787865,12.9891618 7.39828753,13.9212699 9.74392221,13.9212699 Z M9.74392221,17.6459776 C12.0886257,17.6459776 13.4108969,16.685003 13.4108969,16.1235033 L13.4108969,18.5352516 C13.4108969,19.5502344 11.7701632,20.3724637 9.74392221,20.3724637 C7.71954357,20.3724637 6.07787865,19.5502344 6.07787865,18.5352516 L6.07787865,16.1523698 C6.07787865,16.7138695 7.39828753,17.6459776 9.74392221,17.6459776 Z" id="Combined-Shape" fill="#7DC2FF" fill-rule="nonzero"></path>
                </g>
            </g>
        </g>
    </g>
</svg>