<?xml version="1.0" encoding="UTF-8"?>
<svg width="166px" height="92px" viewBox="0 0 166 92" version="1.1" xmlns="http://www.w3.org/2000/svg" xmlns:xlink="http://www.w3.org/1999/xlink">
    <!-- Generator: Sketch 47 (45396) - http://www.bohemiancoding.com/sketch -->
    <title>couponBig-1 bg</title>
    <desc>Created with Sketch.</desc>
    <defs>
        <polygon id="path-1" points="82.5888672 47.4161827 161 91.2600981 4.17773438 91.2600981"></polygon>
        <filter x="-3.5%" y="-17.1%" width="107.0%" height="125.1%" filterUnits="objectBoundingBox" id="filter-2">
            <feOffset dx="0" dy="-2" in="SourceAlpha" result="shadowOffsetOuter1"></feOffset>
            <feGaussianBlur stdDeviation="1.5" in="shadowOffsetOuter1" result="shadowBlurOuter1"></feGaussianBlur>
            <feColorMatrix values="0 0 0 0 0   0 0 0 0 0   0 0 0 0 0  0 0 0 0.0892210145 0" type="matrix" in="shadowBlurOuter1"></feColorMatrix>
        </filter>
    </defs>
    <g id="纸质券分领取页面-V1.1" stroke="none" stroke-width="1" fill="none" fill-rule="evenodd">
        <g id="couponBig-1-bg" transform="translate(0.000000, -0.759766)">
            <g id="Group-2" transform="translate(0.500000, 0.500000)">
                <polygon id="Rectangle-5" fill="#AD1C1B" points="82.5888672 82 0.177734375 41 82.5888672 1 165 41"></polygon>
                <g id="coupon01-bg" transform="translate(3.000000, 0.656000)">
                    <g id="coupon-bg">
                        <path d="M157.81423,72.7596923 C157.804379,73.5421108 157.712453,73.8472953 157.547982,74.1548301 C157.373675,74.480756 157.117886,74.7365446 156.79196,74.9108517 C156.466034,75.0851588 156.142748,75.1779844 155.251229,75.1779844 L3.52370388,75.1779844 C2.63218514,75.1779844 2.3088989,75.0851588 1.98297298,74.9108517 C1.65704705,74.7365446 1.40125848,74.480756 1.22695139,74.1548301 C1.08259735,73.8849115 0.994127204,73.6168033 0.967984324,73.0262552 C2.15650632,72.6247002 3.01181102,71.5041215 3.01181102,70.1845591 C3.01181102,68.8619767 2.15258681,67.7392898 0.959818682,67.3401173 L0.959818682,8.02900097 C2.15258681,7.62982847 3.01181102,6.50714159 3.01181102,5.18455914 C3.01181102,3.86460899 2.15600359,2.74375951 0.966936509,2.3425093 C0.991693375,1.73470743 1.08060304,1.46292061 1.22695139,1.189273 C1.40125848,0.863347076 1.65704705,0.607558502 1.98297298,0.433251409 C2.3088989,0.258944316 2.63218514,0.166118705 3.52370388,0.166118705 L155.251229,0.166118705 C156.142748,0.166118705 156.466034,0.258944316 156.79196,0.433251409 C157.117886,0.607558502 157.373675,0.863347076 157.547982,1.189273 C157.714183,1.50004222 157.806305,1.80841155 157.814513,2.6092567 C156.936284,3.13337864 156.348425,4.09058716 156.348425,5.18455914 C156.348425,6.27878069 156.936553,7.23617637 157.815114,7.76022021 L157.815114,67.6088981 C156.936553,68.1329419 156.348425,69.0903376 156.348425,70.1845591 C156.348425,71.2784134 156.936158,72.2355336 157.81423,72.7596923 Z" id="Combined-Shape" fill="#F8F5D6" transform="translate(79.387467, 37.672052) scale(-1, 1) translate(-79.387467, -37.672052) "></path>
                        <path d="M10.909713,3.21303972 C8.95315379,3.21303972 8.13735729,3.37057729 7.29368517,3.82177808 C6.56600459,4.21094591 5.99790619,4.77904431 5.60873836,5.50672489 C5.15753757,6.35039701 5,7.16619351 5,9.12275272 L5,61.7682277 C5,63.7247869 5.15753757,64.5405834 5.60873836,65.3842555 C5.99790619,66.1119361 6.56600459,66.6800345 7.29368517,67.0692023 C8.13735729,67.5204031 8.95315379,67.6779407 10.909713,67.6779407 L147.090287,67.6779407 C149.046846,67.6779407 149.862643,67.5204031 150.706315,67.0692023 C151.433995,66.6800345 152.002094,66.1119361 152.391262,65.3842555 C152.842462,64.5405834 153,63.7247869 153,61.7682277 L153,9.12275272 C153,7.16619351 152.842462,6.35039701 152.391262,5.50672489 C152.002094,4.77904431 151.433995,4.21094591 150.706315,3.82177808 C149.862643,3.37057729 149.046846,3.21303972 147.090287,3.21303972 L10.909713,3.21303972 Z" id="Rectangle-2" stroke="#E9E2C5"></path>
                    </g>
                </g>
                <path d="M0.177734375,41 L1.37044228,41.0597372 L1.37044228,41.0597372 C10.3254196,41.5082501 19.1794003,43.1590834 27.6943066,45.9678473 L135.447442,81.5117632 L135.447442,81.5117632 C138.069875,82.3768102 139.494517,85.2039714 138.62947,87.8264044 C137.953482,89.8756958 136.039041,91.2600981 133.881135,91.2600981 L5.17773438,91.2600981 L5.17773438,91.2600981 C2.41631063,91.2600981 0.177734375,89.0215218 0.177734375,86.2600981 L0.177734375,41 Z" id="Rectangle-2" fill="#ED393A"></path>
                <path d="M165,41 C155.52788,41.4129732 146.229094,43.0917826 137.538879,45.9578497 L29.7359618,81.5116779 L29.7359618,81.5116779 C27.1134817,82.3765822 25.688685,85.2036658 26.5535893,87.8261458 C27.2294972,89.8755692 29.144004,91.2600981 31.3020095,91.2600981 L160,91.2600981 L160,91.2600981 C162.761424,91.2600981 165,89.0215218 165,86.2600981 L165,41 Z" id="Rectangle-2" fill="#ED393A"></path>
                <g id="Rectangle-5">
                    <use fill="black" fill-opacity="1" filter="url(#filter-2)" xlink:href="#path-1"></use>
                    <use fill="#F75D5D" fill-rule="evenodd" xlink:href="#path-1"></use>
                </g>
                <g id="Group-7" transform="translate(69.500000, 58.500000)">
                    <ellipse id="Oval-2" fill="#AD1C1B" cx="13.4614815" cy="13.4086914" rx="13.0875515" ry="13.0362278"></ellipse>
                    <path d="M21.4191802,12.0099998 L21.4191802,9.18887859 C21.4191802,8.30224051 20.6908931,7.57680935 19.8007643,7.57680935 L17.5754423,7.57680935 C17.5754423,7.8992232 17.2922195,8.18133532 16.9685363,8.18133532 C16.6448531,8.18133532 16.3616304,7.8992232 16.3616304,7.57680935 L6.85343656,7.57680935 C5.96330778,7.57680935 5.23502059,8.30224051 5.23502059,9.18887859 L5.23502059,12.0099998 C6.12514938,12.0099998 6.85343656,12.7354309 6.85343656,13.622069 C6.85343656,14.5087071 6.12514938,15.2341382 5.23502059,15.2341382 L5.23502059,18.0552594 C5.23502059,18.9418975 5.96330778,19.6673286 6.85343656,19.6673286 L16.3616304,19.6673286 C16.3616304,19.3449148 16.6448531,19.0628027 16.9685363,19.0628027 C17.2922195,19.0628027 17.5754423,19.3449148 17.5754423,19.6673286 L19.8007643,19.6673286 C20.6908931,19.6673286 21.4191802,18.9418975 21.4191802,18.0552594 L21.4191802,15.2341382 C20.5290515,15.2341382 19.8007643,14.5087071 19.8007643,13.622069 C19.8007643,12.7354309 20.5290515,12.0099998 21.4191802,12.0099998 Z M16.9685363,18.256768 C16.6448531,18.256768 16.3616304,17.9746559 16.3616304,17.6522421 C16.3616304,17.3298282 16.6448531,17.0477161 16.9685363,17.0477161 C17.2922195,17.0477161 17.5754423,17.3298282 17.5754423,17.6522421 C17.5754423,17.9746559 17.2922195,18.256768 16.9685363,18.256768 Z M16.9685363,16.2416815 C16.6448531,16.2416815 16.3616304,15.9595694 16.3616304,15.6371555 C16.3616304,15.3147417 16.6448531,15.0326296 16.9685363,15.0326296 C17.2922195,15.0326296 17.5754423,15.3147417 17.5754423,15.6371555 C17.5754423,15.9595694 17.2922195,16.2416815 16.9685363,16.2416815 Z M16.9685363,14.226595 C16.6448531,14.226595 16.3616304,13.9444828 16.3616304,13.622069 C16.3616304,13.2996551 16.6448531,13.017543 16.9685363,13.017543 C17.2922195,13.017543 17.5754423,13.2996551 17.5754423,13.622069 C17.5754423,13.9444828 17.2922195,14.226595 16.9685363,14.226595 Z M16.9685363,12.2115084 C16.6448531,12.2115084 16.3616304,11.9293963 16.3616304,11.6069824 C16.3616304,11.2845686 16.6448531,11.0024565 16.9685363,11.0024565 C17.2922195,11.0024565 17.5754423,11.2845686 17.5754423,11.6069824 C17.5754423,11.9293963 17.2922195,12.2115084 16.9685363,12.2115084 Z M16.9685363,10.1964219 C16.6448531,10.1964219 16.3616304,9.91430975 16.3616304,9.5918959 C16.3616304,9.26948205 16.6448531,8.98736993 16.9685363,8.98736993 C17.2922195,8.98736993 17.5754423,9.26948205 17.5754423,9.5918959 C17.5754423,9.91430975 17.2922195,10.1964219 16.9685363,10.1964219 Z M12.1132884,10.8009478 L13.0438776,12.6548274 L15.107358,12.9369396 L13.6103232,14.3878019 L13.9340064,16.4431902 L12.1132884,15.4759486 L10.2925705,16.4431902 L10.6162537,14.3878019 L9.11921891,12.9369396 L11.1826993,12.6548274 L12.1132884,10.8009478 Z" id="Combined-Shape" fill="#F75D5D" fill-rule="nonzero"></path>
                </g>
            </g>
        </g>
    </g>
</svg>