<?xml version="1.0" encoding="UTF-8"?>
<svg width="40px" height="27px" viewBox="0 0 40 27" version="1.1" xmlns="http://www.w3.org/2000/svg" xmlns:xlink="http://www.w3.org/1999/xlink">
    <!-- Generator: Sketch 43.1 (39012) - http://www.bohemiancoding.com/sketch -->
    <title>dead</title>
    <desc>Created with Sketch.</desc>
    <defs></defs>
    <g id="领取实体券分" stroke="none" stroke-width="1" fill="none" fill-rule="evenodd">
        <g id="2.-券类已被领取" transform="translate(-87.000000, -323.000000)">
            <g id="Group-3" transform="translate(57.000000, 303.000000)">
                <g id="dead" transform="translate(31.000000, 21.000000)">
                    <path d="M22.8012182,0.299692231 C25.5568441,0.364448552 28.7344469,2.45463537 29.8924905,4.95507887 L37.2211305,20.7790526 C38.3819061,23.2853953 37.0894462,25.3171876 34.3160073,25.3171876 L3.32979417,25.3171876 C0.564563273,25.3171876 -0.737390695,23.2881721 0.425913265,20.7763703 L7.94517012,4.54081729 C9.10663188,2.03299315 12.2952873,0.0528062359 15.0376847,0.117251692 L22.8012182,0.299692231 Z" id="Triangle" stroke="#FFFFFF" fill="#F8E81C"></path>
                    <polygon id="Shape" fill="#000000" points="12.0996959 10.9952365 13.9312162 9.16361486 15.7628378 10.9952365 16.909527 9.8485473 15.0911824 8.0302027 16.9094257 6.21216216 15.7629392 5.06537162 13.9312162 6.89699324 12.0995946 5.06537162 10.9531081 6.21216216 12.7713514 8.0302027 10.9530068 9.8485473"></polygon>
                    <polygon id="Shape" fill="#000000" points="22.2348311 10.9952365 24.0663514 9.16361486 25.897973 10.9952365 27.0446622 9.8485473 25.2263176 8.0302027 27.0445608 6.21216216 25.8980743 5.06537162 24.0663514 6.89699324 22.2347297 5.06537162 21.0882432 6.21216216 22.9064865 8.0302027 21.0881419 9.8485473"></polygon>
                    <path d="M23.7294595,19.8172635 C24.679527,19.8172635 25.4524324,19.0443581 25.4524324,18.0942905 L25.4524324,16.8780743 L22.0064865,16.8780743 L22.0064865,18.0942905 C22.0064865,19.0443581 22.7793919,19.8172635 23.7294595,19.8172635 L23.7294595,19.8172635 Z" id="Shape" fill="#E36600"></path>
                    <path d="M27.0740541,16.8780743 L27.0740541,15.5605068 L27.0740541,15.2564527 L10.8578378,15.2564527 L10.8578378,16.8780743 L20.3848649,16.8780743 L20.3848649,18.0942905 C20.3848649,19.7876689 21.6670608,21.1901689 23.3016554,21.4083784 C23.4471959,21.4278378 23.6039865,21.4388851 23.7547973,21.4388851 C25.3250338,21.4388851 26.6326689,20.3509797 26.9904392,18.8893919 C27.0528716,18.6342905 27.0740541,18.3682432 27.0740541,18.0942905 L27.0740541,16.8780743 L27.0740541,16.8780743 L27.0740541,16.8780743 Z M22.0064865,16.8780743 L25.4524324,16.8780743 L25.4524324,18.0942905 C25.4524324,19.0443581 24.679527,19.8172635 23.7294595,19.8172635 C22.7793919,19.8172635 22.0064865,19.0443581 22.0064865,18.0942905 L22.0064865,16.8780743 L22.0064865,16.8780743 Z" id="Shape" fill="#000000"></path>
                </g>
            </g>
        </g>
    </g>
</svg>