<?xml version="1.0" encoding="UTF-8"?>
<svg width="79px" height="80px" viewBox="0 0 79 80" version="1.1" xmlns="http://www.w3.org/2000/svg" xmlns:xlink="http://www.w3.org/1999/xlink">
    <!-- Generator: Sketch 48.1 (47250) - http://www.bohemiancoding.com/sketch -->
    <title>button1</title>
    <desc>Created with Sketch.</desc>
    <defs>
        <linearGradient x1="50%" y1="0%" x2="50%" y2="100%" id="linearGradient-1">
            <stop stop-color="#FFF700" offset="0%"></stop>
            <stop stop-color="#FFF359" offset="100%"></stop>
        </linearGradient>
        <circle id="path-2" cx="39.9808754" cy="39.1542789" r="39.0906443"></circle>
        <filter x="-1.3%" y="-1.3%" width="102.6%" height="102.6%" filterUnits="objectBoundingBox" id="filter-4">
            <feGaussianBlur stdDeviation="1" in="SourceAlpha" result="shadowBlurInner1"></feGaussianBlur>
            <feOffset dx="0" dy="0" in="shadowBlurInner1" result="shadowOffsetInner1"></feOffset>
            <feComposite in="shadowOffsetInner1" in2="SourceAlpha" operator="arithmetic" k2="-1" k3="1" result="shadowInnerInner1"></feComposite>
            <feColorMatrix values="0 0 0 0 0.862745098   0 0 0 0 0.890196078   0 0 0 0 0  0 0 0 1 0" type="matrix" in="shadowInnerInner1"></feColorMatrix>
        </filter>
        <filter x="-3.5%" y="-6.3%" width="107.0%" height="112.5%" filterUnits="objectBoundingBox" id="filter-5">
            <feGaussianBlur stdDeviation="1" in="SourceGraphic"></feGaussianBlur>
        </filter>
        <filter x="-3.7%" y="-7.1%" width="107.4%" height="114.3%" filterUnits="objectBoundingBox" id="filter-6">
            <feGaussianBlur stdDeviation="1" in="SourceGraphic"></feGaussianBlur>
        </filter>
        <linearGradient x1="13.0452402%" y1="82.7906619%" x2="74.0154348%" y2="9.80233089%" id="linearGradient-7">
            <stop stop-color="#FFFB85" offset="0%"></stop>
            <stop stop-color="#F3E744" offset="100%"></stop>
        </linearGradient>
        <circle id="path-8" cx="39.9777249" cy="39.1511284" r="31.8379789"></circle>
        <linearGradient x1="98.4146717%" y1="2.49680701%" x2="0%" y2="100%" id="linearGradient-9">
            <stop stop-color="#FF6363" offset="0%"></stop>
            <stop stop-color="#FF0836" offset="100%"></stop>
        </linearGradient>
    </defs>
    <g id="1.弹窗红包先弹出" stroke="none" stroke-width="1" fill="none" fill-rule="evenodd" transform="translate(-148.000000, -360.000000)">
        <g id="button1" transform="translate(147.500000, 360.822266)">
            <mask id="mask-3" fill="white">
                <use xlink:href="#path-2"></use>
            </mask>
            <g id="Oval-6" transform="translate(39.980875, 39.154279) scale(-1, 1) translate(-39.980875, -39.154279) ">
                <use fill="url(#linearGradient-1)" fill-rule="evenodd" xlink:href="#path-2"></use>
                <use fill="black" fill-opacity="1" filter="url(#filter-4)" xlink:href="#path-2"></use>
            </g>
            <polygon id="Path-4" fill="#FFFB90" filter="url(#filter-5)" mask="url(#mask-3)" points="-9 27.1777344 -6 39.1777344 77 3.17773437 69 -8.82226562"></polygon>
            <polygon id="Path-4" fill="#FFFB90" opacity="0.8" filter="url(#filter-6)" mask="url(#mask-3)" points="2 61.6777344 2 67.6777344 83 31.6777344 80 25.6777344"></polygon>
            <g id="Oval-6" mask="url(#mask-3)" transform="translate(39.977725, 39.151128) scale(-1, 1) translate(-39.977725, -39.151128) ">
                <use fill="url(#linearGradient-7)" fill-rule="evenodd" xlink:href="#path-8"></use>
                <circle stroke="#EFE829" stroke-width="1" cx="39.9777249" cy="39.1511284" r="31.3379789"></circle>
            </g>
            <path d="M28.7713127,54.8224126 C28.7713127,56.697959 27.5882935,57.6357181 25.2222196,57.6357181 C22.7407275,57.6357181 21.5,56.697959 21.5,54.8224126 L21.5,24.6118394 C21.5,22.9671295 21.6731248,21.8418186 22.0193795,21.2358728 C22.5964707,20.1971087 23.8227711,19.6777344 25.6983175,19.6777344 L35.1337114,19.6777344 C36.7784213,19.6777344 37.8893052,20.0672651 38.4663964,20.8463382 C38.8126511,21.3368657 38.9857759,22.1015001 38.9857759,23.1402643 L38.9857759,30.4981402 C38.9857759,31.9697228 38.552964,32.9651902 37.6873272,33.4845723 C37.1390905,33.830827 36.2878938,34.0039517 35.1337114,34.0039517 L28.7713127,34.0039517 L28.7713127,54.8224126 Z M28.7713127,28.2907774 L28.7713127,31.0608013 L31.2816469,31.0608013 C31.8587381,31.0608013 32.1472794,30.7866871 32.1472794,30.2384505 L32.1472794,28.2907774 L28.7713127,28.2907774 Z M32.1472794,25.347627 L32.1472794,23.4432356 C32.1472794,22.894999 31.8587381,22.6208848 31.2816469,22.6208848 L29.5936636,22.6208848 C29.0454269,22.6208848 28.7713127,22.894999 28.7713127,23.4432356 L28.7713127,25.347627 L32.1472794,25.347627 Z M44.1362891,34.0039517 C42.4915792,34.0039517 41.3806953,33.614421 40.8036041,32.8353479 C40.4573493,32.3448204 40.2842246,31.580186 40.2842246,30.5414219 L40.2842246,23.1835459 C40.2842246,21.7119633 40.7170365,20.7164959 41.5826733,20.1971139 C42.1309099,19.8508591 42.9821067,19.6777344 44.1362891,19.6777344 L52.2732343,19.6777344 C54.0333624,19.6777344 55.2740899,19.8364321 55.9954539,20.1538322 C57.1784909,20.6732143 57.7700005,21.7696711 57.7700005,23.4432356 L57.7700005,52.2687968 C57.7700005,53.9135068 57.5968757,55.0388177 57.250621,55.6447635 C56.6735298,56.6835276 55.4472294,57.2029019 53.571683,57.2029019 L49.1136758,57.2029019 C48.1037662,57.2029019 47.5988189,56.7268088 47.5988189,55.7746083 C47.5988189,54.7935533 48.0460579,54.3030331 48.9405493,54.3030331 C49.7196224,54.3030331 50.1812884,54.259752 50.3255612,54.1731883 C50.5275431,54.0866246 50.6285326,53.7836563 50.6285326,53.2642742 L50.6285326,34.0039517 L44.1362891,34.0039517 Z M47.1660027,28.2907774 L47.1660027,30.2384505 C47.1660027,30.7866871 47.4401169,31.0608013 47.9883536,31.0608013 L50.6285326,31.0608013 L50.6285326,28.2907774 L47.1660027,28.2907774 Z M50.6285326,25.347627 L50.6285326,23.4432356 C50.6285326,22.894999 50.3399913,22.6208848 49.7629001,22.6208848 L47.9883536,22.6208848 C47.4401169,22.6208848 47.1660027,22.894999 47.1660027,23.4432356 L47.1660027,25.347627 L50.6285326,25.347627 Z M38.8992126,45.9496798 C38.2932669,50.7683913 35.9849367,54.101043 31.9741529,55.9477348 C31.4547708,56.2074259 31.1085213,56.3372694 30.9353939,56.3372694 C29.9831934,56.3372694 29.5071003,55.8467493 29.5071003,54.8656942 C29.5071003,54.5771486 29.6080898,54.2741803 29.8100717,53.9567802 C31.2239451,51.9081064 32.0174336,49.2390996 32.190561,45.9496798 L30.5891409,45.9496798 C29.6080859,45.9496798 29.1175657,45.4447326 29.1175657,44.434823 C29.1175657,43.5114771 29.6080859,43.049811 30.5891409,43.049811 L32.2338426,43.049811 L32.2338426,38.7216487 L31.2816469,38.7216487 C30.3005919,38.7216487 29.8100717,38.2311285 29.8100717,37.2500735 C29.8100717,36.297873 30.3005919,35.8217799 31.2816469,35.8217799 L48.1614801,35.8217799 C49.1425351,35.8217799 49.6330552,36.3123001 49.6330552,37.2933551 C49.6330552,38.2455556 49.1425351,38.7216487 48.1614801,38.7216487 L47.4256925,38.7216487 L47.4256925,43.049811 L48.8107044,43.049811 C49.7917594,43.049811 50.2822796,43.5403312 50.2822796,44.5213862 C50.2822796,45.4735867 49.7917594,45.9496798 48.8107044,45.9496798 L47.4256925,45.9496798 L47.4256925,53.3075558 C47.4256925,55.1831022 46.2426732,56.1208613 43.8765993,56.1208613 C41.6259437,56.1208613 40.5006327,55.1831022 40.5006327,53.3075558 L40.5006327,45.9496798 L38.8992126,45.9496798 Z M38.9857759,38.7216487 L38.9857759,43.049811 L40.5006327,43.049811 L40.5006327,38.7216487 L38.9857759,38.7216487 Z" id="開" fill="url(#linearGradient-9)" mask="url(#mask-3)"></path>
        </g>
    </g>
</svg>