<?xml version="1.0" encoding="UTF-8"?>
<svg width="274px" height="610px" viewBox="0 0 274 610" version="1.1" xmlns="http://www.w3.org/2000/svg" xmlns:xlink="http://www.w3.org/1999/xlink">
    <!-- Generator: Sketch 43.1 (39012) - http://www.bohemiancoding.com/sketch -->
    <title>砍价切图</title>
    <desc>Created with Sketch.</desc>
    <defs>
        <linearGradient x1="50%" y1="0.0880537044%" x2="50%" y2="135.209517%" id="linearGradient-1">
            <stop stop-color="#FAE364" offset="0.0378667092%"></stop>
            <stop stop-color="#FFB523" offset="100%"></stop>
        </linearGradient>
        <linearGradient x1="50%" y1="0%" x2="50%" y2="98.1664541%" id="linearGradient-2">
            <stop stop-color="#FFFFFF" offset="0%"></stop>
            <stop stop-color="#FB642C" offset="100%"></stop>
        </linearGradient>
        <path d="M10,38.5789474 L14.0489796,35.4210526 L11.9591837,32.2631579 C11.9591837,32.2631579 20.7755102,31 26,31 C31.2244898,31 41.3469388,32.2631579 41.3469388,32.2631579 L39.3877551,35.4210526 L42,38.5789474 L26.3265306,43 L10,38.5789474 Z" id="path-3"></path>
        <path d="M6,63.8391017 C6,63.8391017 16.5542974,65.9205937 26.702865,65.9977406 C36.8514325,66.0748875 46,63.8391017 46,63.8391017 L42.7213115,38 C42.7213115,38 29.9344262,39.1318606 26,39.1318606 C22.0655738,39.1318606 9.93442623,38 9.93442623,38 L6,63.8391017 Z" id="path-4"></path>
        <ellipse id="path-5" cx="6.9206919" cy="7.62862863" rx="6.9206919" ry="6.86576577"></ellipse>
        <filter x="-50.6%" y="-36.4%" width="201.1%" height="202.0%" filterUnits="objectBoundingBox" id="filter-6">
            <feOffset dx="0" dy="2" in="SourceAlpha" result="shadowOffsetOuter1"></feOffset>
            <feGaussianBlur stdDeviation="2" in="shadowOffsetOuter1" result="shadowBlurOuter1"></feGaussianBlur>
            <feColorMatrix values="0 0 0 0 0   0 0 0 0 0   0 0 0 0 0  0 0 0 0.111724411 0" type="matrix" in="shadowBlurOuter1"></feColorMatrix>
        </filter>
        <linearGradient x1="50%" y1="0%" x2="50%" y2="100%" id="linearGradient-7">
            <stop stop-color="#FFEE67" offset="0%"></stop>
            <stop stop-color="#FFE62A" offset="100%"></stop>
        </linearGradient>
        <ellipse id="path-8" cx="6.9206919" cy="7.62862863" rx="6.9206919" ry="6.86576577"></ellipse>
        <filter x="-50.6%" y="-36.4%" width="201.1%" height="202.0%" filterUnits="objectBoundingBox" id="filter-9">
            <feOffset dx="0" dy="2" in="SourceAlpha" result="shadowOffsetOuter1"></feOffset>
            <feGaussianBlur stdDeviation="2" in="shadowOffsetOuter1" result="shadowBlurOuter1"></feGaussianBlur>
            <feColorMatrix values="0 0 0 0 0   0 0 0 0 0   0 0 0 0 0  0 0 0 0.111724411 0" type="matrix" in="shadowBlurOuter1"></feColorMatrix>
        </filter>
        <linearGradient x1="50%" y1="3.61328125%" x2="50%" y2="97.0523201%" id="linearGradient-10">
            <stop stop-color="#FB692B" offset="0%"></stop>
            <stop stop-color="#FB6D2C" stop-opacity="0" offset="100%"></stop>
        </linearGradient>
        <path d="M12,21.1052632 L17.1877551,16.8947368 L14.5102041,12.6842105 C14.5102041,12.6842105 25.8061224,11 32.5,11 C39.1938776,11 52.1632653,12.6842105 52.1632653,12.6842105 L49.6530612,16.8947368 L53,21.1052632 L32.9183673,27 L12,21.1052632 Z" id="path-11"></path>
        <ellipse id="path-12" cx="8.89803244" cy="9.6629296" rx="8.89803244" ry="8.69663664"></ellipse>
        <filter x="-39.3%" y="-28.7%" width="178.7%" height="180.5%" filterUnits="objectBoundingBox" id="filter-13">
            <feOffset dx="0" dy="2" in="SourceAlpha" result="shadowOffsetOuter1"></feOffset>
            <feGaussianBlur stdDeviation="2" in="shadowOffsetOuter1" result="shadowBlurOuter1"></feGaussianBlur>
            <feColorMatrix values="0 0 0 0 0   0 0 0 0 0   0 0 0 0 0  0 0 0 0.111724411 0" type="matrix" in="shadowBlurOuter1"></feColorMatrix>
        </filter>
        <ellipse id="path-14" cx="8.89803244" cy="9.6629296" rx="8.89803244" ry="8.69663664"></ellipse>
        <filter x="-39.3%" y="-28.7%" width="178.7%" height="180.5%" filterUnits="objectBoundingBox" id="filter-15">
            <feOffset dx="0" dy="2" in="SourceAlpha" result="shadowOffsetOuter1"></feOffset>
            <feGaussianBlur stdDeviation="2" in="shadowOffsetOuter1" result="shadowBlurOuter1"></feGaussianBlur>
            <feColorMatrix values="0 0 0 0 0   0 0 0 0 0   0 0 0 0 0  0 0 0 0.111724411 0" type="matrix" in="shadowBlurOuter1"></feColorMatrix>
        </filter>
        <ellipse id="path-16" cx="8.89803244" cy="9.6629296" rx="8.89803244" ry="8.69663664"></ellipse>
        <filter x="-39.3%" y="-28.7%" width="178.7%" height="180.5%" filterUnits="objectBoundingBox" id="filter-17">
            <feOffset dx="0" dy="2" in="SourceAlpha" result="shadowOffsetOuter1"></feOffset>
            <feGaussianBlur stdDeviation="2" in="shadowOffsetOuter1" result="shadowBlurOuter1"></feGaussianBlur>
            <feColorMatrix values="0 0 0 0 0   0 0 0 0 0   0 0 0 0 0  0 0 0 0.111724411 0" type="matrix" in="shadowBlurOuter1"></feColorMatrix>
        </filter>
        <ellipse id="path-18" cx="5" cy="5" rx="5" ry="5"></ellipse>
        <filter x="-70.0%" y="-50.0%" width="240.0%" height="240.0%" filterUnits="objectBoundingBox" id="filter-19">
            <feOffset dx="0" dy="2" in="SourceAlpha" result="shadowOffsetOuter1"></feOffset>
            <feGaussianBlur stdDeviation="2" in="shadowOffsetOuter1" result="shadowBlurOuter1"></feGaussianBlur>
            <feColorMatrix values="0 0 0 0 0   0 0 0 0 0   0 0 0 0 0  0 0 0 0.111724411 0" type="matrix" in="shadowBlurOuter1"></feColorMatrix>
        </filter>
        <path d="M6,53.2220675 C6,53.2220675 19.7205867,55.8983009 32.9137245,55.9974909 C46.1068622,56.0966808 58,53.2220675 58,53.2220675 L53.7377049,20 C53.7377049,20 37.1147541,21.4552654 32,21.4552654 C26.8852459,21.4552654 11.1147541,20 11.1147541,20 L6,53.2220675 Z" id="path-20"></path>
        <path d="M12,21.1052632 L17.1877551,16.8947368 L14.5102041,12.6842105 C14.5102041,12.6842105 25.8061224,11 32.5,11 C39.1938776,11 52.1632653,12.6842105 52.1632653,12.6842105 L49.6530612,16.8947368 L53,21.1052632 L32.9183673,27 L12,21.1052632 Z" id="path-21"></path>
        <ellipse id="path-22" cx="8.89803244" cy="9.6629296" rx="8.89803244" ry="8.69663664"></ellipse>
        <filter x="-39.3%" y="-28.7%" width="178.7%" height="180.5%" filterUnits="objectBoundingBox" id="filter-23">
            <feOffset dx="0" dy="2" in="SourceAlpha" result="shadowOffsetOuter1"></feOffset>
            <feGaussianBlur stdDeviation="2" in="shadowOffsetOuter1" result="shadowBlurOuter1"></feGaussianBlur>
            <feColorMatrix values="0 0 0 0 0   0 0 0 0 0   0 0 0 0 0  0 0 0 0.111724411 0" type="matrix" in="shadowBlurOuter1"></feColorMatrix>
        </filter>
        <ellipse id="path-24" cx="8.89803244" cy="9.6629296" rx="8.89803244" ry="8.69663664"></ellipse>
        <filter x="-39.3%" y="-28.7%" width="178.7%" height="180.5%" filterUnits="objectBoundingBox" id="filter-25">
            <feOffset dx="0" dy="2" in="SourceAlpha" result="shadowOffsetOuter1"></feOffset>
            <feGaussianBlur stdDeviation="2" in="shadowOffsetOuter1" result="shadowBlurOuter1"></feGaussianBlur>
            <feColorMatrix values="0 0 0 0 0   0 0 0 0 0   0 0 0 0 0  0 0 0 0.111724411 0" type="matrix" in="shadowBlurOuter1"></feColorMatrix>
        </filter>
        <ellipse id="path-26" cx="8.89803244" cy="9.6629296" rx="8.89803244" ry="8.69663664"></ellipse>
        <filter x="-39.3%" y="-28.7%" width="178.7%" height="180.5%" filterUnits="objectBoundingBox" id="filter-27">
            <feOffset dx="0" dy="2" in="SourceAlpha" result="shadowOffsetOuter1"></feOffset>
            <feGaussianBlur stdDeviation="2" in="shadowOffsetOuter1" result="shadowBlurOuter1"></feGaussianBlur>
            <feColorMatrix values="0 0 0 0 0   0 0 0 0 0   0 0 0 0 0  0 0 0 0.111724411 0" type="matrix" in="shadowBlurOuter1"></feColorMatrix>
        </filter>
        <ellipse id="path-28" cx="5" cy="5" rx="5" ry="5"></ellipse>
        <filter x="-70.0%" y="-50.0%" width="240.0%" height="240.0%" filterUnits="objectBoundingBox" id="filter-29">
            <feOffset dx="0" dy="2" in="SourceAlpha" result="shadowOffsetOuter1"></feOffset>
            <feGaussianBlur stdDeviation="2" in="shadowOffsetOuter1" result="shadowBlurOuter1"></feGaussianBlur>
            <feColorMatrix values="0 0 0 0 0   0 0 0 0 0   0 0 0 0 0  0 0 0 0.111724411 0" type="matrix" in="shadowBlurOuter1"></feColorMatrix>
        </filter>
        <path d="M6,53.2220675 C6,53.2220675 19.7205867,55.8983009 32.9137245,55.9974909 C46.1068622,56.0966808 58,53.2220675 58,53.2220675 L53.7377049,20 C53.7377049,20 37.1147541,21.4552654 32,21.4552654 C26.8852459,21.4552654 11.1147541,20 11.1147541,20 L6,53.2220675 Z" id="path-30"></path>
        <linearGradient x1="50%" y1="50%" x2="110.884049%" y2="122.528655%" id="linearGradient-31">
            <stop stop-color="#B4ED50" offset="0%"></stop>
            <stop stop-color="#429321" offset="100%"></stop>
        </linearGradient>
        <path d="M6.5774359,9.65614035 L11.6534547,5.63274854 L9.03357405,1.60935673 C9.03357405,1.60935673 20.0861957,4.30013141e-16 26.6358974,0 C33.1855992,0 45.8756463,1.60935673 45.8756463,1.60935673 L43.4195081,5.63274854 L46.694359,9.65614035 L27.0452538,15.2888889 L6.5774359,9.65614035 Z" id="path-32"></path>
        <path d="M0.706666667,40.3455312 C0.706666667,40.3455312 14.131733,42.9028209 27.0407109,42.9976024 C39.9496888,43.0923839 51.5866667,40.3455312 51.5866667,40.3455312 L47.4161749,8.6 C47.4161749,8.6 31.1512568,9.99058694 26.1466667,9.99058694 C21.1420765,9.99058694 5.71125683,8.6 5.71125683,8.6 L0.706666667,40.3455312 Z" id="path-33"></path>
        <radialGradient cx="50%" cy="50%" fx="50%" fy="50%" r="50%" gradientTransform="translate(0.500000,0.500000),scale(0.981436,1.000000),rotate(90.000000),translate(-0.500000,-0.500000)" id="radialGradient-34">
            <stop stop-color="#FB662B" offset="0%"></stop>
            <stop stop-color="#FB672B" stop-opacity="0" offset="100%"></stop>
        </radialGradient>
        <linearGradient x1="50%" y1="0%" x2="50%" y2="100%" id="linearGradient-35">
            <stop stop-color="#FFFFFF" offset="0%"></stop>
            <stop stop-color="#FFFFFF" stop-opacity="0.501924819" offset="99.8166454%"></stop>
        </linearGradient>
        <linearGradient x1="50%" y1="0%" x2="50%" y2="100%" id="linearGradient-36">
            <stop stop-color="#FB662B" offset="0%"></stop>
            <stop stop-color="#FB682B" stop-opacity="0.193868886" offset="100%"></stop>
        </linearGradient>
        <path d="M12.7056468,29.4555336 C11.8805547,28.0326893 9.41424646,27 6.5,27 C2.91014913,27 0,28.5670034 0,30.5 C0,32.4329966 2.91014913,34 6.5,34 C9.41424646,34 11.8805547,32.9673107 12.7056468,31.5444664 C13.1599973,31.8254137 13.796018,32 14.5,32 C15.8807119,32 17,31.3284271 17,30.5 C17,29.6715729 15.8807119,29 14.5,29 C13.796018,29 13.1599973,29.1745863 12.7056468,29.4555336 Z" id="path-37"></path>
        <ellipse id="path-38" cx="39" cy="29" rx="5" ry="3"></ellipse>
        <circle id="path-39" cx="4.5" cy="39.5" r="3.5"></circle>
    </defs>
    <g id="H5功能-&gt;-砍价功能（初-减少计算策略次数）" stroke="none" stroke-width="1" fill="none" fill-rule="evenodd">
        <g id="砍价切图">
            <g id="砍价LOGO" fill="#FFFFFF">
                <path d="M31.0999266,5.31835737 C27.7549544,2.23933191 23.3857395,0.5 18.7460317,0.5 C8.66902667,0.5 0.5,8.66902667 0.5,18.7460317 C0.5,28.8230368 8.66902667,36.9920635 18.7460317,36.9920635 C23.8062713,36.9920635 28.5372122,34.9211865 31.9589831,31.3292266 L31.2349314,30.6394809 C27.999996,34.0353126 23.5297775,35.9920635 18.7460317,35.9920635 C9.22131142,35.9920635 1.5,28.2707521 1.5,18.7460317 C1.5,9.22131142 9.22131142,1.5 18.7460317,1.5 C23.1323457,1.5 27.2605412,3.14338499 30.4226734,6.0541074 L31.0999266,5.31835737 Z" id="Oval-3" fill-rule="nonzero"></path>
                <g id="Group-13" transform="translate(8.000000, 8.000000)">
                    <path d="M18.5747655,7.99425843 L19.7041455,9.73786259 L15.8008498,9.73786259 L14.7507246,7.99425843 L11.5210941,7.99425843 L10.5997578,9.73786259 L6.19121321,9.73786259 L7.15217687,7.99425843 L6.18130636,7.99425843 L6.18130636,6.36953636 L8.04379264,6.36953636 L8.51932104,5.50764112 L6.6865553,5.50764112 L6.6865553,3.88291905 L9.40102997,3.88291905 L9.83693101,3.0903717 L6.59739372,3.0903717 L6.59739372,1.46564963 L10.7285468,1.46564963 L11.2437026,0.524499655 L15.4541104,0.524499655 L14.9488614,1.46564963 L19.6942387,1.46564963 L19.6942387,3.0903717 L14.096873,3.0903717 L13.6807857,3.88291905 L19.6942387,3.88291905 L19.6942387,5.50764112 L12.8287973,5.50764112 L12.3730825,6.36953636 L19.7933071,6.36953636 L19.7933071,7.99425843 L18.5747655,7.99425843 Z M13.0566546,12.9773999 L26.9706708,12.9773999 L26.9706708,14.7309109 L18.0695166,14.7309109 L19.7933071,17.8317524 L15.7513156,17.8317524 L14.1067799,14.7309109 L12.0065294,14.7309109 L10.1638568,17.8317524 L5.55717533,17.8317524 L7.46919581,14.7309109 L5.70577795,14.7309109 L5.70577795,12.9773999 L8.54904157,12.9773999 L9.16326577,11.966902 L6.28037478,11.966902 L6.28037478,10.213391 L19.5852634,10.213391 L19.5852634,11.966902 L13.6510651,11.966902 L13.0566546,12.9773999 Z M5.94354216,6.78562372 L2.25819698,6.78562372 L0.841518595,0.524499655 L4.45751588,0.524499655 L5.94354216,6.78562372 Z M6.01289005,7.5385437 L4.35844746,17.8119387 L0.524499655,17.8119387 L2.25819698,7.5385437 L6.01289005,7.5385437 Z" id="凑"></path>
                    <path d="M32.3409119,14.8125707 L32.2418435,16.1599012 L39.8205776,16.1599012 L39.8205776,17.9134122 L32.1229614,17.9134122 L31.8851972,21.3808069 L27.1497268,21.3808069 L27.387491,17.9134122 L20.621118,17.9134122 L20.621118,16.1599012 L27.51628,16.1599012 L27.6054415,14.8125707 L21.0570191,14.8125707 L21.7108706,5.52985989 L23.7913074,5.52985989 L22.0436259,0.524499655 L26.363009,0.524499655 L28.1602247,5.52985989 L32.4201667,5.52985989 L33.1136456,4.1131815 L37.5122834,4.1131815 L36.7791771,5.52985989 L39.6224407,5.52985989 L39.2757013,14.8125707 L32.3409119,14.8125707 Z M32.459794,13.0590597 L34.777995,13.0590597 L34.8770635,10.7903929 L32.6183035,10.7903929 L32.459794,13.0590597 Z M27.8828331,10.7903929 L25.8023963,10.7903929 L25.6438868,13.0590597 L27.7243236,13.0590597 L27.8828331,10.7903929 Z M32.8659746,7.2833709 L32.7371856,9.16567086 L34.9464114,9.16567086 L35.0355729,7.2833709 L32.8659746,7.2833709 Z M28.0017152,9.16567086 L28.1305042,7.2833709 L26.0500674,7.2833709 L25.9212784,9.16567086 L28.0017152,9.16567086 Z" id="单"></path>
                </g>
            </g>
            <g id="Group-10" transform="translate(0.000000, 47.000000)">
                <circle id="Oval-6" fill="#FFFFFF" cx="21.5" cy="21.5" r="21.5"></circle>
                <path d="M20.5,20 L13.5032506,20 C12.6654358,20 12,20.6715729 12,21.5 C12,22.3342028 12.6730282,23 13.5032506,23 L20.5,23 L20.5,29.9967494 C20.5,30.8345642 21.1715729,31.5 22,31.5 C22.8342028,31.5 23.5,30.8269718 23.5,29.9967494 L23.5,23 L30.4967494,23 C31.3345642,23 32,22.3284271 32,21.5 C32,20.6657972 31.3269718,20 30.4967494,20 L23.5,20 L23.5,13.0032506 C23.5,12.1654358 22.8284271,11.5 22,11.5 C21.1657972,11.5 20.5,12.1730282 20.5,13.0032506 L20.5,20 Z" id="Combined-Shape" fill="#FA702B" transform="translate(22.000000, 21.500000) rotate(45.000000) translate(-22.000000, -21.500000) "></path>
            </g>
            <g id="Group-12" transform="translate(0.000000, 100.000000)" fill="url(#linearGradient-1)">
                <rect id="Rectangle-17" x="0" y="0" width="274" height="66"></rect>
            </g>
            <g id="Group-10" transform="translate(0.000000, 176.000000)">
                <g id="Path-5">
                    <use fill="url(#linearGradient-2)" fill-rule="evenodd" xlink:href="#path-3"></use>
                    <path stroke="#FB642C" stroke-width="1" d="M11.0964911,38.3578581 L14.3564768,35.8153184 L14.7212121,35.5308527 L14.4659449,35.145118 L12.8147906,32.6500555 C13.0228729,32.6220679 13.2460483,32.5924921 13.4830181,32.5615921 C14.6151539,32.4139659 15.8287981,32.266328 17.0753368,32.1285526 C18.4007016,31.9820649 19.6860893,31.8554328 20.9023194,31.7545483 C22.8877504,31.5898595 24.6130312,31.5 26,31.5 C27.5485184,31.5 29.6307925,31.6117731 32.1119828,31.8137006 C33.2186962,31.9037686 34.3824256,32.0100222 35.5833001,32.1291373 C36.9733951,32.2670212 38.3407626,32.4147741 39.6265972,32.5625211 C39.9424284,32.5988112 40.2373803,32.6332786 40.5089144,32.6654966 L38.9628814,35.1574575 L38.7734213,35.4628374 L39.0024869,35.7397507 L41.1254242,38.3061305 L26.3238119,42.4812563 L11.0964911,38.3578581 Z"></path>
                </g>
                <polygon id="Path-6" fill="#FB642C" fill-rule="nonzero" points="12.519238 31.8626394 10.519238 38.8626394 11.480762 39.1373606 13.480762 32.1373606"></polygon>
                <polygon id="Path-7" fill="#FB642C" fill-rule="nonzero" points="39.5407806 32.1345156 41.4960879 39.1345156 42.4592194 38.8654844 40.5039121 31.8654844"></polygon>
                <g id="Path-3">
                    <use fill="#FFFFFF" fill-rule="evenodd" xlink:href="#path-4"></use>
                    <path stroke="#FB642C" stroke-width="1" d="M6.56691035,63.4375206 L10.3578012,38.5410785 C10.3773655,38.5428651 10.3974217,38.5446953 10.4179645,38.5465686 C10.8426361,38.5852942 11.3223905,38.6284416 11.8473072,38.6749058 C13.3470425,38.8076584 14.9083062,38.940411 16.4517905,39.0643267 C17.1677813,39.1218087 17.8646052,39.1761278 18.5376706,39.2267716 C21.96258,39.484474 24.5566581,39.6318606 26,39.6318606 C27.461284,39.6318606 30.1892801,39.4807774 33.8277442,39.217268 C34.4889604,39.1693806 35.1725004,39.1183049 35.8743107,39.0644655 C37.4893847,38.9405651 39.1273724,38.8078275 40.7038365,38.6750902 C41.2556054,38.6286316 41.7602923,38.5854897 42.2073359,38.5467696 C42.2342954,38.5444346 42.2604597,38.5421665 42.285818,38.5399664 L45.447129,63.4540247 C45.1335596,63.5246414 44.7709114,63.6028999 44.3624927,63.686959 C43.1398481,63.9385989 41.7621271,64.1903676 40.2596833,64.425405 C35.7888781,65.124803 31.1811336,65.5317688 26.7066657,65.497755 C26.3368149,65.4949435 25.9630456,65.4894272 25.5854993,65.4812569 C21.5393752,65.3936966 17.2032255,65.0096372 12.8348277,64.4239547 C11.0781831,64.1884368 9.43718545,63.9361078 7.95724836,63.683842 C7.43963151,63.5956105 6.97925992,63.5137178 6.58180408,63.440274 C6.57680671,63.4393506 6.57184212,63.4384327 6.56691037,63.4375205 L6.56691035,63.4375206 Z"></path>
                </g>
                <circle id="Oval-4" stroke="#FB642C" fill="#D8D8D8" cx="32.5" cy="44.5" r="1.5"></circle>
                <circle id="Oval-4" stroke="#FB642C" fill="#D8D8D8" cx="19.5" cy="44.5" r="1.5"></circle>
                <path d="M19.1482179,44.7987874 C19.0634091,44.9917139 18.9416846,45.3226052 18.8211615,45.75714 C18.5141468,46.8640529 18.3994855,48.0050693 18.5943213,49.0884968 C19.0901101,51.8454395 21.4374038,53.5 26,53.5 C30.5552766,53.5 32.90365,51.9771042 33.4042858,49.4159199 C33.6018205,48.4053596 33.4858773,47.3438889 33.1757456,46.3151899 C33.0541667,45.9119158 32.9312733,45.6045726 32.8452008,45.4244354 L31.9429106,45.8555646 C32.0083241,45.9924655 32.1126599,46.2533982 32.2183101,46.6038372 C32.4854843,47.4900473 32.5845424,48.3969331 32.4228596,49.2240801 C32.0243313,51.2628958 30.1166614,52.5 26,52.5 C21.8906582,52.5 19.9819086,51.1545605 19.5785333,48.9115032 C19.4141516,47.9974227 19.5144916,46.9989212 19.7847828,46.0244112 C19.8914889,45.6396926 19.9969935,45.3528927 20.0636708,45.2012126 L19.1482179,44.7987874 Z" id="Path-4" fill="#FB642C" fill-rule="nonzero"></path>
                <g id="Group-18" transform="translate(19.000000, 1.000000)">
                    <g id="Oval-5">
                        <use fill="black" fill-opacity="1" filter="url(#filter-6)" xlink:href="#path-5"></use>
                        <use fill="#F9C514" fill-rule="evenodd" xlink:href="#path-5"></use>
                    </g>
                    <ellipse id="Oval-5" fill="url(#linearGradient-7)" cx="6.9206919" cy="6.86576577" rx="6.9206919" ry="6.86576577"></ellipse>
                    <ellipse id="Oval-5" fill="#EDB311" cx="6.9206919" cy="6.86576577" rx="4.99827748" ry="4.95860861"></ellipse>
                    <ellipse id="Oval-5" fill="#F8BF1B" cx="6.72845046" cy="6.67505006" rx="4.80603604" ry="4.7678929"></ellipse>
                    <path d="M6.11250888,9.91721723 L7.34439203,9.91721723 L7.34439203,8.91481542 L8.66624419,8.91481542 L8.66624419,8.32435957 L7.34439203,8.32435957 L7.34439203,7.91241362 L8.66624419,7.91241362 L8.66624419,7.32195776 L7.58661625,7.32195776 L9.19221677,4.78162443 L7.76655424,4.78162443 L7.25442304,5.93507308 C7.01219882,6.47746857 6.93607121,6.65597848 6.76305392,7.01986407 L6.72152976,7.01986407 C6.55543316,6.65597848 6.49314693,6.50493164 6.23016064,5.93507308 L5.70418805,4.78162443 L4.25084276,4.78162443 L5.85644328,7.32195776 L4.77681534,7.32195776 L4.77681534,7.91241362 L6.11250888,7.91241362 L6.11250888,8.32435957 L4.77681534,8.32435957 L4.77681534,8.91481542 L6.11250888,8.91481542 L6.11250888,9.91721723 Z" id="￥" fill="#EDB211"></path>
                    <path d="M6.11250888,9.53578579 L7.34439203,9.53578579 L7.34439203,8.53338399 L8.66624419,8.53338399 L8.66624419,7.94292813 L7.34439203,7.94292813 L7.34439203,7.53098219 L8.66624419,7.53098219 L8.66624419,6.94052633 L7.58661625,6.94052633 L9.19221677,4.400193 L7.76655424,4.400193 L7.25442304,5.55364165 C7.01219882,6.09603714 6.93607121,6.27454705 6.76305392,6.63843264 L6.72152976,6.63843264 C6.55543316,6.27454705 6.49314693,6.12350021 6.23016064,5.55364165 L5.70418805,4.400193 L4.25084276,4.400193 L5.85644328,6.94052633 L4.77681534,6.94052633 L4.77681534,7.53098219 L6.11250888,7.53098219 L6.11250888,7.94292813 L4.77681534,7.94292813 L4.77681534,8.53338399 L6.11250888,8.53338399 L6.11250888,9.53578579 Z" id="￥" fill="#FFE321"></path>
                </g>
                <g id="Group-18" transform="translate(19.000000, 20.000000)">
                    <g id="Oval-5">
                        <use fill="black" fill-opacity="1" filter="url(#filter-9)" xlink:href="#path-8"></use>
                        <use fill="#F9C514" fill-rule="evenodd" xlink:href="#path-8"></use>
                    </g>
                    <ellipse id="Oval-5" fill="url(#linearGradient-7)" cx="6.9206919" cy="6.86576577" rx="6.9206919" ry="6.86576577"></ellipse>
                    <ellipse id="Oval-5" fill="#EDB311" cx="6.9206919" cy="6.86576577" rx="4.99827748" ry="4.95860861"></ellipse>
                    <ellipse id="Oval-5" fill="#F8BF1B" cx="6.72845046" cy="6.67505006" rx="4.80603604" ry="4.7678929"></ellipse>
                    <path d="M6.11250888,9.91721723 L7.34439203,9.91721723 L7.34439203,8.91481542 L8.66624419,8.91481542 L8.66624419,8.32435957 L7.34439203,8.32435957 L7.34439203,7.91241362 L8.66624419,7.91241362 L8.66624419,7.32195776 L7.58661625,7.32195776 L9.19221677,4.78162443 L7.76655424,4.78162443 L7.25442304,5.93507308 C7.01219882,6.47746857 6.93607121,6.65597848 6.76305392,7.01986407 L6.72152976,7.01986407 C6.55543316,6.65597848 6.49314693,6.50493164 6.23016064,5.93507308 L5.70418805,4.78162443 L4.25084276,4.78162443 L5.85644328,7.32195776 L4.77681534,7.32195776 L4.77681534,7.91241362 L6.11250888,7.91241362 L6.11250888,8.32435957 L4.77681534,8.32435957 L4.77681534,8.91481542 L6.11250888,8.91481542 L6.11250888,9.91721723 Z" id="￥" fill="#EDB211"></path>
                    <path d="M6.11250888,9.53578579 L7.34439203,9.53578579 L7.34439203,8.53338399 L8.66624419,8.53338399 L8.66624419,7.94292813 L7.34439203,7.94292813 L7.34439203,7.53098219 L8.66624419,7.53098219 L8.66624419,6.94052633 L7.58661625,6.94052633 L9.19221677,4.400193 L7.76655424,4.400193 L7.25442304,5.55364165 C7.01219882,6.09603714 6.93607121,6.27454705 6.76305392,6.63843264 L6.72152976,6.63843264 C6.55543316,6.27454705 6.49314693,6.12350021 6.23016064,5.55364165 L5.70418805,4.400193 L4.25084276,4.400193 L5.85644328,6.94052633 L4.77681534,6.94052633 L4.77681534,7.53098219 L6.11250888,7.53098219 L6.11250888,7.94292813 L4.77681534,7.94292813 L4.77681534,8.53338399 L6.11250888,8.53338399 L6.11250888,9.53578579 Z" id="￥" fill="#FFE321"></path>
                </g>
                <rect id="Rectangle-11" fill="url(#linearGradient-10)" x="0" y="0" width="51" height="28"></rect>
            </g>
            <g id="Group-10" transform="translate(0.000000, 252.000000)">
                <g id="Path-5">
                    <use fill="url(#linearGradient-2)" fill-rule="evenodd" xlink:href="#path-11"></use>
                    <path stroke="#FB642C" stroke-width="1" d="M13.0640269,20.8856297 L17.5028474,17.2829595 L17.8486761,17.0022753 L17.6096709,16.6264328 L15.3472588,13.0687244 C15.6809737,13.0215493 16.0488082,12.9705473 16.4470154,12.9165118 C17.8983087,12.7195759 19.4540645,12.5226273 21.0520309,12.3388304 C22.7511889,12.1433945 24.399169,11.9744412 25.95864,11.8398269 C28.5055091,11.6199799 30.7191103,11.5 32.5,11.5 C34.4879469,11.5 37.158746,11.6491919 40.3407477,11.9186807 C41.7594779,12.0388353 43.2512051,12.1805731 44.7904983,12.3394626 C46.5722258,12.5233768 48.324778,12.7204496 49.9728423,12.917516 C50.4721404,12.9772193 50.930737,13.0332253 51.3425302,13.0844665 L49.2235914,16.6386984 L49.0466872,16.9354312 L49.2616546,17.2058652 L52.1462647,20.8347713 L32.9155464,26.4797319 L13.0640269,20.8856297 Z"></path>
                </g>
                <g id="Group-18" transform="translate(30.000000, 3.000000)">
                    <g id="Oval-5">
                        <use fill="black" fill-opacity="1" filter="url(#filter-13)" xlink:href="#path-12"></use>
                        <use fill="#F9C514" fill-rule="evenodd" xlink:href="#path-12"></use>
                    </g>
                    <ellipse id="Oval-5" fill="url(#linearGradient-7)" cx="8.89803244" cy="8.69663664" rx="8.89803244" ry="8.69663664"></ellipse>
                    <ellipse id="Oval-5" fill="#EDB311" cx="8.89803244" cy="8.69663664" rx="6.42635676" ry="6.28090424"></ellipse>
                    <ellipse id="Oval-5" fill="#F8BF1B" cx="8.65086487" cy="8.4550634" rx="6.17918919" ry="6.039331"></ellipse>
                    <path d="M7.85893998,12.5618085 L9.44278976,12.5618085 L9.44278976,11.2920995 L11.142314,11.2920995 L11.142314,10.5441888 L9.44278976,10.5441888 L9.44278976,10.0223906 L11.142314,10.0223906 L11.142314,9.27447983 L9.75422089,9.27447983 L11.8185644,6.05672428 L9.98556974,6.05672428 L9.32711534,7.51775923 C9.0156842,8.20479353 8.91780584,8.43090608 8.69535503,8.89182782 L8.64196684,8.89182782 C8.42841406,8.43090608 8.34833177,8.23958007 8.01020654,7.51775923 L7.33395607,6.05672428 L5.46536926,6.05672428 L7.52971278,9.27447983 L6.14161972,9.27447983 L6.14161972,10.0223906 L7.85893998,10.0223906 L7.85893998,10.5441888 L6.14161972,10.5441888 L6.14161972,11.2920995 L7.85893998,11.2920995 L7.85893998,12.5618085 Z" id="￥" fill="#EDB211"></path>
                    <path d="M7.85893998,12.078662 L9.44278976,12.078662 L9.44278976,10.8089531 L11.142314,10.8089531 L11.142314,10.0610423 L9.44278976,10.0610423 L9.44278976,9.53924411 L11.142314,9.53924411 L11.142314,8.79133335 L9.75422089,8.79133335 L11.8185644,5.5735778 L9.98556974,5.5735778 L9.32711534,7.03461275 C9.0156842,7.72164705 8.91780584,7.9477596 8.69535503,8.40868134 L8.64196684,8.40868134 C8.42841406,7.9477596 8.34833177,7.75643359 8.01020654,7.03461275 L7.33395607,5.5735778 L5.46536926,5.5735778 L7.52971278,8.79133335 L6.14161972,8.79133335 L6.14161972,9.53924411 L7.85893998,9.53924411 L7.85893998,10.0610423 L6.14161972,10.0610423 L6.14161972,10.8089531 L7.85893998,10.8089531 L7.85893998,12.078662 Z" id="￥" fill="#FFE321"></path>
                </g>
                <g id="Group-18" transform="translate(17.000000, 7.000000)">
                    <g id="Oval-5">
                        <use fill="black" fill-opacity="1" filter="url(#filter-15)" xlink:href="#path-14"></use>
                        <use fill="#F9C514" fill-rule="evenodd" xlink:href="#path-14"></use>
                    </g>
                    <ellipse id="Oval-5" fill="url(#linearGradient-7)" cx="8.89803244" cy="8.69663664" rx="8.89803244" ry="8.69663664"></ellipse>
                    <ellipse id="Oval-5" fill="#EDB311" cx="8.89803244" cy="8.69663664" rx="6.42635676" ry="6.28090424"></ellipse>
                    <ellipse id="Oval-5" fill="#F8BF1B" cx="8.65086487" cy="8.4550634" rx="6.17918919" ry="6.039331"></ellipse>
                    <path d="M7.85893998,12.5618085 L9.44278976,12.5618085 L9.44278976,11.2920995 L11.142314,11.2920995 L11.142314,10.5441888 L9.44278976,10.5441888 L9.44278976,10.0223906 L11.142314,10.0223906 L11.142314,9.27447983 L9.75422089,9.27447983 L11.8185644,6.05672428 L9.98556974,6.05672428 L9.32711534,7.51775923 C9.0156842,8.20479353 8.91780584,8.43090608 8.69535503,8.89182782 L8.64196684,8.89182782 C8.42841406,8.43090608 8.34833177,8.23958007 8.01020654,7.51775923 L7.33395607,6.05672428 L5.46536926,6.05672428 L7.52971278,9.27447983 L6.14161972,9.27447983 L6.14161972,10.0223906 L7.85893998,10.0223906 L7.85893998,10.5441888 L6.14161972,10.5441888 L6.14161972,11.2920995 L7.85893998,11.2920995 L7.85893998,12.5618085 Z" id="￥" fill="#EDB211"></path>
                    <path d="M7.85893998,12.078662 L9.44278976,12.078662 L9.44278976,10.8089531 L11.142314,10.8089531 L11.142314,10.0610423 L9.44278976,10.0610423 L9.44278976,9.53924411 L11.142314,9.53924411 L11.142314,8.79133335 L9.75422089,8.79133335 L11.8185644,5.5735778 L9.98556974,5.5735778 L9.32711534,7.03461275 C9.0156842,7.72164705 8.91780584,7.9477596 8.69535503,8.40868134 L8.64196684,8.40868134 C8.42841406,7.9477596 8.34833177,7.75643359 8.01020654,7.03461275 L7.33395607,5.5735778 L5.46536926,5.5735778 L7.52971278,8.79133335 L6.14161972,8.79133335 L6.14161972,9.53924411 L7.85893998,9.53924411 L7.85893998,10.0610423 L6.14161972,10.0610423 L6.14161972,10.8089531 L7.85893998,10.8089531 L7.85893998,12.078662 Z" id="￥" fill="#FFE321"></path>
                </g>
                <g id="Group-18" transform="translate(25.000000, 12.000000)">
                    <g id="Oval-5">
                        <use fill="black" fill-opacity="1" filter="url(#filter-17)" xlink:href="#path-16"></use>
                        <use fill="#F9C514" fill-rule="evenodd" xlink:href="#path-16"></use>
                    </g>
                    <ellipse id="Oval-5" fill="url(#linearGradient-7)" cx="8.89803244" cy="8.69663664" rx="8.89803244" ry="8.69663664"></ellipse>
                    <ellipse id="Oval-5" fill="#EDB311" cx="8.89803244" cy="8.69663664" rx="6.42635676" ry="6.28090424"></ellipse>
                    <ellipse id="Oval-5" fill="#F8BF1B" cx="8.65086487" cy="8.4550634" rx="6.17918919" ry="6.039331"></ellipse>
                    <path d="M7.85893998,12.5618085 L9.44278976,12.5618085 L9.44278976,11.2920995 L11.142314,11.2920995 L11.142314,10.5441888 L9.44278976,10.5441888 L9.44278976,10.0223906 L11.142314,10.0223906 L11.142314,9.27447983 L9.75422089,9.27447983 L11.8185644,6.05672428 L9.98556974,6.05672428 L9.32711534,7.51775923 C9.0156842,8.20479353 8.91780584,8.43090608 8.69535503,8.89182782 L8.64196684,8.89182782 C8.42841406,8.43090608 8.34833177,8.23958007 8.01020654,7.51775923 L7.33395607,6.05672428 L5.46536926,6.05672428 L7.52971278,9.27447983 L6.14161972,9.27447983 L6.14161972,10.0223906 L7.85893998,10.0223906 L7.85893998,10.5441888 L6.14161972,10.5441888 L6.14161972,11.2920995 L7.85893998,11.2920995 L7.85893998,12.5618085 Z" id="￥" fill="#EDB211"></path>
                    <path d="M7.85893998,12.078662 L9.44278976,12.078662 L9.44278976,10.8089531 L11.142314,10.8089531 L11.142314,10.0610423 L9.44278976,10.0610423 L9.44278976,9.53924411 L11.142314,9.53924411 L11.142314,8.79133335 L9.75422089,8.79133335 L11.8185644,5.5735778 L9.98556974,5.5735778 L9.32711534,7.03461275 C9.0156842,7.72164705 8.91780584,7.9477596 8.69535503,8.40868134 L8.64196684,8.40868134 C8.42841406,7.9477596 8.34833177,7.75643359 8.01020654,7.03461275 L7.33395607,5.5735778 L5.46536926,5.5735778 L7.52971278,8.79133335 L6.14161972,8.79133335 L6.14161972,9.53924411 L7.85893998,9.53924411 L7.85893998,10.0610423 L6.14161972,10.0610423 L6.14161972,10.8089531 L7.85893998,10.8089531 L7.85893998,12.078662 Z" id="￥" fill="#FFE321"></path>
                </g>
                <g id="Group-18" transform="translate(40.000000, 16.000000)">
                    <g id="Oval-5">
                        <use fill="black" fill-opacity="1" filter="url(#filter-19)" xlink:href="#path-18"></use>
                        <use fill="#F9C514" fill-rule="evenodd" xlink:href="#path-18"></use>
                    </g>
                    <ellipse id="Oval-5" fill="url(#linearGradient-7)" cx="5" cy="5" rx="5" ry="5"></ellipse>
                    <ellipse id="Oval-5" fill="#EDB311" cx="5" cy="5" rx="3.75" ry="3.75"></ellipse>
                    <ellipse id="Oval-5" fill="#F8BF1B" cx="4.375" cy="5" rx="3.125" ry="3.75"></ellipse>
                    <path d="M3.91281513,7.5 L4.84768908,7.5 L4.84768908,6.76804813 L5.85084034,6.76804813 L5.85084034,6.3368984 L4.84768908,6.3368984 L4.84768908,6.03609626 L5.85084034,6.03609626 L5.85084034,5.60494652 L5.03151261,5.60494652 L6.25,3.75 L5.16806723,3.75 L4.77941176,4.59224599 C4.59558824,4.98830214 4.53781513,5.11864973 4.40651261,5.38435829 L4.375,5.38435829 C4.24894958,5.11864973 4.20168067,5.00835561 4.00210084,4.59224599 L3.60294118,3.75 L2.5,3.75 L3.71848739,5.60494652 L2.89915966,5.60494652 L2.89915966,6.03609626 L3.91281513,6.03609626 L3.91281513,6.3368984 L2.89915966,6.3368984 L2.89915966,6.76804813 L3.91281513,6.76804813 L3.91281513,7.5 Z" id="￥" fill="#EDB211"></path>
                    <path d="M3.91281513,7.5 L4.84768908,7.5 L4.84768908,6.76804813 L5.85084034,6.76804813 L5.85084034,6.3368984 L4.84768908,6.3368984 L4.84768908,6.03609626 L5.85084034,6.03609626 L5.85084034,5.60494652 L5.03151261,5.60494652 L6.25,3.75 L5.16806723,3.75 L4.77941176,4.59224599 C4.59558824,4.98830214 4.53781513,5.11864973 4.40651261,5.38435829 L4.375,5.38435829 C4.24894958,5.11864973 4.20168067,5.00835561 4.00210084,4.59224599 L3.60294118,3.75 L2.5,3.75 L3.71848739,5.60494652 L2.89915966,5.60494652 L2.89915966,6.03609626 L3.91281513,6.03609626 L3.91281513,6.3368984 L2.89915966,6.3368984 L2.89915966,6.76804813 L3.91281513,6.76804813 L3.91281513,7.5 Z" id="￥" fill="#FFE321"></path>
                </g>
                <polygon id="Path-6" fill="#FB642C" fill-rule="nonzero" points="15.5256584 11.8418861 12.5256584 20.8418861 13.4743416 21.1581139 16.4743416 12.1581139"></polygon>
                <polygon id="Path-7" fill="#FB642C" fill-rule="nonzero" points="49.5256584 12.1581139 52.5256584 21.1581139 53.4743416 20.8418861 50.4743416 11.8418861"></polygon>
                <g id="Path-3">
                    <use fill="#FFFFFF" fill-rule="evenodd" xlink:href="#path-20"></use>
                    <path stroke="#FB642C" stroke-width="1" d="M6.56776756,52.8201579 L11.5374127,20.5406227 C11.6051168,20.5467546 11.6785275,20.55339 11.7574702,20.5605098 C12.3094105,20.6102884 12.9329551,20.6657521 13.6152055,20.7254801 C15.5644661,20.8961292 17.5936971,21.0667784 19.5997679,21.226064 C20.5303063,21.2999504 21.4359202,21.3697701 22.3106361,21.4348643 C26.7590917,21.7659074 30.1288812,21.9552654 32,21.9552654 C33.8945826,21.9552654 37.4386995,21.7611382 42.1648379,21.4226135 C43.02419,21.3610597 43.9125726,21.2954064 44.8247129,21.2261997 C46.9238913,21.0669291 49.0529008,20.8962947 51.1019447,20.7256605 C51.8191165,20.665938 52.4750863,20.6104797 53.0561229,20.5607064 C53.1451009,20.5530843 53.2274116,20.5460174 53.3028267,20.5395293 L57.4464641,52.8367299 C57.4223966,52.8421461 57.3974887,52.8477354 57.3717456,52.853495 C56.9504534,52.9477525 56.4590775,53.0528805 55.9025413,53.1661671 C54.3107638,53.4901839 52.5173089,53.814327 50.5616002,54.1169129 C44.7418034,55.0173479 38.7435858,55.5413074 32.9174835,55.497505 C32.4359427,55.4938846 31.9493155,55.4867815 31.4577851,55.4762613 C26.1913824,55.3635446 20.5488496,54.8692634 14.8646268,54.1155313 C12.5790822,53.8124664 10.4439813,53.4877655 8.51832113,53.1631265 C7.84469785,53.0495631 7.24550931,52.9441472 6.72812402,52.8495919 C6.67142308,52.8392294 6.61795587,52.8294126 6.56776756,52.8201579 Z"></path>
                </g>
                <circle id="Oval-4" stroke="#FB642C" fill="#D8D8D8" cx="41" cy="28" r="2"></circle>
                <circle id="Oval-4" stroke="#FB642C" fill="#D8D8D8" cx="24" cy="28" r="2"></circle>
                <path d="M23.323478,28.794003 C23.2949476,28.8571023 23.2483215,28.9688394 23.1896984,29.1237717 C23.0936272,29.3776737 22.9979182,29.6636344 22.9087193,29.9762994 C22.5182301,31.3450643 22.3724443,32.7555075 22.619461,34.0909428 C23.2452961,37.4743677 26.2011288,39.5 32,39.5 C37.7918563,39.5 40.7482579,37.6360596 41.3790698,34.4985554 C41.6289347,33.2557885 41.4817947,31.9461274 41.0880304,30.6763019 C40.9336053,30.1783062 40.7778294,29.799549 40.6696632,29.5794611 L39.7721943,30.0205389 C39.8587958,30.1967486 39.9951717,30.5283362 40.1328983,30.972482 C40.4813845,32.0962929 40.6106747,33.2470773 40.3986886,34.3014446 C39.8734324,36.9139404 37.3577783,38.5 32,38.5 C26.6492366,38.5 24.1330136,36.7756323 23.6027807,33.9090572 C23.3879463,32.7476074 23.5185907,31.4836533 23.870352,30.2506396 C23.9515749,29.9659323 24.0384608,29.7063336 24.1249844,29.4776644 C24.1759182,29.343054 24.214503,29.2505873 24.2346646,29.205997 L23.323478,28.794003 Z" id="Path-4" fill="#FB642C" fill-rule="nonzero"></path>
                <path d="M14.854724,12.7204796 C17.4290552,15.0185829 18.2871656,14.1811388 13.9966136,10.5294908 C9.70606172,6.8778429 2.5467217,6.66732813 1.12495786,7.24300769 C-0.296805978,7.81868726 -0.59126291,8.70366687 1.54244868,9.61657887 C3.67616026,10.5294909 12.2803929,10.4223763 14.854724,12.7204796 Z" id="Oval-8" fill="#50E3C2"></path>
                <path d="M63.1071094,8.7204796 C65.3785781,11.0185829 66.1357343,10.1811388 62.3499532,6.52949084 C58.5641721,2.8778429 52.2471074,2.66732813 50.9926099,3.24300769 C49.7381124,3.81868726 49.4782974,4.70366687 51.3609841,5.61657887 C53.2436708,6.52949086 60.8356408,6.42237634 63.1071094,8.7204796 Z" id="Oval-8" fill="#FFD56B" transform="translate(57.500000, 6.500000) scale(-1, 1) translate(-57.500000, -6.500000) "></path>
                <path d="M57.1166511,4.45163411 C58.1766698,5.43653551 58.5300094,5.0776309 56.7633115,3.51263893 C54.9966136,1.94764696 52.0486501,1.85742634 51.4632179,2.10414615 C50.8777858,2.35086597 50.7565388,2.73014294 51.6351259,3.12139094 C52.513713,3.51263894 56.0566324,3.46673272 57.1166511,4.45163411 Z" id="Oval-8" fill="#FFA5F2" transform="translate(54.500000, 3.500000) scale(-1, 1) rotate(32.000000) translate(-54.500000, -3.500000) "></path>
                <path d="M17.738073,11.0860569 C19.2523854,12.7275592 19.7571562,12.1293848 17.2333021,9.52106488 C14.7094481,6.91274493 10.4980716,6.76237723 9.66173992,7.17357692 C8.82540825,7.58477661 8.65219829,8.21690491 9.90732275,8.86898491 C11.1624472,9.5210649 16.2237605,9.44455453 17.738073,11.0860569 Z" id="Oval-8" fill="#6CC0EA" transform="translate(14.000000, 9.500000) rotate(39.000000) translate(-14.000000, -9.500000) "></path>
            </g>
            <g id="Group-10" transform="translate(0.000000, 318.000000)">
                <g id="Path-5">
                    <use fill="url(#linearGradient-2)" fill-rule="evenodd" xlink:href="#path-21"></use>
                    <path stroke="#FB642C" stroke-width="1" d="M13.0640269,20.8856297 L17.5028474,17.2829595 L17.8486761,17.0022753 L17.6096709,16.6264328 L15.3472588,13.0687244 C15.6809737,13.0215493 16.0488082,12.9705473 16.4470154,12.9165118 C17.8983087,12.7195759 19.4540645,12.5226273 21.0520309,12.3388304 C22.7511889,12.1433945 24.399169,11.9744412 25.95864,11.8398269 C28.5055091,11.6199799 30.7191103,11.5 32.5,11.5 C34.4879469,11.5 37.158746,11.6491919 40.3407477,11.9186807 C41.7594779,12.0388353 43.2512051,12.1805731 44.7904983,12.3394626 C46.5722258,12.5233768 48.324778,12.7204496 49.9728423,12.917516 C50.4721404,12.9772193 50.930737,13.0332253 51.3425302,13.0844665 L49.2235914,16.6386984 L49.0466872,16.9354312 L49.2616546,17.2058652 L52.1462647,20.8347713 L32.9155464,26.4797319 L13.0640269,20.8856297 Z"></path>
                </g>
                <g id="Group-18" transform="translate(30.000000, 3.000000)">
                    <g id="Oval-5">
                        <use fill="black" fill-opacity="1" filter="url(#filter-23)" xlink:href="#path-22"></use>
                        <use fill="#F9C514" fill-rule="evenodd" xlink:href="#path-22"></use>
                    </g>
                    <ellipse id="Oval-5" fill="url(#linearGradient-7)" cx="8.89803244" cy="8.69663664" rx="8.89803244" ry="8.69663664"></ellipse>
                    <ellipse id="Oval-5" fill="#EDB311" cx="8.89803244" cy="8.69663664" rx="6.42635676" ry="6.28090424"></ellipse>
                    <ellipse id="Oval-5" fill="#F8BF1B" cx="8.65086487" cy="8.4550634" rx="6.17918919" ry="6.039331"></ellipse>
                    <path d="M7.85893998,12.5618085 L9.44278976,12.5618085 L9.44278976,11.2920995 L11.142314,11.2920995 L11.142314,10.5441888 L9.44278976,10.5441888 L9.44278976,10.0223906 L11.142314,10.0223906 L11.142314,9.27447983 L9.75422089,9.27447983 L11.8185644,6.05672428 L9.98556974,6.05672428 L9.32711534,7.51775923 C9.0156842,8.20479353 8.91780584,8.43090608 8.69535503,8.89182782 L8.64196684,8.89182782 C8.42841406,8.43090608 8.34833177,8.23958007 8.01020654,7.51775923 L7.33395607,6.05672428 L5.46536926,6.05672428 L7.52971278,9.27447983 L6.14161972,9.27447983 L6.14161972,10.0223906 L7.85893998,10.0223906 L7.85893998,10.5441888 L6.14161972,10.5441888 L6.14161972,11.2920995 L7.85893998,11.2920995 L7.85893998,12.5618085 Z" id="￥" fill="#EDB211"></path>
                    <path d="M7.85893998,12.078662 L9.44278976,12.078662 L9.44278976,10.8089531 L11.142314,10.8089531 L11.142314,10.0610423 L9.44278976,10.0610423 L9.44278976,9.53924411 L11.142314,9.53924411 L11.142314,8.79133335 L9.75422089,8.79133335 L11.8185644,5.5735778 L9.98556974,5.5735778 L9.32711534,7.03461275 C9.0156842,7.72164705 8.91780584,7.9477596 8.69535503,8.40868134 L8.64196684,8.40868134 C8.42841406,7.9477596 8.34833177,7.75643359 8.01020654,7.03461275 L7.33395607,5.5735778 L5.46536926,5.5735778 L7.52971278,8.79133335 L6.14161972,8.79133335 L6.14161972,9.53924411 L7.85893998,9.53924411 L7.85893998,10.0610423 L6.14161972,10.0610423 L6.14161972,10.8089531 L7.85893998,10.8089531 L7.85893998,12.078662 Z" id="￥" fill="#FFE321"></path>
                </g>
                <g id="Group-18" transform="translate(17.000000, 7.000000)">
                    <g id="Oval-5">
                        <use fill="black" fill-opacity="1" filter="url(#filter-25)" xlink:href="#path-24"></use>
                        <use fill="#F9C514" fill-rule="evenodd" xlink:href="#path-24"></use>
                    </g>
                    <ellipse id="Oval-5" fill="url(#linearGradient-7)" cx="8.89803244" cy="8.69663664" rx="8.89803244" ry="8.69663664"></ellipse>
                    <ellipse id="Oval-5" fill="#EDB311" cx="8.89803244" cy="8.69663664" rx="6.42635676" ry="6.28090424"></ellipse>
                    <ellipse id="Oval-5" fill="#F8BF1B" cx="8.65086487" cy="8.4550634" rx="6.17918919" ry="6.039331"></ellipse>
                    <path d="M7.85893998,12.5618085 L9.44278976,12.5618085 L9.44278976,11.2920995 L11.142314,11.2920995 L11.142314,10.5441888 L9.44278976,10.5441888 L9.44278976,10.0223906 L11.142314,10.0223906 L11.142314,9.27447983 L9.75422089,9.27447983 L11.8185644,6.05672428 L9.98556974,6.05672428 L9.32711534,7.51775923 C9.0156842,8.20479353 8.91780584,8.43090608 8.69535503,8.89182782 L8.64196684,8.89182782 C8.42841406,8.43090608 8.34833177,8.23958007 8.01020654,7.51775923 L7.33395607,6.05672428 L5.46536926,6.05672428 L7.52971278,9.27447983 L6.14161972,9.27447983 L6.14161972,10.0223906 L7.85893998,10.0223906 L7.85893998,10.5441888 L6.14161972,10.5441888 L6.14161972,11.2920995 L7.85893998,11.2920995 L7.85893998,12.5618085 Z" id="￥" fill="#EDB211"></path>
                    <path d="M7.85893998,12.078662 L9.44278976,12.078662 L9.44278976,10.8089531 L11.142314,10.8089531 L11.142314,10.0610423 L9.44278976,10.0610423 L9.44278976,9.53924411 L11.142314,9.53924411 L11.142314,8.79133335 L9.75422089,8.79133335 L11.8185644,5.5735778 L9.98556974,5.5735778 L9.32711534,7.03461275 C9.0156842,7.72164705 8.91780584,7.9477596 8.69535503,8.40868134 L8.64196684,8.40868134 C8.42841406,7.9477596 8.34833177,7.75643359 8.01020654,7.03461275 L7.33395607,5.5735778 L5.46536926,5.5735778 L7.52971278,8.79133335 L6.14161972,8.79133335 L6.14161972,9.53924411 L7.85893998,9.53924411 L7.85893998,10.0610423 L6.14161972,10.0610423 L6.14161972,10.8089531 L7.85893998,10.8089531 L7.85893998,12.078662 Z" id="￥" fill="#FFE321"></path>
                </g>
                <g id="Group-18" transform="translate(25.000000, 12.000000)">
                    <g id="Oval-5">
                        <use fill="black" fill-opacity="1" filter="url(#filter-27)" xlink:href="#path-26"></use>
                        <use fill="#F9C514" fill-rule="evenodd" xlink:href="#path-26"></use>
                    </g>
                    <ellipse id="Oval-5" fill="url(#linearGradient-7)" cx="8.89803244" cy="8.69663664" rx="8.89803244" ry="8.69663664"></ellipse>
                    <ellipse id="Oval-5" fill="#EDB311" cx="8.89803244" cy="8.69663664" rx="6.42635676" ry="6.28090424"></ellipse>
                    <ellipse id="Oval-5" fill="#F8BF1B" cx="8.65086487" cy="8.4550634" rx="6.17918919" ry="6.039331"></ellipse>
                    <path d="M7.85893998,12.5618085 L9.44278976,12.5618085 L9.44278976,11.2920995 L11.142314,11.2920995 L11.142314,10.5441888 L9.44278976,10.5441888 L9.44278976,10.0223906 L11.142314,10.0223906 L11.142314,9.27447983 L9.75422089,9.27447983 L11.8185644,6.05672428 L9.98556974,6.05672428 L9.32711534,7.51775923 C9.0156842,8.20479353 8.91780584,8.43090608 8.69535503,8.89182782 L8.64196684,8.89182782 C8.42841406,8.43090608 8.34833177,8.23958007 8.01020654,7.51775923 L7.33395607,6.05672428 L5.46536926,6.05672428 L7.52971278,9.27447983 L6.14161972,9.27447983 L6.14161972,10.0223906 L7.85893998,10.0223906 L7.85893998,10.5441888 L6.14161972,10.5441888 L6.14161972,11.2920995 L7.85893998,11.2920995 L7.85893998,12.5618085 Z" id="￥" fill="#EDB211"></path>
                    <path d="M7.85893998,12.078662 L9.44278976,12.078662 L9.44278976,10.8089531 L11.142314,10.8089531 L11.142314,10.0610423 L9.44278976,10.0610423 L9.44278976,9.53924411 L11.142314,9.53924411 L11.142314,8.79133335 L9.75422089,8.79133335 L11.8185644,5.5735778 L9.98556974,5.5735778 L9.32711534,7.03461275 C9.0156842,7.72164705 8.91780584,7.9477596 8.69535503,8.40868134 L8.64196684,8.40868134 C8.42841406,7.9477596 8.34833177,7.75643359 8.01020654,7.03461275 L7.33395607,5.5735778 L5.46536926,5.5735778 L7.52971278,8.79133335 L6.14161972,8.79133335 L6.14161972,9.53924411 L7.85893998,9.53924411 L7.85893998,10.0610423 L6.14161972,10.0610423 L6.14161972,10.8089531 L7.85893998,10.8089531 L7.85893998,12.078662 Z" id="￥" fill="#FFE321"></path>
                </g>
                <g id="Group-18" transform="translate(40.000000, 16.000000)">
                    <g id="Oval-5">
                        <use fill="black" fill-opacity="1" filter="url(#filter-29)" xlink:href="#path-28"></use>
                        <use fill="#F9C514" fill-rule="evenodd" xlink:href="#path-28"></use>
                    </g>
                    <ellipse id="Oval-5" fill="url(#linearGradient-7)" cx="5" cy="5" rx="5" ry="5"></ellipse>
                    <ellipse id="Oval-5" fill="#EDB311" cx="5" cy="5" rx="3.75" ry="3.75"></ellipse>
                    <ellipse id="Oval-5" fill="#F8BF1B" cx="4.375" cy="5" rx="3.125" ry="3.75"></ellipse>
                    <path d="M3.91281513,7.5 L4.84768908,7.5 L4.84768908,6.76804813 L5.85084034,6.76804813 L5.85084034,6.3368984 L4.84768908,6.3368984 L4.84768908,6.03609626 L5.85084034,6.03609626 L5.85084034,5.60494652 L5.03151261,5.60494652 L6.25,3.75 L5.16806723,3.75 L4.77941176,4.59224599 C4.59558824,4.98830214 4.53781513,5.11864973 4.40651261,5.38435829 L4.375,5.38435829 C4.24894958,5.11864973 4.20168067,5.00835561 4.00210084,4.59224599 L3.60294118,3.75 L2.5,3.75 L3.71848739,5.60494652 L2.89915966,5.60494652 L2.89915966,6.03609626 L3.91281513,6.03609626 L3.91281513,6.3368984 L2.89915966,6.3368984 L2.89915966,6.76804813 L3.91281513,6.76804813 L3.91281513,7.5 Z" id="￥" fill="#EDB211"></path>
                    <path d="M3.91281513,7.5 L4.84768908,7.5 L4.84768908,6.76804813 L5.85084034,6.76804813 L5.85084034,6.3368984 L4.84768908,6.3368984 L4.84768908,6.03609626 L5.85084034,6.03609626 L5.85084034,5.60494652 L5.03151261,5.60494652 L6.25,3.75 L5.16806723,3.75 L4.77941176,4.59224599 C4.59558824,4.98830214 4.53781513,5.11864973 4.40651261,5.38435829 L4.375,5.38435829 C4.24894958,5.11864973 4.20168067,5.00835561 4.00210084,4.59224599 L3.60294118,3.75 L2.5,3.75 L3.71848739,5.60494652 L2.89915966,5.60494652 L2.89915966,6.03609626 L3.91281513,6.03609626 L3.91281513,6.3368984 L2.89915966,6.3368984 L2.89915966,6.76804813 L3.91281513,6.76804813 L3.91281513,7.5 Z" id="￥" fill="#FFE321"></path>
                </g>
                <polygon id="Path-6" fill="#FB642C" fill-rule="nonzero" points="14.5256584 11.8418861 11.5256584 20.8418861 12.4743416 21.1581139 15.4743416 12.1581139"></polygon>
                <polygon id="Path-7" fill="#FB642C" fill-rule="nonzero" points="50.5256584 12.1581139 53.5256584 21.1581139 54.4743416 20.8418861 51.4743416 11.8418861"></polygon>
                <g id="Path-3">
                    <use fill="#FFFFFF" fill-rule="evenodd" xlink:href="#path-30"></use>
                    <path stroke="#FB642C" stroke-width="1" d="M6.56776756,52.8201579 L11.5374127,20.5406227 C11.6051168,20.5467546 11.6785275,20.55339 11.7574702,20.5605098 C12.3094105,20.6102884 12.9329551,20.6657521 13.6152055,20.7254801 C15.5644661,20.8961292 17.5936971,21.0667784 19.5997679,21.226064 C20.5303063,21.2999504 21.4359202,21.3697701 22.3106361,21.4348643 C26.7590917,21.7659074 30.1288812,21.9552654 32,21.9552654 C33.8945826,21.9552654 37.4386995,21.7611382 42.1648379,21.4226135 C43.02419,21.3610597 43.9125726,21.2954064 44.8247129,21.2261997 C46.9238913,21.0669291 49.0529008,20.8962947 51.1019447,20.7256605 C51.8191165,20.665938 52.4750863,20.6104797 53.0561229,20.5607064 C53.1451009,20.5530843 53.2274116,20.5460174 53.3028267,20.5395293 L57.4464641,52.8367299 C57.4223966,52.8421461 57.3974887,52.8477354 57.3717456,52.853495 C56.9504534,52.9477525 56.4590775,53.0528805 55.9025413,53.1661671 C54.3107638,53.4901839 52.5173089,53.814327 50.5616002,54.1169129 C44.7418034,55.0173479 38.7435858,55.5413074 32.9174835,55.497505 C32.4359427,55.4938846 31.9493155,55.4867815 31.4577851,55.4762613 C26.1913824,55.3635446 20.5488496,54.8692634 14.8646268,54.1155313 C12.5790822,53.8124664 10.4439813,53.4877655 8.51832113,53.1631265 C7.84469785,53.0495631 7.24550931,52.9441472 6.72812402,52.8495919 C6.67142308,52.8392294 6.61795587,52.8294126 6.56776756,52.8201579 Z"></path>
                </g>
                <g id="Group" transform="translate(18.000000, 19.000000)">
                    <path d="M17.6602522,20.604372 L9.41251209,20.604372 C7.91118857,20.604372 6.67237341,21.8342322 6.67237341,23.3513416 C6.67237341,24.8653641 7.89917529,26.0983113 9.41251209,26.0983113 L20.4140529,26.0983113 C21.9153764,26.0983113 23.1541916,24.8684511 23.1541916,23.3513416 C23.1541916,23.115326 23.1243796,22.8861406 23.0683174,22.6673913 C23.1243735,22.4495486 23.1541916,22.2212449 23.1541916,21.9860149 L23.1541916,5.48788051 C23.1541916,3.97767003 21.9243314,2.74906894 20.4072219,2.74906894 C18.8931994,2.74906894 17.6602522,3.97527665 17.6602522,5.48788051 L17.6602522,20.604372 Z" id="Combined-Shape" fill="#429321" transform="translate(14.913282, 14.423690) rotate(45.000000) translate(-14.913282, -14.423690) "></path>
                    <path d="M17.6602522,21.604372 L9.41251209,21.604372 C7.91118857,21.604372 6.67237341,22.8342322 6.67237341,24.3513416 C6.67237341,25.8653641 7.89917529,27.0983113 9.41251209,27.0983113 L20.4140529,27.0983113 C21.9153764,27.0983113 23.1541916,25.8684511 23.1541916,24.3513416 C23.1541916,24.115326 23.1243796,23.8861406 23.0683174,23.6673913 C23.1243735,23.4495486 23.1541916,23.2212449 23.1541916,22.9860149 L23.1541916,6.48788051 C23.1541916,4.97767003 21.9243314,3.74906894 20.4072219,3.74906894 C18.8931994,3.74906894 17.6602522,4.97527665 17.6602522,6.48788051 L17.6602522,21.604372 Z" id="Combined-Shape" fill="url(#linearGradient-31)" transform="translate(14.913282, 15.423690) rotate(45.000000) translate(-14.913282, -15.423690) "></path>
                </g>
                <path d="M14.854724,12.7204796 C17.4290552,15.0185829 18.2871656,14.1811388 13.9966136,10.5294908 C9.70606172,6.8778429 2.5467217,6.66732813 1.12495786,7.24300769 C-0.296805978,7.81868726 -0.59126291,8.70366687 1.54244868,9.61657887 C3.67616026,10.5294909 12.2803929,10.4223763 14.854724,12.7204796 Z" id="Oval-8" fill="#50E3C2"></path>
                <path d="M63.1071094,8.7204796 C65.3785781,11.0185829 66.1357343,10.1811388 62.3499532,6.52949084 C58.5641721,2.8778429 52.2471074,2.66732813 50.9926099,3.24300769 C49.7381124,3.81868726 49.4782974,4.70366687 51.3609841,5.61657887 C53.2436708,6.52949086 60.8356408,6.42237634 63.1071094,8.7204796 Z" id="Oval-8" fill="#FFD56B" transform="translate(57.500000, 6.500000) scale(-1, 1) translate(-57.500000, -6.500000) "></path>
                <path d="M57.1166511,4.45163411 C58.1766698,5.43653551 58.5300094,5.0776309 56.7633115,3.51263893 C54.9966136,1.94764696 52.0486501,1.85742634 51.4632179,2.10414615 C50.8777858,2.35086597 50.7565388,2.73014294 51.6351259,3.12139094 C52.513713,3.51263894 56.0566324,3.46673272 57.1166511,4.45163411 Z" id="Oval-8" fill="#FFA5F2" transform="translate(54.500000, 3.500000) scale(-1, 1) rotate(32.000000) translate(-54.500000, -3.500000) "></path>
                <path d="M17.738073,11.0860569 C19.2523854,12.7275592 19.7571562,12.1293848 17.2333021,9.52106488 C14.7094481,6.91274493 10.4980716,6.76237723 9.66173992,7.17357692 C8.82540825,7.58477661 8.65219829,8.21690491 9.90732275,8.86898491 C11.1624472,9.5210649 16.2237605,9.44455453 17.738073,11.0860569 Z" id="Oval-8" fill="#6CC0EA" transform="translate(14.000000, 9.500000) rotate(39.000000) translate(-14.000000, -9.500000) "></path>
            </g>
            <g id="Group-2" transform="translate(0.000000, 384.000000)">
                <g id="Group">
                    <g id="Group-10" transform="translate(0.000000, 25.000000)">
                        <g id="Path-5">
                            <use fill="url(#linearGradient-2)" fill-rule="evenodd" xlink:href="#path-32"></use>
                            <path stroke="#FB642C" stroke-width="1" d="M7.66057356,9.43563183 L11.9640376,6.02458817 L12.3210179,5.74163577 L12.0724539,5.35991212 L9.88136724,1.99502604 C10.2002024,1.95106429 10.5503878,1.90367825 10.9285711,1.85356133 C12.3486081,1.66537776 13.870858,1.4771821 15.4344099,1.30155358 C17.0969756,1.11480319 18.709466,0.953358445 20.235355,0.824726444 C22.7273892,0.614648674 24.8933352,0.5 26.6358974,0.5 C28.5810579,0.5 31.1943527,0.642562321 34.3078396,0.900075556 C35.696017,1.01489024 37.1556185,1.15032895 38.6617612,1.3021571 C40.4051161,1.47789766 42.1199238,1.6662119 43.7324938,1.8545201 C44.2098203,1.91026 44.6491299,1.96262731 45.044854,2.01067065 L42.9927445,5.37222446 L42.8084655,5.67409119 L43.031727,5.94838407 L45.8283627,9.38425393 L27.042494,14.7695411 L7.66057356,9.43563183 Z"></path>
                        </g>
                        <polygon id="Path-6" fill="#FB642C" fill-rule="nonzero" points="9.01808692 0.7940428 6.08270231 9.3940428 7.02909256 9.71706831 9.96447718 1.11706831"></polygon>
                        <polygon id="Path-7" fill="#FB642C" fill-rule="nonzero" points="44.2857792 1.11706831 47.2211638 9.71706831 48.1675541 9.3940428 45.2321695 0.7940428"></polygon>
                        <g id="Path-3">
                            <use fill="#FFFFFF" fill-rule="evenodd" xlink:href="#path-33"></use>
                            <path stroke="#FB642C" stroke-width="1" d="M1.27648178,39.9418441 L6.13238388,9.13948335 C6.19654282,9.14515723 6.26586753,9.15127611 6.34020573,9.1578236 C6.88025751,9.2053898 7.49037127,9.25838841 8.15792646,9.31546177 C10.0652013,9.47852632 12.050724,9.64159092 14.013585,9.79379699 C14.9240799,9.86439946 15.810187,9.931116 16.6660616,9.99331703 C21.0186828,10.3096455 24.3158794,10.4905869 26.1466667,10.4905869 C28.0004132,10.4905869 31.4681835,10.3050883 36.0925068,9.9816106 C36.9333487,9.92279258 37.8025959,9.86005724 38.6950891,9.79392652 C40.7490525,9.64173479 42.8322047,9.47868424 44.8371137,9.31563391 C45.5388381,9.25856578 46.1806788,9.20557233 46.7492002,9.15801127 C46.8331357,9.15098944 46.9110075,9.14446073 46.9826156,9.13844534 L51.0314724,39.9580983 C51.0121934,39.9623287 50.9923786,39.9666686 50.9720305,39.9711145 C50.5598161,40.061182 50.0790271,40.1616369 49.5344809,40.2698879 C47.9769917,40.5795032 46.2221672,40.8892396 44.3085813,41.1783773 C38.6141107,42.0387964 32.74505,42.5394718 27.044382,42.4976158 C26.5732084,42.4941564 26.0970581,42.4873688 25.6161103,42.4773161 C20.4631034,42.3696084 14.9420781,41.8972932 9.38026568,41.1770578 C7.14394494,40.887462 5.05482887,40.5771919 3.17064341,40.2669812 C2.51152912,40.1584651 1.92524656,40.0577345 1.41900548,39.9673817 C1.36890662,39.9584401 1.32138787,39.9499237 1.27648178,39.9418441 Z"></path>
                        </g>
                        <ellipse id="Oval" fill="url(#radialGradient-34)" cx="6.00666667" cy="30.1693548" rx="6.00666667" ry="5.89516129"></ellipse>
                        <ellipse id="Oval" fill="url(#radialGradient-34)" cx="46.9933333" cy="30.1693548" rx="6.00666667" ry="5.89516129"></ellipse>
                    </g>
                    <path d="M13,43 C13,46.3137085 15.6862915,49 19,49 C22.3137085,49 25,46.3137085 25,43 C25,42.4477153 24.5522847,42 24,42 C23.4477153,42 23,42.4477153 23,43 C23,45.209139 21.209139,47 19,47 C16.790861,47 15,45.209139 15,43 C15,42.4477153 14.5522847,42 14,42 C13.4477153,42 13,42.4477153 13,43 Z" id="Oval-9" fill="#FB642C" fill-rule="nonzero"></path>
                    <path d="M29,43 C29,46.3137085 31.6862915,49 35,49 C38.3137085,49 41,46.3137085 41,43 C41,42.4477153 40.5522847,42 40,42 C39.4477153,42 39,42.4477153 39,43 C39,45.209139 37.209139,47 35,47 C32.790861,47 31,45.209139 31,43 C31,42.4477153 30.5522847,42 30,42 C29.4477153,42 29,42.4477153 29,43 Z" id="Oval-9" fill="#FB642C" fill-rule="nonzero"></path>
                    <path d="M21,59 C21,57.5130832 23.837031,56 27.5,56 C31.162969,56 34,57.5130832 34,59 C34,59.5522847 34.4477153,60 35,60 C35.5522847,60 36,59.5522847 36,59 C36,56.0686388 32.1213023,54 27.5,54 C22.8786977,54 19,56.0686388 19,59 C19,59.5522847 19.4477153,60 20,60 C20.5522847,60 21,59.5522847 21,59 Z" id="Oval-9" fill="#FB642C" fill-rule="nonzero"></path>
                    <path d="M29.6643586,6.62258545 C29.5430501,6.17994867 29.4782609,5.71384157 29.4782609,5.23255814 C29.4782609,2.34269608 31.8141665,0 34.6956522,0 C36.607765,0 38.2796338,1.03159696 39.1881123,2.57012378 C39.6070243,2.85414587 39.9767355,3.27691296 40.2774703,3.86960392 C42.8998628,9.03783856 42.8998628,14.2060732 37.6550778,18.0822492 C32.4102928,21.9584252 36.3438816,21.9584252 31.0990965,23.2504838 C25.8543115,24.5425425 29.7879003,33.5869531 27.1655078,28.4187185 C24.5431153,23.2504838 27.1655078,23.2504838 27.1655078,20.6663665 C27.1655078,18.0822492 32.4102928,16.1251296 29.7879003,12.9140145 C27.5187849,10.1354867 29.1765299,7.32846028 29.6643586,6.62258545 Z" id="Combined-Shape" stroke="url(#linearGradient-36)" fill="url(#linearGradient-35)"></path>
                </g>
            </g>
            <g id="Group-4" transform="translate(0.000000, 463.000000)">
                <g id="Group-14-+-柴科夫司机-+-Group-17-+-12:35:12-2017/5/15-Mask">
                    <ellipse id="Mask" fill="#D8D8D8" cx="34.5" cy="34.5" rx="34.5" ry="34.5"></ellipse>
                    <polygon id="Polygon" fill="#FDA00E" points="11.4616217 80 21.9232434 87.6008131 17.9272595 99.8991869 4.9959839 99.8991869 1 87.6008131"></polygon>
                </g>
                <g id="Group-3" transform="translate(12.000000, 10.000000)">
                    <rect id="Rectangle-5" fill="#FFFFFF" x="12" y="16" width="4" height="9" rx="2"></rect>
                    <rect id="Rectangle-5" fill="#FFFFFF" x="30" y="16" width="4" height="9" rx="2"></rect>
                    <path d="M2.81430466,7.46423835 C2.89342968,7.49588835 3.0365582,7.54816138 3.23799899,7.61408745 C3.56872288,7.72232436 3.94620711,7.830177 4.36479501,7.9306381 C7.23452146,8.61937245 10.2978601,8.61937245 13.1856953,7.46423835 C14.7771602,6.82765239 16.0840427,5.9563974 17.1313312,4.90910895 C17.9488859,4.0915542 18.5630137,3.21422875 19.0027692,2.33471791 C19.2700095,1.80023723 19.4210742,1.37725611 19.4850713,1.12126781 L18.5149287,0.878732187 C18.4678147,1.06718833 18.3411016,1.42198499 18.108342,1.88750431 C17.714764,2.67466014 17.1622252,3.46400136 16.4242244,4.20200216 C15.4715128,5.15471371 14.2783953,5.95012539 12.8143047,6.53576165 C10.1465844,7.60284978 7.28399706,7.60284978 4.59816796,6.95825079 C4.20657067,6.86426744 3.85488823,6.76378675 3.54903805,6.66369032 C3.36853439,6.6046164 3.24545921,6.5596672 3.18569534,6.53576165 L2.81430466,7.46423835 Z" id="Path-9" fill="#FFFFFF" fill-rule="nonzero"></path>
                    <path d="M26.6464466,3.35355339 C26.6833884,3.39049517 26.7516638,3.45699718 26.8487751,3.54885921 C27.0089498,3.70037583 27.1929139,3.86879367 27.3981892,4.04991893 C27.9840386,4.56684488 28.6248728,5.08364668 29.3013809,5.56686674 C30.5145513,6.43341703 31.7077099,7.09628291 32.8418861,7.47434165 C33.6905396,7.75722615 34.7162719,7.90375933 35.8836793,7.93711383 C37.0925405,7.97165272 38.381441,7.88443389 39.6572622,7.71802243 C40.0365613,7.66854863 40.3866225,7.61550906 40.6994481,7.56238773 C40.8884365,7.53029535 41.0239867,7.5051046 41.0980581,7.49029034 L40.9019419,6.50970966 C40.8371244,6.52267318 40.7111005,6.54609354 40.5320334,6.57650116 C40.2314331,6.6275465 39.8939943,6.67867359 39.527923,6.72642202 C38.3003428,6.88654117 37.0616545,6.97036218 35.9122391,6.93752174 C34.8347485,6.9067363 33.9012971,6.7733861 33.1581139,6.52565835 C32.1322901,6.18371709 31.0214487,5.56658297 29.8826191,4.75313326 C29.2361272,4.29135332 28.6214614,3.79565512 28.0598108,3.30008107 C27.7238347,3.00363159 27.4815519,2.77444516 27.3535534,2.64644661 L26.6464466,3.35355339 Z" id="Path-10" fill="#FFFFFF" fill-rule="nonzero"></path>
                    <path d="M6,16.9935641 C6,13.68341 8.69303423,11 12,11 L12,11 C15.3137085,11 18,13.6937005 18,16.9935641 L18,28 L6,28 L6,16.9935641 Z" id="Rectangle-22" fill="#FFFFFF"></path>
                    <path d="M29,16.9935641 C29,13.68341 31.6930342,11 35,11 L35,11 C38.3137085,11 41,13.6937005 41,16.9935641 L41,28 L29,28 L29,16.9935641 Z" id="Rectangle-22" fill="#FFFFFF"></path>
                    <rect id="Rectangle-5" fill="#D8D8D8" x="31" y="15" width="4" height="9" rx="2"></rect>
                    <rect id="Rectangle-5" fill="#D8D8D8" x="12" y="15" width="4" height="9" rx="2"></rect>
                    <path d="M12.5149287,40.8787322 C12.4912817,40.9733203 12.4581412,41.134604 12.4256422,41.3490973 C12.308579,42.1217148 12.2975745,42.9382497 12.4644516,43.7170094 C12.7483267,45.0417601 13.5113139,46.0308176 14.8418861,46.4743416 C16.273866,46.9516683 16.9278751,47.0334194 17.6212678,46.8600713 C17.7330409,46.832128 18.1075759,46.7212459 18.1685957,46.7046041 C18.6667382,46.5687471 19.1861607,46.5 20,46.5 C21.1700064,46.5 21.5939256,46.6059798 22.2763932,46.9472136 C23.0939256,47.3559798 23.6700064,47.5 25,47.5 C26.1316008,47.5 26.8147131,47.261705 27.4896138,46.7617786 C27.5580021,46.7111206 27.7675398,46.5493452 27.8,46.525 C28.3129196,46.1403103 28.6960996,46.0924128 29.8418861,46.4743416 C33.4998044,47.6936478 35.4591054,47.2038225 36.4743416,44.1581139 L35.5256584,43.8418861 C34.7227127,46.250723 33.3573384,46.5920665 30.1581139,45.5256584 C28.7129913,45.0439508 27.9870804,45.1346897 27.2,45.725 C27.1591269,45.7556548 26.9527805,45.9149664 26.8943862,45.9582214 C26.387221,46.3338994 25.9110658,46.5 25,46.5 C23.8299936,46.5 23.4060744,46.3940202 22.7236068,46.0527864 C21.9060744,45.6440202 21.3299936,45.5 20,45.5 C19.0977899,45.5 18.4898756,45.5804593 17.9054783,45.7398403 C17.8254725,45.7616601 17.4653718,45.8682689 17.3787322,45.8899287 C16.9054582,46.0082472 16.426134,45.9483317 15.1581139,45.5256584 C14.1927677,45.2038763 13.6569211,44.5092603 13.442254,43.5074804 C13.304408,42.8641993 13.31387,42.1621219 13.4143578,41.4989027 C13.4418588,41.317396 13.4687183,41.1866797 13.4850713,41.1212678 L12.5149287,40.8787322 Z" id="Path-11" fill="#FFFFFF" fill-rule="nonzero"></path>
                    <g id="Combined-Shape">
                        <use fill="#FFFFFF" fill-rule="evenodd" xlink:href="#path-37"></use>
                        <path stroke="#D8D8D8" stroke-width="2" d="M13.0191323,28.2235688 C11.7071341,26.8395372 9.23213822,26 6.5,26 C2.43113521,26 -1,27.8475343 -1,30.5 C-1,33.1524657 2.43113521,35 6.5,35 C9.23213822,35 11.7071341,34.1604628 13.0191323,32.7764312 C13.4764968,32.9229192 13.9809414,33 14.5,33 C16.3611349,33 18,32.016681 18,30.5 C18,28.983319 16.3611349,28 14.5,28 C13.9809414,28 13.4764968,28.0770808 13.0191323,28.2235688 Z"></path>
                    </g>
                    <g id="Oval-6">
                        <use fill="#FFFFFF" fill-rule="evenodd" xlink:href="#path-38"></use>
                        <ellipse stroke="#D8D8D8" stroke-width="2" cx="39" cy="29" rx="6" ry="4"></ellipse>
                    </g>
                    <g id="Oval-4">
                        <use fill="#FFFFFF" fill-rule="evenodd" xlink:href="#path-39"></use>
                        <circle stroke="#D8D8D8" stroke-width="2" cx="4.5" cy="39.5" r="4.5"></circle>
                    </g>
                </g>
            </g>
        </g>
    </g>
</svg>