<?xml version="1.0" encoding="UTF-8"?>
<svg width="110px" height="92px" viewBox="0 0 110 92" version="1.1" xmlns="http://www.w3.org/2000/svg" xmlns:xlink="http://www.w3.org/1999/xlink">
    <!-- Generator: Sketch 47 (45396) - http://www.bohemiancoding.com/sketch -->
    <title>slogan</title>
    <desc>Created with Sketch.</desc>
    <defs>
        <path d="M11.3185312,5.15615625 L9.35053125,5.15615625 C9.07853125,6.42015625 8.79053125,7.62015625 8.50253125,8.67615625 C9.01453125,9.06015625 9.57453125,9.46015625 10.0865313,9.87615625 C10.6625312,8.54815625 11.0945312,6.98015625 11.3185312,5.15615625 Z M11.9585313,3.73215625 L12.8545313,3.95615625 C12.6305313,6.78815625 12.0705312,9.06015625 11.2545312,10.8361562 C11.9905313,11.4921562 12.6305313,12.1321562 13.0465313,12.6761562 L12.0705312,13.9401562 C11.6865312,13.4281562 11.1425313,12.8201562 10.5025313,12.2121562 C9.63853125,13.5241562 8.55053125,14.5321562 7.27053125,15.2681562 C7.06253125,14.9001562 6.66253125,14.3401562 6.34253125,14.0841562 C7.55853125,13.4601562 8.58253125,12.5161562 9.38253125,11.2201562 C8.56653125,10.5161562 7.67053125,9.82815625 6.85453125,9.23615625 C7.20653125,8.16415625 7.59053125,6.70815625 7.91053125,5.15615625 L6.59853125,5.15615625 L6.59853125,3.78015625 L8.19853125,3.78015625 C8.39053125,2.69215625 8.55053125,1.58815625 8.64653125,0.59615625 L10.1345313,0.69215625 C10.0065313,1.66815625 9.83053125,2.70815625 9.62253125,3.78015625 L11.6865312,3.78015625 L11.9585313,3.73215625 Z M21.2385312,7.22015625 L21.2385312,8.64415625 L17.8625312,8.64415625 L17.8625312,13.5881562 C17.8625312,14.4041562 17.6865312,14.8041562 17.1105313,15.0281562 C16.5505312,15.2521562 15.7345312,15.2841562 14.4865312,15.2841562 C14.4065312,14.8681562 14.1825313,14.2601562 13.9745312,13.8601562 C14.8545312,13.8921562 15.7505312,13.8921562 15.9905312,13.8761562 C16.2465312,13.8761562 16.3425313,13.8121562 16.3425313,13.5721562 L16.3425313,8.64415625 L12.8065312,8.64415625 L12.8065312,7.22015625 L16.3425313,7.22015625 L16.3425313,5.52415625 C17.0945313,4.86815625 17.8785313,3.90815625 18.4705313,3.02815625 L13.4785312,3.02815625 L13.4785312,1.66815625 L19.4945312,1.66815625 L19.8305312,1.58815625 L20.8545312,2.30815625 C20.0865312,3.47615625 18.9985312,4.82015625 17.8625312,5.82815625 L17.8625312,7.22015625 L21.2385312,7.22015625 Z M33.2705312,7.89215625 L28.5505312,7.89215625 C29.1425313,9.15615625 29.9745312,10.2761562 31.0305313,11.1721562 C31.9745312,10.2761562 32.7425312,9.17215625 33.2705312,7.89215625 Z M34.2305312,6.38815625 L35.2225313,6.82015625 C34.6305313,9.04415625 33.5905312,10.7401562 32.2465313,12.0841562 C33.6065313,12.9321562 35.2385313,13.5401562 37.1905312,13.8761562 C36.8545313,14.1961562 36.4385312,14.8201562 36.2305312,15.2361562 C34.1985313,14.7881562 32.4865312,14.0841562 31.0785312,13.0601562 C29.7345312,14.0521562 28.1985313,14.7561562 26.5345313,15.2681562 C26.3425313,14.8681562 25.9745312,14.3081562 25.6865313,13.9881562 C27.2225312,13.6041562 28.6625313,12.9801562 29.8945312,12.1001562 C28.9025312,11.1401562 28.0865313,9.98815625 27.4305313,8.66015625 C26.7105312,10.9001562 25.5745312,13.1241562 23.7505313,14.7241562 C23.4625313,14.3561562 22.9665312,13.9721562 22.4705313,13.7001562 C25.2865312,11.4121562 26.3905313,7.54015625 26.8225313,4.54815625 L23.0465313,4.54815625 L23.0465313,3.10815625 L27.0145313,3.10815625 C27.1265312,1.94015625 27.1425313,1.02815625 27.1745313,0.56415625 L28.7105312,0.56415625 C28.6785312,1.10815625 28.6465312,1.98815625 28.5345313,3.10815625 L36.7745313,3.10815625 L36.7745313,4.54815625 L28.3425313,4.54815625 C28.2625313,5.14015625 28.1505313,5.79615625 28.0225313,6.45215625 L33.9425313,6.45215625 L34.2305312,6.38815625 Z M44.3585312,7.39615625 L44.5345313,8.75615625 C43.8145313,8.94815625 43.1105313,9.12415625 42.4065313,9.30015625 L42.4065313,13.5561562 C42.4065313,14.3401562 42.2305312,14.7241562 41.7825312,14.9321562 C41.3185312,15.1721562 40.5985313,15.2041562 39.5105312,15.2041562 C39.4625312,14.8361562 39.2545312,14.2281562 39.0625312,13.8601562 C39.7665312,13.8761562 40.4545313,13.8761562 40.6465313,13.8761562 C40.8705312,13.8601562 40.9505312,13.7961562 40.9505312,13.5561562 L40.9505312,9.68415625 C40.2305312,9.86015625 39.5425313,10.0361562 38.9185313,10.1961562 L38.5185313,8.75615625 C39.2065312,8.61215625 40.0385312,8.42015625 40.9505312,8.19615625 L40.9505312,4.99615625 L38.7105313,4.99615625 L38.7105313,3.60415625 L40.9505312,3.60415625 L40.9505312,0.66015625 L42.4065313,0.66015625 L42.4065313,3.60415625 L44.3585312,3.60415625 L44.3585312,4.99615625 L42.4065313,4.99615625 L42.4065313,7.86015625 L44.3585312,7.39615625 Z M44.6465312,2.05215625 L52.4065312,2.05215625 L52.4065312,15.1881563 L50.9825312,15.1881563 L50.9825312,14.1321562 L44.5345312,14.1321562 L44.5345312,12.7401563 L50.9825312,12.7401563 L50.9825312,8.51615625 L45.0305312,8.51615625 L45.0305312,7.06015625 L50.9825312,7.06015625 L50.9825312,3.42815625 L44.6465312,3.42815625 L44.6465312,2.05215625 Z M54.6305312,6.96415625 L54.6305312,8.58015625 L69.1905312,8.58015625 L69.1905312,6.96415625 L54.6305312,6.96415625 Z M76.3585312,7.39615625 L76.5345313,8.75615625 C75.8145313,8.94815625 75.1105313,9.12415625 74.4065313,9.30015625 L74.4065313,13.5561562 C74.4065313,14.3401562 74.2305313,14.7241562 73.7825313,14.9321562 C73.3185313,15.1721562 72.5985313,15.2041562 71.5105313,15.2041562 C71.4625313,14.8361562 71.2545313,14.2281562 71.0625313,13.8601562 C71.7665313,13.8761562 72.4545313,13.8761562 72.6465313,13.8761562 C72.8705312,13.8601562 72.9505313,13.7961562 72.9505313,13.5561562 L72.9505313,9.68415625 C72.2305313,9.86015625 71.5425312,10.0361562 70.9185313,10.1961562 L70.5185312,8.75615625 C71.2065313,8.61215625 72.0385313,8.42015625 72.9505313,8.19615625 L72.9505313,4.99615625 L70.7105313,4.99615625 L70.7105313,3.60415625 L72.9505313,3.60415625 L72.9505313,0.66015625 L74.4065313,0.66015625 L74.4065313,3.60415625 L76.3585312,3.60415625 L76.3585312,4.99615625 L74.4065313,4.99615625 L74.4065313,7.86015625 L76.3585312,7.39615625 Z M76.6465312,2.05215625 L84.4065312,2.05215625 L84.4065312,15.1881563 L82.9825312,15.1881563 L82.9825312,14.1321562 L76.5345312,14.1321562 L76.5345312,12.7401563 L82.9825312,12.7401563 L82.9825312,8.51615625 L77.0305312,8.51615625 L77.0305312,7.06015625 L82.9825312,7.06015625 L82.9825312,3.42815625 L76.6465312,3.42815625 L76.6465312,2.05215625 Z" id="path-1"></path>
        <filter x="-9.0%" y="-34.0%" width="117.9%" height="195.1%" filterUnits="objectBoundingBox" id="filter-2">
            <feOffset dx="0" dy="2" in="SourceAlpha" result="shadowOffsetOuter1"></feOffset>
            <feGaussianBlur stdDeviation="2" in="shadowOffsetOuter1" result="shadowBlurOuter1"></feGaussianBlur>
            <feColorMatrix values="0 0 0 0 0.921568627   0 0 0 0 0.0823529412   0 0 0 0 0.180392157  0 0 0 1 0" type="matrix" in="shadowBlurOuter1"></feColorMatrix>
        </filter>
        <path d="M87.5343438,10.7929619 L87.5343438,9.79119084 L79.1103438,10.660433 L79.1103438,11.6212802 L87.5343438,10.7929619 Z M87.5343438,12.885948 L87.5343438,11.8483993 L79.1103438,12.6336013 L79.1103438,13.6287644 L87.5343438,12.885948 Z M89.2083438,8.47589165 L89.2083438,13.8680545 L77.5083438,14.8361205 L77.5083438,9.7474362 L89.2083438,8.47589165 Z M78.4443438,21.0724812 L78.4443438,22.2352954 C79.3443437,22.1121098 80.3163438,21.9671433 81.2883438,21.8204469 L81.2883438,20.9357536 L78.4443438,21.0724812 Z M81.2883438,16.6510626 L78.4443438,16.8487295 L78.4443438,17.8063412 L81.2883438,17.6224905 L81.2883438,16.6510626 Z M78.4443438,18.9520552 L78.4443438,19.9096669 L81.2883438,19.7561626 L81.2883438,18.7847347 L78.4443438,18.9520552 Z M83.8083438,22.7768061 L82.8903438,22.9193659 L82.8903438,24.667956 L81.2883438,24.7173838 L81.2883438,23.1735072 C79.1103438,23.4946058 77.0043438,23.787511 75.3843438,24.0072966 L75.2403438,22.6490443 C75.7443438,22.596474 76.3203438,22.5238603 76.9143438,22.44999 L76.9143438,16.9525261 L75.2763438,17.0616775 L75.2763438,15.7997737 L91.3503438,14.5358877 L91.3503438,15.9023733 L82.8903438,16.537012 L82.8903438,21.6079233 L83.7903438,21.4602522 L83.8083438,22.7768061 Z M89.0463438,18.333093 L85.5903438,18.5553936 C86.0043438,19.4170445 86.5983438,20.2010205 87.3183437,20.8578323 C88.0203438,20.1214053 88.6143438,19.2605001 89.0463438,18.333093 Z M90.0003438,16.8943252 L90.9543438,17.2062753 C90.4143438,19.0044129 89.5503438,20.5036821 88.4523438,21.6961022 C89.3703438,22.2823564 90.4503438,22.7211986 91.6743438,22.9571778 C91.3143437,23.3011636 90.9003438,23.918859 90.6663438,24.3458436 C89.3883437,23.9962264 88.2543438,23.482988 87.2823438,22.7714851 C86.3283438,23.5238154 85.2483437,24.1317024 84.1503438,24.5749243 C83.9703438,24.2292026 83.5923438,23.6981548 83.3043438,23.4108165 C84.3123438,23.072833 85.3203437,22.5364403 86.2023438,21.8580543 C85.3383438,20.9959104 84.6543438,19.9722353 84.1503438,18.8036965 L84.7263438,18.6095504 L83.5383438,18.6830895 L83.5383438,17.4025151 L89.7123438,16.9695377 L90.0003438,16.8943252 Z M103.572344,19.1310798 L98.9643438,19.4383609 L98.9643438,20.892146 L103.572344,20.6156453 L103.572344,19.1310798 Z M105.048344,21.8240097 L98.9643438,22.1571278 L98.9643438,23.0256228 L97.4163437,23.0997137 L97.4163437,18.2819824 L105.048344,17.7288976 L105.048344,21.8240097 Z M108.666344,14.9662674 L108.666344,21.7900714 C108.666344,22.6578384 108.468344,23.0037381 107.910344,23.2694008 C107.352344,23.5140571 106.524344,23.5753525 105.318344,23.6157074 C105.228344,23.2122342 104.994344,22.6808411 104.796344,22.3036361 C105.552344,22.3009001 106.452344,22.2509189 106.650344,22.2202933 C106.884344,22.2071418 106.974344,22.1237717 106.974344,21.8888694 L106.974344,16.6231418 L95.6703438,17.4911573 L95.6703438,24.2037971 L94.0323438,24.2702234 L94.0323438,16.1880402 L108.666344,14.9662674 Z M105.066344,13.0692186 L105.066344,11.6329026 L97.6863438,12.3695611 L97.6863438,13.758501 L105.066344,13.0692186 Z M96.0303438,11.3184966 L106.830344,10.1791178 L106.830344,14.189472 L96.0303438,15.1367856 L96.0303438,11.3184966 Z M102.492344,8.21075064 C102.312344,7.61839188 102.024344,6.88707806 101.790344,6.30387363 L100.098344,6.93318926 C100.260344,7.38813426 100.440344,7.93667027 100.602344,8.43113267 L93.4563437,9.23984847 L93.4563437,10.6936464 L109.152344,8.97389394 L109.152344,7.41252707 L102.492344,8.21075064 Z" id="path-3"></path>
        <filter x="-1.5%" y="-2.7%" width="105.9%" height="110.9%" filterUnits="objectBoundingBox" id="filter-4">
            <feOffset dx="1" dy="1" in="SourceAlpha" result="shadowOffsetOuter1"></feOffset>
            <feColorMatrix values="0 0 0 0 0.814227253   0 0 0 0 0.411903199   0 0 0 0 0  0 0 0 1 0" type="matrix" in="shadowOffsetOuter1"></feColorMatrix>
        </filter>
    </defs>
    <g id="凑单V3.0" stroke="none" stroke-width="1" fill="none" fill-rule="evenodd">
        <g id="1.弹窗红包先弹出" transform="translate(-96.000000, -209.000000)">
            <g id="slogan" transform="translate(95.000000, 211.000000)">
                <g id="好友扫一扫">
                    <use fill="black" fill-opacity="1" filter="url(#filter-2)" xlink:href="#path-1"></use>
                    <use fill="#FFFFFF" fill-rule="evenodd" xlink:href="#path-1"></use>
                </g>
                <g id="Group-11" transform="translate(0.500000, 22.000000)">
                    <g id="Group-15" transform="translate(0.500000, 0.125977)">
                        <polygon id="Combined-Shape" fill="#D90A2D" points="19.4663713 19.4583212 4.39615257 19.5261679 15.7040631 67.1083136 88.9675906 57.4771924 85.307091 19.2440849 37.4095273 19.3877317 25.7401259 15.1428033 30.4641303 11.5319957 17.2167267 2.51515393 22.834509 10.1241086 18.4105787 17.5018026"></polygon>
                        <path d="M15.0756234,16.4839829 L0,16.7459044 L7.51746757,60.7813696 L81.5482201,53.3676224 L85.9334095,15.2529113 L33.0244027,16.1721437 L21.6931567,12.3391641 L26.7048017,8.8426676 L14.1756891,0.68417566 L19.1873342,7.67716875 L14.1756891,14.6701618 L15.0756234,16.4839829 Z" id="Combined-Shape" fill="#FF8100"></path>
                        <path d="M38.1092756,27.7296675 L25.3648484,28.6376979 L28.4711211,27.4231825 C28.1517847,26.0665646 27.5131118,23.9895208 26.9034695,22.4191696 L23.4488298,23.5898393 C23.9713803,25.1445234 24.551992,27.2411038 24.8422979,28.6749292 L14.3041953,29.4257607 L14.3041953,33.3935204 L38.1092756,31.4905277 L38.1092756,27.7296675 Z M24.0294415,46.2073962 L20.3135265,47.6942574 C19.9651595,44.2394884 18.8910278,38.9841517 17.9039879,35.0083792 L21.3876582,33.771261 C22.4908204,37.7721933 23.5359215,42.7954866 24.0294415,46.2073962 Z M30.9677515,47.2575723 L39.3285602,46.3003521 L39.3285602,50.0818671 L12.9978189,53.3272044 L12.9978189,49.3149311 L27.2228059,47.6863272 C28.6743352,43.6132324 30.2129563,37.6426127 30.9677515,33.0808735 L34.8868806,33.5794138 C33.7837183,38.2620356 32.2741279,43.4234834 30.9677515,47.2575723 Z M47.5151854,31.5050946 L44.5830962,33.0722761 C44.2056986,30.910479 42.9283528,27.4173036 41.7090682,24.7692448 L44.4089127,23.451179 C45.6862585,26.0197284 47.0216654,29.3660961 47.5151854,31.5050946 Z M44.6992186,36.6116896 L47.3990631,37.7094544 C46.5571761,41.4473044 45.4249832,45.602379 44.3798821,48.8724373 L41.3607012,47.9650997 C42.3767717,45.1135174 43.7702398,40.6264376 44.6992186,36.6116896 Z M57.0952787,40.8801716 L57.0952787,37.4341534 L55.0050765,37.6389416 L55.0050765,41.1023696 L57.0952787,40.8801716 Z M65.5431792,29.5909796 L68.4172072,29.9711987 C67.4011367,33.9116053 66.0076686,37.5578349 64.2077722,40.7719863 C64.7012922,42.8365793 65.2238427,44.0406676 65.7754239,44.0058955 C66.2108827,43.9552518 66.5011885,42.4279991 66.6463414,39.659935 C67.168892,40.2478371 68.4752683,40.8943549 68.9978189,41.1282488 C68.3010848,46.4526151 66.8495555,47.8016655 65.7754239,47.9076748 C64.1497111,48.0829507 62.959457,46.7261835 62.0595089,44.2012086 C60.8402243,45.9160936 59.4757867,47.4497005 57.9952269,48.8276552 C57.5307375,48.3173394 56.3695141,47.3211273 55.7308412,46.9178007 C56.9791564,45.8681645 58.1403798,44.6846208 59.1564503,43.4041398 L55.0050765,43.873112 L55.0050765,45.1982497 L52.450385,45.4949894 L52.450385,35.1014728 L59.388695,34.4679227 L59.388695,43.1097102 C59.9983373,42.3271149 60.578949,41.5200856 61.1305301,40.6589178 C60.4918573,37.4282857 60.0854291,33.3035969 59.8241538,28.5043824 L51.5504368,29.1406198 L51.5504368,34.3941073 C51.5504368,38.9491542 51.1440086,45.5859385 48.7054394,50.1184891 C48.1538583,49.6063843 46.8474819,48.848063 46.1217173,48.5986279 C48.3280418,44.4132004 48.5312559,38.7625864 48.5312559,34.6641088 L48.5312559,26.1918827 L59.6790008,25.4186074 C59.6209397,23.963295 59.5628785,22.4479972 59.5338479,20.9305743 L62.5239983,20.7558616 C62.5530288,22.2622394 62.5820594,23.7684028 62.6401206,25.2132062 L65.7754239,24.9957225 C65.1077204,24.1604871 63.801344,23.06908 62.7272124,22.3105335 L64.7012922,20.6286437 C65.8625156,21.3527143 67.2850143,22.5235928 67.9817484,23.3546573 L66.1237909,24.9715577 L68.5913907,24.80039 L68.5913907,27.830194 L62.7852735,28.2766764 C62.959457,31.1582649 63.1917017,33.795901 63.4820076,36.070842 C64.294864,34.0493752 65.0206286,31.8668741 65.5431792,29.5909796 Z M59.1564503,30.2552449 L59.1564503,32.8492446 L52.3632932,33.4424795 L52.3632932,30.8056743 L59.1564503,30.2552449 Z" id="立减" fill="#FFFFFF"></path>
                    </g>
                    <g id="最高">
                        <use fill="black" fill-opacity="1" filter="url(#filter-4)" xlink:href="#path-3"></use>
                        <use fill="#FFF359" fill-rule="evenodd" xlink:href="#path-3"></use>
                    </g>
                </g>
            </g>
        </g>
    </g>
</svg>