<?xml version="1.0" encoding="UTF-8"?>
<svg width="25px" height="14px" viewBox="0 0 25 14" version="1.1" xmlns="http://www.w3.org/2000/svg" xmlns:xlink="http://www.w3.org/1999/xlink">
    <!-- Generator: Sketch 48.1 (47250) - http://www.bohemiancoding.com/sketch -->
    <title>tips</title>
    <desc>Created with Sketch.</desc>
    <defs>
        <linearGradient x1="93.7914299%" y1="100%" x2="0%" y2="64.6943934%" id="linearGradient-1">
            <stop stop-color="#00AEFF" offset="0%"></stop>
            <stop stop-color="#0076FF" offset="100%"></stop>
        </linearGradient>
        <linearGradient x1="95.8333333%" y1="100%" x2="50%" y2="100%" id="linearGradient-2">
            <stop stop-color="#39BAFF" offset="0%"></stop>
            <stop stop-color="#1A84FF" offset="100%"></stop>
        </linearGradient>
        <path d="M2.94623814,0.382352941 L21.8184677,0.382352941 C22.7099865,0.382352941 23.0332727,0.475178552 23.3591986,0.649485645 C23.6851246,0.823792738 23.9409131,1.07958131 24.1152202,1.40550724 C24.2895273,1.73143316 24.3823529,2.0547194 24.3823529,2.94623814 L24.3823529,10.8184677 C24.3823529,11.7099865 24.2895273,12.0332727 24.1152202,12.3591986 C23.9409131,12.6851246 23.6851246,12.9409131 23.3591986,13.1152202 C23.0332727,13.2895273 22.7099865,13.3823529 21.8184677,13.3823529 L2.94623814,13.3823529 C2.0547194,13.3823529 1.73143316,13.2895273 1.40550724,13.1152202 C1.07958131,12.9409131 0.823792738,12.6851246 0.649485645,12.3591986 C0.475178552,12.0332727 0.382352941,11.7099865 0.382352941,10.8184677 L0.382352941,2.94623814 C0.382352941,2.0547194 0.475178552,1.73143316 0.649485645,1.40550724 C0.823792738,1.07958131 1.07958131,0.823792738 1.40550724,0.649485645 C1.73143316,0.475178552 2.0547194,0.382352941 2.94623814,0.382352941 Z" id="path-3"></path>
    </defs>
    <g id="01.-充值页面" stroke="none" stroke-width="1" fill="none" fill-rule="evenodd" transform="translate(-19.000000, -168.000000)">
        <g id="tips" transform="translate(19.000000, 168.500000)">
            <g id="Rectangle-19">
                <use fill="url(#linearGradient-1)" fill-rule="evenodd" xlink:href="#path-3"></use>
                <path stroke="url(#linearGradient-2)" stroke-width="1" d="M2.94623814,0.882352941 C2.20890387,0.882352941 1.92937253,0.936332932 1.64130667,1.09039224 C1.40251498,1.21809944 1.21809944,1.40251498 1.09039224,1.64130667 C0.936332932,1.92937253 0.882352941,2.20890387 0.882352941,2.94623814 L0.882352941,10.8184677 C0.882352941,11.555802 0.936332932,11.8353333 1.09039224,12.1233992 C1.21809944,12.3621909 1.40251498,12.5466064 1.64130667,12.6743136 C1.92937253,12.828373 2.20890387,12.8823529 2.94623814,12.8823529 L21.8184677,12.8823529 C22.555802,12.8823529 22.8353333,12.828373 23.1233992,12.6743136 C23.3621909,12.5466064 23.5466064,12.3621909 23.6743136,12.1233992 C23.828373,11.8353333 23.8823529,11.555802 23.8823529,10.8184677 L23.8823529,2.94623814 C23.8823529,2.20890387 23.828373,1.92937253 23.6743136,1.64130667 C23.5466064,1.40251498 23.3621909,1.21809944 23.1233992,1.09039224 C22.8353333,0.936332932 22.555802,0.882352941 21.8184677,0.882352941 L2.94623814,0.882352941 Z"></path>
            </g>
            <path d="M6.28786606,5.15385422 L6.28786606,10.1424149 L4.76999439,10.1424149 L4.76999439,5.15385422 L2.99470588,5.15385422 L2.99470588,3.85789361 L8.06315457,3.85789361 L8.06315457,5.15385422 L6.28786606,5.15385422 Z M8.75551708,10.1424149 L8.75551708,3.85789361 L10.2822652,3.85789361 L10.2822652,10.1424149 L8.75551708,10.1424149 Z M16.3448754,5.79295808 C16.3448754,6.15985288 16.2768234,6.46904586 16.1407173,6.72054633 C16.0046111,6.97204679 15.8211665,7.17472353 15.5903778,7.32858264 C15.3595892,7.48244175 15.0932986,7.59487556 14.791498,7.66588746 C14.4896974,7.73689935 14.1760663,7.77240477 13.8505951,7.77240477 L13.0960975,7.77240477 L13.0960975,10.1424149 L11.5782258,10.1424149 L11.5782258,3.85789361 L13.8861009,3.85789361 C14.229325,3.85789361 14.5503532,3.89191964 14.8491949,3.9599727 C15.1480366,4.02802577 15.4084096,4.1375008 15.6303218,4.28840108 C15.852234,4.43930135 16.0268023,4.63753992 16.1540319,4.88312272 C16.2812616,5.12870553 16.3448754,5.43198095 16.3448754,5.79295808 Z M14.8270038,5.80183453 C14.8270038,5.65389308 14.7974159,5.53258291 14.7382393,5.43790038 C14.6790628,5.34321786 14.5991756,5.26924824 14.4985754,5.21598932 C14.3979752,5.1627304 14.284062,5.12722498 14.1568324,5.10947201 C14.0296027,5.09171903 13.8979368,5.08284268 13.7618307,5.08284268 L13.0960975,5.08284268 L13.0960975,6.56520858 L13.7352013,6.56520858 C13.8772251,6.56520858 14.0133292,6.55337344 14.1435177,6.52970281 C14.2737062,6.50603218 14.3905782,6.4646092 14.4941372,6.40543262 C14.5976962,6.34625604 14.6790628,6.26784825 14.7382393,6.17020689 C14.7974159,6.07256553 14.8270038,5.94977597 14.8270038,5.80183453 Z M20.5789385,5.49115904 C20.4487501,5.32546462 20.2786199,5.1937987 20.0685431,5.09615735 C19.8584662,4.99851599 19.6557895,4.94969604 19.4605068,4.94969604 C19.3599066,4.94969604 19.2578285,4.9585724 19.1542695,4.97632537 C19.0507105,4.99407834 18.9575088,5.02810437 18.8746616,5.07840446 C18.7918144,5.12870455 18.7222829,5.19379781 18.6660652,5.2736862 C18.6098474,5.35357458 18.581739,5.45565265 18.581739,5.57992346 C18.581739,5.68644131 18.6039298,5.77520484 18.6483123,5.84621674 C18.6926947,5.91722863 18.757788,5.97936311 18.843594,6.03262203 C18.9294001,6.08588095 19.0314781,6.1347009 19.1498313,6.17908333 C19.2681844,6.22346577 19.4013297,6.26932693 19.5492712,6.31666819 C19.7623069,6.38768009 19.9842157,6.46608788 20.2150044,6.55189392 C20.445793,6.63769996 20.6558667,6.75161317 20.8452318,6.89363696 C21.0345969,7.03566075 21.1914124,7.21170843 21.3156833,7.42178529 C21.4399541,7.63186214 21.5020886,7.89371458 21.5020886,8.20735045 C21.5020886,8.56832758 21.4355159,8.88047936 21.3023686,9.14381514 C21.1692213,9.40715092 20.9902148,9.62462158 20.7653438,9.79623366 C20.5404728,9.96784574 20.2830586,10.0950735 19.9930933,10.1779207 C19.7031281,10.2607679 19.4042908,10.3021909 19.0965726,10.3021909 C18.6468306,10.3021909 18.2118893,10.2237831 17.7917356,10.0669652 C17.3715819,9.91014722 17.0224453,9.68675899 16.7443154,9.39679375 L17.7384769,8.3848793 C17.892336,8.57424436 18.0950128,8.73253933 18.3465132,8.85976898 C18.5980137,8.98699862 18.848031,9.05061249 19.0965726,9.05061249 C19.2090081,9.05061249 19.3184832,9.03877735 19.425001,9.01510672 C19.5315188,8.99143609 19.6247206,8.95297189 19.7046089,8.89971297 C19.7844973,8.84645405 19.8481112,8.77544322 19.8954525,8.68667835 C19.9427937,8.59791348 19.966464,8.49139723 19.966464,8.36712642 C19.966464,8.24877326 19.9368761,8.14817458 19.8776996,8.06532737 C19.818523,7.98248016 19.7341976,7.90703115 19.624721,7.83897809 C19.5152443,7.77092502 19.3791402,7.70879054 19.2164046,7.65257279 C19.053669,7.59635504 18.868745,7.53569996 18.6616269,7.47060572 C18.4604266,7.40551148 18.2636674,7.32858308 18.0713435,7.23981822 C17.8790196,7.15105335 17.7074101,7.03714014 17.5565098,6.89807518 C17.4056096,6.75901022 17.2842994,6.59035949 17.1925757,6.39211795 C17.100852,6.19387641 17.0549908,5.95273547 17.0549908,5.66868789 C17.0549908,5.31954607 17.1260017,5.02070883 17.2680255,4.77216719 C17.4100493,4.52362556 17.5964527,4.31946942 17.8272413,4.15969266 C18.05803,3.99991589 18.318403,3.8830439 18.6083683,3.80907318 C18.8983335,3.73510245 19.1912532,3.69811765 19.4871361,3.69811765 C19.8421956,3.69811765 20.2046467,3.76321091 20.5745003,3.89339938 C20.9443539,4.02358786 21.2683408,4.21590886 21.5464708,4.47036815 L20.5789385,5.49115904 Z" id="TIPS" fill="#FFFFFF"></path>
        </g>
    </g>
</svg>