<?xml version="1.0" encoding="UTF-8"?>
<svg width="18px" height="15px" viewBox="0 0 18 15" version="1.1" xmlns="http://www.w3.org/2000/svg" xmlns:xlink="http://www.w3.org/1999/xlink">
    <!-- Generator: Sketch 48.1 (47250) - http://www.bohemiancoding.com/sketch -->
    <title>图标-代用金</title>
    <desc>Created with Sketch.</desc>
    <defs></defs>
    <g id="01-会员中心" stroke="none" stroke-width="1" fill="none" fill-rule="evenodd" transform="translate(-252.000000, -250.000000)">
        <g id="Group-4" transform="translate(251.500000, 229.000000)" stroke="#828282">
            <g id="图标-代用金" transform="translate(1.000000, 21.000000)">
                <rect id="Rectangle-18" x="0.5" y="0.5" width="15" height="12" rx="2"></rect>
                <g id="Group" transform="translate(2.500000, 7.000000)" fill="#FFFFFF">
                    <path d="M0.525714286,2.71428571 L0.525714286,4.85714286 C0.525714286,6.04061018 1.96479902,7 3.74,7 C5.51520098,7 6.95428571,6.04061018 6.95428571,4.85714286 L6.95428571,2.71428571 L0.525714286,2.71428571 Z" id="Oval-10"></path>
                    <ellipse id="Oval-10" cx="3.74" cy="2.28571429" rx="3.21428571" ry="2.14285714"></ellipse>
                </g>
                <g id="Group" transform="translate(2.500000, 4.500000)" fill="#FFFFFF">
                    <path d="M0.525714286,2.71428571 L0.525714286,4.85714286 C0.525714286,6.04061018 1.96479902,7 3.74,7 C5.51520098,7 6.95428571,6.04061018 6.95428571,4.85714286 L6.95428571,2.71428571 L0.525714286,2.71428571 Z" id="Oval-10"></path>
                    <ellipse id="Oval-10" cx="3.74" cy="2.28571429" rx="3.21428571" ry="2.14285714"></ellipse>
                </g>
                <g id="Group" transform="translate(9.500000, 7.000000)" fill="#FFFFFF">
                    <path d="M0.525714286,2.71428571 L0.525714286,4.85714286 C0.525714286,6.04061018 1.96479902,7 3.74,7 C5.51520098,7 6.95428571,6.04061018 6.95428571,4.85714286 L6.95428571,2.71428571 L0.525714286,2.71428571 Z" id="Oval-10"></path>
                    <ellipse id="Oval-10" cx="3.74" cy="2.28571429" rx="3.21428571" ry="2.14285714"></ellipse>
                </g>
            </g>
        </g>
    </g>
</svg>