<?xml version="1.0" encoding="UTF-8"?>
<svg width="152px" height="109px" viewBox="0 0 152 109" version="1.1" xmlns="http://www.w3.org/2000/svg" xmlns:xlink="http://www.w3.org/1999/xlink">
    <!-- Generator: Sketch 43.1 (39012) - http://www.bohemiancoding.com/sketch -->
    <title>图标-无优惠券</title>
    <desc>Created with Sketch.</desc>
    <defs></defs>
    <g id="会员中心" stroke="none" stroke-width="1" fill="none" fill-rule="evenodd">
        <g id="02-无优惠券" transform="translate(-84.000000, -488.000000)">
            <g id="图标-无优惠券" transform="translate(84.000000, 488.000000)">
                <path d="M70.419863,40.7284903 C70.4218544,40.7315727 70.4238173,40.7346841 70.425751,40.7378244 L76.049083,49.8696403 L102.074371,34.861409 L96.9769787,25.9655162 L92.107763,18.6718715 L65.7300933,34.1565849 L70.1891907,40.5371381 C70.2421526,40.5587357 70.2916876,40.5894987 70.335178,40.6288049 C70.3699281,40.6328761 70.4043347,40.6387637 70.4382628,40.6464025 L70.4198632,40.7284892 Z M69.864161,41.7329682 C68.4878886,42.1159533 66.7491433,42.1235026 66.2408477,42.1744532 C65.0831075,42.291389 64.3173869,41.8851272 63.8777387,41.5234699 C63.8349951,41.4885096 63.7922516,41.4511384 63.7519505,41.4137671 C63.6432597,41.4885096 63.5247989,41.5608411 63.4136656,41.6223229 C62.3328638,42.217852 61.0004856,42.2986222 59.9331175,41.8296731 C58.5018184,41.2015948 57.7312128,39.7525542 57.4991763,38.3529401 C55.6099103,38.026243 53.8696362,37.2245691 52.3113276,35.9623848 C50.9178871,34.8328083 48.6402653,32.6339314 49.0481611,30.6038279 C49.1189933,30.2518147 49.3290474,29.9395838 49.6624473,29.7816601 C49.9811922,29.6116812 50.3622207,29.5923928 50.7041693,29.7250005 L51.2256409,29.9347617 C52.0512025,30.2723086 52.3601774,30.4000942 53.1320043,30.243376 C53.9111585,30.0842468 54.7293927,29.8310866 55.6355564,29.4694292 C57.4771938,28.7340592 59.2712027,27.8757257 60.967512,26.9209502 C62.5746703,26.0156012 64.3955466,24.9921108 66.5473802,25.0198379 C68.5734256,25.0451539 70.2575224,25.7974013 71.5227322,27.1632607 L72.8800329,28.7968968 L92.41668,17.3281285 L97,24.138675 L97,24.4999152 C97.1732112,24.5000764 97.3415336,24.5903468 97.4338266,24.7514151 L103.437824,35.2295 L75.7070146,51.2212688 L69.864161,41.7329682 Z M69.1925273,40.8678265 L64.2834648,33.8434151 L72.0063773,29.3097665 L70.7891122,27.8428205 C69.6966954,26.6635001 68.2659699,26.0413902 66.534496,26.0197549 C64.9890948,25.9998419 63.8199325,26.4618678 61.4580079,27.7923937 C59.719219,28.771079 57.8849395,29.6480195 56.006233,30.3981913 C55.0465036,30.7812271 54.1720914,31.0515982 53.3309921,31.223378 C52.8551121,31.3200047 52.4709377,31.3367195 52.0743892,31.2682604 C51.7248797,31.207922 51.5070071,31.1301622 50.8524524,30.8625173 L50.3426049,30.6573476 C50.268656,30.6286702 50.1915969,30.6327837 50.090528,30.6854006 C50.0677791,30.6961763 50.0426698,30.7307299 50.0285672,30.8008147 C49.7950876,31.9628461 51.0104313,33.6205307 52.9407356,35.1853098 C54.367582,36.3410135 55.9502658,37.0702572 57.6695702,37.3675641 L58.3695306,37.4886032 L58.4857107,38.1893864 C58.6961135,39.4585086 59.3665131,40.4889934 60.3353581,40.9141391 C61.1114571,41.2551189 62.1172332,41.1949092 62.9295815,40.7473014 C63.0172854,40.6987814 63.1076003,40.6432399 63.1853311,40.5897875 L63.8449278,40.1362079 L64.4319015,40.6805095 C64.4578646,40.7045852 64.4850098,40.7282742 64.5130211,40.7511899 C64.9072057,41.0754487 65.4280875,41.2514569 66.1411094,41.1794394 C66.2056823,41.1729668 66.2800609,41.1673633 66.3745935,41.1614783 C66.3066078,41.1657106 67.125349,41.1206983 67.4105416,41.0999221 C67.8922024,41.0648332 68.3249271,41.0183726 68.7288416,40.9536329 C68.8911731,40.9276143 69.0459136,40.8990211 69.1925273,40.8678265 Z M85.3929475,25.2841502 L86.2662932,24.7970495 L87.2404948,26.543741 L86.367149,27.0308418 L85.3929475,25.2841502 Z M86.8542498,27.9041875 L87.7275956,27.4170867 L88.7017972,29.1637783 L87.8284514,29.650879 L86.8542498,27.9041875 Z M88.3155522,30.5242248 L89.188898,30.037124 L90.1630996,31.7838155 L89.2897538,32.2709163 L88.3155522,30.5242248 Z M89.7768546,33.1442621 L90.6502003,32.6571613 L91.6244019,34.4038528 L90.7510562,34.8909536 L89.7768546,33.1442621 Z M91.238157,35.7642994 L92.1115027,35.2771986 L93.0857043,37.0238901 L92.2123585,37.5109909 L91.238157,35.7642994 Z M52.2073171,49.5227273 L52.2073171,48.5227273 L63.1097561,48.5227273 L63.1097561,49.5227273 L52.2073171,49.5227273 Z M55.0365854,52.3409091 L55.0365854,51.3409091 L65.9390244,51.3409091 L65.9390244,52.3409091 L55.0365854,52.3409091 Z M57.8658537,55.1590909 L57.8658537,54.1590909 L68.7682927,54.1590909 L68.7682927,55.1590909 L57.8658537,55.1590909 Z M101.83643,13.6246723 C102.192024,14.267417 102.392088,14.9972456 102.333391,15.7765591 C102.24635,16.9391475 101.54952,18.0776484 100.516293,18.7523557 C100.409834,18.8216166 100.290355,18.8922537 100.173334,18.9531325 C100.187411,19.006261 100.200341,19.0615461 100.211142,19.1156992 C100.324064,19.6736734 100.323288,20.5404929 99.6765139,21.5078188 C99.3678279,21.9702524 98.4202433,23.7437918 97.321142,24.7615616 L96.3567582,24.49654 C96.4043839,24.322589 96.4996334,24.1593862 96.641704,24.0278286 C96.9525635,23.7399722 97.283564,23.3453016 97.6281197,22.8622732 C98.0137918,22.3216043 98.9297282,20.8253859 98.8452142,20.9519944 C99.2431244,20.3568737 99.3322575,19.8143314 99.230459,19.3113019 C99.2239297,19.278566 99.2157574,19.2434769 99.2066888,19.20925 L99.0016664,18.4354489 L99.7118153,18.0660022 C99.7955034,18.0224645 99.8869439,17.9687963 99.9695346,17.9150655 C100.747548,17.4070152 101.272893,16.5472344 101.336216,15.701453 C101.415646,14.6468661 100.820515,13.5711552 99.7987251,12.7895637 L99.2345135,12.357985 L99.4562538,11.6831323 C100.000912,10.0254994 100.100053,8.28571334 99.749568,6.4837085 C99.274096,4.04433594 98.3810167,2.19301538 97.2456651,1.85370655 C97.2112775,1.84344024 97.1835094,1.83979415 97.1569636,1.8440263 C97.1304177,1.84825846 97.1050941,1.86036885 97.0755954,1.88161552 C97.0204915,1.91868582 96.9806825,1.98479378 96.9726892,2.05113092 L96.9136682,2.6043848 C96.89929,2.74697981 96.8929471,2.8089769 96.8850956,2.88215801 C96.8195884,3.49272348 96.7470867,3.8315989 96.5605871,4.22039171 C96.440503,4.47072933 96.2826436,4.70740472 96.0673747,4.96875224 C95.5215538,5.62987534 94.8723186,6.27500401 94.0834246,6.94267841 C92.5391907,8.24918539 90.9037562,9.45705946 89.2230169,10.5330456 C86.9396753,11.9936655 85.9828422,12.8090665 85.2747238,14.18327 C84.4811276,15.7218813 84.3587331,17.2771998 84.8680743,18.745007 L85.7733826,20.9547246 C85.8605754,21.1675487 85.8690458,21.3930274 85.8123306,21.5988339 L84.8680743,23 L83.9427231,19.124118 C83.3307208,17.3657719 83.4571614,15.5256439 84.3859794,13.7248669 C85.3717225,11.8118935 87.1302605,10.6846548 88.6841514,9.69065381 C90.3235371,8.64114158 91.9236367,7.46008896 93.4375263,6.17925496 C94.1822689,5.5489477 94.7899337,4.94534135 95.2962273,4.3320956 C95.796952,3.72418771 95.829179,3.39138729 95.9187205,2.50399099 L95.9783283,1.94508194 C96.0217778,1.58090371 96.2176905,1.25353093 96.5174147,1.05189615 C96.8133748,0.831662228 97.1876727,0.792778952 97.5317356,0.895498006 C99.5157061,1.48842321 100.38792,4.53175413 100.731097,6.29239314 C101.113958,8.26085757 101.004784,10.1737915 100.406284,11.9952893 C100.96971,12.4262669 101.480835,12.9819276 101.83643,13.6246723 Z M73.0487805,29 L72.8300491,29.9758349 C72.6217066,29.9292911 72.4265973,29.8159564 72.2796193,29.6390548 L70.7891122,27.8428205 C69.6966954,26.6635001 68.2659699,26.0413902 66.534496,26.0197549 C64.9890948,25.9998419 63.8199325,26.4618678 61.4580079,27.7923937 C59.719219,28.771079 57.8849395,29.6480195 56.006233,30.3981913 C55.0465036,30.7812271 54.1720914,31.0515982 53.3309921,31.223378 C52.8551121,31.3200047 52.4709377,31.3367195 52.0743892,31.2682604 C51.7248797,31.207922 51.5070071,31.1301622 50.8524524,30.8625173 L50.3426049,30.6573476 C50.268656,30.6286702 50.1915969,30.6327837 50.090528,30.6854006 C50.0677791,30.6961763 50.0426698,30.7307299 50.0285672,30.8008147 C49.7950876,31.9628461 51.0104313,33.6205307 52.9407356,35.1853098 C54.367582,36.3410135 55.9502658,37.0702572 57.6695702,37.3675641 L58.3695306,37.4886032 L58.4857107,38.1893864 C58.6961135,39.4585086 59.3665131,40.4889934 60.3353581,40.9141391 C61.1114571,41.2551189 62.1172332,41.1949092 62.9295815,40.7473014 C63.0172854,40.6987814 63.1076003,40.6432399 63.1853311,40.5897875 L63.8449278,40.1362079 L64.4319015,40.6805095 C64.4578646,40.7045852 64.4850098,40.7282742 64.5130211,40.7511899 C64.9072057,41.0754487 65.4280875,41.2514569 66.1411094,41.1794394 C66.2056823,41.1729668 66.2800609,41.1673633 66.3745935,41.1614783 C66.3066078,41.1657106 67.125349,41.1206983 67.4105416,41.0999221 C67.8922024,41.0648332 68.3249271,41.0183726 68.7288416,40.9536329 C69.1780108,40.8816397 69.5690623,40.7899353 69.8906412,40.677948 C70.0734978,40.6142697 70.2623143,40.6067884 70.4382628,40.6464025 L70.2195122,41.6223229 C68.804878,42.1149578 66.7940717,42.118999 66.2408477,42.1744532 C65.0831075,42.291389 64.3173869,41.8851272 63.8777387,41.5234699 C63.8349951,41.4885096 63.7922516,41.4511384 63.7519505,41.4137671 C63.6432597,41.4885096 63.5247989,41.5608411 63.4136656,41.6223229 C62.3328638,42.217852 61.0004856,42.2986222 59.9331175,41.8296731 C58.5018184,41.2015948 57.7312128,39.7525542 57.4991763,38.3529401 C55.6099103,38.026243 53.8696362,37.2245691 52.3113276,35.9623848 C50.9178871,34.8328083 48.6402653,32.6339314 49.0481611,30.6038279 C49.1189933,30.2518147 49.3290474,29.9395838 49.6624473,29.7816601 C49.9811922,29.6116812 50.3622207,29.5923928 50.7041693,29.7250005 L51.2256409,29.9347617 C52.0512025,30.2723086 52.3601774,30.4000942 53.1320043,30.243376 C53.9111585,30.0842468 54.7293927,29.8310866 55.6355564,29.4694292 C57.4771938,28.7340592 59.2712027,27.8757257 60.967512,26.9209502 C62.5746703,26.0156012 64.3955466,24.9921108 66.5473802,25.0198379 C68.5734256,25.0451539 70.2575224,25.7974013 71.5227322,27.1632607 L73.0487805,29 Z" id="Combined-Shape" fill="#828282" fill-rule="nonzero"></path>
                <path d="M35.76,105.256 L35.008,105.256 L35.008,104.72 L37.08,104.72 L37.08,105.256 L36.328,105.256 L36.328,107.424 C36.68,107.344 37.032,107.256 37.368,107.16 L37.368,107.696 C36.672,107.896 35.92,108.064 35.12,108.2 L34.976,107.656 C35.24,107.624 35.504,107.584 35.76,107.536 L35.76,105.256 Z M38.792,108.68 C38.52,108.68 38.272,108.472 38.064,108.056 C37.824,107.576 37.648,106.928 37.536,106.096 C37.448,105.392 37.392,104.512 37.36,103.464 L34.824,103.464 L34.824,102.904 L37.344,102.904 C37.328,102.44 37.328,101.952 37.328,101.44 L37.888,101.44 C37.888,101.96 37.888,102.448 37.904,102.904 L39.496,102.904 L39.496,103.464 L37.912,103.464 C37.952,104.84 38.04,105.896 38.168,106.648 C38.344,107.56 38.552,108.024 38.792,108.056 C38.952,108.024 39.12,107.536 39.28,106.584 L39.736,106.952 C39.472,108.104 39.16,108.68 38.792,108.68 Z M38.576,101.432 C38.92,101.816 39.184,102.152 39.376,102.44 L38.976,102.72 C38.776,102.408 38.504,102.064 38.168,101.68 L38.576,101.432 Z M33.296,101.544 L32.896,101.936 C33.44,102.368 33.872,102.784 34.192,103.176 L34.584,102.776 C34.232,102.36 33.808,101.952 33.296,101.544 Z M32.336,103.912 L34.016,103.912 L34.016,107.4 C34.256,107.168 34.496,106.912 34.752,106.632 L34.904,107.24 C34.464,107.72 34,108.144 33.504,108.512 L33.28,108 C33.392,107.904 33.456,107.792 33.456,107.672 L33.456,104.464 L32.336,104.464 L32.336,103.912 Z M43.76,105.256 L43.008,105.256 L43.008,104.72 L45.08,104.72 L45.08,105.256 L44.328,105.256 L44.328,107.424 C44.68,107.344 45.032,107.256 45.368,107.16 L45.368,107.696 C44.672,107.896 43.92,108.064 43.12,108.2 L42.976,107.656 C43.24,107.624 43.504,107.584 43.76,107.536 L43.76,105.256 Z M46.792,108.68 C46.52,108.68 46.272,108.472 46.064,108.056 C45.824,107.576 45.648,106.928 45.536,106.096 C45.448,105.392 45.392,104.512 45.36,103.464 L42.824,103.464 L42.824,102.904 L45.344,102.904 C45.328,102.44 45.328,101.952 45.328,101.44 L45.888,101.44 C45.888,101.96 45.888,102.448 45.904,102.904 L47.496,102.904 L47.496,103.464 L45.912,103.464 C45.952,104.84 46.04,105.896 46.168,106.648 C46.344,107.56 46.552,108.024 46.792,108.056 C46.952,108.024 47.12,107.536 47.28,106.584 L47.736,106.952 C47.472,108.104 47.16,108.68 46.792,108.68 Z M46.576,101.432 C46.92,101.816 47.184,102.152 47.376,102.44 L46.976,102.72 C46.776,102.408 46.504,102.064 46.168,101.68 L46.576,101.432 Z M41.296,101.544 L40.896,101.936 C41.44,102.368 41.872,102.784 42.192,103.176 L42.584,102.776 C42.232,102.36 41.808,101.952 41.296,101.544 Z M40.336,103.912 L42.016,103.912 L42.016,107.4 C42.256,107.168 42.496,106.912 42.752,106.632 L42.904,107.24 C42.464,107.72 42,108.144 41.504,108.512 L41.28,108 C41.392,107.904 41.456,107.792 41.456,107.672 L41.456,104.464 L40.336,104.464 L40.336,103.912 Z M48.976,102.936 L51.512,102.936 C51.6,102.744 51.68,102.544 51.76,102.352 C50.976,102.4 50.128,102.424 49.216,102.424 L49.048,101.944 C51.32,101.944 53.2,101.792 54.696,101.488 L54.96,101.944 C54.2,102.112 53.32,102.232 52.312,102.312 C52.24,102.528 52.16,102.736 52.08,102.936 L55.056,102.936 L55.056,103.432 L51.848,103.432 C51.752,103.624 51.648,103.8 51.544,103.976 L55.52,103.976 L55.52,104.488 L51.192,104.488 C51.048,104.68 50.904,104.864 50.752,105.04 L54.72,105.04 L54.72,108.808 L54.168,108.808 L54.168,108.464 L50.552,108.464 L50.552,108.808 L50,108.808 L50,105.808 C49.592,106.176 49.144,106.536 48.648,106.872 L48.336,106.376 C49.208,105.784 49.928,105.16 50.496,104.488 L48.544,104.488 L48.544,103.976 L50.896,103.976 C51.024,103.792 51.144,103.608 51.248,103.432 L48.976,103.432 L48.976,102.936 Z M50.552,106.496 L50.552,107 L54.168,107 L54.168,106.496 L50.552,106.496 Z M54.168,106.048 L54.168,105.512 L50.552,105.512 L50.552,106.048 L54.168,106.048 Z M50.552,107.448 L50.552,107.992 L54.168,107.992 L54.168,107.448 L50.552,107.448 Z M60.52,107.464 L60.52,108.032 C59.288,108.288 57.96,108.512 56.536,108.688 L56.408,108.136 C57.048,108.064 57.672,107.984 58.28,107.888 L58.28,106.376 L56.72,106.376 L56.72,105.816 L58.28,105.816 L58.28,104.888 L58.856,104.888 L58.856,105.816 L60.296,105.816 L60.296,106.376 L58.856,106.376 L58.856,107.792 C59.424,107.696 59.976,107.584 60.52,107.464 Z M56.512,101.816 L60.488,101.816 L60.488,102.36 L58.432,102.36 C58.048,103.16 57.688,103.76 57.352,104.168 C58.144,104.088 58.896,103.992 59.616,103.864 C59.44,103.576 59.24,103.288 59.024,102.992 L59.464,102.704 C60,103.424 60.408,104.056 60.696,104.592 L60.216,104.928 C60.112,104.72 60,104.512 59.872,104.296 C58.864,104.472 57.752,104.624 56.552,104.744 L56.416,104.224 C56.512,104.208 56.592,104.192 56.648,104.168 C56.976,103.88 57.368,103.28 57.824,102.36 L56.512,102.36 L56.512,101.816 Z M62.6,108.728 L61.424,108.728 L61.296,108.168 C61.68,108.184 62.048,108.2 62.4,108.2 C62.624,108.2 62.744,108.08 62.744,107.848 L62.744,101.488 L63.328,101.488 L63.328,107.992 C63.328,108.48 63.08,108.728 62.6,108.728 Z M61.144,102.208 L61.704,102.208 L61.704,107.16 L61.144,107.16 L61.144,102.208 Z M67.648,101.328 C67.296,101.416 67.024,101.592 66.816,101.856 C66.608,102.112 66.512,102.424 66.512,102.784 C66.512,103.008 66.56,103.2 66.664,103.344 C66.776,103.488 66.92,103.568 67.104,103.568 C67.256,103.568 67.376,103.52 67.472,103.432 C67.568,103.336 67.624,103.216 67.624,103.072 C67.624,102.928 67.576,102.816 67.488,102.72 C67.392,102.624 67.272,102.584 67.136,102.584 C67.056,102.584 66.992,102.592 66.96,102.608 C66.96,102.416 67.016,102.24 67.136,102.088 C67.264,101.912 67.432,101.792 67.648,101.728 L67.648,101.328 Z M66.064,101.328 C65.712,101.416 65.44,101.592 65.24,101.856 C65.032,102.112 64.928,102.424 64.928,102.784 C64.928,103.016 64.976,103.2 65.088,103.344 C65.192,103.488 65.336,103.568 65.52,103.568 C65.68,103.568 65.808,103.52 65.904,103.432 C65.992,103.336 66.04,103.216 66.04,103.072 C66.04,102.928 65.992,102.816 65.896,102.72 C65.8,102.624 65.688,102.584 65.56,102.584 C65.472,102.584 65.408,102.592 65.376,102.608 C65.376,102.416 65.432,102.24 65.56,102.08 C65.68,101.912 65.848,101.792 66.064,101.728 L66.064,101.328 Z M68.872,101.784 L75.728,101.784 L75.728,102.32 L72.584,102.32 L72.584,103.016 L75.064,103.016 L75.064,106.184 L72.488,106.184 C72.392,106.712 72.24,107.136 72.016,107.456 C73.136,107.928 74.464,108.192 76,108.24 L75.856,108.792 C74.248,108.728 72.848,108.416 71.656,107.872 C71.096,108.352 70.176,108.656 68.904,108.8 L68.656,108.272 C69.768,108.184 70.584,107.96 71.096,107.592 C70.632,107.336 70.2,107.04 69.808,106.704 L70.248,106.4 C70.624,106.712 71.04,106.984 71.488,107.216 C71.68,106.944 71.824,106.6 71.904,106.184 L69.56,106.184 L69.56,103.016 L72.008,103.016 L72.008,102.32 L68.872,102.32 L68.872,101.784 Z M74.496,105.68 L74.496,104.832 L72.584,104.832 L72.584,105.112 L72.56,105.68 L74.496,105.68 Z M71.984,105.68 C72,105.496 72.008,105.304 72.008,105.112 L72.008,104.832 L70.128,104.832 L70.128,105.68 L71.984,105.68 Z M70.128,104.352 L72.008,104.352 L72.008,103.512 L70.128,103.512 L70.128,104.352 Z M72.584,103.512 L72.584,104.352 L74.496,104.352 L74.496,103.512 L72.584,103.512 Z M80.264,101.44 L80.776,101.712 C80.632,101.872 80.48,102.024 80.32,102.168 L82.616,102.168 L82.616,102.624 C81.752,104.16 80.144,105.024 77.808,105.208 L77.56,104.688 C78.28,104.64 78.92,104.536 79.496,104.368 C79.248,104.064 78.984,103.784 78.712,103.536 L79.216,103.296 C79.504,103.568 79.776,103.856 80.032,104.176 C80.864,103.84 81.512,103.336 81.96,102.68 L79.624,102.68 C79,103.048 78.264,103.328 77.408,103.52 L77.072,102.992 C78.496,102.72 79.56,102.208 80.264,101.44 Z M79.96,106.44 C80.264,106.752 80.56,107.088 80.832,107.448 C81.72,107.064 82.416,106.512 82.928,105.808 L80.56,105.808 C79.856,106.144 79.024,106.4 78.056,106.568 L77.712,106.056 C79.456,105.88 80.744,105.344 81.576,104.464 L82.072,104.736 C81.88,104.928 81.68,105.112 81.456,105.28 L83.648,105.28 L83.648,105.736 C82.512,107.624 80.4,108.6 77.296,108.672 L77.064,108.12 C78.312,108.112 79.392,107.96 80.296,107.656 C80.024,107.296 79.744,106.968 79.448,106.68 L79.96,106.44 Z M86.76,103.792 L89.048,103.792 L89.048,102.536 C88.44,102.592 87.792,102.624 87.104,102.624 L86.928,102.104 C88.672,102.104 90.128,101.904 91.28,101.512 L91.56,102.008 C91,102.208 90.36,102.36 89.632,102.464 L89.632,103.792 L91.936,103.792 L91.936,104.344 L89.632,104.344 L89.632,105.584 L91.432,105.584 L91.432,108.792 L90.864,108.792 L90.864,108.368 L87.864,108.368 L87.864,108.808 L87.296,108.808 L87.296,105.584 L89.048,105.584 L89.048,104.344 L86.76,104.344 L86.76,103.792 Z M87.864,107.824 L90.864,107.824 L90.864,106.128 L87.864,106.128 L87.864,107.824 Z M85.312,101.576 L84.92,101.952 C85.496,102.336 85.952,102.688 86.28,103.024 L86.672,102.632 C86.304,102.28 85.848,101.928 85.312,101.576 Z M85.128,103.488 L84.728,103.88 C85.312,104.296 85.768,104.696 86.104,105.072 L86.504,104.672 C86.136,104.272 85.672,103.88 85.128,103.488 Z M86.072,105.616 C85.736,106.584 85.328,107.528 84.864,108.456 L85.44,108.704 C85.856,107.808 86.24,106.84 86.592,105.816 L86.072,105.616 Z M93.016,102.024 L95.912,102.024 L95.912,102.576 L93.016,102.576 L93.016,102.024 Z M92.704,104.184 L96.216,104.184 L96.216,104.744 L94.368,104.744 C94.048,105.96 93.768,106.824 93.528,107.352 C94.16,107.224 94.792,107.04 95.416,106.808 C95.208,106.376 95.008,105.984 94.8,105.616 L95.288,105.376 C95.672,106.064 96.032,106.808 96.368,107.616 L95.872,107.872 C95.792,107.664 95.712,107.472 95.632,107.288 C94.784,107.592 93.856,107.832 92.864,108.008 L92.728,107.464 C92.784,107.448 92.824,107.432 92.856,107.416 C93.096,107.088 93.416,106.2 93.816,104.744 L92.704,104.744 L92.704,104.184 Z M97.416,101.488 L97.992,101.488 L97.992,103.104 L99.736,103.104 C99.736,105.608 99.696,107.152 99.624,107.744 C99.544,108.392 99.152,108.72 98.464,108.72 C98.328,108.72 98.096,108.712 97.76,108.696 L97.632,108.184 C97.92,108.2 98.176,108.216 98.392,108.216 C98.784,108.216 99.016,107.984 99.08,107.528 C99.128,107.104 99.16,105.816 99.176,103.664 L97.992,103.664 L97.992,103.76 C97.968,106.064 97.408,107.752 96.32,108.816 L95.888,108.44 C96.888,107.472 97.4,105.912 97.416,103.76 L97.416,103.664 L96.336,103.664 L96.336,103.104 L97.416,103.104 L97.416,101.488 Z M103.056,101.32 C102.896,101.32 102.776,101.36 102.688,101.456 C102.584,101.544 102.536,101.664 102.536,101.816 C102.536,101.952 102.584,102.064 102.68,102.16 C102.776,102.256 102.888,102.304 103.024,102.304 C103.104,102.304 103.168,102.296 103.2,102.28 C103.2,102.472 103.144,102.648 103.024,102.816 C102.896,102.976 102.728,103.088 102.52,103.16 L102.52,103.56 C102.856,103.464 103.136,103.288 103.344,103.032 C103.552,102.768 103.656,102.456 103.656,102.104 C103.656,101.864 103.6,101.68 103.496,101.536 C103.384,101.392 103.232,101.32 103.056,101.32 Z M101.48,101.32 C101.32,101.32 101.192,101.36 101.096,101.456 C101,101.544 100.96,101.664 100.96,101.816 C100.96,101.952 101.008,102.064 101.104,102.16 C101.192,102.256 101.304,102.304 101.44,102.304 C101.52,102.304 101.584,102.296 101.616,102.28 C101.616,102.472 101.56,102.648 101.432,102.816 C101.304,102.976 101.144,103.088 100.936,103.16 L100.936,103.56 C101.272,103.464 101.552,103.288 101.76,103.032 C101.968,102.768 102.072,102.456 102.072,102.104 C102.072,101.864 102.016,101.68 101.912,101.536 C101.8,101.392 101.656,101.32 101.48,101.32 Z M108.352,101.8 L112.144,101.8 L112.144,102.344 L110.552,102.344 C110.512,102.648 110.464,102.936 110.4,103.224 L111.896,103.224 L111.896,107 L111.336,107 L111.336,103.752 L109.264,103.752 L109.264,107.064 L108.696,107.064 L108.696,103.224 L109.84,103.224 C109.904,102.936 109.952,102.648 109.984,102.344 L108.352,102.344 L108.352,101.8 Z M110.896,107.024 C111.44,107.488 111.896,107.96 112.272,108.424 L111.864,108.832 C111.536,108.384 111.08,107.904 110.504,107.4 L110.896,107.024 Z M110.016,104.28 L110.56,104.28 L110.56,105.656 C110.544,106.512 110.376,107.2 110.064,107.712 C109.76,108.184 109.264,108.56 108.576,108.832 L108.272,108.344 C108.92,108.096 109.376,107.76 109.632,107.344 C109.872,106.912 110,106.352 110.016,105.656 L110.016,104.28 Z M106.496,101.536 L106.928,101.536 C107.472,102.168 108,102.84 108.512,103.552 L108.128,103.96 C107.608,103.176 107.152,102.552 106.768,102.088 C106.312,102.904 105.784,103.648 105.184,104.32 L104.856,103.856 C105.456,103.2 106,102.424 106.496,101.536 Z M105.312,105.032 L105.312,105.568 L107.56,105.568 C107.256,106.16 106.944,106.68 106.616,107.12 C106.368,106.904 106.112,106.688 105.84,106.472 L105.456,106.84 C106.296,107.52 106.952,108.16 107.432,108.76 L107.848,108.352 C107.592,108.056 107.304,107.76 106.992,107.464 C107.44,106.888 107.832,106.24 108.176,105.512 L108.176,105.032 L105.312,105.032 Z M106.664,103.272 C107.016,103.744 107.28,104.152 107.472,104.504 L107.056,104.8 C106.856,104.416 106.584,103.992 106.248,103.528 L106.664,103.272 Z M116.968,106.608 L116.968,107.176 C116.72,107.24 116.48,107.296 116.24,107.352 L116.24,108.8 L115.68,108.8 L115.68,107.48 C114.848,107.656 113.992,107.808 113.096,107.936 L112.96,107.376 C113.2,107.344 113.44,107.304 113.68,107.272 L113.68,102.32 L113.048,102.32 L113.048,101.776 L116.856,101.776 L116.856,102.208 L119.952,102.208 L119.952,102.736 C119.776,104.216 119.408,105.48 118.856,106.528 C119.24,107.184 119.72,107.792 120.288,108.344 L119.904,108.784 C119.368,108.232 118.92,107.656 118.552,107.056 C118.12,107.728 117.608,108.304 117.008,108.776 L116.616,108.328 C117.264,107.816 117.8,107.208 118.232,106.488 C117.64,105.352 117.288,104.112 117.176,102.768 L116.856,102.768 L116.856,102.32 L116.24,102.32 L116.24,106.784 C116.488,106.728 116.728,106.672 116.968,106.608 Z M117.704,102.768 C117.8,103.92 118.08,104.968 118.536,105.92 C118.968,105.008 119.264,103.96 119.408,102.768 L117.704,102.768 Z M115.68,106.912 L115.68,105.824 L114.24,105.824 L114.24,107.184 C114.728,107.104 115.208,107.008 115.68,106.912 Z M114.24,105.304 L115.68,105.304 L115.68,104.088 L114.24,104.088 L114.24,105.304 Z M114.24,103.56 L115.68,103.56 L115.68,102.32 L114.24,102.32 L114.24,103.56 Z" id="试试看到“更多活动”领取" fill="#828282"></path>
                <path d="M7.952,75.016 L7.952,76.152 C7.952,77.608 7.456,79.336 5.12,80.504 C5.024,80.344 4.768,80.056 4.608,79.928 C6.8,78.872 7.216,77.4 7.216,76.136 L7.216,74.296 L12.352,74.296 L12.352,78.024 C12.352,78.488 12.416,78.632 12.704,78.632 L14.272,78.632 C14.48,78.632 14.832,78.616 15.04,78.568 C15.072,78.792 15.104,79.112 15.12,79.32 C14.96,79.368 14.608,79.384 14.288,79.384 L12.672,79.384 C11.808,79.384 11.6,79.032 11.6,78.008 L11.6,75.016 L7.952,75.016 Z M4.752,75.656 L4.304,76.296 C3.68,75.784 2.416,74.984 1.44,74.424 L1.888,73.896 C2.848,74.408 4.112,75.176 4.752,75.656 Z M4.048,79.832 C3.392,79.368 2.112,78.648 1.12,78.184 L0.688,78.744 C1.696,79.24 2.96,79.992 3.632,80.472 L4.048,79.832 Z M4,82.216 L4.56,82.696 C3.776,84.376 2.672,86.488 1.792,87.928 L1.152,87.416 C1.968,86.168 3.136,84.008 4,82.216 Z M12.88,81.528 L7.024,81.528 C7.648,82.904 8.608,84.104 9.824,85.048 C11.12,84.136 12.192,82.952 12.88,81.528 Z M13.456,80.744 L13.952,81.016 C13.216,82.904 11.984,84.392 10.464,85.528 C11.824,86.456 13.456,87.128 15.296,87.48 C15.12,87.656 14.896,87.976 14.8,88.184 C12.88,87.768 11.2,87.016 9.792,85.992 C8.208,87.032 6.384,87.72 4.56,88.152 C4.48,87.944 4.32,87.624 4.16,87.448 C5.888,87.096 7.648,86.456 9.168,85.496 C7.904,84.424 6.912,83.08 6.224,81.528 L5.408,81.528 L5.408,80.792 L13.296,80.792 L13.456,80.744 Z M28.256,81.496 L28.256,79.48 L21.024,79.48 L21.024,81.496 L28.256,81.496 Z M21.024,84.232 L28.256,84.232 L28.256,82.184 L21.024,82.184 L21.024,84.232 Z M30.96,76.568 L22.24,76.568 C21.904,77.32 21.504,78.072 21.072,78.776 L29.008,78.776 L29.008,87.016 C29.008,87.592 28.88,87.848 28.432,87.976 C27.968,88.12 27.088,88.12 25.68,88.12 C25.632,87.896 25.504,87.592 25.408,87.352 C26.592,87.4 27.584,87.384 27.888,87.368 C28.176,87.368 28.256,87.272 28.256,87 L28.256,84.936 L21.024,84.936 L21.024,88.168 L20.272,88.168 L20.272,79.928 C19.424,81.08 18.416,82.088 17.28,82.904 C17.184,82.728 16.944,82.456 16.8,82.312 C18.832,80.904 20.384,78.824 21.44,76.568 L17.12,76.568 L17.12,75.832 L21.76,75.832 C22.064,75.128 22.304,74.408 22.512,73.688 L23.264,73.864 C23.056,74.536 22.832,75.192 22.56,75.832 L30.96,75.832 L30.96,76.568 Z M40.336,79.032 L35.472,79.032 L35.472,83.352 L40.336,83.352 L40.336,79.032 Z M41.104,84.104 L35.472,84.104 L35.472,85.4 L34.72,85.4 L34.72,78.28 L41.104,78.28 L41.104,84.104 Z M47.072,74.856 L47.072,75.608 L45.056,75.608 L45.056,86.872 C45.056,87.56 44.864,87.864 44.352,88.008 C43.808,88.152 42.72,88.152 41.168,88.152 C41.104,87.912 40.96,87.544 40.832,87.304 C42.208,87.352 43.456,87.336 43.84,87.32 C44.16,87.288 44.272,87.192 44.272,86.856 L44.272,75.608 L32.976,75.608 L32.976,74.856 L47.072,74.856 Z M56.416,82.408 L61.264,82.408 L61.264,79.32 L56.416,79.32 L56.416,82.408 Z M51.28,82.408 L55.648,82.408 L55.648,79.32 L51.344,79.32 L51.344,80.632 C51.344,81.192 51.328,81.8 51.28,82.408 Z M55.648,75.576 L51.344,75.576 L51.344,78.584 L55.648,78.584 L55.648,75.576 Z M61.264,78.584 L61.264,75.576 L56.416,75.576 L56.416,78.584 L61.264,78.584 Z M62.032,74.84 L62.032,86.92 C62.032,87.56 61.84,87.816 61.376,87.96 C60.896,88.104 60.016,88.104 58.448,88.088 C58.432,87.88 58.288,87.544 58.176,87.336 C59.424,87.368 60.528,87.352 60.848,87.336 C61.152,87.336 61.264,87.24 61.264,86.92 L61.264,83.144 L56.416,83.144 L56.416,88.04 L55.648,88.04 L55.648,83.144 L51.216,83.144 C50.992,84.952 50.464,86.84 49.216,88.264 C49.104,88.088 48.8,87.816 48.624,87.72 C50.4,85.72 50.576,82.888 50.576,80.632 L50.576,74.84 L62.032,74.84 Z M70.08,80.76 L70.08,76.936 L66.256,76.936 L66.256,80.76 L70.08,80.76 Z M66.256,85.752 L70.08,85.752 L70.08,81.464 L66.256,81.464 L66.256,85.752 Z M68.08,73.624 L68.896,73.816 C68.624,74.616 68.304,75.544 68.032,76.232 L70.816,76.232 L70.816,86.472 L66.256,86.472 L66.256,87.784 L65.536,87.784 L65.536,76.232 L67.312,76.232 C67.584,75.48 67.92,74.376 68.08,73.624 Z M78.672,76.232 L78.672,76.68 C78.4,84.104 78.176,86.536 77.536,87.288 C77.232,87.64 76.912,87.752 76.416,87.784 C75.92,87.816 74.992,87.8 74.112,87.736 C74.08,87.496 74,87.192 73.856,86.984 C74.912,87.064 75.856,87.08 76.208,87.08 C76.528,87.08 76.72,87.048 76.88,86.84 C77.408,86.264 77.68,83.784 77.92,76.952 L73.44,76.952 C72.976,78.088 72.448,79.112 71.872,79.928 C71.744,79.816 71.408,79.624 71.216,79.512 C72.336,78.056 73.168,75.832 73.664,73.56 L74.416,73.736 C74.224,74.584 73.984,75.432 73.696,76.232 L78.672,76.232 Z M76.192,83.4 L75.552,83.816 C75.04,82.84 73.92,81.24 72.96,80.088 L73.584,79.736 C74.528,80.888 75.68,82.44 76.192,83.4 Z M93.968,76.504 L93.424,76.952 C92.96,76.296 92,75.24 91.184,74.504 L91.728,74.136 C92.528,74.856 93.504,75.864 93.968,76.504 Z M84.624,73.704 L85.36,73.928 C84.88,75.208 84.288,76.472 83.616,77.656 L83.616,88.168 L82.88,88.168 L82.88,78.84 C82.368,79.64 81.792,80.36 81.232,81 C81.152,80.824 80.912,80.456 80.768,80.28 C82.304,78.664 83.744,76.216 84.624,73.704 Z M91.712,86.984 L93.68,86.984 C94.208,86.984 94.288,86.616 94.352,84.52 C94.528,84.664 94.832,84.792 95.04,84.856 C94.96,87.096 94.752,87.704 93.728,87.704 L91.648,87.704 C90.608,87.704 90.304,87.448 90.304,86.424 L90.304,79.704 L91.056,79.704 L91.056,86.424 C91.056,86.872 91.168,86.984 91.712,86.984 Z M89.232,77.528 L95.12,77.528 L95.12,78.28 L89.184,78.28 C88.896,82.2 88.048,85.96 85.152,88.056 C85.024,87.88 84.768,87.672 84.592,87.544 C87.36,85.592 88.192,81.992 88.432,78.28 L84.64,78.28 L84.64,77.528 L88.48,77.528 C88.544,76.296 88.56,75.032 88.56,73.848 L89.312,73.848 C89.312,75.048 89.296,76.296 89.232,77.528 Z M99.248,80.424 L103.568,80.424 L103.568,79.144 L99.248,79.144 L99.248,80.424 Z M99.248,77.304 L99.248,78.552 L103.568,78.552 L103.568,77.304 L99.248,77.304 Z M108.816,77.304 L104.336,77.304 L104.336,78.552 L108.816,78.552 L108.816,77.304 Z M108.816,80.424 L108.816,79.144 L104.336,79.144 L104.336,80.424 L108.816,80.424 Z M97.328,83.24 L97.312,82.52 C98.912,82.52 101.136,82.504 103.568,82.472 L103.568,81.016 L98.512,81.016 L98.512,76.712 L103.568,76.712 L103.568,75.48 L97.344,75.48 L97.344,74.808 L103.568,74.808 L103.568,73.704 L104.336,73.704 L104.336,74.808 L110.704,74.808 L110.704,75.48 L104.336,75.48 L104.336,76.712 L109.584,76.712 L109.584,81.016 L104.336,81.016 L104.336,82.472 C105.552,82.456 106.816,82.44 108.064,82.408 C107.504,82.104 106.896,81.816 106.336,81.592 L106.832,81.176 C108.304,81.736 110.016,82.76 110.848,83.528 L110.352,84.024 C110.016,83.72 109.584,83.384 109.088,83.032 C104.752,83.128 100.24,83.208 97.328,83.24 Z M105.84,85.272 L105.344,85.8 C104.736,85.24 103.536,84.504 102.496,84.04 L102.992,83.576 C104,84.024 105.216,84.744 105.84,85.272 Z M97.664,87.656 C98.32,86.84 98.848,85.512 99.184,84.52 L98.528,84.264 C98.224,85.224 97.68,86.536 97.008,87.304 L97.664,87.656 Z M102.32,87.288 L106.192,87.288 C107.024,87.288 107.168,87.064 107.232,85.544 C107.44,85.672 107.728,85.784 107.936,85.832 C107.824,87.592 107.552,87.976 106.24,87.976 L102.32,87.976 C100.736,87.976 100.304,87.768 100.304,86.808 L100.304,84.28 L101.072,84.28 L101.072,86.808 C101.072,87.192 101.248,87.288 102.32,87.288 Z M108.144,84.504 C108.928,85.416 109.792,86.68 110.144,87.48 L110.832,87.176 C110.464,86.376 109.584,85.16 108.784,84.248 L108.144,84.504 Z M117.568,76.168 L116.944,76.52 C116.688,75.96 116.064,75.08 115.52,74.44 L116.112,74.12 C116.688,74.728 117.312,75.592 117.568,76.168 Z M115.68,82.248 L123.92,82.248 C123.088,81.624 122.352,80.888 121.824,80.088 L117.872,80.088 C117.248,80.872 116.528,81.592 115.68,82.248 Z M126.976,80.088 L122.704,80.088 C123.776,81.512 125.6,82.664 127.472,83.224 C127.28,83.368 127.056,83.64 126.944,83.864 C125.968,83.512 124.976,83 124.096,82.376 C124.08,82.456 124.08,82.584 124.064,82.648 C123.824,85.976 123.6,87.208 123.168,87.64 C122.896,87.912 122.656,87.992 122.192,88.008 C121.776,88.04 120.896,88.024 120.016,87.96 C119.984,87.736 119.904,87.432 119.776,87.24 C120.704,87.32 121.616,87.336 121.92,87.32 C122.24,87.336 122.384,87.304 122.528,87.176 C122.88,86.856 123.056,85.768 123.264,82.968 L118.976,82.968 C118.496,85.496 117.36,87.272 114.048,88.184 C113.952,87.992 113.728,87.688 113.568,87.544 C116.736,86.76 117.76,85.128 118.176,82.968 L115.44,82.968 L115.44,82.424 C114.752,82.936 113.984,83.4 113.152,83.8 C113.056,83.608 112.816,83.352 112.656,83.208 C114.384,82.408 115.808,81.32 116.88,80.088 L113.088,80.088 L113.088,79.368 L117.488,79.368 C117.968,78.728 118.384,78.04 118.736,77.352 L114.096,77.352 L114.096,76.648 L119.072,76.648 C119.488,75.624 119.776,74.616 119.904,73.64 L120.704,73.736 C120.56,74.68 120.288,75.672 119.872,76.648 L122.128,76.648 C122.736,75.976 123.456,74.872 123.856,74.136 L124.56,74.408 C124.064,75.16 123.472,76.008 122.912,76.648 L125.84,76.648 L125.84,77.352 L119.584,77.352 C119.248,78.04 118.88,78.728 118.416,79.368 L126.976,79.368 L126.976,80.088 Z M143.216,76.552 L142.624,76.904 C142.192,76.232 141.296,75.16 140.544,74.392 L141.136,74.104 C141.904,74.856 142.8,75.896 143.216,76.552 Z M132.112,75.592 L129.968,75.592 L129.968,83.352 L132.112,83.352 L132.112,75.592 Z M132.784,74.92 L132.784,84.024 L129.968,84.024 L129.968,85.704 L129.28,85.704 L129.28,74.92 L132.784,74.92 Z M142.016,79.896 L142.704,80.072 C142.128,81.704 141.344,83.208 140.432,84.52 C140.848,86.408 141.408,87.464 142.144,87.464 C142.512,87.448 142.688,86.728 142.752,84.824 C142.912,84.984 143.168,85.144 143.344,85.208 C143.216,87.448 142.976,88.2 142.08,88.2 C141.072,88.2 140.368,87.128 139.888,85.304 C139.12,86.296 138.24,87.192 137.296,87.928 C137.2,87.8 136.928,87.512 136.768,87.368 C137.872,86.584 138.832,85.576 139.68,84.408 C139.408,82.968 139.232,81.224 139.104,79.208 L136.224,79.208 L136.224,82.248 L138.48,81.672 L138.56,82.344 L136.224,82.968 L136.224,87.08 C136.224,87.656 136.064,87.896 135.696,88.024 C135.312,88.168 134.608,88.184 133.488,88.184 C133.456,87.976 133.312,87.64 133.216,87.416 C134.144,87.432 134.96,87.432 135.184,87.416 C135.424,87.4 135.504,87.336 135.504,87.096 L135.504,83.16 L133.184,83.784 L132.992,83.032 C133.68,82.888 134.544,82.664 135.504,82.424 L135.504,79.208 L133.12,79.208 L133.12,78.488 L135.504,78.488 L135.504,75.64 C134.8,75.864 134.064,76.04 133.36,76.2 C133.312,76.024 133.216,75.8 133.12,75.624 C134.816,75.224 136.784,74.6 137.792,73.944 L138.432,74.488 C137.84,74.824 137.072,75.144 136.224,75.416 L136.224,78.488 L139.072,78.488 C138.992,77 138.96,75.4 138.944,73.72 L139.68,73.72 C139.68,75.432 139.712,77.032 139.776,78.488 L143.184,78.488 L143.184,79.208 L139.808,79.208 C139.904,80.888 140.064,82.344 140.272,83.56 C140.96,82.44 141.552,81.208 142.016,79.896 Z M149.856,82.312 C150.56,82.312 151.312,81.848 151.856,80.84 L151.28,80.456 C150.864,81.272 150.416,81.56 149.888,81.56 C148.88,81.56 148.064,79.992 146.704,79.992 C145.984,79.992 145.248,80.456 144.704,81.48 L145.264,81.848 C145.696,81.032 146.144,80.744 146.656,80.744 C147.68,80.744 148.48,82.312 149.856,82.312 Z" id="没有可用的优惠券哦~" fill="#C4C3C8"></path>
            </g>
        </g>
    </g>
</svg>