<?xml version="1.0" encoding="utf-8"?>
<!-- Generator: Adobe Illustrator 22.0.1, SVG Export Plug-In . SVG Version: 6.00 Build 0)  -->
<svg version="1.1" id="图层_1" xmlns="http://www.w3.org/2000/svg" xmlns:xlink="http://www.w3.org/1999/xlink" x="0px" y="0px"
	 width="152px" height="109px" viewBox="0 0 152 109" style="enable-background:new 0 0 152 109;" xml:space="preserve">
<style type="text/css">
	.st0{fill:#828282;}
	.st1{fill:#C4C3C8;}
	.st2{fill:#0091DB;}
	.st3{fill:#FFFFFF;}
</style>
<title>图标-无优惠券</title>
<desc>Created with Sketch.</desc>
<g id="会员中心">
	<g id="_x30_2-无优惠券" transform="translate(-84.000000, -488.000000)">
		<g id="图标-无优惠券" transform="translate(84.000000, 488.000000)">
			<path id="Combined-Shape" class="st0" d="M70.4,40.7C70.4,40.7,70.4,40.7,70.4,40.7l5.6,9.1l26-15L97,26l-4.9-7.3L65.7,34.2
				l4.5,6.4C70.2,40.6,70.3,40.6,70.4,40.7C70.4,40.6,70.4,40.6,70.4,40.7L70.4,40.7z M69.9,41.7c-1.4,0.4-3.1,0.4-3.6,0.4
				c-1.2,0.1-1.9-0.3-2.4-0.7c0,0-0.1-0.1-0.1-0.1c-0.1,0.1-0.2,0.1-0.3,0.2c-1.1,0.6-2.4,0.7-3.5,0.2c-1.4-0.6-2.2-2.1-2.4-3.5
				c-1.9-0.3-3.6-1.1-5.2-2.4c-1.4-1.1-3.7-3.3-3.3-5.4c0.1-0.4,0.3-0.7,0.6-0.8c0.3-0.2,0.7-0.2,1-0.1l0.5,0.2
				c0.8,0.3,1.1,0.5,1.9,0.3c0.8-0.2,1.6-0.4,2.5-0.8c1.8-0.7,3.6-1.6,5.3-2.5c1.6-0.9,3.4-1.9,5.6-1.9c2,0,3.7,0.8,5,2.1l1.4,1.6
				l19.5-11.5l4.6,6.8v0.4c0.2,0,0.3,0.1,0.4,0.3l6,10.5l-27.7,16L69.9,41.7z M69.2,40.9l-4.9-7l7.7-4.5l-1.2-1.5
				c-1.1-1.2-2.5-1.8-4.3-1.8c-1.5,0-2.7,0.4-5.1,1.8c-1.7,1-3.6,1.9-5.5,2.6c-1,0.4-1.8,0.7-2.7,0.8c-0.5,0.1-0.9,0.1-1.3,0
				c-0.3-0.1-0.6-0.1-1.2-0.4l-0.5-0.2c-0.1,0-0.2,0-0.3,0c0,0,0,0-0.1,0.1c-0.2,1.2,1,2.8,2.9,4.4c1.4,1.2,3,1.9,4.7,2.2l0.7,0.1
				l0.1,0.7c0.2,1.3,0.9,2.3,1.8,2.7c0.8,0.3,1.8,0.3,2.6-0.2c0.1,0,0.2-0.1,0.3-0.2l0.7-0.5l0.6,0.5c0,0,0.1,0,0.1,0.1
				c0.4,0.3,0.9,0.5,1.6,0.4c0.1,0,0.1,0,0.2,0c-0.1,0,0.8,0,1-0.1c0.5,0,0.9-0.1,1.3-0.1C68.9,40.9,69,40.9,69.2,40.9z M85.4,25.3
				l0.9-0.5l1,1.7L86.4,27L85.4,25.3z M86.9,27.9l0.9-0.5l1,1.7l-0.9,0.5L86.9,27.9z M88.3,30.5l0.9-0.5l1,1.7l-0.9,0.5L88.3,30.5z
				 M89.8,33.1l0.9-0.5l1,1.7l-0.9,0.5L89.8,33.1z M91.2,35.8l0.9-0.5l1,1.7l-0.9,0.5L91.2,35.8z M52.2,49.5v-1h10.9v1H52.2z
				 M55,52.3v-1h10.9v1H55z M57.9,55.2v-1h10.9v1H57.9z M101.8,13.6c0.4,0.6,0.6,1.4,0.5,2.2c-0.1,1.2-0.8,2.3-1.8,3
				c-0.1,0.1-0.2,0.1-0.3,0.2c0,0.1,0,0.1,0,0.2c0.1,0.6,0.1,1.4-0.5,2.4c-0.3,0.5-1.3,2.2-2.4,3.3l-1-0.3c0-0.2,0.1-0.3,0.3-0.5
				c0.3-0.3,0.6-0.7,1-1.2c0.4-0.5,1.3-2,1.2-1.9c0.4-0.6,0.5-1.1,0.4-1.6c0,0,0-0.1,0-0.1L99,18.4l0.7-0.4c0.1,0,0.2-0.1,0.3-0.2
				c0.8-0.5,1.3-1.4,1.4-2.2c0.1-1.1-0.5-2.1-1.5-2.9l-0.6-0.4l0.2-0.7c0.5-1.7,0.6-3.4,0.3-5.2c-0.5-2.4-1.4-4.3-2.5-4.6
				c0,0-0.1,0-0.1,0c0,0-0.1,0-0.1,0C97,1.9,97,2,97,2.1l-0.1,0.6c0,0.1,0,0.2,0,0.3c-0.1,0.6-0.1,0.9-0.3,1.3
				c-0.1,0.3-0.3,0.5-0.5,0.7c-0.5,0.7-1.2,1.3-2,2c-1.5,1.3-3.2,2.5-4.9,3.6c-2.3,1.5-3.2,2.3-3.9,3.7c-0.8,1.5-0.9,3.1-0.4,4.6
				l0.9,2.2c0.1,0.2,0.1,0.4,0,0.6L84.9,23l-0.9-3.9c-0.6-1.8-0.5-3.6,0.4-5.4c1-1.9,2.7-3,4.3-4c1.6-1,3.2-2.2,4.8-3.5
				c0.7-0.6,1.4-1.2,1.9-1.8c0.5-0.6,0.5-0.9,0.6-1.8L96,1.9c0-0.4,0.2-0.7,0.5-0.9c0.3-0.2,0.7-0.3,1-0.2c2,0.6,2.9,3.6,3.2,5.4
				c0.4,2,0.3,3.9-0.3,5.7C101,12.4,101.5,13,101.8,13.6z M73,29l-0.2,1c-0.2,0-0.4-0.2-0.6-0.3l-1.5-1.8c-1.1-1.2-2.5-1.8-4.3-1.8
				c-1.5,0-2.7,0.4-5.1,1.8c-1.7,1-3.6,1.9-5.5,2.6c-1,0.4-1.8,0.7-2.7,0.8c-0.5,0.1-0.9,0.1-1.3,0c-0.3-0.1-0.6-0.1-1.2-0.4
				l-0.5-0.2c-0.1,0-0.2,0-0.3,0c0,0,0,0-0.1,0.1c-0.2,1.2,1,2.8,2.9,4.4c1.4,1.2,3,1.9,4.7,2.2l0.7,0.1l0.1,0.7
				c0.2,1.3,0.9,2.3,1.8,2.7c0.8,0.3,1.8,0.3,2.6-0.2c0.1,0,0.2-0.1,0.3-0.2l0.7-0.5l0.6,0.5c0,0,0.1,0,0.1,0.1
				c0.4,0.3,0.9,0.5,1.6,0.4c0.1,0,0.1,0,0.2,0c-0.1,0,0.8,0,1-0.1c0.5,0,0.9-0.1,1.3-0.1c0.4-0.1,0.8-0.2,1.2-0.3
				c0.2-0.1,0.4-0.1,0.5,0l-0.2,1c-1.4,0.5-3.4,0.5-4,0.6c-1.2,0.1-1.9-0.3-2.4-0.7c0,0-0.1-0.1-0.1-0.1c-0.1,0.1-0.2,0.1-0.3,0.2
				c-1.1,0.6-2.4,0.7-3.5,0.2c-1.4-0.6-2.2-2.1-2.4-3.5c-1.9-0.3-3.6-1.1-5.2-2.4c-1.4-1.1-3.7-3.3-3.3-5.4c0.1-0.4,0.3-0.7,0.6-0.8
				c0.3-0.2,0.7-0.2,1-0.1l0.5,0.2c0.8,0.3,1.1,0.5,1.9,0.3c0.8-0.2,1.6-0.4,2.5-0.8c1.8-0.7,3.6-1.6,5.3-2.5
				c1.6-0.9,3.4-1.9,5.6-1.9c2,0,3.7,0.8,5,2.1L73,29z"/>
			<path id="试试看到_x201C_更多活动_x201D_领取" class="st0" d="M35.8,105.3H35v-0.5h2.1v0.5h-0.8v2.2
				c0.4-0.1,0.7-0.2,1-0.3v0.5c-0.7,0.2-1.4,0.4-2.2,0.5l-0.1-0.5c0.3,0,0.5-0.1,0.8-0.1V105.3z M38.8,108.7c-0.3,0-0.5-0.2-0.7-0.6
				c-0.2-0.5-0.4-1.1-0.5-2c-0.1-0.7-0.1-1.6-0.2-2.6h-2.5v-0.6h2.5c0-0.5,0-1,0-1.5h0.6c0,0.5,0,1,0,1.5h1.6v0.6h-1.6
				c0,1.4,0.1,2.4,0.3,3.2c0.2,0.9,0.4,1.4,0.6,1.4c0.2,0,0.3-0.5,0.5-1.5l0.5,0.4C39.5,108.1,39.2,108.7,38.8,108.7z M38.6,101.4
				c0.3,0.4,0.6,0.7,0.8,1l-0.4,0.3c-0.2-0.3-0.5-0.7-0.8-1L38.6,101.4z M33.3,101.5l-0.4,0.4c0.5,0.4,1,0.8,1.3,1.2l0.4-0.4
				C34.2,102.4,33.8,102,33.3,101.5z M32.3,103.9H34v3.5c0.2-0.2,0.5-0.5,0.7-0.8l0.2,0.6c-0.4,0.5-0.9,0.9-1.4,1.3l-0.2-0.5
				c0.1-0.1,0.2-0.2,0.2-0.3v-3.2h-1.1V103.9z M43.8,105.3H43v-0.5h2.1v0.5h-0.8v2.2c0.4-0.1,0.7-0.2,1-0.3v0.5
				c-0.7,0.2-1.4,0.4-2.2,0.5l-0.1-0.5c0.3,0,0.5-0.1,0.8-0.1V105.3z M46.8,108.7c-0.3,0-0.5-0.2-0.7-0.6c-0.2-0.5-0.4-1.1-0.5-2
				c-0.1-0.7-0.1-1.6-0.2-2.6h-2.5v-0.6h2.5c0-0.5,0-1,0-1.5h0.6c0,0.5,0,1,0,1.5h1.6v0.6h-1.6c0,1.4,0.1,2.4,0.3,3.2
				c0.2,0.9,0.4,1.4,0.6,1.4c0.2,0,0.3-0.5,0.5-1.5l0.5,0.4C47.5,108.1,47.2,108.7,46.8,108.7z M46.6,101.4c0.3,0.4,0.6,0.7,0.8,1
				l-0.4,0.3c-0.2-0.3-0.5-0.7-0.8-1L46.6,101.4z M41.3,101.5l-0.4,0.4c0.5,0.4,1,0.8,1.3,1.2l0.4-0.4
				C42.2,102.4,41.8,102,41.3,101.5z M40.3,103.9H42v3.5c0.2-0.2,0.5-0.5,0.7-0.8l0.2,0.6c-0.4,0.5-0.9,0.9-1.4,1.3l-0.2-0.5
				c0.1-0.1,0.2-0.2,0.2-0.3v-3.2h-1.1V103.9z M49,102.9h2.5c0.1-0.2,0.2-0.4,0.2-0.6c-0.8,0-1.6,0.1-2.5,0.1l-0.2-0.5
				c2.3,0,4.2-0.2,5.6-0.5l0.3,0.5c-0.8,0.2-1.6,0.3-2.6,0.4c-0.1,0.2-0.2,0.4-0.2,0.6h3v0.5h-3.2c-0.1,0.2-0.2,0.4-0.3,0.5h4v0.5
				h-4.3c-0.1,0.2-0.3,0.4-0.4,0.6h4v3.8h-0.6v-0.3h-3.6v0.3H50v-3c-0.4,0.4-0.9,0.7-1.4,1.1l-0.3-0.5c0.9-0.6,1.6-1.2,2.2-1.9h-2
				V104h2.4c0.1-0.2,0.2-0.4,0.4-0.5H49V102.9z M50.6,106.5v0.5h3.6v-0.5H50.6z M54.2,106v-0.5h-3.6v0.5H54.2z M50.6,107.4v0.5h3.6
				v-0.5H50.6z M60.5,107.5v0.6c-1.2,0.3-2.6,0.5-4,0.7l-0.1-0.6c0.6-0.1,1.3-0.2,1.9-0.2v-1.5h-1.6v-0.6h1.6v-0.9h0.6v0.9h1.4v0.6
				h-1.4v1.4C59.4,107.7,60,107.6,60.5,107.5z M56.5,101.8h4v0.5h-2.1c-0.4,0.8-0.7,1.4-1.1,1.8c0.8-0.1,1.5-0.2,2.3-0.3
				c-0.2-0.3-0.4-0.6-0.6-0.9l0.4-0.3c0.5,0.7,0.9,1.4,1.2,1.9l-0.5,0.3c-0.1-0.2-0.2-0.4-0.3-0.6c-1,0.2-2.1,0.3-3.3,0.4l-0.1-0.5
				c0.1,0,0.2,0,0.2-0.1c0.3-0.3,0.7-0.9,1.2-1.8h-1.3V101.8z M62.6,108.7h-1.2l-0.1-0.6c0.4,0,0.8,0,1.1,0c0.2,0,0.3-0.1,0.3-0.4
				v-6.4h0.6v6.5C63.3,108.5,63.1,108.7,62.6,108.7z M61.1,102.2h0.6v5h-0.6V102.2z M67.6,101.3c-0.4,0.1-0.6,0.3-0.8,0.5
				c-0.2,0.3-0.3,0.6-0.3,0.9c0,0.2,0,0.4,0.2,0.6c0.1,0.1,0.3,0.2,0.4,0.2c0.2,0,0.3,0,0.4-0.1c0.1-0.1,0.2-0.2,0.2-0.4
				c0-0.1,0-0.3-0.1-0.4c-0.1-0.1-0.2-0.1-0.4-0.1c-0.1,0-0.1,0-0.2,0c0-0.2,0.1-0.4,0.2-0.5c0.1-0.2,0.3-0.3,0.5-0.4V101.3z
				 M66.1,101.3c-0.4,0.1-0.6,0.3-0.8,0.5c-0.2,0.3-0.3,0.6-0.3,0.9c0,0.2,0,0.4,0.2,0.6c0.1,0.1,0.2,0.2,0.4,0.2
				c0.2,0,0.3,0,0.4-0.1c0.1-0.1,0.1-0.2,0.1-0.4c0-0.1,0-0.3-0.1-0.4c-0.1-0.1-0.2-0.1-0.3-0.1c-0.1,0-0.2,0-0.2,0
				c0-0.2,0.1-0.4,0.2-0.5c0.1-0.2,0.3-0.3,0.5-0.4V101.3z M103.1,101.3c-0.2,0-0.3,0-0.4,0.1c-0.1,0.1-0.2,0.2-0.2,0.4
				c0,0.1,0,0.2,0.1,0.3c0.1,0.1,0.2,0.1,0.3,0.1c0.1,0,0.1,0,0.2,0c0,0.2-0.1,0.4-0.2,0.5c-0.1,0.2-0.3,0.3-0.5,0.3v0.4
				c0.3-0.1,0.6-0.3,0.8-0.5c0.2-0.3,0.3-0.6,0.3-0.9c0-0.2-0.1-0.4-0.2-0.6C103.4,101.4,103.2,101.3,103.1,101.3z M101.5,101.3
				c-0.2,0-0.3,0-0.4,0.1c-0.1,0.1-0.1,0.2-0.1,0.4c0,0.1,0,0.2,0.1,0.3c0.1,0.1,0.2,0.1,0.3,0.1c0.1,0,0.1,0,0.2,0
				c0,0.2-0.1,0.4-0.2,0.5c-0.1,0.2-0.3,0.3-0.5,0.3v0.4c0.3-0.1,0.6-0.3,0.8-0.5c0.2-0.3,0.3-0.6,0.3-0.9c0-0.2-0.1-0.4-0.2-0.6
				C101.8,101.4,101.7,101.3,101.5,101.3z M108.4,101.8h3.8v0.5h-1.6c0,0.3-0.1,0.6-0.2,0.9h1.5v3.8h-0.6v-3.2h-2.1v3.3h-0.6v-3.8
				h1.1c0.1-0.3,0.1-0.6,0.1-0.9h-1.6V101.8z M110.9,107c0.5,0.5,1,0.9,1.4,1.4l-0.4,0.4c-0.3-0.4-0.8-0.9-1.4-1.4L110.9,107z
				 M110,104.3h0.5v1.4c0,0.9-0.2,1.5-0.5,2.1c-0.3,0.5-0.8,0.8-1.5,1.1l-0.3-0.5c0.6-0.2,1.1-0.6,1.4-1c0.2-0.4,0.4-1,0.4-1.7
				V104.3z M106.5,101.5h0.4c0.5,0.6,1.1,1.3,1.6,2l-0.4,0.4c-0.5-0.8-1-1.4-1.4-1.9c-0.5,0.8-1,1.6-1.6,2.2l-0.3-0.5
				C105.5,103.2,106,102.4,106.5,101.5z M105.3,105v0.5h2.2c-0.3,0.6-0.6,1.1-0.9,1.6c-0.2-0.2-0.5-0.4-0.8-0.6l-0.4,0.4
				c0.8,0.7,1.5,1.3,2,1.9l0.4-0.4c-0.3-0.3-0.5-0.6-0.9-0.9c0.4-0.6,0.8-1.2,1.2-2V105H105.3z M106.7,103.3
				c0.4,0.5,0.6,0.9,0.8,1.2l-0.4,0.3c-0.2-0.4-0.5-0.8-0.8-1.3L106.7,103.3z M117,106.6v0.6c-0.2,0.1-0.5,0.1-0.7,0.2v1.4h-0.6
				v-1.3c-0.8,0.2-1.7,0.3-2.6,0.5l-0.1-0.6c0.2,0,0.5-0.1,0.7-0.1v-5H113v-0.5h3.8v0.4h3.1v0.5c-0.2,1.5-0.5,2.7-1.1,3.8
				c0.4,0.7,0.9,1.3,1.4,1.8l-0.4,0.4c-0.5-0.6-1-1.1-1.4-1.7c-0.4,0.7-0.9,1.2-1.5,1.7l-0.4-0.4c0.6-0.5,1.2-1.1,1.6-1.8
				c-0.6-1.1-0.9-2.4-1.1-3.7h-0.3v-0.4h-0.6v4.5C116.5,106.7,116.7,106.7,117,106.6z M117.7,102.8c0.1,1.2,0.4,2.2,0.8,3.2
				c0.4-0.9,0.7-2,0.9-3.2H117.7z M115.7,106.9v-1.1h-1.4v1.4C114.7,107.1,115.2,107,115.7,106.9z M114.2,105.3h1.4v-1.2h-1.4V105.3
				z M114.2,103.6h1.4v-1.2h-1.4V103.6z"/>
			<path id="没有可用的优惠券哦_x7E_" class="st1" d="M8,75v1.1c0,1.5-0.5,3.2-2.8,4.4c-0.1-0.2-0.4-0.4-0.5-0.6
				c2.2-1.1,2.6-2.5,2.6-3.8v-1.8h5.1V78c0,0.5,0.1,0.6,0.4,0.6h1.6c0.2,0,0.6,0,0.8-0.1c0,0.2,0.1,0.5,0.1,0.8
				c-0.2,0-0.5,0.1-0.8,0.1h-1.6c-0.9,0-1.1-0.4-1.1-1.4v-3H8z M4.8,75.7l-0.4,0.6c-0.6-0.5-1.9-1.3-2.9-1.9l0.4-0.5
				C2.8,74.4,4.1,75.2,4.8,75.7z M4,79.8c-0.7-0.5-1.9-1.2-2.9-1.6l-0.4,0.6c1,0.5,2.3,1.2,2.9,1.7L4,79.8z M4,82.2l0.6,0.5
				c-0.8,1.7-1.9,3.8-2.8,5.2l-0.6-0.5C2,86.2,3.1,84,4,82.2z M12.9,81.5H7c0.6,1.4,1.6,2.6,2.8,3.5C11.1,84.1,12.2,83,12.9,81.5z
				 M13.5,80.7L14,81c-0.7,1.9-2,3.4-3.5,4.5c1.4,0.9,3,1.6,4.8,2c-0.2,0.2-0.4,0.5-0.5,0.7c-1.9-0.4-3.6-1.2-5-2.2
				c-1.6,1-3.4,1.7-5.2,2.2c-0.1-0.2-0.2-0.5-0.4-0.7c1.7-0.4,3.5-1,5-2c-1.3-1.1-2.3-2.4-2.9-4H5.4v-0.7h7.9L13.5,80.7z M28.3,81.5
				v-2H21v2H28.3z M21,84.2h7.2v-2H21V84.2z M31,76.6h-8.7c-0.3,0.8-0.7,1.5-1.2,2.2H29V87c0,0.6-0.1,0.8-0.6,1
				c-0.5,0.1-1.3,0.1-2.8,0.1c0-0.2-0.2-0.5-0.3-0.8c1.2,0,2.2,0,2.5,0c0.3,0,0.4-0.1,0.4-0.4v-2.1H21v3.2h-0.8v-8.2
				c-0.8,1.2-1.9,2.2-3,3c-0.1-0.2-0.3-0.4-0.5-0.6c2-1.4,3.6-3.5,4.6-5.7h-4.3v-0.7h4.6c0.3-0.7,0.5-1.4,0.8-2.1l0.8,0.2
				c-0.2,0.7-0.4,1.3-0.7,2H31V76.6z M40.3,79h-4.9v4.3h4.9V79z M41.1,84.1h-5.6v1.3h-0.8v-7.1h6.4V84.1z M47.1,74.9v0.8h-2v11.3
				c0,0.7-0.2,1-0.7,1.1c-0.5,0.1-1.6,0.1-3.2,0.1c-0.1-0.2-0.2-0.6-0.3-0.8c1.4,0,2.6,0,3,0c0.3,0,0.4-0.1,0.4-0.5V75.6H33v-0.8
				H47.1z M56.4,82.4h4.8v-3.1h-4.8V82.4z M51.3,82.4h4.4v-3.1h-4.3v1.3C51.3,81.2,51.3,81.8,51.3,82.4z M55.6,75.6h-4.3v3h4.3V75.6
				z M61.3,78.6v-3h-4.8v3H61.3z M62,74.8v12.1c0,0.6-0.2,0.9-0.7,1c-0.5,0.1-1.4,0.1-2.9,0.1c0-0.2-0.2-0.5-0.3-0.8
				c1.2,0,2.4,0,2.7,0c0.3,0,0.4-0.1,0.4-0.4v-3.8h-4.8V88h-0.8v-4.9h-4.4c-0.2,1.8-0.8,3.7-2,5.1c-0.1-0.2-0.4-0.4-0.6-0.5
				c1.8-2,2-4.8,2-7.1v-5.8H62z M70.1,80.8v-3.8h-3.8v3.8H70.1z M66.3,85.8h3.8v-4.3h-3.8V85.8z M68.1,73.6l0.8,0.2
				c-0.3,0.8-0.6,1.7-0.9,2.4h2.8v10.2h-4.6v1.3h-0.7V76.2h1.8C67.6,75.5,67.9,74.4,68.1,73.6z M78.7,76.2v0.4
				c-0.3,7.4-0.5,9.9-1.1,10.6c-0.3,0.4-0.6,0.5-1.1,0.5c-0.5,0-1.4,0-2.3,0c0-0.2-0.1-0.5-0.3-0.8c1.1,0.1,2,0.1,2.4,0.1
				c0.3,0,0.5,0,0.7-0.2c0.5-0.6,0.8-3.1,1-9.9h-4.5c-0.5,1.1-1,2.2-1.6,3c-0.1-0.1-0.5-0.3-0.7-0.4c1.1-1.5,2-3.7,2.4-6l0.8,0.2
				c-0.2,0.8-0.4,1.7-0.7,2.5H78.7z M76.2,83.4l-0.6,0.4c-0.5-1-1.6-2.6-2.6-3.7l0.6-0.4C74.5,80.9,75.7,82.4,76.2,83.4z M94,76.5
				L93.4,77c-0.5-0.7-1.4-1.7-2.2-2.4l0.5-0.4C92.5,74.9,93.5,75.9,94,76.5z M84.6,73.7l0.7,0.2c-0.5,1.3-1.1,2.5-1.7,3.7v10.5h-0.7
				v-9.3c-0.5,0.8-1.1,1.5-1.6,2.2c-0.1-0.2-0.3-0.5-0.5-0.7C82.3,78.7,83.7,76.2,84.6,73.7z M91.7,87h2c0.5,0,0.6-0.4,0.7-2.5
				c0.2,0.1,0.5,0.3,0.7,0.3c-0.1,2.2-0.3,2.8-1.3,2.8h-2.1c-1,0-1.3-0.3-1.3-1.3v-6.7h0.8v6.7C91.1,86.9,91.2,87,91.7,87z
				 M89.2,77.5h5.9v0.8h-5.9c-0.3,3.9-1.1,7.7-4,9.8c-0.1-0.2-0.4-0.4-0.6-0.5c2.8-2,3.6-5.6,3.8-9.3h-3.8v-0.8h3.8
				c0.1-1.2,0.1-2.5,0.1-3.7h0.8C89.3,75,89.3,76.3,89.2,77.5z M99.2,80.4h4.3v-1.3h-4.3V80.4z M99.2,77.3v1.2h4.3v-1.2H99.2z
				 M108.8,77.3h-4.5v1.2h4.5V77.3z M108.8,80.4v-1.3h-4.5v1.3H108.8z M97.3,83.2l0-0.7c1.6,0,3.8,0,6.3,0V81h-5.1v-4.3h5.1v-1.2
				h-6.2v-0.7h6.2v-1.1h0.8v1.1h6.4v0.7h-6.4v1.2h5.2V81h-5.2v1.5c1.2,0,2.5,0,3.7-0.1c-0.6-0.3-1.2-0.6-1.7-0.8l0.5-0.4
				c1.5,0.6,3.2,1.6,4,2.4l-0.5,0.5c-0.3-0.3-0.8-0.6-1.3-1C104.8,83.1,100.2,83.2,97.3,83.2z M105.8,85.3l-0.5,0.5
				c-0.6-0.6-1.8-1.3-2.8-1.8l0.5-0.5C104,84,105.2,84.7,105.8,85.3z M97.7,87.7c0.7-0.8,1.2-2.1,1.5-3.1l-0.7-0.3
				c-0.3,1-0.8,2.3-1.5,3L97.7,87.7z M102.3,87.3h3.9c0.8,0,1-0.2,1-1.7c0.2,0.1,0.5,0.2,0.7,0.3c-0.1,1.8-0.4,2.1-1.7,2.1h-3.9
				c-1.6,0-2-0.2-2-1.2v-2.5h0.8v2.5C101.1,87.2,101.2,87.3,102.3,87.3z M108.1,84.5c0.8,0.9,1.6,2.2,2,3l0.7-0.3
				c-0.4-0.8-1.2-2-2-2.9L108.1,84.5z M117.6,76.2l-0.6,0.4c-0.3-0.6-0.9-1.4-1.4-2.1l0.6-0.3C116.7,74.7,117.3,75.6,117.6,76.2z
				 M115.7,82.2h8.2c-0.8-0.6-1.6-1.4-2.1-2.2h-4C117.2,80.9,116.5,81.6,115.7,82.2z M127,80.1h-4.3c1.1,1.4,2.9,2.6,4.8,3.1
				c-0.2,0.1-0.4,0.4-0.5,0.6c-1-0.4-2-0.9-2.8-1.5c0,0.1,0,0.2,0,0.3c-0.2,3.3-0.5,4.6-0.9,5c-0.3,0.3-0.5,0.4-1,0.4
				c-0.4,0-1.3,0-2.2,0c0-0.2-0.1-0.5-0.2-0.7c0.9,0.1,1.8,0.1,2.1,0.1c0.3,0,0.5,0,0.6-0.1c0.4-0.3,0.5-1.4,0.7-4.2H119
				c-0.5,2.5-1.6,4.3-4.9,5.2c-0.1-0.2-0.3-0.5-0.5-0.6c3.2-0.8,4.2-2.4,4.6-4.6h-2.7v-0.5c-0.7,0.5-1.5,1-2.3,1.4
				c-0.1-0.2-0.3-0.4-0.5-0.6c1.7-0.8,3.2-1.9,4.2-3.1h-3.8v-0.7h4.4c0.5-0.6,0.9-1.3,1.2-2h-4.6v-0.7h5c0.4-1,0.7-2,0.8-3l0.8,0.1
				c-0.1,0.9-0.4,1.9-0.8,2.9h2.3c0.6-0.7,1.3-1.8,1.7-2.5l0.7,0.3c-0.5,0.8-1.1,1.6-1.6,2.2h2.9v0.7h-6.3c-0.3,0.7-0.7,1.4-1.2,2
				h8.6V80.1z M143.2,76.6l-0.6,0.4c-0.4-0.7-1.3-1.7-2.1-2.5l0.6-0.3C141.9,74.9,142.8,75.9,143.2,76.6z M132.1,75.6H130v7.8h2.1
				V75.6z M132.8,74.9V84H130v1.7h-0.7V74.9H132.8z M142,79.9l0.7,0.2c-0.6,1.6-1.4,3.1-2.3,4.4c0.4,1.9,1,2.9,1.7,2.9
				c0.4,0,0.5-0.7,0.6-2.6c0.2,0.2,0.4,0.3,0.6,0.4c-0.1,2.2-0.4,3-1.3,3c-1,0-1.7-1.1-2.2-2.9c-0.8,1-1.6,1.9-2.6,2.6
				c-0.1-0.1-0.4-0.4-0.5-0.6c1.1-0.8,2.1-1.8,2.9-3c-0.3-1.4-0.4-3.2-0.6-5.2h-2.9v3l2.3-0.6l0.1,0.7l-2.3,0.6v4.1
				c0,0.6-0.2,0.8-0.5,0.9c-0.4,0.1-1.1,0.2-2.2,0.2c0-0.2-0.2-0.5-0.3-0.8c0.9,0,1.7,0,2,0c0.2,0,0.3-0.1,0.3-0.3v-3.9l-2.3,0.6
				L133,83c0.7-0.1,1.6-0.4,2.5-0.6v-3.2h-2.4v-0.7h2.4v-2.8c-0.7,0.2-1.4,0.4-2.1,0.6c0-0.2-0.1-0.4-0.2-0.6c1.7-0.4,3.7-1,4.7-1.7
				l0.6,0.5c-0.6,0.3-1.4,0.7-2.2,0.9v3.1h2.8c-0.1-1.5-0.1-3.1-0.1-4.8h0.7c0,1.7,0,3.3,0.1,4.8h3.4v0.7h-3.4
				c0.1,1.7,0.3,3.1,0.5,4.4C141,82.4,141.6,81.2,142,79.9z M149.9,82.3c0.7,0,1.5-0.5,2-1.5l-0.6-0.4c-0.4,0.8-0.9,1.1-1.4,1.1
				c-1,0-1.8-1.6-3.2-1.6c-0.7,0-1.5,0.5-2,1.5l0.6,0.4c0.4-0.8,0.9-1.1,1.4-1.1C147.7,80.7,148.5,82.3,149.9,82.3z"/>
		</g>
	</g>
</g>
<path class="st2" d="M68.9,101.8h6.9v0.5h-3.1v0.7h2.5v3.2h-2.6c-0.1,0.5-0.2,1-0.5,1.3c1.1,0.5,2.4,0.7,4,0.8l-0.1,0.6
	c-1.6-0.1-3-0.4-4.2-0.9c-0.6,0.5-1.5,0.8-2.8,0.9l-0.2-0.5c1.1-0.1,1.9-0.3,2.4-0.7c-0.5-0.3-0.9-0.6-1.3-0.9l0.4-0.3
	c0.4,0.3,0.8,0.6,1.2,0.8c0.2-0.3,0.3-0.6,0.4-1h-2.3V103H72v-0.7h-3.1V101.8z"/>
<polygon class="st3" points="74.5,105.7 74.5,104.8 72.6,104.8 72.6,105.1 72.6,105.7 "/>
<path class="st3" d="M72,105.7c0-0.2,0-0.4,0-0.6v-0.3h-1.9v0.8H72z"/>
<rect x="70.1" y="103.5" class="st3" width="1.9" height="0.8"/>
<rect x="72.6" y="103.5" class="st3" width="1.9" height="0.8"/>
<path class="st2" d="M80.3,101.4l0.5,0.3c-0.1,0.2-0.3,0.3-0.5,0.5h2.3v0.5c-0.9,1.5-2.5,2.4-4.8,2.6l-0.2-0.5
	c0.7,0,1.4-0.2,1.9-0.3c-0.2-0.3-0.5-0.6-0.8-0.8l0.5-0.2c0.3,0.3,0.6,0.6,0.8,0.9c0.8-0.3,1.5-0.8,1.9-1.5h-2.3
	c-0.6,0.4-1.4,0.6-2.2,0.8l-0.3-0.5C78.5,102.7,79.6,102.2,80.3,101.4z"/>
<path class="st2" d="M80,106.4c0.3,0.3,0.6,0.6,0.9,1c0.9-0.4,1.6-0.9,2.1-1.6h-2.4c-0.7,0.3-1.5,0.6-2.5,0.8l-0.3-0.5
	c1.7-0.2,3-0.7,3.9-1.6l0.5,0.3c-0.2,0.2-0.4,0.4-0.6,0.5h2.2v0.5c-1.1,1.9-3.2,2.9-6.4,2.9l-0.2-0.6c1.2,0,2.3-0.2,3.2-0.5
	c-0.3-0.4-0.6-0.7-0.8-1L80,106.4z"/>
<path class="st2" d="M86.8,103.8H89v-1.3c-0.6,0.1-1.3,0.1-1.9,0.1l-0.2-0.5c1.7,0,3.2-0.2,4.4-0.6l0.3,0.5
	c-0.6,0.2-1.2,0.4-1.9,0.5v1.3h2.3v0.6h-2.3v1.2h1.8v3.2h-0.6v-0.4h-3v0.4h-0.6v-3.2H89v-1.2h-2.3V103.8z"/>
<rect x="87.9" y="106.1" class="st3" width="3" height="1.7"/>
<path class="st2" d="M85.3,101.6l-0.4,0.4c0.6,0.4,1,0.7,1.4,1.1l0.4-0.4C86.3,102.3,85.8,101.9,85.3,101.6z"/>
<path class="st2" d="M85.1,103.5l-0.4,0.4c0.6,0.4,1,0.8,1.4,1.2l0.4-0.4C86.1,104.3,85.7,103.9,85.1,103.5z"/>
<path class="st2" d="M86.1,105.6c-0.3,1-0.7,1.9-1.2,2.8l0.6,0.2c0.4-0.9,0.8-1.9,1.2-2.9L86.1,105.6z"/>
<rect x="93" y="102" class="st2" width="2.9" height="0.6"/>
<path class="st2" d="M92.7,104.2h3.5v0.6h-1.8c-0.3,1.2-0.6,2.1-0.8,2.6c0.6-0.1,1.3-0.3,1.9-0.5c-0.2-0.4-0.4-0.8-0.6-1.2l0.5-0.2
	c0.4,0.7,0.7,1.4,1.1,2.2l-0.5,0.3c-0.1-0.2-0.2-0.4-0.2-0.6c-0.8,0.3-1.8,0.5-2.8,0.7l-0.1-0.5c0.1,0,0.1,0,0.1,0
	c0.2-0.3,0.6-1.2,1-2.7h-1.1V104.2z"/>
<path class="st2" d="M97.4,101.5H98v1.6h1.7c0,2.5,0,4-0.1,4.6c-0.1,0.6-0.5,1-1.2,1c-0.1,0-0.4,0-0.7,0l-0.1-0.5c0.3,0,0.5,0,0.8,0
	c0.4,0,0.6-0.2,0.7-0.7c0-0.4,0.1-1.7,0.1-3.9H98v0.1c0,2.3-0.6,4-1.7,5.1l-0.4-0.4c1-1,1.5-2.5,1.5-4.7v-0.1h-1.1v-0.6h1.1V101.5z"
	/>
<rect x="68.7" y="108.8" class="st2" width="32.4" height="0.2"/>
</svg>
