<?xml version="1.0" encoding="UTF-8"?>
<svg width="210px" height="818px" viewBox="0 0 210 818" version="1.1" xmlns="http://www.w3.org/2000/svg" xmlns:xlink="http://www.w3.org/1999/xlink">
    <!-- Generator: Sketch 43.1 (39012) - http://www.bohemiancoding.com/sketch -->
    <title>雪碧图-会员中心与账户设置</title>
    <desc>Created with Sketch.</desc>
    <defs>
        <circle id="path-1" cx="5.57142857" cy="4.64285714" r="4.64285714"></circle>
        <circle id="path-2" cx="1.85714286" cy="9.35714286" r="1.85714286"></circle>
        <linearGradient x1="50%" y1="0%" x2="50%" y2="100%" id="linearGradient-3">
            <stop stop-color="#FFFFFF" offset="0%"></stop>
            <stop stop-color="#FEF9CB" offset="100%"></stop>
        </linearGradient>
        <linearGradient x1="0%" y1="0%" x2="73.2958984%" y2="71.6796875%" id="linearGradient-4">
            <stop stop-color="#FFFFFF" offset="0%"></stop>
            <stop stop-color="#FEF9CB" offset="100%"></stop>
        </linearGradient>
        <rect id="path-5" x="0" y="0" width="40" height="40" rx="3"></rect>
        <filter x="-15.0%" y="-15.0%" width="130.0%" height="130.0%" filterUnits="objectBoundingBox" id="filter-6">
            <feOffset dx="0" dy="0" in="SourceAlpha" result="shadowOffsetOuter1"></feOffset>
            <feGaussianBlur stdDeviation="2" in="shadowOffsetOuter1" result="shadowBlurOuter1"></feGaussianBlur>
            <feColorMatrix values="0 0 0 0 0   0 0 0 0 0   0 0 0 0 0  0 0 0 0.2 0" type="matrix" in="shadowBlurOuter1"></feColorMatrix>
        </filter>
        <path d="M3.978,3.6 C3.996,2.556 4.014,1.512 4.014,0.468 C4.302,0.432 4.428,0.324 4.464,0.162 L2.808,0.072 C2.808,1.26 2.808,2.448 2.79,3.6 L0.288,3.6 L0.288,4.788 L2.754,4.788 C2.61,9.396 2.088,13.536 0,15.984 C0.306,16.164 0.738,16.506 0.936,16.776 C3.204,14.04 3.78,9.576 3.942,4.788 L6.894,4.788 C6.768,11.97 6.588,14.454 6.21,14.976 C6.048,15.21 5.886,15.264 5.598,15.264 C5.292,15.264 4.536,15.264 3.708,15.192 C3.906,15.534 4.014,16.038 4.05,16.398 C4.446,16.416 4.842,16.434 5.202,16.434 C6.516,16.434 6.876,16.308 7.272,15.75 C7.794,14.994 7.938,12.348 8.082,4.05 C8.082,3.906 8.1,3.726 8.1,3.618 L7.47,3.582 L7.182,3.6 L3.978,3.6 Z M9.792,16.362 L9.792,2.214 L15.912,2.214 L15.912,16.218 L14.706,16.218 L14.706,15.012 L10.962,15.012 L10.962,16.362 L9.792,16.362 Z M10.962,3.384 L10.962,13.842 L14.706,13.842 L14.706,3.384 L10.962,3.384 Z M26.028,1.188 L21.474,1.188 L21.474,2.412 L26.064,2.412 C26.082,3.132 26.154,3.96 26.298,4.86 L25.56,4.68 C24.426,9.918 22.104,13.752 18.126,15.822 C18.432,16.038 18.9,16.488 19.134,16.74 C22.914,14.652 25.254,11.052 26.55,6.246 C27.342,9.756 29.286,13.878 33.966,16.722 C34.182,16.416 34.668,15.912 34.938,15.696 C27.666,11.376 27.252,4.392 27.252,1.17 L26.028,1.17 L26.028,1.188 Z M43.74,0 L45.522,0.108 C45.468,0.252 45.324,0.342 45.144,0.378 C46.908,2.826 50.166,5.238 52.992,6.462 C52.704,6.75 52.416,7.182 52.218,7.542 C49.356,6.138 46.116,3.672 44.388,1.242 C42.894,3.474 39.888,6.03 36.738,7.614 C36.594,7.362 36.288,6.894 36.036,6.642 C39.204,5.112 42.318,2.412 43.74,0 Z M40.05,6.876 L40.05,5.742 L48.78,5.742 L48.78,6.876 L40.05,6.876 Z M41.904,10.386 C41.346,11.79 40.5,13.554 39.762,14.85 C38.772,14.886 37.89,14.904 37.134,14.904 L37.584,16.344 C37.728,16.326 37.836,16.254 37.872,16.092 C40.752,16.002 45.396,15.804 49.77,15.57 C50.13,16.02 50.418,16.452 50.652,16.83 L51.732,16.146 C50.886,14.778 49.068,12.798 47.376,11.34 L46.35,11.898 C47.25,12.69 48.186,13.662 48.996,14.598 C46.26,14.688 43.47,14.778 41.076,14.832 C41.85,13.5 42.66,11.88 43.2,10.656 C43.434,10.638 43.578,10.584 43.632,10.458 L43.416,10.386 L52.074,10.386 L52.074,9.234 L36.972,9.234 L36.972,10.386 L41.904,10.386 Z M68.526,7.074 L68.526,13.788 L67.248,13.788 L67.248,8.262 L57.69,8.262 L57.69,14.004 L56.412,14.004 L56.412,7.074 L68.526,7.074 Z M57.492,1.206 L67.446,1.206 L67.446,5.724 L57.492,5.724 L57.492,1.206 Z M66.186,4.59 L66.186,2.358 L58.752,2.358 L58.752,4.59 L66.186,4.59 Z M61.974,9.432 L63.288,9.54 C63.036,12.186 62.478,13.968 61.614,14.904 C60.678,16.02 58.536,16.74 55.188,17.046 L54.684,15.876 C57.6,15.696 59.544,15.12 60.498,14.13 C61.326,13.212 61.83,11.646 61.974,9.432 Z M63.756,13.608 C66.096,14.274 68.238,15.084 70.182,16.02 L69.48,17.1 C67.41,16.02 65.286,15.192 63.108,14.58 L63.756,13.608 Z M88.596,11.808 L93.078,11.808 L93.078,12.816 L88.596,12.816 L88.596,15.39 C88.596,16.776 88.02,16.776 84.87,16.776 C84.816,16.452 84.636,16.02 84.456,15.678 C85.176,15.696 85.824,15.714 86.292,15.714 C87.318,15.714 87.39,15.714 87.39,15.372 L87.39,12.816 L76.32,12.816 L76.32,11.808 L87.39,11.808 L87.39,10.71 L78.552,10.71 L78.552,4.302 L82.368,4.302 L82.368,3.06 L76.5,3.06 L76.5,2.07 L81.27,2.07 C80.946,1.566 80.442,0.972 79.974,0.504 L80.964,0.054 C81.576,0.612 82.242,1.404 82.53,1.98 L82.35,2.07 L86.706,2.07 L86.67,2.052 C87.138,1.494 87.732,0.612 88.038,0 L89.442,0.522 C89.388,0.63 89.262,0.684 89.082,0.684 C88.776,1.08 88.344,1.62 87.948,2.07 L92.844,2.07 L92.844,3.06 L86.652,3.06 L86.652,4.302 L90.81,4.302 L90.81,10.71 L88.866,10.71 C88.812,10.764 88.722,10.782 88.596,10.8 L88.596,11.808 Z M85.59,5.13 L83.376,5.13 C83.214,6.102 82.62,7.146 80.856,7.812 C80.73,7.578 80.424,7.218 80.208,7.038 C81.684,6.588 82.17,5.85 82.314,5.13 L79.668,5.13 L79.668,8.01 L89.658,8.01 L89.658,5.13 L86.652,5.13 L86.652,6.012 C86.652,6.354 86.706,6.39 87.03,6.39 L88.11,6.39 C88.38,6.39 88.434,6.3 88.47,5.724 C88.704,5.868 89.064,5.976 89.352,6.03 C89.28,6.912 88.992,7.164 88.272,7.164 L86.886,7.164 C85.842,7.164 85.59,6.948 85.59,6.012 L85.59,5.13 Z M85.59,3.06 L83.43,3.06 L83.43,4.302 L85.59,4.302 L85.59,3.06 Z M89.658,8.802 L79.668,8.802 L79.668,9.864 L89.658,9.864 L89.658,8.802 Z M83.502,15.228 L82.692,16.056 C82.08,15.318 80.802,14.274 79.686,13.59 L80.478,12.852 C81.594,13.5 82.89,14.49 83.502,15.228 Z M108.288,3.996 L108.288,7.614 L97.128,7.614 L97.128,3.996 L108.288,3.996 Z M107.028,4.914 L98.334,4.914 L98.334,6.678 L107.028,6.678 L107.028,4.914 Z M103.23,1.71 L103.23,0.378 C103.482,0.342 103.59,0.252 103.608,0.126 L101.988,0.036 L101.988,1.71 L94.626,1.71 L94.626,2.772 L110.682,2.772 L110.682,1.71 L103.23,1.71 Z M103.266,12.168 L103.266,11.718 C105.282,11.196 107.46,10.35 108.9,9.558 C109.008,9.54 109.152,9.486 109.206,9.396 L108.198,8.73 L107.964,8.802 L96.246,8.802 L96.246,9.81 L106.128,9.81 C105.12,10.242 103.932,10.656 102.816,10.98 L102.006,10.926 L102.006,12.168 L94.5,12.168 L94.5,13.23 L102.006,13.23 L102.006,15.444 C102.006,15.822 101.916,15.822 100.782,15.822 C100.242,15.822 99.522,15.804 98.766,15.786 C98.928,16.074 99.108,16.488 99.18,16.812 C100.836,16.812 101.862,16.812 102.456,16.65 C103.05,16.488 103.266,16.182 103.266,15.48 L103.266,13.23 L110.862,13.23 L110.862,12.168 L103.266,12.168 Z M124.164,3.348 L124.164,5.724 L129.024,5.724 L129.024,6.876 L118.404,6.876 L118.404,5.724 L122.958,5.724 L122.958,3.348 L119.376,3.348 L119.376,2.232 L122.958,2.232 L122.958,0.036 L124.506,0.144 C124.488,0.27 124.398,0.36 124.164,0.396 L124.164,2.232 L127.98,2.232 L127.98,3.348 L124.164,3.348 Z M125.082,7.128 L126.63,7.218 C126.612,7.344 126.504,7.434 126.27,7.47 L126.27,9.234 L128.826,9.234 L128.826,10.35 L126.27,10.35 L126.27,15.318 C126.27,16.038 126.108,16.38 125.586,16.578 C125.064,16.758 124.182,16.776 122.688,16.776 C122.634,16.452 122.472,15.966 122.31,15.642 C122.958,15.66 123.552,15.678 124.002,15.678 C124.92,15.678 125.082,15.678 125.082,15.318 L125.082,10.35 L118.692,10.35 L118.692,9.648 L116.586,10.26 L116.586,16.776 L115.416,16.776 L115.416,10.584 L113.004,11.25 C112.986,11.394 112.896,11.502 112.77,11.538 L112.266,10.134 C113.112,9.954 114.21,9.684 115.416,9.396 L115.416,5.004 L113.814,5.004 C113.616,6.084 113.364,7.092 113.058,7.848 C112.86,7.668 112.482,7.38 112.248,7.236 C112.788,5.796 113.112,3.33 113.31,1.008 L114.696,1.332 C114.642,1.44 114.534,1.53 114.318,1.53 C114.246,2.286 114.138,3.06 114.03,3.834 L115.416,3.834 L115.416,0.072 L116.946,0.162 C116.928,0.288 116.82,0.378 116.586,0.414 L116.586,3.834 L118.89,3.834 L118.89,5.004 L116.586,5.004 L116.586,9.09 C117.378,8.892 118.188,8.694 118.98,8.478 L119.052,9.234 L125.082,9.234 L125.082,7.128 Z M122.688,14.058 L121.698,14.616 C121.32,13.77 120.384,12.51 119.52,11.61 L120.474,11.106 C121.338,11.988 122.292,13.212 122.688,14.058 Z M134.784,5.094 L134.784,7.146 C135.45,7.668 137.268,9.324 137.7,9.756 L136.998,10.854 C136.584,10.278 135.558,9.18 134.784,8.406 L134.784,16.74 L133.578,16.74 L133.578,7.902 C132.84,10.062 131.85,12.15 130.842,13.428 C130.698,13.086 130.374,12.636 130.14,12.348 C131.454,10.71 132.768,7.74 133.416,5.094 L130.482,5.094 L130.482,3.96 L133.578,3.96 L133.578,0.036 L135.126,0.144 C135.108,0.27 135.018,0.36 134.784,0.396 L134.784,3.96 L137.34,3.96 L137.34,5.094 L134.784,5.094 Z M145.764,1.764 L145.962,1.71 L146.736,2.016 C146.7,2.088 146.628,2.178 146.574,2.214 C145.944,6.372 144.594,9.63 142.74,12.096 C143.892,13.5 145.368,14.706 147.24,15.804 C146.916,16.038 146.556,16.47 146.376,16.83 C144.54,15.678 143.118,14.472 141.966,13.086 C140.526,14.724 138.834,15.966 136.998,16.812 C136.818,16.47 136.476,16.002 136.206,15.768 C138.042,14.994 139.752,13.77 141.192,12.06 C139.59,9.774 138.654,7.02 137.97,3.456 L139.068,3.222 C139.68,6.462 140.544,8.982 141.966,11.07 C143.478,8.946 144.63,6.228 145.242,2.934 L137.214,2.934 L137.214,1.764 L145.764,1.764 Z" id="path-7"></path>
        <filter x="-2.0%" y="-17.5%" width="104.1%" height="135.1%" filterUnits="objectBoundingBox" id="filter-8">
            <feOffset dx="0" dy="0" in="SourceAlpha" result="shadowOffsetOuter1"></feOffset>
            <feGaussianBlur stdDeviation="1" in="shadowOffsetOuter1" result="shadowBlurOuter1"></feGaussianBlur>
            <feColorMatrix values="0 0 0 0 0   0 0 0 0 0   0 0 0 0 0  0 0 0 0.5 0" type="matrix" in="shadowBlurOuter1"></feColorMatrix>
        </filter>
        <rect id="path-9" x="0" y="0" width="29" height="29"></rect>
        <rect id="path-11" x="0" y="0" width="29" height="29"></rect>
        <rect id="path-13" x="0" y="0" width="29" height="29"></rect>
        <linearGradient x1="100%" y1="0%" x2="0%" y2="100%" id="linearGradient-15">
            <stop stop-color="#FF6420" offset="0%"></stop>
            <stop stop-color="#FF3C3C" offset="97.9312819%"></stop>
        </linearGradient>
        <rect id="path-16" x="0" y="7" width="2" height="1"></rect>
        <path d="M0,9 L2,9 L2,12 L1,12 C0.44771525,12 0,11.5573397 0,11.0010434 L0,9 Z" id="path-17"></path>
        <rect id="path-18" x="2" y="8" width="1" height="1"></rect>
        <rect id="path-19" x="4" y="7" width="1" height="2"></rect>
        <rect id="path-20" x="3" y="7" width="2" height="1"></rect>
        <rect id="path-21" x="7" y="0" width="3" height="2"></rect>
        <rect id="path-22" x="7" y="2" width="1" height="2"></rect>
        <rect id="path-23" x="10" y="2" width="2" height="2"></rect>
        <rect id="path-24" x="9" y="4" width="3" height="1"></rect>
        <rect id="path-25" x="11" y="0" width="1" height="2"></rect>
        <rect id="path-26" x="3" y="9" width="2" height="1"></rect>
        <rect id="path-27" x="3" y="10" width="2" height="2"></rect>
        <rect id="path-28" x="2" y="2" width="2" height="2"></rect>
        <rect id="path-29" x="8" y="8" width="2" height="2"></rect>
    </defs>
    <g id="会员中心" stroke="none" stroke-width="1" fill="none" fill-rule="evenodd">
        <g id="雪碧图-会员中心与账户设置">
            <g id="图标-积分" stroke="#828282">
                <path d="M6.42857143,2.57142857 L6.42857143,4.71428571 C6.42857143,5.89775304 7.86765616,6.85714286 9.64285714,6.85714286 L9.64285714,6.85714286 C11.4180581,6.85714286 12.8571429,5.89775304 12.8571429,4.71428571 L12.8571429,2.57142857" id="Oval-10"></path>
                <path d="M6.42857143,5.14285714 L6.42857143,7.28571429 C6.42857143,8.46918161 7.86765616,9.42857143 9.64285714,9.42857143 L9.64285714,9.42857143 C11.4180581,9.42857143 12.8571429,8.46918161 12.8571429,7.28571429 L12.8571429,5.14285714" id="Oval-10"></path>
                <path d="M6.42857143,7.71428571 L6.42857143,9.85714286 C6.42857143,11.0406102 7.86765616,12 9.64285714,12 L9.64285714,12 C11.4180581,12 12.8571429,11.0406102 12.8571429,9.85714286 L12.8571429,7.71428571" id="Oval-10"></path>
                <ellipse id="Oval-10" cx="9.64285714" cy="2.14285714" rx="3.21428571" ry="2.14285714"></ellipse>
                <path d="M0,5.14285714 L0,7.28571429 C0,8.46918161 1.43908473,9.42857143 3.21428571,9.42857143 L3.21428571,9.42857143 C4.9894867,9.42857143 6.42857143,8.46918161 6.42857143,7.28571429 L6.42857143,5.14285714" id="Oval-10"></path>
                <path d="M0,7.71428571 L0,9.85714286 C0,11.0406102 1.43908473,12 3.21428571,12 L3.21428571,12 C4.9894867,12 6.42857143,11.0406102 6.42857143,9.85714286 L6.42857143,7.71428571" id="Oval-10"></path>
                <ellipse id="Oval-10" cx="3.21428571" cy="4.71428571" rx="3.21428571" ry="2.14285714"></ellipse>
            </g>
            <g id="图标-余额" transform="translate(0.000000, 22.000000)">
                <rect id="Rectangle-18" stroke="#828282" x="0.5" y="0.5" width="15" height="12" rx="2"></rect>
                <path d="M0.5,2.5 L15.5,2.5" id="Line" stroke="#828282" stroke-linecap="square"></path>
                <polygon id="￥" fill="#828282" points="5.24 4.86 7.4573913 7.965 5.84869565 7.965 5.84869565 8.715 7.76173913 8.715 7.76173913 9.465 5.84869565 9.465 5.84869565 10.215 7.76173913 10.215 7.76173913 10.86 8.71826087 10.86 8.71826087 10.215 10.6421739 10.215 10.6421739 9.465 8.71826087 9.465 8.71826087 8.715 10.6421739 8.715 10.6421739 7.965 9.0226087 7.965 11.24 4.86 10.163913 4.86 8.24 7.61630252 6.31608696 4.86"></polygon>
            </g>
            <g id="图标-账户设置" transform="translate(0.000000, 45.000000)" stroke="#828282">
                <path d="M7.60967704,11.0879743 L7.40394529,11.9109013 C7.32480323,12.2274695 6.97359012,12.5 6.64749905,12.5 L6.35250095,12.5 C6.02662883,12.5 5.6745059,12.2247061 5.59605471,11.9109013 L5.39032296,11.0879743 L5.32412131,10.8231677 L5.06557785,10.7356436 C4.87863986,10.67236 4.69635263,10.5967322 4.51976797,10.5093303 L4.27495505,10.3881583 L4.04072287,10.5286976 L3.31310084,10.9652709 C3.03573398,11.131691 2.59208328,11.0773647 2.36165689,10.8469383 L2.15306173,10.6383431 C1.92248053,10.4077619 1.86684349,9.96670859 2.03472915,9.68689916 L2.47130236,8.95927713 L2.61184167,8.72504495 L2.49066972,8.48023203 C2.40326785,8.30364737 2.32764002,8.12136014 2.26435635,7.93442215 L2.17683227,7.67587869 L1.91202568,7.60967704 L1.08909869,7.40394529 C0.775293913,7.3254941 0.5,6.97337117 0.5,6.64749905 L0.5,6.35250095 C0.5,6.02640988 0.772530455,5.67519677 1.08909869,5.59605471 L1.91202568,5.39032296 L2.17683227,5.32412131 L2.26435635,5.06557785 C2.32764002,4.87863986 2.40326785,4.69635263 2.49066972,4.51976797 L2.61184167,4.27495505 L2.47130236,4.04072287 L2.03472915,3.31310084 C1.86684349,3.03329141 1.92248053,2.5922381 2.15306173,2.36165689 L2.36165689,2.15306173 C2.59208328,1.92263535 3.03573398,1.86830903 3.31310084,2.03472915 L4.04072287,2.47130236 L4.27495505,2.61184167 L4.51976797,2.49066972 C4.69635263,2.40326785 4.87863986,2.32764002 5.06557785,2.26435635 L5.32412131,2.17683227 L5.39032296,1.91202568 L5.59605471,1.08909869 C5.6745059,0.775293913 6.02662883,0.5 6.35250095,0.5 L6.64749905,0.5 C6.97359012,0.5 7.32480323,0.772530455 7.40394529,1.08909869 L7.60967704,1.91202568 L7.67587869,2.17683227 L7.93442215,2.26435635 C8.12136014,2.32764002 8.30364737,2.40326785 8.48023203,2.49066972 L8.72504495,2.61184167 L8.95927713,2.47130236 L9.68689916,2.03472915 C9.96426602,1.86830903 10.4079167,1.92263535 10.6383431,2.15306173 L10.8469383,2.36165689 C11.0775195,2.5922381 11.1331565,3.03329141 10.9652709,3.31310084 L10.5286976,4.04072287 L10.3881583,4.27495505 L10.5093303,4.51976797 C10.5967322,4.69635263 10.67236,4.87863986 10.7356436,5.06557785 L10.8231677,5.32412131 L11.0879743,5.39032296 L11.9109013,5.59605471 C12.2247061,5.6745059 12.5,6.02662883 12.5,6.35250095 L12.5,6.64749905 C12.5,6.97359012 12.2274695,7.32480323 11.9109013,7.40394529 L11.0879743,7.60967704 L10.8231677,7.67587869 L10.7356436,7.93442215 C10.67236,8.12136014 10.5967322,8.30364737 10.5093303,8.48023203 L10.3881583,8.72504495 L10.5286976,8.95927713 L10.9652709,9.68689916 C11.1331565,9.96670859 11.0775195,10.4077619 10.8469383,10.6383431 L10.6383431,10.8469383 C10.4079167,11.0773647 9.96426602,11.131691 9.68689916,10.9652709 L8.95927713,10.5286976 L8.72504495,10.3881583 L8.48023203,10.5093303 C8.30364737,10.5967322 8.12136014,10.67236 7.93442215,10.7356436 L7.67587869,10.8231677 L7.60967704,11.0879743 Z M6.5,8.91176471 C7.83198087,8.91176471 8.91176471,7.83198087 8.91176471,6.5 C8.91176471,5.16801913 7.83198087,4.08823529 6.5,4.08823529 C5.16801913,4.08823529 4.08823529,5.16801913 4.08823529,6.5 C4.08823529,7.83198087 5.16801913,8.91176471 6.5,8.91176471 Z" id="Combined-Shape"></path>
            </g>
            <g id="图标-活动中心" transform="translate(0.000000, 68.000000)">
                <ellipse id="Oval-2" stroke="#828282" cx="9.75" cy="7.17857143" rx="2.75" ry="2.75"></ellipse>
                <g id="Oval-2">
                    <use fill="#FFFFFF" fill-rule="evenodd" xlink:href="#path-1"></use>
                    <circle stroke="#828282" stroke-width="1" cx="5.57142857" cy="4.64285714" r="4.14285714"></circle>
                </g>
                <g id="Oval-2">
                    <use fill="#FFFFFF" fill-rule="evenodd" xlink:href="#path-2"></use>
                    <circle stroke="#828282" stroke-width="1" cx="1.85714286" cy="9.35714286" r="1.35714286"></circle>
                </g>
            </g>
            <g id="图标-我的优惠券" transform="translate(0.000000, 90.000000)" stroke="#828282">
                <path d="M4.41666667,5.5 L8.58333333,5.5" id="Line" stroke-linecap="square"></path>
                <path d="M4.41666667,7.5 L8.58333333,7.5" id="Line" stroke-linecap="square"></path>
                <path d="M6.5,5 L6.5,9" id="Line" stroke-linecap="square"></path>
                <polyline id="Line" stroke-linecap="square" points="5 3 6.5 5 8 3"></polyline>
                <path d="M12.5,8.23251925 L12.5,10.9975267 C12.5,11.2752899 12.2761111,11.5 12.0014977,11.5 L0.998502329,11.5 C0.726545348,11.5 0.5,11.2714663 0.5,10.9975267 L0.5,8.23251925 C1.10707752,7.88196185 1.5,7.2283567 1.5,6.5 C1.5,5.7716433 1.10707752,5.11803815 0.5,4.76748075 L0.5,1.00247329 C0.5,0.72471012 0.72388886,0.5 0.998502329,0.5 L12.0014977,0.5 C12.2734547,0.5 12.5,0.72853368 12.5,1.00247329 L12.5,4.76748075 C11.8929225,5.11803815 11.5,5.7716433 11.5,6.5 C11.5,7.2283567 11.8929225,7.88196185 12.5,8.23251925 Z" id="Combined-Shape"></path>
            </g>
            <g id="图标-双箭头" transform="translate(0.000000, 112.000000)" fill="#333333">
                <path d="M1.94801402,2.04178457 L0.489740644,0.0974200708 C0.409022714,-0.0102038363 0.256341488,-0.0320154401 0.148717581,0.0487024902 L0.1,0.389725554 L1.45191286,2.19227603 L0.1,3.99482651 L0.148717581,4.33584958 C0.256341488,4.41656751 0.409022714,4.3947559 0.489740644,4.287132 L1.94801402,2.3427675 C1.98184156,2.29975208 1.99959901,2.24711252 1.99999326,2.19390055 C1.99959901,2.13743954 1.98184156,2.08479998 1.94801402,2.04178457 Z" id="Combined-Shape"></path>
                <path d="M3.94801402,2.04178457 L2.48974064,0.0974200708 C2.40902271,-0.0102038363 2.25634149,-0.0320154401 2.14871758,0.0487024902 L2.1,0.389725554 L3.45191286,2.19227603 L2.1,3.99482651 L2.14871758,4.33584958 C2.25634149,4.41656751 2.40902271,4.3947559 2.48974064,4.287132 L3.94801402,2.3427675 C3.98184156,2.29975208 3.99959901,2.24711252 3.99999326,2.19390055 C3.99959901,2.13743954 3.98184156,2.08479998 3.94801402,2.04178457 Z" id="Combined-Shape"></path>
            </g>
            <g id="图标-充值有礼" transform="translate(0.000000, 127.000000)">
                <rect id="Rectangle" fill="#E75040" x="0" y="0" width="34" height="11" rx="5.5"></rect>
                <path d="M7.14160606,3.072 C7.02260606,2.813 6.77760606,2.421 6.55360606,2.12 L6.04260606,2.274 C6.25260606,2.575 6.49760606,2.995 6.60260606,3.254 L7.14160606,3.072 Z M7.94660606,7.874 C7.66660606,7.874 7.61760606,7.832 7.61760606,7.608 L7.61760606,5.592 L8.59760606,5.536 C8.75860606,5.718 8.89860606,5.879 9.00360606,6.026 L9.45860606,5.725 C9.08760606,5.228 8.31060606,4.507 7.66660606,4.017 L7.24660606,4.269 C7.54060606,4.507 7.86960606,4.794 8.16360606,5.088 L4.88060606,5.235 C5.32160606,4.815 5.77660606,4.304 6.18260606,3.765 L9.58460606,3.765 L9.58460606,3.261 L3.55060606,3.261 L3.55060606,3.765 L5.48260606,3.765 C5.07660606,4.325 4.60760606,4.829 4.43960606,4.983 C4.25060606,5.165 4.09660606,5.298 3.95660606,5.319 C4.01960606,5.466 4.10360606,5.739 4.13860606,5.851 C4.29960606,5.802 4.49560606,5.774 5.46860606,5.711 C5.34260606,6.915 5.00660606,7.678 3.47360606,8.091 C3.59260606,8.196 3.74660606,8.413 3.80260606,8.546 C5.49660606,8.049 5.89560606,7.111 6.02860606,5.676 L7.06460606,5.62 L7.06460606,7.615 C7.06460606,8.196 7.23960606,8.371 7.88360606,8.371 L8.93360606,8.371 C9.52860606,8.371 9.68260606,8.084 9.73860606,7.006 C9.59160606,6.964 9.36760606,6.873 9.24860606,6.768 C9.21360606,7.713 9.16460606,7.874 8.89160606,7.874 L7.94660606,7.874 Z M11.9226061,2.155 L12.3916061,2.302 C12.2026061,2.848 11.9576061,3.394 11.6776061,3.898 L11.6776061,8.532 L11.1946061,8.532 L11.1946061,4.675 C11.0056061,4.955 10.8026061,5.207 10.5996061,5.438 C10.5506061,5.319 10.3966061,5.053 10.3126061,4.927 C10.9566061,4.248 11.5586061,3.212 11.9226061,2.155 Z M13.2106061,7.307 L13.2106061,7.881 L15.6396061,7.881 L15.6396061,7.307 L13.2106061,7.307 Z M15.6396061,4.374 L13.2106061,4.374 L13.2106061,4.962 L15.6396061,4.962 L15.6396061,4.374 Z M15.6396061,5.942 L15.6396061,5.347 L13.2106061,5.347 L13.2106061,5.942 L15.6396061,5.942 Z M13.2106061,6.32 L13.2106061,6.922 L15.6396061,6.922 L15.6396061,6.32 L13.2106061,6.32 Z M16.1226061,7.881 L16.7456061,7.881 L16.7456061,8.329 L12.0766061,8.329 L12.0766061,7.881 L12.7416061,7.881 L12.7416061,3.968 L13.9456061,3.968 C13.9876061,3.779 14.0296061,3.548 14.0786061,3.317 L12.3706061,3.317 L12.3706061,2.862 L14.1556061,2.862 C14.1906061,2.61 14.2256061,2.358 14.2466061,2.148 L14.7996061,2.183 C14.7576061,2.393 14.7156061,2.631 14.6666061,2.862 L16.5356061,2.862 L16.5356061,3.317 L14.5756061,3.317 C14.5196061,3.548 14.4706061,3.779 14.4146061,3.968 L16.1226061,3.968 L16.1226061,7.881 Z M22.2896061,5.522 L22.2896061,4.815 L19.3706061,4.815 L19.3706061,5.522 L22.2896061,5.522 Z M19.3706061,6.705 L22.2896061,6.705 L22.2896061,5.977 L19.3706061,5.977 L19.3706061,6.705 Z M23.6196061,3.534 L19.8536061,3.534 C19.7206061,3.807 19.5806061,4.087 19.4266061,4.346 L22.8006061,4.346 L22.8006061,7.881 C22.8006061,8.196 22.7306061,8.35 22.5066061,8.434 C22.2756061,8.518 21.8836061,8.525 21.2886061,8.525 C21.2676061,8.371 21.1906061,8.161 21.1206061,8.014 C21.5826061,8.035 22.0026061,8.028 22.1286061,8.028 C22.2476061,8.021 22.2896061,7.986 22.2896061,7.881 L22.2896061,7.153 L19.3706061,7.153 L19.3706061,8.532 L18.8596061,8.532 L18.8596061,5.158 C18.5236061,5.578 18.1316061,5.956 17.6906061,6.264 C17.6276061,6.159 17.4666061,5.963 17.3616061,5.865 C18.2016061,5.298 18.8386061,4.458 19.2866061,3.534 L17.5296061,3.534 L17.5296061,3.044 L19.5036061,3.044 C19.6226061,2.743 19.7276061,2.442 19.8116061,2.141 L20.3296061,2.267 C20.2456061,2.526 20.1616061,2.792 20.0566061,3.044 L23.6196061,3.044 L23.6196061,3.534 Z M26.8886061,3.324 L26.7906061,3.345 L26.0976061,3.345 L26.4896061,3.093 C26.3566061,2.827 26.0486061,2.428 25.7686061,2.134 L25.3626061,2.372 C25.6286061,2.659 25.9226061,3.072 26.0556061,3.345 L24.5926061,3.345 L24.5926061,3.821 L26.5176061,3.821 C26.0276061,4.731 25.1666061,5.578 24.3336061,6.054 C24.4106061,6.159 24.5156061,6.411 24.5576061,6.551 C24.9356061,6.313 25.3276061,6.005 25.6986061,5.634 L25.6986061,8.525 L26.2026061,8.525 L26.2026061,5.536 C26.5106061,5.879 26.9026061,6.334 27.0776061,6.572 L27.3996061,6.145 C27.2246061,5.963 26.5876061,5.284 26.2796061,4.997 C26.6436061,4.549 26.9516061,4.045 27.1686061,3.527 L26.8886061,3.324 Z M28.8346061,7.874 C28.5266061,7.874 28.4706061,7.811 28.4706061,7.447 L28.4706061,2.211 L27.9596061,2.211 L27.9596061,7.433 C27.9596061,8.147 28.1346061,8.35 28.7856061,8.35 L29.9056061,8.35 C30.5426061,8.35 30.6826061,7.958 30.7456061,6.817 C30.5986061,6.782 30.4026061,6.691 30.2696061,6.586 C30.2276061,7.622 30.1786061,7.874 29.8776061,7.874 L28.8346061,7.874 Z" id="充值有礼" fill="#FFFFFF"></path>
            </g>
            <g id="图标-右箭头" transform="translate(0.000000, 148.000000)" fill="#797979">
                <path d="M5.26321404,5.51733239 C5.38746629,5.26156454 5.33248633,4.90782191 5.12147371,4.68429067 L0.871549296,0.18223355 C0.636832452,-0.0664081993 0.297940376,-0.0597850599 0.11461266,0.197026746 C-0.0687150572,0.453838551 -0.0270559382,0.863589617 0.207660906,1.11223137 L4.3666005,5.51790587 L0.207405348,9.92539346 C-0.0273440673,10.1741568 -0.069047193,10.5840721 0.11425881,10.8409649 C0.297564813,11.0978578 0.63646569,11.104448 0.871215105,10.8556847 L5.12172927,6.35142665 C5.33296719,6.12757841 5.38789172,5.77324221 5.26321404,5.51733239 Z" id="Combined-Shape"></path>
            </g>
            <g id="图标-立即激活" transform="translate(5.000000, 174.000000)">
                <g id="Rectangle-6">
                    <use fill="black" fill-opacity="1" filter="url(#filter-6)" xlink:href="#path-5"></use>
                    <use fill="url(#linearGradient-4)" fill-rule="evenodd" xlink:href="#path-5"></use>
                </g>
                <path d="M7.165775,8.33182644 L7.165775,9.59971307 L17.8205412,9.59971307 L17.8205412,8.33182644 L13.229054,8.33182644 C13.0529421,7.65394645 12.8894097,7.03883314 12.7132979,6.48648649 L11.178609,6.73755315 C11.3924591,7.23968647 11.5811504,7.76692645 11.7572622,8.33182644 L7.165775,8.33182644 Z M6.73807483,16.1651062 L12.9019891,16.1651062 C13.6190159,14.5331729 14.2479867,12.5246397 14.8014811,10.1143997 L16.1977964,10.4909997 C15.7197785,12.612513 15.1285459,14.5080663 14.4240986,16.1651062 L18.2482413,16.1651062 L18.2482413,17.4329928 L6.73807483,17.4329928 L6.73807483,16.1651062 Z M10.1848351,10.0892931 C10.7383294,11.708673 11.2163473,13.5665663 11.6440474,15.6504196 L10.2225733,16.0019129 C9.84519081,14.1189129 9.37975238,12.2986797 8.80109921,10.5537664 L10.1848351,10.0892931 Z M22.7211225,10.465893 L22.7211225,11.8090997 L25.2118471,11.8090997 L25.2118471,10.465893 L22.7211225,10.465893 Z M25.2118471,9.29843308 L25.2118471,8.03054644 L22.7211225,8.03054644 L22.7211225,9.29843308 L25.2118471,9.29843308 Z M21.3373867,17.7342728 L20.8845277,16.4789395 C21.2493308,16.3534062 21.438022,16.1274462 21.438022,15.8136129 L21.438022,6.85053314 L26.44463,6.85053314 L26.44463,13.026773 L22.7211225,13.026773 L22.7211225,16.0521262 C23.6016817,15.8010596 24.394185,15.5248862 25.1237912,15.2487129 C24.9350999,14.9223263 24.7464087,14.6084929 24.545138,14.2946596 L25.5389119,13.666993 C26.3062564,14.8470063 26.897489,15.8763796 27.3126097,16.7551129 L26.293677,17.4706528 C26.1175651,17.0940529 25.9414533,16.7174529 25.7401826,16.3408529 C24.4445027,16.8680929 22.9727109,17.3325662 21.3373867,17.7342728 Z M30.6587346,16.3659595 C31.5896115,16.3659595 32.0676293,15.8889329 32.0676293,14.9348796 L32.0676293,6.87563981 L27.6774128,6.87563981 L27.6774128,18.0481062 L28.9856722,18.0481062 L28.9856722,8.10586644 L30.75937,8.10586644 L30.75937,14.6335996 C30.75937,14.9725396 30.5706787,15.1482862 30.218455,15.1482862 L29.3504753,15.0980729 L29.702699,16.3659595 L30.6587346,16.3659595 Z M9.64392014,21.8248661 L10.8263853,21.8248661 C10.9521795,21.4859261 11.0402354,21.1344327 11.0905531,20.7829394 L12.3736536,20.9586861 C12.2981771,21.2599661 12.2101212,21.5486927 12.1094859,21.8248661 L13.6315953,21.8248661 L13.6315953,24.8251126 C14.2102485,23.7204193 14.6253693,22.3772127 14.8517988,20.7954928 L16.0720022,21.0214527 C15.9587874,21.6993327 15.8204139,22.3395527 15.6568814,22.9421127 L18.1727648,22.9421127 L18.1727648,24.1723393 L17.5563734,24.1723393 C17.4934763,26.1306593 17.1664115,27.8128059 16.5877583,29.2062259 C17.1035144,30.0598525 17.7073264,30.7251791 18.4117738,31.2147591 L17.6570087,32.3320058 C17.0280379,31.8424258 16.4619641,31.2022058 15.9713669,30.4113458 C15.493349,31.1896525 14.9146958,31.8424258 14.2354073,32.3947724 L13.5183806,31.2524191 C14.2479867,30.7126258 14.8266399,30.0096392 15.2794989,29.1434592 C14.8643782,28.2647259 14.5121545,27.2479059 14.2228279,26.1181059 C14.1096132,26.2812993 13.9963984,26.4319393 13.8831837,26.5825793 L13.380007,25.9674659 L11.8956358,25.9674659 L12.2101212,26.7834326 L13.9209219,26.7834326 L13.9209219,27.8881259 L11.5308327,27.8881259 C11.4930944,28.1391926 11.4553562,28.3651525 11.4176179,28.5785592 L13.6064365,28.5785592 C13.6064365,30.2858125 13.4932217,31.3402925 13.2793716,31.7168925 C13.078101,32.0809391 12.7007185,32.2692391 12.1723829,32.2943458 L11.3924591,32.2943458 L11.0653943,31.1770991 L11.8453181,31.1770991 C12.0591682,31.1645458 12.1975418,31.0766725 12.2478594,30.9009258 C12.2981771,30.7126258 12.323336,30.2858125 12.3359154,29.6330392 L11.2037678,29.6330392 C11.1282913,29.9343192 11.0528148,30.1979392 10.9647589,30.4364525 C10.6628529,31.1770991 10.2099939,31.8424258 9.60618189,32.4324324 L8.80109921,31.3905058 C9.27911705,30.9260325 9.64392014,30.4113458 9.89550848,29.8338925 C10.0841997,29.3317592 10.2351527,28.6915392 10.3483675,27.8881259 L9.22879938,27.8881259 L9.22879938,26.7834326 L10.9773383,26.7834326 L10.6754323,25.9674659 L9.64392014,25.9674659 L9.64392014,21.8248661 Z M14.9650135,24.8125593 C15.191443,25.9046993 15.493349,26.8713059 15.8455727,27.7249326 C16.1600581,26.6955593 16.33617,25.5029926 16.3864876,24.1723393 L15.2417607,24.1723393 C15.1411253,24.3982993 15.0530694,24.611706 14.9650135,24.8125593 Z M12.4994478,25.025966 L12.4994478,24.385746 L10.7760677,24.385746 L10.7760677,25.025966 L12.4994478,25.025966 Z M10.7760677,23.4567993 L12.4994478,23.4567993 L12.4994478,22.7538127 L10.7760677,22.7538127 L10.7760677,23.4567993 Z M7.55573693,20.9837928 C8.31050194,21.5486927 8.95205221,22.1135927 9.48038772,22.691046 L8.63756678,23.519566 C8.18470777,22.9797727 7.54315751,22.4023194 6.71291599,21.7872061 L7.55573693,20.9837928 Z M7.36704567,24.009146 C8.07149302,24.5991527 8.67530504,25.1891593 9.1659023,25.7917193 L8.28534311,26.6704526 C7.85764293,26.0929993 7.26641034,25.4904393 6.48648649,24.837666 L7.36704567,24.009146 Z M8.17212836,27.7625926 L9.27911705,28.2019592 C8.82625804,29.6581458 8.33566078,31.0264591 7.79474585,32.3068991 L6.66259832,31.8173191 C7.2412515,30.4992192 7.74442818,29.1434592 8.17212836,27.7625926 Z M24.1803349,24.3355327 L27.6270952,24.3355327 L27.6270952,22.766366 C26.746536,22.841686 25.8030797,22.879346 24.8093058,22.879346 L24.4067644,21.6993327 C27.1239185,21.6993327 29.4133724,21.3980527 31.2877055,20.8080461 L31.9418352,21.9127394 C31.0864348,22.2140194 30.0926609,22.4525327 28.9605134,22.615726 L28.9605134,24.3355327 L32.4324324,24.3355327 L32.4324324,25.590866 L28.9605134,25.590866 L28.9605134,27.0847126 L31.7028262,27.0847126 L31.7028262,32.4198791 L30.4071463,32.4198791 L30.4071463,31.8298724 L26.2810975,31.8298724 L26.2810975,32.4198791 L24.9854176,32.4198791 L24.9854176,27.0847126 L27.6270952,27.0847126 L27.6270952,25.590866 L24.1803349,25.590866 L24.1803349,24.3355327 Z M26.2810975,30.5996458 L30.4071463,30.5996458 L30.4071463,28.3149392 L26.2810975,28.3149392 L26.2810975,30.5996458 Z M22.1173105,20.9084728 C22.9475521,21.4482661 23.6645788,22.0006127 24.2558114,22.5529594 L23.3626728,23.4316927 C22.8594961,22.917006 22.1550488,22.352106 21.2241719,21.7495461 L22.1173105,20.9084728 Z M21.8279839,23.896166 L20.9096865,24.7874526 C21.8405634,25.4527793 22.5701695,26.0678926 23.0859256,26.6453459 L23.9916437,25.741506 C23.4129905,25.1263926 22.6833843,24.5112793 21.8279839,23.896166 Z M22.9475521,27.2855659 C22.431796,28.7919659 21.8154045,30.2607058 21.1109572,31.6917858 L22.431796,32.2692391 C23.0607668,30.8632658 23.6268406,29.3568659 24.1425967,27.7625926 L22.9475521,27.2855659 Z" id="立即-激活" fill="#85666A"></path>
            </g>
            <g id="图标-卡片文字" transform="translate(0.000000, 234.000000)">
                <g id="加入会员-尊享特权">
                    <use fill="black" fill-opacity="1" filter="url(#filter-8)" xlink:href="#path-7"></use>
                    <use fill="#FFFFFF" fill-rule="evenodd" xlink:href="#path-7"></use>
                </g>
            </g>
            <g id="图标-核销中" transform="translate(0.000000, 267.000000)">
                <mask id="mask-10" fill="white">
                    <use xlink:href="#path-9"></use>
                </mask>
                <g id="Rectangle-5"></g>
                <polygon id="Rectangle-6" fill="#EE9613" mask="url(#mask-10)" transform="translate(10.250000, 10.250000) rotate(45.000000) translate(-10.250000, -10.250000) " points="4.23959236 18.7352814 4.23959236 1.76471863 16.2604076 -10.2560967 16.2604076 30.7560967"></polygon>
                <text id="核销中" mask="url(#mask-10)" transform="translate(10.109925, 9.894824) rotate(-45.000000) translate(-10.109925, -9.894824) " font-family=".PingFangSC-Regular, .PingFang SC" font-size="7" font-weight="normal" fill="#FFFFFF">
                    <tspan x="-0.890075438" y="12.8948244">核销中</tspan>
                </text>
            </g>
            <g id="图标-待使用" transform="translate(0.000000, 306.000000)">
                <mask id="mask-12" fill="white">
                    <use xlink:href="#path-11"></use>
                </mask>
                <g id="Rectangle-5"></g>
                <polygon id="Rectangle-6" fill="#E75040" mask="url(#mask-12)" transform="translate(10.250000, 10.250000) rotate(45.000000) translate(-10.250000, -10.250000) " points="4.23959236 18.7352814 4.23959236 1.76471863 16.2604076 -10.2560967 16.2604076 30.7560967"></polygon>
                <text id="待使用" mask="url(#mask-12)" transform="translate(10.109925, 9.894824) rotate(-45.000000) translate(-10.109925, -9.894824) " font-family=".PingFangSC-Regular, .PingFang SC" font-size="7" font-weight="normal" fill="#FFFFFF">
                    <tspan x="-0.890075438" y="12.8948244">待使用</tspan>
                </text>
            </g>
            <g id="图标-待使用" transform="translate(0.000000, 345.000000)">
                <mask id="mask-14" fill="white">
                    <use xlink:href="#path-13"></use>
                </mask>
                <g id="Rectangle-5"></g>
                <polygon id="Rectangle-6" fill="#818181" mask="url(#mask-14)" transform="translate(10.250000, 10.250000) rotate(45.000000) translate(-10.250000, -10.250000) " points="4.23959236 18.7352814 4.23959236 1.76471863 16.2604076 -10.2560967 16.2604076 30.7560967"></polygon>
                <text id="不可用" mask="url(#mask-14)" transform="translate(10.109925, 9.894824) rotate(-45.000000) translate(-10.109925, -9.894824) " font-family=".PingFangSC-Regular, .PingFang SC" font-size="7" font-weight="normal" fill="#FFFFFF">
                    <tspan x="-0.890075438" y="12.8948244">不可用</tspan>
                </text>
            </g>
            <circle id="Oval-6" fill="#F3B4B4" cx="2" cy="386" r="2"></circle>
            <circle id="Oval-15" fill="#FF0000" cx="2" cy="400" r="2"></circle>
            <rect id="Combined-Shape" fill="url(#linearGradient-15)" x="0" y="412" width="184" height="20" rx="3"></rect>
            <g id="买单记录" transform="translate(0.000000, 442.000000)" stroke="#FFFFFF">
                <path d="M0.5,1.00247329 C0.5,0.727885113 0.728974589,0.5 1.00247329,0.5 L10.9975267,0.5 C11.2721149,0.5 11.5,0.728974589 11.5,1.00247329 L11.5,10.9975267 C11.5,11.2721149 11.2710254,11.5 10.9975267,11.5 L1.00247329,11.5 C0.727885113,11.5 0.5,11.2710254 0.5,10.9975267 L0.5,1.00247329 Z" id="Rectangle-3"></path>
                <path d="M0.5,5.5 L11.5,5.5" id="Line" stroke-linecap="square"></path>
                <path d="M5.5,1.5 L5.5,11.5" id="Line" stroke-linecap="square"></path>
                <g id="Group" transform="translate(2.000000, 2.000000)">
                    <path d="M3.43406258,3.08820515 C3.37857324,3.13761424 1.53485292,3.07030895 0.409893068,2.0607296 C-0.126359468,1.57986637 -0.138497763,0.81305292 0.385616478,0.345028273 C0.909730719,-0.122607326 1.77241669,-0.114437319 2.30866923,0.366814957 C3.43362907,1.37678335 3.44663439,3.07692276 3.43406258,3.08820515 L3.43406258,3.08820515 Z" id="Path"></path>
                    <path d="M4.58322441,0.367292147 C5.11908392,-0.113607414 5.97793319,-0.123723425 6.5007864,0.345503818 C7.02363961,0.81473106 7.01280103,1.58510414 6.47650797,2.06639278 C5.34972895,3.07721565 3.51714145,3.13479909 3.46208145,3.08538627 C3.44950869,3.07410303 3.4716194,1.36449731 4.58322441,0.367292147 L4.58322441,0.367292147 Z" id="Path"></path>
                    <path d="M3.79565208,3.10749126 C3.79565208,3.10749126 1.73013475,2.93315881 1.73013475,5.74537018" id="Path-6" stroke-linecap="round"></path>
                    <path d="M2.80629646,3.10749126 C2.80629646,3.10749126 4.87181378,2.93315881 4.87181378,5.74537018" id="Path-6" stroke-linecap="round"></path>
                </g>
            </g>
            <g id="买单记录" transform="translate(-2.000000, 508.000000)" fill="#828282">
                <path d="M9.46153846,1 L12.121413,1 L14.5384615,1 C14.7936923,1 15,1.2235 15,1.5 C15,1.7765 14.7936923,2 14.5384615,2 L9.46153846,2 C9.20630769,2 9,1.7765 9,1.5 C9,1.2235 9.20630769,1 9.46153846,1 Z M9.38461538,3 L13.6153846,3 C13.8280769,3 14,3.2235 14,3.5 C14,3.7765 13.8280769,4 13.6153846,4 L9.38461538,4 C9.17192308,4 9,3.7765 9,3.5 C9,3.2235 9.17192308,3 9.38461538,3 Z M12.7692308,5 C13.067,5 13.3076923,5.2235 13.3076923,5.5 C13.3076923,5.7765 13.067,6 12.7692308,6 L9.53846154,6 C9.24069231,6 9,5.7765 9,5.5 C9,5.2235 9.24069231,5 9.53846154,5 L12.7692308,5 Z" id="Combined-Shape"></path>
                <path d="M11.7059137,8.74858277 C11.6775814,8.6633243 11.4976494,8.53779036 11.1661178,8.37215529 C11.0763261,8.32002383 10.9483512,8.24906228 10.7828034,8.15909629 C10.6169939,8.06913029 10.4666147,7.98622559 10.3317529,7.91038216 C10.1967167,7.83471309 10.0700495,7.76122342 9.9517512,7.69034905 C9.93283393,7.6761393 9.87364119,7.63473054 9.77417297,7.56603557 C9.67470476,7.49742779 9.59075393,7.4465168 9.52197179,7.41330261 C9.453364,7.38017559 9.38588951,7.36361209 9.3195483,7.36361209 C9.22487479,7.36361209 9.10657648,7.43108658 8.9645662,7.56603557 C8.82255593,7.70098456 8.69231446,7.84770236 8.57401615,8.0064505 C8.45563067,8.16511146 8.3301839,8.31182926 8.19767584,8.44677825 C8.06508061,8.58181441 7.95611018,8.64920173 7.87093888,8.64920173 C7.82830965,8.64920173 7.77495772,8.63734575 7.71105745,8.61380814 C7.64724436,8.59018334 7.59868714,8.56987125 7.56538577,8.5534821 C7.53234593,8.53683142 7.47559413,8.50379158 7.39504318,8.45392671 C7.31440506,8.40423619 7.26950924,8.37694999 7.26009419,8.37215529 C6.61141496,8.01229131 6.05505549,7.60029588 5.59101578,7.13634334 C5.12706324,6.67230362 4.7150678,6.11594415 4.35520383,5.46726493 C4.3504963,5.4577627 4.3232101,5.41277971 4.27351958,5.33231593 C4.22374189,5.25176499 4.19061487,5.19501318 4.17405137,5.16179899 C4.15748786,5.12867198 4.13735012,5.08011475 4.11372533,5.01621449 C4.09010054,4.95231422 4.07824456,4.89904947 4.07824456,4.85642023 C4.07824456,4.77124894 4.14571905,4.6622785 4.28066805,4.52968327 C4.41561704,4.39717522 4.56242201,4.27164127 4.72099579,4.15334296 C4.87965675,4.03504466 5.02637455,3.90480319 5.16132354,3.76279291 C5.29627253,3.62069546 5.36374703,3.50239715 5.36374703,3.40772364 C5.36374703,3.34146961 5.34718352,3.27390794 5.31405651,3.20530015 C5.2809295,3.13651801 5.23001851,3.05256718 5.16132354,2.95309897 C5.09262858,2.85363075 5.05121981,2.79452518 5.03701007,2.77552074 C4.96604852,2.65722243 4.8927332,2.53055519 4.81688978,2.3956062 C4.74104635,2.26065721 4.65822882,2.11027801 4.56826283,1.94455576 C4.47829683,1.7789207 4.40733528,1.65103299 4.35520383,1.56106699 C4.18948158,1.22970968 4.06403481,1.04969052 3.97877634,1.02135821 C3.94564933,1.00714846 3.89587163,1 3.82961761,1 C3.7017299,1 3.53487436,1.02362479 3.32887665,1.07104873 C3.12287893,1.11838548 2.96073092,1.168076 2.84234543,1.22020746 C2.60557446,1.3195885 2.35468092,1.60840375 2.08949047,2.08656604 C1.84801197,2.53160131 1.72727273,2.97201623 1.72727273,3.40763646 C1.72727273,3.53534981 1.73555448,3.65966329 1.75211799,3.78048971 C1.76868149,3.90122896 1.79832145,4.03739842 1.84095069,4.18891092 C1.88357992,4.34042341 1.91792741,4.45296808 1.94390596,4.52628339 C1.96988451,4.59959871 2.01844174,4.73097347 2.08949047,4.92040768 C2.16045201,5.10984189 2.20308125,5.22578643 2.217291,5.26841567 C2.38301324,5.73245539 2.57950873,6.1467174 2.80677748,6.51137608 C3.18067685,7.11742607 3.69092003,7.74370098 4.3372455,8.39002644 C4.98357096,9.03635191 5.60975869,9.54659509 6.21589586,9.92066881 C6.58046736,10.1478504 6.99490373,10.3444331 7.45885627,10.5102425 C7.50148551,10.524365 7.61751723,10.5669943 7.80686426,10.6381302 C7.9962113,10.7090917 8.12767323,10.757649 8.20098855,10.7837147 C8.27430386,10.8097804 8.38684853,10.8441279 8.53827385,10.8867571 C8.6899607,10.9293864 8.82604298,10.9590263 8.94678223,10.975677 C9.06752147,10.9920662 9.19183495,11.0005223 9.31963548,11.0005223 C9.75516853,11.0005223 10.1955835,10.8796958 10.6407059,10.6383045 C11.118781,10.3731141 11.4075963,10.1221334 11.5070645,9.88527521 C11.5592831,9.76706408 11.6088865,9.60482889 11.6562232,9.39883118 C11.7036471,9.19292063 11.7272719,9.0260651 11.7272719,8.89817739 C11.7273591,8.83166184 11.7202107,8.78197132 11.7059137,8.74858277 L11.7059137,8.74858277 Z" id="Shape" transform="translate(6.727273, 6.000261) rotate(10.000000) translate(-6.727273, -6.000261) "></path>
            </g>
            <g id="male" transform="translate(0.000000, 529.000000)">
                <path d="M5.3965116,8.02345628 L4.00282015,6.9361843 C3.66215702,6.9361843 3.38599499,7.20743679 3.38599499,7.54204369 C3.38599499,7.87665058 5.65933687,9.84103442 6,9.84103442 C6.34066313,9.84103442 8.61400498,7.87010074 8.61400498,7.53549386 C8.61400498,7.20088697 8.33784297,6.92963449 7.99717985,6.92963447 L6.61682516,8.02345628 L6.61682516,4.51929661 C8.36086251,4.20590088 9.57371814,2.63781528 9.41352896,0.903473894 C9.25333977,-0.830867491 7.77298356,-2.15896558 6,-2.15896558 C4.22701644,-2.15896558 2.74666023,-0.830867491 2.58647104,0.903473894 C2.42628186,2.63781528 3.63913749,4.20590088 5.38317484,4.51929661 L5.3965116,8.02345628 Z M6.00350439,-0.943202268 C7.21522038,-0.943202268 8.19751028,0.0216246969 8.19751028,1.21179907 C8.19751028,2.40197345 7.21522038,3.36680042 6.00350439,3.36680042 C4.79178839,3.36680042 3.80949849,2.40197345 3.80949849,1.21179907 C3.80949849,0.0216246969 4.79178839,-0.943202268 6.00350439,-0.943202268 L6.00350439,-0.943202268 Z" id="Shape" fill="#828282" transform="translate(6.000000, 3.841034) rotate(90.000000) translate(-6.000000, -3.841034) "></path>
                <path d="M6.5,9.5 L10.5,9.5" id="Line" stroke="#828282" stroke-linecap="square"></path>
                <path d="M8.5,7.5 L8.5,11.5" id="Line" stroke="#828282" stroke-linecap="square"></path>
            </g>
            <g id="生日" transform="translate(0.000000, 552.000000)" stroke="#828282">
                <path d="M0.5,1.00247329 C0.5,0.727885113 0.728974589,0.5 1.00247329,0.5 L10.9975267,0.5 C11.2721149,0.5 11.5,0.728974589 11.5,1.00247329 L11.5,10.9975267 C11.5,11.2721149 11.2710254,11.5 10.9975267,11.5 L1.00247329,11.5 C0.727885113,11.5 0.5,11.2710254 0.5,10.9975267 L0.5,1.00247329 Z" id="Rectangle-3"></path>
                <path d="M0.5,5.5 L11.5,5.5" id="Line" stroke-linecap="square"></path>
                <path d="M5.5,1.5 L5.5,11.5" id="Line" stroke-linecap="square"></path>
                <g id="Group" transform="translate(2.000000, 2.000000)">
                    <path d="M3.43406258,3.08820515 C3.37857324,3.13761424 1.53485292,3.07030895 0.409893068,2.0607296 C-0.126359468,1.57986637 -0.138497763,0.81305292 0.385616478,0.345028273 C0.909730719,-0.122607326 1.77241669,-0.114437319 2.30866923,0.366814957 C3.43362907,1.37678335 3.44663439,3.07692276 3.43406258,3.08820515 L3.43406258,3.08820515 Z" id="Path"></path>
                    <path d="M4.58322441,0.367292147 C5.11908392,-0.113607414 5.97793319,-0.123723425 6.5007864,0.345503818 C7.02363961,0.81473106 7.01280103,1.58510414 6.47650797,2.06639278 C5.34972895,3.07721565 3.51714145,3.13479909 3.46208145,3.08538627 C3.44950869,3.07410303 3.4716194,1.36449731 4.58322441,0.367292147 L4.58322441,0.367292147 Z" id="Path"></path>
                    <path d="M3.79565208,3.10749126 C3.79565208,3.10749126 1.73013475,2.93315881 1.73013475,5.74537018" id="Path-6" stroke-linecap="round"></path>
                    <path d="M2.80629646,3.10749126 C2.80629646,3.10749126 4.87181378,2.93315881 4.87181378,5.74537018" id="Path-6" stroke-linecap="round"></path>
                </g>
            </g>
            <path d="M0,574 L5.546875,574 C4.6744748,575.380215 3.99739824,576.916658 3.515625,578.609375 C3.05989355,579.98959 2.8385416,581.526033 2.8515625,583.21875 L2.8515625,584.351562 C2.8385416,586.669282 3.29426621,588.830719 4.21875,590.835938 C4.75260684,592.138027 5.32551777,593.069008 5.9375,593.628906 L0,593.628906 L0,574 Z M19.296875,593.550781 C19.8958363,593.550781 20.4557266,593.440105 20.9765625,593.21875 C21.4973984,592.997395 21.7708332,592.639325 21.796875,592.144531 C21.7708332,591.623695 21.7447918,590.604825 21.71875,589.087891 C21.6927082,587.570956 21.6796875,586.200527 21.6796875,584.976562 L21.6796875,581.109375 C22.3177115,581.812504 22.8352845,582.476559 23.2324219,583.101562 C23.6295593,583.726566 23.9453113,584.455725 24.1796875,585.289062 C24.5182309,586.773445 25.3124937,587.320314 26.5625,586.929688 C27.2786494,586.591144 27.6855464,586.093102 27.7832031,585.435547 C27.8808599,584.777992 27.7864598,584.247398 27.5,583.84375 C26.731767,582.346347 24.7916822,581.083338 21.6796875,580.054688 L21.6796875,576.578125 L22.2265625,576.265625 C22.6041686,575.914061 22.5781271,575.614585 22.1484375,575.367188 C21.7187479,575.210937 21.1425817,575.061199 20.4199219,574.917969 C19.697262,574.774739 19.1536477,574.703125 18.7890625,574.703125 C18.4505191,574.755209 18.2942707,574.976561 18.3203125,575.367188 C18.3333334,575.575522 18.3658852,576.27864 18.4179687,577.476562 C18.4700523,578.674485 18.5026041,579.833328 18.515625,580.953125 L18.515625,584.976562 C18.5026041,586.265631 18.483073,587.714185 18.4570312,589.322266 C18.4309895,590.930347 18.4114584,592.027341 18.3984375,592.613281 C18.3854166,593.016929 18.4733063,593.277343 18.6621094,593.394531 C18.8509124,593.511719 19.0624988,593.563802 19.296875,593.550781 Z M14.0234375,585.289062 L14.0234375,589.703125 C14.0104166,590.78386 14.036458,591.636716 14.1015625,592.261719 C14.1536461,592.665367 13.984377,592.971353 13.59375,593.179688 C13.203123,593.388022 12.4739637,593.498698 11.40625,593.511719 C11.0546857,593.472656 10.8854166,593.238283 10.8984375,592.808594 C10.9244793,591.962235 10.9505207,590.38022 10.9765625,588.0625 L10.9765625,585.953125 C10.3515594,586.447919 9.71354492,586.942706 9.0625,587.4375 C8.52864316,587.658855 8.41145684,587.502607 8.7109375,586.96875 C10.7421977,584.468737 12.1484336,582.046887 12.9296875,579.703125 L10.1171875,579.703125 C9.64843516,579.729167 9.17968984,579.768229 8.7109375,579.820312 L8.1640625,578.960938 C8.91927461,579.026042 9.67447539,579.065104 10.4296875,579.078125 L12.9296875,579.078125 C13.0468756,578.817707 13.1901033,578.570314 13.359375,578.335938 C13.5416676,578.023436 13.8020816,577.90625 14.140625,577.984375 C14.9739625,578.218751 15.8072875,578.687496 16.640625,579.390625 C16.9661475,579.833336 16.9010439,580.119791 16.4453125,580.25 C16.1328109,580.276042 15.8984383,580.458332 15.7421875,580.796875 C15.2213516,581.59115 14.6484406,582.320309 14.0234375,582.984375 L14.0234375,584.078125 C14.2708346,583.71354 14.5312486,583.316408 14.8046875,582.886719 C15.0781264,582.457029 15.2864576,582.072918 15.4296875,581.734375 C15.5598965,581.36979 15.8072898,581.291666 16.171875,581.5 C16.6666691,581.838543 17.1484352,582.255206 17.6171875,582.75 C17.8906264,583.166669 17.8125021,583.401041 17.3828125,583.453125 C17.2526035,583.414062 17.0442723,583.414062 16.7578125,583.453125 C16.2239557,583.791668 15.7291689,584.052082 15.2734375,584.234375 C15.7291689,584.3125 16.1458314,584.48177 16.5234375,584.742188 C17.5000049,585.562504 17.5781291,586.434891 16.7578125,587.359375 C15.9374959,587.958336 15.3125021,587.750005 14.8828125,586.734375 C14.6744781,586.122393 14.3880227,585.640627 14.0234375,585.289062 Z M10.3515625,574.859375 C10.286458,574.664062 10.3645822,574.559896 10.5859375,574.546875 C12.9427201,574.729168 14.1666662,575.341141 14.2578125,576.382812 C14.3619797,576.708335 14.2806003,577.07617 14.0136719,577.486328 C13.7467435,577.896486 13.3723982,578.153645 12.890625,578.257812 C12.0182248,578.427084 11.4973967,577.932297 11.328125,576.773438 C11.0937488,576.096351 10.7682312,575.458336 10.3515625,574.859375 Z M42.1484375,585.875 C42.3567719,585.58854 42.6692688,585.549478 43.0859375,585.757812 C43.8151078,586.148439 44.3880188,586.591143 44.8046875,587.085938 C45.1692727,587.515627 45.0911484,587.75 44.5703125,587.789062 L39.4140625,587.789062 L39.4140625,592.183594 L43.0859375,592.183594 C43.3463555,591.740883 43.7890594,591.213545 44.4140625,590.601562 C44.6484387,590.393228 44.9218734,590.380207 45.234375,590.5625 C45.5859393,590.757813 45.9667948,590.998696 46.3769531,591.285156 C46.7871114,591.571616 47.0833324,591.83203 47.265625,592.066406 C47.526043,592.430991 47.4218773,592.678385 46.953125,592.808594 L31.953125,592.808594 C31.6406234,592.795573 31.2141954,592.792318 30.6738281,592.798828 C30.1334608,592.805339 29.8307295,592.860677 29.765625,592.964844 L28.90625,592.027344 C29.3880232,592.11849 29.8925755,592.167318 30.4199219,592.173828 C30.9472683,592.180339 31.3802066,592.183594 31.71875,592.183594 L36.171875,592.183594 L36.171875,587.789062 L33.3203125,587.789062 C32.9557273,587.789062 32.5292993,587.802083 32.0410156,587.828125 C31.5527319,587.854167 31.276042,587.893229 31.2109375,587.945312 L30.4296875,587.007812 C30.6640637,587.085938 31.1393193,587.134766 31.8554687,587.154297 C32.5716182,587.173828 33.124998,587.177083 33.515625,587.164062 L36.171875,587.164062 L36.171875,583.492188 L36.015625,583.492188 C35.2213502,583.492188 34.6647151,583.505208 34.3457031,583.53125 C34.0266911,583.557292 33.7890633,583.596354 33.6328125,583.648438 L33.0859375,582.710938 C34.0755258,582.841146 34.856768,582.893229 35.4296875,582.867188 L39.0234375,582.867188 C39.2708346,582.476561 39.55729,582.085939 39.8828125,581.695312 C40.1432305,581.291665 40.468748,581.252603 40.859375,581.578125 C41.1458348,581.773438 41.4518213,582.017577 41.7773438,582.310547 C42.1028662,582.603517 42.3437492,582.854166 42.5,583.0625 C42.6171881,583.322918 42.4479189,583.466146 41.9921875,583.492188 L39.765625,583.492188 C39.9348967,583.713543 39.8177104,583.934895 39.4140625,584.15625 L39.4140625,587.164062 L41.25,587.164062 C41.4843762,586.760415 41.7838523,586.330731 42.1484375,585.875 Z M35.5078125,574.742188 C35.6510424,574.234372 36.0156221,574.039062 36.6015625,574.15625 C37.7604225,574.416668 38.9062443,574.794268 40.0390625,575.289062 C40.6250029,575.679689 40.6510443,575.992186 40.1171875,576.226562 L39.7265625,576.304688 L39.4140625,576.578125 C41.4843854,579.156263 44.2577951,580.562499 47.734375,580.796875 C48.0598975,580.940105 48.0598975,581.161457 47.734375,581.460938 C47.343748,581.708335 46.9498718,582.098956 46.5527344,582.632812 C46.155597,583.166669 45.9375002,583.609373 45.8984375,583.960938 C45.7812494,584.325523 45.5078146,584.429688 45.078125,584.273438 C43.5677008,583.739581 42.2623753,582.847662 41.1621094,581.597656 C40.0618435,580.34765 39.2708357,578.934904 38.7890625,577.359375 C37.7864533,578.921883 36.3476656,580.386712 34.4726562,581.753906 C32.5976469,583.121101 30.7161553,584.182288 28.828125,584.9375 C28.2031219,585.08073 28.0729148,584.950523 28.4375,584.546875 C29.9869869,583.283848 31.3509056,581.897143 32.5292969,580.386719 C33.7076882,578.876295 34.7005168,576.994803 35.5078125,574.742188 Z M56.6796875,588.6875 C56.7057293,589.481775 56.4388049,589.95703 55.8789062,590.113281 C55.3190076,590.269532 54.3099031,590.263022 52.8515625,590.09375 C52.4999982,590.080729 52.3014325,590.175129 52.2558594,590.376953 C52.2102862,590.578777 52.317707,590.73177 52.578125,590.835938 C54.2708418,591.291669 55.2473945,591.975256 55.5078125,592.886719 C55.6770842,593.420576 56.0677053,593.602865 56.6796875,593.433594 C57.7213594,593.225259 58.5384085,592.935549 59.1308594,592.564453 C59.7233103,592.193358 60.0130209,591.526046 60,590.5625 C59.9218746,588.869783 59.8828125,587.177092 59.8828125,585.484375 L67.3046875,585.484375 C67.8515652,585.445312 67.9557309,585.21094 67.6171875,584.78125 C66.5494738,583.791662 65.8203145,583.231771 65.4296875,583.101562 C65.1822904,582.984374 64.9739592,582.984374 64.8046875,583.101562 C64.3359352,583.674482 63.8932312,584.260414 63.4765625,584.859375 L59.8828125,584.859375 L59.8828125,581.578125 L66.0546875,581.578125 C66.6927115,581.539062 66.8098979,581.278648 66.40625,580.796875 C65.3906199,579.911454 64.6484398,579.377605 64.1796875,579.195312 C63.9583322,579.039062 63.7239596,579.078124 63.4765625,579.3125 C63.0729146,579.807294 62.6562521,580.354164 62.2265625,580.953125 L59.8828125,580.953125 L59.8828125,578.804688 L60.234375,578.609375 C60.4296885,578.492187 60.4882816,578.35547 60.4101562,578.199219 C60.3320309,578.042968 60.2343756,577.945313 60.1171875,577.90625 C61.6145908,577.880208 63.1510338,577.815105 64.7265625,577.710938 L66.015625,577.867188 C66.653649,577.919271 66.8489596,577.697919 66.6015625,577.203125 C66.2239564,576.669268 65.4166729,575.78386 64.1796875,574.546875 C63.9322904,574.351562 63.645835,574.32552 63.3203125,574.46875 C61.328115,575.210941 59.2089956,575.793618 56.9628906,576.216797 C54.7167856,576.639976 52.4609488,576.968749 50.1953125,577.203125 C49.7265602,577.385418 49.7526016,577.567707 50.2734375,577.75 C51.9791752,577.906251 54.1145705,577.984375 56.6796875,577.984375 L56.6796875,580.953125 L54.2578125,580.953125 C52.7473883,580.927083 51.2369867,580.86198 49.7265625,580.757812 L50.5078125,581.734375 C51.5234426,581.643229 52.5390574,581.591146 53.5546875,581.578125 L56.6796875,581.578125 L56.6796875,584.859375 L52.7734375,584.859375 C51.2630133,584.820312 49.7526117,584.742188 48.2421875,584.625 L48.9453125,585.601562 C49.9869844,585.523437 51.0286406,585.484375 52.0703125,585.484375 L56.6796875,585.484375 L56.6796875,588.6875 Z M74.84375,584.976562 C74.7656246,584.195309 74.5703141,583.492191 74.2578125,582.867188 L74.2578125,587.203125 C74.2708334,588.72657 74.3229162,590.373689 74.4140625,592.144531 C74.4270834,592.652346 74.2089866,593.00716 73.7597656,593.208984 C73.3105446,593.410808 72.7473992,593.511719 72.0703125,593.511719 C71.3411422,593.485677 71.0286453,593.251304 71.1328125,592.808594 C71.2239588,591.45442 71.2760416,590.289067 71.2890625,589.3125 L71.2890625,586.226562 C70.6380176,587.333339 69.7916719,588.28385 68.75,589.078125 C68.2552059,589.351564 68.0859367,589.234378 68.2421875,588.726562 C68.7630234,587.619786 69.2838516,586.29493 69.8046875,584.751953 C70.3255234,583.208977 70.7161445,581.565113 70.9765625,579.820312 L70,579.820312 C69.5312477,579.833333 69.0625023,579.885416 68.59375,579.976562 L68.125,579.039062 C68.8541703,579.130209 69.5833297,579.182292 70.3125,579.195312 L71.2890625,579.195312 L71.2890625,578.023438 C71.2890625,577.085933 71.2369797,576.070318 71.1328125,574.976562 C70.9895826,574.351559 71.2239553,574.091145 71.8359375,574.195312 C72.7864631,574.221354 73.7369744,574.377603 74.6875,574.664062 C75.1432314,574.91146 75.1692729,575.210936 74.765625,575.5625 L74.2578125,575.914062 L74.2578125,578.804688 C74.2968752,578.726562 74.3945305,578.567058 74.5507812,578.326172 C74.707032,578.085285 74.8697908,577.880209 75.0390625,577.710938 C75.2213551,577.593749 75.442707,577.593749 75.703125,577.710938 C76.1197937,577.932293 76.6536426,578.401038 77.3046875,579.117188 C77.5781264,579.546877 77.5260436,579.78125 77.1484375,579.820312 L74.2578125,579.820312 L74.2578125,582.164062 C75.7682367,582.346355 76.7708309,582.8151 77.265625,583.570312 C77.5651057,584.065107 77.6399747,584.559893 77.4902344,585.054688 C77.340494,585.549482 77.0312523,585.88802 76.5625,586.070312 C75.5598908,586.408856 74.9869799,586.044276 74.84375,584.976562 Z M82.03125,577.28125 L81.09375,577.28125 L80.859375,577.515625 L80.859375,581.1875 C80.9375004,584.325537 80.6054725,586.861318 79.8632812,588.794922 C79.12109,590.728525 77.4218883,592.287754 74.765625,593.472656 C74.2057264,593.615886 74.0755193,593.485679 74.375,593.082031 C75.7421943,591.740879 76.6731746,590.139332 77.1679688,588.277344 C77.6627629,586.415355 77.8776045,584.052098 77.8125,581.1875 L77.8125,579.859375 C77.7994791,578.700515 77.7473963,577.346362 77.65625,575.796875 C77.6432291,575.588541 77.8255189,575.497396 78.203125,575.523438 C79.0885461,575.731772 80.0781195,576.109372 81.171875,576.65625 L81.796875,576.65625 L82.5,575.796875 C82.7734389,575.484373 83.0078115,575.406249 83.203125,575.5625 C83.4895848,575.640625 83.8443989,575.803384 84.2675781,576.050781 C84.6907573,576.298178 85.0651025,576.552082 85.390625,576.8125 C85.781252,577.216148 85.8203141,577.502603 85.5078125,577.671875 L85.078125,578.101562 L85.078125,589.585938 C85.0260414,590.132815 85.130207,590.367188 85.390625,590.289062 C85.7291684,590.223958 86.0677066,589.351571 86.40625,587.671875 C86.4973963,587.320311 86.6243481,587.160807 86.7871094,587.193359 C86.9498706,587.225912 87.03125,587.411457 87.03125,587.75 C86.9140619,589.156257 87.0703104,590.093748 87.5,590.5625 C88.0989613,591.070315 88.1770855,591.688798 87.734375,592.417969 C87.4869779,592.821617 86.6536529,593.029948 85.234375,593.042969 L84.84375,593.042969 C83.8671826,593.05599 83.1510439,592.854169 82.6953125,592.4375 C82.2395811,592.020831 82.0182291,591.26563 82.03125,590.171875 L82.03125,577.28125 Z M95.15625,593.628906 L89.609375,593.628906 C90.4817752,592.248691 91.1588518,590.718758 91.640625,589.039062 C92.0963564,587.658847 92.3177084,586.122404 92.3046875,584.429688 L92.3046875,583.296875 C92.3177084,580.979155 91.8619838,578.817718 90.9375,576.8125 C90.4036432,575.484368 89.8307322,574.546878 89.21875,574 L95.15625,574 L95.15625,593.628906 Z" id="【补全手机】" fill="#000000"></path>
            <g id="买单记录" transform="translate(0.000000, 464.000000)" stroke="#828282">
                <path d="M0.5,6 C0.5,2.96484771 2.96676104,0.5 6,0.5 L10.9975267,0.5 C11.2721149,0.5 11.5,0.728974589 11.5,1.00247329 L11.5,10.9975267 C11.5,11.2721149 11.2710254,11.5 10.9975267,11.5 L1.00247329,11.5 C0.727885113,11.5 0.5,11.2710254 0.5,10.9975267 L0.5,6 Z" id="Rectangle-3"></path>
                <path d="M3.5,4.5 L8.5,4.5" id="Line" stroke-linecap="square"></path>
                <path d="M3.5,6.5 L8.5,6.5" id="Line" stroke-linecap="square"></path>
                <path d="M3.5,8.5 L8.5,8.5" id="Line" stroke-linecap="square"></path>
            </g>
            <g id="身份码" transform="translate(0.000000, 486.000000)">
                <path d="M0.5,0.990777969 C0.5,0.722844299 0.723992226,0.5 0.990777969,0.5 L5.00922203,0.5 C5.2771557,0.5 5.5,0.723992226 5.5,0.990777969 L5.5,5.00922203 C5.5,5.2771557 5.27600777,5.5 5.00922203,5.5 L0.990777969,5.5 C0.722844299,5.5 0.5,5.27600777 0.5,5.00922203 L0.5,0.990777969 Z" id="Rectangle-3" stroke="#828282"></path>
                <g id="Rectangle-4">
                    <use fill="#D8D8D8" fill-rule="evenodd" xlink:href="#path-16"></use>
                    <rect stroke="#828282" stroke-width="1" x="0.5" y="7.5" width="1" height="1"></rect>
                </g>
                <g id="Rectangle-4">
                    <use fill="#D8D8D8" fill-rule="evenodd" xlink:href="#path-17"></use>
                    <path stroke="#828282" stroke-width="1" d="M0.5,9.5 L1.5,9.5 L1.5,11.5 L1,11.5 C0.721795062,11.5 0.5,11.2791392 0.5,11.0010434 L0.5,9.5 Z"></path>
                </g>
                <g id="Rectangle-4">
                    <use fill="#D8D8D8" fill-rule="evenodd" xlink:href="#path-18"></use>
                    <rect stroke="#828282" stroke-width="1" x="2.5" y="8.5" width="1" height="1"></rect>
                </g>
                <g id="Rectangle-4">
                    <use fill="#D8D8D8" fill-rule="evenodd" xlink:href="#path-19"></use>
                    <rect stroke="#828282" stroke-width="1" x="4.5" y="7.5" width="1" height="1"></rect>
                </g>
                <g id="Rectangle-4">
                    <use fill="#D8D8D8" fill-rule="evenodd" xlink:href="#path-20"></use>
                    <rect stroke="#828282" stroke-width="1" x="3.5" y="7.5" width="1" height="1"></rect>
                </g>
                <g id="Rectangle-4">
                    <use fill="#D8D8D8" fill-rule="evenodd" xlink:href="#path-21"></use>
                    <rect stroke="#828282" stroke-width="1" x="7.5" y="0.5" width="2" height="1"></rect>
                </g>
                <g id="Rectangle-4">
                    <use fill="#D8D8D8" fill-rule="evenodd" xlink:href="#path-22"></use>
                    <rect stroke="#828282" stroke-width="1" x="7.5" y="2.5" width="1" height="1"></rect>
                </g>
                <g id="Rectangle-4">
                    <use fill="#D8D8D8" fill-rule="evenodd" xlink:href="#path-23"></use>
                    <rect stroke="#828282" stroke-width="1" x="10.5" y="2.5" width="1" height="1"></rect>
                </g>
                <g id="Rectangle-4">
                    <use fill="#D8D8D8" fill-rule="evenodd" xlink:href="#path-24"></use>
                    <rect stroke="#828282" stroke-width="1" x="9.5" y="4.5" width="2" height="1"></rect>
                </g>
                <g id="Rectangle-4">
                    <use fill="#D8D8D8" fill-rule="evenodd" xlink:href="#path-25"></use>
                    <rect stroke="#828282" stroke-width="1" x="11.5" y="0.5" width="1" height="1"></rect>
                </g>
                <g id="Rectangle-4">
                    <use fill="#D8D8D8" fill-rule="evenodd" xlink:href="#path-26"></use>
                    <rect stroke="#828282" stroke-width="1" x="3.5" y="9.5" width="1" height="1"></rect>
                </g>
                <g id="Rectangle-4">
                    <use fill="#D8D8D8" fill-rule="evenodd" xlink:href="#path-27"></use>
                    <rect stroke="#828282" stroke-width="1" x="3.5" y="10.5" width="1" height="1"></rect>
                </g>
                <g id="Rectangle">
                    <use fill="#D8D8D8" fill-rule="evenodd" xlink:href="#path-28"></use>
                    <rect stroke="#828282" stroke-width="1" x="2.5" y="2.5" width="1" height="1"></rect>
                </g>
                <path d="M6.5,6.99077797 C6.5,6.7228443 6.72399223,6.5 6.99077797,6.5 L11.009222,6.5 C11.2771557,6.5 11.5,6.72399223 11.5,6.99077797 L11.5,11.009222 C11.5,11.2771557 11.2760078,11.5 11.009222,11.5 L6.99077797,11.5 C6.7228443,11.5 6.5,11.2760078 6.5,11.009222 L6.5,6.99077797 Z" id="Rectangle-3" stroke="#828282"></path>
                <g id="Rectangle">
                    <use fill="#D8D8D8" fill-rule="evenodd" xlink:href="#path-29"></use>
                    <rect stroke="#828282" stroke-width="1" x="8.5" y="8.5" width="1" height="1"></rect>
                </g>
            </g>
        </g>
    </g>
</svg>