<?xml version="1.0" encoding="UTF-8"?>
<svg width="40px" height="18px" viewBox="0 0 40 18" version="1.1" xmlns="http://www.w3.org/2000/svg" xmlns:xlink="http://www.w3.org/1999/xlink">
    <!-- Generator: Sketch 48.1 (47250) - http://www.bohemiancoding.com/sketch -->
    <title>无门槛</title>
    <desc>Created with Sketch.</desc>
    <defs></defs>
    <g id="01-会员中心" stroke="none" stroke-width="1" fill="none" fill-rule="evenodd" transform="translate(-270.000000, -215.000000)">
        <g id="无门槛" transform="translate(270.000000, 215.000000)">
            <path d="M7.25,0.748976562 L33.25,0.748976562 C36.8398509,0.748976562 39.75,3.65912569 39.75,7.24897656 L39.75,7.24897656 C39.75,10.8388274 36.8398509,13.7489766 33.25,13.7489766 L16.109375,13.7489766 L8.109375,17.5829922 L9.109375,13.7489766 L7.25,13.7489766 C3.66014913,13.7489766 0.75,10.8388274 0.75,7.24897656 L0.75,7.24897656 C0.75,3.65912569 3.66014913,0.748976562 7.25,0.748976562 Z" id="Rectangle" fill="#22B0F6"></path>
            <path d="M12.991125,9.46097656 L14.199125,9.46097656 C14.559125,9.46097656 14.615125,9.28497656 14.663125,8.22897656 C14.831125,8.36497656 15.167125,8.49297656 15.375125,8.54097656 C15.279125,9.84497656 15.063125,10.1889766 14.255125,10.1889766 L12.895125,10.1889766 C11.999125,10.1889766 11.767125,9.94897656 11.767125,9.12497656 L11.767125,6.58897656 L11.695125,6.58897656 C11.367125,8.12497656 10.559125,9.55697656 8.535125,10.3809766 C8.431125,10.1889766 8.223125,9.91697656 8.031125,9.75697656 C9.847125,9.06897656 10.607125,7.88497656 10.935125,6.58897656 L8.151125,6.58897656 L8.151125,5.86097656 L11.071125,5.86097656 C11.151125,5.32497656 11.175125,4.79697656 11.191125,4.27697656 L8.631125,4.27697656 L8.631125,3.55697656 L14.855125,3.55697656 L14.855125,4.27697656 L11.951125,4.27697656 C11.927125,4.79697656 11.903125,5.32497656 11.831125,5.86097656 L15.303125,5.86097656 L15.303125,6.58897656 L12.543125,6.58897656 L12.543125,9.11697656 C12.543125,9.41297656 12.615125,9.46097656 12.991125,9.46097656 Z M16.439125,10.3809766 L16.439125,4.70097656 L17.191125,4.70097656 L17.191125,10.3809766 L16.439125,10.3809766 Z M16.695125,3.38897656 L17.271125,3.01297656 C17.671125,3.46097656 18.191125,4.06897656 18.423125,4.46097656 L17.823125,4.90097656 C17.591125,4.50097656 17.095125,3.85297656 16.695125,3.38897656 Z M23.007125,3.31697656 L23.007125,9.47697656 C23.007125,9.91697656 22.895125,10.1329766 22.599125,10.2449766 C22.295125,10.3649766 21.799125,10.3809766 21.055125,10.3729766 C21.023125,10.1809766 20.903125,9.85297656 20.791125,9.66897656 C21.327125,9.69297656 21.887125,9.69297656 22.047125,9.67697656 C22.199125,9.67697656 22.255125,9.62897656 22.255125,9.46897656 L22.255125,4.02897656 L18.607125,4.02897656 L18.607125,3.31697656 L23.007125,3.31697656 Z M31.335125,4.78897656 L29.607125,4.78897656 C29.391125,5.38097656 29.151125,5.93297656 28.887125,6.34897656 C28.783125,6.22097656 28.527125,5.93297656 28.367125,5.80497656 C28.807125,5.13297656 29.159125,4.11697656 29.375125,3.12497656 L30.063125,3.28497656 C29.991125,3.57297656 29.919125,3.86897656 29.823125,4.15697656 L31.335125,4.15697656 L31.335125,4.78897656 Z M29.407125,5.60497656 L29.879125,5.25297656 C30.327125,5.57297656 30.823125,6.02097656 31.079125,6.33297656 L30.599125,6.74097656 C30.359125,6.42097656 29.847125,5.94097656 29.407125,5.60497656 Z M28.351125,3.12497656 L28.351125,6.82897656 L27.719125,6.82897656 L27.719125,3.12497656 L28.351125,3.12497656 Z M27.239125,3.48497656 L27.239125,6.46897656 L26.647125,6.46897656 L26.647125,3.48497656 L27.239125,3.48497656 Z M26.535125,6.95697656 L26.119125,7.50897656 C26.031125,7.26097656 25.855125,6.85297656 25.671125,6.47697656 L25.671125,10.3809766 L25.007125,10.3809766 L25.007125,6.97297656 C24.807125,7.63697656 24.583125,8.24497656 24.343125,8.65297656 C24.279125,8.46097656 24.119125,8.14097656 24.015125,7.96497656 C24.415125,7.37297656 24.807125,6.24497656 25.007125,5.27697656 L25.007125,5.23697656 L24.159125,5.23697656 L24.159125,4.54897656 L25.007125,4.54897656 L25.007125,3.04497656 L25.671125,3.04497656 L25.671125,4.54897656 L26.351125,4.54897656 L26.351125,5.23697656 L25.671125,5.23697656 L25.671125,5.57297656 C25.879125,5.86897656 26.415125,6.73297656 26.535125,6.95697656 Z M27.303125,7.78097656 L27.303125,9.54097656 L27.903125,9.54097656 L27.903125,7.78097656 L27.303125,7.78097656 Z M29.079125,7.78097656 L28.479125,7.78097656 L28.479125,9.54097656 L29.079125,9.54097656 L29.079125,7.78097656 Z M30.279125,7.78097656 L29.663125,7.78097656 L29.663125,9.54097656 L30.279125,9.54097656 L30.279125,7.78097656 Z M30.943125,9.54097656 L31.351125,9.54097656 L31.351125,10.1969766 L26.159125,10.1969766 L26.159125,9.54097656 L26.671125,9.54097656 L26.671125,7.19697656 L30.943125,7.19697656 L30.943125,9.54097656 Z" fill="#FFFFFF"></path>
        </g>
    </g>
</svg>