<?xml version="1.0" encoding="UTF-8"?>
<svg width="101px" height="101px" viewBox="0 0 101 101" version="1.1" xmlns="http://www.w3.org/2000/svg" xmlns:xlink="http://www.w3.org/1999/xlink">
    <!-- Generator: Sketch 48.1 (47250) - http://www.bohemiancoding.com/sketch -->
    <title>红包已领</title>
    <desc>Created with Sketch.</desc>
    <defs>
        <ellipse id="path-1" cx="54.5" cy="54.2875" rx="41.7900009" ry="41.6208509"></ellipse>
        <mask id="mask-2" maskContentUnits="userSpaceOnUse" maskUnits="objectBoundingBox" x="0" y="0" width="83.5800018" height="83.2417018" fill="white">
            <use xlink:href="#path-1"></use>
        </mask>
    </defs>
    <g id="19.-自扫canvas后（有手机号）" stroke="none" stroke-width="1" fill="none" fill-rule="evenodd" transform="translate(-273.000000, -529.000000)" opacity="0.5">
        <g id="Group-21" transform="translate(25.000000, 505.000000)">
            <g id="红包已领" transform="translate(297.948385, 74.448385) rotate(30.000000) translate(-297.948385, -74.448385) translate(243.448385, 19.948385)">
                <ellipse id="Oval" stroke="#FF3E3A" stroke-width="2" cx="54.5" cy="54.2875" rx="49.0581395" ry="48.8555233"></ellipse>
                <use id="Oval" stroke="#FF3E3A" mask="url(#mask-2)" stroke-width="4" stroke-dasharray="2,3" transform="translate(54.500000, 54.287500) rotate(-69.000000) translate(-54.500000, -54.287500) " xlink:href="#path-1"></use>
                <ellipse id="Oval" stroke="#FF3E3A" cx="54.5" cy="54.2955952" rx="34.5750008" ry="34.4330305"></ellipse>
                <polygon id="Star" fill="#FF3E3A" points="54.5 14.5 52.7366442 15.427051 53.0734152 13.4635255 51.6468305 12.072949 53.6183221 11.7864745 54.5 10 55.3816779 11.7864745 57.3531695 12.072949 55.9265848 13.4635255 56.2633558 15.427051"></polygon>
                <polygon id="Star" fill="#FF3E3A" points="14 56 12.2366442 56.927051 12.5734152 54.9635255 11.1468305 53.572949 13.1183221 53.2864745 14 51.5 14.8816779 53.2864745 16.8531695 53.572949 15.4265848 54.9635255 15.7633558 56.927051"></polygon>
                <polygon id="Star" fill="#FF3E3A" points="95.5 55 93.7366442 55.927051 94.0734152 53.9635255 92.6468305 52.572949 94.6183221 52.2864745 95.5 50.5 96.3816779 52.2864745 98.3531695 52.572949 96.9265848 53.9635255 97.2633558 55.927051"></polygon>
                <polygon id="Star" fill="#FF3E3A" points="54 97 52.2366442 97.927051 52.5734152 95.9635255 51.1468305 94.572949 53.1183221 94.2864745 54 92.5 54.8816779 94.2864745 56.8531695 94.572949 55.4265848 95.9635255 55.7633558 97.927051"></polygon>
                <path d="M37.7220508,49.2900508 L37.4160508,47.5800508 C39.0180508,47.2920508 41.4300508,46.8060508 43.7340508,46.3020508 L43.9140508,47.8860508 C41.7360508,48.3900508 39.4680508,48.8940508 37.7220508,49.2900508 Z M40.4040508,43.3680508 L43.9500508,42.8640508 C43.9140508,43.3140508 43.9680508,43.9800508 44.0220508,44.3220508 C39.1620508,45.0960508 38.4600508,45.2400508 38.0100508,45.4920508 C37.9200508,45.1680508 37.6500508,44.3220508 37.4520508,43.8720508 C37.9020508,43.7820508 38.3160508,43.3860508 38.9100508,42.7200508 C39.2340508,42.4320508 39.8820508,41.6940508 40.6200508,40.7220508 C38.6400508,40.9380508 38.1720508,41.0460508 37.8840508,41.1900508 C37.7940508,40.8300508 37.5060508,40.0020508 37.3080508,39.5700508 C37.6680508,39.4800508 37.9740508,39.0840508 38.4060508,38.4900508 C38.8200508,37.9320508 40.1700508,35.7000508 40.9440508,33.5940508 L42.6180508,34.2960508 C41.8080508,36.0420508 40.7460508,37.8780508 39.6840508,39.3360508 L41.7180508,39.1560508 C42.1500508,38.5620508 42.5280508,37.9140508 42.8880508,37.2840508 L44.3640508,38.2200508 C43.2120508,40.0380508 41.8260508,41.8560508 40.4040508,43.3680508 Z M49.8720508,47.3640508 L53.9040508,47.3640508 L53.9040508,49.0380508 L44.0940508,49.0380508 L44.0940508,47.3640508 L48.0540508,47.3640508 L48.0540508,36.9060508 L44.3460508,36.9060508 L44.3460508,35.2320508 L53.5260508,35.2320508 L53.5260508,36.9060508 L49.8720508,36.9060508 L49.8720508,47.3640508 Z M64.0380508,40.6680508 L59.9160508,40.6680508 L59.9160508,43.1700508 L64.0380508,43.1700508 L64.0380508,40.6680508 Z M62.1120508,48.2100508 L68.4300508,48.2100508 C69.9600508,48.2100508 70.1940508,47.8500508 70.3920508,46.0680508 C70.8240508,46.3380508 71.5260508,46.5900508 72.0120508,46.6800508 C71.7060508,49.0920508 71.0760508,49.7760508 68.5200508,49.7760508 L62.1480508,49.7760508 C59.1420508,49.7760508 58.2600508,49.2360508 58.2600508,47.0040508 L58.2600508,39.4620508 C57.7740508,39.9840508 57.2520508,40.4700508 56.7480508,40.9020508 C56.4600508,40.5780508 55.7760508,39.9300508 55.3620508,39.6420508 C57.3240508,38.2380508 59.0880508,35.9520508 60.1140508,33.5580508 L61.8060508,34.0440508 C61.5180508,34.7100508 61.1940508,35.3760508 60.8160508,36.0060508 L70.5180508,36.0060508 C70.5180508,36.0060508 70.5000508,36.5280508 70.5000508,36.7440508 C70.3020508,42.5400508 70.1400508,44.6460508 69.6360508,45.2940508 C69.2940508,45.7800508 68.9520508,45.9240508 68.4300508,45.9960508 C67.9620508,46.0500508 67.1880508,46.0500508 66.3600508,46.0140508 C66.3420508,45.5460508 66.1620508,44.8620508 65.9280508,44.4300508 C66.6300508,44.5020508 67.2780508,44.5200508 67.5840508,44.5020508 C67.8180508,44.5200508 67.9980508,44.4660508 68.1600508,44.2500508 C68.4480508,43.8540508 68.6280508,42.1440508 68.7900508,37.5900508 L59.7720508,37.5900508 C59.3760508,38.1480508 58.9440508,38.7060508 58.5120508,39.1920508 L65.6760508,39.1920508 L65.6760508,44.6820508 L59.9160508,44.6820508 L59.9160508,47.0040508 C59.9160508,47.9940508 60.2220508,48.2100508 62.1120508,48.2100508 Z M43.3380508,69.9940508 L49.7460508,69.9940508 C51.6540508,69.9940508 51.9420508,69.4540508 52.1760508,66.6820508 C52.6440508,66.9700508 53.4000508,67.2580508 53.8860508,67.3480508 C53.5260508,70.6780508 52.8600508,71.6500508 49.7640508,71.6500508 L43.3920508,71.6500508 C40.2780508,71.6500508 39.3060508,71.0740508 39.3060508,68.6260508 L39.3060508,59.9500508 L41.0340508,59.9500508 L41.0340508,62.6680508 L49.8540508,62.6680508 L49.8540508,58.3480508 L38.4780508,58.3480508 L38.4780508,56.7100508 L51.5820508,56.7100508 L51.5820508,65.1700508 L49.8540508,65.1700508 L49.8540508,64.3060508 L41.0340508,64.3060508 L41.0340508,68.6440508 C41.0340508,69.7600508 41.3940508,69.9940508 43.3380508,69.9940508 Z M64.2180508,59.7700508 L66.4680508,59.7700508 C66.6840508,59.2480508 66.9000508,58.6000508 67.0620508,58.0420508 L63.7860508,58.0420508 L63.7860508,56.5660508 L71.7960508,56.5660508 L71.7960508,58.0420508 L68.6100508,58.0420508 C68.3760508,58.6180508 68.1420508,59.2480508 67.9440508,59.7700508 L71.3460508,59.7700508 L71.3460508,68.1220508 L69.7980508,68.1220508 L69.7980508,61.0120508 L65.7120508,61.0120508 L65.7120508,68.1400508 L64.2180508,68.1400508 L64.2180508,59.7700508 Z M63.8580508,60.8500508 L62.8320508,62.0380508 C62.2020508,61.0660508 60.9600508,59.6080508 59.8080508,58.4200508 C58.9080508,60.0040508 57.7560508,61.4620508 56.4780508,62.6140508 C56.2260508,62.3260508 55.6860508,61.8040508 55.3260508,61.5520508 C57.1440508,60.0580508 58.6920508,57.7000508 59.4840508,55.5940508 L60.9420508,56.0260508 C60.7980508,56.3860508 60.6360508,56.7460508 60.4740508,57.1060508 C61.6980508,58.3120508 63.1560508,59.8600508 63.8580508,60.8500508 Z M58.4220508,60.9940508 L59.4660508,60.3460508 C60.1680508,60.9760508 60.9240508,61.8040508 61.3020508,62.3620508 L60.2040508,63.1540508 C59.8260508,62.5600508 59.0520508,61.6420508 58.4220508,60.9940508 Z M62.0400508,63.5320508 L63.1200508,64.1800508 C62.4180508,65.8900508 61.1940508,67.9420508 60.2400508,69.3640508 C60.8160508,69.9400508 61.3380508,70.5340508 61.6980508,70.9840508 L60.4920508,71.9740508 C59.7540508,70.9120508 58.1340508,69.2380508 56.8200508,68.0680508 L57.9360508,67.2220508 C58.3320508,67.5460508 58.7460508,67.9420508 59.1780508,68.3200508 C59.8080508,67.3840508 60.5280508,66.1600508 61.0680508,65.0620508 L56.6580508,65.0620508 L56.6580508,63.6220508 L61.7880508,63.6220508 L62.0400508,63.5320508 Z M67.0800508,61.7500508 L68.4660508,61.7500508 C68.4120508,68.1940508 68.1060508,70.8220508 63.5700508,72.2440508 C63.4440508,71.8840508 63.0300508,71.3440508 62.7600508,71.0740508 C66.8820508,69.8680508 67.0440508,67.7440508 67.0800508,61.7500508 Z M67.6740508,69.0760508 L68.6820508,68.1940508 C69.8160508,69.0580508 71.3100508,70.3180508 72.0480508,71.1100508 L70.9860508,72.1360508 C70.2660508,71.3260508 68.8260508,70.0120508 67.6740508,69.0760508 Z" id="红包-已领" fill="#FF3E3A"></path>
            </g>
        </g>
    </g>
</svg>