<svg xmlns="http://www.w3.org/2000/svg" xmlns:xlink="http://www.w3.org/1999/xlink" width="101" height="101" viewBox="0 0 101 101">
    <defs>
        <ellipse id="a" cx="54.5" cy="54.288" rx="41.79" ry="41.621"/>
        <mask id="b" width="83.58" height="83.242" x="0" y="0" fill="#fff">
            <use xlink:href="#a"/>
        </mask>
    </defs>
    <g fill="none" fill-rule="evenodd" opacity=".5" transform="rotate(30 58.852 44.23)">
        <ellipse cx="54.5" cy="54.288" stroke="#FF3E3A" stroke-width="2" rx="49.058" ry="48.856"/>
        <use stroke="#FF3E3A" stroke-dasharray="2,3" stroke-width="4" mask="url(#b)" transform="rotate(-69 54.5 54.288)" xlink:href="#a"/>
        <ellipse cx="54.5" cy="54.296" stroke="#FF3E3A" rx="34.575" ry="34.433"/>
        <path fill="#FF3E3A" d="M54.5 14.5l-1.763.927.336-1.963-1.426-1.391 1.971-.287L54.5 10l.882 1.786 1.971.287-1.426 1.39.336 1.964zM14 56l-1.763.927.336-1.963-1.426-1.391 1.971-.287L14 51.5l.882 1.786 1.971.287-1.426 1.39.336 1.964zM95.5 55l-1.763.927.336-1.963-1.426-1.391 1.971-.287.882-1.786.882 1.786 1.971.287-1.426 1.39.336 1.964zM54 97l-1.763.927.336-1.963-1.426-1.391 1.971-.287L54 92.5l.882 1.786 1.971.287-1.426 1.39.336 1.964zM51.146 43.857v-7.704H37.412v1.8h11.826v4.104H40.04V39.68h-1.872v9.324c0 1.62.756 2.43 2.304 2.43H50.48c.72-.036 1.314-.252 1.746-.648.36-.396.666-1.746.9-4.05l-1.836-.576c-.108 1.836-.27 2.898-.522 3.15-.252.216-.522.324-.81.324h-8.946c-.648 0-.972-.324-.972-.972v-4.806h11.106zm11.562-7.542v10.764l1.098-.342v1.782c-2.376.792-5.112 1.512-8.19 2.196l-.522-1.8 1.242-.252V36.315h6.372zM58.19 48.267c.936-.216 1.836-.45 2.7-.666v-2.016h-2.7v2.682zm0-4.356h2.7v-2.178h-2.7v2.178zm0-3.87h2.7v-2.016h-2.7v2.016zm7.326-4.608h1.872v3.42h3.888c0 5.94-.09 9.612-.27 11.016-.216 1.332-1.134 1.998-2.79 1.998-.288 0-.792-.036-1.494-.09l-.45-1.638c.63.036 1.17.072 1.638.072.756 0 1.206-.396 1.332-1.188.108-.81.162-3.6.198-8.37h-2.052v.144c-.054 5.184-1.296 8.964-3.726 11.358l-1.422-1.26c2.142-2.088 3.24-5.454 3.276-10.098v-.144h-1.98v-1.8h1.98v-3.42zM36.71 63.597v1.872h16.362v-1.872H36.71zm18.726-6.714h16.128v1.62h-5.238v1.044h3.996v4.32H56.678v-4.32h3.996v-1.044h-5.238v-1.62zm9.108 2.664v-1.044h-2.088v1.044h2.088zm3.978 2.808v-1.296h-2.196v1.296h2.196zm-3.978 0v-1.296h-2.088v1.296h2.088zm-3.87 0v-1.296h-2.196v1.296h2.196zm-3.15 2.448v1.548h12.078v-1.548H57.524zm-1.8 2.394h15.552v1.602h-6.678v2.304c0 1.224-.63 1.836-1.872 1.836H61.07l-.378-1.656c.504.054.99.09 1.44.09.432 0 .666-.234.666-.684v-1.89h-7.074v-1.602zm11.682 1.854c1.602.828 2.952 1.638 4.068 2.448l-1.314 1.314c-.936-.792-2.25-1.656-3.978-2.574l1.224-1.188zm-7.452.036l1.206 1.098c-1.188 1.008-2.646 1.872-4.374 2.628l-1.134-1.476c1.71-.648 3.15-1.386 4.302-2.25z"/>
    </g>
</svg>
