<?xml version="1.0" encoding="UTF-8"?>
<svg width="102px" height="19px" viewBox="0 0 102 19" version="1.1" xmlns="http://www.w3.org/2000/svg" xmlns:xlink="http://www.w3.org/1999/xlink">
    <!-- Generator: Sketch 48.1 (47250) - http://www.bohemiancoding.com/sketch -->
    <title>本期奖品 B</title>
    <desc>Created with Sketch.</desc>
    <defs>
        <linearGradient x1="12.3976427%" y1="0%" x2="100%" y2="100%" id="linearGradient-1">
            <stop stop-color="#8B632C" offset="0%"></stop>
            <stop stop-color="#B5874B" offset="100%"></stop>
        </linearGradient>
    </defs>
    <g id="19.-自扫canvas后（有手机号）" stroke="none" stroke-width="1" fill="none" fill-rule="evenodd" transform="translate(-192.000000, -853.000000)">
        <g id="Group-29" transform="translate(11.000000, 817.000000)">
            <g id="Group-28" transform="translate(74.000000, 27.000000)">
                <g id="本期奖品-B" transform="translate(107.000000, 9.000000)">
                    <circle id="Oval-4" fill="url(#linearGradient-1)" cx="5.5" cy="10" r="5.5"></circle>
                    <path d="M28.421875,2.578125 L28.421875,0 L31.3125,0 L31.3125,2.578125 L38.578125,2.578125 L38.578125,4.921875 L31.3125,4.921875 L31.3125,12.65625 L33.109375,12.65625 L33.109375,14.921875 L31.3125,14.921875 L31.3125,17.734375 L28.421875,17.734375 L28.421875,14.921875 L26.46875,14.921875 L26.46875,12.65625 L28.421875,12.65625 L28.421875,4.921875 L21.078125,4.921875 L21.078125,2.578125 L28.421875,2.578125 Z M22.875,14.21875 L23.96875,6.09375 L26.9375,6.09375 L25.6875,14.765625 C25.5833328,16.3281328 24.8802148,17.0833336 23.578125,17.03125 L21,17.03125 L21,14.84375 L22.171875,14.84375 C22.5885438,14.8958336 22.8229164,14.6875023 22.875,14.21875 Z M36.234375,17.03125 C35.1406195,16.9270828 34.4114602,16.2500063 34.046875,15 L32.484375,6.09375 L35.453125,6.09375 L37.09375,14.21875 C37.09375,14.6875023 37.3020813,14.8958336 37.71875,14.84375 L38.578125,14.84375 L38.578125,17.03125 L36.234375,17.03125 Z M42.5017362,3.046875 L41.7986112,3.046875 L41.7986112,0.78125 L42.4236112,0.78125 L42.4236112,0.078125 L45.2361112,0.078125 L45.2361112,0.78125 L47.6579862,0.78125 L47.6579862,0.078125 L50.3923612,0.078125 L50.3923612,0.859375 L51.1736112,0.859375 L51.1736112,3.046875 L50.3142362,3.046875 L50.3142362,12.03125 L51.0173612,12.03125 L51.0173612,14.0625 L41.7986112,14.0625 L41.7986112,12.03125 L42.5017362,12.03125 L42.5017362,3.046875 Z M51.5642362,0.390625 L59.6892362,0.390625 L59.6892362,16.40625 C59.6892362,17.2916711 59.0902838,17.734375 57.8923612,17.734375 L55.1579862,17.734375 L55.1579862,15.703125 L56.2517362,15.703125 C56.7204885,15.703125 56.9288198,15.572918 56.8767362,15.3125 L56.8767362,12.890625 L54.2204862,12.890625 L54.2204862,16.09375 C54.2204862,17.1875055 53.4652854,17.734375 51.9548612,17.734375 L50.0017362,17.734375 C48.6475627,17.7864586 47.9444448,17.5520859 47.8923612,17.03125 L47.2673612,14.609375 L50.0017362,14.609375 L50.1579862,15.390625 C50.2100698,15.5989594 50.4444424,15.703125 50.8611112,15.703125 C51.3298635,15.7552086 51.5642362,15.6250016 51.5642362,15.3125 L51.5642362,0.390625 Z M54.2204862,5.78125 L56.9548612,5.78125 L56.9548612,2.65625 L54.2204862,2.65625 L54.2204862,5.78125 Z M45.2361112,4.6875 L47.6579862,4.6875 L47.6579862,3.046875 L45.2361112,3.046875 L45.2361112,4.6875 Z M47.6579862,6.71875 L45.2361112,6.71875 L45.2361112,8.28125 L47.6579862,8.28125 L47.6579862,6.71875 Z M54.2204862,10.859375 L56.9548612,10.859375 L56.9548612,7.890625 L54.2204862,7.890625 L54.2204862,10.859375 Z M47.6579862,10.3125 L45.2361112,10.3125 L45.2361112,12.03125 L47.6579862,12.03125 L47.6579862,10.3125 Z M41.7204862,17.65625 L41.7204862,15.859375 L42.0329862,15.859375 C42.2413205,15.859375 42.3715276,15.7812508 42.4236112,15.625 L42.6579862,14.53125 L45.2361112,14.53125 L44.9236112,16.640625 C44.819444,17.3177117 44.3767401,17.65625 43.5954862,17.65625 L41.7204862,17.65625 Z M71.2690973,1.875 L72.2065973,1.875 C72.5711825,1.92708359 72.8055551,1.77083516 72.9097223,1.40625 L73.3784723,0.234375 L75.8784723,0.234375 L75.5659723,1.015625 L81.0347223,1.015625 L81.0347223,3.203125 L78.0659723,8.359375 C77.59722,9.34896328 76.8159778,9.79166719 75.7222223,9.6875 L71.3472223,9.6875 L71.3472223,7.421875 L73.2222223,7.421875 L73.0659723,6.875 C73.0659723,6.61458203 72.8576411,6.51041641 72.4409723,6.5625 L71.4253473,6.5625 L71.4253473,4.6875 L74.1597223,4.6875 C74.6805583,4.63541641 74.9930551,4.84374766 75.0972223,5.3125 L75.6440973,6.640625 L77.6753473,3.4375 L74.8628473,3.4375 C74.7065965,3.90625234 74.3420169,4.11458359 73.7690973,4.0625 L71.2690973,4.0625 L71.2690973,1.875 Z M67.9878473,9.6875 L67.9878473,0.234375 L70.6440973,0.234375 L70.6440973,9.6875 L67.9878473,9.6875 Z M65.2534723,4.140625 C64.5763856,4.19270859 64.1857645,3.77604609 64.0815973,2.890625 L63.6909723,0.390625 L66.1128473,0.390625 L66.3472223,1.640625 C66.3993059,2.00521016 66.6076372,2.16145859 66.9722223,2.109375 L67.3628473,2.109375 L67.3628473,4.140625 L65.2534723,4.140625 Z M63.5347223,7.578125 L64.0815973,7.578125 C64.4982661,7.63020859 64.7586801,7.44791875 64.8628473,7.03125 L65.4097223,5.625 L67.8315973,5.625 L66.8159723,8.59375 C66.6597215,9.37500391 66.1909762,9.73958359 65.4097223,9.6875 L63.5347223,9.6875 L63.5347223,7.578125 Z M63.5347223,11.171875 L70.3315973,11.171875 L70.3315973,10.15625 L73.2222223,10.15625 L73.2222223,11.171875 L80.8003473,11.171875 L80.8003473,13.515625 L74.3159723,13.515625 L76.2690973,15.46875 C76.5815989,15.7812516 77.0243028,15.9375 77.5972223,15.9375 L80.8003473,15.9375 L80.8003473,18.046875 L76.5034723,18.046875 C75.513884,18.0989586 74.8368075,17.8906273 74.4722223,17.421875 L71.8159723,14.921875 L69.2378473,17.265625 C68.8732622,17.7343773 68.222227,17.9427086 67.2847223,17.890625 L63.4565973,17.890625 L63.4565973,15.859375 L66.1128473,15.859375 C66.4774325,15.859375 66.8420122,15.7031266 67.2065973,15.390625 L69.4722223,13.515625 L63.5347223,13.515625 L63.5347223,11.171875 Z M84.4114585,17.421875 L84.4114585,9.21875 L92.5364585,9.21875 L92.5364585,15.625 C92.5364585,16.7708391 92.0677132,17.3697914 91.1302085,17.421875 L84.4114585,17.421875 Z M98.7864585,11.875 L95.8958335,11.875 L95.8958335,15.15625 L98.4739585,15.15625 C98.6822929,15.15625 98.7864585,15.026043 98.7864585,14.765625 L98.7864585,11.875 Z M89.8802085,11.796875 L87.0677085,11.796875 L87.0677085,15.15625 L89.5677085,15.15625 C89.7760429,15.15625 89.8802085,15.026043 89.8802085,14.765625 L89.8802085,11.796875 Z M93.2395835,17.5 L93.2395835,9.296875 L101.520833,9.296875 L101.520833,15.859375 C101.520833,16.9010469 101.026047,17.4479164 100.036458,17.5 L93.2395835,17.5 Z M84.8020835,8.671875 L84.8020835,0.3125 L101.208333,0.3125 L101.208333,6.71875 C101.052083,7.86458906 100.375006,8.51562422 99.1770835,8.671875 L84.8020835,8.671875 Z M98.3177085,2.734375 L87.8489585,2.734375 L87.8489585,6.171875 L97.6145835,6.171875 C98.1354194,6.171875 98.3697921,5.98958516 98.3177085,5.625 L98.3177085,2.734375 Z" id="本期奖品" fill="#966C34"></path>
                </g>
            </g>
        </g>
    </g>
</svg>