<?xml version="1.0" encoding="UTF-8"?>
<svg width="178px" height="104px" viewBox="0 0 178 104" version="1.1" xmlns="http://www.w3.org/2000/svg" xmlns:xlink="http://www.w3.org/1999/xlink">
    <!-- Generator: Sketch 48.1 (47250) - http://www.bohemiancoding.com/sketch -->
    <title>big activity</title>
    <desc>Created with Sketch.</desc>
    <defs>
        <path d="M53.1719804,18.5 C54.352823,19.1703401 55.5484082,19.8552426 56.7587719,20.554728 C57.1425457,20.9627611 57.4377519,21.2687813 57.6443994,21.4727979 C57.8510468,21.6768145 57.9838896,21.9536899 58.0429318,22.3034326 C58.1019739,22.6531753 58.0945937,22.8936198 58.0207911,23.0247733 C57.9469884,23.1559268 57.8510464,23.3817989 57.7329621,23.7023963 C57.4672725,23.789832 57.2237274,23.8918388 57.0023194,24.0084196 C56.7809114,24.1250005 56.3085815,24.0594248 55.5853154,23.8116904 C54.8620493,23.563956 54.3823392,23.3672287 54.1461706,23.2215026 L54.1018893,23.0466321 L52.2863528,23.2652202 L52.064946,23.0466321 L50.072284,23.5712435 L50.0280026,24.7516191 C53.5410094,24.4310217 56.2790471,24.2780115 58.242198,24.2925842 C60.2053488,24.3071568 62.7072215,24.5476013 65.7478913,25.0139248 C65.8954966,24.8973439 66.0283394,24.7807648 66.1464237,24.6641839 C66.2645079,24.547603 66.508053,24.4893134 66.8770664,24.4893134 C67.2460797,24.4893134 67.5412859,24.6131788 67.7626939,24.8609132 C67.9841019,25.1086476 68.227647,25.3053749 68.4933366,25.451101 C68.7590262,25.5968271 68.987811,25.7716958 69.1796979,25.9757124 C69.3715849,26.1797289 69.6889315,26.4857492 70.1317475,26.8937823 C70.1612686,27.3018154 70.1907892,27.6005495 70.2203103,27.7899935 C70.2498313,27.9794374 70.2055504,28.1324475 70.0874661,28.2490284 C69.9693819,28.3656093 69.8365391,28.5696228 69.6889338,28.8610751 C69.1280335,29.0068012 68.4342989,29.2035285 67.6077091,29.4512629 C66.7811192,29.6989973 66.2054671,29.8520074 65.8807354,29.9102978 L65.8807354,29.6042745 C65.1131877,29.8082911 64.5227752,29.9613012 64.1094803,30.0633095 C63.6961854,30.1653178 63.4674006,30.209035 63.423119,30.1944624 C63.3788374,30.1798897 63.2976557,30.1580311 63.1795714,30.1288859 C62.8548397,30.3329025 62.5005922,30.4349092 62.1168184,30.4349092 L64.5080127,29.3856865 C64.4194495,29.3565412 64.3308877,29.312824 64.2423245,29.2545336 C64.1537613,29.1962432 63.998778,29.2253879 63.77737,29.3419688 C63.555962,29.4585497 63.1943344,29.6042737 62.6924763,29.779145 L62.5596322,29.6917098 L62.4710694,29.8665802 C61.851127,30.0705968 61.4156979,30.2163207 61.1647688,30.3037564 C60.9138398,30.3911921 60.7071954,30.427623 60.5448295,30.4130504 C60.3824637,30.3984778 60.2201003,30.4567674 60.0577344,30.5879209 C59.8953685,30.7190744 59.6370631,30.8502259 59.2828103,30.9813794 C58.9285575,31.1125329 58.618591,31.2436845 58.3529014,31.374838 C58.0872118,31.5059915 57.7034437,31.7172912 57.2015856,32.0087434 L57.5558366,31.7464377 L57.600118,31.5278496 C56.8620914,31.9067375 56.0797949,32.1981854 55.2532051,32.402202 C55.4008104,32.3147663 56.7439987,31.6225776 59.2828103,30.3256152 C61.8216219,29.0286528 63.3566943,28.1980264 63.8880735,27.8337111 C64.4194526,27.4693958 64.9951048,27.0540826 65.6150471,26.587759 L65.5707658,26.3691709 L65.0393892,26.2817357 L65.2607961,26.1943005 C64.8770223,26.0485743 64.5670557,25.9684262 64.3308872,25.9538536 C64.0947187,25.939281 63.8216529,25.8809914 63.5116818,25.7789831 C63.2017106,25.6769748 62.7441409,25.6332576 62.1389591,25.6478303 C61.5337773,25.6624029 61.0688274,25.6624029 60.7440957,25.6478303 C60.419364,25.6332576 60.0577364,25.6259715 59.659202,25.6259715 L57.6443994,25.6259715 L57.3787111,25.8882771 L57.5558366,25.6696891 C57.2015838,25.6405438 56.8916173,25.684261 56.6259277,25.8008419 L57.0244601,25.8445595 L56.537365,25.9319948 L56.6259277,25.8008419 L55.9617071,25.8008419 L55.9174257,25.9319948 L56.1388326,25.9319948 C56.0133686,26.0048576 54.1019083,26.354595 50.2936909,27.0249352 L50.1165654,28.1178756 C50.6774656,27.9430042 51.1276551,27.7972803 51.4671474,27.6806994 C51.8066396,27.5641185 52.2346887,27.4621118 52.7513073,27.3746761 C53.2679259,27.2872404 53.8066773,27.2580956 54.3675775,27.2872409 C54.9284778,27.3163861 55.3639069,27.4548238 55.6738781,27.7025582 C55.9838493,27.9502926 56.3897579,28.2635991 56.891616,28.642487 L55.2974864,29.8228626 L55.5188933,29.210816 C55.3417669,29.210816 55.1646432,29.2326746 54.9875168,29.2763924 C54.8103904,29.3201102 54.4487628,29.2836793 53.9026231,29.1670984 C53.3564834,29.0505175 52.8324923,28.9630831 52.3306342,28.9047927 C51.8287761,28.8465022 51.445008,28.8610746 51.1793184,28.9485103 C50.9136288,29.035946 50.588902,29.1088079 50.2051281,29.1670984 L50.1165654,30.9595206 C51.0907605,30.6972136 51.8361563,30.4859139 52.3527749,30.3256152 C52.8693935,30.1653165 53.4229052,30.0633097 54.0133265,30.0195919 C54.6037478,29.9758741 55.0613175,30.048736 55.3860492,30.23818 C55.7107809,30.4276239 56.1093093,30.6243512 56.5816463,30.8283678 C56.3749989,31.0032391 56.2273958,31.1271045 56.1388326,31.1999675 C56.0502694,31.2728306 55.9174266,31.2946892 55.7403002,31.2655439 C55.5631738,31.2363987 55.4008104,31.3092607 55.2532051,31.484132 C55.1055997,31.6590034 54.8620546,31.8411583 54.5225623,32.0306022 C54.1830701,32.2200462 53.7255005,32.3074805 53.1498397,32.2929079 C52.5741789,32.2783353 52.0944688,32.2929077 51.7106949,32.3366255 C51.3269211,32.3803434 51.039095,32.3511986 50.8472081,32.2491903 C50.6553212,32.147182 50.3822554,32.0233167 50.0280026,31.8775906 L49.6737516,36.4679403 L49.3195006,36.2930698 C49.1128532,36.4096507 48.9062088,36.5116575 48.6995614,36.5990931 C48.7881245,36.6865288 49.3563965,36.9342595 50.4043943,37.3422926 C51.4523922,37.7503257 52.1682673,38.1219218 52.5520411,38.4570918 C52.9358149,38.7922619 53.4229052,39.2367199 54.0133265,39.7904791 C53.9838055,40.2859479 53.9764253,40.6356853 53.9911858,40.8397019 C54.0059464,41.0437185 53.9542853,41.2040148 53.836201,41.3205957 C53.7181168,41.4371766 53.5705136,41.6120453 53.3933872,41.8452071 C53.1867398,41.8452071 53.0169962,41.8306347 52.8841514,41.8014895 C52.7513066,41.7723442 52.5225218,41.7723442 52.1977901,41.8014895 C51.8730584,41.8306347 51.430249,41.6994832 50.8693488,41.4080309 C50.3084486,41.1165787 49.7549369,40.9854272 49.2087972,41.0145724 C48.6626575,41.0437176 48.2272283,41.1092934 47.9024966,41.2113017 C47.5777649,41.3133099 47.1497158,41.4226029 46.6183367,41.5391838 L44.4485492,44.0310879 L44.891363,43.8562174 L45.2013326,43.5064765 C45.6146275,43.564767 45.9172139,43.6011979 46.1091008,43.6157705 C46.3009878,43.6303432 46.4928718,43.6959189 46.6847587,43.8124998 C46.8766457,43.9290807 47.1644717,44.1330942 47.5482456,44.4245464 L47.1939946,44.7742874 L47.2825573,44.9491578 L46.9725877,45.2114635 L46.1755229,45.6049221 L45.8212719,46.3044039 L44.9799257,46.6978625 L44.7142375,48.1842614 C45.1275324,48.0093901 45.7696059,47.8345214 46.6404773,47.65965 C47.5113488,47.4847787 48.0796208,47.30991 48.3453103,47.1350387 L48.4781545,47.2224739 C48.6257598,47.1933287 48.7438423,47.1714701 48.8324055,47.1568975 C48.9209687,47.1423249 49.0980924,47.2297592 49.363782,47.4192032 C49.6294716,47.6086471 49.8656366,47.8053744 50.072284,48.009391 L50.1608468,48.3154143 C48.2419775,49.5686589 46.3378974,50.8364571 44.4485492,52.1188469 L44.3157051,52.9494816 C44.8470843,52.5705937 45.4227364,52.2135701 46.0426788,51.8784 C46.6626211,51.54323 47.1054305,51.3246441 47.3711201,51.2226358 C47.6368096,51.1206275 47.9615365,51.0113345 48.3453103,50.8947537 L47.8139338,51.419365 L46.3526484,52.4248702 C46.7069012,52.920339 47.1054296,53.3575108 47.5482456,53.7363987 L47.2825573,53.0806345 L47.4596828,53.1680697 L47.2825573,52.7746112 L48.6109986,53.7801163 L48.8102648,53.7145399 C48.8545464,53.6999673 48.980009,53.7218259 49.1866565,53.7801163 C49.3933039,53.8384068 49.7180308,53.8966963 50.1608468,53.9549868 L50.4708164,51.9439764 L50.5150978,53.7801163 C50.8398295,50.2243991 51.1571762,48.0239677 51.4671474,47.1787563 C51.7771186,46.3335448 51.9763828,45.5029184 52.064946,44.6868521 C52.1535092,43.8707859 52.146129,43.3753245 52.0428053,43.2004532 C51.9394815,43.0255819 51.8287792,42.8361407 51.7106949,42.6321242 C51.9763845,42.6321242 52.1682686,42.624838 52.2863528,42.6102654 C52.4044371,42.5956928 52.5225196,42.6321237 52.6406039,42.7195594 C52.7586881,42.8069951 52.9800928,42.8944294 53.3048245,42.9818651 L53.7919196,45.9983806 C54.9727622,45.3863309 55.910042,44.9491592 56.603787,44.6868521 C57.2975321,44.4245451 58.0503079,44.1695283 58.8621372,43.9217939 C59.6739665,43.6740595 60.2053377,43.5356217 60.4562668,43.5064765 C60.7071958,43.4773313 60.8843196,43.4991899 60.9876433,43.5720529 C61.090967,43.644916 61.2607106,43.7250641 61.4968791,43.8124998 L61.5854419,44.3371112 L61.1869095,44.6868521 L61.2754722,44.9054402 L61.0983467,45.0803107 L60.9655026,45.3426164 L60.8326585,45.4300516 L59.8141868,46.6104273 L57.0244601,48.7963081 L57.7772435,47.8782381 L57.3787111,48.1405438 C57.9691324,47.4993489 58.5300243,46.8144464 59.0614034,46.0858159 C58.9137981,46.1149611 58.7292942,46.1659645 58.5078862,46.2388275 C58.2864782,46.3116906 58.1462553,46.3918387 58.0872131,46.4792744 L57.9986504,46.3481216 C57.7624819,46.5812833 57.4672756,46.7561521 57.1130229,46.872733 L57.3787111,47.0038858 L57.1130229,47.1350387 L57.0244601,46.8290153 L56.9358974,47.0038858 L56.7144905,47.0476034 L56.9801787,47.2224739 L55.6074561,47.7908029 L56.0059885,47.441062 L53.9690451,48.2716967 L53.7919196,52.7308935 C54.2347356,52.4977318 54.9579909,52.0387014 55.9617071,51.3537886 C56.9654233,50.6688759 57.6443976,50.2681351 57.9986504,50.1515542 L58.0429318,49.9329661 L58.3971828,49.8892485 L58.4857455,49.5832252 L58.7514338,49.5832252 L59.0614034,49.2334842 C59.5927826,49.2334842 60.1241538,49.2043394 60.655533,49.146049 L60.2127192,49.5395075 L60.3898447,49.5832252 C60.3012815,49.7289513 60.2200998,49.867389 60.1462971,49.9985425 C60.0724945,50.129696 59.9913128,50.2899923 59.9027496,50.4794363 C59.8141864,50.6688802 59.7256245,50.843749 59.6370613,51.0040477 C59.5484981,51.1643464 59.5042172,51.3756461 59.5042172,51.6379531 L59.8584682,51.5505179 L59.5484986,52.0751293 L59.3713731,52.0751293 C58.9875992,52.424872 58.7292938,52.6653165 58.596449,52.79647 C58.4636042,52.9276235 58.3381415,53.0150578 58.2200573,53.0587757 C58.101973,53.1024935 57.9396096,53.1534969 57.7329621,53.2117873 L57.5558366,53.4303754 L56.891616,53.8238339 L56.891616,54.0861396 C56.8030528,54.0569944 56.6037886,54.1371426 56.2938174,54.3265865 C55.9838462,54.5160305 55.6517392,54.7127578 55.2974864,54.9167743 L56.1388326,55.2227977 L56.0502698,55.0479272 L56.2716767,54.9167743 L57.3787111,55.528821 L56.6702091,54.9167743 C57.5853621,55.4705336 58.2569563,55.8494158 58.6850117,56.0534324 C59.1130672,56.2574489 59.5115956,56.4104591 59.8806089,56.5124673 C60.2496222,56.6144756 60.7883736,56.7820581 61.4968791,57.0152199 C61.5854423,56.636332 61.666624,56.3084532 61.7404267,56.0315736 C61.8142294,55.7546939 61.8954111,54.8002022 61.9839743,53.1680697 C62.0725375,51.5359372 62.2570414,49.5832365 62.5374915,47.3099091 C62.8179416,45.0365817 63.0098256,43.1786016 63.1131494,41.735913 C63.2164731,40.2932245 63.2238533,39.4771705 63.1352901,39.2877265 C63.0467269,39.0982826 62.9434047,38.8724105 62.8253204,38.6101035 L61.8954115,38.6101035 C61.6297219,38.6101035 61.113111,38.7121102 60.3455633,38.9161268 C59.5780156,39.1201434 58.9359421,39.3460155 58.4193235,39.5937498 C57.9027048,39.8414842 57.2163504,40.1547907 56.3602395,40.5336786 L56.183114,41.05829 C56.0355086,41.0874352 55.8288643,41.0582904 55.5631747,40.9708548 C55.2974851,40.8834191 55.0834606,40.7886985 54.9210947,40.6866903 C54.7587289,40.584682 54.4856631,40.4462442 54.1018893,40.2713729 C54.3085367,40.0673563 54.3970986,39.7759085 54.3675775,39.3970206 C54.7218303,39.0472779 55.0539373,38.7412576 55.3639085,38.4789506 C55.6738797,38.2166436 56.2052509,37.8304752 56.958038,37.3204338 C57.7108252,36.8103924 58.1979155,36.5408031 58.4193235,36.5116579 C58.6407315,36.4825127 58.810475,36.3950783 58.9285593,36.2493522 C59.0466436,36.1036261 59.4082712,35.9943331 60.013453,35.9214701 C60.6186349,35.848607 61.054064,35.6518797 61.3197536,35.3312823 C61.5854432,35.0106848 61.9396907,34.8722471 62.3825067,34.9159649 C62.8253226,34.9596827 63.4157351,35.1636962 64.1537617,35.5280115 C64.8917883,35.8923268 65.4305397,36.1837747 65.770032,36.4023639 C66.1095242,36.620953 66.5154328,36.9051147 66.9877698,37.2548574 C66.9877698,37.4297287 66.99515,37.5681665 67.0099105,37.6701747 C67.024671,37.772183 67.1058527,37.8960484 67.2534581,38.0417745 C67.4010634,38.1875006 67.6519887,38.4643761 68.0062415,38.8724092 L67.3420208,40.0090672 L66.8549257,40.489961 C66.8254046,40.6939775 66.7737435,40.8834187 66.6999409,41.05829 C66.6261382,41.2331613 66.286651,42.3479494 65.6814692,44.4026876 C65.0762874,46.4574259 64.6851391,48.0822477 64.5080127,49.2772019 L64.7294196,49.3209195 C64.6998985,49.8163883 64.6482375,50.1515533 64.5744348,50.3264246 C64.5006321,50.501296 64.448971,50.7125957 64.41945,50.9603301 C64.3899289,51.2080645 64.3751686,51.4630814 64.3751686,51.7253884 L64.5522941,51.2882122 C64.493252,54.261025 64.5153924,55.8494158 64.6187162,56.0534324 C64.7220399,56.2574489 64.8622628,56.4760348 65.0393892,56.7091966 L64.6851382,57.7584194 L65.1722334,57.2775256 L65.2165147,57.4086785 L64.5080127,58.0207251 C64.3899285,58.4579035 64.3456475,58.7857823 64.3751686,59.0043715 C64.4046897,59.2229606 64.4120698,59.6892772 64.3973093,60.4033352 C64.3825488,61.1173932 64.345648,61.6055683 64.2866058,61.8678753 C64.2275637,62.1301823 64.1832828,62.3196235 64.1537617,62.4362043 C64.1242406,62.5527852 64.1094803,62.7567987 64.1094803,63.048251 C64.0209171,63.1065414 63.9397354,63.1356862 63.8659328,63.1356862 C63.7921301,63.1356862 63.6888079,63.2085482 63.5559631,63.3542743 C63.4231183,63.5000004 63.1279121,63.5364314 62.6703356,63.4635683 C62.2127591,63.3907053 61.7994704,63.1866918 61.4304571,62.8515217 C61.0614437,62.5163516 60.7957581,62.3341967 60.6333923,62.3050515 C60.4710264,62.2759063 60.3012829,62.2030443 60.1241565,62.0864634 L60.6112516,61.911593 L59.5927799,61.3869816 L60.1241565,61.2121111 C59.7699037,61.0080945 59.5780196,60.6875019 59.5484986,60.2503235 L59.8141868,60.1628883 L59.5484986,59.9005826 L59.6813427,59.7694298 L60.2127192,59.7257121 L59.5484986,59.1136655 L59.5484986,58.8732186 C59.5484986,58.8003556 59.5115978,58.742066 59.4377951,58.6983482 C59.3639925,58.6546303 59.2532901,58.5599098 59.1056848,58.4141837 L58.596449,57.9114311 C58.4636042,57.7802776 58.1610178,57.5762641 57.6886808,57.2993844 C57.2163437,57.0225048 56.4635678,56.5051849 55.4303306,55.7474091 L55.2089237,55.528821 L56.4709429,56.1190088 C56.751393,56.2501623 56.9211366,56.3157381 56.9801787,56.3157381 L57.1130229,56.3157381 L56.4930836,55.5725386 C56.1683519,55.368522 55.9321869,55.2300843 55.7845816,55.1572212 C55.6369762,55.0843582 55.5041334,55.0552134 55.3860492,55.069786 C55.2679649,55.0843586 55.1056015,55.0916448 54.898954,55.0916448 L54.7218285,55.3102329 L53.6590755,55.8348443 C53.422907,57.4086863 53.3048245,58.9679324 53.3048245,60.5126292 L52.6848852,60.3377588 L52.1977901,61.4744168 C52.0206637,61.3578359 51.8583003,61.2412568 51.7106949,61.1246759 L51.4892881,61.5181344 L51.4007253,61.1683935 L50.8250674,60.6874997 C50.5593778,59.9297239 50.3822541,59.4124039 50.2936909,59.1355243 C50.2051277,58.8586447 50.0944254,58.647345 49.9615806,58.5016189 C49.8287358,58.3558928 49.6737525,58.1664517 49.4966261,57.9332899 L49.2309379,57.7584194 L49.8508771,57.3212432 L49.8508771,56.665479 C49.8508771,56.5197529 49.8877779,56.3521704 49.9615806,56.1627264 C50.0353832,55.9732825 50.116565,55.6454036 50.2051281,55.17908 L49.9394399,54.8730567 C49.6147082,55.0187828 49.1349981,55.2009378 48.5002952,55.4195269 C47.8655923,55.6381161 47.3858821,55.7619815 47.0611504,55.7911267 C46.7364187,55.8202719 46.3969316,55.9587096 46.0426788,56.206444 C45.688426,56.4541784 45.0389723,56.8986364 44.0942982,57.5398313 C44.0647771,58.5599141 43.9909756,59.5508369 43.8728913,60.5126292 L43.4300776,60.3814764 L42.898701,60.7312173 L42.6330128,61.2558287 C42.4854075,61.168393 42.3820853,61.0736725 42.3230432,60.9716642 C42.264001,60.8696559 42.1828193,60.6947872 42.0794956,60.4470528 C41.9761719,60.1993184 41.791668,59.740288 41.5259784,59.0699479 C37.5406346,61.3141301 35.4372902,62.4070596 35.2158822,62.3487691 C34.9944743,62.2904787 34.7361688,62.2176167 34.4409582,62.130181 C34.6180845,61.9844549 34.7066464,61.7950138 34.7066464,61.561852 L41.6145411,57.2775256 L41.9245108,55.5725386 L38.2934379,57.8895723 L37.9834683,57.2775256 C38.1015525,57.0735091 38.2122549,56.8257784 38.3155786,56.5343262 C38.4189023,56.2428739 38.5148443,56.024288 38.6034075,55.8785619 L38.2934379,55.8348443 C38.2048747,55.7765538 38.1458335,55.6964057 38.1163124,55.5943974 C38.0867913,55.4923891 37.8875271,55.1572241 37.5185138,54.5888922 C37.1495005,54.0205604 37.0683188,53.4959542 37.2749662,53.015058 C37.4816137,52.5341619 37.5332748,52.2135692 37.4299511,52.0532705 C37.3266273,51.8929718 37.2454456,51.7253892 37.1864035,51.5505179 C37.1273614,51.3756466 37.1199812,51.1934916 37.1642628,51.0040477 C37.2085444,50.8146037 37.2454452,50.5304421 37.2749662,50.1515542 C37.3044873,49.7726663 37.2749667,49.5103632 37.1864035,49.3646371 C37.0978403,49.218911 37.0092784,49.0148975 36.9207152,48.7525905 L37.71778,48.4028495 L37.6292173,48.2279791 L38.1384531,48.2279791 C38.2417768,48.2279791 38.3598593,48.1769757 38.4927041,48.0749674 C38.6255489,47.9729591 38.8100528,47.8053766 39.0462213,47.5722148 L38.6919703,47.091321 L38.8690958,46.7852977 C38.8100537,46.5812812 38.780533,46.428271 38.780533,46.3262628 C38.780533,46.2242545 38.824814,45.9400928 38.9133772,45.4737692 C39.0019404,45.0074457 39.0757419,44.4245499 39.1347841,43.7250646 C38.219631,43.9290811 37.4520948,44.0529465 36.8321525,44.0966643 C36.2122101,44.1403822 35.6513183,44.1840993 35.1494602,44.2278172 C34.6476021,44.271535 34.219553,44.2861074 33.8653003,44.2715348 C33.5110475,44.2569622 33.2306016,44.3079656 33.0239541,44.4245464 L32.4040148,44.0310879 C31.6659882,43.4481834 31.1493773,42.690419 30.8541667,41.7577719 C31.0608141,41.8160623 31.245318,41.8524933 31.4076839,41.8670659 C31.5700497,41.8816385 32.1383217,41.8379213 33.1125169,41.735913 C34.086712,41.6339048 36.2417174,41.08744 39.5775978,40.0965024 C39.666161,39.4553075 39.7252023,38.8869842 39.7547233,38.3915154 C39.7842444,37.8960466 39.7842444,37.575454 39.7547233,37.4297278 C39.7252023,37.2840017 39.7694832,37.1237054 39.8875675,36.9488341 L40.9060391,37.2111398 L41.127446,39.6156087 L44.4928306,38.8724092 L44.2271423,38.5663859 C44.3157055,38.4206597 44.3747468,38.245791 44.4042678,38.0417745 L45.4227395,37.6920335 L45.4227395,37.4734455 C45.186571,37.2985741 45.0168274,37.1528502 44.9135037,37.0362693 C44.8101799,36.9196884 44.6478165,36.8832574 44.4264085,36.9269753 C44.2050005,36.9706931 43.8581332,37.0216965 43.3857962,37.0799869 L44.2271423,36.5553755 L44.0057355,36.5116579 L44.3599865,35.9433289 C44.6551971,35.9141837 44.8618415,35.8850389 44.9799257,35.8558937 C45.09801,35.8267484 45.238233,35.848607 45.4005988,35.9214701 C45.5629647,35.9943331 45.8360304,36.0744813 46.2198043,36.161917 L46.8840249,36.9051164 L47.1054318,36.7739636 C46.7807001,36.4242209 46.588816,36.0161939 46.5297739,35.5498703 L46.7511808,35.593588 L46.7068994,35.3749999 L47.1054318,35.4187175 C46.9873475,35.1564105 46.8987857,34.8503902 46.8397435,34.5006476 L47.1939946,34.5443652 L46.7068994,34.0197538 L46.9283063,34.107189 C46.8692642,33.9906081 46.8987848,33.874029 47.016869,33.7574481 L46.662618,33.4951424 L46.7068994,33.7137305 L45.2898954,34.7192356 L45.2898954,34.9815413 C45.2308532,35.0106866 45.0980104,35.1054071 44.891363,35.2657058 C44.6847155,35.4260046 44.0721626,35.7465972 43.0536859,36.2274934 C42.0352091,36.7083896 41.4005157,36.9196893 41.1495867,36.8613988 C40.8986576,36.8031084 40.6255919,36.7302464 40.3303812,36.6428108 L40.1089743,36.2056346 L40.5960695,35.5498703 C41.747391,34.8795302 42.5961089,34.4059274 43.1422486,34.1290478 C43.6883883,33.8521682 44.1828587,33.7137305 44.6256747,33.7137305 C45.0684907,33.7137305 45.4522588,33.6627271 45.7769905,33.5607188 C46.1017222,33.4587105 46.3378872,33.327559 46.4854925,33.1672603 C46.6330979,33.0069615 46.8987835,32.7956618 47.2825573,32.5333548 L46.7068994,33.4514248 L47.7696524,33.8011657 C47.8877367,33.1308256 47.998439,32.5989332 48.1017628,32.2054727 C48.2050865,31.8120122 48.2862682,30.2454799 48.3453103,27.505829 C47.1054256,27.8264264 46.0869641,28.0522985 45.2898954,28.183452 C44.4928266,28.3146055 43.5038858,28.55505 42.3230432,28.9047927 C41.1422005,29.2545354 40.4115651,29.4949798 40.131115,29.6261333 C39.8506649,29.7572868 39.5037976,29.9248694 39.0905027,30.1288859 C39.1200237,30.4786286 39.1495444,30.7627903 39.1790654,30.9813794 C39.2085865,31.1999686 39.2012063,31.5788508 39.1569247,32.1180375 C39.1126431,32.6572241 39.1716844,33.0652511 39.3340502,33.3421307 C39.4964161,33.6190103 39.5111764,33.9323168 39.3783316,34.2820595 C39.2454868,34.6318022 39.2381067,35.4332838 39.3561909,36.6865284 C39.4742752,37.939773 39.4447546,38.646534 39.2676282,38.8068328 C39.0905018,38.9671315 38.8838574,39.1784312 38.6476889,39.4407382 L36.8764339,39.4407382 L36.3450573,39.003562 L35.7693994,38.6538211 C35.4446677,37.8086096 35.2454035,37.2257139 35.1716009,36.9051164 C35.0977982,36.584519 35.0018562,36.3586469 34.8837719,36.2274934 C34.7656877,36.0963399 34.6180845,35.914185 34.4409582,35.6810232 C35.1199427,34.3986334 35.6217932,33.0579732 35.946525,31.6590025 C35.8579618,31.5132764 35.7324991,31.2364009 35.5701333,30.8283678 C35.4077674,30.4203347 35.2380238,29.9977353 35.0608974,29.5605569 L35.5479926,29.1233808 L35.5037112,28.6862046 L36.4779015,28.2053108 L36.6107456,25.9319948 C36.787872,25.9028495 37.0830782,25.9975701 37.4963731,26.2161593 C37.909668,26.4347484 38.2786758,26.6169034 38.6034075,26.7626295 L38.780533,27.0686528 L38.6919703,27.2872409 L39.9318488,26.9812176 L40.1532557,26.7189119 L45.7769905,23.5712435 C45.1275271,23.2797913 44.6625773,23.0612054 44.3821272,22.9154792 C44.101677,22.7697531 43.8286113,22.5948844 43.5629217,22.3908678 C43.2972321,22.1868513 42.8987037,21.8371139 42.3673245,21.3416451 C42.2787613,20.6421597 42.2049598,20.1539845 42.1459176,19.8771049 C42.0868755,19.6002253 42.0794954,19.4180704 42.123777,19.3306347 C42.1680586,19.243199 42.2197196,19.1266199 42.2787618,18.9808938 L42.7215755,18.9808938 L43.4300776,19.7240933 C43.8433725,19.8989646 44.1976199,20.0374023 44.4928306,20.1394106 C44.7880412,20.2414189 45.2751315,20.3361394 45.954116,20.4235751 C46.6331005,20.5110108 47.6146612,20.4600074 48.8988275,20.2705635 C50.1829939,20.0811195 51.0095713,19.9062508 51.3785846,19.7459521 C51.7475979,19.5856533 52.0944653,19.4034984 52.419197,19.1994819 L52.6406039,18.9371762 L53.1719804,18.5 Z M47.5625,24.125 L43.9791667,26 L47.7291667,25.1891892 L47.6458333,24.1756757 L47.5625,24.125 Z M45.9564394,29.7746531 C46.1382585,29.7746531 46.2897721,29.7673485 46.4109848,29.7527393 C46.5321976,29.73813 46.6837112,29.7819572 46.8655303,29.8842221 C47.0473494,29.986487 47.3352253,30.1544912 47.7291667,30.3882396 C47.4867412,30.5927695 47.229168,30.7388601 46.9564394,30.8265157 C46.9261362,30.9433899 46.9034092,31.0383488 46.8882576,31.1113952 C46.873106,31.1844416 46.7973492,31.2720959 46.6609848,31.3743609 C46.5246205,31.4766258 46.2897744,31.7176753 45.9564394,32.0975165 L45.9564394,31.7907232 C45.8655298,31.7615046 45.767046,31.7322865 45.6609848,31.703068 C45.5549237,31.6738494 45.1837153,31.7030675 44.5473485,31.7907232 C43.9109817,31.8783788 43.3882596,32.0171649 42.9791667,32.2070855 C42.5700737,32.3970061 42.0170489,32.6380555 41.3200758,32.9302411 L40.9564394,33.5 L40.2291667,33.1055515 C40.2291667,32.7549289 40.2594694,32.4189205 40.3200758,32.0975165 C41.5625062,31.4547083 42.4640123,31.0018275 43.0246212,30.7388605 C43.5852301,30.4758935 44.0473467,30.3005848 44.4109848,30.2129292 C44.774623,30.1252735 45.2897694,29.9791829 45.9564394,29.7746531 Z M43.9304654,42.875 L40.764881,43.55 C40.6674779,44.2500035 40.5700762,44.7249987 40.4726732,44.975 C40.3752701,45.2250012 40.3103357,45.4999985 40.277868,45.8 C40.2454003,46.1000015 40.2291667,46.3749987 40.2291667,46.625 L43.9791667,42.875 L43.9304654,42.875 Z M52.0552572,46.625 C51.9666274,47.1410576 51.8927704,47.5452967 51.8336839,47.8377294 C51.7745974,48.130162 51.7302832,48.5602036 51.7007399,49.127867 C51.6711967,49.6955304 51.5973397,50.736231 51.4791667,52.25 L52.0552572,46.6766055 L52.0552572,46.625 Z M43.8367616,48.5 L40.3715717,51.3253425 L40.2291667,52.25 L43.5044831,50.1438356 L43.9791667,48.6027397 L43.8367616,48.5 Z M45.8541667,48.5 C45.7058608,48.5290699 45.5787435,48.5436047 45.4728107,48.5436047 C45.366878,48.5436047 45.223871,48.6235457 45.0437853,48.7834302 C44.8636997,48.9433148 44.5406097,49.1976727 44.0745056,49.5465116 L43.9791667,50.375 L45.8541667,48.5 Z M43.9791667,52.25 C43.7326866,52.3734574 43.5302238,52.473765 43.3717723,52.5509259 C43.2133208,52.6280868 42.9228308,52.8132701 42.5002934,53.1064815 C42.0777561,53.3996928 41.4263542,53.9320949 40.5460681,54.7037037 L40.2291667,56 L43.6622653,53.4074074 L43.9791667,52.25 Z M44.2135417,53.7910959 L43.9791667,56 L47.7291667,54.3047945 L46.7916667,52.25 L44.2135417,53.7910959 Z M40.2291667,56 L41.9102011,54.9402174 L42.1041667,54.125 L40.2291667,56 Z M94.4686397,27.875 C94.5884618,27.9313066 95.0078328,28.107262 95.7267653,28.4028716 C96.4456977,28.6984812 96.9549339,28.8885131 97.2544891,28.972973 C97.5540443,29.0574329 97.9135052,29.2685794 98.3328825,29.6064189 C98.4826601,29.8597986 98.6099691,30.0427922 98.7148134,30.1554054 C98.8196577,30.2680186 98.8346353,30.3947065 98.7597465,30.535473 C98.6848577,30.6762394 98.6174588,30.9296153 98.5575477,31.2956081 C98.3478591,31.4645279 98.190595,31.5841776 98.0857507,31.6545608 C97.9809063,31.724944 97.7487545,31.7530969 97.3892883,31.7390203 C97.0298221,31.7249436 96.6478949,31.8727462 96.2434954,32.1824324 C95.8390959,32.4921187 95.4721463,32.6751123 95.1426356,32.7314189 C94.8131248,32.7877255 94.4911078,32.8862606 94.1765749,33.027027 C93.8620419,33.1677935 93.5550024,33.3578254 93.2554473,33.5971284 C92.9558921,33.8364314 92.4616334,34.2094569 91.7726564,34.7162162 L91.4581251,38.8969595 L92.0422548,38.6858108 C92.0122992,38.3761246 91.9898329,38.1509016 91.9748552,38.0101351 C91.9598774,37.8693687 91.9898325,37.7426807 92.0647213,37.6300676 C92.1396101,37.5174544 92.2669191,37.3203843 92.4466523,37.0388514 C92.5964299,37.0388514 92.7462052,37.0036603 92.8959828,36.933277 C93.0457604,36.8628938 93.1431144,36.7995498 93.1880477,36.7432432 C93.2329809,36.6869367 93.3303349,36.6587838 93.4801125,36.6587838 L93.5250456,36.3209459 C93.7347342,36.4617124 93.9144646,36.5884003 94.0642422,36.7010135 C94.2140198,36.8136267 94.5659919,36.8980853 95.120169,36.9543919 C95.6743461,37.0106985 96.5055994,37.1373864 97.6139536,37.3344595 L98.1531502,37.8412162 C98.0033726,38.1227492 98.0333277,38.3620486 98.2430164,38.5591216 L97.4342214,38.8547297 L97.7038197,39.1081081 L97.2544891,39.4459459 L97.4342214,39.6570946 C97.1346662,39.6570946 96.7377615,39.7837825 96.2434954,40.0371622 C95.7492293,40.2905418 95.2924145,40.5509559 94.8730372,40.8184122 C94.45366,41.0858685 94.1091766,41.2618239 93.839577,41.3462838 L93.7047778,41.6841216 C93.4052226,41.7404282 93.165582,41.7826575 92.9858489,41.8108108 L92.7611836,42.1908784 L92.4915853,42.1064189 L92.6263845,42.2753378 L92.4466523,42.3597973 L92.4017192,42.2331081 L91.7726564,42.5287162 L91.6827903,42.7820946 L91.413192,42.9932432 C91.353281,44.3446014 91.2783933,45.2806843 91.1885267,45.8015203 C91.0986602,46.3223562 91.0537276,46.7728022 91.0537276,47.1528716 L91.0537276,48.9898649 C91.5030604,48.9335583 91.9374089,48.8702143 92.3567862,48.7998311 C92.7761634,48.7294478 93.7871471,48.6309128 95.3897674,48.504223 C96.9923877,48.3775332 97.9434612,48.2508452 98.2430164,48.1241554 C98.5425715,47.9974656 98.7971896,47.9270834 99.0068783,47.9130068 C99.2165669,47.8989301 99.5086289,47.7863186 99.8830729,47.5751689 C100.257517,47.3640192 100.834152,47.1739873 101.612995,47.0050676 C102.391839,46.8361478 103.043362,46.8643007 103.567583,47.089527 C104.091805,47.3147534 104.526153,47.624435 104.870642,48.0185811 C105.21513,48.4127272 105.649479,48.7153706 106.173701,48.9265203 C106.697922,49.13767 107.349445,49.4543898 108.128288,49.8766892 C108.51771,50.3271419 108.794795,50.622747 108.95955,50.7635135 C109.124305,50.90428 109.281569,51.0731972 109.431347,51.2702703 C109.581125,51.4673433 109.633546,51.7207192 109.588613,52.0304054 C109.543679,52.3400916 109.528702,52.5653146 109.54368,52.7060811 C109.558657,52.8468476 109.566146,53.0579941 109.566146,53.339527 C109.056902,53.5929067 108.562644,53.8322061 108.083355,54.0574324 L107.634025,54.5219595 L106.375899,55.1976351 L106.375899,54.8597973 C105.746833,54.5219578 105.132754,54.1700469 104.533644,53.8040541 C103.934534,53.4380612 103.53014,53.2409911 103.320452,53.2128378 L102.781255,52.6638514 C102.361878,52.6638514 102.069816,52.6427367 101.90506,52.6005068 C101.740305,52.5582768 101.575552,52.5090093 101.410797,52.4527027 C101.246041,52.3963961 101.118732,52.3260139 101.028866,52.2415541 C100.879088,52.2978606 100.74429,52.3471282 100.624468,52.3893581 C100.504646,52.431588 100.212584,52.5160467 99.7482737,52.6427365 C99.2839631,52.7694263 98.9095248,52.8257321 98.6249473,52.8116554 C98.3403699,52.7975788 97.7862011,53.0016871 96.9624243,53.4239865 C96.1386475,53.8462859 95.4272146,54.2967318 94.8281042,54.7753378 C95.7567253,53.9025857 96.6254223,52.9453881 97.4342214,51.9037162 L97.11969,52.0304054 L97.11969,51.777027 L97.7038197,51.6503378 C97.1346648,51.6503378 96.6853388,51.6362614 96.355828,51.6081081 C96.0263173,51.5799548 95.7117891,51.6081077 95.4122339,51.6925676 C95.1126787,51.7770274 94.8206168,51.8122185 94.5360393,51.7981419 C94.2514619,51.7840652 93.8171134,51.8262946 93.2329807,51.9248311 C92.6488481,52.0233676 92.1171456,52.1711702 91.6378573,52.3682432 C91.158569,52.5653163 90.8440407,52.621622 90.6942631,52.5371622 C90.5444855,52.4527023 90.3872214,52.4527023 90.222466,52.5371622 C90.0577107,52.621622 89.7956038,52.7342335 89.4361376,52.875 L89.2114723,52.7483108 C88.9119171,52.860924 88.52999,52.9735355 88.0656794,53.0861486 C87.6013688,53.1987618 87.241908,53.2480293 86.9872861,53.2339527 C86.7326642,53.2198761 86.5529337,53.2691436 86.4480894,53.3817568 C86.3432451,53.4943699 86.1560259,53.5436375 85.8864262,53.5295608 C85.6168266,53.5154842 84.119073,53.8251658 81.3931207,54.4586149 C78.6671684,55.092064 77.1769037,55.5002806 76.9222818,55.683277 C76.6676598,55.8662734 76.4654631,55.9718467 76.3156855,56 L75.7315558,55.2398649 L75.2822253,54.902027 L74.6531625,54.2263514 L73.9791667,53.7618243 C74.1888553,53.4239848 74.3236531,53.0579975 74.3835642,52.6638514 L74.9676939,52.3682432 C75.147427,52.3963965 75.274736,52.4245494 75.3496248,52.4527027 C75.4245136,52.480856 75.6641542,52.5230853 76.0685537,52.5793919 C76.4729532,52.6356985 78.4275216,52.1852525 81.9323174,51.2280405 C85.4371132,50.2708285 87.2344174,49.7781533 87.324284,49.75 L86.9648196,49.5388514 L86.5604221,49.7922297 L86.8300204,49.285473 L86.6502882,49.0320946 C86.8000658,48.8913281 86.9273748,48.7927931 87.0322191,48.7364865 C87.1370635,48.6801799 87.2718613,48.5323773 87.4366166,48.2930743 C87.601372,48.0537713 87.7211923,47.687784 87.7960811,47.1951014 L88.178012,44.6824324 C88.05819,44.7950456 87.9458584,44.8795042 87.8410141,44.9358108 C87.7361698,44.9921174 87.5489506,45.0624996 87.2793509,45.1469595 C87.0097513,45.2314193 86.6877343,45.414413 86.3132903,45.6959459 C85.9388463,45.9774789 85.6767394,46.1463961 85.5269618,46.2027027 L85.7516271,46.2449324 L85.2124304,46.6672297 C85.1225639,46.9206094 84.9727885,47.1458323 84.7630999,47.3429054 L83.5499074,48.0608108 C83.1604856,47.891891 82.8010248,47.7792796 82.4715141,47.722973 C82.2318699,47.44144 82.0296732,47.2302935 81.8649178,47.089527 C81.7001625,46.9487606 81.6102972,46.7094611 81.5953195,46.3716216 C81.5803417,46.0337821 81.5578754,45.8155973 81.5279199,45.7170608 C81.4979644,45.6185243 81.4530318,45.4847981 81.3931207,45.3158784 L80.8988571,44.8935811 C80.8389461,44.7246613 80.8015023,44.6050116 80.7865245,44.5346284 C80.7715467,44.4642451 80.8239681,44.2812515 80.9437902,43.9856419 C81.0636123,43.6900323 81.1759438,43.4929622 81.2807881,43.3944257 C81.3856324,43.2958891 81.430565,43.2114305 81.4155873,43.1410473 C81.4006095,43.0706641 81.4080983,43.0213965 81.4380538,42.9932432 L81.9323174,42.6131757 L82.2019157,42.2331081 C82.6512485,42.2612614 82.9732655,42.2823761 83.1679764,42.2964527 C83.3626873,42.3105293 83.5049739,42.3034911 83.5948404,42.2753378 C83.684707,42.2471845 83.7595947,42.2049552 83.8195057,42.1486486 C87.5040346,38.066421 89.3312939,35.8493824 89.3013384,35.4974662 C89.2713829,35.14555 89.2863604,34.7866009 89.3462715,34.4206081 C88.5374724,34.6458345 87.8784609,34.8288281 87.369217,34.9695946 C86.8599732,35.1103611 86.2309167,35.1877815 85.4820287,35.2018581 C84.7331407,35.2159348 84.1789719,35.1455526 83.8195057,34.9907095 C83.4600395,34.8358663 83.055646,34.6599109 82.6063132,34.4628378 C82.306758,34.1249983 82.0970725,33.9068136 81.9772505,33.808277 C81.8574284,33.7097405 81.7900295,33.5689761 81.7750517,33.3859797 C81.7600739,33.2029833 81.6702087,32.9918368 81.5054534,32.7525338 C81.340698,32.5132308 81.2583216,32.2809696 81.2583216,32.0557432 L81.2583216,31 L81.7975182,30.7466216 C82.1270289,30.971848 82.381647,31.1478034 82.5613802,31.2744932 C82.7411133,31.4011831 83.0256865,31.4926799 83.4151082,31.5489865 C83.80453,31.6052931 84.3961426,31.5489873 85.1899639,31.3800676 C85.9837852,31.2111478 87.3392521,30.8099694 89.2564054,30.1765203 C91.1735586,29.5430712 92.2744075,29.0715106 92.5589849,28.7618243 C92.8435623,28.4521381 93.1056692,28.2832209 93.3453134,28.2550676 C93.5849575,28.2269143 93.9593959,28.1002264 94.4686397,27.875 Z M87.0629579,39.125 C84.590418,42.6467567 83.3541667,44.4402171 83.3541667,44.5054348 L83.3541667,44.75 L86.8157051,42.548913 L87.1041667,39.173913 L87.0629579,39.125 Z M115.128205,18.5250996 C115.24359,18.5250996 115.337339,18.517779 115.409455,18.5031375 C115.481571,18.488496 115.661858,18.5250992 115.950321,18.6129482 C116.238783,18.7007973 116.46955,18.8252482 116.642628,18.9863048 C116.815706,19.1473614 117.089742,19.3889426 117.464744,19.7110558 C117.72436,20.3259991 117.911858,20.7505964 118.027244,20.9848605 C118.142629,21.2191246 118.200321,21.4826678 118.200321,21.7754979 C118.200321,22.0683281 118.243589,22.5514905 118.330128,23.2249999 C119.916675,22.2879434 121.618581,21.5412378 123.435897,20.9848605 L124.604167,21.5998007 L124.387821,22.1708166 L121.834936,24.0595616 L121.575321,23.8838644 L118.157051,26.5632467 L117.767628,27.7492029 L119.022436,27.3099598 L119.498397,26.6950196 L120.082532,26.6950196 C120.241187,26.6950196 120.443108,26.6364545 120.688301,26.5193224 C120.933495,26.4021904 121.330125,26.4387936 121.878205,26.6291332 C122.426285,26.8194728 122.758012,26.9805269 122.873397,27.1123005 C122.988783,27.2440741 123.133012,27.3831663 123.30609,27.5295814 L123.30609,28.210408 C123.30609,28.3421816 123.226764,28.4739532 123.068109,28.6057267 C122.909454,28.7375003 122.685899,28.9937228 122.397436,29.374402 L122.74359,29.9014936 L122.051282,30.0771908 L118.286859,35.0406368 L117.724359,35.6116527 C117.63782,35.8166338 117.580128,35.9850086 117.551282,36.1167822 C117.522436,36.2485558 117.233977,36.5999467 116.685897,37.1709654 C116.137818,37.7419842 115.611381,38.4960105 115.106571,39.4330669 C114.60176,40.3701234 114.133015,41.0655845 113.700321,41.5194712 C113.267626,41.9733579 112.957533,42.3393901 112.770032,42.6175787 C112.582531,42.8957674 112.416667,43.108066 112.272436,43.2544811 C112.128204,43.4008962 111.91186,43.6790806 111.623397,44.0890428 L111.277244,44.26474 L111.147436,44.3965129 C110.657049,44.7771921 110.108977,44.8503985 109.503205,44.6161344 C109.272435,44.1476062 109.09936,43.8254979 108.983974,43.6497998 C108.868589,43.4741017 108.803686,43.3203682 108.789263,43.1885947 C108.77484,43.0568211 108.767628,42.873805 108.767628,42.6395409 L109.027244,42.6834652 L109.157051,42.507768 L108.983974,42.2002979 L109.157051,42.1563736 C109.070512,41.9221095 109.070512,41.643925 109.157051,41.3218119 L109.546474,41.0582661 L109.373397,40.5750987 L109.676282,40.750796 L109.762821,40.5750987 L110.108974,40.5750987 C110.195513,40.5750987 110.296474,40.5384955 110.411859,40.465288 C110.527244,40.3920805 110.714742,40.2676295 110.974359,40.0919314 L113.613782,36.7536846 L112.748397,36.3144415 L112.05609,37.4125491 C111.969551,37.5003981 111.883013,37.544322 111.796474,37.544322 C111.709935,37.544322 111.601763,37.6102078 111.471955,37.7419813 C111.342147,37.8737549 111.118591,38.0860536 110.801282,38.3788837 L110.152244,38.1153379 C109.748395,37.5589606 109.452725,37.1490046 109.265224,36.8854575 C109.077723,36.6219103 108.933494,36.3071227 108.832532,35.941085 C108.73157,35.5750473 108.565706,34.9381513 108.334936,34.0303779 L107.729167,33.5472106 L107.945513,32.4930274 L109.935897,31.3509955 C111.782061,28.5398262 112.827723,26.8267956 113.072917,26.2118523 C113.31811,25.596909 113.455128,25.2455181 113.483974,25.1576691 C113.512821,25.0698201 113.556089,24.9819723 113.613782,24.8941233 L114.695513,25.4212149 C114.724359,25.714045 114.782051,25.9336643 114.86859,26.0800794 C114.955129,26.2264945 114.940706,26.5339615 114.825321,27.0024897 C114.709935,27.471018 114.580129,28.29093 114.435897,29.4622506 L115.820513,28.7594618 L115.907051,28.4519917 L115.43109,27.5295814 L115.690705,27.0024897 L115.43109,26.7389439 C115.459936,26.5339628 115.488782,26.3948706 115.517628,26.3216631 C115.546475,26.2484555 115.539263,26.1679285 115.495994,26.0800794 L115.301282,25.6847607 C115.445514,25.4212136 115.568108,25.2089149 115.669071,25.0478583 C115.770033,24.8868018 115.914262,24.4768457 116.101763,23.8179779 C116.289264,23.1591101 116.397436,22.4856109 116.426282,21.7974601 C116.455128,21.1093092 116.397437,20.6993532 116.253205,20.5675796 C116.108974,20.4358061 115.950321,20.25279 115.777244,20.0185259 L114.479167,19.6232072 L114.30609,19.1400399 L114.435897,18.8325698 L115.128205,18.5250996 Z M135.975179,20.375 L137.333442,20.375 C137.625542,20.375 137.873824,20.4191865 138.078295,20.5075609 C138.282766,20.5959352 138.574862,20.713766 138.954593,20.8610566 L139.480372,21.523861 C139.421952,21.9657328 139.38544,22.2897672 139.370835,22.4959741 C139.35623,22.7021809 139.283206,22.9231135 139.15176,23.1587785 C139.020315,23.3944434 138.779335,23.8215798 138.428814,24.4402003 L137.640146,25.0146308 L137.333442,25.6332482 C137.859223,25.6921644 138.260856,25.7289865 138.538352,25.7437156 C138.815847,25.7584447 139.115246,25.8394533 139.436557,25.9867439 C139.757868,26.1340345 140.298247,26.3844247 141.057709,26.7379222 L141.145339,27.4891005 L141.671118,27.9751571 L141.408228,28.1960919 L140.838634,27.8867831 L139.787077,28.3286527 L139.874706,28.5495875 L137.903035,28.3286527 L137.85922,28.1960919 L134.923621,27.9309701 L133.828249,28.9914571 C133.068786,29.9046589 132.265521,30.7442027 131.418429,31.5101138 C132.294731,31.6279463 133.543444,31.8046924 135.164603,32.0403574 C136.785763,32.2760223 137.742379,32.3791242 138.03448,32.3496661 C138.647892,32.820996 139.305109,33.2186747 140.006151,33.542714 C140.122991,34.0140439 140.385878,34.4117226 140.79482,34.7357619 L140.575745,35.0892576 L140.181411,35.3101924 C140.06457,35.221818 139.962337,35.1481738 139.874706,35.0892576 C139.787076,35.0303413 139.684842,35.0082481 139.568002,35.0229771 C139.451162,35.0377062 139.275904,35.0450706 139.042223,35.0450706 L139.217483,35.3985663 C139.071432,35.33965 138.939989,35.2733703 138.823149,35.199725 C138.706308,35.1260797 138.472631,35.1187152 138.12211,35.1776315 C137.771589,35.2365477 137.44298,35.3249208 137.136274,35.4427532 C136.829569,35.5605857 136.595891,35.6195011 136.435236,35.6195011 L135.79992,35.6195011 L135.668475,35.3985663 L135.186511,35.4869402 L135.53703,35.3543793 L135.230326,35.2660054 L135.580845,34.9566967 L135.055066,35.0892576 L135.055066,34.8683228 C134.733755,34.8977809 134.441659,34.8977809 134.178768,34.8683228 L135.79992,34.2938923 C135.478609,34.2055179 135.193815,34.1245093 134.945529,34.050864 C134.697243,33.9772187 134.514683,33.9403966 134.397843,33.9403966 C134.281002,33.9403966 134.164164,33.9183034 134.047323,33.8741162 C133.930483,33.829929 133.813644,33.8078357 133.696804,33.8078357 C133.579964,33.8078357 133.455823,33.7857425 133.324377,33.7415553 C133.192932,33.6973681 132.995767,33.6752749 132.732876,33.6752749 L132.732876,33.498527 C132.557615,33.5279851 132.404265,33.5500784 132.272819,33.5648075 C132.141374,33.5795365 131.82737,33.53535 131.330799,33.4322466 C130.834227,33.3291432 130.140498,33.2260413 129.249591,33.1229379 C128.358683,33.0198344 127.74528,33.0051056 127.409364,33.0787509 C127.073448,33.1523962 126.71563,33.2334048 126.335899,33.3217792 L126.248269,33.1008444 L125.371971,32.8799096 L125.547231,32.8357226 L125.152896,32.393853 L123.57556,35.663688 C124.510282,35.2807325 125.620249,34.8535961 126.905493,34.3822662 C128.190737,33.9109363 128.972095,33.7710123 129.249591,33.9624901 C129.527086,34.1539679 129.8703,34.3528072 130.279241,34.5590141 L131.067909,35.4427532 C131.652111,35.5605857 132.075651,35.6268655 132.338542,35.6415946 C132.601433,35.6563236 132.8059,35.715239 132.95195,35.8183424 C133.098001,35.9214458 133.287864,36.0319121 133.521544,36.1497446 C133.638385,36.3559514 133.726014,36.5474264 133.784434,36.7241751 L133.12721,36.812549 L132.820506,37.1660447 L132.207097,37.5637273 L132.864321,38.0939708 C132.63064,38.0939708 132.462684,38.0866064 132.360449,38.0718773 C132.258214,38.0571483 132.18519,38.0645127 132.141375,38.0939708 C132.097559,38.1234289 132.031838,38.1528866 131.944208,38.1823447 C131.330796,40.5389944 130.848837,42.9103375 130.498315,45.2964453 L131.681318,45.3848192 C131.213957,45.7383166 130.775812,46.1065376 130.366871,46.4894932 L129.884907,49.0081499 L132.645246,46.4011192 L133.477729,44.8987626 L133.652989,45.1638844 L133.915879,44.8103887 L134.047323,44.9429496 L134.616917,44.6336409 L134.792177,44.3685191 C135.055068,44.4274353 135.347164,44.4127065 135.668475,44.3243321 L136.676218,45.3848192 L136.588588,46.1359975 C136.179647,46.3127462 135.668478,46.6515095 135.055066,47.1522976 C134.441654,47.6530856 133.959695,48.0654931 133.609174,48.3895324 C133.258653,48.7135718 132.973859,48.9418688 132.754783,49.0744303 C132.535708,49.2069918 132.375055,49.332187 132.272819,49.4500195 C132.170584,49.5678519 132.031838,49.6267673 131.856578,49.6267673 C131.476847,50.2748459 131.126331,50.8787284 130.80502,51.4384326 C131.856583,51.6151814 132.630639,51.7551053 133.12721,51.8582088 C133.623782,51.9613122 134.222579,52.0423208 134.923621,52.101237 C135.624664,52.1601533 136.515558,51.9834072 137.596331,51.5709935 C138.677104,51.1585798 139.903909,50.6209772 141.276784,49.9581695 C142.649658,49.2953618 143.6866,48.7577592 144.387642,48.3453455 C145.088684,47.9329318 145.994183,47.3732359 147.104167,46.666241 L145.044866,48.4779063 L146.928907,47.2406715 L146.534573,47.5941672 L146.227868,47.9034759 L146.184054,48.2127846 L146.052609,48.0802237 C145.672878,48.5220955 145.409991,48.8240367 145.26394,48.9860564 C145.11789,49.148076 145.015656,49.2806356 144.957236,49.383739 C144.898816,49.4868424 144.855001,49.6562241 144.825791,49.8918891 L145.658275,48.9639629 C145.512224,49.229086 145.351571,49.4794763 145.176311,49.7151412 L145.395385,49.6267673 C145.278545,49.8329741 145.125194,50.2085595 144.935329,50.7535348 C144.745463,51.29851 144.643229,51.7182819 144.628624,52.0128631 C144.614019,52.3074443 144.614019,52.5062837 144.628624,52.6093871 C144.643229,52.7124905 144.679741,52.8671433 144.738161,53.0733502 L145.132496,53.3826589 L144.781976,53.6477806 L144.650532,54.354772 L145.044866,54.4431459 C144.898815,54.8261015 144.840396,55.238509 144.869606,55.6803808 L145.877349,56.0780634 L146.140239,56.6083069 L146.534573,56.4315591 L146.096424,57.0943635 L144.256197,58.5083462 L143.905678,59.1269636 C143.496737,59.3626286 143.175431,59.5541035 142.94175,59.7013941 C142.708069,59.8486847 142.299134,59.959151 141.714933,60.0327963 C141.130731,60.1064416 140.55384,60.0327974 139.984244,59.8118615 C139.414647,59.5909256 138.925385,59.3258065 138.516444,59.0164962 C138.107503,58.707186 137.545217,58.338965 136.82957,57.9118222 C136.113923,57.4846795 135.113493,57.072272 133.828249,56.6745874 C132.543005,56.2769027 131.666715,55.9749615 131.199354,55.7687547 C130.731993,55.5625478 130.381477,55.4226239 130.147796,55.3489786 C129.914115,55.2753333 129.5636,55.1501381 129.096238,54.9733894 C128.833348,55.6509262 128.650787,56.1148846 128.548552,56.3652786 C128.446317,56.6156727 128.402502,56.7850543 128.417107,56.8734287 C128.431712,56.961803 128.468224,57.0796338 128.526644,57.2269244 L127.168382,59.3920854 C126.847071,59.6866666 126.591487,59.922328 126.401621,60.0990767 C126.211756,60.2758255 125.883147,60.5041225 125.415786,60.7839746 C124.948424,61.0638268 124.386139,61.2847593 123.728912,61.446779 C123.071685,61.6087987 122.648145,61.6603496 122.458279,61.6014334 C122.268414,61.5425171 122.042039,61.4541441 121.779148,61.3363116 L121.384814,60.6735072 L120.289441,60.3641985 C120.02655,60.0401592 119.84399,59.826591 119.741755,59.7234876 C119.63952,59.6203842 119.588403,59.5025534 119.588403,59.3699919 C119.588403,59.2374304 119.551891,59.090142 119.478865,58.9281223 C119.40584,58.7661026 119.369328,58.3389663 119.369328,57.6467005 C119.369328,56.9544346 119.566493,55.6803901 119.960829,53.8245285 C120.355166,51.9686669 120.742193,50.2012062 121.121925,48.5220933 C121.501656,46.8429804 121.523563,45.7751396 121.187647,45.3185387 C120.851731,44.8619379 120.669171,44.5010813 120.639961,44.2359582 C120.61075,43.9708351 120.508517,43.4553258 120.333256,42.6894146 L119.237883,44.3685191 C119.033413,44.5747259 118.836248,44.7367432 118.646382,44.8545757 C118.456517,44.9724081 118.142513,45.0386879 117.704362,45.053417 C117.26621,45.068146 116.849973,45.0018663 116.455637,44.8545757 C116.0613,44.7072851 115.623156,44.7882937 115.141189,45.0976039 C114.659223,45.4069142 114.337917,45.5394738 114.177261,45.4952866 C114.016606,45.4510994 113.804836,45.4142773 113.541945,45.3848192 C113.454315,45.0607798 113.395895,44.8398473 113.366685,44.7220148 C113.337475,44.6041823 113.359382,44.493716 113.432408,44.3906126 C113.505433,44.2875092 113.585759,44.1181275 113.67339,43.8824625 L113.541945,43.5289669 L113.980094,43.2196581 L113.892464,42.8661625 L114.067724,42.8661625 C114.009304,42.7777881 113.994699,42.6452286 114.023909,42.4684798 L114.768762,42.8219755 L117.266212,40.7893754 C119.603019,37.9024796 121.165736,35.8625353 121.954408,34.6694815 C122.74308,33.4764276 123.371088,32.4159511 123.838449,31.4880204 C124.30581,30.5600896 124.532185,29.9635716 124.51758,29.6984485 C124.502975,29.4333254 124.510278,29.286037 124.539488,29.2565789 C124.568698,29.2271208 124.597907,29.1829343 124.627117,29.124018 L125.72249,29.6100746 C125.72249,29.8162814 125.759002,29.9709342 125.832027,30.0740376 C125.905053,30.1771411 125.875843,30.3538871 125.744398,30.6042812 C125.612952,30.8546752 125.444997,31.3186336 125.240526,31.9961704 L125.72249,32.0403574 L125.766305,31.7310486 L126.073009,31.5101138 L126.073009,31.1566182 C126.18985,31.12716 126.248269,31.0903379 126.248269,31.0461508 C126.394319,31.0535154 126.467343,31.0682442 126.554973,31.0682442 L126.116824,30.3170659 C126.233665,30.3170659 126.350503,30.2581506 126.467344,30.1403181 L126.774048,30.3170659 L126.686418,29.9635702 L125.98538,29.3891398 L127.869421,30.272879 C129.154665,29.5069678 130.38147,28.579051 131.549873,27.4891005 C130.907251,27.4596424 129.760773,27.4670068 128.110403,27.511194 C126.460033,27.5553812 125.503417,27.5627456 125.240526,27.5332875 L124.890007,26.7821092 L125.065267,26.4728004 C126.408931,26.2371355 127.489688,26.053025 128.30757,25.9204634 C129.125452,25.7879019 130.191605,25.7584442 131.506058,25.8320895 C132.820512,25.9057348 133.711407,25.6921667 134.178768,25.1913786 C134.646129,24.6905906 135.244927,24.0719793 135.975179,23.3355263 L136.851478,22.0541045 C136.500956,22.0541045 136.20886,22.04674 135.975179,22.032011 C135.741499,22.0172819 135.179213,22.1424771 134.288305,22.4076001 C133.397398,22.6727232 132.477294,23.0409442 131.527966,23.5122741 C130.578638,23.9836041 129.833792,24.2560876 129.293405,24.3297329 C128.753019,24.4033782 128.088499,24.5285733 127.299827,24.705322 C127.066146,24.3812827 126.905493,24.123528 126.817863,23.9320503 C126.730233,23.7405725 126.533068,23.416538 126.226362,22.9599371 C125.919656,22.5033363 125.766305,22.1866662 125.766305,22.0099175 C125.912356,22.0099175 126.007287,21.9730954 126.051102,21.8994501 C126.094917,21.8258048 126.248268,21.8478981 126.511159,21.9657305 C126.774049,22.083563 127.153775,22.1498428 127.650346,22.1645719 C128.146918,22.1793009 128.97209,22.0172837 130.125889,21.6785153 C131.279687,21.3397469 133.229431,20.9052462 135.975179,20.375 Z M118.922348,29.75 L118.24053,30.3181818 L118.24053,30.7159091 L117.104167,31.3409091 L117.160985,31.625 C117.388259,31.3977261 117.672347,31.2840909 118.013258,31.2840909 L118.979167,29.8068182 L118.922348,29.75 Z M118.979167,29.75 C118.927083,29.7788767 118.809897,29.807753 118.627604,29.8366297 C118.445312,29.8655064 118.197918,29.9449162 117.885417,30.0748613 C117.572915,30.2048065 117.312501,30.2697782 117.104167,30.2697782 L117.104167,30.5296672 L118.588542,30.0965188 L118.979167,29.75 Z M115.229167,31.625 C114.541663,32.1022751 113.916669,32.6590877 113.354167,33.2954545 L113.979167,33.5 L115.229167,31.625 Z M128.354167,37.25 C127.732695,37.5178585 126.72988,37.860117 125.345692,38.2767857 C123.961504,38.6934545 123.085807,38.9017857 122.718573,38.9017857 L120.854167,42.6071429 L121.913489,42.875 C124.032143,41.2976112 126.136642,39.7351268 128.227048,38.1875 L127.972811,38.0982143 L126.320268,39.3482143 L126.362641,39.2589286 L126.871116,38.8125 L128.354167,37.25 Z M130.229167,39.125 C129.895832,39.5416687 129.520835,39.7760414 129.104167,39.828125 C128.770832,40.1927102 128.520834,40.5833313 128.354167,41 L130.166667,39.4375 L130.229167,39.125 Z M128.354167,39.125 C127.857841,39.535586 127.402882,39.9051078 126.989277,40.2335766 L126.782475,40.479927 L126.410233,40.5209854 L126.368873,40.7262774 L126.120711,40.8905109 L126.120711,41.2600365 L125.831189,41.5063869 L125.95527,41.2600365 L125.748468,41.5063869 C125.527879,41.6706213 125.321079,41.8485392 125.128064,42.040146 L124.962623,41.9990876 L124.6731,42.245438 C124.452511,42.4096724 124.259498,42.5465323 124.094056,42.6560219 L123.969975,42.5328467 C123.832107,42.7518259 123.680454,42.9434298 123.515012,43.1076642 L123.060049,43.5182482 L122.729167,44.7089416 L122.811887,44.75 C124.438734,43.518242 126.120702,42.3823045 127.857843,41.3421533 L128.354167,39.125 Z M124.604167,41.6064078 L124.604167,41.7796672 L125.313201,41.2165742 L125.224572,41 L124.604167,41.6064078 Z M128.354167,42.875 L128.125508,42.875 C128.034044,42.875 126.860276,44.088756 124.604167,46.5163043 L125.701728,46.625 C126.433439,45.6467342 126.959348,44.985509 127.279472,44.6413043 C127.599595,44.2970997 127.805386,44.0163054 127.89685,43.798913 C127.988313,43.5815207 128.140751,43.2735527 128.354167,42.875 Z M128.354167,44.75 C127.711306,45.3382382 127.086313,45.9490918 126.479167,46.5825791 C126.550596,46.5825791 126.630952,46.5938912 126.720238,46.6165157 C126.809524,46.6391403 126.961308,46.6165161 127.175595,46.5486424 C127.389882,46.4807688 127.711307,46.3337115 128.139881,46.107466 L128.354167,44.75 Z M125.247024,46.625 L123.157738,48.1990741 L122.729167,50.375 L123.532738,49.8657407 L126.479167,46.9027778 L125.729167,46.6712963 L125.247024,46.625 Z M127.196759,46.625 L126.224537,47.4834337 L124.604167,50.375 L124.835648,50.375 C124.897377,50.375 125.190584,50.1641587 125.715278,49.7424699 C126.239972,49.320781 127.042433,48.6280169 128.122685,47.6641566 L127.983796,47.438253 L128.261574,47.5286145 L128.354167,47.3478916 L127.335648,46.6701807 L127.196759,46.625 Z M127.979167,48.5 L126.918191,49.3247423 L126.77185,49.7027491 L126.954776,49.7714776 C127.149899,49.4507429 127.405994,49.1758316 127.723069,48.9467354 C127.723069,49.0383739 127.704777,49.1185563 127.668191,49.1872852 C127.631605,49.2560141 127.527948,49.3591058 127.357215,49.4965636 C127.186483,49.6340213 126.893803,49.9203873 126.479167,50.3556701 C126.69868,50.3556701 126.863312,50.3613974 126.973069,50.3728522 C127.082826,50.384307 127.210873,50.3499431 127.357215,50.2697594 C127.503558,50.1895757 127.631605,50.103666 127.741362,50.0120275 C127.851118,49.920389 128.003556,49.7829333 128.198679,49.5996563 C128.247459,49.4851082 128.290142,49.4049258 128.326728,49.3591065 C128.363313,49.3132873 128.363313,49.2560141 128.326728,49.1872852 C128.290142,49.1185563 128.235264,49.00401 128.162093,48.8436426 L127.979167,48.9810996 L127.86941,48.8780069 C127.991362,48.809278 128.040142,48.6947316 128.015752,48.5343643 L127.979167,48.5 Z M124.604167,52.25 C124.118053,52.8750031 123.545142,53.1875 122.885417,53.1875 L122.729167,54.125 C122.937501,54.0769228 123.189235,53.9086553 123.484375,53.6201923 C123.779515,53.3317293 124.152776,52.8750031 124.604167,52.25 Z M125.655996,54.125 C125.381604,54.3363159 124.901426,54.6230975 124.215447,54.9853533 C123.529468,55.3476091 123.034046,55.6343907 122.729167,55.8457066 C122.790143,56.99285 122.813008,57.7852728 122.797764,58.2229986 C122.78252,58.6607244 122.805386,58.939959 122.866362,59.060711 C122.927338,59.1814629 123.003556,59.3625881 123.09502,59.604092 C123.24746,59.664468 123.399898,59.7097493 123.552337,59.7399373 C123.704777,59.7701253 123.963921,59.7323908 124.329776,59.6267329 C124.695632,59.5210749 125.008129,59.3173091 125.267276,59.0154292 C125.526424,58.7135494 125.945627,58.2909239 126.524898,57.7475402 L128.354167,55.2117621 L125.655996,54.125 Z" id="path-1"></path>
        <filter x="-0.9%" y="-2.2%" width="101.7%" height="108.9%" filterUnits="objectBoundingBox" id="filter-2">
            <feOffset dx="0" dy="2" in="SourceAlpha" result="shadowOffsetOuter1"></feOffset>
            <feColorMatrix values="0 0 0 0 0.767033376   0 0 0 0 0.213723313   0 0 0 0 0.059636966  0 0 0 1 0" type="matrix" in="shadowOffsetOuter1"></feColorMatrix>
        </filter>
    </defs>
    <g id="1.-" stroke="none" stroke-width="1" fill="none" fill-rule="evenodd" transform="translate(-99.000000, -460.000000)">
        <g id="big-activity" transform="translate(99.000000, 460.000000)">
            <polygon id="Triangle" stroke="#FFFFFF" transform="translate(87.022755, 81.163741) scale(1, -1) translate(-87.022755, -81.163741) " points="49.316292 103.5 89 58.827483 124.729219 99.0483747"></polygon>
            <polygon id="Triangle" fill="#FFFFFF" fill-rule="nonzero" transform="translate(89.000000, 50.623567) scale(1, -1) translate(-89.000000, -50.623567) " points="2.61295259 99.5 52.0419922 99.5 52.0419922 100.5 1.5 100.5 0.387047409 100.5 89 0.74713337 177.612953 100.5 122.655273 100.5 122.655273 99.5 175.387047 99.5 89 2.25286663"></polygon>
            <rect id="Rectangle-5" fill="#D62F1E" x="26" y="19" width="127" height="69.5"></rect>
            <path d="M55.042,80.9221294 L56.512,80.9221294 L56.512,71.7032904 L58.892,71.7032904 L58.892,80.9221294 L61.65,80.9221294 L61.65,70.691871 L55.28,70.691871 L55.28,69.614129 L68.72,69.614129 L68.72,70.691871 L64.03,70.691871 L64.03,73.2287098 L68.454,73.2287098 L68.454,74.2898711 L64.03,74.2898711 L64.03,80.9221294 L68.958,80.9221294 L68.958,81.9998713 L55.042,81.9998713 L55.042,80.9221294 Z M70.288,82.2320004 L70.288,75.2018066 L69.21,75.2018066 L70.736,71.0898065 L69.364,71.0898065 L69.364,70.0120645 L71.142,70.0120645 L71.366,69.4151613 L73.872,69.4151613 L73.648,70.0120645 L82.762,70.0120645 L82.762,71.0898065 L73.242,71.0898065 L72.178,73.9416776 L72.654,73.9416776 L72.654,82.2320004 L70.288,82.2320004 Z M73.396,81.0050326 L76.896,81.0050326 L76.896,74.7375485 L73.592,74.7375485 L73.592,73.6598066 L76.896,73.6598066 L76.896,71.9520001 L79.276,71.9520001 L79.276,73.6598066 L82.58,73.6598066 L82.58,74.7375485 L79.276,74.7375485 L79.276,81.0050326 L82.79,81.0050326 L82.79,82.0827746 L73.396,82.0827746 L73.396,81.0050326 Z M93.43,80.2423229 L93.43,76.5282583 L90.21,76.5282583 L89.986,80.2423229 L87.62,80.2423229 L87.844,76.5282583 L86.808,76.5282583 L86.808,75.4505163 L87.9,75.4505163 L88.152,71.4711614 L86.906,71.4711614 L86.906,70.3934194 L88.208,70.3934194 L88.278,69.382 L90.658,69.382 L90.588,70.3934194 L93.43,70.3934194 L93.43,69.382 L95.796,69.382 L95.796,70.3934194 L96.804,70.3934194 L96.804,71.4711614 L95.796,71.4711614 L95.796,75.4505163 L96.916,75.4505163 L96.916,76.5282583 L95.796,76.5282583 L95.796,80.2423229 L93.43,80.2423229 Z M83.084,82.1490972 L83.084,80.8226455 L83.91,80.3086455 L83.91,72.7644517 L83.084,72.7644517 L83.084,71.7032904 L86.29,71.7032904 L86.29,80.2589035 C86.29,80.3694417 86.3156664,80.4744514 86.367,80.5739358 C86.4183336,80.6734202 86.481333,80.759086 86.556,80.8309358 C86.630667,80.9027856 86.7146662,80.9608173 86.808,81.0050326 C86.9013338,81.0492479 86.985333,81.0713552 87.06,81.0713552 L96.916,81.0713552 L96.916,82.1490972 L86.458,82.1490972 C86.1313317,82.1490972 85.8583344,82.0440874 85.639,81.8340649 C85.4196656,81.6240423 85.2680004,81.3753351 85.184,81.0879358 L83.084,82.1490972 Z M90.28,75.4505163 L93.43,75.4505163 L93.43,71.4711614 L90.532,71.4711614 L90.28,75.4505163 Z M84.036,71.0400646 L83.826,69.382 L86.318,69.382 L86.528,71.0400646 L84.036,71.0400646 Z M101.942,72.7478711 L110.916,72.7478711 L110.916,73.825613 L108.438,73.825613 L108.438,80.6402584 C108.438,81.0492497 108.316668,81.4002032 108.074,81.6931294 C107.831332,81.9860556 107.537335,82.1325165 107.192,82.1325165 L103.636,82.1325165 L103.636,81.0547745 L105.512,81.0547745 C105.670667,81.0547745 105.803666,80.991216 105.911,80.8640971 C106.018334,80.7369782 106.072,80.5794636 106.072,80.3915487 L106.072,73.825613 L101.942,73.825613 L101.942,72.7478711 Z M98.386,82.2154197 L98.386,75.0028389 L97.224,75.0028389 L98.582,72.1841291 L101.13,72.1841291 L100.094,74.3561937 L100.752,74.3561937 L100.752,82.2154197 L98.386,82.2154197 Z M102.082,69.5312258 L110.776,69.5312258 L110.776,70.6089678 L102.082,70.6089678 L102.082,69.5312258 Z M97.224,71.9188388 L98.582,69.4317419 L101.13,69.4317419 L99.786,71.9188388 L97.224,71.9188388 Z M116.81,82.1490972 L116.81,79.114839 L112.512,79.114839 C112.166665,79.114839 111.872668,78.9711415 111.63,78.6837422 C111.387332,78.3963429 111.266,78.0481528 111.266,77.6391615 L111.266,71.205871 L116.81,71.205871 L116.81,69.4980645 L119.19,69.4980645 L119.19,71.205871 L124.734,71.205871 L124.734,77.6391615 C124.734,78.0481528 124.612668,78.3963429 124.37,78.6837422 C124.127332,78.9711415 123.833335,79.114839 123.488,79.114839 L119.19,79.114839 L119.19,82.1490972 L116.81,82.1490972 Z M121.808,78.037097 C121.966667,78.037097 122.099666,77.9763019 122.207,77.8547099 C122.314334,77.7331179 122.368,77.5783668 122.368,77.3904519 L122.368,72.283613 L119.19,72.283613 L119.19,78.037097 L121.808,78.037097 Z M113.632,72.283613 L113.632,77.3904519 C113.632,77.567313 113.685666,77.7193007 113.793,77.8464196 C113.900334,77.9735385 114.033333,78.037097 114.192,78.037097 L116.81,78.037097 L116.81,72.283613 L113.632,72.283613 Z" id="" fill="#FFFFFF"></path>
            <g id="">
                <use fill="black" fill-opacity="1" filter="url(#filter-2)" xlink:href="#path-1"></use>
                <use fill="#FFFFFF" fill-rule="evenodd" xlink:href="#path-1"></use>
            </g>
        </g>
    </g>
</svg>