<svg xmlns="http://www.w3.org/2000/svg" width="20" height="20" viewBox="0 0 20 20">
  <g fill="none" fill-rule="evenodd">
    <path fill="#FFF" fill-rule="nonzero" d="M10,19 C14.9705627,19 19,14.9705627 19,10 C19,8.85840777 18.7874529,7.76645858 18.3997728,6.76156673 C18.0907627,5.96059223 17.6704855,5.21492778 17.1578881,4.54352018 C15.5134959,2.38967113 12.9190355,1 10,1 C5.02943725,1 1,5.02943725 1,10 C1,14.9705627 5.02943725,19 10,19 Z M10,20 C4.4771525,20 0,15.5228475 0,10 C0,4.4771525 4.4771525,0 10,0 C15.5228475,0 20,4.4771525 20,10 C20,15.5228475 15.5228475,20 10,20 Z"/>
    <polyline stroke="#FFF" stroke-linecap="round" stroke-width="2" points="5.5 8.433 9.811 13 17.5 6"/>
  </g>
</svg>
