<?xml version="1.0" encoding="UTF-8"?>
<svg width="166px" height="211px" viewBox="0 0 166 211" version="1.1" xmlns="http://www.w3.org/2000/svg" xmlns:xlink="http://www.w3.org/1999/xlink">
    <!-- Generator: Sketch 48.1 (47250) - http://www.bohemiancoding.com/sketch -->
    <title>bigOne</title>
    <desc>Created with Sketch.</desc>
    <defs>
        <path d="M269,378.981055 L269,416.154172 C269,417.49145 268.860762,417.97638 268.599301,418.465269 C268.33784,418.954157 267.954157,419.33784 267.465269,419.599301 C266.97638,419.860762 266.49145,420 265.154172,420 L110.845828,420 C109.50855,420 109.02362,419.860762 108.534731,419.599301 C108.045843,419.33784 107.66216,418.954157 107.400699,418.465269 C107.139238,417.97638 107,417.49145 107,416.154172 L107,378.981055 C107.165021,378.993609 107.331764,379 107.5,379 C111.089851,379 114,376.089851 114,372.5 C114,368.910149 111.089851,366 107.5,366 C107.331764,366 107.165021,366.006391 107,366.018945 L107,216.845828 C107,215.50855 107.139238,215.02362 107.400699,214.534731 C107.66216,214.045843 108.045843,213.66216 108.534731,213.400699 C109.02362,213.139238 109.50855,213 110.845828,213 L265.154172,213 C266.49145,213 266.97638,213.139238 267.465269,213.400699 C267.954157,213.66216 268.33784,214.045843 268.599301,214.534731 C268.860762,215.02362 269,215.50855 269,216.845828 L269,366.018945 C265.643776,366.274257 263,369.078385 263,372.5 C263,375.921615 265.643776,378.725743 269,378.981055 Z" id="path-1"></path>
        <filter x="-2.5%" y="-1.0%" width="104.9%" height="103.9%" filterUnits="objectBoundingBox" id="filter-2">
            <feOffset dx="0" dy="2" in="SourceAlpha" result="shadowOffsetOuter1"></feOffset>
            <feGaussianBlur stdDeviation="1" in="shadowOffsetOuter1" result="shadowBlurOuter1"></feGaussianBlur>
            <feColorMatrix values="0 0 0 0 0   0 0 0 0 0   0 0 0 0 0  0 0 0 0.1 0" type="matrix" in="shadowBlurOuter1"></feColorMatrix>
        </filter>
    </defs>
    <g id="2.买单结果页-3" stroke="none" stroke-width="1" fill="none" fill-rule="evenodd" transform="translate(-105.000000, -213.000000)">
        <g id="bigOne">
            <use fill="black" fill-opacity="1" filter="url(#filter-2)" xlink:href="#path-1"></use>
            <use fill="#FFFFFF" fill-rule="evenodd" xlink:href="#path-1"></use>
        </g>
    </g>
</svg>