<?xml version="1.0" encoding="UTF-8"?>
<svg width="82px" height="19px" viewBox="0 0 82 19" version="1.1" xmlns="http://www.w3.org/2000/svg" xmlns:xlink="http://www.w3.org/1999/xlink">
    <!-- Generator: Sketch 48.1 (47250) - http://www.bohemiancoding.com/sketch -->
    <title>本期奖品 A</title>
    <desc>Created with Sketch.</desc>
    <defs>
        <linearGradient x1="54.425329%" y1="100%" x2="54.4253262%" y2="0%" id="linearGradient-1">
            <stop stop-color="#FFC1C2" offset="0%"></stop>
            <stop stop-color="#FFFFFF" offset="100%"></stop>
        </linearGradient>
    </defs>
    <g id="A-奖品升级-1" stroke="none" stroke-width="1" fill="none" fill-rule="evenodd" transform="translate(-147.000000, -288.000000)">
        <path d="M154.90625,291.484375 L154.90625,288.90625 L157.796875,288.90625 L157.796875,291.484375 L165.0625,291.484375 L165.0625,293.828125 L157.796875,293.828125 L157.796875,301.5625 L159.59375,301.5625 L159.59375,303.828125 L157.796875,303.828125 L157.796875,306.640625 L154.90625,306.640625 L154.90625,303.828125 L152.953125,303.828125 L152.953125,301.5625 L154.90625,301.5625 L154.90625,293.828125 L147.5625,293.828125 L147.5625,291.484375 L154.90625,291.484375 Z M149.359375,303.125 L150.453125,295 L153.421875,295 L152.171875,303.671875 C152.067708,305.234383 151.36459,305.989584 150.0625,305.9375 L147.484375,305.9375 L147.484375,303.75 L148.65625,303.75 C149.072919,303.802084 149.307291,303.593752 149.359375,303.125 Z M162.71875,305.9375 C161.624995,305.833333 160.895835,305.156256 160.53125,303.90625 L158.96875,295 L161.9375,295 L163.578125,303.125 C163.578125,303.593752 163.786456,303.802084 164.203125,303.75 L165.0625,303.75 L165.0625,305.9375 L162.71875,305.9375 Z M168.986111,291.953125 L168.282986,291.953125 L168.282986,289.6875 L168.907986,289.6875 L168.907986,288.984375 L171.720486,288.984375 L171.720486,289.6875 L174.142361,289.6875 L174.142361,288.984375 L176.876736,288.984375 L176.876736,289.765625 L177.657986,289.765625 L177.657986,291.953125 L176.798611,291.953125 L176.798611,300.9375 L177.501736,300.9375 L177.501736,302.96875 L168.282986,302.96875 L168.282986,300.9375 L168.986111,300.9375 L168.986111,291.953125 Z M178.048611,289.296875 L186.173611,289.296875 L186.173611,305.3125 C186.173611,306.197921 185.574659,306.640625 184.376736,306.640625 L181.642361,306.640625 L181.642361,304.609375 L182.736111,304.609375 C183.204864,304.609375 183.413195,304.479168 183.361111,304.21875 L183.361111,301.796875 L180.704861,301.796875 L180.704861,305 C180.704861,306.093755 179.94966,306.640625 178.439236,306.640625 L176.486111,306.640625 C175.131938,306.692709 174.42882,306.458336 174.376736,305.9375 L173.751736,303.515625 L176.486111,303.515625 L176.642361,304.296875 C176.694445,304.505209 176.928817,304.609375 177.345486,304.609375 C177.814239,304.661459 178.048611,304.531252 178.048611,304.21875 L178.048611,289.296875 Z M180.704861,294.6875 L183.439236,294.6875 L183.439236,291.5625 L180.704861,291.5625 L180.704861,294.6875 Z M171.720486,293.59375 L174.142361,293.59375 L174.142361,291.953125 L171.720486,291.953125 L171.720486,293.59375 Z M174.142361,295.625 L171.720486,295.625 L171.720486,297.1875 L174.142361,297.1875 L174.142361,295.625 Z M180.704861,299.765625 L183.439236,299.765625 L183.439236,296.796875 L180.704861,296.796875 L180.704861,299.765625 Z M174.142361,299.21875 L171.720486,299.21875 L171.720486,300.9375 L174.142361,300.9375 L174.142361,299.21875 Z M168.204861,306.5625 L168.204861,304.765625 L168.517361,304.765625 C168.725696,304.765625 168.855903,304.687501 168.907986,304.53125 L169.142361,303.4375 L171.720486,303.4375 L171.407986,305.546875 C171.303819,306.223962 170.861115,306.5625 170.079861,306.5625 L168.204861,306.5625 Z M197.753472,290.78125 L198.690972,290.78125 C199.055557,290.833334 199.28993,290.677085 199.394097,290.3125 L199.862847,289.140625 L202.362847,289.140625 L202.050347,289.921875 L207.519097,289.921875 L207.519097,292.109375 L204.550347,297.265625 C204.081595,298.255213 203.300353,298.697917 202.206597,298.59375 L197.831597,298.59375 L197.831597,296.328125 L199.706597,296.328125 L199.550347,295.78125 C199.550347,295.520832 199.342016,295.416666 198.925347,295.46875 L197.909722,295.46875 L197.909722,293.59375 L200.644097,293.59375 C201.164933,293.541666 201.47743,293.749998 201.581597,294.21875 L202.128472,295.546875 L204.159722,292.34375 L201.347222,292.34375 C201.190972,292.812502 200.826392,293.020834 200.253472,292.96875 L197.753472,292.96875 L197.753472,290.78125 Z M194.472222,298.59375 L194.472222,289.140625 L197.128472,289.140625 L197.128472,298.59375 L194.472222,298.59375 Z M191.737847,293.046875 C191.060761,293.098959 190.67014,292.682296 190.565972,291.796875 L190.175347,289.296875 L192.597222,289.296875 L192.831597,290.546875 C192.883681,290.91146 193.092012,291.067709 193.456597,291.015625 L193.847222,291.015625 L193.847222,293.046875 L191.737847,293.046875 Z M190.019097,296.484375 L190.565972,296.484375 C190.982641,296.536459 191.243055,296.354169 191.347222,295.9375 L191.894097,294.53125 L194.315972,294.53125 L193.300347,297.5 C193.144097,298.281254 192.675351,298.645834 191.894097,298.59375 L190.019097,298.59375 L190.019097,296.484375 Z M190.019097,300.078125 L196.815972,300.078125 L196.815972,299.0625 L199.706597,299.0625 L199.706597,300.078125 L207.284722,300.078125 L207.284722,302.421875 L200.800347,302.421875 L202.753472,304.375 C203.065974,304.687502 203.508678,304.84375 204.081597,304.84375 L207.284722,304.84375 L207.284722,306.953125 L202.987847,306.953125 C201.998259,307.005209 201.321182,306.796877 200.956597,306.328125 L198.300347,303.828125 L195.722222,306.171875 C195.357637,306.640627 194.706602,306.848959 193.769097,306.796875 L189.940972,306.796875 L189.940972,304.765625 L192.597222,304.765625 C192.961807,304.765625 193.326387,304.609377 193.690972,304.296875 L195.956597,302.421875 L190.019097,302.421875 L190.019097,300.078125 Z M210.895833,306.328125 L210.895833,298.125 L219.020833,298.125 L219.020833,304.53125 C219.020833,305.677089 218.552088,306.276041 217.614583,306.328125 L210.895833,306.328125 Z M225.270833,300.78125 L222.380208,300.78125 L222.380208,304.0625 L224.958333,304.0625 C225.166668,304.0625 225.270833,303.932293 225.270833,303.671875 L225.270833,300.78125 Z M216.364583,300.703125 L213.552083,300.703125 L213.552083,304.0625 L216.052083,304.0625 C216.260418,304.0625 216.364583,303.932293 216.364583,303.671875 L216.364583,300.703125 Z M219.723958,306.40625 L219.723958,298.203125 L228.005208,298.203125 L228.005208,304.765625 C228.005208,305.807297 227.510422,306.354166 226.520833,306.40625 L219.723958,306.40625 Z M211.286458,297.578125 L211.286458,289.21875 L227.692708,289.21875 L227.692708,295.625 C227.536458,296.770839 226.859381,297.421874 225.661458,297.578125 L211.286458,297.578125 Z M224.802083,291.640625 L214.333333,291.640625 L214.333333,295.078125 L224.098958,295.078125 C224.619794,295.078125 224.854167,294.895835 224.802083,294.53125 L224.802083,291.640625 Z" id="本期奖品-A" fill="url(#linearGradient-1)"></path>
    </g>
</svg>