<?xml version="1.0" encoding="UTF-8"?>
<svg width="42px" height="42px" viewBox="0 0 42 42" version="1.1" xmlns="http://www.w3.org/2000/svg" xmlns:xlink="http://www.w3.org/1999/xlink">
    <!-- Generator: Sketch 48.1 (47250) - http://www.bohemiancoding.com/sketch -->
    <title>embarrass</title>
    <desc>Created with Sketch.</desc>
    <defs></defs>
    <g id="12.提交后状态（&amp;关闭所有弹窗）1---有红包" stroke="none" stroke-width="1" fill="none" fill-rule="evenodd" transform="translate(-66.000000, -684.000000)">
        <g id="Group-2" transform="translate(66.000000, 675.000000)">
            <g id="embarrass" transform="translate(0.000000, 9.000000)">
                <circle id="Oval-3" stroke="#F27F74" stroke-width="2" cx="21" cy="21" r="20"></circle>
                <path d="M21.0254812,30.2232878 C24.3020833,30.2232878 27.21566,28.222796 28.4483271,25.1262458 C28.7286918,24.4222319 29.4811598,24.0977652 30.1288107,24.4027916 C30.7768876,24.7073552 31.0747218,25.5247704 30.7947832,26.2287843 C29.1573344,30.3422434 25.3225595,33 21.0254812,33 C16.6363682,33 12.7790108,30.3288204 11.1982313,26.1945324 C10.9272406,25.4868157 11.236153,24.6740291 11.8884908,24.3791857 C12.0486992,24.3069791 12.2148728,24.2727273 12.3784898,24.2727273 C12.8795671,24.2731901 13.3550792,24.5953424 13.5591744,25.1294858 C14.7419894,28.2237217 17.6730357,30.2232878 21.0254812,30.2232878 L21.0254812,30.2232878 Z M10.0019401,12.293779 C10.0337723,11.7481963 10.4423576,11.3334345 10.9285611,11.3705996 C10.9664981,11.3735728 14.7130994,11.6173754 16.1219995,9.40927694 C16.4045644,8.96527869 16.9505077,8.86815407 17.3399065,9.18876442 C17.7297414,9.5098703 17.8165168,10.129783 17.5339519,10.5727902 C15.9131282,13.1124007 12.5624665,13.3636364 11.3018259,13.3636364 C11.0244937,13.3636364 10.8487627,13.3517436 10.8138781,13.3487704 C10.3337794,13.3121009 9.97010794,12.8398572 10.0019401,12.293779 L10.0019401,12.293779 Z M12.727379,17.7272727 C12.397379,17.2737985 12.2,16.7170404 12.2,16.1124081 C12.2,14.5946216 13.4317339,13.3636364 14.95,13.3636364 C16.4687097,13.3636364 17.7,14.5946216 17.7,16.1124081 C17.7,16.6953197 17.5172581,17.2352333 17.2076613,17.6802852 C16.7077823,16.9936463 15.8996371,16.5450482 14.9850403,16.5450482 C14.0495968,16.5454915 13.2241532,17.0140372 12.727379,17.7272727 L12.727379,17.7272727 Z M24.4660481,10.5727412 C24.1834832,10.1296476 24.2702586,9.50961383 24.6600935,9.18844529 C25.0499284,8.86826801 25.5954356,8.96541158 25.8780006,9.40900085 C27.2869006,11.6175302 31.0335019,11.37368 31.0714389,11.3707062 C31.5580785,11.3340296 31.9662278,11.7488723 31.9980599,12.2940658 C32.0298921,12.8402506 31.6662206,13.3125864 31.1856858,13.3487674 C31.1508013,13.3517412 30.9750703,13.3636364 30.6977381,13.3636364 C29.4375335,13.3636364 26.0868718,13.1128473 24.4660481,10.5727412 L24.4660481,10.5727412 Z M27.0500001,13.3636364 C28.5682662,13.3636364 29.8,14.5946216 29.8,16.1124081 C29.8,16.7165971 29.602621,17.2733553 29.272621,17.7272727 C28.7758468,17.0140372 27.9504033,16.5454915 27.0149597,16.5454915 C26.100363,16.5454915 25.2922178,16.9940896 24.7923388,17.6807285 C24.4827421,17.2356766 24.3000001,16.695763 24.3000001,16.1128514 C24.2995566,14.5950648 25.5312904,13.3636364 27.0500001,13.3636364 L27.0500001,13.3636364 Z" id="Shape" fill="#F27F74"></path>
            </g>
        </g>
    </g>
</svg>