<?xml version="1.0" encoding="UTF-8"?>
<svg width="56px" height="56px" viewBox="0 0 56 56" version="1.1" xmlns="http://www.w3.org/2000/svg" xmlns:xlink="http://www.w3.org/1999/xlink">
    <!-- Generator: Sketch 48.1 (47250) - http://www.bohemiancoding.com/sketch -->
    <title>进店看看</title>
    <desc>Created with Sketch.</desc>
    <defs>
        <circle id="path-1" cx="24.1171875" cy="23.7300907" r="23.7300907"></circle>
        <filter x="-12.6%" y="-12.6%" width="125.3%" height="125.3%" filterUnits="objectBoundingBox" id="filter-2">
            <feOffset dx="0" dy="0" in="SourceAlpha" result="shadowOffsetOuter1"></feOffset>
            <feGaussianBlur stdDeviation="2" in="shadowOffsetOuter1" result="shadowBlurOuter1"></feGaussianBlur>
            <feComposite in="shadowBlurOuter1" in2="SourceAlpha" operator="out" result="shadowBlurOuter1"></feComposite>
            <feColorMatrix values="0 0 0 0 0   0 0 0 0 0   0 0 0 0 0  0 0 0 0.226817255 0" type="matrix" in="shadowBlurOuter1"></feColorMatrix>
        </filter>
    </defs>
    <g id="19.-自扫canvas后（有手机号）" stroke="none" stroke-width="1" fill="none" fill-rule="evenodd" transform="translate(-313.000000, -437.000000)">
        <g id="Group-20" transform="translate(0.000000, 301.000000)">
            <g id="进店看看" transform="translate(317.000000, 140.000000)">
                <g id="Oval-3">
                    <use fill="black" fill-opacity="1" filter="url(#filter-2)" xlink:href="#path-1"></use>
                    <use fill-opacity="0.55" fill="#000000" fill-rule="evenodd" xlink:href="#path-1"></use>
                    <circle stroke="#FFFFFF" stroke-width="2" cx="24.1171875" cy="23.7300907" r="22.7300907"></circle>
                </g>
                <path d="M18.7651875,13.7100907 L18.7651875,15.1140907 C18.7651875,15.3540907 18.7651875,15.5940907 18.7411875,15.8460907 L20.7451875,15.8460907 L20.7451875,13.7100907 L18.7651875,13.7100907 Z M20.7451875,16.7100907 L18.6451875,16.7100907 C18.4651875,17.8500907 18.0091875,19.0020907 16.9531875,19.8060907 C16.8331875,19.6380907 16.4971875,19.3020907 16.3051875,19.1700907 C17.2051875,18.4980907 17.6011875,17.6100907 17.7691875,16.7100907 L16.1251875,16.7100907 L16.1251875,15.8460907 L17.8651875,15.8460907 C17.8891875,15.5940907 17.8891875,15.3540907 17.8891875,15.1020907 L17.8891875,13.7100907 L16.1971875,13.7100907 L16.1971875,12.8460907 L17.8891875,12.8460907 L17.8891875,10.9380907 L18.7651875,10.9380907 L18.7651875,12.8460907 L20.7451875,12.8460907 L20.7451875,10.9380907 L21.6211875,10.9380907 L21.6211875,12.8460907 L23.1571875,12.8460907 L23.1571875,13.7100907 L21.6211875,13.7100907 L21.6211875,15.8460907 L23.3971875,15.8460907 L23.3971875,16.7100907 L21.6211875,16.7100907 L21.6211875,19.7460907 L20.7451875,19.7460907 L20.7451875,16.7100907 Z M15.6331875,12.8700907 L14.9611875,13.4340907 C14.5891875,12.8820907 13.7971875,12.0180907 13.1371875,11.4180907 L13.7731875,10.9380907 C14.4331875,11.5140907 15.2491875,12.3420907 15.6331875,12.8700907 Z M15.2851875,15.0060907 L15.2851875,19.3140907 C15.5131875,19.4580907 15.7651875,19.6860907 16.1611875,19.9260907 C16.9411875,20.4180907 17.9371875,20.5020907 19.2931875,20.5020907 C20.6971875,20.5020907 22.4851875,20.4060907 23.6371875,20.2740907 C23.5411875,20.5140907 23.3971875,20.9460907 23.3731875,21.1980907 C22.5331875,21.2580907 20.4091875,21.3300907 19.2571875,21.3300907 C17.7811875,21.3300907 16.7851875,21.1860907 15.9571875,20.6700907 C15.4771875,20.3460907 15.0811875,19.9500907 14.8291875,19.9500907 C14.4211875,19.9500907 13.8331875,20.6580907 13.2211875,21.4740907 L12.6331875,20.6700907 C13.2691875,19.9980907 13.8811875,19.4580907 14.4091875,19.2540907 L14.4091875,15.8460907 L12.7651875,15.8460907 L12.7651875,15.0060907 L15.2851875,15.0060907 Z M34.5611875,20.2260907 L34.5611875,18.0780907 L29.4971875,18.0780907 L29.4971875,20.2260907 L34.5611875,20.2260907 Z M32.1491875,13.4100907 L32.1491875,14.8260907 L36.0251875,14.8260907 L36.0251875,15.6420907 L32.1491875,15.6420907 L32.1491875,17.2500907 L35.4491875,17.2500907 L35.4491875,21.4740907 L34.5611875,21.4740907 L34.5611875,21.0180907 L29.4971875,21.0180907 L29.4971875,21.4980907 L28.6331875,21.4980907 L28.6331875,17.2500907 L31.2491875,17.2500907 L31.2491875,13.4100907 L32.1491875,13.4100907 Z M32.3411875,12.1500907 L36.3971875,12.1500907 L36.3971875,13.0140907 L27.5651875,13.0140907 L27.5651875,15.2580907 C27.5651875,17.1060907 27.3851875,19.8420907 26.3171875,21.6540907 C26.1491875,21.5100907 25.7531875,21.2460907 25.5371875,21.1500907 C26.5571875,19.4220907 26.6651875,16.9860907 26.6651875,15.2580907 L26.6651875,12.1500907 L31.3451875,12.1500907 C31.1771875,11.7540907 30.9611875,11.2980907 30.7211875,10.9380907 L31.5731875,10.7220907 C31.8851875,11.1540907 32.1731875,11.7180907 32.3411875,12.1500907 Z M21.3211875,31.5260907 L21.3211875,30.6980907 L16.1131875,30.6980907 L16.1131875,31.5260907 L21.3211875,31.5260907 Z M16.1131875,34.4900907 L21.3211875,34.4900907 L21.3211875,33.6020907 L16.1131875,33.6020907 L16.1131875,34.4900907 Z M21.3211875,32.9780907 L21.3211875,32.1380907 L16.1131875,32.1380907 L16.1131875,32.9780907 L21.3211875,32.9780907 Z M23.3731875,29.1620907 L16.7131875,29.1620907 C16.5571875,29.4380907 16.4011875,29.7260907 16.2211875,29.9900907 L22.1971875,29.9900907 L22.1971875,35.6780907 L21.3211875,35.6780907 L21.3211875,35.2100907 L16.1131875,35.2100907 L16.1131875,35.6780907 L15.2611875,35.6780907 L15.2611875,31.2260907 C14.6491875,31.8980907 13.9411875,32.4980907 13.1251875,32.9900907 C13.0051875,32.7860907 12.7411875,32.4620907 12.5731875,32.3060907 C13.9171875,31.5260907 14.9491875,30.4100907 15.6931875,29.1620907 L12.8611875,29.1620907 L12.8611875,28.4180907 L16.1131875,28.4180907 C16.2571875,28.1300907 16.4011875,27.8300907 16.5091875,27.5420907 L13.7371875,27.5420907 L13.7371875,26.8220907 L16.7731875,26.8220907 C16.8691875,26.5460907 16.9531875,26.2700907 17.0251875,25.9820907 C15.9091875,26.0420907 14.7811875,26.0660907 13.7491875,26.0660907 C13.7371875,25.8620907 13.6531875,25.5740907 13.5691875,25.3820907 C16.4731875,25.3580907 20.0971875,25.1660907 21.9931875,24.7820907 L22.5571875,25.4300907 C21.3571875,25.6820907 19.7251875,25.8380907 18.0091875,25.9340907 C17.9251875,26.2340907 17.8291875,26.5220907 17.7331875,26.8220907 L22.6771875,26.8220907 L22.6771875,27.5420907 L17.4811875,27.5420907 C17.3611875,27.8300907 17.2291875,28.1300907 17.0851875,28.4180907 L23.3731875,28.4180907 L23.3731875,29.1620907 Z M34.3211875,31.5260907 L34.3211875,30.6980907 L29.1131875,30.6980907 L29.1131875,31.5260907 L34.3211875,31.5260907 Z M29.1131875,34.4900907 L34.3211875,34.4900907 L34.3211875,33.6020907 L29.1131875,33.6020907 L29.1131875,34.4900907 Z M34.3211875,32.9780907 L34.3211875,32.1380907 L29.1131875,32.1380907 L29.1131875,32.9780907 L34.3211875,32.9780907 Z M36.3731875,29.1620907 L29.7131875,29.1620907 C29.5571875,29.4380907 29.4011875,29.7260907 29.2211875,29.9900907 L35.1971875,29.9900907 L35.1971875,35.6780907 L34.3211875,35.6780907 L34.3211875,35.2100907 L29.1131875,35.2100907 L29.1131875,35.6780907 L28.2611875,35.6780907 L28.2611875,31.2260907 C27.6491875,31.8980907 26.9411875,32.4980907 26.1251875,32.9900907 C26.0051875,32.7860907 25.7411875,32.4620907 25.5731875,32.3060907 C26.9171875,31.5260907 27.9491875,30.4100907 28.6931875,29.1620907 L25.8611875,29.1620907 L25.8611875,28.4180907 L29.1131875,28.4180907 C29.2571875,28.1300907 29.4011875,27.8300907 29.5091875,27.5420907 L26.7371875,27.5420907 L26.7371875,26.8220907 L29.7731875,26.8220907 C29.8691875,26.5460907 29.9531875,26.2700907 30.0251875,25.9820907 C28.9091875,26.0420907 27.7811875,26.0660907 26.7491875,26.0660907 C26.7371875,25.8620907 26.6531875,25.5740907 26.5691875,25.3820907 C29.4731875,25.3580907 33.0971875,25.1660907 34.9931875,24.7820907 L35.5571875,25.4300907 C34.3571875,25.6820907 32.7251875,25.8380907 31.0091875,25.9340907 C30.9251875,26.2340907 30.8291875,26.5220907 30.7331875,26.8220907 L35.6771875,26.8220907 L35.6771875,27.5420907 L30.4811875,27.5420907 C30.3611875,27.8300907 30.2291875,28.1300907 30.0851875,28.4180907 L36.3731875,28.4180907 L36.3731875,29.1620907 Z" id="进店-看看" fill="#FFFFFF"></path>
            </g>
        </g>
    </g>
</svg>