<?xml version="1.0" encoding="UTF-8"?>
<svg width="44px" height="34px" viewBox="0 0 44 34" version="1.1" xmlns="http://www.w3.org/2000/svg" xmlns:xlink="http://www.w3.org/1999/xlink">
    <!-- Generator: Sketch 48.1 (47250) - http://www.bohemiancoding.com/sketch -->
    <title>进行中</title>
    <desc>Created with Sketch.</desc>
    <defs>
        <linearGradient x1="0%" y1="50%" x2="100%" y2="50%" id="linearGradient-1">
            <stop stop-color="#DF7001" offset="0%"></stop>
            <stop stop-color="#FDA33A" offset="4.53329325%"></stop>
            <stop stop-color="#FDB832" offset="19.4739224%"></stop>
            <stop stop-color="#FFDE00" offset="100%"></stop>
        </linearGradient>
        <filter x="-6.2%" y="-9.1%" width="112.5%" height="136.4%" filterUnits="objectBoundingBox" id="filter-2">
            <feOffset dx="0" dy="1" in="SourceAlpha" result="shadowOffsetOuter1"></feOffset>
            <feGaussianBlur stdDeviation="0.5" in="shadowOffsetOuter1" result="shadowBlurOuter1"></feGaussianBlur>
            <feColorMatrix values="0 0 0 0 0.925490196   0 0 0 0 0.525490196   0 0 0 0 0.101960784  0 0 0 1 0" type="matrix" in="shadowBlurOuter1" result="shadowMatrixOuter1"></feColorMatrix>
            <feMerge>
                <feMergeNode in="shadowMatrixOuter1"></feMergeNode>
                <feMergeNode in="SourceGraphic"></feMergeNode>
            </feMerge>
        </filter>
    </defs>
    <g id="2.-往期霸王餐" stroke="none" stroke-width="1" fill="none" fill-rule="evenodd" transform="translate(-71.000000, -292.000000)">
        <g id="进行中" transform="translate(71.000000, 292.000000)">
            <path d="M5.01594098,-4.25460872 L37.8849329,-4.25460872 C38.4372177,-4.25460872 38.8849329,-3.80689347 38.8849329,-3.25460872 C38.8849329,-3.1717283 38.8746293,-3.08916935 38.8542592,-3.00883118 L33.6116916,17.6674209 C33.5691076,17.8353688 33.5708907,18.0114993 33.6168662,18.1785505 L38.8218845,37.0908841 C38.9684343,37.6233703 38.6555711,38.1738378 38.1230849,38.3203877 C38.0366412,38.3441786 37.9473906,38.3562361 37.8577329,38.3562361 L5.01594098,38.3562361 L5.01594098,-4.25460872 Z" id="Rectangle-8" fill="url(#linearGradient-1)" transform="translate(21.950437, 17.050814) rotate(90.000000) translate(-21.950437, -17.050814) "></path>
            <g id="Group-5" filter="url(#filter-2)" transform="translate(6.000000, 9.500000)" fill="#FFFFFF">
                <path d="M3.3736857,2.70177764 L4.40276593,2.70177764 L4.40276593,0.898234976 L6.01534525,0.898234976 L6.01534525,2.70177764 L7.7021881,2.70177764 L7.7021881,0.898234976 L9.31476743,0.898234976 L9.31476743,2.70177764 L10.2271478,2.70177764 L10.2271478,3.30649489 L9.31476743,3.30649489 L9.31476743,6.04363612 L10.3120204,6.04363612 L10.3120204,6.64835337 L9.31476743,6.64835337 L9.31476743,9.73559405 L7.7021881,9.73559405 L7.7021881,6.64835337 L5.97290895,6.64835337 C5.88096318,7.87901216 5.64049323,8.9080821 5.25149189,9.73559405 L3.58586719,9.73559405 C3.84048625,9.16977391 4.0261432,8.64109365 4.1428436,8.14953741 C4.259544,7.65798117 4.33557494,7.15759149 4.3709387,6.64835337 L3.27820403,6.64835337 L3.27820403,6.04363612 L4.39215685,6.04363612 C4.3992296,5.94461759 4.40276593,5.84736872 4.40276593,5.75188657 L4.40276593,3.30649489 L3.3736857,3.30649489 L3.3736857,2.70177764 Z M2.62044141,9.02478606 C2.67702342,9.20160485 2.75482252,9.36781202 2.85384105,9.52341256 C2.95285957,9.6790131 3.07663087,9.81339336 3.22515865,9.92655739 C3.37368644,10.0397214 3.55050258,10.1298977 3.75561238,10.1970888 C3.96072218,10.2642799 4.20119213,10.297875 4.47702945,10.297875 L10.3226295,10.297875 L10.3226295,10.9025922 L4.39215685,10.9025922 C4.11631953,10.9025922 3.87408142,10.8760698 3.66543525,10.8230242 C3.45678907,10.7699786 3.27466845,10.7027884 3.11906791,10.6214518 C2.96346737,10.5401151 2.83439159,10.4499389 2.73183669,10.3509204 C2.62928179,10.2519018 2.5461782,10.1528848 2.48252344,10.0538663 C2.43301418,10.2165396 2.37466485,10.3703696 2.30747371,10.515361 C2.24028257,10.6603524 2.16778795,10.7929645 2.08998768,10.9132013 L0.350099459,10.9132013 C0.548136507,10.5949275 0.707271033,10.2536723 0.827507813,9.88942563 C0.947744592,9.52517892 1.00786208,9.13087892 1.00786208,8.70651382 L1.00786208,4.40983864 C1.00786208,4.30374737 0.968962528,4.21003481 0.89116226,4.12869817 C0.813361991,4.04736152 0.717881275,4.00669381 0.604717248,4.00669381 L0.286445012,4.00669381 L0.286445012,3.40197656 L1.92024249,3.40197656 C2.11827954,3.40197656 2.28448671,3.47270302 2.41886899,3.61415805 C2.55325127,3.75561309 2.62044141,3.92182026 2.62044141,4.11278456 L2.62044141,9.02478606 Z M6.01534525,5.44952794 C6.01534525,5.54854647 6.01357709,5.64756351 6.01004072,5.74658203 C6.00650434,5.84560056 6.00473618,5.94461759 6.00473618,6.04363612 L7.7021881,6.04363612 L7.7021881,3.30649489 L6.01534525,3.30649489 L6.01534525,5.44952794 Z M0.795680589,2.78665024 L0.286445012,0.898234976 L1.94146064,0.898234976 L2.45069621,2.78665024 L0.795680589,2.78665024 Z M12.1155631,10.9132013 L12.1155631,6.59530799 L10.8849105,6.59530799 C11.1112385,6.17094289 11.3145771,5.77133841 11.4949322,5.39648257 C11.6752874,5.02162673 11.8361901,4.65384916 11.9776451,4.29313882 L10.8849105,4.29313882 C11.0758748,3.93242848 11.2438501,3.6017823 11.3888415,3.30119035 C11.5338329,3.00059841 11.6611405,2.7123881 11.7707682,2.43655078 C11.8803958,2.16071346 11.9794129,1.89372109 12.0678223,1.63556566 C12.1562317,1.37741022 12.2428716,1.11041785 12.3277446,0.834580529 L13.950933,0.834580529 C13.8589872,1.17407261 13.7599702,1.50471879 13.6538789,1.826529 C13.5477876,2.1483392 13.4275527,2.46130377 13.2931704,2.76543209 L14.1206782,2.76543209 C14.0075142,3.19686995 13.8784384,3.6159242 13.733447,4.02260742 C13.5884556,4.42929065 13.4310892,4.82005432 13.2613431,5.19491016 L13.7387515,5.19491016 L13.7387515,10.9132013 L12.1155631,10.9132013 Z M16.2531022,10.297875 L17.4307094,10.297875 C17.5438735,10.297875 17.6393542,10.2589754 17.7171544,10.1811752 C17.7949547,10.1033749 17.8338543,10.0078942 17.8338543,9.89473017 L17.8338543,4.95090144 L14.5980865,4.95090144 L14.5980865,4.34618419 L20.931704,4.34618419 L20.931704,4.95090144 L19.4464336,4.95090144 L19.4464336,10.2023933 C19.4464336,10.3933576 19.3774753,10.5577966 19.2395566,10.6957153 C19.101638,10.833634 18.937199,10.9025922 18.7462347,10.9025922 L16.2531022,10.9025922 L16.2531022,10.297875 Z M14.8739225,1.35442518 L20.645259,1.35442518 L20.645259,1.95914243 L14.8739225,1.95914243 L14.8739225,1.35442518 Z M25.7057876,10.9132013 L25.7057876,7.69865174 L22.4594108,7.69865174 C22.2684465,7.69865174 22.1057756,7.62969345 21.9713933,7.49177479 C21.837011,7.35385613 21.7698209,7.18941712 21.7698209,6.99845282 L21.7698209,3.55050361 C21.7698209,3.35246656 21.837011,3.18449122 21.9713933,3.04657257 C22.1057756,2.90865391 22.2684465,2.83969561 22.4594108,2.83969561 L25.7057876,2.83969561 L25.7057876,0.887625901 L27.3183669,0.887625901 L27.3183669,2.83969561 L30.5647437,2.83969561 C30.755708,2.83969561 30.920147,2.90865391 31.0580657,3.04657257 C31.1959843,3.18449122 31.2649426,3.35246656 31.2649426,3.55050361 L31.2649426,6.99845282 C31.2649426,7.18941712 31.1959843,7.35385613 31.0580657,7.49177479 C30.920147,7.62969345 30.755708,7.69865174 30.5647437,7.69865174 L27.3183669,7.69865174 L27.3183669,10.9132013 L25.7057876,10.9132013 Z M27.3183669,3.44441286 L27.3183669,7.0939345 L29.2492184,7.0939345 C29.3623825,7.0939345 29.4578632,7.05503494 29.5356635,6.97723468 C29.6134637,6.89943441 29.6523633,6.80395369 29.6523633,6.69078966 L29.6523633,3.84755769 C29.6523633,3.73439366 29.6134637,3.63891295 29.5356635,3.56111268 C29.4578632,3.48331241 29.3623825,3.44441286 29.2492184,3.44441286 L27.3183669,3.44441286 Z M25.7057876,7.0939345 L25.7057876,3.44441286 L23.774936,3.44441286 C23.661772,3.44441286 23.5662913,3.48331241 23.488491,3.56111268 C23.4106907,3.63891295 23.3717912,3.73439366 23.3717912,3.84755769 L23.3717912,6.69078966 C23.3717912,6.80395369 23.4106907,6.89943441 23.488491,6.97723468 C23.5662913,7.05503494 23.661772,7.0939345 23.774936,7.0939345 L25.7057876,7.0939345 Z" id="进行中"></path>
            </g>
        </g>
    </g>
</svg>