<?xml version="1.0" encoding="UTF-8"?>
<svg width="120px" height="40px" viewBox="0 0 120 40" version="1.1" xmlns="http://www.w3.org/2000/svg" xmlns:xlink="http://www.w3.org/1999/xlink">
    <!-- Generator: Sketch 48.1 (47250) - http://www.bohemiancoding.com/sketch -->
    <title>我的霸王餐 icon</title>
    <desc>Created with Sketch.</desc>
    <defs></defs>
    <g id="2.-往期霸王餐" stroke="none" stroke-width="1" fill="none" fill-rule="evenodd" transform="translate(-129.000000, -233.000000)">
        <g id="我的霸王餐-icon" transform="translate(129.000000, 233.000000)">
            <g id="Group-4" transform="translate(54.054054, 0.000000)">
                <g id="Group-2" transform="translate(35.675676, 0.000000)" fill="#FF3E3A">
                    <path d="M15.1351351,28.4586405 C22.2402038,28.4586405 28,22.6988443 28,15.5937756 C28,8.48870692 22.2402038,2.72891073 15.1351351,2.72891073 C8.03006646,2.72891073 2.27027027,8.48870692 2.27027027,15.5937756 C2.27027027,22.6988443 8.03006646,28.4586405 15.1351351,28.4586405 Z M15.1351351,30.7289107 C6.77623081,30.7289107 0,23.9526799 0,15.5937756 C0,7.23487127 6.77623081,0.458640459 15.1351351,0.458640459 C23.4940395,0.458640459 30.2702703,7.23487127 30.2702703,15.5937756 C30.2702703,23.9526799 23.4940395,30.7289107 15.1351351,30.7289107 Z" id="Oval" fill-rule="nonzero"></path>
                    <circle id="Oval-2" cx="15.3808354" cy="15.7575758" r="1.62162162"></circle>
                    <path d="M16.3101738,7.00469064 L15.6447356,15.1351351 L14.6255346,15.1351351 L13.9600965,7.00469064 L12.8419328,7.00469064 L15.1351351,4.12776413 L17.4283374,7.00469064 L16.3101738,7.00469064 Z" id="Combined-Shape"></path>
                    <path d="M16.969697,17.1642717 L17.8869779,16.0524161 L18.8042588,17.1642717 L18.9061789,17.1642717 L18.8953363,17.2746687 L19.7215397,18.2761274 L18.7969788,18.2761274 L18.2946583,23.3906634 L17.4792975,23.3906634 L16.976977,18.2761274 L16.0524161,18.2761274 L16.8786194,17.2746687 L16.8677769,17.1642717 L16.969697,17.1642717 Z" id="Combined-Shape" transform="translate(17.886978, 19.721540) rotate(139.000000) translate(-17.886978, -19.721540) "></path>
                </g>
                <polygon id="Rectangle-2" fill="#FFFFFF" points="0 13.5135135 47.5675676 13.5135135 47.5675676 39.4594595 0 39.4594595"></polygon>
                <circle id="Oval-3" fill="#FF3E3A" cx="36.8648649" cy="13.6216216" r="1.18918921"></circle>
                <circle id="Oval-3" fill="#FF3E3A" cx="47.6756757" cy="29.2972973" r="1.18918921"></circle>
            </g>
            <path d="M6.3827027,23.9502703 L10.9362162,23.9308108 C10.8194595,22.4713514 10.7805405,20.8756757 10.7805405,19.0659459 C10.7805405,18.6378378 11.1113514,18.4627027 11.52,18.4627027 C11.9481081,18.4627027 12.2594595,18.6378378 12.2594595,19.0659459 C12.2594595,20.8756757 12.2983784,22.4713514 12.3956757,23.9113514 L18.1167568,23.8724324 C18.4864865,23.8724324 18.6810811,24.1448649 18.6810811,24.5535135 C18.6810811,24.9621622 18.4864865,25.2540541 18.1167568,25.2540541 L12.5124324,25.292973 C12.6486486,26.5383784 12.8627027,27.6475676 13.1545946,28.6789189 C13.2713514,29.107027 13.4075676,29.5156757 13.5632432,29.9243243 C14.4,28.9708108 15.1005405,27.8810811 15.6454054,26.7135135 C15.7816216,26.4410811 16.0151351,26.3243243 16.2486486,26.3243243 C16.3848649,26.3243243 16.5016216,26.3632432 16.6183784,26.4216216 C16.8908108,26.5772973 17.027027,26.7718919 17.027027,27.0054054 C17.027027,27.1221622 16.9881081,27.2389189 16.9297297,27.3751351 C16.2291892,28.7956757 15.2951351,30.1383784 14.1859459,31.3254054 C14.7502703,32.4540541 15.4118919,33.4075676 16.1124324,33.9913514 C16.3264865,34.1664865 16.4821622,34.2443243 16.6183784,34.2443243 C16.7740541,34.2443243 16.8908108,34.1275676 17.0075676,33.9135135 C17.1632432,33.6216216 17.3578378,32.9210811 17.4356757,32.0843243 C17.4940541,31.6367568 17.7275676,31.4616216 18.0972973,31.4616216 L18.2140541,31.4616216 C18.5837838,31.5005405 18.8367568,31.7340541 18.8367568,32.1427027 L18.8367568,32.24 C18.7394595,33.1545946 18.467027,34.2637838 18.0389189,35.0032432 C17.7275676,35.6064865 17.2605405,35.8983784 16.7351351,35.8983784 C16.2875676,35.8983784 15.7816216,35.6843243 15.2756757,35.2562162 C14.4778378,34.6140541 13.7189189,33.6021622 13.0767568,32.4151351 C11.6951351,33.6605405 10.1383784,34.6918919 8.46486486,35.4313514 C8.32864865,35.4897297 8.19243243,35.5286486 8.07567568,35.5286486 C7.8227027,35.5286486 7.60864865,35.4118919 7.47243243,35.1394595 C7.39459459,35.0032432 7.35567568,34.8475676 7.35567568,34.7113514 C7.35567568,34.4583784 7.49189189,34.2443243 7.76432432,34.1081081 C9.51567568,33.3686486 11.1113514,32.3567568 12.4540541,31.0918919 C12.2010811,30.5275676 11.987027,29.9437838 11.8118919,29.3210811 C11.4616216,28.1340541 11.2086486,26.8108108 11.052973,25.3124324 L6.3827027,25.3318919 L6.3827027,28.3286486 C7.39459459,28.0756757 8.34810811,27.8032432 9.16540541,27.5308108 C9.24324324,27.5113514 9.32108108,27.4918919 9.39891892,27.4918919 C9.67135135,27.4918919 9.84648649,27.667027 9.92432432,27.9783784 C9.94378378,28.0562162 9.96324324,28.1340541 9.96324324,28.2118919 C9.96324324,28.4843243 9.82702703,28.7178378 9.51567568,28.8345946 C8.58162162,29.1459459 7.51135135,29.4572973 6.3827027,29.7491892 L6.3827027,33.9718919 C6.3827027,35.3924324 5.87675676,35.9372973 4.26162162,35.9372973 C3.63891892,35.9372973 2.9772973,35.8594595 2.49081081,35.7621622 C2.12108108,35.6843243 1.92648649,35.4118919 1.92648649,35.0616216 C1.92648649,34.9837838 1.92648649,34.9059459 1.94594595,34.8281081 C2.04324324,34.4778378 2.2572973,34.3027027 2.54918919,34.3027027 C2.62702703,34.3027027 2.68540541,34.3027027 2.76324324,34.3221622 C3.19135135,34.4194595 3.71675676,34.4972973 4.16432432,34.4972973 C4.74810811,34.4972973 4.90378378,34.3416216 4.90378378,33.6994595 L4.90378378,30.0994595 C3.81405405,30.3524324 2.68540541,30.5859459 1.61513514,30.8 L1.47891892,30.8 C1.12864865,30.8 0.875675676,30.5664865 0.817297297,30.1772973 C0.797837838,30.1189189 0.797837838,30.0605405 0.797837838,30.0216216 C0.797837838,29.6324324 0.992432432,29.4183784 1.38162162,29.36 C2.51027027,29.1654054 3.71675676,28.9318919 4.90378378,28.6594595 L4.90378378,25.3513514 L1.3427027,25.3708108 C0.992432432,25.3708108 0.797837838,25.0983784 0.797837838,24.6897297 C0.797837838,24.2810811 0.992432432,23.9891892 1.3427027,23.9891892 L4.90378378,23.9697297 L4.90378378,21.2259459 C3.95027027,21.44 2.99675676,21.6345946 2.08216216,21.7513514 C2.04324324,21.7708108 1.98486486,21.7708108 1.92648649,21.7708108 C1.55675676,21.7708108 1.30378378,21.5762162 1.24540541,21.187027 L1.24540541,21.0702703 C1.24540541,20.7005405 1.45945946,20.4864865 1.79027027,20.4281081 C4.06702703,20.1167568 6.61621622,19.4745946 8.44540541,18.6378378 C8.56216216,18.5794595 8.67891892,18.56 8.79567568,18.56 C9.06810811,18.56 9.2627027,18.7156757 9.39891892,18.9686486 C9.4572973,19.0854054 9.47675676,19.2021622 9.47675676,19.3189189 C9.47675676,19.6108108 9.30162162,19.8637838 8.99027027,19.9805405 C8.19243243,20.2918919 7.31675676,20.5837838 6.3827027,20.8367568 L6.3827027,23.9502703 Z M14.9448649,19.2216216 C15.7427027,19.9027027 16.56,20.7978378 17.1243243,21.5762162 C17.2605405,21.7708108 17.3383784,21.9654054 17.3383784,22.1405405 C17.3383784,22.3351351 17.2410811,22.5297297 17.0659459,22.6659459 C16.9297297,22.7632432 16.7740541,22.8216216 16.6183784,22.8216216 C16.3848649,22.8216216 16.1708108,22.7243243 16.0151351,22.5102703 C15.4313514,21.7124324 14.6335135,20.7783784 13.9718919,20.1751351 C13.7772973,20.0194595 13.6994595,19.8248649 13.6994595,19.6691892 C13.6994595,19.4745946 13.7967568,19.2994595 13.9718919,19.1437838 C14.0886486,19.0464865 14.2443243,18.9881081 14.3805405,18.9881081 C14.5751351,18.9881081 14.7697297,19.0659459 14.9448649,19.2216216 Z M35.5913514,22.3935135 L30.7264865,22.3935135 C30.24,23.3664865 29.6951351,24.2810811 29.1308108,24.9621622 C28.9751351,25.1567568 28.7610811,25.2345946 28.547027,25.2345946 C28.3524324,25.2345946 28.1383784,25.1567568 28.0021622,25.04 C27.8659459,24.9037838 27.7881081,24.7286486 27.7881081,24.5340541 C27.7881081,24.3394595 27.8464865,24.1448649 28.0021622,23.9891892 C29.0335135,22.7827027 30.0454054,20.6421622 30.5318919,18.6572973 C30.6291892,18.2875676 30.9016216,18.1513514 31.212973,18.1513514 C31.2908108,18.1513514 31.3686486,18.1513514 31.4464865,18.1708108 C31.7578378,18.2291892 31.9913514,18.4627027 31.9913514,18.7935135 C31.9913514,18.8713514 31.9913514,18.9297297 31.9718919,19.0075676 C31.7967568,19.6497297 31.5827027,20.2918919 31.3491892,20.9535135 L36.0389189,20.9535135 C37.2454054,20.9535135 37.7708108,21.4789189 37.7708108,22.6854054 L37.7708108,23.0745946 C37.7708108,28.6789189 37.3621622,32.2010811 36.7394595,34.1664865 C36.3308108,35.4508108 35.4745946,35.8983784 34.0735135,35.8983784 C33.2367568,35.8983784 32.3221622,35.7816216 31.6605405,35.6064865 C31.3491892,35.5286486 31.1935135,35.2562162 31.1935135,34.9254054 C31.1935135,34.8475676 31.212973,34.7502703 31.2324324,34.652973 C31.3297297,34.3027027 31.5827027,34.1275676 31.8745946,34.1275676 C31.9524324,34.1275676 32.0302703,34.147027 32.1081081,34.1664865 C32.5945946,34.3221622 33.2367568,34.4194595 33.9567568,34.4194595 C34.7935135,34.4194595 35.1827027,34.2248649 35.4162162,33.3491892 C35.8832432,31.6562162 36.2335135,28.172973 36.2335135,22.9967568 C36.2335135,22.5297297 36.0389189,22.3935135 35.5913514,22.3935135 Z M24.5383784,20.9924324 L25.7643243,20.9924324 C26.8735135,20.9924324 27.3989189,21.4205405 27.3989189,22.5102703 L27.3989189,33.2324324 C27.3989189,34.3416216 26.8540541,34.8086486 25.7643243,34.8086486 L22.3978378,34.8086486 C21.2886486,34.8086486 20.7437838,34.3416216 20.7437838,33.2324324 L20.7437838,22.5102703 C20.7437838,21.4205405 21.2691892,20.9924324 22.3978378,20.9924324 L23.0594595,20.9924324 C23.3708108,20.1945946 23.6043243,19.3383784 23.7794595,18.6183784 C23.8572973,18.3264865 24.0908108,18.1708108 24.4216216,18.1708108 C24.4994595,18.1708108 24.5967568,18.1708108 24.6745946,18.1902703 C25.0832432,18.2681081 25.2583784,18.4627027 25.2583784,18.7740541 C25.2583784,18.8324324 25.2583784,18.8908108 25.2389189,18.9297297 C25.0637838,19.5913514 24.8108108,20.3697297 24.5383784,20.9924324 Z M22.2227027,26.9081081 L25.92,26.9081081 L25.92,22.8410811 C25.92,22.412973 25.7254054,22.3156757 25.3556757,22.3156757 L22.8064865,22.3156757 C22.4172973,22.3156757 22.2227027,22.412973 22.2227027,22.8410811 L22.2227027,26.9081081 Z M22.2227027,28.2118919 L22.2227027,32.9210811 C22.2227027,33.3686486 22.4172973,33.4659459 22.8064865,33.4659459 L25.3556757,33.4659459 C25.7254054,33.4659459 25.92,33.3686486 25.92,32.9210811 L25.92,28.2118919 L22.2227027,28.2118919 Z M30.1816216,25.1372973 C30.3372973,25.04 30.5318919,24.9816216 30.707027,24.9816216 C30.8821622,24.9816216 31.0572973,25.04 31.1935135,25.2151351 C32.1664865,26.3827027 33.1005405,28.0367568 33.6843243,29.2821622 C33.7427027,29.3989189 33.7621622,29.5156757 33.7621622,29.6324324 C33.7621622,29.9048649 33.6259459,30.1578378 33.3535135,30.2940541 C33.2172973,30.3524324 33.0616216,30.3913514 32.9254054,30.3913514 C32.6724324,30.3913514 32.4194595,30.2551351 32.2832432,29.9437838 C31.7967568,28.8345946 30.9210811,27.2 30.0454054,26.0713514 C29.9481081,25.9351351 29.8897297,25.7989189 29.8897297,25.6432432 C29.8897297,25.4486486 29.987027,25.2540541 30.1816216,25.1372973 Z M49.1783274,34.3162081 C50.0698088,33.0722887 50.2637838,31.671304 50.2637838,28.9318919 L50.2637838,27.5308108 C50.2637838,26.5383784 50.7308108,26.1491892 51.7427027,26.1491892 L55.2064865,26.1491892 C56.2378378,26.1491892 56.7243243,26.5383784 56.7243243,27.5697297 L56.7243243,34.4583784 C56.7243243,35.7232432 56.0432432,36.1124324 54.8367568,36.1124324 C54.252973,36.1124324 53.6691892,36.0735135 53.2994595,35.9956757 C53.0075676,35.9372973 52.7740541,35.7037838 52.7740541,35.3924324 C52.7740541,35.3340541 52.7740541,35.2756757 52.7935135,35.2172973 C52.8713514,34.8281081 53.1048649,34.6918919 53.3383784,34.6918919 C53.3967568,34.6918919 53.4356757,34.6918919 53.4745946,34.7113514 C53.8054054,34.7891892 54.2918919,34.8281081 54.6421622,34.8281081 C55.1286486,34.8281081 55.3816216,34.6918919 55.3816216,34.2443243 L55.3816216,32.4735135 L51.3535135,32.4735135 C51.0616216,34.0108108 50.5167568,35.0032432 49.7189189,35.8789189 C49.5632432,36.0735135 49.3686486,36.1708108 49.1545946,36.1708108 C48.9794595,36.1708108 48.8237838,36.1124324 48.6875676,36.0151351 C48.492973,35.8983784 48.3956757,35.6843243 48.3956757,35.4897297 C48.3956757,35.3535135 48.4345946,35.2172973 48.5318919,35.1005405 C48.7654054,34.867027 48.96,34.6335135 49.1351351,34.4 C49.0378378,34.4972973 48.9210811,34.5362162 48.7848649,34.5362162 L45.3989189,34.5362162 L45.3989189,35.84 C45.3989189,36.1513514 45.1654054,36.3654054 44.7762162,36.3654054 C44.3675676,36.3654054 44.1535135,36.1513514 44.1535135,35.84 L44.1535135,34.5362162 L40.1837838,34.5362162 C39.9308108,34.5362162 39.7362162,34.3610811 39.7362162,34.0108108 C39.7362162,33.6994595 39.9113514,33.5048649 40.1837838,33.5048649 L44.1535135,33.5048649 L44.1535135,32.707027 L41.5459459,32.707027 C40.787027,32.707027 40.3978378,32.3762162 40.3978378,31.772973 L40.3978378,30.8583784 C40.3978378,30.1967568 40.787027,29.8659459 41.4291892,29.8659459 L44.1535135,29.8659459 L44.1535135,29.1264865 L42.9081081,29.1264865 C42.0518919,29.1264865 41.7016216,28.8540541 41.7016216,28.0172973 L41.7016216,27.5308108 L40.1254054,27.5308108 C39.8724324,27.5308108 39.6972973,27.3556757 39.6972973,27.0248649 C39.6972973,26.732973 39.8724324,26.5383784 40.1254054,26.5383784 L41.7016216,26.5383784 L41.7016216,26.1491892 C41.7016216,25.8572973 41.9351351,25.6821622 42.3243243,25.6821622 C42.7135135,25.6821622 42.947027,25.8572973 42.947027,26.1491892 L42.947027,26.5383784 L46.6248649,26.5383784 L46.6248649,26.1491892 C46.6248649,25.8572973 46.8389189,25.6821622 47.2281081,25.6821622 C47.6172973,25.6821622 47.8702703,25.8572973 47.8702703,26.1491892 L47.8702703,26.5383784 L49.3102703,26.5383784 C49.5632432,26.5383784 49.7383784,26.7135135 49.7383784,27.0248649 C49.7383784,27.3556757 49.5632432,27.5308108 49.3102703,27.5308108 L47.8702703,27.5308108 L47.8702703,28.0172973 C47.8702703,28.8540541 47.5005405,29.1264865 46.6248649,29.1264865 L45.3989189,29.1264865 L45.3989189,29.8659459 L47.9091892,29.8659459 C48.7459459,29.8659459 49.1351351,30.1967568 49.1351351,30.8194595 L49.1351351,31.772973 C49.1351351,32.3762162 48.7459459,32.707027 48.0648649,32.707027 L45.3989189,32.707027 L45.3989189,33.5048649 L48.7848649,33.5048649 C49.0767568,33.5048649 49.2518919,33.6994595 49.2518919,34.0108108 C49.2518919,34.143596 49.2334004,34.2393981 49.1783917,34.316243 L49.1783274,34.3162081 Z M55.3816216,29.827027 L51.6064865,29.827027 C51.587027,30.3524324 51.5675676,30.8778378 51.5091892,31.4032432 L55.3816216,31.4032432 L55.3816216,29.827027 Z M55.3816216,28.7567568 L55.3816216,27.7254054 C55.3816216,27.3556757 55.2064865,27.2583784 54.8367568,27.2583784 L52.1124324,27.2583784 C51.7621622,27.2583784 51.6064865,27.3556757 51.6064865,27.7254054 L51.6064865,28.7567568 L55.3816216,28.7567568 Z M44.1535135,30.7416216 L42.0713514,30.7416216 C41.7405405,30.7416216 41.5848649,30.8583784 41.5848649,31.0724324 L41.5848649,31.5394595 C41.5848649,31.7535135 41.7405405,31.8508108 41.9740541,31.8508108 L44.1535135,31.8508108 L44.1535135,30.7416216 Z M45.3989189,31.8508108 L47.5589189,31.8508108 C47.772973,31.8508108 47.9481081,31.7535135 47.9481081,31.5394595 L47.9481081,31.0724324 C47.9481081,30.8583784 47.772973,30.7416216 47.4616216,30.7416216 L45.3989189,30.7416216 L45.3989189,31.8508108 Z M42.947027,27.5308108 L42.947027,27.8616216 C42.947027,28.2313514 43.0054054,28.3091892 43.3945946,28.3091892 L46.1772973,28.3091892 C46.5664865,28.3091892 46.6248649,28.2313514 46.6248649,27.8616216 L46.6248649,27.5308108 L42.947027,27.5308108 Z M47.8508108,19.747027 L41.9351351,19.747027 C41.6432432,19.747027 41.4291892,19.5135135 41.4291892,19.1632432 C41.4291892,18.812973 41.6237838,18.5989189 41.9351351,18.5989189 L55.3427027,18.5989189 C55.6540541,18.5989189 55.8486486,18.812973 55.8486486,19.1632432 C55.8486486,19.5135135 55.6345946,19.747027 55.3427027,19.747027 L49.2518919,19.747027 L49.2518919,20.6032432 L55.7513514,20.6032432 C56.7437838,20.6032432 57.2691892,20.9924324 57.2691892,21.8681081 L57.2691892,23.9891892 C57.2691892,24.4172973 56.9967568,24.572973 56.5686486,24.572973 C56.1405405,24.572973 55.8681081,24.3783784 55.8681081,23.9502703 L55.8681081,22.1016216 C55.8681081,21.7708108 55.6540541,21.6540541 55.2648649,21.6540541 L49.2518919,21.6540541 L49.2518919,25.1178378 C49.2518919,25.5654054 48.9989189,25.6821622 48.5708108,25.6821622 C48.1427027,25.6821622 47.8508108,25.5654054 47.8508108,25.1178378 L47.8508108,21.6540541 L42.0518919,21.6540541 C41.6821622,21.6540541 41.4486486,21.7708108 41.4486486,22.1016216 L41.4486486,23.9891892 C41.4486486,24.4172973 41.1762162,24.572973 40.7481081,24.572973 C40.32,24.572973 40.0475676,24.4172973 40.0475676,23.9891892 L40.0475676,21.8681081 C40.0475676,20.9924324 40.572973,20.6032432 41.5654054,20.6032432 L47.8508108,20.6032432 L47.8508108,19.747027 Z M42.7718919,22.4518919 L46.4302703,22.4518919 C46.6832432,22.4518919 46.8,22.627027 46.8,22.88 C46.8,23.132973 46.6832432,23.3664865 46.4302703,23.3664865 L42.7718919,23.3664865 C42.5189189,23.3664865 42.4021622,23.132973 42.4021622,22.88 C42.4021622,22.627027 42.5189189,22.4518919 42.7718919,22.4518919 Z M50.7502703,22.4518919 L54.5059459,22.4518919 C54.7589189,22.4518919 54.8756757,22.627027 54.8756757,22.88 C54.8756757,23.132973 54.7589189,23.3664865 54.5059459,23.3664865 L50.7502703,23.3664865 C50.4972973,23.3664865 50.3805405,23.132973 50.3805405,22.88 C50.3805405,22.627027 50.4972973,22.4518919 50.7502703,22.4518919 Z M42.7718919,24.1643243 L46.4302703,24.1643243 C46.6832432,24.1643243 46.8,24.3589189 46.8,24.5924324 C46.8,24.8454054 46.6832432,25.0789189 46.4302703,25.0789189 L42.7718919,25.0789189 C42.5189189,25.0789189 42.4021622,24.8454054 42.4021622,24.5924324 C42.4021622,24.3589189 42.5189189,24.1643243 42.7718919,24.1643243 Z M50.7502703,24.1643243 L54.5059459,24.1643243 C54.7589189,24.1643243 54.8756757,24.3589189 54.8756757,24.5924324 C54.8756757,24.8454054 54.7589189,25.0789189 54.5059459,25.0789189 L50.7502703,25.0789189 C50.4972973,25.0789189 50.3805405,24.8454054 50.3805405,24.5924324 C50.3805405,24.3589189 50.4972973,24.1643243 50.7502703,24.1643243 Z M66.9989189,20.9340541 L60.5578378,20.9340541 C60.1881081,20.9340541 59.9935135,20.5448649 59.9935135,20.1751351 C59.9935135,19.7859459 60.1881081,19.4356757 60.5578378,19.4356757 L75.6583784,19.4356757 C76.0281081,19.4356757 76.2227027,19.7859459 76.2227027,20.1751351 C76.2227027,20.5448649 76.0281081,20.9340541 75.6583784,20.9340541 L68.6335135,20.9340541 L68.6335135,26.0518919 L74.4908108,26.0518919 C74.8605405,26.0518919 75.0356757,26.4021622 75.0356757,26.7913514 C75.0356757,27.1805405 74.8605405,27.5308108 74.4908108,27.5308108 L68.6335135,27.5308108 L68.6335135,33.4854054 L76.3589189,33.4854054 C76.7481081,33.4854054 76.9232432,33.8551351 76.9232432,34.2248649 C76.9232432,34.6140541 76.7481081,34.9837838 76.3589189,34.9837838 L59.8378378,34.9837838 C59.4681081,34.9837838 59.2735135,34.6140541 59.2735135,34.2248649 C59.2735135,33.8551351 59.4681081,33.4854054 59.8378378,33.4854054 L66.9989189,33.4854054 L66.9989189,27.5308108 L61.7059459,27.5308108 C61.3167568,27.5308108 61.1416216,27.1805405 61.1416216,26.7913514 C61.1416216,26.4021622 61.3167568,26.0518919 61.7059459,26.0518919 L66.9989189,26.0518919 L66.9989189,20.9340541 Z M81.9632432,34.652973 L81.9632432,29.4962162 C81.9632432,29.0097297 82.0410811,28.5232432 82.2356757,28.0951351 C81.2432432,28.5621622 80.2508108,28.9513514 79.2778378,29.2821622 C79.2,29.3210811 79.1027027,29.3405405 79.0248649,29.3405405 C78.7524324,29.3405405 78.4994595,29.1848649 78.3827027,28.892973 C78.3632432,28.8151351 78.3437838,28.7372973 78.3437838,28.6594595 C78.3437838,28.3675676 78.5189189,28.1340541 78.8108108,28.0562162 C81.4572973,27.2972973 84.2983784,26.0324324 86.4194595,24.1448649 C86.7502703,23.852973 87.1394595,23.7167568 87.5286486,23.7167568 C87.9372973,23.7167568 88.3264865,23.852973 88.6572973,24.1448649 C90.7005405,25.8767568 93.4248649,27.0832432 96.227027,27.6864865 C96.5967568,27.7643243 96.7524324,28.0367568 96.7524324,28.3286486 C96.7524324,28.4064865 96.7524324,28.4648649 96.732973,28.5427027 C96.6551351,28.9124324 96.3827027,29.0875676 96.0518919,29.0875676 C95.9740541,29.0875676 95.8767568,29.0681081 95.7989189,29.0486486 C94.7481081,28.7762162 93.7556757,28.4064865 92.8216216,28.0172973 C93.0162162,28.387027 93.0745946,28.8151351 93.0745946,29.3405405 L93.0745946,30.9556757 C93.0745946,31.8508108 92.5881081,32.3372973 91.4205405,32.3372973 L88.3264865,32.3372973 C88.8908108,33.0183784 89.6108108,33.5437838 90.4086486,33.9524324 C91.6151351,33.3297297 92.7827027,32.5708108 93.6,31.7924324 C93.7362162,31.6951351 93.8724324,31.6367568 94.0281081,31.6367568 C94.1837838,31.6367568 94.3589189,31.6951351 94.5145946,31.8313514 C94.6897297,31.9675676 94.7481081,32.1232432 94.7481081,32.2594595 C94.7481081,32.4345946 94.6508108,32.5902703 94.5145946,32.707027 C93.6583784,33.3491892 92.6854054,33.9524324 91.692973,34.4583784 C92.9189189,34.8475676 94.2810811,35.0421622 95.5848649,35.1005405 C96.0324324,35.12 96.227027,35.3340541 96.227027,35.7232432 L96.227027,35.84 C96.1881081,36.2875676 95.9545946,36.4432432 95.5459459,36.4432432 L95.4097297,36.4432432 C92.0043243,36.1318919 88.7935135,35.0616216 86.8475676,32.3372973 L83.3059459,32.3372973 L83.3059459,34.4972973 C84.7654054,34.3027027 86.2248649,34.0691892 87.2562162,33.8356757 C87.3145946,33.8162162 87.372973,33.8162162 87.4313514,33.8162162 C87.7232432,33.8162162 87.9372973,33.9718919 88.0151351,34.2832432 C88.0345946,34.3416216 88.0345946,34.4 88.0345946,34.4389189 C88.0345946,34.7502703 87.84,34.9643243 87.5286486,35.0227027 C85.5632432,35.4313514 82.0605405,35.9956757 79.9394595,36.1902703 L79.9005405,36.1902703 C79.5308108,36.1902703 79.2389189,35.9762162 79.2,35.5481081 L79.2,35.4702703 C79.2,35.0810811 79.4335135,34.8864865 79.7643243,34.867027 C80.4064865,34.8281081 81.1654054,34.7502703 81.9632432,34.652973 Z M88.1708108,27.1610811 L89.5913514,27.1610811 C90.2140541,27.1610811 90.8951351,27.2194595 91.5178378,27.3167568 C90.1751351,26.6551351 89.0075676,25.9351351 87.9567568,25.04 C87.8010811,24.9232432 87.6648649,24.8454054 87.5286486,24.8454054 C87.4118919,24.8454054 87.2951351,24.9037838 87.1589189,25.0205405 C86.2054054,25.9156757 84.96,26.6940541 83.6756757,27.3362162 C84.3178378,27.2194595 84.9989189,27.1610811 85.6216216,27.1610811 L86.9448649,27.1610811 L86.9448649,26.3048649 C86.9448649,26.0324324 87.1783784,25.8572973 87.5481081,25.8572973 C87.9178378,25.8572973 88.1708108,26.0324324 88.1708108,26.3048649 L88.1708108,27.1610811 Z M83.3059459,31.3254054 L91.3037838,31.3254054 C91.6151351,31.3254054 91.7708108,31.2281081 91.7708108,30.9167568 L91.7708108,30.2356757 L83.3059459,30.2356757 L83.3059459,31.3254054 Z M83.3059459,29.2237838 L91.7708108,29.2237838 L91.7708108,28.5621622 C91.7708108,28.2508108 91.6151351,28.172973 91.3037838,28.172973 L83.8313514,28.172973 C83.4810811,28.172973 83.3059459,28.2508108 83.3059459,28.5621622 L83.3059459,29.2237838 Z M84.4151351,21.0313514 L85.9524324,21.0313514 C86.6724324,21.0313514 87.0421622,21.3816216 87.0421622,21.8291892 C87.0421622,22.0627027 86.9448649,22.3156757 86.7113514,22.5491892 C84.96,24.4951351 82.1772973,26.0908108 79.1416216,26.9081081 C79.0832432,26.9275676 79.0054054,26.9275676 78.947027,26.9275676 C78.7135135,26.9275676 78.5189189,26.7913514 78.4021622,26.48 C78.3827027,26.4021622 78.3632432,26.3048649 78.3632432,26.227027 C78.3632432,25.9740541 78.5189189,25.76 78.7718919,25.7016216 C80.0562162,25.4097297 81.2432432,24.9621622 82.2940541,24.4367568 C81.9048649,24.1059459 81.5351351,23.8724324 81.2432432,23.6972973 C81.107027,23.6194595 81.0291892,23.4832432 81.0291892,23.347027 C81.0291892,23.2497297 81.0681081,23.132973 81.1654054,23.0162162 C81.3016216,22.8605405 81.4378378,22.7827027 81.5740541,22.7827027 C81.6713514,22.7827027 81.7491892,22.8021622 81.8464865,22.8605405 C82.2162162,23.0745946 82.7221622,23.4054054 83.3059459,23.8724324 C84.0843243,23.4054054 84.7264865,22.8994595 85.2324324,22.3740541 C85.3297297,22.2572973 85.3881081,22.1794595 85.3881081,22.1210811 C85.3881081,22.0237838 85.2908108,21.9848649 85.1156757,21.9848649 L81.6713514,21.9848649 C80.9708108,22.8216216 80.1145946,23.5027027 79.2778378,24.0086486 C79.1610811,24.067027 79.0443243,24.1059459 78.9275676,24.1059459 C78.7135135,24.1059459 78.5189189,24.0086486 78.4021622,23.7945946 C78.3243243,23.6778378 78.2854054,23.5416216 78.2854054,23.4248649 C78.2854054,23.2302703 78.3827027,23.0551351 78.5967568,22.9383784 C79.7448649,22.2767568 80.5427027,21.5762162 81.2627027,20.4281081 C81.3794595,20.252973 81.5351351,20.1751351 81.7102703,20.1751351 C81.827027,20.1751351 81.9632432,20.2140541 82.0994595,20.2724324 C82.332973,20.3697297 82.4497297,20.5643243 82.4497297,20.7589189 C82.4497297,20.8367568 82.4302703,20.9340541 82.3718919,21.0313514 L83.1308108,21.0313514 L83.1308108,18.4237838 C83.1308108,18.1124324 83.3448649,17.9178378 83.772973,17.9178378 C84.2010811,17.9178378 84.4151351,18.1124324 84.4151351,18.4237838 L84.4151351,18.9102703 L86.8086486,18.9102703 C87.0810811,18.9102703 87.2562162,19.1632432 87.2562162,19.4551351 C87.2562162,19.7859459 87.0810811,20.0389189 86.8086486,20.0389189 L84.4151351,20.0389189 L84.4151351,21.0313514 Z M88.9686486,19.8443243 L88.307027,19.8443243 C88.0345946,19.8443243 87.84,19.6108108 87.84,19.2605405 C87.84,18.9297297 88.0345946,18.6962162 88.307027,18.6962162 L94.3394595,18.6962162 C95.04,18.6962162 95.4875676,19.1632432 95.4875676,19.747027 C95.4875676,20 95.4097297,20.2724324 95.2151351,20.5254054 C94.5535135,21.4205405 93.7362162,22.2183784 92.7437838,22.8994595 C93.7751351,23.6 94.9427027,24.0475676 96.1297297,24.3394595 C96.3827027,24.3978378 96.5383784,24.6313514 96.5383784,24.9232432 C96.5383784,25.0010811 96.5189189,25.0983784 96.4994595,25.1762162 C96.4021622,25.4875676 96.1491892,25.6821622 95.8572973,25.6821622 C95.7989189,25.6821622 95.7210811,25.6627027 95.6432432,25.6432432 C94.1059459,25.1178378 92.7632432,24.4756757 91.6540541,23.5610811 C91.0897297,23.8724324 90.4864865,24.1254054 89.8443243,24.3394595 C89.7664865,24.3589189 89.6886486,24.3783784 89.6108108,24.3783784 C89.3772973,24.3783784 89.1243243,24.2421622 89.0075676,23.9891892 C88.9881081,23.9113514 88.9686486,23.8335135 88.9686486,23.7556757 C88.9686486,23.5221622 89.1048649,23.2886486 89.3383784,23.2108108 C89.8248649,23.0356757 90.2724324,22.8605405 90.7005405,22.6854054 C89.9610811,21.8486486 89.3967568,20.8756757 88.9686486,19.8443243 Z M93.6,19.8443243 L90.252973,19.8443243 C90.6227027,20.7005405 91.0897297,21.4594595 91.7708108,22.1016216 C92.5491892,21.6345946 93.2108108,21.0508108 93.7945946,20.2724324 C93.852973,20.1751351 93.8918919,20.0972973 93.8918919,20.0194595 C93.8918919,19.9027027 93.7945946,19.8443243 93.6,19.8443243 Z" id="我的霸王餐" fill="#000000"></path>
        </g>
    </g>
</svg>