<?xml version="1.0" encoding="UTF-8"?>
<svg width="60px" height="20px" viewBox="0 0 60 20" version="1.1" xmlns="http://www.w3.org/2000/svg" xmlns:xlink="http://www.w3.org/1999/xlink">
    <!-- Generator: Sketch 48.1 (47250) - http://www.bohemiancoding.com/sketch -->
    <title>未中奖 icon</title>
    <desc>Created with Sketch.</desc>
    <defs>
        <linearGradient x1="0%" y1="0%" x2="100%" y2="98.1445313%" id="linearGradient-1">
            <stop stop-color="#FFFFFF" offset="0%"></stop>
            <stop stop-color="#F6E7E7" offset="89.4010417%"></stop>
            <stop stop-color="#FAF3F3" offset="100%"></stop>
        </linearGradient>
        <rect id="path-2" x="0" y="0.5" width="60" height="19.5"></rect>
        <path d="M23.768,10.74 L19.46,10.74 C20.552,12.276 22.376,13.776 24.044,14.508 C23.84,14.676 23.552,15.024 23.396,15.264 C21.812,14.472 20.108,12.984 18.944,11.388 L18.944,15.924 L18.02,15.924 L18.02,11.436 C16.856,13.032 15.176,14.46 13.604,15.252 C13.448,15.036 13.16,14.688 12.956,14.52 C14.624,13.776 16.436,12.288 17.516,10.74 L13.28,10.74 L13.28,9.864 L18.02,9.864 L18.02,7.8 L14.144,7.8 L14.144,6.924 L18.02,6.924 L18.02,4.968 L18.944,4.968 L18.944,6.924 L22.94,6.924 L22.94,7.8 L18.944,7.8 L18.944,9.864 L23.768,9.864 L23.768,10.74 Z M30.932,11.148 L34.376,11.148 L34.376,7.968 L30.932,7.968 L30.932,11.148 Z M26.576,11.148 L30.008,11.148 L30.008,7.968 L26.576,7.968 L26.576,11.148 Z M30.932,7.092 L35.288,7.092 L35.288,12.708 L34.376,12.708 L34.376,12.024 L30.932,12.024 L30.932,15.912 L30.008,15.912 L30.008,12.024 L26.576,12.024 L26.576,12.768 L25.7,12.768 L25.7,7.092 L30.008,7.092 L30.008,4.956 L30.932,4.956 L30.932,7.092 Z M47.276,5.94 L47.804,6.204 C46.844,9.084 44.468,10.26 41.516,10.788 C41.432,10.572 41.204,10.212 41.036,10.044 C42.188,9.876 43.232,9.6 44.12,9.192 C43.76,8.736 43.184,8.172 42.68,7.74 L43.328,7.356 C43.844,7.764 44.456,8.34 44.84,8.808 C45.632,8.292 46.268,7.632 46.676,6.744 L43.376,6.744 C42.872,7.236 42.308,7.68 41.732,8.004 C41.612,7.824 41.372,7.512 41.204,7.356 C42.248,6.792 43.244,5.82 43.652,4.92 L44.516,5.196 C44.384,5.46 44.216,5.712 44.024,5.964 L47.108,5.964 L47.276,5.94 Z M39.248,7.428 L38.528,7.824 C38.348,7.32 37.868,6.516 37.424,5.94 L38.108,5.592 C38.564,6.144 39.056,6.924 39.248,7.428 Z M39.872,10.812 L39.872,8.832 C39.032,9.288 38.18,9.744 37.484,10.104 L37.1,9.336 C37.808,9.012 38.84,8.508 39.872,7.992 L39.872,4.956 L40.736,4.956 L40.736,10.812 L39.872,10.812 Z M47.708,12.516 L43.22,12.516 C43.988,14.004 45.608,14.796 47.996,15.06 C47.792,15.24 47.552,15.612 47.456,15.84 C45.008,15.48 43.376,14.58 42.488,12.852 C41.84,14.364 40.508,15.408 37.484,15.936 C37.412,15.72 37.22,15.36 37.064,15.18 C39.92,14.724 41.096,13.824 41.648,12.516 L37.256,12.516 L37.256,11.712 L41.912,11.712 C41.984,11.424 42.032,11.124 42.08,10.8 L43.004,10.8 C42.956,11.124 42.908,11.412 42.836,11.712 L47.708,11.712 L47.708,12.516 Z" id="path-3"></path>
        <filter x="-5.7%" y="-9.1%" width="111.4%" height="136.3%" filterUnits="objectBoundingBox" id="filter-4">
            <feOffset dx="0" dy="1" in="SourceAlpha" result="shadowOffsetOuter1"></feOffset>
            <feGaussianBlur stdDeviation="0.5" in="shadowOffsetOuter1" result="shadowBlurOuter1"></feGaussianBlur>
            <feColorMatrix values="0 0 0 0 0.964705882   0 0 0 0 0.905882353   0 0 0 0 0.905882353  0 0 0 1 0" type="matrix" in="shadowBlurOuter1"></feColorMatrix>
        </filter>
    </defs>
    <g id="2.-往期霸王餐" stroke="none" stroke-width="1" fill="none" fill-rule="evenodd" transform="translate(-16.000000, -494.000000)">
        <g id="未中奖-icon" transform="translate(16.000000, 494.000000)">
            <g id="Rectangle-5">
                <use fill="url(#linearGradient-1)" fill-rule="evenodd" xlink:href="#path-2"></use>
                <rect stroke="#F6E7E7" stroke-width="1" x="0.5" y="1" width="59" height="18.5"></rect>
            </g>
            <g id="未中奖">
                <use fill="black" fill-opacity="1" filter="url(#filter-4)" xlink:href="#path-3"></use>
                <use fill="#CDACAC" fill-rule="evenodd" xlink:href="#path-3"></use>
            </g>
        </g>
    </g>
</svg>