<?xml version="1.0" encoding="UTF-8"?>
<svg width="79px" height="56px" viewBox="0 0 79 56" version="1.1" xmlns="http://www.w3.org/2000/svg" xmlns:xlink="http://www.w3.org/1999/xlink">
    <!-- Generator: Sketch 48.1 (47250) - http://www.bohemiancoding.com/sketch -->
    <title>当前霸王餐提示</title>
    <desc>Created with Sketch.</desc>
    <defs></defs>
    <g id="2.-往期霸王餐" stroke="none" stroke-width="1" fill="none" fill-rule="evenodd" transform="translate(-261.000000, -326.000000)">
        <g id="当前霸王餐提示" transform="translate(261.000000, 326.000000)">
            <path d="M10.5,7.56059591e-15 L57.5,5.68434189e-14 C63.0228475,6.07341622e-14 67.5,4.4771525 67.5,10 L67.5,22.9492188 L78.265625,36.5019531 L67.5,34.1601563 L67.5,46 C67.5,51.5228475 63.0228475,56 57.5,56 L10.5,56 C4.9771525,56 0.5,51.5228475 0.5,46 L0.5,10 C0.5,4.4771525 4.9771525,2.79088747e-15 10.5,1.77635684e-15 Z" id="Rectangle-6" fill="#4A90E2" opacity="0.7"></path>
            <path d="M16.456,16.32 L16.456,15.612 L14.476,15.612 L14.476,16.32 L16.456,16.32 Z M16.456,17.64 L16.456,16.908 L14.476,16.908 L14.476,17.64 L16.456,17.64 Z M17.14,18.372 L17.224,18.24 L13.744,18.24 L13.744,15.012 L14.944,15.012 C15.04,14.664 15.148,14.256 15.208,13.968 L16.072,14.088 C15.952,14.4 15.808,14.724 15.688,15.012 L17.224,15.012 L17.224,18.228 C17.848,17.16 18.244,15.576 18.484,14.016 L19.216,14.124 C19.12,14.712 19,15.3 18.868,15.852 L21.364,15.852 L21.364,16.62 L20.848,16.62 C20.68,18.06 20.404,19.308 19.984,20.364 C20.488,21.18 20.956,21.984 21.232,22.584 L20.56,23.016 C20.344,22.5 19.984,21.864 19.6,21.192 C19.132,22.044 18.532,22.752 17.74,23.328 C17.632,23.196 17.356,22.896 17.188,22.752 C18.064,22.164 18.688,21.408 19.144,20.436 C18.736,19.788 18.316,19.14 17.92,18.576 L18.544,18.216 C18.844,18.636 19.168,19.116 19.48,19.596 C19.78,18.72 19.96,17.736 20.08,16.62 L18.664,16.62 C18.424,17.448 18.124,18.192 17.776,18.792 C17.644,18.672 17.32,18.456 17.14,18.372 Z M16.42,21.012 L15.076,21.012 C14.884,21.888 14.524,22.596 13.828,23.088 C13.732,22.908 13.516,22.668 13.348,22.548 C14.188,21.948 14.428,20.916 14.512,19.68 L13.348,19.68 L13.348,19.032 L15.172,19.032 C15.076,18.84 14.956,18.66 14.848,18.492 L15.544,18.24 C15.724,18.48 15.916,18.78 16.036,19.032 L17.536,19.032 L17.536,19.68 L15.268,19.68 C15.256,19.908 15.232,20.148 15.196,20.364 L17.2,20.364 C17.2,20.364 17.2,20.556 17.188,20.664 C17.092,22.02 16.996,22.572 16.804,22.788 C16.648,22.956 16.48,23.016 16.24,23.028 C16.072,23.052 15.712,23.04 15.388,23.028 C15.376,22.836 15.316,22.572 15.208,22.404 C15.532,22.44 15.796,22.44 15.916,22.44 C16.048,22.44 16.12,22.428 16.18,22.344 C16.276,22.236 16.36,21.876 16.42,21.012 Z M13.216,16.5 L12.46,16.968 C12.16,16.392 11.464,15.516 10.864,14.868 L11.56,14.472 C12.184,15.084 12.904,15.924 13.216,16.5 Z M12.904,18.348 L12.904,22.548 C13.144,22.692 13.396,22.932 13.804,23.184 C14.596,23.664 15.628,23.76 17.02,23.76 C18.484,23.76 20.32,23.652 21.508,23.52 C21.412,23.748 21.268,24.168 21.256,24.42 C20.38,24.48 18.148,24.552 16.984,24.552 C15.472,24.552 14.452,24.432 13.612,23.892 C13.12,23.58 12.712,23.172 12.46,23.172 C12.112,23.172 11.608,23.892 11.116,24.696 L10.516,23.904 C11.056,23.244 11.584,22.74 12.04,22.512 L12.04,19.188 L10.612,19.188 L10.612,18.348 L12.904,18.348 Z M25.708,15.996 L25.096,16.62 C24.736,16.116 23.944,15.336 23.32,14.772 L23.896,14.244 C24.52,14.772 25.336,15.516 25.708,15.996 Z M25.192,22.824 L26.416,21.912 C26.476,22.152 26.632,22.488 26.728,22.656 C24.724,24.204 24.412,24.468 24.232,24.696 C24.148,24.492 23.92,24.12 23.764,23.94 C23.992,23.808 24.328,23.448 24.328,22.92 L24.328,18.564 L22.54,18.564 L22.54,17.712 L25.192,17.712 L25.192,22.824 Z M27.928,22.416 L31.672,22.416 L31.672,21.444 L27.928,21.444 L27.928,22.416 Z M31.672,19.896 L27.928,19.896 L27.928,20.82 L31.672,20.82 L31.672,19.896 Z M32.524,19.2 L32.524,23.916 C32.524,24.372 32.428,24.6 32.104,24.732 C31.756,24.864 31.228,24.876 30.376,24.864 C30.34,24.648 30.22,24.324 30.112,24.096 C30.724,24.12 31.3,24.12 31.444,24.108 C31.624,24.108 31.672,24.06 31.672,23.904 L31.672,23.064 L27.928,23.064 L27.928,24.912 L27.088,24.912 L27.088,19.2 L32.524,19.2 Z M30.232,17.832 L33.46,17.832 L33.46,18.516 L26.236,18.516 L26.236,17.832 L29.356,17.832 L29.356,16.992 L26.884,16.992 L26.884,16.344 L29.356,16.344 L29.356,15.588 L26.596,15.588 L26.596,14.904 L29.356,14.904 L29.356,13.968 L30.232,13.968 L30.232,14.904 L33.112,14.904 L33.112,15.588 L30.232,15.588 L30.232,16.344 L32.752,16.344 L32.752,16.992 L30.232,16.992 L30.232,17.832 Z M36.76,20.28 L39.592,20.28 C39.616,20.04 39.616,19.788 39.616,19.548 L39.616,19.068 L36.76,19.068 L36.76,20.28 Z M36.76,17.16 L36.76,18.36 L39.616,18.36 L39.616,17.16 L36.76,17.16 Z M43.552,17.16 L40.528,17.16 L40.528,18.36 L43.552,18.36 L43.552,17.16 Z M43.552,20.28 L43.552,19.068 L40.528,19.068 L40.528,19.56 C40.528,19.8 40.516,20.052 40.504,20.28 L43.552,20.28 Z M44.428,21.024 L40.396,21.024 C40.252,21.768 39.928,22.452 39.328,23.064 C40.84,23.748 42.904,23.928 45.568,24 C45.412,24.216 45.244,24.588 45.196,24.876 C42.424,24.756 40.24,24.492 38.608,23.628 C37.804,24.156 36.688,24.6 35.128,24.924 C35.032,24.72 34.792,24.348 34.6,24.144 C36.028,23.868 37.048,23.532 37.78,23.112 C37.204,22.668 36.712,22.116 36.304,21.42 L37.048,21.12 C37.456,21.744 37.936,22.236 38.5,22.608 C39.052,22.14 39.328,21.6 39.472,21.024 L35.908,21.024 L35.908,16.416 L39.616,16.416 L39.616,15.408 L34.816,15.408 L34.816,14.604 L45.184,14.604 L45.184,15.408 L40.528,15.408 L40.528,16.416 L44.428,16.416 L44.428,21.024 Z M54.94,14.964 L55.516,15.324 C54.004,17.976 50.512,19.584 47.404,20.232 C47.332,19.992 47.14,19.62 46.984,19.428 C48.316,19.188 49.732,18.756 51.004,18.144 C50.608,17.784 50.08,17.4 49.6,17.124 L50.248,16.668 C50.752,16.956 51.352,17.364 51.784,17.748 C52.732,17.196 53.56,16.548 54.148,15.804 L50.764,15.804 C49.996,16.44 49.06,17.028 47.98,17.52 C47.848,17.316 47.572,17.04 47.38,16.896 C49.288,16.092 50.716,14.928 51.484,13.944 L52.456,14.148 C52.228,14.436 51.964,14.712 51.676,15 L54.784,15 L54.94,14.964 Z M56.692,19.152 L57.292,19.524 C55.624,23.052 51.532,24.444 47.308,24.948 C47.248,24.696 47.104,24.3 46.948,24.084 C48.976,23.892 50.992,23.472 52.672,22.692 C52.276,22.308 51.736,21.852 51.268,21.492 L52,21.072 C52.48,21.42 53.056,21.888 53.488,22.284 C54.508,21.696 55.36,20.952 55.96,20.016 L52.72,20.016 C51.724,20.82 50.488,21.552 48.988,22.14 C48.88,21.948 48.628,21.624 48.424,21.48 C50.848,20.604 52.552,19.272 53.428,18.096 L54.412,18.312 C54.172,18.612 53.92,18.912 53.62,19.2 L56.512,19.2 L56.692,19.152 Z M14.2,33.244 L12.508,33.244 C12.292,34.288 12.04,35.296 11.788,36.148 C12.256,36.448 12.724,36.784 13.168,37.144 C13.66,36.076 14.02,34.78 14.2,33.244 Z M14.584,32.38 L15.124,32.512 C14.932,34.672 14.512,36.376 13.864,37.708 C14.44,38.2 14.932,38.68 15.256,39.1 L14.656,39.832 C14.356,39.448 13.924,38.992 13.42,38.524 C12.748,39.58 11.908,40.36 10.924,40.912 C10.804,40.684 10.564,40.36 10.36,40.204 C11.296,39.736 12.112,38.98 12.748,37.948 C12.124,37.42 11.44,36.916 10.816,36.496 C11.104,35.632 11.392,34.456 11.656,33.244 L10.552,33.244 L10.552,32.416 L11.812,32.416 C11.98,31.576 12.124,30.724 12.208,29.968 L13.084,30.028 C12.976,30.772 12.844,31.6 12.676,32.416 L14.416,32.416 L14.584,32.38 Z M21.472,35.02 L21.472,35.872 L18.832,35.872 L18.832,39.856 C18.832,40.384 18.7,40.636 18.328,40.78 C17.956,40.912 17.38,40.936 16.456,40.924 C16.396,40.672 16.252,40.324 16.12,40.072 C16.828,40.096 17.488,40.096 17.668,40.084 C17.86,40.084 17.932,40.024 17.932,39.856 L17.932,35.872 L15.16,35.872 L15.16,35.02 L17.932,35.02 L17.932,33.652 C18.544,33.148 19.192,32.368 19.684,31.672 L15.688,31.672 L15.688,30.844 L20.296,30.844 L20.5,30.796 L21.112,31.24 C20.524,32.128 19.672,33.136 18.832,33.868 L18.832,35.02 L21.472,35.02 Z M30.712,35.26 L26.716,35.26 C27.196,36.364 27.892,37.312 28.804,38.08 C29.62,37.324 30.292,36.4 30.712,35.26 Z M31.276,34.36 L31.888,34.636 C31.42,36.328 30.592,37.636 29.524,38.62 C30.604,39.34 31.912,39.832 33.46,40.12 C33.256,40.3 33.004,40.672 32.896,40.912 C31.276,40.588 29.944,40.012 28.84,39.196 C27.772,40 26.548,40.552 25.228,40.924 C25.12,40.696 24.916,40.348 24.724,40.18 C25.96,39.868 27.124,39.352 28.132,38.62 C27.28,37.852 26.596,36.88 26.08,35.764 C25.552,37.528 24.676,39.316 23.248,40.54 C23.068,40.312 22.756,40.096 22.48,39.928 C24.64,38.2 25.48,35.128 25.816,32.824 L22.876,32.824 L22.876,31.96 L25.924,31.96 C26.032,31.012 26.056,30.28 26.068,29.956 L26.98,29.956 C26.956,30.328 26.932,31.048 26.824,31.96 L33.16,31.96 L33.16,32.824 L26.716,32.824 C26.644,33.316 26.56,33.856 26.428,34.408 L31.132,34.408 L31.276,34.36 Z M36.124,36.448 L36.124,38.512 C36.82,38.368 37.576,38.2 38.368,38.032 L38.368,36.448 L36.124,36.448 Z M38.368,31.36 L36.124,31.36 L36.124,33.112 L38.368,33.112 L38.368,31.36 Z M38.368,35.644 L38.368,33.916 L36.124,33.916 L36.124,35.644 L38.368,35.644 Z M39.868,37.708 L39.928,38.512 C38.056,38.956 36.04,39.424 34.612,39.748 L34.456,38.848 L35.308,38.68 L35.308,30.544 L39.208,30.544 L39.208,37.852 L39.868,37.708 Z M42.412,32.668 L45.124,32.668 C45.124,32.668 45.112,33.004 45.112,33.112 C44.992,38.14 44.872,39.844 44.476,40.372 C44.248,40.684 43.996,40.78 43.612,40.828 C43.252,40.864 42.604,40.84 41.968,40.816 C41.944,40.552 41.86,40.192 41.704,39.964 C42.388,40.012 43.012,40.012 43.264,40.012 C43.468,40.024 43.6,39.988 43.708,39.832 C44.008,39.472 44.14,37.888 44.248,33.52 L42.376,33.52 C42.196,36.64 41.536,39.34 39.112,40.948 C38.98,40.732 38.692,40.42 38.464,40.288 C40.744,38.86 41.344,36.388 41.512,33.52 L39.604,33.52 L39.604,32.668 L41.548,32.668 C41.584,31.792 41.584,30.892 41.584,29.968 L42.448,29.968 C42.448,30.892 42.448,31.792 42.412,32.668 Z M51.856,32.572 L56.848,32.572 C56.848,32.572 56.836,32.908 56.824,33.04 C56.56,37.96 56.308,39.748 55.78,40.348 C55.504,40.684 55.216,40.78 54.76,40.828 C54.34,40.864 53.572,40.84 52.84,40.792 C52.828,40.528 52.72,40.144 52.54,39.88 C53.356,39.952 54.124,39.964 54.424,39.964 C54.676,39.964 54.832,39.928 54.976,39.784 C55.408,39.376 55.672,37.684 55.9,33.46 L51.808,33.46 C51.64,35.944 50.848,38.848 47.368,40.972 C47.224,40.756 46.9,40.408 46.684,40.264 C49.936,38.332 50.704,35.704 50.884,33.46 L47.044,33.46 L47.044,32.572 L50.932,32.572 L50.932,29.98 L51.856,29.98 L51.856,32.572 Z" id="邀请更多-好友助力" fill="#FFFFFF"></path>
        </g>
    </g>
</svg>