<svg xmlns="http://www.w3.org/2000/svg" width="28" height="28" viewBox="0 0 28 28">
  <g fill="none" fill-rule="evenodd">
    <circle cx="14" cy="14" r="14" fill="#FFF"/>
    <path fill="#E2452E" d="M21.5620672,14.3921608 C21.6279414,14.6990948 21.3742505,14.9861114 20.9958512,15.0330963 L19.9408591,15.1643476 C19.5624599,15.2115879 19.2031692,15.0004111 19.1388036,14.6919449 L19.1694779,14.8390282 C19.1051123,14.5308173 18.7445644,14.3295993 18.3664166,14.3890965 L5.30774632,16.4423883 C4.92859281,16.5021409 4.6354277,16.2861124 4.65227338,15.9620697 L4.64548482,16.0907675 C4.66258193,15.7659588 4.9831527,15.4544284 5.36180335,15.3951865 L11.3452882,14.4580418 C11.7236874,14.3987999 12.0442582,14.0865035 12.0613553,13.7629715 L12.0507953,13.9618913 C12.0678924,13.6373379 11.7742245,13.4123721 11.3970824,13.459357 L6.25462438,14.0992711 C5.87672801,14.1465114 5.58406575,13.9207795 5.60116286,13.5957154 L5.82065955,9.4145688 C5.83775666,9.0895047 6.15908172,8.7876777 6.5362238,8.74069278 L11.6786818,8.10077869 C12.0568296,8.05353842 12.3771489,7.75171142 12.3939946,7.42741338 L12.3761432,7.76984147 C12.3932403,7.44503272 12.1008295,7.22006691 11.7214246,7.26730718 L5.75126541,8.01012845 C5.37261476,8.05736871 5.07944965,7.83112614 5.09654675,7.5073388 L5.0897582,7.63603661 C5.10685531,7.3109725 5.42667179,7.00965621 5.80632815,6.96241594 L11.7762359,6.21933932 C12.155138,6.17209905 12.4759602,5.86976135 12.4930573,5.5454633 L12.4762116,5.86490965 C12.4933087,5.54010089 12.8143823,5.23827389 13.1925301,5.19128898 L14.2475222,5.06003765 C14.6261729,5.01279738 14.9190866,5.2387846 14.9019895,5.56308265 L14.9188352,5.2436363 C14.901738,5.56870041 15.195406,5.79366622 15.5733024,5.7466813 L21.5228444,5.00641356 C21.9012437,4.95917329 22.0727176,5.17801064 21.9060208,5.49439274 L21.9231179,5.46170759 C21.7564211,5.7786004 21.3139077,6.07353288 20.9360114,6.12051779 L15.5179882,6.79464916 C15.139589,6.84188943 14.8190182,7.14371643 14.8019211,7.46801447 L14.8200239,7.12558638 C14.8029268,7.45039513 15.0953376,7.67536094 15.4759997,7.62812067 L20.635052,6.9859084 C21.0144569,6.93892349 21.3081249,7.16516606 21.2910278,7.49048552 L21.0838511,11.4310898 C21.066754,11.75692 21.1064796,12.2706898 21.1723537,12.5768578 L21.5620672,14.3921608 Z M18.2598111,12.1085408 C18.0443373,12.4096017 17.5623497,12.6920219 17.1852076,12.7390068 L15.1921374,12.9872097 C15.0030636,13.0107022 14.4604818,13.2088559 14.4976932,13.516556 C14.5462188,13.9192474 14.9565494,13.8993299 15.1461261,13.869709 L18.1650228,13.3965402 C18.5439249,13.337043 18.7998786,13.0390463 18.7367702,12.7310909 L18.6862331,11.1966759 C18.7033302,10.8718672 18.4101651,10.6463907 18.0320173,10.6933756 L15.295223,11.0340162 C15.1061491,11.0575087 14.63447,11.2482572 14.599773,11.5820033 C14.5615559,11.9476685 15.057372,11.9864821 15.2464459,11.9629897 L17.8540063,11.6384363 C18.2324055,11.591196 18.4941421,11.7806678 18.2784168,12.0822394 L18.2598111,12.1085408 Z M14.6963213,9.48172659 C14.6789728,9.80730139 14.9721379,10.0332886 15.3502857,9.98604835 L18.0870801,9.64540772 C18.4654793,9.59842281 18.7860501,9.29685116 18.8031472,8.9705103 L18.8099357,8.84028037 C18.8270328,8.51445021 18.5338677,8.28871834 18.1559714,8.33570326 L15.419177,8.67634388 C15.0407778,8.72332879 14.720207,9.02490044 14.7031099,9.35124131 L14.6963213,9.48172659 Z M8.18458613,10.291961 C8.16748902,10.6177912 8.46090556,10.843523 8.83980764,10.7962828 L11.5532192,10.4587064 C11.9321213,10.4114661 12.2531949,10.1098945 12.270292,9.78355358 L12.277332,9.65332366 C12.2944291,9.3274935 12.0010126,9.10150628 11.6221105,9.14874654 L8.90869893,9.48657829 C8.52979685,9.5335632 8.20872322,9.8353902 8.19162611,10.1617311 L8.18458613,10.291961 Z M8.59039101,12.7913541 C8.29320305,12.8283803 8.0606321,12.6506547 8.07420921,12.3940252 C8.08778633,12.1381617 8.34072295,11.8996622 8.63916805,11.8623807 L11.6439847,11.4885442 C11.9409213,11.451518 12.1734922,11.6292436 12.1599151,11.8856178 C12.146338,12.1417366 11.8936528,12.3802361 11.5952077,12.4172623 L8.59039101,12.7913541 Z M23.3694829,15.6384867 C23.6744652,15.8019125 23.8487048,16.0616062 23.9450018,16.337898 C24.1551956,16.9405306 23.7383279,17.5824875 23.1125235,17.6527095 L22.6639758,17.7027586 L22.3079537,17.8728236 C21.9838629,18.027312 21.611498,17.8276262 21.5383324,17.4716644 C21.4259441,16.9259754 21.034722,16.4134824 19.7883932,17.2124813 C20.3561177,17.5873392 20.9258537,18.4177465 20.7267227,19.5995192 C20.1733295,22.8808025 12.9731843,24.2349384 9.73277952,21.6341702 C8.42912505,20.5877345 8.03010873,19.3160776 7.91445182,18.5076306 C7.85184624,18.069956 8.15682847,17.6662432 8.58928472,17.6123638 L9.52082567,17.4964336 C9.92487055,17.4461291 10.2987441,17.7206333 10.3769382,18.1263889 C10.5886406,19.2264487 11.532753,21.1632997 15.5724475,20.9817438 C20.430289,20.7631618 19.1590687,18.6069629 18.7288753,18.0303763 C16.4180001,19.9422026 15.4892248,19.8380187 15.4892248,19.8380187 L15.4892248,19.8377633 C15.2194425,19.8972605 14.9355803,19.9355634 14.6378894,19.9455222 C12.2043173,20.0251923 11.431176,18.3574832 12.3599513,17.291896 C14.158919,15.227624 17.9544769,16.5858455 18.3152762,16.7211825 C18.5546357,16.5827813 18.7934923,16.4369749 19.0238004,16.2855506 C19.0238004,16.2855506 21.3791785,14.5731548 23.3694829,15.6384867 Z M13.3646578,17.4642591 C12.7604762,18.0538687 13.5009318,18.735916 15.5887903,18.052592 C15.6606988,18.0237371 16.2995775,17.7642987 17.1121929,17.3628841 C16.6302054,17.155793 14.5149411,16.3417283 13.3646578,17.4642591 Z M4.02179239,20.5230792 C4.05020376,19.9771349 4.17541493,19.3231764 4.2691976,18.8939283 C4.3292889,18.618658 4.55381416,18.4120776 4.82963073,18.3778604 L5.5947263,18.2826138 C6.04704537,18.2261808 6.41639319,18.6436826 6.31330768,19.0946356 C6.26427921,19.3088766 6.21273646,19.5420137 6.1647137,19.773108 C6.08475958,20.1571586 6.08425673,20.5141418 6.11040524,20.7980941 C6.14309089,21.1560987 5.89015427,21.4750344 5.53890927,21.5197211 L4.73735664,21.6216069 C4.33205461,21.6731881 3.97955248,21.3407188 4.00092386,20.9265366 C4.00720956,20.80601 4.01399812,20.6714391 4.02179239,20.5230792 Z"/>
  </g>
</svg>
