<?xml version="1.0" encoding="UTF-8"?>
<svg width="116px" height="58px" viewBox="0 0 116 58" version="1.1" xmlns="http://www.w3.org/2000/svg" xmlns:xlink="http://www.w3.org/1999/xlink">
    <!-- Generator: Sketch 48.1 (47250) - http://www.bohemiancoding.com/sketch -->
    <title>中奖结果 title</title>
    <desc>Created with Sketch.</desc>
    <defs></defs>
    <g id="3.-已中奖" stroke="none" stroke-width="1" fill="none" fill-rule="evenodd" transform="translate(-129.000000, -72.000000)">
        <g id="中奖结果-title" transform="translate(129.000000, 72.000000)" fill="#FFB2B9">
            <path d="M22.2698184,0 C23.4481216,0.670340134 24.6411356,1.35524261 25.8488964,2.05472796 C26.2318449,2.46276109 26.5264163,2.76878134 26.7326193,2.97279791 C26.9388224,3.17681447 27.0713795,3.45368994 27.1302946,3.80343262 C27.1892098,4.15317529 27.1818455,4.39361978 27.1082016,4.52477328 C27.0345576,4.65592679 26.9388219,4.88179888 26.8209916,5.20239634 C26.5558734,5.28983201 26.312852,5.39183876 26.0919202,5.50841965 C25.8709883,5.62500054 25.3996741,5.55942477 24.6779634,5.31169038 C23.9562528,5.06395598 23.4775743,4.86722867 23.2419137,4.72150256 L23.1977275,4.54663209 L21.3860955,4.76522017 L21.1651647,4.54663209 L19.1767881,5.07124349 L19.1326019,6.25161913 C22.6380538,5.93102167 25.3702033,5.77801154 27.3291323,5.79258416 C29.2880613,5.80715677 31.7845537,6.04760125 34.8186843,6.51392482 C34.9659722,6.39734393 35.0985293,6.28076479 35.2163597,6.16418389 C35.33419,6.047603 35.5772114,5.98931343 35.9454311,5.98931343 C36.3136508,5.98931343 36.6082222,6.11317877 36.829154,6.36091317 C37.0500859,6.60864756 37.2931073,6.80537487 37.5582255,6.95110099 C37.8233437,7.0968271 38.0516365,7.27169582 38.2431108,7.47571238 C38.434585,7.67972894 38.7512493,7.9857492 39.1931129,8.39378232 C39.2225705,8.80181545 39.2520277,9.10054951 39.2814852,9.28999346 C39.3109428,9.47943741 39.2667571,9.63244753 39.1489268,9.74902843 C39.0310965,9.86560932 38.8985394,10.0696228 38.7512515,10.3610751 C38.1915575,10.5068012 37.4993147,10.7035285 36.6745025,10.9512629 C35.8496903,11.1989973 35.2752761,11.3520074 34.9512428,11.4102978 L34.9512428,11.1042745 C34.1853457,11.3082911 33.596203,11.4613012 33.1837969,11.5633095 C32.7713908,11.6653178 32.5430979,11.709035 32.4989116,11.6944624 C32.4547252,11.6798897 32.3737181,11.6580311 32.2558878,11.6288859 C31.9318544,11.8329025 31.5783688,11.9349092 31.1954202,11.9349092 L33.5814722,10.8856865 C33.4930995,10.8565412 33.404728,10.812824 33.3163553,10.7545336 C33.2279826,10.6962432 33.0733326,10.7253879 32.8524008,10.8419688 C32.6314689,10.9585497 32.270619,11.1042737 31.7698401,11.279145 L31.6372817,11.1917098 L31.5489094,11.3665802 C30.9303002,11.5705968 30.4958075,11.7163207 30.245418,11.8037564 C29.9950286,11.8911921 29.7888287,11.927623 29.626812,11.9130504 C29.4647953,11.8984778 29.302781,11.9567674 29.1407644,12.0879209 C28.9787477,12.2190744 28.7209977,12.3502259 28.3675068,12.4813794 C28.0140158,12.6125329 27.7047159,12.7436845 27.4395977,12.874838 C27.1744795,13.0059915 26.7915367,13.2172912 26.2907578,13.5087434 L26.644247,13.2464377 L26.6884332,13.0278496 C25.9519937,13.4067375 25.1713796,13.6981854 24.3465673,13.902202 C24.4938552,13.8147663 25.834155,13.1225776 28.3675068,11.8256152 C30.9008586,10.5286528 32.4326297,9.69802636 32.9628661,9.33371107 C33.4931026,8.96939578 34.0675167,8.55408258 34.6861259,8.08775901 L34.6419397,7.86917093 L34.111706,7.7817357 L34.3326367,7.69430046 C33.9496882,7.54857435 33.6403882,7.46842618 33.4047276,7.45385357 C33.169067,7.43928096 32.8965885,7.38099139 32.5872839,7.27898311 C32.2779793,7.17697483 31.8213937,7.13325765 31.2175133,7.14783026 C30.6136329,7.16240287 30.149683,7.16240287 29.8256496,7.14783026 C29.5016163,7.13325765 29.1407663,7.12597145 28.743089,7.12597145 L26.7326193,7.12597145 L26.4675024,7.38827715 L26.644247,7.16968907 C26.2907561,7.14054384 25.9814561,7.18426102 25.7163379,7.30084192 L26.1140132,7.34455953 L25.6279656,7.43199477 L25.7163379,7.30084192 L25.0535457,7.30084192 L25.0093596,7.43199477 L25.2302903,7.43199477 C25.1050961,7.5048576 23.1977465,7.85459504 19.3977188,8.52493517 L19.2209742,9.61787558 C19.7806682,9.44300424 20.2298896,9.29728031 20.5686517,9.18069942 C20.9074139,9.06411852 21.3345424,8.96211177 21.85005,8.8746761 C22.3655576,8.78724043 22.9031504,8.75809565 23.4628444,8.78724087 C24.0225384,8.81638609 24.4570312,8.95482383 24.7663357,9.20255822 C25.0756403,9.45029262 25.480676,9.76359907 25.9814548,10.142487 L24.3907535,11.3228626 L24.6116842,10.710816 C24.4349388,10.710816 24.2581959,10.7326746 24.0814505,10.7763924 C23.904705,10.8201102 23.5438551,10.7836793 22.9988898,10.6670984 C22.4539246,10.5505175 21.9310604,10.4630831 21.4302816,10.4047927 C20.9295028,10.3465022 20.54656,10.3610746 20.2814418,10.4485103 C20.0163235,10.535946 19.692295,10.6088079 19.3093465,10.6670984 L19.2209742,12.4595206 C20.1930743,12.1972136 20.936867,11.9859139 21.4523747,11.8256152 C21.9678823,11.6653165 22.5202036,11.5633097 23.1093552,11.5195919 C23.6985068,11.4758741 24.1550924,11.548736 24.4791258,11.73818 C24.8031592,11.9276239 25.2008305,12.1243512 25.6721518,12.3283678 C25.4659487,12.5032391 25.318663,12.6271045 25.2302903,12.6999675 C25.1419176,12.7728306 25.0093604,12.7946892 24.832615,12.7655439 C24.6558695,12.7363987 24.4938552,12.8092607 24.3465673,12.984132 C24.1992794,13.1590034 23.9562581,13.3411583 23.6174959,13.5306022 C23.2787337,13.7200462 22.8221481,13.8074805 22.2477253,13.7929079 C21.6733025,13.7783353 21.1946241,13.7929077 20.8116755,13.8366255 C20.428727,13.8803434 20.1415199,13.8511986 19.9500457,13.7491903 C19.7585714,13.647182 19.4860929,13.5233167 19.1326019,13.3775906 L18.7791127,17.9679403 L18.4256236,17.7930698 C18.2194205,17.9096507 18.0132205,18.0116575 17.8070175,18.0990931 C17.8953902,18.1865288 18.4624401,18.4342595 19.5081842,18.8422926 C20.5539282,19.2503257 21.2682638,19.6219218 21.6512123,19.9570918 C22.0341609,20.2922619 22.5202036,20.7367199 23.1093552,21.2904791 C23.0798976,21.7859479 23.0725333,22.1356853 23.0872621,22.3397019 C23.1019909,22.5437185 23.0504409,22.7040148 22.9326106,22.8205957 C22.8147803,22.9371766 22.6674946,23.1120453 22.4907491,23.3452071 C22.2845461,23.3452071 22.1151675,23.3306347 21.9826084,23.3014895 C21.8500493,23.2723442 21.6217565,23.2723442 21.2977232,23.3014895 C20.9736898,23.3306347 20.5318327,23.1994832 19.9721387,22.9080309 C19.4124447,22.6165787 18.8601234,22.4854272 18.3151582,22.5145724 C17.770193,22.5437176 17.3357002,22.6092934 17.0116668,22.7113017 C16.6876335,22.8133099 16.260505,22.9226029 15.7302686,23.0391838 L13.5651473,25.5310879 L14.0070088,25.3562174 L14.3163118,25.0064765 C14.7287179,25.064767 15.0306536,25.1011979 15.2221279,25.1157705 C15.4136021,25.1303432 15.6050735,25.1959189 15.7965478,25.3124998 C15.988022,25.4290807 16.2752291,25.6330942 16.6581777,25.9245464 L16.3046885,26.2742874 L16.3930608,26.4491578 L16.0837577,26.7114635 L15.2884071,27.1049221 L14.9349179,27.8044039 L14.0953811,28.1978625 L13.8302642,29.6842614 C14.2426703,29.5093901 14.883363,29.3345214 15.7523616,29.15965 C16.6213602,28.9847787 17.1884101,28.80991 17.4535283,28.6350387 L17.5860868,28.7224739 C17.7333746,28.6933287 17.8512032,28.6714701 17.9395759,28.6568975 C18.0279487,28.6423249 18.2046915,28.7297592 18.4698097,28.9192032 C18.7349279,29.1086471 18.970585,29.3053744 19.1767881,29.509391 L19.2651604,29.8154143 C17.3504177,31.0686589 15.4504324,32.3364571 13.5651473,33.6188469 L13.4325889,34.4494816 C13.9628253,34.0705937 14.5372395,33.7135701 15.1558486,33.3784 C15.7744578,33.04323 16.2163149,32.8246441 16.4814331,32.7226358 C16.7465513,32.6206275 17.0705798,32.5113345 17.4535283,32.3947537 L16.9232945,32.919365 L15.4651517,33.9248702 C15.8186426,34.420339 16.216314,34.8575108 16.6581777,35.2363987 L16.3930608,34.5806345 L16.5698054,34.6680697 L16.3930608,34.2746112 L17.7186452,35.2801163 L17.9174829,35.2145399 C17.9616692,35.1999673 18.0868621,35.2218259 18.2930651,35.2801163 C18.4992682,35.3384068 18.8232967,35.3966963 19.2651604,35.4549868 L19.5744634,33.4439764 L19.6186495,35.2801163 C19.9426829,31.7243991 20.2593471,29.5239677 20.5686517,28.6787563 C20.8779563,27.8335448 21.076792,27.0029184 21.1651647,26.1868521 C21.2535374,25.3707859 21.2461732,24.8753245 21.1430716,24.7004532 C21.0399701,24.5255819 20.9295058,24.3361407 20.8116755,24.1321242 C21.0767937,24.1321242 21.2682651,24.124838 21.3860955,24.1102654 C21.5039258,24.0956928 21.6217543,24.1321237 21.7395846,24.2195594 C21.8574149,24.3069951 22.0783435,24.3944294 22.4023768,24.4818651 L22.8884245,27.4983806 C24.0667276,26.8863309 25.0019917,26.4491592 25.6942448,26.1868521 C26.386498,25.9245451 27.1376549,25.6695283 27.9477384,25.4217939 C28.7578218,25.1740595 29.2880503,25.0356217 29.5384397,25.0064765 C29.7888291,24.9773313 29.9655719,24.9991899 30.0686735,25.0720529 C30.171775,25.144916 30.3411535,25.2250641 30.5768142,25.3124998 L30.6651865,25.8371112 L30.2675111,26.1868521 L30.3558834,26.4054402 L30.1791388,26.5803107 L30.0465804,26.8426164 L29.9140219,26.9300516 L28.8977405,28.1104273 L26.1140132,30.2963081 L26.8651778,29.3782381 L26.4675024,29.6405438 C27.056654,28.9993489 27.6163396,28.3144464 28.146576,27.5858159 C27.9992881,27.6149611 27.815181,27.6659645 27.5942492,27.7388275 C27.3733173,27.8116906 27.2333959,27.8918387 27.1744808,27.9792744 L27.0861085,27.8481216 C26.8504479,28.0812833 26.5558765,28.2561521 26.2023855,28.372733 L26.4675024,28.5038858 L26.2023855,28.6350387 L26.1140132,28.3290153 L26.025641,28.5038858 L25.8047102,28.5476034 L26.0698271,28.7224739 L24.7000565,29.2908029 L25.0977319,28.941062 L23.0651691,29.7716967 L22.8884245,34.2308935 C23.3302882,33.9977318 24.051988,33.5387014 25.0535457,32.8537886 C26.0551034,32.1688759 26.7326175,31.7681351 27.0861085,31.6515542 L27.1302946,31.4329661 L27.4837838,31.3892485 L27.5721561,31.0832252 L27.837273,31.0832252 L28.146576,30.7334842 C28.6768125,30.7334842 29.2070409,30.7043394 29.7372774,30.646049 L29.2954159,31.0395075 L29.4721605,31.0832252 C29.3837877,31.2289513 29.3027806,31.367389 29.2291367,31.4985425 C29.1554927,31.629696 29.0744856,31.7899923 28.9861128,31.9794363 C28.8977401,32.1688802 28.8093687,32.343749 28.720996,32.5040477 C28.6326232,32.6643464 28.5884375,32.8756461 28.5884375,33.1379531 L28.9419267,33.0505179 L28.6326237,33.5751293 L28.4558791,33.5751293 C28.0729305,33.924872 27.8151806,34.1653165 27.6826215,34.29647 C27.5500624,34.4276235 27.4248695,34.5150578 27.3070392,34.5587757 C27.1892089,34.6024935 27.0271947,34.6534969 26.8209916,34.7117873 L26.644247,34.9303754 L25.9814548,35.3238339 L25.9814548,35.5861396 C25.8930821,35.5569944 25.6942464,35.6371426 25.3849418,35.8265865 C25.0756372,36.0160305 24.7442444,36.2127578 24.3907535,36.4167743 L25.2302903,36.7227977 L25.141918,36.5479272 L25.3628487,36.4167743 L26.4675024,37.028821 L25.7605241,36.4167743 C26.673709,36.9705336 27.3438589,37.3494158 27.7709938,37.5534324 C28.1981287,37.7574489 28.5958,37.9104591 28.9640198,38.0124673 C29.3322395,38.1144756 29.8698323,38.2820581 30.5768142,38.5152199 C30.6651869,38.136332 30.746194,37.8084532 30.819838,37.5315736 C30.8934819,37.2546939 30.974489,36.3002022 31.0628618,34.6680697 C31.1512345,33.0359372 31.3353416,31.0832365 31.6151886,28.8099091 C31.8950356,26.5365817 32.086507,24.6786016 32.1896085,23.235913 C32.2927101,21.7932245 32.3000744,20.9771705 32.2117016,20.7877265 C32.1233289,20.5982826 32.0202289,20.3724105 31.9023986,20.1101035 L30.9744895,20.1101035 C30.7093713,20.1101035 30.1938714,20.2121102 29.4279743,20.4161268 C28.6620773,20.6201434 28.0213845,20.8460155 27.5058769,21.0937498 C26.9903693,21.3414842 26.3054908,21.6547907 25.451221,22.0336786 L25.2744764,22.55829 C25.1271885,22.5874352 24.9209886,22.5582904 24.6558704,22.4708548 C24.3907522,22.3834191 24.1771879,22.2886985 24.0151712,22.1866903 C23.8531545,22.084682 23.580676,21.9462442 23.1977275,21.7713729 C23.4039306,21.5673563 23.492302,21.2759085 23.4628444,20.8970206 C23.8163353,20.5472779 24.1477281,20.2412576 24.4570327,19.9789506 C24.7663373,19.7166436 25.2965658,19.3304752 26.047734,18.8204338 C26.7989023,18.3103924 27.2849451,18.0408031 27.5058769,18.0116579 C27.7268087,17.9825127 27.8961873,17.8950783 28.0140176,17.7493522 C28.1318479,17.6036261 28.4926978,17.4943331 29.0965782,17.4214701 C29.7004586,17.348607 30.1349514,17.1518797 30.4000696,16.8312823 C30.6651878,16.5106848 31.0186734,16.3722471 31.4605371,16.4159649 C31.9024008,16.4596827 32.4915435,16.6636962 33.227983,17.0280115 C33.9644225,17.3923268 34.5020152,17.6837747 34.8407774,17.9023639 C35.1795396,18.120953 35.5845752,18.4051147 36.0558965,18.7548574 C36.0558965,18.9297287 36.0632607,19.0681665 36.0779895,19.1701747 C36.0927183,19.272183 36.1737255,19.3960484 36.3210133,19.5417745 C36.4683012,19.6875006 36.7186869,19.9643761 37.0721779,20.3724092 L36.4093856,21.5090672 L35.923338,21.989961 C35.8938804,22.1939775 35.8423304,22.3834187 35.7686865,22.55829 C35.6950426,22.7331613 35.3562855,23.8479494 34.7524051,25.9026876 C34.1485247,27.9574259 33.7582177,29.5822477 33.5814722,30.7772019 L33.8024029,30.8209195 C33.7729454,31.3163883 33.7213954,31.6515533 33.6477514,31.8264246 C33.5741075,32.001296 33.5225575,32.2125957 33.4930999,32.4603301 C33.4636423,32.7080645 33.4489138,32.9630814 33.4489138,33.2253884 L33.6256583,32.7882122 C33.5667432,35.761025 33.588836,37.3494158 33.6919376,37.5534324 C33.7950391,37.7574489 33.9349605,37.9760348 34.111706,38.2091966 L33.7582168,39.2584194 L34.2442644,38.7775256 L34.2884506,38.9086785 L33.5814722,39.5207251 C33.4636419,39.9579035 33.4194562,40.2857823 33.4489138,40.5043715 C33.4783713,40.7229606 33.4857356,41.1892772 33.4710068,41.9033352 C33.456278,42.6173932 33.4194566,43.1055683 33.3605415,43.3678753 C33.3016263,43.6301823 33.2574406,43.8196235 33.227983,43.9362043 C33.1985254,44.0527852 33.1837969,44.2567987 33.1837969,44.548251 C33.0954241,44.6065414 33.014417,44.6356862 32.9407731,44.6356862 C32.8671291,44.6356862 32.7640291,44.7085482 32.63147,44.8542743 C32.4989109,45.0000004 32.2043395,45.0364314 31.7477471,44.9635683 C31.2911546,44.8907053 30.8787547,44.6866918 30.5105349,44.3515217 C30.1423152,44.0163516 29.877201,43.8341967 29.7151843,43.8050515 C29.5531676,43.7759063 29.3837891,43.7030443 29.2070436,43.5864634 L29.6930912,43.411593 L28.6768098,42.8869816 L29.2070436,42.7121111 C28.8535526,42.5080945 28.6620812,42.1875019 28.6326237,41.7503235 L28.8977405,41.6628883 L28.6326237,41.4005826 L28.7651821,41.2694298 L29.2954159,41.2257121 L28.6326237,40.6136655 L28.6326237,40.3732186 C28.6326237,40.3003556 28.5958022,40.242066 28.5221583,40.1983482 C28.4485143,40.1546303 28.3380501,40.0599098 28.1907622,39.9141837 L27.6826215,39.4114311 C27.5500624,39.2802776 27.2481267,39.0762641 26.7768055,38.7993844 C26.3054842,38.5225048 25.5543272,38.0051849 24.5233119,37.2474091 L24.3023812,37.028821 L25.5616864,37.6190088 C25.8415334,37.7501623 26.0109119,37.8157381 26.0698271,37.8157381 L26.2023855,37.8157381 L25.5837795,37.0725386 C25.2597461,36.868522 25.024089,36.7300843 24.8768011,36.6572212 C24.7295132,36.5843582 24.5969561,36.5552134 24.4791258,36.569786 C24.3612955,36.5843586 24.1992812,36.5916448 23.9930782,36.5916448 L23.8163336,36.8102329 L22.755866,37.3348443 C22.5202054,38.9086863 22.4023768,40.4679324 22.4023768,42.0126292 L21.7837708,41.8377588 L21.2977232,42.9744168 C21.1209777,42.8578359 20.9589634,42.7412568 20.8116755,42.6246759 L20.5907448,43.0181344 L20.5023725,42.6683935 L19.9279526,42.1874997 C19.6628344,41.4297239 19.4860915,40.9124039 19.3977188,40.6355243 C19.3093461,40.3586447 19.1988818,40.147345 19.0663227,40.0016189 C18.9337636,39.8558928 18.7791136,39.6664517 18.6023681,39.4332899 L18.3372513,39.2584194 L18.9558573,38.8212432 L18.9558573,38.165479 C18.9558573,38.0197529 18.9926788,37.8521704 19.0663227,37.6627264 C19.1399666,37.4732825 19.2209738,37.1454036 19.3093465,36.67908 L19.0442296,36.3730567 C18.7201963,36.5187828 18.2415178,36.7009378 17.6081798,36.9195269 C16.9748419,37.1381161 16.4961634,37.2619815 16.17213,37.2911267 C15.8480967,37.3202719 15.5093396,37.4587096 15.1558486,37.706444 C14.8023577,37.9541784 14.1543007,38.3986364 13.2116581,39.0398313 C13.1822006,40.0599141 13.1085577,41.0508369 12.9907274,42.0126292 L12.5488659,41.8814764 L12.0186322,42.2312173 L11.7535153,42.7558287 C11.6062274,42.668393 11.5031274,42.5736725 11.4442122,42.4716642 C11.3852971,42.3696559 11.3042899,42.1947872 11.2011884,41.9470528 C11.0980869,41.6993184 10.9139798,41.240288 10.6488616,40.5699479 C6.67208841,42.8141301 4.57326738,43.9070596 4.35233554,43.8487691 C4.1314037,43.7904787 3.87365375,43.7176167 3.57907796,43.630181 C3.75582343,43.4844549 3.84419484,43.2950138 3.84419484,43.061852 L10.7372339,38.7775256 L11.0465369,37.0725386 L7.4232728,39.3895723 L7.11396977,38.7775256 C7.23180008,38.5735091 7.34226435,38.3257784 7.44536587,38.0343262 C7.5484674,37.7428739 7.6442031,37.524288 7.73257583,37.3785619 L7.4232728,37.3348443 C7.33490006,37.2765538 7.27598579,37.1964057 7.24652821,37.0943974 C7.21707063,36.9923891 7.01823496,36.6572241 6.65001522,36.0888922 C6.28179548,35.5205604 6.20078835,34.9959542 6.40699141,34.515058 C6.61319446,34.0341619 6.66474445,33.7135692 6.56164292,33.5532705 C6.4585414,33.3929718 6.37753427,33.2253892 6.31861911,33.0505179 C6.25970395,32.8756466 6.25233967,32.6934916 6.29652604,32.5040477 C6.34071241,32.3146037 6.37753383,32.0304421 6.40699141,31.6515542 C6.43644898,31.2726663 6.40699185,31.0103632 6.31861911,30.8646371 C6.23024637,30.718911 6.14187496,30.5148975 6.05350222,30.2525905 L6.84885288,29.9028495 L6.76048059,29.7279791 L7.26862128,29.7279791 C7.37172281,29.7279791 7.48955136,29.6769757 7.62211047,29.5749674 C7.75466957,29.4729591 7.93877668,29.3053766 8.17443731,29.0722148 L7.82094813,28.591321 L7.99769272,28.2852977 C7.93877756,28.0812812 7.90932042,27.928271 7.90932042,27.8262628 C7.90932042,27.7242545 7.95350613,27.4400928 8.04187887,26.9737692 C8.1302516,26.5074457 8.20389445,25.9245499 8.26280961,25.2250646 C7.34962466,25.4290811 6.58373909,25.5529465 5.96512993,25.5966643 C5.34652077,25.6403822 4.78683516,25.6840993 4.28605632,25.7278172 C3.78527748,25.771535 3.35814899,25.7861074 3.00465804,25.7715348 C2.65116709,25.7569622 2.37132429,25.8079656 2.16512123,25.9245464 L1.54651517,25.5310879 C0.810075691,24.9481834 0.29457579,24.190419 0,23.2577719 C0.206203053,23.3160623 0.390310161,23.3524933 0.552326845,23.3670659 C0.71434353,23.3816385 1.28139342,23.3379213 2.25349353,23.235913 C3.22559364,23.1339048 5.37596465,22.58744 8.70467108,21.5965024 C8.79304382,20.9553075 8.85195809,20.3869842 8.88141567,19.8915154 C8.91087325,19.3960466 8.91087325,19.075454 8.88141567,18.9297278 C8.85195809,18.7840017 8.8961438,18.6237054 9.01397412,18.4488341 L10.0302555,18.7111398 L10.2511862,21.1156087 L13.6093335,20.3724092 L13.3442166,20.0663859 C13.4325893,19.9206597 13.4915036,19.745791 13.5209612,19.5417745 L14.5372426,19.1920335 L14.5372426,18.9734455 C14.3015819,18.7985741 14.1322034,18.6528502 14.0291019,18.5362693 C13.9260003,18.4196884 13.7639861,18.3832574 13.5430542,18.4269753 C13.3221224,18.4706931 12.976001,18.5216965 12.5046798,18.5799869 L13.3442166,18.0553755 L13.1232858,18.0116579 L13.476775,17.4433289 C13.7713508,17.4141837 13.9775508,17.3850389 14.0953811,17.3558937 C14.2132114,17.3267484 14.3531328,17.348607 14.5151495,17.4214701 C14.6771662,17.4943331 14.9496447,17.5744813 15.3325932,17.661917 L15.9953854,18.4051164 L16.2163162,18.2739636 C15.8922828,17.9242209 15.7008114,17.5161939 15.6418963,17.0498703 L15.862827,17.093588 L15.8186408,16.8749999 L16.2163162,16.9187175 C16.0984859,16.6564105 16.0101145,16.3503902 15.9511993,16.0006476 L16.3046885,16.0443652 L15.8186408,15.5197538 L16.0395716,15.607189 C15.9806564,15.4906081 16.0101136,15.374029 16.1279439,15.2574481 L15.7744547,14.9951424 L15.8186408,15.2137305 L14.4046841,16.2192356 L14.4046841,16.4815413 C14.345769,16.5106866 14.2132119,16.6054071 14.0070088,16.7657058 C13.8008057,16.9260046 13.1895701,17.2465972 12.1732837,17.7274934 C11.1569972,18.2083896 10.5236687,18.4196893 10.2732793,18.3613988 C10.0228899,18.3031084 9.75041138,18.2302464 9.45583559,18.1428108 L9.23490485,17.7056346 L9.72095248,17.0498703 C10.8697981,16.3795302 11.7166908,15.9059274 12.261656,15.6290478 C12.8066212,15.3521682 13.3000282,15.2137305 13.7418919,15.2137305 C14.1837556,15.2137305 14.5666984,15.1627271 14.8907317,15.0607188 C15.2147651,14.9587105 15.4504222,14.827559 15.5977101,14.6672603 C15.744998,14.5069615 16.0101122,14.2956618 16.3930608,14.0333548 L15.8186408,14.9514248 L16.8791084,15.3011657 C16.9969387,14.6308256 17.107403,14.0989332 17.2105045,13.7054727 C17.313606,13.3120122 17.3946132,11.7454799 17.4535283,9.00582895 C16.21631,9.32642641 15.2000388,9.5522985 14.4046841,9.683452 C13.6093295,9.81460551 12.6225154,10.05505 11.4442122,10.4047927 C10.2659091,10.7545354 9.53684493,10.9949798 9.25699793,11.1261333 C8.97715093,11.2572868 8.63102956,11.4248694 8.21862346,11.6288859 C8.24808104,11.9786286 8.27753817,12.2627903 8.30699575,12.4813794 C8.33645333,12.6999686 8.32908905,13.0788508 8.28490268,13.6180375 C8.24071631,14.1572241 8.29963059,14.5652511 8.46164727,14.8421307 C8.62366395,15.1190103 8.63839252,15.4323168 8.50583342,15.7820595 C8.37327431,16.1318022 8.36591003,16.9332838 8.48374034,18.1865284 C8.60157066,19.439773 8.57211352,20.146534 8.39536805,20.3068328 C8.21862257,20.4671315 8.01242261,20.6784312 7.77676198,20.9407382 L6.00931608,20.9407382 L5.47908231,20.503562 L4.90466239,20.1538211 C4.58062902,19.3086096 4.38179334,18.7257139 4.30814939,18.4051164 C4.23450545,18.084519 4.13876975,17.8586469 4.02093943,17.7274934 C3.90310912,17.5963399 3.75582343,17.414185 3.57907796,17.1810232 C4.25660228,15.8986334 4.75737361,14.5579732 5.08140698,13.1590025 C4.99303424,13.0132764 4.86784141,12.7364009 4.70582472,12.3283678 C4.54380804,11.9203347 4.3744295,11.4977353 4.19768402,11.0605569 L4.68373165,10.6233808 L4.6395455,10.1862046 L5.61164075,9.70531081 L5.74419919,7.43199477 C5.92094467,7.40284954 6.21551604,7.4975701 6.62792214,7.71615927 C7.04032825,7.93474845 7.40854246,8.11690336 7.73257583,8.26262947 L7.90932042,8.56865279 L7.82094813,8.78724087 L9.05816026,8.48121756 L9.279091,8.21891186 L14.8907317,5.07124349 C14.242665,4.77979125 13.7787151,4.56120536 13.4988681,4.41547924 C13.2190211,4.26975313 12.9465426,4.09488441 12.6814244,3.89086785 C12.4163062,3.68685128 12.0186348,3.33711385 11.4883984,2.84164506 C11.4000256,2.1421597 11.3263828,1.65398453 11.2674676,1.37710491 C11.2085525,1.10022529 11.2011882,0.918070379 11.2453746,0.830634709 C11.2895609,0.743199039 11.3411109,0.626619895 11.4000261,0.480893779 L11.8418876,0.480893779 L12.5488659,1.22409326 C12.961272,1.39896459 13.3147577,1.53740233 13.6093335,1.63941061 C13.9039093,1.74141889 14.389952,1.83613945 15.0674763,1.92357512 C15.7450007,2.01101079 16.7244505,1.96000741 18.0058552,1.77056346 C19.2872598,1.58111951 20.1120597,1.40625079 20.4802794,1.24595206 C20.8484992,1.08565334 21.1946205,0.903498423 21.5186539,0.69948186 L21.7395846,0.437176163 L22.2698184,0 Z M16.6724014,5.625 L13.0967742,7.5 L16.8387097,6.68918919 L16.7555556,5.67567568 L16.6724014,5.625 Z M15.0697947,11.2746531 C15.2512228,11.2746531 15.4024106,11.2673485 15.5233627,11.2527393 C15.6443147,11.23813 15.7955025,11.2819572 15.9769306,11.3842221 C16.1583587,11.486487 16.4456155,11.6544912 16.8387097,11.8882396 C16.5968056,12.0927695 16.3397863,12.2388601 16.0676442,12.3265157 C16.0374062,12.4433899 16.014728,12.5383488 15.999609,12.6113952 C15.98449,12.6844416 15.9088961,12.7720959 15.772825,12.8743609 C15.636754,12.9766258 15.4024129,13.2176753 15.0697947,13.5975165 L15.0697947,13.2907232 C14.9790807,13.2615046 14.8808086,13.2322865 14.7749756,13.203068 C14.6691425,13.1738494 14.2987324,13.2030675 13.6637341,13.2907232 C13.0287358,13.3783788 12.5071379,13.5171649 12.0989247,13.7070855 C11.6907115,13.8970061 11.1388761,14.1380555 10.4434018,14.4302411 L10.0805474,15 L9.35483871,14.6055515 C9.35483871,14.2549289 9.38507627,13.9189205 9.4455523,13.5975165 C10.6853109,12.9547083 11.5848783,12.5018275 12.1442815,12.2388605 C12.7036848,11.9758935 13.1648076,11.8005848 13.5276637,11.7129292 C13.8905199,11.6252735 14.4045584,11.4791829 15.0697947,11.2746531 Z M13.0481776,24.375 L9.88940092,25.05 C9.79220731,25.7500035 9.69501515,26.2249987 9.59782153,26.475 C9.50062792,26.7250012 9.43583315,26.9999985 9.40343527,27.3 C9.3710374,27.6000015 9.35483871,27.8749987 9.35483871,28.125 L13.0967742,24.375 L13.0481776,24.375 Z M21.1554968,28.125 C21.0670576,28.6410576 20.9933594,29.0452967 20.9344,29.3377294 C20.8754406,29.630162 20.8312216,30.0602036 20.8017419,30.627867 C20.7722622,31.1955304 20.698564,32.236231 20.5806452,33.75 L21.1554968,28.1766055 L21.1554968,28.125 Z M12.9546754,30 L9.49693753,32.8253425 L9.35483871,33.75 L12.6231115,31.6438356 L13.0967742,30.1027397 L12.9546754,30 Z M14.9677419,30 C14.819755,30.0290699 14.692911,30.0436047 14.5872061,30.0436047 C14.4815012,30.0436047 14.3388017,30.1235457 14.1591033,30.2834302 C13.979405,30.4433148 13.6570098,30.6976727 13.1919081,31.0465116 L13.0967742,31.875 L14.9677419,30 Z M13.0967742,33.75 C12.8508242,33.8734574 12.6487968,33.973765 12.4906861,34.0509259 C12.3325753,34.1280868 12.04271,34.3132701 11.6210813,34.6064815 C11.1994527,34.8996928 10.5494516,35.4320949 9.67105861,36.2037037 L9.35483871,37.5 L12.7805543,34.9074074 L13.0967742,33.75 Z M13.3306452,35.2910959 L13.0967742,37.5 L16.8387097,35.8047945 L15.9032258,33.75 L13.3306452,35.2910959 Z M9.35483871,37.5 L11.0322581,36.4402174 L11.2258065,35.625 L9.35483871,37.5 Z M63.4776677,9.375 C63.5972321,9.43130659 64.0157013,9.60726204 64.7330876,9.90287162 C65.450474,10.1984812 65.9586151,10.3885131 66.2575261,10.472973 C66.5564371,10.5574329 66.9151249,10.7685794 67.3336003,11.1064189 C67.4830558,11.3597986 67.610091,11.5427922 67.7147099,11.6554054 C67.8193287,11.7680186 67.8342741,11.8947065 67.7595463,12.035473 C67.6848186,12.1762394 67.6175646,12.4296153 67.5577824,12.7956081 C67.3485447,12.9645279 67.1916188,13.0841776 67.0869999,13.1545608 C66.9823811,13.224944 66.7507285,13.2530969 66.3920354,13.2390203 C66.0333422,13.2249436 65.6522364,13.3727462 65.2487065,13.6824324 C64.8451767,13.9921187 64.4790162,14.1751123 64.1502141,14.2314189 C63.821412,14.2877255 63.5000875,14.3862606 63.186231,14.527027 C62.8723744,14.6677935 62.5659953,14.8578254 62.2670843,15.0971284 C61.9681733,15.3364314 61.4749775,15.7094569 60.7874823,16.2162162 L60.4736273,20.3969595 L61.0565008,20.1858108 C61.0266097,19.8761246 61.0041917,19.6509016 60.9892462,19.5101351 C60.9743006,19.3693687 61.0041913,19.2426807 61.078919,19.1300676 C61.1536468,19.0174544 61.280682,18.8203843 61.4600286,18.5388514 C61.6094841,18.5388514 61.7589374,18.5036603 61.9083929,18.433277 C62.0578484,18.3628938 62.154993,18.2995498 62.1998296,18.2432432 C62.2446663,18.1869367 62.3418109,18.1587838 62.4912664,18.1587838 L62.5361028,17.8209459 C62.7453405,17.9617124 62.9246844,18.0884003 63.0741399,18.2010135 C63.2235954,18.3136267 63.5748106,18.3980853 64.1277959,18.4543919 C64.6807812,18.5106985 65.5102468,18.6373864 66.6162175,18.8344595 L67.1542546,19.3412162 C67.0047991,19.6227492 67.0346897,19.8620486 67.2439274,20.0591216 L66.4368718,20.3547297 L66.7058903,20.6081081 L66.2575261,20.9459459 L66.4368718,21.1570946 C66.1379608,21.1570946 65.7419097,21.2837825 65.2487065,21.5371622 C64.7555034,21.7905418 64.299671,22.0509559 63.8811956,22.3184122 C63.4627202,22.5858685 63.1189777,22.7618239 62.8499578,22.8462838 L62.7154485,23.1841216 C62.4165375,23.2404282 62.1774123,23.2826575 61.9980657,23.3108108 L61.7738836,23.6908784 L61.5048651,23.6064189 L61.6393743,23.7753378 L61.4600286,23.8597973 L61.4151922,23.7331081 L60.7874823,24.0287162 L60.6978094,24.2820946 L60.4287909,24.4932432 C60.3690087,25.8446014 60.294282,26.7806843 60.2046087,27.3015203 C60.1149354,27.8223562 60.0700995,28.2728022 60.0700995,28.6528716 L60.0700995,30.4898649 C60.518466,30.4335583 60.9518804,30.3702143 61.3703558,30.2998311 C61.7888312,30.2294478 62.7976406,30.1309128 64.3968145,30.004223 C65.9959883,29.8775332 66.9450164,29.7508452 67.2439274,29.6241554 C67.5428384,29.4974656 67.796909,29.4270834 68.0061466,29.4130068 C68.2153843,29.3989301 68.5068182,29.2863186 68.8804569,29.0751689 C69.2540957,28.8640192 69.8294907,28.6739873 70.6066593,28.5050676 C71.3838279,28.3361478 72.0339495,28.3643007 72.5570438,28.589527 C73.080138,28.8147534 73.5135524,29.124435 73.8573001,29.5185811 C74.2010477,29.9127272 74.6344622,30.2153706 75.1575564,30.4265203 C75.6806506,30.63767 76.3307723,30.9543898 77.1079409,31.3766892 C77.4965252,31.8271419 77.7730137,32.122747 77.9374147,32.2635135 C78.1018158,32.40428 78.2587417,32.5731972 78.4081972,32.7702703 C78.5576527,32.9673433 78.6099613,33.2207192 78.5651247,33.5304054 C78.520288,33.8400916 78.5053427,34.0653146 78.5202883,34.2060811 C78.5352338,34.3468476 78.5427065,34.5579941 78.5427065,34.839527 C78.0345578,35.0929067 77.541362,35.3322061 77.0631044,35.5574324 L76.6147402,36.0219595 L75.3593203,36.6976351 L75.3593203,36.3597973 C74.7316072,36.0219578 74.1188489,35.6700469 73.5210269,35.3040541 C72.9232049,34.9380612 72.5196811,34.7409911 72.3104434,34.7128378 L71.7724063,34.1638514 C71.3539309,34.1638514 71.0624971,34.1427367 70.898096,34.1005068 C70.733695,34.0582768 70.5692964,34.0090093 70.4048954,33.9527027 C70.2404943,33.8963961 70.1134591,33.8260139 70.0237858,33.7415541 C69.8743303,33.7978606 69.7398223,33.8471282 69.6202579,33.8893581 C69.5006935,33.931588 69.2092597,34.0160467 68.7459477,34.1427365 C68.2826356,34.2694263 67.9090025,34.3257321 67.625037,34.3116554 C67.3410716,34.2975788 66.7880946,34.5016871 65.9660893,34.9239865 C65.1440841,35.3462859 64.4341811,35.7967318 63.8363591,36.2753378 C64.7629832,35.4025857 65.6298121,34.4453881 66.4368718,33.4037162 L66.1230168,33.5304054 L66.1230168,33.277027 L66.7058903,33.1503378 C66.1379594,33.1503378 65.6895997,33.1362614 65.3607976,33.1081081 C65.0319955,33.0799548 64.7181437,33.1081077 64.4192327,33.1925676 C64.1203217,33.2770274 63.8288878,33.3122185 63.5449224,33.2981419 C63.2609569,33.2840652 62.8275425,33.3262946 62.2446661,33.4248311 C61.6617896,33.5233676 61.1312306,33.6711702 60.652973,33.8682432 C60.1747154,34.0653163 59.8608636,34.121622 59.7114081,34.0371622 C59.5619526,33.9527023 59.4050267,33.9527023 59.2406256,34.0371622 C59.0762246,34.121622 58.8146814,34.2342335 58.4559882,34.375 L58.2318061,34.2483108 C57.9328951,34.360924 57.5517893,34.4735355 57.0884772,34.5861486 C56.6251652,34.6987618 56.2664774,34.7480293 56.012403,34.7339527 C55.7583287,34.7198761 55.5789848,34.7691436 55.4743659,34.8817568 C55.3697471,34.9943699 55.1829305,35.0436375 54.9139106,35.0295608 C54.6448907,35.0154842 53.1503582,35.3251658 50.4302681,35.9586149 C47.7101781,36.592064 46.2231182,37.0002806 45.9690439,37.183277 C45.7149695,37.3662734 45.5132076,37.4718467 45.3637522,37.5 L44.7808786,36.7398649 L44.3325144,36.402027 L43.7048044,35.7263514 L43.0322581,35.2618243 C43.2414958,34.9239848 43.3760037,34.5579975 43.4357859,34.1638514 L44.0186594,33.8682432 C44.198006,33.8963965 44.3250413,33.9245494 44.399769,33.9527027 C44.4744968,33.980856 44.713622,34.0230853 45.1171518,34.0793919 C45.5206817,34.1356985 47.4710466,33.6852525 50.9683052,32.7280405 C54.4655639,31.7708285 56.2590029,31.2781533 56.3486762,31.25 L55.9899848,31.0388514 L55.586457,31.2922297 L55.8554755,30.785473 L55.6761298,30.5320946 C55.8255853,30.3913281 55.9526206,30.2927931 56.0572395,30.2364865 C56.1618583,30.1801799 56.2963662,30.0323773 56.4607673,29.7930743 C56.6251683,29.5537713 56.7447309,29.187784 56.8194587,28.6951014 L57.2005683,26.1824324 C57.0810039,26.2950456 56.9689139,26.3795042 56.8642951,26.4358108 C56.7596763,26.4921174 56.5728597,26.5624996 56.3038398,26.6469595 C56.0348199,26.7314193 55.7134954,26.914413 55.3398567,27.1959459 C54.9662179,27.4774789 54.7046747,27.6463961 54.5552192,27.7027027 L54.7794013,27.7449324 L54.2413643,28.1672297 C54.151691,28.4206094 54.0022377,28.6458323 53.793,28.8429054 L52.5824165,29.5608108 C52.1938322,29.391891 51.8351444,29.2792796 51.5063423,29.222973 C51.2672135,28.94144 51.0654517,28.7302935 50.9010506,28.589527 C50.7366496,28.4487606 50.6469776,28.2094611 50.6320321,27.8716216 C50.6170865,27.5337821 50.5946685,27.3155973 50.5647774,27.2170608 C50.5348863,27.1185243 50.4900503,26.9847981 50.4302681,26.8158784 L49.9370675,26.3935811 C49.8772853,26.2246613 49.839922,26.1050116 49.8249764,26.0346284 C49.8100309,25.9642451 49.8623395,25.7812515 49.9819039,25.4856419 C50.1014683,25.1900323 50.2135582,24.9929622 50.3181771,24.8944257 C50.4227959,24.7958891 50.4676319,24.7114305 50.4526864,24.6410473 C50.4377408,24.5706641 50.4452135,24.5213965 50.4751046,24.4932432 L50.9683052,24.1131757 L51.2373238,23.7331081 C51.6856903,23.7612614 52.0070148,23.7823761 52.2013069,23.7964527 C52.3955991,23.8105293 52.5375797,23.8034911 52.627253,23.7753378 C52.7169263,23.7471845 52.7916529,23.7049552 52.8514351,23.6486486 C56.5280403,19.566421 58.35137,17.3493824 58.3214789,16.9974662 C58.2915878,16.64555 58.3065331,16.2866009 58.3663153,15.9206081 C57.5592556,16.1458345 56.9016613,16.3288281 56.3935126,16.4695946 C55.885364,16.6103611 55.2576603,16.6877815 54.5103828,16.7018581 C53.7631053,16.7159348 53.2101283,16.6455526 52.8514351,16.4907095 C52.4927419,16.3358663 52.0892181,16.1599109 51.6408516,15.9628378 C51.3419406,15.6249983 51.1327061,15.4068136 51.0131417,15.308277 C50.8935773,15.2097405 50.8263233,15.0689761 50.8113778,14.8859797 C50.7964322,14.7029833 50.7067603,14.4918368 50.5423592,14.2525338 C50.3779582,14.0132308 50.2957589,13.7809696 50.2957589,13.5557432 L50.2957589,12.5 L50.833796,12.2466216 C51.1625981,12.471848 51.4166686,12.6478034 51.5960152,12.7744932 C51.7753618,12.9011831 52.059323,12.9926799 52.4479073,13.0489865 C52.8364916,13.1052931 53.4268319,13.0489873 54.218946,12.8800676 C55.0110602,12.7111478 56.3636121,12.3099694 58.2766425,11.6765203 C60.1896728,11.0430712 61.2881543,10.5715106 61.5721197,10.2618243 C61.8560851,9.95213809 62.1176283,9.78322086 62.3567571,9.75506757 C62.5958859,9.72691427 62.9695191,9.60022635 63.4776677,9.375 Z M56.0879121,20.625 C53.6206895,24.1467567 52.3870968,25.9402171 52.3870968,26.0054348 L52.3870968,26.25 L55.8411911,24.048913 L56.1290323,20.673913 L56.0879121,20.625 Z M84.092804,0.0250996467 C84.207941,0.0250996467 84.3014885,0.017779003 84.3734491,0.00313749617 C84.4454098,-0.0115040107 84.6253087,0.0250992074 84.9131514,0.112948249 C85.200994,0.20079729 85.4312646,0.325248232 85.6039702,0.486304807 C85.7766758,0.647361383 86.0501222,0.888942622 86.4243176,1.21105577 C86.683376,1.82599906 86.8704709,2.25059639 86.9856079,2.4848605 C87.100745,2.71912461 87.1583127,2.98266778 87.1583127,3.27549792 C87.1583127,3.56832806 87.2014884,4.05149054 87.2878412,4.72499985 C88.8709757,3.78794341 90.5692217,3.04123776 92.3826303,2.4848605 L93.5483871,3.09980072 L93.3325062,3.67081663 L90.7851117,5.55956157 L90.5260546,5.38386437 L87.1151365,8.06324673 L86.7265509,9.24920286 L87.97866,8.80995985 L88.453598,8.19501963 L89.0364764,8.19501963 C89.1947899,8.19501963 89.3962767,8.13645448 89.6409429,8.01932243 C89.8856092,7.90219037 90.2813868,7.93879359 90.8282878,8.12913318 C91.3751888,8.31947277 91.7062029,8.48052693 91.82134,8.61230049 C91.936477,8.74407405 92.0803962,8.88316628 92.2531017,9.02958135 L92.2531017,9.71040802 C92.2531017,9.84218158 92.1739462,9.97395316 92.0156328,10.1057267 C91.8573193,10.2375003 91.6342446,10.4937228 91.346402,10.874402 L91.6918114,11.4014936 L91.0009926,11.5771908 L87.244665,16.5406368 L86.6833747,17.1116527 C86.5970219,17.3166338 86.5394542,17.4850086 86.51067,17.6167822 C86.4818857,17.7485558 86.1940474,18.0999467 85.6471464,18.6709654 C85.1002454,19.2419842 84.5749405,19.9960105 84.0712159,20.9330669 C83.5674913,21.8701234 83.099754,22.5655845 82.6679901,23.0194712 C82.2362261,23.4733579 81.9267999,23.8393901 81.7397022,24.1175787 C81.5526045,24.3957674 81.3870975,24.608066 81.2431762,24.7544811 C81.0992549,24.9008962 80.8833761,25.1790806 80.5955335,25.5890428 L80.2501241,25.76474 L80.1205955,25.8965129 C79.6312631,26.2771921 79.0843703,26.3503985 78.4799007,26.1161344 C78.2496266,25.6476062 78.0769237,25.3254979 77.9617866,25.1497998 C77.8466495,24.9741017 77.7818859,24.8203682 77.7674938,24.6885947 C77.7531017,24.5568211 77.7459057,24.373805 77.7459057,24.1395409 L78.0049628,24.1834652 L78.1344913,24.007768 L77.9617866,23.7002979 L78.1344913,23.6563736 C78.0481385,23.4221095 78.0481385,23.143925 78.1344913,22.8218119 L78.5230769,22.5582661 L78.3503722,22.0750987 L78.6526055,22.250796 L78.7389578,22.0750987 L79.0843672,22.0750987 C79.17072,22.0750987 79.2714634,22.0384955 79.3866005,21.965288 C79.5017375,21.8920805 79.6888325,21.7676295 79.9478908,21.5919314 L82.5816377,18.2536846 L81.7181141,17.8144415 L81.0272953,18.9125491 C80.9409425,19.0003981 80.854591,19.044322 80.7682382,19.044322 C80.6818854,19.044322 80.5739461,19.1102078 80.4444169,19.2419813 C80.3148877,19.3737549 80.091813,19.5860536 79.7751861,19.8788837 L79.1275434,19.6153379 C78.7245637,19.0589606 78.4295295,18.6490046 78.2424318,18.3854575 C78.0553341,18.1219103 77.9114149,17.8071227 77.81067,17.441085 C77.7099251,17.0750473 77.544418,16.4381513 77.3141439,15.5303779 L76.7096774,15.0472106 L76.9255583,13.9930274 L78.9116625,12.8509955 C80.7538554,10.0398262 81.7972692,8.32679561 82.0419355,7.71185232 C82.2866017,7.09690903 82.4233249,6.74551814 82.4521092,6.6576691 C82.4808934,6.56982006 82.5240692,6.48197233 82.5816377,6.39412329 L83.6610422,6.9212149 C83.6898264,7.21404504 83.7473941,7.43366435 83.8337469,7.58007942 C83.9200997,7.72649449 83.9057078,8.03396152 83.7905707,8.50248974 C83.6754337,8.97101796 83.5459064,9.79093004 83.4019851,10.9622506 L84.7836228,10.2594618 L84.8699752,9.95199167 L84.3950372,9.02958135 L84.6540943,8.50248974 L84.3950372,8.23894393 C84.4238215,8.03396284 84.4526053,7.89487061 84.4813896,7.82166307 C84.5101738,7.74845554 84.5029779,7.66792846 84.4598015,7.58007942 L84.2655087,7.18476071 C84.40943,6.92121359 84.5317613,6.70891492 84.6325062,6.54785834 C84.7332511,6.38680177 84.8771703,5.97684573 85.064268,5.31797792 C85.2513657,4.65911011 85.3593051,3.98561089 85.3880893,3.29746007 C85.4168736,2.60930925 85.3593059,2.1993532 85.2153846,2.06757964 C85.0714633,1.93580608 84.9131522,1.75278999 84.7404467,1.51852588 L83.4451613,1.12320717 L83.2724566,0.640039861 L83.4019851,0.332569754 L84.092804,0.0250996467 Z M104.894946,1.875 L106.250287,1.875 C106.54176,1.875 106.789508,1.91918652 106.993539,2.00756088 C107.19757,2.09593524 107.489038,2.21376595 107.867953,2.36105656 L108.392601,3.02386095 C108.334306,3.46573276 108.297873,3.78976722 108.283299,3.99597406 C108.268725,4.20218091 108.195858,4.4231135 108.064696,4.65877846 C107.933533,4.89444342 107.693072,5.32157976 107.343304,5.94020029 L106.556332,6.51463076 L106.250287,7.1332482 C106.774938,7.19216444 107.175707,7.22898654 107.452606,7.2437156 C107.729505,7.25844466 108.02826,7.33945328 108.34888,7.48674388 C108.6695,7.63403448 109.208716,7.88442475 109.966545,8.23792219 L110.053987,8.98910051 L110.578635,9.47515706 L110.316311,9.69609186 L109.747942,9.38678314 L108.698646,9.82865274 L108.786087,10.0495875 L106.818656,9.82865274 L106.774935,9.69609186 L103.84565,9.4309701 L102.752632,10.4914571 C101.994803,11.4046589 101.193266,12.2442027 100.347995,13.0101138 C101.222413,13.1279463 102.46844,13.3046924 104.086113,13.5403574 C105.703787,13.7760223 106.658345,13.8791242 106.949818,13.8496661 C107.561911,14.320996 108.217715,14.7186747 108.917249,15.042714 C109.033838,15.5140439 109.29616,15.9117226 109.704221,16.2357619 L109.485618,16.5892576 L109.092132,16.8101924 C108.975543,16.721818 108.873529,16.6481738 108.786087,16.5892576 C108.698645,16.5303413 108.596631,16.5082481 108.480042,16.5229771 C108.363453,16.5377062 108.188572,16.5450706 107.955394,16.5450706 L108.130277,16.8985663 C107.98454,16.83965 107.85338,16.7733703 107.73679,16.699725 C107.620201,16.6260797 107.387027,16.6187152 107.03726,16.6776315 C106.687492,16.7365477 106.35959,16.8249208 106.053544,16.9427532 C105.747498,17.0605857 105.514323,17.1195011 105.354013,17.1195011 L104.720063,17.1195011 L104.588901,16.8985663 L104.107974,16.9869402 L104.457739,16.8543793 L104.151694,16.7660054 L104.50146,16.4566967 L103.976812,16.5892576 L103.976812,16.3683228 C103.656192,16.3977809 103.364723,16.3977809 103.102398,16.3683228 L104.720063,15.7938923 C104.399443,15.7055179 104.115262,15.6245093 103.86751,15.550864 C103.619758,15.4772187 103.43759,15.4403966 103.321001,15.4403966 C103.204412,15.4403966 103.087825,15.4183034 102.971236,15.3741162 C102.854647,15.329929 102.738059,15.3078357 102.62147,15.3078357 C102.504881,15.3078357 102.381007,15.2857425 102.249845,15.2415553 C102.118682,15.1973681 101.921941,15.1752749 101.659615,15.1752749 L101.659615,14.998527 C101.484732,15.0279851 101.331711,15.0500784 101.200548,15.0648075 C101.069385,15.0795365 100.756057,15.03535 100.260553,14.9322466 C99.7650498,14.8291432 99.0728125,14.7260413 98.1838208,14.6229379 C97.2948291,14.5198344 96.6827456,14.5051056 96.347552,14.5787509 C96.0123584,14.6523962 95.6553097,14.7334048 95.2763952,14.8217792 L95.1889538,14.6008444 L94.3145401,14.3799096 L94.4894229,14.3357226 L94.0959367,13.893853 L92.521992,17.163688 C93.4547047,16.7807325 94.5622843,16.3535961 95.8447641,15.8822662 C97.127244,15.4109363 97.9069217,15.2710123 98.1838208,15.4624901 C98.4607198,15.6539679 98.8031951,15.8528072 99.2112569,16.0590141 L99.9982292,16.9427532 C100.581175,17.0605857 101.003804,17.1268655 101.266129,17.1415946 C101.528455,17.1563236 101.732482,17.215239 101.878219,17.3183424 C102.023955,17.4214458 102.213409,17.5319121 102.446588,17.6497446 C102.563177,17.8559514 102.650617,18.0474264 102.708912,18.2241751 L102.053101,18.312549 L101.747057,18.6660447 L101.134967,19.0637273 L101.790777,19.5939708 C101.557599,19.5939708 101.390005,19.5866064 101.287989,19.5718773 C101.185974,19.5571483 101.113107,19.5645127 101.069386,19.5939708 C101.025665,19.6234289 100.960085,19.6528866 100.872643,19.6823447 C100.26055,22.0389944 99.7796275,24.4103375 99.4298603,26.7964453 L100.610319,26.8848192 C100.143963,27.2383166 99.70676,27.6065376 99.2986983,27.9894932 L98.8177707,30.5081499 L101.572174,27.9011192 L102.402867,26.3987626 L102.57775,26.6638844 L102.840074,26.3103887 L102.971236,26.4429496 L103.539605,26.1336409 L103.714487,25.8685191 C103.976813,25.9274353 104.268281,25.9127065 104.588901,25.8243321 L105.594477,26.8848192 L105.507036,27.6359975 C105.098974,27.8127462 104.588904,28.1515095 103.976812,28.6522976 C103.364719,29.1530856 102.883796,29.5654931 102.534029,29.8895324 C102.184262,30.2135718 101.90008,30.4418688 101.681476,30.5744303 C101.462871,30.7069918 101.302564,30.832187 101.200548,30.9500195 C101.098533,31.0678519 100.960085,31.1267673 100.785202,31.1267673 C100.406287,31.7748459 100.056525,32.3787284 99.7359051,32.9384326 C100.785207,33.1151814 101.557598,33.2551053 102.053101,33.3582088 C102.548605,33.4613122 103.146115,33.5423208 103.84565,33.601237 C104.545184,33.6601533 105.434162,33.4834072 106.512611,33.0709935 C107.59106,32.6585798 108.815227,32.1209772 110.185149,31.4581695 C111.555071,30.7953618 112.589783,30.2577592 113.289318,29.8453455 C113.988852,29.4329318 114.892404,28.8732359 116,28.166241 L113.945128,29.9779063 L115.825117,28.7406715 L115.431631,29.0941672 L115.125586,29.4034759 L115.081866,29.7127846 L114.950704,29.5802237 C114.571789,30.0220955 114.309468,30.3240367 114.163731,30.4860564 C114.017995,30.648076 113.915981,30.7806356 113.857686,30.883739 C113.799392,30.9868424 113.755672,31.1562241 113.726524,31.3918891 L114.557217,30.4639629 C114.411481,30.729086 114.251173,30.9794763 114.07629,31.2151412 L114.294893,31.1267673 C114.178304,31.3329741 114.025283,31.7085595 113.835826,32.2535348 C113.646369,32.79851 113.544355,33.2182819 113.529781,33.5128631 C113.515208,33.8074443 113.515208,34.0062837 113.529781,34.1093871 C113.544355,34.2124905 113.580788,34.3671433 113.639083,34.5733502 L114.032569,34.8826589 L113.682804,35.1477806 L113.551642,35.854772 L113.945128,35.9431459 C113.799391,36.3261015 113.741098,36.738509 113.770245,37.1803808 L114.775821,37.5780634 L115.038145,38.1083069 L115.431631,37.9315591 L114.994424,38.5943635 L113.158155,40.0083462 L112.80839,40.6269636 C112.400328,40.8626286 112.079713,41.0541035 111.846535,41.2013941 C111.613357,41.3486847 111.205301,41.459151 110.622356,41.5327963 C110.03941,41.6064416 109.46376,41.5327974 108.895389,41.3118615 C108.327017,41.0909256 107.838807,40.8258065 107.430746,40.5164962 C107.022684,40.207186 106.461607,39.838965 105.747499,39.4118222 C105.033391,38.9846795 104.035112,38.572272 102.752632,38.1745874 C101.470153,37.7769027 100.595748,37.4749615 100.129391,37.2687547 C99.663035,37.0625478 99.313273,36.9226239 99.0800948,36.8489786 C98.8469167,36.7753333 98.4971547,36.6501381 98.0307984,36.4733894 C97.768473,37.1509262 97.5863053,37.6148846 97.4842898,37.8652786 C97.3822744,38.1156727 97.3385541,38.2850543 97.3531278,38.3734287 C97.3677014,38.461803 97.4041349,38.5796338 97.4624295,38.7269244 L96.1070882,40.8920854 C95.7864683,41.1866666 95.5314335,41.422328 95.3419762,41.5990767 C95.152519,41.7758255 94.8246171,42.0041225 94.3582608,42.2839746 C93.8919045,42.5638268 93.330828,42.7847593 92.6750144,42.946779 C92.0192009,43.1087987 91.5965718,43.1603496 91.4071146,43.1014334 C91.2176573,43.0425171 90.9917694,42.9541441 90.729444,42.8363116 L90.3359578,42.1735072 L89.2429407,41.8641985 C88.9806152,41.5401592 88.7984475,41.326591 88.6964321,41.2234876 C88.5944167,41.1203842 88.5434097,41.0025534 88.5434097,40.8699919 C88.5434097,40.7374304 88.5069762,40.590142 88.434108,40.4281223 C88.3612398,40.2661026 88.3248063,39.8389663 88.3248063,39.1467005 C88.3248063,38.4544346 88.5215474,37.1803901 88.9150355,35.3245285 C89.3085237,33.4686669 89.6947192,31.7012062 90.0736337,30.0220933 C90.4525482,28.3429804 90.4744083,27.2751396 90.1392147,26.8185387 C89.8040211,26.3619379 89.6218534,26.0010813 89.5927061,25.7359582 C89.5635589,25.4708351 89.461545,24.9553258 89.2866613,24.1894146 L88.1936442,25.8685191 C87.9896133,26.0747259 87.7928722,26.2367432 87.603415,26.3545757 C87.4139577,26.4724081 87.1006293,26.5386879 86.6634202,26.553417 C86.2262112,26.568146 85.8108688,26.5018663 85.4173807,26.3545757 C85.0238926,26.2072851 84.5866901,26.2882937 84.1057601,26.5976039 C83.6248302,26.9069142 83.3042151,27.0394738 83.1439051,26.9952866 C82.9835951,26.9510994 82.7722806,26.9142773 82.5099551,26.8848192 C82.4225133,26.5607798 82.3642197,26.3398473 82.3350724,26.2220148 C82.3059251,26.1041823 82.3277853,25.993716 82.4006534,25.8906126 C82.4735216,25.7875092 82.5536754,25.6181275 82.6411172,25.3824625 L82.5099551,25.0289669 L82.947162,24.7196581 L82.8597206,24.3661625 L83.0346034,24.3661625 C82.9763088,24.2777881 82.9617354,24.1452286 82.9908827,23.9684798 L83.7341343,24.3219755 L86.2262134,22.2893754 C88.5579949,19.4024796 90.1173504,17.3625353 90.9043267,16.1694815 C91.691303,14.9764276 92.3179599,13.9159511 92.7843162,12.9880204 C93.2506725,12.0600896 93.4765604,11.4635716 93.4619868,11.1984485 C93.4474131,10.9333254 93.4546999,10.786037 93.4838471,10.7565789 C93.5129944,10.7271208 93.5421412,10.6829343 93.5712885,10.624018 L94.6643056,11.1100746 C94.6643056,11.3162814 94.7007392,11.4709342 94.7736073,11.5740376 C94.8464755,11.6771411 94.8173287,11.8538871 94.686166,12.1042812 C94.5550033,12.3546752 94.387409,12.8186336 94.1833781,13.4961704 L94.6643056,13.5403574 L94.7080263,13.2310486 L95.0140711,13.0101138 L95.0140711,12.6566182 C95.1306602,12.62716 95.1889538,12.5903379 95.1889538,12.5461508 C95.3346898,12.5535154 95.4075568,12.5682442 95.4949986,12.5682442 L95.0577918,11.8170659 C95.1743809,11.8170659 95.2909682,11.7581506 95.4075573,11.6403181 L95.7136021,11.8170659 L95.6261607,11.4635702 L94.9266297,10.8891398 L96.8066192,11.772879 C98.089099,11.0069678 99.313266,10.079051 100.479157,8.98910051 C99.8379168,8.95964239 98.6939037,8.96700681 97.047083,9.01119399 C95.4002623,9.05538117 94.4457035,9.06274559 94.1833781,9.03328747 L93.8336126,8.28210915 L94.0084953,7.97280043 C95.3492697,7.73713547 96.4277025,7.55302498 97.243826,7.42046344 C98.0599496,7.2879019 99.123809,7.25844422 100.435436,7.33208952 C101.747063,7.40573482 102.636042,7.19216665 103.102398,6.6913786 C103.568754,6.19059056 104.166264,5.57197931 104.894946,4.8355263 L105.76936,3.55410447 C105.419592,3.55410447 105.128124,3.54674005 104.894946,3.53201099 C104.661768,3.51728193 104.100691,3.64247706 103.2117,3.90760014 C102.322708,4.17272323 101.404583,4.54094421 100.457296,5.01227414 C99.5100102,5.48360406 98.7667659,5.75608759 98.2275415,5.82973289 C97.688317,5.90337819 97.0252266,6.02857332 96.2382503,6.20532205 C96.0050721,5.88128272 95.8447646,5.62352804 95.7573228,5.43205025 C95.6698809,5.24057247 95.4731398,4.91653801 95.1670935,4.45993714 C94.8610472,4.00333627 94.7080263,3.68666623 94.7080263,3.50991751 C94.8537627,3.50991751 94.9484899,3.47309541 94.9922108,3.39945011 C95.0359317,3.32580481 95.1889525,3.34789807 95.451278,3.46573055 C95.7136034,3.58356303 96.0925122,3.64984281 96.5880158,3.66457187 C97.0835193,3.67930093 97.9069174,3.51728369 99.0582345,3.17851531 C100.209552,2.83974693 102.155103,2.40524617 104.894946,1.875 Z M87.8787879,11.25 L87.198436,11.8181818 L87.198436,12.2159091 L86.0645161,12.8409091 L86.1212121,13.125 C86.3479972,12.8977261 86.6314743,12.7840909 86.971652,12.7840909 L87.9354839,11.3068182 L87.8787879,11.25 Z M87.9354839,11.25 C87.8835123,11.2788767 87.766578,11.307753 87.5846774,11.3366297 C87.4027769,11.3655064 87.1559155,11.4449162 86.844086,11.5748613 C86.5322565,11.7048065 86.2724025,11.7697782 86.0645161,11.7697782 L86.0645161,12.0296672 L87.5456989,11.5965188 L87.9354839,11.25 Z M84.1935484,13.125 C83.5075235,13.6022751 82.8838738,14.1590877 82.3225806,14.7954545 L82.9462366,15 L84.1935484,13.125 Z M97.2903226,18.75 C96.670187,19.0178585 95.6695288,19.360117 94.2883178,19.7767857 C92.9071069,20.1934545 92.0332926,20.4017857 91.6668489,20.4017857 L89.8064516,24.1071429 L90.8634955,24.375 C92.9775939,22.7976112 95.0775669,21.2351268 97.1634773,19.6875 L96.9097868,19.5982143 L95.2607983,20.8482143 L95.30308,20.7589286 L95.8104611,20.3125 L97.2903226,18.75 Z M99.1612903,20.625 C98.8286722,21.0416687 98.4544824,21.2760414 98.0387097,21.328125 C97.7060915,21.6927102 97.4566317,22.0833313 97.2903226,22.5 L99.0989247,20.9375 L99.1612903,20.625 Z M97.2903226,20.625 C96.7950639,21.035586 96.3410837,21.4051078 95.9283681,21.7335766 L95.7220114,21.979927 L95.3505693,22.0209854 L95.3092979,22.2262774 L95.0616698,22.3905109 L95.0616698,22.7600365 L94.7727704,23.0063869 L94.8965844,22.7600365 L94.6902277,23.0063869 C94.4701128,23.1706213 94.2637581,23.3485392 94.0711575,23.540146 L93.9060721,23.4990876 L93.6171727,23.745438 C93.3970577,23.9096724 93.20446,24.0465323 93.0393738,24.1560219 L92.9155598,24.0328467 C92.7779879,24.2518259 92.6266612,24.4434298 92.461575,24.6076642 L92.0075901,25.0182482 L91.6774194,26.2089416 L91.759962,26.25 C93.3833098,25.018242 95.0616612,23.8823045 96.7950664,22.8421533 L97.2903226,20.625 Z M93.5483871,23.1064078 L93.5483871,23.2796672 L94.2558968,22.7165742 L94.1674581,22.5 L93.5483871,23.1064078 Z M97.2903226,24.375 L97.0621558,24.375 C96.9708886,24.375 95.7996441,25.588756 93.5483871,28.0163043 L94.6435877,28.125 C95.3737251,27.1467342 95.8985035,26.485509 96.2179386,26.1413043 C96.5373737,25.7970997 96.7427218,25.5163054 96.833989,25.298913 C96.9252562,25.0815207 97.0773658,24.7735527 97.2903226,24.375 Z M97.2903226,26.25 C96.6488447,26.8382382 96.025195,27.4490918 95.4193548,28.0825791 C95.4906302,28.0825791 95.5708137,28.0938912 95.6599078,28.1165157 C95.749002,28.1391403 95.9004598,28.1165161 96.1142857,28.0486424 C96.3281117,27.9807688 96.6488458,27.8337115 97.0764977,27.607466 L97.2903226,26.25 Z M94.1898618,28.125 L92.1050691,29.6990741 L91.6774194,31.875 L92.4792627,31.3657407 L95.4193548,28.4027778 L94.6709677,28.1712963 L94.1898618,28.125 Z M96.1354042,28.125 L95.1652728,28.9834337 L93.5483871,31.875 L93.7793708,31.875 C93.8409667,31.875 94.1335431,31.6641587 94.6571087,31.2424699 C95.1806743,30.820781 95.9814097,30.1280169 97.0593389,29.1641566 L96.9207487,28.938253 L97.1979291,29.0286145 L97.2903226,28.8478916 L96.2739944,28.1701807 L96.1354042,28.125 Z M96.9161289,30 L95.8574351,30.8247423 L95.7114083,31.2027491 L95.8939417,31.2714776 C96.088645,30.9507429 96.3441893,30.6758316 96.6605821,30.4467354 C96.6605821,30.5383739 96.642329,30.6185563 96.6058221,30.6872852 C96.5693152,30.7560141 96.4658807,30.8591058 96.2955153,30.9965636 C96.1251499,31.1340213 95.8330993,31.4203873 95.4193548,31.8556701 C95.638396,31.8556701 95.8026745,31.8613974 95.9121951,31.8728522 C96.0217157,31.884307 96.1494878,31.8499431 96.2955153,31.7697594 C96.4415427,31.6895757 96.5693149,31.603666 96.6788355,31.5120275 C96.7883561,31.420389 96.9404657,31.2829333 97.135169,31.0996563 C97.1838449,30.9851082 97.2264356,30.9049258 97.2629424,30.8591065 C97.2994493,30.8132873 97.2994493,30.7560141 97.2629424,30.6872852 C97.2264356,30.6185563 97.1716761,30.50401 97.0986623,30.3436426 L96.9161289,30.4810996 L96.8066089,30.3780069 C96.9282984,30.309278 96.9769735,30.1947316 96.9526356,30.0343643 L96.9161289,30 Z M93.5483871,33.75 C93.063319,34.3750031 92.4916401,34.6875 91.8333333,34.6875 L91.6774194,35.625 C91.8853057,35.5769228 92.1364979,35.4086553 92.4310036,35.1201923 C92.7255092,34.8317293 93.0979667,34.3750031 93.5483871,33.75 Z M94.5979544,35.625 C94.3241528,35.8363159 93.8450074,36.1230975 93.1605035,36.4853533 C92.4759997,36.8476091 91.9816433,37.1343907 91.6774194,37.3457066 C91.7382641,38.49285 91.7610806,39.2852728 91.7458694,39.7229986 C91.7306582,40.1607244 91.7534746,40.439959 91.8143194,40.560711 C91.8751642,40.6814629 91.9512191,40.8625881 92.0424862,41.104092 C92.1945982,41.164468 92.3467079,41.2097493 92.4988198,41.2399373 C92.6509318,41.2701253 92.9095182,41.2323908 93.2745869,41.1267329 C93.6396556,41.0210749 93.9514805,40.8173091 94.2100708,40.5154292 C94.4686611,40.2135494 94.8869628,39.7909239 95.4649882,39.2475402 L97.2903226,36.7117621 L94.5979544,35.625 Z" id="霸王餐"></path>
            <g id="Group" transform="translate(25.000000, 38.000000)">
                <rect id="Rectangle" x="0" y="0" width="68" height="20" rx="3"></rect>
            </g>
        </g>
    </g>
</svg>