<svg xmlns="http://www.w3.org/2000/svg" width="23" height="22" viewBox="0 0 23 22">
  <path fill="#EE9A91" fill-rule="evenodd" stroke="#FFF" d="M228.036083,692.30341 L223.079494,694.898612 C222.590217,695.154791 221.985907,694.965828 221.729729,694.476551 C221.627876,694.282022 221.592882,694.059377 221.630149,693.842982 L222.574781,688.357826 C222.630804,688.03252 222.522682,687.700524 222.285835,687.470597 L218.287325,683.588914 C217.891054,683.204221 217.881668,682.571126 218.266361,682.174855 C218.420173,682.016414 218.622104,681.913339 218.840648,681.881712 L224.373663,681.080998 C224.699036,681.033912 224.980478,680.829905 225.126456,680.535329 L227.603918,675.535921 C227.849145,675.041065 228.4491,674.838701 228.943956,675.083927 C229.140014,675.181084 229.298794,675.339864 229.39595,675.535921 L231.873413,680.535329 C232.01939,680.829905 232.300833,681.033912 232.626205,681.080998 L238.159221,681.881712 C238.705812,681.960812 239.084788,682.468035 239.005687,683.014626 C238.97406,683.233171 238.870986,683.435101 238.712544,683.588914 L234.714034,687.470597 C234.477187,687.700524 234.369065,688.03252 234.425088,688.357826 L235.36972,693.842982 C235.463452,694.387255 235.098217,694.90446 234.553945,694.998192 C234.33755,695.035459 234.114904,695.000465 233.920375,694.898612 L228.963786,692.30341 C228.673259,692.151294 228.32661,692.151294 228.036083,692.30341 Z" transform="translate(-217 -674)"/>
</svg>
