<?xml version="1.0" encoding="UTF-8"?>
<svg width="15px" height="15px" viewBox="0 0 15 15" version="1.1" xmlns="http://www.w3.org/2000/svg" xmlns:xlink="http://www.w3.org/1999/xlink">
    <!-- Generator: Sketch 48.1 (47250) - http://www.bohemiancoding.com/sketch -->
    <title>Star-canvas-normal</title>
    <desc>Created with Sketch.</desc>
    <defs>
        <path d="M123.950492,32.6125203 L120.983431,34.1660325 C120.494155,34.4222108 119.889845,34.2332476 119.633667,33.7439715 C119.531814,33.5494423 119.49682,33.326797 119.534087,33.1104021 L120.098752,29.8315803 C120.154775,29.5062742 120.046653,29.1742783 119.809807,28.9443516 L117.420859,26.6252029 C117.024588,26.2405106 117.015202,25.6074152 117.399895,25.2111448 C117.553707,25.0527031 117.755637,24.9496284 117.974182,24.9180015 L121.282837,24.4391873 C121.608209,24.3921008 121.889652,24.1880945 122.035629,23.8935187 L123.518328,20.9014999 C123.763554,20.4066439 124.363509,20.2042792 124.858365,20.4495057 C125.054423,20.5466623 125.213203,20.7054423 125.31036,20.9014999 L126.793058,23.8935187 C126.939035,24.1880945 127.220478,24.3921008 127.54585,24.4391873 L130.854505,24.9180015 C131.401096,24.9971018 131.780072,25.5043247 131.700972,26.0509156 C131.669345,26.2694602 131.56627,26.4713906 131.407828,26.6252029 L129.01888,28.9443516 C128.782034,29.1742783 128.673912,29.5062742 128.729935,29.8315803 L129.2946,33.1104021 C129.388333,33.6546747 129.023098,34.17188 128.478825,34.2656124 C128.26243,34.3028791 128.039785,34.2678853 127.845256,34.1660325 L124.878195,32.6125203 C124.587668,32.460404 124.241019,32.460404 123.950492,32.6125203 Z" id="path-1"></path>
    </defs>
    <g id="9.关闭提交弹窗显露canvas-1" stroke="none" stroke-width="1" fill="none" fill-rule="evenodd" transform="translate(-232.000000, -278.000000)">
        <g id="Group-7" transform="translate(37.000000, 117.000000)">
            <g id="Group" transform="translate(78.000000, 141.000000)">
                <g id="Star-canvas-normal">
                    <use fill="#EEEEEE" fill-rule="evenodd" xlink:href="#path-1"></use>
                    <path stroke="#E1E1E1" stroke-width="1" d="M123.718566,32.1695639 C124.154357,31.9413895 124.67433,31.9413895 125.110121,32.1695639 L128.077182,33.7230761 C128.174446,33.7740025 128.285769,33.7914994 128.393966,33.7728661 C128.666103,33.7259998 128.84872,33.4673972 128.801854,33.1952609 L128.237188,29.9164391 C128.153154,29.42848 128.315337,28.9304861 128.670607,28.5855961 L131.059555,26.2664474 C131.138776,26.1895412 131.190313,26.088576 131.206127,25.9793037 C131.245677,25.7060083 131.056189,25.4523969 130.782893,25.4128467 L127.474238,24.9340324 C126.98618,24.8634027 126.564016,24.5573932 126.34505,24.1155296 L124.862352,21.1235108 C124.813773,21.025482 124.734383,20.946092 124.636354,20.8975137 C124.388926,20.7749005 124.088949,20.8760828 123.966336,21.1235108 L122.483637,24.1155296 C122.264671,24.5573932 121.842507,24.8634027 121.354449,24.9340324 L118.045794,25.4128467 C117.936522,25.4286601 117.835556,25.4801975 117.75865,25.5594183 C117.566304,25.7575535 117.570997,26.0741012 117.769132,26.2664474 L120.15808,28.5855961 C120.51335,28.9304861 120.675533,29.42848 120.591499,29.9164391 L120.026833,33.1952609 C120.0082,33.3034584 120.025697,33.414781 120.076623,33.5120456 C120.204712,33.7566837 120.506867,33.8511652 120.751505,33.7230761 L123.718566,32.1695639 Z"></path>
                </g>
            </g>
        </g>
    </g>
</svg>