<svg xmlns="http://www.w3.org/2000/svg" width="21" height="20" viewBox="0 0 21 20">
  <path fill="#F8E71C" fill-rule="evenodd" d="M104.036083,646.30341 L99.0794936,648.898612 C98.5902175,649.154791 97.9859073,648.965828 97.729729,648.476551 C97.6278762,648.282022 97.5928824,648.059377 97.6301491,647.842982 L98.5747808,642.357826 C98.6308037,642.03252 98.5226819,641.700524 98.2858352,641.470597 L94.2873247,637.588914 C93.8910543,637.204221 93.8816684,636.571126 94.2663608,636.174855 C94.4201731,636.016414 94.6221035,635.913339 94.8406481,635.881712 L100.373663,635.080998 C100.699036,635.033912 100.980478,634.829905 101.126456,634.535329 L103.603918,629.535921 C103.849145,629.041065 104.4491,628.838701 104.943956,629.083927 C105.140014,629.181084 105.298794,629.339864 105.39595,629.535921 L107.873413,634.535329 C108.01939,634.829905 108.300833,635.033912 108.626205,635.080998 L114.159221,635.881712 C114.705812,635.960812 115.084788,636.468035 115.005687,637.014626 C114.97406,637.233171 114.870986,637.435101 114.712544,637.588914 L110.714034,641.470597 C110.477187,641.700524 110.369065,642.03252 110.425088,642.357826 L111.36972,647.842982 C111.463452,648.387255 111.098217,648.90446 110.553945,648.998192 C110.33755,649.035459 110.114904,649.000465 109.920375,648.898612 L104.963786,646.30341 C104.673259,646.151294 104.32661,646.151294 104.036083,646.30341 Z" transform="translate(-94 -629)"/>
</svg>
