<?xml version="1.0" encoding="UTF-8"?>
<svg width="24px" height="24px" viewBox="0 0 24 24" version="1.1" xmlns="http://www.w3.org/2000/svg" xmlns:xlink="http://www.w3.org/1999/xlink">
    <!-- Generator: Sketch 48.1 (47250) - http://www.bohemiancoding.com/sketch -->
    <title>bingo-red</title>
    <desc>Created with Sketch.</desc>
    <defs></defs>
    <g id="3.提交成功（有权益且未绑定手机号码）" stroke="none" stroke-width="1" fill="none" fill-rule="evenodd" transform="translate(-123.000000, -125.000000)">
        <g id="Group-2" transform="translate(37.500000, 97.500000)" fill="#FF3E3A" fill-rule="nonzero">
            <g id="Group-6" transform="translate(85.000000, 27.000000)">
                <path d="M12.5,23.3 C18.4646753,23.3 23.3,18.4646753 23.3,12.5 C23.3,11.1300893 23.0449434,9.8197503 22.5797274,8.61388008 C22.2089152,7.65271068 21.7045826,6.75791334 21.0894657,5.95222422 C19.1161951,3.36760535 16.0028426,1.7 12.5,1.7 C6.5353247,1.7 1.7,6.5353247 1.7,12.5 C1.7,18.4646753 6.5353247,23.3 12.5,23.3 Z M12.5,24.5 C5.872583,24.5 0.5,19.127417 0.5,12.5 C0.5,5.872583 5.872583,0.5 12.5,0.5 C19.127417,0.5 24.5,5.872583 24.5,12.5 C24.5,19.127417 19.127417,24.5 12.5,24.5 Z M12.9364938,14.4191977 L8.57271383,9.79537465 C8.11783413,9.31338811 7.35835399,9.29141367 6.87636745,9.74629337 C6.39438091,10.2011731 6.37240648,10.9606532 6.82728617,11.4426397 L12.8089916,17.7808023 C17.1859244,13.7962775 20.4686241,10.8078839 22.6570905,8.81562145 C22.6570905,8.81562145 22.3458008,8.02365723 22.1134766,7.58793945 C21.8811523,7.15222168 21.5742995,6.62093116 21.5742995,6.62093116 C21.473993,6.66985356 21.3788806,6.73370167 21.2921829,6.81262662 L12.9364938,14.4191977 Z" id="bingo-red"></path>
            </g>
        </g>
    </g>
</svg>