<?xml version="1.0" encoding="UTF-8"?>
<svg width="24px" height="24px" viewBox="0 0 24 24" version="1.1" xmlns="http://www.w3.org/2000/svg" xmlns:xlink="http://www.w3.org/1999/xlink">
    <!-- Generator: Sketch 48.1 (47250) - http://www.bohemiancoding.com/sketch -->
    <title>success2</title>
    <desc>Created with Sketch.</desc>
    <defs></defs>
    <g id="15.提交后状态-4--即获礼" stroke="none" stroke-width="1" fill="none" fill-rule="evenodd" transform="translate(-98.000000, -147.000000)">
        <g id="Group-6" transform="translate(98.000000, 146.000000)" fill="#FFEFC6" fill-rule="nonzero">
            <path d="M12,23.8 C17.9646753,23.8 22.8,18.9646753 22.8,13 C22.8,11.6300893 22.5449434,10.3197503 22.0797274,9.11388008 C21.7089152,8.15271068 21.2045826,7.25791334 20.5894657,6.45222422 C18.6161951,3.86760535 15.5028426,2.2 12,2.2 C6.0353247,2.2 1.2,7.0353247 1.2,13 C1.2,18.9646753 6.0353247,23.8 12,23.8 Z M12,25 C5.372583,25 0,19.627417 0,13 C0,6.372583 5.372583,1 12,1 C18.627417,1 24,6.372583 24,13 C24,19.627417 18.627417,25 12,25 Z M12.4364938,14.9191977 L8.07271383,10.2953746 C7.61783413,9.81338811 6.85835399,9.79141367 6.37636745,10.2462934 C5.89438091,10.7011731 5.87240648,11.4606532 6.32728617,11.9426397 L12.3089916,18.2808023 C16.6859244,14.2962775 19.9686241,11.3078839 22.1570905,9.31562145 C22.1570905,9.31562145 21.8458008,8.52365723 21.6134766,8.08793945 C21.3811523,7.65222168 21.0742995,7.12093116 21.0742995,7.12093116 C20.973993,7.16985356 20.8788806,7.23370167 20.7921829,7.31262662 L12.4364938,14.9191977 Z" id="success2"></path>
        </g>
    </g>
</svg>