<?xml version="1.0" encoding="UTF-8"?>
<svg width="295px" height="26px" viewBox="0 0 295 26" version="1.1" xmlns="http://www.w3.org/2000/svg" xmlns:xlink="http://www.w3.org/1999/xlink">
    <!-- Generator: Sketch 48.1 (47250) - http://www.bohemiancoding.com/sketch -->
    <title>pageTitle-bg</title>
    <desc>Created with Sketch.</desc>
    <defs></defs>
    <g id="A-奖品升级-1" stroke="none" stroke-width="1" fill="none" fill-rule="evenodd" transform="translate(-54.000000, -79.000000)">
        <g id="title" transform="translate(54.000000, 79.000000)" fill="#FA3A3D">
            <path d="M8.3458278,2.64899765e-14 L291.154172,1.55376046e-16 C292.49145,-9.02779573e-17 292.97638,0.139238417 293.465269,0.400699056 C293.954157,0.662159695 294.33784,1.04584256 294.599301,1.53473144 C294.860762,2.02362033 295,2.50854969 295,3.8458278 L295,22.1541722 C295,23.4914503 294.860762,23.9763797 294.599301,24.4652686 C294.33784,24.9541574 293.954157,25.3378403 293.465269,25.5993009 C292.97638,25.8607616 292.49145,26 291.154172,26 L8.3458278,26 C7.00854969,26 6.52362033,25.8607616 6.03473144,25.5993009 C5.54584256,25.3378403 5.16215969,24.9541574 4.90069906,24.4652686 C4.63923842,23.9763797 4.5,23.4914503 4.5,22.1541722 L4.5,16.1669922 L0,13.2685547 L4.5,10.2021484 L4.5,3.8458278 C4.5,2.50854969 4.63923842,2.02362033 4.90069906,1.53473144 C5.16215969,1.04584256 5.54584256,0.662159695 6.03473144,0.400699056 C6.52362033,0.139238417 7.00854969,2.67356305e-14 8.3458278,2.64899765e-14 Z" id="pageTitle-bg"></path>
        </g>
    </g>
</svg>