<?xml version="1.0" encoding="UTF-8"?>
<svg width="66px" height="79px" viewBox="0 0 66 79" version="1.1" xmlns="http://www.w3.org/2000/svg" xmlns:xlink="http://www.w3.org/1999/xlink">
    <!-- Generator: Sketch 48.1 (47250) - http://www.bohemiancoding.com/sketch -->
    <title>评论红包待领取</title>
    <desc>Created with Sketch.</desc>
    <defs>
        <linearGradient x1="50%" y1="3.2286352%" x2="50%" y2="100%" id="linearGradient-1">
            <stop stop-color="#FF0800" offset="0%"></stop>
            <stop stop-color="#FF511B" offset="84.7556601%"></stop>
            <stop stop-color="#FF6B00" offset="100%"></stop>
        </linearGradient>
        <path d="M3.8458278,-5.99465256e-16 L10.1259571,5.99465256e-16 C11.4632352,3.53811253e-16 11.9481645,0.139238417 12.4370534,0.400699056 C12.9259423,0.662159695 13.3096252,1.04584256 13.5710858,1.53473144 C13.8325464,2.02362033 13.9717849,2.50854969 13.9717849,3.8458278 L13.9717849,13.3612092 C13.9717849,14.6984873 13.8325464,15.1834167 13.5710858,15.6723056 C13.3096252,16.1611945 12.9259423,16.5448773 12.4370534,16.806338 C11.9481645,17.0677986 11.4632352,17.207037 10.1259571,17.207037 L3.8458278,17.207037 C2.50854969,17.207037 2.02362033,17.0677986 1.53473144,16.806338 C1.04584256,16.5448773 0.662159695,16.1611945 0.400699056,15.6723056 C0.139238417,15.1834167 2.61369826e-15,14.6984873 2.44992893e-15,13.3612092 L2.21300778e-15,3.8458278 C2.04923844e-15,2.50854969 0.139238417,2.02362033 0.400699056,1.53473144 C0.662159695,1.04584256 1.04584256,0.662159695 1.53473144,0.400699056 C2.02362033,0.139238417 2.50854969,-3.53811253e-16 3.8458278,-5.99465256e-16 Z" id="path-2"></path>
        <filter x="-17.9%" y="-14.5%" width="135.8%" height="129.1%" filterUnits="objectBoundingBox" id="filter-4">
            <feGaussianBlur stdDeviation="2.5" in="SourceAlpha" result="shadowBlurInner1"></feGaussianBlur>
            <feOffset dx="0" dy="0" in="shadowBlurInner1" result="shadowOffsetInner1"></feOffset>
            <feComposite in="shadowOffsetInner1" in2="SourceAlpha" operator="arithmetic" k2="-1" k3="1" result="shadowInnerInner1"></feComposite>
            <feColorMatrix values="0 0 0 0 0.834768282   0 0 0 0 0.16303586   0 0 0 0 0.146242549  0 0 0 1 0" type="matrix" in="shadowInnerInner1"></feColorMatrix>
        </filter>
        <path d="M16.6760013,14.0373197 C13.5210821,11.9241748 10.366163,10.8676023 7.2112438,10.8676023 C4.05632464,10.8676023 0.901405475,11.9241748 -2.25351369,14.0373197" id="path-5"></path>
        <filter x="-15.8%" y="-126.2%" width="131.7%" height="301.5%" filterUnits="objectBoundingBox" id="filter-6">
            <feMorphology radius="1" operator="dilate" in="SourceAlpha" result="shadowSpreadOuter1"></feMorphology>
            <feOffset dx="0" dy="-1" in="shadowSpreadOuter1" result="shadowOffsetOuter1"></feOffset>
            <feMorphology radius="1" operator="erode" in="SourceAlpha" result="shadowInner"></feMorphology>
            <feOffset dx="0" dy="-1" in="shadowInner" result="shadowInner"></feOffset>
            <feComposite in="shadowOffsetOuter1" in2="shadowInner" operator="out" result="shadowOffsetOuter1"></feComposite>
            <feGaussianBlur stdDeviation="0.5" in="shadowOffsetOuter1" result="shadowBlurOuter1"></feGaussianBlur>
            <feColorMatrix values="0 0 0 0 0.916214923   0 0 0 0 0.0360714537   0 0 0 0 0  0 0 0 1 0" type="matrix" in="shadowBlurOuter1"></feColorMatrix>
        </filter>
        <ellipse id="path-7" cx="3.32854256" cy="3.57377061" rx="3.25442782" ry="3.48767227"></ellipse>
        <filter x="-30.7%" y="-43.0%" width="161.5%" height="157.3%" filterUnits="objectBoundingBox" id="filter-8">
            <feOffset dx="0" dy="-1" in="SourceAlpha" result="shadowOffsetOuter1"></feOffset>
            <feGaussianBlur stdDeviation="0.5" in="shadowOffsetOuter1" result="shadowBlurOuter1"></feGaussianBlur>
            <feColorMatrix values="0 0 0 0 0   0 0 0 0 0   0 0 0 0 0  0 0 0 0.140313632 0" type="matrix" in="shadowBlurOuter1"></feColorMatrix>
        </filter>
        <filter x="-30.7%" y="-43.0%" width="161.5%" height="157.3%" filterUnits="objectBoundingBox" id="filter-9">
            <feGaussianBlur stdDeviation="1" in="SourceAlpha" result="shadowBlurInner1"></feGaussianBlur>
            <feOffset dx="0" dy="0" in="shadowBlurInner1" result="shadowOffsetInner1"></feOffset>
            <feComposite in="shadowOffsetInner1" in2="SourceAlpha" operator="arithmetic" k2="-1" k3="1" result="shadowInnerInner1"></feComposite>
            <feColorMatrix values="0 0 0 0 0.862745098   0 0 0 0 0.890196078   0 0 0 0 0  0 0 0 1 0" type="matrix" in="shadowInnerInner1"></feColorMatrix>
        </filter>
        <ellipse id="path-10" cx="3.32828026" cy="3.57348952" rx="2.65061899" ry="2.84058854"></ellipse>
        <filter x="-9.4%" y="-8.8%" width="118.9%" height="117.6%" filterUnits="objectBoundingBox" id="filter-11">
            <feOffset dx="0" dy="1" in="SourceAlpha" result="shadowOffsetInner1"></feOffset>
            <feComposite in="shadowOffsetInner1" in2="SourceAlpha" operator="arithmetic" k2="-1" k3="1" result="shadowInnerInner1"></feComposite>
            <feColorMatrix values="0 0 0 0 0.889296344   0 0 0 0 0.670526177   0 0 0 0 0.129162715  0 0 0 1 0" type="matrix" in="shadowInnerInner1" result="shadowMatrixInner1"></feColorMatrix>
            <feOffset dx="0" dy="-1" in="SourceAlpha" result="shadowOffsetInner2"></feOffset>
            <feComposite in="shadowOffsetInner2" in2="SourceAlpha" operator="arithmetic" k2="-1" k3="1" result="shadowInnerInner2"></feComposite>
            <feColorMatrix values="0 0 0 0 0.868090986   0 0 0 0 0.632839987   0 0 0 0 0.0506934446  0 0 0 1 0" type="matrix" in="shadowInnerInner2" result="shadowMatrixInner2"></feColorMatrix>
            <feMerge>
                <feMergeNode in="shadowMatrixInner1"></feMergeNode>
                <feMergeNode in="shadowMatrixInner2"></feMergeNode>
            </feMerge>
        </filter>
        <path d="M3.8458278,-5.99465256e-16 L10.1259571,5.99465256e-16 C11.4632352,3.53811253e-16 11.9481645,0.139238417 12.4370534,0.400699056 C12.9259423,0.662159695 13.3096252,1.04584256 13.5710858,1.53473144 C13.8325464,2.02362033 13.9717849,2.50854969 13.9717849,3.8458278 L13.9717849,13.3612092 C13.9717849,14.6984873 13.8325464,15.1834167 13.5710858,15.6723056 C13.3096252,16.1611945 12.9259423,16.5448773 12.4370534,16.806338 C11.9481645,17.0677986 11.4632352,17.207037 10.1259571,17.207037 L3.8458278,17.207037 C2.50854969,17.207037 2.02362033,17.0677986 1.53473144,16.806338 C1.04584256,16.5448773 0.662159695,16.1611945 0.400699056,15.6723056 C0.139238417,15.1834167 2.16960905e-15,14.6984873 2.00583972e-15,13.3612092 L2.21300778e-15,3.8458278 C2.04923844e-15,2.50854969 0.139238417,2.02362033 0.400699056,1.53473144 C0.662159695,1.04584256 1.04584256,0.662159695 1.53473144,0.400699056 C2.02362033,0.139238417 2.50854969,-3.53811253e-16 3.8458278,-5.99465256e-16 Z" id="path-12"></path>
        <filter x="-17.9%" y="-14.5%" width="135.8%" height="129.1%" filterUnits="objectBoundingBox" id="filter-14">
            <feGaussianBlur stdDeviation="2.5" in="SourceAlpha" result="shadowBlurInner1"></feGaussianBlur>
            <feOffset dx="0" dy="0" in="shadowBlurInner1" result="shadowOffsetInner1"></feOffset>
            <feComposite in="shadowOffsetInner1" in2="SourceAlpha" operator="arithmetic" k2="-1" k3="1" result="shadowInnerInner1"></feComposite>
            <feColorMatrix values="0 0 0 0 0.834768282   0 0 0 0 0.16303586   0 0 0 0 0.146242549  0 0 0 1 0" type="matrix" in="shadowInnerInner1"></feColorMatrix>
        </filter>
        <path d="M16.6760013,14.0373197 C13.5210821,11.9241748 10.366163,10.8676023 7.2112438,10.8676023 C4.05632464,10.8676023 0.901405475,11.9241748 -2.25351369,14.0373197" id="path-15"></path>
        <filter x="-15.8%" y="-126.2%" width="131.7%" height="301.5%" filterUnits="objectBoundingBox" id="filter-16">
            <feMorphology radius="1" operator="dilate" in="SourceAlpha" result="shadowSpreadOuter1"></feMorphology>
            <feOffset dx="0" dy="-1" in="shadowSpreadOuter1" result="shadowOffsetOuter1"></feOffset>
            <feMorphology radius="1" operator="erode" in="SourceAlpha" result="shadowInner"></feMorphology>
            <feOffset dx="0" dy="-1" in="shadowInner" result="shadowInner"></feOffset>
            <feComposite in="shadowOffsetOuter1" in2="shadowInner" operator="out" result="shadowOffsetOuter1"></feComposite>
            <feGaussianBlur stdDeviation="0.5" in="shadowOffsetOuter1" result="shadowBlurOuter1"></feGaussianBlur>
            <feColorMatrix values="0 0 0 0 0.916214923   0 0 0 0 0.0360714537   0 0 0 0 0  0 0 0 1 0" type="matrix" in="shadowBlurOuter1"></feColorMatrix>
        </filter>
        <ellipse id="path-17" cx="3.32854256" cy="3.57377061" rx="3.25442782" ry="3.48767227"></ellipse>
        <filter x="-30.7%" y="-43.0%" width="161.5%" height="157.3%" filterUnits="objectBoundingBox" id="filter-18">
            <feOffset dx="0" dy="-1" in="SourceAlpha" result="shadowOffsetOuter1"></feOffset>
            <feGaussianBlur stdDeviation="0.5" in="shadowOffsetOuter1" result="shadowBlurOuter1"></feGaussianBlur>
            <feColorMatrix values="0 0 0 0 0   0 0 0 0 0   0 0 0 0 0  0 0 0 0.140313632 0" type="matrix" in="shadowBlurOuter1"></feColorMatrix>
        </filter>
        <filter x="-30.7%" y="-43.0%" width="161.5%" height="157.3%" filterUnits="objectBoundingBox" id="filter-19">
            <feGaussianBlur stdDeviation="1" in="SourceAlpha" result="shadowBlurInner1"></feGaussianBlur>
            <feOffset dx="0" dy="0" in="shadowBlurInner1" result="shadowOffsetInner1"></feOffset>
            <feComposite in="shadowOffsetInner1" in2="SourceAlpha" operator="arithmetic" k2="-1" k3="1" result="shadowInnerInner1"></feComposite>
            <feColorMatrix values="0 0 0 0 0.862745098   0 0 0 0 0.890196078   0 0 0 0 0  0 0 0 1 0" type="matrix" in="shadowInnerInner1"></feColorMatrix>
        </filter>
        <ellipse id="path-20" cx="3.32828026" cy="3.57348952" rx="2.65061899" ry="2.84058854"></ellipse>
        <filter x="-9.4%" y="-8.8%" width="118.9%" height="117.6%" filterUnits="objectBoundingBox" id="filter-21">
            <feOffset dx="0" dy="1" in="SourceAlpha" result="shadowOffsetInner1"></feOffset>
            <feComposite in="shadowOffsetInner1" in2="SourceAlpha" operator="arithmetic" k2="-1" k3="1" result="shadowInnerInner1"></feComposite>
            <feColorMatrix values="0 0 0 0 0.889296344   0 0 0 0 0.670526177   0 0 0 0 0.129162715  0 0 0 1 0" type="matrix" in="shadowInnerInner1" result="shadowMatrixInner1"></feColorMatrix>
            <feOffset dx="0" dy="-1" in="SourceAlpha" result="shadowOffsetInner2"></feOffset>
            <feComposite in="shadowOffsetInner2" in2="SourceAlpha" operator="arithmetic" k2="-1" k3="1" result="shadowInnerInner2"></feComposite>
            <feColorMatrix values="0 0 0 0 0.868090986   0 0 0 0 0.632839987   0 0 0 0 0.0506934446  0 0 0 1 0" type="matrix" in="shadowInnerInner2" result="shadowMatrixInner2"></feColorMatrix>
            <feMerge>
                <feMergeNode in="shadowMatrixInner1"></feMergeNode>
                <feMergeNode in="shadowMatrixInner2"></feMergeNode>
            </feMerge>
        </filter>
        <path d="M4.26494545,2.88713164e-16 L19.2056428,5.99465256e-16 C20.5429209,3.53811253e-16 21.0278503,0.139238417 21.5167391,0.400699056 C22.005628,0.662159695 22.3893109,1.04584256 22.6507715,1.53473144 C22.9122322,2.02362033 23.0514706,2.50854969 23.0514706,3.8458278 L23.0514706,24.6541722 C23.0514706,25.9914503 22.9122322,26.4763797 22.6507715,26.9652686 C22.3893109,27.4541574 22.005628,27.8378403 21.5167391,28.0993009 C21.0278503,28.3607616 20.5429209,28.5 19.2056428,28.5 L4.26494545,28.5 C2.92766734,28.5 2.44273798,28.3607616 1.95384909,28.0993009 C1.4649602,27.8378403 1.08127734,27.4541574 0.819816703,26.9652686 C0.558356064,26.4763797 0.419117647,25.9914503 0.419117647,24.6541722 L0.419117647,3.8458278 C0.419117647,2.50854969 0.558356064,2.02362033 0.819816703,1.53473144 C1.08127734,1.04584256 1.4649602,0.662159695 1.95384909,0.400699056 C2.44273798,0.139238417 2.92766734,5.34367167e-16 4.26494545,2.88713164e-16 Z" id="path-22"></path>
        <filter x="-11.0%" y="-8.8%" width="122.1%" height="117.5%" filterUnits="objectBoundingBox" id="filter-24">
            <feGaussianBlur stdDeviation="2.5" in="SourceAlpha" result="shadowBlurInner1"></feGaussianBlur>
            <feOffset dx="0" dy="0" in="shadowBlurInner1" result="shadowOffsetInner1"></feOffset>
            <feComposite in="shadowOffsetInner1" in2="SourceAlpha" operator="arithmetic" k2="-1" k3="1" result="shadowInnerInner1"></feComposite>
            <feColorMatrix values="0 0 0 0 0.834768282   0 0 0 0 0.16303586   0 0 0 0 0.146242549  0 0 0 1 0" type="matrix" in="shadowInnerInner1"></feColorMatrix>
        </filter>
        <path d="M28.0132827,23.25 C22.7134725,19.75 17.4136622,18 12.113852,18 C6.81404175,18 1.5142315,19.75 -3.78557875,23.25" id="path-25"></path>
        <filter x="-9.4%" y="-76.2%" width="118.9%" height="221.6%" filterUnits="objectBoundingBox" id="filter-26">
            <feMorphology radius="1" operator="dilate" in="SourceAlpha" result="shadowSpreadOuter1"></feMorphology>
            <feOffset dx="0" dy="-1" in="shadowSpreadOuter1" result="shadowOffsetOuter1"></feOffset>
            <feMorphology radius="1" operator="erode" in="SourceAlpha" result="shadowInner"></feMorphology>
            <feOffset dx="0" dy="-1" in="shadowInner" result="shadowInner"></feOffset>
            <feComposite in="shadowOffsetOuter1" in2="shadowInner" operator="out" result="shadowOffsetOuter1"></feComposite>
            <feGaussianBlur stdDeviation="0.5" in="shadowOffsetOuter1" result="shadowBlurOuter1"></feGaussianBlur>
            <feColorMatrix values="0 0 0 0 0.916214923   0 0 0 0 0.0360714537   0 0 0 0 0  0 0 0 1 0" type="matrix" in="shadowBlurOuter1"></feColorMatrix>
        </filter>
        <circle id="path-27" cx="5.44852941" cy="5.44852941" r="5.44852941"></circle>
        <filter x="-18.4%" y="-27.5%" width="136.7%" height="136.7%" filterUnits="objectBoundingBox" id="filter-28">
            <feOffset dx="0" dy="-1" in="SourceAlpha" result="shadowOffsetOuter1"></feOffset>
            <feGaussianBlur stdDeviation="0.5" in="shadowOffsetOuter1" result="shadowBlurOuter1"></feGaussianBlur>
            <feColorMatrix values="0 0 0 0 0   0 0 0 0 0   0 0 0 0 0  0 0 0 0.140313632 0" type="matrix" in="shadowBlurOuter1"></feColorMatrix>
        </filter>
        <filter x="-18.4%" y="-27.5%" width="136.7%" height="136.7%" filterUnits="objectBoundingBox" id="filter-29">
            <feGaussianBlur stdDeviation="1" in="SourceAlpha" result="shadowBlurInner1"></feGaussianBlur>
            <feOffset dx="0" dy="0" in="shadowBlurInner1" result="shadowOffsetInner1"></feOffset>
            <feComposite in="shadowOffsetInner1" in2="SourceAlpha" operator="arithmetic" k2="-1" k3="1" result="shadowInnerInner1"></feComposite>
            <feColorMatrix values="0 0 0 0 0.862745098   0 0 0 0 0.890196078   0 0 0 0 0  0 0 0 1 0" type="matrix" in="shadowInnerInner1"></feColorMatrix>
        </filter>
        <circle id="path-30" cx="5.44852941" cy="5.44852941" r="4.61029412"></circle>
        <filter x="-5.4%" y="-5.4%" width="110.8%" height="110.8%" filterUnits="objectBoundingBox" id="filter-31">
            <feOffset dx="0" dy="1" in="SourceAlpha" result="shadowOffsetInner1"></feOffset>
            <feComposite in="shadowOffsetInner1" in2="SourceAlpha" operator="arithmetic" k2="-1" k3="1" result="shadowInnerInner1"></feComposite>
            <feColorMatrix values="0 0 0 0 0.889296344   0 0 0 0 0.670526177   0 0 0 0 0.129162715  0 0 0 1 0" type="matrix" in="shadowInnerInner1" result="shadowMatrixInner1"></feColorMatrix>
            <feOffset dx="0" dy="-1" in="SourceAlpha" result="shadowOffsetInner2"></feOffset>
            <feComposite in="shadowOffsetInner2" in2="SourceAlpha" operator="arithmetic" k2="-1" k3="1" result="shadowInnerInner2"></feComposite>
            <feColorMatrix values="0 0 0 0 0.868090986   0 0 0 0 0.632839987   0 0 0 0 0.0506934446  0 0 0 1 0" type="matrix" in="shadowInnerInner2" result="shadowMatrixInner2"></feColorMatrix>
            <feMerge>
                <feMergeNode in="shadowMatrixInner1"></feMergeNode>
                <feMergeNode in="shadowMatrixInner2"></feMergeNode>
            </feMerge>
        </filter>
    </defs>
    <g id="12.提交后状态（&amp;关闭所有弹窗）1---有红包" stroke="none" stroke-width="1" fill="none" fill-rule="evenodd" transform="translate(-299.000000, -818.000000)">
        <g id="评论红包待领取" transform="translate(299.000000, 817.500000)">
            <path d="M6.86917896,0.547412781 L59.049753,0.547412781 C61.2785498,0.547412781 62.0867654,0.779476809 62.9015802,1.21524454 C63.716395,1.65101227 64.3558665,2.29048371 64.7916342,3.10529852 C65.2274019,3.92011334 65.459466,4.72832893 65.459466,6.95712578 L65.459466,72.1376998 C65.459466,74.3664966 65.2274019,75.1747122 64.7916342,75.989527 C64.3558665,76.8043419 63.716395,77.4438133 62.9015802,77.879581 C62.0867654,78.3153488 61.2785498,78.5474128 59.049753,78.5474128 L6.86917896,78.5474128 C4.64038211,78.5474128 3.83216652,78.3153488 3.01735171,77.879581 C2.20253689,77.4438133 1.56306546,76.8043419 1.12729772,75.989527 C0.691529992,75.1747122 0.459465964,74.3664966 0.459465964,72.1376998 L0.459465964,6.95712578 C0.459465964,4.72832893 0.691529992,3.92011334 1.12729772,3.10529852 C1.56306546,2.29048371 2.20253689,1.65101227 3.01735171,1.21524454 C3.83216652,0.779476809 4.64038211,0.547412781 6.86917896,0.547412781 Z" id="Rectangle-12" fill="#000000" opacity="0.8"></path>
            <g id="Group-11" transform="translate(5.691176, 41.500000)">
                <g id="Group-10" transform="translate(0.419118, 6.029412)" opacity="0.5">
                    <g id="Group-32" transform="translate(41.955972, 11.611890) scale(-1, -1) rotate(45.000000) translate(-41.955972, -11.611890) translate(34.955972, 2.611890)">
                        <mask id="mask-3" fill="white">
                            <use xlink:href="#path-2"></use>
                        </mask>
                        <g id="Rectangle-11">
                            <use fill="url(#linearGradient-1)" fill-rule="evenodd" xlink:href="#path-2"></use>
                            <use fill="black" fill-opacity="1" filter="url(#filter-4)" xlink:href="#path-2"></use>
                            <path stroke="#E12E12" stroke-width="1" d="M3.8458278,0.5 C2.70208522,0.5 2.24379883,0.588499184 1.77053087,0.841605655 C1.36877622,1.05646639 1.05646639,1.36877622 0.841605655,1.77053087 C0.588499184,2.24379883 0.5,2.70208522 0.5,3.8458278 L0.5,13.3612092 C0.5,14.5049518 0.588499184,14.9632382 0.841605655,15.4365062 C1.05646639,15.8382608 1.36877622,16.1505706 1.77053087,16.3654314 C2.24379883,16.6185379 2.70208522,16.707037 3.8458278,16.707037 L10.1259571,16.707037 C11.2696996,16.707037 11.727986,16.6185379 12.201254,16.3654314 C12.6030086,16.1505706 12.9153185,15.8382608 13.1301792,15.4365062 C13.3832857,14.9632382 13.4717849,14.5049518 13.4717849,13.3612092 L13.4717849,3.8458278 C13.4717849,2.70208522 13.3832857,2.24379883 13.1301792,1.77053087 C12.9153185,1.36877622 12.6030086,1.05646639 12.201254,0.841605655 C11.727986,0.588499184 11.2696996,0.5 10.1259571,0.5 L3.8458278,0.5 Z"></path>
                        </g>
                        <g id="Line-3" stroke-linecap="square" mask="url(#mask-3)">
                            <use fill="black" fill-opacity="1" filter="url(#filter-6)" xlink:href="#path-5"></use>
                            <use stroke="#FDE403" stroke-width="2" xlink:href="#path-5"></use>
                        </g>
                        <g id="Group-6" mask="url(#mask-3)">
                            <g transform="translate(3.605622, 7.697885)">
                                <g id="Oval-6" fill="none" transform="translate(3.328543, 3.573771) scale(-1, 1) translate(-3.328543, -3.573771) ">
                                    <use fill="black" fill-opacity="1" filter="url(#filter-8)" xlink:href="#path-7"></use>
                                    <use fill="#FEE404" fill-rule="evenodd" xlink:href="#path-7"></use>
                                    <use fill="black" fill-opacity="1" filter="url(#filter-9)" xlink:href="#path-7"></use>
                                </g>
                                <g id="Oval-6" fill="none" transform="translate(3.328280, 3.573490) scale(-1, 1) translate(-3.328280, -3.573490) ">
                                    <use fill="#ECB122" fill-rule="evenodd" xlink:href="#path-10"></use>
                                    <use fill="black" fill-opacity="1" filter="url(#filter-11)" xlink:href="#path-10"></use>
                                </g>
                                <polygon id="￥" fill="#DDA10D" fill-rule="evenodd" transform="translate(3.284970, 3.298884) scale(-1, -1) translate(-3.284970, -3.298884) " points="1.81546511 1.60766031 2.77841693 3.25624821 2.14146442 3.25624821 2.14146442 3.56891143 2.96398577 3.56891143 2.96900115 3.57364875 2.96900115 3.96684644 2.14146442 3.96684644 2.14146442 4.27950966 2.96900115 4.27950966 2.96900115 4.99010789 3.60093828 4.99010789 3.60093828 4.27950966 4.43349038 4.27950966 4.43349038 3.96684644 3.60093828 3.96684644 3.60093828 3.57364875 3.60595366 3.56891143 4.43349038 3.56891143 4.43349038 3.25624821 3.7915225 3.25624821 4.75447432 1.60766031 4.0422912 1.60766031 3.28496971 3.0335941 2.52764823 1.60766031"></polygon>
                                <polygon id="￥" fill="#FDE403" fill-rule="evenodd" transform="translate(3.305422, 3.495737) scale(-1, -1) translate(-3.305422, -3.495737) " points="1.8359171 1.80451329 2.79886892 3.45310119 2.16191641 3.45310119 2.16191641 3.76576441 2.98443776 3.76576441 2.98945314 3.77050173 2.98945314 4.16369942 2.16191641 4.16369942 2.16191641 4.47636264 2.98945314 4.47636264 2.98945314 5.18696087 3.62139027 5.18696087 3.62139027 4.47636264 4.45394237 4.47636264 4.45394237 4.16369942 3.62139027 4.16369942 3.62139027 3.77050173 3.62640565 3.76576441 4.45394237 3.76576441 4.45394237 3.45310119 3.81197449 3.45310119 4.77492631 1.80451329 4.06274319 1.80451329 3.3054217 3.23044708 2.54810022 1.80451329"></polygon>
                            </g>
                        </g>
                    </g>
                    <g id="Group-32" transform="translate(11.823439, 11.611890) scale(1, -1) rotate(45.000000) translate(-11.823439, -11.611890) translate(4.823439, 2.611890)">
                        <mask id="mask-13" fill="white">
                            <use xlink:href="#path-12"></use>
                        </mask>
                        <g id="Rectangle-11">
                            <use fill="url(#linearGradient-1)" fill-rule="evenodd" xlink:href="#path-12"></use>
                            <use fill="black" fill-opacity="1" filter="url(#filter-14)" xlink:href="#path-12"></use>
                            <path stroke="#E12E12" stroke-width="1" d="M3.8458278,0.5 C2.70208522,0.5 2.24379883,0.588499184 1.77053087,0.841605655 C1.36877622,1.05646639 1.05646639,1.36877622 0.841605655,1.77053087 C0.588499184,2.24379883 0.5,2.70208522 0.5,3.8458278 L0.5,13.3612092 C0.5,14.5049518 0.588499184,14.9632382 0.841605655,15.4365062 C1.05646639,15.8382608 1.36877622,16.1505706 1.77053087,16.3654314 C2.24379883,16.6185379 2.70208522,16.707037 3.8458278,16.707037 L10.1259571,16.707037 C11.2696996,16.707037 11.727986,16.6185379 12.201254,16.3654314 C12.6030086,16.1505706 12.9153185,15.8382608 13.1301792,15.4365062 C13.3832857,14.9632382 13.4717849,14.5049518 13.4717849,13.3612092 L13.4717849,3.8458278 C13.4717849,2.70208522 13.3832857,2.24379883 13.1301792,1.77053087 C12.9153185,1.36877622 12.6030086,1.05646639 12.201254,0.841605655 C11.727986,0.588499184 11.2696996,0.5 10.1259571,0.5 L3.8458278,0.5 Z"></path>
                        </g>
                        <g id="Line-3" stroke-linecap="square" mask="url(#mask-13)">
                            <use fill="black" fill-opacity="1" filter="url(#filter-16)" xlink:href="#path-15"></use>
                            <use stroke="#FDE403" stroke-width="2" xlink:href="#path-15"></use>
                        </g>
                        <g id="Group-6" mask="url(#mask-13)">
                            <g transform="translate(3.605622, 7.697885)">
                                <g id="Oval-6" fill="none" transform="translate(3.328543, 3.573771) scale(-1, 1) translate(-3.328543, -3.573771) ">
                                    <use fill="black" fill-opacity="1" filter="url(#filter-18)" xlink:href="#path-17"></use>
                                    <use fill="#FEE404" fill-rule="evenodd" xlink:href="#path-17"></use>
                                    <use fill="black" fill-opacity="1" filter="url(#filter-19)" xlink:href="#path-17"></use>
                                </g>
                                <g id="Oval-6" fill="none" transform="translate(3.328280, 3.573490) scale(-1, 1) translate(-3.328280, -3.573490) ">
                                    <use fill="#ECB122" fill-rule="evenodd" xlink:href="#path-20"></use>
                                    <use fill="black" fill-opacity="1" filter="url(#filter-21)" xlink:href="#path-20"></use>
                                </g>
                                <polygon id="￥" fill="#DDA10D" fill-rule="evenodd" transform="translate(3.284970, 3.298884) scale(-1, -1) translate(-3.284970, -3.298884) " points="1.81546511 1.60766031 2.77841693 3.25624821 2.14146442 3.25624821 2.14146442 3.56891143 2.96398577 3.56891143 2.96900115 3.57364875 2.96900115 3.96684644 2.14146442 3.96684644 2.14146442 4.27950966 2.96900115 4.27950966 2.96900115 4.99010789 3.60093828 4.99010789 3.60093828 4.27950966 4.43349038 4.27950966 4.43349038 3.96684644 3.60093828 3.96684644 3.60093828 3.57364875 3.60595366 3.56891143 4.43349038 3.56891143 4.43349038 3.25624821 3.7915225 3.25624821 4.75447432 1.60766031 4.0422912 1.60766031 3.28496971 3.0335941 2.52764823 1.60766031"></polygon>
                                <polygon id="￥" fill="#FDE403" fill-rule="evenodd" transform="translate(3.305422, 3.495737) scale(-1, -1) translate(-3.305422, -3.495737) " points="1.8359171 1.80451329 2.79886892 3.45310119 2.16191641 3.45310119 2.16191641 3.76576441 2.98443776 3.76576441 2.98945314 3.77050173 2.98945314 4.16369942 2.16191641 4.16369942 2.16191641 4.47636264 2.98945314 4.47636264 2.98945314 5.18696087 3.62139027 5.18696087 3.62139027 4.47636264 4.45394237 4.47636264 4.45394237 4.16369942 3.62139027 4.16369942 3.62139027 3.77050173 3.62640565 3.76576441 4.45394237 3.76576441 4.45394237 3.45310119 3.81197449 3.45310119 4.77492631 1.80451329 4.06274319 1.80451329 3.3054217 3.23044708 2.54810022 1.80451329"></polygon>
                            </g>
                        </g>
                    </g>
                </g>
                <g id="Group-32" transform="translate(27.044118, 15.000000) scale(-1, -1) translate(-27.044118, -15.000000) translate(15.044118, 0.500000)">
                    <mask id="mask-23" fill="white">
                        <use xlink:href="#path-22"></use>
                    </mask>
                    <g id="Rectangle-11">
                        <use fill="url(#linearGradient-1)" fill-rule="evenodd" xlink:href="#path-22"></use>
                        <use fill="black" fill-opacity="1" filter="url(#filter-24)" xlink:href="#path-22"></use>
                        <path stroke="#E12E12" stroke-width="1" d="M4.26494545,0.5 C3.12120286,0.5 2.66291647,0.588499184 2.18964852,0.841605655 C1.78789387,1.05646639 1.47558404,1.36877622 1.2607233,1.77053087 C1.00761683,2.24379883 0.919117647,2.70208522 0.919117647,3.8458278 L0.919117647,24.6541722 C0.919117647,25.7979148 1.00761683,26.2562012 1.2607233,26.7294691 C1.47558404,27.1312238 1.78789387,27.4435336 2.18964852,27.6583943 C2.66291647,27.9115008 3.12120286,28 4.26494545,28 L19.2056428,28 C20.3493854,28 20.8076718,27.9115008 21.2809397,27.6583943 C21.6826944,27.4435336 21.9950042,27.1312238 22.2098649,26.7294691 C22.4629714,26.2562012 22.5514706,25.7979148 22.5514706,24.6541722 L22.5514706,3.8458278 C22.5514706,2.70208522 22.4629714,2.24379883 22.2098649,1.77053087 C21.9950042,1.36877622 21.6826944,1.05646639 21.2809397,0.841605655 C20.8076718,0.588499184 20.3493854,0.5 19.2056428,0.5 L4.26494545,0.5 Z"></path>
                    </g>
                    <g id="Line-3" stroke-linecap="square" mask="url(#mask-23)">
                        <use fill="black" fill-opacity="1" filter="url(#filter-26)" xlink:href="#path-25"></use>
                        <use stroke="#FDE403" stroke-width="2" xlink:href="#path-25"></use>
                    </g>
                    <g id="Group-6" mask="url(#mask-23)">
                        <g transform="translate(6.056926, 12.750000)">
                            <g id="Oval-6" transform="translate(5.448529, 5.448529) scale(-1, 1) translate(-5.448529, -5.448529) ">
                                <use fill="black" fill-opacity="1" filter="url(#filter-28)" xlink:href="#path-27"></use>
                                <use fill="#FEE404" fill-rule="evenodd" xlink:href="#path-27"></use>
                                <use fill="black" fill-opacity="1" filter="url(#filter-29)" xlink:href="#path-27"></use>
                            </g>
                            <g id="Oval-6" transform="translate(5.448529, 5.448529) scale(-1, 1) translate(-5.448529, -5.448529) ">
                                <use fill="#ECB122" fill-rule="evenodd" xlink:href="#path-30"></use>
                                <use fill="black" fill-opacity="1" filter="url(#filter-31)" xlink:href="#path-30"></use>
                            </g>
                            <g id="Group-12" stroke-width="1" fill-rule="evenodd" transform="translate(2.933824, 2.514706)">
                                <polygon id="￥" fill="#DDA10D" transform="translate(2.574489, 2.527914) scale(-1, -1) translate(-2.574489, -2.527914) " points="0.45858367 0.126908961 1.84511554 2.46738438 0.927982479 2.46738438 0.927982479 2.91126765 2.11231178 2.91126765 2.1195333 2.91799315 2.1195333 3.47620999 0.927982479 3.47620999 0.927982479 3.92009326 2.1195333 3.92009326 2.1195333 4.92891887 3.02944484 4.92891887 3.02944484 3.92009326 4.22821718 3.92009326 4.22821718 3.47620999 3.02944484 3.47620999 3.02944484 2.91799315 3.03666636 2.91126765 4.22821718 2.91126765 4.22821718 2.46738438 3.3038626 2.46738438 4.69039447 0.126908961 3.66493861 0.126908961 2.57448907 2.15128569 1.48403953 0.126908961"></polygon>
                                <polygon id="￥" fill="#FDE403" transform="translate(2.603937, 2.807383) scale(-1, -1) translate(-2.603937, -2.807383) " points="0.488032013 0.40637817 1.87456388 2.74685359 0.957430822 2.74685359 0.957430822 3.19073685 2.14176012 3.19073685 2.14898164 3.19746236 2.14898164 3.7556792 0.957430822 3.7556792 0.957430822 4.19956247 2.14898164 4.19956247 2.14898164 5.20838808 3.05889318 5.20838808 3.05889318 4.19956247 4.25766553 4.19956247 4.25766553 3.7556792 3.05889318 3.7556792 3.05889318 3.19746236 3.0661147 3.19073685 4.25766553 3.19073685 4.25766553 2.74685359 3.33331095 2.74685359 4.71984281 0.40637817 3.69438695 0.40637817 2.60393741 2.4307549 1.51348787 0.40637817"></polygon>
                            </g>
                        </g>
                    </g>
                </g>
            </g>
            <path d="M22.784,17.192 L22.784,16.148 L18.092,16.148 L18.092,17.192 L22.784,17.192 Z M18.092,19.172 L22.784,19.172 L22.784,18.128 L18.092,18.128 L18.092,19.172 Z M25.256,13.976 L18.848,13.976 C18.656,14.384 18.44,14.792 18.224,15.176 L23.876,15.176 L23.876,21.152 C23.876,21.752 23.756,22.088 23.324,22.256 C22.904,22.436 22.232,22.436 21.236,22.436 C21.2,22.136 21.032,21.656 20.888,21.356 C21.596,21.392 22.316,21.392 22.52,21.38 C22.724,21.38 22.784,21.32 22.784,21.14 L22.784,20.108 L18.092,20.108 L18.092,22.448 L16.988,22.448 L16.988,16.952 C16.46,17.576 15.86,18.14 15.188,18.608 C15.02,18.368 14.684,17.948 14.456,17.744 C15.812,16.832 16.856,15.452 17.612,13.976 L14.78,13.976 L14.78,12.932 L18.068,12.932 C18.272,12.428 18.44,11.924 18.572,11.432 L19.712,11.696 C19.58,12.104 19.448,12.524 19.292,12.932 L25.256,12.932 L25.256,13.976 Z M26.66,21.872 L26.456,20.732 C27.524,20.54 29.132,20.216 30.668,19.88 L30.788,20.936 C29.336,21.272 27.824,21.608 26.66,21.872 Z M28.448,17.924 L30.812,17.588 C30.788,17.888 30.824,18.332 30.86,18.56 C27.62,19.076 27.152,19.172 26.852,19.34 C26.792,19.124 26.612,18.56 26.48,18.26 C26.78,18.2 27.056,17.936 27.452,17.492 C27.668,17.3 28.1,16.808 28.592,16.16 C27.272,16.304 26.96,16.376 26.768,16.472 C26.708,16.232 26.516,15.68 26.384,15.392 C26.624,15.332 26.828,15.068 27.116,14.672 C27.392,14.3 28.292,12.812 28.808,11.408 L29.924,11.876 C29.384,13.04 28.676,14.264 27.968,15.236 L29.324,15.116 C29.612,14.72 29.864,14.288 30.104,13.868 L31.088,14.492 C30.32,15.704 29.396,16.916 28.448,17.924 Z M34.76,20.588 L37.448,20.588 L37.448,21.704 L30.908,21.704 L30.908,20.588 L33.548,20.588 L33.548,13.616 L31.076,13.616 L31.076,12.5 L37.196,12.5 L37.196,13.616 L34.76,13.616 L34.76,20.588 Z M44.204,16.124 L41.456,16.124 L41.456,17.792 L44.204,17.792 L44.204,16.124 Z M42.92,21.152 L47.132,21.152 C48.152,21.152 48.308,20.912 48.44,19.724 C48.728,19.904 49.196,20.072 49.52,20.132 C49.316,21.74 48.896,22.196 47.192,22.196 L42.944,22.196 C40.94,22.196 40.352,21.836 40.352,20.348 L40.352,15.32 C40.028,15.668 39.68,15.992 39.344,16.28 C39.152,16.064 38.696,15.632 38.42,15.44 C39.728,14.504 40.904,12.98 41.588,11.384 L42.716,11.708 C42.524,12.152 42.308,12.596 42.056,13.016 L48.524,13.016 C48.524,13.016 48.512,13.364 48.512,13.508 C48.38,17.372 48.272,18.776 47.936,19.208 C47.708,19.532 47.48,19.628 47.132,19.676 C46.82,19.712 46.304,19.712 45.752,19.688 C45.74,19.376 45.62,18.92 45.464,18.632 C45.932,18.68 46.364,18.692 46.568,18.68 C46.724,18.692 46.844,18.656 46.952,18.512 C47.144,18.248 47.264,17.108 47.372,14.072 L41.36,14.072 C41.096,14.444 40.808,14.816 40.52,15.14 L45.296,15.14 L45.296,18.8 L41.456,18.8 L41.456,20.348 C41.456,21.008 41.66,21.152 42.92,21.152 Z M16.988,25.456 L18.056,25.888 C17.312,26.944 16.148,28.072 15.08,28.792 C14.96,28.528 14.696,28.084 14.516,27.856 C15.44,27.256 16.484,26.284 16.988,25.456 Z M17.24,28.072 L18.212,28.468 C17.936,28.948 17.6,29.452 17.24,29.932 L17.24,36.448 L16.172,36.448 L16.172,31.18 C15.764,31.624 15.32,32.02 14.912,32.344 C14.828,32.104 14.54,31.504 14.36,31.228 C15.416,30.472 16.556,29.272 17.24,28.072 Z M18.884,33.124 L19.784,32.644 C20.336,33.256 20.948,34.108 21.224,34.684 L20.252,35.236 C20.012,34.66 19.424,33.772 18.884,33.124 Z M25.52,30.232 L23.924,30.232 L23.924,31.396 L25.436,31.396 L25.436,32.416 L23.924,32.416 L23.924,35.2 C23.924,35.8 23.804,36.1 23.384,36.256 C22.976,36.436 22.34,36.448 21.428,36.448 C21.38,36.136 21.224,35.68 21.08,35.38 C21.728,35.416 22.388,35.416 22.58,35.404 C22.76,35.392 22.82,35.344 22.82,35.176 L22.82,32.416 L18.08,32.416 L18.08,31.396 L22.82,31.396 L22.82,30.232 L17.948,30.232 L17.948,29.212 L21.176,29.212 L21.176,27.916 L18.644,27.916 L18.644,26.896 L21.176,26.896 L21.176,25.48 L22.28,25.48 L22.28,26.896 L24.932,26.896 L24.932,27.916 L22.28,27.916 L22.28,29.212 L25.52,29.212 L25.52,30.232 Z M32.324,28.192 L33.824,28.192 C33.968,27.844 34.112,27.412 34.22,27.04 L32.036,27.04 L32.036,26.056 L37.376,26.056 L37.376,27.04 L35.252,27.04 C35.096,27.424 34.94,27.844 34.808,28.192 L37.076,28.192 L37.076,33.76 L36.044,33.76 L36.044,29.02 L33.32,29.02 L33.32,33.772 L32.324,33.772 L32.324,28.192 Z M32.084,28.912 L31.4,29.704 C30.98,29.056 30.152,28.084 29.384,27.292 C28.784,28.348 28.016,29.32 27.164,30.088 C26.996,29.896 26.636,29.548 26.396,29.38 C27.608,28.384 28.64,26.812 29.168,25.408 L30.14,25.696 C30.044,25.936 29.936,26.176 29.828,26.416 C30.644,27.22 31.616,28.252 32.084,28.912 Z M28.46,29.008 L29.156,28.576 C29.624,28.996 30.128,29.548 30.38,29.92 L29.648,30.448 C29.396,30.052 28.88,29.44 28.46,29.008 Z M30.872,30.7 L31.592,31.132 C31.124,32.272 30.308,33.64 29.672,34.588 C30.056,34.972 30.404,35.368 30.644,35.668 L29.84,36.328 C29.348,35.62 28.268,34.504 27.392,33.724 L28.136,33.16 C28.4,33.376 28.676,33.64 28.964,33.892 C29.384,33.268 29.864,32.452 30.224,31.72 L27.284,31.72 L27.284,30.76 L30.704,30.76 L30.872,30.7 Z M34.232,29.512 L35.156,29.512 C35.12,33.808 34.916,35.56 31.892,36.508 C31.808,36.268 31.532,35.908 31.352,35.728 C34.1,34.924 34.208,33.508 34.232,29.512 Z M34.628,34.396 L35.3,33.808 C36.056,34.384 37.052,35.224 37.544,35.752 L36.836,36.436 C36.356,35.896 35.396,35.02 34.628,34.396 Z M40.424,31.888 L40.424,33.532 C40.964,33.46 41.54,33.364 42.14,33.28 L42.14,31.888 L40.424,31.888 Z M42.14,26.968 L40.424,26.968 L40.424,28.432 L42.14,28.432 L42.14,26.968 Z M40.424,29.38 L40.424,30.928 L42.14,30.928 L42.14,29.38 L40.424,29.38 Z M44.264,33.904 L43.232,34.096 L43.232,36.436 L42.14,36.436 L42.14,34.3 C40.892,34.516 39.692,34.732 38.732,34.9 L38.492,33.808 C38.756,33.772 39.056,33.736 39.356,33.7 L39.356,26.968 L38.624,26.968 L38.624,25.96 L44.036,25.96 L44.036,26.968 L43.232,26.968 L43.232,33.112 L44.204,32.956 L44.264,33.904 Z M48.008,27.796 L45.596,27.796 C45.848,29.332 46.22,30.772 46.748,31.996 C47.324,30.784 47.744,29.38 48.008,27.796 Z M48.476,26.692 L49.172,26.884 C48.872,29.464 48.248,31.54 47.36,33.172 C47.948,34.156 48.68,34.948 49.592,35.488 C49.352,35.692 49.004,36.076 48.824,36.364 C47.984,35.812 47.288,35.068 46.724,34.192 C46.064,35.116 45.308,35.872 44.456,36.46 C44.288,36.184 43.988,35.812 43.736,35.608 C44.648,35.056 45.452,34.216 46.136,33.136 C45.404,31.636 44.924,29.824 44.6,27.796 L44.096,27.796 L44.096,26.728 L48.284,26.728 L48.476,26.692 Z" id="有红包-待领取" fill="#FFFFFF"></path>
            <circle id="Oval-7" fill="#FF0000" cx="56" cy="9.5" r="3.5"></circle>
        </g>
    </g>
</svg>