<?xml version="1.0" encoding="UTF-8"?>
<svg width="180px" height="48px" viewBox="0 0 180 48" version="1.1" xmlns="http://www.w3.org/2000/svg" xmlns:xlink="http://www.w3.org/1999/xlink">
    <!-- Generator: Sketch 49 (51002) - http://www.bohemiancoding.com/sketch -->
    <title>goButton</title>
    <desc>Created with Sketch.</desc>
    <defs>
        <linearGradient x1="50%" y1="0%" x2="50%" y2="100%" id="linearGradient-1">
            <stop stop-color="#54C9FF" offset="0%"></stop>
            <stop stop-color="#2A99FE" offset="100%"></stop>
        </linearGradient>
        <rect id="path-2" x="0" y="0" width="180" height="48" rx="24"></rect>
    </defs>
    <g id="彩蛋计划-V3.1（满额即开）" stroke="none" stroke-width="1" fill="none" fill-rule="evenodd">
        <g id="1.-彩蛋计划--首页未购买-封面广告-2-黄" transform="translate(-100.000000, -780.000000)">
            <g id="goButton" transform="translate(100.000000, 780.000000)">
                <g id="Rectangle-3">
                    <use fill="url(#linearGradient-1)" fill-rule="evenodd" xlink:href="#path-2"></use>
                    <rect stroke="#FFFFFF" stroke-width="2" x="1" y="1" width="178" height="46" rx="23"></rect>
                </g>
                <path d="M60.34,18.52 L60.34,20.42 C60.34,20.84 60.32,21.28 60.3,21.74 L63.18,21.74 L63.18,18.52 L60.34,18.52 Z M63.18,23.52 L60.08,23.52 C59.76,25.38 58.98,27.22 57.34,28.52 C57.08,28.14 56.36,27.44 55.96,27.18 C57.26,26.16 57.92,24.88 58.22,23.52 L55.7,23.52 L55.7,21.74 L58.46,21.74 C58.5,21.28 58.5,20.84 58.5,20.4 L58.5,18.52 L55.84,18.52 L55.84,16.74 L58.5,16.74 L58.5,13.7 L60.34,13.7 L60.34,16.74 L63.18,16.74 L63.18,13.7 L65.02,13.7 L65.02,16.74 L67.46,16.74 L67.46,18.52 L65.02,18.52 L65.02,21.74 L67.84,21.74 L67.84,23.52 L65.02,23.52 L65.02,28.32 L63.18,28.32 L63.18,23.52 Z M54.98,16.82 L53.58,18 C52.98,17.1 51.64,15.66 50.54,14.66 L51.88,13.62 C52.96,14.58 54.34,15.94 54.98,16.82 Z M54.42,20.4 L54.42,27.6 C54.78,27.82 55.16,28.14 55.74,28.48 C57.04,29.26 58.8,29.38 61.02,29.38 C63.24,29.38 66.32,29.22 68.28,28.96 C68.06,29.48 67.76,30.38 67.72,30.9 C66.34,31 62.9,31.12 60.94,31.12 C58.48,31.12 56.82,30.88 55.4,30.06 C54.54,29.54 53.9,28.9 53.44,28.9 C52.82,28.9 51.88,30.12 51,31.4 L49.76,29.68 C50.74,28.64 51.74,27.82 52.6,27.44 L52.6,22.12 L50.06,22.12 L50.06,20.4 L54.42,20.4 Z M74.74,15.1 L75.9,13.52 C82.2,18.08 81.78,25.3 88.28,29.28 C87.96,29.8 87.48,30.82 87.38,31.4 C83.04,28.96 81.5,24.62 79.4,20.76 C77.88,25.66 75.38,29.16 71.54,31.42 C71.22,31.02 70.32,30.24 69.84,29.9 C74.2,27.7 76.66,23.76 77.9,18.28 C77.04,17.06 76.04,16 74.74,15.1 Z M95.6,15.52 L94.5,17.02 C93.68,16.44 92.02,15.48 90.84,14.82 L91.88,13.5 C93.04,14.06 94.74,14.96 95.6,15.52 Z M94.58,20.88 L93.56,22.42 C92.74,21.86 91.08,20.9 89.88,20.28 L90.9,18.9 C92.04,19.46 93.74,20.34 94.58,20.88 Z M91.84,31.32 L90.28,30.08 C91.34,28.58 92.88,26.02 94.04,23.76 L95.38,25 C94.36,27.06 93.02,29.46 91.84,31.32 Z M105.18,29.04 L105.18,25.44 L98.56,25.44 L98.56,29.04 L105.18,29.04 Z M108.12,20.8 L102.82,20.8 L102.82,23.76 L106.94,23.76 L106.94,31.46 L105.18,31.46 L105.18,30.72 L98.56,30.72 L98.56,31.56 L96.86,31.56 L96.86,23.76 L101.06,23.76 L101.06,20.8 L95.5,20.8 L95.5,19.02 L101.06,19.02 L101.06,16.18 C99.66,16.4 98.22,16.56 96.9,16.66 C96.82,16.22 96.58,15.52 96.36,15.1 C99.78,14.74 103.66,14.1 105.86,13.28 L107.32,14.72 C106.04,15.2 104.48,15.58 102.82,15.88 L102.82,19.02 L108.12,19.02 L108.12,20.8 Z M118.5,14.82 L118.5,16.46 L110.8,16.46 L110.8,14.82 L118.5,14.82 Z M119.34,28.08 L117.74,28.62 C117.66,28.28 117.54,27.88 117.42,27.44 C112.18,28.7 111.42,28.98 110.9,29.26 L110.9,29.2 C110.88,29.22 110.88,29.24 110.88,29.26 C110.78,28.9 110.48,28.02 110.3,27.58 C110.62,27.46 110.92,26.94 111.24,26.22 C111.48,25.6 112.28,23.4 112.76,21.16 L110.12,21.16 L110.12,19.48 L118.86,19.48 L118.86,21.16 L114.66,21.16 C114.2,23.1 113.48,25.12 112.78,26.82 L116.92,25.88 C116.6,24.94 116.24,23.94 115.88,23.1 L117.38,22.7 C118.16,24.42 119,26.72 119.34,28.08 Z M123.5,17.68 L127.86,17.68 C127.86,17.68 127.84,18.32 127.84,18.58 C127.6,26.68 127.38,29.52 126.7,30.4 C126.28,30.98 125.84,31.18 125.18,31.28 C124.56,31.36 123.5,31.34 122.46,31.28 C122.42,30.76 122.2,30 121.9,29.48 C122.96,29.56 123.9,29.56 124.32,29.56 C124.68,29.58 124.88,29.52 125.08,29.26 C125.56,28.68 125.8,26.14 126,19.46 L123.42,19.46 C123.16,24.4 122.32,28.8 119.44,31.56 C119.16,31.1 118.52,30.46 118.04,30.18 C120.64,27.78 121.38,23.9 121.62,19.46 L119.12,19.46 L119.12,17.68 L121.68,17.68 C121.72,16.34 121.72,14.98 121.72,13.58 L123.56,13.58 C123.56,14.98 123.54,16.34 123.5,17.68 Z" id="进入活动" fill="#FFFFFF"></path>
                <g id="Group-19" transform="translate(156.500000, 23.000000) scale(-1, 1) rotate(90.000000) translate(-156.500000, -23.000000) translate(151.000000, 18.000000)" stroke="#FFFFFF" stroke-linecap="round" stroke-width="2">
                    <polyline id="Line-4" points="0 0 5.5 4.03333333 11 0"></polyline>
                    <polyline id="Line-4" opacity="0.5" points="0 5.5 5.5 9.53333333 11 5.5"></polyline>
                </g>
            </g>
        </g>
    </g>
</svg>