<?xml version="1.0" encoding="UTF-8"?>
<svg width="50px" height="38px" viewBox="0 0 50 38" version="1.1" xmlns="http://www.w3.org/2000/svg" xmlns:xlink="http://www.w3.org/1999/xlink">
    <!-- Generator: Sketch 48.1 (47250) - http://www.bohemiancoding.com/sketch -->
    <title>开奖规则</title>
    <desc>Created with Sketch.</desc>
    <defs></defs>
    <g id="7.-已中奖" stroke="none" stroke-width="1" fill="none" fill-rule="evenodd" transform="translate(-325.000000, -74.000000)">
        <g id="开奖规则" transform="translate(325.000000, 74.000000)">
            <path d="M19,0 L50,0 L50,38 L19,38 C8.50658975,38 1.28507213e-15,29.4934102 0,19 L0,19 C-1.28507213e-15,8.50658975 8.50658975,1.92760819e-15 19,0 Z" id="Rectangle-26" fill="#000000" opacity="0.5"></path>
            <path d="M40.6764352,15.38119 C40.4659098,15.2024901 40.4401101,14.8869606 40.61881,14.6764352 C40.7975099,14.4659098 41.1130394,14.4401101 41.3235648,14.61881 L46.7477224,19.2229875 L41.3445978,24.3622876 C41.1445119,24.5526038 40.8280285,24.5446838 40.6377124,24.3445978 C40.4473962,24.1445119 40.4553162,23.8280285 40.6554022,23.6377124 L45.2522776,19.2652937 L40.6764352,15.38119 Z" id="Line" fill="#FFFFFF" fill-rule="nonzero"></path>
            <path d="M17.072,11.924 L20.144,11.924 L20.144,8.732 L17.072,8.732 L17.072,11.924 Z M23.876,11.924 L23.876,12.992 L21.308,12.992 L21.308,17.96 L20.144,17.96 L20.144,12.992 L17,12.992 C16.82,14.828 16.184,16.652 14.048,17.996 C13.856,17.744 13.424,17.348 13.148,17.168 C15.032,16.016 15.656,14.504 15.848,12.992 L13.16,12.992 L13.16,11.924 L15.932,11.924 L15.932,8.732 L13.568,8.732 L13.568,7.676 L23.504,7.676 L23.504,8.732 L21.308,8.732 L21.308,11.924 L23.876,11.924 Z M35.228,7.904 L35.888,8.216 C34.952,11.108 32.6,12.32 29.648,12.836 C29.54,12.584 29.24,12.128 29.048,11.912 C30.104,11.756 31.064,11.54 31.904,11.168 C31.556,10.748 31.052,10.256 30.62,9.86 L31.424,9.368 C31.88,9.764 32.444,10.28 32.792,10.712 C33.524,10.256 34.1,9.656 34.496,8.876 L31.376,8.876 C30.884,9.344 30.344,9.764 29.804,10.064 C29.66,9.836 29.348,9.452 29.132,9.248 C30.164,8.708 31.16,7.76 31.58,6.896 L32.648,7.244 C32.528,7.484 32.372,7.712 32.192,7.94 L35.024,7.94 L35.228,7.904 Z M27.284,9.332 L26.384,9.836 C26.216,9.332 25.76,8.564 25.34,7.988 L26.18,7.556 C26.624,8.096 27.104,8.828 27.284,9.332 Z M27.752,12.86 L27.752,10.964 C26.972,11.408 26.192,11.84 25.52,12.188 L25.064,11.228 C25.736,10.916 26.744,10.4 27.752,9.884 L27.752,6.944 L28.832,6.944 L28.832,12.86 L27.752,12.86 Z M35.744,14.66 L31.352,14.66 C32.12,15.992 33.704,16.676 36.032,16.88 C35.78,17.12 35.504,17.564 35.36,17.876 C32.996,17.552 31.448,16.748 30.5,15.188 C29.828,16.532 28.496,17.456 25.592,17.936 C25.508,17.66 25.256,17.24 25.064,17 C27.812,16.592 28.964,15.812 29.504,14.66 L25.244,14.66 L25.244,13.676 L29.804,13.676 C29.864,13.412 29.912,13.148 29.948,12.848 L31.112,12.848 C31.076,13.136 31.028,13.412 30.98,13.676 L35.744,13.676 L35.744,14.66 Z M19.22,21.468 L19.22,26.796 L18.164,26.796 L18.164,20.496 L23.384,20.496 L23.384,26.796 L22.28,26.796 L22.28,21.468 L19.22,21.468 Z M17.792,28.356 L17.024,29.184 C16.748,28.716 16.148,27.9 15.644,27.264 C15.356,28.56 14.804,29.844 13.736,30.828 C13.568,30.6 13.208,30.24 12.932,30.048 C14.276,28.908 14.708,27.192 14.84,25.656 L13.028,25.656 L13.028,24.6 L14.9,24.6 C14.912,24.348 14.912,24.108 14.912,23.88 L14.912,22.872 L13.292,22.872 L13.292,21.84 L14.912,21.84 L14.912,20.064 L15.968,20.064 L15.968,21.84 L17.516,21.84 L17.516,22.872 L15.968,22.872 L15.968,23.88 C15.968,24.12 15.968,24.348 15.956,24.6 L17.66,24.6 L17.66,25.656 L15.896,25.656 C15.884,25.812 15.872,25.968 15.848,26.124 C16.328,26.604 17.528,28.008 17.792,28.356 Z M21.956,29.82 L22.676,29.82 C23.012,29.82 23.084,29.508 23.132,27.936 C23.372,28.128 23.756,28.296 24.008,28.344 C23.9,30.192 23.744,30.684 22.676,30.684 L21.788,30.684 C20.948,30.684 20.612,30.432 20.612,29.532 L20.612,27.84 C20.084,28.992 19.136,30.108 17.564,30.936 C17.444,30.72 17.072,30.288 16.868,30.132 C19.88,28.584 20.24,26.292 20.24,24.468 L20.24,22.356 L21.272,22.356 L21.272,24.492 C21.272,25.104 21.224,25.776 21.068,26.448 L21.596,26.448 L21.596,29.424 C21.596,29.736 21.704,29.82 21.956,29.82 Z M28.316,28.656 L29,27.96 C29.708,28.536 30.716,29.364 31.208,29.892 L30.5,30.684 C30.032,30.144 29.048,29.268 28.316,28.656 Z M25.64,20.532 L30.944,20.532 L30.944,27.756 L29.864,27.756 L29.864,21.528 L26.672,21.528 L26.672,27.792 L25.64,27.792 L25.64,20.532 Z M34.328,20.04 L35.432,20.04 L35.432,29.46 C35.432,30.168 35.264,30.492 34.844,30.672 C34.412,30.852 33.692,30.888 32.6,30.888 C32.54,30.576 32.372,30.06 32.192,29.748 C33.008,29.772 33.764,29.772 34.004,29.76 C34.232,29.76 34.328,29.688 34.328,29.448 L34.328,20.04 Z M32.108,21.012 L33.152,21.012 L33.152,28.212 L32.108,28.212 L32.108,21.012 Z M27.728,22.296 L28.772,22.296 L28.772,25.716 C28.772,27.54 28.34,29.712 25.664,30.972 C25.556,30.732 25.196,30.3 24.992,30.12 C27.44,28.968 27.728,27.264 27.728,25.692 L27.728,22.296 Z" id="开奖-规则" fill="#FFFFFF"></path>
        </g>
    </g>
</svg>