<?xml version="1.0" encoding="UTF-8"?>
<svg width="275px" height="96px" viewBox="0 0 275 96" version="1.1" xmlns="http://www.w3.org/2000/svg" xmlns:xlink="http://www.w3.org/1999/xlink">
    <!-- Generator: Sketch 43.1 (39012) - http://www.bohemiancoding.com/sketch -->
    <title>无优惠券插图</title>
    <desc>Created with Sketch.</desc>
    <defs>
        <path d="M17,22 L12,25.2695606 C12,25.2695606 15.1752744,30.8964995 15,30.9577775 C14,31.3073894 12.5785679,31.3102574 12.1874958,31.3496119 C11.3690932,31.4325987 10.827808,31.1442838 10.5170222,30.8876238 C10.4868069,30.8628133 10.4565916,30.8362918 10.4281029,30.8097702 C10.3512698,30.8628133 10.2675303,30.9141453 10.1889705,30.9577775 C9.42495547,31.3804111 8.48310187,31.4377319 7.72858304,31.1049293 C6.71680264,30.6591963 6.17206422,29.6308449 6.00803839,28.6375704 C4.67252279,28.4057208 3.44232905,27.836791 2.34076609,26.9410473 C1.3557478,26.1394123 -0.254295237,24.578919 0.0340449109,23.1382005 C0.0841159545,22.8883846 0.232602498,22.6668014 0.46828172,22.5547265 C0.693601416,22.4340963 0.962949099,22.4204078 1.20467138,22.5145165 L1.57329785,22.6633793 C2.1568845,22.9029287 2.37529785,22.9936153 2.92089956,22.8823959 C3.47168104,22.7694655 4.05008792,22.5898034 4.69065196,22.3331433 C5.9924991,21.8112678 7.26067777,21.2021279 8.45979294,20.5245453 C9.59588765,19.8820396 10.8830588,19.1556916 12.4041826,19.1753688 C13.8363871,19.193335 15.0268693,19.727188 15.9212417,20.6965076 L17,22 Z" id="path-1"></path>
        <path d="M40,8 L35,11.2695606 C35,11.2695606 38.1752744,16.8964995 38,16.9577775 C37,17.3073894 35.5785679,17.3102574 35.1874958,17.3496119 C34.3690932,17.4325987 33.827808,17.1442838 33.5170222,16.8876238 C33.4868069,16.8628133 33.4565916,16.8362918 33.4281029,16.8097702 C33.3512698,16.8628133 33.2675303,16.9141453 33.1889705,16.9577775 C32.4249555,17.3804111 31.4831019,17.4377319 30.728583,17.1049293 C29.7168026,16.6591963 29.1720642,15.6308449 29.0080384,14.6375704 C27.6725228,14.4057208 26.4423291,13.836791 25.3407661,12.9410473 C24.3557478,12.1394123 22.7457048,10.578919 23.0340449,9.13820045 C23.084116,8.88838464 23.2326025,8.66680144 23.4682817,8.55472654 C23.6936014,8.4340963 23.9629491,8.42040776 24.2046714,8.51451646 L24.5732979,8.6633793 C25.1568845,8.90292871 25.3752978,8.99361527 25.9208996,8.88239591 C26.471681,8.76946547 27.0500879,8.58980342 27.690652,8.33314334 C28.9924991,7.81126784 30.2606778,7.20212792 31.4597929,6.52454531 C32.5958876,5.88203958 33.8830588,5.15569156 35.4041826,5.17536883 C36.8363871,5.19333504 38.0268693,5.727188 38.9212417,6.69650757 L40,8 Z" id="path-2"></path>
    </defs>
    <g id="H5优化-&gt;-领券、会员卡样式合集" stroke="none" stroke-width="1" fill="none" fill-rule="evenodd">
        <g id="我" transform="translate(-401.000000, -496.000000)">
            <g id="无优惠券插图" transform="translate(401.000000, 496.000000)">
                <path d="M270.464556,95.5 C270.221941,93.8038529 268.763236,92.5 267,92.5 C265.236764,92.5 263.778059,93.8038529 263.535444,95.5 L260.464556,95.5 C260.221941,93.8038529 258.763236,92.5 257,92.5 C255.236764,92.5 253.778059,93.8038529 253.535444,95.5 L250.464556,95.5 C250.221941,93.8038529 248.763236,92.5 247,92.5 C245.236764,92.5 243.778059,93.8038529 243.535444,95.5 L240.464556,95.5 C240.221941,93.8038529 238.763236,92.5 237,92.5 C235.236764,92.5 233.778059,93.8038529 233.535444,95.5 L230.464556,95.5 C230.221941,93.8038529 228.763236,92.5 227,92.5 C225.236764,92.5 223.778059,93.8038529 223.535444,95.5 L220.464556,95.5 C220.221941,93.8038529 218.763236,92.5 217,92.5 C215.236764,92.5 213.778059,93.8038529 213.535444,95.5 L210.464556,95.5 C210.221941,93.8038529 208.763236,92.5 207,92.5 C205.236764,92.5 203.778059,93.8038529 203.535444,95.5 L200.464556,95.5 C200.221941,93.8038529 198.763236,92.5 197,92.5 C195.236764,92.5 193.778059,93.8038529 193.535444,95.5 L190.464556,95.5 C190.221941,93.8038529 188.763236,92.5 187,92.5 C185.236764,92.5 183.778059,93.8038529 183.535444,95.5 L180.464556,95.5 C180.221941,93.8038529 178.763236,92.5 177,92.5 C175.236764,92.5 173.778059,93.8038529 173.535444,95.5 L170.464556,95.5 C170.221941,93.8038529 168.763236,92.5 167,92.5 C165.236764,92.5 163.778059,93.8038529 163.535444,95.5 L160.464556,95.5 C160.221941,93.8038529 158.763236,92.5 157,92.5 C155.236764,92.5 153.778059,93.8038529 153.535444,95.5 L150.464556,95.5 C150.221941,93.8038529 148.763236,92.5 147,92.5 C145.236764,92.5 143.778059,93.8038529 143.535444,95.5 L140.464556,95.5 C140.221941,93.8038529 138.763236,92.5 137,92.5 C135.236764,92.5 133.778059,93.8038529 133.535444,95.5 L130.464556,95.5 C130.221941,93.8038529 128.763236,92.5 127,92.5 C125.236764,92.5 123.778059,93.8038529 123.535444,95.5 L120.464556,95.5 C120.221941,93.8038529 118.763236,92.5 117,92.5 C115.236764,92.5 113.778059,93.8038529 113.535444,95.5 L110.464556,95.5 C110.221941,93.8038529 108.763236,92.5 107,92.5 C105.236764,92.5 103.778059,93.8038529 103.535444,95.5 L100.464556,95.5 C100.221941,93.8038529 98.763236,92.5 97,92.5 C95.236764,92.5 93.7780593,93.8038529 93.5354444,95.5 L90.4645556,95.5 C90.2219407,93.8038529 88.763236,92.5 87,92.5 C85.236764,92.5 83.7780593,93.8038529 83.5354444,95.5 L80.4645556,95.5 C80.2219407,93.8038529 78.763236,92.5 77,92.5 C75.236764,92.5 73.7780593,93.8038529 73.5354444,95.5 L70.4645556,95.5 C70.2219407,93.8038529 68.763236,92.5 67,92.5 C65.236764,92.5 63.7780593,93.8038529 63.5354444,95.5 L60.4645556,95.5 C60.2219407,93.8038529 58.763236,92.5 57,92.5 C55.236764,92.5 53.7780593,93.8038529 53.5354444,95.5 L50.4645556,95.5 C50.2219407,93.8038529 48.763236,92.5 47,92.5 C45.236764,92.5 43.7780593,93.8038529 43.5354444,95.5 L40.4645556,95.5 C40.2219407,93.8038529 38.763236,92.5 37,92.5 C35.236764,92.5 33.7780593,93.8038529 33.5354444,95.5 L30.4645556,95.5 C30.2219407,93.8038529 28.763236,92.5 27,92.5 C25.236764,92.5 23.7780593,93.8038529 23.5354444,95.5 L20.4645556,95.5 C20.2219407,93.8038529 18.763236,92.5 17,92.5 C15.236764,92.5 13.7780593,93.8038529 13.5354444,95.5 L10.4645556,95.5 C10.2219407,93.8038529 8.76323595,92.5 7,92.5 C5.23676405,92.5 3.77805926,93.8038529 3.53544443,95.5 L0.5,95.5 L0.5,0.5 L274.5,0.5 L274.5,95.5 L270.464556,95.5 Z" id="Combined-Shape" stroke="#000000"></path>
                <path d="M71.7750316,74.0287781 L70.7219836,74.0287781 L70.6712343,73.749657 C71.0137921,73.7623443 71.3436626,73.7750316 71.673533,73.7750316 C71.9653415,73.7750316 72.1175894,73.6100964 72.1175894,73.2929133 L72.1175894,69.5120904 L72.3967106,69.5120904 L72.3967106,73.3563499 C72.3967106,73.8004063 72.181026,74.0287781 71.7750316,74.0287781 Z M66.8523495,69.651651 L66.8523495,74.1175894 L67.1314706,74.1175894 L67.1314706,69.2456566 C67.5501524,68.6112903 67.9180848,67.9134874 68.2225806,67.1649352 L67.9561468,67.1014986 C67.2964059,68.7254762 66.3194818,70.121082 65,71.3136905 L65.1776226,71.5166878 C65.7993015,70.9584454 66.3575438,70.3367665 66.8523495,69.651651 Z M70.8107949,67.0888113 L71.0645414,67.1522479 C70.8869189,67.6089916 70.6712343,68.0276733 70.4428625,68.4336677 L75.7588517,68.4336677 L75.7588517,68.6239776 C75.6066038,69.2583439 75.3909193,69.8800228 75.1371728,70.4890144 L74.8580516,70.4255778 C75.1244855,69.8927101 75.3274827,69.3217805 75.4797306,68.7127889 L70.2779273,68.7127889 C69.7704343,69.5120904 69.1487553,70.2352679 68.4382651,70.8696342 L68.2733299,70.666637 C69.3898145,69.6643383 70.2398653,68.4717297 70.8107949,67.0888113 Z M66.6747269,74.9422655 C66.3956058,76.0587502 66.0022987,77.0356742 65.469431,77.8603503 L65.6978029,78.0125982 C66.2306705,77.1752348 66.6493523,76.1729361 66.9411607,75.0057022 L66.6747269,74.9422655 Z M72.5997078,78.4059053 L69.2883159,78.4059053 C68.6920116,78.4059053 68.4002031,78.1267842 68.4002031,77.5812292 L68.4002031,74.688519 L68.6793243,74.688519 L68.6793243,77.5304799 C68.6793243,77.9364743 68.9076961,78.1394715 69.3771272,78.1394715 L72.5489585,78.1394715 C72.8788289,78.1394715 73.0945134,78.0633475 73.2086994,77.9110996 C73.3863219,77.6954151 73.5005078,77.0737362 73.5639445,76.0460628 L73.817691,76.1348741 C73.7669417,77.1752348 73.6273811,77.8349757 73.4243839,78.1140968 C73.2467613,78.3044067 72.9803275,78.4059053 72.5997078,78.4059053 Z M74.5281812,74.6504571 L74.2998093,74.7773303 C75.1117981,75.8684403 75.7461644,76.8580516 76.2029081,77.771539 L76.4185926,77.6066038 C75.9872236,76.756553 75.3528573,75.7669417 74.5281812,74.6504571 Z M70.4428625,70.9330708 L70.696609,71.0345694 C70.189116,72.0368681 69.605499,72.8996062 68.9457581,73.6227837 L68.7300736,73.4705358 C69.3898145,72.7600456 69.9607441,71.9099948 70.4428625,70.9330708 Z M74.1094995,70.9203835 L73.8430656,71.0091947 C74.4520572,71.7958089 74.9976122,72.6839217 75.5051052,73.6862204 L75.7461644,73.5720344 C75.264046,72.6077977 74.7184911,71.719685 74.1094995,70.9203835 Z M70.3540512,74.3205866 C71.0645414,75.0945134 71.5974091,75.7669417 71.9780288,76.325184 L71.749657,76.5028065 C71.3563499,75.8811276 70.8234822,75.196012 70.1383667,74.4601472 L70.3540512,74.3205866 Z M78.385128,67.4948057 L78.1948181,67.6851156 C79.1463675,68.3702311 79.907607,69.0172847 80.491224,69.6389636 L80.6942212,69.4359664 C80.0852296,68.7889128 79.3113028,68.1418593 78.385128,67.4948057 Z M85.9975231,78.3424687 C85.3124076,78.3424687 84.5765427,78.3297814 83.7899285,78.317094 C82.9906271,78.2917194 82.3562608,78.2155954 81.8868298,78.0633475 C81.4047114,77.9110996 80.960655,77.5812292 80.5419733,77.0737362 C80.3770381,76.8453643 80.2121028,76.7438657 80.0471676,76.7438657 C79.6411732,76.7438657 79.0448689,77.34017 78.2328801,78.5581532 L78.0045083,78.3805307 C78.7784351,77.2006094 79.4254887,76.5662432 79.9329817,76.4774319 L79.9329817,72.0114934 L77.915697,72.0114934 L77.915697,71.7323723 L80.1994155,71.7323723 L80.1994155,76.4774319 C80.3897254,76.5281812 80.5800353,76.6804291 80.7576578,76.9088009 C81.0875283,77.3147953 81.4554607,77.6192911 81.8868298,77.7969137 C82.3181988,77.9364743 82.9018158,78.0252855 83.6376806,78.0506602 C84.1959229,78.0633475 84.9698498,78.0760349 85.9594611,78.0760349 C86.5177034,78.0760349 87.0886331,78.0633475 87.67225,78.0633475 C88.2431797,78.0506602 88.687236,78.0379729 89.0044192,78.0379729 L88.9409825,78.3424687 L85.9975231,78.3424687 Z M81.5188973,68.0403607 L88.6618614,68.0403607 L88.6618614,68.3194818 L85.6295907,68.3194818 C85.4646555,68.8016002 85.2743456,69.2710312 85.0713484,69.7024003 L85.0713484,77.0229869 L84.7922272,77.0229869 L84.7922272,70.2352679 C83.9548638,71.7450596 82.7749425,73.0645414 81.2524635,74.181026 L81.0875283,73.9653415 C83.1682496,72.4174878 84.58923,70.5270764 85.3504695,68.3194818 L81.5188973,68.3194818 L81.5188973,68.0403607 Z M86.0990217,70.2479552 C87.3677542,71.6308737 88.3446783,72.8615442 89.0297938,73.9272795 L88.8141093,74.0922148 C88.0021205,72.8615442 87.0251964,71.6308737 85.8833372,70.4002031 L86.0990217,70.2479552 Z M91.0724532,67.4567437 L90.8821433,67.6470536 C91.808318,68.3067945 92.5568702,68.9538481 93.1277998,69.5628397 L93.3181097,69.3725298 C92.7218054,68.7254762 91.9732533,68.09111 91.0724532,67.4567437 Z M90.7298954,70.5017017 L90.5268982,70.6920116 C91.4023236,71.3517525 92.1001265,71.9861188 92.6329942,72.5951104 L92.8359914,72.4048005 C92.2777491,71.7704343 91.5672589,71.136068 90.7298954,70.5017017 Z M92.8359914,73.8384683 C92.2777491,75.3736346 91.6053208,76.8834263 90.831394,78.355156 L91.0851405,78.4566546 C91.8210054,77.0356742 92.4807463,75.5258825 93.0770505,73.9272795 L92.8359914,73.8384683 Z M94.9040254,73.0772287 L94.2189098,73.0772287 L94.2189098,72.7981076 L100.600634,72.7981076 L100.600634,73.0645414 C100.017017,74.4220852 99.0908427,75.5766318 97.8474848,76.5154939 C98.9385948,77.3274827 100.283451,77.9491616 101.882054,78.3805307 L101.742494,78.6089025 C100.093141,78.1521588 98.7355976,77.5051052 97.6444876,76.6677418 C96.5533776,77.4416686 95.2212085,78.0760349 93.6606675,78.5708405 L93.5211069,78.3297814 C95.0689606,77.8349757 96.3630678,77.2259841 97.4161157,76.4901192 C96.2742565,75.5639445 95.436893,74.4220852 94.9040254,73.0772287 Z M97.6191129,76.3378713 C98.8624708,75.4243839 99.7632709,74.3332739 100.296139,73.0772287 L95.1704592,73.0772287 C95.7033268,74.3713359 96.528003,75.4624459 97.6191129,76.3378713 Z M95.5510789,67.7993015 L95.5510789,68.8269748 C95.5510789,70.121082 94.9420873,71.1106933 93.7367915,71.8084962 L93.9271013,72.0114934 C95.1958338,71.2629412 95.8302001,70.1972059 95.8302001,68.8016002 L95.8302001,68.0657353 L99.3319018,68.0657353 L99.3319018,70.7173863 C99.3319018,71.2248793 99.5983357,71.4786258 100.143891,71.4786258 L101.66637,71.4786258 L101.66637,71.1995046 L100.143891,71.1995046 C99.7759582,71.1995046 99.5983357,71.0345694 99.5983357,70.7173863 L99.5983357,67.7993015 L95.5510789,67.7993015 Z M106.525615,71.3390652 L106.525615,73.2802259 L112.222224,73.2802259 L112.222224,71.3390652 L106.525615,71.3390652 Z M112.222224,73.5593471 L106.525615,73.5593471 L106.525615,75.4624459 L112.222224,75.4624459 L112.222224,73.5593471 Z M112.222224,75.741567 L106.525615,75.741567 L106.525615,78.5708405 L106.259181,78.5708405 L106.259181,71.1995046 C105.421818,72.3667385 104.419519,73.4324738 103.226911,74.3713359 L103.061975,74.1556514 C104.88895,72.696609 106.271869,70.9965074 107.210731,69.0426593 L103.391846,69.0426593 L103.391846,68.7762255 L107.337604,68.7762255 C107.578663,68.2179832 107.794348,67.6597409 107.97197,67.076124 L108.238404,67.1014986 C108.060782,67.6851156 107.845097,68.2433579 107.616725,68.7762255 L114.302946,68.7762255 L114.302946,69.0426593 L107.502539,69.0426593 C107.172669,69.7531496 106.779362,70.4382651 106.347993,71.0726314 L112.501345,71.0726314 L112.501345,77.8984123 C112.501345,78.3424687 112.247599,78.5708405 111.752793,78.5835279 L110.331813,78.5835279 L110.255689,78.317094 C110.763182,78.317094 111.232613,78.3297814 111.663982,78.3297814 C112.031914,78.3297814 112.222224,78.1648461 112.222224,77.8349757 L112.222224,75.741567 Z M115.901548,68.0403607 L127.04102,68.0403607 L127.04102,68.3194818 L125.214045,68.3194818 L125.214045,77.4797306 C125.214045,78.1648461 124.8588,78.5074039 124.173684,78.5074039 L122.10565,78.5074039 L122.054901,78.2409701 C122.765391,78.2536574 123.43782,78.2663447 124.072186,78.2663447 C124.643116,78.2663447 124.934924,77.9745362 124.934924,77.4036066 L124.934924,68.3194818 L115.901548,68.3194818 L115.901548,68.0403607 Z M121.991465,70.8950088 L121.991465,75.0691388 L117.830022,75.0691388 L117.830022,76.325184 L117.550901,76.325184 L117.550901,70.8950088 L121.991465,70.8950088 Z M117.830022,74.7900176 L121.712343,74.7900176 L121.712343,71.1614426 L117.830022,71.1614426 L117.830022,74.7900176 Z M130.149415,71.1614426 L130.149415,73.6100964 C130.149415,73.7369697 130.136727,73.8638429 130.136727,73.9907162 L134.057111,73.9907162 L134.057111,71.1614426 L130.149415,71.1614426 Z M130.111353,74.25715 C130.009854,75.9572516 129.527736,77.34017 128.664998,78.43128 L128.474688,78.2536574 C129.388175,77.0356742 129.844919,75.4878205 129.870293,73.6227837 L129.870293,67.7993015 L138.751421,67.7993015 L138.751421,77.2132967 C138.751421,77.9491616 138.396176,78.317094 137.685686,78.317094 L136.226643,78.317094 L136.163207,78.0379729 C136.6707,78.0379729 137.152818,78.0506602 137.584187,78.0506602 C138.180491,78.0506602 138.484987,77.7334771 138.484987,77.1244855 L138.484987,74.25715 L134.336232,74.25715 L134.336232,78.1775335 L134.057111,78.1775335 L134.057111,74.25715 L130.111353,74.25715 Z M138.484987,73.9907162 L138.484987,71.1614426 L134.336232,71.1614426 L134.336232,73.9907162 L138.484987,73.9907162 Z M138.484987,70.8950088 L138.484987,68.0657353 L134.336232,68.0657353 L134.336232,70.8950088 L138.484987,70.8950088 Z M134.057111,68.0657353 L130.149415,68.0657353 L130.149415,70.8950088 L134.057111,70.8950088 L134.057111,68.0657353 Z M145.34883,69.537465 L145.34883,77.8222883 L145.069709,77.8222883 L145.069709,76.9595502 L142.0755,76.9595502 L142.0755,78.1775335 L141.796379,78.1775335 L141.796379,69.537465 L142.887489,69.537465 C143.191985,68.7762255 143.394982,67.9896114 143.521855,67.1522479 L143.800976,67.1903099 C143.648729,68.053048 143.433044,68.8269748 143.153923,69.537465 L145.34883,69.537465 Z M142.0755,76.6931164 L145.069709,76.6931164 L145.069709,73.3056006 L142.0755,73.3056006 L142.0755,76.6931164 Z M142.0755,73.0391668 L145.069709,73.0391668 L145.069709,69.8165862 L142.0755,69.8165862 L142.0755,73.0391668 Z M147.404177,72.2652399 C148.469912,73.3563499 149.269214,74.295212 149.814769,75.1072008 L149.611771,75.272136 C149.028154,74.4093979 148.216166,73.4451612 147.188492,72.4048005 L147.404177,72.2652399 Z M151.946239,69.5628397 C151.946239,73.4324738 151.882803,75.8303783 151.768617,76.756553 C151.654431,77.847663 151.083501,78.4059053 150.055828,78.4059053 L148.888594,78.4059053 L148.825157,78.1394715 C149.307276,78.1394715 149.71327,78.1521588 150.068515,78.1521588 C150.893191,78.1521588 151.362622,77.6954151 151.489496,76.794615 C151.590994,75.9191896 151.654431,73.5974091 151.679805,69.8419608 L147.505675,69.8419608 C147.15043,70.7046989 146.706374,71.4913131 146.186194,72.1764287 L146.033946,71.9734315 C146.998182,70.6539496 147.657923,69.0426593 148.013168,67.1395606 L148.279602,67.1649352 C148.114667,68.0276733 147.898982,68.8269748 147.619861,69.5628397 L151.946239,69.5628397 Z M155.689,70.4890144 C155.130758,71.4025018 154.483704,72.2398653 153.760527,72.9884175 L153.684403,72.7092963 C155.206882,71.059944 156.272617,69.2329692 156.906983,67.2410592 L157.148043,67.3298705 C156.818172,68.2941072 156.424865,69.1822199 155.968121,69.9942087 L155.968121,78.6089025 L155.689,78.6089025 L155.689,70.4890144 Z M157.287603,70.4509524 L160.104189,70.4509524 C160.129564,70.0957073 160.142251,69.7404622 160.142251,69.3852171 L160.142251,67.1776226 L160.408685,67.1776226 L160.408685,69.3852171 L160.370623,70.4509524 L164.861936,70.4509524 L164.861936,70.7300736 L162.007288,70.7300736 L162.007288,77.5812292 C162.007288,77.9364743 162.184911,78.1267842 162.552843,78.1267842 L163.910387,78.1267842 C164.113384,78.1267842 164.265632,78.0506602 164.367131,77.9110996 C164.532066,77.6319785 164.633564,76.8199897 164.671626,75.5005078 L164.93806,75.5766318 C164.887311,76.870739 164.773125,77.7081024 164.595502,78.0633475 C164.455942,78.2917194 164.252945,78.4059053 163.973823,78.4059053 L162.476719,78.4059053 C161.981913,78.4059053 161.740854,78.1394715 161.740854,77.6319785 L161.740854,70.7300736 L160.357936,70.7300736 C160.104189,74.2317753 159.025767,76.832677 157.097293,78.5454659 L156.894296,78.3805307 C158.784707,76.7184911 159.850443,74.1683387 160.091502,70.7300736 L157.287603,70.7300736 L157.287603,70.4509524 Z M162.134161,67.545555 C162.920775,68.1037973 163.580516,68.6747269 164.100697,69.2456566 L163.910387,69.4359664 C163.415581,68.8904114 162.75584,68.3194818 161.931164,67.7358649 L162.134161,67.545555 Z M166.650849,68.1291719 L172.068337,68.1291719 L172.068337,67.1014986 L172.347458,67.1014986 L172.347458,68.1291719 L177.764946,68.1291719 L177.764946,68.3956058 L172.347458,68.3956058 L172.347458,69.4867157 L176.458151,69.4867157 L176.458151,72.9249808 L172.347458,72.9249808 L172.347458,74.181026 C173.781126,74.1049021 175.113295,74.0287781 176.331278,73.9526542 C176.077532,73.6989077 175.79841,73.4451612 175.519289,73.1914147 L175.722287,73.0645414 C176.534275,73.787719 177.155954,74.4220852 177.587323,74.9549529 L177.358951,75.1198881 C177.13058,74.8153923 176.851458,74.4982092 176.546963,74.181026 L176.546963,74.2064007 C173.946061,74.3840232 170.799604,74.5235838 167.094905,74.6123951 L167.044156,74.3332739 C168.845756,74.3078993 170.520483,74.25715 172.068337,74.1937134 L172.068337,72.9249808 L167.957644,72.9249808 L167.957644,69.4867157 L172.068337,69.4867157 L172.068337,68.3956058 L166.650849,68.3956058 L166.650849,68.1291719 Z M176.17903,72.658547 L176.17903,71.3390652 L172.347458,71.3390652 L172.347458,72.658547 L176.17903,72.658547 Z M172.068337,72.658547 L172.068337,71.3390652 L168.236765,71.3390652 L168.236765,72.658547 L172.068337,72.658547 Z M168.236765,71.059944 L172.068337,71.059944 L172.068337,69.7531496 L168.236765,69.7531496 L168.236765,71.059944 Z M172.347458,69.7531496 L172.347458,71.059944 L176.17903,71.059944 L176.17903,69.7531496 L172.347458,69.7531496 Z M167.970331,75.4370712 C167.678522,76.4139953 167.234466,77.264046 166.650849,77.9999109 L166.891908,78.1521588 C167.475525,77.4036066 167.919582,76.5154939 168.249452,75.4878205 L167.970331,75.4370712 Z M173.781126,78.4059053 L170.482421,78.4059053 C169.949554,78.4059053 169.68312,78.1648461 169.68312,77.6827278 L169.68312,75.234074 L169.949554,75.234074 L169.949554,77.6319785 C169.949554,77.9618489 170.152551,78.1267842 170.571233,78.1267842 L173.717689,78.1267842 C174.098309,78.1267842 174.352055,78.0633475 174.478929,77.9364743 C174.656551,77.7588517 174.783424,77.2513587 174.859548,76.4139953 L175.125982,76.5028065 C175.062546,77.3655446 174.910298,77.9237869 174.681926,78.1521588 C174.504303,78.317094 174.212495,78.4059053 173.781126,78.4059053 Z M171.86534,75.1072008 C172.563143,75.741567 173.09601,76.287122 173.47663,76.7692404 L173.248258,76.9214883 C172.854951,76.4139953 172.322083,75.8430656 171.649655,75.234074 L171.86534,75.1072008 Z M175.760349,75.234074 L175.544664,75.3736346 C176.394715,76.2998093 177.067143,77.1498601 177.549261,77.9110996 L177.777633,77.7588517 C177.308202,77.0483615 176.635774,76.1983107 175.760349,75.234074 Z M183.892924,74.3967106 L181.685329,74.3967106 L181.685329,74.1302767 L188.092429,74.1302767 C188.054367,75.196012 187.99093,76.0714375 187.889431,76.756553 C187.787933,77.4036066 187.61031,77.8603503 187.356564,78.1267842 C187.115505,78.3678433 186.722197,78.5074039 186.18933,78.5327786 L184.590727,78.5327786 L184.514603,78.2663447 C185.047471,78.2663447 185.567651,78.2790321 186.049769,78.2790321 C186.722197,78.2790321 187.166254,78.0379729 187.381938,77.5685418 C187.61031,77.0610488 187.749871,76.0080009 187.813307,74.3967106 L184.159358,74.3967106 C183.905611,75.4624459 183.524991,76.2998093 183.030186,76.9088009 C182.484631,77.5431672 181.659955,78.1014095 180.568845,78.5962152 L180.391222,78.393218 C181.44427,77.9110996 182.230884,77.3909193 182.751065,76.8199897 C183.271245,76.2109981 183.651865,75.4116966 183.892924,74.3967106 Z M181.672642,67.1649352 C182.065949,67.7104902 182.408507,68.2941072 182.687628,68.9030988 L182.446569,69.0172847 C182.129386,68.3448565 181.786828,67.7485522 181.418896,67.2410592 L181.672642,67.1649352 Z M188.219302,67.0507493 L188.473048,67.1395606 C188.18124,67.8500508 187.813307,68.484417 187.369251,69.0172847 L187.140879,68.8777241 C187.572248,68.3702311 187.927493,67.7612395 188.219302,67.0507493 Z M180.2136,69.3725298 L184.375042,69.3725298 C184.641476,68.6366649 184.844473,67.8373635 184.971347,67 L185.23778,67.0253747 C185.110907,67.8627381 184.90791,68.6493523 184.654163,69.3725298 L189.576846,69.3725298 L189.576846,69.6389636 L184.565352,69.6389636 C184.286231,70.3494538 183.956361,70.9965074 183.575741,71.5801244 L190.261961,71.5801244 L190.261961,71.8592455 L186.937882,71.8592455 C187.622998,72.9884175 188.840981,73.9907162 190.604519,74.8788289 L190.439584,75.0945134 C188.612609,74.1429641 187.356564,73.0645414 186.671448,71.8592455 L183.385431,71.8592455 C182.39582,73.242164 181.050963,74.3205866 179.350862,75.1072008 L179.198614,74.8661416 C180.809904,74.1429641 182.091324,73.1406654 183.05556,71.8592455 L179.528484,71.8592455 L179.528484,71.5801244 L183.24587,71.5801244 C183.651865,70.9838201 184.00711,70.3367665 184.286231,69.6389636 L180.2136,69.6389636 L180.2136,69.3725298 Z M194.689838,68.3956058 L194.689838,77.1117981 L194.423404,77.1117981 L194.423404,76.2363727 L192.710615,76.2363727 L192.710615,77.378232 L192.444181,77.378232 L192.444181,68.3956058 L194.689838,68.3956058 Z M192.710615,75.9572516 L194.423404,75.9572516 L194.423404,68.6747269 L192.710615,68.6747269 L192.710615,75.9572516 Z M199.003528,76.5028065 L199.003528,76.7819277 C197.95048,77.2513587 196.757872,77.6319785 195.425702,77.9110996 L195.387641,77.6446658 C196.757872,77.3655446 197.963168,76.9849249 199.003528,76.5028065 Z M198.508722,69.7150876 C198.293038,70.2479552 198.077353,70.7554482 197.874356,71.2375666 C197.303427,71.3644398 196.656373,71.5040004 195.920508,71.643561 C196.288441,71.1106933 196.85937,69.6262763 197.633297,67.1903099 L197.366863,67.1014986 C196.47875,69.9688341 195.844384,71.5166878 195.489139,71.7323723 L195.552576,71.9734315 C196.364565,71.8338709 197.087742,71.681623 197.747483,71.5293751 C197.011618,73.204102 196.364565,74.4093979 195.806322,75.1579501 C195.76826,75.1833247 195.730198,75.2086994 195.679449,75.234074 L195.755573,75.5005078 C196.757872,75.3228853 197.772858,75.0310768 198.800531,74.5997078 L198.800531,74.3205866 C197.912418,74.7012064 197.011618,75.0057022 196.072756,75.2086994 C196.745184,74.3205866 197.645984,72.5189864 198.762469,69.8038989 L198.508722,69.7150876 Z M199.599832,72.5570484 C200.234199,73.5974091 200.716317,74.5108965 201.046188,75.2848233 L200.84319,75.4497585 C200.487945,74.6123951 200.005827,73.6862204 199.384148,72.6839217 L199.599832,72.5570484 Z M200.297635,67.1014986 L200.564069,67.1268733 C200.449883,67.9642367 200.297635,68.7508509 200.094638,69.4867157 L202.758976,69.4867157 C202.758976,73.4324738 202.69554,75.8811276 202.581354,76.8199897 C202.479855,77.7842264 201.98505,78.2790321 201.084249,78.2790321 C200.881252,78.2790321 200.51332,78.2663447 199.99314,78.2663447 L199.94239,78.0125982 C200.386447,78.0125982 200.779754,78.0252855 201.109624,78.0252855 C201.79474,78.0252855 202.200734,77.6319785 202.302233,76.8453643 C202.403731,75.9572516 202.467168,73.5974091 202.492543,69.7658369 L200.005827,69.7658369 C199.75208,70.6539496 199.42221,71.4532511 199.028903,72.1637413 L198.876655,71.9480568 C199.574458,70.6158877 200.043889,69.0045974 200.297635,67.1014986 Z M205.740498,72.0495554 C205.258379,72.0495554 204.763574,72.4048005 204.256081,73.1406654 L204.49714,73.3309752 C204.941196,72.6712343 205.359878,72.3540512 205.740498,72.3540512 C206.044994,72.3540512 206.48905,72.5570484 207.072667,72.9757301 C207.643597,73.3944119 208.10034,73.6100964 208.455585,73.6100964 C208.925016,73.6100964 209.419822,73.242164 209.940002,72.5189864 L209.698943,72.3286766 C209.2422,72.9757301 208.836205,73.3056006 208.455585,73.3056006 C208.163777,73.3056006 207.732408,73.0899161 207.148791,72.6712343 C206.565174,72.2525526 206.095743,72.0495554 205.740498,72.0495554 Z" id="您还没有可用的优惠券哟~" fill="#000000"></path>
                <g id="Group" transform="translate(117.000000, 10.000000)">
                    <circle id="Oval-9" stroke="#E75040" cx="20.5" cy="24.5" r="19.5"></circle>
                    <g id="Layer_1">
                        <g id="Shape">
                            <use fill="#FFFFFF" fill-rule="evenodd" xlink:href="#path-1"></use>
                            <path stroke="#000000" stroke-width="1" d="M16.2582815,21.8876074 L11.726356,24.8510884 L11.334381,25.1074056 L11.5645473,25.5152859 C11.658165,25.6811868 11.822246,25.9732925 12.033277,26.3512715 C12.3849907,26.9812282 12.7366837,27.6164922 13.0647845,28.2166206 C13.1021452,28.2849806 13.1021452,28.2849806 13.1394738,28.3533793 C13.5685242,29.1398348 13.9186708,29.7964862 14.1640453,30.2786917 C14.2295719,30.4074634 14.2870413,30.522674 14.3359598,30.623354 C14.2230447,30.647877 14.103826,30.6701712 13.9786902,30.690307 C13.6866446,30.7373004 13.3751507,30.7708764 13.0292387,30.7961751 C12.8254643,30.8110784 12.2451048,30.8431106 12.2947735,30.8400064 C12.2112782,30.8454746 12.1800223,30.8478386 12.1374324,30.8521246 C11.5766407,30.9089892 11.1548445,30.7659017 10.8354069,30.5020966 C10.8126826,30.4834346 10.7902577,30.4637879 10.7687956,30.4438077 L10.4747018,30.1700213 L10.144038,30.3983008 C10.0834288,30.4401434 10.0139024,30.4830685 9.94620045,30.5206703 C9.31653459,30.8689846 8.53860909,30.9157374 7.9303659,30.647454 C7.17464889,30.3145279 6.6607881,29.5215549 6.50135722,28.5561055 L6.44349046,28.2056876 L6.09356075,28.1449388 C4.84319741,27.9278719 3.6919565,27.3953348 2.65621591,26.5531151 C1.2323517,25.3943351 0.337627225,24.1691627 0.52432239,23.2363228 C0.546856938,23.1238929 0.605219233,23.0432629 0.683009059,23.0062707 C0.798963032,22.9448359 0.915723006,22.9385786 1.02327147,22.98045 L1.38607232,23.1270026 C1.83452785,23.3110925 1.98160949,23.3637932 2.20814765,23.403056 C2.46115719,23.4469067 2.70770548,23.4361376 3.02076929,23.3723204 C3.60246719,23.2530513 4.20901841,23.0647659 4.87661865,22.7972731 C6.1961938,22.2682909 7.48460228,21.6498997 8.70577255,20.9598544 C10.4060329,19.9982911 11.2572808,19.6605743 12.3977151,19.675327 C13.6773375,19.6913792 14.7425588,20.1563822 15.5537674,21.035569 L16.2582815,21.8876074 Z"></path>
                        </g>
                        <g id="Shape" transform="translate(31.500000, 11.269561) scale(-1, 1) rotate(62.000000) translate(-31.500000, -11.269561) ">
                            <use fill="#FFFFFF" fill-rule="evenodd" xlink:href="#path-2"></use>
                            <path stroke="#000000" stroke-width="1" d="M39.2582815,7.88760741 L34.726356,10.8510884 L34.334381,11.1074056 L34.5645473,11.5152859 C34.658165,11.6811868 34.822246,11.9732925 35.033277,12.3512715 C35.3849907,12.9812282 35.7366837,13.6164922 36.0647845,14.2166206 C36.1021452,14.2849806 36.1021452,14.2849806 36.1394738,14.3533793 C36.5685242,15.1398348 36.9186708,15.7964862 37.1640453,16.2786917 C37.2295719,16.4074634 37.2870413,16.522674 37.3359598,16.623354 C37.2230447,16.647877 37.103826,16.6701712 36.9786902,16.690307 C36.6866446,16.7373004 36.3751507,16.7708764 36.0292387,16.7961751 C35.8254643,16.8110784 35.2451048,16.8431106 35.2947735,16.8400064 C35.2112782,16.8454746 35.1800223,16.8478386 35.1374324,16.8521246 C34.5766407,16.9089892 34.1548445,16.7659017 33.8354069,16.5020966 C33.8126826,16.4834346 33.7902577,16.4637879 33.7687956,16.4438077 L33.4747018,16.1700213 L33.144038,16.3983008 C33.0834288,16.4401434 33.0139024,16.4830685 32.9462005,16.5206703 C32.3165346,16.8689846 31.5386091,16.9157374 30.9303659,16.647454 C30.1746489,16.3145279 29.6607881,15.5215549 29.5013572,14.5561055 L29.4434905,14.2056876 L29.0935608,14.1449388 C27.8431974,13.9278719 26.6919565,13.3953348 25.6562159,12.5531151 C24.2323517,11.3943351 23.3376272,10.1691627 23.5243224,9.23632279 C23.5468569,9.12389291 23.6052192,9.04326292 23.6830091,9.00627074 C23.798963,8.94483593 23.915723,8.93857863 24.0232715,8.98045001 L24.3860723,9.12700264 C24.8345279,9.3110925 24.9816095,9.36379316 25.2081476,9.40305598 C25.4611572,9.44690672 25.7077055,9.4361376 26.0207693,9.37232043 C26.6024672,9.25305132 27.2090184,9.06476595 27.8766186,8.79727305 C29.1961938,8.26829088 30.4846023,7.64989969 31.7057726,6.95985443 C33.4060329,5.99829113 34.2572808,5.66057433 35.3977151,5.675327 C36.6773375,5.69137919 37.7425588,6.15638218 38.5537674,7.03556899 L39.2582815,7.88760741 Z"></path>
                        </g>
                        <polygon id="Path-5" stroke="#000000" points="19 38 11 25 30 14 38 27"></polygon>
                        <path d="M25.5,19.5 L30.5,28.5" id="Line" stroke="#000000" stroke-linecap="square" stroke-dasharray="1,2"></path>
                        <path d="M0.5,35.5 L7.5,35.5" id="Line" stroke="#000000" stroke-linecap="square"></path>
                        <path d="M2.5,37.5 L9.5,37.5" id="Line" stroke="#000000" stroke-linecap="square"></path>
                        <path d="M4.5,39.5 L11.5,39.5" id="Line" stroke="#000000" stroke-linecap="square"></path>
                    </g>
                </g>
            </g>
        </g>
    </g>
</svg>