<?xml version="1.0" encoding="UTF-8"?>
<svg width="171px" height="40px" viewBox="0 0 171 40" version="1.1" xmlns="http://www.w3.org/2000/svg" xmlns:xlink="http://www.w3.org/1999/xlink">
    <!-- Generator: Sketch 43.1 (39012) - http://www.bohemiancoding.com/sketch -->
    <title>扫码买单</title>
    <desc>Created with Sketch.</desc>
    <defs>
        <linearGradient x1="54.7462146%" y1="28.8535505%" x2="0%" y2="100%" id="linearGradient-1">
            <stop stop-color="#FF919B" offset="0%"></stop>
            <stop stop-color="#DA0F2E" offset="100%"></stop>
        </linearGradient>
        <linearGradient x1="54.7462146%" y1="28.8535505%" x2="0%" y2="100%" id="linearGradient-2">
            <stop stop-color="#F5515F" offset="0%"></stop>
            <stop stop-color="#9F031B" offset="100%"></stop>
        </linearGradient>
    </defs>
    <g id="H5优化-&gt;--呼叫买单后-&gt;-选择兑换券-+-正在计算优惠中" stroke="none" stroke-width="1" fill="none" fill-rule="evenodd">
        <g id="1.-呼叫买单" transform="translate(-84.000000, -981.000000)">
            <g id="扫码买单" transform="translate(84.000000, 981.000000)">
                <path d="M166.949812,9.98160721 L172.008212,24.4181089 C172.008212,24.4181089 159.746139,28.0726288 145.674097,26.0160012 C131.602056,23.9593737 119.00096,28.0726288 119.00096,28.0726288 L166.949812,9.98160721 Z" id="Rectangle-20" fill="#A90D23" transform="translate(145.504586, 19.027118) scale(1, -1) rotate(8.000000) translate(-145.504586, -19.027118) "></path>
                <path d="M20,0 C8.954305,0 0,8.954305 0,20 C0,31.045695 8.954305,40 20,40 L140,40 C151.045695,40 160,31.045695 160,20 C160,8.954305 151.045695,0 140,0 L20,0 Z" id="Combined-Shape" fill="#5FA5A1" transform="translate(80.000000, 20.000000) scale(-1, 1) translate(-80.000000, -20.000000) "></path>
                <g id="Group-5" transform="translate(115.000000, 9.000000)">
                    <path d="M2.6537263,5.00632152 C2.6537263,5.00632152 14.6537263,0.893066406 29.3268631,2.94969396 C44,5.00632152 56,0.893066406 56,0.893066406 L53.6010955,16.7798113 C53.6010955,16.7798113 41,20.8930664 26.9279586,18.8364388 C12.8559173,16.7798113 0.254821777,20.8930664 0.254821777,20.8930664 L2.6537263,5.00632152 Z" id="Rectangle-20" fill="url(#linearGradient-1)"></path>
                    <path d="M2.6537263,6.00632152 C2.6537263,6.00632152 14.6537263,1.89306641 29.3268631,3.94969396 C44,6.00632152 56,1.89306641 56,1.89306641 L53.6010955,17.7798113 C53.6010955,17.7798113 41,21.8930664 26.9279586,19.8364388 C12.8559173,17.7798113 0.254821777,21.8930664 0.254821777,21.8930664 L2.6537263,6.00632152 Z" id="Rectangle-20" fill="url(#linearGradient-2)"></path>
                    <g id="Group-3" transform="translate(3.000000, 7.000000)">
                        <path d="M0.39890452,9.38736719 C0.39890452,9.38736719 12.3989045,5.27411208 27.0720414,7.33073964 C41.7451782,9.38736719 53.7451782,5.27411208 53.7451782,5.27411208" id="Rectangle-20"></path>
                        <path d="M5.75823793,3.75428822 L7.86992014,3.26334808 L7.32463239,0.917900305 L7.9012541,0.78384285 L8.44654185,3.12929062 L10.4491335,2.66371271 L10.5795678,3.22475005 L8.57697613,3.69032797 L9.56791435,7.95265332 L8.99129264,8.08671078 L8.00035442,3.82438542 L5.88867221,4.31532556 L5.75823793,3.75428822 Z M3.70560931,1.84962558 L3.40476782,2.32202202 C4.06363087,2.61236575 4.60978016,2.91248732 5.02581971,3.21821774 L5.31705743,2.7398407 C4.86441437,2.41798008 4.32786886,2.1238391 3.70560931,1.84962558 Z M3.33015345,4.36806813 L5.01326548,3.97676529 L5.81942179,7.44428775 C6.04559285,7.14530505 6.29568629,6.80790726 6.55049459,6.42013318 L6.82481138,6.96414633 C6.45039112,7.54399585 6.02432883,8.07835802 5.55622827,8.57321342 L5.22029392,8.11744582 C5.31543765,7.99676579 5.35241291,7.87318249 5.32342751,7.74850753 L4.60060421,4.6394256 L3.45515297,4.90572892 L3.33015345,4.36806813 Z M12.1779136,2.31467493 L17.4089526,1.72651956 L17.7602369,4.85083314 L16.8141979,4.95720166 L16.8740861,5.48984545 L18.6787151,5.28694079 L18.7359217,5.79573486 L16.9312927,5.99863952 L17.0823539,7.34217386 L16.5179105,7.40563743 L16.3668493,6.0621031 L14.1090756,6.31595739 C14.0554983,6.55544324 13.9744958,6.76581101 13.8501684,6.94884842 C13.6147318,7.28928581 13.1963526,7.57783881 12.6038745,7.82156346 L12.2587783,7.40149131 C12.7973947,7.17992345 13.1645939,6.93737696 13.3603757,6.67385185 C13.4141426,6.57925204 13.4599595,6.48554609 13.4969327,6.38478408 L11.6923038,6.58768875 L11.6350972,6.07889468 L13.5828245,5.85990066 C13.5818358,5.77950773 13.5808472,5.69911481 13.5736964,5.63551555 L13.5388361,5.32546916 L12.5291979,5.43898851 L12.1779136,2.31467493 Z M14.1112294,5.26111173 L14.1460897,5.57115812 C14.1550282,5.65065719 14.155123,5.72310021 14.1552178,5.79554323 L16.3096427,5.55330903 L16.2497545,5.02066524 L14.1112294,5.26111173 Z M17.1536876,4.46820805 L17.0982687,3.97531379 L12.9802167,4.43832973 L13.0356356,4.93122398 L17.1536876,4.46820805 Z M12.9337364,4.02493454 L17.0517884,3.56191861 L17.0017326,3.1167238 L12.8836806,3.57973973 L12.9337364,4.02493454 Z M12.8380941,3.17429446 L16.9561461,2.71127853 L16.9025149,2.23428409 L12.7844629,2.69730002 L12.8380941,3.17429446 Z M12.3288132,1.50876842 C12.1737696,1.84821719 11.9851386,2.17534155 11.7611325,2.4742417 L11.2510655,2.23372632 C11.6788033,1.67040721 11.9660295,1.07458416 12.1127441,0.446257166 L12.6746955,0.503829909 C12.6289734,0.669978881 12.5753012,0.837021705 12.5286852,0.99522077 L14.5002622,0.773545188 L14.5547873,1.25848954 L13.5133494,1.3755843 C13.6681626,1.53528676 13.7973384,1.68177096 13.9017705,1.82298681 L13.4444409,2.05151596 C13.2922145,1.84322021 13.1240883,1.63671216 12.9409561,1.43994173 L12.3288132,1.50876842 Z M15.5935436,1.11754505 C15.4649364,1.40571896 15.3186418,1.67978077 15.1458158,1.93267441 L14.6428049,1.68331527 C14.9902445,1.1934278 15.2201284,0.660404922 15.3342443,0.100146454 L15.9041456,0.156825344 L15.7854656,0.604891256 L18.0511892,0.350143108 L18.1057143,0.835087455 L16.7780798,0.984360931 C16.9417367,1.15111944 17.0727002,1.31350346 17.1859761,1.46177537 L16.7286465,1.69030452 C16.5746323,1.46610895 16.3976624,1.25254485 16.1977365,1.04961221 L15.5935436,1.11754505 Z M19.2437626,0.699907874 L26.3797482,0.71423263 L26.3786241,1.2742315 L25.3226262,1.2721117 L25.311706,6.71210073 C25.3106461,7.24009967 25.0541006,7.51158523 24.5421016,7.51055744 L23.2061043,7.50787557 L23.0792287,6.94761975 C23.5191957,6.96450297 23.9431627,6.98135407 24.3431619,6.98215703 C24.5991614,6.98267092 24.7354502,6.83894422 24.7359962,6.56694477 L24.7466274,1.27095544 L19.2426385,1.25990675 L19.2437626,0.699907874 Z M23.2801733,2.49201415 L23.2742796,5.42800823 L20.7222847,5.42288536 L20.7208715,6.12688395 L20.1608726,6.12575981 L20.1681795,2.48576714 L23.2801733,2.49201415 Z M20.7233446,4.89488643 L22.7233406,4.89890121 L22.7271305,3.01090502 L20.7271346,3.00689023 L20.7233446,4.89488643 Z M28.4570747,2.62085403 L33.2116729,3.21839833 L33.0101638,4.82178539 L28.2555656,4.22424109 L28.4570747,2.62085403 Z M32.5243216,4.26082438 L32.602132,3.64169472 L28.942917,3.18181505 L28.8651065,3.8009447 L32.5243216,4.26082438 Z M30.9565718,1.20951634 C31.0576359,1.43185401 31.1487674,1.66906923 31.227971,1.93703712 L34.4029949,2.33606503 L34.3351601,2.8758191 L27.4453583,2.00992852 L27.513193,1.47017446 L30.6009038,1.85822911 C30.5077772,1.63688901 30.4057155,1.4224889 30.2927235,1.2309039 L30.9565718,1.20951634 Z M26.7569835,6.07582525 L30.2336347,6.51276082 L30.2725399,6.20319599 C30.7886103,6.07454388 31.3969817,5.91717724 32.0986516,5.72315851 L27.6536182,5.16451943 L27.7184602,4.64857805 L33.2906272,5.34887204 L33.2387535,5.76162515 C32.5330933,5.98739411 31.7232472,6.20813223 30.8161553,6.43277464 L30.7972014,6.58358827 L33.996038,6.98560889 L33.9301984,7.50948784 L30.7313618,7.10746721 L30.6385878,7.84566027 C30.5787337,8.32191385 30.3096822,8.53805111 29.8413662,8.47919449 L28.7221703,8.33853715 L28.6371962,7.79570438 C29.0787069,7.87538097 29.4259643,7.93514916 29.6799663,7.9670714 C29.9180931,7.99699849 30.0620527,7.87802109 30.0959701,7.60814406 L30.1677951,7.03663976 L26.6911439,6.59970419 L26.7569835,6.07582525 Z M35.2253051,4.17823463 C34.934828,4.55437168 34.6128041,4.91363285 34.2674507,5.24824167 L34.1153897,4.66783023 C35.00552,3.73200762 35.6594899,2.65362204 36.0852961,1.43289396 L36.5984839,1.68713451 C36.3906817,2.25762399 36.1275623,2.80257917 35.8253399,3.31444406 L35.675849,8.73638361 L35.1000678,8.72050847 L35.2253051,4.17823463 Z M36.4000187,3.37030401 L38.0473927,3.41572455 C38.0597994,3.25600582 38.0722061,3.09628708 38.0766159,2.93634787 L38.1165242,1.48889793 L38.6683145,1.5041116 L38.6284062,2.95156154 C38.6239964,3.11150076 38.6115897,3.27121949 38.599183,3.43093822 L41.2861619,3.50502221 L41.2707277,4.06480948 L39.6073598,4.01894796 L39.4991002,7.94545581 C39.4946904,8.10539503 39.5644582,8.18734903 39.7243974,8.19175879 L40.420133,8.21094125 C40.5080996,8.21336662 40.5813951,8.16736925 40.6477962,8.08116658 C40.7230762,7.96319656 40.7827438,7.54068056 40.8270196,6.80562161 L41.3421918,6.98788951 C41.2628413,7.83402396 41.160543,8.35140106 41.0437349,8.52424737 C40.9278086,8.66510583 40.7576676,8.74044519 40.5495261,8.74270946 L39.5579029,8.71536894 C39.134064,8.70368308 38.9323167,8.47403548 38.9444435,8.03420263 L39.0555695,4.00373429 L38.551761,3.98984354 C38.3169575,6.12018139 37.6011152,7.70105259 36.4202279,8.73289812 L36.0065314,8.35335205 C37.1050237,7.40726821 37.7693565,5.95302545 37.9999706,3.97462987 L36.3845845,3.93009128 L36.4000187,3.37030401 Z M39.7119476,1.67694084 C40.1982782,2.03448042 40.6124157,2.39803257 40.9385865,2.75915935 L40.5359315,3.14020652 C40.241528,2.78795866 39.843605,2.41685052 39.3261685,2.02644114 L39.7119476,1.67694084 Z M41.1471139,1.62016189 L44.390623,1.33523244 L44.3437182,0.801288688 L44.9175085,0.750883478 L44.9644133,1.28482723 L48.2079224,0.999897786 L48.2513269,1.49399499 L45.0078178,1.77892444 L45.0477219,2.2331751 L47.5739931,2.01125216 L47.7770141,4.32235201 L47.4024566,4.35525541 C47.8996802,4.7131167 48.2884022,5.02429377 48.5700229,5.30472522 L48.1735521,5.63669352 C48.0313417,5.48053917 47.8652232,5.32648504 47.6824662,5.16586175 C46.3360844,5.38050576 44.3673963,5.64178612 41.7909405,5.93236404 L41.6744121,5.42862886 C42.7887153,5.31468011 43.7994175,5.2098323 44.7217573,5.10471598 L44.6769526,4.59468015 L42.1506814,4.81660309 L41.9476604,2.50550325 L44.4739316,2.28358031 L44.4340275,1.82932965 L41.1905184,2.1142591 L41.1471139,1.62016189 Z M47.2403277,4.79513064 C47.1196564,4.70133062 47.0069544,4.60683053 46.8869832,4.52099983 L47.0757149,4.38395837 L45.2507429,4.54427494 L45.2941474,5.03837215 C46.0092851,4.95145771 46.652699,4.87084392 47.2403277,4.79513064 Z M47.1893278,3.94031427 L47.142423,3.40637051 L45.1660342,3.57998846 L45.212939,4.11393221 L47.1893278,3.94031427 Z M44.6391487,4.16433742 L44.5922439,3.63039367 L42.615855,3.80401161 L42.6627599,4.33795537 L44.6391487,4.16433742 Z M42.5815515,3.41351543 L44.5579403,3.23989749 L44.5124356,2.72189235 L42.5360468,2.89551029 L42.5815515,3.41351543 Z M45.0862259,2.67148714 L45.1317306,3.18949228 L47.1081195,3.01587433 L47.0626148,2.4978692 L45.0862259,2.67148714 Z M42.2738941,6.21920161 C42.163513,6.79105475 41.9460305,7.33216227 41.6366851,7.83315473 L42.1414465,8.09398417 C42.4486916,7.56908377 42.6685429,6.9635217 42.8010002,6.27729794 L42.2738941,6.21920161 Z M46.3545741,7.87646292 L44.2506763,8.06128202 C43.780487,8.10258629 43.529775,7.89974772 43.490571,7.45346637 L43.3680583,6.05883715 L43.92591,6.00983209 L44.0379216,7.28492165 C44.0533232,7.46024647 44.164625,7.53880794 44.3718271,7.52060606 L46.2047683,7.35958941 C46.3561852,7.34628804 46.4562859,7.29734055 46.5137397,7.22001618 C46.585732,7.12535305 46.6191148,6.86543463 46.6138882,6.44026092 L47.1545642,6.56141165 C47.1505844,7.15604108 47.0777866,7.51579166 46.9455401,7.65590192 C46.8278322,7.77867341 46.6335,7.85196039 46.3545741,7.87646292 Z M45.0594892,5.74963547 C45.4981273,6.08052003 45.8376333,6.37995891 46.0852766,6.63928273 L45.6815366,6.97992041 C45.4238238,6.69738873 45.0829176,6.38201123 44.6522488,6.0504266 L45.0594892,5.74963547 Z M47.4711212,5.59399879 C48.048901,6.13752294 48.5015406,6.62779369 48.8276398,7.04887244 L48.3999919,7.39161034 C48.0631231,6.93935442 47.6184528,6.4483836 47.065281,5.91072854 L47.4711212,5.59399879 Z" id="计算可享优惠" fill="#FFFFFF"></path>
                    </g>
                </g>
                <path d="M60.968,15.132 L60.968,15.972 L66.044,15.972 L66.044,19.164 L61.268,19.164 L61.268,19.992 L66.044,19.992 L66.044,23.352 L60.704,23.352 L60.704,24.204 L66.044,24.204 L66.044,24.936 L66.92,24.936 L66.92,15.132 L60.968,15.132 Z M60.596,19.08 C60.128,19.308 59.648,19.512 59.168,19.704 L59.168,17.232 L60.476,17.232 L60.476,16.404 L59.168,16.404 L59.168,14.208 L58.292,14.208 L58.292,16.404 L56.66,16.404 L56.66,17.232 L58.292,17.232 L58.292,20.004 C57.716,20.196 57.116,20.352 56.516,20.484 L56.72,21.3 C57.248,21.156 57.764,21 58.292,20.832 L58.292,23.82 C58.292,24.12 58.136,24.276 57.848,24.276 C57.56,24.276 57.26,24.252 56.948,24.228 L57.14,25.068 L58.148,25.068 C58.82,25.068 59.168,24.72 59.168,24.036 L59.168,20.52 C59.648,20.34 60.116,20.148 60.596,19.932 L60.596,19.08 Z M72.536,18.408 L72.536,24.576 L71.744,24.576 L71.744,23.892 L70.448,23.892 L70.448,24.804 L69.644,24.804 L69.644,19.92 C69.404,20.352 69.14,20.772 68.852,21.18 L68.42,20.484 C69.332,19.092 69.932,17.496 70.22,15.708 L68.756,15.708 L68.756,14.868 L72.848,14.868 L72.848,15.708 L71.036,15.708 C70.868,16.668 70.64,17.568 70.328,18.408 L72.536,18.408 Z M70.448,23.112 L71.744,23.112 L71.744,19.2 L70.448,19.2 L70.448,23.112 Z M74.156,16.356 L75.008,16.416 L74.48,19.44 L77.024,19.44 L77.624,15.516 L73.4,15.516 L73.4,14.7 L78.56,14.7 L77.9,19.44 L79.172,19.44 C79.172,22.344 79.004,24.012 78.692,24.468 C78.356,24.9 77.672,25.128 76.616,25.128 C76.28,25.128 75.92,25.116 75.536,25.092 L75.296,24.252 C75.824,24.3 76.196,24.324 76.412,24.324 C77.336,24.324 77.888,24.12 78.068,23.736 C78.26,23.328 78.356,22.164 78.356,20.244 L73.508,20.244 L74.156,16.356 Z M73.136,21.768 L77.528,21.768 L77.528,22.584 L73.136,22.584 L73.136,21.768 Z M81.848,18.012 C82.76,18.384 83.6,18.828 84.356,19.344 L83.912,20.04 C83.108,19.44 82.28,18.96 81.428,18.624 L81.848,18.012 Z M82.952,16.332 C83.864,16.704 84.68,17.148 85.424,17.676 L84.98,18.36 C84.188,17.76 83.384,17.28 82.544,16.944 L82.952,16.332 Z M86.264,16.332 L87.116,16.332 L87.116,18.852 C87.092,19.512 87.008,20.112 86.876,20.664 L91.34,20.664 L91.34,21.504 L86.588,21.504 C86.504,21.696 86.42,21.888 86.324,22.056 C88.064,22.836 89.648,23.676 91.076,24.576 L90.488,25.224 C89,24.276 87.476,23.436 85.892,22.704 C85.82,22.788 85.76,22.872 85.7,22.944 C84.824,23.892 83.396,24.636 81.416,25.164 L80.924,24.396 C82.916,23.88 84.296,23.196 85.088,22.344 C85.304,22.08 85.484,21.804 85.628,21.504 L80.864,21.504 L80.864,20.664 L85.976,20.664 C86.144,20.112 86.24,19.5 86.264,18.852 L86.264,16.332 Z M81.32,14.904 L90.464,14.904 L90.464,15.444 C90.284,16.164 90.044,16.872 89.756,17.58 L88.94,17.352 C89.192,16.86 89.396,16.308 89.564,15.708 L81.32,15.708 L81.32,14.904 Z M93.812,16.068 L98.984,16.068 C99.368,15.468 99.716,14.808 100.016,14.112 L100.856,14.412 C100.568,15.024 100.244,15.576 99.884,16.068 L102.188,16.068 L102.188,21 L98.432,21 L98.432,22.14 L103.328,22.14 L103.328,22.956 L98.432,22.956 L98.432,25.236 L97.568,25.236 L97.568,22.956 L92.672,22.956 L92.672,22.14 L97.568,22.14 L97.568,21 L93.812,21 L93.812,16.068 Z M101.348,20.232 L101.348,18.888 L98.432,18.888 L98.432,20.232 L101.348,20.232 Z M97.568,20.232 L97.568,18.888 L94.652,18.888 L94.652,20.232 L97.568,20.232 Z M94.652,18.144 L97.568,18.144 L97.568,16.824 L94.652,16.824 L94.652,18.144 Z M98.432,16.824 L98.432,18.144 L101.348,18.144 L101.348,16.824 L98.432,16.824 Z M95.936,14.172 C96.332,14.628 96.704,15.144 97.064,15.696 L96.344,16.056 C95.984,15.48 95.612,14.976 95.204,14.52 L95.936,14.172 Z" fill="#FFFFFF"></path>
            </g>
        </g>
    </g>
</svg>