<?xml version="1.0" encoding="UTF-8" standalone="no"?>
<!-- Created with Inkscape (http://www.inkscape.org/) -->

<svg
   xmlns:dc="http://purl.org/dc/elements/1.1/"
   xmlns:cc="http://creativecommons.org/ns#"
   xmlns:rdf="http://www.w3.org/1999/02/22-rdf-syntax-ns#"
   xmlns:svg="http://www.w3.org/2000/svg"
   xmlns="http://www.w3.org/2000/svg"
   xmlns:sodipodi="http://sodipodi.sourceforge.net/DTD/sodipodi-0.dtd"
   xmlns:inkscape="http://www.inkscape.org/namespaces/inkscape"
   width="9"
   height="4"
   viewBox="0 0 2.3812499 1.0583334"
   version="1.1"
   id="svg8"
   inkscape:version="0.92.1 r15371"
   sodipodi:docname="绘图-2.svg">
  <defs
     id="defs2" />
  <sodipodi:namedview
     id="base"
     pagecolor="#ffffff"
     bordercolor="#666666"
     borderopacity="1.0"
     inkscape:pageopacity="0.0"
     inkscape:pageshadow="2"
     inkscape:zoom="5.6"
     inkscape:cx="107.33929"
     inkscape:cy="42.613805"
     inkscape:document-units="mm"
     inkscape:current-layer="layer1"
     showgrid="false"
     fit-margin-top="0"
     fit-margin-left="0"
     fit-margin-right="0"
     fit-margin-bottom="0"
     units="px"
     inkscape:window-width="1920"
     inkscape:window-height="1018"
     inkscape:window-x="-8"
     inkscape:window-y="-8"
     inkscape:window-maximized="1" />
  <metadata
     id="metadata5">
    <rdf:RDF>
      <cc:Work
         rdf:about="">
        <dc:format>image/svg+xml</dc:format>
        <dc:type
           rdf:resource="http://purl.org/dc/dcmitype/StillImage" />
        <dc:title></dc:title>
      </cc:Work>
    </rdf:RDF>
  </metadata>
  <g
     inkscape:label="Layer 1"
     inkscape:groupmode="layer"
     id="layer1"
     transform="translate(25.003125,-148.30417)">
    <g
       id="H5优化-_x3E_-领券_x3001_会员卡样式合集"
       transform="matrix(0.26458333,0,0,0.26458333,-25.003125,148.30417)">
	<path
   d="M 7.3,1.8 C 7,0.7 6,0 4.5,0 3,0 2,0.7 1.7,1.8 1.5,2.2 1.5,2.6 1.5,3 H 0 V 4 H 2.6 L 2.5,3.4 c 0,0 0,0 0,-0.1 0,-0.4 0,-0.8 0.1,-1.2 C 2.8,1.4 3.4,1 4.5,1 5.6,1 6.2,1.4 6.4,2.2 6.5,2.4 6.5,2.7 6.5,3 c 0,0.2 0,0.3 0,0.4 L 6.4,4 H 9 V 3 H 8 7.5 c 0,-0.4 0,-0.8 -0.2,-1.2 z"
   id="Path-7"
   inkscape:connector-curvature="0" />

</g>
  </g>
</svg>
