<?xml version="1.0" encoding="UTF-8"?>
<svg width="32px" height="32px" viewBox="0 0 32 32" version="1.1" xmlns="http://www.w3.org/2000/svg" xmlns:xlink="http://www.w3.org/1999/xlink">
    <!-- Generator: Sketch 49 (51002) - http://www.bohemiancoding.com/sketch -->
    <title>close-icon</title>
    <desc>Created with Sketch.</desc>
    <defs>
        <circle id="path-1" cx="15.7023399" cy="15.8567421" r="15.3828125"></circle>
    </defs>
    <g id="高级会员广告" stroke="none" stroke-width="1" fill="none" fill-rule="evenodd">
        <g id="高级会员购买引导-2" transform="translate(-172.000000, -1862.000000)">
            <g id="Group" transform="translate(0.000000, 1614.000000)">
                <g id="close-icon" transform="translate(172.000000, 248.000000)">
                    <g id="Oval-5">
                        <use fill="#212121" fill-rule="evenodd" xlink:href="#path-1"></use>
                        <circle stroke="#FFFFFF" stroke-width="1" cx="15.7023399" cy="15.8567421" r="14.8828125"></circle>
                    </g>
                    <path d="M14.7023399,14.8567421 L14.7023399,7.85674209 C14.7023399,7.30445734 15.1500552,6.85674209 15.7023399,6.85674209 C16.2546247,6.85674209 16.7023399,7.30445734 16.7023399,7.85674209 L16.7023399,14.8567421 L23.7023399,14.8567421 C24.2546247,14.8567421 24.7023399,15.3044573 24.7023399,15.8567421 C24.7023399,16.4090268 24.2546247,16.8567421 23.7023399,16.8567421 L16.7023399,16.8567421 L16.7023399,23.8567421 C16.7023399,24.4090268 16.2546247,24.8567421 15.7023399,24.8567421 C15.1500552,24.8567421 14.7023399,24.4090268 14.7023399,23.8567421 L14.7023399,16.8567421 L7.70233994,16.8567421 C7.15005519,16.8567421 6.70233994,16.4090268 6.70233994,15.8567421 C6.70233994,15.3044573 7.15005519,14.8567421 7.70233994,14.8567421 L14.7023399,14.8567421 Z" id="Combined-Shape" fill="#FFFFFF" transform="translate(15.702340, 15.856742) rotate(45.000000) translate(-15.702340, -15.856742) "></path>
                </g>
            </g>
        </g>
    </g>
</svg>