<?xml version="1.0" encoding="UTF-8"?>
<svg width="231px" height="309px" viewBox="0 0 231 309" version="1.1" xmlns="http://www.w3.org/2000/svg" xmlns:xlink="http://www.w3.org/1999/xlink">
    <!-- Generator: Sketch 49 (51002) - http://www.bohemiancoding.com/sketch -->
    <title>cupon-bg@2x</title>
    <desc>Created with Sketch.</desc>
    <defs>
        <path d="M223.428932,1.25233157e-13 L230.5,7.07106781 L230.5,301.928932 L223.428932,309 L7.57106781,309 L0.5,301.928932 L0.5,7.07106781 L7.57106781,5.77315973e-14 L223.428932,0 Z" id="path-1"></path>
        <linearGradient x1="50%" y1="0%" x2="50%" y2="100%" id="linearGradient-3">
            <stop stop-color="#D3A47B" offset="0%"></stop>
            <stop stop-color="#BF8553" offset="100%"></stop>
        </linearGradient>
        <path d="M223.428932,1.67865721e-13 L230.5,7.07106781 L230.5,301.928932 L223.428932,309 L7.57106781,309 L0.5,301.928932 L0.5,7.07106781 L7.57106781,5.95079541e-14 L223.428932,1.77635684e-15 Z" id="path-4"></path>
    </defs>
    <g id="高级会员广告" stroke="none" stroke-width="1" fill="none" fill-rule="evenodd">
        <g id="高级会员购买引导-1" transform="translate(-20.000000, -510.000000)">
            <g id="Group-15" transform="translate(20.000000, 510.000000)">
                <g id="cupon-bg">
                    <g id="Group-12">
                        <mask id="mask-2" fill="white">
                            <use xlink:href="#path-1"></use>
                        </mask>
                        <use id="Combined-Shape" fill="#FFFFFF" xlink:href="#path-1"></use>
                        <polygon id="Rectangle-4" fill="#EFEFEF" mask="url(#mask-2)" points="0.5 272 230.5 272 230.5 309 0.5 309"></polygon>
                    </g>
                    <mask id="mask-5" fill="white">
                        <use xlink:href="#path-4"></use>
                    </mask>
                    <path stroke="url(#linearGradient-3)" d="M223.221825,0.5 L7.77817459,0.5 L1,7.27817459 L1,301.721825 L7.77817459,308.5 L223.221825,308.5 L230,301.721825 L230,7.27817459 L223.221825,0.5 Z"></path>
                </g>
            </g>
        </g>
    </g>
</svg>