<?xml version="1.0" encoding="UTF-8"?>
<svg width="95px" height="87px" viewBox="0 0 95 87" version="1.1" xmlns="http://www.w3.org/2000/svg" xmlns:xlink="http://www.w3.org/1999/xlink">
    <!-- Generator: Sketch 49 (51002) - http://www.bohemiancoding.com/sketch -->
    <title>等级bg</title>
    <desc>Created with Sketch.</desc>
    <defs>
        <linearGradient x1="50%" y1="0%" x2="50%" y2="100%" id="linearGradient-1">
            <stop stop-color="#E7D79D" offset="0%"></stop>
            <stop stop-color="#CAAE64" offset="100%"></stop>
        </linearGradient>
        <circle id="path-2" cx="34.7619048" cy="34.7619048" r="34.7619048"></circle>
        <filter x="-5.0%" y="-3.6%" width="110.1%" height="110.1%" filterUnits="objectBoundingBox" id="filter-4">
            <feOffset dx="0" dy="1" in="SourceAlpha" result="shadowOffsetOuter1"></feOffset>
            <feGaussianBlur stdDeviation="1" in="shadowOffsetOuter1" result="shadowBlurOuter1"></feGaussianBlur>
            <feColorMatrix values="0 0 0 0 0.223529412   0 0 0 0 0.215686275   0 0 0 0 0.219607843  0 0 0 1 0" type="matrix" in="shadowBlurOuter1"></feColorMatrix>
        </filter>
        <radialGradient cx="32.1960449%" cy="21.9197591%" fx="32.1960449%" fy="21.9197591%" r="136.608887%" id="radialGradient-5">
            <stop stop-color="#5C5A5B" offset="0%"></stop>
            <stop stop-color="#2A2728" offset="100%"></stop>
        </radialGradient>
        <circle id="path-6" cx="29.2391475" cy="29.2391475" r="28.9838673"></circle>
        <filter x="-6.0%" y="-4.3%" width="112.1%" height="112.1%" filterUnits="objectBoundingBox" id="filter-8">
            <feOffset dx="0" dy="1" in="SourceAlpha" result="shadowOffsetOuter1"></feOffset>
            <feGaussianBlur stdDeviation="1" in="shadowOffsetOuter1" result="shadowBlurOuter1"></feGaussianBlur>
            <feColorMatrix values="0 0 0 0 0.574750213   0 0 0 0 0.467605265   0 0 0 0 0.183986288  0 0 0 1 0" type="matrix" in="shadowBlurOuter1"></feColorMatrix>
        </filter>
        <linearGradient x1="2.66232047%" y1="100%" x2="50%" y2="7.98482656%" id="linearGradient-9">
            <stop stop-color="#FFFFFF" offset="0%"></stop>
            <stop stop-color="#DCDCDC" offset="34.4526371%"></stop>
            <stop stop-color="#FFFFFF" offset="100%"></stop>
        </linearGradient>
        <path d="M30.7086343,46.5238095 L23.6190476,46.5238095 L23.6190476,45.8744589 C24.7357608,45.9610394 25.272634,45.5930777 25.2296835,44.7705628 L25.2296835,37.3246753 C25.272634,36.5454506 24.7357608,36.177489 23.6190476,36.2207792 L23.6190476,35.5714286 L29.1344227,35.5714286 L29.1344227,36.2207792 C27.974759,36.177489 27.4378858,36.5454506 27.5237868,37.3246753 L27.5237868,44.7056277 C27.4378858,45.4848524 27.3267691,45.8311693 28.1428287,45.7445887 C29.1344227,45.8744589 29.4845478,45.8744706 30.1288054,43.5367965 L30.8374852,43.5367965 L30.7086343,46.5238095 Z M29.2969659,39.2077922 L33.5238323,39.2077922 L33.5238323,39.8571429 C32.7507232,39.8571429 32.3856493,40.0303013 32.4285998,40.3766234 C32.4285998,40.5064942 33.7171066,43.320342 34.1036612,44.1861472 L34.1680866,44.1861472 C35.4995523,41.0259582 36.0579005,40.0735916 35.843148,40.3766234 C35.8860985,40.0303013 35.4995497,39.8571429 34.6834901,39.8571429 L34.6834901,39.2077922 L37.9047619,39.2077922 L37.9047619,39.8571429 C37.2175538,39.8138526 36.7665803,40.1601695 36.5518277,40.8961039 L33.9748103,46.5238095 L33.0980666,46.5238095 L30.3921983,40.7012987 C30.2633468,40.1818156 29.898273,39.9004331 29.2969659,39.8571429 L29.2969659,39.2077922 Z" id="path-10"></path>
        <filter x="-49.0%" y="-45.7%" width="198.0%" height="227.8%" filterUnits="objectBoundingBox" id="filter-11">
            <feOffset dx="0" dy="2" in="SourceAlpha" result="shadowOffsetOuter1"></feOffset>
            <feGaussianBlur stdDeviation="2" in="shadowOffsetOuter1" result="shadowBlurOuter1"></feGaussianBlur>
            <feColorMatrix values="0 0 0 0 0   0 0 0 0 0   0 0 0 0 0  0 0 0 0.5 0" type="matrix" in="shadowBlurOuter1"></feColorMatrix>
        </filter>
        <linearGradient x1="0%" y1="68.5351681%" x2="94.3496705%" y2="29.2633943%" id="linearGradient-12">
            <stop stop-color="#F77658" offset="0%"></stop>
            <stop stop-color="#ED412C" offset="100%"></stop>
        </linearGradient>
    </defs>
    <g id="高级会员广告" stroke="none" stroke-width="1" fill="none" fill-rule="evenodd">
        <g id="高级会员购买引导-1" transform="translate(-140.000000, -92.000000)">
            <g id="等级bg" transform="translate(139.500000, 92.000000)">
                <g id="bg" transform="translate(12.190476, 6.523810)">
                    <mask id="mask-3" fill="white">
                        <use xlink:href="#path-2"></use>
                    </mask>
                    <g id="Oval-3">
                        <use fill="black" fill-opacity="1" filter="url(#filter-4)" xlink:href="#path-2"></use>
                        <use fill="url(#linearGradient-1)" fill-rule="evenodd" xlink:href="#path-2"></use>
                    </g>
                    <g id="Group-2" mask="url(#mask-3)">
                        <g transform="translate(5.714286, 5.714286)">
                            <mask id="mask-7" fill="white">
                                <use xlink:href="#path-6"></use>
                            </mask>
                            <g id="Oval-3" stroke="none" fill="none">
                                <use fill="black" fill-opacity="1" filter="url(#filter-8)" xlink:href="#path-6"></use>
                                <use fill="url(#radialGradient-5)" fill-rule="evenodd" xlink:href="#path-6"></use>
                            </g>
                            <circle id="Oval-3" stroke="#484647" stroke-width="1" fill="none" mask="url(#mask-7)" cx="29.2391475" cy="30.4468086" r="28.4838673"></circle>
                            <circle id="Oval-3" stroke="#4A4849" stroke-width="1" fill="none" mask="url(#mask-7)" cx="29.2391475" cy="29.2391475" r="28.4838673"></circle>
                        </g>
                    </g>
                </g>
                <g id="Lv">
                    <use fill="black" fill-opacity="1" filter="url(#filter-11)" xlink:href="#path-10"></use>
                    <use fill="url(#linearGradient-9)" fill-rule="evenodd" xlink:href="#path-10"></use>
                </g>
                <g id="Page-1" transform="translate(0.976190, 0.476190)">
                    <path d="M17.3515982,2.85714286 C11.8391558,3.7358922 6.32623302,4.29756088 0.813996541,4.30088318 C0.184460002,4.30041806 -0.0455167712,4.66401098 0.303394573,5.1158443 C1.42033638,6.5599833 2.53700366,7.9803346 3.65367095,9.37955606 C4.0025823,9.81590743 3.99311145,10.5511997 3.63280765,11.0124019 C2.47935506,12.4892324 1.3264515,13.9427403 0.173273427,15.3721283 C-0.18709901,15.8174499 0.0331324028,16.1887505 0.662463054,16.1904117 C5.17202551,16.196126 10.1155996,15.8219017 14.6248876,15.2095347 L14.6248876,10.0499305 L17.3515982,2.85714286 Z" id="Fill-1" fill="url(#linearGradient-12)"></path>
                    <path d="M18.264776,3.67741322 C18.2709081,3.13237097 17.8371594,2.77375379 17.3016166,2.87391653 L14.6118721,9.93197279 L14.6118721,15.2380952 C15.4657037,15.1014855 16.3190096,14.9571607 17.1728995,14.7984699 C17.7084422,14.6987063 18.151652,14.1666998 18.157609,13.6216575 C18.1933508,10.3070425 18.2290926,6.99242737 18.264776,3.67741322 Z" id="Fill-4" fill="#D72F27"></path>
                    <path d="M62.6443957,1.88395237 C59.827551,-1.8642772 48.7872159,1.13810245 48.7872159,1.13810245 C37.8258405,3.64199739 26.8644652,6.81060813 15.9031577,8.58193217 C15.2808403,8.68239387 14.6314567,9.43479524 14.6248089,10.0046112 C14.57997,13.7494341 14.6697156,17.2851136 14.6248089,21.0299365 C14.6179575,21.5992659 15.1213604,21.9890851 15.74361,21.88911 C27.3011185,20.0360957 38.8584914,16.6169912 50.4159321,14.0519154 C50.6105504,14.0083241 50.7921445,13.918569 50.9535916,13.8031597 C55.2267161,12.6645011 64.5163678,10.5956157 66.6666667,13.4577661 L62.6443957,1.88395237 Z" id="Fill-6" fill="url(#linearGradient-12)"></path>
                    <path d="M15.1898037,20.961251 L14.7047431,21.0825616 L14.462122,20.1124404 L14.9471826,19.9911299 C40.4297074,13.6181139 54.2744824,10.2329103 56.5568449,9.81801686 C58.8837194,9.39503195 61.6708664,9.45157673 64.9208306,9.98273743 L65.4142836,10.0633854 L65.2529878,11.0502915 L64.7595347,10.9696435 C61.6145313,10.4556372 58.9390704,10.4013583 56.7356963,10.801893 C54.4878104,11.2105192 40.6140671,14.6028059 15.1898037,20.961251 Z" id="Line-2" fill="#DF3C26" fill-rule="nonzero"></path>
                    <path d="M15.184275,11.4387908 L14.6978651,11.5545727 L14.4663014,10.5817529 L14.9527113,10.4659711 C38.5851288,4.84066447 51.5125888,1.82715402 53.7918528,1.41282386 C56.1187273,0.989838945 58.9058743,1.04638373 62.1558385,1.57754442 L62.6492915,1.65819235 L62.4879957,2.64509845 L61.9945426,2.56445052 C58.8495392,2.05044418 56.1740783,1.99616525 53.9707042,2.39669995 C51.7197197,2.8058894 38.7719896,5.82412499 15.184275,11.4387908 Z" id="Line-2" fill="#DF3C26" fill-rule="nonzero"></path>
                    <path d="M1.81653122,6.7923772 L1.31663029,6.7824244 L1.33653588,5.78262254 L1.83643681,5.79257534 C6.54226234,5.88626615 10.0141743,5.72884405 12.2393414,5.32434774 C14.0717242,4.99125273 15.5031151,4.60575756 16.5283137,4.1723156 L16.988845,3.97760834 L17.3782595,4.89867096 L16.9177282,5.09337821 C15.8149524,5.5596189 14.3168407,5.963083 12.4181928,6.30822384 C10.1131115,6.72724715 6.58350134,6.88728537 1.81653122,6.7923772 Z" id="Line-2" fill="#DF3C26" fill-rule="nonzero"></path>
                    <path d="M1.81584791,14.8876012 L1.31596105,14.8769651 L1.33723327,13.8771914 L1.83712013,13.8878275 C6.23844065,13.9814746 9.55712267,13.8241604 11.7827204,13.4195858 C12.6264365,13.2662131 13.3855367,13.1016844 14.0596995,12.9262144 L14.5435779,12.8002713 L14.7954641,13.7680282 L14.3115857,13.8939713 C13.611954,14.0760703 12.8287232,14.245829 11.9615718,14.4034619 C9.65692106,14.822407 6.27849502,14.9825531 1.81584791,14.8876012 Z" id="Line-2" fill="#DF3C26" fill-rule="nonzero"></path>
                </g>
                <g id="Page-1" transform="translate(63.683983, 74.619048) scale(-1, -1) translate(-63.683983, -74.619048) translate(32.255411, 62.238095)">
                    <path d="M16.2333215,3.13274625 C11.0761453,4.0962608 5.91851963,4.7121087 0.76153605,4.71575148 C0.172571914,4.71524149 -0.042583304,5.11390702 0.283841384,5.60932471 C1.32879846,7.19276707 2.37349872,8.75012715 3.41819898,10.2843192 C3.74462366,10.7627615 3.7357632,11.568981 3.39868027,12.0746713 C2.31956545,13.6939586 1.24096428,15.2876736 0.162106292,16.854942 C-0.175040844,17.3432198 0.030997084,17.7503366 0.619768601,17.752158 C4.83869854,17.7584236 9.46366895,17.3481012 13.6823421,16.6766645 L13.6823421,11.0193587 L16.2333215,3.13274625 Z" id="Fill-1" fill="url(#linearGradient-12)"></path>
                    <path d="M17.0876467,4.03214087 C17.0933837,3.4345232 16.6875892,3.04131337 16.1865611,3.15113793 L13.6701655,10.8900227 L13.6701655,16.70798 C14.4689692,16.5581927 15.2672812,16.3999462 16.0661396,16.2259479 C16.5671676,16.1165609 16.9818134,15.5332365 16.9873865,14.9356188 C17.0208248,11.301272 17.0542631,7.66692521 17.0876467,4.03214087 Z" id="Fill-4" fill="#D72F27"></path>
                    <path d="M58.6070864,2.06568065 C55.9717819,-2.04410759 45.6429748,1.24788516 45.6429748,1.24788516 C35.3880388,3.99330878 25.1331028,7.46756747 14.8782302,9.40975553 C14.2960199,9.51990789 13.6884878,10.3448868 13.6822684,10.9696679 C13.6403193,15.0757209 13.724281,18.9524562 13.6822684,23.0585092 C13.6758586,23.6827567 14.1468182,24.1101783 14.728965,24.0005596 C25.5416146,21.9688013 36.3541373,18.2198859 47.1667234,15.4073798 C47.348799,15.3595836 47.5186897,15.2611707 47.6697318,15.1346289 C51.6674618,13.8861339 60.3584136,11.6176814 62.3701299,14.7559182 L58.6070864,2.06568065 Z" id="Fill-6" fill="url(#linearGradient-12)"></path>
                    <path d="M14.2379954,22.9311618 L13.7581818,23.0717991 L13.4769072,22.1121718 L13.9567208,21.9715345 C37.8030737,14.9819739 50.7524386,11.2711297 52.8913431,10.8154405 C55.082259,10.3486705 57.7029936,10.4109838 60.7554221,10.9956638 L61.2464945,11.0897267 L61.0583688,12.0718716 L60.5672963,11.9778087 C57.6369005,11.4165036 55.1470815,11.357303 53.0997146,11.7934903 C51.0003363,12.2407584 38.0175873,15.9611694 14.2379954,22.9311618 Z" id="Line-2" fill="#DF3C26" fill-rule="nonzero"></path>
                    <path d="M14.2317147,12.4904707 L13.7501046,12.6248273 L13.4813914,11.6616071 L13.9630015,11.5272505 C36.0770783,5.35800265 48.1691843,2.05440769 50.3045494,1.59947262 C52.4954653,1.13270256 55.1161998,1.1950159 58.1686283,1.77969587 L58.6597008,1.87375876 L58.471575,2.85590371 L57.9805026,2.76184082 C55.0501067,2.2005357 52.5602877,2.14133514 50.5129208,2.57752238 C48.4100031,3.0255446 36.2945244,6.33552506 14.2317147,12.4904707 Z" id="Line-2" fill="#DF3C26" fill-rule="nonzero"></path>
                    <path d="M1.69710693,7.39931994 L1.19724299,7.38765618 L1.2205705,6.38792831 L1.72043443,6.39959206 C6.11589625,6.50215514 9.35722499,6.32991062 11.4300164,5.88830674 C13.1378243,5.52446184 14.4704812,5.10382778 15.4232604,4.63172065 L15.8712766,4.40972625 L16.3152654,5.30575859 L15.8672492,5.52775299 C14.8291978,6.04211297 13.421153,6.48654211 11.6383878,6.86635651 C9.47289639,7.32770993 6.16393753,7.50354832 1.69710693,7.39931994 Z" id="Line-2" fill="#DF3C26" fill-rule="nonzero"></path>
                    <path d="M1.69630628,16.275415 L1.19646166,16.2629506 L1.22139047,15.2632614 L1.72123509,15.2757258 C5.83178542,15.3782287 8.92953119,15.2061318 11.0028237,14.7644211 C11.7896937,14.5967801 12.4973667,14.4170171 13.1255198,14.2254023 L13.6037638,14.0795165 L13.8955354,15.0360046 L13.4172914,15.1818904 C12.7601883,15.3823362 12.0249305,15.5691063 11.2111952,15.7424709 C9.04620486,16.2037175 5.87845813,16.3797035 1.69630628,16.275415 Z" id="Line-2" fill="#DF3C26" fill-rule="nonzero"></path>
                </g>
            </g>
        </g>
    </g>
</svg>