<?xml version="1.0" encoding="UTF-8"?>
<svg width="17px" height="28px" viewBox="0 0 17 28" version="1.1" xmlns="http://www.w3.org/2000/svg" xmlns:xlink="http://www.w3.org/1999/xlink">
    <!-- Generator: Sketch 49 (51002) - http://www.bohemiancoding.com/sketch -->
    <title>raise</title>
    <desc>Created with Sketch.</desc>
    <defs>
        <linearGradient x1="50%" y1="100%" x2="50%" y2="22.4123916%" id="linearGradient-1">
            <stop stop-color="#B4EC51" stop-opacity="0" offset="0%"></stop>
            <stop stop-color="#B4EC51" stop-opacity="0.838768116" offset="25.4109465%"></stop>
            <stop stop-color="#429321" offset="100%"></stop>
        </linearGradient>
        <linearGradient x1="50%" y1="100%" x2="50%" y2="3.061617e-15%" id="linearGradient-2">
            <stop stop-color="#B4EC51" stop-opacity="0" offset="0%"></stop>
            <stop stop-color="#B4EC51" offset="29.3247768%"></stop>
            <stop stop-color="#2B8009" offset="100%"></stop>
        </linearGradient>
        <path d="M13.0238095,11 L13.0238095,28 L4.02380952,28 L4.02380952,11 L0,11 L8.51190476,-1.11022302e-16 L17.0238095,11 L13.0238095,11 Z" id="path-3"></path>
        <linearGradient x1="50%" y1="0%" x2="50%" y2="100%" id="linearGradient-4">
            <stop stop-color="#BBFF80" offset="0%"></stop>
            <stop stop-color="#FFFFFF" stop-opacity="0" offset="100%"></stop>
        </linearGradient>
    </defs>
    <g id="高级会员广告" stroke="none" stroke-width="1" fill="none" fill-rule="evenodd">
        <g id="高级会员购买引导-1" transform="translate(-206.000000, -126.000000)">
            <g id="raise" transform="translate(206.000000, 126.000000)">
                <g id="Combined-Shape">
                    <use fill="url(#linearGradient-1)" fill-rule="evenodd" xlink:href="#path-3"></use>
                    <path stroke="url(#linearGradient-2)" stroke-width="1" d="M16.0046902,10.5 L8.51190476,0.817015785 L1.01911936,10.5 L4.52380952,10.5 L4.52380952,27.5 L12.5238095,27.5 L12.5238095,10.5 L16.0046902,10.5 Z"></path>
                </g>
                <polygon id="Path-12" fill="url(#linearGradient-4)" fill-rule="nonzero" points="8.51190476 1.96014007 1 11 0 11 8.51190476 -1.11022302e-16 17.0238095 11 16 11"></polygon>
            </g>
        </g>
    </g>
</svg>