<?xml version="1.0" encoding="UTF-8"?>
<svg width="15px" height="17px" viewBox="0 0 15 17" version="1.1" xmlns="http://www.w3.org/2000/svg" xmlns:xlink="http://www.w3.org/1999/xlink">
    <!-- Generator: Sketch 49 (51002) - http://www.bohemiancoding.com/sketch -->
    <title>star</title>
    <desc>Created with Sketch.</desc>
    <defs>
        <linearGradient x1="50%" y1="0%" x2="50%" y2="100%" id="linearGradient-1">
            <stop stop-color="#D3A47B" offset="0%"></stop>
            <stop stop-color="#BF8553" offset="100%"></stop>
        </linearGradient>
        <linearGradient x1="100%" y1="29.7428976%" x2="50%" y2="100%" id="linearGradient-2">
            <stop stop-color="#FFE9D7" offset="0%"></stop>
            <stop stop-color="#C79264" stop-opacity="0" offset="100%"></stop>
        </linearGradient>
    </defs>
    <g id="高级会员广告" stroke="none" stroke-width="1" fill="none" fill-rule="evenodd">
        <g id="高级会员购买引导-1" transform="translate(-83.000000, -1660.000000)">
            <g id="star-liststyle" transform="translate(83.000000, 1660.000000)">
                <path d="M5.06651523,14.3873199 L2.97719506,6.42978702 L-5.68434189e-14,4.77649557 L3.50087592,3.31646198 L5.06651523,0 L6.63215453,3.31646198 L10.1330305,4.77649557 L7.15583539,6.42978702 L5.06651523,14.3873199 Z M11.8802726,17 L10.5937652,12.1001167 L8.76054519,11.0820957 L10.9162238,10.1830741 L11.8802726,8.14094909 L12.8443214,10.1830741 L15,11.0820957 L13.16678,12.1001167 L11.8802726,17 Z" id="Combined-Shape" fill="url(#linearGradient-1)"></path>
                <path d="M5.06651523,12.4184387 L6.72644466,6.09631373 L8.98771964,4.84058594 L6.26213502,3.70388609 L5.06651523,1.17122894 L3.87089543,3.70388609 L1.14531081,4.84058594 L3.4065858,6.09631373 L5.06651523,12.4184387 Z M11.8802726,15.0311187 L12.7373893,11.7666434 L13.8546892,11.1461861 L12.4743019,10.5704982 L11.8802726,9.31217803 L11.2862433,10.5704982 L9.905856,11.1461861 L11.0231559,11.7666434 L11.8802726,15.0311187 Z" id="Combined-Shape" stroke="url(#linearGradient-2)"></path>
            </g>
        </g>
    </g>
</svg>