<?xml version="1.0" encoding="UTF-8"?>
<svg width="375px" height="156px" viewBox="0 0 375 156" version="1.1" xmlns="http://www.w3.org/2000/svg" xmlns:xlink="http://www.w3.org/1999/xlink">
    <!-- Generator: Sketch 49 (51002) - http://www.bohemiancoding.com/sketch -->
    <title>特权-bg</title>
    <desc>Created with Sketch.</desc>
    <defs>
        <linearGradient x1="100%" y1="0%" x2="0%" y2="100%" id="linearGradient-1">
            <stop stop-color="#030200" offset="0%"></stop>
            <stop stop-color="#464242" offset="100%"></stop>
        </linearGradient>
        <path d="M0,60.7872628 L0,50.5288377 L7.82838211,42.4977434 L21.1423149,44.7812616 L14.8563285,32.824605 L21.1423149,20.8679485 L7.82838211,23.1514667 L4.4408921e-16,15.1203724 L0,0.5 L375,0.5 L375,155.5 L0,155.5 L0,74.7998205 L6.56949105,73.6730646 L12.3006095,79.5525876 L13.4812848,71.4272867 L20.8440564,67.7935417 L13.4812848,64.1597967 L12.3006095,56.0344958 L6.56949105,61.9140187 L-1.11022302e-15,60.7872628 Z M-4.4408921e-16,63.422928 L2.29776758,67.7935417 L-1.77635684e-15,72.1641553 L0,63.422928 Z M37.7449106,86.9363603 L41.8300079,87.7847453 L40.018549,84.0262358 L42.0877757,80.4032428 L37.9534491,80.9645993 L35.1472042,77.8770814 L34.4035088,81.9825283 L30.5999274,83.6973303 L34.2746249,85.6732796 L34.7301272,89.8206034 L37.7449106,86.9363603 Z" id="path-2"></path>
    </defs>
    <g id="高级会员广告" stroke="none" stroke-width="1" fill="none" fill-rule="evenodd">
        <g id="高级会员购买引导-1" transform="translate(0.000000, -1217.000000)">
            <g id="特权-bg" transform="translate(0.000000, 1217.000000)">
                <mask id="mask-3" fill="white">
                    <use xlink:href="#path-2"></use>
                </mask>
                <use id="Combined-Shape" fill="url(#linearGradient-1)" xlink:href="#path-2"></use>
            </g>
        </g>
    </g>
</svg>