<?xml version="1.0" encoding="UTF-8"?>
<svg width="216px" height="62px" viewBox="0 0 216 62" version="1.1" xmlns="http://www.w3.org/2000/svg" xmlns:xlink="http://www.w3.org/1999/xlink">
    <!-- Generator: Sketch 49 (51002) - http://www.bohemiancoding.com/sketch -->
    <title>升级方式标题</title>
    <desc>Created with Sketch.</desc>
    <defs>
        <linearGradient x1="50%" y1="0%" x2="50%" y2="100%" id="linearGradient-1">
            <stop stop-color="#D3A47B" offset="0%"></stop>
            <stop stop-color="#BF8553" offset="100%"></stop>
        </linearGradient>
    </defs>
    <g id="高级会员广告" stroke="none" stroke-width="1" fill="none" fill-rule="evenodd">
        <g id="高级会员购买引导-1" transform="translate(-80.000000, -1452.000000)">
            <g id="升级方式标题" transform="translate(80.000000, 1452.000000)">
                <path d="M24.228,10.234 C24.2106666,10.5286681 24.1110009,10.7843323 23.929,11.001 C23.7469991,11.2176677 23.5000016,11.3433332 23.188,11.378 C22.8066648,11.4300003 22.4036688,11.4516667 21.979,11.443 C21.5543312,11.4343333 21.1600018,11.3693339 20.796,11.248 C20.5186653,11.1613329 20.3063341,11.0096678 20.159,10.793 C20.0116659,10.5763322 19.9553332,10.3466679 19.99,10.104 C20.0246668,9.82666528 20.0463333,9.51900169 20.055,9.181 C20.0636667,8.84299831 20.0593334,8.53533472 20.042,8.258 C20.0246666,8.04999896 19.9510006,7.87233407 19.821,7.725 C19.6909993,7.57766593 19.522001,7.504 19.314,7.504 C17.0779888,7.45199974 14.764012,7.43033329 12.372,7.439 C9.97998804,7.44766671 7.67467776,7.50399948 5.456,7.608 C5.23066554,7.62533342 5.05300065,7.70333264 4.923,7.842 C4.79299935,7.98066736 4.73666658,8.14533238 4.754,8.336 C4.77133342,8.57866788 4.78433329,8.88199818 4.793,9.246 C4.80166671,9.61000182 4.79733342,9.95666502 4.78,10.286 C4.76266658,10.5633347 4.68466736,10.7973324 4.546,10.988 C4.40733264,11.1786676 4.21666788,11.2999997 3.974,11.352 C3.6273316,11.4386671 3.20700247,11.4690001 2.713,11.443 C2.21899753,11.4169999 1.78133524,11.3086676 1.4,11.118 C1.15733212,10.9793326 0.95366749,10.806001 0.789,10.598 C0.62433251,10.389999 0.542,10.121335 0.542,9.792 C0.57666684,8.37065956 0.5506671,6.95800702 0.464,5.554 C0.42933316,5.01666398 0.51166567,4.55300195 0.711,4.163 C0.91033433,3.77299805 1.1833316,3.47400104 1.53,3.266 C1.82466814,3.07533238 2.16266476,2.95833355 2.544,2.915 C2.92533524,2.87166645 3.32399792,2.91933264 3.74,3.058 C4.12133524,3.16200052 4.53299779,3.25299961 4.975,3.331 C5.41700221,3.40900039 5.86766437,3.47399974 6.327,3.526 C6.78633563,3.57800026 7.2326645,3.61266658 7.666,3.63 C8.0993355,3.64733342 8.49799818,3.64733342 8.862,3.63 C8.98333394,3.63 9.06133316,3.5866671 9.096,3.5 C9.13066684,3.4133329 9.13066684,3.31800052 9.096,3.214 C9.04399974,3.07533264 8.96166723,2.91500091 8.849,2.733 C8.73633277,2.55099909 8.6366671,2.40800052 8.55,2.304 C8.41133264,2.14799922 8.37666632,1.95733446 8.446,1.732 C8.51533368,1.50666554 8.66266554,1.36800026 8.888,1.316 C9.46000286,1.17733264 10.0493303,1.07333368 10.656,1.004 C11.2626697,0.93466632 11.864997,0.89566671 12.463,0.887 C13.061003,0.87833329 13.6373306,0.90433303 14.192,0.965 C14.7466694,1.02566697 15.2493311,1.10799948 15.7,1.212 C15.9946681,1.2986671 16.1896662,1.46766541 16.285,1.719 C16.3803338,1.97033459 16.3586674,2.21733212 16.22,2.46 C16.1333329,2.61600078 16.0466671,2.76766593 15.96,2.915 C15.8733329,3.06233407 15.8126668,3.20533264 15.778,3.344 C15.7606666,3.4306671 15.7779997,3.50866632 15.83,3.578 C15.8820003,3.64733368 15.9513329,3.67333342 16.038,3.656 C16.7833371,3.5693329 17.4983299,3.47400052 18.183,3.37 C18.8676701,3.26599948 19.5653298,3.13600078 20.276,2.98 C21.4026723,2.73733212 22.3126632,2.85866424 23.006,3.344 C23.7166702,3.82933576 24.1066663,4.61799454 24.176,5.71 C24.2280003,6.42067022 24.2583333,7.18332926 24.267,7.998 C24.2756667,8.81267074 24.2626668,9.55799662 24.228,10.234 Z M19.08,8.518 C19.1840005,8.91666866 19.2403333,9.38466398 19.249,9.922 C19.2576667,10.459336 19.1926674,10.9793308 19.054,11.482 C19.0193332,11.6553342 18.9153342,11.7766663 18.742,11.846 C18.5686658,11.9153337 18.3866676,11.9413334 18.196,11.924 C16.3586575,11.7333324 14.4303434,11.668333 12.411,11.729 C10.3916566,11.789667 8.45467594,11.923999 6.6,12.132 C6.37466554,12.1666668 6.17966749,12.1406671 6.015,12.054 C5.85033251,11.9673329 5.75066684,11.8373342 5.716,11.664 C5.66399974,11.455999 5.62933342,11.2306679 5.612,10.988 C5.59466658,10.7453321 5.586,10.4940013 5.586,10.234 C5.586,9.9739987 5.60333316,9.71833459 5.638,9.467 C5.67266684,9.21566541 5.71599974,8.99466762 5.768,8.804 C5.80266684,8.61333238 5.91966567,8.48333368 6.119,8.414 C6.31833433,8.34466632 6.5046658,8.31866658 6.678,8.336 C7.44067048,8.40533368 8.32466164,8.44433329 9.33,8.453 C10.3353384,8.46166671 11.3666614,8.45300013 12.424,8.427 C13.4813386,8.40099987 14.5169949,8.36200026 15.531,8.31 C16.5450051,8.25799974 17.4246629,8.19733368 18.17,8.128 C18.4126679,8.09333316 18.6163325,8.10633303 18.781,8.167 C18.9456675,8.22766697 19.0453332,8.3446658 19.08,8.518 Z M24.28,20.842 C24.1933329,21.3446692 24.0893339,21.8429975 23.968,22.337 C23.8466661,22.8310025 23.6560013,23.2686648 23.396,23.65 C23.1706655,23.979335 22.893335,24.247999 22.564,24.456 C22.234665,24.664001 21.8186692,24.7853332 21.316,24.82 C20.7266637,24.8546668 20.0940034,24.8806666 19.418,24.898 C18.7419966,24.9153334 18.0703367,24.924 17.403,24.924 C16.7356633,24.924 16.0856698,24.9153334 15.453,24.898 C14.8203302,24.8806666 14.2440026,24.8460003 13.724,24.794 C13.394665,24.7593332 13.1346676,24.6813339 12.944,24.56 C12.7533324,24.4386661 12.6060005,24.274001 12.502,24.066 C12.293999,23.6673313 12.2853324,23.1733363 12.476,22.584 C12.7706681,21.7346624 12.9526663,20.8506713 13.022,19.932 C13.0913337,19.0133287 13.0393342,18.0946713 12.866,17.176 C12.8313332,16.9853324 12.7490006,16.8466671 12.619,16.76 C12.4889993,16.6733329 12.3460008,16.6343333 12.19,16.643 C12.0339992,16.6516667 11.8953339,16.7079995 11.774,16.812 C11.6526661,16.9160005 11.592,17.0633324 11.592,17.254 C11.5573332,18.1380044 11.4663341,18.9526629 11.319,19.698 C11.1716659,20.4433371 10.9506681,21.1193303 10.656,21.726 C10.3786653,22.2806694 10.0623351,22.7529981 9.707,23.143 C9.35166489,23.5330019 8.9573355,23.8579987 8.524,24.118 C7.86533004,24.5166687 7.14167061,24.7766661 6.353,24.898 C5.56432939,25.0193339 4.72800442,25.0713334 3.844,25.054 C3.30666398,25.0366666 2.83866866,24.9543341 2.44,24.807 C2.04133134,24.6596659 1.68600156,24.3606689 1.374,23.91 C0.99266476,23.372664 0.71100091,22.6836709 0.529,21.843 C0.34699909,21.0023291 0.36866554,20.148671 0.594,19.282 C0.64600026,19.1086658 0.72833277,18.9613339 0.841,18.84 C0.95366723,18.7186661 1.08366593,18.6320003 1.231,18.58 C1.37833407,18.5279997 1.52133264,18.5149999 1.66,18.541 C1.79866736,18.5670001 1.90266632,18.6493326 1.972,18.788 C2.18000104,19.1346684 2.46599818,19.3686661 2.83,19.49 C3.19400182,19.6113339 3.5926645,19.6546668 4.026,19.62 C4.35533498,19.5853332 4.68899831,19.5073339 5.027,19.386 C5.36500169,19.2646661 5.67699857,19.1130009 5.963,18.931 C6.24900143,18.7489991 6.50033225,18.5410012 6.717,18.307 C6.93366775,18.0729988 7.07666632,17.8260013 7.146,17.566 C7.19800026,17.4099992 7.18500039,17.2496675 7.107,17.085 C7.02899961,16.9203325 6.88600104,16.838 6.678,16.838 C6.29666476,16.838 5.89366879,16.8596665 5.469,16.903 C5.04433121,16.9463335 4.61966879,17.0026663 4.195,17.072 C3.77033121,17.1413337 3.35866866,17.2279995 2.96,17.332 C2.56133134,17.4360005 2.20600156,17.5486661 1.894,17.67 C1.65133212,17.7566671 1.42600104,17.7523338 1.218,17.657 C1.00999896,17.5616662 0.88000026,17.4186676 0.828,17.228 C0.6546658,16.6213303 0.54633355,15.9366705 0.503,15.174 C0.45966645,14.4113295 0.4813329,13.6920034 0.568,13.016 C0.60266684,12.7733321 0.71533238,12.6086671 0.906,12.522 C1.09666762,12.4353329 1.26999922,12.4006666 1.426,12.418 C2.3793381,12.5220005 3.44966073,12.604333 4.637,12.665 C5.82433927,12.725667 7.06366021,12.7733332 8.355,12.808 C9.64633979,12.8426668 10.9593267,12.8556667 12.294,12.847 C13.6286733,12.8383333 14.9329936,12.8123335 16.207,12.769 C17.4810064,12.7256665 18.6943276,12.6650004 19.847,12.587 C20.9996724,12.5089996 22.0266622,12.4093339 22.928,12.288 C23.2746684,12.2533332 23.5693321,12.3009993 23.812,12.431 C24.0546679,12.5610007 24.2019997,12.8079982 24.254,13.172 C24.3406671,13.7613363 24.3883333,14.4113298 24.397,15.122 C24.4056667,15.8326702 24.3666671,16.4826637 24.28,17.072 C24.2453332,17.3493347 24.1110012,17.5573326 23.877,17.696 C23.6429988,17.8346674 23.3960013,17.8606671 23.136,17.774 C22.3386627,17.4793319 21.5760036,17.2583341 20.848,17.111 C20.1199964,16.9636659 19.3833371,16.9159997 18.638,16.968 C18.4473324,16.9853334 18.2653342,17.0503328 18.092,17.163 C17.9186658,17.2756672 17.8146668,17.435999 17.78,17.644 C17.7453332,17.9386681 17.728,18.2419984 17.728,18.554 C17.728,18.8660016 17.7453332,19.1346655 17.78,19.36 C17.7973334,19.5160008 17.8796659,19.6459995 18.027,19.75 C18.1743341,19.8540005 18.3433324,19.9233332 18.534,19.958 C18.6900008,19.9926668 18.8503325,19.9840003 19.015,19.932 C19.1796675,19.8799997 19.3053329,19.8020005 19.392,19.698 C19.4960005,19.5766661 19.5826663,19.4163343 19.652,19.217 C19.7213337,19.0176657 19.756,18.7706681 19.756,18.476 C19.756,18.3026658 19.8166661,18.1640005 19.938,18.06 C20.0593339,17.9559995 20.223999,17.9126666 20.432,17.93 C20.9173358,17.9646668 21.458997,18.0686658 22.057,18.242 C22.655003,18.4153342 23.1533313,18.6753316 23.552,19.022 C23.8120013,19.2473345 24.0156659,19.5073319 24.163,19.802 C24.3103341,20.0966681 24.3493337,20.4433313 24.28,20.842 Z M50.28,19.178 C50.28,20.0273376 50.2280005,20.8723291 50.124,21.713 C50.0199995,22.5536709 49.864001,23.1993311 49.656,23.65 C49.4999992,23.979335 49.2616683,24.2349991 48.941,24.417 C48.6203317,24.5990009 48.2606687,24.7333329 47.862,24.82 C47.4113311,24.9066671 46.947669,24.9370001 46.471,24.911 C45.9943309,24.8849999 45.5826684,24.8286671 45.236,24.742 C44.7679977,24.6206661 44.3563351,24.3910017 44.001,24.053 C43.6456649,23.7149983 43.3813342,23.3380021 43.208,22.922 C43.1733332,22.8353329 43.0953339,22.7876667 42.974,22.779 C42.8526661,22.7703333 42.7486671,22.8006663 42.662,22.87 C42.2286645,23.2513352 41.7606692,23.576332 41.258,23.845 C40.7553308,24.113668 40.2266694,24.3259992 39.672,24.482 C38.9266629,24.690001 38.1726705,24.8113332 37.41,24.846 C36.6473295,24.8806668 35.93667,24.8633337 35.278,24.794 C34.8793313,24.7593332 34.545668,24.6466676 34.277,24.456 C34.008332,24.2653324 33.7960008,24.0313347 33.64,23.754 C33.4493324,23.4073316 33.3150004,23.0476685 33.237,22.675 C33.1589996,22.3023315 33.12,21.9600016 33.12,21.648 C33.12,21.4226655 33.1806661,21.1973345 33.302,20.972 C33.4233339,20.7466655 33.6053321,20.6426666 33.848,20.66 C34.6453373,20.6946668 35.3646635,20.6990001 36.006,20.673 C36.6473365,20.6469999 37.236664,20.5646674 37.774,20.426 C38.311336,20.2873326 38.7879979,20.1053345 39.204,19.88 C39.6200021,19.6546655 39.9839984,19.3426687 40.296,18.944 C40.5213345,18.6666653 40.6599997,18.424001 40.712,18.216 C40.7640003,18.007999 40.7640003,17.739335 40.712,17.41 C40.6426663,16.9073308 40.5690004,16.357003 40.491,15.759 C40.4129996,15.160997 40.343667,14.5500031 40.283,13.926 C40.222333,13.3019969 40.1573337,12.6736698 40.088,12.041 C40.0186663,11.4083302 39.9493337,10.823336 39.88,10.286 C39.8106663,9.64466346 39.6633345,9.20266788 39.438,8.96 C39.2126655,8.73466554 38.7966697,8.57000052 38.19,8.466 C37.8953319,8.41399974 37.5616685,8.37933342 37.189,8.362 C36.8163315,8.34466658 36.4350019,8.34466658 36.045,8.362 C35.654998,8.37933342 35.2693352,8.40533316 34.888,8.44 C34.5066648,8.47466684 34.1600016,8.51799974 33.848,8.57 C33.6053321,8.60466684 33.4276672,8.69566593 33.315,8.843 C33.2023328,8.99033407 33.146,9.14199922 33.146,9.298 C33.146,9.43666736 33.2023328,9.56233277 33.315,9.675 C33.4276672,9.78766723 33.5966655,9.85266658 33.822,9.87 C34.3766694,9.90466684 34.9746635,9.90466684 35.616,9.87 C36.2573365,9.83533316 36.8119977,9.74000078 37.28,9.584 C37.9040031,9.35866554 38.4153313,9.4193316 38.814,9.766 C39.1953352,10.095335 39.3600003,10.5546637 39.308,11.144 C39.2213329,12.4093397 39.1736667,13.5706614 39.165,14.628 C39.1563333,15.6853386 39.2213326,16.6906619 39.36,17.644 C39.4120003,18.1640026 39.3513342,18.588665 39.178,18.918 C38.9873324,19.247335 38.6493358,19.4639995 38.164,19.568 C37.7479979,19.6546671 37.2323364,19.7023333 36.617,19.711 C36.0016636,19.7196667 35.4340026,19.7066668 34.914,19.672 C34.5499982,19.6373332 34.2510012,19.5116678 34.017,19.295 C33.7829988,19.0783322 33.5966674,18.7966684 33.458,18.45 C33.3366661,18.120665 33.2630001,17.7696685 33.237,17.397 C33.2109999,17.0243315 33.2413329,16.6906681 33.328,16.396 C33.4146671,16.1186653 33.5229993,15.9280005 33.653,15.824 C33.7830006,15.7199995 34.0039984,15.7026663 34.316,15.772 C34.4546674,15.8066668 34.5889993,15.793667 34.719,15.733 C34.8490006,15.672333 34.9313332,15.5553342 34.966,15.382 C35.0700005,14.6539964 34.8706692,14.2206674 34.368,14.082 C34.159999,14.0299997 33.9476677,14.0256665 33.731,14.069 C33.5143322,14.1123335 33.3366674,14.2206658 33.198,14.394 C33.0419992,14.5846676 32.9163338,14.8186653 32.821,15.096 C32.7256662,15.3733347 32.6433337,15.6593319 32.574,15.954 C32.4873329,16.4046689 32.444,16.8553311 32.444,17.306 C32.444,17.7566689 32.4873329,18.1119987 32.574,18.372 C32.6606671,18.5973345 32.7169999,18.8356654 32.743,19.087 C32.7690001,19.3383346 32.7733334,19.5853321 32.756,19.828 C32.7213332,20.6080039 32.6346674,21.2796638 32.496,21.843 C32.3573326,22.4063362 32.1753345,22.9133311 31.95,23.364 C31.8113326,23.6413347 31.5816683,23.8926655 31.261,24.118 C30.9403317,24.3433345 30.5633355,24.5253326 30.13,24.664 C29.7313313,24.7853339 29.3196688,24.846 28.895,24.846 C28.4703312,24.846 28.1020016,24.7853339 27.79,24.664 C27.4953319,24.5599995 27.2570009,24.3650014 27.075,24.079 C26.8929991,23.7929986 26.7673337,23.4420021 26.698,23.026 C26.6286663,22.6099979 26.5766668,22.0900031 26.542,21.466 C26.5073332,20.8419969 26.49,20.2093365 26.49,19.568 C26.49,19.0653308 26.4986666,18.5886689 26.516,18.138 C26.5333334,17.6873311 26.5679997,17.3146681 26.62,17.02 C26.6546668,16.8293324 26.7326661,16.6516675 26.854,16.487 C26.9753339,16.3223325 27.1053326,16.2053337 27.244,16.136 C27.3653339,16.0839997 27.4909993,16.088333 27.621,16.149 C27.7510006,16.209667 27.8679995,16.3526655 27.972,16.578 C28.0066668,16.6646671 28.0716662,16.708 28.167,16.708 C28.2623338,16.708 28.3186666,16.6386674 28.336,16.5 C28.3880003,15.7893298 28.4096667,14.9746713 28.401,14.056 C28.3923333,13.1373287 28.3663335,12.1840049 28.323,11.196 C28.2796664,10.2079951 28.2190004,9.22433823 28.141,8.245 C28.0629996,7.26566177 27.9633339,6.36000416 27.842,5.528 C27.7726663,5.05999766 27.7856662,4.60500221 27.881,4.163 C27.9763338,3.72099779 28.1539987,3.37866788 28.414,3.136 C28.7606684,2.84133186 29.2893298,2.67666684 30,2.642 C30.3986687,2.62466658 30.8059979,2.64633303 31.222,2.707 C31.6380021,2.76766697 32.010665,2.83266632 32.34,2.902 C33.206671,3.09266762 34.1079953,3.23999948 35.044,3.344 C35.9800047,3.44800052 36.9679948,3.47400026 38.008,3.422 C38.1640008,3.40466658 38.2506666,3.34833381 38.268,3.253 C38.2853334,3.15766619 38.2506671,3.05800052 38.164,2.954 C38.0599995,2.83266606 37.9256675,2.69833407 37.761,2.551 C37.5963325,2.40366593 37.4360008,2.26066736 37.28,2.122 C37.1413326,2.00066606 37.1066663,1.81433459 37.176,1.563 C37.2453337,1.31166541 37.3926655,1.15133368 37.618,1.082 C37.9646684,0.97799948 38.4153306,0.90000026 38.97,0.848 C39.5246694,0.79599974 40.100997,0.77 40.699,0.77 C41.297003,0.77 41.8819971,0.79166645 42.454,0.835 C43.0260029,0.87833355 43.5026648,0.9433329 43.884,1.03 C44.0746676,1.06466684 44.2219995,1.13399948 44.326,1.238 C44.4300005,1.34200052 44.4993332,1.46333264 44.534,1.602 C44.6206671,1.93133498 44.5686676,2.1826658 44.378,2.356 C44.0659984,2.6160013 43.9619995,2.86733212 44.066,3.11 C44.1180003,3.23133394 44.2219992,3.31366645 44.378,3.357 C44.5340008,3.40033355 44.6986658,3.41333342 44.872,3.396 C45.0626676,3.37866658 45.2273326,3.32233381 45.366,3.227 C45.5046674,3.13166619 45.5220005,2.9973342 45.418,2.824 C45.209999,2.52933186 45.0973334,2.2953342 45.08,2.122 C45.0453332,1.98333264 45.058333,1.8706671 45.119,1.784 C45.179667,1.6973329 45.2793326,1.60200052 45.418,1.498 C45.5913342,1.35933264 45.8383317,1.26400026 46.159,1.212 C46.4796683,1.15999974 46.8133316,1.14266658 47.16,1.16 C47.489335,1.17733342 47.8013319,1.21199974 48.096,1.264 C48.3906681,1.31600026 48.6333324,1.39399948 48.824,1.498 C49.1360016,1.65400078 49.2746668,1.84466554 49.24,2.07 C49.2226666,2.20866736 49.1706671,2.33866606 49.084,2.46 C48.9973329,2.58133394 48.8933339,2.69399948 48.772,2.798 C48.7026663,2.86733368 48.6809999,2.9453329 48.707,3.032 C48.7330001,3.1186671 48.7893329,3.18799974 48.876,3.24 C49.0146674,3.3266671 49.1619992,3.30933394 49.318,3.188 C49.4220005,3.1013329 49.5303328,3.06666658 49.643,3.084 C49.7556672,3.10133342 49.8293332,3.17066606 49.864,3.292 C49.9506671,3.58666814 50.0156664,3.92466476 50.059,4.306 C50.1023335,4.68733524 50.124,5.07733134 50.124,5.476 C50.124,5.97866918 50.1023335,6.46399766 50.059,6.932 C50.0156664,7.40000234 49.9420005,7.78999844 49.838,8.102 C49.7513329,8.32733446 49.6300008,8.4833329 49.474,8.57 C49.265999,8.67400052 49.0146681,8.70000026 48.72,8.648 C48.390665,8.5613329 48.0093355,8.44866736 47.576,8.31 C47.1426645,8.17133264 46.7353352,8.07600026 46.354,8.024 C45.8859977,7.97199974 45.4786684,8.04133238 45.132,8.232 C44.6639977,8.47466788 44.4040003,8.8993303 44.352,9.506 C44.3173332,9.90466866 44.3216664,10.3249978 44.365,10.767 C44.4083335,11.2090022 44.4993326,11.5859984 44.638,11.898 C44.6900003,12.0366674 44.7809993,12.1103333 44.911,12.119 C45.0410006,12.1276667 45.1493329,12.0713339 45.236,11.95 C45.3920008,11.741999 45.4656667,11.4690017 45.457,11.131 C45.4483333,10.7929983 45.3833339,10.4420018 45.262,10.078 C45.1579995,9.7313316 45.2013324,9.44533446 45.392,9.22 C45.4786671,9.1333329 45.5783328,9.07266684 45.691,9.038 C45.8036672,9.00333316 45.9206661,8.97733342 46.042,8.96 C46.8393373,8.90799974 47.6279961,9.08133134 48.408,9.48 C48.9626694,9.7400013 49.4219982,10.0953311 49.786,10.546 C49.9420008,10.7366676 50.02,10.9446655 50.02,11.17 C50.02,11.3953345 49.9506674,11.611999 49.812,11.82 C49.5866655,12.149335 49.3180016,12.6303302 49.006,13.263 C48.6939984,13.8956698 48.373335,14.5629965 48.044,15.265 C47.714665,15.9670035 47.4070014,16.6559966 47.121,17.332 C46.8349986,18.0080034 46.6140008,18.5626645 46.458,18.996 C46.4059997,19.1346674 46.4146663,19.2603328 46.484,19.373 C46.5533337,19.4856672 46.6486661,19.5593332 46.77,19.594 C46.8740005,19.6286668 46.9866661,19.6286668 47.108,19.594 C47.2293339,19.5593332 47.3246663,19.4640008 47.394,19.308 C47.6366679,18.770664 47.861999,18.2290027 48.07,17.683 C48.278001,17.1369973 48.5206653,16.6560021 48.798,16.24 C48.9540008,15.9973321 49.1706653,15.8933332 49.448,15.928 C49.5866674,15.9626668 49.7209993,16.0189996 49.851,16.097 C49.9810006,16.1750004 50.0633332,16.3093324 50.098,16.5 C50.1673337,16.8120016 50.2149999,17.2019977 50.241,17.67 C50.2670001,18.1380023 50.28,18.640664 50.28,19.178 Z M76.254,14.758 C76.2193332,15.0526681 76.067668,15.2736659 75.799,15.421 C75.530332,15.5683341 75.2660013,15.6073337 75.006,15.538 C74.7806655,15.4686663 74.5206681,15.4080003 74.226,15.356 C73.9313319,15.3039997 73.6886676,15.2606668 73.498,15.226 C73.2379987,15.1913332 73.004001,15.277999 72.796,15.486 C72.587999,15.694001 72.4753334,15.9193321 72.458,16.162 C72.458,16.3180008 72.4536667,16.5736649 72.445,16.929 C72.4363333,17.2843351 72.432,17.6699979 72.432,18.086 L72.432,20.296 C72.432,20.504001 72.4493332,20.7509986 72.484,21.037 C72.5186668,21.3230014 72.5619997,21.6133319 72.614,21.908 C72.6660003,22.2026681 72.7266663,22.4886653 72.796,22.766 C72.8653337,23.0433347 72.9346663,23.2686658 73.004,23.442 C73.1080005,23.7193347 73.0863341,24.0139984 72.939,24.326 C72.7916659,24.6380016 72.553335,24.8113332 72.224,24.846 C71.894665,24.8806668 71.5133355,24.9066666 71.08,24.924 C70.6466645,24.9413334 70.2046689,24.9543333 69.754,24.963 C69.3033311,24.9716667 68.8570022,24.9716667 68.415,24.963 C67.9729978,24.9543333 67.5786684,24.9413334 67.232,24.924 C66.7813311,24.8893332 66.4650009,24.7290014 66.283,24.443 C66.1009991,24.1569986 66.0879992,23.8060021 66.244,23.39 C66.5040013,22.6446629 66.6773329,21.6913391 66.764,20.53 C66.8160003,19.8193298 66.8376667,19.0740039 66.829,18.294 C66.8203333,17.5139961 66.7986668,16.8466694 66.764,16.292 C66.7293332,16.0146653 66.6123343,15.7850009 66.413,15.603 C66.2136657,15.4209991 65.9840013,15.3126668 65.724,15.278 C65.5853326,15.2606666 65.412001,15.2476667 65.204,15.239 C64.995999,15.2303333 64.7836677,15.226 64.567,15.226 L63.956,15.226 C63.7653324,15.226 63.6093339,15.2346666 63.488,15.252 C63.2279987,15.2866668 62.9983343,15.3993324 62.799,15.59 C62.5996657,15.7806676 62.5,16.0233319 62.5,16.318 L62.5,16.89 C62.5,17.1500013 62.4956667,17.4273319 62.487,17.722 C62.4783333,18.0166681 62.4696667,18.3199984 62.461,18.632 C62.4523333,18.9440016 62.448,19.2126655 62.448,19.438 C62.4133332,20.2353373 62.2746679,20.9286637 62.032,21.518 C61.7893321,22.1073363 61.4513355,22.6186645 61.018,23.052 C60.3939969,23.6760031 59.6226713,24.1396651 58.704,24.443 C57.7853287,24.7463349 56.8060052,24.9153332 55.766,24.95 C55.3673313,24.9673334 55.0206681,24.9543335 54.726,24.911 C54.4313319,24.8676664 54.1626679,24.7766674 53.92,24.638 C53.4173308,24.3606653 53.0273347,23.8146707 52.75,23 C52.6633329,22.7573321 52.5983335,22.4496685 52.555,22.077 C52.5116664,21.7043315 52.4813334,21.3186687 52.464,20.92 C52.4466666,20.5213313 52.4466666,20.1226687 52.464,19.724 C52.4813334,19.3253313 52.5159997,18.9700016 52.568,18.658 C52.6200003,18.3113316 52.8236649,18.0470009 53.179,17.865 C53.5343351,17.6829991 53.8853316,17.6613326 54.232,17.8 C54.4226676,17.8866671 54.6739984,17.9819995 54.986,18.086 C55.2980016,18.1900005 55.5406658,18.2679997 55.714,18.32 C55.9566679,18.4066671 56.2209986,18.3936672 56.507,18.281 C56.7930014,18.1683328 56.9706663,17.9820013 57.04,17.722 C57.0746668,17.6179995 57.1006666,17.4706676 57.118,17.28 C57.1353334,17.0893324 57.1483333,16.8943343 57.157,16.695 C57.1656667,16.4956657 57.17,16.3006676 57.17,16.11 C57.17,15.9193324 57.1613334,15.7633339 57.144,15.642 C57.1266666,15.4686658 57.0400008,15.3430004 56.884,15.265 C56.7279992,15.1869996 56.5720008,15.148 56.416,15.148 C56.2773326,15.148 56.0996677,15.1653332 55.883,15.2 C55.6663322,15.2346668 55.4453345,15.2779997 55.22,15.33 C54.9946655,15.3820003 54.778001,15.4339997 54.57,15.486 C54.361999,15.5380003 54.2060005,15.5899997 54.102,15.642 C53.9806661,15.6940003 53.8376675,15.72 53.673,15.72 C53.5083325,15.72 53.3523341,15.6940003 53.205,15.642 C53.0576659,15.5899997 52.9320005,15.5120005 52.828,15.408 C52.7239995,15.3039995 52.6633334,15.1740008 52.646,15.018 C52.6113332,14.7579987 52.5853334,14.4113355 52.568,13.978 C52.5506666,13.5446645 52.5376667,13.089669 52.529,12.613 C52.5203333,12.1363309 52.5203333,11.6770022 52.529,11.235 C52.5376667,10.7929978 52.5506666,10.4420013 52.568,10.182 C52.6026668,9.88733186 52.723999,9.65766749 52.932,9.493 C53.140001,9.32833251 53.3913319,9.2893329 53.686,9.376 C53.8246674,9.42800026 54.0109988,9.48433303 54.245,9.545 C54.4790012,9.60566697 54.7216654,9.67066632 54.973,9.74 C55.2243346,9.80933368 55.4583322,9.86566645 55.675,9.909 C55.8916677,9.95233355 56.0606661,9.98266658 56.182,10 C56.3206674,10.0346668 56.4853324,10.0173337 56.676,9.948 C56.8666676,9.87866632 56.9793332,9.7573342 57.014,9.584 C57.0486668,9.4106658 57.0703333,9.20700117 57.079,8.973 C57.0876667,8.73899883 57.0833334,8.54400078 57.066,8.388 C57.0313332,8.19733238 56.9360008,8.04133394 56.78,7.92 C56.6239992,7.79866606 56.4506676,7.75533316 56.26,7.79 C56.1559995,7.80733342 56.0303341,7.82899987 55.883,7.855 C55.7356659,7.88100013 55.5840008,7.91133316 55.428,7.946 C55.2719992,7.98066684 55.1246674,8.01533316 54.986,8.05 C54.8473326,8.08466684 54.7433337,8.11933316 54.674,8.154 C54.4139987,8.2406671 54.1150017,8.24933368 53.777,8.18 C53.4389983,8.11066632 53.2093339,7.93733472 53.088,7.66 C53.0013329,7.45199896 52.9190004,7.15300195 52.841,6.763 C52.7629996,6.37299805 52.7023335,5.94833563 52.659,5.489 C52.6156664,5.02966437 52.5896667,4.56166905 52.581,4.085 C52.5723333,3.60833095 52.5853332,3.17933524 52.62,2.798 C52.6546668,2.52066528 52.806332,2.29966749 53.075,2.135 C53.343668,1.97033251 53.6079987,1.96599922 53.868,2.122 C54.1106679,2.26066736 54.4096649,2.3733329 54.765,2.46 C55.1203351,2.5466671 55.4799982,2.58133342 55.844,2.564 C56.1386681,2.564 56.5113311,2.54233355 56.962,2.499 C57.4126689,2.45566645 57.8849975,2.39933368 58.379,2.33 C58.8730025,2.26066632 59.3713308,2.17833381 59.874,2.083 C60.3766692,1.98766619 60.8359979,1.88800052 61.252,1.784 C61.5986684,1.6973329 61.8933321,1.60200052 62.136,1.498 C62.3786679,1.39399948 62.5433329,1.29000052 62.63,1.186 C62.7686674,1.0126658 62.9766653,0.926 63.254,0.926 C63.5313347,0.926 63.7566658,0.98666606 63.93,1.108 C64.2766684,1.35066788 64.5669988,1.66699805 64.801,2.057 C65.0350012,2.44700195 65.2299992,2.88466424 65.386,3.37 C65.5246674,3.82066892 65.6329996,4.28433095 65.711,4.761 C65.7890004,5.23766905 65.8106668,5.66666476 65.776,6.048 C65.7586666,6.32533472 65.6373345,6.54199922 65.412,6.698 C65.1866655,6.85400078 64.9526679,6.89733368 64.71,6.828 C64.5713326,6.79333316 64.3546681,6.75000026 64.06,6.698 C63.7653319,6.64599974 63.5486674,6.62 63.41,6.62 C63.201999,6.62 63.0243341,6.66766619 62.877,6.763 C62.7296659,6.85833381 62.6473334,6.98399922 62.63,7.14 C62.6126666,7.27866736 62.5996667,7.45633225 62.591,7.673 C62.5823333,7.88966775 62.578,8.11499883 62.578,8.349 C62.578,8.58300117 62.5866666,8.80833225 62.604,9.025 C62.6213334,9.24166775 62.6386666,9.41933264 62.656,9.558 C62.6906668,9.69666736 62.7989991,9.83966593 62.981,9.987 C63.1630009,10.1343341 63.3493324,10.208 63.54,10.208 L64.073,10.208 C64.2896677,10.208 64.5106655,10.2036667 64.736,10.195 C64.9613345,10.1863333 65.177999,10.1776667 65.386,10.169 C65.594001,10.1603333 65.7586661,10.156 65.88,10.156 C66.1746681,10.1213332 66.4173324,9.96533472 66.608,9.688 C66.7986676,9.41066528 66.9026666,9.1420013 66.92,8.882 C66.9546668,8.32733056 66.9546668,7.74233641 66.92,7.127 C66.8853332,6.51166359 66.8290004,5.91366957 66.751,5.333 C66.6729996,4.75233043 66.5690006,4.21500247 66.439,3.721 C66.3089993,3.22699753 66.1573342,2.81533498 65.984,2.486 C65.8453326,2.19133186 65.8323328,1.90100143 65.945,1.615 C66.0576672,1.32899857 66.2873316,1.16866684 66.634,1.134 C66.9806684,1.09933316 67.4183307,1.07333342 67.947,1.056 C68.4756693,1.03866658 69.0173306,1.03 69.572,1.03 C70.1266694,1.03 70.6553308,1.03866658 71.158,1.056 C71.6606692,1.07333342 72.0593319,1.09933316 72.354,1.134 C72.6486681,1.16866684 72.8739992,1.33333186 73.03,1.628 C73.1860008,1.92266814 73.1946674,2.20866528 73.056,2.486 C72.9173326,2.72866788 72.8090004,3.07966437 72.731,3.539 C72.6529996,3.99833563 72.5966668,4.49666398 72.562,5.034 C72.5446666,5.36333498 72.5316667,5.72299805 72.523,6.113 C72.5143333,6.50300195 72.51,6.87999818 72.51,7.244 L72.51,8.284 C72.51,8.61333498 72.5186666,8.88199896 72.536,9.09 C72.5533334,9.31533446 72.6833321,9.49733264 72.926,9.636 C73.1686679,9.77466736 73.3853324,9.81800026 73.576,9.766 C73.784001,9.71399974 74.0309986,9.63600052 74.317,9.532 C74.6030014,9.42799948 74.8239992,9.3326671 74.98,9.246 C75.2746681,9.08999922 75.5519987,9.08133264 75.812,9.22 C76.0720013,9.35866736 76.2193332,9.57533186 76.254,9.87 C76.2886668,10.2166684 76.3103333,10.6153311 76.319,11.066 C76.3276667,11.5166689 76.332,11.9673311 76.332,12.418 C76.332,12.8686689 76.3276667,13.2976646 76.319,13.705 C76.3103333,14.1123354 76.2886668,14.4633319 76.254,14.758 Z M102.046,8.232 C102.167334,8.9253368 102.189,9.59266346 102.111,10.234 C102.033,10.8753365 101.924667,11.5079969 101.786,12.132 C101.577999,13.0853381 101.292002,14.0213287 100.928,14.94 C100.563998,15.8586713 100.156669,16.7599956 99.706,17.644 C99.6193329,17.7826674 99.6453326,17.8909996 99.784,17.969 C99.9226674,18.0470004 100.043999,18.0166674 100.148,17.878 C100.286667,17.7046658 100.403666,17.5616672 100.499,17.449 C100.594334,17.3363328 100.702666,17.2106674 100.824,17.072 C101.049334,16.8293321 101.287665,16.7513329 101.539,16.838 C101.790335,16.9246671 101.933333,17.071999 101.968,17.28 C102.193334,18.2853384 102.288667,19.2689952 102.254,20.231 C102.219333,21.1930048 102.106668,22.2633274 101.916,23.442 C101.846666,23.8580021 101.669001,24.1916654 101.383,24.443 C101.096999,24.6943346 100.763335,24.8806661 100.382,25.002 C100.017998,25.1060005 99.6410019,25.1536667 99.251,25.145 C98.860998,25.1363333 98.501335,25.0626674 98.172,24.924 C97.7039977,24.7333324 97.2360023,24.2740036 96.768,23.546 C96.6813329,23.4246661 96.5860005,23.4159995 96.482,23.52 C96.152665,23.8146681 95.6976696,24.1136652 95.117,24.417 C94.5363304,24.7203348 93.977336,24.9066663 93.44,24.976 C92.9893311,25.0280003 92.6080016,24.9630009 92.296,24.781 C91.9839984,24.5989991 91.8020003,24.2306694 91.75,23.676 C91.6979997,23.0519969 91.6806666,22.471336 91.698,21.934 C91.7153334,21.396664 91.7846661,20.7900034 91.906,20.114 C91.9406668,19.8713321 92.0229993,19.719667 92.153,19.659 C92.2830006,19.598333 92.4433324,19.5853332 92.634,19.62 C92.9980018,19.6720003 93.2753324,19.6373339 93.466,19.516 C93.5873339,19.4119995 93.6913329,19.2906674 93.778,19.152 C93.8820005,18.9786658 93.8906671,18.8400005 93.804,18.736 C93.6653326,18.5973326 93.5050009,18.3763348 93.323,18.073 C93.1409991,17.7696652 92.9633342,17.4360018 92.79,17.072 C92.7553332,16.9853329 92.7120003,16.9593332 92.66,16.994 C92.6079997,17.0286668 92.5646668,17.0893329 92.53,17.176 C92.4953332,17.3146674 92.4736667,17.4663325 92.465,17.631 C92.4563333,17.7956675 92.4433334,17.981999 92.426,18.19 C92.3913332,18.4846681 92.2526679,18.6839995 92.01,18.788 C91.6633316,18.9266674 91.3816677,19.1563317 91.165,19.477 C90.9483322,19.7976683 90.8226668,20.1833311 90.788,20.634 C90.7533332,21.1193358 90.7316667,21.5959977 90.723,22.064 C90.7143333,22.5320023 90.71,22.9739979 90.71,23.39 C90.71,23.6153345 90.6840003,23.8103325 90.632,23.975 C90.5799997,24.1396675 90.4673342,24.2653329 90.294,24.352 C89.8086642,24.5773345 89.4056683,24.7246663 89.085,24.794 C88.7643317,24.8633337 88.4220018,24.9153332 88.058,24.95 C87.9539995,24.95 87.8370006,24.9456667 87.707,24.937 C87.5769993,24.9283333 87.4556672,24.8893337 87.343,24.82 C87.2303328,24.7506663 87.1306671,24.6510007 87.044,24.521 C86.9573329,24.3909993 86.9053334,24.222001 86.888,24.014 C86.8186663,23.147329 86.8316662,22.2676711 86.927,21.375 C87.0223338,20.4823289 87.1653324,19.6373373 87.356,18.84 C87.4080003,18.5973321 87.5163325,18.3980008 87.681,18.242 C87.8456675,18.0859992 88.0059992,17.9386674 88.162,17.8 C88.3006674,17.6786661 88.3959997,17.5400008 88.448,17.384 C88.5000003,17.2279992 88.5433332,17.0026681 88.578,16.708 C88.6473337,15.9973298 88.7079997,15.2563372 88.76,14.485 C88.8120003,13.7136628 88.8509999,12.925004 88.877,12.119 C88.9030001,11.312996 88.9203333,10.5113373 88.929,9.714 C88.9376667,8.91666268 88.9246668,8.14533706 88.89,7.4 C88.89,7.27866606 88.8423338,7.1746671 88.747,7.088 C88.6516662,7.0013329 88.5433339,6.97533316 88.422,7.01 C88.3179995,7.04466684 88.2226671,7.03600026 88.136,6.984 C88.0493329,6.93199974 87.9973334,6.8193342 87.98,6.646 C87.9106663,5.91799636 87.876,5.1640039 87.876,4.384 C87.876,3.6039961 87.9193329,2.93666944 88.006,2.382 C88.0753337,1.87933082 88.2573319,1.55000078 88.552,1.394 C88.8466681,1.23799922 89.2453308,1.19466632 89.748,1.264 C90.4586702,1.3506671 91.216996,1.41566645 92.023,1.459 C92.829004,1.50233355 93.6436625,1.51533342 94.467,1.498 C95.2903374,1.48066658 96.0833295,1.44166697 96.846,1.381 C97.6086705,1.32033303 98.3019969,1.22933394 98.926,1.108 C99.4286692,1.0213329 99.8663315,1.06899909 100.239,1.251 C100.611669,1.43300091 100.884666,1.67999844 101.058,1.992 C101.196667,2.2520013 101.270333,2.53366515 101.279,2.837 C101.287667,3.14033485 101.196668,3.43933186 101.006,3.734 C100.867333,3.94200104 100.720001,4.18466528 100.564,4.462 C100.407999,4.73933472 100.247667,5.02099857 100.083,5.307 C99.9183325,5.59300143 99.7623341,5.87899857 99.615,6.165 C99.4676659,6.45100143 99.3420005,6.7239987 99.238,6.984 C99.1166661,7.2440013 99.1339992,7.42599948 99.29,7.53 C99.4460008,7.63400052 99.5846661,7.6426671 99.706,7.556 C99.9486679,7.3826658 100.199999,7.2526671 100.46,7.166 C100.720001,7.0793329 100.962666,7.05333316 101.188,7.088 C101.396001,7.12266684 101.573666,7.2266658 101.721,7.4 C101.868334,7.5733342 101.976666,7.85066476 102.046,8.232 Z M87.824,14.082 C87.7893332,14.4460018 87.7200005,14.7839984 87.616,15.096 C87.5119995,15.4080016 87.3473345,15.6419992 87.122,15.798 C86.9313324,15.9366674 86.6973347,16.0796659 86.42,16.227 C86.1426653,16.3743341 85.8480016,16.5216659 85.536,16.669 C85.2239984,16.8163341 84.903335,16.9549993 84.574,17.085 C84.244665,17.2150007 83.9326681,17.3319995 83.638,17.436 C83.0833306,17.6266676 82.5503359,17.8086658 82.039,17.982 C81.5276641,18.1553342 81.107335,18.3113326 80.778,18.45 C80.5526655,18.5540005 80.3403343,18.6406663 80.141,18.71 C79.9416657,18.7793337 79.7553342,18.8053334 79.582,18.788 C79.252665,18.7533332 79.0533337,18.5540018 78.984,18.19 C78.9319997,17.9646655 78.8886668,17.7003348 78.854,17.397 C78.8193332,17.0936652 78.7976667,16.7816683 78.789,16.461 C78.7803333,16.1403317 78.7846666,15.815335 78.802,15.486 C78.8193334,15.156665 78.8626663,14.8446681 78.932,14.55 C79.0013337,14.2899987 79.1053326,14.0863341 79.244,13.939 C79.3826674,13.7916659 79.5993319,13.7006668 79.894,13.666 C80.2926687,13.6139997 80.6739982,13.4320016 81.038,13.12 C81.3326681,12.8773321 81.5319995,12.5826684 81.636,12.236 C81.6880003,12.0626658 81.6880003,11.9240005 81.636,11.82 C81.5666663,11.6813326 81.4366676,11.6553329 81.246,11.742 C81.0033321,11.8286671 80.7693345,11.9369993 80.544,12.067 C80.3186655,12.1970007 80.102001,12.3226661 79.894,12.444 C79.7726661,12.5133337 79.6600005,12.5393334 79.556,12.522 C79.4519995,12.5046666 79.3653337,12.4613337 79.296,12.392 C79.2266663,12.3226663 79.1660003,12.2403338 79.114,12.145 C79.0619997,12.0496662 79.0273334,11.9586671 79.01,11.872 C78.9059995,11.3866642 78.8323335,10.7280042 78.789,9.896 C78.7456664,9.06399584 78.7413332,8.23200416 78.776,7.4 C78.7933334,6.91466424 78.9839982,6.56800104 79.348,6.36 C79.6600016,6.15199896 79.8853326,5.8746684 80.024,5.528 C80.1106671,5.30266554 80.1756664,5.05566801 80.219,4.787 C80.2623335,4.51833199 80.2926666,4.28866762 80.31,4.098 C80.3446668,3.82066528 80.3490001,3.53466814 80.323,3.24 C80.2969999,2.94533186 80.2580003,2.61600182 80.206,2.252 C80.1539997,1.85333134 80.2233324,1.58033407 80.414,1.433 C80.6046676,1.28566593 80.8299987,1.20333342 81.09,1.186 C81.3326679,1.16866658 81.6749978,1.16433329 82.117,1.173 C82.5590022,1.18166671 83.0226642,1.2293329 83.508,1.316 C83.716001,1.35066684 83.954332,1.39399974 84.223,1.446 C84.491668,1.49800026 84.7559987,1.55433303 85.016,1.615 C85.2760013,1.67566697 85.5229988,1.73633303 85.757,1.797 C85.9910012,1.85766697 86.1773326,1.92266632 86.316,1.992 C86.5586679,2.09600052 86.7189996,2.23033251 86.797,2.395 C86.8750004,2.55966749 86.9053334,2.71133264 86.888,2.85 C86.8706666,3.00600078 86.8013339,3.14033277 86.68,3.253 C86.5586661,3.36566723 86.4286674,3.4653329 86.29,3.552 C85.9259982,3.77733446 85.5923348,4.04166515 85.289,4.345 C84.9856651,4.64833485 84.6780016,4.99066476 84.366,5.372 C83.8633308,5.99600312 83.4733347,6.62866346 83.196,7.27 C83.0573326,7.6166684 83.0746658,7.81599974 83.248,7.868 C83.3346671,7.90266684 83.4343328,7.90266684 83.547,7.868 C83.6596672,7.83333316 83.7766661,7.75533394 83.898,7.634 C84.1406679,7.40866554 84.3833321,7.09666866 84.626,6.698 C84.8686679,6.29933134 85.093999,5.90933524 85.302,5.528 C85.4060005,5.33733238 85.5663322,5.21600026 85.783,5.164 C85.9996677,5.11199974 86.2033324,5.10333316 86.394,5.138 C86.5846676,5.17266684 86.7579992,5.25066606 86.914,5.372 C87.0700008,5.49333394 87.1739997,5.64933238 87.226,5.84 C87.2953337,6.11733472 87.3429999,6.48999766 87.369,6.958 C87.3950001,7.42600234 87.3906668,7.89399766 87.356,8.362 C87.3213332,8.74333524 87.273667,9.09433173 87.213,9.415 C87.152333,9.73566827 87.0526674,9.97399922 86.914,10.13 C86.6193319,10.5286687 86.2770019,10.9663309 85.887,11.443 C85.496998,11.9196691 85.0940021,12.3833311 84.678,12.834 C84.6433332,12.8860003 84.6389999,12.942333 84.665,13.003 C84.6910001,13.063667 84.7386663,13.0766668 84.808,13.042 C84.9120005,13.0073332 85.0593324,12.9466671 85.25,12.86 C85.4406676,12.7733329 85.639999,12.6823338 85.848,12.587 L86.472,12.301 C86.680001,12.2056662 86.8446661,12.1233337 86.966,12.054 C87.295335,11.8633324 87.5293326,12.0279974 87.668,12.548 C87.7200003,12.756001 87.7676664,12.9986653 87.811,13.276 C87.8543335,13.5533347 87.8586668,13.8219987 87.824,14.082 Z M86.888,17.8 C86.7493326,18.0600013 86.6236672,18.3806648 86.511,18.762 C86.3983328,19.1433352 86.2986671,19.5333313 86.212,19.932 C86.1599997,20.2266681 86.1210001,20.5126653 86.095,20.79 C86.0689999,21.0673347 86.0733332,21.3273321 86.108,21.57 C86.1426668,21.9166684 86.0863341,22.2199987 85.939,22.48 C85.7916659,22.7400013 85.5880013,22.9566658 85.328,23.13 C84.7213303,23.5286687 84.1146697,23.8536654 83.508,24.105 C82.9013303,24.3563346 82.1820042,24.5773324 81.35,24.768 C80.9686648,24.8546671 80.5830019,24.8113342 80.193,24.638 C79.802998,24.4646658 79.5213342,24.213335 79.348,23.884 C79.1053321,23.4333311 78.9363338,22.9350027 78.841,22.389 C78.7456662,21.8429973 78.7326663,21.2060036 78.802,20.478 C78.8193334,20.0793313 78.9059992,19.8020008 79.062,19.646 C79.1486671,19.5593329 79.2439995,19.4943335 79.348,19.451 C79.4520005,19.4076665 79.5819992,19.4033332 79.738,19.438 C80.4140034,19.5246671 81.2026622,19.4553345 82.104,19.23 C82.9013373,19.0393324 83.6856628,18.7750017 84.457,18.437 C85.2283372,18.0989983 85.8739974,17.7566684 86.394,17.41 C86.6366679,17.2539992 86.8143328,17.2193329 86.927,17.306 C87.0396672,17.3926671 87.0266674,17.5573321 86.888,17.8 Z M97.366,12.496 C97.4006668,12.3226658 97.3660005,12.1666674 97.262,12.028 C97.1579995,11.8893326 97.002001,11.8546663 96.794,11.924 C96.585999,11.9760003 96.3606679,12.0106666 96.118,12.028 C95.8753321,12.0453334 95.6586676,12.0453334 95.468,12.028 C95.2426655,12.0106666 95.0303343,11.9413339 94.831,11.82 C94.6316657,11.6986661 94.4800005,11.5426676 94.376,11.352 C94.1506655,10.9533313 94.1593321,10.4766694 94.402,9.922 C94.5926676,9.52333134 94.7573326,9.08133576 94.896,8.596 C95.0346674,8.11066424 95.104,7.66866866 95.104,7.27 C95.104,7.0099987 95.0346674,6.78900091 94.896,6.607 C94.7573326,6.42499909 94.6186674,6.31666684 94.48,6.282 C94.3586661,6.24733316 94.194001,6.22566671 93.986,6.217 C93.777999,6.20833329 93.6306671,6.21266658 93.544,6.23 C93.2493319,6.28200026 93.102,6.41199896 93.102,6.62 C93.0846666,7.19200286 93.0673334,7.70333108 93.05,8.154 C93.0326666,8.60466892 93.0673329,9.12466372 93.154,9.714 C93.2233337,10.1646689 93.3056662,10.5199987 93.401,10.78 C93.4963338,11.0400013 93.6046661,11.2826655 93.726,11.508 C93.8646674,11.7333345 94.0249991,11.9889986 94.207,12.275 C94.3890009,12.5610014 94.583999,12.8556652 94.792,13.159 C95.000001,13.4623348 95.207999,13.7526653 95.416,14.03 C95.624001,14.3073347 95.8146658,14.549999 95.988,14.758 C96.196001,15.0180013 96.3693326,15.0180013 96.508,14.758 C96.6640008,14.4806653 96.8243325,14.1296688 96.989,13.705 C97.1536675,13.2803312 97.2793329,12.8773352 97.366,12.496 Z M137.588,16.682 C137.553333,17.0286684 137.505667,17.3579984 137.445,17.67 C137.384333,17.9820016 137.284667,18.2073326 137.146,18.346 C137.059333,18.4500005 136.955334,18.532333 136.834,18.593 C136.712666,18.653667 136.565334,18.6580003 136.392,18.606 C136.270666,18.5713332 136.153667,18.5193337 136.041,18.45 C135.928333,18.3806663 135.828667,18.3286668 135.742,18.294 C135.568666,18.2073329 135.438667,18.2203328 135.352,18.333 C135.265333,18.4456672 135.239333,18.5713326 135.274,18.71 C135.378001,19.1086687 135.525332,19.5896639 135.716,20.153 C135.906668,20.7163361 136.097332,21.2579974 136.288,21.778 C136.513334,22.4193365 136.504668,22.9913308 136.262,23.494 C136.157999,23.7193345 136.002001,23.9186658 135.794,24.092 C135.585999,24.2653342 135.334668,24.3866663 135.04,24.456 C134.675998,24.5426671 134.216669,24.6076664 133.662,24.651 C133.107331,24.6943336 132.52667,24.7289999 131.92,24.755 C131.31333,24.7810001 130.711003,24.7896667 130.113,24.781 C129.514997,24.7723333 128.982002,24.7593334 128.514,24.742 C128.115331,24.7246666 127.777335,24.5903346 127.5,24.339 C127.222665,24.0876654 126.988668,23.8146681 126.798,23.52 C126.711333,23.3813326 126.681,23.2340008 126.707,23.078 C126.733,22.9219992 126.841332,22.8180003 127.032,22.766 C127.604003,22.6273326 128.175997,22.4106681 128.748,22.116 C129.320003,21.8213319 129.813998,21.5006684 130.23,21.154 C130.542002,20.8766653 130.745666,20.5430019 130.841,20.153 C130.936334,19.7629981 130.940667,19.3773352 130.854,18.996 C130.767333,18.5973313 130.576668,18.2680013 130.282,18.008 C129.987332,17.7479987 129.588669,17.618 129.086,17.618 C128.531331,17.618 127.985336,17.6136667 127.448,17.605 C126.910664,17.5963333 126.364669,17.6179997 125.81,17.67 C125.532665,17.7046668 125.264001,17.7349999 125.004,17.761 C124.743999,17.7870001 124.475335,17.8346663 124.198,17.904 C123.868665,17.9733337 123.617334,17.9126676 123.444,17.722 C123.287999,17.5313324 123.270666,17.3060013 123.392,17.046 C123.686668,16.4393303 123.868666,15.867336 123.938,15.33 C124.007334,14.8966645 124.016,14.3853363 123.964,13.796 C123.929333,13.3799979 124.111331,13.2153329 124.51,13.302 C125.446005,13.4926676 126.360329,13.6053332 127.253,13.64 C128.145671,13.6746668 129.059995,13.6573337 129.996,13.588 C130.256001,13.5706666 130.433666,13.4883341 130.529,13.341 C130.624334,13.1936659 130.663333,13.0506674 130.646,12.912 C130.628667,12.7733326 130.555001,12.6476672 130.425,12.535 C130.294999,12.4223328 130.108668,12.3573334 129.866,12.34 C129.033996,12.3053332 128.219337,12.3269996 127.422,12.405 C126.624663,12.4830004 125.818671,12.5739995 125.004,12.678 C124.761332,12.7126668 124.531668,12.6736672 124.315,12.561 C124.098332,12.4483328 123.920667,12.2966676 123.782,12.106 C123.660666,11.9153324 123.587,11.7116678 123.561,11.495 C123.535,11.2783322 123.513333,11.0833342 123.496,10.91 C123.461333,10.5633316 123.461333,10.1906687 123.496,9.792 C123.530667,9.39333134 123.591333,9.04666814 123.678,8.752 C123.782001,8.45733186 123.946666,8.24933394 124.172,8.128 C124.449335,7.97199922 124.795998,7.95466606 125.212,8.076 C125.524002,8.1626671 125.879331,8.22766645 126.278,8.271 C126.676669,8.31433355 127.040665,8.26666736 127.37,8.128 C127.612668,8.02399948 127.734,7.85066788 127.734,7.608 C127.734,7.48666606 127.699334,7.37400052 127.63,7.27 C127.560666,7.16599948 127.456667,7.09666684 127.318,7.062 C126.901998,6.99266632 126.438336,6.98833303 125.927,7.049 C125.415664,7.10966697 124.917336,7.20066606 124.432,7.322 C124.223999,7.37400026 124.046334,7.36533368 123.899,7.296 C123.751666,7.22666632 123.634667,7.12266736 123.548,6.984 C123.443999,6.79333238 123.374667,6.55933472 123.34,6.282 C123.305333,5.79666424 123.296667,5.30700247 123.314,4.813 C123.331333,4.31899753 123.366,3.82933576 123.418,3.344 C123.435333,2.9973316 123.591332,2.7373342 123.886,2.564 C124.128668,2.42533264 124.388665,2.3993329 124.666,2.486 C125.099335,2.60733394 125.528331,2.72866606 125.953,2.85 C126.377669,2.97133394 126.815331,3.04933316 127.266,3.084 C127.422001,3.10133342 127.539,3.05366723 127.617,2.941 C127.695,2.82833277 127.673334,2.72000052 127.552,2.616 C127.465333,2.5293329 127.383,2.45566697 127.305,2.395 C127.227,2.33433303 127.153334,2.26933368 127.084,2.2 C126.893332,2.00933238 126.867333,1.81000104 127.006,1.602 C127.144667,1.39399896 127.317999,1.25533368 127.526,1.186 C127.803335,1.0993329 128.149998,1.03866684 128.566,1.004 C128.982002,0.96933316 129.423998,0.94333342 129.892,0.926 C130.412003,0.90866658 130.914664,0.91733316 131.4,0.952 C131.885336,0.98666684 132.283998,1.02999974 132.596,1.082 C132.717334,1.09933342 132.834333,1.14699961 132.947,1.225 C133.059667,1.30300039 133.150666,1.39399948 133.22,1.498 C133.289334,1.60200052 133.324,1.71033277 133.324,1.823 C133.324,1.93566723 133.272001,2.04399948 133.168,2.148 C133.046666,2.26933394 132.921001,2.39066606 132.791,2.512 C132.660999,2.63333394 132.552667,2.74599948 132.466,2.85 C132.379333,2.95400052 132.383666,3.07099935 132.479,3.201 C132.574334,3.33100065 132.682666,3.37866684 132.804,3.344 C133.185335,3.2573329 133.544998,3.13166749 133.883,2.967 C134.221002,2.80233251 134.632664,2.5900013 135.118,2.33 C135.551335,2.10466554 135.967331,2.0786658 136.366,2.252 C136.764669,2.4253342 136.99,2.75466424 137.042,3.24 C137.076667,3.74266918 137.098333,4.23233095 137.107,4.709 C137.115667,5.18566905 137.12,5.66666424 137.12,6.152 C137.12,6.56800208 137.016001,6.87133238 136.808,7.062 C136.582666,7.28733446 136.253335,7.34800052 135.82,7.244 C135.369331,7.13999948 134.910002,7.06633355 134.442,7.023 C133.973998,6.97966645 133.497336,6.98399974 133.012,7.036 C132.821332,7.07066684 132.678334,7.13999948 132.583,7.244 C132.487666,7.34800052 132.431333,7.46066606 132.414,7.582 C132.379333,7.72066736 132.405333,7.85066606 132.492,7.972 C132.578667,8.09333394 132.708666,8.17133316 132.882,8.206 C133.107334,8.24066684 133.358665,8.26233329 133.636,8.271 C133.913335,8.27966671 134.194999,8.27100013 134.481,8.245 C134.767001,8.21899987 135.044332,8.18866684 135.313,8.154 C135.581668,8.11933316 135.828666,8.07600026 136.054,8.024 C136.435335,7.95466632 136.755999,7.99799922 137.016,8.154 C137.293335,8.3273342 137.440667,8.60466476 137.458,8.986 C137.492667,9.38466866 137.51,9.84833069 137.51,10.377 L137.51,11.664 C137.51,11.9413347 137.436334,12.1753324 137.289,12.366 C137.141666,12.5566676 136.920668,12.6086671 136.626,12.522 C136.452666,12.4699997 136.270668,12.4266668 136.08,12.392 C135.889332,12.3573332 135.698668,12.3486666 135.508,12.366 C135.334666,12.3833334 135.213334,12.4526661 135.144,12.574 C135.074666,12.6953339 135.04,12.8339992 135.04,12.99 C135.04,13.1286674 135.074666,13.2586661 135.144,13.38 C135.213334,13.5013339 135.325999,13.5706666 135.482,13.588 C135.638001,13.6053334 135.815666,13.6010001 136.015,13.575 C136.214334,13.5489999 136.417999,13.5186668 136.626,13.484 C136.834001,13.4493332 137.020333,13.5013326 137.185,13.64 C137.349667,13.7786674 137.458,13.9433324 137.51,14.134 C137.579334,14.3766679 137.618333,14.7363309 137.627,15.213 C137.635667,15.6896691 137.622667,16.1793308 137.588,16.682 Z M129.814,19.048 C129.866,19.1866674 129.874667,19.3383325 129.84,19.503 C129.805333,19.6676675 129.744667,19.8366658 129.658,20.01 C129.467332,20.4086687 129.172669,20.7553319 128.774,21.05 C128.375331,21.3446681 127.933336,21.6133321 127.448,21.856 C127.014664,22.064001 126.577002,22.2373326 126.135,22.376 C125.692998,22.5146674 125.290002,22.6186663 124.926,22.688 C124.769999,22.7226668 124.601001,22.7313334 124.419,22.714 C124.236999,22.6966666 124.068001,22.6446671 123.912,22.558 C123.686666,22.4539995 123.548,22.2720013 123.496,22.012 C123.409333,21.6653316 123.348667,21.3403349 123.314,21.037 C123.279333,20.7336651 123.270667,20.417335 123.288,20.088 C123.305333,19.6546645 123.487332,19.3080013 123.834,19.048 C124.007334,18.9266661 124.197999,18.835667 124.406,18.775 C124.614001,18.714333 124.830666,18.6666668 125.056,18.632 C125.784004,18.5626663 126.49033,18.5236667 127.175,18.515 C127.85967,18.5063333 128.50533,18.5366663 129.112,18.606 C129.493335,18.6580003 129.727333,18.8053321 129.814,19.048 Z M123.106,14.836 C123.088667,15.2693355 123.019334,15.5813324 122.898,15.772 C122.776666,15.9626676 122.551335,16.1706655 122.222,16.396 C122.135333,16.4653337 122.057334,16.5606661 121.988,16.682 C121.918666,16.8033339 121.866667,16.9333326 121.832,17.072 C121.797333,17.2106674 121.775667,17.3493326 121.767,17.488 C121.758333,17.6266674 121.762667,17.7479995 121.78,17.852 C121.918667,18.6840042 122.087666,19.5246624 122.287,20.374 C122.486334,21.2233376 122.689999,22.1419951 122.898,23.13 C122.95,23.3900013 122.919667,23.6326655 122.807,23.858 C122.694333,24.0833345 122.508001,24.2393329 122.248,24.326 C121.883998,24.4473339 121.429003,24.5556662 120.883,24.651 C120.336997,24.7463338 119.769336,24.8113332 119.18,24.846 C118.590664,24.8806668 118.018669,24.8763336 117.464,24.833 C116.909331,24.7896664 116.441335,24.6900008 116.06,24.534 C115.765332,24.4299995 115.592,24.213335 115.54,23.884 C115.505333,23.7279992 115.527,23.5806674 115.605,23.442 C115.683,23.3033326 115.773999,23.1646674 115.878,23.026 C116.294002,22.5059974 116.692665,21.9296698 117.074,21.297 C117.455335,20.6643302 117.767332,19.9753371 118.01,19.23 C118.062,19.0913326 118.005667,18.991667 117.841,18.931 C117.676333,18.870333 117.559334,18.8833329 117.49,18.97 C117.195332,19.4206689 116.905001,19.810665 116.619,20.14 C116.332999,20.469335 116.016668,20.798665 115.67,21.128 C115.565999,21.2146671 115.440334,21.2623333 115.293,21.271 C115.145666,21.2796667 114.998334,21.2580003 114.851,21.206 C114.703666,21.1539997 114.569334,21.0760005 114.448,20.972 C114.326666,20.8679995 114.248667,20.7553339 114.214,20.634 C114.023332,19.8019958 113.897667,18.9396711 113.837,18.047 C113.776333,17.1543289 113.772,16.2660044 113.824,15.382 C113.824,15.2779995 113.854333,15.1696672 113.915,15.057 C113.975667,14.9443328 114.045,14.8403338 114.123,14.745 C114.201,14.6496662 114.296333,14.5760003 114.409,14.524 C114.521667,14.4719997 114.629999,14.4633332 114.734,14.498 C114.959334,14.5673337 115.149999,14.6193332 115.306,14.654 C115.462001,14.6886668 115.604999,14.6930001 115.735,14.667 C115.865001,14.6409999 115.994999,14.5890004 116.125,14.511 C116.255001,14.4329996 116.406666,14.3160008 116.58,14.16 C116.978669,13.8133316 117.242999,13.3626694 117.373,12.808 C117.503001,12.2533306 117.533334,11.6553365 117.464,11.014 C117.446667,10.9273329 117.407667,10.8580003 117.347,10.806 C117.286333,10.7539997 117.212667,10.7193334 117.126,10.702 C117.021999,10.6846666 116.922334,10.6976665 116.827,10.741 C116.731666,10.7843335 116.675333,10.8579995 116.658,10.962 C116.606,11.2566681 116.549667,11.6033313 116.489,12.002 C116.428333,12.4006687 116.328667,12.7299987 116.19,12.99 C116.103333,13.1633342 116.003667,13.2976662 115.891,13.393 C115.778333,13.4883338 115.609334,13.5533332 115.384,13.588 C115.141332,13.6226668 114.950667,13.6183335 114.812,13.575 C114.673333,13.5316665 114.526001,13.4666671 114.37,13.38 C114.127332,13.2586661 113.988667,13.1373339 113.954,13.016 C113.919333,12.8946661 113.936666,12.7386676 114.006,12.548 C114.040667,12.4093326 114.075333,12.2533342 114.11,12.08 C114.144667,11.9066658 114.162,11.7593339 114.162,11.638 C114.179333,10.6153282 114.222666,9.72700377 114.292,8.973 C114.361334,8.21899623 114.352667,7.46933706 114.266,6.724 C114.231333,6.3773316 114.244333,6.05233485 114.305,5.749 C114.365667,5.44566515 114.326667,5.19000104 114.188,4.982 C113.945332,4.60066476 113.845666,4.31033433 113.889,4.111 C113.932334,3.91166567 114.066666,3.74266736 114.292,3.604 C114.448001,3.5173329 114.616999,3.44366697 114.799,3.383 C114.981001,3.32233303 115.193332,3.292 115.436,3.292 C115.696001,3.292 115.895333,3.35699935 116.034,3.487 C116.172667,3.61700065 116.285333,3.80333212 116.372,4.046 C116.493334,4.46200208 116.562667,4.86933134 116.58,5.268 C116.597333,5.66666866 116.614667,5.98733212 116.632,6.23 C116.632,6.3166671 116.671,6.39466632 116.749,6.464 C116.827,6.53333368 116.917999,6.568 117.022,6.568 C117.126001,6.568 117.221333,6.54200026 117.308,6.49 C117.394667,6.43799974 117.455333,6.36000052 117.49,6.256 C117.559334,5.9093316 117.594,5.60166801 117.594,5.333 C117.594,5.06433199 117.550667,4.73066866 117.464,4.332 C117.377333,3.91599792 117.286334,3.53900169 117.191,3.201 C117.095666,2.86299831 116.857335,2.63333394 116.476,2.512 C116.354666,2.47733316 116.285333,2.39933394 116.268,2.278 C116.250667,2.15666606 116.259333,2.02666736 116.294,1.888 C116.328667,1.74933264 116.393666,1.62366723 116.489,1.511 C116.584334,1.39833277 116.683999,1.32466684 116.788,1.29 C117.568004,1.06466554 118.395662,0.97366645 119.271,1.017 C120.146338,1.06033355 120.999996,1.18599896 121.832,1.394 C122.178668,1.4806671 122.395333,1.67133186 122.482,1.966 C122.568667,2.26066814 122.456002,2.5813316 122.144,2.928 C121.866665,3.24000156 121.702,3.66899727 121.65,4.215 C121.598,4.76100273 121.580667,5.2939974 121.598,5.814 C121.598,5.9006671 121.624,5.99166619 121.676,6.087 C121.728,6.18233381 121.814666,6.21266684 121.936,6.178 C122.005334,6.16066658 122.070333,6.13900013 122.131,6.113 C122.191667,6.08699987 122.265333,6.06533342 122.352,6.048 C122.594668,5.99599974 122.742,6.08266554 122.794,6.308 C122.898001,6.9146697 122.915334,7.56032991 122.846,8.245 C122.776666,8.92967009 122.672667,9.49733108 122.534,9.948 C122.464666,10.1733345 122.339001,10.3553326 122.157,10.494 C121.974999,10.6326674 121.771334,10.702 121.546,10.702 C121.459333,10.702 121.381334,10.7236665 121.312,10.767 C121.242666,10.8103335 121.199333,10.8753329 121.182,10.962 C121.095333,11.2393347 121.112666,11.5166653 121.234,11.794 C121.320667,12.0193345 121.467999,12.0886671 121.676,12.002 C121.780001,11.9673332 121.896999,11.9153337 122.027,11.846 C122.157001,11.7766663 122.265333,11.7073337 122.352,11.638 C122.490667,11.5513329 122.616333,11.5339997 122.729,11.586 C122.841667,11.6380003 122.915333,11.7333326 122.95,11.872 C123.002,12.080001 123.036667,12.318332 123.054,12.587 L123.106,13.393 C123.123333,13.661668 123.127667,13.9216654 123.119,14.173 C123.110333,14.4243346 123.106,14.6453324 123.106,14.836 Z M163.588,14.94 C163.692001,15.3906689 163.731,15.8369978 163.705,16.279 C163.679,16.7210022 163.596667,17.1673311 163.458,17.618 C163.406,17.826001 163.302001,18.0123325 163.146,18.177 C162.989999,18.3416675 162.816668,18.4673329 162.626,18.554 C162.435332,18.6406671 162.236001,18.684 162.028,18.684 C161.819999,18.684 161.629334,18.6320005 161.456,18.528 C160.935997,18.2159984 160.38567,17.9343346 159.805,17.683 C159.22433,17.4316654 158.544004,17.2973334 157.764,17.28 C156.654661,17.28 155.38934,17.3016665 153.968,17.345 C152.54666,17.3883335 151.103674,17.4489996 149.639,17.527 C148.174326,17.6050004 146.740007,17.7003328 145.336,17.813 C143.931993,17.9256672 142.684005,18.0339995 141.592,18.138 C141.331999,18.1726668 141.063335,18.1553337 140.786,18.086 C140.508665,18.0166663 140.309334,17.8433347 140.188,17.566 C140.031999,17.1846648 139.954,16.7340026 139.954,16.214 C139.954,15.6939974 139.997333,15.2606684 140.084,14.914 C140.136,14.7233324 140.278999,14.5630007 140.513,14.433 C140.747001,14.3029993 140.950666,14.2726663 141.124,14.342 C141.418668,14.4460005 141.825997,14.5673326 142.346,14.706 C142.866003,14.8446674 143.533329,14.9486663 144.348,15.018 C144.694668,15.0526668 145.093331,15.0743333 145.544,15.083 C145.994669,15.0916667 146.453998,15.0916667 146.922,15.083 C147.390002,15.0743333 147.853664,15.0570001 148.313,15.031 C148.772336,15.0049999 149.166665,14.9746668 149.496,14.94 C149.600001,14.9226666 149.673666,14.8663338 149.717,14.771 C149.760334,14.6756662 149.782,14.5760005 149.782,14.472 C149.782,14.3679995 149.751667,14.2640005 149.691,14.16 C149.630333,14.0559995 149.556667,14.004 149.47,14.004 C148.291327,13.9519997 147.186338,13.9346666 146.155,13.952 C145.123662,13.9693334 144.166004,14.0126663 143.282,14.082 C142.917998,14.1166668 142.584335,14.1166668 142.281,14.082 C141.977665,14.0473332 141.730668,13.9606674 141.54,13.822 C141.349332,13.6833326 141.206334,13.4926679 141.111,13.25 C141.015666,13.0073321 141.002666,12.6866687 141.072,12.288 C141.210667,11.3866622 141.275667,10.5416706 141.267,9.753 C141.258333,8.96432939 141.184667,8.20600364 141.046,7.478 C140.994,7.18333186 140.994,6.94500091 141.046,6.763 C141.098,6.58099909 141.193333,6.42933394 141.332,6.308 C141.592001,6.06533212 141.973331,5.9873329 142.476,6.074 C142.857335,6.12600026 143.346997,6.16933316 143.945,6.204 C144.543003,6.23866684 145.162663,6.26033329 145.804,6.269 C146.445337,6.27766671 147.06933,6.27766671 147.676,6.269 C148.28267,6.26033329 148.785331,6.23866684 149.184,6.204 C149.461335,6.16933316 149.6,6.01333472 149.6,5.736 C149.6,5.63199948 149.565334,5.53233381 149.496,5.437 C149.426666,5.34166619 149.314001,5.28533342 149.158,5.268 C148.724664,5.21599974 148.13967,5.19433329 147.403,5.203 C146.66633,5.21166671 145.908004,5.23766645 145.128,5.281 C144.347996,5.32433355 143.61567,5.38066632 142.931,5.45 C142.24633,5.51933368 141.730668,5.58866632 141.384,5.658 C141.106665,5.71000026 140.846668,5.68400052 140.604,5.58 C140.482666,5.51066632 140.374334,5.42400052 140.279,5.32 C140.183666,5.21599948 140.118667,5.09466736 140.084,4.956 C139.997333,4.55733134 139.945333,4.11533576 139.928,3.63 C139.910667,3.14466424 139.997332,2.7286684 140.188,2.382 C140.309334,2.1219987 140.508665,1.96600026 140.786,1.914 C140.976668,1.87933316 141.167332,1.87499987 141.358,1.901 C141.548668,1.92700013 141.739332,1.96599974 141.93,2.018 C142.450003,2.17400078 143.01333,2.30399948 143.62,2.408 C144.22667,2.51200052 144.841997,2.59433303 145.466,2.655 C146.090003,2.71566697 146.71833,2.75033329 147.351,2.759 C147.98367,2.76766671 148.585997,2.75466684 149.158,2.72 C149.279334,2.70266658 149.348667,2.6506671 149.366,2.564 C149.383333,2.4773329 149.348667,2.41666684 149.262,2.382 C149.105999,2.32999974 148.980334,2.23900065 148.885,2.109 C148.789666,1.97899935 148.750667,1.84466736 148.768,1.706 C148.785333,1.6193329 148.815666,1.52400052 148.859,1.42 C148.902334,1.31599948 149.010666,1.24666684 149.184,1.212 C150.102671,1.02133238 150.960663,0.90866684 151.758,0.874 C152.260669,0.83933316 152.763331,0.84366645 153.266,0.887 C153.768669,0.93033355 154.193332,1.00399948 154.54,1.108 C154.713334,1.16000026 154.839,1.2726658 154.917,1.446 C154.995,1.6193342 154.982001,1.75799948 154.878,1.862 C154.791333,1.9486671 154.713334,2.03966619 154.644,2.135 C154.574666,2.23033381 154.522667,2.30399974 154.488,2.356 C154.418666,2.47733394 154.435999,2.59433277 154.54,2.707 C154.644001,2.81966723 154.756666,2.876 154.878,2.876 C155.363336,2.85866658 155.904997,2.82400026 156.503,2.772 C157.101003,2.71999974 157.711997,2.65500039 158.336,2.577 C158.960003,2.49899961 159.566664,2.40800052 160.156,2.304 C160.745336,2.19999948 161.282664,2.08733394 161.768,1.966 C161.941334,1.93133316 162.114666,1.90100013 162.288,1.875 C162.461334,1.84899987 162.625999,1.84899987 162.782,1.875 C162.938001,1.90100013 163.076666,1.96166619 163.198,2.057 C163.319334,2.15233381 163.414666,2.30399896 163.484,2.512 C163.657334,2.99733576 163.731,3.44366463 163.705,3.851 C163.679,4.25833537 163.596667,4.6786645 163.458,5.112 C163.406,5.30266762 163.284668,5.40666658 163.094,5.424 C162.903332,5.44133342 162.712668,5.43266684 162.522,5.398 C162.123331,5.32866632 161.60767,5.27233355 160.975,5.229 C160.34233,5.18566645 159.649004,5.15533342 158.895,5.138 C158.140996,5.12066658 157.356671,5.11633329 156.542,5.125 C155.727329,5.13366671 154.93867,5.16399974 154.176,5.216 C154.089333,5.216 154.02,5.26799948 153.968,5.372 C153.916,5.47600052 153.89,5.5713329 153.89,5.658 C153.89,5.76200052 153.924666,5.86166619 153.994,5.957 C154.063334,6.05233381 154.158666,6.1 154.28,6.1 C155.476006,6.13466684 156.637328,6.13900013 157.764,6.113 C158.890672,6.08699987 160.051994,6.0306671 161.248,5.944 C161.438668,5.92666658 161.603333,5.95266632 161.742,6.022 C161.880667,6.09133368 161.997666,6.17799948 162.093,6.282 C162.188334,6.38600052 162.253333,6.49866606 162.288,6.62 C162.322667,6.74133394 162.34,6.8453329 162.34,6.932 C162.322667,7.2786684 162.305333,7.69033095 162.288,8.167 C162.270667,8.64366905 162.266333,9.13766411 162.275,9.649 C162.283667,10.1603359 162.305333,10.6629975 162.34,11.157 C162.374667,11.6510025 162.426666,12.0799982 162.496,12.444 C162.565334,12.8773355 162.513334,13.197999 162.34,13.406 C162.131999,13.614001 161.802669,13.6573339 161.352,13.536 C161.109332,13.4666663 160.949,13.5099992 160.871,13.666 C160.793,13.8220008 160.788666,13.9346663 160.858,14.004 C161.152668,14.2986681 161.451665,14.476333 161.755,14.537 C162.058335,14.597667 162.339999,14.5673339 162.6,14.446 C162.790668,14.3593329 162.989999,14.3679995 163.198,14.472 C163.406001,14.5760005 163.536,14.731999 163.588,14.94 Z M163.562,19.802 C163.666001,20.46067 163.713667,21.0239977 163.705,21.492 C163.696333,21.9600023 163.622667,22.4453308 163.484,22.948 C163.449333,23.1040008 163.371334,23.2643325 163.25,23.429 C163.128666,23.5936675 162.981334,23.7453326 162.808,23.884 C162.617332,24.0226674 162.418001,24.1396662 162.21,24.235 C162.001999,24.3303338 161.785334,24.378 161.56,24.378 C161.178665,24.378 160.762669,24.3130007 160.312,24.183 C159.861331,24.0529993 159.514668,23.9100008 159.272,23.754 C159.011999,23.5806658 158.959999,23.3726679 159.116,23.13 C159.272001,22.9046655 159.376,22.657668 159.428,22.389 C159.48,22.120332 159.488667,21.7693355 159.454,21.336 C159.436667,21.1973326 159.406334,21.0586674 159.363,20.92 C159.319666,20.7813326 159.237334,20.6426674 159.116,20.504 C158.873332,20.2266653 158.626335,19.9623346 158.375,19.711 C158.123665,19.4596654 157.876668,19.2473342 157.634,19.074 C157.547333,19.0046663 157.495333,18.9223338 157.478,18.827 C157.460667,18.7316662 157.478,18.6580003 157.53,18.606 C157.616667,18.5019995 157.746666,18.4023338 157.92,18.307 C158.093334,18.2116662 158.275332,18.1380003 158.466,18.086 C158.847335,17.9819995 159.159332,18.0166658 159.402,18.19 C159.800669,18.4326679 160.194998,18.657999 160.585,18.866 C160.975002,19.074001 161.377998,19.2733324 161.794,19.464 C161.915334,19.5160003 162.032333,19.5463333 162.145,19.555 C162.257667,19.5636667 162.374666,19.5246671 162.496,19.438 C162.669334,19.3166661 162.859999,19.2819997 163.068,19.334 C163.345335,19.4033337 163.51,19.5593321 163.562,19.802 Z M155.476,19.126 C155.215999,19.4900018 154.869335,19.8323317 154.436,20.153 C154.002664,20.4736683 153.569335,20.7466655 153.136,20.972 C152.841332,21.1280008 152.559668,21.1670004 152.291,21.089 C152.022332,21.0109996 151.740668,20.8506679 151.446,20.608 C151.272666,20.4519992 151.121001,20.3133339 150.991,20.192 C150.860999,20.0706661 150.748334,19.9493339 150.653,19.828 C150.557666,19.7066661 150.466667,19.5636675 150.38,19.399 C150.293333,19.2343325 150.206667,19.0393345 150.12,18.814 C150.033333,18.605999 150.007333,18.4500005 150.042,18.346 C150.076667,18.2419995 150.206666,18.19 150.432,18.19 C151.316004,18.2246668 152.143663,18.242 152.915,18.242 L155.112,18.242 C155.389335,18.242 155.567,18.3243325 155.645,18.489 C155.723,18.6536675 155.666668,18.8659987 155.476,19.126 Z M158.518,21.31 C158.448666,21.9166697 158.362001,22.3803317 158.258,22.701 C158.153999,23.0216683 158.006668,23.346665 157.816,23.676 C157.590666,24.0746687 157.309002,24.3476659 156.971,24.495 C156.632998,24.6423341 156.212669,24.7333332 155.71,24.768 C155.085997,24.8026668 154.440337,24.82 153.773,24.82 C153.105663,24.82 152.425337,24.8373332 151.732,24.872 C150.899996,24.9066668 150.076671,24.9153334 149.262,24.898 C148.447329,24.8806666 147.676004,24.8286671 146.948,24.742 C146.757332,24.7073332 146.519001,24.6120008 146.233,24.456 C145.946999,24.2999992 145.708668,24.1006679 145.518,23.858 C145.257999,23.5113316 145.240666,23.1560018 145.466,22.792 C145.830002,22.2026637 146.063999,21.5266705 146.168,20.764 C146.272001,20.0359964 146.254667,19.34267 146.116,18.684 C146.064,18.5106658 146.124666,18.3980003 146.298,18.346 C146.627335,18.2593329 147.012998,18.185667 147.455,18.125 C147.897002,18.064333 148.256665,18.0773329 148.534,18.164 C148.742001,18.2333337 148.872,18.3459992 148.924,18.502 C149.010667,18.831335 149.157999,19.1779982 149.366,19.542 C149.574001,19.9060018 149.816665,20.2613316 150.094,20.608 C150.388668,20.9546684 150.709332,21.2666653 151.056,21.544 C151.402668,21.8213347 151.749332,21.9686666 152.096,21.986 C152.512002,22.0033334 152.906331,21.9556672 153.279,21.843 C153.651669,21.7303328 153.993998,21.5786676 154.306,21.388 C154.930003,21.0066648 155.363332,20.5993355 155.606,20.166 C155.744667,19.9406655 155.930999,19.8106668 156.165,19.776 C156.399001,19.7413332 156.611332,19.7586663 156.802,19.828 C156.992668,19.8973337 157.200666,19.9796662 157.426,20.075 C157.651334,20.1703338 157.850666,20.2873326 158.024,20.426 C158.370668,20.6860013 158.535333,20.980665 158.518,21.31 Z M145.414,20.556 C145.362,20.885335 145.253667,21.2449981 145.089,21.635 C144.924333,22.0250019 144.720668,22.4019982 144.478,22.766 C144.287332,23.0606681 144.092334,23.3293321 143.893,23.572 C143.693666,23.8146679 143.481334,24.0139992 143.256,24.17 C142.857331,24.4473347 142.454335,24.6033332 142.047,24.638 C141.639665,24.6726668 141.280002,24.6033342 140.968,24.43 C140.707999,24.2913326 140.487001,24.0790014 140.305,23.793 C140.122999,23.5069986 140.014667,23.1646687 139.98,22.766 C139.945333,22.3499979 139.932333,21.9513352 139.941,21.57 C139.949667,21.1886648 139.971333,20.7986687 140.006,20.4 C140.040667,20.1226653 140.140333,19.8843343 140.305,19.685 C140.469667,19.4856657 140.673332,19.4119997 140.916,19.464 C141.054667,19.4986668 141.214999,19.516 141.397,19.516 C141.579001,19.516 141.756666,19.4900003 141.93,19.438 C142.172668,19.3513329 142.428332,19.2516672 142.697,19.139 C142.965668,19.0263328 143.221332,18.8746676 143.464,18.684 C143.758668,18.4586655 144.074998,18.3633332 144.413,18.398 C144.751002,18.4326668 144.997999,18.5799987 145.154,18.84 C145.292667,19.0653345 145.383666,19.3339984 145.427,19.646 C145.470334,19.9580016 145.466,20.2613319 145.414,20.556 Z M158.076,8.778 C158.076,8.67399948 158.041334,8.57433381 157.972,8.479 C157.902666,8.38366619 157.798667,8.336 157.66,8.336 C157.105331,8.31866658 156.559336,8.30566671 156.022,8.297 C155.484664,8.28833329 154.938669,8.30133316 154.384,8.336 C154.262666,8.336 154.171667,8.38799948 154.111,8.492 C154.050333,8.59600052 154.028667,8.70866606 154.046,8.83 C154.063333,8.93400052 154.102333,9.03366619 154.163,9.129 C154.223667,9.22433381 154.297333,9.272 154.384,9.272 C154.973336,9.30666684 155.540997,9.31966671 156.087,9.311 C156.633003,9.30233329 157.174664,9.28066684 157.712,9.246 C157.850667,9.22866658 157.946,9.1766671 157.998,9.09 C158.05,9.0033329 158.076,8.89933394 158.076,8.778 Z M158.076,11.17 C158.076,11.0659995 158.041334,10.9663338 157.972,10.871 C157.902666,10.7756662 157.798667,10.728 157.66,10.728 C157.105331,10.7106666 156.559336,10.6976667 156.022,10.689 C155.484664,10.6803333 154.938669,10.6933332 154.384,10.728 C154.262666,10.728 154.171667,10.7799995 154.111,10.884 C154.050333,10.9880005 154.028667,11.1006661 154.046,11.222 C154.063333,11.3260005 154.102333,11.4256662 154.163,11.521 C154.223667,11.6163338 154.297333,11.664 154.384,11.664 C154.973336,11.6986668 155.540997,11.7116667 156.087,11.703 C156.633003,11.6943333 157.174664,11.6726668 157.712,11.638 C157.850667,11.6206666 157.946,11.5686671 157.998,11.482 C158.05,11.3953329 158.076,11.2913339 158.076,11.17 Z M157.192,14.394 C157.192,14.2899995 157.157334,14.1903338 157.088,14.095 C157.018666,13.9996662 156.914667,13.952 156.776,13.952 C156.359998,13.9346666 155.939669,13.9389999 155.515,13.965 C155.090331,13.9910001 154.670002,14.0126666 154.254,14.03 C154.132666,14.03 154.046,14.0819995 153.994,14.186 C153.942,14.2900005 153.924667,14.4026661 153.942,14.524 C153.959333,14.6280005 153.998333,14.7233329 154.059,14.81 C154.119667,14.8966671 154.193333,14.94 154.28,14.94 C154.713335,14.9573334 155.137998,14.9616667 155.554,14.953 C155.970002,14.9443333 156.394665,14.9226668 156.828,14.888 C156.966667,14.8706666 157.062,14.8143338 157.114,14.719 C157.166,14.6236662 157.192,14.5153339 157.192,14.394 Z M149.626,8.778 C149.626,8.67399948 149.591334,8.57433381 149.522,8.479 C149.452666,8.38366619 149.348667,8.336 149.21,8.336 C148.655331,8.31866658 148.109336,8.30566671 147.572,8.297 C147.034664,8.28833329 146.488669,8.30133316 145.934,8.336 C145.812666,8.336 145.721667,8.38799948 145.661,8.492 C145.600333,8.59600052 145.578667,8.70866606 145.596,8.83 C145.613333,8.93400052 145.652333,9.03366619 145.713,9.129 C145.773667,9.22433381 145.847333,9.272 145.934,9.272 C146.523336,9.30666684 147.090997,9.31966671 147.637,9.311 C148.183003,9.30233329 148.724664,9.28066684 149.262,9.246 C149.400667,9.22866658 149.496,9.1766671 149.548,9.09 C149.6,9.0033329 149.626,8.89933394 149.626,8.778 Z M149.626,11.17 C149.626,11.0659995 149.591334,10.9663338 149.522,10.871 C149.452666,10.7756662 149.348667,10.728 149.21,10.728 C148.655331,10.7106666 148.109336,10.6976667 147.572,10.689 C147.034664,10.6803333 146.488669,10.6933332 145.934,10.728 C145.812666,10.728 145.721667,10.7799995 145.661,10.884 C145.600333,10.9880005 145.578667,11.1006661 145.596,11.222 C145.613333,11.3260005 145.652333,11.4256662 145.713,11.521 C145.773667,11.6163338 145.847333,11.664 145.934,11.664 C146.523336,11.6986668 147.090997,11.7116667 147.637,11.703 C148.183003,11.6943333 148.724664,11.6726668 149.262,11.638 C149.400667,11.6206666 149.496,11.5686671 149.548,11.482 C149.6,11.3953329 149.626,11.2913339 149.626,11.17 Z M189.302,20.66 C189.336667,21.197336 189.215335,21.6566648 188.938,22.038 C188.677999,22.3846684 188.348669,22.5839997 187.95,22.636 C187.308663,22.7226671 186.723669,22.7746666 186.195,22.792 C185.666331,22.8093334 185.185335,22.8006668 184.752,22.766 C184.578666,22.7486666 184.379334,22.6706674 184.154,22.532 C183.928666,22.3933326 183.729334,22.1853347 183.556,21.908 C183.243998,21.4053308 183.027334,20.7726705 182.906,20.01 C182.871333,19.7153319 182.845333,19.4206681 182.828,19.126 C182.810667,18.8313319 182.819333,18.5106684 182.854,18.164 C182.871333,17.955999 182.970999,17.8043338 183.153,17.709 C183.335001,17.6136662 183.547332,17.5919997 183.79,17.644 C183.980668,17.6786668 184.136666,17.6396672 184.258,17.527 C184.379334,17.4143328 184.44,17.2800008 184.44,17.124 C184.44,16.4479966 184.444333,15.646338 184.453,14.719 C184.461667,13.791662 184.466,12.8470048 184.466,11.885 L184.466,9.103 C184.466,8.21032887 184.457333,7.45200312 184.44,6.828 C184.44,6.68933264 184.392334,6.58533368 184.297,6.516 C184.201666,6.44666632 184.084667,6.412 183.946,6.412 C183.807333,6.412 183.686001,6.44666632 183.582,6.516 C183.477999,6.58533368 183.426,6.68933264 183.426,6.828 C183.443333,7.36533602 183.452,8.02832939 183.452,8.817 L183.452,11.287 C183.452,12.1450043 183.447667,13.0029957 183.439,13.861 C183.430333,14.7190043 183.426,15.4946632 183.426,16.188 C183.426,16.5346684 183.287335,16.7599995 183.01,16.864 C182.749999,16.9506671 182.533334,17.1326653 182.36,17.41 C182.186666,17.6873347 182.082667,18.0339979 182.048,18.45 C182.013333,19.0220029 182.052333,19.6719964 182.165,20.4 C182.277667,21.1280036 182.515998,21.7693306 182.88,22.324 C183.070668,22.6186681 183.287332,22.8569991 183.53,23.039 C183.772668,23.2210009 184.067332,23.3726661 184.414,23.494 C184.535334,23.5286668 184.622,23.5979995 184.674,23.702 C184.726,23.8060005 184.743333,23.9099995 184.726,24.014 C184.708667,24.1526674 184.656667,24.2826661 184.57,24.404 C184.483333,24.5253339 184.362001,24.6033332 184.206,24.638 C183.876665,24.7246671 183.508335,24.7809999 183.101,24.807 C182.693665,24.8330001 182.269002,24.846 181.827,24.846 C181.384998,24.846 180.947335,24.8286668 180.514,24.794 C180.080664,24.7593332 179.664669,24.7073337 179.266,24.638 C179.075332,24.6033332 178.932334,24.482001 178.837,24.274 C178.741666,24.065999 178.728666,23.8666676 178.798,23.676 C178.936667,23.3119982 179.036333,22.8830025 179.097,22.389 C179.157667,21.8949975 179.179333,21.3966692 179.162,20.894 C179.162,20.4433311 179.131667,20.0230019 179.071,19.633 C179.010333,19.2429981 178.910667,18.9266679 178.772,18.684 C178.737333,18.5973329 178.702667,18.4586676 178.668,18.268 C178.633333,18.0773324 178.616,17.9300005 178.616,17.826 C178.633333,16.5953272 178.642,15.2606739 178.642,13.822 C178.642,12.3833261 178.633333,10.9750069 178.616,9.597 C178.598667,8.21899311 178.581333,6.93200598 178.564,5.736 C178.546667,4.53999402 178.529333,3.56933706 178.512,2.824 C178.512,2.61599896 178.542333,2.41233433 178.603,2.213 C178.663667,2.01366567 178.763333,1.84466736 178.902,1.706 C179.196668,1.39399844 179.560664,1.27266632 179.994,1.342 C181.242006,1.58466788 182.56366,1.706 183.959,1.706 C185.35434,1.706 186.693327,1.63666736 187.976,1.498 C188.409335,1.44599974 188.747332,1.54133212 188.99,1.784 C189.284668,2.07866814 189.380001,2.49466398 189.276,3.032 C189.171999,3.62133628 189.098334,4.18899727 189.055,4.735 C189.011666,5.28100273 188.972667,5.8573303 188.938,6.464 C188.851333,8.70001118 188.842666,10.9923216 188.912,13.341 C188.981334,15.6896784 189.111332,18.1293207 189.302,20.66 Z M178.304,21.648 C178.286667,22.0466687 178.252,22.440998 178.2,22.831 C178.148,23.221002 178.078667,23.580665 177.992,23.91 C177.94,24.118001 177.797001,24.3043325 177.563,24.469 C177.328999,24.6336675 177.064668,24.7593329 176.77,24.846 C176.475332,24.9326671 176.185001,24.9803333 175.899,24.989 C175.612999,24.9976667 175.366001,24.9586671 175.158,24.872 C174.915332,24.7853329 174.711667,24.6466676 174.547,24.456 C174.382333,24.2653324 174.239334,24.066001 174.118,23.858 C174.066,23.7539995 173.983667,23.6846668 173.871,23.65 C173.758333,23.6153332 173.658667,23.6066666 173.572,23.624 C172.479995,23.7453339 171.479005,23.8969991 170.569,24.079 C169.658995,24.2610009 168.952669,24.4819987 168.45,24.742 C168.259332,24.8286671 168.038335,24.872 167.787,24.872 C167.535665,24.872 167.340667,24.8026674 167.202,24.664 C166.803331,24.2306645 166.478335,23.68467 166.227,23.026 C165.975665,22.36733 165.806667,21.7520029 165.72,21.18 C165.685333,20.971999 165.707,20.764001 165.785,20.556 C165.863,20.347999 165.962666,20.1920005 166.084,20.088 C166.326668,19.879999 166.448,19.6286681 166.448,19.334 C166.5,18.3979953 166.539,17.4316716 166.565,16.435 C166.591,15.4383283 166.612667,14.4460049 166.63,13.458 C166.647333,12.4699951 166.651667,11.4950048 166.643,10.533 C166.634333,9.57099519 166.621333,8.656671 166.604,7.79 C166.569333,6.85399532 166.530334,6.00467048 166.487,5.242 C166.443666,4.47932952 166.370001,3.77733654 166.266,3.136 C166.196666,2.65066424 166.309332,2.24333498 166.604,1.914 C166.742667,1.75799922 166.928999,1.64100039 167.163,1.563 C167.397001,1.48499961 167.678665,1.47199974 168.008,1.524 C168.562669,1.6106671 169.19533,1.67566645 169.906,1.719 C170.61667,1.76233355 171.357663,1.77966671 172.129,1.771 C172.900337,1.76233329 173.671663,1.73200026 174.443,1.68 C175.214337,1.62799974 175.937997,1.56733368 176.614,1.498 C176.822001,1.46333316 177.003999,1.48066632 177.16,1.55 C177.316001,1.61933368 177.454666,1.71466606 177.576,1.836 C177.732001,1.99200078 177.840333,2.18266554 177.901,2.408 C177.961667,2.63333446 177.966,2.84133238 177.914,3.032 C177.827333,3.3786684 177.758,3.76433121 177.706,4.189 C177.654,4.61366879 177.610667,5.18132978 177.576,5.892 C177.558667,6.48133628 177.55,7.11399662 177.55,7.79 C177.55,8.46600338 177.558667,9.14199662 177.576,9.818 C177.593333,10.4940034 177.619333,11.16133 177.654,11.82 C177.688667,12.47867 177.723333,13.0939971 177.758,13.666 C177.775333,13.9086679 177.740667,14.164332 177.654,14.433 C177.567333,14.701668 177.446001,14.8879995 177.29,14.992 C177.116666,15.1133339 176.926001,15.174 176.718,15.174 C176.509999,15.174 176.284668,15.1566668 176.042,15.122 C175.38333,15.0006661 174.690004,14.94 173.962,14.94 C173.233996,14.94 172.497337,14.9746663 171.752,15.044 C171.647999,15.0613334 171.552667,15.1089996 171.466,15.187 C171.379333,15.2650004 171.318667,15.3819992 171.284,15.538 C171.214666,16.0406692 171.171333,16.5346642 171.154,17.02 C171.136667,17.5053358 171.145333,18.0253306 171.18,18.58 C171.197333,18.7186674 171.279666,18.8139997 171.427,18.866 C171.574334,18.9180003 171.734666,18.9353334 171.908,18.918 C172.081334,18.9006666 172.228666,18.8530004 172.35,18.775 C172.471334,18.6969996 172.506,18.5713342 172.454,18.398 C172.367333,18.1379987 172.315333,17.8693347 172.298,17.592 C172.280667,17.3146653 172.341333,17.011335 172.48,16.682 C172.601334,16.3873319 172.796332,16.1706674 173.065,16.032 C173.333668,15.8933326 173.632665,15.8066668 173.962,15.772 C174.222001,15.7373332 174.503665,15.7373332 174.807,15.772 C175.110335,15.8066668 175.391999,15.8846661 175.652,16.006 C175.946668,16.1446674 176.193666,16.3353321 176.393,16.578 C176.592334,16.8206679 176.709333,17.1326648 176.744,17.514 C176.761333,17.7566679 176.843666,17.9646658 176.991,18.138 C177.138334,18.3113342 177.307332,18.3720003 177.498,18.32 C177.896669,18.2333329 178.122,18.4066645 178.174,18.84 C178.226,19.2386687 178.265,19.6806642 178.291,20.166 C178.317,20.6513358 178.321333,21.1453308 178.304,21.648 Z M173.494,6.594 C173.494,6.31666528 173.398668,6.16066684 173.208,6.126 C172.982666,6.10866658 172.718335,6.10433329 172.415,6.113 C172.111665,6.12166671 171.873334,6.126 171.7,6.126 C171.613333,6.126 171.548334,6.17799948 171.505,6.282 C171.461666,6.38600052 171.44,6.49866606 171.44,6.62 C171.44,6.74133394 171.461666,6.85399948 171.505,6.958 C171.548334,7.06200052 171.613333,7.114 171.7,7.114 C171.960001,7.13133342 172.250332,7.14 172.571,7.14 C172.891668,7.14 173.121333,7.13133342 173.26,7.114 C173.346667,7.09666658 173.411666,7.04033381 173.455,6.945 C173.498334,6.84966619 173.511333,6.73266736 173.494,6.594 Z M173.494,10.598 C173.494,10.3206653 173.398668,10.1646668 173.208,10.13 C172.982666,10.1126666 172.718335,10.1083333 172.415,10.117 C172.111665,10.1256667 171.873334,10.13 171.7,10.13 C171.613333,10.13 171.548334,10.1819995 171.505,10.286 C171.461666,10.3900005 171.44,10.5026661 171.44,10.624 C171.44,10.7453339 171.461666,10.8579995 171.505,10.962 C171.548334,11.0660005 171.613333,11.118 171.7,11.118 C171.960001,11.1353334 172.250332,11.144 172.571,11.144 C172.891668,11.144 173.121333,11.1353334 173.26,11.118 C173.346667,11.1006666 173.411666,11.0443338 173.455,10.949 C173.498334,10.8536662 173.511333,10.7366674 173.494,10.598 Z M215.588,5.268 C215.553333,5.71866892 215.419001,6.02199922 215.185,6.178 C214.950999,6.33400078 214.634669,6.39466684 214.236,6.36 C212.502658,6.1866658 210.756342,6.0566671 208.997,5.97 C207.237658,5.8833329 205.465342,5.83133342 203.68,5.814 C200.213316,5.77933316 196.798683,5.9353316 193.436,6.282 C193.019998,6.31666684 192.677668,6.28200052 192.409,6.178 C192.140332,6.07399948 191.98,5.82266866 191.928,5.424 C191.876,4.9906645 191.854333,4.57033537 191.863,4.163 C191.871667,3.75566463 191.902,3.35266866 191.954,2.954 C192.006,2.58999818 192.157665,2.33000078 192.409,2.174 C192.660335,2.01799922 192.959332,1.97466632 193.306,2.044 C194.432672,2.23466762 195.554994,2.38199948 196.673,2.486 C197.791006,2.59000052 198.921994,2.65933316 200.066,2.694 C200.204667,2.694 200.291333,2.63766723 200.326,2.525 C200.360667,2.41233277 200.334667,2.3126671 200.248,2.226 C200.161333,2.1393329 200.105,2.04400052 200.079,1.94 C200.053,1.83599948 200.048667,1.73200052 200.066,1.628 C200.118,1.35066528 200.291332,1.20333342 200.586,1.186 C201.626005,1.15133316 202.670328,1.12100013 203.719,1.095 C204.767672,1.06899987 205.777328,1.0993329 206.748,1.186 C207.077335,1.22066684 207.285333,1.35933212 207.372,1.602 C207.406667,1.70600052 207.419667,1.81433277 207.411,1.927 C207.402333,2.03966723 207.346001,2.14799948 207.242,2.252 C207.155333,2.3386671 207.129333,2.42966619 207.164,2.525 C207.198667,2.62033381 207.267999,2.668 207.372,2.668 C208.464005,2.68533342 209.586328,2.63766723 210.739,2.525 C211.891672,2.41233277 212.987995,2.20866814 214.028,1.914 C214.392002,1.80999948 214.708332,1.83599922 214.977,1.992 C215.245668,2.14800078 215.406,2.36466528 215.458,2.642 C215.544667,3.09266892 215.596667,3.53033121 215.614,3.955 C215.631333,4.37966879 215.622667,4.81733108 215.588,5.268 Z M214.574,10.936 C214.626,11.5253363 214.522001,11.9499987 214.262,12.21 C214.001999,12.4526679 213.54267,12.5566668 212.884,12.522 C211.410659,12.4526663 209.941674,12.4050001 208.477,12.379 C207.012326,12.3529999 205.534674,12.34 204.044,12.34 C200.871984,12.34 197.682683,12.4179992 194.476,12.574 C193.973331,12.6086668 193.600668,12.5046679 193.358,12.262 C193.097999,12.0019987 193.011333,11.603336 193.098,11.066 C193.184667,10.6153311 193.223667,10.1170027 193.215,9.571 C193.206333,9.02499727 193.158667,8.5353355 193.072,8.102 C192.967999,7.63399766 193.045999,7.2700013 193.306,7.01 C193.548668,6.76733212 193.895331,6.66333316 194.346,6.698 C195.854008,6.76733368 197.353326,6.81933316 198.844,6.854 C200.334674,6.88866684 201.842659,6.906 203.368,6.906 C206.505349,6.906 209.616651,6.85400052 212.702,6.75 C213.014002,6.73266658 213.286999,6.73699987 213.521,6.763 C213.755001,6.78900013 213.949999,6.86266606 214.106,6.984 C214.435335,7.20933446 214.574,7.67732978 214.522,8.388 C214.487333,8.8213355 214.478667,9.2546645 214.496,9.688 C214.513333,10.1213355 214.539333,10.5373313 214.574,10.936 Z M215.536,19.88 C215.536,20.2786687 215.406001,20.5646658 215.146,20.738 C214.885999,20.9113342 214.556669,20.9720003 214.158,20.92 C213.083328,20.7813326 212.017339,20.6686671 210.96,20.582 C209.902661,20.4953329 208.828005,20.4693332 207.736,20.504 C207.233331,20.5213334 206.964667,20.798664 206.93,21.336 C206.912667,21.665335 206.921333,21.9816652 206.956,22.285 C206.990667,22.5883348 207.051333,22.8959984 207.138,23.208 C207.242001,23.7280026 207.190001,24.1266653 206.982,24.404 C206.877999,24.5426674 206.726334,24.6596662 206.527,24.755 C206.327666,24.8503338 206.106668,24.898 205.864,24.898 C204.875995,24.9153334 203.896672,24.9196667 202.926,24.911 C201.955328,24.9023333 200.976005,24.8806668 199.988,24.846 C199.502664,24.846 199.138668,24.6640018 198.896,24.3 C198.722666,24.0399987 198.588334,23.7410017 198.493,23.403 C198.397666,23.0649983 198.332667,22.7486681 198.298,22.454 C198.263333,22.1939987 198.310999,21.9773342 198.441,21.804 C198.571001,21.6306658 198.791998,21.544 199.104,21.544 C199.242667,21.544 199.424666,21.5483333 199.65,21.557 C199.875334,21.5656667 200.104999,21.57 200.339,21.57 C200.573001,21.57 200.802666,21.5743333 201.028,21.583 C201.253334,21.5916667 201.426666,21.596 201.548,21.596 C201.686667,21.596 201.795,21.5440005 201.873,21.44 C201.951,21.3359995 201.99,21.2146674 201.99,21.076 C201.99,20.9373326 201.946667,20.8030007 201.86,20.673 C201.773333,20.5429993 201.634668,20.478 201.444,20.478 C200.091993,20.478 198.748673,20.5299995 197.414,20.634 C196.079327,20.7380005 194.736007,20.8853324 193.384,21.076 C192.534662,21.1800005 192.084,20.963336 192.032,20.426 C191.997333,20.0099979 191.971333,19.5550025 191.954,19.061 C191.936667,18.5669975 191.945333,18.1466684 191.98,17.8 C192.014667,17.4359982 192.135999,17.1933339 192.344,17.072 C192.552001,16.9506661 192.829332,16.9246663 193.176,16.994 C194.354673,17.2366679 195.554994,17.3753332 196.777,17.41 C197.999006,17.4446668 199.233994,17.4446668 200.482,17.41 C200.759335,17.41 201.114665,17.4056667 201.548,17.397 C201.981336,17.3883333 202.423331,17.3406671 202.874,17.254 C203.203335,17.1846663 203.506665,17.0936672 203.784,16.981 C204.061335,16.8683328 204.295332,16.7426674 204.486,16.604 C204.572667,16.5346663 204.611667,16.4610004 204.603,16.383 C204.594333,16.3049996 204.520667,16.266 204.382,16.266 C202.752659,16.266 201.114675,16.2833332 199.468,16.318 C197.821325,16.3526668 196.183341,16.4653324 194.554,16.656 C193.704662,16.7600005 193.254,16.5346694 193.202,15.98 C193.167333,15.6853319 193.141333,15.3430019 193.124,14.953 C193.106667,14.5629981 193.106667,14.2380013 193.124,13.978 C193.141333,13.6139982 193.258332,13.3670006 193.475,13.237 C193.691668,13.1069994 193.973332,13.0506666 194.32,13.068 C197.457349,13.2240008 200.585984,13.3063333 203.706,13.315 C206.826016,13.3236667 209.954651,13.2413342 213.092,13.068 C213.594669,13.0506666 213.967332,13.2586645 214.21,13.692 C214.348667,13.9346679 214.452666,14.190332 214.522,14.459 C214.591334,14.727668 214.626,14.9833321 214.626,15.226 C214.626,15.4166676 214.565334,15.5856659 214.444,15.733 C214.322666,15.8803341 214.166668,15.9626666 213.976,15.98 C213.577331,16.0146668 213.109336,16.062333 212.572,16.123 C212.034664,16.183667 211.488669,16.2659995 210.934,16.37 C210.379331,16.4740005 209.850669,16.5996659 209.348,16.747 C208.845331,16.8943341 208.420668,17.0546658 208.074,17.228 C207.987333,17.2626668 207.957,17.3233329 207.983,17.41 C208.009,17.4966671 208.082666,17.54 208.204,17.54 C209.226672,17.5053332 210.257995,17.4360005 211.298,17.332 C212.338005,17.2279995 213.325995,17.1066674 214.262,16.968 C214.643335,16.9159997 214.942332,16.9723325 215.159,17.137 C215.375668,17.3016675 215.492667,17.5226653 215.51,17.8 C215.527333,18.129335 215.536,18.4759982 215.536,18.84 L215.536,19.88 Z M209.816,9.636 C209.816,9.51466606 209.785667,9.4106671 209.725,9.324 C209.664333,9.2373329 209.564667,9.194 209.426,9.194 C207.553991,9.15933316 205.65601,9.142 203.732,9.142 L198.012,9.142 C197.890666,9.142 197.799667,9.1853329 197.739,9.272 C197.678333,9.3586671 197.648,9.46266606 197.648,9.584 C197.648,9.70533394 197.674,9.81366619 197.726,9.909 C197.778,10.0043338 197.873333,10.052 198.012,10.052 C199.901343,10.0693334 201.816657,10.078 203.758,10.078 C205.699343,10.078 207.597324,10.0693334 209.452,10.052 C209.573334,10.052 209.664333,10.0086671 209.725,9.922 C209.785667,9.8353329 209.816,9.74000052 209.816,9.636 Z" id="完成升级-特惠即享" fill="url(#linearGradient-1)"></path>
                <g id="升级方式" transform="translate(51.000000, 43.000000)">
                    <path d="M36,8.14 L36,9.92 L31.82,9.92 L31.82,18.56 L29.92,18.56 L29.92,9.92 L24.26,9.92 C24.1,13.16 23.16,16.36 19.18,18.6 C18.92,18.18 18.28,17.5 17.86,17.18 C21.34,15.26 22.22,12.6 22.4,9.92 L18.04,9.92 L18.04,8.14 L22.44,8.14 L22.44,4.1 C21.24,4.44 20.02,4.74 18.86,5 C18.76,4.56 18.46,3.88 18.2,3.48 C21.32,2.76 24.74,1.64 26.76,0.44 L28.12,1.96 C27,2.54 25.7,3.06 24.3,3.54 L24.3,8.14 L29.92,8.14 L29.92,0.58 L31.82,0.58 L31.82,8.14 L36,8.14 Z M41.2,10.78 L44.64,9.82 C44.62,10.32 44.68,11.02 44.74,11.42 C39.54,12.94 38.8,13.22 38.34,13.56 C38.24,13.2 37.96,12.38 37.76,11.9 C38.22,11.8 38.7,11.34 39.32,10.6 C39.68,10.2 40.4,9.28 41.22,8.08 C39,8.36 38.54,8.48 38.22,8.64 C38.12,8.26 37.84,7.4 37.64,6.94 C38,6.84 38.36,6.38 38.82,5.72 C39.26,5.06 40.72,2.54 41.52,0.14 L43.22,0.98 C42.36,2.92 41.22,5 40.02,6.68 L42.28,6.44 C42.72,5.76 43.12,5 43.5,4.28 L45.02,5.24 C43.9,7.16 42.58,9.1 41.2,10.78 Z M44.7,13.2 L45.04,14.8 C42.74,15.74 40.26,16.72 38.38,17.5 L37.92,15.66 C39.6,15.1 42.18,14.14 44.7,13.2 Z M51.62,3.22 L48.98,3.22 C48.9,4.66 48.8,6.04 48.66,7.34 C49.32,9.36 50.26,11.28 51.46,12.92 C52.36,11.64 53.04,10.1 53.5,8.36 L50.16,8.36 C50.6,7.02 51.18,5.04 51.62,3.22 Z M54.46,6.68 L55.6,7.14 C55.02,10.02 54,12.42 52.64,14.34 C53.72,15.48 54.96,16.4 56.32,17.02 C55.92,17.38 55.36,18.06 55.1,18.54 C53.76,17.84 52.56,16.9 51.5,15.76 C50.42,16.96 49.18,17.9 47.84,18.62 C47.6,18.18 46.94,17.48 46.56,17.2 C47.98,16.52 49.26,15.58 50.36,14.36 C49.52,13.24 48.82,12 48.22,10.68 C47.64,13.88 46.7,16.58 45.1,18.64 C44.8,18.34 43.92,17.74 43.48,17.5 C46.12,14.46 46.88,9.4 47.14,3.22 L45.04,3.22 L45.04,1.48 L53.92,1.48 C53.48,3.14 52.96,5.12 52.46,6.76 L54.14,6.76 L54.46,6.68 Z M75.74,5.36 L65.62,5.36 C65.56,6.3 65.5,7.26 65.38,8.2 L73.88,8.2 C73.88,8.2 73.86,8.78 73.8,9.04 C73.42,14.56 73.04,16.76 72.24,17.58 C71.7,18.12 71.18,18.28 70.34,18.36 C69.6,18.42 68.3,18.4 66.96,18.32 C66.94,17.78 66.68,17.02 66.3,16.5 C67.72,16.62 69.08,16.64 69.64,16.64 C70.08,16.64 70.34,16.6 70.6,16.4 C71.16,15.94 71.52,14.08 71.84,10 L65.1,10 C64.46,13.44 63,16.66 59.3,18.66 C59.02,18.16 58.44,17.52 57.94,17.14 C62.9,14.62 63.36,9.76 63.56,5.36 L58.32,5.36 L58.32,3.54 L66.88,3.54 C66.62,2.74 66.08,1.6 65.62,0.74 L67.44,0.06 C67.96,0.96 68.58,2.16 68.86,2.96 L67.52,3.54 L75.74,3.54 L75.74,5.36 Z M84.06,10.06 L84.06,15.04 C85.38,14.8 86.74,14.52 88.08,14.24 L88.22,15.92 C84.9,16.68 81.32,17.46 78.76,18.02 L78.22,16.14 C79.3,15.96 80.68,15.7 82.2,15.42 L82.2,10.06 L78.88,10.06 L78.88,8.26 L87.56,8.26 L87.56,10.06 L84.06,10.06 Z M91.18,1.34 L92.4,0.32 C93.38,0.96 94.6,1.94 95.18,2.62 L93.88,3.78 C93.32,3.08 92.16,2.04 91.18,1.34 Z M95.88,5.6 L90.26,5.6 C90.7,11.9 92.1,16.66 93.84,16.66 C94.32,16.66 94.56,15.58 94.68,12.98 C95.1,13.42 95.8,13.86 96.32,14.04 C96,17.64 95.34,18.62 93.68,18.62 C90.38,18.62 88.8,12.8 88.3,5.6 L78.16,5.6 L78.16,3.78 L88.18,3.78 C88.14,2.64 88.1,1.48 88.1,0.32 L90.1,0.32 C90.08,1.48 90.1,2.66 90.14,3.78 L95.88,3.78 L95.88,5.6 Z" fill="url(#linearGradient-1)"></path>
                    <path d="M0,6.5 C0,6.22385763 0.223857625,6 0.5,6 C0.776142375,6 1,6.22385763 1,6.5 L1,13.5 C1,13.7761424 0.776142375,14 0.5,14 C0.223857625,14 0,13.7761424 0,13.5 L0,6.5 Z M2,6.5 C2,6.22385763 2.22385763,6 2.5,6 C2.77614237,6 3,6.22385763 3,6.5 L3,13.5 C3,13.7761424 2.77614237,14 2.5,14 C2.22385763,14 2,13.7761424 2,13.5 L2,6.5 Z M4,6.5 C4,6.22385763 4.22385763,6 4.5,6 C4.77614237,6 5,6.22385763 5,6.5 L5,13.5 C5,13.7761424 4.77614237,14 4.5,14 C4.22385763,14 4,13.7761424 4,13.5 L4,6.5 Z" id="升级方式小标" fill="#D3A47B" fill-rule="nonzero"></path>
                    <path d="M108,6.5 C108,6.22385763 108.223858,6 108.5,6 C108.776142,6 109,6.22385763 109,6.5 L109,13.5 C109,13.7761424 108.776142,14 108.5,14 C108.223858,14 108,13.7761424 108,13.5 L108,6.5 Z M110,6.5 C110,6.22385763 110.223858,6 110.5,6 C110.776142,6 111,6.22385763 111,6.5 L111,13.5 C111,13.7761424 110.776142,14 110.5,14 C110.223858,14 110,13.7761424 110,13.5 L110,6.5 Z M112,6.5 C112,6.22385763 112.223858,6 112.5,6 C112.776142,6 113,6.22385763 113,6.5 L113,13.5 C113,13.7761424 112.776142,14 112.5,14 C112.223858,14 112,13.7761424 112,13.5 L112,6.5 Z" id="升级方式小标" fill="#D3A47B" fill-rule="nonzero"></path>
                </g>
            </g>
        </g>
    </g>
</svg>