<?xml version="1.0" encoding="UTF-8"?>
<svg width="97px" height="26px" viewBox="0 0 97 26" version="1.1" xmlns="http://www.w3.org/2000/svg" xmlns:xlink="http://www.w3.org/1999/xlink">
    <!-- Generator: Sketch 49.3 (51167) - http://www.bohemiancoding.com/sketch -->
    <title>到账福利</title>
    <desc>Created with Sketch.</desc>
    <defs>
        <linearGradient x1="50%" y1="0%" x2="50%" y2="100%" id="linearGradient-1">
            <stop stop-color="#E7D79D" offset="0%"></stop>
            <stop stop-color="#CAAE64" offset="100%"></stop>
        </linearGradient>
    </defs>
    <g id="高级会员广告" stroke="none" stroke-width="1" fill="none" fill-rule="evenodd">
        <g id="高级会员购买引导-1" transform="translate(-138.000000, -464.000000)">
            <g id="到账福利" transform="translate(138.000000, 464.000000)">
                <path d="M4.5,3.8458278 C4.5,2.77756757 4.57344079,2.39725995 4.78251225,2.0063303 C4.95077309,1.69170989 5.19170989,1.45077309 5.5063303,1.28251225 C5.89725995,1.07344079 6.27756757,1 7.3458278,1 L90.6541722,1 C91.7224324,1 92.10274,1.07344079 92.4936697,1.28251225 C92.8082901,1.45077309 93.0492269,1.69170989 93.2174877,2.0063303 C93.4265592,2.39725995 93.5,2.77756757 93.5,3.8458278 L93.5,7 L94.5,7 L94.5,3.8458278 C94.5,2.50854969 94.3607616,2.02362033 94.0993009,1.53473144 C93.8378403,1.04584256 93.4541574,0.662159695 92.9652686,0.400699056 C92.4763797,0.139238417 91.9914503,0 90.6541722,0 L7.3458278,0 C6.00854969,0 5.52362033,0.139238417 5.03473144,0.400699056 C4.54584256,0.662159695 4.16215969,1.04584256 3.90069906,1.53473144 C3.63923842,2.02362033 3.5,2.50854969 3.5,3.8458278 L3.5,9.796875 L4.5,9.76614011 L4.5,3.8458278 Z M93.5,14.0126846 L94.5,14 L94.5,21.6541722 C94.5,22.9914503 94.3607616,23.4763797 94.0993009,23.9652686 C93.8378403,24.4541574 93.4541574,24.8378403 92.9652686,25.0993009 C92.4763797,25.3607616 91.9914503,25.5 90.6541722,25.5 L7.3458278,25.5 C6.00854969,25.5 5.52362033,25.3607616 5.03473144,25.0993009 C4.54584256,24.8378403 4.16215969,24.4541574 3.90069906,23.9652686 C3.63923842,23.4763797 3.5,22.9914503 3.5,21.6541722 L3.5,15.1542969 L4.5,15.1542969 L4.5,21.6541722 C4.5,22.7224324 4.57344079,23.10274 4.78251225,23.4936697 C4.95077309,23.8082901 5.19170989,24.0492269 5.5063303,24.2174877 C5.89725995,24.4265592 6.27756757,24.5 7.3458278,24.5 L90.6541722,24.5 C91.7224324,24.5 92.10274,24.4265592 92.4936697,24.2174877 C92.8082901,24.0492269 93.0492269,23.8082901 93.2174877,23.4936697 C93.4265592,23.10274 93.5,22.7224324 93.5,21.6541722 L93.5,14.0126846 Z" id="Rectangle-21" fill="#CEB36C" fill-rule="nonzero"></path>
                <path d="M25.144,5.328 C25.416,5.184 25.576,5.12 25.928,5.12 C26.552,5.12 26.92,5.312 27.4,5.776 C27.912,5.2 28.552,4.864 29.304,4.864 C31,4.864 32.024,6.8 32.2,7.792 C32.312,8.416 32.312,8.736 32.36,11.696 C32.376,12.784 32.424,14.528 32.424,15.616 L32.424,16.432 C32.424,16.768 32.424,17.888 31.688,18.464 C31.32,18.736 30.712,19.056 29.768,19.056 C28.968,19.056 27.8,18.784 26.856,18.24 C26.056,17.792 25.848,17.568 24.936,16.656 C24.504,17.44 23.72,18.016 22.856,18.48 C21.464,19.216 20.792,19.28 20.168,19.28 C19.496,19.28 18.456,19.136 17.864,18.352 C17.576,17.952 17.368,17.376 17.368,16.992 C17.368,16.272 18.136,15.84 18.456,15.664 C18.088,15.408 17.288,14.896 17.288,13.84 C17.288,13.76 17.288,13.328 17.624,13.328 C17.704,13.328 17.992,13.424 18.04,13.424 C18.152,13.424 19.432,12.896 19.72,12.816 L19.72,12.32 C18.6,12.32 17.464,11.552 17.464,10.4 C17.464,9.552 17.88,8.88 18.248,8.272 C17.528,8.176 17.096,7.28 17.096,6.656 C17.096,6.384 17.16,6.128 17.432,6.128 C17.48,6.128 17.704,6.16 17.752,6.16 C17.864,6.16 18.792,5.728 19,5.648 C20.04,5.248 22.04,4.576 23.064,4.576 C23.176,4.576 24.504,4.592 25.144,5.328 Z M25.528,14.784 C25.4,15.472 25.4,15.552 25.24,15.888 C26.36,16.304 28.12,16.32 28.392,16.32 C29.272,16.32 29.272,16.112 29.272,15.68 C29.272,14.928 29.208,11.616 29.208,10.928 C29.208,10.528 29.24,8.176 29.24,7.76 C29.24,6.848 29.24,6.56 29.064,6.56 C28.904,6.56 28.408,7.104 28.232,7.392 C27.912,7.936 27.896,8.08 27.896,9.792 C27.896,9.936 28.024,13.28 28.024,13.952 C28.024,14.384 28.024,15.056 27.576,15.328 C27.416,15.424 27.08,15.536 26.776,15.536 C25.96,15.536 25.672,15.008 25.528,14.784 Z M25.384,9.616 C25.384,9.456 25.4,7.936 25.432,7.088 C25.224,7.344 25.096,7.472 24.632,7.472 C24.328,7.472 23.832,7.424 23.464,7.392 C24.28,8 25.064,8.912 25.384,9.616 Z M18.792,17.12 C19.08,17.088 19.16,17.056 19.752,16.784 L19.752,16.144 C19.064,16.24 18.312,16.48 18.312,16.704 C18.312,16.88 18.6,17.024 18.792,17.12 Z M19.64,9.968 C20.68,9.184 20.968,8.96 21.912,8.592 C21.608,8.096 21.592,8.048 21.352,7.776 C21.064,7.856 20.904,7.904 20.536,8.08 C20.008,8.688 19.4,9.6 19.4,9.792 C19.4,9.888 19.48,9.92 19.64,9.968 Z M22.984,12.032 C24.584,11.92 24.904,12.912 24.904,13.392 C24.904,14.112 24.408,14.288 23.016,14.592 L23.016,15.488 C24.056,15.008 25.064,14.496 25.416,14.256 C25.368,13.872 25.32,13.568 25.32,13.056 C25.32,12.8 25.352,11.648 25.352,11.424 C25.048,11.872 24.568,11.872 24.44,11.872 C24.296,11.872 23.624,11.872 23.224,11.088 C23.112,11.152 22.648,11.376 22.552,11.424 C22.856,11.632 22.92,11.744 22.984,12.032 Z M48.216,12.768 C48.2053333,12.8640005 48.1760002,12.9546662 48.128,13.04 C48.0799998,13.1253338 48.0160004,13.197333 47.936,13.256 C47.8559996,13.314667 47.7706671,13.3546666 47.68,13.376 C47.5893329,13.3973334 47.4960005,13.3920002 47.4,13.36 C47.1226653,13.2426661 46.8400014,13.1440004 46.552,13.064 C46.2639986,12.9839996 45.9760014,12.9226669 45.688,12.88 C45.5813328,12.8586666 45.4933337,12.8933329 45.424,12.984 C45.3546663,13.0746671 45.3466664,13.1733328 45.4,13.28 C45.5493341,13.5573347 45.7013326,13.7946657 45.856,13.992 C46.0106674,14.1893343 46.2266653,14.3733325 46.504,14.544 C46.578667,14.5973336 46.6853326,14.6053335 46.824,14.568 C46.9626674,14.5306665 47.0639997,14.4853336 47.128,14.432 C47.202667,14.3679997 47.2826662,14.3120002 47.368,14.264 C47.4533338,14.2159998 47.5386662,14.1813334 47.624,14.16 C47.7200005,14.1386666 47.8239994,14.1519998 47.936,14.2 C48.0480006,14.2480002 48.1146666,14.3199995 48.136,14.416 C48.1893336,14.6720013 48.2293332,14.9679983 48.256,15.304 C48.2826668,15.6400017 48.2986666,15.9946648 48.304,16.368 C48.3093334,16.7413352 48.3040001,17.1146648 48.288,17.488 C48.2719999,17.8613352 48.2373336,18.2079984 48.184,18.528 C48.1733333,18.6453339 48.1253338,18.7493329 48.04,18.84 C47.9546662,18.9306671 47.8560006,19.0026664 47.744,19.056 C47.6319994,19.1093336 47.5146673,19.1439999 47.392,19.16 C47.2693327,19.1760001 47.1546672,19.1626669 47.048,19.12 C46.5359974,18.9173323 46.0533356,18.6000022 45.6,18.168 C45.1466644,17.7359978 44.749335,17.2213363 44.408,16.624 C44.1733322,16.2186646 43.9786674,15.7653358 43.824,15.264 C43.6693326,14.7626642 43.5333339,14.2506693 43.416,13.728 C43.4053333,13.6746664 43.3760002,13.6373334 43.328,13.616 C43.2799998,13.5946666 43.2293336,13.584 43.176,13.584 C43.1226664,13.584 43.0720002,13.5946666 43.024,13.616 C42.9759998,13.6373334 42.9413334,13.6746664 42.92,13.728 C42.8773331,13.8666674 42.8586666,14.0586654 42.864,14.304 C42.8693334,14.5493346 42.8986664,14.8373317 42.952,15.168 C42.9733334,15.3386675 43.0053331,15.5066658 43.048,15.672 C43.0906669,15.8373342 43.1706661,15.9839994 43.288,16.112 C43.554668,16.4213349 43.8186654,16.7813313 44.08,17.192 C44.3413346,17.6026687 44.5573325,17.9839982 44.728,18.336 C44.7813336,18.4533339 44.7840002,18.5733327 44.736,18.696 C44.6879998,18.8186673 44.5946674,18.8906666 44.456,18.912 C43.9119973,19.0080005 43.3626694,19.0879997 42.808,19.152 C42.2533306,19.2160003 41.7040027,19.2426667 41.16,19.232 C40.893332,19.232 40.7360002,19.1733339 40.688,19.056 C40.6399998,18.9386661 40.6426664,18.7680011 40.696,18.544 C40.7386669,18.3946659 40.7733332,18.2080011 40.8,17.984 C40.8266668,17.7599989 40.8453333,17.5200013 40.856,17.264 C40.8666667,17.0079987 40.8693334,16.7546679 40.864,16.504 C40.8586666,16.2533321 40.8453334,16.0266677 40.824,15.824 C40.8026666,15.5893322 40.7893334,15.368001 40.784,15.16 C40.7786666,14.951999 40.8026664,14.7360011 40.856,14.512 C40.9200003,14.2239986 40.9360002,13.9200016 40.904,13.6 C40.8719998,13.2906651 40.7546677,13.1519998 40.552,13.184 C40.2319984,13.2373336 40.0560002,13.130668 40.024,12.864 C39.9706664,12.3413307 39.9413334,11.8080027 39.936,11.264 C39.9306666,10.7199973 39.9546664,10.2613352 40.008,9.888 C40.0293334,9.7813328 40.0853329,9.69600032 40.176,9.632 C40.2666671,9.56799968 40.3599995,9.55733312 40.456,9.6 C40.7333347,9.7066672 40.8773333,9.626668 40.888,9.36 C40.9093334,9.08266528 40.92,8.77333504 40.92,8.432 C40.92,8.09066496 40.9066668,7.74133512 40.88,7.384 C40.8533332,7.02666488 40.8160002,6.6746684 40.768,6.328 C40.7199998,5.9813316 40.6640003,5.66400144 40.6,5.376 C40.5573331,5.20533248 40.5573331,5.03200088 40.6,4.856 C40.6426669,4.67999912 40.7546658,4.5653336 40.936,4.512 C41.3520021,4.39466608 41.8053309,4.35199984 42.296,4.384 C42.7866691,4.41600016 43.2933307,4.49599936 43.816,4.624 C43.890667,4.64533344 43.9626663,4.69333296 44.032,4.768 C44.1013337,4.84266704 44.1573331,4.93066616 44.2,5.032 C44.2426669,5.13333384 44.2693333,5.23466616 44.28,5.336 C44.2906667,5.43733384 44.2693336,5.51999968 44.216,5.584 C44.0453325,5.82933456 43.8960006,6.10399848 43.768,6.408 C43.6399994,6.71200152 43.5493336,7.01866512 43.496,7.328 C43.4746666,7.46666736 43.530666,7.56799968 43.664,7.632 C43.797334,7.69600032 43.9226661,7.66400064 44.04,7.536 C44.1573339,7.40799936 44.2719994,7.24800096 44.384,7.056 C44.4960006,6.86399904 44.6026662,6.65866776 44.704,6.44 C44.8053338,6.22133224 44.8986662,6.00000112 44.984,5.776 C45.0693338,5.55199888 45.1333331,5.34400096 45.176,5.152 C45.2293336,4.95999904 45.3439991,4.81333384 45.52,4.712 C45.6960009,4.61066616 45.9066654,4.53866688 46.152,4.496 C46.493335,4.4426664 46.7573324,4.4426664 46.944,4.496 C47.1306676,4.5493336 47.3306656,4.63999936 47.544,4.768 C47.7573344,4.90666736 47.9119995,5.07466568 48.008,5.272 C48.1040005,5.46933432 48.1626666,5.67999888 48.184,5.904 C48.2053334,6.1173344 48.186667,6.32799896 48.128,6.536 C48.069333,6.74400104 47.9920005,6.93866576 47.896,7.12 C47.7146658,7.4400016 47.4880014,7.72533208 47.216,7.976 C46.9439986,8.22666792 46.6426683,8.4319992 46.312,8.592 C45.9493315,8.77333424 45.634668,8.9439992 45.368,9.104 C45.101332,9.2640008 44.8666677,9.43466576 44.664,9.616 C44.6106664,9.6693336 44.5973332,9.74399952 44.624,9.84 C44.6506668,9.93600048 44.7066662,9.984 44.792,9.984 C45.1013349,9.97333328 45.4639979,9.89866736 45.88,9.76 C46.2960021,9.62133264 46.6906648,9.43466784 47.064,9.2 C47.1493338,9.1466664 47.2426662,9.12 47.344,9.12 C47.4453338,9.12 47.5439995,9.13599984 47.64,9.168 C47.7360005,9.20000016 47.8186663,9.24799968 47.888,9.312 C47.9573337,9.37600032 48.0026666,9.44533296 48.024,9.52 C48.1520006,10.0426693 48.2293332,10.5759973 48.256,11.12 C48.2826668,11.6640027 48.2693336,12.2133306 48.216,12.768 Z M40.248,5.472 C40.2053331,6.005336 40.1653335,6.53599736 40.128,7.064 C40.0906665,7.59200264 40.072,8.10666416 40.072,8.608 C40.072,8.88533472 40.0186672,9.0773328 39.912,9.184 C39.8266662,9.26933376 39.7626669,9.36266616 39.72,9.464 C39.6773331,9.56533384 39.6453334,9.68533264 39.624,9.824 C39.5066661,10.4640032 39.4559999,11.0293309 39.472,11.52 C39.4880001,12.0106691 39.533333,12.4959976 39.608,12.976 C39.6293334,13.1466675 39.6853329,13.2959994 39.776,13.424 C39.8666671,13.5520006 39.9759994,13.6639995 40.104,13.76 C40.1573336,13.8026669 40.1760001,13.8853327 40.16,14.008 C40.1439999,14.1306673 40.0773339,14.2186664 39.96,14.272 C39.8533328,14.3253336 39.7440006,14.3546666 39.632,14.36 C39.5199994,14.3653334 39.4320003,14.3626667 39.368,14.352 C39.1866658,14.3306666 39.058667,14.290667 38.984,14.232 C38.909333,14.173333 38.8666667,14.0533342 38.856,13.872 C38.8346666,12.9546621 38.8346666,12.0106715 38.856,11.04 C38.8773334,10.0693285 38.9093331,9.12000464 38.952,8.192 C38.9626667,8.07466608 38.9493335,7.95466728 38.912,7.832 C38.8746665,7.70933272 38.8240003,7.60533376 38.76,7.52 C38.6533328,7.38133264 38.5253341,7.29600016 38.376,7.264 C38.0026648,7.18933296 37.6106687,7.14933336 37.2,7.144 C36.7893313,7.13866664 36.4453347,7.14666656 36.168,7.168 C36.0719995,7.17866672 35.9680006,7.20266648 35.856,7.24 C35.7439994,7.27733352 35.6453338,7.33333296 35.56,7.408 C35.3893325,7.54666736 35.3093333,7.72799888 35.32,7.952 C35.394667,8.9120048 35.4479998,9.86666192 35.48,10.816 C35.5120002,11.7653381 35.5173334,12.7039954 35.496,13.632 C35.496,13.7280005 35.4826668,13.8186662 35.456,13.904 C35.4293332,13.9893338 35.3733338,14.0639997 35.288,14.128 C35.213333,14.1813336 35.1280005,14.2213332 35.032,14.248 C34.9359995,14.2746668 34.8346672,14.2933333 34.728,14.304 C34.6426662,14.3146667 34.5653337,14.3146667 34.496,14.304 C34.4266663,14.2933333 34.3600003,14.2773334 34.296,14.256 C34.1786661,14.2239998 34.082667,14.1653338 34.008,14.08 C33.933333,13.9946662 33.9119998,13.8773341 33.944,13.728 C34.0933341,12.9813296 34.1839998,12.2853366 34.216,11.64 C34.2480002,10.9946634 34.264,10.368003 34.264,9.76 C34.264,9.09866336 34.234667,8.42667008 34.176,7.744 C34.117333,7.06132992 34.0293339,6.2933376 33.912,5.44 C33.8799998,5.18399872 33.9066662,4.99733392 33.992,4.88 C34.0986672,4.75199936 34.2746654,4.70933312 34.52,4.752 C34.9040019,4.82666704 35.3066646,4.8773332 35.728,4.904 C36.1493354,4.9306668 36.5839978,4.93333344 37.032,4.912 C37.3946685,4.89066656 37.7786646,4.86133352 38.184,4.824 C38.5893354,4.78666648 38.9466651,4.7413336 39.256,4.688 C39.5546682,4.6346664 39.7893325,4.67733264 39.96,4.816 C40.0453338,4.88000032 40.1199997,4.96799944 40.184,5.08 C40.2480003,5.19200056 40.2693334,5.32266592 40.248,5.472 Z M40.28,18.384 C40.2586666,18.5653342 40.2026671,18.7173327 40.112,18.84 C40.0213329,18.9626673 39.9173339,19.0559997 39.8,19.12 C39.6933328,19.1733336 39.5653341,19.2 39.416,19.2 C39.2666659,19.2 39.0800011,19.162667 38.856,19.088 C38.4506646,18.9493326 38.1360011,18.7040018 37.912,18.352 C37.7626659,18.1279989 37.650667,17.8773347 37.576,17.6 C37.501333,17.3226653 37.4746666,17.0560013 37.496,16.8 C37.496,16.7466664 37.4826668,16.7013335 37.456,16.664 C37.4293332,16.6266665 37.3973335,16.6053334 37.36,16.6 C37.3226665,16.5946666 37.2853335,16.6053332 37.248,16.632 C37.2106665,16.6586668 37.192,16.7039997 37.192,16.768 C37.1706666,17.0240013 37.1333336,17.2719988 37.08,17.512 C37.0266664,17.7520012 36.9413339,17.9786656 36.824,18.192 C36.6533325,18.5013349 36.4186682,18.7466658 36.12,18.928 C35.8213318,19.1093342 35.4960018,19.2106666 35.144,19.232 C34.8666653,19.2533334 34.6133345,19.2026673 34.384,19.08 C34.1546655,18.9573327 34.0133336,18.7466682 33.96,18.448 C33.9066664,18.1706653 33.8666668,17.8666683 33.84,17.536 C33.8133332,17.2053317 33.8,16.8853349 33.8,16.576 C33.8,16.2986653 33.8079999,16.0506678 33.824,15.832 C33.8400001,15.6133322 33.8586666,15.4453339 33.88,15.328 C33.9013334,15.1466658 33.9706661,15.0346669 34.088,14.992 C34.2053339,14.9493331 34.3439992,14.9493331 34.504,14.992 C34.7920014,15.0773338 35.0586654,15.0800004 35.304,15 C35.5493346,14.9199996 35.709333,14.7146683 35.784,14.384 C35.8693338,13.9893314 35.9279998,13.5306693 35.96,13.008 C35.9920002,12.4853307 36.0026667,11.9413362 35.992,11.376 C35.9813333,10.8213306 35.9520002,10.2720027 35.904,9.728 C35.8559998,9.18399728 35.794667,8.68800224 35.72,8.24 C35.6986666,8.12266608 35.7093331,8.01333384 35.752,7.912 C35.7946669,7.81066616 35.8746661,7.74400016 35.992,7.712 C36.0986672,7.69066656 36.2453324,7.67200008 36.432,7.656 C36.6186676,7.63999992 36.8133323,7.62933336 37.016,7.624 C37.2186677,7.61866664 37.415999,7.61866664 37.608,7.624 C37.800001,7.62933336 37.9546661,7.64266656 38.072,7.664 C38.2426675,7.69600016 38.3626663,7.77066608 38.432,7.888 C38.5013337,8.00533392 38.5146669,8.19199872 38.472,8.448 C38.4079997,8.90666896 38.3626668,9.3626644 38.336,9.816 C38.3093332,10.2693356 38.296,10.7359976 38.296,11.216 C38.296,11.6426688 38.3013333,12.0719978 38.312,12.504 C38.3226667,12.9360022 38.3386666,13.3759978 38.36,13.824 C38.3706667,14.0693346 38.4213329,14.287999 38.512,14.48 C38.6026671,14.672001 38.7493323,14.8266661 38.952,14.944 C39.1546677,15.0613339 39.3466658,15.0720005 39.528,14.976 C39.6986675,14.8906662 39.8399994,14.8533333 39.952,14.864 C40.0640006,14.8746667 40.1359998,14.9439994 40.168,15.072 C40.2853339,15.5626691 40.3466666,16.1093303 40.352,16.712 C40.3573334,17.3146697 40.3333336,17.8719974 40.28,18.384 Z M63.064,6.784 L61.816,6.56 C61.8,6.56 60.856,6.544 60.76,6.56 C60.152,6.624 59.416,6.688 58.088,7.248 C57.064,7.664 56.888,8.192 56.792,8.512 C57.048,8.528 57.128,8.48 57.848,8.048 C57.928,8.016 59.784,6.976 61.24,6.976 C62.232,6.976 62.728,7.344 63.208,7.712 C63.896,8.24 63.944,8.88 63.944,9.12 C63.944,9.536 63.768,9.856 63.656,10.048 C63.832,10.416 63.832,10.768 63.832,10.864 C63.832,11.584 63.208,11.776 62.936,11.776 C62.76,11.776 62.76,11.776 61.688,11.536 C61.448,11.472 61.144,11.472 61.032,11.472 C60.68,11.472 60.056,11.536 59.8,11.6 L58.296,12 C57.352,12.256 57.24,12.272 56.952,12.304 C56.968,12.384 57.064,12.752 57.08,12.832 C57.096,12.912 57.096,12.992 57.112,13.12 C57.704,12.752 58.248,12.512 58.296,12.48 L59.16,12.176 C59.832,11.936 60.52,11.888 60.984,11.888 C62.424,11.888 63.368,12.432 63.848,13.232 C64.248,13.888 64.344,14.096 64.424,14.944 C64.472,15.072 64.472,15.264 64.472,15.472 L64.456,16.784 C64.456,17.232 64.408,17.28 64.408,17.536 C64.376,17.696 64.312,18.448 64.264,18.544 C64.168,18.8 63.976,19.312 62.952,19.312 C62.712,19.312 62.632,19.296 61.912,19.152 C61.752,19.12 61.032,19.072 60.84,19.072 C60.312,19.072 57.944,19.312 57.448,19.312 C56.504,19.312 55.192,19.056 55.16,17.712 L55.128,16.24 L55.128,15.776 C55,15.84 54.92,15.888 54.728,15.888 C54.328,15.888 54.056,15.632 53.832,15.168 L53.848,15.872 L53.944,16.96 C53.96,17.12 53.992,17.968 53.992,18.272 C53.992,18.96 53.672,19.504 52.904,19.504 C52.328,19.504 52.248,19.44 51.944,19.184 C51.608,18.992 51.352,18.816 51.368,18.08 L51.4,16.704 L51.4,16.112 C51.224,16.24 51.096,16.304 50.936,16.304 C50.008,16.304 49.32,15.312 49.32,14.416 C49.32,13.872 49.656,12.944 50.616,12.048 C49.896,11.648 49.48,10.656 49.48,10.144 C49.48,8.912 51.128,7.84 52.152,7.36 C51.688,7.12 51.48,7.04 51.048,6.896 C50.808,6.816 49.928,6.528 49.928,5.888 C49.928,5.184 50.856,4.576 51.784,4.576 C53.256,4.576 54.856,6.128 54.856,7.024 C54.856,7.584 54.504,7.824 54.072,8 L52.744,8.56 C52.296,8.832 51.928,9.056 51.576,9.472 C51.272,9.808 51.144,10.16 51.144,10.352 C51.144,10.448 51.208,10.576 51.352,10.576 C51.432,10.576 51.528,10.56 51.736,10.32 L52.472,9.488 C52.68,9.264 53.24,8.64 53.848,8.64 C54.504,8.64 54.856,9.248 55.16,9.76 C55.16,8.752 55.336,8.48 55.96,7.52 C55.208,7.152 55.064,6.576 55.064,6.32 C55.064,5.984 55.176,5.856 55.576,5.744 C56.328,5.552 56.424,5.504 57.304,5.12 C57.512,5.04 59.592,4.336 61.112,4.336 C63.144,4.336 64.024,5.296 64.024,6.128 C64.024,6.912 63.192,6.8 63.064,6.784 Z M55.976,11.872 C55.624,11.504 55.4,11.072 55.256,10.592 C55.192,11.072 55.16,11.28 54.424,12.304 C54.872,12.592 55.048,12.768 55.288,13.168 C55.288,13.104 55.304,12.832 55.304,12.784 C55.304,12.72 55.24,12.464 55.24,12.416 C55.24,11.952 55.704,11.904 55.976,11.872 Z M60.984,8.592 L59.992,9.136 C59.496,9.408 58.184,9.92 57.784,9.92 C57.4,9.92 56.888,9.792 56.616,9.488 C56.52,10.112 56.856,10.672 57.064,10.672 C57.224,10.672 57.896,10.432 58.024,10.4 C58.36,10.304 59.928,9.888 60.136,9.808 C60.44,9.68 61.384,9.072 61.48,8.8 C61.496,8.624 61.24,8.528 61.192,8.528 C61.144,8.528 61.032,8.576 60.984,8.592 Z M57,14.992 L57,15.744 C57.224,15.616 57.336,15.568 57.672,15.504 L57.672,15.2 C57.528,15.168 57.144,15.04 57,14.992 Z M57.112,17.52 C57.432,17.44 57.512,17.408 57.8,17.376 C57.8,17.312 57.752,17.024 57.736,16.96 C57.496,16.896 57.352,16.848 57.048,16.688 C57.096,17.248 57.112,17.312 57.112,17.52 Z M60.552,14.464 C60.664,14.416 60.792,14.352 61.016,14.352 C61.24,14.352 61.384,14.416 61.512,14.464 C61.528,14.208 61.512,13.904 61.496,13.776 C61.48,13.648 61.352,13.648 61.352,13.648 C61.224,13.648 60.712,13.888 60.552,13.968 L60.552,14.464 Z M60.648,16.4 L60.648,16.912 C60.984,16.816 61.304,16.784 61.464,16.768 L61.464,16.112 C61.272,16.24 61.192,16.272 60.648,16.4 Z M71.064,15.072 L71.096,16.768 L71.064,18.128 C71.048,18.672 70.856,18.896 70.472,19.072 C70.344,19.136 70.088,19.248 69.8,19.248 C69.544,19.248 69.048,19.152 68.888,19.04 C68.36,18.672 68.312,18.176 68.312,18.016 C68.312,17.728 68.36,17.28 68.36,16.992 C67.944,17.04 67.56,17.056 67.064,16.72 C66.424,16.288 66.136,15.552 66.136,15.248 C66.136,15.072 66.232,14.544 66.408,14.352 L67.304,13.344 C67.432,13.216 67.896,12.592 68.008,12.464 C67.576,12.48 67.272,12.496 66.776,12.24 C65.544,11.584 65.544,9.904 65.544,9.744 C65.544,8.816 65.896,8.32 66.424,7.648 C66.584,7.44 67.912,6.224 68.312,6 C68.36,5.984 68.456,5.92 68.456,5.856 C68.456,5.84 68.44,5.84 68.44,5.824 C68.28,5.552 68.264,5.52 68.264,5.392 C68.264,4.928 68.728,4.496 69.592,4.496 C71.064,4.496 71.704,5.552 71.704,6.304 C71.704,6.592 71.528,6.88 71.32,7.04 C71.144,7.184 71.048,7.2 70.456,7.392 C70.856,7.952 70.872,8.176 70.904,8.48 C71.992,8.624 72.376,9.184 72.376,10.208 C72.376,11.264 71.496,11.424 71.016,11.504 C71,11.664 71,11.696 71,11.76 C71.432,12.08 71.608,12.24 71.832,12.672 C71.912,12.816 72.104,13.2 72.104,13.568 C72.104,13.872 71.96,14.432 71.736,14.704 C71.56,14.944 71.256,15.024 71.064,15.072 Z M68.44,9.12 C68.2,8.944 68.024,8.736 67.96,8.432 C67.704,8.592 67.224,8.88 67.176,8.928 C67.048,9.008 66.728,9.264 66.728,9.44 C66.728,9.488 66.76,9.776 67.048,9.776 C67.288,9.776 68.2,9.264 68.44,9.12 Z M76.936,14.32 L76.936,11.552 L76.952,11.024 L77,9.648 L77.224,7.104 C77.24,7.024 77.032,6.736 76.872,6.736 C76.424,6.736 75.368,7.936 75.4,8.816 L75.448,10.16 L75.496,10.656 L75.512,13.536 C75.512,13.856 75.496,14.64 75.304,14.88 C74.904,15.344 74.824,15.424 74.392,15.424 C73.736,15.424 73.48,15.376 73.128,14.944 C72.872,14.64 72.664,14.064 72.68,13.728 L72.712,12.384 L72.856,10.464 L72.984,8.08 C73,7.888 72.936,6.992 72.952,6.8 C72.904,6.72 72.68,6.336 72.68,6.336 C72.632,6.096 72.6,6.016 72.6,5.92 C72.6,5.44 73.16,4.928 73.64,4.928 C74.104,4.928 74.664,5.248 74.872,5.456 C74.904,5.488 75.192,5.872 75.272,5.968 C75.48,5.664 76.12,4.752 77.224,4.752 C78.376,4.752 79.256,5.888 79.352,6.08 C79.832,7.008 79.88,7.104 79.944,7.488 C80.008,7.824 80.008,7.84 80.024,8.144 C80.024,8.16 80.04,8.256 80.04,8.272 L79.992,11.504 L79.992,13.632 C79.992,14 80.104,15.616 80.104,15.952 C80.104,16.752 79.96,17.968 79.368,18.464 C79.032,18.752 79,18.784 78.856,18.832 C78.472,18.976 77.64,19.168 76.968,19.168 C75.512,19.168 74.008,18.32 72.904,17.456 C72.728,17.312 72.04,16.192 72.04,16.112 C72.04,16.048 72.184,16 72.232,16 L72.712,16.144 C72.84,16.176 73.416,16.304 73.544,16.336 L75.048,16.48 C75.352,16.512 75.832,16.544 76.12,16.544 C76.776,16.544 76.808,16.48 76.856,16.368 C76.984,16.096 77,15.872 77,15.808 L76.936,14.32 Z" fill="url(#linearGradient-1)"></path>
                <path d="M2.27297077,9.02297077 L3.27297077,9.02297077 L3.27297077,15.0229708 L2.27297077,15.0229708 L2.27297077,9.02297077 Z M6.27297077,10.0229708 L7.27297077,10.0229708 L7.27297077,16.0229708 L6.27297077,16.0229708 L6.27297077,10.0229708 Z M4.27297077,7.52297077 L5.27297077,7.52297077 L5.27297077,13.5229708 L4.27297077,13.5229708 L4.27297077,7.52297077 Z" id="Combined-Shape" fill="url(#linearGradient-1)" transform="translate(4.772971, 11.772971) scale(-1, 1) rotate(-45.000000) translate(-4.772971, -11.772971) "></path>
                <path d="M90.7729708,8.52297077 L91.7729708,8.52297077 L91.7729708,14.5229708 L90.7729708,14.5229708 L90.7729708,8.52297077 Z M94.7729708,9.52297077 L95.7729708,9.52297077 L95.7729708,15.5229708 L94.7729708,15.5229708 L94.7729708,9.52297077 Z M92.7729708,7.02297077 L93.7729708,7.02297077 L93.7729708,13.0229708 L92.7729708,13.0229708 L92.7729708,7.02297077 Z" id="Combined-Shape" fill="url(#linearGradient-1)" transform="translate(93.272971, 11.272971) scale(-1, 1) rotate(-45.000000) translate(-93.272971, -11.272971) "></path>
            </g>
        </g>
    </g>
</svg>