<?xml version="1.0" encoding="UTF-8"?>
<svg width="98px" height="26px" viewBox="0 0 98 26" version="1.1" xmlns="http://www.w3.org/2000/svg" xmlns:xlink="http://www.w3.org/1999/xlink">
    <!-- Generator: Sketch 49 (51002) - http://www.bohemiancoding.com/sketch -->
    <title>专属特权</title>
    <desc>Created with Sketch.</desc>
    <defs>
        <linearGradient x1="50%" y1="0%" x2="50%" y2="100%" id="linearGradient-1">
            <stop stop-color="#E7D79D" offset="0%"></stop>
            <stop stop-color="#CAAE64" offset="100%"></stop>
        </linearGradient>
    </defs>
    <g id="高级会员广告" stroke="none" stroke-width="1" fill="none" fill-rule="evenodd">
        <g id="高级会员购买引导-1" transform="translate(-137.000000, -871.000000)">
            <g id="专属特权" transform="translate(137.500000, 871.000000)">
                <path d="M4.5,9.76614011 L4.5,3.8458278 C4.5,2.77756757 4.57344079,2.39725995 4.78251225,2.0063303 C4.95077309,1.69170989 5.19170989,1.45077309 5.5063303,1.28251225 C5.89725995,1.07344079 6.27756757,1 7.3458278,1 L90.6541722,1 C91.7224324,1 92.10274,1.07344079 92.4936697,1.28251225 C92.8082901,1.45077309 93.0492269,1.69170989 93.2174877,2.0063303 C93.4265592,2.39725995 93.5,2.77756757 93.5,3.8458278 L93.5,7 L94.5,7 L94.5,3.8458278 C94.5,2.50854969 94.3607616,2.02362033 94.0993009,1.53473144 C93.8378403,1.04584256 93.4541574,0.662159695 92.9652686,0.400699056 C92.4763797,0.139238417 91.9914503,0 90.6541722,0 L7.3458278,0 C6.00854969,0 5.52362033,0.139238417 5.03473144,0.400699056 C4.54584256,0.662159695 4.16215969,1.04584256 3.90069906,1.53473144 C3.63923842,2.02362033 3.5,2.50854969 3.5,3.8458278 L3.5,9.796875 L4.5,9.76614011 Z M93.5,14.0126846 L94.5,14 L94.5,21.6541722 C94.5,22.9914503 94.3607616,23.4763797 94.0993009,23.9652686 C93.8378403,24.4541574 93.4541574,24.8378403 92.9652686,25.0993009 C92.4763797,25.3607616 91.9914503,25.5 90.6541722,25.5 L7.3458278,25.5 C6.00854969,25.5 5.52362033,25.3607616 5.03473144,25.0993009 C4.54584256,24.8378403 4.16215969,24.4541574 3.90069906,23.9652686 C3.63923842,23.4763797 3.5,22.9914503 3.5,21.6541722 L3.5,15.1542969 L4.5,15.1542969 L4.5,21.6541722 C4.5,22.7224324 4.57344079,23.10274 4.78251225,23.4936697 C4.95077309,23.8082901 5.19170989,24.0492269 5.5063303,24.2174877 C5.89725995,24.4265592 6.27756757,24.5 7.3458278,24.5 L90.6541722,24.5 C91.7224324,24.5 92.10274,24.4265592 92.4936697,24.2174877 C92.8082901,24.0492269 93.0492269,23.8082901 93.2174877,23.4936697 C93.4265592,23.10274 93.5,22.7224324 93.5,21.6541722 L93.5,14.0126846 Z" id="Rectangle-21" fill="#CEB36C" fill-rule="nonzero"></path>
                <path d="M32.844,11.492 C32.8226666,11.8013349 32.7106677,12.0253326 32.508,12.164 C32.3266658,12.2920006 32.0760016,12.3346669 31.756,12.292 C31.3399979,12.2279997 30.8440029,12.1693336 30.268,12.116 C29.6919971,12.0626664 29.0973364,12.0200002 28.484,11.988 C27.8706636,11.9559998 27.2626697,11.9426666 26.66,11.948 C26.0573303,11.9533334 25.5213357,11.9826664 25.052,12.036 C24.8706658,12.0573334 24.7266672,12.0999997 24.62,12.164 C24.5133328,12.2280003 24.4493334,12.3026662 24.428,12.388 C24.3959998,12.4733338 24.409333,12.5586662 24.468,12.644 C24.526667,12.7293338 24.6199994,12.772 24.748,12.772 C25.1000018,12.7826667 25.5399974,12.7826667 26.068,12.772 C26.5960026,12.7613333 27.1586637,12.7480001 27.756,12.732 C28.3533363,12.7159999 28.9586636,12.6920002 29.572,12.66 C30.1853364,12.6279998 30.7533307,12.5906669 31.276,12.548 C31.4573342,12.5266666 31.6093327,12.5613329 31.732,12.652 C31.8546673,12.7426671 31.9373331,12.8626659 31.98,13.012 C32.0226669,13.1400006 32.0573332,13.3506652 32.084,13.644 C32.1106668,13.9373348 32.1080002,14.2226653 32.076,14.5 C32.0546666,14.6386674 32.006667,14.7799993 31.932,14.924 C31.857333,15.0680007 31.7453341,15.1666664 31.596,15.22 C31.3613322,15.294667 31.110668,15.3773329 30.844,15.468 C30.577332,15.5586671 30.3080014,15.6546662 30.036,15.756 C29.7639986,15.8573338 29.5053346,15.9586662 29.26,16.06 C29.0146654,16.1613338 28.8013342,16.2653328 28.62,16.372 C28.5346662,16.4146669 28.5053332,16.473333 28.532,16.548 C28.5586668,16.622667 28.6146662,16.66 28.7,16.66 C29.0200016,16.6813334 29.3933312,16.6360006 29.82,16.524 C30.2466688,16.4119994 30.6413315,16.2706675 31.004,16.1 C31.270668,15.9826661 31.5053323,15.9986659 31.708,16.148 C31.8573341,16.2653339 31.932,16.4413322 31.932,16.676 C31.932,17.1026688 31.8626674,17.5346645 31.724,17.972 C31.5853326,18.4093355 31.3773347,18.7666653 31.1,19.044 C30.9826661,19.1613339 30.8440008,19.257333 30.684,19.332 C30.5239992,19.406667 30.3533342,19.4706664 30.172,19.524 C29.9586656,19.5773336 29.748001,19.6199998 29.54,19.652 C29.331999,19.6840002 29.1373342,19.6946667 28.956,19.684 C28.230663,19.6626666 27.505337,19.6093338 26.78,19.524 C26.054663,19.4386662 25.3453368,19.3320006 24.652,19.204 C23.9479965,19.0759994 23.2813365,18.9373341 22.652,18.788 C22.0226635,18.6386659 21.4733357,18.4893341 21.004,18.34 C20.9079995,18.3079998 20.7506678,18.2733335 20.532,18.236 C20.3133322,18.1986665 20.1026677,18.1693334 19.9,18.148 C19.8039995,18.1266666 19.726667,18.0813337 19.668,18.012 C19.609333,17.9426663 19.5720001,17.8600005 19.556,17.764 C19.5399999,17.6679995 19.5346666,17.5666672 19.54,17.46 C19.5453334,17.3533328 19.5639998,17.262667 19.596,17.188 C19.6386669,17.0599994 19.7053329,16.929334 19.796,16.796 C19.8866671,16.662666 19.9879994,16.5346673 20.1,16.412 C20.2120006,16.2893327 20.3266661,16.1773338 20.444,16.076 C20.5613339,15.9746662 20.6679995,15.8920003 20.764,15.828 C20.9240008,15.7213328 21.0973324,15.6653334 21.284,15.66 C21.4706676,15.6546666 21.6439992,15.689333 21.804,15.764 C21.9000005,15.8173336 22.0333325,15.8679998 22.204,15.916 C22.3746675,15.9640002 22.5666656,16.0093331 22.78,16.052 C22.9933344,16.0946669 23.2173322,16.1213333 23.452,16.132 C23.6866678,16.1426667 23.9266654,16.1213336 24.172,16.068 C24.5666686,15.993333 24.9693313,15.8786674 25.38,15.724 C25.7906687,15.5693326 26.1186654,15.4013342 26.364,15.22 C26.4066669,15.1879998 26.4173334,15.1373337 26.396,15.068 C26.3746666,14.9986663 26.3373336,14.964 26.284,14.964 C25.7613307,14.964 25.2280027,14.9693333 24.684,14.98 C24.1399973,14.9906667 23.6173358,15.0119998 23.116,15.044 C22.6146642,15.0760002 22.1533354,15.121333 21.732,15.18 C21.3106646,15.238667 20.9560014,15.3159995 20.668,15.412 C20.2733314,15.5506674 19.9586678,15.5080011 19.724,15.284 C19.5853326,15.1559994 19.4706671,14.9800011 19.38,14.756 C19.2893329,14.5319989 19.2333334,14.3080011 19.212,14.084 C19.1906666,13.9346659 19.2199996,13.7666676 19.3,13.58 C19.3800004,13.3933324 19.5213323,13.2733336 19.724,13.22 C19.8733341,13.1773331 20.0386658,13.089334 20.22,12.956 C20.4013342,12.822666 20.5346662,12.6866674 20.62,12.548 C20.6733336,12.473333 20.6786669,12.3880005 20.636,12.292 C20.5933331,12.1959995 20.5080006,12.1586666 20.38,12.18 C20.2626661,12.2013334 20.100001,12.2653328 19.892,12.372 C19.683999,12.4786672 19.4893342,12.5906661 19.308,12.708 C19.1799994,12.7933338 19.0413341,12.806667 18.892,12.748 C18.7426659,12.689333 18.6413336,12.6120005 18.588,12.516 C18.4919995,12.3346658 18.4253335,12.1293345 18.388,11.9 C18.3506665,11.6706655 18.3293334,11.4306679 18.324,11.18 C18.3186666,10.9293321 18.3266666,10.6813346 18.348,10.436 C18.3693334,10.1906654 18.3959998,9.96666768 18.428,9.764 C18.4600002,9.61466592 18.5559992,9.4866672 18.716,9.38 C18.8226672,9.31599968 18.9373327,9.27600008 19.06,9.26 C19.1826673,9.24399992 19.2919995,9.25199984 19.388,9.284 C19.7613352,9.42266736 20.1079984,9.49733328 20.428,9.508 C20.7480016,9.51866672 21.0733317,9.48666704 21.404,9.412 C21.478667,9.39066656 21.5399998,9.34800032 21.588,9.284 C21.6360002,9.21999968 21.6546667,9.14533376 21.644,9.06 C21.6333333,8.99599968 21.6013336,8.9373336 21.548,8.884 C21.4946664,8.8306664 21.4253338,8.79866672 21.34,8.788 C21.1266656,8.76666656 20.8973346,8.7826664 20.652,8.836 C20.4066654,8.8893336 20.188001,8.9426664 19.996,8.996 C19.8359992,9.0493336 19.6573343,9.04133368 19.46,8.972 C19.2626657,8.90266632 19.1320003,8.78266752 19.068,8.612 C19.0253331,8.48399936 18.9906668,8.32133432 18.964,8.124 C18.9373332,7.92666568 18.924,7.7213344 18.924,7.508 C18.924,7.2946656 18.9293333,7.09200096 18.94,6.9 C18.9506667,6.70799904 18.9666666,6.54800064 18.988,6.42 C19.0413336,6.14266528 19.163999,5.97466696 19.356,5.916 C19.548001,5.85733304 19.7453323,5.85999968 19.948,5.924 C20.4386691,6.0840008 21.0093301,6.1906664 21.66,6.244 C21.8946678,6.26533344 22.049333,6.24400032 22.124,6.18 C22.198667,6.11599968 22.2306667,6.02533392 22.22,5.908 C22.22,5.8546664 22.2120001,5.79333368 22.196,5.724 C22.1799999,5.65466632 22.1613334,5.58266704 22.14,5.508 C22.1079998,5.39066608 22.121333,5.28400048 22.18,5.188 C22.238667,5.09199952 22.3479992,5.03866672 22.508,5.028 C22.7533346,5.00666656 23.0413317,4.996 23.372,4.996 C23.7026683,4.996 24.038665,5.00399992 24.38,5.02 C24.721335,5.03600008 25.0493318,5.05999984 25.364,5.092 C25.6786682,5.12400016 25.931999,5.16133312 26.124,5.204 C26.2733341,5.23600016 26.348,5.3053328 26.348,5.412 C26.348,5.5186672 26.3160003,5.63066608 26.252,5.748 C26.2199998,5.8013336 26.1773336,5.8546664 26.124,5.908 C26.0706664,5.9613336 26.0226669,6.0146664 25.98,6.068 C25.9479998,6.11066688 25.9426666,6.16933296 25.964,6.244 C25.9853334,6.31866704 26.0226664,6.356 26.076,6.356 C26.342668,6.356 26.6919978,6.34000016 27.124,6.308 C27.5560022,6.27599984 28.0173309,6.23066696 28.508,6.172 C28.9986691,6.11333304 29.4946642,6.04933368 29.996,5.98 C30.4973358,5.91066632 30.9506646,5.83866704 31.356,5.764 C31.5693344,5.72133312 31.7613325,5.76399936 31.932,5.892 C32.1026675,6.02000064 32.2146664,6.1906656 32.268,6.404 C32.2893334,6.47866704 32.3079999,6.60133248 32.324,6.772 C32.3400001,6.94266752 32.348,7.13199896 32.348,7.34 C32.348,7.54800104 32.3373334,7.76133224 32.316,7.98 C32.2946666,8.19866776 32.2520003,8.39333248 32.188,8.564 C32.1026662,8.7773344 31.9693342,8.91866632 31.788,8.988 C31.6066658,9.05733368 31.4093344,9.07066688 31.196,9.028 C30.7266643,8.94266624 30.2280026,8.8733336 29.7,8.82 C29.1719974,8.7666664 28.6466693,8.72933344 28.124,8.708 C27.6013307,8.68666656 27.0946691,8.68133328 26.604,8.692 C26.1133309,8.70266672 25.6706686,8.72933312 25.276,8.772 C25.0733323,8.80400016 24.972,8.91066576 24.972,9.092 C24.972,9.17733376 24.9906665,9.2599996 25.028,9.34 C25.0653335,9.4200004 25.1159997,9.46533328 25.18,9.476 C25.5320018,9.5293336 26.0066637,9.56399992 26.604,9.58 C27.2013363,9.59600008 27.8279967,9.59600008 28.484,9.58 C29.1400033,9.56399992 29.7826635,9.53200024 30.412,9.484 C31.0413365,9.43599976 31.5639979,9.37466704 31.98,9.3 C32.0440003,9.28933328 32.1186662,9.29199992 32.204,9.308 C32.2893338,9.32400008 32.3746662,9.35066648 32.46,9.388 C32.5453338,9.42533352 32.6199997,9.47333304 32.684,9.532 C32.7480003,9.59066696 32.7853333,9.65199968 32.796,9.716 C32.8386669,10.0360016 32.8626666,10.3426652 32.868,10.636 C32.8733334,10.9293348 32.8653334,11.2146653 32.844,11.492 Z M37.132,6.276 C39.996,5.46 42.748,4.996 44.3,4.996 C45.804,4.996 46.396,5.188 47.42,5.908 C47.724,6.132 48.108,6.676 48.108,7.236 C48.108,7.652 47.964,7.892 47.852,8.084 C48.028,8.676 48.028,8.964 48.028,9.044 C48.028,9.556 47.644,9.828 47.292,9.892 C47.052,9.94 46.908,9.924 46.444,9.908 C46.572,10.084 46.636,10.212 46.636,10.372 C46.636,10.964 46.108,10.98 45.82,10.996 C44.076,11.06 44.044,11.06 42.796,11.316 C43.004,11.54 43.036,11.556 43.116,11.668 C43.548,11.604 45.26,11.476 45.66,11.476 C46.524,11.476 47.308,11.956 47.468,12.084 C47.932,12.436 48.172,12.66 48.172,13.396 C48.172,13.636 48.156,14.196 47.868,14.788 C47.74,15.044 47.468,15.14 47.308,15.188 C47.644,15.3 47.948,15.412 48.348,15.86 C48.924,16.484 48.924,16.884 48.924,17.188 C48.924,17.812 48.732,18.628 48.556,18.964 C48.252,19.508 47.484,19.892 46.764,19.892 C45.644,19.892 43.516,19.524 43.18,19.444 C42.94,19.396 42.268,19.14 41.98,19.028 C41.564,19.156 41.18,19.268 40.652,19.268 C40.316,19.268 40.156,19.236 39.436,19.076 C39.436,19.156 39.436,19.508 39.42,19.572 C39.356,19.892 38.844,19.892 38.78,19.892 C38.076,19.892 37.388,19.524 37.388,18.596 C37.388,18.532 37.484,17.092 37.532,16.868 C37.26,16.772 37.1,16.66 36.972,16.484 C36.94,16.772 36.908,16.884 36.764,17.892 C36.652,18.708 36.652,18.804 36.54,19.06 C36.364,19.444 36.236,19.732 35.676,19.732 C35.628,19.732 34.668,19.716 34.316,19.044 C34.156,18.74 33.964,18.388 33.964,17.94 C33.964,17.78 33.98,17.684 34.236,16.884 C34.252,16.852 34.396,16.068 34.428,15.94 C34.732,14.436 34.764,14.26 34.972,12.996 C35.132,11.956 35.436,10.292 35.596,9.252 C35.628,9.092 35.628,8.964 35.628,8.644 C35.276,8.196 35.036,7.78 35.036,7.172 C35.036,6.836 35.164,6.5 35.388,6.244 C35.532,6.084 35.74,5.988 36.14,5.988 C36.508,5.988 36.812,6.068 37.132,6.276 Z M45.324,16.532 C45.644,16.9 45.788,17.14 45.98,17.604 C46.092,17.428 46.188,17.252 46.188,16.804 C46.188,16.532 46.108,16.484 45.964,16.484 C45.9,16.484 45.436,16.532 45.324,16.532 Z M38.012,8.948 C39.068,8.692 41.1,8.196 43.164,7.876 C43.404,7.844 44.396,7.716 44.604,7.684 C44.86,7.412 44.988,7.076 44.988,7.044 C44.988,6.932 44.828,6.9 44.716,6.9 C44.604,6.9 42.924,7.076 39.868,7.828 C39.548,7.908 38.876,7.988 38.844,7.988 C38.684,8.02 37.98,8.052 37.852,8.052 C38.012,8.292 38.06,8.564 38.012,8.948 Z M39.308,18.02 C39.884,17.94 39.948,17.94 40.156,17.892 L40.156,17.492 C39.82,17.524 39.628,17.492 39.276,17.38 C39.276,17.508 39.292,17.844 39.308,18.02 Z M43.164,15.364 C43.372,15.316 44.588,15.156 45.644,15.076 C45.5,15.012 45.452,14.996 45.132,14.852 C45.068,14.836 44.94,14.756 44.86,14.724 C44.764,14.74 43.532,14.9 43.212,14.916 C43.18,15.076 43.164,15.124 43.164,15.364 Z M43.308,13.62 C43.564,13.572 44.748,13.316 45.004,13.284 C45.1,13.028 45.1,12.996 45.18,12.804 C44.764,12.852 44.604,12.884 44.172,12.996 C43.884,13.06 43.5,13.172 43.34,13.204 C43.308,13.364 43.308,13.412 43.308,13.62 Z M37.052,15.684 C37.18,15.62 37.356,15.524 37.596,15.524 C38.636,15.524 39.1,16.02 39.18,16.18 C39.34,16.132 40.092,15.94 40.252,15.892 C40.268,15.7 40.268,15.636 40.284,15.428 C40.14,15.46 40.076,15.476 39.676,15.492 C39.548,15.572 39.404,15.668 39.228,15.668 C38.652,15.668 37.964,15.124 37.66,14.324 C37.548,14.036 37.484,13.78 37.42,13.46 C37.324,13.796 37.1,15.364 37.052,15.684 Z M37.612,12.148 C37.996,11.604 38.172,11.348 39.884,10.804 C40.124,10.724 41.18,10.452 41.388,10.388 C41.356,10.34 41.244,10.1 41.228,10.052 C39.372,10.42 39.18,10.452 38.46,10.452 C38.172,10.452 38.108,10.436 37.932,10.404 C37.868,10.9 37.692,11.668 37.612,12.148 Z M40.028,11.972 C39.836,11.988 39.26,12.1 39.18,12.212 C39.084,12.324 39.068,12.708 39.068,12.74 C39.068,12.836 39.084,12.884 39.1,13.012 C39.164,12.996 39.948,12.756 40.492,12.484 C40.284,12.324 40.108,12.1 40.028,11.972 Z M40.38,14.308 L40.38,13.956 C39.82,13.972 39.58,13.86 39.372,13.732 C39.436,13.86 39.612,14.276 39.692,14.452 C39.9,14.388 39.948,14.372 40.38,14.308 Z M42.876,17.524 C43.084,17.46 43.42,17.332 43.644,17.268 C43.564,17.076 43.468,16.74 43.468,16.708 C43.116,16.756 43.068,16.772 42.908,16.788 C42.908,17.156 42.908,17.316 42.876,17.524 Z M44.012,18.212 C43.788,18.308 43.084,18.532 42.86,18.612 C43.308,18.772 44.508,18.852 44.588,18.852 C44.316,18.596 44.236,18.5 44.012,18.212 Z M52.38,9.508 L52.38,9.044 L52.444,7.012 C52.444,6.916 52.396,6.836 52.348,6.804 C51.996,6.58 51.756,6.436 51.756,6.052 C51.756,5.588 52.14,5.06 52.78,5.06 C53.676,5.06 54.7,6.132 54.748,7.092 C54.796,8.1 54.796,8.196 54.812,8.34 C55.388,8.516 55.564,8.564 55.804,8.884 C56.012,9.172 56.06,9.444 56.06,9.924 C56.06,10.148 55.884,10.5 55.5,10.836 C55.356,10.948 55.292,10.98 54.668,11.332 L54.732,11.828 L54.732,11.876 C54.828,11.812 55.228,11.476 55.308,11.396 C55.324,11.332 55.372,11.204 55.436,11.188 L57.244,10.484 C57.356,10.436 58.092,10.212 58.46,10.116 C58.46,9.956 58.46,9.844 58.428,9.492 C58.284,9.508 58.172,9.54 58.028,9.54 C56.668,9.54 55.98,8.692 55.98,8.196 C55.98,7.988 56.124,7.876 56.22,7.86 C56.652,7.828 56.684,7.78 57.228,7.54 L58.444,7.012 L58.588,6.948 C58.604,6.756 58.604,6.708 58.604,6.532 C58.54,6.452 58.188,6.212 58.14,6.148 C57.98,5.924 57.932,5.764 57.932,5.62 C57.932,5.092 58.556,4.852 59.116,4.852 C59.916,4.852 60.572,5.252 60.764,5.476 C61.196,5.988 61.244,6.036 61.324,6.116 C61.5,6.132 62.332,6.116 62.492,6.116 C63.244,6.116 64.492,6.82 64.492,7.732 C64.492,8.388 64.124,8.564 63.884,8.676 C63.836,8.708 63.164,8.772 63.148,8.772 C63.132,8.772 61.916,8.724 61.692,8.724 C61.692,8.836 61.66,9.364 61.66,9.46 C62.028,9.412 62.524,9.38 62.684,9.38 C63.996,9.38 64.924,10.052 64.908,10.932 C64.908,11.332 64.684,12.02 63.74,12.02 C63.612,12.02 62.892,11.956 62.828,11.94 C62.892,12.036 63.212,12.436 63.26,12.516 C63.724,12.644 64.108,12.756 64.508,13.076 C64.828,13.348 65.1,13.764 65.1,14.132 C65.1,14.58 64.748,15.044 64.428,15.076 C64.268,15.092 64.188,15.092 63.804,15.076 C63.804,15.156 63.836,15.316 63.836,15.38 C63.852,15.78 63.884,15.828 63.884,16.276 L63.9,17.604 C63.9,17.716 63.9,18.548 63.228,19.156 C62.716,19.62 62.492,19.684 62.092,19.764 C61.404,19.908 61.276,19.94 60.812,19.94 C59.548,19.94 59.34,19.876 58.204,19.54 C57.868,19.444 57.068,18.9 56.812,18.516 C56.444,17.972 56.108,17.076 56.108,16.068 L56.108,15.684 C56.092,15.668 55.82,15.348 55.804,15.316 C55.516,14.772 55.484,14.692 55.404,14.5 C55.356,14.532 54.94,14.932 54.716,15.22 C54.716,15.412 54.716,16.292 54.732,16.404 L54.892,17.732 C54.908,17.828 54.924,18.052 54.924,18.228 C54.924,18.596 54.828,19.172 54.636,19.492 C54.492,19.716 54.092,19.86 53.836,19.86 C53.804,19.86 52.364,19.812 52.332,18.292 L52.3,16.916 L52.3,16.836 C51.852,16.916 51.804,16.916 51.772,16.916 C51.212,16.916 50.204,16.356 50.204,15.108 C50.204,14.964 50.236,14.02 50.748,14.02 C50.796,14.02 51.052,14.068 51.052,14.068 C51.164,14.068 52.108,13.556 52.3,13.364 C52.3,13.236 52.268,12.628 52.268,12.5 C52.028,12.564 51.884,12.58 51.692,12.58 C51.516,12.58 50.988,12.58 50.572,12.116 C50.444,11.972 49.9,11.156 49.9,10.196 C49.9,9.572 50.236,8.388 50.252,8.324 C50.284,8.228 50.46,7.78 50.46,7.684 C50.46,7.62 50.22,7.364 50.188,7.3 C50.108,7.172 50.06,7.028 50.06,6.884 C50.06,6.484 50.396,6.228 50.764,6.228 C51.164,6.228 51.58,6.484 51.772,6.836 C51.852,6.98 51.9,7.14 51.932,7.588 L51.964,8.052 C51.964,8.084 51.948,8.132 51.916,8.468 C51.836,9.14 51.836,9.22 51.676,9.892 L51.676,10.084 C52.076,9.812 52.236,9.652 52.38,9.508 Z M55.724,14.036 C55.9,14.068 55.964,14.084 56.028,14.084 C56.188,14.084 56.524,13.988 56.7,13.924 C57.068,13.812 57.34,13.716 57.58,13.636 C57.548,13.556 57.34,13.236 57.308,13.156 C57.292,13.076 57.26,12.996 57.244,12.836 C57.068,12.852 56.86,12.852 56.572,12.788 C56.54,12.772 55.964,12.484 55.884,12.452 L55.884,13.348 C55.836,13.716 55.772,13.86 55.724,14.036 Z M61.068,15.204 C61.004,15.22 60.572,15.3 60.54,15.3 C60.156,15.396 60.124,15.412 60.06,15.428 C60.092,15.636 60.156,15.876 60.156,15.956 C60.156,16.644 59.724,17.108 59.084,17.108 C58.748,17.108 58.3,16.932 58.028,16.548 C57.964,16.452 57.948,16.404 57.772,15.892 C57.292,15.828 57.228,15.828 57.084,15.844 C57.052,15.924 57.084,16.212 57.228,16.468 C57.644,17.156 58.716,17.396 59.5,17.396 C59.516,17.396 60.62,17.348 60.956,16.996 C61.148,16.772 61.084,15.46 61.068,15.204 Z M60.46,12.116 L60.396,12.132 L60.124,12.18 L59.02,12.436 L58.876,12.484 C59.084,12.756 59.18,12.82 59.42,13.012 C59.564,12.964 59.612,12.948 60.044,12.836 C60.556,12.708 60.62,12.708 60.716,12.692 C60.668,12.596 60.492,12.18 60.46,12.116 Z M80.732,18.324 C80.6893331,18.6546683 80.5933341,18.9213323 80.444,19.124 C80.2946659,19.3266677 80.1133344,19.4759995 79.9,19.572 C79.5693317,19.7213341 79.137336,19.7373339 78.604,19.62 C78.145331,19.5133328 77.7720014,19.3480011 77.484,19.124 C77.0999981,18.8146651 76.8226675,18.3506698 76.652,17.732 C76.6306666,17.657333 76.5800004,17.6173334 76.5,17.612 C76.4199996,17.6066666 76.3693334,17.6359997 76.348,17.7 C76.1773325,18.1053354 75.9853344,18.470665 75.772,18.796 C75.5586656,19.121335 75.2280022,19.3746658 74.78,19.556 C74.438665,19.6946674 74.1213348,19.7373336 73.828,19.684 C73.5346652,19.6306664 73.2866677,19.508001 73.084,19.316 C72.9666661,19.2093328 72.8546672,19.0680009 72.748,18.892 C72.6413328,18.7159991 72.5426671,18.524001 72.452,18.316 C72.3613329,18.107999 72.286667,17.8946678 72.228,17.676 C72.169333,17.4573322 72.1293334,17.252001 72.108,17.06 C72.0866666,16.8893325 72.0866666,16.7426673 72.108,16.62 C72.1293334,16.4973327 72.2039994,16.3773339 72.332,16.26 C72.6200014,16.0039987 72.8386659,15.7346681 72.988,15.452 C73.1373341,15.1693319 73.2439997,14.7933357 73.308,14.324 C73.3293334,14.2066661 73.3853329,14.1346668 73.476,14.108 C73.5666671,14.0813332 73.6653328,14.0786666 73.772,14.1 C73.8680005,14.1213334 73.9506663,14.0866671 74.02,13.996 C74.0893337,13.9053329 74.1026669,13.8066672 74.06,13.7 C73.9106659,13.2839979 73.7746673,12.8706687 73.652,12.46 C73.5293327,12.0493313 73.4360003,11.6200022 73.372,11.172 C73.3506666,11.0013325 73.3320001,10.8360008 73.316,10.676 C73.2999999,10.5159992 73.3026666,10.3560008 73.324,10.196 C73.3666669,9.80133136 73.388,9.44933488 73.388,9.14 C73.388,8.83066512 73.3773334,8.52133488 73.356,8.212 C73.3346666,7.95599872 73.2840004,7.7346676 73.204,7.548 C73.1239996,7.3613324 73.0253339,7.2146672 72.908,7.108 C72.7906661,7.01199952 72.7000003,6.92133376 72.636,6.836 C72.5719997,6.75066624 72.5293334,6.64933392 72.508,6.532 C72.4653331,6.3186656 72.4706664,6.09466784 72.524,5.86 C72.5773336,5.62533216 72.641333,5.42266752 72.716,5.252 C72.7693336,5.1453328 72.8546661,5.06266696 72.972,5.004 C73.0893339,4.94533304 73.2066661,4.9426664 73.324,4.996 C73.6013347,5.11333392 73.9133316,5.20666632 74.26,5.276 C74.6066684,5.34533368 74.9346651,5.38533328 75.244,5.396 C75.4680011,5.40666672 75.7159986,5.41466664 75.988,5.42 C76.2600014,5.42533336 76.5399986,5.428 76.828,5.428 C77.1160014,5.428 77.4013319,5.42266672 77.684,5.412 C77.9666681,5.40133328 78.2253322,5.38533344 78.46,5.364 C78.7053346,5.34266656 78.9346656,5.31600016 79.148,5.284 C79.3613344,5.25199984 79.5319994,5.21466688 79.66,5.172 C79.8733344,5.10799968 80.0653325,5.12666616 80.236,5.228 C80.4066675,5.32933384 80.5026666,5.48133232 80.524,5.684 C80.5773336,6.29200304 80.574667,6.95066312 80.516,7.66 C80.457333,8.36933688 80.3640006,9.09199632 80.236,9.828 C80.1186661,10.4893366 79.9666676,11.1453301 79.78,11.796 C79.5933324,12.4466699 79.3880011,13.0493306 79.164,13.604 C79.1426666,13.6573336 79.132,13.750666 79.132,13.884 C79.132,14.017334 79.1586664,14.1106664 79.212,14.164 C79.2546669,14.2066669 79.3026664,14.2253334 79.356,14.22 C79.4093336,14.2146666 79.4466666,14.2013334 79.468,14.18 C79.5320003,14.0626661 79.6253327,13.9506672 79.748,13.844 C79.8706673,13.7373328 79.9746662,13.6520003 80.06,13.588 C80.1880006,13.4919995 80.3266659,13.4626665 80.476,13.5 C80.6253341,13.5373335 80.7106666,13.6199994 80.732,13.748 C80.7853336,14.014668 80.8226666,14.3399981 80.844,14.724 C80.8653334,15.1080019 80.8733334,15.5106646 80.868,15.932 C80.8626666,16.3533354 80.8493334,16.7746646 80.828,17.196 C80.8066666,17.6173354 80.7746669,17.9933317 80.732,18.324 Z M77.212,8.836 C77.212,8.76133296 77.1906669,8.70800016 77.148,8.676 C77.1053331,8.64399984 77.0573336,8.628 77.004,8.628 C76.9399997,8.628 76.841334,8.62533336 76.708,8.62 C76.574666,8.61466664 76.4493339,8.612 76.332,8.612 C76.2786664,8.612 76.2360002,8.63599976 76.204,8.684 C76.1719998,8.73200024 76.156,8.7826664 76.156,8.836 C76.1346666,9.3160024 76.1479998,9.8093308 76.196,10.316 C76.2440002,10.8226692 76.3426659,11.305331 76.492,11.764 C76.5133334,11.8066669 76.5506664,11.8306666 76.604,11.836 C76.6573336,11.8413334 76.6946666,11.8120003 76.716,11.748 C76.7693336,11.6199994 76.8226664,11.4333346 76.876,11.188 C76.9293336,10.9426654 76.9826664,10.6760014 77.036,10.388 C77.0893336,10.0999986 77.1319998,9.81733472 77.164,9.54 C77.1960002,9.26266528 77.212,9.02800096 77.212,8.836 Z M72.844,14.02 C72.8013331,14.3400016 72.7320005,14.6439986 72.636,14.932 C72.5399995,15.2200014 72.4120008,15.4439992 72.252,15.604 C72.1666662,15.6893338 72.057334,15.7293334 71.924,15.724 C71.790666,15.7186666 71.6920003,15.6573339 71.628,15.54 C71.5959998,15.4866664 71.5533336,15.4200004 71.5,15.34 C71.4466664,15.2599996 71.3986669,15.1933336 71.356,15.14 C71.3239998,15.0973331 71.2813336,15.0893332 71.228,15.116 C71.1746664,15.1426668 71.148,15.1826664 71.148,15.236 C71.1373333,15.5880018 71.1426666,15.9133318 71.164,16.212 C71.1853334,16.5106682 71.2199998,16.8013319 71.268,17.084 C71.3160002,17.3666681 71.3799996,17.6519986 71.46,17.94 C71.5400004,18.2280014 71.6333328,18.5373317 71.74,18.868 C71.7933336,19.0386675 71.7880003,19.1986659 71.724,19.348 C71.6599997,19.4973341 71.5373342,19.5986664 71.356,19.652 C71.1959992,19.7053336 70.9640015,19.7453332 70.66,19.772 C70.3559985,19.7986668 70.0306684,19.8146666 69.684,19.82 C69.3373316,19.8253334 69.0066682,19.8200001 68.692,19.804 C68.3773318,19.7879999 68.1346675,19.7533336 67.964,19.7 C67.7826658,19.6466664 67.6333339,19.5640006 67.516,19.452 C67.3986661,19.3399994 67.3293334,19.2200006 67.308,19.092 C67.2546664,18.8679989 67.3399989,18.6280013 67.564,18.372 C67.6600005,18.2546661 67.7639994,18.1240007 67.876,17.98 C67.9880006,17.8359993 68.0706664,17.6893341 68.124,17.54 C68.1880003,17.347999 68.2386665,17.1773341 68.276,17.028 C68.3133335,16.8786659 68.3453332,16.7346674 68.372,16.596 C68.3986668,16.4573326 68.4173333,16.3133341 68.428,16.164 C68.4386667,16.0146659 68.444,15.8386677 68.444,15.636 C68.444,15.5933331 68.4040004,15.5640001 68.324,15.548 C68.2439996,15.5319999 68.1933334,15.5506664 68.172,15.604 C68.097333,15.8493346 67.9986673,16.1106653 67.876,16.388 C67.7533327,16.6653347 67.6173341,16.899999 67.468,17.092 C67.3826662,17.1986672 67.2840006,17.2733331 67.172,17.316 C67.0599994,17.3586669 66.9560005,17.3693334 66.86,17.348 C66.7746662,17.3266666 66.6920004,17.2813337 66.612,17.212 C66.5319996,17.1426663 66.4813334,17.0333341 66.46,16.884 C66.3426661,16.2333301 66.2919999,15.5186706 66.308,14.74 C66.3240001,13.9613294 66.3746662,13.2253368 66.46,12.532 C66.4813334,12.3719992 66.5266663,12.2386672 66.596,12.132 C66.6653337,12.0253328 66.7479995,11.9400003 66.844,11.876 C67.0466677,11.7586661 67.2119994,11.8119989 67.34,12.036 C67.3720002,12.1000003 67.4279996,12.1266667 67.508,12.116 C67.5880004,12.1053333 67.6546664,12.0733336 67.708,12.02 C67.7720003,11.9666664 67.833333,11.8920005 67.892,11.796 C67.950667,11.6999995 68.009333,11.6013338 68.068,11.5 C68.126667,11.3986662 68.1773331,11.2973338 68.22,11.196 C68.2626669,11.0946662 68.2893333,11.0173336 68.3,10.964 C68.3320002,10.8679995 68.3160003,10.7986669 68.252,10.756 C68.1879997,10.7133331 68.1133338,10.6973333 68.028,10.708 C67.9319995,10.7293334 67.7933342,10.777333 67.612,10.852 C67.4306658,10.926667 67.2866672,11.0066662 67.18,11.092 C67.0413326,11.1986672 66.8813342,11.214667 66.7,11.14 C66.5613326,11.0759997 66.4653336,10.9693341 66.412,10.82 C66.3586664,10.6599992 66.3186668,10.4626678 66.292,10.228 C66.2653332,9.99333216 66.2546666,9.74800128 66.26,9.492 C66.2653334,9.23599872 66.2839998,8.98000128 66.316,8.724 C66.3480002,8.46799872 66.3906664,8.24400096 66.444,8.052 C66.5080003,7.80666544 66.6306658,7.65200032 66.812,7.588 C66.9826675,7.5346664 67.1479992,7.5613328 67.308,7.668 C67.3933338,7.7213336 67.4999994,7.77199976 67.628,7.82 C67.7560006,7.86800024 67.8733328,7.88666672 67.98,7.876 C68.1506675,7.85466656 68.2253334,7.75866752 68.204,7.588 C68.1826666,7.36399888 68.1026674,7.12933456 67.964,6.884 C67.8253326,6.63866544 67.6760008,6.38800128 67.516,6.132 C67.4626664,6.04666624 67.4333334,5.95333384 67.428,5.852 C67.4226666,5.75066616 67.4386665,5.65200048 67.476,5.556 C67.5133335,5.45999952 67.569333,5.37466704 67.644,5.3 C67.718667,5.22533296 67.8039995,5.17733344 67.9,5.156 C68.1986682,5.08133296 68.510665,5.02800016 68.836,4.996 C69.161335,4.96399984 69.4679986,4.95333328 69.756,4.964 C69.9906678,4.97466672 70.2679984,5.00133312 70.588,5.044 C70.9080016,5.08666688 71.1853322,5.15066624 71.42,5.236 C71.7186682,5.3426672 71.8839998,5.49733232 71.916,5.7 C71.9480002,5.88133424 71.8946674,6.06799904 71.756,6.26 C71.6279994,6.43066752 71.5000006,6.6226656 71.372,6.836 C71.2439994,7.0493344 71.1693334,7.27333216 71.148,7.508 C71.1373333,7.59333376 71.1586664,7.64666656 71.212,7.668 C71.2653336,7.68933344 71.3239997,7.69466672 71.388,7.684 C71.5693342,7.66266656 71.7613323,7.60400048 71.964,7.508 C72.2093346,7.39066608 72.4013326,7.398666 72.54,7.532 C72.6786674,7.665334 72.7586666,7.84399888 72.78,8.068 C72.8013334,8.26000096 72.8199999,8.47066552 72.836,8.7 C72.8520001,8.92933448 72.8573334,9.1639988 72.852,9.404 C72.8466666,9.6440012 72.8306668,9.87599888 72.804,10.1 C72.7773332,10.3240011 72.7373336,10.5266658 72.684,10.708 C72.6413331,10.8573341 72.5506674,10.9639997 72.412,11.028 C72.2839994,11.0920003 72.1453341,11.0920003 71.996,11.028 C71.8999995,10.9853331 71.785334,10.9293337 71.652,10.86 C71.518666,10.7906663 71.3933339,10.7400002 71.276,10.708 C71.1479994,10.6653331 71.046667,10.6946662 70.972,10.796 C70.897333,10.8973338 70.9026662,10.9959995 70.988,11.092 C71.2013344,11.3373346 71.4359987,11.5239994 71.692,11.652 C71.766667,11.6840002 71.8493329,11.6973334 71.94,11.692 C72.0306671,11.6866666 72.1293328,11.6413338 72.236,11.556 C72.310667,11.4919997 72.3826663,11.4759998 72.452,11.508 C72.5213337,11.5400002 72.585333,11.5906663 72.644,11.66 C72.702667,11.7293337 72.7479998,11.8066662 72.78,11.892 C72.8120002,11.9773338 72.8333333,12.0466664 72.844,12.1 C72.8866669,12.3240011 72.9106666,12.6093316 72.916,12.956 C72.9213334,13.3026684 72.8973336,13.6573315 72.844,14.02 Z" fill="url(#linearGradient-1)"></path>
                <path d="M2.27297077,9.02297077 L3.27297077,9.02297077 L3.27297077,15.0229708 L2.27297077,15.0229708 L2.27297077,9.02297077 Z M6.27297077,10.0229708 L7.27297077,10.0229708 L7.27297077,16.0229708 L6.27297077,16.0229708 L6.27297077,10.0229708 Z M4.27297077,7.52297077 L5.27297077,7.52297077 L5.27297077,13.5229708 L4.27297077,13.5229708 L4.27297077,7.52297077 Z" id="Combined-Shape" fill="url(#linearGradient-1)" transform="translate(4.772971, 11.772971) scale(-1, 1) rotate(-45.000000) translate(-4.772971, -11.772971) "></path>
                <path d="M90.7729708,8.52297077 L91.7729708,8.52297077 L91.7729708,14.5229708 L90.7729708,14.5229708 L90.7729708,8.52297077 Z M94.7729708,9.52297077 L95.7729708,9.52297077 L95.7729708,15.5229708 L94.7729708,15.5229708 L94.7729708,9.52297077 Z M92.7729708,7.02297077 L93.7729708,7.02297077 L93.7729708,13.0229708 L92.7729708,13.0229708 L92.7729708,7.02297077 Z" id="Combined-Shape" fill="url(#linearGradient-1)" transform="translate(93.272971, 11.272971) scale(-1, 1) rotate(-45.000000) translate(-93.272971, -11.272971) "></path>
            </g>
        </g>
    </g>
</svg>