<?xml version="1.0" encoding="UTF-8"?>
<svg width="64px" height="36px" viewBox="0 0 64 36" version="1.1" xmlns="http://www.w3.org/2000/svg" xmlns:xlink="http://www.w3.org/1999/xlink">
    <!-- Generator: Sketch 49.3 (51167) - http://www.bohemiancoding.com/sketch -->
    <title>即领即用</title>
    <desc>Created with Sketch.</desc>
    <defs>
        <linearGradient x1="0%" y1="67.5493084%" x2="100%" y2="42.6709785%" id="linearGradient-1">
            <stop stop-color="#3B8CE8" offset="0%"></stop>
            <stop stop-color="#4BB3FE" offset="100%"></stop>
        </linearGradient>
        <path d="M9.8142315,15.2616066 L7.58273245,15.2616066 L7.58273245,16.31537 L9.8142315,16.31537 L9.8142315,15.2616066 Z M7.58273245,18.7576218 L9.8142315,18.7576218 L9.8142315,17.629475 L7.58273245,17.629475 L7.58273245,18.7576218 Z M8.64889311,21.001518 L9.92580645,20.3816572 C10.5456673,21.398229 11.3018975,22.7495256 11.6366224,23.6173308 L10.2605313,24.3487666 C10.1613536,24.0388362 10.012587,23.6669197 9.82662872,23.2826059 C6.91328273,24.2 6.41739405,24.3983555 6.07027198,24.6339026 C5.98349146,24.2123972 5.73554712,23.4933586 5.5,23.1338393 C5.77273877,22.99747 6.07027198,22.7495256 6.07027198,22.2660342 L6.07027198,13.9475016 L11.2895003,13.9475016 L11.2895003,20.0717268 L7.58273245,20.0717268 L7.58273245,22.5139785 L9.2315623,22.0428843 C9.03320683,21.683365 8.83485136,21.3238457 8.64889311,21.001518 Z M16.4219481,14.0342821 L16.4219481,21.1626818 C16.4219481,21.8321316 16.3103732,22.2164453 15.8888678,22.4643896 C15.4921569,22.6999367 14.9218849,22.712334 14.128463,22.712334 C14.0788741,22.315623 13.9053131,21.7081594 13.7193548,21.3238457 C14.1656546,21.3486401 14.6243517,21.3486401 14.7607211,21.3362429 C14.9094877,21.3362429 14.9714738,21.286654 14.9714738,21.1254902 L14.9714738,15.3855787 L13.4714105,15.3855787 L13.4714105,24.9066414 L11.9837445,24.9066414 L11.9837445,14.0342821 L16.4219481,14.0342821 Z M23.5834282,14.7492726 L25.1330803,14.7492726 C25.2446553,14.4145478 25.3810247,14.030234 25.4802024,13.683112 L23.2982922,13.683112 L23.2982922,12.3938014 L28.9886148,12.3938014 L28.9886148,13.683112 L26.8314991,13.683112 C26.6827324,14.0550285 26.5339658,14.4145478 26.3975965,14.7492726 L28.7282732,14.7492726 L28.7282732,20.5015813 L27.3645794,20.5015813 L27.3645794,15.8030361 L24.885136,15.8030361 L24.885136,20.5511701 L23.5834282,20.5511701 L23.5834282,14.7492726 Z M23.5214421,15.3815307 L22.6164453,16.4104997 C22.2197343,15.7658444 21.401518,14.8360531 20.6452878,14.0550285 C20.0130297,15.1211891 19.2567995,16.0757748 18.3765971,16.8320051 C18.1658444,16.5592663 17.6947502,16.1005693 17.397217,15.8650221 C18.6617331,14.8732448 19.7526882,13.2244149 20.3229602,11.7615433 L21.5874763,12.1334598 C21.4882985,12.3938014 21.3767236,12.6541429 21.2527514,12.9144845 C22.0709677,13.7203036 23.0503479,14.7244782 23.5214421,15.3815307 Z M19.5543327,15.6542694 L20.484124,15.0963947 C20.942821,15.5179001 21.5006958,16.1005693 21.7734345,16.4724858 L20.831246,17.1419355 C20.5585073,16.7452245 20.0130297,16.1129665 19.5543327,15.6542694 Z M22.1081594,17.1667299 L23.0379507,17.7493991 C22.5668564,18.9519292 21.7486401,20.3280202 21.0667932,21.3569892 C21.4511069,21.741303 21.7734345,22.1132195 21.9965844,22.4231499 L20.942821,23.2909551 C20.4469323,22.5471221 19.3187856,21.3817837 18.4509804,20.5263757 L19.4303605,19.7949399 C19.6535104,20.0056926 19.9014548,20.2288425 20.1617963,20.4519924 C20.5337128,19.8693232 20.942821,19.1502846 21.2651486,18.4932321 L18.4137887,18.4932321 L18.4137887,17.2411132 L21.8726123,17.2411132 L22.1081594,17.1667299 Z M26.2364326,21.0718533 L26.8686907,20.5139785 C27.6249209,21.1090449 28.6290955,21.9520557 29.1249842,22.5099304 L28.1827957,23.3901328 C27.7488931,22.8570525 26.8314991,22.026439 26.1124605,21.3941809 C25.628969,22.373561 24.8107527,23.0058191 23.3850727,23.4645161 C23.2611006,23.1545857 22.9387729,22.6834915 22.6784314,22.4355471 C25.455408,21.6049336 25.5173941,20.2164453 25.5297913,16.2369386 L26.7323213,16.2369386 C26.7323213,18.3816572 26.6703352,19.9313093 26.2364326,21.0718533 Z M33.8111322,18.6533207 L35.0880455,18.0334598 C35.7079064,19.0500316 36.4641366,20.4013283 36.7988615,21.2691335 L35.4227704,22.0005693 C35.3235927,21.6906388 35.1748261,21.3187223 34.9888678,20.9344086 C32.0755218,21.8518027 31.5796331,22.0501581 31.2325111,22.2857052 C31.1457306,21.8641999 30.8977862,21.1451613 30.6622391,20.785642 C30.9349779,20.6492726 31.2325111,20.4013283 31.2325111,19.9178368 L31.2325111,11.5993042 L36.4517394,11.5993042 L36.4517394,17.7235294 L32.7449715,17.7235294 L32.7449715,20.1657812 L34.3938014,19.6946869 C34.1954459,19.3351676 33.9970904,18.9756483 33.8111322,18.6533207 Z M41.5841872,11.6860848 L41.5841872,18.8144845 C41.5841872,19.4839342 41.4726123,19.8682479 41.0511069,20.1161923 C40.654396,20.3517394 40.084124,20.3641366 39.2907021,20.3641366 C39.2411132,19.9674257 39.0675522,19.359962 38.8815939,18.9756483 C39.3278937,19.0004428 39.7865908,19.0004428 39.9229602,18.9880455 C40.0717268,18.9880455 40.1337128,18.9384567 40.1337128,18.7772929 L40.1337128,13.0373814 L38.6336496,13.0373814 L38.6336496,22.558444 L37.1459836,22.558444 L37.1459836,11.6860848 L41.5841872,11.6860848 Z M52.9948134,10.387413 L52.9948134,19.3877925 C52.9948134,20.1812144 52.8212524,20.5779254 52.3253637,20.8010753 C51.8170778,21.0490196 51.0608476,21.073814 49.945098,21.0614168 C49.8955092,20.6647059 49.659962,20.0324478 49.4740038,19.6481341 C50.1682479,19.6853257 50.9864643,19.6729285 51.2096142,19.6729285 C51.4451613,19.6729285 51.5319418,19.5985452 51.5319418,19.3753953 L51.5319418,17.5158128 L48.916129,17.5158128 L48.916129,20.9746363 L47.428463,20.9746363 L47.428463,17.5158128 L44.8994307,17.5158128 C44.6762808,18.8671094 44.229981,20.2308033 43.3373814,21.1977862 C43.1018343,20.9250474 42.5067679,20.4167615 42.172043,20.2432005 C43.5233397,18.7555345 43.6349146,16.5488299 43.6349146,14.8132195 L43.6349146,10.387413 L52.9948134,10.387413 Z M34.9764706,12.9134092 L32.7449715,12.9134092 L32.7449715,13.9671727 L34.9764706,13.9671727 L34.9764706,12.9134092 Z M32.7449715,16.4094244 L34.9764706,16.4094244 L34.9764706,15.2812777 L32.7449715,15.2812777 L32.7449715,16.4094244 Z M48.916129,16.1273245 L51.5319418,16.1273245 L51.5319418,14.6024668 L48.916129,14.6024668 L48.916129,16.1273245 Z M45.0605946,16.1273245 L47.428463,16.1273245 L47.428463,14.6024668 L45.0977862,14.6024668 L45.0977862,14.8256167 C45.0977862,15.2223276 45.085389,15.6686275 45.0605946,16.1273245 Z M47.428463,11.7882985 L45.0977862,11.7882985 L45.0977862,13.2263757 L47.428463,13.2263757 L47.428463,11.7882985 Z M51.5319418,13.2263757 L51.5319418,11.7882985 L48.916129,11.7882985 L48.916129,13.2263757 L51.5319418,13.2263757 Z" id="path-2"></path>
        <filter x="-6.3%" y="-13.8%" width="108.4%" height="127.5%" filterUnits="objectBoundingBox" id="filter-3">
            <feOffset dx="-1" dy="0" in="SourceAlpha" result="shadowOffsetOuter1"></feOffset>
            <feGaussianBlur stdDeviation="0.5" in="shadowOffsetOuter1" result="shadowBlurOuter1"></feGaussianBlur>
            <feColorMatrix values="0 0 0 0 0   0 0 0 0 0.305882353   0 0 0 0 0.650980392  0 0 0 0.5 0" type="matrix" in="shadowBlurOuter1"></feColorMatrix>
        </filter>
    </defs>
    <g id="高级会员广告" stroke="none" stroke-width="1" fill="none" fill-rule="evenodd">
        <g id="高级会员购买引导-1" transform="translate(-31.000000, -520.000000)">
            <g id="即领即用" transform="translate(31.000000, 520.000000)">
                <polygon id="Rectangle-5" fill="#004EA6" transform="translate(3.909122, 27.899637) scale(1, -1) translate(-3.909122, -27.899637) " points="0.5 22.7992732 7.31824477 20.5 7.31824477 23.7992732 0.5 35.2992732"></polygon>
                <path d="M0.5,9 C8.33116883,7 18.038961,6 29.6233766,6 C41.2077922,6 50.6666667,4.16666667 58,0.5 L58,13.5 L64,23 C52.6666667,27.3333333 41.2077922,29.5 29.6233766,29.5 C18.038961,29.5 8.33116883,30.6666667 0.5,33 L0.5,9 Z" id="Rectangle-5" fill="url(#linearGradient-1)"></path>
                <path d="M54.7173634,1.78743434 C55.8239204,1.38685792 56.9181326,0.95771314 58,0.5 L58,13.5 L64,23 C63.3116313,23.2982931 62.6163497,23.5863194 61.9141552,23.864079 L56,14.5 L56,1.5 C55.5743652,1.5982234 55.1468197,1.69403485 54.7173634,1.78743434 Z" id="Combined-Shape" fill="url(#linearGradient-1)"></path>
                <g>
                    <use fill="black" fill-opacity="1" filter="url(#filter-3)" xlink:href="#path-2"></use>
                    <use fill="#FFFFFF" fill-rule="evenodd" xlink:href="#path-2"></use>
                </g>
            </g>
        </g>
    </g>
</svg>