<?xml version="1.0" encoding="UTF-8"?>
<svg width="254px" height="206px" viewBox="0 0 254 206" version="1.1" xmlns="http://www.w3.org/2000/svg" xmlns:xlink="http://www.w3.org/1999/xlink">
    <!-- Generator: Sketch 47 (45396) - http://www.bohemiancoding.com/sketch -->
    <title>box-illus</title>
    <desc>Created with Sketch.</desc>
    <defs>
        <path d="M0.0528596747,0.206054688 L254,0.206054688 L254,200.5 L254,200.5 C254,203.261424 251.761424,205.5 249,205.5 L5.05285967,205.5 L5.05285967,205.5 C2.29143593,205.5 0.0528596747,203.261424 0.0528596747,200.5 L0.0528596747,0.206054688 Z" id="path-1"></path>
        <linearGradient x1="75.2881815%" y1="27.2416622%" x2="13.4388973%" y2="82.0146039%" id="linearGradient-3">
            <stop stop-color="#FE8000" offset="0%"></stop>
            <stop stop-color="#FF8501" offset="99.3124203%"></stop>
        </linearGradient>
        <linearGradient x1="50%" y1="100%" x2="13.5155081%" y2="20.2064426%" id="linearGradient-4">
            <stop stop-color="#FF9401" offset="0%"></stop>
            <stop stop-color="#FE9D00" offset="100%"></stop>
        </linearGradient>
        <linearGradient x1="50%" y1="66.3652144%" x2="50%" y2="3.75716022%" id="linearGradient-5">
            <stop stop-color="#FF6B01" offset="0%"></stop>
            <stop stop-color="#FF5701" offset="100%"></stop>
        </linearGradient>
        <linearGradient x1="212.687122%" y1="-33.858246%" x2="61.2114461%" y2="78.1155844%" id="linearGradient-6">
            <stop stop-color="#DCBCF6" offset="0%"></stop>
            <stop stop-color="#7D66E0" offset="100%"></stop>
        </linearGradient>
        <polygon id="path-7" points="19.8313341 42.25801 79.3256658 62.0893441 138.819997 42.25801 79.3256658 22.4266758"></polygon>
        <linearGradient x1="32.4249497%" y1="-18.1087687%" x2="74.2369721%" y2="142.969868%" id="linearGradient-8">
            <stop stop-color="#E2C2F8" offset="0%"></stop>
            <stop stop-color="#DCBCF6" offset="0%"></stop>
            <stop stop-color="#7D66E0" offset="100%"></stop>
        </linearGradient>
        <polygon id="path-9" points="19.8313341 42.25801 0 22.4266758 59.4943317 0.116219157 79.3256658 22.4266758"></polygon>
        <linearGradient x1="100%" y1="11.9299099%" x2="41.9965687%" y2="155.349735%" id="linearGradient-10">
            <stop stop-color="#DCBCF6" offset="0%"></stop>
            <stop stop-color="#7D66E0" offset="100%"></stop>
        </linearGradient>
        <polygon id="path-11" points="138.819997 42.25801 158.651332 22.4266758 99.1569999 0.116219157 79.3256658 22.4266758"></polygon>
        <linearGradient x1="270.697764%" y1="88.8032981%" x2="67.8122537%" y2="50%" id="linearGradient-12">
            <stop stop-color="#DCBCF6" offset="0%"></stop>
            <stop stop-color="#7D66E0" offset="100%"></stop>
        </linearGradient>
        <polygon id="path-13" points="19.8313341 42.25801 79.3256658 22.4266758 79.3256658 62.0893441"></polygon>
        <filter x="-3.0%" y="-11.3%" width="106.6%" height="122.6%" filterUnits="objectBoundingBox" id="filter-14">
            <feOffset dx="0" dy="0" in="SourceAlpha" result="shadowOffsetOuter1"></feOffset>
            <feGaussianBlur stdDeviation="1" in="shadowOffsetOuter1" result="shadowBlurOuter1"></feGaussianBlur>
            <feColorMatrix values="0 0 0 0 0   0 0 0 0 0   0 0 0 0 0  0 0 0 0.307348279 0" type="matrix" in="shadowBlurOuter1" result="shadowMatrixOuter1"></feColorMatrix>
            <feMerge>
                <feMergeNode in="shadowMatrixOuter1"></feMergeNode>
                <feMergeNode in="SourceGraphic"></feMergeNode>
            </feMerge>
        </filter>
        <linearGradient x1="2.32568101%" y1="49.3703494%" x2="92.8348214%" y2="24.8660714%" id="linearGradient-15">
            <stop stop-color="#6CA7FF" offset="0%"></stop>
            <stop stop-color="#3AB8FF" offset="100%"></stop>
        </linearGradient>
        <filter x="-2.7%" y="-10.4%" width="105.4%" height="121.3%" filterUnits="objectBoundingBox" id="filter-16">
            <feOffset dx="0" dy="0" in="SourceAlpha" result="shadowOffsetOuter1"></feOffset>
            <feGaussianBlur stdDeviation="1" in="shadowOffsetOuter1" result="shadowBlurOuter1"></feGaussianBlur>
            <feColorMatrix values="0 0 0 0 0   0 0 0 0 0   0 0 0 0 0  0 0 0 0.307348279 0" type="matrix" in="shadowBlurOuter1" result="shadowMatrixOuter1"></feColorMatrix>
            <feMerge>
                <feMergeNode in="shadowMatrixOuter1"></feMergeNode>
                <feMergeNode in="SourceGraphic"></feMergeNode>
            </feMerge>
        </filter>
        <linearGradient x1="0%" y1="50%" x2="92.8348214%" y2="24.8660714%" id="linearGradient-17">
            <stop stop-color="#FF726C" offset="0%"></stop>
            <stop stop-color="#FF3E3A" offset="100%"></stop>
        </linearGradient>
        <filter x="-3.1%" y="-9.5%" width="106.2%" height="119.0%" filterUnits="objectBoundingBox" id="filter-18">
            <feOffset dx="0" dy="0" in="SourceAlpha" result="shadowOffsetOuter1"></feOffset>
            <feGaussianBlur stdDeviation="1" in="shadowOffsetOuter1" result="shadowBlurOuter1"></feGaussianBlur>
            <feColorMatrix values="0 0 0 0 0   0 0 0 0 0   0 0 0 0 0  0 0 0 0.307348279 0" type="matrix" in="shadowBlurOuter1" result="shadowMatrixOuter1"></feColorMatrix>
            <feMerge>
                <feMergeNode in="shadowMatrixOuter1"></feMergeNode>
                <feMergeNode in="SourceGraphic"></feMergeNode>
            </feMerge>
        </filter>
        <linearGradient x1="13.7220982%" y1="77.6171875%" x2="87.2935268%" y2="77.6171863%" id="linearGradient-19">
            <stop stop-color="#D67400" offset="0%"></stop>
            <stop stop-color="#FFAF00" offset="39.9878641%"></stop>
            <stop stop-color="#FFB200" offset="56.2727549%"></stop>
            <stop stop-color="#D67400" offset="100%"></stop>
        </linearGradient>
        <ellipse id="path-20" cx="10.0409794" cy="9.45299408" rx="9.76206327" ry="8.70670508"></ellipse>
        <linearGradient x1="50%" y1="100%" x2="50%" y2="0%" id="linearGradient-21">
            <stop stop-color="#FFD958" offset="0%"></stop>
            <stop stop-color="#FFC100" offset="100%"></stop>
        </linearGradient>
        <linearGradient x1="50%" y1="0%" x2="50%" y2="100%" id="linearGradient-22">
            <stop stop-color="#FFECAC" offset="0%"></stop>
            <stop stop-color="#FFCD2C" offset="43.5068559%"></stop>
            <stop stop-color="#FFECAC" offset="100%"></stop>
        </linearGradient>
        <ellipse id="path-23" cx="10.0409794" cy="8.45794207" rx="9.48314717" ry="8.45794207"></ellipse>
        <linearGradient x1="50%" y1="100%" x2="50%" y2="1.09016263%" id="linearGradient-24">
            <stop stop-color="#FFF8DF" offset="0%"></stop>
            <stop stop-color="#FFECAC" offset="100%"></stop>
        </linearGradient>
        <ellipse id="path-25" cx="10.0409794" cy="7.83226543" rx="7.53073452" ry="6.71660106"></ellipse>
        <filter x="-6.6%" y="-7.4%" width="113.3%" height="114.9%" filterUnits="objectBoundingBox" id="filter-26">
            <feGaussianBlur stdDeviation="0.5" in="SourceAlpha" result="shadowBlurInner1"></feGaussianBlur>
            <feOffset dx="0" dy="1" in="shadowBlurInner1" result="shadowOffsetInner1"></feOffset>
            <feComposite in="shadowOffsetInner1" in2="SourceAlpha" operator="arithmetic" k2="-1" k3="1" result="shadowInnerInner1"></feComposite>
            <feColorMatrix values="0 0 0 0 0.866666667   0 0 0 0 0.494117647   0 0 0 0 0  0 0 0 1 0" type="matrix" in="shadowInnerInner1"></feColorMatrix>
        </filter>
        <path d="M8.88779851,2.80927259 C13.5496439,0.47834988 18.2114893,0.47834988 22.8733348,2.80927259 C27.5351802,5.1401953 31.6142949,9.80204072 35.110679,16.7948089 L29.8661029,18.5430009 C25.2042575,12.7156941 19.3769507,9.80204072 12.3841826,9.80204072 C5.39141444,9.80204072 4.22595308,7.47111801 8.88779851,2.80927259 Z" id="path-27"></path>
        <path d="M4.96482596,6.99276813 C2.81838708,9.32369084 1.32616403,11.9459789 0.488156825,14.8596323 L7.48092496,12.2373442 L10.103213,19.2301124 C10.1802427,16.5078496 11.8197076,13.6420438 15.0216079,10.6326952 C18.2235081,7.62334646 21.8640156,5.82730678 25.9431304,5.2445761 C21.8640156,1.74819203 17.9012411,0.403998499 14.0548069,1.2119955 C8.28515555,2.42399099 8.18448429,3.49638407 4.96482596,6.99276813 Z" id="path-28"></path>
        <path d="M4.88883484,2.39812546 C8.88156166,0.449888266 12.9562186,-0.0619689605 17.1128055,0.862553777 C23.347686,2.24933788 27.7181661,9.12924105 24.9930432,18.0531522 L18.8743711,20.1290569 C21.4167886,17.4079814 21.7796231,14.3938411 19.9628745,11.0866361 C17.2377516,6.12582855 12.8585338,6.77574179 7.51112289,9.50763779 C3.94618228,11.3289018 2.19799024,11.2027695 2.26654679,9.12924105 L4.88883484,2.39812546 Z" id="path-29"></path>
        <path d="M2.51945322,14.6113883 C-0.110880679,10.5342956 1.05458068,6.31913265 6.01583729,1.96589948 C6.01583729,6.18106242 7.18129865,9.49297616 9.51222136,11.9016407 C13.3484136,15.8657791 20.5711369,17.6924901 31.1803912,17.3817738 L21.9338267,23.3966017 C11.3218338,21.1527896 4.85037594,18.2243851 2.51945322,14.6113883 Z" id="path-30"></path>
        <path d="M3.75386394,1.85092811 C7.74659075,0.0525553182 11.8212477,-0.419928275 15.9778346,0.433477328 C22.2127151,1.71358573 26.5831952,8.06426558 23.8580723,16.3017221 L17.7394002,18.2179418 C20.7216101,15.3532821 21.3043408,12.39455 19.4875922,9.34174538 C16.7624694,4.76253843 11.7235629,5.89180473 6.37615199,8.41355488 C2.81121137,10.0947216 1.06301934,9.97829188 1.13157589,8.06426558 L3.75386394,1.85092811 Z" id="path-31"></path>
        <linearGradient x1="100%" y1="11.9299099%" x2="3.04688833%" y2="98.2272243%" id="linearGradient-32">
            <stop stop-color="#DCBCF6" offset="0%"></stop>
            <stop stop-color="#7D66E0" offset="99.0254305%"></stop>
        </linearGradient>
        <polygon id="path-33" points="100.094897 81.5844201 40.6005649 61.753086 40.6005649 12.25801 100.094897 32.0893441"></polygon>
        <linearGradient x1="225.778107%" y1="9.40461969%" x2="7.9795014%" y2="76.5773068%" id="linearGradient-34">
            <stop stop-color="#DCBCF6" offset="0%"></stop>
            <stop stop-color="#7D66E0" offset="100%"></stop>
        </linearGradient>
        <polygon id="path-35" points="99.5179735 81.5844201 159.012305 61.753086 159.012305 12.25801 99.5179735 32.0893441"></polygon>
        <polygon id="path-36" points="100.094897 64.9574971 40.6005649 45.1261629 40.6005649 30.1426254 100.094897 49.9739595"></polygon>
        <linearGradient x1="65.5052996%" y1="27.6039814%" x2="4.85519059%" y2="201.549198%" id="linearGradient-37">
            <stop stop-color="#DCBCF6" offset="0%"></stop>
            <stop stop-color="#7D66E0" offset="100%"></stop>
        </linearGradient>
        <polygon id="path-38" points="80.2635624 51.3440844 20.7692308 31.512421 40.6005649 11.6810869 100.094897 31.512421"></polygon>
        <polygon id="path-39" points="99.5179735 64.9574971 159.012305 45.1261629 159.012305 30.1426254 99.5179735 49.9739595"></polygon>
        <linearGradient x1="0%" y1="50%" x2="145.393094%" y2="132.716007%" id="linearGradient-40">
            <stop stop-color="#DCBCF6" offset="0%"></stop>
            <stop stop-color="#7D66E0" offset="100%"></stop>
        </linearGradient>
        <polygon id="path-41" points="119.926231 51.3440844 179.420562 31.512421 159.589228 11.6810869 100.094897 31.512421"></polygon>
        <linearGradient x1="0%" y1="100%" x2="65.7618788%" y2="69.362571%" id="linearGradient-42">
            <stop stop-color="#1BB787" offset="0%"></stop>
            <stop stop-color="#1BB787" offset="52.4174904%"></stop>
            <stop stop-color="#1BB787" offset="100%"></stop>
        </linearGradient>
        <linearGradient x1="86.4312066%" y1="0%" x2="50.1844214%" y2="99.4937819%" id="linearGradient-43">
            <stop stop-color="#38E5FF" offset="0%"></stop>
            <stop stop-color="#27CFE9" offset="100%"></stop>
        </linearGradient>
    </defs>
    <g id="Page-2" stroke="none" stroke-width="1" fill="none" fill-rule="evenodd">
        <g id="4.-领混合红包" transform="translate(-34.000000, -241.000000)">
            <g id="box-illus" transform="translate(34.000000, 241.500000)">
                <mask id="mask-2" fill="white">
                    <use xlink:href="#path-1"></use>
                </mask>
                <g id="Rectangle-5"></g>
                <circle id="bg" fill="url(#linearGradient-3)" opacity="0.194067029" mask="url(#mask-2)" cx="5.58564453" cy="110.517285" r="19.5856445"></circle>
                <circle id="bg" fill="url(#linearGradient-3)" opacity="0.544836957" mask="url(#mask-2)" cx="26.8353516" cy="78.3359375" r="9.3359375"></circle>
                <circle id="bg" fill="url(#linearGradient-3)" opacity="0.544836957" mask="url(#mask-2)" cx="206.239648" cy="78.5" r="17.5683594"></circle>
                <circle id="bg" fill="url(#linearGradient-4)" opacity="0.166213768" mask="url(#mask-2)" cx="264.13125" cy="18.5" r="48.9599609"></circle>
                <circle id="bg" fill="url(#linearGradient-5)" opacity="0.867244112" mask="url(#mask-2)" cx="71.1712891" cy="243.019531" r="112.519531"></circle>
                <polygon id="Combined-Shape" fill="#D50400" fill-rule="nonzero" opacity="0.408401268" mask="url(#mask-2)" points="268.601234 182.416912 309.627533 221.31538 257.174932 248.27894 256.382841 248.27894 147.05319 221.31538 71.0570843 136.500011 117.453192 116.554885 118.245283 116.554885 227.574934 143.518444"></polygon>
                <polygon id="Combined-Shape" fill="#D50400" fill-rule="nonzero" opacity="0.408401268" mask="url(#mask-2)" points="292.727437 182.394586 348.30086 225.692623 305.524838 254.115848 184.952672 222.783599 81 136.5 117.697029 114.950226 237.38326 140.573754"></polygon>
                <g id="box" mask="url(#mask-2)">
                    <g transform="translate(30.488203, 29.760000)">
                        <g id="behind" transform="translate(20.769231, 14.565299)">
                            <g id="Shape" fill-rule="nonzero">
                                <use fill="url(#linearGradient-6)" fill-rule="evenodd" xlink:href="#path-7"></use>
                                <path stroke="#775CDE" stroke-width="1" d="M21.4124808,42.25801 L79.3256658,61.5622981 L137.238851,42.25801 L79.3256658,22.9537218 L21.4124808,42.25801 Z"></path>
                            </g>
                            <g id="Group" transform="translate(0.000000, 0.576923)" fill-rule="nonzero">
                                <g id="Shape">
                                    <use fill="url(#linearGradient-8)" fill-rule="evenodd" xlink:href="#path-9"></use>
                                    <path stroke="#775CDE" stroke-width="1" d="M19.9663799,41.685949 L78.448197,22.1921178 L59.3485974,0.704870173 L0.902622552,22.6221916 L19.9663799,41.685949 Z"></path>
                                </g>
                                <g id="Shape">
                                    <use fill="url(#linearGradient-10)" fill-rule="evenodd" xlink:href="#path-11"></use>
                                    <path stroke="#775CDE" stroke-width="1" d="M138.684952,41.685949 L157.748709,22.6221916 L99.3027342,0.704870173 L80.2031346,22.1921178 L138.684952,41.685949 Z"></path>
                                </g>
                            </g>
                            <g id="Shape" fill-rule="nonzero">
                                <use fill="url(#linearGradient-12)" fill-rule="evenodd" xlink:href="#path-13"></use>
                                <path stroke="#775CDE" stroke-width="1" d="M21.4124808,42.25801 L78.8256658,61.3956324 L78.8256658,23.1203876 L21.4124808,42.25801 Z"></path>
                            </g>
                        </g>
                        <g id="Group-18" transform="translate(35.769231, 0.000000)">
                            <g id="coupon01-bg-copy" filter="url(#filter-14)" transform="translate(78.164261, 72.481406) rotate(114.000000) translate(-78.164261, -72.481406) translate(27.971953, 59.212175)">
                                <path d="M99.8960994,24.2140329 C99.8671825,24.2860311 99.8347007,24.3531344 99.7987534,24.42035 C99.6244463,24.7462759 99.3686577,25.0020645 99.0427318,25.1763716 C98.7168059,25.3506787 98.3935196,25.4435043 97.5020009,25.4435043 L3.00483305,25.4435043 C2.11331431,25.4435043 1.79002807,25.3506787 1.46410215,25.1763716 C1.13817622,25.0020645 0.882387649,24.7462759 0.708080556,24.42035 C0.696377107,24.3984665 0.685040989,24.3765948 0.674075634,24.3545623 C1.0974172,24.1179512 1.38364842,23.6653664 1.38364842,23.1459286 C1.38364842,22.5359323 0.988914417,22.018131 0.440947852,21.8340262 L0.440947852,20.3068859 C0.988914417,20.1227811 1.38364842,19.6049798 1.38364842,18.9949834 C1.38364842,18.384987 0.988914417,17.8671857 0.440947852,17.6830809 L0.440947852,16.1559406 C0.988914417,15.9718358 1.38364842,15.4540345 1.38364842,14.8440381 C1.38364842,14.2340418 0.988914417,13.7162405 0.440947852,13.5321357 L0.440947852,12.0049953 C0.988914417,11.8208905 1.38364842,11.3030892 1.38364842,10.6930929 C1.38364842,10.0830965 0.988914417,9.56529519 0.440947852,9.38119039 L0.440947852,7.85405009 C0.988914417,7.66994529 1.38364842,7.15214398 1.38364842,6.54214761 C1.38364842,5.93215124 0.988914417,5.41434993 0.440947852,5.23024513 L0.440947852,3.70310483 C0.988914417,3.51900003 1.38364842,3.00119873 1.38364842,2.39120235 C1.38364842,1.86907429 1.09444455,1.41449342 0.667486735,1.17890965 C0.680483607,1.15234736 0.694016867,1.12606774 0.708080556,1.09977092 C0.882387649,0.773844999 1.13817622,0.518056424 1.46410215,0.343749332 C1.79002807,0.169442239 2.11331431,0.076616628 3.00483305,0.076616628 L97.5020009,0.076616628 C98.3935196,0.076616628 98.7168059,0.169442239 99.0427318,0.343749332 C99.3686577,0.518056424 99.6244463,0.773844999 99.7987534,1.09977092 C99.8368272,1.17096278 99.8710134,1.24202869 99.9011938,1.31891806 C99.5904656,1.57264581 99.3920781,1.95875614 99.3920781,2.39120235 C99.3920781,2.89587499 99.6622683,3.33744133 100.065886,3.57913881 L100.065886,5.35421116 C99.6622683,5.59590863 99.3920781,6.03747498 99.3920781,6.54214761 C99.3920781,7.04682025 99.6622683,7.48838659 100.065886,7.73008407 L100.065886,9.50515642 C99.6622683,9.74685389 99.3920781,10.1884202 99.3920781,10.6930929 C99.3920781,11.1977655 99.6622683,11.6393318 100.065886,11.8810293 L100.065886,13.6561017 C99.6622683,13.8977992 99.3920781,14.3393655 99.3920781,14.8440381 C99.3920781,15.3487108 99.6622683,15.7902771 100.065886,16.0319746 L100.065886,17.8070469 C99.6622683,18.0487444 99.3920781,18.4903107 99.3920781,18.9949834 C99.3920781,19.499656 99.6622683,19.9412224 100.065886,20.1829198 L100.065886,21.9579922 C99.6622683,22.1996897 99.3920781,22.641256 99.3920781,23.1459286 C99.3920781,23.5760068 99.5882988,23.9602552 99.8960994,24.2140329 Z" id="Combined-Shape" fill="#FFFFFF" transform="translate(50.253417, 12.760060) scale(-1, 1) translate(-50.253417, -12.760060) "></path>
                                <g id="Group-7" transform="translate(5.534594, 4.612161)">
                                    <circle id="Oval-2" fill="url(#linearGradient-15)" cx="8.30189052" cy="8.30189052" r="8.07128245"></circle>
                                    <path d="M10.6227878,7.8126555 C9.62755459,7.8126555 8.82075867,7.35431736 8.82075867,6.78892862 C8.82075867,6.22353988 9.62755459,5.76520175 10.6227878,5.76520175 C11.618021,5.76520175 12.4248169,6.22353988 12.4248169,6.78892862 C12.4248169,7.35431736 11.618021,7.8126555 10.6227878,7.8126555 Z M10.6497689,8.40157085 C11.9391563,8.40157085 12.4528358,7.8941178 12.4528358,7.58072143 L12.4528358,8.88878805 C12.4528358,9.45435435 11.6459958,9.91199606 10.6497689,9.91199606 C9.6545798,9.91199606 8.84773982,9.45435435 8.84773982,8.88878805 L8.84773982,7.5485516 C8.84773982,7.8614291 9.36090043,8.40157085 10.6497689,8.40157085 Z M10.6497689,10.4723737 C11.8032128,10.4723737 12.4528358,9.93690173 12.4528358,9.62402423 L12.4528358,10.9678928 C12.4528358,11.5334591 11.6459958,11.9916196 10.6497689,11.9916196 C9.6545798,11.9916196 8.84773982,11.5334591 8.84773982,10.9678928 L8.84773982,9.64010915 C8.84773982,9.95298664 9.49684388,10.4723737 10.6497689,10.4723737 Z M6.19372919,5.73718287 C5.06553078,5.73718287 4.15094526,5.27884473 4.15094526,4.71345599 C4.15094526,4.14806725 5.06553078,3.68972912 6.19372919,3.68972912 C7.32192761,3.68972912 8.23651313,4.14806725 8.23651313,4.71345599 C8.23651313,5.27884473 7.32192761,5.73718287 6.19372919,5.73718287 Z M6.25858771,6.32609823 C7.71920158,6.32609823 8.30189052,5.81864517 8.30189052,5.5052488 L8.30189052,6.81331543 C8.30189052,7.37888172 7.38764482,7.83652343 6.25858771,7.83652343 C5.13056834,7.83652343 4.21580378,7.37888172 4.21580378,6.81331543 L4.21580378,5.47307898 C4.21580378,5.78595647 4.79797385,6.32609823 6.25858771,6.32609823 Z M6.25858771,8.39690104 C7.56509773,8.39690104 8.30189052,7.8614291 8.30189052,7.5485516 L8.30189052,8.89242013 C8.30189052,9.45798642 7.38764482,9.91614701 6.25858771,9.91614701 C5.13056834,9.91614701 4.21580378,9.45798642 4.21580378,8.89242013 L4.21580378,7.56463652 C4.21580378,7.87751402 4.95155882,8.39690104 6.25858771,8.39690104 Z M6.25858771,10.4723737 C7.56509773,10.4723737 8.30189052,9.93690173 8.30189052,9.62402423 L8.30189052,10.9678928 C8.30189052,11.5334591 7.38764482,11.9916196 6.25858771,11.9916196 C5.13056834,11.9916196 4.21580378,11.5334591 4.21580378,10.9678928 L4.21580378,9.64010915 C4.21580378,9.95298664 4.95155882,10.4723737 6.25858771,10.4723737 Z" id="Combined-Shape" fill="#FFFFFF" fill-rule="nonzero"></path>
                                </g>
                                <path d="M32.2500774,12.7563707 L32.2500774,10.5572922 L30.1543112,10.5572922 L30.1543112,12.7563707 L32.2500774,12.7563707 Z M32.7887778,10.0333507 L32.7887778,13.2803123 L29.6303697,13.2803123 L29.6303697,10.0333507 L32.7887778,10.0333507 Z M29.3573297,13.5902495 L29.0252541,14.0551554 C28.8850444,13.7968744 28.523451,13.2507944 28.2430315,12.8523037 L28.2430315,16.2616134 L27.71909,16.2616134 L27.71909,13.0072723 C27.4017733,13.7673565 27.0032826,14.5053023 26.6121713,14.9628288 C26.5531356,14.8078601 26.4203054,14.5790969 26.3243724,14.4462667 C26.8040372,13.9223251 27.3279787,12.9777545 27.6305365,12.1291168 L26.4203054,12.1291168 L26.4203054,11.6125547 L27.71909,11.6125547 L27.71909,10.4244619 C27.3058403,10.4982565 26.8852112,10.5646716 26.4940999,10.6089484 C26.4719616,10.4834976 26.4055464,10.2990112 26.3465108,10.1809398 C27.268943,10.0481096 28.3684823,9.83410528 28.9883568,9.57582424 L29.313053,10.0185917 C29.0104952,10.1366631 28.6415223,10.232596 28.2430315,10.3137701 L28.2430315,11.6125547 L29.4016065,11.6125547 L29.4016065,12.1291168 L28.2430315,12.1291168 L28.2430315,12.2693265 C28.4791742,12.5276075 29.1949816,13.3762452 29.3573297,13.5902495 Z M30.1543112,13.9961197 L30.6930117,14.1215705 C30.456869,14.9480698 30.0362399,15.7302924 29.5565751,16.2468545 C29.4606421,16.1656804 29.2244995,16.0033324 29.0990487,15.9295378 C29.571334,15.4646319 29.9476864,14.7488245 30.1543112,13.9961197 Z M31.6523412,14.1658473 C32.0360731,14.8078601 32.4419433,15.6564978 32.5969119,16.1804394 L33.113474,15.9664351 C32.9511259,15.4424935 32.5231173,14.6086148 32.132006,13.9813608 L31.6523412,14.1658473 Z M34.5672273,12.2840854 L39.1129735,12.2840854 C39.1129735,12.2840854 39.1055941,12.4759513 39.0982146,12.5497459 C38.9949022,14.7857218 38.8989692,15.62698 38.6480677,15.9073994 C38.4857196,16.0918859 38.330751,16.1509215 38.0724699,16.1656804 C37.8289478,16.1878188 37.3714214,16.1804394 36.913895,16.1509215 C36.9065155,15.9885735 36.8401004,15.7598102 36.736788,15.6048416 C37.2164528,15.6491184 37.6592203,15.6564978 37.8363273,15.6564978 C37.9912959,15.6564978 38.0724699,15.6343595 38.153644,15.5605649 C38.3381304,15.3760784 38.4414428,14.6528915 38.5299963,12.8227859 L36.5301631,12.8227859 C36.3309178,14.2765391 35.8438735,15.5974622 33.9916295,16.2763723 C33.9178349,16.1361626 33.7628663,15.9147789 33.644795,15.8114665 C35.3789677,15.2284893 35.7848379,14.0625349 35.9545654,12.8227859 L34.5377094,12.8227859 L34.5377094,12.3136032 C34.353223,12.5128486 34.1539776,12.6899556 33.9621117,12.8523037 C33.8587993,12.7416118 33.6300361,12.534987 33.4898264,12.4316746 C34.3679819,11.7970412 35.1133072,10.7786759 35.5413157,9.65699828 L36.1242929,9.81934637 C35.7479406,10.7565376 35.1871017,11.6199342 34.5672273,12.2840854 Z M37.6001846,9.8488642 L38.0946083,9.64223937 C38.5521347,10.6384662 39.4376697,11.745385 40.2051333,12.3209827 C40.0575442,12.4316746 39.8656783,12.6382994 39.7623659,12.7858886 C38.9949022,12.1143579 38.1167467,10.9336446 37.6001846,9.8488642 Z" id="积分" fill="#000000"></path>
                            </g>
                            <g id="coupon01-bg" filter="url(#filter-16)" transform="translate(66.668429, 57.727109) rotate(70.000000) translate(-66.668429, -57.727109) translate(10.706890, 43.304033)">
                                <path d="M111.404435,26.9269498 C111.367676,27.0361248 111.32366,27.1312373 111.272673,27.2265756 C111.098365,27.5525015 110.842577,27.8082901 110.516651,27.9825971 C110.190725,28.1569042 109.867439,28.2497298 108.97592,28.2497298 L3.05539374,28.2497298 C2.163875,28.2497298 1.84058876,28.1569042 1.51466284,27.9825971 C1.18873691,27.8082901 0.932948337,27.5525015 0.758641244,27.2265756 C0.732074901,27.1769008 0.707401304,27.1272874 0.684660616,27.0757142 C1.19293313,26.8244851 1.54230259,26.3022568 1.54230259,25.698749 C1.54230259,25.0214747 1.10230695,24.4465638 0.49150854,24.2421536 L0.49150854,22.5465813 C1.10230695,22.3421712 1.54230259,21.7672603 1.54230259,21.089986 C1.54230259,20.4127116 1.10230695,19.8378008 0.49150854,19.6333906 L0.49150854,17.9378183 C1.10230695,17.7334081 1.54230259,17.1584973 1.54230259,16.4812229 C1.54230259,15.8039486 1.10230695,15.2290377 0.49150854,15.0246276 L0.49150854,13.3290553 C1.10230695,13.1246451 1.54230259,12.5497342 1.54230259,11.8724599 C1.54230259,11.1951856 1.10230695,10.6202747 0.49150854,10.4158645 L0.49150854,8.72029224 C1.10230695,8.51588208 1.54230259,7.94097121 1.54230259,7.26369687 C1.54230259,6.58642252 1.10230695,6.01151166 0.49150854,5.8071015 L0.49150854,4.11152921 C1.10230695,3.90711904 1.54230259,3.33220818 1.54230259,2.65493384 C1.54230259,2.04874822 1.18982592,1.5245651 0.677885583,1.27464056 C0.702477586,1.21744745 0.729413967,1.16287141 0.758641244,1.10822116 C0.932948337,0.782295231 1.18873691,0.526506657 1.51466284,0.352199565 C1.84058876,0.177892472 2.163875,0.0850668609 3.05539374,0.0850668609 L108.97592,0.0850668609 C109.867439,0.0850668609 110.190725,0.177892472 110.516651,0.352199565 C110.842577,0.526506657 111.098365,0.782295231 111.272673,1.10822116 C111.326003,1.20793959 111.371705,1.30741093 111.409456,1.42298483 C111.032687,1.70308164 110.788736,2.15063055 110.788736,2.65493384 C110.788736,3.21526804 111.089907,3.7055358 111.539805,3.97389067 L111.539805,5.94474003 C111.089907,6.21309491 110.788736,6.70336267 110.788736,7.26369687 C110.788736,7.82403107 111.089907,8.31429883 111.539805,8.58265371 L111.539805,10.5535031 C111.089907,10.8218579 110.788736,11.3121257 110.788736,11.8724599 C110.788736,12.4327941 111.089907,12.9230619 111.539805,13.1914167 L111.539805,15.1622661 C111.089907,15.430621 110.788736,15.9208887 110.788736,16.4812229 C110.788736,17.0415571 111.089907,17.5318249 111.539805,17.8001798 L111.539805,19.7710291 C111.089907,20.039384 110.788736,20.5296518 110.788736,21.089986 C110.788736,21.6503202 111.089907,22.1405879 111.539805,22.4089428 L111.539805,24.3797922 C111.089907,24.648147 110.788736,25.1384148 110.788736,25.698749 C110.788736,26.2008088 111.030521,26.646618 111.404435,26.9269498 Z" id="Combined-Shape" fill="#FFFFFF" transform="translate(56.015657, 14.167398) scale(-1, 1) translate(-56.015657, -14.167398) "></path>
                                <g id="Group-7" transform="translate(6.169210, 5.120848)">
                                    <ellipse id="Oval-2" fill="url(#linearGradient-17)" cx="9.25381554" cy="9.21752607" rx="8.99676511" ry="8.96148368"></ellipse>
                                    <path d="M14.72417,7.91230997 L14.72417,5.9729889 C14.72417,5.36348799 14.2235242,4.86480542 13.6116236,4.86480542 L12.0818723,4.86480542 C12.0818723,5.08644212 11.8871767,5.28037423 11.6646674,5.28037423 C11.4421582,5.28037423 11.2474625,5.08644212 11.2474625,4.86480542 L4.71125244,4.86480542 C4.09935192,4.86480542 3.59870604,5.36348799 3.59870604,5.9729889 L3.59870604,7.91230997 C4.21060656,7.91230997 4.71125244,8.41099254 4.71125244,9.02049345 C4.71125244,9.62999436 4.21060656,10.1286769 3.59870604,10.1286769 L3.59870604,12.067998 C3.59870604,12.6774989 4.09935192,13.1761815 4.71125244,13.1761815 L11.2474625,13.1761815 C11.2474625,12.9545448 11.4421582,12.7606127 11.6646674,12.7606127 C11.8871767,12.7606127 12.0818723,12.9545448 12.0818723,13.1761815 L13.6116236,13.1761815 C14.2235242,13.1761815 14.72417,12.6774989 14.72417,12.067998 L14.72417,10.1286769 C14.1122695,10.1286769 13.6116236,9.62999436 13.6116236,9.02049345 C13.6116236,8.41099254 14.1122695,7.91230997 14.72417,7.91230997 Z M11.6646674,12.2065209 C11.4421582,12.2065209 11.2474625,12.0125888 11.2474625,11.7909521 C11.2474625,11.5693154 11.4421582,11.3753833 11.6646674,11.3753833 C11.8871767,11.3753833 12.0818723,11.5693154 12.0818723,11.7909521 C12.0818723,12.0125888 11.8871767,12.2065209 11.6646674,12.2065209 Z M11.6646674,10.8212916 C11.4421582,10.8212916 11.2474625,10.6273595 11.2474625,10.4057228 C11.2474625,10.1840861 11.4421582,9.99015399 11.6646674,9.99015399 C11.8871767,9.99015399 12.0818723,10.1840861 12.0818723,10.4057228 C12.0818723,10.6273595 11.8871767,10.8212916 11.6646674,10.8212916 Z M11.6646674,9.43606225 C11.4421582,9.43606225 11.2474625,9.24213014 11.2474625,9.02049345 C11.2474625,8.79885675 11.4421582,8.60492464 11.6646674,8.60492464 C11.8871767,8.60492464 12.0818723,8.79885675 12.0818723,9.02049345 C12.0818723,9.24213014 11.8871767,9.43606225 11.6646674,9.43606225 Z M11.6646674,8.05083291 C11.4421582,8.05083291 11.2474625,7.8569008 11.2474625,7.63526411 C11.2474625,7.41362741 11.4421582,7.2196953 11.6646674,7.2196953 C11.8871767,7.2196953 12.0818723,7.41362741 12.0818723,7.63526411 C12.0818723,7.8569008 11.8871767,8.05083291 11.6646674,8.05083291 Z M11.6646674,6.66560357 C11.4421582,6.66560357 11.2474625,6.47167146 11.2474625,6.25003477 C11.2474625,6.02839807 11.4421582,5.83446596 11.6646674,5.83446596 C11.8871767,5.83446596 12.0818723,6.02839807 12.0818723,6.25003477 C12.0818723,6.47167146 11.8871767,6.66560357 11.6646674,6.66560357 Z M8.32702824,7.08117237 L8.96674242,8.35558336 L10.3852391,8.54951547 L9.35613366,9.5468806 L9.57864294,10.9598145 L8.32702824,10.2949044 L7.07541354,10.9598145 L7.29792282,9.5468806 L6.2688174,8.54951547 L7.68731406,8.35558336 L8.32702824,7.08117237 Z" id="Combined-Shape" fill="#FFFFFF" fill-rule="nonzero"></path>
                                </g>
                                <path d="M36.3060126,11.9756755 L35.855378,12.3116031 C35.6341574,11.9756755 35.1589427,11.4513007 34.7574683,11.0744063 L35.1835228,10.7712521 C35.5768039,11.1317598 36.0684053,11.6479412 36.3060126,11.9756755 Z M31.2916785,10.5828049 L31.8652134,10.7548654 C31.6276061,11.3939472 31.3326452,12.0248356 31.004911,12.6229507 L31.004911,18.0387593 L30.4231827,18.0387593 L30.4231827,13.5569933 C30.201962,13.8765342 29.9643547,14.171495 29.7349407,14.4254891 C29.6693939,14.286202 29.48914,13.9748545 29.3826264,13.8273741 C30.1446086,13.0326185 30.8574306,11.8200017 31.2916785,10.5828049 Z M36.8058074,13.0735853 L33.8480057,13.0735853 C33.7005253,15.0809576 33.2498907,16.9244628 31.7668931,18.0059859 C31.6685729,17.8585055 31.4719323,17.6700583 31.3162585,17.5635446 C32.7091291,16.5885352 33.118797,14.9088971 33.2498907,13.0735853 L31.4473522,13.0735853 L31.4473522,12.4918569 L33.2908575,12.4918569 C33.3154375,11.8855486 33.3236309,11.2710468 33.3236309,10.6647384 L33.9217459,10.6647384 C33.9217459,11.2710468 33.9135525,11.8855486 33.8807791,12.4918569 L36.8058074,12.4918569 L36.8058074,13.0735853 Z M35.142556,17.2603904 L35.970085,17.2603904 C36.2076924,17.2603904 36.2568525,17.0719432 36.2814326,15.9986135 C36.4125263,16.1051272 36.658327,16.2116408 36.8221941,16.2608009 C36.7648406,17.4816111 36.6091668,17.8175387 36.0192452,17.8175387 L35.0688158,17.8175387 C34.429734,17.8175387 34.2576735,17.6208981 34.2576735,16.9572362 L34.2576735,13.7126671 L34.8557885,13.7126671 L34.8557885,16.9572362 C34.8557885,17.2030369 34.8967553,17.2603904 35.142556,17.2603904 Z M41.2711867,14.3763289 L41.2711867,15.0072174 C41.7873682,15.0072174 42.311743,14.999024 42.8361178,14.9908307 C42.6067038,14.859737 42.3772898,14.7532233 42.1560692,14.6549031 L42.5329636,14.3763289 L41.2711867,14.3763289 Z M38.6984728,13.9666611 L40.656685,13.9666611 L40.656685,13.4258996 L38.6984728,13.4258996 L38.6984728,13.9666611 Z M38.6984728,12.5000503 L38.6984728,13.0326185 L40.656685,13.0326185 L40.656685,12.5000503 L38.6984728,12.5000503 Z M43.2867524,12.5000503 L41.2711867,12.5000503 L41.2711867,13.0326185 L43.2867524,13.0326185 L43.2867524,12.5000503 Z M43.2867524,13.9666611 L43.2867524,13.4258996 L41.2711867,13.4258996 L41.2711867,13.9666611 L43.2867524,13.9666611 Z M37.5841763,15.5643656 L37.5514028,15.0236041 C38.3789318,15.0317975 39.4686483,15.0236041 40.656685,15.0154108 L40.656685,14.3763289 L38.1167444,14.3763289 L38.1167444,12.0903825 L40.656685,12.0903825 L40.656685,11.5660077 L37.5595962,11.5660077 L37.5595962,11.0662129 L40.656685,11.0662129 L40.656685,10.5746115 L41.2711867,10.5746115 L41.2711867,11.0662129 L44.4584024,11.0662129 L44.4584024,11.5660077 L41.2711867,11.5660077 L41.2711867,12.0903825 L43.8848674,12.0903825 L43.8848674,14.3763289 L42.5985104,14.3763289 C43.3113325,14.6630964 44.1142814,15.1792779 44.5239492,15.5643656 L44.106088,15.91668 C43.9749943,15.7691996 43.7783538,15.6217191 43.5653265,15.457852 C41.3777003,15.5070121 39.0753672,15.5479789 37.5841763,15.5643656 Z M42.0167821,16.4902149 L41.598921,16.858916 C41.3203468,16.5721485 40.7386185,16.1788674 40.2470171,15.9248733 L40.6321049,15.5971391 C41.1155129,15.826553 41.7136279,16.2034474 42.0167821,16.4902149 Z M37.8873305,17.7929586 C38.2150647,17.3669041 38.4690588,16.7114355 38.6493126,16.1952541 L38.1331312,15.9904202 C37.969264,16.4738282 37.6906899,17.1211034 37.3629556,17.5061911 L37.8873305,17.7929586 Z M40.2879839,17.4160642 L42.0659423,17.4160642 C42.4592234,17.4160642 42.5329636,17.3177439 42.5739304,16.5967286 C42.7132174,16.6868555 42.9508248,16.7769824 43.1146919,16.8097558 C43.0327583,17.7192184 42.8443111,17.9322457 42.1069091,17.9322457 L40.2552105,17.9322457 C39.3293612,17.9322457 39.0835605,17.7765719 39.0835605,17.1784569 L39.0835605,16.0231936 L39.6816755,16.0231936 L39.6816755,17.1702635 C39.6816755,17.3832908 39.7718025,17.4160642 40.2879839,17.4160642 Z M43.0737251,16.1788674 L43.5899066,15.9986135 C43.9913811,16.4656349 44.4092422,17.0965233 44.564916,17.5307712 L44.0159611,17.7274118 C43.8602873,17.3095506 43.4588129,16.6622754 43.0737251,16.1788674 Z M46.8918293,14.9088971 L50.6853533,14.9088971 C50.3084589,14.6221296 49.9807247,14.286202 49.7267306,13.9256943 L47.8914188,13.9256943 C47.6046513,14.2780087 47.276917,14.6057429 46.8918293,14.9088971 Z M52.4551183,13.9256943 L50.4149726,13.9256943 C50.9721208,14.5401961 51.8242299,15.0399908 52.7254991,15.2775982 C52.586212,15.3923052 52.4223449,15.6299125 52.332218,15.7855863 C51.8815834,15.6462992 51.4473355,15.4250786 51.045861,15.1710845 L51.045861,15.1792779 C50.9393474,16.8343359 50.8246404,17.4816111 50.5952264,17.7192184 C50.447746,17.8830855 50.2920722,17.9322457 50.0544649,17.9568257 C49.8250509,17.9732125 49.3989964,17.9732125 48.9565551,17.940439 C48.9483617,17.7683785 48.8746215,17.5307712 48.7763013,17.3669041 C49.2105492,17.4160642 49.6284103,17.4160642 49.7840841,17.4160642 C49.9315645,17.4160642 50.0134981,17.3996775 50.0872383,17.3341306 C50.2347187,17.1866502 50.333039,16.6868555 50.4231659,15.4660454 L48.4403736,15.4660454 C48.219153,16.6868555 47.6620048,17.5635446 45.9332066,18.0387593 C45.8676597,17.8830855 45.7119859,17.6454782 45.5808922,17.5225778 C47.1294366,17.1456834 47.6128446,16.4410548 47.8176785,15.4660454 L46.5477083,15.4660454 L46.5477083,15.1710845 C46.2117807,15.3923052 45.8594663,15.5971391 45.4661852,15.7773929 C45.4088317,15.6299125 45.2203845,15.3923052 45.0810975,15.2775982 C45.9004331,14.9252838 46.564095,14.4500692 47.0802765,13.9256943 L45.3187048,13.9256943 L45.3187048,13.3767395 L47.5554911,13.3767395 C47.7685184,13.1063587 47.9405789,12.8277846 48.0962527,12.5410171 L45.8184996,12.5410171 L45.8184996,12.0002556 L47.1785967,12.0002556 C47.047503,11.7216814 46.7689289,11.2956269 46.5149349,10.9924727 L46.9983429,10.746672 C47.2687237,11.0580196 47.5718779,11.4840741 47.7111649,11.7708416 L47.2687237,12.0002556 L48.3420534,12.0002556 C48.5386939,11.5168475 48.6615943,11.0170528 48.7271411,10.5418381 L49.3662229,10.607385 C49.2842894,11.0744063 49.161389,11.5414276 48.9975219,12.0002556 L49.9725313,12.0002556 C50.2429121,11.6561346 50.5788397,11.1317598 50.7590935,10.7712521 L51.3162418,10.9596993 C51.0950212,11.320207 50.8328337,11.6971014 50.5788397,12.0002556 L51.8979701,12.0002556 L51.8979701,12.5410171 L48.7681079,12.5410171 C48.6288208,12.8277846 48.4813404,13.1063587 48.2928932,13.3767395 L52.4551183,13.3767395 L52.4551183,13.9256943 Z" id="优惠券" fill="#000000"></path>
                            </g>
                            <g id="coupon01-bg-copy" filter="url(#filter-18)" transform="translate(45.559044, 66.680624) rotate(45.000000) translate(-45.559044, -66.680624) translate(-2.590956, 50.930624)">
                                <path d="M95.4641574,29.361036 C95.4225628,29.5096545 95.3692584,29.629788 95.3048174,29.7502823 C95.1305103,30.0762083 94.8747217,30.3319968 94.5487958,30.5063039 C94.2228698,30.680611 93.8995836,30.7734366 93.0080649,30.7734366 L3.09720328,30.7734366 C2.20568454,30.7734366 1.8823983,30.680611 1.55647237,30.5063039 C1.23054645,30.3319968 0.974757873,30.0762083 0.800450781,29.7502823 C0.760262475,29.6751367 0.724405569,29.6001315 0.693019097,29.5182698 C1.27142133,29.2547759 1.67349656,28.671624 1.67349656,27.9945624 C1.67349656,27.2567833 1.19607326,26.6305124 0.533318077,26.4078412 L0.533318077,24.5607939 C1.19607326,24.3381226 1.67349656,23.7118517 1.67349656,22.9740727 C1.67349656,22.2362936 1.19607326,21.6100227 0.533318077,21.3873515 L0.533318077,19.5403042 C1.19607326,19.3176329 1.67349656,18.6913621 1.67349656,17.953583 C1.67349656,17.2158039 1.19607326,16.5895331 0.533318077,16.3668618 L0.533318077,14.5198145 C1.19607326,14.2971433 1.67349656,13.6708724 1.67349656,12.9330933 C1.67349656,12.1953143 1.19607326,11.5690434 0.533318077,11.3463721 L0.533318077,9.49932485 C1.19607326,9.27665358 1.67349656,8.6503827 1.67349656,7.91260364 C1.67349656,7.17482458 1.19607326,6.54855371 0.533318077,6.32588244 L0.533318077,4.47883517 C1.19607326,4.2561639 1.67349656,3.62989302 1.67349656,2.89211396 C1.67349656,2.21246908 1.26834729,1.62745188 0.686390839,1.36540446 C0.719327557,1.2766388 0.75740449,1.19631022 0.800450781,1.11582066 C0.974757873,0.789894731 1.23054645,0.534106157 1.55647237,0.359799064 C1.8823983,0.185491972 2.20568454,0.0926663606 3.09720328,0.0926663606 L93.0080649,0.0926663606 C93.8995836,0.0926663606 94.2228698,0.185491972 94.5487958,0.359799064 C94.8747217,0.534106157 95.1305103,0.789894731 95.3048174,1.11582066 C95.3717305,1.24093728 95.4266361,1.3656649 95.4688925,1.52229793 C95.0383379,1.82510021 94.7569921,2.32575118 94.7569921,2.89211396 C94.7569921,3.50250596 95.083782,4.03657209 95.5719501,4.32890061 L95.5719501,6.475817 C95.083782,6.76814552 94.7569921,7.30221165 94.7569921,7.91260364 C94.7569921,8.52299564 95.083782,9.05706177 95.5719501,9.34939029 L95.5719501,11.4963067 C95.083782,11.7886352 94.7569921,12.3227013 94.7569921,12.9330933 C94.7569921,13.5434853 95.083782,14.0775514 95.5719501,14.36988 L95.5719501,16.5167964 C95.083782,16.8091249 94.7569921,17.343191 94.7569921,17.953583 C94.7569921,18.563975 95.083782,19.0980411 95.5719501,19.3903696 L95.5719501,21.537286 C95.083782,21.8296146 94.7569921,22.3636807 94.7569921,22.9740727 C94.7569921,23.5844647 95.083782,24.1185308 95.5719501,24.4108593 L95.5719501,26.5577757 C95.083782,26.8501042 94.7569921,27.3841704 94.7569921,27.9945624 C94.7569921,28.5588463 95.0362762,29.0578999 95.4641574,29.361036 Z" id="Combined-Shape" fill="#FFFFFF" transform="translate(48.052634, 15.433051) scale(-1, 1) translate(-48.052634, -15.433051) "></path>
                                <g id="Group-17" transform="translate(6.693986, 5.857238)">
                                    <g id="Group-14" transform="translate(0.278916, 0.278916)">
                                        <g id="Oval-2">
                                            <use fill="url(#linearGradient-19)" fill-rule="evenodd" xlink:href="#path-20"></use>
                                            <ellipse stroke="#D27000" stroke-width="1" cx="10.0409794" cy="9.45299408" rx="9.26206327" ry="8.20670508"></ellipse>
                                        </g>
                                        <g id="Oval-2">
                                            <use fill="url(#linearGradient-21)" fill-rule="evenodd" xlink:href="#path-23"></use>
                                            <ellipse stroke="url(#linearGradient-22)" stroke-width="1" cx="10.0409794" cy="8.45794207" rx="8.98314717" ry="7.95794207"></ellipse>
                                        </g>
                                        <g id="Oval-2">
                                            <use fill="url(#linearGradient-24)" fill-rule="evenodd" xlink:href="#path-25"></use>
                                            <use fill="black" fill-opacity="1" filter="url(#filter-26)" xlink:href="#path-25"></use>
                                        </g>
                                    </g>
                                    <polygon id="￥" fill="#D27000" points="10.3263604 6.36823814 11.1928141 4.20117366 12.8710706 3.62590921 12.8710706 4.20117366 11.9480716 6.56058114 13.8732131 6.56058114 13.8732131 7.86851355 11.3409454 7.86851355 11.4013808 8.95258597 14.3594621 8.95258597 14.3594621 10.2605184 11.474296 10.2605184 11.6244357 12.9536805 9.03334886 12.9536805 9.18141766 10.2605184 6.54700286 10.2605184 6.55785077 8.95258597 9.25332717 8.95258597 9.31292897 7.86851355 6.69398624 7.86851355 6.69398624 6.56058114 8.71787477 6.56058114 7.79124724 4.20117366 7.80965061 3.62590921 9.46950374 4.20117366"></polygon>
                                    <polygon id="￥" fill="url(#linearGradient-21)" points="10.3263604 5.81040595 11.1928141 3.64334147 12.8710706 3.64334147 11.9480716 6.00274895 13.8732131 6.00274895 13.8732131 7.31068136 11.3409454 7.31068136 11.4013808 8.39475378 14.3594621 8.39475378 14.3594621 9.70268619 11.474296 9.70268619 11.6244357 12.3958483 9.03334886 12.3958483 9.18141766 9.70268619 6.54700286 9.70268619 6.55785077 8.39475378 9.25332717 8.39475378 9.31292897 7.31068136 6.70841567 7.31068136 6.70841567 6.00274895 8.71787477 6.00274895 7.79124724 3.64334147 9.46950374 3.64334147"></polygon>
                                </g>
                                <path d="M39.5324514,12.2333261 L39.407497,12.2511767 L37.113691,12.2511767 C37.2564961,12.0637451 37.3814505,11.8763135 37.479629,11.6799565 L36.8370063,11.4746743 C36.5335456,12.1440729 35.7927444,12.8670234 35.016242,13.2865132 C35.1411964,13.4025423 35.3197027,13.6346005 35.4089559,13.7684802 C35.837371,13.5274967 36.2568608,13.1972601 36.631724,12.8313222 L39.0861857,12.8313222 C38.7827249,13.4917955 38.3096833,13.9826878 37.7206125,14.3664764 C37.4350024,14.0183891 36.9798113,13.5899739 36.5960228,13.2865132 L36.1140558,13.5721233 C36.488919,13.8934347 36.9173341,14.3129245 37.1850936,14.6520864 C36.5246203,14.9555471 35.7481179,15.1608294 34.8912876,15.2857838 C35.016242,15.4107382 35.185823,15.6784977 35.2483002,15.8391533 C37.4439277,15.4464395 39.2111401,14.5717586 39.9251653,12.429683 L39.5324514,12.2333261 Z M33.5614157,13.3400651 L33.0258968,13.6346005 C32.8920171,13.2597373 32.5350045,12.6617412 32.2047678,12.2333261 L32.7135108,11.9744919 C33.0526727,12.3850564 33.4186106,12.9652019 33.5614157,13.3400651 Z M34.0255321,15.857004 L34.0255321,14.384327 C33.40076,14.723489 32.7670626,15.0626509 32.2493944,15.3304104 L31.9637843,14.7591902 C32.4903779,14.5182067 33.257955,14.1433435 34.0255321,13.7595549 L34.0255321,11.5014502 L34.6681547,11.5014502 L34.6681547,15.857004 L34.0255321,15.857004 Z M39.8537627,17.1243987 L36.5156949,17.1243987 C37.0869151,18.2311377 38.2918326,18.8202085 40.0679703,19.0165655 C39.9162399,19.1504452 39.7377336,19.42713 39.6663311,19.5967109 C37.8455669,19.3289515 36.631724,18.6595529 35.9712507,17.3743075 C35.4892837,18.4988972 34.4985738,19.2753996 32.2493944,19.6681135 C32.1958425,19.5074578 32.0530374,19.2396983 31.9370084,19.1058186 C34.0612333,18.7666566 34.9359142,18.097258 35.3464787,17.1243987 L32.0798134,17.1243987 L32.0798134,16.5264026 L35.5428356,16.5264026 C35.5963875,16.312195 35.6320888,16.0890621 35.66779,15.8480786 L36.3550393,15.8480786 C36.319338,16.0890621 36.2836367,16.3032697 36.2300849,16.5264026 L39.8537627,16.5264026 L39.8537627,17.1243987 Z M43.1561293,15.2500825 L44.7269847,15.2500825 C44.7269847,15.2500825 44.7180594,15.4464395 44.7180594,15.5267673 C44.6109556,18.0437061 44.5217025,18.9094617 44.2985696,19.1950718 C44.1646899,19.3735781 44.0129595,19.4360553 43.7898267,19.4449806 C43.602395,19.4717565 43.2721584,19.4717565 42.9329964,19.4539059 C42.9240711,19.2753996 42.8705192,19.0522667 42.7901914,18.8916111 C43.1115027,18.9273123 43.4060381,18.9362376 43.5309925,18.9362376 C43.6559469,18.9362376 43.7273494,18.918387 43.7898267,18.8202085 C43.941557,18.6417022 44.0397355,17.8830505 44.1200633,15.8213027 L43.1293533,15.8213027 C43.0043989,17.44571 42.7098635,18.8202085 41.8530333,19.71274 C41.7637802,19.569935 41.5584979,19.3646527 41.3978422,19.2753996 C42.4242535,18.2132871 42.5492079,16.3211203 42.5849091,14.1790447 L41.6299004,14.1790447 L41.6299004,15.2500825 C41.6299004,16.5621038 41.5406473,18.4185694 40.9337259,19.6234869 C40.8176968,19.5163831 40.541012,19.3557274 40.3892816,19.3111009 C40.9694271,18.1418846 41.0140537,16.4907013 41.0140537,15.2590079 L41.0140537,12.0101932 L45.1643252,12.0101932 L45.1643252,12.6260399 L41.6299004,12.6260399 L41.6299004,13.5810486 L44.8787151,13.5810486 L44.8787151,14.1790447 L43.1918305,14.1790447 C43.1829052,14.5449827 43.1739799,14.9019953 43.1561293,15.2500825 Z M46.7084047,13.7149284 L48.3863639,13.7149284 C48.3863639,13.7149284 48.3774386,13.9559119 48.3774386,14.0362397 C48.2881854,17.7313201 48.1989323,18.9451629 47.9311728,19.3200262 C47.7705171,19.5342337 47.6009362,19.6145616 47.3510273,19.6413375 C47.1189691,19.6681135 46.71733,19.6591881 46.3156908,19.6413375 C46.3067655,19.4539059 46.2442883,19.2039971 46.1371845,19.0254908 C46.547749,19.061192 46.9226122,19.061192 47.0832679,19.061192 C47.2260729,19.0701174 47.2974754,19.0433414 47.3867286,18.9273123 C47.5830855,18.6774035 47.6723387,17.5349632 47.7615918,14.3307751 L46.6816287,14.3307751 C46.5745249,16.5531785 46.2264376,18.4631959 45.0393708,19.6770388 C44.932267,19.5342337 44.7091341,19.3289515 44.5484784,19.2396983 C45.6552175,18.1508099 45.9765288,16.3925229 46.0747073,14.3307751 L45.101848,14.3307751 L45.101848,13.7149284 L46.1014832,13.7149284 C46.1193339,13.0544551 46.1193339,12.3493552 46.1193339,11.6531806 L46.7351806,11.6531806 C46.7351806,12.3493552 46.7262553,13.0544551 46.7084047,13.7149284 Z M51.0371824,14.1611941 L55.2945577,14.1611941 C54.4912793,13.6881524 53.7058516,13.0901563 53.1257061,12.4832349 C52.5366353,13.1258576 51.8226101,13.6970777 51.0371824,14.1611941 Z M55.4016615,14.7770408 L53.4380922,14.7770408 L53.4380922,15.9908837 L56.5530271,15.9908837 L56.5530271,16.5978051 L53.4380922,16.5978051 L53.4380922,18.775582 L56.9546663,18.775582 L56.9546663,19.3914287 L49.2878207,19.3914287 L49.2878207,18.775582 L52.7508429,18.775582 L52.7508429,16.5978051 L49.6894599,16.5978051 L49.6894599,15.9908837 L52.7508429,15.9908837 L52.7508429,14.7770408 L50.8229749,14.7770408 L50.8229749,14.2861485 C50.3677838,14.5360573 49.8858168,14.7591902 49.4038498,14.9376965 C49.3056713,14.7502649 49.127165,14.4825054 48.957584,14.3307751 C50.6176926,13.7863309 52.2599506,12.742069 53.1078555,11.4211224 L53.7147769,11.7067325 C53.6522997,11.804911 53.5719719,11.92094 53.491644,12.0280438 C54.3752502,12.9741272 55.9461057,13.90236 57.3027535,14.3307751 C57.1420979,14.4646548 56.9368156,14.7324143 56.8386372,14.9109206 C56.3745208,14.7324143 55.8836285,14.5003561 55.4016615,14.2236713 L55.4016615,14.7770408 Z M54.7501135,18.6506275 L54.2502958,18.43642 C54.5626818,17.9990796 54.964321,17.2939797 55.1785286,16.794162 L55.8033006,17.0351455 C55.4819893,17.5974404 55.0714248,18.2311377 54.7501135,18.6506275 Z M50.4391863,17.0172949 L50.9836305,16.794162 C51.3317178,17.2939797 51.6976557,17.9633783 51.8404608,18.3917934 L51.2603153,18.6327769 C51.1353609,18.2222124 50.7783483,17.5171125 50.4391863,17.0172949 Z" id="奖励金" fill="#000000"></path>
                            </g>
                        </g>
                        <g id="cover" transform="translate(0.000000, 44.565299)">
                            <g id="Group-13" transform="translate(33.812950, 36.944966) rotate(-75.000000) translate(-33.812950, -36.944966) translate(3.236026, 10.983428)">
                                <g id="Group-16" transform="translate(20.815775, 16.261603) rotate(22.000000) translate(-20.815775, -16.261603) translate(2.931159, 6.453911)">
                                    <g id="Path-5">
                                        <use fill="#E6BA3C" fill-rule="evenodd" xlink:href="#path-27"></use>
                                        <path stroke="#775CDE" stroke-width="1" d="M9.18391448,3.22042436 C4.91929326,7.50908568 5.84484038,9.30204072 12.3841826,9.30204072 C19.4221076,9.30204072 25.3180185,12.1959879 30.0367431,17.9590745 L34.4028697,16.503699 C31.0102475,9.88635545 27.0884953,5.47586983 22.649728,3.25648619 C18.1528167,1.00803057 13.6805621,0.996009958 9.18391448,3.22042436 Z"></path>
                                    </g>
                                    <g id="Path-4">
                                        <use fill="#FFD55C" fill-rule="evenodd" xlink:href="#path-28"></use>
                                        <path stroke="#775CDE" stroke-width="1" d="M1.27541681,14.0304096 L7.77352783,11.5936179 L9.90167648,17.268681 C10.5273865,15.0001838 12.125711,12.6682677 14.6791793,10.2683565 C17.66703,7.46018514 21.0369481,5.68043386 24.7803878,4.93591082 C21.111024,2.04938424 17.5769592,0.983031062 14.1575955,1.70131596 C13.8456161,1.76685155 13.5518566,1.83166418 13.2745176,1.89616907 C10.4758768,2.54709081 9.2281692,3.16592774 7.95955645,4.42613488 C7.51291609,4.86981587 5.67247155,6.9624213 5.33263497,7.33146643 C3.47898734,9.34443284 2.12752424,11.5763176 1.27541681,14.0304096 Z"></path>
                                    </g>
                                </g>
                                <g id="Group-15" transform="translate(23.720740, 31.384695) scale(1, -1) rotate(-49.000000) translate(-23.720740, -31.384695) translate(7.566894, 19.269310)">
                                    <g id="Path-3">
                                        <use fill="#E6BA3C" fill-rule="evenodd" xlink:href="#path-29"></use>
                                        <path stroke="#775CDE" stroke-width="1" d="M5.28330612,2.76296095 L2.76489414,9.22743845 C2.76477127,10.6493409 4.06200179,10.7082603 7.28364825,9.06237912 C13.6283224,5.82099929 17.7662507,6.04941676 20.4011063,10.845902 C22.0248013,13.8016727 21.9959984,16.5810784 20.3219228,19.1099476 L24.5877747,17.6626561 C26.9236265,9.64352159 23.3664928,2.7657397 17.0042467,1.35062649 C13.0201456,0.464468673 9.11904134,0.933722706 5.28330612,2.76296095 Z"></path>
                                    </g>
                                    <g id="Path-2">
                                        <use fill="#FFD55C" fill-rule="evenodd" xlink:href="#path-30"></use>
                                        <path stroke="#775CDE" stroke-width="1" d="M21.8349428,22.8644475 L29.4455935,17.9137706 C19.6566524,17.9836526 12.8899846,16.1110557 9.15291708,12.2493481 C6.93637582,9.95887991 5.73528099,6.89406491 5.54325098,3.07643874 C1.43806213,7.00804681 0.605804374,10.7228726 2.93960383,14.3403284 C5.16102103,17.7835885 11.4659145,20.6523355 21.8349428,22.8644475 Z"></path>
                                    </g>
                                </g>
                                <g id="Group-15" transform="translate(45.511544, 30.220976) scale(-1, 1) rotate(-28.000000) translate(-45.511544, -30.220976) translate(32.819236, 20.990207)">
                                    <g id="Path-3">
                                        <use fill="#FFD55C" fill-rule="evenodd" xlink:href="#path-31"></use>
                                        <path stroke="#775CDE" stroke-width="1" d="M4.13770602,2.22734565 L1.63006192,8.1690419 C1.64182275,9.42340414 2.95753372,9.47290952 6.16288509,7.96131907 C12.8810542,4.79314213 17.3331704,4.74382005 19.9172632,9.08604471 C21.5650314,11.8549002 21.3600572,14.5851832 19.3423056,17.1920043 L23.4616846,15.9019147 C25.7756534,8.54023818 22.2343637,2.22846017 15.8772752,0.923260756 C11.8864191,0.103882016 7.97799002,0.537522701 4.13770602,2.22734565 Z"></path>
                                    </g>
                                </g>
                            </g>
                            <g id="Shape" fill-rule="nonzero">
                                <use fill="url(#linearGradient-32)" fill-rule="evenodd" xlink:href="#path-33"></use>
                                <path stroke="#775CDE" stroke-width="1" d="M99.5948966,80.8907084 L99.5948966,32.4497244 L41.1005649,12.9517217 L41.1005649,61.3927058 L99.5948966,80.8907084 Z"></path>
                            </g>
                            <g id="Shape" fill-rule="nonzero">
                                <use fill="url(#linearGradient-34)" fill-rule="evenodd" xlink:href="#path-35"></use>
                                <path stroke="#775CDE" stroke-width="1" d="M100.017973,80.8907084 L158.512305,61.3927058 L158.512305,12.9517217 L100.017973,32.4497244 L100.017973,80.8907084 Z"></path>
                            </g>
                            <g id="Shape" fill-rule="nonzero">
                                <use fill="#FFD55C" fill-rule="evenodd" xlink:href="#path-36"></use>
                                <path stroke="#775CDE" stroke-width="1" d="M99.5948966,64.2637853 L99.5948966,50.3343397 L41.1005649,30.8363371 L41.1005649,44.7657827 L99.5948966,64.2637853 Z"></path>
                            </g>
                            <g id="Shape" fill-rule="nonzero">
                                <use fill="url(#linearGradient-37)" fill-rule="evenodd" xlink:href="#path-38"></use>
                                <path stroke="#775CDE" stroke-width="1" d="M80.1285151,50.7720213 L99.1692878,31.7309325 L40.7356107,12.2531479 L21.6948434,31.2939152 L80.1285151,50.7720213 Z"></path>
                            </g>
                            <g id="Shape" fill-rule="nonzero">
                                <use fill="#D1A012" fill-rule="evenodd" xlink:href="#path-39"></use>
                                <path stroke="#775CDE" stroke-width="1" d="M100.017973,64.2637853 L158.512305,44.7657827 L158.512305,30.8363371 L100.017973,50.3343397 L100.017973,64.2637853 Z"></path>
                            </g>
                            <g id="Shape" fill-rule="nonzero">
                                <use fill="url(#linearGradient-40)" fill-rule="evenodd" xlink:href="#path-41"></use>
                                <path stroke="#775CDE" stroke-width="1" d="M120.061278,50.7720213 L178.49495,31.2939152 L159.454182,12.2531479 L101.020505,31.7309325 L120.061278,50.7720213 Z"></path>
                            </g>
                            <g id="fireworks" transform="translate(58.236265, 10.166432)">
                                <g id="Group-6" transform="translate(66.383772, 19.569757) rotate(35.000000) translate(-66.383772, -19.569757) translate(53.114541, 5.146680)">
                                    <path d="M2.05729424,28.2026895 C3.43796574,27.5135867 4.47346937,26.824484 5.16380512,26.1353812 C5.78626834,25.5140298 6.12809966,24.6125477 6.18929909,23.4309349 L6.18930661,23.4309353 C6.20190117,23.1877649 6.12533954,22.9483539 5.9739839,22.7576134 C4.38306841,20.7527192 3.42267307,18.433128 3.09279787,15.7988399 C2.74762999,13.0424289 3.43796574,10.2860178 5.16380512,7.5296068 C2.40246211,9.59691507 1.02179061,13.3869802 1.02179061,18.8998023 C1.02179061,24.4126243 1.36695849,27.5135867 2.05729424,28.2026895 Z" id="Path-7" fill="#41D1A5"></path>
                                    <path d="M2.58413534,14.2127444 C2.58413534,12.0984518 3.27323809,10.1603503 4.65144361,8.39843985 C6.71875188,5.75557416 8.78606015,4.69842789 11.8870226,4.69842789 C14.987985,4.69842789 19.1226015,6.81272043 21.1899098,5.75557416 C22.5681153,5.05080998 22.9126667,3.9936637 22.2235639,2.58413534 C24.2908722,5.05080998 24.9799749,6.98891148 24.2908722,8.39843985 C23.257218,10.5127324 18.0889474,11.5698787 12.9206767,9.98415926 C9.4751629,8.92701298 6.02964912,10.3365413 2.58413534,14.2127444 Z" id="Path-8" fill="url(#linearGradient-42)"></path>
                                    <path d="M19.3572761,1.04552953 C22.59089,4.81406023 23.5609741,7.82888479 22.2675286,10.0900032 C24.2076969,8.959444 27.1179494,5.56776637 25.1777811,3.30664795 C23.8843355,1.79923567 21.9441672,1.04552953 19.3572761,1.04552953 Z" id="Path-9" fill="#41D1A5"></path>
                                </g>
                                <path d="M3.69391885,36.6746099 L9.69113531,40.2729397 C11.290393,37.8740531 12.4898363,35.4751666 13.2894652,33.07628 C14.089094,30.6773934 14.4889085,29.0781357 14.4889085,28.2785068 C12.8034678,29.4152238 11.5752968,30.0606724 10.8043956,30.2148527 C10.0334944,30.3690329 9.26259322,30.1233987 8.49169201,29.4779501 C8.30481961,30.957702 7.84271438,32.2505815 7.10537632,33.3565886 C6.36803826,34.4625957 5.23088577,35.5686028 3.69391885,36.6746099 Z" id="Path-10" fill="url(#linearGradient-43)" transform="translate(9.091414, 34.275723) rotate(-58.000000) translate(-9.091414, -34.275723) "></path>
                            </g>
                        </g>
                    </g>
                </g>
            </g>
        </g>
    </g>
</svg>