<?xml version="1.0" encoding="utf-8"?>
<!-- Generator: Adobe Illustrator 21.0.0, SVG Export Plug-In . SVG Version: 6.00 Build 0)  -->
<svg version="1.1" id="Layer_1" xmlns="http://www.w3.org/2000/svg" xmlns:xlink="http://www.w3.org/1999/xlink" x="0px" y="0px"
	 viewBox="0 0 45.1 46.7" style="enable-background:new 0 0 45.1 46.7;" xml:space="preserve">
<style type="text/css">
	.st0{fill:none;stroke:#FFFFFF;}
	.st1{fill:#FFFFFF;}
	.st2{opacity:0;fill:#FFFFFF;}
</style>
<g transform="translate(10 10)">
	<circle cx="12.8" cy="13" r="14"/>
	<g transform="translate(1.623 2)">
		<g>
			<circle id="close-a" cx="11.1" cy="11" r="11.8"/>
		</g>
		<circle class="st0" cx="11.1" cy="11" r="11.3"/>
		<path class="st1" d="M12,11l3.7,3.7c0.3,0.3,0.3,0.7,0,0.9c-0.2,0.2-0.7,0.2-0.9,0l-3.7-3.7l-3.6,3.6c-0.2,0.2-0.7,0.2-0.9,0
			c-0.3-0.3-0.3-0.7,0-0.9l3.6-3.6L6.5,7.3C6.2,7,6.2,6.6,6.5,6.4c0.2-0.2,0.7-0.2,0.9,0l3.7,3.7l3.6-3.6c0.2-0.2,0.7-0.2,0.9,0
			c0.3,0.3,0.3,0.7,0,0.9L12,11z"/>
	</g>
</g>
<rect class="st2" width="45.1" height="46.7"/>
</svg>
