<?xml version="1.0" encoding="utf-8"?>
<!-- Generator: Adobe Illustrator 21.0.0, SVG Export Plug-In . SVG Version: 6.00 Build 0)  -->
<svg version="1.1" id="Layer_1" xmlns="http://www.w3.org/2000/svg" xmlns:xlink="http://www.w3.org/1999/xlink" x="0px" y="0px"
	 viewBox="0 0 266 55" style="enable-background:new 0 0 266 55;" xml:space="preserve">
<style type="text/css">
	.st0{fill:url(#SVGID_1_);}
	.st1{fill:none;stroke:#FFFFFF;stroke-linecap:square;stroke-dasharray:1,3;}
</style>
<g transform="translate(-.5 .5)">
	
		<linearGradient id="SVGID_1_" gradientUnits="userSpaceOnUse" x1="-545.4225" y1="518.1852" x2="-546.9501" y2="518.1852" gradientTransform="matrix(264.7415 0 0 -53.5217 144662.4531 27761.1133)">
		<stop  offset="0" style="stop-color:#FF5F43"/>
		<stop  offset="1" style="stop-color:#FA6291"/>
	</linearGradient>
	<path class="st0" d="M78.6,54.5H0.8V-0.6h77.1c0,0,0,0.1,0,0.1c0,1.7,1.4,3.1,3.1,3.1c1.7,0,3.1-1.4,3.1-3.1c0,0,0-0.1,0-0.1h182.4
		v55.1h-182c0.1-0.3,0.1-0.6,0.1-1c0-1.7-1.4-3.1-3.1-3.1s-3.1,1.4-3.1,3.1C78.4,53.9,78.5,54.2,78.6,54.5z"/>
	<path class="st1" d="M81.5,8v39"/>
</g>
</svg>
