<svg xmlns="http://www.w3.org/2000/svg" width="24" height="24" viewBox="0 0 24 24">
  <defs>
    <linearGradient id="ico2-a" x1="6.228%" x2="86.813%" y1="27.636%" y2="90.136%">
      <stop offset="0%" stop-color="#FF3982"/>
      <stop offset="100%" stop-color="#FF6500"/>
    </linearGradient>
  </defs>
  <g fill="none" fill-rule="evenodd" transform="translate(-2 -3)">
    <circle cx="14.12" cy="14.71" r="11.571" fill="url(#ico2-a)"/>
    <g transform="translate(.5)">
      <path fill="#FFF" d="M15.4781162,23.0301449 L14.7700649,12.9060884 L5.08829937,10.8591708 C5.18729409,10.7756343 5.2916631,10.6985396 5.40077106,10.6283987 L14.2535798,4.93730738 C15.4965847,4.13823283 17.1363537,4.36330861 18.1180805,5.46775129 L22.7789935,10.7112783 C23.7651692,11.820726 23.7917133,13.4845822 22.8414293,14.624923 L16.4953903,22.2401699 C16.2077669,22.585318 15.8590392,22.849519 15.4781162,23.0301449 Z M14.4832933,23.3053172 C13.712195,23.3808425 12.9124056,23.1594742 12.2701732,22.6242806 C12.2005144,22.5662316 12.1335233,22.5050543 12.0694061,22.4409371 L4.90172349,15.2732545 C3.94555764,14.3170886 3.76975565,12.8760668 4.37431752,11.7416084 L13.7925731,13.7444526 L14.4832933,23.3053172 Z" transform="scale(1 -1) rotate(-37 -27.883 0)"/>
      <circle cx="13.458" cy="14.651" r="3.503" fill="url(#ico2-a)" transform="rotate(-90 13.458 14.651)"/>
      <polygon fill="#FFF" points="11.774 12.599 12.878 14.6 12.148 14.6 12.148 14.979 13.09 14.979 13.096 15.462 12.148 15.462 12.148 15.841 13.096 15.841 13.096 16.704 13.821 16.704 13.821 15.841 14.775 15.841 14.775 15.462 13.821 15.462 13.821 14.985 14.775 14.979 14.775 14.6 14.039 14.6 15.143 12.599 14.326 12.599 13.458 14.329 12.59 12.599" transform="rotate(-9 13.458 14.651)"/>
    </g>
  </g>
</svg>
