<svg xmlns="http://www.w3.org/2000/svg" width="24" height="23" viewBox="0 0 24 23">
  <defs>
    <linearGradient id="ico3-a" x1="6.228%" x2="86.813%" y1="27.636%" y2="90.136%">
      <stop offset="0%" stop-color="#FF3982"/>
      <stop offset="100%" stop-color="#FF6500"/>
    </linearGradient>
  </defs>
  <g fill="none" fill-rule="evenodd">
    <circle cx="12.101" cy="11.377" r="11.377" fill="url(#ico3-a)"/>
    <path fill="#FFF" d="M4.59269724 9.17718189C5.07269577 9.24175161 5.45979976 9.49822509 5.75400919 9.94660233 6.25398181 10.7085729 6.76662659 11.4621526 7.29172583 12.2070301 7.47064148 12.4606461 7.82127765 12.5212027 8.07489364 12.3422871 8.24699465 12.2208769 8.33676258 12.0134285 8.30745047 11.804862L7.98107092 9.48255085C7.87150148 8.70292373 8.41469054 7.9820875 9.19431765 7.87251806 9.8597733 7.77899436 10.4750476 8.24263682 10.5685713 8.90809248 10.5774768 8.97145807 10.5813698 9.03542743 10.5802143 9.09940531L10.5109087 12.9365424C10.4807534 14.6061039 9.10286069 15.9351052 7.4332992 15.9049499 6.89818814 15.8952849 6.37523165 15.7437534 5.91784964 15.4658344L2.99669944 13.6909509C1.8424192 12.9895757 1.47526708 11.4852698 2.17664222 10.3309895 2.68124561 9.50054421 3.62963934 9.0476307 4.59269724 9.17718189zM11.8954702 9.30146213L11.8954483 9.30146329C11.8927831 9.25131815 11.8918878 9.2010946 11.8927642 9.15088633 11.913343 7.97192795 12.88576 7.03287575 14.0647184 7.05345455L13.4403589 13.6780075C13.5892245 14.1378162 13.3934704 14.4059677 12.8530967 14.4824622 12.4016548 14.5463676 12.082446 12.8193676 11.8954702 9.30146213zM15.2368864 8.20137331C15.3071973 6.88416173 16.0465676 6.3579261 16.6109759 6.3579261 17.1753842 6.3579261 20.1532536 6.2202145 20.741971 7.33734172 21.3306885 8.45446893 21.3786834 10.6957267 20.741971 11.6817357 20.1052586 12.6677447 17.8906603 12.1951593 17.1822407 12.1951593 16.8627937 12.6629891 17.2545448 14.525617 17.6970957 15.1130266 18.1396467 15.7004362 16.8319398 16.9088217 16.0465676 16.0109242 15.2611955 15.1130266 15.1665754 9.51858489 15.2368864 8.20137331zM17.2134062 8.17350132C17.2134062 8.97569506 17.2134062 9.54462325 17.2134062 9.88028589 17.2134062 10.3837798 19.4333291 10.8872738 19.5854171 10.3837798 19.737505 9.88028589 19.5854171 8.52594709 19.1141938 8.17350132 18.8000449 7.93853747 18.1664491 7.93853747 17.2134062 8.17350132zM12.0197305 4.11444155C12.1750541 3.79168944 13.6463253 3.46893734 13.7927524 3.79168944 13.8903704 4.00685751 13.9391794 4.5721963 13.9391794 5.4877058 13.5266547 6.00083317 13.1599881 6.27885987 12.8391794 6.32178591 12.3579664 6.38617498 11.9396121 5.99482108 11.8399052 5.76860077 11.5603217 5.13426651 11.9434022 4.2730468 12.0197305 4.11444155z"/>
  </g>
</svg>
