<?xml version="1.0" encoding="UTF-8"?>
<svg width="36px" height="183px" viewBox="0 0 36 183" version="1.1" xmlns="http://www.w3.org/2000/svg" xmlns:xlink="http://www.w3.org/1999/xlink">
    <!-- Generator: Sketch 47 (45396) - http://www.bohemiancoding.com/sketch -->
    <title>icons</title>
    <desc>Created with Sketch.</desc>
    <defs>
        <linearGradient x1="0%" y1="50%" x2="92.8348214%" y2="24.8660714%" id="linearGradient-1">
            <stop stop-color="#FF726C" offset="0%"></stop>
            <stop stop-color="#FF3E3A" offset="100%"></stop>
        </linearGradient>
        <linearGradient x1="2.32568101%" y1="49.3703494%" x2="92.8348214%" y2="24.8660714%" id="linearGradient-2">
            <stop stop-color="#6CA7FF" offset="0%"></stop>
            <stop stop-color="#3AB8FF" offset="100%"></stop>
        </linearGradient>
        <linearGradient x1="13.7220982%" y1="77.6171875%" x2="87.2935268%" y2="77.6171863%" id="linearGradient-3">
            <stop stop-color="#D67400" offset="0%"></stop>
            <stop stop-color="#FFAF00" offset="39.9878641%"></stop>
            <stop stop-color="#FFB200" offset="56.2727549%"></stop>
            <stop stop-color="#D67400" offset="100%"></stop>
        </linearGradient>
        <ellipse id="path-4" cx="18" cy="17.3378378" rx="17.5" ry="16"></ellipse>
        <linearGradient x1="50%" y1="100%" x2="50%" y2="0%" id="linearGradient-5">
            <stop stop-color="#FFD958" offset="0%"></stop>
            <stop stop-color="#FFC100" offset="100%"></stop>
        </linearGradient>
        <linearGradient x1="50%" y1="0%" x2="50%" y2="100%" id="linearGradient-6">
            <stop stop-color="#FFECAC" offset="0%"></stop>
            <stop stop-color="#FFCD2C" offset="43.5068559%"></stop>
            <stop stop-color="#FFECAC" offset="100%"></stop>
        </linearGradient>
        <ellipse id="path-7" cx="18" cy="15.5" rx="17" ry="15.5"></ellipse>
        <linearGradient x1="50%" y1="100%" x2="50%" y2="1.09016263%" id="linearGradient-8">
            <stop stop-color="#FFF8DF" offset="0%"></stop>
            <stop stop-color="#FFECAC" offset="100%"></stop>
        </linearGradient>
        <ellipse id="path-9" cx="18" cy="14.0405405" rx="13.5" ry="12.0405405"></ellipse>
        <filter x="-3.7%" y="-4.2%" width="107.4%" height="108.3%" filterUnits="objectBoundingBox" id="filter-10">
            <feGaussianBlur stdDeviation="0.5" in="SourceAlpha" result="shadowBlurInner1"></feGaussianBlur>
            <feOffset dx="0" dy="1" in="shadowBlurInner1" result="shadowOffsetInner1"></feOffset>
            <feComposite in="shadowOffsetInner1" in2="SourceAlpha" operator="arithmetic" k2="-1" k3="1" result="shadowInnerInner1"></feComposite>
            <feColorMatrix values="0 0 0 0 0.866666667   0 0 0 0 0.494117647   0 0 0 0 0  0 0 0 1 0" type="matrix" in="shadowInnerInner1"></feColorMatrix>
        </filter>
    </defs>
    <g id="Page-2" stroke="none" stroke-width="1" fill="none" fill-rule="evenodd">
        <g id="icons">
            <g id="Group-37">
                <circle id="Oval-2" fill="url(#linearGradient-1)" cx="17.8945466" cy="17.76" r="17.5"></circle>
                <path d="M28.6459615,15.2111719 L28.6459615,11.4240625 C28.6459615,10.2338281 27.6682994,9.26 26.4733791,9.26 L23.4860782,9.26 C23.4860782,9.6928125 23.1058763,10.0715234 22.6713598,10.0715234 C22.2368433,10.0715234 21.8566414,9.6928125 21.8566414,9.26 L9.09271961,9.26 C7.89779927,9.26 6.92013718,10.2338281 6.92013718,11.4240625 L6.92013718,15.2111719 C8.11505752,15.2111719 9.09271961,16.185 9.09271961,17.3752344 C9.09271961,18.5654687 8.11505752,19.5392969 6.92013718,19.5392969 L6.92013718,23.3264062 C6.92013718,24.5166406 7.89779927,25.4904687 9.09271961,25.4904687 L21.8566414,25.4904687 C21.8566414,25.0576562 22.2368433,24.6789453 22.6713598,24.6789453 C23.1058763,24.6789453 23.4860782,25.0576562 23.4860782,25.4904687 L26.4733791,25.4904687 C27.6682994,25.4904687 28.6459615,24.5166406 28.6459615,23.3264062 L28.6459615,19.5392969 C27.4510412,19.5392969 26.4733791,18.5654687 26.4733791,17.3752344 C26.4733791,16.185 27.4510412,15.2111719 28.6459615,15.2111719 Z M22.6713598,23.5969141 C22.2368433,23.5969141 21.8566414,23.2182031 21.8566414,22.7853906 C21.8566414,22.3525781 22.2368433,21.9738672 22.6713598,21.9738672 C23.1058763,21.9738672 23.4860782,22.3525781 23.4860782,22.7853906 C23.4860782,23.2182031 23.1058763,23.5969141 22.6713598,23.5969141 Z M22.6713598,20.8918359 C22.2368433,20.8918359 21.8566414,20.513125 21.8566414,20.0803125 C21.8566414,19.6475 22.2368433,19.2687891 22.6713598,19.2687891 C23.1058763,19.2687891 23.4860782,19.6475 23.4860782,20.0803125 C23.4860782,20.513125 23.1058763,20.8918359 22.6713598,20.8918359 Z M22.6713598,18.1867578 C22.2368433,18.1867578 21.8566414,17.8080469 21.8566414,17.3752344 C21.8566414,16.9424219 22.2368433,16.5637109 22.6713598,16.5637109 C23.1058763,16.5637109 23.4860782,16.9424219 23.4860782,17.3752344 C23.4860782,17.8080469 23.1058763,18.1867578 22.6713598,18.1867578 Z M22.6713598,15.4816797 C22.2368433,15.4816797 21.8566414,15.1029687 21.8566414,14.6701562 C21.8566414,14.2373437 22.2368433,13.8586328 22.6713598,13.8586328 C23.1058763,13.8586328 23.4860782,14.2373437 23.4860782,14.6701562 C23.4860782,15.1029687 23.1058763,15.4816797 22.6713598,15.4816797 Z M22.6713598,12.7766016 C22.2368433,12.7766016 21.8566414,12.3978906 21.8566414,11.9650781 C21.8566414,11.5322656 22.2368433,11.1535547 22.6713598,11.1535547 C23.1058763,11.1535547 23.4860782,11.5322656 23.4860782,11.9650781 C23.4860782,12.3978906 23.1058763,12.7766016 22.6713598,12.7766016 Z M16.1536125,13.588125 L17.4028474,16.0767969 L20.17289,16.4555078 L18.1632513,18.4031641 L18.5977677,21.1623437 L16.1536125,19.8639062 L13.7094573,21.1623437 L14.1439738,18.4031641 L12.134335,16.4555078 L14.9043776,16.0767969 L16.1536125,13.588125 Z" id="Combined-Shape" fill="#FFFFFF" fill-rule="nonzero"></path>
            </g>
            <g id="Group-36" transform="translate(0.000000, 45.000000)">
                <circle id="Oval-2" fill="url(#linearGradient-2)" cx="17.8925781" cy="17.76" r="17.5"></circle>
                <path d="M22.9247031,16.69925 C20.7668576,16.69925 19.0175781,15.70549 19.0175781,14.479625 C19.0175781,13.25376 20.7668576,12.26 22.9247031,12.26 C25.0825487,12.26 26.8318281,13.25376 26.8318281,14.479625 C26.8318281,15.70549 25.0825487,16.69925 22.9247031,16.69925 Z M22.9832031,17.976125 C25.7788281,17.976125 26.8925781,16.875875 26.8925781,16.196375 L26.8925781,19.0325 C26.8925781,20.25875 25.1432031,21.251 22.9832031,21.251 C20.8254531,21.251 19.0760781,20.25875 19.0760781,19.0325 L19.0760781,16.126625 C19.0760781,16.805 20.1887031,17.976125 22.9832031,17.976125 Z M22.9832031,22.466 C25.4840781,22.466 26.8925781,21.305 26.8925781,20.626625 L26.8925781,23.540375 C26.8925781,24.766625 25.1432031,25.76 22.9832031,25.76 C20.8254531,25.76 19.0760781,24.766625 19.0760781,23.540375 L19.0760781,20.6615 C19.0760781,21.339875 20.4834531,22.466 22.9832031,22.466 Z M13.3217031,12.19925 C10.8755649,12.19925 8.89257812,11.20549 8.89257812,9.979625 C8.89257812,8.75375996 10.8755649,7.76 13.3217031,7.76 C15.7678413,7.76 17.7508281,8.75375996 17.7508281,9.979625 C17.7508281,11.20549 15.7678413,12.19925 13.3217031,12.19925 Z M13.4623281,13.476125 C16.6292031,13.476125 17.8925781,12.375875 17.8925781,11.696375 L17.8925781,14.5325 C17.8925781,15.75875 15.9103281,16.751 13.4623281,16.751 C11.0165781,16.751 9.03320312,15.75875 9.03320312,14.5325 L9.03320312,11.626625 C9.03320312,12.305 10.2954531,13.476125 13.4623281,13.476125 Z M13.4623281,17.966 C16.2950781,17.966 17.8925781,16.805 17.8925781,16.126625 L17.8925781,19.040375 C17.8925781,20.266625 15.9103281,21.26 13.4623281,21.26 C11.0165781,21.26 9.03320312,20.266625 9.03320312,19.040375 L9.03320312,16.1615 C9.03320312,16.839875 10.6284531,17.966 13.4623281,17.966 Z M13.4623281,22.466 C16.2950781,22.466 17.8925781,21.305 17.8925781,20.626625 L17.8925781,23.540375 C17.8925781,24.766625 15.9103281,25.76 13.4623281,25.76 C11.0165781,25.76 9.03320312,24.766625 9.03320312,23.540375 L9.03320312,20.6615 C9.03320312,21.339875 10.6284531,22.466 13.4623281,22.466 Z" id="Combined-Shape" fill="#FFFFFF" fill-rule="nonzero"></path>
            </g>
            <g id="Group-35" transform="translate(0.000000, 90.000000)">
                <g id="Group-14" transform="translate(0.392578, 0.260000)">
                    <g id="Oval-2">
                        <use fill="url(#linearGradient-3)" fill-rule="evenodd" xlink:href="#path-4"></use>
                        <ellipse stroke="#D27000" stroke-width="1" cx="18" cy="17.3378378" rx="17" ry="15.5"></ellipse>
                    </g>
                    <g id="Oval-2">
                        <use fill="url(#linearGradient-5)" fill-rule="evenodd" xlink:href="#path-7"></use>
                        <ellipse stroke="url(#linearGradient-6)" stroke-width="1" cx="18" cy="15.5" rx="16.5" ry="15"></ellipse>
                    </g>
                    <g id="Oval-2">
                        <use fill="url(#linearGradient-8)" fill-rule="evenodd" xlink:href="#path-9"></use>
                        <use fill="black" fill-opacity="1" filter="url(#filter-10)" xlink:href="#path-9"></use>
                    </g>
                </g>
                <g id="Group-34" transform="translate(11.000000, 6.000000)">
                    <polygon id="￥" fill="#D27000" points="7.40416747 5.17604642 8.95741907 1.29125 11.965952 0.26 11.965952 1.29125 10.3113343 5.52085083 13.7624465 5.52085083 13.7624465 7.86552086 9.22296719 7.86552086 9.33130692 9.80888743 14.6341228 9.80888743 14.6341228 12.1535575 9.4620187 12.1535575 9.73116719 16.9814648 5.08624546 16.9814648 5.35168155 12.1535575 0.629087814 12.1535575 0.648534357 9.80888743 5.48059042 9.80888743 5.58743581 7.86552086 0.892578125 7.86552086 0.892578125 5.52085083 4.52070962 5.52085083 2.85958724 1.29125 2.89257812 0.26 5.86812017 1.29125"></polygon>
                    <polygon id="￥" fill="url(#linearGradient-5)" points="7.40416747 4.17604642 8.95741907 0.29125 11.965952 0.29125 10.3113343 4.52085083 13.7624465 4.52085083 13.7624465 6.86552086 9.22296719 6.86552086 9.33130692 8.80888743 14.6341228 8.80888743 14.6341228 11.1535575 9.4620187 11.1535575 9.73116719 15.9814648 5.08624546 15.9814648 5.35168155 11.1535575 0.629087814 11.1535575 0.648534357 8.80888743 5.48059042 8.80888743 5.58743581 6.86552086 0.918445096 6.86552086 0.918445096 4.52085083 4.52070962 4.52085083 2.85958724 0.29125 5.86812017 0.29125"></polygon>
                </g>
            </g>
        </g>
    </g>
</svg>