<?xml version="1.0" encoding="UTF-8"?>
<svg width="79px" height="23px" viewBox="0 0 79 23" version="1.1" xmlns="http://www.w3.org/2000/svg" xmlns:xlink="http://www.w3.org/1999/xlink">
    <!-- Generator: Sketch 47 (45396) - http://www.bohemiancoding.com/sketch -->
    <title>labal1</title>
    <desc>Created with Sketch.</desc>
    <defs>
        <linearGradient x1="187.059295%" y1="30.7065217%" x2="0%" y2="50%" id="linearGradient-1">
            <stop stop-color="#BCCCF6" offset="0%"></stop>
            <stop stop-color="#7B93E4" offset="100%"></stop>
        </linearGradient>
        <path d="M0,0 L66.5,0 L66.5,0 C72.8512746,-1.16671022e-15 78,5.14872538 78,11.5 L78,11.5 L78,11.5 C78,17.8512746 72.8512746,23 66.5,23 L0,23 L0,0 Z" id="path-2"></path>
        <linearGradient x1="50%" y1="0%" x2="50%" y2="100%" id="linearGradient-4">
            <stop stop-color="#FCF53C" offset="0%"></stop>
            <stop stop-color="#F8E71C" offset="100%"></stop>
        </linearGradient>
        <linearGradient x1="50%" y1="0%" x2="50%" y2="100%" id="linearGradient-5">
            <stop stop-color="#88F3E2" offset="0%"></stop>
            <stop stop-color="#50E3C2" offset="100%"></stop>
        </linearGradient>
        <linearGradient x1="50%" y1="0%" x2="50%" y2="100%" id="linearGradient-6">
            <stop stop-color="#A5E1F6" offset="0%"></stop>
            <stop stop-color="#6CC0E9" offset="100%"></stop>
        </linearGradient>
        <linearGradient x1="50%" y1="0%" x2="50%" y2="100%" id="linearGradient-7">
            <stop stop-color="#58D5FF" offset="0%"></stop>
            <stop stop-color="#00ABFF" offset="100%"></stop>
        </linearGradient>
        <text id="text-8" font-family="HYe4gj, HYCuYuanJ" font-size="12" font-weight="normal" fill="#FFFFFF">
            <tspan x="17" y="15">新人有礼</tspan>
        </text>
        <filter x="-1.0%" y="-4.2%" width="102.1%" height="116.7%" filterUnits="objectBoundingBox" id="filter-9">
            <feOffset dx="0" dy="1" in="SourceAlpha" result="shadowOffsetOuter1"></feOffset>
            <feColorMatrix values="0 0 0 0 0.440770853   0 0 0 0 0.533296842   0 0 0 0 0.844520621  0 0 0 1 0" type="matrix" in="shadowOffsetOuter1"></feColorMatrix>
        </filter>
    </defs>
    <g id="Page-2" stroke="none" stroke-width="1" fill="none" fill-rule="evenodd">
        <g id="1.领券" transform="translate(-33.000000, -245.000000)">
            <g id="labal1" transform="translate(33.500000, 245.000000)">
                <mask id="mask-3" fill="white">
                    <use xlink:href="#path-2"></use>
                </mask>
                <use id="Rectangle-12" fill="url(#linearGradient-1)" xlink:href="#path-2"></use>
                <g id="Group-2" opacity="0.6" mask="url(#mask-3)">
                    <g transform="translate(38.000000, -66.273438)" id="Combined-Shape">
                        <path d="M36,74 C16.3938914,74 0.5,58.1061086 0.5,38.5 C0.5,18.8938914 16.3938914,3 36,3 C55.6061086,3 71.5,18.8938914 71.5,38.5 C71.5,58.1061086 55.6061086,74 36,74 Z M35.8779297,67.4277344 C51.8267699,67.4277344 64.7558594,54.4986449 64.7558594,38.5498047 C64.7558594,22.6009645 51.8267699,9.671875 35.8779297,9.671875 C19.9290895,9.671875 7,22.6009645 7,38.5498047 C7,54.4986449 19.9290895,67.4277344 35.8779297,67.4277344 Z" fill="url(#linearGradient-4)"></path>
                        <path d="M39.7626953,78 C18.3546498,78 1,60.6453502 1,39.2373047 C1,17.8292592 18.3546498,0.474609375 39.7626953,0.474609375 C61.1707408,0.474609375 78.5253906,17.8292592 78.5253906,39.2373047 C78.5253906,60.6453502 61.1707408,78 39.7626953,78 Z M39.6294059,70.8236977 C57.0440547,70.8236977 71.1614169,56.7063356 71.1614169,39.2916868 C71.1614169,21.877038 57.0440547,7.75967579 39.6294059,7.75967579 C22.2147571,7.75967579 8.09739492,21.877038 8.09739492,39.2916868 C8.09739492,56.7063356 22.2147571,70.8236977 39.6294059,70.8236977 Z" fill="url(#linearGradient-5)"></path>
                        <path d="M30.9785156,78 C14.4218386,78 1,64.5781614 1,48.0214844 C1,31.4648074 14.4218386,18.0429688 30.9785156,18.0429688 C47.5351926,18.0429688 60.9570312,31.4648074 60.9570312,48.0214844 C60.9570312,64.5781614 47.5351926,78 30.9785156,78 Z M30.8754315,72.4499502 C44.3436725,72.4499502 55.261839,61.5317837 55.261839,48.0635427 C55.261839,34.5953017 44.3436725,23.6771352 30.8754315,23.6771352 C17.4071905,23.6771352 6.48902399,34.5953017 6.48902399,48.0635427 C6.48902399,61.5317837 17.4071905,72.4499502 30.8754315,72.4499502 Z" fill="url(#linearGradient-6)"></path>
                    </g>
                </g>
                <g id="Group-2" opacity="0.6" mask="url(#mask-3)">
                    <g transform="translate(-66.500000, -7.273438)" id="Combined-Shape">
                        <path d="M36,74 C16.3938914,74 0.5,58.1061086 0.5,38.5 C0.5,18.8938914 16.3938914,3 36,3 C55.6061086,3 71.5,18.8938914 71.5,38.5 C71.5,58.1061086 55.6061086,74 36,74 Z M35.8779297,67.4277344 C51.8267699,67.4277344 64.7558594,54.4986449 64.7558594,38.5498047 C64.7558594,22.6009645 51.8267699,9.671875 35.8779297,9.671875 C19.9290895,9.671875 7,22.6009645 7,38.5498047 C7,54.4986449 19.9290895,67.4277344 35.8779297,67.4277344 Z" fill="url(#linearGradient-4)"></path>
                        <path d="M39.7626953,78 C18.3546498,78 1,60.6453502 1,39.2373047 C1,17.8292592 18.3546498,0.474609375 39.7626953,0.474609375 C61.1707408,0.474609375 78.5253906,17.8292592 78.5253906,39.2373047 C78.5253906,60.6453502 61.1707408,78 39.7626953,78 Z M39.6294059,70.8236977 C57.0440547,70.8236977 71.1614169,56.7063356 71.1614169,39.2916868 C71.1614169,21.877038 57.0440547,7.75967579 39.6294059,7.75967579 C22.2147571,7.75967579 8.09739492,21.877038 8.09739492,39.2916868 C8.09739492,56.7063356 22.2147571,70.8236977 39.6294059,70.8236977 Z" fill="url(#linearGradient-5)"></path>
                        <path d="M60.9785156,79 C44.4218386,79 31,65.5781614 31,49.0214844 C31,32.4648074 44.4218386,19.0429688 60.9785156,19.0429688 C77.5351926,19.0429688 90.9570312,32.4648074 90.9570312,49.0214844 C90.9570312,65.5781614 77.5351926,79 60.9785156,79 Z M60.8754315,73.4499502 C74.3436725,73.4499502 85.261839,62.5317837 85.261839,49.0635427 C85.261839,35.5953017 74.3436725,24.6771352 60.8754315,24.6771352 C47.4071905,24.6771352 36.489024,35.5953017 36.489024,49.0635427 C36.489024,62.5317837 47.4071905,73.4499502 60.8754315,73.4499502 Z" fill="url(#linearGradient-7)"></path>
                    </g>
                </g>
                <g id="新人有礼" mask="url(#mask-3)" fill-opacity="1" fill="#FFFFFF">
                    <use filter="url(#filter-9)" xlink:href="#text-8"></use>
                    <use xlink:href="#text-8"></use>
                </g>
            </g>
        </g>
    </g>
</svg>