<?xml version="1.0" encoding="UTF-8"?>
<svg width="217px" height="56px" viewBox="0 0 217 56" version="1.1" xmlns="http://www.w3.org/2000/svg" xmlns:xlink="http://www.w3.org/1999/xlink">
    <!-- Generator: Sketch 47 (45396) - http://www.bohemiancoding.com/sketch -->
    <title>Combined Shape</title>
    <desc>Created with Sketch.</desc>
    <defs></defs>
    <g id="Page-2" stroke="none" stroke-width="1" fill="none" fill-rule="evenodd">
        <g id="3.-领奖励金" transform="translate(-52.000000, -305.000000)" fill="#FFFFFF">
            <g id="Group-15" transform="translate(34.000000, 258.000000)">
                <path d="M234.959898,100.259597 C234.949276,101.033315 234.857449,101.336977 234.693805,101.642964 C234.519498,101.96889 234.263709,102.224679 233.937783,102.398986 C233.611857,102.573293 233.288571,102.666119 232.397052,102.666119 L21.5199399,102.666119 C20.6284211,102.666119 20.3051349,102.573293 19.979209,102.398986 C19.6532831,102.224679 19.3974945,101.96889 19.2231874,101.642964 C19.0797882,101.374831 18.991536,101.108484 18.9647473,100.526066 C20.1483176,100.124347 21,99.0039139 21,97.6845591 C21,96.3619767 20.1441453,95.2392898 18.9560547,94.8401173 L18.9560547,91.529001 C20.1441453,91.1298285 21,90.0071416 21,88.6845591 C21,87.3619767 20.1441453,86.2392898 18.9560547,85.8401173 L18.9560547,82.529001 C20.1441453,82.1298285 21,81.0071416 21,79.6845591 C21,78.3619767 20.1441453,77.2392898 18.9560547,76.8401173 L18.9560547,73.529001 C20.1441453,73.1298285 21,72.0071416 21,70.6845591 C21,69.3619767 20.1441453,68.2392898 18.9560547,67.8401173 L18.9560547,64.529001 C20.1441453,64.1298285 21,63.0071416 21,61.6845591 C21,60.3619767 20.1441453,59.2392898 18.9560547,58.8401173 L18.9560547,55.529001 C20.1441453,55.1298285 21,54.0071416 21,52.6845591 C21,51.3646192 20.1475619,50.2437769 18.9631721,49.8425186 C18.9879285,49.2347102 19.0768383,48.962922 19.2231874,48.689273 C19.3974945,48.3633471 19.6532831,48.1075585 19.979209,47.9332514 C20.3051349,47.7589443 20.6284211,47.6661187 21.5199399,47.6661187 L232.397052,47.6661187 C233.288571,47.6661187 233.611857,47.7589443 233.937783,47.9332514 C234.263709,48.1075585 234.519498,48.3633471 234.693805,48.689273 C234.860006,49.0000424 234.952128,49.3084119 234.960336,50.1092581 C234.085553,50.6333803 233.5,51.5905881 233.5,52.6845591 C233.5,53.7787807 234.085821,54.7361764 234.960937,55.2602202 L234.960937,59.1088981 C234.085821,59.6329419 233.5,60.5903376 233.5,61.6845591 C233.5,62.7787807 234.085821,63.7361764 234.960937,64.2602202 L234.960937,68.1088981 C234.085821,68.6329419 233.5,69.5903376 233.5,70.6845591 C233.5,71.7787807 234.085821,72.7361764 234.960937,73.2602202 L234.960937,77.1088981 C234.085821,77.6329419 233.5,78.5903376 233.5,79.6845591 C233.5,80.7787807 234.085821,81.7361764 234.960937,82.2602202 L234.960937,86.1088981 C234.085821,86.6329419 233.5,87.5903376 233.5,88.6845591 C233.5,89.7787807 234.085821,90.7361764 234.960937,91.2602202 L234.960937,95.1088981 C234.085821,95.6329419 233.5,96.5903376 233.5,97.6845591 C233.5,98.7783474 234.085357,99.7354181 234.959898,100.259597 Z" id="Combined-Shape" transform="translate(126.958496, 75.166119) scale(-1, 1) translate(-126.958496, -75.166119) "></path>
            </g>
        </g>
    </g>
</svg>