<?xml version="1.0" encoding="UTF-8"?>
<svg width="218px" height="56px" viewBox="0 0 218 56" version="1.1" xmlns="http://www.w3.org/2000/svg" xmlns:xlink="http://www.w3.org/1999/xlink">
    <!-- Generator: Sketch 47 (45396) - http://www.bohemiancoding.com/sketch -->
    <title>1</title>
    <desc>Created with Sketch.</desc>
    <defs>
        <linearGradient x1="0.770431793%" y1="60.1394127%" x2="94.2210021%" y2="7.5875203%" id="linearGradient-1">
            <stop stop-color="#FF3E3A" offset="0%"></stop>
            <stop stop-color="#D31410" offset="24.7400013%"></stop>
            <stop stop-color="#FF5450" offset="85.5069303%"></stop>
            <stop stop-color="#FF3E3A" offset="100%"></stop>
        </linearGradient>
        <linearGradient x1="11.1624053%" y1="66.7529297%" x2="100%" y2="30.8789062%" id="linearGradient-2">
            <stop stop-color="#D71713" offset="0%"></stop>
            <stop stop-color="#BD0906" offset="79.5260682%"></stop>
            <stop stop-color="#B00E0B" offset="100%"></stop>
        </linearGradient>
        <linearGradient x1="0.770431793%" y1="60.1394127%" x2="99.061155%" y2="60.1394117%" id="linearGradient-3">
            <stop stop-color="#D31410" offset="0%"></stop>
            <stop stop-color="#E82420" offset="2.35952048%"></stop>
            <stop stop-color="#FF3E3A" offset="48.3520243%"></stop>
            <stop stop-color="#E82420" offset="97.427492%"></stop>
            <stop stop-color="#D31410" offset="100%"></stop>
        </linearGradient>
    </defs>
    <g id="Page-2" stroke="none" stroke-width="1" fill="none" fill-rule="evenodd">
        <g id="8.-领卡成功，有权益" transform="translate(-55.000000, -108.000000)">
            <g id="bg" transform="translate(28.000000, 108.500000)">
                <g id="1" transform="translate(27.500000, 0.000000)">
                    <path d="M7.74884784,20.3276367 C10.70541,22.9943034 12.7985836,24.6975911 14.0402982,25.4375 C13.5578622,26.7708333 12.4518027,28.2708333 10.7267942,29.9375 C9.01028453,31.6041667 7.25744222,32.9375 5.46571758,33.9375 C8.43494393,36.9375 12.8267335,38.7708333 18.6487354,39.4375 C21.6925731,39.78651 25.4375644,39.4046722 29.8959876,38.2919868 L32.2317193,52.4015214 C32.2426277,52.4678806 32.2555903,52.5340801 32.2705849,52.6000101 C32.6437334,54.2427708 34.1736086,55.3997027 35.6892921,55.1840896 C59.5875751,51.8012746 83.765888,50.1098633 108.057507,50.1098633 C132.375309,50.1098633 156.873566,51.8049227 181.381015,55.1950416 C183.093901,55.3192877 184.557612,54.0648224 184.827088,52.4113706 L187.165711,38.1755823 C191.827921,39.3777747 195.725838,39.7984139 198.873216,39.4375 C204.694793,38.7708333 209.085414,36.9375 212.052728,33.9375 C210.260366,32.9375 208.506673,31.6041667 206.789101,29.9375 C205.06303,28.2708333 203.956015,26.7708333 203.472729,25.4375 C204.713972,24.6975911 206.80606,22.9943034 209.760922,20.3276367 C212.733916,17.6609701 175.322805,11.6845454 174.979545,15.7027567 C152.792733,13.3074944 130.434687,12.1098633 108.009064,12.1098633 C85.8685771,12.1098633 64.0060895,13.2772329 42.5194583,15.611972 C42.1779967,11.6505665 4.77415477,17.6609701 7.74884784,20.3276367 Z" id="Combined-Shape" fill="#B00D00"></path>
                    <g id="Group-20">
                        <path d="M17.769043,5.10986328 C11.1023763,5.77652995 5.26904297,4.10986328 0.269042969,0.109863281 C1.42301432,7.36995443 3.33333333,12.3333333 6,15 C8.66666667,17.6666667 10.589681,19.3699544 11.769043,20.1098633 C11.1023763,21.4431966 9.76904297,22.9431966 7.76904297,24.6098633 C5.76904297,26.2765299 3.76904297,27.6098633 1.76904297,28.6098633 C1.7628415,29.5922741 2.06392156,30.2900704 2.67228316,30.7032522 C5.2884296,32.480064 10.3206829,33.615601 14.769043,34.1098633 C20.769043,34.7765299 29.769043,32.7765299 41.769043,28.1098633 C41.9127395,12.7689085 41.9127395,4.60224182 41.769043,3.60986328 C41.5534981,2.12129548 40,0.5 36.3704955,1.68622364 C28.8585233,4.14134636 23.488248,4.53794278 17.769043,5.10986328 Z" id="Path-2" fill="#FB7695"></path>
                        <path d="M17.769043,6.10986328 C11.1023763,6.77652995 5.26904297,5.10986328 0.269042969,1.10986328 C1.42301432,8.36995443 3.33333333,13.3333333 6,16 C8.66666667,18.6666667 10.589681,20.3699544 11.769043,21.1098633 C11.1023763,22.4431966 9.76904297,23.9431966 7.76904297,25.6098633 C5.76904297,27.2765299 3.76904297,28.6098633 1.76904297,29.6098633 C4.43570964,32.6098633 8.76904297,34.4431966 14.769043,35.1098633 C20.769043,35.7765299 29.769043,33.7765299 41.769043,29.1098633 C41.9127395,13.7689085 41.9127395,5.60224182 41.769043,4.60986328 C41.5534981,3.12129548 40,1.5 36.3704955,2.68622364 C28.8585233,5.14134636 23.488248,5.53794278 17.769043,6.10986328 Z" id="Path-2" fill="url(#linearGradient-1)"></path>
                        <path d="M25.269043,10.1098633 C25.6023763,8.44319661 28.1023763,7.44319661 32.769043,7.10986328 C37.4357096,6.77652995 40.1023763,5.77652995 40.769043,4.10986328 C41.4357096,3.77652995 41.769043,3.94319661 41.769043,4.60986328 C41.769043,5.27652995 41.769043,6.77652995 41.769043,9.10986328 L25.269043,13.1098633 L25.269043,10.1098633 Z" id="Path-3" fill="#FB7695"></path>
                        <path d="M25.269043,11.1098633 C25.6023763,9.44319661 28.1023763,8.44319661 32.769043,8.10986328 C37.4357096,7.77652995 40.269043,6.27652995 41.269043,3.60986328 C41.6023763,4.27652995 41.769043,4.94319661 41.769043,5.60986328 C41.769043,6.27652995 41.769043,7.77652995 41.769043,10.1098633 L25.269043,14.1098633 L25.269043,11.1098633 Z" id="Path-3" fill="url(#linearGradient-2)"></path>
                    </g>
                    <g id="Group-20" transform="translate(196.500000, 18.000000) scale(-1, 1) translate(-196.500000, -18.000000) translate(175.500000, 0.000000)">
                        <path d="M17.769043,5.10986328 C11.1023763,5.77652995 5.26904297,4.10986328 0.269042969,0.109863281 C1.42301432,7.36995443 3.33333333,12.3333333 6,15 C8.66666667,17.6666667 10.589681,19.3699544 11.769043,20.1098633 C11.1023763,21.4431966 9.76904297,22.9431966 7.76904297,24.6098633 C5.76904297,26.2765299 3.76904297,27.6098633 1.76904297,28.6098633 C1.7628415,29.5922741 2.06392156,30.2900704 2.67228316,30.7032522 C5.2884296,32.480064 10.3206829,33.615601 14.769043,34.1098633 C20.769043,34.7765299 29.769043,32.7765299 41.769043,28.1098633 C41.9127395,12.7689085 41.9127395,4.60224182 41.769043,3.60986328 C41.5534981,2.12129548 40,0.5 36.3704955,1.68622364 C28.8585233,4.14134636 23.488248,4.53794278 17.769043,5.10986328 Z" id="Path-2" fill="#FB7695"></path>
                        <path d="M17.769043,6.10986328 C11.1023763,6.77652995 5.26904297,5.10986328 0.269042969,1.10986328 C1.42301432,8.36995443 3.33333333,13.3333333 6,16 C8.66666667,18.6666667 10.589681,20.3699544 11.769043,21.1098633 C11.1023763,22.4431966 9.76904297,23.9431966 7.76904297,25.6098633 C5.76904297,27.2765299 3.76904297,28.6098633 1.76904297,29.6098633 C4.43570964,32.6098633 8.76904297,34.4431966 14.769043,35.1098633 C20.769043,35.7765299 29.769043,33.7765299 41.769043,29.1098633 C41.9127395,13.7689085 41.9127395,5.60224182 41.769043,4.60986328 C41.5534981,3.12129548 40,1.5 36.3704955,2.68622364 C28.8585233,5.14134636 23.488248,5.53794278 17.769043,6.10986328 Z" id="Path-2" fill="url(#linearGradient-1)"></path>
                        <path d="M25.269043,10.1098633 C25.6023763,8.44319661 28.1023763,7.44319661 32.769043,7.10986328 C37.4357096,6.77652995 40.1023763,5.77652995 40.769043,4.10986328 C41.4357096,3.77652995 41.769043,3.94319661 41.769043,4.60986328 C41.769043,5.27652995 41.769043,6.77652995 41.769043,9.10986328 L25.269043,13.1098633 L25.269043,10.1098633 Z" id="Path-3" fill="#FB7695"></path>
                        <path d="M25.269043,11.1098633 C25.6023763,9.44319661 28.1023763,8.44319661 32.769043,8.10986328 C37.4357096,7.77652995 40.269043,6.27652995 41.269043,3.60986328 C41.6023763,4.27652995 41.769043,4.94319661 41.769043,5.60986328 C41.769043,6.27652995 41.769043,7.77652995 41.769043,10.1098633 L25.269043,14.1098633 L25.269043,11.1098633 Z" id="Path-3" fill="url(#linearGradient-2)"></path>
                    </g>
                    <path d="M25.269043,13.1098633 C26.2032515,13.6520317 26.9040174,13.8925935 27.3713406,13.8315487 C54.0207756,10.3504251 80.9866764,8.60986328 108.269043,8.60986328 C135.460708,8.60986328 162.652373,10.3388712 189.844039,13.796887 C190.382929,13.8654187 191.191263,13.6364108 192.269043,13.1098633 L189.974074,48.9113716 L189.974059,48.9113706 C189.868068,50.5648224 188.441758,51.8192877 186.788306,51.7132972 C186.724818,51.7092274 186.661475,51.7031391 186.598374,51.6950416 C160.180404,48.3049227 134.070627,46.6098633 108.269043,46.6098633 C82.4952388,46.6098633 56.7214347,48.3012746 30.9476305,51.6840972 L30.9476295,51.6840896 C29.3048688,51.8997027 27.7983591,50.7427708 27.5827461,49.1000101 C27.5740927,49.0340801 27.5676338,48.9678806 27.56338,48.9015214 L25.269043,13.1098633 Z" id="Rectangle-10" fill="#CE1748"></path>
                    <path d="M25.269043,11.1098633 C26.2032515,11.6520317 26.9040174,11.8925935 27.3713406,11.8315487 C54.0207756,8.3504251 80.9866764,6.60986328 108.269043,6.60986328 C135.460708,6.60986328 162.652373,8.3388712 189.844039,11.796887 C190.382929,11.8654187 191.191263,11.6364108 192.269043,11.1098633 L189.974074,46.9113716 L189.974059,46.9113706 C189.868068,48.5648224 188.441758,49.8192877 186.788306,49.7132972 C186.724818,49.7092274 186.661475,49.7031391 186.598374,49.6950416 C160.180404,46.3049227 134.070627,44.6098633 108.269043,44.6098633 C82.4952388,44.6098633 56.7214347,46.3012746 30.9476305,49.6840972 L30.9476295,49.6840896 C29.3048688,49.8997027 27.7983591,48.7427708 27.5827461,47.1000101 C27.5740927,47.0340801 27.5676338,46.9678806 27.56338,46.9015214 L25.269043,11.1098633 Z" id="Rectangle-10" fill="#FB7695"></path>
                    <path d="M25.269043,12.1098633 C26.2032515,12.6520317 26.9040174,12.8925935 27.3713406,12.8315487 C54.0207756,9.3504251 80.9866764,7.60986328 108.269043,7.60986328 C135.460708,7.60986328 162.652373,9.3388712 189.844039,12.796887 C190.382929,12.8654187 191.191263,12.6364108 192.269043,12.1098633 L189.974074,47.9113716 L189.974059,47.9113706 C189.868068,49.5648224 188.441758,50.8192877 186.788306,50.7132972 C186.724818,50.7092274 186.661475,50.7031391 186.598374,50.6950416 C160.180404,47.3049227 134.070627,45.6098633 108.269043,45.6098633 C82.4952388,45.6098633 56.7214347,47.3012746 30.9476305,50.6840972 L30.9476295,50.6840896 C29.3048688,50.8997027 27.7983591,49.7427708 27.5827461,48.1000101 C27.5740927,48.0340801 27.5676338,47.9678806 27.56338,47.9015214 L25.269043,12.1098633 Z" id="Rectangle-10" fill="url(#linearGradient-3)"></path>
                </g>
            </g>
        </g>
    </g>
</svg>