<svg xmlns="http://www.w3.org/2000/svg" xmlns:xlink="http://www.w3.org/1999/xlink" width="55" height="29" viewBox="0 0 55 29">
  <defs>
    <rect id="useful-a" width="58.187" height="31"/>
    <linearGradient id="useful-e" x1="0%" y1="35.572%" y2="35.572%">
      <stop offset="0%" stop-color="#FD0"/>
      <stop offset="100%" stop-color="#FFFE99"/>
    </linearGradient>
    <path id="useful-d" d="M17.0912994,1.53143645 L52.1430313,1.53143645 C55.4809845,1.53143645 58.1869303,4.23738219 58.1869303,7.57533542 L58.1869303,26.406834 L58.1869303,26.406834 C58.1869303,23.0688808 55.4809845,20.362935 52.1430313,20.362935 L17.0912994,20.362935 C11.8911247,20.362935 7.67555013,16.1473605 7.67555013,10.9471857 L7.67555013,10.9471857 C7.67555013,5.747011 11.8911247,1.53143645 17.0912994,1.53143645 Z"/>
    <filter id="useful-c" width="117.8%" height="140.2%" x="-12.9%" y="-10.1%" filterUnits="objectBoundingBox">
      <feOffset dx="-2" dy="3" in="SourceAlpha" result="shadowOffsetOuter1"/>
      <feGaussianBlur in="shadowOffsetOuter1" result="shadowBlurOuter1" stdDeviation="1"/>
      <feColorMatrix in="shadowBlurOuter1" values="0 0 0 0 0.899606718   0 0 0 0 0.310003634   0 0 0 0 0.210508114  0 0 0 1 0"/>
    </filter>
  </defs>
  <g fill="none" fill-rule="evenodd" transform="translate(-3.287 -1.5)">
    <mask id="useful-b" fill="#fff">
      <use xlink:href="#useful-a"/>
    </mask>
    <g mask="url(#useful-b)">
      <use fill="#000" filter="url(#useful-c)" xlink:href="#useful-d"/>
      <use fill="url(#useful-e)" xlink:href="#useful-d"/>
    </g>
    <path fill="#000" d="M22.003825,7.12806794 L22.705825,7.37106794 C22.327825,8.13606794 21.823825,9.00906794 21.418825,9.59406794 L20.842825,9.36006794 C21.238825,8.77506794 21.733825,7.82106794 22.003825,7.12806794 Z M17.710825,9.25206794 L17.071825,9.53106794 C16.882825,8.95506794 16.396825,8.08206794 15.928825,7.45206794 L16.513825,7.20906794 C17.017825,7.83906794 17.503825,8.68506794 17.710825,9.25206794 Z M19.654825,6.81306794 L19.654825,9.98106794 L22.588825,9.98106794 L22.588825,15.0390679 L21.895825,15.0390679 L21.895825,14.6430679 L15.874825,14.6430679 L15.874825,13.9860679 L21.895825,13.9860679 L21.895825,12.5910679 L16.342825,12.5910679 L16.342825,11.9430679 L21.895825,11.9430679 L21.895825,10.6380679 L16.045825,10.6380679 L16.045825,9.98106794 L18.934825,9.98106794 L18.934825,6.81306794 L19.654825,6.81306794 Z M28.636825,9.71106794 L32.236825,9.71106794 C32.236825,9.71106794 32.227825,9.94506794 32.209825,10.0260679 C32.029825,13.1760679 31.840825,14.2740679 31.525825,14.6520679 C31.354825,14.8590679 31.183825,14.9310679 30.922825,14.9490679 C30.706825,14.9760679 30.346825,14.9760679 29.959825,14.9580679 C29.950825,14.7690679 29.887825,14.4990679 29.788825,14.3190679 C30.157825,14.3550679 30.481825,14.3640679 30.643825,14.3640679 C30.787825,14.3640679 30.868825,14.3460679 30.949825,14.2290679 C31.192825,13.9860679 31.372825,12.9600679 31.543825,10.3410679 L30.931825,10.3410679 C30.319825,12.4470679 29.248825,14.0130679 27.727825,15.0300679 C27.619825,14.9220679 27.367825,14.7240679 27.214825,14.6430679 C28.735825,13.7430679 29.752825,12.2580679 30.310825,10.3410679 L29.554825,10.3410679 C29.149825,11.4930679 28.420825,12.4380679 27.556825,13.0590679 C27.475825,12.9600679 27.232825,12.7890679 27.088825,12.6900679 L27.106825,12.7620679 C26.161825,13.1400679 25.153825,13.5450679 24.370825,13.8420679 L24.154825,13.1670679 C24.487825,13.0590679 24.910825,12.9150679 25.378825,12.7440679 L25.378825,9.63006794 L24.280825,9.63006794 L24.280825,9.00006794 L25.378825,9.00006794 L25.378825,6.92106794 L26.008825,6.92106794 L26.008825,9.00006794 L26.998825,9.00006794 L26.998825,9.63006794 L26.008825,9.63006794 L26.008825,12.5190679 L26.971825,12.1590679 L27.088825,12.6720679 C27.898825,12.1410679 28.546825,11.3220679 28.915825,10.3410679 L28.285825,10.3410679 C27.871825,10.3410679 27.574825,10.3770679 27.502825,10.4490679 C27.457825,10.3050679 27.313825,9.98106794 27.223825,9.81906794 C27.448825,9.78306794 27.772825,9.60306794 28.123825,9.37806794 C28.420825,9.18906794 29.293825,8.58606794 30.067825,7.87506794 L27.178825,7.87506794 L27.178825,7.23606794 L30.787825,7.23606794 L30.913825,7.18206794 L31.417825,7.56006794 C30.463825,8.42406794 29.518825,9.14406794 28.636825,9.71106794 Z M37.249825,10.0800679 L34.900825,10.0800679 L34.900825,12.1320679 L37.249825,12.1320679 L37.249825,10.0800679 Z M37.906825,12.7710679 L34.900825,12.7710679 L34.900825,13.4910679 L34.252825,13.4910679 L34.252825,9.43206794 L37.906825,9.43206794 L37.906825,12.7710679 Z M41.299825,7.45206794 L41.299825,8.11806794 L40.192825,8.11806794 L40.192825,14.0760679 C40.192825,14.5620679 40.075825,14.7960679 39.733825,14.8950679 C39.373825,15.0210679 38.752825,15.0210679 37.870825,15.0210679 C37.825825,14.8320679 37.690825,14.4990679 37.582825,14.3100679 C38.302825,14.3460679 39.040825,14.3370679 39.247825,14.3280679 C39.445825,14.3190679 39.508825,14.2560679 39.508825,14.0670679 L39.508825,8.11806794 L33.334825,8.11806794 L33.334825,7.45206794 L41.299825,7.45206794 Z M46.681825,11.6550679 L49.102825,11.6550679 L49.102825,10.1610679 L46.681825,10.1610679 L46.681825,11.6550679 Z M43.828825,11.6550679 L46.015825,11.6550679 L46.015825,10.1610679 L43.864825,10.1610679 L43.864825,10.6920679 C43.864825,10.9890679 43.855825,11.3220679 43.828825,11.6550679 Z M46.015825,8.09106794 L43.864825,8.09106794 L43.864825,9.53106794 L46.015825,9.53106794 L46.015825,8.09106794 Z M49.102825,9.53106794 L49.102825,8.09106794 L46.681825,8.09106794 L46.681825,9.53106794 L49.102825,9.53106794 Z M49.759825,7.45206794 L49.759825,14.1300679 C49.759825,14.5620679 49.642825,14.7600679 49.354825,14.8770679 C49.048825,14.9850679 48.526825,14.9940679 47.680825,14.9850679 C47.653825,14.8050679 47.545825,14.5170679 47.455825,14.3370679 C48.085825,14.3640679 48.697825,14.3550679 48.859825,14.3550679 C49.039825,14.3460679 49.102825,14.2920679 49.102825,14.1210679 L49.102825,12.2940679 L46.681825,12.2940679 L46.681825,14.9490679 L46.015825,14.9490679 L46.015825,12.2940679 L43.765825,12.2940679 C43.630825,13.2930679 43.324825,14.3190679 42.640825,15.0840679 C42.541825,14.9490679 42.271825,14.7240679 42.127825,14.6430679 C43.117825,13.5270679 43.207825,11.9430679 43.207825,10.6920679 L43.207825,7.45206794 L49.759825,7.45206794 Z" mask="url(#useful-b)"/>
    <path fill="#C89908" d="M57.352431,21.0800428 L58.1824764,20.7904053 L58.1824764,30.267334 L57.3080119,29.9234612 C55.4659178,29.1990797 54.2546997,27.4212804 54.2546997,25.4418767 L54.2546997,25.4418767 C54.2546997,23.4771396 55.4973862,21.7273455 57.352431,21.0800428 Z" mask="url(#useful-b)" transform="matrix(-1 0 0 1 112.437 0)"/>
  </g>
</svg>
