<?xml version="1.0" encoding="UTF-8"?>
<svg width="176px" height="28px" viewBox="0 0 176 28" version="1.1" xmlns="http://www.w3.org/2000/svg" xmlns:xlink="http://www.w3.org/1999/xlink">
    <!-- Generator: Sketch 47 (45396) - http://www.bohemiancoding.com/sketch -->
    <title>vip-spit</title>
    <desc>Created with Sketch.</desc>
    <defs></defs>
    <g id="Page-2" stroke="none" stroke-width="1" fill="none" fill-rule="evenodd">
        <g id="5.-仅领卡（点击后判断手机号）" transform="translate(-71.000000, -276.000000)">
            <g id="vip-spit" transform="translate(72.000000, 275.500000)">
                <circle id="Oval-9" fill="#000000" cx="37" cy="19.5" r="9"></circle>
                <circle id="Oval-9" fill="#000000" cx="57" cy="19.5" r="9"></circle>
                <circle id="Oval-9" fill="#000000" cx="77" cy="19.5" r="9"></circle>
                <circle id="Oval-9" fill="#000000" cx="97" cy="19.5" r="9"></circle>
                <circle id="Oval-9" fill="#000000" cx="117" cy="19.5" r="9"></circle>
                <circle id="Oval-9" fill="#000000" cx="137" cy="19.5" r="9"></circle>
                <path d="M36.6152344,14.8417969 C36.8951837,15.2975283 37.197915,15.6995425 37.5234375,16.0478516 C37.84896,16.3961606 38.1695948,16.6614574 38.4853516,16.84375 C38.8011083,17.0260426 39.1917294,17.2115876 39.6572266,17.4003906 C40.1227237,17.5891937 40.3717446,17.781249 40.4042969,17.9765625 C40.4368491,18.171876 40.3912767,18.3769521 40.2675781,18.5917969 C40.1438796,18.8066417 39.9062518,18.8717452 39.5546875,18.7871094 C39.430989,18.7610676 39.1966163,18.6520192 38.8515625,18.4599609 C38.5065087,18.2679027 38.2216808,18.0921232 37.9970703,17.9326172 C37.7724598,17.7731112 37.5429699,17.5826834 37.3085937,17.3613281 C37.0742176,17.1399729 36.8610036,16.9153657 36.6689453,16.6875 C36.4768871,16.4596343 36.2604179,16.1406271 36.0195312,15.7304688 C35.6809879,16.1796897 35.3391944,16.5882143 34.9941406,16.9560547 C34.6490868,17.3238951 34.1559277,17.730792 33.5146484,18.1767578 C32.8733692,18.6227236 32.4583343,18.8587238 32.2695312,18.8847656 C31.976561,18.9303388 31.7779953,18.8570973 31.6738281,18.6650391 C31.5696609,18.4729808 31.5273437,18.3085944 31.546875,18.171875 C31.5664063,18.0611974 31.6119788,17.97168 31.6835937,17.9033203 C31.7552087,17.8349606 31.9586572,17.7275398 32.2939453,17.5810547 C32.6292334,17.4345696 33.0263649,17.1578796 33.4853516,16.7509766 C33.9443382,16.3440735 34.2893869,15.982749 34.5205078,15.6669922 C34.7516288,15.3512354 34.9095048,15.1152352 34.9941406,14.9589844 L35.1699219,14.6074219 C35.2936204,14.3730457 35.4287102,14.2281904 35.5751953,14.1728516 C35.7216804,14.1175127 35.9121082,14.1256507 36.1464844,14.1972656 C36.3417979,14.2623701 36.4785152,14.3518875 36.5566406,14.4658203 C36.634766,14.5797532 36.6608074,14.6822912 36.6347656,14.7734375 L36.6152344,14.8417969 Z M37.5625,18.9335938 L34.2910156,18.9335938 C34.180338,18.9335938 34.0761724,18.8863937 33.9785156,18.7919922 C33.8808589,18.6975907 33.8304037,18.573894 33.8271484,18.4208984 C33.8238932,18.2679029 33.8776036,18.1360683 33.9882812,18.0253906 C34.0989589,17.914713 34.2161452,17.859375 34.3398437,17.859375 L37.5625,17.859375 C37.7122403,17.859375 37.8473301,17.9212233 37.9677734,18.0449219 C38.0882167,18.1686204 38.1321616,18.3216137 38.0996094,18.5039063 C38.0735676,18.6210943 38.0133468,18.7220048 37.9189453,18.8066406 C37.8245438,18.8912765 37.7057299,18.9335938 37.5625,18.9335938 Z M36.0488281,20.7011719 C36.1269535,20.7858077 36.1627604,20.8671871 36.15625,20.9453125 C36.1432291,21.0429692 36.0520842,21.1650383 35.8828125,21.3115234 C35.7135408,21.4580085 35.3326853,21.8209606 34.7402344,22.4003906 C35.5931032,22.3678384 36.5631456,22.2832038 37.6503906,22.1464844 C37.4550771,21.9446604 37.2988287,21.7981775 37.1816406,21.7070313 C37.0644525,21.615885 36.9863283,21.5377607 36.9472656,21.4726563 C36.9082029,21.4075518 36.9016926,21.319662 36.9277344,21.2089844 C36.9407553,21.130859 36.9993484,21.0397141 37.1035156,20.9355469 C37.2076828,20.8313797 37.3378898,20.7727865 37.4941406,20.7597656 C37.7871108,20.7532552 38.1679664,20.9941382 38.6367187,21.4824219 C39.1054711,21.9707056 39.3951817,22.2994783 39.5058594,22.46875 C39.616537,22.6380217 39.6735026,22.7958977 39.6767578,22.9423828 C39.680013,23.0888679 39.6197923,23.2174474 39.4960937,23.328125 C39.3723952,23.4388026 39.2486985,23.5039062 39.125,23.5234375 C39.0143224,23.5494793 38.9166671,23.5445965 38.8320312,23.5087891 C38.7473954,23.4729816 38.6074229,23.3248711 38.4121094,23.0644531 C37.2206972,23.2402353 36.1302133,23.3623043 35.140625,23.4306641 C34.1510367,23.4990238 33.5846361,23.5299479 33.4414062,23.5234375 C33.2395823,23.5234375 33.0865891,23.4908857 32.9824219,23.4257813 C32.8782547,23.3606768 32.8082684,23.2386077 32.7724609,23.0595703 C32.7366535,22.880533 32.7610673,22.7096362 32.8457031,22.546875 C32.8912763,22.4622392 32.9417315,22.3955081 32.9970703,22.3466797 C33.0524091,22.2978513 33.2200507,22.180665 33.5,21.9951172 C33.7799493,21.8095694 34.1966118,21.3782586 34.75,20.7011719 L32.5332031,20.7011719 C32.3509105,20.7011719 32.2093104,20.6376959 32.1083984,20.5107422 C32.0074865,20.3837884 31.9602864,20.2584642 31.9667969,20.1347656 C31.9667969,20.0045566 32.0237625,19.8841151 32.1376953,19.7734375 C32.2516282,19.6627599 32.386718,19.6074219 32.5429687,19.6074219 L39.359375,19.6074219 C39.5091153,19.6074219 39.6425775,19.6595047 39.7597656,19.7636719 C39.8769537,19.8678391 39.9355469,19.9980461 39.9355469,20.1542969 C39.9290364,20.3561208 39.8623053,20.4977209 39.7353516,20.5791016 C39.6083978,20.6604822 39.4863287,20.7011719 39.3691406,20.7011719 L36.0488281,20.7011719 Z M51.7382812,22.6445313 C51.7838544,22.5338536 51.8505855,22.457357 51.9384766,22.4150391 C52.0263676,22.3727211 52.1598298,22.3483073 52.3388672,22.3417969 C52.5179045,22.3352864 52.9134084,22.2766933 53.5253906,22.1660156 C54.1373729,22.055338 54.5833319,21.8372412 54.8632812,21.5117188 C55.1432306,21.1861963 55.3108721,20.9192719 55.3662109,20.7109375 C55.4215498,20.5026031 55.4589843,20.3186857 55.4785156,20.1591797 C55.498047,19.9996737 55.5045573,19.8466804 55.4980469,19.7001953 C55.4915364,19.5537102 55.4980468,19.4414066 55.5175781,19.3632813 C55.5371095,19.2851559 55.6038406,19.2054041 55.7177734,19.1240234 C55.8317063,19.0426428 55.9733064,19.0052083 56.1425781,19.0117188 C56.3509125,19.0247396 56.5006506,19.0817052 56.5917969,19.1826172 C56.6829432,19.2835292 56.7301432,19.4023431 56.7333984,19.5390625 C56.7366537,19.6757819 56.7317709,19.8092441 56.71875,19.9394531 C56.6927082,20.1022144 56.6520185,20.3138008 56.5966797,20.5742188 C56.5413409,20.8346367 56.4469408,21.1357405 56.3134766,21.4775391 C56.1800124,21.8193376 55.9781915,22.0927724 55.7080078,22.2978516 C55.4378242,22.5029307 55.0683617,22.7128896 54.5996094,22.9277344 C54.130857,23.1425792 53.6637393,23.2988276 53.1982422,23.3964844 C52.7327451,23.4941411 52.4316413,23.5397136 52.2949219,23.5332031 C51.9693994,23.5332031 51.7805992,23.419272 51.7285156,23.1914063 C51.676432,22.9635405 51.6796872,22.7812507 51.7382812,22.6445313 Z M57.2265625,21.140625 C57.2591147,21.1536459 57.7669222,21.3538392 58.75,21.7412109 C59.7330778,22.1285827 60.273437,22.3776036 60.3710937,22.4882813 C60.4687505,22.5989589 60.5192057,22.7080073 60.5224609,22.8154297 C60.5257162,22.9228521 60.4980472,23.0319005 60.4394531,23.1425781 C60.3287755,23.3509125 60.1757822,23.4550781 59.9804687,23.4550781 C59.8567702,23.4615886 59.7477218,23.4453127 59.6533203,23.40625 C59.5589188,23.3671873 59.3196634,23.2565113 58.9355469,23.0742188 C58.5514304,22.8919262 58.0680368,22.6901053 57.4853516,22.46875 C56.9026664,22.2473947 56.5820315,22.0878911 56.5234375,21.9902344 C56.4648435,21.8925776 56.4388021,21.7916672 56.4453125,21.6875 C56.4453125,21.5898433 56.5022781,21.4547535 56.6162109,21.2822266 C56.7301438,21.1096997 56.9335923,21.0624996 57.2265625,21.140625 Z M59.6972656,18.9335938 L59.6972656,20.90625 C59.6972656,21.1080739 59.6419276,21.2692051 59.53125,21.3896484 C59.4205724,21.5100917 59.2154963,21.5735677 58.9160156,21.5800781 C58.616535,21.5865886 58.4667969,21.3619814 58.4667969,20.90625 L58.4667969,19.2949219 C58.4667969,19.1126293 58.4407555,18.9759119 58.3886719,18.8847656 C58.3365883,18.7936193 58.1868502,18.7480469 57.9394531,18.7480469 L54.2578125,18.7480469 C53.9908841,18.7480469 53.8330081,18.7985021 53.7841797,18.8994141 C53.7353513,19.000326 53.7109375,19.1321606 53.7109375,19.2949219 L53.7109375,21.0625 C53.7109375,21.3098971 53.645834,21.4873042 53.515625,21.5947266 C53.385416,21.702149 53.2421883,21.7526042 53.0859375,21.7460938 C52.9036449,21.7395833 52.757162,21.6761074 52.6464844,21.5556641 C52.5358067,21.4352208 52.4804687,21.2708344 52.4804687,21.0625 L52.4804687,18.9335938 C52.4804687,18.6861967 52.5276688,18.4208999 52.6220703,18.1376953 C52.7164718,17.8544908 53.118486,17.7128906 53.828125,17.7128906 L58.3007812,17.7128906 C58.8411485,17.7128906 59.1845696,17.7779941 59.3310547,17.9082031 C59.4775398,18.0384121 59.5751951,18.1669916 59.6240234,18.2939453 C59.6728518,18.4208991 59.6972656,18.6341131 59.6972656,18.9335938 Z M57.8027344,17.3613281 L54.3066406,17.3613281 C53.5904912,17.3613281 53.1835942,17.2246107 53.0859375,16.9511719 C52.9882808,16.677733 52.9394531,16.43685 52.9394531,16.2285156 L52.9394531,15.7695313 C52.9394531,15.3203103 53.0403636,14.9980479 53.2421875,14.8027344 C53.4440114,14.6074209 53.8216118,14.5097656 54.375,14.5097656 L57.734375,14.5097656 C58.3789095,14.5097656 58.7646478,14.5878898 58.8916016,14.7441406 C59.0185553,14.9003914 59.0999347,15.0712881 59.1357422,15.2568359 C59.1715497,15.4423837 59.1894531,15.6165356 59.1894531,15.7792969 L59.1894531,16.2089844 C59.1894531,16.4628919 59.1373703,16.7184232 59.0332031,16.9755859 C58.9290359,17.2327487 58.5188838,17.3613281 57.8027344,17.3613281 Z M54.6386719,16.3261719 L57.5195312,16.3261719 C57.7148447,16.3261719 57.8499345,16.309896 57.9248047,16.2773438 C57.9996749,16.2447915 58.0371094,16.1503914 58.0371094,15.9941406 L58.0371094,15.8671875 C58.0371094,15.743489 57.9996749,15.660482 57.9248047,15.6181641 C57.8499345,15.5758461 57.7148447,15.5546875 57.5195312,15.5546875 L54.6582031,15.5546875 C54.4173165,15.5546875 54.2659508,15.5839841 54.2041016,15.6425781 C54.1422523,15.7011722 54.1113281,15.7858067 54.1113281,15.8964844 L54.1113281,15.9941406 C54.1113281,16.0852869 54.1389971,16.1634111 54.1943359,16.2285156 C54.2496748,16.2936201 54.3977853,16.3261719 54.6386719,16.3261719 Z M75.171875,17.5566406 C75.2630213,17.2766913 75.3151041,17.1009118 75.328125,17.0292969 L75.4160156,16.5800781 L73.4140625,16.5800781 C73.2708326,16.5800781 73.1455083,16.5328781 73.0380859,16.4384766 C72.9306635,16.344075 72.8753255,16.2106128 72.8720703,16.0380859 C72.8688151,15.865559 72.9208979,15.7272141 73.0283203,15.6230469 C73.1357427,15.5188797 73.2643222,15.4667969 73.4140625,15.4667969 L75.6503906,15.4667969 C75.6829429,15.2975252 75.7073567,15.1315112 75.7236328,14.96875 C75.7399089,14.8059888 75.778971,14.6497403 75.8408203,14.5 C75.9026696,14.3502597 76.1126284,14.301432 76.4707031,14.3535156 C76.7506524,14.3990888 76.9280595,14.4707026 77.0029297,14.5683594 C77.0777999,14.6660161 77.1054688,14.7962231 77.0859375,14.9589844 C77.0664062,15.0761725 77.0240889,15.2454416 76.9589844,15.4667969 L79.5175781,15.4667969 C79.6673185,15.4667969 79.7910151,15.5237625 79.8886719,15.6376953 C79.9863286,15.7516282 80.0351562,15.8834628 80.0351562,16.0332031 C80.0286458,16.1829435 79.9781906,16.3115229 79.8837891,16.4189453 C79.7893875,16.5263677 79.6673185,16.5800781 79.5175781,16.5800781 L76.7050781,16.5800781 C76.6269527,16.8990901 76.5455733,17.2246077 76.4609375,17.5566406 L80.3867187,17.5566406 C80.54948,17.5566406 80.6764318,17.6136062 80.7675781,17.7275391 C80.8587244,17.8414719 80.9042969,17.9798169 80.9042969,18.1425781 C80.8977864,18.2923185 80.8505864,18.4192703 80.7626953,18.5234375 C80.6748042,18.6276047 80.54948,18.6796875 80.3867187,18.6796875 L76.1875,18.6796875 L76.0605469,19.0605469 C76.0214842,19.177735 76.0100911,19.2509764 76.0263672,19.2802734 C76.0426433,19.3095705 76.063802,19.3274739 76.0898437,19.3339844 C76.1158855,19.3404948 76.1940098,19.34375 76.3242187,19.34375 L78.3554687,19.34375 C78.7005226,19.34375 78.9576814,19.3746742 79.1269531,19.4365234 C79.2962248,19.4983727 79.4231767,19.5992832 79.5078125,19.7392578 C79.5924483,19.8792325 79.6184897,20.0338533 79.5859375,20.203125 C79.5273435,20.4505221 79.0423223,21.0624951 78.1308594,22.0390625 C78.6516953,22.2864596 78.960937,22.4459632 79.0585937,22.5175781 C79.1562505,22.5891931 79.2327471,22.699869 79.2880859,22.8496094 C79.3434248,22.9993497 79.2978523,23.1914051 79.1513672,23.4257813 C79.0048821,23.6601574 78.7591163,23.7252609 78.4140625,23.6210938 C78.3164058,23.595052 78.1569021,23.5185553 77.9355469,23.3916016 C77.7141916,23.2646478 77.361005,23.0888683 76.8759766,22.8642578 C76.3909481,22.6396473 76.0312512,22.4785161 75.796875,22.3808594 L74.9570312,22.0585938 C74.7877596,21.9999997 74.6770836,21.9348962 74.625,21.8632813 C74.5729164,21.7916663 74.5371095,21.6891283 74.5175781,21.5556641 C74.4980468,21.4221999 74.5305985,21.2822273 74.6152344,21.1357422 C74.6998702,20.9892571 74.8203117,20.8964846 74.9765625,20.8574219 C75.0807297,20.8378905 75.3069644,20.8948561 75.6552734,21.0283203 C76.0035825,21.1617845 76.467445,21.345702 77.046875,21.5800781 C77.3528661,21.3001288 77.5742181,21.0755217 77.7109375,20.90625 L77.9257812,20.6328125 C77.9713544,20.5742185 77.992513,20.5319012 77.9892578,20.5058594 C77.9860026,20.4798176 77.9729819,20.4554038 77.9501953,20.4326172 C77.9274087,20.4098306 77.8346362,20.3984375 77.671875,20.3984375 L75.5136719,20.3984375 C75.0123673,20.3984375 74.7307946,20.3007822 74.6689453,20.1054688 C74.607096,19.9101553 74.5859374,19.7506517 74.6054687,19.6269531 C74.6119792,19.5488277 74.6608068,19.3763034 74.7519531,19.109375 L74.8984375,18.6796875 L72.5644531,18.6796875 C72.4212232,18.6796875 72.295899,18.6324875 72.1884766,18.5380859 C72.0810542,18.4436844 72.0273437,18.3118498 72.0273437,18.1425781 C72.0273437,17.9733064 72.077799,17.8365891 72.1787109,17.7324219 C72.2796229,17.6282547 72.4082023,17.5729167 72.5644531,17.5664063 L75.171875,17.5566406 Z M94.0546875,16.8339844 C94.0546875,16.9381516 94.0530599,17.1057931 94.0498047,17.3369141 C94.0465495,17.568035 94.0384115,18.0546838 94.0253906,18.796875 C94.0123697,19.5390662 93.9830731,20.1705703 93.9375,20.6914063 C93.8919269,21.2122422 93.8235682,21.5947253 93.7324219,21.8388672 C93.6412756,22.083009 93.53711,22.33203 93.4199219,22.5859375 C93.3027338,22.839845 93.1708992,23.0481763 93.0244141,23.2109375 C92.877929,23.3736987 92.6647149,23.3574229 92.3847656,23.1621094 C92.3001298,23.1100258 92.2285159,23.0286464 92.1699219,22.9179688 C92.1113278,22.8072911 92.0917968,22.6738289 92.1113281,22.5175781 C92.1178386,22.4264318 92.1536455,22.3157559 92.21875,22.1855469 L92.3847656,21.8632813 C92.534506,21.5507797 92.6500647,21.2106138 92.7314453,20.8427734 C92.8128259,20.4749331 92.860026,20.0403671 92.8730469,19.5390625 C92.8860678,19.0377579 92.8925781,18.4908884 92.8925781,17.8984375 L92.8828125,15.5644531 C92.8763021,15.2519516 92.9609366,15.0143237 93.1367187,14.8515625 C93.3125009,14.6888013 93.6933564,14.6074219 94.2792969,14.6074219 L99.5039062,14.6074219 C99.9661481,14.6074219 100.277017,14.6708978 100.436523,14.7978516 C100.596029,14.9248053 100.698567,15.0729158 100.744141,15.2421875 C100.789714,15.4114592 100.8125,15.5416662 100.8125,15.6328125 L100.8125,15.8964844 C100.8125,16.0136725 100.792969,16.1422519 100.753906,16.2822266 C100.714844,16.4222012 100.628581,16.5491531 100.495117,16.6630859 C100.361653,16.7770188 100.031253,16.8339844 99.5039062,16.8339844 L94.0546875,16.8339844 Z M94.0546875,15.984375 L99.4550781,15.984375 C99.6243498,15.984375 99.7089844,15.929037 99.7089844,15.8183594 L99.7089844,15.7304688 C99.7089844,15.6002598 99.6145843,15.5351563 99.4257812,15.5351563 L94.3769531,15.5351563 C94.1751292,15.5351563 94.0709636,15.5611977 94.0644531,15.6132813 C94.0579427,15.6653648 94.0546875,15.7109373 94.0546875,15.75 L94.0546875,15.984375 Z M98.1464844,17.9375 L98.1464844,18.2890625 L99.1425781,18.2890625 C99.9563843,18.2890625 100.363281,18.5690076 100.363281,19.1289063 L100.363281,19.3925781 C100.363281,19.5227871 100.338867,19.6481114 100.290039,19.7685547 C100.241211,19.888998 100.151693,20.0013016 100.021484,20.1054688 C99.8912754,20.2096359 99.5950544,20.2617188 99.1328125,20.2617188 L98.1464844,20.2714844 L98.1464844,20.6035156 L99.8359375,20.59375 C100.330732,20.59375 100.682291,20.6751294 100.890625,20.8378906 C101.098959,21.0006519 101.203125,21.2545556 101.203125,21.5996094 L101.203125,22.9375 C101.203125,23.1783866 101.128256,23.3346351 100.978516,23.40625 C100.828775,23.4778649 100.633465,23.5364581 100.392578,23.5820313 C100.151692,23.6276044 99.9856775,23.6406251 99.8945312,23.6210938 C99.7187491,23.6015624 99.5999352,23.5462244 99.5380859,23.4550781 C99.4762367,23.3639318 99.4436849,23.2386076 99.4404297,23.0791016 C99.4371745,22.9195956 99.4648435,22.8040368 99.5234375,22.7324219 C99.5755211,22.6608069 99.6259763,22.6201172 99.6748047,22.6103516 C99.7236331,22.6005859 99.7887366,22.5940755 99.8701172,22.5908203 C99.9514978,22.5875651 100.006836,22.5712892 100.036133,22.5419922 C100.06543,22.5126952 100.080078,22.4524744 100.080078,22.3613281 L100.080078,21.7167969 C100.080078,21.5800774 99.9889332,21.5084636 99.8066406,21.5019531 L99.1425781,21.4921875 C99.2662767,21.687501 99.3688147,21.8583977 99.4501953,22.0048828 C99.5315759,22.1513679 99.5657553,22.2897129 99.5527344,22.4199219 C99.5397135,22.5110682 99.4908858,22.6038407 99.40625,22.6982422 C99.3216142,22.7926437 99.1914071,22.8300782 99.015625,22.8105469 C98.9049474,22.8040364 98.8203128,22.7454433 98.7617187,22.6347656 C98.5533844,22.6738283 98.1106805,22.7438146 97.4335937,22.8447266 C96.756507,22.9456385 96.3333342,22.9798179 96.1640625,22.9472656 C96.0533849,22.9342447 95.9622399,22.8951826 95.890625,22.8300781 C95.8190101,22.7649736 95.7750652,22.6868494 95.7587891,22.5957031 C95.7425129,22.5045568 95.7522785,22.4069016 95.7880859,22.3027344 C95.8238934,22.1985672 95.8938797,22.120443 95.9980469,22.0683594 C96.04362,22.048828 96.1770822,22.0390625 96.3984375,22.0390625 L96.7695312,22.0195313 L97.0136719,22.0292969 L97.0136719,21.4921875 L95.5683594,21.5019531 C95.4121086,21.5084636 95.3339844,21.5865878 95.3339844,21.7363281 L95.3339844,23.09375 C95.3339844,23.1914067 95.2900395,23.2858068 95.2021484,23.3769531 C95.1142574,23.4680994 94.9791676,23.5201822 94.796875,23.5332031 C94.6145824,23.546224 94.477865,23.4957688 94.3867187,23.3818359 C94.2955725,23.2679031 94.25,23.165365 94.25,23.0742188 L94.25,21.6191406 C94.25,20.9355435 94.6634073,20.59375 95.4902344,20.59375 L97.0136719,20.6035156 L97.0136719,20.2714844 L95.9785156,20.2617188 C95.3990856,20.2617188 95.062175,20.1624359 94.9677734,19.9638672 C94.8733719,19.7652985 94.8261719,19.5846362 94.8261719,19.421875 L94.8261719,19.1289063 C94.8261719,18.8229151 94.9238271,18.6064459 95.1191406,18.4794922 C95.3144541,18.3525384 95.6074199,18.2890625 95.9980469,18.2890625 L97.0136719,18.2890625 L97.0136719,17.9570313 C96.8444002,17.9570313 96.3072962,17.9635416 95.4023437,17.9765625 C94.9140601,17.9895834 94.6145839,17.9472661 94.5039062,17.8496094 C94.3932286,17.7519526 94.3509113,17.6119801 94.3769531,17.4296875 C94.389974,17.3124994 94.4274085,17.2262373 94.4892578,17.1708984 C94.5511071,17.1155596 94.6634106,17.0813803 94.8261719,17.0683594 C94.9042973,17.0683594 95.0849595,17.0764973 95.3681641,17.0927734 C95.6513686,17.1090496 96.0013,17.1139323 96.4179687,17.1074219 L97.3164062,17.1074219 C97.7395854,17.1074219 98.1578755,17.0927736 98.5712891,17.0634766 C98.9847026,17.0341795 99.2971995,17.0097657 99.5087891,16.9902344 C99.7203787,16.970703 99.8587236,16.9576823 99.9238281,16.9511719 C100.073568,16.9511719 100.189127,16.9723305 100.270508,17.0146484 C100.351888,17.0569664 100.416992,17.133463 100.46582,17.2441406 C100.514649,17.3548183 100.535807,17.4492184 100.529297,17.5273438 C100.503255,17.690105 100.395834,17.7942706 100.207031,17.8398438 C100.018228,17.8854169 99.3313861,17.9179687 98.1464844,17.9375 Z M97.0234375,19.4609375 L97.0136719,19.0800781 L96.0957031,19.0800781 C95.9394523,19.0800781 95.8613281,19.1289058 95.8613281,19.2265625 L95.8613281,19.3144531 C95.8613281,19.4121099 95.9296868,19.4609375 96.0664062,19.4609375 L97.0234375,19.4609375 Z M98.1464844,21.4921875 L98.1464844,21.9707031 L98.4199219,21.9316406 C98.4003905,21.8990884 98.3857422,21.8665366 98.3759766,21.8339844 C98.3662109,21.8014321 98.3629557,21.7591148 98.3662109,21.7070313 C98.3694662,21.6549477 98.4296869,21.586589 98.546875,21.5019531 L98.1464844,21.4921875 Z M98.1464844,19.4609375 L99.0253906,19.4609375 C99.1816414,19.4609375 99.2597656,19.415365 99.2597656,19.3242188 L99.2597656,19.2265625 C99.2597656,19.1289058 99.1718759,19.0800781 98.9960937,19.0800781 L98.1464844,19.0800781 L98.1464844,19.4609375 Z M118.601562,19.9003906 C118.770834,19.5748682 118.944986,19.2119161 119.124023,18.8115234 C119.303061,18.4111308 119.443033,17.9537786 119.543945,17.4394531 C119.644857,16.9251276 119.692057,16.6321618 119.685547,16.5605469 C119.672526,16.5149737 119.65625,16.4807944 119.636719,16.4580078 C119.617187,16.4352212 119.555339,16.4238281 119.451172,16.4238281 L116.648437,16.4238281 C116.505208,16.4238281 116.376628,16.3766281 116.262695,16.2822266 C116.148762,16.187825 116.090169,16.0641284 116.086914,15.9111328 C116.083659,15.7581373 116.135742,15.6214199 116.243164,15.5009766 C116.350586,15.3805333 116.485676,15.3203125 116.648437,15.3203125 L119.529297,15.3203125 C120.225915,15.3203125 120.626302,15.4163402 120.730469,15.6083984 C120.834636,15.8004567 120.889974,15.9420568 120.896484,16.0332031 C120.902995,16.1243494 120.902995,16.2513013 120.896484,16.4140625 L120.886719,16.5996094 C120.860677,16.9316423 120.774415,17.3596979 120.62793,17.8837891 C120.481445,18.4078802 120.334962,18.8538393 120.188477,19.2216797 C120.041991,19.5895201 119.757164,20.1412724 119.333984,20.8769531 C119.659507,21.2350278 119.968749,21.506835 120.261719,21.6923828 C120.554689,21.8779306 120.833006,22.0309239 121.09668,22.1513672 C121.360353,22.2718105 121.518229,22.3857417 121.570312,22.4931641 C121.622396,22.6005865 121.645182,22.7031245 121.638672,22.8007813 C121.619141,22.9635425 121.544271,23.103515 121.414062,23.2207031 C121.283854,23.3378912 121.12435,23.3867188 120.935547,23.3671875 C120.662108,23.3476562 120.295901,23.1751318 119.836914,22.8496094 C119.377927,22.5240869 118.959637,22.1692728 118.582031,21.7851563 C117.950518,22.2929713 117.411786,22.6754544 116.96582,22.9326172 C116.519855,23.1897799 116.192709,23.3248697 115.984375,23.3378906 C115.710936,23.3639324 115.523764,23.3020841 115.422852,23.1523438 C115.32194,23.0026034 115.277995,22.8626309 115.291016,22.7324219 C115.297526,22.5631502 115.354492,22.4361983 115.461914,22.3515625 C115.569336,22.2669267 115.837888,22.1497403 116.267578,22 C116.697268,21.8502597 117.218096,21.4759145 117.830078,20.8769531 C117.680338,20.642577 117.548503,20.4195974 117.43457,20.2080078 C117.320637,19.9964182 117.200196,19.7099627 117.073242,19.3486328 C116.946288,18.9873029 116.833985,18.6031921 116.736328,18.1962891 C116.638671,17.789386 116.583333,17.540365 116.570312,17.4492188 C116.557292,17.3580725 116.549154,17.2750655 116.545898,17.2001953 C116.542643,17.1253251 116.560547,17.0488285 116.599609,16.9707031 C116.684245,16.8014314 116.843749,16.7037762 117.078125,16.6777344 C117.305991,16.658203 117.465494,16.7102858 117.556641,16.8339844 C117.647787,16.9576829 117.714518,17.1448555 117.756836,17.3955078 C117.799154,17.6461601 117.836588,17.8463534 117.869141,17.9960938 C117.901693,18.1458341 117.961914,18.3623033 118.049805,18.6455078 C118.137696,18.9287124 118.201172,19.1028643 118.240234,19.1679688 L118.601562,19.9003906 Z M113.914062,17.5371094 L112.9375,17.5273438 C112.813801,17.5273438 112.698243,17.4785161 112.59082,17.3808594 C112.483398,17.2832026 112.432943,17.1529956 112.439453,16.9902344 C112.439453,16.8274731 112.494791,16.6988937 112.605469,16.6044922 C112.716146,16.5100907 112.826822,16.4628906 112.9375,16.4628906 L113.982422,16.4628906 L113.982422,14.9296875 C113.982422,14.8255203 114.026367,14.7197271 114.114258,14.6123047 C114.202149,14.5048823 114.325846,14.4479167 114.485352,14.4414063 C114.644858,14.4348958 114.786458,14.4788407 114.910156,14.5732422 C115.033855,14.6676437 115.095703,14.7864576 115.095703,14.9296875 L115.095703,16.4628906 L115.59375,16.4628906 C115.710938,16.4628906 115.810221,16.5100907 115.891602,16.6044922 C115.972982,16.6988937 116.018555,16.8144524 116.02832,16.9511719 C116.038086,17.0878913 116.000651,17.2180983 115.916016,17.3417969 C115.83138,17.4654954 115.723959,17.5273438 115.59375,17.5273438 L115.095703,17.5371094 L115.095703,18.4550781 C115.19987,18.3899736 115.304036,18.3574219 115.408203,18.3574219 C115.538412,18.3704428 115.649088,18.4192704 115.740234,18.5039063 C115.831381,18.5885421 115.951822,18.7399078 116.101562,18.9580078 C116.251303,19.1761079 116.350586,19.3486322 116.399414,19.4755859 C116.448242,19.6025397 116.459636,19.7180984 116.433594,19.8222656 C116.407552,19.9264328 116.329428,20.0387364 116.199219,20.1591797 C116.06901,20.279623 115.916017,20.3203127 115.740234,20.28125 C115.616536,20.2617187 115.518881,20.2031255 115.447266,20.1054688 L115.320312,19.8710938 L115.095703,19.5097656 L115.095703,23.1230469 C115.095703,23.2467454 115.041993,23.3541662 114.93457,23.4453125 C114.827148,23.5364588 114.693686,23.5836588 114.53418,23.5869141 C114.374674,23.5901693 114.242839,23.5413417 114.138672,23.4404297 C114.034505,23.3395177 113.982422,23.2174486 113.982422,23.0742188 L113.982422,20.1542969 C113.767577,20.4537775 113.53646,20.7581365 113.289062,21.0673828 C113.041665,21.3766292 112.781251,21.456381 112.507812,21.3066406 C112.33203,21.2220048 112.226237,21.0885426 112.19043,20.90625 C112.154622,20.7239574 112.185546,20.5481779 112.283203,20.3789063 C112.322266,20.3138018 112.530597,20.1054705 112.908203,19.7539063 C113.285809,19.402342 113.621092,18.6634171 113.914062,17.5371094 Z M135.521484,17.1171875 L133.5,17.1171875 C133.343749,17.1171875 133.213542,17.0618495 133.109375,16.9511719 C133.005208,16.8404942 132.95638,16.7200527 132.962891,16.5898438 C132.962891,16.4075512 133.026367,16.2757166 133.15332,16.1943359 C133.280274,16.1129553 133.395833,16.0722656 133.5,16.0722656 L135.375,16.0722656 C135.322916,15.961588 135.274089,15.85905 135.228516,15.7646484 C135.182942,15.6702469 135.124349,15.5677089 135.052734,15.4570313 L134.876953,15.1933594 C134.798828,15.0696608 134.758138,14.9541021 134.754883,14.8466797 C134.751628,14.7392573 134.798828,14.6334641 134.896484,14.5292969 C134.994141,14.4251297 135.137369,14.3600262 135.326172,14.3339844 C135.514975,14.3079426 135.661458,14.3600254 135.765625,14.4902344 C135.869792,14.6204434 135.996744,14.8043608 136.146484,15.0419922 C136.296225,15.2796236 136.384114,15.4228513 136.410156,15.4716797 C136.436198,15.5205081 136.470377,15.6051426 136.512695,15.7255859 C136.555013,15.8460292 136.576172,15.9257811 136.576172,15.9648438 L136.576172,16.0820313 L137.943359,16.0820313 C137.923828,16.0104163 137.91569,15.9534507 137.918945,15.9111328 C137.922201,15.8688149 137.935221,15.82487 137.958008,15.7792969 C137.980794,15.7337237 138.047525,15.6279305 138.158203,15.4619141 C138.268881,15.2958976 138.377929,15.0940767 138.485352,14.8564453 C138.592774,14.6188139 138.675781,14.4707034 138.734375,14.4121094 C138.792969,14.3535153 138.887369,14.3144532 139.017578,14.2949219 C139.147787,14.2753905 139.282877,14.3160802 139.422852,14.4169922 C139.562826,14.5179042 139.64095,14.6204422 139.657227,14.7246094 C139.673503,14.8287766 139.658854,14.9622388 139.613281,15.125 C139.567708,15.2877612 139.395184,15.6067685 139.095703,16.0820313 L140.951172,16.0722656 C141.081381,16.0722656 141.208333,16.1162105 141.332031,16.2041016 C141.45573,16.2919926 141.522461,16.4156893 141.532227,16.5751953 C141.541992,16.7347013 141.485027,16.8649083 141.361328,16.9658203 C141.23763,17.0667323 141.100912,17.1171875 140.951172,17.1171875 L138.763672,17.1171875 C139.089194,17.3059905 139.610022,17.6168598 140.326172,18.0498047 C141.042321,18.4827496 141.468749,18.7561843 141.605469,18.8701172 C141.742188,18.98405 141.812174,19.1289054 141.81543,19.3046875 C141.818685,19.4804696 141.755209,19.6269525 141.625,19.7441406 C141.494791,19.8613287 141.361329,19.9199219 141.224609,19.9199219 C141.100911,19.9264323 140.996745,19.9020185 140.912109,19.8466797 C140.827474,19.7913409 140.677735,19.6806649 140.462891,19.5146484 C140.248046,19.348632 139.899742,19.1110042 139.417969,18.8017578 C138.936196,18.4925115 138.545574,18.2581388 138.246094,18.0986328 C137.946613,17.9391268 137.765951,17.8300784 137.704102,17.7714844 C137.642252,17.7128903 137.608073,17.6087247 137.601562,17.4589844 C137.595052,17.3483067 137.630859,17.2343756 137.708984,17.1171875 L136.537109,17.1171875 C136.621745,17.2343756 136.660807,17.3450516 136.654297,17.4492188 C136.641276,17.540365 136.598959,17.6396479 136.527344,17.7470703 C136.455729,17.8544927 136.232749,18.0758447 135.858398,18.4111328 C135.484048,18.7464209 135.003909,19.0751937 134.417969,19.3974609 C133.832028,19.7197282 133.464193,19.8873697 133.314453,19.9003906 C133.171223,19.919922 133.031251,19.8906254 132.894531,19.8125 C132.757812,19.7343746 132.689453,19.5878917 132.689453,19.3730469 C132.689453,19.2037752 132.736653,19.0800785 132.831055,19.0019531 C132.925456,18.9238277 133.101236,18.8375656 133.358398,18.7431641 C133.615561,18.6487625 133.96712,18.4501968 134.413086,18.1474609 C134.859052,17.844725 135.228514,17.501304 135.521484,17.1171875 Z M133.900391,22.3515625 L133.900391,20.671875 C133.900391,20.4960929 133.913411,20.3170582 133.939453,20.1347656 C133.965495,19.952473 134.055012,19.8011074 134.208008,19.6806641 C134.361003,19.5602208 134.697914,19.5 135.21875,19.5 L139.476562,19.5 C140.003909,19.5 140.34082,19.5618483 140.487305,19.6855469 C140.63379,19.8092454 140.718424,19.9378249 140.741211,20.0712891 C140.763998,20.2047533 140.775391,20.4049466 140.775391,20.671875 L140.775391,22.3515625 L141.439453,22.3515625 C141.595704,22.3515625 141.719401,22.4052729 141.810547,22.5126953 C141.901693,22.6201177 141.947266,22.7324213 141.947266,22.8496094 C141.940755,23.0058602 141.88379,23.1311844 141.776367,23.2255859 C141.668945,23.3199875 141.556641,23.3671875 141.439453,23.3671875 L133.246094,23.3671875 C133.161458,23.3671875 133.054037,23.3330082 132.923828,23.2646484 C132.793619,23.1962887 132.726888,23.0839852 132.723633,22.9277344 C132.720378,22.7714836 132.764322,22.6363938 132.855469,22.5224609 C132.946615,22.4085281 133.076822,22.3515625 133.246094,22.3515625 L133.900391,22.3515625 Z M134.984375,22.3515625 L135.873047,22.3515625 L135.873047,20.4667969 L135.335937,20.4667969 C135.153645,20.4667969 135.046224,20.5009762 135.013672,20.5693359 C134.98112,20.6376957 134.968099,20.7304682 134.974609,20.8476563 L134.984375,22.3515625 Z M136.927734,22.3515625 L137.777344,22.3515625 L137.777344,20.4667969 L136.927734,20.4667969 L136.927734,22.3515625 Z M138.832031,22.3515625 L139.691406,22.3515625 L139.691406,20.8476563 C139.691406,20.6783846 139.657227,20.5725914 139.588867,20.5302734 C139.520507,20.4879555 139.43099,20.4667969 139.320312,20.4667969 L138.832031,20.4667969 L138.832031,22.3515625 Z" id="会员专属权益" fill="#FFFFFF"></path>
                <path d="M0.5,1.5 L173.5,1.5" id="Line-6" stroke="#000000" stroke-width="2" stroke-linecap="square"></path>
            </g>
        </g>
    </g>
</svg>