<?xml version="1.0" encoding="UTF-8"?>
<svg width="293px" height="195px" viewBox="0 0 293 195" version="1.1" xmlns="http://www.w3.org/2000/svg" xmlns:xlink="http://www.w3.org/1999/xlink">
    <!-- Generator: Sketch 47 (45396) - http://www.bohemiancoding.com/sketch -->
    <title>vipFetchBg-small</title>
    <desc>Created with Sketch.</desc>
    <defs></defs>
    <g id="Page-2" stroke="none" stroke-width="1" fill="none" fill-rule="evenodd">
        <g id="5.-仅领卡（点击后判断手机号）" transform="translate(-13.000000, -94.000000)" fill="#FFFFFF">
            <g id="vipFetchBg-small" transform="translate(13.000000, 94.500000)">
                <path d="M22,76 L25,76 L25,181 L256,181 L256,3.5 L25,3.5 L25,60 L22,60 L22,0 L260,0 L260,184.5 L22,184.5 L22,76 Z M0,71.5 L0,68.5 L19.8333333,68.5 L19.8333333,71.5 L0,71.5 Z M11.1666667,63 L11.1666667,60 L28.5,60 L28.5,63 L11.1666667,63 Z" id="Combined-Shape"></path>
                <path d="M54.5,75.5 L57.5,75.5 L57.5,190.5 L288.5,190.5 L288.5,13 L57.5,13 L57.5,59.5 L54.5,59.5 L54.5,9.5 L292.5,9.5 L292.5,194 L54.5,194 L54.5,75.5 Z M32.5,71 L32.5,68 L52.3333333,68 L52.3333333,71 L32.5,71 Z M43.6666667,62.5 L43.6666667,59.5 L61,59.5 L61,62.5 L43.6666667,62.5 Z" id="Combined-Shape" transform="translate(162.500000, 101.750000) scale(-1, -1) translate(-162.500000, -101.750000) "></path>
                <polygon id="Rectangle-14" points="32.5 9.5 259.5 9.5 259.5 184 32.5 184"></polygon>
            </g>
        </g>
    </g>
</svg>