<?xml version="1.0" encoding="UTF-8"?>
<svg width="44px" height="40px" viewBox="0 0 44 40" version="1.1" xmlns="http://www.w3.org/2000/svg" xmlns:xlink="http://www.w3.org/1999/xlink">
    <!-- Generator: Sketch 49 (51002) - http://www.bohemiancoding.com/sketch -->
    <title>奖品详情</title>
    <desc>Created with Sketch.</desc>
    <defs>
        <rect id="path-1" x="0" y="0.5" width="52" height="54"></rect>
    </defs>
    <g id="评赏霸王餐-V4.0（效果图）" stroke="none" stroke-width="1" fill="none" fill-rule="evenodd">
        <g id="P1-封面" transform="translate(-23.000000, -531.000000)">
            <g id="霸王餐介绍区" transform="translate(-36.000000, 392.000000)">
                <g id="奖品-大" transform="translate(56.000000, 61.000000)">
                    <g id="big-bg" transform="translate(0.000000, 0.500000)">
                        <g id="奖品详情" transform="translate(3.000000, 63.000000)">
                            <mask id="mask-2" fill="white">
                                <use xlink:href="#path-1"></use>
                            </mask>
                            <g id="Combined-Shape"></g>
                            <circle id="Oval-4" fill="#F1BC6D" mask="url(#mask-2)" cx="16.5" cy="42.5" r="27.5"></circle>
                            <path d="M17.3474286,25.44 L17.8754286,25.704 C16.9154286,28.584 14.5394286,29.76 11.5874286,30.288 C11.5034286,30.072 11.2754286,29.712 11.1074286,29.544 C12.2594286,29.376 13.3034286,29.1 14.1914286,28.692 C13.8314286,28.236 13.2554286,27.672 12.7514286,27.24 L13.3994286,26.856 C13.9154286,27.264 14.5274286,27.84 14.9114286,28.308 C15.7034286,27.792 16.3394286,27.132 16.7474286,26.244 L13.4474286,26.244 C12.9434286,26.736 12.3794286,27.18 11.8034286,27.504 C11.6834286,27.324 11.4434286,27.012 11.2754286,26.856 C12.3194286,26.292 13.3154286,25.32 13.7234286,24.42 L14.5874286,24.696 C14.4554286,24.96 14.2874286,25.212 14.0954286,25.464 L17.1794286,25.464 L17.3474286,25.44 Z M9.31942857,26.928 L8.59942857,27.324 C8.41942857,26.82 7.93942857,26.016 7.49542857,25.44 L8.17942857,25.092 C8.63542857,25.644 9.12742857,26.424 9.31942857,26.928 Z M9.94342857,30.312 L9.94342857,28.332 C9.10342857,28.788 8.25142857,29.244 7.55542857,29.604 L7.17142857,28.836 C7.87942857,28.512 8.91142857,28.008 9.94342857,27.492 L9.94342857,24.456 L10.8074286,24.456 L10.8074286,30.312 L9.94342857,30.312 Z M17.7794286,32.016 L13.2914286,32.016 C14.0594286,33.504 15.6794286,34.296 18.0674286,34.56 C17.8634286,34.74 17.6234286,35.112 17.5274286,35.34 C15.0794286,34.98 13.4474286,34.08 12.5594286,32.352 C11.9114286,33.864 10.5794286,34.908 7.55542857,35.436 C7.48342857,35.22 7.29142857,34.86 7.13542857,34.68 C9.99142857,34.224 11.1674286,33.324 11.7194286,32.016 L7.32742857,32.016 L7.32742857,31.212 L11.9834286,31.212 C12.0554286,30.924 12.1034286,30.624 12.1514286,30.3 L13.0754286,30.3 C13.0274286,30.624 12.9794286,30.912 12.9074286,31.212 L17.7794286,31.212 L17.7794286,32.016 Z M27.4,28.092 L27.4,25.824 L22.636,25.824 L22.636,28.092 L27.4,28.092 Z M28.3,24.972 L28.3,28.944 L21.772,28.944 L21.772,24.972 L28.3,24.972 Z M23.392,31.068 L20.884,31.068 L20.884,33.912 L23.392,33.912 L23.392,31.068 Z M20.032,35.424 L20.032,30.204 L24.268,30.204 L24.268,35.316 L23.392,35.316 L23.392,34.776 L20.884,34.776 L20.884,35.424 L20.032,35.424 Z M26.44,33.912 L29.164,33.912 L29.164,31.068 L26.44,31.068 L26.44,33.912 Z M25.576,30.204 L30.04,30.204 L30.04,35.34 L29.164,35.34 L29.164,34.776 L26.44,34.776 L26.44,35.424 L25.576,35.424 L25.576,30.204 Z M13.8860408,38.388 L13.0700408,38.736 C12.9020408,38.22 12.4700408,37.404 12.0620408,36.804 L12.8420408,36.516 C13.2500408,37.104 13.7180408,37.872 13.8860408,38.388 Z M10.3700408,38.484 L9.77004081,39.144 C9.38604081,38.64 8.58204081,37.86 7.93404081,37.308 L8.49804081,36.732 C9.14604081,37.272 9.98604081,38.004 10.3700408,38.484 Z M9.81804081,45.312 L10.9940408,44.412 C11.0780408,44.652 11.2220408,44.988 11.3180408,45.156 C9.36204081,46.68 9.05004081,46.932 8.88204081,47.184 L8.88204081,47.196 C8.78604081,47.004 8.54604081,46.68 8.39004081,46.548 C8.60604081,46.368 8.96604081,45.984 8.96604081,45.396 L8.96604081,41.076 L7.13004081,41.076 L7.13004081,40.212 L9.81804081,40.212 L9.81804081,45.312 Z M17.9900408,43.728 L17.9900408,44.556 L15.0380408,44.556 L15.0380408,47.412 L14.1620408,47.412 L14.1620408,44.556 L11.1260408,44.556 L11.1260408,43.728 L14.1620408,43.728 L14.1620408,42.036 L11.7860408,42.036 L11.7860408,41.208 L14.1620408,41.208 L14.1620408,39.576 L11.4020408,39.576 L11.4020408,38.748 L15.3620408,38.748 C15.7700408,38.088 16.2260408,37.14 16.4900408,36.432 L17.3900408,36.732 C17.0660408,37.404 16.6700408,38.148 16.3100408,38.748 L17.7140408,38.748 L17.7140408,39.576 L15.0380408,39.576 L15.0380408,41.208 L17.3540408,41.208 L17.3540408,42.036 L15.0380408,42.036 L15.0380408,43.728 L17.9900408,43.728 Z M20.0986122,42.048 L19.4026122,41.82 C19.6786122,41.016 19.8706122,39.708 19.9546122,38.76 L20.6146122,38.844 C20.5666122,39.78 20.3746122,41.16 20.0986122,42.048 Z M20.8786122,47.412 L20.8786122,36.468 L21.7066122,36.468 L21.7066122,47.412 L20.8786122,47.412 Z M21.8026122,38.448 L22.3906122,38.22 C22.6546122,38.748 22.9426122,39.468 23.0506122,39.9 L22.4266122,40.212 C22.3306122,39.756 22.0546122,39.012 21.8026122,38.448 Z M24.3826122,44.88 L28.7026122,44.88 L28.7026122,43.968 L24.3826122,43.968 L24.3826122,44.88 Z M28.7026122,42.396 L24.3826122,42.396 L24.3826122,43.296 L28.7026122,43.296 L28.7026122,42.396 Z M29.5546122,41.7 L29.5546122,46.416 C29.5546122,46.872 29.4586122,47.1 29.1226122,47.232 C28.7866122,47.364 28.2586122,47.376 27.4066122,47.364 C27.3586122,47.148 27.2626122,46.824 27.1546122,46.596 C27.7546122,46.62 28.3306122,46.62 28.4746122,46.608 C28.6426122,46.608 28.7026122,46.56 28.7026122,46.404 L28.7026122,45.54 L24.3826122,45.54 L24.3826122,47.412 L23.5426122,47.412 L23.5426122,41.7 L29.5546122,41.7 Z M26.9866122,40.332 L30.4786122,40.332 L30.4786122,41.016 L22.6906122,41.016 L22.6906122,40.332 L26.1106122,40.332 L26.1106122,39.492 L23.3266122,39.492 L23.3266122,38.844 L26.1106122,38.844 L26.1106122,38.088 L23.0506122,38.088 L23.0506122,37.404 L26.1106122,37.404 L26.1106122,36.468 L26.9866122,36.468 L26.9866122,37.404 L30.1426122,37.404 L30.1426122,38.088 L26.9866122,38.088 L26.9866122,38.844 L29.8426122,38.844 L29.8426122,39.492 L26.9866122,39.492 L26.9866122,40.332 Z" id="奖品-详情" fill="#FFFFFF" mask="url(#mask-2)"></path>
                        </g>
                    </g>
                </g>
            </g>
        </g>
    </g>
</svg>