<?xml version="1.0" encoding="UTF-8"?>
<svg width="119px" height="53px" viewBox="0 0 119 53" version="1.1" xmlns="http://www.w3.org/2000/svg" xmlns:xlink="http://www.w3.org/1999/xlink">
    <!-- Generator: Sketch 49 (51002) - http://www.bohemiancoding.com/sketch -->
    <title>自己可以领</title>
    <desc>Created with Sketch.</desc>
    <defs>
        <path d="M14.5,6.88300605 L96.5,0.566212697 C104.508129,-0.0506860255 111,5.94108988 111,13.9492188 C111,21.9573476 104.508129,28.949314 96.5,29.5662127 L50,33.1482967 L25,46.2282165 L33,34.4578758 L14.5,35.8830061 C6.49187113,36.4999048 0,30.5081289 0,22.5 C0,14.4918711 6.49187113,7.49990478 14.5,6.88300605 Z" id="path-1"></path>
        <filter x="-6.3%" y="-10.9%" width="112.6%" height="130.6%" filterUnits="objectBoundingBox" id="filter-2">
            <feOffset dx="0" dy="2" in="SourceAlpha" result="shadowOffsetOuter1"></feOffset>
            <feGaussianBlur stdDeviation="2" in="shadowOffsetOuter1" result="shadowBlurOuter1"></feGaussianBlur>
            <feColorMatrix values="0 0 0 0 0.909146471   0 0 0 0 0.687459701   0 0 0 0 0.608285855  0 0 0 1 0" type="matrix" in="shadowBlurOuter1"></feColorMatrix>
        </filter>
    </defs>
    <g id="评赏霸王餐-V4.0（效果图）" stroke="none" stroke-width="1" fill="none" fill-rule="evenodd">
        <g id="P2-活动主页" transform="translate(-115.000000, -77.000000)">
            <g id="banner" transform="translate(0.000000, 63.000000)">
                <g id="自己可以领" transform="translate(119.000000, 15.000000)">
                    <g id="Rectangle">
                        <use fill="black" fill-opacity="1" filter="url(#filter-2)" xlink:href="#path-1"></use>
                        <use fill="#EE483F" fill-rule="evenodd" xlink:href="#path-1"></use>
                    </g>
                    <path d="M18.3608442,21.816 L25.9608442,21.816 L25.9608442,20.152 L18.3608442,20.152 L18.3608442,21.816 Z M25.9608442,16.744 L18.3608442,16.744 L18.3608442,18.392 L25.9608442,18.392 L25.9608442,16.744 Z M25.9608442,13.336 L18.3608442,13.336 L18.3608442,14.984 L25.9608442,14.984 L25.9608442,13.336 Z M22.5048442,11.512 L27.9928442,11.512 L27.9928442,24.36 L25.9608442,24.36 L25.9608442,23.576 L18.3608442,23.576 L18.3608442,24.376 L16.4248442,24.376 L16.4248442,11.512 L20.5208442,11.512 C20.6968442,10.824 20.8728442,10.056 20.9528442,9.416 L23.2568442,9.672 C23.0168442,10.312 22.7608442,10.936 22.5048442,11.512 Z M37.0055501,22.2 L42.1255501,22.2 C43.7255501,22.2 43.9495501,21.8 44.1575501,19.496 C44.6695501,19.784 45.5335501,20.12 46.0935501,20.216 C45.7415501,23.272 45.0375501,24.104 42.1735501,24.104 L36.9895501,24.104 C33.9975501,24.104 33.0215501,23.528 33.0215501,21.24 L33.0215501,15.48 L42.1415501,15.48 L42.1415501,12.312 L32.8295501,12.312 L32.8295501,10.36 L44.1735501,10.36 L44.1735501,18.264 L42.1415501,18.264 L42.1415501,17.352 L35.0055501,17.352 L35.0055501,21.208 C35.0055501,22.056 35.2935501,22.2 37.0055501,22.2 Z M54.050256,22.36 L58.898256,22.36 C60.338256,22.36 60.578256,21.944 60.802256,19.848 C61.266256,20.136 62.066256,20.456 62.578256,20.568 C62.258256,23.224 61.618256,24.072 59.026256,24.072 L54.034256,24.072 C51.218256,24.072 50.386256,23.448 50.386256,20.984 L50.386256,16.776 L48.146256,17.48 L47.650256,15.768 L50.386256,14.904 L50.386256,10.568 L52.258256,10.568 L52.258256,14.312 L54.722256,13.544 L54.722256,9.48 L56.610256,9.48 L56.610256,12.936 L59.506256,12.04 L59.714256,11.896 L60.098256,11.64 L61.442256,12.216 L61.362256,12.568 C61.314256,15.56 61.218256,17.448 60.898256,18.36 C60.610256,19.224 60.162256,19.608 59.586256,19.768 C59.026256,19.912 58.178256,19.96 57.570256,19.928 C57.538256,19.48 57.346256,18.616 57.138256,18.184 C57.586256,18.232 58.194256,18.232 58.482256,18.232 C58.818256,18.232 59.026256,18.104 59.218256,17.544 C59.378256,17 59.442256,15.816 59.474256,13.896 L56.610256,14.808 L56.610256,20.808 L54.722256,20.808 L54.722256,15.4 L52.258256,16.184 L52.258256,21.016 C52.258256,22.184 52.482256,22.36 54.050256,22.36 Z M70.9829619,16.04 L67.9429619,16.04 L67.9429619,18.6 L70.9829619,18.6 L70.9829619,16.04 Z M72.8709619,20.424 L67.9429619,20.424 L67.9429619,21.64 L66.0869619,21.64 L66.0869619,14.232 L72.8709619,14.232 L72.8709619,20.424 Z M79.0309619,10.52 L79.0309619,12.44 L77.1909619,12.44 L77.1909619,21.976 C77.1909619,23.128 76.9189619,23.688 76.1669619,24.008 C75.3669619,24.328 74.1829619,24.36 72.5509619,24.36 C72.4389619,23.8 72.0549619,22.856 71.7669619,22.344 C72.9029619,22.408 74.2949619,22.392 74.6789619,22.392 C75.0469619,22.392 75.1909619,22.28 75.1909619,21.944 L75.1909619,12.44 L64.6149619,12.44 L64.6149619,10.52 L79.0309619,10.52 Z M88.6996678,13.256 L90.6996678,13.256 C90.8436678,12.824 91.0196678,12.328 91.1476678,11.88 L88.3316678,11.88 L88.3316678,10.216 L95.6756678,10.216 L95.6756678,11.88 L92.8916678,11.88 C92.6996678,12.36 92.5076678,12.824 92.3316678,13.256 L95.3396678,13.256 L95.3396678,20.68 L93.5796678,20.68 L93.5796678,14.616 L90.3796678,14.616 L90.3796678,20.744 L88.6996678,20.744 L88.6996678,13.256 Z M88.6196678,14.072 L87.4516678,15.4 C86.9396678,14.568 85.8836678,13.368 84.9076678,12.36 C84.0916678,13.736 83.1156678,14.968 81.9796678,15.944 C81.7076678,15.592 81.0996678,15 80.7156678,14.696 C82.3476678,13.416 83.7556678,11.288 84.4916678,9.4 L86.1236678,9.88 C85.9956678,10.216 85.8516678,10.552 85.6916678,10.888 C86.7476678,11.928 88.0116678,13.224 88.6196678,14.072 Z M83.4996678,14.424 L84.6996678,13.704 C85.2916678,14.248 86.0116678,15 86.3636678,15.48 L85.1476678,16.344 C84.7956678,15.832 84.0916678,15.016 83.4996678,14.424 Z M86.7956678,16.376 L87.9956678,17.128 C87.3876678,18.68 86.3316678,20.456 85.4516678,21.784 C85.9476678,22.28 86.3636678,22.76 86.6516678,23.16 L85.2916678,24.28 C84.6516678,23.32 83.1956678,21.816 82.0756678,20.712 L83.3396678,19.768 C83.6276678,20.04 83.9476678,20.328 84.2836678,20.616 C84.7636678,19.864 85.2916678,18.936 85.7076678,18.088 L82.0276678,18.088 L82.0276678,16.472 L86.4916678,16.472 L86.7956678,16.376 Z M92.1236678,21.416 L92.9396678,20.696 C93.9156678,21.464 95.2116678,22.552 95.8516678,23.272 L94.6356678,24.408 C94.0756678,23.72 92.8916678,22.648 91.9636678,21.832 C91.3396678,23.096 90.2836678,23.912 88.4436678,24.504 C88.2836678,24.104 87.8676678,23.496 87.5316678,23.176 C91.1156678,22.104 91.1956678,20.312 91.2116678,15.176 L92.7636678,15.176 C92.7636678,17.944 92.6836678,19.944 92.1236678,21.416 Z" id="自己也可领" fill="#FFFFFF" transform="translate(56.138256, 16.952000) rotate(-4.000000) translate(-56.138256, -16.952000) "></path>
                </g>
            </g>
        </g>
    </g>
</svg>