<?xml version="1.0" encoding="UTF-8"?>
<svg width="21px" height="20px" viewBox="0 0 21 20" version="1.1" xmlns="http://www.w3.org/2000/svg" xmlns:xlink="http://www.w3.org/1999/xlink">
    <!-- Generator: Sketch 49 (51002) - http://www.bohemiancoding.com/sketch -->
    <title>Star-active</title>
    <desc>Created with Sketch.</desc>
    <defs>
        <linearGradient x1="34.3470982%" y1="50%" x2="75.4743304%" y2="100%" id="linearGradient-1">
            <stop stop-color="#FF9249" offset="0%"></stop>
            <stop stop-color="#FFC008" offset="100%"></stop>
        </linearGradient>
    </defs>
    <g id="评赏霸王餐-V4.0（效果图）" stroke="none" stroke-width="1" fill="none" fill-rule="evenodd">
        <g id="P1-封面" transform="translate(-219.000000, -907.000000)" fill="url(#linearGradient-1)">
            <g id="Group" transform="translate(0.000000, 785.000000)">
                <path d="M229.036142,139.296046 L224.089285,141.885741 C223.599992,142.141887 222.995694,141.952885 222.739548,141.463592 C222.637714,141.269068 222.602733,141.046435 222.640003,140.830054 L223.582698,135.357011 C223.638736,135.03167 223.530592,134.699635 223.2937,134.469701 L219.303509,130.59671 C218.907208,130.212049 218.897772,129.578954 219.282433,129.182653 C219.436257,129.024174 219.638218,128.921077 219.856798,128.88945 L225.378597,128.090486 C225.703956,128.043409 225.985394,127.839424 226.131383,127.544871 L228.603948,122.55614 C228.849205,122.061299 229.449174,121.858973 229.944014,122.10423 C230.140027,122.20138 230.298774,122.360127 230.395923,122.55614 L232.868488,127.544871 C233.014478,127.839424 233.295915,128.043409 233.621274,128.090486 L239.143073,128.88945 C239.689666,128.968538 240.068653,129.475752 239.989565,130.022345 C239.957939,130.240925 239.854841,130.442886 239.696362,130.59671 L235.706171,134.469701 C235.469279,134.699635 235.361135,135.03167 235.417173,135.357011 L236.359868,140.830054 C236.453615,141.374324 236.088394,141.891539 235.544124,141.985286 C235.327743,142.022556 235.10511,141.987575 234.910586,141.885741 L229.963729,139.296046 C229.673233,139.14397 229.326638,139.14397 229.036142,139.296046 Z" id="Star-active"></path>
            </g>
        </g>
    </g>
</svg>