<?xml version="1.0" encoding="UTF-8"?>
<svg width="10px" height="11px" viewBox="0 0 10 11" version="1.1" xmlns="http://www.w3.org/2000/svg" xmlns:xlink="http://www.w3.org/1999/xlink">
    <!-- Generator: Sketch 49 (51002) - http://www.bohemiancoding.com/sketch -->
    <title>dot</title>
    <desc>Created with Sketch.</desc>
    <defs>
        <linearGradient x1="96.9969292%" y1="64.3110812%" x2="0%" y2="64.3110812%" id="linearGradient-1">
            <stop stop-color="#FD9E17" offset="0%"></stop>
            <stop stop-color="#FF6F6F" offset="100%"></stop>
        </linearGradient>
        <linearGradient x1="48.4984646%" y1="112.809546%" x2="48.4984646%" y2="15.8126166%" id="linearGradient-2">
            <stop stop-color="#FD9E17" offset="0%"></stop>
            <stop stop-color="#FF6F6F" offset="100%"></stop>
        </linearGradient>
    </defs>
    <g id="评赏霸王餐-V4.0（效果图）" stroke="none" stroke-width="1" fill="none" fill-rule="evenodd">
        <g id="P1-封面" transform="translate(-21.000000, -604.000000)">
            <g id="霸王餐介绍区" transform="translate(-36.000000, 392.000000)">
                <g id="开奖规则" transform="translate(57.000000, 200.000000)">
                    <g id="dot" transform="translate(0.000000, 11.000000)">
                        <path d="M7.73237117,4.0027767 L10.269551,8.40055509 C10.8215292,9.35731727 10.4933869,10.580393 9.53662475,11.1323712 C9.23271835,11.3077018 8.88803583,11.4 8.53717984,11.4 L3.46282016,11.4 C2.35825066,11.4 1.46282016,10.5045695 1.46282016,9.4 C1.46282016,9.04914401 1.55511837,8.70446149 1.73044898,8.40055509 L4.26762883,4.0027767 C4.81960701,3.04601452 6.04268273,2.71787225 6.99944491,3.26985043 C7.30391608,3.44550688 7.55671473,3.69830552 7.73237117,4.0027767 Z" id="Triangle" stroke="url(#linearGradient-1)" transform="translate(6.000000, 6.200000) rotate(90.000000) translate(-6.000000, -6.200000) "></path>
                        <path d="M5.60460019,3.90928539 L7.80035255,7.42248916 C8.09306288,7.89082569 7.95068972,8.50777607 7.48235319,8.8004864 C7.32342158,8.89981866 7.13977396,8.9524881 6.95235425,8.9524881 L2.56084953,8.9524881 C2.00856478,8.9524881 1.56084953,8.50477285 1.56084953,7.9524881 C1.56084953,7.76506838 1.61351897,7.58142076 1.71285122,7.42248916 L3.90860358,3.90928539 C4.20131391,3.44094886 4.8182643,3.29857569 5.28660083,3.59128602 C5.41536996,3.67176673 5.52411948,3.78051625 5.60460019,3.90928539 Z" id="Triangle" fill="url(#linearGradient-2)" transform="translate(4.756669, 6.195819) rotate(90.000000) translate(-4.756669, -6.195819) "></path>
                    </g>
                </g>
            </g>
        </g>
    </g>
</svg>