<?xml version="1.0" encoding="UTF-8"?>
<svg width="194px" height="36px" viewBox="0 0 194 36" version="1.1" xmlns="http://www.w3.org/2000/svg" xmlns:xlink="http://www.w3.org/1999/xlink">
    <!-- Generator: Sketch 49 (51002) - http://www.bohemiancoding.com/sketch -->
    <title>解释代用币</title>
    <desc>Created with Sketch.</desc>
    <defs>
        <linearGradient x1="26.6272363%" y1="27.9104764%" x2="87.5698858%" y2="93.0856173%" id="linearGradient-1">
            <stop stop-color="#FF8E97" offset="0%"></stop>
            <stop stop-color="#DD3881" offset="100%"></stop>
        </linearGradient>
        <linearGradient x1="100%" y1="68.8473666%" x2="68.3371981%" y2="51.03181%" id="linearGradient-2">
            <stop stop-color="#FFFFFF" stop-opacity="0.5" offset="0%"></stop>
            <stop stop-color="#FFFFFF" offset="100%"></stop>
        </linearGradient>
        <linearGradient x1="14.9495443%" y1="0%" x2="50%" y2="78.4228516%" id="linearGradient-3">
            <stop stop-color="#FFF35D" offset="0%"></stop>
            <stop stop-color="#FDD535" offset="100%"></stop>
        </linearGradient>
        <path d="M7.5,29.5 C3.35786438,29.5 0,26.1421356 0,22 C0,17.8578644 3.35786438,14.5 7.5,14.5 C11.6421356,14.5 15,17.8578644 15,22 C15,26.1421356 11.6421356,29.5 7.5,29.5 Z M7.49836062,19.16066 L4.66066001,21.9983606 L7.49836062,24.8360612 L10.3360612,21.9983606 L7.49836062,19.16066 Z" id="path-4"></path>
        <filter x="-23.3%" y="-16.7%" width="146.7%" height="146.7%" filterUnits="objectBoundingBox" id="filter-5">
            <feOffset dx="0" dy="1" in="SourceAlpha" result="shadowOffsetOuter1"></feOffset>
            <feGaussianBlur stdDeviation="1" in="shadowOffsetOuter1" result="shadowBlurOuter1"></feGaussianBlur>
            <feComposite in="shadowBlurOuter1" in2="SourceAlpha" operator="out" result="shadowBlurOuter1"></feComposite>
            <feColorMatrix values="0 0 0 0 0   0 0 0 0 0   0 0 0 0 0  0 0 0 0.5 0" type="matrix" in="shadowBlurOuter1"></feColorMatrix>
        </filter>
        <path d="M17,10.5 C14.2385763,10.5 12,8.26142375 12,5.5 C12,2.73857625 14.2385763,0.5 17,0.5 C19.7614237,0.5 22,2.73857625 22,5.5 C22,8.26142375 19.7614237,10.5 17,10.5 Z M16.9989071,3.60710668 L15.1071067,5.49890708 L16.9989071,7.39070748 L18.8907075,5.49890708 L16.9989071,3.60710668 Z" id="path-6"></path>
        <filter x="-35.0%" y="-25.0%" width="170.0%" height="170.0%" filterUnits="objectBoundingBox" id="filter-7">
            <feOffset dx="0" dy="1" in="SourceAlpha" result="shadowOffsetOuter1"></feOffset>
            <feGaussianBlur stdDeviation="1" in="shadowOffsetOuter1" result="shadowBlurOuter1"></feGaussianBlur>
            <feComposite in="shadowBlurOuter1" in2="SourceAlpha" operator="out" result="shadowBlurOuter1"></feComposite>
            <feColorMatrix values="0 0 0 0 0   0 0 0 0 0   0 0 0 0 0  0 0 0 0.5 0" type="matrix" in="shadowBlurOuter1"></feColorMatrix>
        </filter>
    </defs>
    <g id="评赏霸王餐-V4.0（效果图）" stroke="none" stroke-width="1" fill="none" fill-rule="evenodd">
        <g id="P2-活动主页" transform="translate(-98.000000, -191.000000)">
            <g id="解释代用币" transform="translate(97.000000, 191.000000)">
                <g id="代用币=现金">
                    <path d="M10.602621,0.5 L184.72989,0.5 C186.939029,0.5 188.72989,2.290861 188.72989,4.5 C188.72989,4.86366484 188.680296,5.22563108 188.58248,5.57589399 L184.108594,21.5961078 C183.701818,23.0526994 183.438579,23.5492208 183.049824,24.0394971 C182.66107,24.5297734 182.180006,24.8948991 181.603233,25.1374558 C181.02646,25.3800124 180.477432,25.5 178.965108,25.5 L5.16957354,25.5 C2.96043454,25.5 1.16957354,23.709139 1.16957354,21.5 C1.16957354,21.1612405 1.21260709,20.8238532 1.29764082,20.4959398 L5.44883757,4.48778224 C5.8329882,3.00639166 6.09250592,2.49948067 6.47998961,1.99827577 C6.86747331,1.49707088 7.35156373,1.12250194 7.93398588,0.873234216 C8.51640803,0.623966497 9.07223221,0.5 10.602621,0.5 Z" id="Rectangle-33" fill="url(#linearGradient-1)"></path>
                    <g id="Group-12" transform="translate(11.000000, 5.500000)" fill="url(#linearGradient-2)">
                        <path d="M15.1296513,5.72403773 L10.4222402,6.28758575 C10.1804084,9.27440518 10.5614114,11.0777408 11.5652608,11.6976467 C12.0508938,12.1109173 12.6070277,11.7164377 13.2336791,10.5141959 C13.6111141,9.9882151 13.7789607,10.035177 13.7372241,10.6550829 C13.4744692,11.9042872 13.4704533,12.6603733 13.7251763,12.9233637 C14.0235231,13.477522 13.9189187,13.9471406 13.4113598,14.3322337 C13.0051614,14.5858316 12.3746835,14.6680148 11.5199073,14.578786 C10.665131,14.4895571 9.91130031,14.1443874 9.25839251,13.5432665 C8.72265365,13.0548558 8.30671789,12.2635483 8.01057275,11.1693205 C7.71442761,10.0750926 7.67221068,8.52300294 7.8839207,6.51300495 L6.73507457,6.65389196 C6.3073514,6.69146201 6.0383373,6.72903151 5.92802418,6.76660156 L5.6559715,6.17487614 C6.01986805,6.22183871 6.42129238,6.22183871 6.86025654,6.17487614 L7.89707616,6.03398914 C8.04113051,5.04777518 8.21528587,4.00522177 8.41954748,2.90629764 C8.44641465,2.72783987 8.48766749,2.45546105 8.54330724,2.08915301 C8.59894699,1.72284497 8.64610742,1.37532716 8.68478995,1.04658918 C8.68003098,0.83995387 8.81111018,0.74603014 9.07803146,0.764815168 C10.0334981,0.886917849 10.8319616,1.04658819 11.4734461,1.24383098 C11.8723967,1.39411121 11.8958265,1.60074341 11.5437362,1.8637338 L11.0887652,2.17368521 C10.8262017,3.375927 10.6196549,4.57815075 10.4691185,5.78039253 L12.5873386,5.55497332 C12.8689379,5.17927277 13.1730147,4.7847931 13.499578,4.37152248 C13.6739092,4.20245723 13.8253732,4.146103 13.9539746,4.20245808 C14.2319454,4.25881316 14.6954724,4.59693859 15.3445694,5.21684451 C15.6292045,5.47044239 15.5575659,5.6395051 15.1296513,5.72403773 Z M11.9872747,1.6101372 C13.4367709,1.45985697 14.3415437,1.64770443 14.7016203,2.17368521 C14.9148072,2.54938577 14.916038,2.93447307 14.7053126,3.32895865 C14.4945872,3.72344424 14.2031826,3.98643068 13.83109,4.11792588 C13.2290357,4.32456118 12.847048,4.13671372 12.6851157,3.55437786 C12.6599716,3.3101725 12.5895318,3.07066698 12.4737942,2.83585413 C12.3580566,2.60104129 12.1187217,2.34275103 11.7557824,2.06097561 C11.6296608,1.8543403 11.7068241,1.70406233 11.9872747,1.6101372 Z M1.26973412,9.02079364 C0.931173131,9.17107386 0.819339185,9.12411199 0.934228932,8.87990663 C1.8114188,7.59313222 2.58985991,6.25237097 3.26957562,4.85758265 C3.94929133,3.46279433 4.48853434,2.17369113 4.88732082,0.990234375 C4.94429163,0.755421527 5.10337717,0.661497796 5.36458222,0.708460366 C5.81421303,0.792992991 6.25854943,0.915093841 6.69760476,1.07476658 C7.1366601,1.23443931 7.462398,1.36593254 7.67482825,1.46925019 C7.93526749,1.70406304 7.92516624,1.8919105 7.6445242,2.03279821 L7.13353997,2.34274962 C6.7669631,2.95326302 6.21482231,3.74222236 5.47710104,4.7096513 L6.08695632,4.8787157 C6.27499917,5.0102109 6.26127861,5.16988124 6.04579424,5.35773152 L5.72571457,5.55497332 L4.01371366,13.9941049 C3.95959642,14.4449456 3.32192322,14.6891473 2.10067494,14.7267173 C1.60379183,14.7830724 1.43099484,14.5764402 1.5822788,14.1068145 C1.7528083,13.4963011 1.94167565,12.737867 2.14888654,11.8314894 C2.35609743,10.9251118 2.52924768,10.1291082 2.6683425,9.44345465 L3.07419246,7.44285918 C2.87718782,7.67767203 2.59554715,7.95005085 2.22926201,8.26000381 C1.86297687,8.56995677 1.54313744,8.82355084 1.26973412,9.02079364 Z" id="代"></path>
                        <path d="M28.2385352,2.34274962 L26.0820248,2.34274962 L25.4989728,5.21684451 L27.6554832,5.21684451 L28.2385352,2.34274962 Z M23.9255144,2.34274962 L22.4411631,2.34274962 C22.2262531,2.38971219 22.0835501,2.58695202 22.01305,2.93447504 L21.5500381,5.21684451 L23.3424623,5.21684451 L23.9255144,2.34274962 Z M21.458579,5.66768293 L21.1041748,7.41468178 C21.0205282,7.78098983 20.9275475,8.14729238 20.8252298,8.51360042 L22.6736673,8.51360042 L23.2510032,5.66768293 L21.458579,5.66768293 Z M20.6777574,8.96443883 C19.9813534,11.2468197 18.3483745,13.1299905 15.7787717,14.6140077 C15.3899134,14.7361104 15.3232342,14.6046172 15.5787322,14.2195241 C16.4450549,13.3084503 17.1263239,12.3316435 17.6225597,11.2890744 C18.1187955,10.2465054 18.5547765,8.98323119 18.9305158,7.49921399 L19.6679051,3.86432927 C19.7784188,3.31956346 19.856683,2.89925477 19.9027,2.60339058 C19.9487169,2.30752639 20.0024983,1.93887575 20.0640458,1.49742759 C20.0819602,1.22504469 20.2654328,1.10294384 20.614469,1.13112138 C20.9074917,1.15929892 21.2478527,1.25322265 21.6355622,1.41289539 C22.0232718,1.57256813 22.3409597,1.73223847 22.5886355,1.8919112 L28.0779347,1.8919112 L28.6237905,1.27200838 C28.8750947,0.99962548 29.1404895,0.933878869 29.4199828,1.07476658 C30.047938,1.38471954 30.5002241,1.73223734 30.7768548,2.11733041 C30.9048818,2.3145732 30.8816344,2.52120541 30.7071117,2.73723323 L30.229276,3.15989425 L28.8230916,10.0915349 C28.6651341,10.824151 28.4923143,11.7680844 28.3046271,12.9233637 C28.0862709,13.8156525 27.294271,14.3604101 25.9286037,14.5576529 C25.4185742,14.632793 25.1931924,14.5012998 25.2524515,14.1631693 C25.217598,13.5526559 24.8813395,13.1393915 24.2436659,12.9233637 C24.1131591,12.8764011 24.0738185,12.7942178 24.1256428,12.6768114 C24.1774672,12.559405 24.3023539,12.4960065 24.5003067,12.4866139 C25.6929739,12.5899316 26.2950192,12.3832994 26.3064608,11.8667111 L26.895229,8.96443883 L24.7387186,8.96443883 L24.4643412,10.3169541 C24.300476,11.1247103 24.1569982,11.9700239 24.0339033,12.8529202 C23.9765496,13.1816581 23.7538276,13.4282079 23.3657305,13.5925769 C22.9776335,13.7569459 22.5352458,13.8438254 22.0385541,13.8532179 C21.6275967,13.9001805 21.4940469,13.6841559 21.6379007,13.2051377 C21.7249751,12.9139697 21.8398198,12.4513954 21.9824383,11.8174007 C22.1250567,11.183406 22.2220875,10.7396164 22.2735336,10.4860185 L22.5822082,8.96443883 L20.6777574,8.96443883 Z M26.9866882,8.51360042 L27.564024,5.66768293 L25.4075136,5.66768293 L24.8301777,8.51360042 L26.9866882,8.51360042 Z" id="用"></path>
                        <path d="M44.8538819,3.07536204 C43.7461832,3.19746472 42.6049701,3.30078083 41.4302083,3.38531345 C41.5378502,3.54498619 41.4494461,3.70465653 41.1649932,3.86432927 L40.8506297,4.03339367 L40.5591037,5.47044112 L42.3515279,5.47044112 L42.9368227,4.7941835 C43.1785999,4.56876316 43.4121776,4.5218013 43.6375628,4.65329649 C44.2710427,4.98203448 44.7568599,5.34833703 45.0950288,5.75221513 C45.1990514,5.88371032 45.1516083,6.07155779 44.9526983,6.31576315 L44.6097538,6.62571456 L44.3468088,7.921875 C44.247919,8.36332315 44.1578898,8.80711278 44.0767185,9.25325719 C43.9955472,9.69940161 43.902277,10.2512035 43.7969052,10.9086795 C43.6900109,11.4816228 43.3829803,11.913672 42.8758044,12.2048399 C42.3686284,12.4960079 41.7657261,12.6838553 41.0670794,12.768388 C40.6279238,12.8623131 40.4139742,12.6744656 40.4252244,12.2048399 C40.433238,11.6131116 40.1156504,11.1998471 39.472452,10.9650343 C39.2672422,11.8385381 39.1001386,12.7542945 38.971136,13.7123309 C38.865199,14.0504614 38.5608396,14.2852707 38.0580488,14.4167659 C37.555258,14.5482611 37.1358283,14.6140077 36.7997471,14.6140077 C36.4895758,14.6703628 36.4122301,14.4073764 36.5677078,13.8250405 C36.9859404,11.9935003 37.3447216,10.3169617 37.6440622,8.79537443 L38.2271142,5.92127954 L36.5467165,5.92127954 C36.3449529,5.94945708 36.210063,6.06216555 36.1420426,6.25940835 L34.9988033,11.8948885 C34.8959112,12.4020843 34.2207048,12.6932478 32.9731637,12.768388 C32.693096,12.768388 32.5759288,12.6556795 32.6216586,12.4302591 C32.8211521,11.5849329 33.0036857,10.7771888 33.1692648,10.0070027 L33.7751816,7.02019817 C33.9064634,6.41907728 34.0097368,5.8179654 34.085005,5.21684451 C34.1181627,4.8693215 34.3073514,4.71904353 34.6525768,4.7660061 C35.2367167,4.8317537 35.9172472,5.06656302 36.6941889,5.47044112 L38.3185734,5.47044112 C38.4691007,4.72843252 38.5744709,4.07096641 38.6346873,3.49802306 C37.0661168,3.54498563 35.4472732,3.56377037 33.7781081,3.55437786 C33.5559594,3.54498534 33.4545093,3.46984636 33.4737548,3.32895865 C33.4930004,3.18807094 33.6100764,3.09414721 33.8249864,3.04718464 C36.1508884,2.71844665 38.1663996,2.37797313 39.8715806,2.02575386 C41.5767616,1.67353459 43.0725372,1.27201064 44.3589523,0.82116997 C44.4675514,0.746029858 44.627968,0.78359935 44.8402068,0.933879573 C44.9813803,1.11233734 45.1469363,1.37767188 45.33688,1.72989115 C45.5268237,2.08211042 45.6780895,2.41788776 45.7906818,2.73723323 C45.8346885,2.93447602 45.7995826,3.07301353 45.6853629,3.1528499 C45.5711432,3.23268626 45.4618323,3.2538191 45.3574269,3.21624905 L44.8538819,3.07536204 Z M42.5401351,5.92127954 L40.4676445,5.92127954 L39.5416207,10.4860185 C39.601445,10.4672335 39.678034,10.4578411 39.7713899,10.4578411 C40.1594824,10.5235887 40.5580965,10.5259368 40.9672442,10.4648854 C41.376392,10.4038341 41.6301197,10.2230309 41.7284351,9.92247046 L42.5401351,5.92127954 Z" id="币"></path>
                        <path d="M54.2896856,10.3451315 L47.5680947,10.3451315 L47.8653369,8.87990663 L54.5869278,8.87990663 L54.2896856,10.3451315 Z M54.9184672,7.24561738 L48.1968763,7.24561738 L48.4941185,5.78039253 L55.2157094,5.78039253 L54.9184672,7.24561738 Z" id="="></path>
                        <path d="M69.6346222,2.17368521 L66.9459858,2.17368521 C66.7647988,2.19247024 66.644769,2.32396346 66.5858928,2.56816883 L65.2711675,9.04897104 C65.0650096,9.6970545 64.5334543,10.0163952 63.6764854,10.0070027 C63.3771722,10.1478904 62.9511671,10.3380859 62.3984573,10.577595 C61.8457476,10.8171041 61.2593715,11.0730463 60.6393115,11.3454292 C60.0192515,11.6178121 59.468836,11.8690581 58.9880486,12.0991747 C58.5072612,12.3292913 58.195711,12.4960059 58.0533889,12.5993236 C57.7089202,12.8247439 57.4681039,12.8153515 57.3309327,12.5711462 C57.1497548,12.129698 57.0137344,11.6037251 56.9228674,10.9932117 C56.8455206,10.7302213 56.9731719,10.5611586 57.3058252,10.4860185 C57.8476723,10.3920933 58.445524,10.2981696 59.0993982,10.2042445 L59.8082066,6.71024676 L59.0800342,6.71024676 C58.7513832,6.71963927 58.4507434,6.72903165 58.1781059,6.73842416 L57.8946208,6.20305354 C58.3071007,6.2406236 58.7233852,6.25940835 59.1434867,6.25940835 L59.8996657,6.25940835 L60.6141903,2.73723323 L59.577945,2.73723323 C59.3799922,2.74662575 59.1540361,2.75601812 58.9000698,2.76541063 L58.6165847,2.23004002 C58.9263731,2.26761007 59.267974,2.28639482 59.6413976,2.28639482 L62.7501334,2.28639482 C62.9549511,1.96704934 63.2045376,1.65710103 63.4989004,1.35654059 C63.6770424,1.16869031 63.8991878,1.17808268 64.1653433,1.38471799 C64.3533862,1.51621318 64.5263746,1.67588352 64.6843138,1.8637338 C64.688699,1.70406107 64.6984173,1.61013734 64.7134691,1.58195979 C64.7226224,1.16868918 64.9381035,0.98084172 65.359919,1.01841178 C65.9814013,1.08415937 66.5592419,1.3189687 67.0934582,1.7228468 L69.5020283,1.7228468 L70.1879172,1.10294398 C70.4687507,0.9150937 70.6872768,0.896308954 70.8435021,1.04658918 C71.2847454,1.35654214 71.671492,1.7510218 72.0037532,2.23004002 C72.0833884,2.38971275 72.0416615,2.54938309 71.8785713,2.70905583 L71.4853298,2.99082984 L71.0337502,5.21684451 C70.70602,6.83235691 70.4935656,8.10971964 70.3963806,9.04897104 C70.2130876,9.58434433 69.5938939,9.8755079 68.5387808,9.92247046 C68.2289924,9.88490041 68.106492,9.70644532 68.1712758,9.38709985 L68.3541941,8.48542302 C68.1482368,8.62631073 68.0186801,8.80476582 67.9655201,9.02079364 L67.3424547,12.0921303 C67.2195604,12.4678309 67.2934782,12.6556784 67.5642103,12.6556784 L67.9282965,12.6556784 C68.131774,12.6650709 68.4007904,12.5124448 68.7353537,12.1977956 C69.069917,11.8831464 69.4067658,11.3501292 69.7459103,10.5987281 C69.8569892,10.3733078 69.9684926,10.2723397 70.080424,10.295821 C70.1923553,10.3193023 70.2376491,10.4296627 70.2163067,10.6269055 C69.9550835,11.5004093 69.9543085,12.148483 70.213982,12.5711462 C70.6235992,12.8529216 70.5969193,13.2145279 70.1339415,13.6559761 C69.8285292,13.9189665 69.4543454,14.1068139 69.011379,14.2195241 C68.5684125,14.3322343 68.1835623,14.3885885 67.8568166,14.3885885 L66.2604388,14.3885885 C65.2950623,14.4073735 64.9416599,13.8485273 65.2002211,12.7120332 L65.343126,12.0075981 C64.6631413,12.5523639 63.8531384,13.0478116 62.9130928,13.493956 C61.9730473,13.9401004 60.9936752,14.3040549 59.9749472,14.5858303 C59.334028,14.707933 59.2953552,14.5764398 59.8589276,14.1913467 C61.2718563,13.392983 62.499199,12.5429733 63.5409924,11.6412919 C64.2139298,10.9932085 64.7705469,10.251211 65.2108603,9.41527725 C65.6511738,8.57934351 65.9999403,7.52739773 66.2571705,6.25940835 C66.3947428,5.4892222 66.5267883,4.70026287 66.6533111,3.89250667 C66.6958044,3.54498365 66.8849932,3.39470568 67.2208829,3.44166825 C67.7509147,3.49802334 68.2752223,3.5825547 68.7938216,3.69526486 C69.1106573,3.83615257 69.1079861,4.03339241 68.785808,4.28699028 L68.5160254,4.51240949 C68.372354,5.40469831 68.1307536,6.50360596 67.7912171,7.8091654 C67.9983141,7.84673545 68.2069304,7.9688363 68.4170723,8.17547161 L69.6346222,2.17368521 Z M63.0620627,9.58434165 C63.0864501,9.55616411 63.1053124,9.50920225 63.1186503,9.44345465 C63.2421189,8.92686638 63.5313537,7.59314941 63.9863635,5.44226372 L64.5351183,2.73723323 L62.9387405,2.73723323 C62.9345468,2.8499434 62.8743404,2.96265188 62.7581196,3.07536204 C62.5712164,3.12232461 62.4511866,3.25381784 62.3980266,3.46984566 L61.8264069,6.28758575 C62.0258913,5.90249268 62.2343253,5.61132911 62.4517151,5.41408632 C62.6279517,5.23562855 62.7885597,5.22623618 62.933544,5.38590892 C63.2162737,5.64889931 63.4633714,5.94945525 63.6748444,6.28758575 C63.7579075,6.5223986 63.6807441,6.67267656 63.4433521,6.73842416 L61.7349478,6.73842416 L61.0833013,9.95064787 C61.7821395,9.81915267 62.44172,9.69705182 63.0620627,9.58434165 Z" id="现"></path>
                        <path d="M83.209171,6.85113377 L81.248707,6.85113377 C81.160493,6.96384393 81.0888544,7.13290665 81.033789,7.35832698 L80.6793848,9.10532584 L82.6678554,9.10532584 C83.2135225,8.53238249 83.6071429,8.15668757 83.8487287,7.9782298 C83.931035,7.94065975 84.0243895,7.94065975 84.128795,7.9782298 C84.4530608,8.12851002 84.862289,8.50420495 85.3564918,9.10532584 C85.5271945,9.36831623 85.4593666,9.5185942 85.1530061,9.55616425 L80.5879256,9.55616425 L79.7676514,13.5996213 L80.0757243,13.5996213 C80.871556,12.5758373 81.6262277,11.3407402 82.3397621,9.89429306 C82.3498635,9.70644279 82.5255231,9.66887329 82.8667462,9.78158346 C83.7225664,10.0727514 84.4046194,10.3920921 84.9129259,10.7396151 C85.0320002,10.8429327 85.0613376,10.974426 85.0009389,11.1340987 C84.9405402,11.2937714 84.8113664,11.3783028 84.6134136,11.3876953 C84.4061252,11.3970878 84.2117947,11.4346573 84.0304162,11.5004049 C82.7479943,12.3457312 81.6911694,13.045463 80.8599099,13.5996213 L82.7083474,13.5996213 C83.3494672,12.9703229 83.7796683,12.5523623 83.9989634,12.3457269 C84.154432,12.2236243 84.3131346,12.2236243 84.4750761,12.3457269 C84.8679276,12.6181098 85.2891578,13.0266781 85.7387795,13.5714439 C85.9075768,13.8438268 85.8191727,14.0034971 85.4735644,14.0504597 L73.4867273,14.0504597 C73.1544569,14.0316747 72.6427211,14.0692442 71.9515046,14.1631693 L71.7640461,13.4305569 C72.4413504,13.543267 73.2140959,13.5996213 74.0823058,13.5996213 L77.4711078,13.5996213 L78.2913821,9.55616425 L75.9108186,9.55616425 C75.1117687,9.53737923 74.4693366,9.57494872 73.9835031,9.66887386 L73.7960446,8.93626143 C74.3333151,9.0489716 75.1060606,9.10532584 76.1143043,9.10532584 L78.3828412,9.10532584 L78.8401369,6.85113377 L77.7478784,6.85113377 C77.22318,6.86052628 76.8047987,6.89809577 76.492722,6.96384337 L76.3589794,6.79477896 C75.2287896,7.39589986 74.1310082,7.83734139 73.0656022,8.11911681 C72.719994,8.16607938 72.6868458,8.0533709 72.9661568,7.780988 C75.6927598,5.79916756 77.8043309,3.53560565 79.3009335,0.990234375 C79.4141093,0.708458957 79.5937711,0.605142853 79.8399244,0.680282965 C80.8138707,0.849348216 81.7091166,1.08415754 82.525689,1.38471799 C82.8775787,1.62892335 82.8150841,1.84494793 82.3382032,2.03279821 C82.2336063,2.04219072 82.0933831,2.08915259 81.9175294,2.17368521 C83.2189507,3.99583292 84.9848549,5.00081683 87.215295,5.18866711 C87.4262028,5.20745214 87.541656,5.28259112 87.5616582,5.41408632 C87.5593699,5.51740397 87.4393401,5.64889719 87.2015652,5.80856993 C86.6397068,6.23123306 86.084521,6.85112968 85.5359913,7.66827839 C85.434248,7.89369873 85.2490614,7.97823008 84.9804262,7.921875 C84.7268428,7.83734237 84.4530698,7.66827966 84.159099,7.41468178 C83.881466,7.17517792 83.6687505,6.94405484 83.5209468,6.72130638 C83.5330511,6.77714015 83.4291264,6.82041563 83.209171,6.85113377 Z M82.4976003,5.52679592 C82.2564066,5.15109536 82.0459396,4.68147671 81.866193,4.11792588 C81.6864465,3.55437504 81.5724792,3.00022503 81.5242879,2.45545922 C80.8749721,3.26321542 80.1067348,4.04747857 79.2195529,4.8082722 C78.3323711,5.56906583 77.6240575,6.08095016 77.094591,6.34394055 C77.3651316,6.39090312 77.613378,6.40968786 77.8393376,6.40029535 L81.0320933,6.40029535 C81.2628209,6.13730496 81.5777556,5.82735665 81.9769067,5.47044112 C82.1529519,5.33894593 82.3265147,5.35773067 82.4976003,5.52679592 Z M74.7562016,12.4866139 C74.7493549,11.8761005 74.5056942,11.1904573 74.0252122,10.4296637 C73.8489847,10.1478883 73.9429135,10.0070027 74.3070015,10.0070027 C75.7723062,10.1009278 76.6873626,10.5141922 77.0521981,11.2468083 C77.3682589,12.0357795 77.1462913,12.6697647 76.3862886,13.1487829 C75.9896172,13.3554182 75.6290104,13.4188167 75.3044573,13.3389803 C74.9799043,13.259144 74.7971542,12.9750247 74.7562016,12.4866139 Z" id="金"></path>
                        <path d="M101.037461,3.30078125 L100.672226,3.58255526 C100.246573,4.94446978 99.913906,5.94006132 99.6742165,6.56935976 L102.978999,6.56935976 L104.222176,5.27319931 C104.428133,5.13231161 104.624178,5.13231161 104.810315,5.27319931 C105.223169,5.67707741 105.6303,6.10912657 106.031721,6.56935976 C106.155746,6.83235015 106.078583,6.98262811 105.800229,7.02019817 L101.879301,7.02019817 C101.985229,7.14230085 101.917401,7.29257882 101.675815,7.47103659 L101.484911,7.58374619 L100.696076,11.4722275 C100.567082,11.9700308 100.741593,12.2142325 101.219614,12.2048399 L102.451905,12.2048399 C103.20961,12.2893726 103.825003,11.5567675 104.2981,10.0070027 C104.392605,9.72522725 104.505204,9.58434165 104.635903,9.58434165 C104.766601,9.58434165 104.822039,9.72522725 104.802219,10.0070027 C104.637397,11.0495717 104.686919,11.7258226 104.950786,12.0357755 C105.165878,12.4020836 105.207833,12.7589938 105.076651,13.1065168 C104.94547,13.4540398 104.685358,13.71233 104.296309,13.8813953 C103.802662,14.0598531 103.130127,14.1537768 102.278683,14.1631693 L99.5900462,14.1631693 C98.4865412,14.1725618 98.0546445,13.6325004 98.2943431,12.5429687 L99.2775289,7.69645579 C97.7940545,11.1435084 95.269057,13.374197 91.7024606,14.3885885 C91.1531833,14.4731211 91.0845987,14.3510203 91.4967049,14.0222823 C94.1082266,12.3316298 95.9726955,9.99762509 97.0901674,7.02019817 L94.9896703,7.02019817 C94.2689245,7.02959068 93.6805997,7.07655255 93.2246783,7.16108518 L92.7571536,6.42847275 C93.522289,6.52239789 94.2969399,6.56935976 95.0811294,6.56935976 L97.2656465,6.56935976 C97.6699577,5.40468803 98.0334932,4.16489479 98.356264,2.84994284 L96.4518132,2.84994284 C95.8768175,2.83115781 95.3445054,2.87811967 94.854861,2.99082984 L94.4993628,2.25821742 C94.7811445,2.29578747 95.1338904,2.32866078 95.5576113,2.35683832 C95.9813322,2.38501586 96.3845662,2.39910442 96.7673254,2.39910442 L103.096823,2.39910442 C103.45711,1.95765627 103.864068,1.51621473 104.31771,1.07476658 C104.489944,0.962056411 104.657983,0.962056411 104.821829,1.07476658 C105.260976,1.44107462 105.658772,1.87312378 106.015229,2.37092702 C106.142873,2.66209495 106.07314,2.82176529 105.806027,2.84994284 L101.352973,2.84994284 C101.331822,3.00022306 101.226653,3.15050103 101.037461,3.30078125 Z" id="无"></path>
                        <path d="M119.936606,12.6556784 C119.85791,13.1816591 119.6017,13.6277969 119.167969,13.9941049 C118.734238,14.3604129 118.017642,14.614007 117.018159,14.7548947 C116.629493,14.8300348 116.435736,14.7267187 116.436885,14.4449433 C116.439939,14.1537754 116.341541,13.9025294 116.141687,13.6911978 C115.941834,13.4798663 115.716928,13.346025 115.466964,13.2896699 C115.140601,13.1957447 114.997333,13.0736439 115.037155,12.9233637 C115.076978,12.7730834 115.277977,12.7026406 115.64016,12.7120332 C116.39234,12.7777808 116.929368,12.7190784 117.251259,12.5359244 C117.57315,12.3527704 117.761816,12.1015244 117.817265,11.7821789 L119.65788,2.70905583 L117.305323,2.70905583 C116.799296,2.71844834 116.285655,2.76541021 115.764384,2.84994284 L115.464899,2.11733041 C116.127343,2.21125555 116.799304,2.25821742 117.480802,2.25821742 L119.469273,2.25821742 L120.133446,1.46925019 C120.363982,1.25322237 120.62728,1.24383 120.923347,1.44107279 C121.376023,1.69467067 121.779918,2.00461898 122.135044,2.37092702 C122.343281,2.58695484 122.346134,2.80297942 122.143605,3.01900724 L121.727499,3.41349085 L120.595692,8.99261623 C120.357324,10.213643 120.137631,11.4346515 119.936606,12.6556784 Z M109.873283,2.48363662 C110.168211,2.50242165 110.531149,2.5540797 110.962109,2.63861233 C111.393069,2.72314495 111.755815,2.82176487 112.050361,2.93447504 C112.286987,3.05657772 112.278791,3.23503281 112.025773,3.46984566 L111.565086,3.80797447 L110.107455,10.9932117 C109.874996,12.1390984 109.707892,13.0548548 109.60614,13.7405083 C109.534117,14.0034987 109.298964,14.2077828 108.900675,14.3533668 C108.502385,14.4989507 108.101578,14.5764378 107.698243,14.5858303 C107.444276,14.5952228 107.27219,14.5576533 107.18198,14.4731207 C107.091769,14.3885881 107.100585,14.1725635 107.208428,13.8250405 C107.276831,13.5338726 107.41173,12.9609378 107.613129,12.106219 C107.814528,11.2515003 107.980866,10.5235914 108.112147,9.92247046 L109.118198,4.9632479 C109.280349,4.11792165 109.374478,3.46984791 109.400589,3.01900724 C109.391071,2.60573663 109.548634,2.42728154 109.873283,2.48363662 Z M112.530466,3.32895865 C112.583636,2.65269765 112.44457,1.95766204 112.113266,1.24383098 C112.042775,1.13112082 112.022582,1.04658946 112.052685,0.990234375 C112.103366,0.924486777 112.202436,0.896309658 112.3499,0.905702172 C113.865311,1.07476742 114.713114,1.49742421 114.893334,2.17368521 C115.012965,3.05658152 114.655729,3.66708577 113.821616,4.00521627 C112.924059,4.33395426 112.49368,4.10853731 112.530466,3.32895865 Z" id="门"></path>
                        <path d="M126.513559,14.2758789 C126.093458,14.2758789 125.772242,14.2946637 125.549901,14.3322337 L125.456172,13.9659275 C125.290794,14.2289179 125.055261,14.4120692 124.749566,14.5153868 C124.443871,14.6187045 124.183668,14.6703625 123.968949,14.6703625 C123.449967,14.6515775 123.260213,14.4825148 123.399682,14.1631693 C123.663193,13.1863479 123.871067,12.3457305 124.023308,11.6412919 L124.434874,9.61251905 C124.076302,10.0915373 123.538264,10.6269025 122.820746,11.2186309 C122.418358,11.4534438 122.321576,11.3783048 122.530396,10.9932117 C122.789705,10.5893336 123.193239,9.84263994 123.741012,8.75310833 C124.288785,7.66357671 124.771015,6.39091016 125.187716,4.9350705 L125.07569,4.9350705 C124.756374,4.94446302 124.422012,4.98203251 124.072593,5.04778011 L123.873702,4.37152248 C124.383157,4.43727008 124.888985,4.47483957 125.391202,4.48423209 L125.475222,4.48423209 L125.663856,3.55437786 C125.801046,2.87811685 125.912323,2.14551176 125.997693,1.35654059 C126.005132,0.905699918 126.211278,0.717852457 126.616136,0.792992569 C127.142549,0.82117011 127.698482,0.933878587 128.283953,1.13112138 C128.568971,1.29079412 128.534483,1.5068187 128.180487,1.7792016 L127.798678,2.00462081 L127.415693,3.89250667 C127.520673,3.78918902 127.657468,3.66708817 127.826083,3.52620046 C127.979646,3.41349029 128.138349,3.41349029 128.302196,3.52620046 C128.445466,3.64830314 128.603403,3.8361506 128.776011,4.08974848 L128.901767,3.46984566 C128.968648,3.0941451 129.031908,2.69027306 129.09155,2.25821742 C129.105463,2.05158211 129.203011,1.93887363 129.384198,1.92008861 C129.905085,1.92948112 130.399481,2.02340485 130.8674,2.20186261 C131.051632,2.35214284 131.039817,2.50242081 130.831954,2.65270103 C130.693635,2.69027108 130.596278,2.7560177 130.539881,2.84994284 L129.676736,7.10473037 C129.66606,7.43346836 129.267681,7.60253108 128.481586,7.61192359 C128.517588,7.94066158 128.451091,8.22243277 128.282093,8.45724562 C128.724102,8.5793483 129.087419,8.76719576 129.372054,9.02079364 L133.433015,9.02079364 L133.883419,8.45724562 C134.069182,8.23182528 134.243128,8.1566863 134.405261,8.23182641 C134.848793,8.43846172 135.247163,8.72962528 135.600384,9.10532584 C135.711837,9.24621355 135.700021,9.39649152 135.564938,9.55616425 L135.176838,9.95064787 L134.505185,13.2614925 L134.76411,12.9515411 C134.910243,12.8294384 135.061515,12.820046 135.217932,12.9233637 C135.551151,13.167569 135.816919,13.468125 136.015246,13.8250405 C136.087068,14.0692459 135.953892,14.2195238 135.615714,14.2758789 L126.513559,14.2758789 Z M125.524192,13.7686857 C125.800449,13.7874707 126.048696,13.8062555 126.268939,13.8250405 L126.520999,13.8250405 L127.146922,10.7396151 C127.250197,10.1384942 127.344135,9.53738232 127.428739,8.93626143 C126.967293,9.00200903 126.804214,8.70145309 126.939498,8.0345846 C127.046392,7.46164125 127.018395,7.00141497 126.855505,6.65389196 L126.152413,10.1197123 C125.938816,11.2186364 125.735127,12.4067716 125.541341,13.6841535 L125.524192,13.7686857 Z M128.25741,13.8250405 L128.761529,13.8250405 L129.644681,9.47163205 L129.140562,9.47163205 L128.25741,13.8250405 Z M133.565609,9.47163205 L133.005477,9.47163205 L132.122324,13.8250405 L132.682457,13.8250405 L133.565609,9.47163205 Z M131.605145,9.47163205 L131.101026,9.47163205 L130.217874,13.8250405 L130.721993,13.8250405 L131.605145,9.47163205 Z M128.604525,4.9350705 L127.204193,4.9350705 L126.975546,6.06216654 C127.565019,6.19366173 127.980346,6.44725581 128.22154,6.82295636 L128.604525,4.9350705 Z M130.18772,6.79477896 L131.045149,2.56816883 C131.104409,2.23003832 131.152426,1.90130527 131.189203,1.58195979 C131.234933,1.35653946 131.332481,1.24383098 131.48185,1.24383098 C131.651796,1.23443847 131.910759,1.2579194 132.258747,1.31427449 C132.606735,1.37062957 132.913041,1.45985711 133.177674,1.58195979 C133.302273,1.70406248 133.284933,1.8355557 133.125654,1.97644341 C132.891881,2.07036855 132.760802,2.16429228 132.732412,2.25821742 L131.886415,6.42847275 C132.227082,5.76160426 132.579511,4.95620827 132.943713,4.01226062 C133.307915,3.06831297 133.584042,2.20186656 133.772103,1.41289539 C133.829266,1.13111997 133.958631,0.999626748 134.160203,1.01841178 C134.471897,1.04658932 134.838455,1.12642449 135.259887,1.25791968 C135.68132,1.38941488 136.015869,1.53499666 136.263545,1.6946694 C136.376711,1.87312716 136.327554,2.02340513 136.116072,2.14550781 C135.919833,2.19247038 135.773894,2.26760937 135.67825,2.37092702 C135.548691,2.54938478 135.376409,2.7888903 135.161399,3.08945074 C134.946389,3.39001119 134.761818,3.66708619 134.60768,3.92068407 L135.279839,3.92068407 C135.439693,3.63890865 135.678039,3.33835271 135.994883,3.01900724 C136.148638,2.8593345 136.327917,2.84994213 136.532726,2.99082984 C136.823268,3.1692876 137.13762,3.46045117 137.475789,3.86432927 C137.586667,4.14610469 137.543035,4.3151674 137.34489,4.37152248 L134.264161,4.37152248 C133.359922,5.42348405 132.654986,6.1373044 132.149333,6.51300495 C132.00701,6.61632261 131.909845,6.63510735 131.857834,6.56935976 L131.617754,7.75281059 C131.584022,8.24122132 131.209646,8.47603065 130.494617,8.45724562 C129.932576,8.46663813 129.72396,8.34453728 129.868762,8.09093941 C129.931257,7.87491159 130.037576,7.44286242 130.18772,6.79477896 Z M135.99368,6.06216654 C136.119036,6.45665212 136.084974,6.79712565 135.891493,7.08359732 C135.698012,7.370069 135.444665,7.57200502 135.131444,7.68941144 C134.818223,7.80681787 134.553544,7.81151405 134.337398,7.70350014 C134.121253,7.59548623 134.054148,7.33954407 134.13608,6.93566597 C134.308898,6.22183491 134.272331,5.57376117 134.026378,4.9914253 C133.953034,4.66268732 134.089829,4.54058647 134.436769,4.62511909 C135.336787,5.06656725 135.855752,5.54557827 135.99368,6.06216654 Z" id="槛"></path>
                        <path d="M145.357607,6.23123095 L144.946041,8.26000381 L146.010293,8.26000381 C146.122329,7.79977063 146.308674,6.9732418 146.569332,5.78039253 L145.617106,5.78039253 L145.605674,5.83674733 C145.48412,5.8837099 145.401432,6.01520312 145.357607,6.23123095 Z M149.818101,5.78039253 L148.697835,5.78039253 C148.533779,6.6351113 148.347434,7.46164013 148.138797,8.26000381 L149.315075,8.26000381 L149.818101,5.78039253 Z M143.911027,3.83615187 L143.656123,3.15989425 C144.212256,3.22564184 144.802103,3.26321134 145.425682,3.27260385 L147.078073,3.27260385 L147.1581,2.87812024 C147.312821,2.02340147 147.406759,1.42228959 147.439917,1.07476658 C147.452115,0.830561215 147.594435,0.727245112 147.866881,0.764815168 C148.576194,0.811777737 149.236723,0.915093841 149.848487,1.07476658 C150.157701,1.25322434 150.143789,1.45985655 149.80675,1.6946694 L149.492387,1.8637338 L149.206577,3.27260385 L150.410862,3.27260385 C150.690556,2.90629581 151.020734,2.52120851 151.401405,2.11733041 C151.588691,1.9764427 151.779211,1.95765796 151.97297,2.06097561 C152.501662,2.44606868 152.886694,2.80297886 153.128079,3.13171684 C153.298591,3.4416698 153.202565,3.63890964 152.839999,3.72344226 L149.115118,3.72344226 L148.789295,5.32955412 L149.74152,5.32955412 C149.927284,5.10413378 150.144862,4.85993208 150.39426,4.59694169 C150.596407,4.47483901 150.801787,4.47483901 151.010406,4.59694169 C151.539481,4.88810962 151.978812,5.20745031 152.328413,5.55497332 C152.454344,5.8085712 152.420047,5.97763391 152.225522,6.06216654 L151.83228,6.34394055 L151.672227,7.13290777 C151.551803,7.81856129 151.478633,8.36331893 151.452714,8.76719703 C151.2557,9.46224306 150.64184,9.81915323 149.611114,9.83793826 C149.174055,9.87550832 149.006783,9.68766086 149.109292,9.27439024 L149.223616,8.71084223 L148.047338,8.71084223 C147.691035,10.0070091 147.279874,11.0213854 146.813843,11.7540015 C147.880188,12.1578796 149.362044,12.3081576 151.259457,12.2048399 C151.57096,12.2799801 151.555334,12.4490428 151.212579,12.7120332 C150.645387,13.0689487 150.128879,13.5902254 149.663038,14.2758789 C149.493849,14.5576543 149.265605,14.6703628 148.978298,14.6140077 C147.79287,14.5670451 146.603466,14.1256036 145.410051,13.2896699 C144.960794,13.5714453 144.347269,13.8461722 143.569457,14.1138589 C142.791644,14.3815455 141.904059,14.5576525 140.906673,14.6421851 C140.45304,14.6234001 140.442373,14.4919069 140.874673,14.2477015 C142.372953,13.580833 143.523324,12.8341394 144.32582,12.0075981 C144.081007,11.60372 143.794288,10.9462539 143.465656,10.0351801 C143.52434,9.83793728 143.642273,9.76279829 143.819458,9.80976086 C144.018359,10.0257887 144.241072,10.2394652 144.487604,10.4507967 C144.734135,10.6621283 144.941227,10.8147544 145.108884,10.9086795 C145.237112,10.5987265 145.375341,10.2394683 145.523575,9.83089391 C145.67181,9.42231956 145.78489,9.04897273 145.862821,8.71084223 L144.854582,8.71084223 L144.826001,8.85172923 C144.735116,9.16168219 144.507345,9.38709914 144.142683,9.52798685 C143.778021,9.66887456 143.433275,9.73462117 143.108434,9.72522866 C142.635939,9.7534062 142.485623,9.52798925 142.657484,9.04897104 C142.810865,8.52299026 142.947669,7.94066313 143.067901,7.30197218 L143.233671,6.48482755 C143.3177,6.02459437 143.373722,5.56436809 143.401738,5.10413491 C143.399459,4.74721938 143.579312,4.59694141 143.941303,4.65329649 C144.625846,4.82236174 145.214928,5.0477787 145.708565,5.32955412 L146.660791,5.32955412 L146.986614,3.72344226 L145.418243,3.72344226 C144.81886,3.73283478 144.316459,3.77040427 143.911027,3.83615187 Z M138.450773,9.07714844 C138.149746,9.18046609 138.064205,9.09593473 138.194146,8.82355183 C138.830698,7.94065552 139.504303,6.78304554 140.214979,5.35068717 C140.925655,3.91832879 141.490858,2.55878279 141.910604,1.27200838 C142.052361,0.849345257 142.243455,0.689674915 142.483892,0.792992569 C142.857124,0.839955138 143.240972,0.915094123 143.635446,1.01841178 C144.02992,1.12172943 144.3287,1.22504553 144.531795,1.32836319 C144.810905,1.56317603 144.806329,1.76980824 144.518065,1.94826601 L144.124823,2.23004002 C143.855796,2.72784325 143.569435,3.24207568 143.265732,3.77275272 C142.962029,4.30342975 142.688053,4.75661175 142.443797,5.13231231 L142.706714,5.21684451 C142.905998,5.33894719 142.888467,5.51740228 142.65412,5.75221513 L142.362047,5.94945694 L140.781518,13.7405083 C140.700917,14.2758816 140.105919,14.5858299 138.996506,14.6703625 C138.580024,14.6985401 138.425898,14.4919079 138.534123,14.0504597 C138.685981,13.4399463 138.862751,12.6721198 139.064437,11.7469572 C139.266123,10.8217946 139.436511,10.0163986 139.575606,9.33074505 L139.8557,7.9500524 C139.447021,8.3539305 138.978717,8.72962542 138.450773,9.07714844 Z" id="使"></path>
                        <path d="M165.48702,2.34274962 L163.33051,2.34274962 L162.747458,5.21684451 L164.903968,5.21684451 L165.48702,2.34274962 Z M161.173999,2.34274962 L159.689648,2.34274962 C159.474738,2.38971219 159.332035,2.58695202 159.261535,2.93447504 L158.798523,5.21684451 L160.590947,5.21684451 L161.173999,2.34274962 Z M158.707064,5.66768293 L158.35266,7.41468178 C158.269013,7.78098983 158.176032,8.14729238 158.073715,8.51360042 L159.922152,8.51360042 L160.499488,5.66768293 L158.707064,5.66768293 Z M157.926242,8.96443883 C157.229838,11.2468197 155.596859,13.1299905 153.027257,14.6140077 C152.638398,14.7361104 152.571719,14.6046172 152.827217,14.2195241 C153.69354,13.3084503 154.374809,12.3316435 154.871045,11.2890744 C155.36728,10.2465054 155.803261,8.98323119 156.179001,7.49921399 L156.91639,3.86432927 C157.026904,3.31956346 157.105168,2.89925477 157.151185,2.60339058 C157.197202,2.30752639 157.250983,1.93887575 157.312531,1.49742759 C157.330445,1.22504469 157.513918,1.10294384 157.862954,1.13112138 C158.155976,1.15929892 158.496338,1.25322265 158.884047,1.41289539 C159.271757,1.57256813 159.589445,1.73223847 159.83712,1.8919112 L165.32642,1.8919112 L165.872275,1.27200838 C166.12358,0.99962548 166.388974,0.933878869 166.668468,1.07476658 C167.296423,1.38471954 167.748709,1.73223734 168.02534,2.11733041 C168.153367,2.3145732 168.130119,2.52120541 167.955597,2.73723323 L167.477761,3.15989425 L166.071576,10.0915349 C165.913619,10.824151 165.740799,11.7680844 165.553112,12.9233637 C165.334756,13.8156525 164.542756,14.3604101 163.177089,14.5576529 C162.667059,14.632793 162.441677,14.5012998 162.500936,14.1631693 C162.466083,13.5526559 162.129824,13.1393915 161.492151,12.9233637 C161.361644,12.8764011 161.322303,12.7942178 161.374128,12.6768114 C161.425952,12.559405 161.550839,12.4960065 161.748792,12.4866139 C162.941459,12.5899316 163.543504,12.3832994 163.554946,11.8667111 L164.143714,8.96443883 L161.987203,8.96443883 L161.712826,10.3169541 C161.548961,11.1247103 161.405483,11.9700239 161.282388,12.8529202 C161.225034,13.1816581 161.002312,13.4282079 160.614215,13.5925769 C160.226118,13.7569459 159.783731,13.8438254 159.287039,13.8532179 C158.876082,13.9001805 158.742532,13.6841559 158.886386,13.2051377 C158.97346,12.9139697 159.088305,12.4513954 159.230923,11.8174007 C159.373542,11.183406 159.470572,10.7396164 159.522018,10.4860185 L159.830693,8.96443883 L157.926242,8.96443883 Z M164.235173,8.51360042 L164.812509,5.66768293 L162.655998,5.66768293 L162.078663,8.51360042 L164.235173,8.51360042 Z" id="用"></path>
                    </g>
                </g>
                <g id="coins" transform="translate(171.000000, 3.000000)">
                    <g id="Combined-Shape">
                        <use fill="black" fill-opacity="1" filter="url(#filter-5)" xlink:href="#path-4"></use>
                        <use fill="url(#linearGradient-3)" fill-rule="evenodd" xlink:href="#path-4"></use>
                        <path stroke="#FDD535" stroke-width="1" d="M7.5,29 C11.3659932,29 14.5,25.8659932 14.5,22 C14.5,18.1340068 11.3659932,15 7.5,15 C3.63400675,15 0.5,18.1340068 0.5,22 C0.5,25.8659932 3.63400675,29 7.5,29 Z M7.49836062,18.4535532 L11.043168,21.9983606 L7.49836062,25.543168 L3.95355323,21.9983606 L7.49836062,18.4535532 Z"></path>
                    </g>
                    <g id="Combined-Shape">
                        <use fill="black" fill-opacity="1" filter="url(#filter-7)" xlink:href="#path-6"></use>
                        <use fill="url(#linearGradient-3)" fill-rule="evenodd" xlink:href="#path-6"></use>
                        <path stroke="#FDD535" stroke-width="1" d="M17,10 C19.4852814,10 21.5,7.98528137 21.5,5.5 C21.5,3.01471863 19.4852814,1 17,1 C14.5147186,1 12.5,3.01471863 12.5,5.5 C12.5,7.98528137 14.5147186,10 17,10 Z M16.9989071,2.8999999 L19.5978143,5.49890708 L16.9989071,8.09781426 L14.3999999,5.49890708 L16.9989071,2.8999999 Z"></path>
                    </g>
                </g>
            </g>
        </g>
    </g>
</svg>