<?xml version="1.0" encoding="UTF-8"?>
<svg width="329px" height="35px" viewBox="0 0 329 35" version="1.1" xmlns="http://www.w3.org/2000/svg" xmlns:xlink="http://www.w3.org/1999/xlink">
    <!-- Generator: Sketch 47 (45396) - http://www.bohemiancoding.com/sketch -->
    <title>title-spit</title>
    <desc>Created with Sketch.</desc>
    <defs>
        <linearGradient x1="100%" y1="50%" x2="0%" y2="50%" id="linearGradient-1">
            <stop stop-color="#FFFFFF" offset="0%"></stop>
            <stop stop-color="#000000" offset="100%"></stop>
        </linearGradient>
        <linearGradient x1="1.41638472e-14%" y1="50%" x2="100%" y2="50%" id="linearGradient-2">
            <stop stop-color="#FFFFFF" offset="0%"></stop>
            <stop stop-color="#000000" offset="100%"></stop>
        </linearGradient>
    </defs>
    <g id="买单结果-V3.1" stroke="none" stroke-width="1" fill="none" fill-rule="evenodd">
        <g id="6.实物券（套餐）图文详情" transform="translate(-21.000000, -576.000000)">
            <g id="title-spit" transform="translate(21.000000, 577.000000)">
                <g id="Group-3">
                    <g id="Group-2" transform="translate(0.000000, 5.000000)" fill-rule="nonzero">
                        <polygon id="Line" fill="url(#linearGradient-1)" points="191 1 329 1 329 0 191 0"></polygon>
                        <polygon id="Line" fill="url(#linearGradient-2)" points="0 1 135 1 135 0 0 0"></polygon>
                    </g>
                    <path d="M148.235093,7.97806717 L148.002056,9.32145305 L145,9.32145305 L145.219328,7.97806717 L145.932145,7.97806717 L147.069911,1.34338588 L146.343386,1.34338588 L146.576422,0 L148.906785,0 L150.94928,4.85263879 L154.513365,0 L157.227553,0 L156.994517,1.34338588 L156.267992,1.34338588 L155.130226,7.97806717 L155.856751,7.97806717 L155.623715,9.32145305 L152.33379,9.32145305 L152.566827,7.97806717 L153.279644,7.97806717 L153.773132,4.97601097 C154.033585,3.44071282 154.211789,2.74160384 154.211789,2.74160384 C154.211789,2.74160384 153.677176,3.59150103 152.978067,4.52364633 L150.757368,7.47087046 L150.263879,7.47087046 L149.071282,4.66072653 C148.646333,3.68745716 148.372173,2.79643592 148.344757,2.7141878 C148.331049,2.75531186 148.207676,3.6463331 148.002056,4.97601097 L147.508568,7.97806717 L148.235093,7.97806717 Z M164.6573,2.57710761 L163.259082,2.57710761 L163.204249,1.46675805 L160.681974,1.46675805 L160.257025,3.90678547 L163.519534,3.90678547 L163.259082,5.3598355 L159.996573,5.3598355 L159.571624,7.854695 L162.23098,7.854695 L162.710761,6.74434544 L164.095271,6.74434544 L163.656614,9.32145305 L156.734064,9.32145305 L156.953393,7.97806717 L157.679918,7.97806717 L158.845099,1.34338588 L158.118574,1.34338588 L158.351611,0 L165.095956,0 L164.6573,2.57710761 Z M172.306374,5.01713502 L172.936943,1.34338588 L172.100754,1.34338588 L172.33379,0 L175.500343,0 L175.267306,1.34338588 L174.568197,1.34338588 L173.197395,9.32145305 L171.758053,9.32145305 L168.934202,4.33173406 C168.509253,3.59150103 168.235093,2.86497601 168.207676,2.79643592 C168.207676,2.82385195 168.125428,3.57779301 167.960932,4.53735435 L167.371487,7.97806717 L168.166552,7.97806717 L167.933516,9.32145305 L164.808088,9.32145305 L165.041124,7.97806717 L165.740233,7.97806717 L166.877999,1.34338588 L166.014393,1.34338588 L166.24743,0 L168.536669,0 L171.429061,5.11309116 C171.812886,5.81220014 172.087046,6.53872515 172.114462,6.60726525 C172.114462,6.56614119 172.169294,5.81220014 172.306374,5.01713502 Z M179.379712,9.44482522 C181.518163,9.44482522 182.820425,8.38930775 183.204249,6.25085675 L184.067855,1.34338588 L184.766964,1.34338588 L185,0 L181.81974,0 L181.586703,1.34338588 L182.313228,1.34338588 L181.463331,6.11377656 C181.244003,7.32008225 180.695682,7.93694311 179.516792,7.93694311 C178.241947,7.93694311 177.652502,7.19671008 177.885538,5.85332419 L178.694311,1.34338588 L179.434544,1.34338588 L179.667581,0 L176.2817,0 L176.048663,1.34338588 L176.76148,1.34338588 L176.007539,5.62028787 C175.582591,8.00548321 177.035641,9.44482522 179.379712,9.44482522 Z" id="MENU" stroke="#FFFFFF" stroke-width="0.5" fill="#000000"></path>
                </g>
                <path d="M143.045768,24.1610722 C142.494905,23.7551737 142.045518,23.3202824 141.697605,22.8708948 L140.146492,22.8708948 C139.740594,23.3347788 139.291206,23.7551737 138.769337,24.1610722 L143.045768,24.1610722 Z M143.23422,22.8708948 C144.205478,23.6826918 145.59713,24.3205324 147.409177,24.7989128 L146.785833,26.0745939 C145.785583,25.7266808 144.9158,25.3352787 144.176485,24.9003874 L144.176485,25.2917896 L138.290956,25.2917896 L138.290956,25.9151337 L144.901304,25.9151337 L144.901304,27.0168583 L138.290956,27.0168583 L138.290956,27.6257061 L144.901304,27.6257061 L144.901304,28.7274306 L138.290956,28.7274306 L138.290956,29.3652712 L146.988782,29.3652712 L146.988782,30.5974631 L144.248967,30.5974631 C145.002778,31.4672457 145.655115,32.3950137 146.191481,33.3807673 L144.944793,33.9316296 C144.770836,33.5837166 144.59688,33.2502999 144.422923,32.9603724 C141.799079,33.3517746 139.059264,33.6127093 136.203478,33.7286803 L135.870061,32.597963 C136.522398,32.5399775 137.232721,31.8731442 137.986532,30.5974631 L134.43492,30.5974631 L134.43492,29.3652712 L136.95729,29.3652712 L136.95729,25.2627968 C136.290456,25.5817171 135.565638,25.8716446 134.782833,26.1325794 L134.116,24.9438765 C135.913551,24.4075106 137.319699,23.7116846 138.363438,22.8708948 L134.63787,22.8708948 L134.63787,21.6242064 L139.537645,21.6242064 C139.769587,21.2762934 139.972536,20.8993877 140.131996,20.5224819 L141.465663,20.681942 C141.335195,21.0153587 141.190231,21.3342789 141.016275,21.6242064 L146.800329,21.6242064 L146.800329,22.8708948 L143.23422,22.8708948 Z M143.741594,31.8586478 C143.509652,31.5252312 143.27771,31.2208073 143.045768,30.9308798 L144.031521,30.5974631 L139.581134,30.5974631 C139.102753,31.3802674 138.638869,32.0036116 138.174985,32.481992 C140.088507,32.366021 141.944043,32.1485754 143.741594,31.8586478 Z M152.294455,20.4934891 L153.454165,20.4934891 L153.454165,20.9863659 L155.367687,20.9863659 L155.367687,21.9866158 L153.454165,21.9866158 L153.454165,22.5519745 L155.324198,22.5519745 L155.324198,23.3057861 C154.07751,24.9148838 152.178484,26.0166083 149.627122,26.5964634 L149.047267,25.5962134 C149.902553,25.4222569 150.685358,25.2048113 151.381184,24.9148838 C151.062263,24.653949 150.71435,24.3930142 150.337445,24.1320795 C150.105503,24.3350287 149.859064,24.537978 149.598129,24.7264309 L148.887807,23.8276556 C149.772086,23.2478005 150.366437,22.5229818 150.670861,21.682192 L151.87406,21.8271557 C151.787082,22.0735941 151.671111,22.3200325 151.55514,22.5519745 L152.294455,22.5519745 L152.294455,20.4934891 Z M152.337945,24.4509998 C152.87431,24.1610722 153.352691,23.8276556 153.758589,23.4507498 L150.960789,23.4507498 C150.946292,23.4652462 150.931796,23.4797426 150.931796,23.4942389 C151.468162,23.8131592 151.932046,24.1320795 152.337945,24.4509998 Z M156.628872,22.1315796 C157.353691,22.4360035 158.049517,22.7549238 158.71635,23.1028368 C159.209227,22.7549238 159.600629,22.3925144 159.890556,21.9866158 L156.092506,21.9866158 L156.092506,20.913884 L161.35469,20.913884 L161.35469,21.798163 C161.006777,22.5229818 160.499404,23.1608223 159.818074,23.7116846 C160.600879,24.1465759 161.340194,24.6249563 162.050516,25.1323294 L161.383683,26.1760685 C160.528397,25.4947388 159.673111,24.9003874 158.817825,24.3785179 C158.324948,24.653949 157.774085,24.9003874 157.179734,25.117833 L156.454915,24.1610722 C156.889807,24.0161085 157.281209,23.8711447 157.643618,23.6971882 C157.121749,23.4072607 156.599879,23.1608223 156.092506,22.9433767 L156.628872,22.1315796 Z M152.787332,29.6407023 L152.787332,30.3365284 L158.353941,30.3365284 L158.353941,29.6407023 L152.787332,29.6407023 Z M158.353941,28.8723944 L158.353941,28.2345539 L152.787332,28.2345539 L152.787332,28.8723944 L158.353941,28.8723944 Z M160.238469,30.3075356 L161.325698,30.8583979 C160.87631,31.3947638 160.39793,31.8876406 159.890556,32.3370282 C160.528397,32.5399775 161.151741,32.7719195 161.760589,33.0038615 L161.093756,34.0041115 C159.209227,33.1488253 157.266712,32.4674956 155.295205,31.9746188 L155.817075,31.2063109 C156.831821,31.4382529 157.817575,31.6846913 158.774335,31.9746188 C159.03527,31.7136841 159.296205,31.4527493 159.542643,31.1773182 L152.787332,31.1773182 L152.787332,32.6994376 C153.787582,32.5834666 154.744343,32.4385029 155.643118,32.2790427 L155.87506,33.3227818 C154.642868,33.5402274 153.106252,33.7431767 151.279709,33.9171332 L150.9173,32.829905 C151.265213,32.7719195 151.439169,32.597963 151.439169,32.3080355 L151.439169,28.0316046 C150.9173,28.2490502 150.351941,28.4664959 149.772086,28.6984379 L149.047267,27.5822169 C151.685608,26.92988 153.7151,25.9296301 155.164738,24.5669708 L156.150491,24.5669708 C157.484158,25.7991627 159.55714,26.7414271 162.369437,27.4082604 L161.630121,28.509985 C160.905303,28.2635466 160.252966,28.0171082 159.644118,27.7851662 L159.644118,31.0613472 C159.847067,30.8004124 160.050016,30.553974 160.238469,30.3075356 Z M155.947542,26.4225069 C156.121499,26.7124344 156.280959,27.0313547 156.440419,27.4082604 L158.759839,27.4082604 C157.368187,26.7849163 156.338944,26.1615721 155.657615,25.5527243 C154.918299,26.1905649 153.961539,26.813909 152.787332,27.4082604 L155.208227,27.4082604 C155.03427,27.1183329 154.860314,26.8573982 154.686357,26.6254561 L155.947542,26.4225069 Z M170.588882,26.8573982 C171.850066,28.162072 172.864813,29.3797676 173.618624,30.5249813 L174.67686,29.4667458 C173.67661,28.1475756 172.458914,26.8284054 171.009277,25.4947388 C171.110751,25.0598475 171.19773,24.5814671 171.284708,24.074094 L175.053766,24.074094 L175.053766,31.786166 C175.053766,32.2065609 174.850816,32.4240065 174.473911,32.4240065 L172.284958,32.3515246 L172.661864,33.7286803 L174.937795,33.7286803 C175.938044,33.7286803 176.445418,33.177818 176.445418,32.0905899 L176.445418,22.7404274 L171.429672,22.7404274 C171.487657,22.030105 171.51665,21.2762934 171.51665,20.4789928 L170.110501,20.4789928 C170.110501,21.2762934 170.067012,22.030105 170.009027,22.7404274 L164.732346,22.7404274 L164.732346,33.8881405 L166.123998,33.8881405 L166.123998,24.074094 L169.849567,24.074094 C169.762588,24.6249563 169.646617,25.1323294 169.51615,25.5962134 C169.023273,27.161822 167.99403,28.4809923 166.428422,29.5537241 L167.35619,30.669945 C168.907302,29.6262059 169.980034,28.3650212 170.588882,26.8573982 Z M185.882558,20.45 C186.027522,20.8124094 186.172486,21.2183079 186.31745,21.6531992 L191.608627,21.6531992 L191.608627,24.4075106 L190.27496,24.4075106 L190.27496,22.9143839 L180.765338,22.9143839 L180.765338,24.4799925 L179.431671,24.4799925 L179.431671,21.6531992 L184.867812,21.6531992 C184.722848,21.3052862 184.563388,20.9863659 184.389432,20.681942 L185.882558,20.45 Z M185.027272,25.0888403 L186.042018,25.0888403 C187.216225,26.5094851 189.245718,27.7416771 192.116,28.8144089 L191.376685,29.9306298 C190.883808,29.7276806 190.419924,29.5392277 189.999529,29.3507748 L189.999529,33.9171332 L188.680359,33.9171332 L188.680359,33.3952637 L182.519399,33.3952637 L182.519399,33.9171332 L181.185733,33.9171332 L181.185733,29.2927893 C180.692856,29.5247313 180.170986,29.7276806 179.649117,29.9306298 L178.909802,28.8144089 C181.548142,27.8576481 183.592131,26.6254561 185.027272,25.0888403 Z M182.519399,32.1485754 L188.680359,32.1485754 L188.680359,30.1335791 L182.519399,30.1335791 L182.519399,32.1485754 Z M181.939544,28.9158835 L189.086257,28.9158835 C187.578634,28.1330792 186.404428,27.2488003 185.534645,26.2630467 C184.505403,27.3067858 183.302203,28.1910647 181.939544,28.9158835 Z M187.332196,23.2912897 C189.071761,24.190065 190.550391,25.0888403 191.739094,25.9731192 L190.782333,26.9153837 C189.753091,26.0600975 188.303453,25.1323294 186.447917,24.1465759 L187.332196,23.2912897 Z M183.679109,23.2912897 L184.577885,24.1030867 C183.345693,25.1903149 181.838069,26.1470757 180.040519,26.9588728 L179.214225,25.886141 C180.982783,25.1468258 182.461414,24.2770432 183.679109,23.2912897 Z" id="套餐内容" fill="#000000"></path>
            </g>
        </g>
    </g>
</svg>