<?xml version="1.0" encoding="UTF-8"?>
<svg width="28px" height="28px" viewBox="0 0 28 28" version="1.1" xmlns="http://www.w3.org/2000/svg" xmlns:xlink="http://www.w3.org/1999/xlink">
    <!-- Generator: Sketch 48.1 (47250) - http://www.bohemiancoding.com/sketch -->
    <title>small-无门槛</title>
    <desc>Created with Sketch.</desc>
    <defs></defs>
    <g id="霸王餐散碎类目" stroke="none" stroke-width="1" fill="none" fill-rule="evenodd" transform="translate(-617.000000, -367.000000)">
        <g id="Group-11" transform="translate(607.300781, 358.000000)">
            <g id="small-无门槛" transform="translate(1.202259, 0.397167)">
                <polygon id="Rectangle-13" fill="#FF1800" transform="translate(18.496960, 18.602833) rotate(45.000000) translate(-18.496960, -18.602833) " points="24.1538142 -1.19615691 24.1538142 38.4018228 12.8401057 27.0881143 12.8401057 10.1175516"></polygon>
                <path d="M12.9027947,21.2218214 L13.7069616,21.2218214 C13.9684793,21.2218214 14.007707,21.0845246 14.0469346,20.247668 C14.2169211,20.3849648 14.56997,20.5222616 14.79226,20.5745651 C14.7007288,21.6860153 14.4784388,21.9867606 13.772341,21.9867606 L12.7981877,21.9867606 C11.974407,21.9867606 11.7586549,21.7317809 11.7586549,20.9472278 L11.7586549,19.2669767 C11.4513716,20.4372683 10.7779636,21.4964149 9.20231951,22.1436712 C9.09117449,21.9344571 8.88196034,21.6467876 8.67928414,21.489877 C10.1176314,20.9406899 10.72566,20.0646056 10.9937156,19.0708384 L8.79042915,19.0708384 L8.79042915,18.2993613 L11.1440883,18.2993613 C11.183316,17.9397744 11.2029298,17.5671117 11.2160057,17.2075249 L9.17616774,17.2075249 L9.17616774,16.4425857 L14.3738317,16.4425857 L14.3738317,17.2075249 L12.0201726,17.2075249 C12.0005587,17.5671117 11.9809449,17.9397744 11.9351793,18.2993613 L14.7334185,18.2993613 L14.7334185,19.0708384 L12.5758976,19.0708384 L12.5758976,20.9341519 C12.5758976,21.1825937 12.6282012,21.2218214 12.9027947,21.2218214 Z M15.5441233,22.1305953 L15.5441233,17.4690426 L16.3417523,17.4690426 L16.3417523,22.1305953 L15.5441233,22.1305953 Z M15.7467995,16.3968201 L16.3417523,15.9914677 C16.6686494,16.3641304 17.1132294,16.8740899 17.3159057,17.2140629 L16.6686494,17.6717188 C16.4921249,17.3252079 16.0736967,16.7825587 15.7467995,16.3968201 Z M21.0359947,16.2529854 L21.0359947,21.2545111 C21.0359947,21.6860153 20.9379256,21.8821535 20.663332,22.0063744 C20.3952764,22.1305953 19.9768481,22.1436712 19.3688195,22.1371333 C19.3361298,21.9279191 19.2249847,21.601022 19.1138397,21.4048838 C19.4930404,21.4244976 19.9441584,21.4244976 20.0683793,21.4179596 C20.1991381,21.4179596 20.2449037,21.378732 20.2449037,21.2479731 L20.2449037,16.9983108 L17.394361,16.9983108 L17.394361,16.2529854 L21.0359947,16.2529854 Z M25.4491056,18.3908924 L25.4491056,19.2146732 L24.7953114,19.2146732 L24.7953114,16.1222265 L25.4491056,16.1222265 L25.4491056,18.1947542 C25.749851,17.645567 25.9982928,16.861014 26.1486654,16.1026127 L26.8678391,16.2791371 C26.8220735,16.4883513 26.763232,16.6910275 26.7043905,16.9067796 L27.8354545,16.9067796 L27.8354545,17.5605738 L26.4951764,17.5605738 C26.4167211,17.7828638 26.3382658,17.992078 26.2532725,18.1947542 L26.7109285,17.8482433 C27.0835912,18.1162989 27.4824056,18.4954995 27.6916198,18.7504793 L27.1881982,19.1689076 C26.9985979,18.9073899 26.5932455,18.5020375 26.2467346,18.214368 C26.1355895,18.4824236 26.0179066,18.7177896 25.9002236,18.9204658 C25.8086924,18.7897069 25.6060162,18.5412651 25.4491056,18.3908924 Z M24.501104,16.3968201 L24.501104,18.9008519 L23.8930754,18.9008519 L23.8930754,16.3968201 L24.501104,16.3968201 Z M23.9061513,19.345432 L23.5073368,19.914233 C23.4419574,19.7180947 23.3242744,19.4304252 23.1935156,19.1427558 L23.1935156,22.1436712 L22.5201076,22.1436712 L22.5201076,19.6200256 C22.3828108,20.0646056 22.2193622,20.4634201 22.0559137,20.7445516 C21.9970722,20.5484133 21.8466995,20.2084404 21.7355545,20.01884 C22.0624516,19.5873359 22.3501211,18.7504793 22.5201076,18.0247677 L22.5201076,17.9659262 L21.8597754,17.9659262 L21.8597754,17.2532905 L22.5201076,17.2532905 L22.5201076,16.0372333 L23.1935156,16.0372333 L23.1935156,17.2532905 L23.6969371,17.2532905 L23.6969371,17.9659262 L23.1935156,17.9659262 L23.1935156,18.2274439 C23.37004,18.4693478 23.8080822,19.1689076 23.9061513,19.345432 Z M24.5926352,20.0515297 L24.5926352,21.3395043 L24.952222,21.3395043 L24.952222,20.0515297 L24.5926352,20.0515297 Z M25.8871477,20.0515297 L25.5340989,20.0515297 L25.5340989,21.3395043 L25.8871477,21.3395043 L25.8871477,20.0515297 Z M26.8416873,20.0515297 L26.4755625,20.0515297 L26.4755625,21.3395043 L26.8416873,21.3395043 L26.8416873,20.0515297 Z M27.5216333,21.3395043 L27.8419924,21.3395043 L27.8419924,22.0194503 L23.5269507,22.0194503 L23.5269507,21.3395043 L23.9453789,21.3395043 L23.9453789,19.463115 L27.5216333,19.463115 L27.5216333,21.3395043 Z" id="无门槛" fill="#FFFFFF" transform="translate(18.260638, 19.067569) rotate(-45.000000) translate(-18.260638, -19.067569) "></path>
            </g>
        </g>
    </g>
</svg>