<?xml version="1.0" encoding="utf-8"?>
<!-- Generator: Adobe Illustrator 20.1.0, SVG Export Plug-In . SVG Version: 6.00 Build 0)  -->
<svg version="1.1" id="Layer_1" xmlns="http://www.w3.org/2000/svg" xmlns:xlink="http://www.w3.org/1999/xlink" x="0px" y="0px"
	 viewBox="0 0 24 24" style="enable-background:new 0 0 24 24;" xml:space="preserve">
<style type="text/css">
	.st0{fill:#868585;}
</style>
<g>
	<g>
		<g>
			<path class="st0" d="M22,24H2c-0.6,0-1-0.4-1-1V11c0-0.6,0.4-1,1-1h20c0.6,0,1,0.4,1,1v12C23,23.6,22.6,24,22,24z M3,22h18V12H3
				V22z"/>
		</g>
	</g>
	<g>
		<g>
			<path class="st0" d="M23,12H1c-0.6,0-1-0.4-1-1V7c0-0.6,0.4-1,1-1h22c0.6,0,1,0.4,1,1v4C24,11.6,23.6,12,23,12z M2,10h20V8H2V10z
				"/>
		</g>
	</g>
	<g>
		<g>
			<path class="st0" d="M12,24c-0.6,0-1-0.4-1-1V7c0-0.6,0.4-1,1-1s1,0.4,1,1v16C13,23.6,12.6,24,12,24z"/>
		</g>
	</g>
	<g>
		<g>
			<path class="st0" d="M15,8c-0.6,0-1-0.4-1-1s0.4-1,1-1c1.1,0,2-0.9,2-2s-0.9-2-2-2s-2,0.9-2,2c0,0.6-0.4,1-1,1s-1-0.4-1-1
				c0-2.2,1.8-4,4-4s4,1.8,4,4S17.2,8,15,8z"/>
		</g>
	</g>
	<g>
		<g>
			<path class="st0" d="M9,8C6.8,8,5,6.2,5,4s1.8-4,4-4s4,1.8,4,4c0,0.6-0.4,1-1,1s-1-0.4-1-1c0-1.1-0.9-2-2-2S7,2.9,7,4s0.9,2,2,2
				c0.6,0,1,0.4,1,1S9.6,8,9,8z"/>
		</g>
	</g>
	<g>
		<g>
			<path class="st0" d="M12,10c-0.6,0-1-0.4-1-1V4c0-0.6,0.4-1,1-1s1,0.4,1,1v5C13,9.6,12.6,10,12,10z"/>
		</g>
	</g>
</g>
</svg>
