<?xml version="1.0" encoding="UTF-8"?>
<svg width="318px" height="76px" viewBox="0 0 318 76" version="1.1" xmlns="http://www.w3.org/2000/svg" xmlns:xlink="http://www.w3.org/1999/xlink">
    <!-- Generator: Sketch 49 (51002) - http://www.bohemiancoding.com/sketch -->
    <title>礼券背景@2x</title>
    <desc>Created with Sketch.</desc>
    <defs></defs>
    <g id="广告模版-V1.0" stroke="none" stroke-width="1" fill="none" fill-rule="evenodd">
        <g id="2.-广告模版" transform="translate(-32.000000, -1785.000000)">
            <g id="礼券背景" transform="translate(32.000000, 1785.000000)">
                <rect id="Rectangle-14" stroke="#E75040" x="0.5" y="17.5" width="317" height="58"></rect>
                <rect id="Rectangle-3" fill="#FFFFFF" x="74" y="0" width="162" height="34"></rect>
                <circle id="Oval" fill="#E75040" cx="103" cy="17" r="15"></circle>
                <circle id="Oval" fill="#E75040" cx="139" cy="17" r="15"></circle>
                <circle id="Oval" fill="#E75040" cx="174" cy="17" r="15"></circle>
                <circle id="Oval" fill="#E75040" cx="210" cy="17" r="15"></circle>
                <path d="M110.65,15.648 L101.02,15.648 C100.786,16.35 100.57,17.016 100.354,17.628 L108.112,17.628 L108.346,17.556 L109.354,18.168 C108.058,19.5 106.24,21.282 104.584,22.848 C105.736,23.334 106.762,23.802 107.518,24.252 L106.708,25.404 C104.962,24.324 101.416,22.866 98.662,22.056 L99.418,21.084 C100.606,21.408 101.938,21.858 103.252,22.344 C104.458,21.21 105.79,19.932 106.798,18.888 L98.446,18.888 C98.806,17.988 99.202,16.854 99.616,15.648 L95.08,15.648 L95.08,14.352 L100.03,14.352 C100.264,13.65 100.498,12.93 100.714,12.228 L96.52,12.228 L96.52,10.95 L101.092,10.95 C101.29,10.266 101.488,9.6 101.632,8.97 L103.054,8.97 C102.874,9.6 102.676,10.266 102.46,10.95 L109.354,10.95 L109.354,12.228 L102.1,12.228 C101.866,12.93 101.65,13.65 101.434,14.352 L110.65,14.352 L110.65,15.648 Z" id="专" fill="#FFFFFF"></path>
                <path d="M146.758,10.5 L146.758,11.67 L131.206,11.67 L131.206,10.5 L138.424,10.5 C138.244,10.032 138.01,9.492 137.794,9.078 L139.126,8.808 C139.414,9.312 139.72,9.978 139.918,10.5 L146.758,10.5 Z M134.788,13.812 L134.788,15.432 L143.248,15.432 L143.248,13.812 L134.788,13.812 Z M144.634,16.422 L133.474,16.422 L133.474,12.822 L144.634,12.822 L144.634,16.422 Z M146.974,20.76 L146.974,21.93 L139.666,21.93 L139.666,24.018 C139.666,24.756 139.45,25.062 138.82,25.26 C138.208,25.422 137.164,25.422 135.562,25.422 C135.49,25.062 135.274,24.63 135.112,24.306 C136.318,24.342 137.542,24.342 137.848,24.324 C138.19,24.306 138.28,24.234 138.28,23.982 L138.28,21.93 L131.044,21.93 L131.044,20.76 L138.28,20.76 L138.28,19.68 C139.486,19.428 140.818,19.05 141.934,18.6 L132.718,18.6 L132.718,17.502 L144.058,17.502 L144.346,17.43 L145.246,18.186 C143.716,19.068 141.664,19.806 139.666,20.292 L139.666,20.76 L146.974,20.76 Z" id="享" fill="#FFFFFF"></path>
                <path d="M172.272,11.976 L172.992,12.498 C172.434,13.83 171.642,15.126 170.706,16.278 C171.498,17.016 173.136,18.762 173.586,19.23 L172.758,20.328 C172.308,19.716 171.3,18.546 170.508,17.664 L170.508,25.35 L169.212,25.35 L169.212,17.916 C168.258,18.87 167.25,19.662 166.278,20.274 C166.17,19.914 165.9,19.266 165.702,18.996 C167.844,17.772 170.058,15.594 171.318,13.254 L166.368,13.254 L166.368,12.03 L170.13,12.03 C169.788,11.328 169.032,10.266 168.348,9.528 L169.392,8.916 C170.112,9.672 170.904,10.698 171.246,11.382 L170.238,12.03 L172.02,12.03 L172.272,11.976 Z M177.276,23.676 L179.958,23.676 C180.732,23.676 180.858,23.028 180.966,20.364 C181.308,20.634 181.812,20.868 182.19,20.958 C182.028,23.892 181.668,24.9 180.03,24.9 L177.15,24.9 C175.476,24.9 175.026,24.378 175.026,22.542 L175.026,9.114 L176.34,9.114 L176.34,22.578 C176.34,23.514 176.484,23.676 177.276,23.676 Z" id="礼" fill="#FFFFFF"></path>
                <path d="M206.644,18.492 L214.978,18.492 C214.15,17.862 213.43,17.124 212.872,16.332 L208.84,16.332 C208.21,17.106 207.49,17.826 206.644,18.492 Z M218.866,16.332 L214.384,16.332 C215.608,17.682 217.48,18.78 219.46,19.302 C219.154,19.554 218.794,20.076 218.596,20.418 C217.606,20.112 216.652,19.626 215.77,19.068 L215.77,19.086 C215.536,22.722 215.284,24.144 214.78,24.666 C214.456,25.026 214.114,25.134 213.592,25.188 C213.088,25.224 212.152,25.224 211.18,25.152 C211.162,24.774 211,24.252 210.784,23.892 C211.738,24 212.656,24 212.998,24 C213.322,24 213.502,23.964 213.664,23.82 C213.988,23.496 214.204,22.398 214.402,19.716 L210.046,19.716 C209.56,22.398 208.336,24.324 204.538,25.368 C204.394,25.026 204.052,24.504 203.764,24.234 C207.166,23.406 208.228,21.858 208.678,19.716 L205.888,19.716 L205.888,19.068 C205.15,19.554 204.376,20.004 203.512,20.4 C203.386,20.076 202.972,19.554 202.666,19.302 C204.466,18.528 205.924,17.484 207.058,16.332 L203.188,16.332 L203.188,15.126 L208.102,15.126 C208.57,14.532 208.948,13.92 209.29,13.29 L204.286,13.29 L204.286,12.102 L207.274,12.102 C206.986,11.49 206.374,10.554 205.816,9.888 L206.878,9.348 C207.472,10.032 208.138,10.968 208.444,11.598 L207.472,12.102 L209.83,12.102 C210.262,11.04 210.532,9.942 210.676,8.898 L212.08,9.042 C211.9,10.068 211.63,11.094 211.27,12.102 L213.412,12.102 C214.006,11.346 214.744,10.194 215.14,9.402 L216.364,9.816 C215.878,10.608 215.302,11.436 214.744,12.102 L217.642,12.102 L217.642,13.29 L210.766,13.29 C210.46,13.92 210.136,14.532 209.722,15.126 L218.866,15.126 L218.866,16.332 Z" id="券" fill="#FFFFFF"></path>
            </g>
        </g>
    </g>
</svg>