<?xml version="1.0" encoding="utf-8"?>
<!-- Generator: Adobe Illustrator 20.1.0, SVG Export Plug-In . SVG Version: 6.00 Build 0)  -->
<svg version="1.1" id="Layer_1" xmlns="http://www.w3.org/2000/svg" xmlns:xlink="http://www.w3.org/1999/xlink" x="0px" y="0px"
	 viewBox="0 0 24 24" style="enable-background:new 0 0 24 24;" xml:space="preserve">
<g>
	<g>
		<g>
			<path d="M12,24C5.4,24,0,18.6,0,12S5.4,0,12,0s12,5.4,12,12S18.6,24,12,24z M12,2C6.5,2,2,6.5,2,12s4.5,10,10,10s10-4.5,10-10
				S17.5,2,12,2z"/>
		</g>
	</g>
	<g>
		<g>
			<path d="M12,13c-1.9,0-3.5-1.2-3.9-2.8C8,10,8,9.8,8,9.5C8,7.6,9.8,6,12,6s4,1.6,4,3.5c0,0.3,0,0.5-0.1,0.7
				c-0.1,0.5-0.7,0.9-1.2,0.7c-0.5-0.1-0.9-0.7-0.7-1.2c0-0.1,0-0.2,0-0.3C14,8.7,13.1,8,12,8s-2,0.7-2,1.5c0,0.1,0,0.2,0,0.3
				c0.2,0.7,1,1.2,2,1.2c0.6,0,1,0.4,1,1S12.6,13,12,13z"/>
		</g>
	</g>
	<g>
		<g>
			<path d="M12,18c-2.2,0-4-1.6-4-3.5c0-0.3,0-0.5,0.1-0.7c0.1-0.5,0.7-0.9,1.2-0.7c0.5,0.1,0.9,0.7,0.7,1.2c0,0.1,0,0.2,0,0.3
				c0,0.8,0.9,1.5,2,1.5s2-0.7,2-1.5c0-0.1,0-0.2,0-0.3c-0.2-0.7-1-1.2-2-1.2c-0.6,0-1-0.4-1-1s0.4-1,1-1c1.9,0,3.5,1.2,3.9,2.8
				C16,14,16,14.2,16,14.5C16,16.4,14.2,18,12,18z"/>
		</g>
	</g>
	<g>
		<g>
			<path d="M12,20c-0.6,0-1-0.4-1-1v-2c0-0.6,0.4-1,1-1s1,0.4,1,1v2C13,19.6,12.6,20,12,20z"/>
		</g>
	</g>
	<g>
		<g>
			<path d="M12,8c-0.6,0-1-0.4-1-1V5c0-0.6,0.4-1,1-1s1,0.4,1,1v2C13,7.6,12.6,8,12,8z"/>
		</g>
	</g>
	<g>
		<g>
			<path d="M15,11c-0.3,0-0.5-0.1-0.7-0.3S14,10.3,14,10s0.1-0.5,0.3-0.7c0.4-0.4,1-0.4,1.4,0C15.9,9.5,16,9.7,16,10
				s-0.1,0.5-0.3,0.7S15.3,11,15,11z"/>
		</g>
	</g>
</g>
</svg>
