<?xml version="1.0" encoding="utf-8"?>
<!-- Generator: Adobe Illustrator 18.0.0, SVG Export Plug-In . SVG Version: 6.00 Build 0)  -->
<!DOCTYPE svg PUBLIC "-//W3C//DTD SVG 1.1//EN" "http://www.w3.org/Graphics/SVG/1.1/DTD/svg11.dtd">
<svg version="1.1" id="图层_1" xmlns="http://www.w3.org/2000/svg" xmlns:xlink="http://www.w3.org/1999/xlink" x="0px" y="0px"
	 viewBox="0 0 300 300" enable-background="new 0 0 300 300" xml:space="preserve">
<g>
	<g>
		<path fill="#FE6A66" d="M297.6,153H293C293,74,229.3,9.9,151,9.9c-35.5,0-69.5,12.6-95.7,36.5l-3.1-3.7C79.3,18,114.3,5.4,151,5.4
			C231.9,5.4,297.6,69,297.6,153z"/>
	</g>
	<g>
		<path fill="#FE6A66" d="M151,297.3c-76.5,0-140.7-59.7-146.2-135.9l4.6-0.3c5.3,73.8,67.6,131.6,141.6,131.6
			c47.2,0,91.3-23.4,117.7-62.6l3.8,2.6C245.2,273.2,199.8,297.3,151,297.3z"/>
	</g>
	<g>
		<path d="M9.3,111.9l1.4-7.7h13.7l1.2-7.1h21l-1.2,7.1h7c5,0,7.3,4.8,4.2,10.5l-11.7,22.9c-1.4,3-4.3,4.7-7.2,4.7H15.9
			c-3.2,0-5.8-2.1-5.7-5.5l-1.3-17h18.6l1,10.5l9.8-18.4H9.3z M32.1,63.8h20l5.7,14.3c0.4,1.5,1.7,2.1,3.1,2.1h3.5l-4.6,15.7H47.8
			c-2.7,0-5.1-1.6-6.3-4.6l-3-7l-5.3,7c-2.2,3-5.2,4.6-8.1,4.6H13l1-15.7h3.4c1.4,0,2.8-0.6,3.9-2.1L32.1,63.8z M98.3,92l-3.4,19.3
			c-0.2,1.1,0,2.2,0.8,3.1l4.7,7.3c0.8,1,2.2,1.4,3.5,1.4h7.5l-6,19.2H94.8c-1.9,0-3.3-0.7-4.1-2.3l-6.5-13.1l-11,13.1
			c-1.3,1.6-3,2.3-4.9,2.3H57.7l0.6-19.2h8c1.1,0,2.2-0.2,3.7-1.5l7.3-7.2c1-0.9,1.4-1.9,1.6-3.1L82.4,92H98.3z M81.9,80.8l1.6-5.9
			H66.2l1.3-7.3H122l-1.3,7.3h-15.6l-1.6,5.9h7.5c3.9,0,6.6,2.9,5.9,6.6l-4.9,27.9H97.2l4.7-26.6H79.9l-4.7,26.6H60.4l4.9-27.9
			c0.7-3.8,4.4-6.6,8.3-6.6H81.9z"/>
		<path d="M145.5,142.5l1.5-8.2h-28l1.3-7.7h2.4l9.5-53.7h-2.4l1.3-7.5h50.3l-1.3,7.5h-2.9l-9.5,53.7h2.9l-1.3,7.7h-2.9l-1.5,8.2
			H145.5z M142,126.6h6.3l2.5-14.4h-6.3L142,126.6z M145.9,104.6h6.3l2.1-12H148L145.9,104.6z M149.4,85h6.3l2.1-12.1h-6.3L149.4,85
			z M201.5,78.1l3.8,9.6l10.2-13.9h-33l1.3-7.7h47.1c4.7,0,5.8,4,3.6,7.5L213.2,107l4.4,10.8c1.3,3.4,3.1,4.6,5.6,4.6h3.4l-5.9,20
			h-13.6c-3.7,0-5.9-2.2-6.8-5.4l-2-6.7l-4.3,6.7c-2,3.2-5.2,5.4-8.7,5.4h-13.6l1-20h3.7c2.4,0,4.5-1.1,7.2-4.6l8-11l-8.2-28.7
			H201.5z"/>
	</g>
	<path d="M62.5,211l0.2,0.1c10.3,3,22.4,3.7,37.4,3.9v-6.3c-13-0.1-20.8-0.4-28.2-2l-1.1-0.2l0.8-0.7c1.9-1.8,3.2-3.9,4.1-6.3
		l0.1-0.4h8.2l2.3-4H76v-4h11v3h1.1l-1.1,0.3v4.7h12v-20H76v-3h24v-5H42v5h23v3H43v20h21l-0.5,0.9c-0.7,1.2-1.6,2.2-2.7,3l-0.3,0.2
		l-0.3,0c-1-0.4-2-1.2-3-1.2H43.1c2.6,2,5.1,3.1,7.8,4.5l1.3,0.6l-1.3,0.3c-3.2,0.8-6.8,1.2-8.8,1.5v6C50,214.3,57,213.1,62.5,211
		L62.5,211z M76,184h11v3H76V184z M53,184h12v3H53V184z M53,195v-4h12v4H53z"/>
	<path d="M164,200.1V195h-42l1.5-2.6l0.1,0.1c21.8-1,35.4-5.4,40.4-14.4v-5h-42l1.1-2h-9.4l-4,8h-1.7l1.5,3h7.9l2.3-4h37.6l-1.8,1
		c-4.7,2.8-10.2,4.7-16.8,5.9l-0.3,0.2l-4.7-4h-10.2l5.9,5.2l-1.3,0.2c-4.1,0.3-8.9,0.6-15.1,0.6h-6v6h7l-4.3,7h-1.7l1.5,4h7.9
		l2.2-4h37.7l-1.8,1c-5,2.8-10.6,4.8-17.3,5.9l-0.3,0.4l-4.2-3.3h-10.2l5.3,4.4l-1.3-0.4c-4.2,0.3-8.9-0.1-14.5-0.1h-6v7h5.5
		C141.7,215,157,210.4,164,200.1z"/>
	<g>
		<polygon points="230,185 230,179 209.5,179 211.1,172 201.8,172 200.1,179 188,179 188,185 199,185 193,211 188.8,211 190.2,215 
			201.9,215 208.5,185 		"/>
		<polygon points="221,211 221,189 212,189 212,215 227.2,215 228.8,211 		"/>
		<polygon points="225.1,177 227.2,173 217,173 217,177 		"/>
		<polygon points="171.5,184 172.9,189 175,189 175,215 185,215 185,186 182.5,186 190.8,171 181.2,171 174,184 		"/>
	</g>
	<g>
		<polygon points="292.1,213 287.9,202 278.6,202 283.9,215 293,215 293.9,213 		"/>
		<path d="M236,176h24v3h-21v14h21v3h-24v3h46.1l1.3-3H270v-3h9.2l1.2-3H270v-3h12v2h0.1l-0.1,0.6v3.4h10v-14h-22v-3h24v-3h-24v-2
			h-10v2h-24V176z M260,190h-11v-3h11V190z M260,185h-11v-3h11V185z M270,182h12v3h-12V182z"/>
		<polygon points="284.7,195 286.1,199 294,199 292.7,195 		"/>
		<polygon points="239.8,203 238.5,213 236.8,213 237.5,215 246.8,215 248.4,203 		"/>
		<polygon points="273,202 264.2,202 267.1,209 276.6,209 277.5,207 275.2,207 		"/>
		<polygon points="261,213 261,202 251,202 251,215 277.6,215 279.4,213 		"/>
	</g>
</g>
<g display="none">
	<g display="inline">
		<path fill="#FE6A66" d="M297.6,152H293C293,73,229.3,8.7,151,8.7c-35.5,0-69.5,12.5-95.7,36.4l-3.1-3.7
			C79.3,16.8,114.3,4.3,151,4.3C231.9,4.3,297.6,68,297.6,152z"/>
	</g>
	<g display="inline">
		<path fill="#FE6A66" d="M151,296.1c-76.5,0-140.7-59.7-146.2-135.9l4.6-0.3C14.7,233.7,77,291.5,151,291.5
			c47.2,0,91.3-23.4,117.7-62.6l3.8,2.6C245.2,271.9,199.8,296.1,151,296.1z"/>
	</g>
	<g display="inline">
		<path d="M105.3,140.6H8.2l4.2-24c0.7-4.2,4.8-7.7,9-7.7h81.8c4.2,0,7.1,3.4,6.3,7.7L105.3,140.6z M14.9,82h17.4l1.3-7.5h-0.8
			l-0.2,0.7c-1,3.1-4,5.1-7.1,5.1H15.4l0.3-10.6H17c1,0,2.2-0.7,2.6-1.8l2.4-4.9h15.1l-1.5,3.9H69l-1.3,7.7H54.7L53.4,82h16.1
			l-1.3,7.5h-13l2.4,2.4c1.2,1,2.1,2.3,3.8,2.3h5.9l-4.7,12.2H48.2c-3,0-5.2-1.8-6.6-4.2l-1.9-3.3l-3.2,3.3
			c-2.3,2.4-4.6,4.2-7.6,4.2h-16l-0.1-12.2h7.2c1.8,0,3.2-1.1,4.7-2.3l3.1-2.4H13.5L14.9,82z M84.6,128.5H33.1l-0.8,4.6h51.6
			L84.6,128.5z M34.4,120.9H86l0.8-4.3H35.2L34.4,120.9z M115.1,106.4H67.6l6-34.2c0.7-4.2,4.6-7.5,8.8-7.5h32.4
			c4.2,0,7.1,3.3,6.3,7.5L115.1,106.4z M100.4,72.2h-6.2l-4.7,26.6h6.2L100.4,72.2z"/>
		<path d="M123.6,141.2l8.7-49.4h-4l0.5-15.2h3.7c2.7,0,4.6-1.9,5.7-4.2l5.4-9.9h24.1l-8.8,20l-1.1,2.3l-10,56.5H123.6z M230.1,63.3
			l-1.4,8.1h6.7l-1.3,7.5h-6.7l-9.8,55.5c-0.7,3.9-4.7,7-9,7h-30.3l-0.9-18.5h14.3c1.6,0,3.2-1.3,3.5-2.7l7.3-41.2h-36.7l1.3-7.5
			h36.7l1.4-8.1H230.1z M168,85.8h19.6l1.2,14.2c0.2,1.8,0.6,3.2,3.4,3.2h2.3l-3.5,12.2H175c-4.5,0-6.9-2.5-6.9-6.3L168,85.8z"/>
	</g>
	<path display="inline" d="M54,210v-8h33v6h0.9l-0.9,0.8v4.2h11v-40H60.2l1.5-3H51.2l-1.5,3H43v40h40.7l2.3-3H54z M54,178h33v8H54
		V178z M54,190h33v8H54V190z"/>
	<g display="inline">
		<rect x="108" y="171" width="25" height="5"/>
		<polygon points="164,214 164,173 150.9,173 151.2,170 142.3,170 142,173 138,173 138,178 141.7,178 139.4,210 137.5,210 
			138.5,214 147.9,214 150.6,178 156,178 156,210 152.4,210 154.1,214 		"/>
		<polygon points="116.7,210 124.2,190 134,190 134,186 107,186 107,190 114.7,190 107.2,209.6 107.3,214 123.4,214 124.4,210 		"/>
		<polygon points="124.2,202 127,214 135.6,214 132.6,202 		"/>
	</g>
	<polygon display="inline" points="183,208 183,176 193.1,176 188.2,197 185.9,197 186.8,202 196.9,202 202.9,176 211,176 211,202 
		224,202 226.3,197 221,197 221,176 228,176 228,171 173,171 173,213 226.8,213 227.8,208 	"/>
	<g display="inline">
		<polygon points="279,210 279,193 282.8,193 284.3,189 270,189 270,213 293,213 294.4,210 		"/>
		<path d="M244,211v-5h17v4h0l0,0.1v2.9h7v-35h-9v-5h9v-3h-32v3h10v5h-9v35h20.6l1.5-2H244z M259,181h2v15h-2V181z M251,173h2v5h-2
			V173z M244,181h2v9.1c0,2.7-0.1,4.2-1.5,5.2L244,196V181z M244,199.2l0.1-0.1c4.5-0.9,6.9-3.5,6.9-7V181h2v17h8v5h-17V199.2z"/>
		<polygon points="270,175 286,175 286,188 285.9,188 286,188.2 286,193 295,193 295,170 270,170 		"/>
	</g>
</g>
</svg>
