<?xml version="1.0" encoding="utf-8"?>
<!-- Generator: Adobe Illustrator 20.1.0, SVG Export Plug-In . SVG Version: 6.00 Build 0)  -->
<svg version="1.1" id="Layer_1" xmlns="http://www.w3.org/2000/svg" xmlns:xlink="http://www.w3.org/1999/xlink" x="0px" y="0px"
	 viewBox="0 0 24 24" style="enable-background:new 0 0 24 24;" xml:space="preserve">
<g>
	<g>
		<g>
			<path d="M20,24H4c-2.2,0-4-1.8-4-4V4c0-2.2,1.8-4,4-4h16c2.2,0,4,1.8,4,4v16C24,22.2,22.2,24,20,24z M4,2C2.9,2,2,2.9,2,4v16
				c0,1.1,0.9,2,2,2h16c1.1,0,2-0.9,2-2V4c0-1.1-0.9-2-2-2H4z"/>
		</g>
	</g>
</g>
<g>
	<path d="M7.7,5.4c1.9,0.1,2.9,1.2,2.9,3.4c0,2.2-1,3.3-3,3.4C5.8,12,4.8,10.9,4.8,8.7C4.8,6.6,5.8,5.4,7.7,5.4z M6.1,8.7
		c0,1.4,0.6,2.1,1.6,2.2c1,0,1.6-0.8,1.6-2.2c0-1.5-0.5-2.2-1.6-2.2C6.6,6.5,6.1,7.2,6.1,8.7z M14.7,5.4h1.6L9.2,19H7.6L14.7,5.4z
		 M16.2,12.2c1.9,0.1,2.9,1.2,2.9,3.4c-0.1,2-1.1,3.1-3,3.2c-1.8-0.1-2.8-1.1-2.9-3.2C13.3,13.5,14.3,12.3,16.2,12.2z M14.6,15.6
		c0,1.4,0.6,2.1,1.6,2.1c1,0,1.6-0.7,1.6-2.1c0-1.5-0.5-2.2-1.6-2.2C15.1,13.4,14.6,14.1,14.6,15.6z"/>
</g>
</svg>
