<?xml version="1.0" encoding="utf-8"?>
<!-- Generator: Adobe Illustrator 20.1.0, SVG Export Plug-In . SVG Version: 6.00 Build 0)  -->
<svg version="1.1" id="图层_1" xmlns="http://www.w3.org/2000/svg" xmlns:xlink="http://www.w3.org/1999/xlink" x="0px" y="0px"
	 viewBox="0 0 8 11" style="enable-background:new 0 0 8 11;" xml:space="preserve">
<style type="text/css">
	.st0{fill:#DCDCDC;}
	.st1{fill:#FFFFFF;}
</style>
<title>画板 1</title>
<path class="st0" d="M7.8,5.1L5.6,0.3C5.5,0.1,5.3,0,5.2,0C5.1,0,5,0,5,0L4.9,0C4.6,0.1,4.6,0.4,4.7,0.7l2.3,4.9l-2.3,4.9
	c-0.1,0.2,0,0.5,0.2,0.6L5,11c0,0,0.1,0,0.1,0c0.1,0,0.2,0,0.3-0.1c0,0,0,0,0,0c0.1,0,0.1-0.1,0.2-0.2c0,0,0,0,0,0l2.2-4.8
	C8,5.8,8,5.7,8,5.5C8,5.3,8,5.2,7.8,5.1z"/>
<path class="st1" d="M4.1,5.5"/>
<path class="st0" d="M4.2,5.1L2,0.3C1.9,0.1,1.7,0,1.6,0C1.5,0,1.4,0,1.4,0L1.3,0.1C1,0.2,0.9,0.5,1,0.7l2.3,4.8L1,10.3
	c-0.1,0.2,0,0.5,0.2,0.6L1.4,11c0.1,0,0.1,0,0.2,0c0.2,0,0.3-0.1,0.4-0.3l2.2-4.8c0.1-0.1,0.2-0.3,0.2-0.4C4.4,5.3,4.3,5.2,4.2,5.1z
	"/>
</svg>
