<?xml version="1.0" encoding="UTF-8"?>
<svg width="17px" height="17px" viewBox="0 0 17 17" version="1.1" xmlns="http://www.w3.org/2000/svg" xmlns:xlink="http://www.w3.org/1999/xlink">
    <!-- Generator: Sketch 46.2 (44496) - http://www.bohemiancoding.com/sketch -->
    <title>2</title>
    <desc>Created with Sketch.</desc>
    <defs>
        <circle id="path-1" cx="8.5" cy="8.5" r="8.5"></circle>
    </defs>
    <g id="门店首页（扫码式-响应式）" stroke="none" stroke-width="1" fill="none" fill-rule="evenodd">
        <g id="01-门店首页（响应式）" transform="translate(-238.000000, -64.000000)">
            <g id="Group" transform="translate(0.000000, 55.000000)">
                <g id="2" transform="translate(238.000000, 9.000000)">
                    <mask id="mask-2" fill="white">
                        <use xlink:href="#path-1"></use>
                    </mask>
                    <g id="Oval">
                        <use fill="#D0021B" fill-rule="evenodd" xlink:href="#path-1"></use>
                        <circle stroke="#FFFFFF" stroke-width="1" cx="8.5" cy="8.5" r="8"></circle>
                    </g>
                    <circle id="Oval-2" fill-opacity="0.4" fill="#FFFFFF" mask="url(#mask-2)" cx="10" cy="6" r="3"></circle>
                    <path d="M6.80428542,6.39339828 C6.05176985,6.39339828 5.43229609,6.94948758 5.43229609,7.62500542 L5.43229609,12.4744585 L5.13217342,12.1922152 L5.01784097,12.1024105 C4.49028665,11.6288358 3.63032684,11.6288358 3.10277252,12.1024105 C2.5752182,12.5759852 2.5752182,13.3479541 3.10277252,13.8215288 L3.10277252,13.8343581 L6.84716009,17.1571315 L6.8757432,17.1699607 L6.89003476,17.1956192 C7.50712492,17.6110814 8.29161608,17.8883982 9.17668365,17.8883982 L9.96271921,17.8883982 C12.0359474,17.8883982 13.7071068,16.3882322 13.7071068,14.5271371 L13.7071068,11.3198268 C13.7071068,10.6443088 13.087633,10.0882197 12.3351174,10.0882197 C12.140327,10.0882197 11.9605634,10.1367352 11.7920383,10.2036829 C11.641811,9.6702652 11.1009943,9.26714827 10.4629237,9.26714827 C10.1121188,9.26714827 9.79196325,9.39041807 9.5482641,9.5878793 C9.30456495,9.39041807 8.98440941,9.26714827 8.63360454,9.26714827 C8.47212734,9.26714827 8.32069356,9.29722687 8.17627476,9.34412372 L8.17627476,7.62500542 C8.17627476,6.94948758 7.556801,6.39339828 6.80428542,6.39339828 Z M6.80428542,7.21446971 C7.05789537,7.21446971 7.2616152,7.39734469 7.2616152,7.62500542 L7.2616152,10.4987554 L7.2616152,12.1408983 L8.17627476,12.1408983 L8.17627476,10.4987554 C8.17627476,10.2710949 8.3799946,10.0882197 8.63360454,10.0882197 C8.88721448,10.0882197 9.09093432,10.2710949 9.09093432,10.4987554 L9.09093432,12.1408983 L10.0055939,12.1408983 L10.0055939,10.4987554 C10.0055939,10.2710949 10.2093137,10.0882197 10.4629237,10.0882197 C10.7165336,10.0882197 10.9202534,10.2710949 10.9202534,10.4987554 L10.9202534,12.1408983 L10.9631281,12.1408983 L11.834913,12.1408983 L11.8777877,12.1408983 L11.8777877,11.3198268 C11.8777877,11.0921663 12.0815075,10.9092911 12.3351174,10.9092911 C12.5887274,10.9092911 12.7924472,11.0921663 12.7924472,11.3198268 L12.7924472,14.5271371 C12.7924472,15.9503277 11.5481293,17.0673268 9.96271921,17.0673268 L9.17668365,17.0673268 C8.50682998,17.0673268 7.92790673,16.8520008 7.44740543,16.5284987 L3.74589252,13.244213 C3.5417192,13.0609306 3.5417192,12.8630088 3.74589252,12.6797264 C3.95006585,12.496444 4.17054765,12.496444 4.37472097,12.6797264 L5.56092009,13.7445534 L6.34695564,14.4501617 L6.34695564,13.4494809 L6.34695564,7.62500542 C6.34695564,7.39734469 6.55067548,7.21446971 6.80428542,7.21446971 Z" id="Shape" fill="#FFFFFF" fill-rule="nonzero" mask="url(#mask-2)" transform="translate(8.207107, 12.140898) rotate(36.000000) translate(-8.207107, -12.140898) "></path>
                </g>
            </g>
        </g>
    </g>
</svg>