<?xml version="1.0" encoding="UTF-8"?>
<svg width="119px" height="55px" viewBox="0 0 119 55" version="1.1" xmlns="http://www.w3.org/2000/svg" xmlns:xlink="http://www.w3.org/1999/xlink">
    <!-- Generator: Sketch 46.2 (44496) - http://www.bohemiancoding.com/sketch -->
    <title>3</title>
    <desc>Created with Sketch.</desc>
    <defs>
        <path d="M8.58047893,6.33050618 L100.957208,0.867104623 L100.957208,0.867104623 C103.337222,0.726344391 105.485536,2.28558561 106.089381,4.59202225 L112.082111,27.4817808 L112.082111,27.4817808 C112.781503,30.1531685 111.182884,32.8857251 108.511496,33.5851168 C108.057743,33.7039131 107.589532,33.7582707 107.120631,33.746591 L38.3244783,32.0329664 L21.4277344,48.0253906 L25.1074219,31.0329664 L5.0652406,27.9181054 L5.0652406,27.9181054 C2.3365742,27.494029 0.468334885,24.938226 0.892411297,22.2095596 C0.918308851,22.042925 0.952619945,21.8777073 0.995213025,21.71454 L4.03779035,10.0589065 L4.03779035,10.0589065 C4.58478319,7.96346332 6.41859655,6.45836556 8.58047893,6.33050618 Z" id="path-1"></path>
        <filter x="-6.3%" y="-10.6%" width="112.6%" height="129.7%" filterUnits="objectBoundingBox" id="filter-2">
            <feOffset dx="0" dy="2" in="SourceAlpha" result="shadowOffsetOuter1"></feOffset>
            <feGaussianBlur stdDeviation="2" in="shadowOffsetOuter1" result="shadowBlurOuter1"></feGaussianBlur>
            <feComposite in="shadowBlurOuter1" in2="SourceAlpha" operator="out" result="shadowBlurOuter1"></feComposite>
            <feColorMatrix values="0 0 0 0 0   0 0 0 0 0   0 0 0 0 0  0 0 0 0.2 0" type="matrix" in="shadowBlurOuter1"></feColorMatrix>
        </filter>
    </defs>
    <g id="门店首页（扫码式-响应式）" stroke="none" stroke-width="1" fill="none" fill-rule="evenodd">
        <g id="02-门店首页（扫码式）" transform="translate(-191.000000, -591.000000)">
            <g id="Group-22" transform="translate(-1.000000, 592.000000)">
                <g id="Group-21" transform="translate(195.000000, 0.000000)">
                    <g id="3">
                        <g id="Rectangle-10">
                            <use fill="black" fill-opacity="1" filter="url(#filter-2)" xlink:href="#path-1"></use>
                            <use fill="#FF6A36" fill-rule="evenodd" xlink:href="#path-1"></use>
                            <path stroke="#FFFFFF" stroke-width="1" d="M22.2587239,46.5504314 L38.1306429,31.5279831 L107.133081,33.2467461 C107.555092,33.2572578 107.976483,33.208336 108.38486,33.1014192 C110.789109,32.4719668 112.227866,30.0126658 111.598414,27.6084168 L105.605683,4.71865831 C105.062223,2.64286534 103.12874,1.23954824 100.986728,1.36623245 L8.60999866,6.82963401 C6.66430451,6.94470745 5.01387249,8.29929543 4.52157893,10.1851943 L1.47900161,21.8408278 C1.44066784,21.9876784 1.40978785,22.1363743 1.38648005,22.2863454 C1.00481128,24.7421452 2.68622667,27.0423679 5.14202643,27.4240367 L25.7083605,30.6203589 L22.2587239,46.5504314 Z"></path>
                        </g>
                        <path d="M14.7160714,17.68 L18.5160714,17.68 L18.5160714,16.67 L19.2360714,16.67 L19.2360714,17.68 L20.4460714,17.68 L20.4460714,18.37 L19.2360714,18.37 L19.2360714,21.07 C19.2360714,21.67 18.9160714,21.97 18.2760714,21.97 L16.9460714,21.97 L16.7960714,21.28 C17.2260714,21.31 17.6360714,21.33 18.0260714,21.33 C18.3460714,21.33 18.5160714,21.18 18.5160714,20.89 L18.5160714,18.37 L14.7160714,18.37 L14.7160714,17.68 Z M13.3960714,12.83 L14.1260714,12.83 L14.1260714,21.99 L13.3960714,21.99 L13.3960714,18.68 C12.7360714,19.3 12.1260714,19.79 11.5660714,20.16 L11.2460714,19.47 C11.8460714,19.11 12.5560714,18.55 13.3960714,17.81 L13.3960714,12.83 Z M15.9860714,18.78 C16.5460714,19.39 16.9660714,19.92 17.2660714,20.38 L16.7060714,20.78 C16.3960714,20.28 15.9760714,19.72 15.4560714,19.11 L15.9860714,18.78 Z M16.6860714,14.23 C16.2260714,14.76 15.6560714,15.2 14.9660714,15.56 L14.5060714,15 C15.5960714,14.46 16.3260714,13.73 16.7060714,12.82 L17.4460714,12.96 C17.3560714,13.17 17.2560714,13.37 17.1460714,13.57 L20.0660714,13.57 L20.0660714,14.19 C19.4960714,15.65 17.9160714,16.68 15.3360714,17.27 L14.9760714,16.63 C15.7660714,16.46 16.4560714,16.25 17.0560714,16.01 C16.7360714,15.71 16.4160714,15.46 16.1060714,15.24 L16.6160714,14.85 C16.9860714,15.12 17.3360714,15.41 17.6660714,15.72 C18.4160714,15.31 18.9560714,14.81 19.2860714,14.23 L16.6860714,14.23 Z M11.8760714,14 C12.3460714,14.68 12.7460714,15.41 13.0860714,16.18 L12.4560714,16.44 C12.0960714,15.6 11.6960714,14.87 11.2560714,14.25 L11.8760714,14 Z M29.4760714,14.02 L29.4760714,21.99 L28.7460714,21.99 L28.7460714,21.37 L23.4860714,21.37 L23.4860714,21.99 L22.7560714,21.99 L22.7560714,14.02 L24.8960714,14.02 C25.1160714,13.62 25.2860714,13.22 25.3860714,12.8 L26.1160714,12.9 C26.0060714,13.3 25.8460714,13.68 25.6460714,14.02 L29.4760714,14.02 Z M23.4860714,20.68 L28.7460714,20.68 L28.7460714,19.05 L23.4860714,19.05 L23.4860714,20.68 Z M23.4860714,18.39 L28.7460714,18.39 L28.7460714,16.86 L23.4860714,16.86 L23.4860714,18.39 Z M23.4860714,16.2 L28.7460714,16.2 L28.7460714,14.71 L23.4860714,14.71 L23.4860714,16.2 Z M32.2660714,13.53 L35.8860714,13.53 L35.8860714,14.22 L32.2660714,14.22 L32.2660714,13.53 Z M31.8760714,16.23 L36.2660714,16.23 L36.2660714,16.93 L33.9560714,16.93 C33.5560714,18.45 33.2060714,19.53 32.9060714,20.19 C33.6960714,20.03 34.4860714,19.8 35.2660714,19.51 C35.0060714,18.97 34.7560714,18.48 34.4960714,18.02 L35.1060714,17.72 C35.5860714,18.58 36.0360714,19.51 36.4560714,20.52 L35.8360714,20.84 C35.7360714,20.58 35.6360714,20.34 35.5360714,20.11 C34.4760714,20.49 33.3160714,20.79 32.0760714,21.01 L31.9060714,20.33 C31.9760714,20.31 32.0260714,20.29 32.0660714,20.27 C32.3660714,19.86 32.7660714,18.75 33.2660714,16.93 L31.8760714,16.93 L31.8760714,16.23 Z M37.7660714,12.86 L38.4860714,12.86 L38.4860714,14.88 L40.6660714,14.88 C40.6660714,18.01 40.6160714,19.94 40.5260714,20.68 C40.4260714,21.49 39.9360714,21.9 39.0760714,21.9 C38.9060714,21.9 38.6160714,21.89 38.1960714,21.87 L38.0360714,21.23 C38.3960714,21.25 38.7160714,21.27 38.9860714,21.27 C39.4760714,21.27 39.7660714,20.98 39.8460714,20.41 C39.9060714,19.88 39.9460714,18.27 39.9660714,15.58 L38.4860714,15.58 L38.4860714,15.7 C38.4560714,18.58 37.7560714,20.69 36.3960714,22.02 L35.8560714,21.55 C37.1060714,20.34 37.7460714,18.39 37.7660714,15.7 L37.7660714,15.58 L36.4160714,15.58 L36.4160714,14.88 L37.7660714,14.88 L37.7660714,12.86 Z M45.9760714,13.43 L50.5760714,13.43 L50.5760714,18.1 L45.9760714,18.1 L45.9760714,13.43 Z M49.8560714,17.4 L49.8560714,14.12 L46.6960714,14.12 L46.6960714,17.4 L49.8560714,17.4 Z M43.2560714,12.93 L42.7560714,13.42 C43.4660714,13.96 44.0260714,14.47 44.4360714,14.95 L44.9260714,14.45 C44.4660714,13.94 43.9160714,13.43 43.2560714,12.93 Z M42.0560714,15.89 L44.1960714,15.89 L44.1960714,20.3 C44.5160714,20.02 44.8560714,19.69 45.2260714,19.32 L45.4160714,20.08 C44.8360714,20.66 44.2260714,21.17 43.5760714,21.62 L43.2960714,20.98 C43.4360714,20.86 43.5060714,20.72 43.5060714,20.56 L43.5060714,16.58 L42.0560714,16.58 L42.0560714,15.89 Z M47.0460714,18.7 L47.6860714,19.01 C47.1860714,20.18 46.5960714,21.19 45.9160714,22.05 L45.2860714,21.59 C45.9760714,20.79 46.5660714,19.82 47.0460714,18.7 Z M49.4460714,18.67 L48.8660714,19.04 C49.6160714,20.12 50.2060714,21.11 50.6460714,22.01 L51.2660714,21.58 C50.8460714,20.75 50.2360714,19.78 49.4460714,18.67 Z M54.4260714,16.41 L52.8360714,16.41 L52.8360714,13.23 L57.0860714,13.23 L57.0860714,16.41 L55.1260714,16.41 C55.1060714,16.85 55.0760714,17.25 55.0360714,17.63 L57.1860714,17.63 C57.1860714,19.37 57.1360714,20.44 57.0360714,20.86 C56.9360714,21.52 56.4560714,21.86 55.5860714,21.86 C55.4460714,21.86 55.2260714,21.85 54.9060714,21.83 L54.7360714,21.19 C55.0260714,21.21 55.2760714,21.23 55.4860714,21.23 C55.9860714,21.23 56.2860714,21.01 56.3660714,20.58 C56.4260714,20.33 56.4560714,19.57 56.4760714,18.3 L54.9460714,18.3 C54.8360714,18.92 54.7060714,19.42 54.5460714,19.8 C54.1760714,20.64 53.5660714,21.37 52.7160714,21.98 L52.2560714,21.41 C53.0260714,20.88 53.5760714,20.25 53.8960714,19.51 C54.0360714,19.19 54.1460714,18.78 54.2360714,18.3 L52.4560714,18.3 L52.4560714,17.63 L54.3260714,17.63 C54.3660714,17.25 54.4060714,16.85 54.4260714,16.41 Z M58.2160714,13.71 L58.9160714,13.71 L58.9160714,19.94 L58.2160714,19.94 L58.2160714,13.71 Z M60.0760714,21.91 L58.6560714,21.91 L58.4960714,21.22 C58.9660714,21.25 59.4060714,21.27 59.8260714,21.27 C60.1360714,21.27 60.2960714,21.09 60.2960714,20.73 L60.2960714,12.86 L61.0160714,12.86 L61.0160714,20.91 C61.0160714,21.57 60.6960714,21.91 60.0760714,21.91 Z M56.3960714,15.75 L56.3960714,13.88 L53.5260714,13.88 L53.5260714,15.75 L56.3960714,15.75 Z M67.9360714,18.39 L67.1360714,18.39 L66.9860714,17.72 C67.2360714,17.75 67.4760714,17.77 67.6960714,17.77 C67.8760714,17.77 67.9760714,17.64 67.9760714,17.39 L67.9760714,14.85 L68.6960714,14.85 L68.6960714,17.56 C68.6960714,18.11 68.4360714,18.39 67.9360714,18.39 Z M63.8360714,15.52 C63.5460714,15.86 63.2460714,16.17 62.9360714,16.45 L62.4860714,15.9 C63.3860714,15.12 64.1260714,14.09 64.7060714,12.82 L65.4060714,12.97 C65.1460714,13.55 64.8560714,14.09 64.5360714,14.58 L64.5360714,18.4 L63.8360714,18.4 L63.8360714,15.52 Z M66.9560714,12.81 L67.6360714,12.96 C67.5160714,13.23 67.3860714,13.49 67.2660714,13.73 L71.2760714,13.73 L71.2760714,14.18 C71.1460714,14.68 70.9860714,15.17 70.7860714,15.65 L70.1360714,15.48 C70.3060714,15.15 70.4460714,14.79 70.5560714,14.39 L66.8660714,14.39 C66.4860714,14.97 66.0460714,15.47 65.5660714,15.91 L65.1260714,15.37 C65.8760714,14.71 66.4860714,13.86 66.9560714,12.81 Z M63.6660714,18.91 C63.4660714,19.73 63.1660714,20.49 62.7460714,21.17 L63.3560714,21.56 C63.7860714,20.85 64.1160714,20.01 64.3560714,19.05 L63.6660714,18.91 Z M68.5860714,21.85 L66.0260714,21.85 C65.4060714,21.85 65.1060714,21.53 65.1060714,20.89 L65.1060714,18.78 L65.8360714,18.78 L65.8360714,20.74 C65.8360714,21.02 65.9660714,21.17 66.2460714,21.17 L68.4460714,21.17 C68.6460714,21.17 68.7860714,21.11 68.8760714,20.99 C68.9960714,20.85 69.0660714,20.45 69.1060714,19.79 L69.7860714,20.01 C69.7160714,20.89 69.5860714,21.42 69.3860714,21.61 C69.2160714,21.77 68.9460714,21.85 68.5860714,21.85 Z M70.2860714,18.6 C70.9260714,19.48 71.4060714,20.25 71.7460714,20.91 L71.1560714,21.33 C70.7960714,20.61 70.3060714,19.82 69.6960714,18.96 L70.2860714,18.6 Z M66.6860714,15.81 L67.2660714,16.08 C66.8860714,16.85 66.4460714,17.52 65.9460714,18.08 L65.3960714,17.7 C65.8960714,17.16 66.3260714,16.53 66.6860714,15.81 Z M70.0060714,15.8 C70.4860714,16.4 70.9060714,17.07 71.2760714,17.81 L70.6660714,18.12 C70.2860714,17.34 69.8560714,16.66 69.3960714,16.06 L70.0060714,15.8 Z M67.1860714,18.51 C67.6860714,19.08 68.0660714,19.58 68.3260714,20.01 L67.7660714,20.4 C67.4860714,19.94 67.1060714,19.42 66.6260714,18.86 L67.1860714,18.51 Z M76.4060714,14.56 L76.4060714,21.38 L75.7060714,21.38 L75.7060714,20.81 L73.8860714,20.81 L73.8860714,21.67 L73.1860714,21.67 L73.1860714,14.56 L74.1160714,14.56 C74.3160714,14 74.4560714,13.42 74.5460714,12.82 L75.2660714,12.92 C75.1460714,13.51 74.9960714,14.06 74.7960714,14.56 L76.4060714,14.56 Z M73.8860714,20.14 L75.7060714,20.14 L75.7060714,17.95 L73.8860714,17.95 L73.8860714,20.14 Z M73.8860714,17.3 L75.7060714,17.3 L75.7060714,15.24 L73.8860714,15.24 L73.8860714,17.3 Z M78.1460714,16.88 C78.8660714,17.71 79.4060714,18.44 79.7860714,19.06 L79.2160714,19.46 C78.8060714,18.8 78.2560714,18.06 77.5660714,17.24 L78.1460714,16.88 Z M81.5760714,14.57 C81.5760714,17.89 81.5260714,19.95 81.4260714,20.73 C81.3260714,21.49 80.8660714,21.88 80.0260714,21.88 C79.8260714,21.88 79.4860714,21.86 79.0060714,21.84 L78.8360714,21.18 C79.2560714,21.2 79.6160714,21.21 79.9260714,21.21 C80.3960714,21.21 80.6660714,20.95 80.7460714,20.44 C80.8060714,19.88 80.8460714,18.15 80.8660714,15.27 L78.1160714,15.27 C77.8360714,15.9 77.5060714,16.47 77.1160714,16.98 L76.6860714,16.41 C77.3860714,15.43 77.8560714,14.23 78.1160714,12.81 L78.8260714,12.9 C78.7060714,13.49 78.5660714,14.05 78.3860714,14.57 L81.5760714,14.57 Z M85.4860714,16.79 L85.4860714,21.96 L84.7660714,21.96 L84.7660714,16.77 C84.4060714,17.83 83.9160714,18.78 83.3060714,19.63 L82.9860714,18.82 C83.8060714,17.84 84.3960714,16.73 84.7460714,15.48 L83.1960714,15.48 L83.1960714,14.79 L84.7660714,14.79 L84.7660714,12.84 L85.4860714,12.84 L85.4860714,14.79 L86.8060714,14.79 L86.8060714,15.48 L85.4860714,15.48 L85.4860714,16.05 C85.9860714,16.53 86.4960714,17.08 87.0060714,17.68 L86.5960714,18.29 C86.1660714,17.67 85.7960714,17.17 85.4860714,16.79 Z M90.8460714,14.13 L88.1460714,14.13 C88.2660714,15.67 88.6860714,17.05 89.4160714,18.27 C90.1360714,17.07 90.6060714,15.69 90.8460714,14.13 Z M88.9960714,18.91 C88.1060714,17.47 87.5860714,15.88 87.4460714,14.13 L87.0460714,14.13 L87.0460714,13.44 L91.5460714,13.44 L91.5460714,14.12 C91.2560714,15.99 90.6860714,17.6 89.8460714,18.94 C90.4860714,19.84 91.2860714,20.66 92.2660714,21.39 L91.7760714,21.97 C90.8360714,21.23 90.0460714,20.42 89.4260714,19.55 C88.7260714,20.5 87.8660714,21.3 86.8560714,21.96 L86.3960714,21.38 C87.4460714,20.68 88.3160714,19.86 88.9960714,18.91 Z M101.056071,17.77 L101.056071,20.98 L102.296071,20.98 L102.296071,21.67 L93.4460714,21.67 L93.4460714,20.98 L94.7560714,20.98 L94.7560714,17.77 L101.056071,17.77 Z M95.4460714,20.98 L96.6260714,20.98 L96.6260714,18.45 L95.4460714,18.45 L95.4460714,20.98 Z M97.2860714,20.98 L98.5060714,20.98 L98.5060714,18.45 L97.2860714,18.45 L97.2860714,20.98 Z M99.1660714,20.98 L100.356071,20.98 L100.356071,18.45 L99.1660714,18.45 L99.1660714,20.98 Z M93.6560714,14.59 L93.6560714,15.29 L102.086071,15.29 L102.086071,14.59 L99.6860714,14.59 C100.046071,14.14 100.366071,13.62 100.656071,13.04 L99.9560714,12.8 C99.6560714,13.44 99.3060714,14.03 98.8960714,14.59 L96.3460714,14.59 L96.8160714,14.25 C96.5260714,13.84 96.1060714,13.36 95.5560714,12.8 L94.9660714,13.17 C95.4660714,13.68 95.8760714,14.15 96.1960714,14.59 L93.6560714,14.59 Z M99.2660714,15.66 C100.406071,16.18 101.436071,16.81 102.366071,17.55 L101.966071,18.18 C100.966071,17.35 99.9360714,16.69 98.8960714,16.21 L99.2660714,15.66 Z M96.4460714,15.6 L96.9060714,16.12 C96.0460714,16.94 94.9560714,17.63 93.6560714,18.17 L93.3460714,17.5 C94.6060714,17.02 95.6360714,16.39 96.4460714,15.6 Z" id="将自动识别您的权益" fill="#FFFFFF"></path>
                    </g>
                </g>
            </g>
        </g>
    </g>
</svg>