<?xml version="1.0" encoding="UTF-8"?>
<svg width="98px" height="38px" viewBox="0 0 98 38" version="1.1" xmlns="http://www.w3.org/2000/svg" xmlns:xlink="http://www.w3.org/1999/xlink">
    <!-- Generator: Sketch 46.2 (44496) - http://www.bohemiancoding.com/sketch -->
    <title>1</title>
    <desc>Created with Sketch.</desc>
    <defs></defs>
    <g id="门店首页（扫码式-响应式）" stroke="none" stroke-width="1" fill="none" fill-rule="evenodd">
        <g id="01-门店首页（响应式）" transform="translate(0.000000, -55.000000)">
            <g id="Group" transform="translate(0.000000, 55.000000)">
                <g id="1">
                    <rect id="Combined-Shape" fill="#1C1C20" x="0" y="0" width="98" height="37.9098361"></rect>
                    <path d="M30.5219971,15.6182018 C31.0599415,16.6215737 31.3442623,17.8019036 31.3442623,19.0316083 C31.3442623,20.2565318 31.061801,21.4329661 30.5274841,22.4337409 C29.9957888,23.4295575 29.2543356,24.1835178 28.3831746,24.6142258 C28.3300722,24.6404921 28.2732202,24.6530055 28.2170694,24.6530055 C28.094007,24.6530055 27.9744807,24.5927701 27.9056792,24.4850488 L27.2349785,23.4346927 C27.1795593,23.347896 27.1654759,23.2422406 27.1963558,23.1447012 C27.2272052,23.0471618 27.3000306,22.967271 27.3960845,22.925422 C28.5244967,22.4341245 29.3435002,20.7965843 29.3435002,19.0315787 C29.3435002,17.2452651 28.5133092,15.6024125 27.3695027,15.1251926 C27.2711016,15.08417 27.1962338,15.0033938 27.1646833,14.9042607 C27.1331327,14.8050981 27.1480392,14.6975539 27.2055313,14.6099898 L27.8915043,13.5648575 C27.9923136,13.411303 28.1969197,13.3566751 28.3648235,13.4385137 C29.240618,13.8657687 29.9865827,14.6194339 30.5219971,15.6182018 Z M27.2673392,19.0821971 C27.2673392,20.4813066 26.6405225,21.7789433 25.5905564,22.5533701 C25.5234638,22.6028447 25.4409026,22.6291959 25.3566438,22.6291959 C25.3349503,22.6291959 25.3130996,22.6274646 25.291406,22.623914 C25.1854851,22.6065421 25.0925174,22.5477947 25.0358942,22.4624613 L24.6950231,21.4330027 C24.6008292,21.291064 24.6263898,21.1068989 24.7562365,20.9920451 C25.2503456,20.5549609 25.5453145,19.8410128 25.5453145,19.0821971 C25.5453145,18.3088854 25.2270801,17.5636268 24.7147673,17.1374 C24.5768092,17.0225756 24.5482618,16.8313384 24.6473917,16.6857024 L24.9975376,15.6686858 C25.0542551,15.5853478 25.1458709,15.528097 25.2500312,15.5107838 C25.3540657,15.493588 25.4613386,15.5178851 25.5453145,15.5778943 C26.6235764,16.348301 27.2673392,17.6583797 27.2673392,19.0821971 Z M22.8803887,13.3671538 C23.0486473,13.4462924 23.1554511,15.2937208 23.1554511,15.4751163 L23.1554511,22.4166311 C23.1554511,22.5979476 23.0486473,24.4453761 22.8803887,24.5245936 C22.8127111,24.5563911 22.7399088,24.5720531 22.6674726,24.5720531 C22.5598147,24.5720531 22.4530109,24.5375335 22.3652822,24.4704274 L18.6043742,21.5951236 L18.0079244,21.5951236 L17.654813,21.5951236 L16.6128866,21.5951236 C15.3619485,21.5951236 14.3442623,20.4066636 14.3442623,18.9458342 C14.3442623,17.4850049 15.3619485,16.2965449 16.6128866,16.2965449 L17.654813,16.2965449 L18.0079244,16.2965449 L18.6043742,16.2965449 L22.3652822,13.4213199 C22.5120662,13.3089636 22.7121707,13.2880152 22.8803887,13.3671538 Z" id="Combined-Shape" fill="#747474" fill-rule="nonzero"></path>
                    <path d="M40.696,16.688 L44.128,16.688 L44.128,14.804 C43.216,14.888 42.244,14.936 41.212,14.936 L40.948,14.156 C43.564,14.156 45.748,13.856 47.476,13.268 L47.896,14.012 C47.056,14.312 46.096,14.54 45.004,14.696 L45.004,16.688 L48.46,16.688 L48.46,17.516 L45.004,17.516 L45.004,19.376 L47.704,19.376 L47.704,24.188 L46.852,24.188 L46.852,23.552 L42.352,23.552 L42.352,24.212 L41.5,24.212 L41.5,19.376 L44.128,19.376 L44.128,17.516 L40.696,17.516 L40.696,16.688 Z M42.352,22.736 L46.852,22.736 L46.852,20.192 L42.352,20.192 L42.352,22.736 Z M38.524,13.364 L37.936,13.928 C38.8,14.504 39.484,15.032 39.976,15.536 L40.564,14.948 C40.012,14.42 39.328,13.892 38.524,13.364 Z M38.248,16.232 L37.648,16.82 C38.524,17.444 39.208,18.044 39.712,18.608 L40.312,18.008 C39.76,17.408 39.064,16.82 38.248,16.232 Z M39.664,19.424 C39.16,20.876 38.548,22.292 37.852,23.684 L38.716,24.056 C39.34,22.712 39.916,21.26 40.444,19.724 L39.664,19.424 Z M50.68,14.036 L55.024,14.036 L55.024,14.864 L50.68,14.864 L50.68,14.036 Z M50.212,17.276 L55.48,17.276 L55.48,18.116 L52.708,18.116 C52.228,19.94 51.808,21.236 51.448,22.028 C52.396,21.836 53.344,21.56 54.28,21.212 C53.968,20.564 53.668,19.976 53.356,19.424 L54.088,19.064 C54.664,20.096 55.204,21.212 55.708,22.424 L54.964,22.808 C54.844,22.496 54.724,22.208 54.604,21.932 C53.332,22.388 51.94,22.748 50.452,23.012 L50.248,22.196 C50.332,22.172 50.392,22.148 50.44,22.124 C50.8,21.632 51.28,20.3 51.88,18.116 L50.212,18.116 L50.212,17.276 Z M57.28,13.232 L58.144,13.232 L58.144,15.656 L60.76,15.656 C60.76,19.412 60.7,21.728 60.592,22.616 C60.472,23.588 59.884,24.08 58.852,24.08 C58.648,24.08 58.3,24.068 57.796,24.044 L57.604,23.276 C58.036,23.3 58.42,23.324 58.744,23.324 C59.332,23.324 59.68,22.976 59.776,22.292 C59.848,21.656 59.896,19.724 59.92,16.496 L58.144,16.496 L58.144,16.64 C58.108,20.096 57.268,22.628 55.636,24.224 L54.988,23.66 C56.488,22.208 57.256,19.868 57.28,16.64 L57.28,16.496 L55.66,16.496 L55.66,15.656 L57.28,15.656 L57.28,13.232 Z M67.024,15.032 L69.16,15.032 L69.16,13.22 L70,13.22 L70,15.032 L72.556,15.032 L72.556,18.656 L73.492,18.656 L73.492,19.496 L70.216,19.496 C70.96,21.128 72.148,22.448 73.768,23.456 L73.18,24.128 C71.548,23.012 70.348,21.608 69.592,19.904 C69.052,21.824 67.984,23.228 66.388,24.14 L65.86,23.432 C67.396,22.616 68.404,21.308 68.86,19.496 L66.532,19.496 L66.532,18.656 L69.028,18.656 C69.112,18.104 69.16,17.504 69.16,16.88 L69.16,15.836 L67.024,15.836 L67.024,15.032 Z M70,15.836 L70,16.7 C70,17.396 69.952,18.044 69.856,18.656 L71.716,18.656 L71.716,15.836 L70,15.836 Z M63.112,15.512 C63.076,16.664 62.92,17.756 62.656,18.788 L63.364,18.992 C63.616,17.912 63.76,16.76 63.796,15.56 L63.112,15.512 Z M66.136,15.248 C66.472,16.016 66.76,16.892 67.024,17.888 L66.316,18.056 C66.1,17.156 65.824,16.292 65.488,15.452 L66.136,15.248 Z M64.396,13.232 L64.396,24.152 L65.248,24.152 L65.248,13.232 L64.396,13.232 Z M79.4440001,18.02 C78.9880001,18.26 78.5320001,18.476 78.0640001,18.68 L78.0640001,16.232 L79.4080001,16.232 L79.4080001,15.404 L78.0640001,15.404 L78.0640001,13.232 L77.2120001,13.232 L77.2120001,15.404 L75.4720001,15.404 L75.4720001,16.232 L77.2120001,16.232 L77.2120001,19.016 C76.5880001,19.232 75.9520001,19.424 75.2920001,19.58 L75.5080001,20.432 C76.0840001,20.252 76.6600001,20.06 77.2120001,19.856 L77.2120001,22.88 C77.2120001,23.216 77.0440001,23.396 76.7200001,23.396 C76.3960001,23.396 76.0600001,23.372 75.7120001,23.336 L75.9040001,24.164 L77.0200001,24.164 C77.7160001,24.164 78.0640001,23.804 78.0640001,23.084 L78.0640001,19.508 C78.5320001,19.316 78.9880001,19.1 79.4440001,18.872 L79.4440001,18.02 Z M80.9200001,18.776 L80.9200001,24.2 L80.1040001,24.2 L80.1040001,13.688 L85.3720001,13.688 C85.3720001,15.02 85.3000001,15.908 85.1680001,16.352 C85.0240001,16.784 84.5680001,17.012 83.8000001,17.012 L82.9360001,17.012 L82.6960001,16.256 C82.8880001,16.256 83.1160001,16.268 83.4040001,16.268 C83.6920001,16.268 83.9200001,16.244 84.0640001,16.22 C84.1960001,16.172 84.3040001,16.088 84.3880001,15.944 C84.4720001,15.716 84.5200001,15.224 84.5440001,14.48 L80.9200001,14.48 L80.9200001,17.984 L85.4800001,17.984 L85.4800001,18.728 C85.2400001,20 84.8200001,21.092 84.1960001,21.992 C84.7720001,22.544 85.4800001,23.048 86.3200001,23.516 L85.7440001,24.176 C84.9520001,23.672 84.2680001,23.156 83.7160001,22.604 C83.1400001,23.264 82.4320001,23.804 81.6160001,24.212 L81.1960001,23.456 C81.9640001,23.072 82.6120001,22.58 83.1400001,21.98 C82.3120001,20.996 81.8080001,19.928 81.6160001,18.776 L80.9200001,18.776 Z M82.3960001,18.776 C82.5640001,19.712 82.9600001,20.576 83.6080001,21.356 C84.0880001,20.624 84.4360001,19.76 84.6520001,18.776 L82.3960001,18.776 Z" id="活动快报" fill="#747474"></path>
                </g>
            </g>
        </g>
    </g>
</svg>