<?xml version="1.0" encoding="UTF-8"?>
<svg width="16px" height="11px" viewBox="0 0 16 11" version="1.1" xmlns="http://www.w3.org/2000/svg" xmlns:xlink="http://www.w3.org/1999/xlink">
    <!-- Generator: Sketch 44.1 (41455) - http://www.bohemiancoding.com/sketch -->
    <title>打勾</title>
    <desc>Created with Sketch.</desc>
    <defs></defs>
    <g id="Page-1" stroke="none" stroke-width="1" fill="none" fill-rule="evenodd">
        <g id="01-门店首页（正常模式-自助式）2" transform="translate(-26.000000, -220.000000)" fill="#E75040">
            <g id="打勾" transform="translate(26.000000, 220.000000)">
                <path d="M0.843592168,7.27557268 L7.2452426,7.31326208 C7.93559853,7.31326208 8.4952426,6.75361802 8.4952426,6.06326208 C8.4952426,5.37290614 7.93559853,4.81326208 7.2452426,4.81326208 L0.843592168,4.77557268 C0.15323623,4.77557268 -0.406407832,5.33521675 -0.406407832,6.02557268 C-0.406407832,6.71592862 0.15323623,7.27557268 0.843592168,7.27557268 Z" id="Combined-Shape" fill-rule="nonzero" transform="translate(4.044417, 6.044417) rotate(45.000000) translate(-4.044417, -6.044417) "></path>
                <path d="M9.05330086,0.303300859 L9.05330086,10.3033009 C9.05330086,10.9936568 9.61294492,11.5533009 10.3033009,11.5533009 C10.9936568,11.5533009 11.5533009,10.9936568 11.5533009,10.3033009 L11.5533009,0.303300859 C11.5533009,-0.387055078 10.9936568,-0.946699141 10.3033009,-0.946699141 C9.61294492,-0.946699141 9.05330086,-0.387055078 9.05330086,0.303300859 Z" id="Line" transform="translate(10.303301, 5.303301) rotate(45.000000) translate(-10.303301, -5.303301) "></path>
            </g>
        </g>
    </g>
</svg>