<?xml version="1.0" encoding="UTF-8"?>
<svg width="84px" height="20px" viewBox="0 0 84 20" version="1.1" xmlns="http://www.w3.org/2000/svg" xmlns:xlink="http://www.w3.org/1999/xlink">
    <!-- Generator: Sketch 44.1 (41455) - http://www.bohemiancoding.com/sketch -->
    <title>刷新按钮</title>
    <desc>Created with Sketch.</desc>
    <defs>
        <linearGradient x1="50%" y1="0%" x2="50%" y2="100%" id="linearGradient-1">
            <stop stop-color="#EEEEEE" offset="0%"></stop>
            <stop stop-color="#D8D8D8" offset="100%"></stop>
        </linearGradient>
        <rect id="path-2" x="0" y="0" width="84" height="19.2" rx="9.6"></rect>
    </defs>
    <g id="门店首页" stroke="none" stroke-width="1" fill="none" fill-rule="evenodd">
        <g id="02-门店首页（正常模式-扫码式）1" transform="translate(-483.000000, -633.000000)">
            <g id="刷新按钮" transform="translate(483.000000, 633.000000)">
                <g id="Rectangle-6">
                    <use fill="url(#linearGradient-1)" fill-rule="evenodd" xlink:href="#path-2"></use>
                    <rect stroke="#C3C3C3" stroke-width="1" x="0.5" y="0.5" width="83" height="18.2" rx="9.1"></rect>
                </g>
                <path d="M18.5889238,9.85960437 C18.4573262,11.3949114 17.1693949,12.6 15.6,12.6 C13.9431458,12.6 12.6,11.2568542 12.6,9.6 C12.6,7.94314575 13.9431458,6.6 15.6,6.6 C16.1521089,6.6 16.680937,6.74880714 17.1430913,7.02665053 C17.4270901,7.19738822 17.7957268,7.105572 17.9664645,6.82157327 C18.1372022,6.53757453 18.0453859,6.16893782 17.7613872,5.99820013 C17.1138069,5.60888024 16.3714922,5.4 15.6,5.4 C13.2804041,5.4 11.4,7.28040405 11.4,9.6 C11.4,11.9195959 13.2804041,13.8 15.6,13.8 C17.8384748,13.8 19.6679395,12.0488195 19.7931622,9.84169031 L19.9757359,10.0242641 C20.2100505,10.2585786 20.5899495,10.2585786 20.8242641,10.0242641 C21.0585786,9.78994949 21.0585786,9.41005051 20.8242641,9.17573593 L19.2,7.55147186 L17.5757359,9.17573593 C17.3414214,9.41005051 17.3414214,9.78994949 17.5757359,10.0242641 C17.8100505,10.2585786 18.1899495,10.2585786 18.4242641,10.0242641 L18.5889238,9.85960437 Z" id="Combined-Shape" fill="#979797" fill-rule="nonzero"></path>
                <path d="M28.7808,8.448 L29.4048,8.448 L29.4048,9.3792 L30.912,9.3792 L30.912,12.432 C30.912,12.9504 30.672,13.2096 30.192,13.2096 L29.7504,13.2096 L29.5872,12.5952 L29.9904,12.624 C30.1824,12.624 30.288,12.5088 30.288,12.2976 L30.288,9.9936 L29.4048,9.9936 L29.4048,14.0736 L28.7808,14.0736 L28.7808,9.9936 L27.9168,9.9936 L27.9168,13.2672 L27.3024,13.2672 L27.3024,9.3792 L28.7808,9.3792 L28.7808,8.448 Z M31.6512,6.2016 L32.2944,6.2016 L32.2944,12.1824 L31.6512,12.1824 L31.6512,6.2016 Z M33.1488,14.0736 L31.7376,14.0736 L31.5936,13.4208 C32.0544,13.4496 32.496,13.4688 32.9184,13.4688 C33.1968,13.4688 33.3408,13.3056 33.3408,12.9984 L33.3408,5.3856 L34.0128,5.3856 L34.0128,13.1712 C34.0128,13.7664 33.7248,14.0736 33.1488,14.0736 Z M30.2496,6.384 L26.9184,6.384 L26.9184,7.4688 L30.2496,7.4688 L30.2496,6.384 Z M26.9184,8.0928 L26.9184,9.1488 C26.9088,11.088 26.6208,12.7584 26.0448,14.1504 L25.536,13.6896 C26.016,12.5184 26.2656,11.0112 26.2752,9.1488 L26.2752,5.7408 L30.9024,5.7408 L30.9024,8.0928 L26.9184,8.0928 Z M43.5936,5.4528 L43.9392,6.0672 C43.0944,6.3936 42.1632,6.5952 41.1264,6.6528 L41.1264,8.4 L44.2272,8.4 L44.2272,9.0624 L43.2288,9.0624 L43.2288,14.1888 L42.5472,14.1888 L42.5472,9.0624 L41.1264,9.0624 L41.1264,10.2048 C41.0784,11.856 40.7136,13.1712 40.0224,14.1504 L39.5328,13.632 C40.0992,12.8064 40.4064,11.664 40.4544,10.2048 L40.4544,6.096 C41.616,6.0768 42.6624,5.856 43.5936,5.4528 Z M35.5968,6.192 L37.4304,6.192 C37.296,5.8848 37.152,5.6064 36.9888,5.3568 L37.6992,5.2416 C37.8432,5.5296 37.9776,5.8464 38.112,6.192 L39.9264,6.192 L39.9264,6.8256 L35.5968,6.8256 L35.5968,6.192 Z M35.5008,8.3712 L36.6048,8.3712 C36.4608,7.9872 36.288,7.6224 36.096,7.2864 L36.7104,7.0656 C36.8928,7.4208 37.0656,7.8528 37.2192,8.3712 L38.2752,8.3712 C38.4672,7.9488 38.6304,7.5072 38.7744,7.0464 L39.3984,7.2576 C39.2448,7.6704 39.0816,8.0448 38.8992,8.3712 L39.984,8.3712 L39.984,8.9952 L38.1312,8.9952 L38.1312,10.0704 L39.8208,10.0704 L39.8208,10.704 L38.1312,10.704 L38.1312,13.4208 C38.1312,13.9392 37.8528,14.1984 37.296,14.1984 L36.7776,14.1984 L36.6336,13.5552 C36.7872,13.584 36.9312,13.6032 37.0656,13.6032 C37.3152,13.6032 37.44,13.488 37.44,13.2576 L37.44,10.704 L35.6544,10.704 L35.6544,10.0704 L37.44,10.0704 L37.44,8.9952 L35.5008,8.9952 L35.5008,8.3712 Z M36.3264,11.2224 L36.96,11.3568 C36.7104,12.3264 36.3552,13.1712 35.9136,13.8912 L35.3376,13.5264 C35.7888,12.8352 36.1152,12.0672 36.3264,11.2224 Z M39.0816,11.1552 C39.3696,11.7792 39.6,12.3456 39.7536,12.864 L39.1776,13.0848 C38.9952,12.48 38.7744,11.8848 38.5056,11.3088 L39.0816,11.1552 Z M46.3008,8.4096 C47.0304,8.7072 47.7024,9.0624 48.3072,9.4752 L47.952,10.032 C47.3088,9.552 46.6464,9.168 45.9648,8.8992 L46.3008,8.4096 Z M47.184,7.0656 C47.9136,7.3632 48.5664,7.7184 49.1616,8.1408 L48.8064,8.688 C48.1728,8.208 47.5296,7.824 46.8576,7.5552 L47.184,7.0656 Z M49.8336,7.0656 L50.5152,7.0656 L50.5152,9.0816 C50.496,9.6096 50.4288,10.0896 50.3232,10.5312 L53.8944,10.5312 L53.8944,11.2032 L50.0928,11.2032 C50.0256,11.3568 49.9584,11.5104 49.8816,11.6448 C51.2736,12.2688 52.5408,12.9408 53.6832,13.6608 L53.2128,14.1792 C52.0224,13.4208 50.8032,12.7488 49.536,12.1632 C49.4784,12.2304 49.4304,12.2976 49.3824,12.3552 C48.6816,13.1136 47.5392,13.7088 45.9552,14.1312 L45.5616,13.5168 C47.1552,13.104 48.2592,12.5568 48.8928,11.8752 C49.0656,11.664 49.2096,11.4432 49.3248,11.2032 L45.5136,11.2032 L45.5136,10.5312 L49.6032,10.5312 C49.7376,10.0896 49.8144,9.6 49.8336,9.0816 L49.8336,7.0656 Z M45.8784,5.9232 L53.1936,5.9232 L53.1936,6.3552 C53.0496,6.9312 52.8576,7.4976 52.6272,8.064 L51.9744,7.8816 C52.176,7.488 52.3392,7.0464 52.4736,6.5664 L45.8784,6.5664 L45.8784,5.9232 Z M56.0832,6.8544 L60.2208,6.8544 C60.528,6.3744 60.8064,5.8464 61.0464,5.2896 L61.7184,5.5296 C61.488,6.0192 61.2288,6.4608 60.9408,6.8544 L62.784,6.8544 L62.784,10.8 L59.7792,10.8 L59.7792,11.712 L63.696,11.712 L63.696,12.3648 L59.7792,12.3648 L59.7792,14.1888 L59.088,14.1888 L59.088,12.3648 L55.1712,12.3648 L55.1712,11.712 L59.088,11.712 L59.088,10.8 L56.0832,10.8 L56.0832,6.8544 Z M62.112,10.1856 L62.112,9.1104 L59.7792,9.1104 L59.7792,10.1856 L62.112,10.1856 Z M59.088,10.1856 L59.088,9.1104 L56.7552,9.1104 L56.7552,10.1856 L59.088,10.1856 Z M56.7552,8.5152 L59.088,8.5152 L59.088,7.4592 L56.7552,7.4592 L56.7552,8.5152 Z M59.7792,7.4592 L59.7792,8.5152 L62.112,8.5152 L62.112,7.4592 L59.7792,7.4592 Z M57.7824,5.3376 C58.0992,5.7024 58.3968,6.1152 58.6848,6.5568 L58.1088,6.8448 C57.8208,6.384 57.5232,5.9808 57.1968,5.616 L57.7824,5.3376 Z M68.0736,8.7264 L68.0736,13.6608 L67.44,13.6608 L67.44,13.1136 L66.4032,13.1136 L66.4032,13.8432 L65.76,13.8432 L65.76,9.936 C65.568,10.2816 65.3568,10.6176 65.1264,10.944 L64.7808,10.3872 C65.5104,9.2736 65.9904,7.9968 66.2208,6.5664 L65.0496,6.5664 L65.0496,5.8944 L68.3232,5.8944 L68.3232,6.5664 L66.8736,6.5664 C66.7392,7.3344 66.5568,8.0544 66.3072,8.7264 L68.0736,8.7264 Z M66.4032,12.4896 L67.44,12.4896 L67.44,9.36 L66.4032,9.36 L66.4032,12.4896 Z M69.3696,7.0848 L70.0512,7.1328 L69.6288,9.552 L71.664,9.552 L72.144,6.4128 L68.7648,6.4128 L68.7648,5.76 L72.8928,5.76 L72.3648,9.552 L73.3824,9.552 C73.3824,11.8752 73.248,13.2096 72.9984,13.5744 C72.7296,13.92 72.1824,14.1024 71.3376,14.1024 C71.0688,14.1024 70.7808,14.0928 70.4736,14.0736 L70.2816,13.4016 C70.704,13.44 71.0016,13.4592 71.1744,13.4592 C71.9136,13.4592 72.3552,13.296 72.4992,12.9888 C72.6528,12.6624 72.7296,11.7312 72.7296,10.1952 L68.8512,10.1952 L69.3696,7.0848 Z M68.5536,11.4144 L72.0672,11.4144 L72.0672,12.0672 L68.5536,12.0672 L68.5536,11.4144 Z" id="刷新买单码" fill="#858585"></path>
            </g>
        </g>
    </g>
</svg>