<?xml version="1.0" encoding="UTF-8"?>
<svg width="17px" height="17px" viewBox="0 0 17 17" version="1.1" xmlns="http://www.w3.org/2000/svg" xmlns:xlink="http://www.w3.org/1999/xlink">
    <!-- Generator: Sketch 44.1 (41455) - http://www.bohemiancoding.com/sketch -->
    <title>left</title>
    <desc>Created with Sketch.</desc>
    <defs>
        <path d="M12.9636778,8.49930706 C13.0543974,8.74647354 12.993575,9.07570254 12.8035676,9.2902768 L8.79697039,13.8149042 C8.57569213,14.0647925 8.26300157,14.0645538 8.09855647,13.8143712 C7.93411137,13.5641885 7.98018374,13.1588009 8.201462,12.9089126 L12.1055966,8.49999568 L8.20171552,4.09284892 C7.98046958,3.84308124 7.93444086,3.43785657 8.0989075,3.18775429 C8.26337414,2.93765202 8.57605597,2.93738078 8.79730191,3.18714846 L12.8033141,7.70959246 C12.9930555,7.92379423 13.0539274,8.25233221 12.9636778,8.49930706 Z M9.96367779,8.49930706 C10.0543974,8.74647354 9.99357504,9.07570254 9.80356765,9.2902768 L5.79697039,13.8149042 C5.57569213,14.0647925 5.26300157,14.0645538 5.09855647,13.8143712 C4.93411137,13.5641885 4.98018374,13.1588009 5.201462,12.9089126 L9.10559664,8.49999568 L5.20171552,4.09284892 C4.98046958,3.84308124 4.93444086,3.43785657 5.0989075,3.18775429 C5.26337414,2.93765202 5.57605597,2.93738078 5.79730191,3.18714846 L9.80331413,7.70959246 C9.99305553,7.92379423 10.0539274,8.25233221 9.96367779,8.49930706 Z" id="path-1"></path>
        <filter x="-56.2%" y="-31.8%" width="187.4%" height="163.6%" filterUnits="objectBoundingBox" id="filter-2">
            <feOffset dx="-1" dy="0" in="SourceAlpha" result="shadowOffsetOuter1"></feOffset>
            <feGaussianBlur stdDeviation="1" in="shadowOffsetOuter1" result="shadowBlurOuter1"></feGaussianBlur>
            <feColorMatrix values="0 0 0 0 0   0 0 0 0 0   0 0 0 0 0  0 0 0 0.506283967 0" type="matrix" in="shadowBlurOuter1"></feColorMatrix>
        </filter>
    </defs>
    <g id="门店首页" stroke="none" stroke-width="1" fill="none" fill-rule="evenodd">
        <g id="03-门店首页（正常模式-自助式-B）" transform="translate(-8.000000, -62.000000)">
            <g id="left" transform="translate(16.500000, 70.500000) scale(-1, 1) translate(-16.500000, -70.500000) translate(8.000000, 62.000000)">
                <rect id="Rectangle-9" fill-opacity="0.2" fill="#000000" x="0" y="0" width="17" height="17" rx="4"></rect>
                <g id="Combined-Shape">
                    <use fill="black" fill-opacity="1" filter="url(#filter-2)" xlink:href="#path-1"></use>
                    <use fill="#FFFFFF" fill-rule="evenodd" xlink:href="#path-1"></use>
                </g>
            </g>
        </g>
    </g>
</svg>