<?xml version="1.0" encoding="UTF-8"?>
<svg width="10px" height="6px" viewBox="0 0 10 6" version="1.1" xmlns="http://www.w3.org/2000/svg" xmlns:xlink="http://www.w3.org/1999/xlink">
    <!-- Generator: Sketch 43.1 (39012) - http://www.bohemiancoding.com/sketch -->
    <title>券豁图</title>
    <desc>Created with Sketch.</desc>
    <defs>
        <rect id="path-1" x="0" y="-1.98951966e-13" width="10" height="6"></rect>
    </defs>
    <g id="2.0改版-&gt;-功能组成-URL展示页" stroke="none" stroke-width="1" fill="none" fill-rule="evenodd">
        <g id="券豁图">
            <mask id="mask-2" fill="white">
                <use xlink:href="#path-1"></use>
            </mask>
            <use id="Combined-Shape" fill="#FFFFFF" xlink:href="#path-1"></use>
            <path d="M-140,10 C-141.656854,10 -143,8.65685425 -143,7 C-143,5.34314575 -141.656854,4 -140,4 C-138.343146,4 -137,5.34314575 -137,7 C-137,8.65685425 -138.343146,10 -140,10 Z M-130,10 C-131.656854,10 -133,8.65685425 -133,7 C-133,5.34314575 -131.656854,4 -130,4 C-128.343146,4 -127,5.34314575 -127,7 C-127,8.65685425 -128.343146,10 -130,10 Z M-120,10 C-121.656854,10 -123,8.65685425 -123,7 C-123,5.34314575 -121.656854,4 -120,4 C-118.343146,4 -117,5.34314575 -117,7 C-117,8.65685425 -118.343146,10 -120,10 Z M-110,10 C-111.656854,10 -113,8.65685425 -113,7 C-113,5.34314575 -111.656854,4 -110,4 C-108.343146,4 -107,5.34314575 -107,7 C-107,8.65685425 -108.343146,10 -110,10 Z M-100,10 C-101.656854,10 -103,8.65685425 -103,7 C-103,5.34314575 -101.656854,4 -100,4 C-98.3431458,4 -97,5.34314575 -97,7 C-97,8.65685425 -98.3431458,10 -100,10 Z M-90,10 C-91.6568542,10 -93,8.65685425 -93,7 C-93,5.34314575 -91.6568542,4 -90,4 C-88.3431458,4 -87,5.34314575 -87,7 C-87,8.65685425 -88.3431458,10 -90,10 Z M-80,10 C-81.6568542,10 -83,8.65685425 -83,7 C-83,5.34314575 -81.6568542,4 -80,4 C-78.3431458,4 -77,5.34314575 -77,7 C-77,8.65685425 -78.3431458,10 -80,10 Z M-70,10 C-71.6568542,10 -73,8.65685425 -73,7 C-73,5.34314575 -71.6568542,4 -70,4 C-68.3431458,4 -67,5.34314575 -67,7 C-67,8.65685425 -68.3431458,10 -70,10 Z M-60,10 C-61.6568542,10 -63,8.65685425 -63,7 C-63,5.34314575 -61.6568542,4 -60,4 C-58.3431458,4 -57,5.34314575 -57,7 C-57,8.65685425 -58.3431458,10 -60,10 Z M-50,10 C-51.6568542,10 -53,8.65685425 -53,7 C-53,5.34314575 -51.6568542,4 -50,4 C-48.3431458,4 -47,5.34314575 -47,7 C-47,8.65685425 -48.3431458,10 -50,10 Z M-40,10 C-41.6568542,10 -43,8.65685425 -43,7 C-43,5.34314575 -41.6568542,4 -40,4 C-38.3431458,4 -37,5.34314575 -37,7 C-37,8.65685425 -38.3431458,10 -40,10 Z M-30,10 C-31.6568542,10 -33,8.65685425 -33,7 C-33,5.34314575 -31.6568542,4 -30,4 C-28.3431458,4 -27,5.34314575 -27,7 C-27,8.65685425 -28.3431458,10 -30,10 Z M-20,10 C-21.6568542,10 -23,8.65685425 -23,7 C-23,5.34314575 -21.6568542,4 -20,4 C-18.3431458,4 -17,5.34314575 -17,7 C-17,8.65685425 -18.3431458,10 -20,10 Z M-10,10 C-11.6568542,10 -13,8.65685425 -13,7 C-13,5.34314575 -11.6568542,4 -10,4 C-8.34314575,4 -7,5.34314575 -7,7 C-7,8.65685425 -8.34314575,10 -10,10 Z M0,10 C-1.65685425,10 -3,8.65685425 -3,7 C-3,5.34314575 -1.65685425,4 0,4 C1.65685425,4 3,5.34314575 3,7 C3,8.65685425 1.65685425,10 0,10 Z M10,10 C8.34314575,10 7,8.65685425 7,7 C7,5.34314575 8.34314575,4 10,4 C11.6568542,4 13,5.34314575 13,7 C13,8.65685425 11.6568542,10 10,10 Z M20,10 C18.3431458,10 17,8.65685425 17,7 C17,5.34314575 18.3431458,4 20,4 C21.6568542,4 23,5.34314575 23,7 C23,8.65685425 21.6568542,10 20,10 Z M30,10 C28.3431458,10 27,8.65685425 27,7 C27,5.34314575 28.3431458,4 30,4 C31.6568542,4 33,5.34314575 33,7 C33,8.65685425 31.6568542,10 30,10 Z M40,10 C38.3431458,10 37,8.65685425 37,7 C37,5.34314575 38.3431458,4 40,4 C41.6568542,4 43,5.34314575 43,7 C43,8.65685425 41.6568542,10 40,10 Z M50,10 C48.3431458,10 47,8.65685425 47,7 C47,5.34314575 48.3431458,4 50,4 C51.6568542,4 53,5.34314575 53,7 C53,8.65685425 51.6568542,10 50,10 Z M60,10 C58.3431458,10 57,8.65685425 57,7 C57,5.34314575 58.3431458,4 60,4 C61.6568542,4 63,5.34314575 63,7 C63,8.65685425 61.6568542,10 60,10 Z M70,10 C68.3431458,10 67,8.65685425 67,7 C67,5.34314575 68.3431458,4 70,4 C71.6568542,4 73,5.34314575 73,7 C73,8.65685425 71.6568542,10 70,10 Z M80,10 C78.3431458,10 77,8.65685425 77,7 C77,5.34314575 78.3431458,4 80,4 C81.6568542,4 83,5.34314575 83,7 C83,8.65685425 81.6568542,10 80,10 Z M90,10 C88.3431458,10 87,8.65685425 87,7 C87,5.34314575 88.3431458,4 90,4 C91.6568542,4 93,5.34314575 93,7 C93,8.65685425 91.6568542,10 90,10 Z M100,10 C98.3431458,10 97,8.65685425 97,7 C97,5.34314575 98.3431458,4 100,4 C101.656854,4 103,5.34314575 103,7 C103,8.65685425 101.656854,10 100,10 Z M110,10 C108.343146,10 107,8.65685425 107,7 C107,5.34314575 108.343146,4 110,4 C111.656854,4 113,5.34314575 113,7 C113,8.65685425 111.656854,10 110,10 Z M120,10 C118.343146,10 117,8.65685425 117,7 C117,5.34314575 118.343146,4 120,4 C121.656854,4 123,5.34314575 123,7 C123,8.65685425 121.656854,10 120,10 Z M130,10 C128.343146,10 127,8.65685425 127,7 C127,5.34314575 128.343146,4 130,4 C131.656854,4 133,5.34314575 133,7 C133,8.65685425 131.656854,10 130,10 Z M140,10 C138.343146,10 137,8.65685425 137,7 C137,5.34314575 138.343146,4 140,4 C141.656854,4 143,5.34314575 143,7 C143,8.65685425 141.656854,10 140,10 Z" id="Combined-Shape" fill="#555555" mask="url(#mask-2)"></path>
        </g>
    </g>
</svg>