<?xml version="1.0" encoding="UTF-8"?>
<svg width="65px" height="27px" viewBox="0 0 65 27" version="1.1" xmlns="http://www.w3.org/2000/svg" xmlns:xlink="http://www.w3.org/1999/xlink">
    <!-- Generator: Sketch 44.1 (41455) - http://www.bohemiancoding.com/sketch -->
    <title>会员规则</title>
    <desc>Created with Sketch.</desc>
    <defs>
        <linearGradient x1="50%" y1="0%" x2="50%" y2="100%" id="linearGradient-1">
            <stop stop-color="#FFFFFF" offset="0%"></stop>
            <stop stop-color="#FEF9CB" offset="100%"></stop>
        </linearGradient>
        <rect id="path-2" x="0" y="0" width="57" height="19" rx="9.5"></rect>
        <filter x="-12.3%" y="-26.3%" width="124.6%" height="173.7%" filterUnits="objectBoundingBox" id="filter-3">
            <feOffset dx="0" dy="2" in="SourceAlpha" result="shadowOffsetOuter1"></feOffset>
            <feGaussianBlur stdDeviation="2" in="shadowOffsetOuter1" result="shadowBlurOuter1"></feGaussianBlur>
            <feColorMatrix values="0 0 0 0 0   0 0 0 0 0   0 0 0 0 0  0 0 0 0.208191803 0" type="matrix" in="shadowBlurOuter1"></feColorMatrix>
        </filter>
    </defs>
    <g id="Page-1" stroke="none" stroke-width="1" fill="none" fill-rule="evenodd">
        <g id="会员规则" transform="translate(4.000000, 2.000000)">
            <g id="Rectangle-13">
                <use fill="black" fill-opacity="1" filter="url(#filter-3)" xlink:href="#path-2"></use>
                <use fill="url(#linearGradient-1)" fill-rule="evenodd" xlink:href="#path-2"></use>
            </g>
            <path d="M13.15,4.78 L13.85,4.78 C15.11,6.16 16.55,7.25 18.19,8.05 L17.67,8.97 C17.07,8.66 16.52,8.32 16,7.94 L16,8.69 L11.03,8.69 L11.03,7.9 C10.49,8.28 9.91,8.64 9.29,8.98 L8.78,8.06 C10.53,7.18 11.99,6.09 13.15,4.78 Z M11.18,7.79 L15.8,7.79 C14.94,7.15 14.17,6.43 13.5,5.63 C12.85,6.42 12.08,7.14 11.18,7.79 Z M9.46,9.8 L9.46,10.72 L11.8,10.72 C11.42,11.42 10.96,12.08 10.42,12.71 C10.32,12.82 10.16,12.91 9.93,12.97 L10.19,13.79 C12.53,13.65 14.48,13.46 16.03,13.22 C16.22,13.49 16.4,13.76 16.57,14.02 L17.36,13.46 C16.86,12.73 16.16,11.87 15.25,10.88 L14.51,11.35 C14.87,11.75 15.2,12.14 15.5,12.53 C14.16,12.69 12.78,12.81 11.34,12.89 C11.93,12.27 12.45,11.55 12.9,10.72 L17.56,10.72 L17.56,9.8 L9.46,9.8 Z M27.2,8.38 L27.2,12.17 L26.26,12.17 L26.26,9.25 L21.25,9.25 L21.25,12.32 L20.31,12.32 L20.31,8.38 L27.2,8.38 Z M20.9,5.1 L26.61,5.1 L26.61,7.77 L20.9,7.77 L20.9,5.1 Z M25.69,6.95 L25.69,5.94 L21.82,5.94 L21.82,6.95 L25.69,6.95 Z M23.36,9.77 L24.32,9.86 C24.18,11.36 23.87,12.36 23.39,12.86 C22.89,13.48 21.67,13.89 19.74,14.07 L19.37,13.2 C20.98,13.12 22.05,12.82 22.57,12.3 C23.02,11.81 23.28,10.97 23.36,9.77 Z M24.54,12.03 C25.84,12.38 27.02,12.8 28.1,13.29 L27.58,14.08 C26.44,13.51 25.27,13.06 24.07,12.74 L24.54,12.03 Z M29.68,6.15 L31.04,6.15 L31.04,4.86 L31.99,4.86 L31.99,6.15 L33.22,6.15 L33.22,7.06 L31.99,7.06 L31.99,8.49 L33.36,8.49 L33.36,9.4 L31.95,9.4 C31.93,9.62 31.9,9.83 31.88,10.03 C32.42,10.53 32.97,11.08 33.53,11.7 L32.99,12.51 C32.49,11.82 32.07,11.29 31.73,10.91 C31.43,12.25 30.9,13.3 30.14,14.06 L29.43,13.44 C30.33,12.54 30.85,11.2 31,9.4 L29.54,9.4 L29.54,8.49 L31.04,8.49 L31.04,7.06 L29.68,7.06 L29.68,6.15 Z M37.94,5.16 L37.94,10.75 L37.03,10.75 L37.03,6.03 L34.58,6.03 L34.58,10.75 L33.67,10.75 L33.67,5.16 L37.94,5.16 Z M37.58,13.88 L36.7,13.88 C36.13,13.88 35.85,13.57 35.85,12.97 L35.85,11.14 C35.73,11.51 35.58,11.84 35.41,12.13 C34.91,12.96 34.09,13.6 32.97,14.06 L32.48,13.27 C33.58,12.81 34.33,12.22 34.73,11.51 C35.12,10.75 35.33,9.77 35.37,8.56 L35.37,6.72 L36.24,6.72 L36.24,8.56 C36.22,9.38 36.12,10.12 35.96,10.76 L36.72,10.76 L36.72,12.78 C36.72,12.95 36.8,13.04 36.97,13.04 L37.43,13.04 C37.55,13.04 37.63,12.99 37.69,12.89 C37.75,12.77 37.8,12.43 37.83,11.85 L38.64,12.11 C38.58,12.97 38.46,13.48 38.3,13.65 C38.14,13.8 37.9,13.88 37.58,13.88 Z M44.61,5.14 L44.61,11.43 L43.69,11.43 L43.69,6.05 L41.07,6.05 L41.07,11.52 L40.15,11.52 L40.15,5.14 L44.61,5.14 Z M43.31,11.66 C43.97,12.2 44.52,12.74 44.97,13.28 L44.25,13.99 C43.87,13.47 43.33,12.91 42.65,12.31 L43.31,11.66 Z M41.93,6.64 L42.85,6.64 L42.85,9.77 C42.81,10.95 42.57,11.89 42.15,12.59 C41.72,13.24 41.04,13.75 40.1,14.11 L39.56,13.26 C40.46,12.92 41.08,12.48 41.4,11.96 C41.72,11.4 41.89,10.67 41.93,9.77 L41.93,6.64 Z M45.55,5.67 L46.47,5.67 L46.47,11.85 L45.55,11.85 L45.55,5.67 Z M47.46,13.93 L46.09,13.93 L45.87,13.01 C46.31,13.04 46.73,13.06 47.13,13.06 C47.42,13.06 47.57,12.91 47.57,12.63 L47.57,4.83 L48.51,4.83 L48.51,12.87 C48.51,13.57 48.16,13.93 47.46,13.93 Z" fill="#755B3A"></path>
        </g>
    </g>
</svg>