<?xml version="1.0" encoding="UTF-8"?>
<svg width="108px" height="44px" viewBox="0 0 108 44" version="1.1" xmlns="http://www.w3.org/2000/svg" xmlns:xlink="http://www.w3.org/1999/xlink">
    <!-- Generator: Sketch 44.1 (41455) - http://www.bohemiancoding.com/sketch -->
    <title>返回按钮</title>
    <desc>Created with Sketch.</desc>
    <defs>
        <linearGradient x1="134.280961%" y1="50%" x2="0%" y2="50%" id="linearGradient-1">
            <stop stop-color="#FBDA61" offset="0%"></stop>
            <stop stop-color="#F36027" offset="100%"></stop>
        </linearGradient>
        <rect id="path-2" x="0" y="0" width="108" height="42" rx="21"></rect>
    </defs>
    <g id="门店首页（自助式）" stroke="none" stroke-width="1" fill="none" fill-rule="evenodd">
        <g id="02-门店首页（门店活动-自助式）" transform="translate(-260.000000, -608.000000)">
            <g id="返回按钮" transform="translate(260.000000, 608.000000)">
                <rect id="Rectangle-20" fill="#B36715" x="0" y="2" width="108" height="42" rx="21"></rect>
                <g id="Rectangle-20">
                    <use fill="url(#linearGradient-1)" fill-rule="evenodd" xlink:href="#path-2"></use>
                    <rect stroke="#F7A347" stroke-width="2" x="1" y="1" width="106" height="40" rx="20"></rect>
                </g>
                <g id="Group-3" transform="translate(16.000000, 11.000000)" stroke="#FFFFFF" stroke-width="2" stroke-linecap="round">
                    <path d="M18,0.409090909 L18,12.5095694 C18,16.1245241 15.0695002,19.0550239 11.4545455,19.0550239 C7.83959073,19.0550239 4.90909091,16.1245241 4.90909091,12.5095694 L4.90909091,4.4138756" id="Rectangle"></path>
                    <polyline id="Line" points="0.409090909 8.7 4.90909091 4.5 9.40909091 8.7"></polyline>
                </g>
                <path d="M44.536,15.364 L43.948,15.928 C44.8,16.624 45.472,17.284 45.952,17.884 L46.576,17.272 C46.024,16.636 45.34,16 44.536,15.364 Z M51.484,25.984 C50.836,25.984 50.14,25.972 49.384,25.96 C48.628,25.948 48.004,25.876 47.524,25.744 C47.068,25.6 46.648,25.3 46.276,24.868 C46.12,24.664 45.964,24.568 45.82,24.568 C45.532,24.568 45.052,25.12 44.38,26.224 L43.732,25.636 C44.38,24.628 44.944,24.016 45.448,23.8 L45.448,20.152 L43.732,20.152 L43.732,19.36 L46.252,19.36 L46.252,23.86 C46.348,23.932 46.432,24.028 46.528,24.136 C46.816,24.484 47.128,24.736 47.452,24.904 C47.812,25.072 48.352,25.168 49.048,25.192 C49.672,25.204 50.452,25.216 51.376,25.216 C51.952,25.216 52.528,25.204 53.128,25.204 C53.716,25.18 54.172,25.168 54.484,25.156 L54.292,25.984 L51.484,25.984 Z M53.488,15.328 L53.908,16.072 C52.36,16.48 50.632,16.708 48.736,16.756 L48.748,18.136 L53.788,18.136 L53.788,18.748 C53.44,19.876 52.948,20.872 52.312,21.748 C53.032,22.42 53.692,23.104 54.292,23.8 L53.716,24.484 C53.152,23.764 52.516,23.068 51.808,22.396 C51.052,23.26 50.14,24.004 49.06,24.604 L48.544,23.92 C49.6,23.344 50.476,22.648 51.196,21.832 C50.524,21.232 49.804,20.668 49.024,20.116 L49.528,19.504 C50.296,20.044 51.028,20.608 51.7,21.196 C52.216,20.488 52.624,19.72 52.924,18.88 L48.736,18.88 C48.676,21.232 48.268,22.996 47.512,24.196 L46.732,23.812 C47.5,22.588 47.908,20.86 47.944,18.64 L47.944,16 C50.128,15.952 51.976,15.724 53.488,15.328 Z M59.296,18.544 L63.928,18.544 L63.928,22.816 L59.296,22.816 L59.296,18.544 Z M63.112,22.084 L63.112,19.288 L60.1,19.288 L60.1,22.084 L63.112,22.084 Z M66.412,15.916 L66.412,26.008 L65.572,26.008 L65.572,25.492 L57.628,25.492 L57.628,26.008 L56.788,26.008 L56.788,15.916 L66.412,15.916 Z M57.628,24.724 L65.572,24.724 L65.572,16.684 L57.628,16.684 L57.628,24.724 Z M70.048,19.012 C70.96,19.384 71.8,19.828 72.556,20.344 L72.112,21.04 C71.308,20.44 70.48,19.96 69.628,19.624 L70.048,19.012 Z M71.152,17.332 C72.064,17.704 72.88,18.148 73.624,18.676 L73.18,19.36 C72.388,18.76 71.584,18.28 70.744,17.944 L71.152,17.332 Z M74.464,17.332 L75.316,17.332 L75.316,19.852 C75.292,20.512 75.208,21.112 75.076,21.664 L79.54,21.664 L79.54,22.504 L74.788,22.504 C74.704,22.696 74.62,22.888 74.524,23.056 C76.264,23.836 77.848,24.676 79.276,25.576 L78.688,26.224 C77.2,25.276 75.676,24.436 74.092,23.704 C74.02,23.788 73.96,23.872 73.9,23.944 C73.024,24.892 71.596,25.636 69.616,26.164 L69.124,25.396 C71.116,24.88 72.496,24.196 73.288,23.344 C73.504,23.08 73.684,22.804 73.828,22.504 L69.064,22.504 L69.064,21.664 L74.176,21.664 C74.344,21.112 74.44,20.5 74.464,19.852 L74.464,17.332 Z M69.52,15.904 L78.664,15.904 L78.664,16.444 C78.484,17.164 78.244,17.872 77.956,18.58 L77.14,18.352 C77.392,17.86 77.596,17.308 77.764,16.708 L69.52,16.708 L69.52,15.904 Z M82.612,17.068 L87.784,17.068 C88.168,16.468 88.516,15.808 88.816,15.112 L89.656,15.412 C89.368,16.024 89.044,16.576 88.684,17.068 L90.988,17.068 L90.988,22 L87.232,22 L87.232,23.14 L92.128,23.14 L92.128,23.956 L87.232,23.956 L87.232,26.236 L86.368,26.236 L86.368,23.956 L81.472,23.956 L81.472,23.14 L86.368,23.14 L86.368,22 L82.612,22 L82.612,17.068 Z M90.148,21.232 L90.148,19.888 L87.232,19.888 L87.232,21.232 L90.148,21.232 Z M86.368,21.232 L86.368,19.888 L83.452,19.888 L83.452,21.232 L86.368,21.232 Z M83.452,19.144 L86.368,19.144 L86.368,17.824 L83.452,17.824 L83.452,19.144 Z M87.232,17.824 L87.232,19.144 L90.148,19.144 L90.148,17.824 L87.232,17.824 Z M84.736,15.172 C85.132,15.628 85.504,16.144 85.864,16.696 L85.144,17.056 C84.784,16.48 84.412,15.976 84.004,15.52 L84.736,15.172 Z" id="返回买单" fill="#FFFFFF"></path>
            </g>
        </g>
    </g>
</svg>