<?xml version="1.0" encoding="UTF-8"?>
<svg width="30px" height="15px" viewBox="0 0 30 15" version="1.1" xmlns="http://www.w3.org/2000/svg" xmlns:xlink="http://www.w3.org/1999/xlink">
    <!-- Generator: Sketch 49 (51002) - http://www.bohemiancoding.com/sketch -->
    <title>动画部分</title>
    <desc>Created with Sketch.</desc>
    <defs></defs>
    <g id="彩蛋计划-V3.1（满额即开）" stroke="none" stroke-width="1" fill="none" fill-rule="evenodd">
        <g id="2.-彩蛋计划--首页未购买-活动主页" transform="translate(-289.000000, -88.000000)" fill="#FEE84E">
            <g id="动画部分" transform="translate(289.000000, 86.000000)">
                <path d="M0.554925186,15.5975421 C0.554925186,15.5061131 0.56178226,15.4421137 0.575496615,15.4055421 C0.589210969,15.3689705 0.637210489,15.3186853 0.719496615,15.2546849 C0.728639517,15.245542 0.833781323,15.2295422 1.03492519,15.2066849 C1.23606905,15.1838277 1.4897808,15.1563994 1.79606804,15.1243992 C2.10235529,15.0923991 2.43378055,15.0603994 2.79035376,15.0283992 C3.14692697,14.9963991 3.4852093,14.9643994 3.8052109,14.9323992 C4.1252125,14.9003991 4.40406685,14.8752565 4.64178233,14.8569707 C4.8794978,14.8386849 5.03492482,14.8295421 5.10806804,14.8295421 C5.16292546,14.8295421 5.22921051,14.8318278 5.30692519,14.8363992 C5.38463986,14.8409707 5.46006768,14.8523991 5.5332109,14.8706849 C5.60635412,14.8889708 5.66806779,14.9186847 5.71835376,14.9598278 C5.76863972,15.0009709 5.79378233,15.0626845 5.79378233,15.1449707 C5.79378233,15.2821142 5.70006898,15.4032559 5.51263947,15.5083992 C5.32520996,15.6135426 5.08521236,15.7095417 4.79263947,15.7963992 C4.50006658,15.8832568 4.18006978,15.9563989 3.83263947,16.0158278 C3.48520916,16.0752567 3.15149821,16.1232562 2.83149661,16.1598278 C2.51149501,16.1963994 2.22578359,16.2238277 1.97435376,16.2421135 C1.72292393,16.2603993 1.55606845,16.2695421 1.47378233,16.2695421 L1.13092519,16.2695421 C1.06692487,16.2603992 1.00063981,16.2329709 0.932068043,16.1872564 C0.863496272,16.1415419 0.801782603,16.0843996 0.746925186,16.0158278 C0.692067769,15.947256 0.64635394,15.8763996 0.609782329,15.8032564 C0.573210717,15.7301132 0.554925186,15.6615424 0.554925186,15.5975421 Z M1.06235376,13.0055421 C1.07149666,12.9506847 1.15149586,12.8981138 1.30235376,12.8478278 C1.45321165,12.7975418 1.64063835,12.7495423 1.86463947,12.7038278 C2.08864059,12.6581133 2.33320957,12.6169708 2.59835376,12.5803992 C2.86349794,12.5438276 3.11720969,12.5141136 3.35949661,12.4912564 C3.60178354,12.4683991 3.81663853,12.4501136 4.00406804,12.4363992 C4.19149755,12.4226849 4.32178196,12.4158278 4.39492519,12.4158278 L4.65549661,12.4158278 C4.75606855,12.4341136 4.84521051,12.4729704 4.92292519,12.5323992 C5.00063986,12.5918281 5.03949661,12.6809701 5.03949661,12.7998278 C5.03949661,12.9918288 4.9640688,13.1518272 4.8132109,13.2798278 C4.662353,13.4078284 4.47035492,13.5129703 4.2372109,13.5952564 C4.00406688,13.6775425 3.74349805,13.7415419 3.45549661,13.7872564 C3.16749517,13.8329709 2.88635513,13.8649706 2.61206804,13.8832564 C2.33778096,13.9015422 2.0863549,13.9106849 1.85778233,13.9106849 L1.26806804,13.9106849 C1.20406772,13.810113 1.15378251,13.6889714 1.1172109,13.5472564 C1.08063929,13.4055414 1.06235376,13.2706856 1.06235376,13.1426849 L1.06235376,13.0055421 Z" id="=" transform="translate(3.174354, 14.342685) rotate(-8.000000) translate(-3.174354, -14.342685) "></path>
                <path d="M7.68,15.9588571 C7.68,15.7302846 7.79199888,15.5131439 8.016,15.3074286 C8.24000112,15.1017133 8.47542734,14.9028581 8.72228571,14.7108571 C8.90514377,14.5737136 9.07428494,14.4342864 9.22971429,14.2925714 C9.38514363,14.1508564 9.46285714,14.020572 9.46285714,13.9017143 L9.46285714,12.1462857 C9.37142811,12.1462857 9.2960003,12.1554285 9.23657143,12.1737143 C9.17714256,12.1920001 9.12000027,12.2102856 9.06514286,12.2285714 C9.01028544,12.2468572 8.95314315,12.2651428 8.89371429,12.2834286 C8.83428542,12.3017144 8.78171451,12.3108571 8.736,12.3108571 C8.60799936,12.3108571 8.52571447,12.2697147 8.48914286,12.1874286 C8.45257125,12.1051424 8.43428571,12.0137148 8.43428571,11.9131429 C8.43428571,11.62057 8.52114199,11.4011436 8.69485714,11.2548571 C8.8685723,11.1085707 9.08342729,11.0262858 9.33942857,11.008 C9.39428599,10.9439997 9.42399998,10.8777146 9.42857143,10.8091429 C9.43314288,10.7405711 9.43542857,10.6788574 9.43542857,10.624 L9.43542857,10.5554286 C9.43542857,10.4457137 9.43085719,10.3382862 9.42171429,10.2331429 C9.41257138,10.1279995 9.39885723,10.0251434 9.38057143,9.92457143 C9.36228562,9.8239995 9.34857147,9.72342907 9.33942857,9.62285714 C9.33028567,9.52228521 9.32571429,9.42171479 9.32571429,9.32114286 L9.32571429,9.12914286 C9.35314299,9.07428544 9.40342821,9.0308573 9.47657143,8.99885714 C9.54971465,8.96685698 9.61371401,8.95085714 9.66857143,8.95085714 C9.74171465,8.95085714 9.79199986,8.95542853 9.81942857,8.96457143 C9.83771438,8.96457143 9.86514267,8.96685712 9.90171429,8.97142857 C9.9382859,8.97600002 9.96571419,8.97828571 9.984,8.97828571 L9.984,8.55314286 L9.81942857,8.58057143 C9.60914181,8.68114336 9.38057266,8.78628517 9.13371429,8.896 C8.88685591,9.00571483 8.65371538,9.06057143 8.43428571,9.06057143 C8.30628507,9.06057143 8.21028603,9.01028622 8.14628571,8.90971429 C8.08228539,8.80914235 8.05028571,8.69485778 8.05028571,8.56685714 C8.05028571,8.51199973 8.107428,8.44342898 8.22171429,8.36114286 C8.33600057,8.27885673 8.48457051,8.19200046 8.66742857,8.10057143 C8.85028663,8.0091424 9.04914178,7.91771474 9.264,7.82628571 C9.47885822,7.73485669 9.68457045,7.65485749 9.88114286,7.58628571 C10.0777153,7.51771394 10.2537135,7.46057166 10.4091429,7.41485714 C10.5645722,7.36914263 10.669714,7.34628571 10.7245714,7.34628571 C10.8342863,7.34628571 10.9348567,7.38057109 11.0262857,7.44914286 C11.1177147,7.51771463 11.1634286,7.60685659 11.1634286,7.71657143 C11.1634286,7.74400014 11.1314289,7.83542779 11.0674286,7.99085714 C11.0034283,8.14628649 10.9325718,8.31085627 10.8548571,8.48457143 C10.7771425,8.65828658 10.7040003,8.81599929 10.6354286,8.95771429 C10.5668568,9.09942928 10.528,9.17028571 10.5188571,9.17028571 C10.4639997,9.17028571 10.432,9.15657157 10.4228571,9.12914286 C10.3862855,9.09257125 10.3497145,9.07428571 10.3131429,9.07428571 C10.2948571,9.07428571 10.2742858,9.07657141 10.2514286,9.08114286 C10.2285713,9.08571431 10.2080001,9.088 10.1897143,9.088 C10.1714285,9.0971429 10.1440002,9.10171429 10.1074286,9.10171429 L10.0662857,9.10171429 C10.1120002,9.21142912 10.1485713,9.30971385 10.176,9.39657143 C10.2034287,9.48342901 10.2262856,9.56799959 10.2445714,9.65028571 C10.2628572,9.75085765 10.2834285,9.84914238 10.3062857,9.94514286 C10.329143,10.0411433 10.3634283,10.1257139 10.4091429,10.1988571 C10.4274287,10.2354288 10.461714,10.2651427 10.512,10.288 C10.562286,10.3108573 10.6239996,10.3314285 10.6971429,10.3497143 C10.7885719,10.377143 10.8777139,10.4114284 10.9645714,10.4525714 C11.051429,10.4937145 11.0948571,10.5691423 11.0948571,10.6788571 C11.0948571,10.7611433 11.0651432,10.8319997 11.0057143,10.8914286 C10.9462854,10.9508574 10.8800004,11.0079997 10.8068571,11.0628571 C10.724571,11.1360004 10.6514289,11.2045711 10.5874286,11.2685714 C10.5234283,11.3325717 10.4868572,11.4102853 10.4777143,11.5017143 L10.4228571,12.1325714 C10.4045713,12.2880008 10.3908572,12.4525706 10.3817143,12.6262857 C10.3725714,12.8000009 10.368,12.9645707 10.368,13.12 L10.368,13.3531429 L10.5462857,13.12 C10.6468576,13.0011423 10.7748564,12.8731435 10.9302857,12.736 C11.0857151,12.5988565 11.2365707,12.5302857 11.3828571,12.5302857 C11.492572,12.5302857 11.5474286,12.5897137 11.5474286,12.7085714 C11.5474286,12.8091434 11.5062861,12.9234279 11.424,13.0514286 C11.3417139,13.1794292 11.2480005,13.3051422 11.1428571,13.4285714 C11.0377138,13.5520006 10.9302863,13.6639995 10.8205714,13.7645714 C10.7108566,13.8651434 10.6285717,13.9428569 10.5737143,13.9977143 C10.5371427,14.1257149 10.4777147,14.2491423 10.3954286,14.368 C10.3131424,14.4868577 10.2171434,14.5828568 10.1074286,14.656 C10.070857,14.7017145 10.0274288,14.7474283 9.97714286,14.7931429 C9.92685689,14.8388574 9.88342875,14.8845712 9.84685714,14.9302857 C9.72799941,15.0582864 9.59314361,15.1999992 9.44228571,15.3554286 C9.29142782,15.5108579 9.13371511,15.6571422 8.96914286,15.7942857 C8.80457061,15.9314293 8.63542944,16.0479995 8.46171429,16.144 C8.28799913,16.2400005 8.12800073,16.288 7.98171429,16.288 C7.90857106,16.288 7.8445717,16.2674288 7.78971429,16.2262857 C7.73485687,16.1851427 7.69828581,16.1371431 7.68,16.0822857 L7.68,15.9588571 Z M15.3462857,8.08685714 C15.3645715,8.04114263 15.3714286,7.99314311 15.3668571,7.94285714 C15.3622857,7.89257118 15.36,7.84457166 15.36,7.79885714 L15.36,7.40114286 C15.2868568,7.40114286 15.1794293,7.43999961 15.0377143,7.51771429 C14.8959993,7.59542896 14.742858,7.70057077 14.5782857,7.83314286 C14.4137135,7.96571495 14.2445723,8.10971351 14.0708571,8.26514286 C13.897142,8.42057221 13.7394293,8.57371353 13.5977143,8.72457143 C13.4559993,8.87542933 13.3417147,9.01714219 13.2548571,9.14971429 C13.1679996,9.28228638 13.1245714,9.38057111 13.1245714,9.44457143 C13.1245714,9.70971561 13.1359999,9.97714151 13.1588571,10.2468571 C13.1817144,10.5165728 13.2114284,10.7839987 13.248,11.0491429 C13.2845716,11.3234299 13.3165713,11.5999986 13.344,11.8788571 C13.3714287,12.1577157 13.3851429,12.4342843 13.3851429,12.7085714 C13.3851429,12.7268572 13.3782858,12.7451428 13.3645714,12.7634286 C13.3508571,12.7817144 13.3394286,12.7999999 13.3302857,12.8182857 L13.2891429,12.832 C13.1702851,12.9051432 13.0765718,12.9577141 13.008,12.9897143 C12.9394282,13.0217144 12.8411435,13.0377143 12.7131429,13.0377143 C12.6674283,13.0377143 12.6171431,13.0308572 12.5622857,13.0171429 C12.5074283,13.0034285 12.4708572,12.9737145 12.4525714,12.928 C12.4434285,12.7999994 12.4365715,12.6697149 12.432,12.5371429 C12.4274285,12.4045708 12.4251429,12.2742864 12.4251429,12.1462857 C12.416,11.7165693 12.4022858,11.2868593 12.384,10.8571429 C12.3657142,10.4274264 12.3200004,9.99771643 12.2468571,9.568 C12.2285713,9.46742807 12.201143,9.36228626 12.1645714,9.25257143 C12.1279998,9.14285659 12.0868574,9.03771479 12.0411429,8.93714286 C11.9954283,8.80914222 11.9474288,8.67428642 11.8971429,8.53257143 C11.8468569,8.39085643 11.8217143,8.26514341 11.8217143,8.15542857 C11.8217143,8.04571374 11.8491426,7.9748573 11.904,7.94285714 C11.9588574,7.91085698 12.0365709,7.89485714 12.1371429,7.89485714 C12.1920003,7.89485714 12.2468569,7.9062856 12.3017143,7.92914286 C12.3565717,7.95200011 12.4068569,7.97257134 12.4525714,7.99085714 C12.5440005,8.03657166 12.6308567,8.05942857 12.7131429,8.05942857 C12.7588574,8.05942857 12.7931427,8.05714288 12.816,8.05257143 C12.8388573,8.04799998 12.8685712,8.03200014 12.9051429,8.00457143 C12.9965719,7.9039995 13.1428561,7.76228663 13.344,7.57942857 C13.5451439,7.39657051 13.7622845,7.2137152 13.9954286,7.03085714 C14.2285726,6.84799909 14.4617131,6.68800069 14.6948571,6.55085714 C14.9280012,6.4137136 15.1222849,6.34514286 15.2777143,6.34514286 C16.0274323,6.34514286 16.4022857,6.71085349 16.4022857,7.44228571 C16.4022857,7.55200055 16.3977143,7.65942805 16.3885714,7.76457143 C16.3794285,7.86971481 16.3474288,7.97257093 16.2925714,8.07314286 C16.2925714,8.09142866 16.2902857,8.10514281 16.2857143,8.11428571 C16.2811428,8.12342862 16.2788571,8.13714277 16.2788571,8.15542857 C16.2605713,8.28342921 16.2491429,8.40685655 16.2445714,8.52571429 C16.24,8.64457202 16.2331429,8.76799936 16.224,8.896 C16.224,8.94171451 16.2217143,9.03999925 16.2171429,9.19085714 C16.2125714,9.34171504 16.2102857,9.46742807 16.2102857,9.568 C16.2011428,9.71428645 16.1965714,9.85142793 16.1965714,9.97942857 L16.1965714,10.24 C16.1965714,10.2582858 16.1942857,10.2902855 16.1897143,10.336 C16.1851428,10.3817145 16.1828571,10.4182856 16.1828571,10.4457143 C16.1737142,10.7017156 16.1577144,11.0331408 16.1348571,11.44 C16.1119999,11.8468592 16.0754288,12.2422838 16.0251429,12.6262857 C15.9748569,13.0102876 15.9131432,13.3394272 15.84,13.6137143 C15.7668568,13.8880014 15.6708577,14.0251429 15.552,14.0251429 C15.4971426,14.0251429 15.4560001,14.0205715 15.4285714,14.0114286 C15.4102856,14.0114286 15.3828573,14.0091429 15.3462857,14.0045714 C15.3097141,14 15.2822858,13.9977143 15.264,13.9977143 C15.264,14.1074291 15.2662857,14.189714 15.2708571,14.2445714 C15.2754286,14.2994288 15.2914284,14.3497141 15.3188571,14.3954286 C15.4742865,14.5600008 15.6274278,14.6879995 15.7782857,14.7794286 C15.9291436,14.8708576 16.0822849,14.9394283 16.2377143,14.9851429 C16.3931436,15.0308574 16.5554277,15.0605714 16.7245714,15.0742857 C16.8937151,15.0880001 17.0834279,15.0628572 17.2205714,15.0537143 C17.357715,15.0445714 17.4902851,15.0262859 17.6182857,14.9988571 C17.7462864,14.9714284 17.8559995,14.9348574 17.9474286,14.8891429 C18.0388576,14.8434283 18.0845714,14.7840004 18.0845714,14.7108571 C18.0845714,14.4731417 18.0480004,14.2445725 17.9748571,14.0251429 C17.9017139,13.8057132 17.819429,13.5862868 17.728,13.3668571 C17.636571,13.1474275 17.5520004,12.921144 17.4742857,12.688 C17.396571,12.454856 17.3577143,12.2285725 17.3577143,12.0091429 L17.3577143,11.8857143 C17.3760001,11.8674285 17.3942856,11.8445716 17.4125714,11.8171429 C17.4308572,11.7897141 17.4491428,11.776 17.4674286,11.776 C17.5588576,11.776 17.6434282,11.8377137 17.7211429,11.9611429 C17.7988575,12.084572 17.8605712,12.1965709 17.9062857,12.2971429 L17.9474286,12.3794286 L18.3177143,13.1337143 C18.3542859,13.252572 18.4182853,13.3851421 18.5097143,13.5314286 C18.6011433,13.677715 18.6971424,13.8102851 18.7977143,13.9291429 C18.9074291,14.0754293 19.0079995,14.2171422 19.0994286,14.3542857 C19.1908576,14.4914293 19.2365714,14.6377135 19.2365714,14.7931429 C19.2365714,14.9760009 19.1840005,15.1337136 19.0788571,15.2662857 C18.9737138,15.3988578 18.8365723,15.5131424 18.6674286,15.6091429 C18.4982849,15.7051433 18.3085725,15.7828568 18.0982857,15.8422857 C17.8879989,15.9017146 17.6777153,15.9497141 17.4674286,15.9862857 C17.2571418,16.0228573 16.9280019,16.0617145 16.5531429,16.0205714 C16.1782838,15.9794284 15.8285731,15.8925721 15.504,15.76 C15.1794269,15.6274279 14.9074297,15.4354298 14.688,15.184 C14.4685703,14.9325702 14.3588571,14.5965735 14.3588571,14.176 L14.3588571,12.9828571 C14.3588571,12.9188568 14.3794284,12.8525718 14.4205714,12.784 C14.4617145,12.7154282 14.5188568,12.6811429 14.592,12.6811429 L15.0445714,12.6811429 C15.0537143,12.6811429 15.0674285,12.6422861 15.0857143,12.5645714 C15.1040001,12.4868568 15.1222856,12.3862863 15.1405714,12.2628571 C15.1588572,12.139428 15.1748571,12.0000008 15.1885714,11.8445714 C15.2022858,11.6891421 15.2182856,11.5337151 15.2365714,11.3782857 C15.2548572,11.1679989 15.2731428,10.9737152 15.2914286,10.7954286 C15.3097144,10.617142 15.3279999,10.4960003 15.3462857,10.432 L15.3462857,8.08685714 Z M11.2045714,15.7805714 C11.2045714,15.6799995 11.2365711,15.5977146 11.3005714,15.5337143 L11.8217143,15.0125714 C11.9954294,14.9165709 12.1714277,14.7680009 12.3497143,14.5805714 C12.5280009,14.3931419 12.6971421,14.1920011 12.8571429,13.9771429 C13.0171437,13.7622846 13.1565708,13.5428583 13.2754286,13.3188571 C13.3942863,13.094856 13.4811426,12.8914295 13.536,12.7085714 C13.5542858,12.6354282 13.5702856,12.5302864 13.584,12.3931429 C13.5977144,12.2559993 13.6137142,12.1051437 13.632,11.9405714 C13.6502858,11.7577134 13.670857,11.5611439 13.6937143,11.3508571 C13.7165715,11.1405704 13.7417141,10.9485723 13.7691429,10.7748571 C13.7965716,10.601142 13.8308569,10.4571434 13.872,10.3428571 C13.9131431,10.2285709 13.9611426,10.1714286 14.016,10.1714286 C14.1988581,10.1714286 14.3314282,10.2559992 14.4137143,10.4251429 C14.4960004,10.5942866 14.5554284,10.7519993 14.592,10.8982857 L14.592,11.1588571 C14.592,11.5611449 14.5257149,11.9977119 14.3931429,12.4685714 C14.2605708,12.9394309 14.0777155,13.3942835 13.8445714,13.8331429 C13.6114274,14.2720022 13.3348587,14.6719982 13.0148571,15.0331429 C12.6948555,15.3942875 12.3474304,15.6662848 11.9725714,15.8491429 C11.9268569,15.8674287 11.8651432,15.8971427 11.7874286,15.9382857 C11.7097139,15.9794288 11.6480002,16.0137141 11.6022857,16.0411429 L11.52,16.0411429 C11.4468568,16.0411429 11.3760003,16.0205716 11.3074286,15.9794286 C11.2388568,15.9382855 11.2045714,15.8720005 11.2045714,15.7805714 Z" id="现" transform="translate(13.458286, 11.316571) rotate(-8.000000) translate(-13.458286, -11.316571) "></path>
                <path d="M21.504,12.5714286 C21.504,12.3977134 21.5474281,12.2605719 21.6342857,12.16 C21.7211433,12.0594281 21.8331422,11.9862859 21.9702857,11.9405714 C22.1074293,11.8948569 22.2582849,11.8651429 22.4228571,11.8514286 C22.5874294,11.8377142 22.7474278,11.8262858 22.9028571,11.8171429 C23.1131439,11.808 23.2914278,11.7942858 23.4377143,11.776 C23.5840007,11.7577142 23.6571429,11.6891435 23.6571429,11.5702857 C23.6571429,11.4971425 23.6274289,11.4400002 23.568,11.3988571 C23.5085711,11.3577141 23.4468575,11.3371429 23.3828571,11.3371429 C23.300571,11.3371429 23.2274289,11.3439999 23.1634286,11.3577143 C23.0994283,11.3714286 23.0308575,11.3874285 22.9577143,11.4057143 C22.8022849,11.4514288 22.6605721,11.4742857 22.5325714,11.4742857 L22.3954286,11.4742857 C22.3131424,11.4285712 22.2331432,11.3691432 22.1554286,11.296 C22.0777139,11.2228568 22.0160002,11.1497147 21.9702857,11.0765714 L21.8331429,10.8982857 L22.2857143,10.4045714 C22.2948572,10.3954285 22.3085713,10.3908571 22.3268571,10.3908571 L22.3817143,10.3908571 C22.4731433,10.3908571 22.5828565,10.4319996 22.7108571,10.5142857 C22.7748575,10.5508573 22.8388568,10.582857 22.9028571,10.6102857 C22.9668575,10.6377144 23.044571,10.6514286 23.136,10.6514286 C23.2091432,10.6514286 23.277714,10.6377144 23.3417143,10.6102857 C23.4057146,10.582857 23.469714,10.5508573 23.5337143,10.5142857 C23.5977146,10.4777141 23.6639997,10.4480001 23.7325714,10.4251429 C23.8011432,10.4022856 23.8719996,10.3862858 23.9451429,10.3771429 C24.0182861,10.3314283 24.0548571,10.237715 24.0548571,10.096 C24.0548571,9.95428501 24.0502858,9.84228613 24.0411429,9.76 L24.0411429,9.26628571 C23.9405709,9.29371442 23.8377148,9.32114272 23.7325714,9.34857143 C23.627428,9.37600014 23.5200005,9.39885705 23.4102857,9.41714286 L22.6697143,9.41714286 C22.6239998,9.41714286 22.5805716,9.40114302 22.5394286,9.36914286 C22.4982855,9.3371427 22.4685715,9.30285733 22.4502857,9.26628571 L22.4365714,9.14285714 C22.4365714,9.03314231 22.4845709,8.93942896 22.5805714,8.86171429 C22.6765719,8.78399961 22.7954279,8.71771456 22.9371429,8.66285714 C23.0788579,8.60799973 23.2274278,8.5622859 23.3828571,8.52571429 C23.5382865,8.48914267 23.675428,8.45714299 23.7942857,8.42971429 L24.0137143,8.38857143 L24.096,8.36114286 C24.096,8.28799963 24.1005714,8.22400027 24.1097143,8.16914286 C24.1188572,8.11428544 24.1325713,8.05485746 24.1508571,7.99085714 C24.1691429,7.91771392 24.1828571,7.84457179 24.192,7.77142857 C24.2011429,7.69828535 24.2057143,7.61600046 24.2057143,7.52457143 C24.0228562,7.52457143 23.8674292,7.5314285 23.7394286,7.54514286 C23.6114279,7.55885721 23.4788578,7.57485705 23.3417143,7.59314286 C23.2045707,7.61142866 23.0697149,7.6274285 22.9371429,7.64114286 C22.8045708,7.65485721 22.669715,7.66171429 22.5325714,7.66171429 L22.2857143,7.66171429 C22.1942853,7.68000009 22.1280002,7.64342903 22.0868571,7.552 C22.0457141,7.46057097 22.0251429,7.38285746 22.0251429,7.31885714 C22.0251429,7.23657102 22.098285,7.15200043 22.2445714,7.06514286 C22.3908579,6.97828528 22.5782846,6.89828608 22.8068571,6.82514286 C23.0354297,6.75199963 23.2868558,6.6811432 23.5611429,6.61257143 C23.8354299,6.54399966 24.1028558,6.48685737 24.3634286,6.44114286 C24.6240013,6.39542834 24.8571418,6.35885728 25.0628571,6.33142857 C25.2685725,6.30399986 25.4171424,6.29028571 25.5085714,6.29028571 C25.6365721,6.29028571 25.7622851,6.32457109 25.8857143,6.39314286 C26.0091435,6.46171463 26.0708571,6.57371351 26.0708571,6.72914286 C26.0708571,6.80228608 26.0457145,6.87999959 25.9954286,6.96228571 C25.9451426,7.04457184 25.8857146,7.11999966 25.8171429,7.18857143 C25.7485711,7.2571432 25.6708576,7.31428549 25.584,7.36 C25.4971424,7.40571451 25.4217146,7.42857143 25.3577143,7.42857143 L25.152,7.38742857 C25.0971426,7.36914277 25.0331432,7.36 24.96,7.36 L24.8502857,7.36 L24.7268571,7.38742857 C24.8182862,7.51542921 24.8731428,7.65714208 24.8914286,7.81257143 C24.9097144,7.96800078 24.9142858,8.10971365 24.9051429,8.23771429 C25.0331435,8.19199977 25.1085713,8.16228578 25.1314286,8.14857143 C25.1542858,8.13485707 25.1839998,8.11885723 25.2205714,8.10057143 C25.3211434,8.05485691 25.4217138,8.01142878 25.5222857,7.97028571 C25.6228576,7.92914265 25.7279995,7.90857143 25.8377143,7.90857143 C25.9108575,7.90857143 26.0045709,7.93599973 26.1188571,7.99085714 C26.2331434,8.04571456 26.2902857,8.11885669 26.2902857,8.21028571 C26.2902857,8.37485797 26.2125722,8.4982853 26.0571429,8.58057143 C25.9017135,8.66285755 25.7371437,8.73599968 25.5634286,8.8 C25.4354279,8.84571451 25.3188577,8.89371403 25.2137143,8.944 C25.1085709,8.99428597 25.0331431,9.05599963 24.9874286,9.12914286 C24.9234283,9.23885769 24.8822858,9.3691421 24.864,9.52 C24.8457142,9.6708579 24.8365714,9.83771337 24.8365714,10.0205714 C24.8365714,10.1485721 24.8388571,10.2719994 24.8434286,10.3908571 C24.848,10.5097149 24.8548571,10.6239995 24.864,10.7337143 C24.8731429,10.8160004 24.8777143,10.8982853 24.8777143,10.9805714 L24.8777143,11.2137143 C24.9600004,11.2137143 25.0491424,11.1702861 25.1451429,11.0834286 C25.2411433,10.996571 25.332571,10.8982863 25.4194286,10.7885714 C25.5062861,10.6788566 25.581714,10.5691434 25.6457143,10.4594286 C25.7097146,10.3497137 25.7554284,10.2674288 25.7828571,10.2125714 C25.7554284,9.77371209 25.9474265,9.55428571 26.3588571,9.55428571 C26.4960007,9.55428571 26.6079996,9.58628539 26.6948571,9.65028571 C26.7817147,9.71428603 26.8251429,9.81028507 26.8251429,9.93828571 C26.8251429,10.1577154 26.7360009,10.3771418 26.5577143,10.5965714 C26.3794277,10.8160011 26.2034294,11.0125706 26.0297143,11.1862857 L25.7828571,11.4468571 L25.9337143,11.4468571 C25.9885717,11.4468571 26.0342855,11.4422858 26.0708571,11.4331429 C26.1622862,11.4148571 26.2125714,11.4057143 26.2217143,11.4057143 L26.8388571,11.4057143 C26.8937146,11.4057143 26.9599996,11.4034286 27.0377143,11.3988571 C27.115429,11.3942857 27.1999995,11.392 27.2914286,11.392 C27.437715,11.392 27.593142,11.3965714 27.7577143,11.4057143 C27.9222865,11.4148572 28.0731422,11.4354284 28.2102857,11.4674286 C28.3474293,11.4994287 28.4594281,11.5428569 28.5462857,11.5977143 C28.6331433,11.6525717 28.6765714,11.7257138 28.6765714,11.8171429 C28.6765714,11.9268577 28.6537145,12.043428 28.608,12.1668571 C28.5622855,12.2902863 28.4891434,12.3748569 28.3885714,12.4205714 L28.2377143,12.4205714 C28.0822849,12.4205714 27.9314293,12.4182857 27.7851429,12.4137143 C27.6388564,12.4091428 27.4925722,12.4022858 27.3462857,12.3931429 C27.1999993,12.384 27.0560007,12.3771429 26.9142857,12.3725714 C26.7725707,12.368 26.6240008,12.3657143 26.4685714,12.3657143 L25.632,12.3657143 C25.3577129,12.3840001 25.090287,12.4205712 24.8297143,12.4754286 C24.5691416,12.530286 24.306287,12.589714 24.0411429,12.6537143 C23.7211413,12.7268575 23.3988588,12.7931426 23.0742857,12.8525714 C22.7497127,12.9120003 22.4274302,12.9417143 22.1074286,12.9417143 L21.8331429,12.9417143 C21.7051422,12.9234285 21.6182859,12.8891431 21.5725714,12.8388571 C21.5268569,12.7885712 21.504,12.6994292 21.504,12.5714286 Z M18.3817143,8.30628571 C18.3817143,8.2605712 18.4182853,8.22400014 18.4914286,8.19657143 C18.5645718,8.16914272 18.6331425,8.14628581 18.6971429,8.128 L18.8068571,8.10057143 C19.3280026,7.86285595 19.9725697,7.3851448 20.3108571,6.99657143 C20.6491445,6.60799806 20.9622843,6.19200222 21.2502857,5.74857143 C21.5382872,5.30514064 21.8194272,4.84114528 22.0937143,4.35657143 C22.1302859,4.3154283 22.1805711,4.23085771 22.2445714,4.11657143 C22.3085717,4.00228514 22.3748568,3.87428642 22.4434286,3.73257143 C22.5120003,3.59085643 22.5714283,3.44914357 22.6217143,3.30742857 C22.6720003,3.16571358 22.6971429,3.04000055 22.6971429,2.93028571 L22.6971429,2.176 C22.6971429,2.1668571 22.7154284,2.14171449 22.752,2.10057143 C22.7885716,2.05942837 22.8297141,2.01600023 22.8754286,1.97028571 C22.9211431,1.9245712 22.9668569,1.88571445 23.0125714,1.85371429 C23.0582859,1.82171413 23.0902856,1.80571429 23.1085714,1.80571429 C23.2182863,1.80571429 23.3051425,1.83771397 23.3691429,1.90171429 C23.4331432,1.96571461 23.4811427,2.04571381 23.5131429,2.14171429 C23.545143,2.23771477 23.5657142,2.33828519 23.5748571,2.44342857 C23.584,2.54857195 23.5885714,2.6422853 23.5885714,2.72457143 C23.5885714,2.77942885 23.5862857,2.82971406 23.5817143,2.87542857 C23.5771428,2.92114309 23.5702858,2.96685691 23.5611429,3.01257143 C23.552,3.05828594 23.5474286,3.10171408 23.5474286,3.14285714 L23.5474286,3.38285714 C23.7668582,3.39200005 24.0777123,3.45599941 24.48,3.57485714 C24.8822877,3.69371488 25.3257119,3.84457051 25.8102857,4.02742857 C26.2948596,4.21028663 26.7862832,4.41599886 27.2845714,4.64457143 C27.7828596,4.873144 28.2377122,5.10399883 28.6491429,5.33714286 C29.0605735,5.57028688 29.3965701,5.79885602 29.6571429,6.02285714 C29.9177156,6.24685826 30.048,6.44114203 30.048,6.60571429 C30.048,6.66971461 30.0160003,6.73371397 29.952,6.79771429 C29.8879997,6.86171461 29.8148576,6.92114258 29.7325714,6.976 C29.6502853,7.03085742 29.5657147,7.07657125 29.4788571,7.11314286 C29.3919996,7.14971447 29.3302859,7.168 29.2937143,7.168 L29.2114286,7.168 C28.9097128,7.01257065 28.6034301,6.8388581 28.2925714,6.64685714 C27.9817127,6.45485618 27.6845728,6.2628581 27.4011429,6.07085714 L26.4411429,5.44 C26.1211413,5.22971323 25.7920017,5.04228654 25.4537143,4.87771429 C25.1154269,4.71314203 24.7680018,4.58057193 24.4114286,4.48 C24.0548554,4.37942807 23.6891447,4.32914286 23.3142857,4.32914286 L23.136,4.32914286 C23.0902855,4.32914286 23.012572,4.40228498 22.9028571,4.54857143 C22.7931423,4.69485787 22.6605722,4.88228457 22.5051429,5.11085714 C22.2582845,5.45828745 21.9565732,5.8719976 21.6,6.352 C21.2434268,6.8320024 20.8571449,7.28914069 20.4411429,7.72342857 C20.0251408,8.15771646 19.2594308,8.47085714 18.8205714,8.47085714 C18.7291424,8.47085714 18.6331434,8.46628576 18.5325714,8.45714286 C18.4319995,8.44799995 18.3817143,8.39771474 18.3817143,8.30628571 Z" id="金" transform="translate(24.214857, 7.373714) rotate(-16.000000) translate(-24.214857, -7.373714) "></path>
            </g>
        </g>
    </g>
</svg>