<?xml version="1.0" encoding="UTF-8"?>
<svg width="56px" height="25px" viewBox="0 0 56 25" version="1.1" xmlns="http://www.w3.org/2000/svg" xmlns:xlink="http://www.w3.org/1999/xlink">
    <!-- Generator: Sketch 48.1 (47250) - http://www.bohemiancoding.com/sketch -->
    <title>个人账户</title>
    <desc>Created with Sketch.</desc>
    <defs></defs>
    <g id="3.-彩蛋计划---首页已购买（未关注公众号）" stroke="none" stroke-width="1" fill="none" fill-rule="evenodd" transform="translate(-201.000000, -109.000000)">
        <g id="个人账户" transform="translate(201.000000, 109.500000)">
            <path d="M12.5,0 L44,0 C50.627417,-1.21743675e-15 56,5.372583 56,12 L56,12 C56,18.627417 50.627417,24 44,24 L12.5,24 C5.872583,24 0.5,18.627417 0.5,12 L0.5,12 C0.5,5.372583 5.872583,1.21743675e-15 12.5,0 Z" id="Rectangle-10" fill="#050518"></path>
            <path d="M14.1464844,8.33984375 L11.1630859,8.33984375 C11.019205,8.33984375 10.8668628,8.28483128 10.7060547,8.17480469 C10.5452466,8.0647781 10.4775389,7.87011858 10.5029297,7.59082031 C10.5113933,7.44693938 10.5769851,7.30306062 10.699707,7.15917969 C10.822429,7.01529876 10.9811188,6.94335938 11.1757812,6.94335938 L15.2509766,6.94335938 L15.2636719,6.23242188 C15.2636719,6.12239528 15.3123368,5.99755929 15.409668,5.85791016 C15.5069992,5.71826102 15.7016587,5.64632164 15.9936523,5.64208984 C16.285646,5.63785805 16.4866531,5.7119133 16.5966797,5.86425781 C16.7067063,6.01660232 16.7617188,6.13932245 16.7617188,6.23242188 L16.7617188,6.94335938 L20.9257812,6.94335938 C21.0696622,6.94335938 21.2071934,7.0068353 21.3383789,7.13378906 C21.4695645,7.26074282 21.539388,7.43847542 21.5478516,7.66699219 C21.5563151,7.89550896 21.4822599,8.0647781 21.3256836,8.17480469 C21.1691073,8.28483128 21.0315761,8.33984375 20.9130859,8.33984375 L17.8408203,8.33984375 C18.0693371,8.58528769 18.27246,8.78206306 18.4501953,8.93017578 C18.6279306,9.0782885 18.9833958,9.30468598 19.5166016,9.609375 C20.0498074,9.91406402 20.5322244,10.1193029 20.9638672,10.2250977 C21.39551,10.3308925 21.6769199,10.4388015 21.8081055,10.5488281 C21.939291,10.6588547 22.0069987,10.8323556 22.0112305,11.0693359 C22.0154623,11.3063163 21.9371753,11.4882806 21.7763672,11.6152344 C21.6155591,11.7421881 21.414552,11.8098958 21.1733398,11.8183594 C20.9321277,11.826823 20.4116251,11.638511 19.6118164,11.253418 C18.8120077,10.8683249 18.2364926,10.5403659 17.8852539,10.2695312 C17.5340152,9.99869656 17.1595072,9.66439001 16.7617188,9.26660156 L16.7617188,10.2822266 C16.7617188,10.4514982 16.6918952,10.6228832 16.5522461,10.7963867 C16.412597,10.9698902 16.224285,11.0524089 15.9873047,11.0439453 C15.7333972,11.0439453 15.549317,10.9571949 15.4350586,10.7836914 C15.3208002,10.6101879 15.2636719,10.4430347 15.2636719,10.2822266 L15.2509766,9.33007812 C14.6415985,9.84635675 13.854497,10.3943656 12.8896484,10.9741211 C11.9247999,11.5538766 11.2900406,11.8395183 10.9853516,11.8310547 C10.6975897,11.8310547 10.4881191,11.7506518 10.3569336,11.5898438 C10.225748,11.4290357 10.1601562,11.2534189 10.1601562,11.0629883 C10.1601562,10.8725576 10.2320956,10.7054044 10.3759766,10.5615234 C10.4436852,10.4938148 10.6531558,10.3922533 11.0043945,10.2568359 C11.3556333,10.1214186 11.7555316,9.94580186 12.2041016,9.72998047 C12.6526715,9.51415908 13.300126,9.0507848 14.1464844,8.33984375 Z M17.6123047,11.234375 C18.3571001,11.2766929 18.8458647,11.3803703 19.0786133,11.5454102 C19.3113618,11.71045 19.4615882,11.9093413 19.5292969,12.1420898 C19.5970055,12.3748384 19.6308594,12.6266262 19.6308594,12.8974609 L19.6308594,14.1162109 C19.6308594,14.4886086 19.5927738,14.7848296 19.5166016,15.0048828 C19.4404293,15.224936 19.3028981,15.4069003 19.1040039,15.5507812 C18.9051097,15.6946622 18.4078816,15.7666016 17.6123047,15.7666016 L14.1972656,15.7666016 C13.4947882,15.7666016 13.0377615,15.696778 12.8261719,15.5571289 C12.6145823,15.4174798 12.4770511,15.2503265 12.4135742,15.0556641 C12.3500973,14.8610016 12.3183594,14.5520854 12.3183594,14.1289062 L12.3183594,12.8974609 C12.3183594,12.6858713 12.3500973,12.457358 12.4135742,12.2119141 C12.4770511,11.9664701 12.6272775,11.7421885 12.8642578,11.5390625 C13.1012382,11.3359365 13.5455697,11.234375 14.1972656,11.234375 L17.6123047,11.234375 Z M18.1455078,14.078125 L13.7910156,14.078125 L13.7910156,14.28125 C13.7910156,14.3743494 13.8058267,14.4484047 13.8354492,14.503418 C13.8650718,14.5584313 13.9729808,14.5859375 14.1591797,14.5859375 L17.7138672,14.5859375 C18.001629,14.5859375 18.1455078,14.4801443 18.1455078,14.2685547 L18.1455078,14.078125 Z M13.7910156,12.9101562 L18.1455078,12.9101562 L18.1455078,12.7451172 C18.1455078,12.6181634 18.111654,12.5356447 18.0439453,12.4975586 C17.9762366,12.4594725 17.8535165,12.4404297 17.6757812,12.4404297 L14.1845703,12.4404297 C14.0406894,12.4404297 13.9391279,12.4742835 13.8798828,12.5419922 C13.8206377,12.6097009 13.7910156,12.6604816 13.7910156,12.6943359 L13.7910156,12.9101562 Z M21.0654297,17.4550781 L10.8583984,17.4550781 C10.6975903,17.4550781 10.5410164,17.4021815 10.3886719,17.2963867 C10.2363274,17.1905919 10.1601562,17.0192069 10.1601562,16.7822266 C10.1601562,16.5452462 10.242675,16.3696295 10.4077148,16.2553711 C10.5727547,16.1411127 10.7229811,16.0839844 10.8583984,16.0839844 L21.0654297,16.0839844 C21.1923834,16.0839844 21.3362622,16.136881 21.4970703,16.2426758 C21.6578784,16.3484706 21.7403971,16.5029287 21.7446289,16.7060547 C21.7488607,16.9091807 21.6875006,17.0847974 21.5605469,17.2329102 C21.4335931,17.3810229 21.2685557,17.4550781 21.0654297,17.4550781 Z M28.1494141,11.3994141 L31.7167969,11.3994141 C32.4785194,11.3994141 32.9863269,11.5009755 33.2402344,11.7041016 C33.4941419,11.9072276 33.6210938,12.2838514 33.6210938,12.8339844 L33.6210938,15.8935547 C33.6210938,16.1559258 33.5914717,16.3844391 33.5322266,16.5791016 C33.4729815,16.773764 33.3291027,16.9514966 33.1005859,17.1123047 C32.8720692,17.2731128 32.4108108,17.3535156 31.7167969,17.3535156 L27.6669922,17.3535156 C26.9729783,17.3535156 26.5117199,17.2709969 26.2832031,17.105957 C26.0546864,16.9409171 25.9213869,16.756837 25.8833008,16.5537109 C25.8452147,16.3505849 25.8304036,16.130535 25.8388672,15.8935547 L25.8515625,13.4179688 C24.9290318,13.9765653 24.2900408,14.2643228 23.9345703,14.28125 C23.5790998,14.3066408 23.3294278,14.2050793 23.1855469,13.9765625 C23.0416659,13.7480457 23.0078121,13.5195324 23.0839844,13.2910156 C23.1263023,13.1555983 23.1982417,13.0498051 23.2998047,12.9736328 C23.4013677,12.8974606 23.708168,12.781088 24.2202148,12.6245117 C24.7322617,12.4679354 25.1956359,12.2394221 25.6103516,11.9389648 C26.0250672,11.6385076 26.3889958,11.2978535 26.7021484,10.9169922 L23.9345703,10.9169922 C23.7229807,10.9169922 23.5579433,10.8535163 23.4394531,10.7265625 C23.3209629,10.5996087 23.2659505,10.45573 23.2744141,10.2949219 C23.2744141,10.0833323 23.3505852,9.92464246 23.5029297,9.81884766 C23.6552742,9.71305286 23.799153,9.66015625 23.9345703,9.66015625 L27.5400391,9.66015625 C27.6416021,9.49934815 27.7304684,9.32584729 27.8066406,9.13964844 L25.0009766,9.13964844 C24.8570956,9.13964844 24.7089851,9.0888677 24.5566406,8.98730469 C24.4042961,8.88574168 24.3323567,8.72070427 24.3408203,8.4921875 C24.3408203,8.28906148 24.4148756,8.13883512 24.5629883,8.04150391 C24.711101,7.94417269 24.8570956,7.89550781 25.0009766,7.89550781 L28.2001953,7.89550781 C28.2594404,7.70930896 28.3102211,7.51888118 28.3525391,7.32421875 C27.0999286,7.35807309 26.2789733,7.37076827 25.8896484,7.36230469 C25.1279259,7.36230469 24.6010757,7.33056672 24.309082,7.26708984 C24.0170884,7.20361296 23.9007158,6.96875203 23.9599609,6.5625 C24.0022789,6.19856589 24.2561826,6.00390638 24.7216797,5.97851562 C24.8401699,5.97851562 25.1406226,6.00179013 25.6230469,6.04833984 C26.1054712,6.09488956 26.8587188,6.11393233 27.8828125,6.10546875 C29.0084692,6.10546875 29.8759735,6.08219424 30.4853516,6.03564453 C31.0947296,5.98909482 31.6427385,5.9192713 32.1293945,5.82617188 C32.6160506,5.73307245 32.9143875,5.69075517 33.0244141,5.69921875 C33.2444672,5.7246095 33.4285474,5.81135994 33.5766602,5.95947266 C33.7247729,6.10758538 33.800944,6.2895497 33.8051758,6.50537109 C33.8094076,6.72119249 33.6972668,6.89680922 33.46875,7.03222656 C33.367187,7.09993523 33.1598323,7.15283184 32.8466797,7.19091797 C32.5335271,7.2290041 31.5771564,7.26497379 29.9775391,7.29882812 C29.918294,7.49349056 29.8632815,7.6923818 29.8125,7.89550781 L33.0878906,7.89550781 C33.2825531,7.89550781 33.439127,7.96321547 33.5576172,8.09863281 C33.6761074,8.23405016 33.7374674,8.39273998 33.7416992,8.57470703 C33.745931,8.75667409 33.6697599,8.89632113 33.5131836,8.99365234 C33.3566073,9.09098356 33.2148444,9.13964844 33.0878906,9.13964844 L29.4316406,9.13964844 C29.3300776,9.3173837 29.245443,9.49088457 29.1777344,9.66015625 L34.3447266,9.66015625 C34.4716803,9.66015625 34.5965163,9.71516872 34.7192383,9.82519531 C34.8419602,9.9352219 34.9117838,10.0960276 34.9287109,10.3076172 C34.9456381,10.5192068 34.8821622,10.6736649 34.7382812,10.7709961 C34.5944003,10.8683273 34.4632167,10.9169922 34.3447266,10.9169922 L28.5175781,10.9169922 C28.4329423,11.0354824 28.3102222,11.196288 28.1494141,11.3994141 Z M32.1230469,15.6396484 L27.375,15.6396484 L27.375,15.90625 C27.375,16.0839853 27.5061836,16.1728516 27.7685547,16.1728516 L31.7167969,16.1728516 C31.8860686,16.1728516 31.9960935,16.1474612 32.046875,16.0966797 C32.0976565,16.0458982 32.1230469,15.9697271 32.1230469,15.8681641 L32.1230469,15.6396484 Z M32.1230469,14.1289062 L27.375,14.1289062 L27.375,14.6621094 L32.1230469,14.6621094 L32.1230469,14.1289062 Z M27.375,13.0751953 L32.1230469,13.0751953 L32.1230469,12.9228516 C32.1230469,12.7958978 32.0955406,12.7070315 32.0405273,12.65625 C31.985514,12.6054685 31.877605,12.5800781 31.7167969,12.5800781 L27.7685547,12.5800781 C27.5061836,12.5800781 27.375,12.6943348 27.375,12.9228516 L27.375,13.0751953 Z" id="查看" fill="#FFFFFF"></path>
            <g id="Group-13" transform="translate(39.500000, 8.000000)" stroke="#FFFFFF" stroke-linecap="round" stroke-width="2">
                <polyline id="Line-2" points="0 0.318181818 3.18181818 3.81818182 0 7.31818182"></polyline>
                <polyline id="Line-2" points="4.5 0.318181818 7.68181818 3.81818182 4.5 7.31818182"></polyline>
            </g>
        </g>
    </g>
</svg>