<?xml version="1.0" encoding="UTF-8"?>
<svg width="35px" height="19px" viewBox="0 0 35 19" version="1.1" xmlns="http://www.w3.org/2000/svg" xmlns:xlink="http://www.w3.org/1999/xlink">
    <!-- Generator: Sketch 49 (51002) - http://www.bohemiancoding.com/sketch -->
    <title>动画部分</title>
    <desc>Created with Sketch.</desc>
    <defs></defs>
    <g id="彩蛋计划-V3.1（满额即开）" stroke="none" stroke-width="1" fill="none" fill-rule="evenodd">
        <g id="3.-彩蛋计划---首页已购买（未关注公众号）" transform="translate(-322.000000, -269.000000)" fill="#1387F0">
            <g id="Group-4" transform="translate(35.000000, 267.000000)">
                <g id="动画部分" transform="translate(286.000000, 0.000000)">
                    <path d="M1,19.1281139 C1,19.0094893 1.00785332,18.9264534 1.02356021,18.8790036 C1.03926709,18.8315537 1.09424037,18.7663112 1.18848168,18.683274 C1.19895293,18.6714116 1.31937058,18.6506526 1.54973822,18.6209964 C1.78010586,18.5913403 2.07067887,18.5557535 2.42146597,18.5142349 C2.77225306,18.4727163 3.15183042,18.4311983 3.56020942,18.3896797 C3.96858843,18.3481611 4.35601911,18.3066431 4.72251309,18.2651246 C5.08900707,18.223606 5.4083756,18.1909847 5.68062827,18.1672598 C5.95288094,18.1435349 6.13088963,18.1316726 6.21465969,18.1316726 C6.27748723,18.1316726 6.3534027,18.1346382 6.44240838,18.1405694 C6.53141406,18.1465006 6.61780063,18.1613285 6.70157068,18.1850534 C6.78534073,18.2087783 6.85602065,18.2473307 6.91361257,18.3007117 C6.97120448,18.3540928 7,18.4341632 7,18.5409253 C7,18.7188621 6.89267123,18.8760373 6.67801047,19.0124555 C6.46334971,19.1488738 6.18848335,19.2734277 5.85340314,19.386121 C5.51832293,19.4988143 5.15183445,19.5937125 4.7539267,19.6708185 C4.35601895,19.7479245 3.97382382,19.8102014 3.60732984,19.8576512 C3.24083586,19.9051011 2.91361401,19.9406879 2.62565445,19.9644128 C2.3376949,19.9881377 2.14659733,20 2.05235602,20 L1.65968586,20 C1.58638707,19.9881375 1.5104716,19.9525507 1.43193717,19.8932384 C1.35340275,19.8339262 1.28272283,19.7597869 1.21989529,19.6708185 C1.15706775,19.5818501 1.10471225,19.4899174 1.06282723,19.3950178 C1.0209422,19.3001181 1,19.2111511 1,19.1281139 Z M1.58115183,15.7651246 C1.59162309,15.6939498 1.68324521,15.6257417 1.85602094,15.5604982 C2.02879668,15.4952547 2.24345421,15.4329778 2.5,15.3736655 C2.75654579,15.3143532 3.0366477,15.260973 3.34031414,15.2135231 C3.64398058,15.1660733 3.93455359,15.1275209 4.21204188,15.0978648 C4.48953018,15.0682086 4.73560102,15.0444841 4.95026178,15.0266904 C5.16492254,15.0088967 5.31413571,15 5.39790576,15 L5.69633508,15 C5.8115189,15.0237249 5.91361212,15.0741396 6.0026178,15.1512456 C6.09162348,15.2283515 6.13612565,15.3440087 6.13612565,15.4982206 C6.13612565,15.7473322 6.04973908,15.9549221 5.87696335,16.1209964 C5.70418762,16.2870708 5.48429453,16.423487 5.21727749,16.5302491 C4.95026045,16.6370112 4.65183411,16.7200472 4.32198953,16.7793594 C3.99214495,16.8386717 3.67015864,16.8801897 3.35602094,16.9039146 C3.04188325,16.9276395 2.75392801,16.9395018 2.4921466,16.9395018 L1.81675393,16.9395018 C1.74345513,16.8090148 1.68586408,16.6518396 1.64397906,16.4679715 C1.60209403,16.2841035 1.58115183,16.1091349 1.58115183,15.9430605 L1.58115183,15.7651246 Z" id="=" transform="translate(4.000000, 17.500000) rotate(-8.000000) translate(-4.000000, -17.500000) "></path>
                    <path d="M9,19.6027586 C9,19.3268952 9.13567902,19.0648288 9.40704114,18.8165517 C9.67840326,18.5682746 9.9636061,18.328277 10.2626582,18.0965517 C10.4841783,17.9310337 10.6890813,17.7627595 10.8773734,17.5917241 C11.0656655,17.4206888 11.1598101,17.263449 11.1598101,17.12 L11.1598101,15.0013793 C11.0490501,15.0013793 10.9576744,15.0124137 10.8856804,15.0344828 C10.8136863,15.0565518 10.7444624,15.0786206 10.6780063,15.1006897 C10.6115503,15.1227587 10.5423263,15.1448275 10.4703323,15.1668966 C10.3983382,15.1889656 10.3346522,15.2 10.2792722,15.2 C10.1242081,15.2 10.0245255,15.1503453 9.98022152,15.0510345 C9.9359175,14.9517236 9.91376582,14.8413799 9.91376582,14.72 C9.91376582,14.3668948 10.0189863,14.1020698 10.2294304,13.9255172 C10.4398745,13.7489646 10.7001567,13.6496553 11.0102848,13.6275862 C11.0767408,13.5503444 11.1127373,13.4703452 11.1182753,13.3875862 C11.1238133,13.3048272 11.1265823,13.2303452 11.1265823,13.1641379 L11.1265823,13.0813793 C11.1265823,12.9489649 11.1210444,12.819311 11.1099684,12.6924138 C11.0988923,12.5655166 11.0822786,12.4413799 11.0601266,12.32 C11.0379746,12.1986201 11.0213608,12.077242 11.0102848,11.9558621 C10.9992088,11.8344822 10.9936709,11.7131041 10.9936709,11.5917241 L10.9936709,11.36 C11.0268989,11.2937928 11.087816,11.2413795 11.1764241,11.2027586 C11.2650321,11.1641377 11.342563,11.1448276 11.409019,11.1448276 C11.497627,11.1448276 11.5585441,11.1503448 11.5917722,11.1613793 C11.6139242,11.1613793 11.6471517,11.1641379 11.6914557,11.1696552 C11.7357597,11.1751724 11.7689872,11.177931 11.7911392,11.177931 L11.7911392,10.6648276 L11.5917722,10.697931 C11.337024,10.819311 11.0601281,10.9462062 10.7610759,11.0786207 C10.4620238,11.2110351 10.1795899,11.2772414 9.91376582,11.2772414 C9.75870176,11.2772414 9.64240545,11.2165523 9.56487342,11.0951724 C9.48734138,10.9737925 9.44857595,10.8358628 9.44857595,10.6813793 C9.44857595,10.6151721 9.51779994,10.5324143 9.65625,10.4331034 C9.79470006,10.3337926 9.97468244,10.2289661 10.1962025,10.1186207 C10.4177226,10.0082753 10.6586221,9.89793159 10.9189082,9.78758621 C11.1791943,9.67724083 11.4284007,9.58069007 11.6665348,9.49793103 C11.9046689,9.415172 12.1178788,9.34620717 12.3061709,9.29103448 C12.494463,9.23586179 12.6218351,9.20827586 12.6882911,9.20827586 C12.8212032,9.20827586 12.9430374,9.24965476 13.0537975,9.33241379 C13.1645575,9.41517283 13.2199367,9.52275796 13.2199367,9.65517241 C13.2199367,9.68827603 13.1811713,9.79861975 13.1036392,9.9862069 C13.0261072,10.173794 12.9402695,10.3724127 12.8461234,10.582069 C12.7519774,10.7917252 12.6633707,10.9820681 12.5803006,11.1531034 C12.4972306,11.3241388 12.4501583,11.4096552 12.4390823,11.4096552 C12.3726262,11.4096552 12.3338608,11.3931036 12.3227848,11.36 C12.2784808,11.3158618 12.2341774,11.2937931 12.1898734,11.2937931 C12.1677214,11.2937931 12.1428008,11.2965517 12.1151108,11.302069 C12.0874207,11.3075862 12.0625001,11.3103448 12.0403481,11.3103448 C12.0181961,11.3213794 11.9849686,11.3268966 11.9406646,11.3268966 L11.8908228,11.3268966 C11.9462028,11.459311 11.9905062,11.5779305 12.0237342,11.6827586 C12.0569622,11.7875867 12.0846518,11.8896547 12.1068038,11.9889655 C12.1289558,12.1103454 12.1538764,12.2289649 12.1815665,12.3448276 C12.2092565,12.4606902 12.2507909,12.5627582 12.3061709,12.6510345 C12.3283229,12.6951726 12.3698573,12.7310343 12.4307753,12.7586207 C12.4916933,12.786207 12.5664553,12.8110344 12.6550633,12.8331034 C12.7658233,12.8662071 12.8738128,12.907586 12.9790348,12.9572414 C13.0842569,13.0068968 13.1368671,13.0979304 13.1368671,13.2303448 C13.1368671,13.3296557 13.1008706,13.4151721 13.0288766,13.4868966 C12.9568826,13.558621 12.8765827,13.6275859 12.7879747,13.6937931 C12.6882906,13.7820694 12.5996839,13.8648272 12.5221519,13.942069 C12.4446199,14.0193107 12.4003165,14.1131029 12.3892405,14.2234483 L12.3227848,14.9848276 C12.3006328,15.1724147 12.284019,15.3710334 12.272943,15.5806897 C12.261867,15.7903459 12.2563291,15.9889646 12.2563291,16.1765517 L12.2563291,16.457931 L12.4723101,16.1765517 C12.5941462,16.0331027 12.7492079,15.8786215 12.9375,15.7131034 C13.1257921,15.5475854 13.3085434,15.4648276 13.4857595,15.4648276 C13.6186716,15.4648276 13.6851266,15.536551 13.6851266,15.68 C13.6851266,15.8013799 13.6352853,15.9393096 13.5356013,16.0937931 C13.4359172,16.2482766 13.3223899,16.3999993 13.1950158,16.5489655 C13.0676418,16.6979318 12.9375007,16.8331028 12.8045886,16.9544828 C12.6716766,17.0758627 12.571994,17.1696548 12.505538,17.2358621 C12.461234,17.3903456 12.389241,17.5393096 12.289557,17.6827586 C12.1898729,17.8262076 12.0735766,17.9420685 11.9406646,18.0303448 C11.8963605,18.0855175 11.8437503,18.1406894 11.7828323,18.1958621 C11.7219143,18.2510348 11.669304,18.3062066 11.625,18.3613793 C11.4810119,18.5158628 11.3176433,18.6868956 11.1348892,18.8744828 C10.9521352,19.0620699 10.7610769,19.2386199 10.5617089,19.4041379 C10.3623408,19.569656 10.1574378,19.7103442 9.94699367,19.8262069 C9.73654958,19.9420695 9.54272241,20 9.36550633,20 C9.27689829,20 9.19936742,19.9751727 9.13291139,19.9255172 C9.06645536,19.8758618 9.02215201,19.8179314 9,19.7517241 L9,19.6027586 Z M18.2871835,10.102069 C18.3093356,10.0468963 18.3176424,9.98896582 18.3121044,9.92827586 C18.3065664,9.8675859 18.3037975,9.80965545 18.3037975,9.75448276 L18.3037975,9.27448276 C18.2151894,9.27448276 18.0850483,9.32137884 17.9133703,9.41517241 C17.7416922,9.50896599 17.5561719,9.63586127 17.3568038,9.79586207 C17.1574357,9.95586287 16.9525327,10.1296542 16.7420886,10.3172414 C16.5316445,10.5048285 16.3405863,10.6896543 16.1689082,10.8717241 C15.9972302,11.053794 15.8587822,11.2248268 15.7535601,11.3848276 C15.6483381,11.5448284 15.5957278,11.6634479 15.5957278,11.7406897 C15.5957278,12.0606913 15.6095726,12.3834466 15.6372627,12.7089655 C15.6649527,13.0344844 15.7009491,13.3572398 15.7452532,13.6772414 C15.7895572,14.0082775 15.8283226,14.3420673 15.8615506,14.6786207 C15.8947786,15.0151741 15.9113924,15.3489639 15.9113924,15.68 C15.9113924,15.7020691 15.9030855,15.7241378 15.8864715,15.7462069 C15.8698575,15.768276 15.8560127,15.7903447 15.8449367,15.8124138 L15.7950949,15.8289655 C15.6511069,15.9172418 15.5375795,15.9806895 15.4545095,16.0193103 C15.3714395,16.0579312 15.2523742,16.0772414 15.0973101,16.0772414 C15.0419301,16.0772414 14.981013,16.0689656 14.914557,16.0524138 C14.8481009,16.035862 14.8037976,16.0000003 14.7816456,15.9448276 C14.7705696,15.7903441 14.7622627,15.6331042 14.7567247,15.4731034 C14.7511867,15.3131026 14.7484177,15.1558628 14.7484177,15.0013793 C14.7373417,14.482756 14.720728,13.9641405 14.6985759,13.4455172 C14.6764239,12.926894 14.6210447,12.4082785 14.5324367,11.8896552 C14.5102847,11.7682753 14.4770572,11.64138 14.4327532,11.5089655 C14.3884491,11.3765511 14.3386079,11.2496558 14.2832278,11.1282759 C14.2278478,10.9737923 14.1696997,10.8110353 14.1087816,10.64 C14.0478636,10.4689647 14.0174051,10.317242 14.0174051,10.1848276 C14.0174051,10.0524131 14.0506326,9.96689674 14.1170886,9.92827586 C14.1835446,9.88965498 14.2776893,9.87034483 14.3995253,9.87034483 C14.4659813,9.87034483 14.5324364,9.88413779 14.5988924,9.91172414 C14.6653484,9.93931048 14.7262655,9.96413782 14.7816456,9.9862069 C14.8924056,10.0413796 14.9976261,10.0689655 15.0973101,10.0689655 C15.1526902,10.0689655 15.1942245,10.0662069 15.2219146,10.0606897 C15.2496046,10.0551724 15.285601,10.0358622 15.3299051,10.0027586 C15.4406651,9.8813787 15.6178785,9.71034593 15.8615506,9.48965517 C16.1052227,9.26896441 16.3682739,9.04827697 16.650712,8.82758621 C16.9331501,8.60689545 17.215584,8.41379393 17.4980222,8.24827586 C17.7804603,8.08275779 18.0158218,8 18.2041139,8 C19.1123463,8 19.5664557,8.4413749 19.5664557,9.32413793 C19.5664557,9.45655239 19.5609178,9.58620626 19.5498418,9.71310345 C19.5387658,9.84000063 19.5000003,9.96413732 19.4335443,10.0855172 C19.4335443,10.1075863 19.4307753,10.1241379 19.4252373,10.1351724 C19.4196993,10.146207 19.4169304,10.1627585 19.4169304,10.1848276 C19.3947784,10.3393111 19.3809336,10.4882751 19.3753956,10.6317241 C19.3698576,10.7751731 19.3615507,10.9241372 19.3504747,11.0786207 C19.3504747,11.1337934 19.3477057,11.2524129 19.3421677,11.4344828 C19.3366297,11.6165526 19.3338608,11.7682753 19.3338608,11.8896552 C19.3227848,12.0662078 19.3172468,12.2317234 19.3172468,12.3862069 L19.3172468,12.7006897 C19.3172468,12.7227587 19.3144779,12.761379 19.3089399,12.8165517 C19.3034019,12.8717244 19.3006329,12.9158619 19.3006329,12.9489655 C19.2895569,13.2579326 19.2701742,13.6579286 19.2424842,14.1489655 C19.2147942,14.6400025 19.1704908,15.1172391 19.1095728,15.5806897 C19.0486548,16.0441402 18.9738928,16.4413777 18.8852848,16.7724138 C18.7966768,17.1034499 18.6803805,17.2689655 18.5363924,17.2689655 C18.4699364,17.2689655 18.4200951,17.2634483 18.3868671,17.2524138 C18.3647151,17.2524138 18.3314876,17.2496552 18.2871835,17.2441379 C18.2428795,17.2386207 18.209652,17.2358621 18.1875,17.2358621 C18.1875,17.3682765 18.190269,17.4675859 18.195807,17.5337931 C18.201345,17.6000003 18.2207277,17.6606894 18.2539557,17.7158621 C18.4422478,17.9144838 18.6277681,18.068965 18.8105222,18.1793103 C18.9932762,18.2896557 19.1787965,18.3724135 19.3670886,18.4275862 C19.5553807,18.4827589 19.7519768,18.5186206 19.9568829,18.5351724 C20.161789,18.5517242 20.3916131,18.5213794 20.5577532,18.5103448 C20.7238932,18.4993103 20.8844929,18.4772415 21.039557,18.4441379 C21.194621,18.4110343 21.3275311,18.3668968 21.4382911,18.3117241 C21.5490512,18.2565514 21.6044304,18.184828 21.6044304,18.0965517 C21.6044304,17.8096537 21.560127,17.5337944 21.471519,17.2689655 C21.3829109,17.0041366 21.2832284,16.7393117 21.1724684,16.4744828 C21.0617083,16.2096538 20.9592568,15.9365531 20.8651108,15.6551724 C20.7709647,15.3737917 20.7238924,15.100691 20.7238924,14.8358621 L20.7238924,14.6868966 C20.7460444,14.6648275 20.7681961,14.6372415 20.7903481,14.6041379 C20.8125001,14.5710343 20.8346518,14.5544828 20.8568038,14.5544828 C20.9675638,14.5544828 21.0700154,14.6289648 21.1641614,14.777931 C21.2583074,14.9268973 21.3330693,15.0620684 21.3884494,15.1834483 L21.4382911,15.2827586 L21.8868671,16.1931034 C21.9311711,16.3365524 22.008702,16.4965508 22.119462,16.6731034 C22.2302221,16.8496561 22.3465184,17.0096545 22.4683544,17.1531034 C22.6012665,17.3296561 22.7231007,17.5006888 22.8338608,17.6662069 C22.9446208,17.831725 23,18.0082749 23,18.1958621 C23,18.4165528 22.9363139,18.6068958 22.8089399,18.7668966 C22.6815658,18.9268974 22.5154282,19.064827 22.3105222,19.1806897 C22.1056161,19.2965523 21.8757924,19.3903445 21.6210443,19.462069 C21.3662962,19.5337935 21.1115519,19.5917239 20.8568038,19.6358621 C20.6020557,19.6800002 20.2033251,19.7268968 19.7492089,19.6772414 C19.2950927,19.627586 18.8714418,19.5227594 18.4782437,19.3627586 C18.0850455,19.2027578 17.7555393,18.971036 17.4897152,18.6675862 C17.2238911,18.3641364 17.090981,17.9586232 17.090981,17.4510345 L17.090981,16.0110345 C17.090981,15.9337927 17.1159016,15.8537935 17.1657437,15.7710345 C17.2155857,15.6882754 17.2848097,15.6468966 17.3734177,15.6468966 L17.9216772,15.6468966 C17.9327532,15.6468966 17.949367,15.6000005 17.971519,15.5062069 C17.993671,15.4124133 18.0158227,15.2910352 18.0379747,15.142069 C18.0601267,14.9931027 18.0795094,14.8248285 18.0961234,14.6372414 C18.1127374,14.4496542 18.1321201,14.2620699 18.1542722,14.0744828 C18.1764242,13.8206884 18.1985758,13.586208 18.2207278,13.3710345 C18.2428799,13.155861 18.2650315,13.0096556 18.2871835,12.9324138 L18.2871835,10.102069 Z M13.2697785,19.3875862 C13.2697785,19.2662063 13.3085439,19.1668969 13.3860759,19.0896552 L14.0174051,18.4606897 C14.2278492,18.3448269 14.441059,18.1655184 14.6570411,17.9393103 C14.8730232,17.7131023 15.0779262,17.4703461 15.2717563,17.2110345 C15.4655864,16.9517228 15.634493,16.6868979 15.778481,16.4165517 C15.9224691,16.1462055 16.0276895,15.9006908 16.0941456,15.68 C16.1162976,15.5917237 16.1356803,15.4648284 16.1522943,15.2993103 C16.1689083,15.1337923 16.188291,14.9517251 16.210443,14.7531034 C16.232595,14.5324127 16.2575157,14.2951737 16.2852057,14.0413793 C16.3128957,13.7875849 16.3433543,13.5558631 16.3765823,13.3462069 C16.4098103,13.1365507 16.4513447,12.9627593 16.5011867,12.8248276 C16.5510287,12.6868959 16.6091769,12.617931 16.6756329,12.617931 C16.897153,12.617931 17.0577527,12.719999 17.1574367,12.9241379 C17.2571208,13.1282769 17.3291137,13.3186198 17.3734177,13.4951724 L17.3734177,13.8096552 C17.3734177,14.2951748 17.2931179,14.8220661 17.1325158,15.3903448 C16.9719138,15.9586235 16.750397,16.5075836 16.4679589,17.0372414 C16.1855207,17.5668992 15.8504766,18.049653 15.4628165,18.4855172 C15.0751563,18.9213815 14.6542744,19.2496541 14.2001582,19.4703448 C14.1447782,19.4924139 14.0700163,19.5282756 13.9758703,19.577931 C13.8817242,19.6275865 13.8069623,19.6689654 13.7515823,19.702069 L13.6518987,19.702069 C13.5632907,19.702069 13.4774529,19.6772416 13.3943829,19.6275862 C13.3113129,19.5779308 13.2697785,19.4979316 13.2697785,19.3875862 Z" id="现" transform="translate(16.000000, 14.000000) rotate(-8.000000) translate(-16.000000, -14.000000) "></path>
                    <path d="M25.7468652,15.5344828 C25.7468652,15.3160909 25.7989807,15.1436788 25.9032132,15.0172414 C26.0074457,14.890804 26.1418487,14.7988509 26.3064263,14.7413793 C26.471004,14.6839078 26.6520366,14.6465518 26.8495298,14.6293103 C27.0470229,14.6120689 27.2390273,14.5977012 27.4255486,14.5862069 C27.6779009,14.5747126 27.8918487,14.5574714 28.0673981,14.5344828 C28.2429476,14.5114941 28.330721,14.4252881 28.330721,14.2758621 C28.330721,14.1839076 28.2950631,14.1120692 28.2237461,14.0603448 C28.1524291,14.0086204 28.0783703,13.9827586 28.0015674,13.9827586 C27.9028208,13.9827586 27.8150474,13.9913792 27.7382445,14.0086207 C27.6614416,14.0258622 27.579154,14.0459769 27.4913793,14.0689655 C27.304858,14.1264371 27.134797,14.1551724 26.9811912,14.1551724 L26.8166144,14.1551724 C26.7178678,14.0977009 26.6218657,14.022989 26.528605,13.9310345 C26.4353444,13.83908 26.3612855,13.7471269 26.3064263,13.6551724 L26.1418495,13.4310345 L26.684953,12.8103448 C26.6959248,12.7988505 26.7123823,12.7931034 26.734326,12.7931034 L26.8001567,12.7931034 C26.9098752,12.7931034 27.0415353,12.8448271 27.1951411,12.9482759 C27.271944,12.9942531 27.3487457,13.0344826 27.4255486,13.0689655 C27.5023515,13.1034484 27.5956107,13.1206897 27.7053292,13.1206897 C27.7931039,13.1206897 27.8753915,13.1034484 27.9521944,13.0689655 C28.0289972,13.0344826 28.105799,12.9942531 28.1826019,12.9482759 C28.2594048,12.9022986 28.3389494,12.8649427 28.4212382,12.8362069 C28.5035271,12.8074711 28.5885576,12.7873564 28.6763323,12.7758621 C28.764107,12.7183905 28.8079937,12.6005756 28.8079937,12.4224138 C28.8079937,12.244252 28.8025079,12.1034488 28.7915361,12 L28.7915361,11.3793103 C28.6708458,11.4137933 28.5474144,11.4482757 28.4212382,11.4827586 C28.2950621,11.5172416 28.1661449,11.5459769 28.0344828,11.5689655 L27.145768,11.5689655 C27.0909088,11.5689655 27.0387934,11.5488508 26.9894201,11.5086207 C26.9400468,11.4683906 26.9043888,11.4252876 26.8824451,11.3793103 L26.8659875,11.2241379 C26.8659875,11.0862062 26.9235888,10.9683913 27.0387931,10.8706897 C27.1539974,10.772988 27.2966292,10.6896555 27.4666928,10.6206897 C27.6367563,10.5517238 27.8150461,10.4942531 28.0015674,10.4482759 C28.1880887,10.4022986 28.3526639,10.3620691 28.4952978,10.3275862 L28.7586207,10.2758621 L28.8573668,10.2413793 C28.8573668,10.1494248 28.8628526,10.0689659 28.8738245,10 C28.8847963,9.93103414 28.9012538,9.85632224 28.9231975,9.77586207 C28.9451412,9.68390759 28.9615987,9.59195448 28.9725705,9.5 C28.9835424,9.40804552 28.9890282,9.30459828 28.9890282,9.18965517 C28.7695914,9.18965517 28.5830729,9.19827578 28.4294671,9.21551724 C28.2758613,9.23275871 28.116772,9.25287345 27.9521944,9.27586207 C27.7876167,9.29885069 27.6257845,9.31896543 27.4666928,9.3362069 C27.3076011,9.35344836 27.1457688,9.36206897 26.9811912,9.36206897 L26.684953,9.36206897 C26.5752346,9.38505759 26.4956899,9.33908103 26.4463166,9.22413793 C26.3969433,9.10919483 26.3722571,9.01149466 26.3722571,8.93103448 C26.3722571,8.82758569 26.4600305,8.72126491 26.6355799,8.61206897 C26.8111294,8.50287302 27.0360488,8.40229931 27.3103448,8.31034483 C27.5846409,8.21839034 27.886362,8.12931078 28.2155172,8.04310345 C28.5446725,7.95689612 28.865594,7.88505776 29.1782915,7.82758621 C29.490989,7.77011466 29.7707668,7.7241381 30.0176332,7.68965517 C30.2644997,7.65517224 30.4427894,7.63793103 30.5525078,7.63793103 C30.7061136,7.63793103 30.8569742,7.68103405 31.005094,7.76724138 C31.1532139,7.85344871 31.2272727,7.9942519 31.2272727,8.18965517 C31.2272727,8.28160966 31.1971006,8.37930983 31.1367555,8.48275862 C31.0764104,8.58620741 31.0050945,8.68103405 30.9228056,8.76724138 C30.8405168,8.85344871 30.7472576,8.92528707 30.6430251,8.98275862 C30.5387926,9.04023017 30.4482762,9.06896552 30.3714734,9.06896552 L30.1246082,9.01724138 C30.0587771,8.99425276 29.9819754,8.98275862 29.8942006,8.98275862 L29.7625392,8.98275862 L29.6144201,9.01724138 C29.7241385,9.17816172 29.7899685,9.35632086 29.8119122,9.55172414 C29.8338559,9.74712741 29.8393417,9.92528655 29.8283699,10.0862069 C29.9819757,10.0287353 30.072492,9.9913794 30.0999216,9.97413793 C30.1273512,9.95689647 30.1630092,9.93678172 30.2068966,9.9137931 C30.3275868,9.85632155 30.4482753,9.8017244 30.5689655,9.75 C30.6896558,9.6982756 30.8158301,9.67241379 30.9474922,9.67241379 C31.0352669,9.67241379 31.1477266,9.70689621 31.2848746,9.77586207 C31.4220226,9.84482793 31.4905956,9.93678103 31.4905956,10.0517241 C31.4905956,10.2586217 31.3973364,10.4137926 31.210815,10.5172414 C31.0242937,10.6206902 30.8268036,10.7126433 30.6183386,10.7931034 C30.4647328,10.850575 30.3248439,10.9109192 30.1986677,10.9741379 C30.0724915,11.0373566 29.9819752,11.1149421 29.927116,11.2068966 C29.8503131,11.3448283 29.8009405,11.5086197 29.7789969,11.6982759 C29.7570532,11.887932 29.7460815,12.0977 29.7460815,12.3275862 C29.7460815,12.4885066 29.7488244,12.6436774 29.7543103,12.7931034 C29.7597963,12.9425295 29.768025,13.0862062 29.7789969,13.2241379 C29.7899687,13.3275867 29.7954545,13.431034 29.7954545,13.5344828 L29.7954545,13.8275862 C29.8942011,13.8275862 30.001175,13.7729891 30.1163793,13.6637931 C30.2315836,13.5545972 30.3413004,13.4310352 30.4455329,13.2931034 C30.5497654,13.1551717 30.6402817,13.0172421 30.7170846,12.8793103 C30.7938875,12.7413786 30.8487459,12.6379314 30.8816614,12.5689655 C30.8487459,12.0172386 31.0791511,11.7413793 31.572884,11.7413793 C31.7374616,11.7413793 31.8718647,11.7816088 31.9760972,11.862069 C32.0803297,11.9425291 32.1324451,12.0632176 32.1324451,12.2241379 C32.1324451,12.5000014 32.0254713,12.7758607 31.8115204,13.0517241 C31.5975695,13.3275876 31.3863647,13.5747116 31.1778997,13.7931034 L30.8816614,14.1206897 L31.0626959,14.1206897 C31.128527,14.1206897 31.1833854,14.1149426 31.2272727,14.1034483 C31.3369911,14.0804597 31.3973354,14.0689655 31.4083072,14.0689655 L32.1489028,14.0689655 C32.2147339,14.0689655 32.2942785,14.066092 32.3875392,14.0603448 C32.4807998,14.0545977 32.5822879,14.0517241 32.6920063,14.0517241 C32.8675557,14.0517241 33.0540742,14.0574712 33.2515674,14.0689655 C33.4490605,14.0804598 33.6300932,14.1063216 33.7946708,14.1465517 C33.9592485,14.1867818 34.0936515,14.241379 34.197884,14.3103448 C34.3021165,14.3793107 34.354232,14.4712638 34.354232,14.5862069 C34.354232,14.7241386 34.3268028,14.8706889 34.2719436,15.0258621 C34.2170844,15.1810353 34.1293109,15.287356 34.0086207,15.3448276 L33.8275862,15.3448276 C33.6410649,15.3448276 33.4600322,15.3419541 33.2844828,15.3362069 C33.1089333,15.3304597 32.9333865,15.3218391 32.757837,15.3103448 C32.5822875,15.2988505 32.4094836,15.2902299 32.2394201,15.2844828 C32.0693565,15.2787356 31.8910668,15.2758621 31.7045455,15.2758621 L30.700627,15.2758621 C30.3714717,15.2988507 30.0505502,15.3448272 29.7378527,15.4137931 C29.4251552,15.482759 29.1097195,15.5574709 28.7915361,15.637931 C28.4075216,15.7298855 28.02077,15.813218 27.6312696,15.887931 C27.2417692,15.9626441 26.8550176,16 26.4710031,16 L26.1418495,16 C25.9882437,15.9770114 25.8840128,15.9339084 25.8291536,15.8706897 C25.7742944,15.8074709 25.7468652,15.6954031 25.7468652,15.5344828 Z M22,10.1724138 C22,10.1149422 22.0438867,10.0689657 22.1316614,10.0344828 C22.2194362,9.99999983 22.3017238,9.97126448 22.3785266,9.94827586 L22.5101881,9.9137931 C23.1355831,9.61494103 23.9090889,9.01437026 24.315047,8.52586207 C24.7210052,8.03735388 25.0967851,7.5143706 25.4423981,6.95689655 C25.7880111,6.3994225 26.1253902,5.816095 26.4545455,5.20689655 C26.4984328,5.15517207 26.558777,5.04885129 26.6355799,4.90517241 C26.7123828,4.76149353 26.7919275,4.6005756 26.8742163,4.42241379 C26.9565051,4.24425198 27.027821,4.06609284 27.0881661,3.88793103 C27.1485113,3.70976922 27.1786834,3.55172483 27.1786834,3.4137931 L27.1786834,2.46551724 C27.1786834,2.45402293 27.2006267,2.42241405 27.2445141,2.37068966 C27.2884015,2.31896526 27.337774,2.2643681 27.3926332,2.20689655 C27.4474924,2.149425 27.5023508,2.10057491 27.55721,2.06034483 C27.6120692,2.02011474 27.6504701,2 27.6724138,2 C27.8040759,2 27.9083068,2.04022948 27.9851097,2.12068966 C28.0619126,2.20114983 28.1195139,2.30172353 28.1579154,2.42241379 C28.1963168,2.54310405 28.2210031,2.66953957 28.2319749,2.80172414 C28.2429468,2.93390871 28.2484326,3.05172362 28.2484326,3.15517241 C28.2484326,3.22413828 28.2456897,3.28735603 28.2402038,3.34482759 C28.2347178,3.40229914 28.2264891,3.45976983 28.2155172,3.51724138 C28.2045454,3.57471293 28.1990596,3.62931009 28.1990596,3.68103448 L28.1990596,3.98275862 C28.4623838,3.99425293 28.8354208,4.0747119 29.3181818,4.22413793 C29.8009429,4.37356397 30.3330692,4.56321724 30.9145768,4.79310345 C31.4960844,5.02298966 32.0858121,5.28160776 32.6837774,5.56896552 C33.2817428,5.85632328 33.8275837,6.14655026 34.3213166,6.43965517 C34.8150495,6.73276009 35.2182586,7.02011353 35.5309561,7.30172414 C35.8436536,7.58333474 36,7.82758517 36,8.03448276 C36,8.11494293 35.9615991,8.1954019 35.8847962,8.27586207 C35.8079933,8.35632224 35.7202199,8.43103414 35.6214734,8.5 C35.5227268,8.56896586 35.4212388,8.62643655 35.3170063,8.67241379 C35.2127738,8.71839103 35.138715,8.74137931 35.0948276,8.74137931 L34.9960815,8.74137931 C34.6340107,8.54597603 34.2664595,8.32758741 33.8934169,8.0862069 C33.5203743,7.84482638 33.1637948,7.60344948 32.8236677,7.36206897 L31.6716301,6.56896552 C31.2876156,6.30459638 30.8926353,6.06896655 30.4866771,5.86206897 C30.080719,5.65517138 29.6637952,5.48850638 29.2358934,5.36206897 C28.8079916,5.23563155 28.3691245,5.17241379 27.919279,5.17241379 L27.7053292,5.17241379 C27.6504699,5.17241379 27.5572107,5.2643669 27.4255486,5.44827586 C27.2938865,5.63218483 27.1347972,5.86781466 26.9482759,6.15517241 C26.6520361,6.59195621 26.2899708,7.11206595 25.862069,7.71551724 C25.4341671,8.31896853 24.9706138,8.89367543 24.471395,9.43965517 C23.9721762,9.98563491 23.0532942,10.3793103 22.5266458,10.3793103 C22.4169274,10.3793103 22.3017247,10.3735633 22.1810345,10.362069 C22.0603442,10.3505747 22,10.2873569 22,10.1724138 Z" id="金" transform="translate(29.000000, 9.000000) rotate(-16.000000) translate(-29.000000, -9.000000) "></path>
                </g>
            </g>
        </g>
    </g>
</svg>