<?xml version="1.0" encoding="UTF-8"?>
<svg width="39px" height="16px" viewBox="0 0 39 16" version="1.1" xmlns="http://www.w3.org/2000/svg" xmlns:xlink="http://www.w3.org/1999/xlink">
    <!-- Generator: Sketch 49 (51002) - http://www.bohemiancoding.com/sketch -->
    <title>P3-代用币ico3 蓝色阴影</title>
    <desc>Created with Sketch.</desc>
    <defs>
        <linearGradient x1="50%" y1="0%" x2="50%" y2="100%" id="linearGradient-1">
            <stop stop-color="#FCD037" offset="0%"></stop>
            <stop stop-color="#F7A319" offset="100%"></stop>
        </linearGradient>
        <polygon id="path-2" points="18.6651492 4.53582588 16.03622 1.5542318 17.9066099 0.0370587123 19.7767341 4.14072884 22.9835571 0.0370587123 24.3597543 1.5542318 20.759623 4.53582588 23.3292243 4.53582588 23.1561143 5.59872219 20.6030521 5.59872219 20.2568322 7.72451481 22.8098945 7.72451481 22.6367845 8.78741112 20.0837222 8.78741112 19.5211149 12.2418241 17.393563 12.2418241 17.9561704 8.78741112 15.4031081 8.78741112 15.576218 7.72451481 18.1292803 7.72451481 18.4755002 5.59872219 15.9224379 5.59872219 16.0955479 4.53582588"></polygon>
        <filter x="-39.1%" y="-20.5%" width="178.2%" height="157.4%" filterUnits="objectBoundingBox" id="filter-3">
            <feOffset dx="0" dy="1" in="SourceAlpha" result="shadowOffsetOuter1"></feOffset>
            <feGaussianBlur stdDeviation="1" in="shadowOffsetOuter1" result="shadowBlurOuter1"></feGaussianBlur>
            <feColorMatrix values="0 0 0 0 0.031372549   0 0 0 0 0.447058824   0 0 0 0 0.815686275  0 0 0 1 0" type="matrix" in="shadowBlurOuter1"></feColorMatrix>
        </filter>
    </defs>
    <g id="彩蛋计划-V3.1（满额即开）" stroke="none" stroke-width="1" fill="none" fill-rule="evenodd">
        <g id="3.-彩蛋计划---首页已购买（未关注公众号）" transform="translate(-252.000000, -381.000000)">
            <g id="P3-代用币ico3-蓝色阴影" transform="translate(252.000000, 382.000000)">
                <path d="M16.4814101,3.09139335 L15.1880159,11.0328429 C15.123119,11.4313106 14.9670619,11.7324209 14.7198402,11.9361828 C14.4726184,12.1399447 14.206321,12.2418241 13.9209398,12.2418241 L12.9235552,12.2418241 L14.5983305,1.95869186 L25.2047494,1.95869186 L23.7268764,11.0328429 C23.6619794,11.4313106 23.5077999,11.7324209 23.2643331,11.9361828 C23.0208664,12.1399447 22.7564464,12.2418241 22.4710653,12.2418241 L20.4658975,12.2418241 L20.6074902,11.3724444 L21.4185693,11.3724444 C21.5086896,11.3724444 21.5941808,11.3316926 21.6750455,11.2501879 C21.7559101,11.1686831 21.8051913,11.0735956 21.8228904,10.9649226 L23.1052227,3.09139335 L16.4814101,3.09139335 Z" id="代用币" fill="#FFFFFF"></path>
                <g id="Combined-Shape">
                    <use fill="black" fill-opacity="1" filter="url(#filter-3)" xlink:href="#path-2"></use>
                    <use fill="url(#linearGradient-1)" fill-rule="evenodd" xlink:href="#path-2"></use>
                </g>
                <polygon id="Combined-Shape" fill="#FFFFFF" points="7.34531392 4.5622688 4.8854443 4.5622688 5.02663806 3.69533806 7.08838001 3.69533806 6.42856157 1.4690189 8.49499662 1.4690189 9.15727322 3.69533806 10.2381418 3.69533806 10.087489 2.66835858 11.9609054 2.66835858 12.1115582 3.69533806 12.7360303 3.69533806 12.5948366 4.5622688 9.41516435 4.5622688 11.5539821 11.7521512 9.47619299 11.7521512"></polygon>
                <polygon id="Combined-Shape" fill="#FFFFFF" points="2.17943676 7.08940848 0.323520669 7.08940848 3.30769308 1.4690189 5.38923034 1.4690189 3.04702378 5.7460284 4.40880381 5.7460284 3.43060905 11.7521512 1.42003329 11.7521512"></polygon>
                <path d="M33.3531453,4.69448526 L37.9110099,4.69448526 L36.9492795,10.5995165 C36.8935267,10.9418389 36.7455519,11.230106 36.5053506,11.4643266 C36.2651493,11.6985472 35.9973973,11.8156557 35.7020866,11.8156557 L33.4756106,11.8156557 L33.6186597,10.937333 L34.4696166,10.937333 C34.6017292,10.937333 34.7170196,10.885535 34.8154912,10.7819374 C34.9139627,10.6783399 34.9756686,10.5499709 35.0006106,10.3968267 L35.7862805,5.57280799 L33.2100962,5.57280799 L32.1239385,12.2418241 L30.1539152,12.2418241 L31.2400729,5.57280799 L28.6638886,5.57280799 L27.6471393,11.8156557 L25.6654591,11.8156557 L26.8252575,4.69448526 L31.383122,4.69448526 L31.6856413,2.83701459 L26.9062949,2.83701459 L27.049344,1.95869186 L38.5780602,1.95869186 L38.4350111,2.83701459 L33.6556646,2.83701459 L33.3531453,4.69448526 Z" id="Combined-Shape" fill="#FFFFFF"></path>
            </g>
        </g>
    </g>
</svg>