<?xml version="1.0" encoding="UTF-8"?>
<svg width="59px" height="25px" viewBox="0 0 59 25" version="1.1" xmlns="http://www.w3.org/2000/svg" xmlns:xlink="http://www.w3.org/1999/xlink">
    <!-- Generator: Sketch 49 (51002) - http://www.bohemiancoding.com/sketch -->
    <title>P3-代用币ico2 棕色字</title>
    <desc>Created with Sketch.</desc>
    <defs>
        <linearGradient x1="37.0927083%" y1="100%" x2="50%" y2="0%" id="linearGradient-1">
            <stop stop-color="#FFFBBD" offset="0%"></stop>
            <stop stop-color="#FFFFFF" offset="100%"></stop>
        </linearGradient>
        <polygon id="path-2" points="27.7068126 6.77550332 23.7297145 2.28498406 26.5592786 0 29.3884409 6.18045556 34.2397886 2.24578197e-15 36.321728 2.28498406 30.8753754 6.77550332 34.762721 6.77550332 34.5008367 8.37631021 30.6385118 8.37631021 30.1147432 11.577924 33.9770682 11.577924 33.7151839 13.1787309 29.8528589 13.1787309 29.001735 18.3813533 25.7831309 18.3813533 26.6342548 13.1787309 22.7719298 13.1787309 23.0338141 11.577924 26.8961391 11.577924 27.4199076 8.37631021 23.5575827 8.37631021 23.8194669 6.77550332"></polygon>
        <filter x="-36.9%" y="-21.8%" width="173.8%" height="154.4%" filterUnits="objectBoundingBox" id="filter-3">
            <feOffset dx="0" dy="1" in="SourceAlpha" result="shadowOffsetOuter1"></feOffset>
            <feGaussianBlur stdDeviation="1.5" in="shadowOffsetOuter1" result="shadowBlurOuter1"></feGaussianBlur>
            <feColorMatrix values="0 0 0 0 0.560784314   0 0 0 0 0.411764706   0 0 0 0 0.156862745  0 0 0 1 0" type="matrix" in="shadowBlurOuter1"></feColorMatrix>
        </filter>
    </defs>
    <g id="彩蛋计划-V3.1（满额即开）" stroke="none" stroke-width="1" fill="none" fill-rule="evenodd">
        <g id="3.-彩蛋计划---首页已购买（未关注公众号）" transform="translate(-261.000000, -283.000000)">
            <g id="Group-4" transform="translate(35.000000, 267.000000)">
                <g id="P3-代用币ico2-棕色字" transform="translate(226.000000, 18.000000)">
                    <path d="M25.0490625,4.81120224 L23.0923893,16.7716607 C22.9942118,17.371785 22.7581256,17.8252812 22.3841234,18.1321629 C22.0101213,18.4390446 21.607261,18.5924832 21.1755306,18.5924832 L19.6666667,18.5924832 L22.2003011,3.10526316 L38.2459092,3.10526316 L36.0101525,16.7716607 C35.9119751,17.371785 35.6787291,17.8252812 35.3104076,18.1321629 C34.9420861,18.4390446 34.5420662,18.5924832 34.1103358,18.5924832 L31.0768769,18.5924832 L31.2910811,17.2831277 L32.5180982,17.2831277 C32.6544341,17.2831277 32.783767,17.2217523 32.9061007,17.0989996 C33.0284343,16.9762469 33.1029879,16.8330376 33.1297636,16.6693673 L35.0697021,4.81120224 L25.0490625,4.81120224 Z" id="代用币" fill="#5B3F0D"></path>
                    <g id="Combined-Shape">
                        <use fill="black" fill-opacity="1" filter="url(#filter-3)" xlink:href="#path-2"></use>
                        <use fill="url(#linearGradient-1)" fill-rule="evenodd" xlink:href="#path-2"></use>
                    </g>
                    <polygon id="Combined-Shape" fill="#5B3F0D" points="10.9669553 7.76394502 7.24561404 7.76394502 7.45921486 6.45827796 10.5782604 6.45827796 9.58007351 3.10526316 12.7062188 3.10526316 13.7081245 6.45827796 15.3432847 6.45827796 15.115374 4.91156468 17.9495168 4.91156468 18.1774274 6.45827796 19.1221416 6.45827796 18.9085408 7.76394502 14.0982674 7.76394502 17.3339148 18.5924832 14.1905928 18.5924832"></polygon>
                    <polygon id="Combined-Shape" fill="#5B3F0D" points="2.80766793 11.5700196 0 11.5700196 4.51451724 3.10526316 7.6635095 3.10526316 4.12017137 9.54678169 6.18030013 9.54678169 4.70046705 18.5924832 1.65882679 18.5924832"></polygon>
                    <path d="M50.9634228,7.22558693 L57.8586538,7.22558693 L56.4037284,16.1190365 C56.3193844,16.6346014 56.0955251,17.0687548 55.7321436,17.4215097 C55.3687622,17.7742646 54.9637015,17.9506394 54.5169494,17.9506394 L51.1486908,17.9506394 L51.3650984,16.6278151 L52.6524434,16.6278151 C52.8523061,16.6278151 53.0267198,16.5498032 53.1756896,16.393777 C53.3246594,16.2377507 53.4180093,16.0444168 53.4557421,15.8137694 L54.6443196,8.54841124 L50.7470151,8.54841124 L49.1038534,18.5924832 L46.1235618,18.5924832 L47.7667235,8.54841124 L43.869419,8.54841124 L42.3312598,17.9506394 L39.3333333,17.9506394 L41.0879001,7.22558693 L47.9831311,7.22558693 L48.4407885,4.42808747 L41.2104952,4.42808747 L41.4269028,3.10526316 L58.8677812,3.10526316 L58.6513735,4.42808747 L51.4210802,4.42808747 L50.9634228,7.22558693 Z" id="Combined-Shape" fill="#5B3F0D"></path>
                </g>
            </g>
        </g>
    </g>
</svg>