<?xml version="1.0" encoding="UTF-8"?>
<svg width="271px" height="34px" viewBox="0 0 271 34" version="1.1" xmlns="http://www.w3.org/2000/svg" xmlns:xlink="http://www.w3.org/1999/xlink">
    <!-- Generator: Sketch 49 (51002) - http://www.bohemiancoding.com/sketch -->
    <title>代用金=现金2@2x</title>
    <desc>Created with Sketch.</desc>
    <defs>
        <path d="M8.9735982,-3.62544108e-16 L262.026402,3.62544108e-16 C265.146717,-2.10648567e-16 266.278219,0.324889639 267.41896,0.934964463 C268.559701,1.54503929 269.454961,2.4402993 270.065036,3.58104004 C270.67511,4.72178078 271,5.85328261 271,8.9735982 L271,23.0264018 C271,26.1467174 270.67511,27.2782192 270.065036,28.41896 C269.454961,29.5597007 268.559701,30.4549607 267.41896,31.0650355 C266.278219,31.6751104 265.146717,32 262.026402,32 L8.9735982,32 C5.85328261,32 4.72178078,31.6751104 3.58104004,31.0650355 C2.4402993,30.4549607 1.54503929,29.5597007 0.934964463,28.41896 C0.324889639,27.2782192 1.40432378e-16,26.1467174 -2.41696072e-16,23.0264018 L2.41696072e-16,8.9735982 C-1.40432378e-16,5.85328261 0.324889639,4.72178078 0.934964463,3.58104004 C1.54503929,2.4402993 2.4402993,1.54503929 3.58104004,0.934964463 C4.72178078,0.324889639 5.85328261,2.10648567e-16 8.9735982,-3.62544108e-16 Z" id="path-1"></path>
        <filter x="-0.4%" y="-3.1%" width="100.7%" height="112.5%" filterUnits="objectBoundingBox" id="filter-2">
            <feOffset dx="0" dy="2" in="SourceAlpha" result="shadowOffsetOuter1"></feOffset>
            <feColorMatrix values="0 0 0 0 0.835294118   0 0 0 0 0.662745098   0 0 0 0 0.376470588  0 0 0 1 0" type="matrix" in="shadowOffsetOuter1"></feColorMatrix>
        </filter>
    </defs>
    <g id="彩蛋计划-V3.1（满额即开）" stroke="none" stroke-width="1" fill="none" fill-rule="evenodd">
        <g id="3.-彩蛋计划---首页已购买（未关注公众号）" transform="translate(-52.000000, -332.000000)">
            <g id="代用金=现金2" transform="translate(52.000000, 332.000000)">
                <g id="Rectangle-9">
                    <use fill="black" fill-opacity="1" filter="url(#filter-2)" xlink:href="#path-1"></use>
                    <use fill="#8F6928" fill-rule="evenodd" xlink:href="#path-1"></use>
                </g>
                <g id="Group-17" transform="translate(53.000000, 8.000000)" fill="#FFFFFF">
                    <path d="M160.889327,5.85098442 L158.96023,5.85098442 L158.727737,6.98574699 L160.656833,6.98574699 L160.889327,5.85098442 Z M156.86092,5.85098442 L155.102038,5.85098442 L154.869544,6.98574699 L156.628426,6.98574699 L156.86092,5.85098442 Z M161.203193,4.31905496 L159.274096,4.31905496 L159.053228,5.3970794 L160.982324,5.3970794 L161.203193,4.31905496 Z M157.174786,4.31905496 L155.699594,4.31905496 C155.523567,4.34742417 155.40963,4.44198677 155.35778,4.6027456 L155.195035,5.3970794 L156.953917,5.3970794 L157.174786,4.31905496 Z M151.565302,8.57441457 C152.015334,8.59332738 152.658302,8.6051477 153.494225,8.6098759 C154.330148,8.6146041 155.262501,8.6216963 156.291311,8.6311527 L156.535429,7.43965201 L154.776547,7.43965201 L154.718424,7.72334265 C154.654949,7.9408399 154.46023,8.11814477 154.134261,8.2552626 C153.808291,8.39238043 153.441999,8.46093832 153.035374,8.46093832 C152.570072,8.47039472 152.377765,8.34746334 152.458445,8.09214048 C152.575938,7.65714599 152.695596,7.16542047 152.817425,6.61694915 L153.125479,5.11338876 C153.189645,4.75404548 153.267604,4.28123248 153.359357,3.69493555 C153.417481,3.4112435 153.586449,3.27885585 153.866266,3.29776866 C154.089344,3.31668146 154.38408,3.37814715 154.75048,3.48216757 C155.116881,3.586188 155.473704,3.71384751 155.820961,3.86514994 L157.267783,3.86514994 L157.453778,2.95733989 L154.134597,2.95733989 C153.215389,2.96679629 152.545701,3.00462133 152.125513,3.07081615 L151.839473,2.38995861 C152.07759,2.42778422 152.447664,2.456153 152.949707,2.4750658 C153.451749,2.4939786 153.858795,2.50343486 154.170856,2.50343486 L157.546775,2.50343486 C157.587462,2.30485042 157.64434,1.88877498 157.717411,1.25519605 C157.739646,0.962047584 157.893576,0.810747423 158.179206,0.801291021 C158.48933,0.810747423 158.835279,0.841480268 159.217063,0.893490479 C159.598848,0.94550069 159.8974,0.999874185 160.112729,1.0566126 C160.407122,1.18900222 160.406199,1.37812743 160.109959,1.62399388 L159.785582,1.82257733 L159.646086,2.50343486 L162.653207,2.50343486 C162.755982,2.37104524 162.908148,2.19374036 163.109709,1.97151491 C163.31127,1.74928947 163.499439,1.5578002 163.674221,1.39704137 C163.869854,1.22682613 164.091223,1.20791361 164.338335,1.34030324 C164.751094,1.6334517 165.118041,2.0117021 165.439187,2.4750658 C165.585229,2.77767066 165.505012,2.93842709 165.198532,2.95733989 L159.553088,2.95733989 L159.367094,3.86514994 L161.154345,3.86514994 L161.616833,3.26939959 C161.731233,3.08027155 161.920589,3.03299025 162.184906,3.12755427 C162.413336,3.21266189 162.663292,3.34268547 162.934782,3.5176289 C163.206272,3.69257234 163.433325,3.86514909 163.615948,4.03536432 C163.744001,4.14884115 163.690215,4.31905383 163.454588,4.54600748 L163.203694,4.80132905 L162.988638,5.85098442 C162.890058,6.28597891 162.808225,6.77770444 162.743134,7.32617575 C162.669511,7.68551903 162.333513,7.94083805 161.735129,8.09214048 C162.243145,8.24344292 162.594041,8.42311186 162.787827,8.6311527 C163.051221,8.91484476 163.143199,9.25054199 163.063763,9.63825447 C162.984327,10.025967 162.779517,10.3332954 162.449326,10.5602491 C161.849557,10.9952435 161.411387,10.8723122 161.134802,10.1914512 C161.00449,9.76591314 160.847288,9.42548777 160.663189,9.17016492 L156.779669,9.70917714 C157.519527,10.0212384 157.924068,10.4467701 157.993305,10.985785 C158.070754,11.3924103 157.834207,11.8084857 157.283658,12.2340238 C156.980129,12.4231519 156.699912,12.4869816 156.442998,12.425515 C156.186084,12.3640484 156.064019,12.1867435 156.076798,11.8935951 C156.158773,10.9857805 156.09558,10.3711236 155.887218,10.0496059 C155.842104,9.99286749 155.815904,9.93612993 155.808616,9.87939152 C154.551928,10.0590632 153.544997,10.2198196 152.787793,10.3616656 C152.382643,10.4467732 152.05315,10.5318796 151.799302,10.6169872 C151.39346,10.8439408 151.175966,10.8439408 151.146814,10.6169872 C151.098518,10.4373155 151.060994,10.1819965 151.034241,9.85102246 C151.007488,9.52004839 151.00802,9.21744806 151.035837,8.94321241 C151.02389,8.67843315 151.200377,8.55550177 151.565302,8.57441457 Z M158.418991,8.6311527 L160.149504,8.6311527 C160.076252,8.52713228 159.950138,8.4042009 159.771159,8.26235487 C159.541716,7.99757561 159.629452,7.84627545 160.034371,7.80844984 C160.193192,7.81790625 160.340617,7.83681877 160.476651,7.86518797 L160.563836,7.43965201 L158.63474,7.43965201 L158.402246,8.57441457 L158.418991,8.6311527 Z M150.222802,12.7730361 C150.812422,12.4798876 151.316374,11.912512 151.734674,11.0708922 C151.915962,10.7399181 152.074781,10.7493744 152.211136,11.0992613 C152.390758,11.8841426 152.308508,12.6548278 151.964383,13.41134 C151.716208,13.8841601 151.434837,14.1843964 151.120261,14.3120578 C150.805685,14.4397192 150.552015,14.4893646 150.359243,14.4609954 C149.928354,14.3948006 149.693044,14.1702144 149.653306,13.7872301 C149.613568,13.4042458 149.803398,13.0661845 150.222802,12.7730361 Z M155.574452,13.0992803 L156.992905,13.0992803 C157.329461,13.1181931 157.670521,12.9881695 158.016096,12.7092057 C158.361671,12.4302418 158.692562,11.8652303 159.008779,11.0141541 C159.119535,10.7966568 159.242502,10.692638 159.377682,10.7020944 C159.512863,10.7115508 159.56569,10.8344822 159.536167,11.0708922 C159.376141,12.0827272 159.514984,12.6973841 159.952699,12.9148814 C160.152528,13.047271 160.242408,13.2316681 160.222341,13.4680781 C160.202274,13.7044882 159.993935,13.9598072 159.597318,14.2340429 C159.152958,14.6028425 158.227027,14.8297928 156.819499,14.9149004 L154.578343,14.9149004 C153.150426,14.9149004 152.562527,14.2766028 152.814627,12.9999886 L152.94831,12.3475001 C153.070601,11.7044648 153.165996,11.1465454 153.2345,10.6737253 C153.300143,10.3994897 153.476629,10.2765583 153.763965,10.3049275 C154.580629,10.3805787 155.181493,10.4940538 155.566576,10.6453562 C155.822912,10.8250279 155.823926,11.0046968 155.569617,11.1843685 L155.239428,11.411321 L155.030184,12.4326073 C154.910755,12.8770582 155.092175,13.0992803 155.574452,13.0992803 Z M161.014115,13.41134 C160.991698,12.9668891 160.920259,12.5886387 160.799795,12.2765774 C160.679331,11.9645162 160.428339,11.5626251 160.04681,11.0708922 C159.883792,10.7588309 160.024391,10.6264433 160.468611,10.6737253 C161.294039,10.8912226 161.894326,11.1229009 162.26949,11.3687674 C162.644654,11.6146338 162.893122,11.8557685 163.014901,12.0921785 C163.194663,12.4609782 163.201304,12.8439567 163.034823,13.2411256 C162.868342,13.6382945 162.583269,13.9219823 162.179596,14.0921975 C161.493705,14.3475204 161.105216,14.1205701 161.014115,13.41134 Z" id="Combined-Shape"></path>
                    <path d="M115.37285,5.31197221 L113.188432,5.31197221 C112.815757,5.33088501 112.441151,5.35925379 112.064601,5.3970794 L111.795306,4.77295999 C112.353003,4.820242 112.848372,4.84861078 113.281429,4.85806718 L115.636061,4.85806718 L116.365495,4.20557871 C116.469747,4.1582967 116.587097,4.13938418 116.717549,4.14884058 C116.902571,4.21503539 117.125611,4.33796677 117.386677,4.51763841 C117.647742,4.69731005 117.863885,4.87697899 118.035115,5.05665063 C118.185032,5.34034269 118.097065,5.53892415 117.77121,5.65240097 L117.316613,5.79424629 C116.88217,6.06848195 116.453547,6.31434472 116.030729,6.53184196 C116.126769,6.61694958 116.211414,6.71151218 116.284666,6.8155326 C116.492797,7.18433228 116.391406,7.51766545 115.980489,7.81554211 C115.569573,8.11341877 115.145379,8.12996723 114.707894,7.86518797 C114.468533,7.69497274 114.270644,7.55312883 114.114222,7.43965201 C113.00962,7.84627729 112.134846,8.05431502 111.489873,8.06377142 C110.913032,8.06377142 110.892875,7.93138378 111.4294,7.66660452 C112.037471,7.46802008 112.657388,7.16541976 113.28917,6.75879447 C113.132748,6.64531765 112.940867,6.53184253 112.713521,6.4183657 C112.486176,6.30488888 112.329099,6.2292388 112.242285,6.19141319 C111.980366,5.99282875 112.10399,5.85098485 112.61316,5.76587723 C113.329909,5.77533363 113.972704,5.82261493 114.541564,5.90772255 C114.830055,5.69968171 115.107147,5.50110025 115.37285,5.31197221 Z M114.93027,9.96449871 C115.022204,10.1158011 114.989268,10.2765576 114.831461,10.4467728 L114.478022,10.7872016 L113.841571,13.8936141 L114.182,13.8936141 C114.815167,13.2032967 115.217083,12.8108619 115.38776,12.7162979 C115.564019,12.6406467 115.717256,12.6311904 115.847477,12.6879289 C116.245429,12.9148825 116.643652,13.2789485 117.042156,13.7801378 C117.150373,14.0827427 117.054886,14.2718679 116.755695,14.3475191 L104.897426,14.3475191 C104.679929,14.3475191 104.417944,14.3569754 104.111464,14.3758882 C103.804985,14.394801 103.569431,14.4137135 103.404798,14.4326263 L103.147127,13.7517688 C103.41555,13.780138 103.726523,13.8085067 104.080053,13.836876 C104.433584,13.8652452 104.718125,13.8841577 104.933685,13.8936141 L106.125186,13.8936141 L106.697701,11.0992613 C106.841303,10.3522055 106.932824,9.81319869 106.972266,9.48222462 C107.021395,9.10396854 107.188656,8.93375586 107.474055,8.97158147 C108.216543,9.1323403 108.826171,9.38765933 109.302956,9.7375462 L112.423553,9.7375462 L113.011142,9.08505773 C113.165074,8.93375529 113.352493,8.89593025 113.573403,8.97158147 C113.786564,9.08505829 114.042955,9.25290691 114.342583,9.47513236 C114.642212,9.6973578 114.838105,9.86047829 114.93027,9.96449871 Z M115.256753,3.52472117 C115.48984,3.81786963 115.421177,4.12992622 115.050761,4.46090028 C114.680345,4.79187435 114.166686,4.82969939 113.509767,4.57437654 C112.989113,4.30014088 112.568379,4.09210316 112.247554,3.95025713 C110.897317,4.30960041 109.491054,4.52709439 108.028725,4.6027456 C107.731702,4.62165841 107.588151,4.58383337 107.598069,4.48926935 C107.598531,4.39470533 107.759749,4.30014273 108.081729,4.20557871 C108.975429,3.99753786 109.949102,3.67602502 111.002778,3.24103053 C110.589788,2.99516408 110.046124,2.78712636 109.371768,2.61691112 C109.081249,2.46560869 109.15178,2.35213357 109.583361,2.27648235 C110.188571,2.27648235 110.704306,2.29775894 111.130582,2.34031275 C111.556858,2.38286655 112.007137,2.44669631 112.481433,2.53180393 C112.830075,2.3994143 113.156155,2.23865788 113.459683,2.04952984 L109.573122,2.04952984 C109.202384,2.05898624 108.769103,2.09681128 108.273264,2.1630061 L107.953043,1.51051762 C108.652586,1.55779963 109.214149,1.58616841 109.63775,1.59562481 L113.921478,1.59562481 L114.71277,1.0566126 C114.879572,0.980961381 115.051722,0.971505121 115.229226,1.02824353 C115.512225,1.17008956 115.919166,1.49160241 116.45006,1.99279171 C116.603852,2.25757097 116.519759,2.43723991 116.19778,2.53180393 L115.703881,2.58854206 C115.394771,2.75875729 114.970254,2.93842623 114.430315,3.12755427 C114.728814,3.19374909 115.004291,3.32613673 115.256753,3.52472117 Z M106.677371,8.29072393 L115.698734,8.29072393 L116.51978,7.46802107 C116.774089,7.28834944 116.99352,7.27889318 117.178081,7.43965201 C117.530457,7.70443127 117.882367,8.06376915 118.23382,8.51767644 C118.435677,9.00940935 118.226485,9.24581585 117.606238,9.22690305 C116.933357,9.14179543 116.259333,9.29309559 115.584144,9.68080807 C114.977318,10.0117821 114.824542,9.9266758 115.125812,9.42548649 L115.577367,8.74462896 L106.69785,8.74462896 C106.797163,9.32146948 106.646967,9.86993256 106.247259,10.3900347 C105.631529,10.9952444 105.080551,11.1229039 104.594309,10.773017 C104.108067,10.4231302 104.138629,9.97395781 104.685996,9.42548649 C105.312427,8.9526664 105.717711,8.45148461 105.90186,7.9219261 C105.606543,7.97866451 105.258368,8.01648955 104.857324,8.03540236 C104.375279,7.98812035 104.38349,7.8557327 104.881959,7.63823546 C105.766433,7.38291261 106.567957,7.07085602 107.286553,6.70205634 C106.932239,6.44673349 106.51538,6.21978325 106.035965,6.02119881 C105.817453,5.84152717 105.889921,5.71859579 106.25337,5.65240097 C107.110259,5.62403177 107.855135,5.68076933 108.488021,5.82261536 C108.681486,5.70913854 108.903548,5.54838211 109.154212,5.34034127 L106.913056,5.34034127 C106.587664,5.35925407 106.194145,5.38762285 105.732488,5.42544846 L105.440635,4.77295999 C105.986938,4.8296984 106.499283,4.86752344 106.977685,4.88643625 L109.474162,4.88643625 L110.07199,4.46090028 C110.280493,4.36633626 110.443187,4.35688 110.560077,4.43253122 C110.637435,4.47035683 110.785851,4.57673975 111.005331,4.75168319 C111.224811,4.92662663 111.439929,5.12284402 111.65069,5.34034127 C111.81952,5.62403333 111.778834,5.82261479 111.528631,5.93609162 L110.994739,6.04956787 C110.729036,6.23869591 110.440781,6.39945233 110.129964,6.53184196 C110.294136,6.60749318 110.408856,6.73988082 110.474127,6.92900886 C110.557157,7.35454695 110.394243,7.69970044 109.985379,7.9644797 C109.576515,8.22925895 109.134781,8.158337 108.660164,7.75171171 C108.524592,7.62877849 108.360653,7.50584711 108.168343,7.38291388 C107.922015,7.4774779 107.623681,7.5720405 107.273332,7.66660452 C106.922984,7.76116854 106.679681,7.8179061 106.543416,7.83681891 C106.599693,7.93138293 106.644344,8.08268309 106.677371,8.29072393 Z M108.41921,12.9432504 L108.224497,13.8936141 L111.685522,13.8936141 L111.880236,12.9432504 L108.41921,12.9432504 Z M108.709827,11.5247972 L108.512207,12.4893454 L111.973233,12.4893454 L112.170852,11.5247972 L108.709827,11.5247972 Z M112.444032,10.1914512 L109.096482,10.1914512 C109.0206,10.2387332 108.953714,10.3805771 108.895821,10.6169872 L108.802824,11.0708922 L112.26385,11.0708922 L112.444032,10.1914512 Z" id="Combined-Shape"></path>
                    <path d="M132.508205,3.15592334 C133.000721,3.38287698 133.447424,3.69493357 133.848328,4.09210245 C133.968631,4.24340488 133.935695,4.4041613 133.749518,4.57437654 L133.373523,4.88643625 L132.164557,10.7872016 C131.970812,11.7328418 131.808344,12.6642834 131.67715,13.5815544 C131.527413,14.0354617 131.027015,14.2624119 130.175938,14.2624119 C129.714281,14.3002375 129.51058,14.1867624 129.564829,13.9219831 L129.704325,13.2411256 L128.34261,13.2411256 L128.249613,13.6950306 C128.073675,14.0921995 127.525995,14.3191498 126.606556,14.3758882 C126.160168,14.3853446 125.99646,14.2151319 126.115428,13.865245 C126.275544,13.2222097 126.436626,12.5744559 126.59868,11.9219641 L127.935517,5.3970794 C128.075013,4.71621846 128.174515,4.09210529 128.234023,3.52472117 C128.280984,3.2032035 128.502815,3.08972838 128.899522,3.1842924 C129.430094,3.36396404 129.949034,3.60037054 130.456357,3.893519 L131.364167,3.893519 C131.531662,3.67602176 131.727523,3.45852777 131.951756,3.24103053 C132.103751,3.0991845 132.289232,3.07081572 132.508205,3.15592334 Z M130.164776,4.34742403 L128.432701,12.8014051 L129.794416,12.8014051 L131.526492,4.34742403 L130.164776,4.34742403 Z M127.739704,4.82969812 C127.928139,4.97154415 127.900784,5.15121309 127.657638,5.36871033 L127.310012,5.68077004 L127.118205,6.61694915 C126.744507,8.39475272 126.342446,10.1725296 125.91201,11.9503332 C125.685328,13.0567322 125.128558,13.7895924 124.241684,14.1489357 C124.05597,14.2245869 123.821523,14.3073292 123.538338,14.397165 C123.255153,14.4870008 123.008575,14.5366462 122.798597,14.5461026 C122.53188,14.555559 122.426616,14.4231713 122.482802,14.1489357 C122.426897,13.5910079 122.157418,13.1985731 121.674359,12.9716195 C121.403215,12.7257531 121.445608,12.5649966 121.801538,12.4893454 C122.262733,12.5460838 122.665962,12.5626323 123.011236,12.5389913 C123.35651,12.5153503 123.602812,12.3285891 123.750149,11.9787023 C124.143402,10.843934 124.598326,9.08506964 125.114933,6.70205634 L125.434612,5.14175782 L124.555171,5.14175782 L124.363364,6.07793694 C124.091197,7.59096125 123.564545,9.03067685 122.783394,10.3971269 C122.002243,11.763577 120.740633,13.0519925 118.998527,14.2624119 C118.609891,14.45154 118.487191,14.4042587 118.630422,14.1205666 C119.781573,12.7021063 120.603697,11.3664096 121.09682,10.1134363 C121.589943,8.86046304 121.957936,7.5720476 122.20081,6.24815132 L122.427491,5.14175782 L121.86011,5.14175782 C121.425115,5.14175782 120.984315,5.1701266 120.537696,5.22686501 L120.506977,4.54600748 C120.950967,4.6405715 121.404636,4.6878528 121.868,4.6878528 L122.577227,4.6878528 L122.832969,3.43961398 L123.148913,1.48214856 C123.199287,1.23628211 123.334074,1.13226325 123.553277,1.17008885 C124.235845,1.20791446 124.900965,1.33084584 125.548659,1.53888669 C125.75407,1.69018912 125.726715,1.86985806 125.466594,2.0778989 L125.142217,2.27648235 L124.648168,4.6878528 L125.18718,4.6878528 C125.388857,4.44198635 125.58278,4.23394862 125.768957,4.06373339 C125.911726,3.87460535 126.101082,3.82732405 126.337031,3.92188807 C126.850166,4.18666732 127.317719,4.48926765 127.739704,4.82969812 Z" id="Combined-Shape"></path>
                    <path d="M134.964953,9.22690305 C134.640805,9.37820548 134.561742,9.3025554 134.727761,8.99995053 C135.529115,7.95028992 136.287006,6.69733545 137.001455,5.24104955 C137.715905,3.78476364 138.284901,2.48452788 138.708461,1.34030324 C138.856029,0.943134355 139.055303,0.801290453 139.306289,0.914767277 C140.2338,1.14172092 140.934346,1.36867117 141.407949,1.59562481 C141.692425,1.82257846 141.642282,2.02115992 141.257521,2.19137516 L140.859662,2.33322048 C140.449574,3.04245063 139.887499,3.89351404 139.17342,4.88643625 L139.564082,5.05665063 C139.756392,5.17958385 139.73485,5.33088402 139.499454,5.51055565 L139.231815,5.7091391 L137.554957,13.8936141 C137.491804,14.432629 136.932268,14.7635981 135.876334,14.8865313 C135.654962,14.9054441 135.47068,14.8818035 135.323483,14.8156087 C135.176287,14.7494139 135.134542,14.5839293 135.198247,14.31915 C135.452836,13.307315 135.826805,11.6666539 136.320163,9.39711743 L136.645653,7.80844984 C136.20835,8.28126994 135.648122,8.75408295 134.964953,9.22690305 Z M139.938964,6.13467506 L139.681293,5.45381753 C140.30131,5.52001234 140.946042,5.55783738 141.615509,5.56729378 L141.785723,5.56729378 L142.268147,3.21266147 C142.318752,2.919513 142.371409,2.59327203 142.426119,2.23392876 C142.480829,1.87458548 142.525737,1.58616955 142.560842,1.3686723 C142.526108,1.12280585 142.685619,0.990418209 143.039381,0.971505405 C143.867439,1.03770022 144.574259,1.14171908 145.159863,1.28356511 C145.514639,1.44432394 145.521235,1.64290541 145.17965,1.87931545 L144.826904,2.0778989 L144.559536,3.38287585 C144.30061,4.50818768 144.113603,5.23631971 143.99851,5.56729378 L146.466619,5.56729378 C146.787815,5.24577612 147.137606,4.87698197 147.516003,4.46090028 C147.74388,4.27177224 147.90293,4.2339472 147.993157,4.34742403 C148.172136,4.48927006 148.367004,4.668939 148.577765,4.88643625 C148.788526,5.10393349 148.962544,5.29305869 149.099822,5.45381753 C149.28369,5.75642239 149.226029,5.94554759 148.926837,6.02119881 L146.288514,6.02119881 C146.440831,6.20087044 146.426807,6.36162687 146.246443,6.5034729 L145.984616,6.67368728 L144.862836,12.1489166 C144.732243,12.5555419 144.867352,12.7730359 145.268165,12.8014051 L145.466748,12.8014051 C146.219616,12.7730359 146.759918,12.120554 147.087669,10.8439397 C147.276475,10.522422 147.405219,10.4940533 147.473904,10.7588325 C147.309682,11.4680627 147.346212,12.1205446 147.583496,12.7162979 C147.681011,12.8865132 147.774766,13.0519977 147.864762,13.2127565 C147.954759,13.3735154 147.945232,13.5815531 147.836183,13.836876 C147.564758,14.4231729 146.733159,14.6974044 145.341362,14.6595788 L144.49029,14.6595788 C143.656189,14.6690352 143.08848,14.5437398 142.787144,14.2836887 C142.485809,14.0236377 142.4164,13.5200918 142.578916,12.7730361 L143.962251,6.02119881 L143.848775,6.02119881 C143.261776,8.10160724 142.446373,9.90066073 141.40254,11.4184132 C140.358708,12.9361658 139.087908,14.073281 137.590102,14.8297932 C137.330674,14.895988 137.261067,14.8203379 137.381279,14.6028407 C138.550881,13.2789444 139.465862,11.9054226 140.126248,10.4822341 C140.786635,9.05904563 141.308789,7.57204873 141.692726,6.02119881 L141.437404,6.02119881 C140.888933,6.02119881 140.389458,6.05902385 139.938964,6.13467506 Z M146.088845,1.59562481 C147.287871,1.60508122 148.065774,1.8698565 148.422577,2.38995861 C148.619315,2.76821469 148.602315,3.15119322 148.371577,3.5389057 C148.140839,3.92661818 147.827512,4.18666534 147.431588,4.31905496 C146.748097,4.4703574 146.386039,4.25286341 146.345402,3.66656649 C146.389873,3.08026957 146.224368,2.5034377 145.848883,1.93605358 C145.753305,1.75638195 145.833291,1.64290682 146.088845,1.59562481 Z" id="Combined-Shape"></path>
                    <path d="M100.108168,12.4609763 C100.025872,13.0472733 99.7804331,13.5413629 99.3718454,13.9432599 C98.9632577,14.345157 98.305458,14.6595777 97.3984265,14.8865313 C96.8759252,14.9905517 96.6251737,14.8297953 96.6461643,14.4042572 C96.6244404,13.8179603 96.164868,13.4302536 95.2674333,13.2411256 C94.9594778,13.1749308 94.8266986,13.0614557 94.8690918,12.9006968 C94.9114849,12.739938 95.1104126,12.6690161 95.465881,12.6879289 C96.8763606,12.7730365 97.6488226,12.6028238 97.78329,12.1772857 L99.6664861,2.98570895 L92.3188985,2.98570895 C92.080551,2.99516536 91.7622555,3.01407788 91.3640025,3.04244708 C90.9657494,3.07081629 90.6900071,3.08972881 90.5367672,3.09918521 L90.3132777,2.38995861 C90.5986764,2.42778422 90.9701458,2.46088113 91.4276971,2.48925033 C91.8852485,2.51761954 92.2322239,2.53180393 92.468634,2.53180393 L100.837508,2.53180393 C100.951908,2.34267589 101.135522,2.11572565 101.388355,1.85094639 C101.641188,1.58616714 101.88154,1.35921689 102.109417,1.17008885 C102.322026,1.00933002 102.533938,0.9904175 102.745161,1.11335073 C103.275041,1.43486839 103.745545,1.9076814 104.156688,2.53180393 C104.218085,2.73984477 104.120892,2.89114493 103.865108,2.98570895 L102.248071,2.98570895 C102.334193,3.16538059 102.272888,3.32613701 102.064154,3.46798304 L101.80814,3.60982836 L100.83748,8.34746206 C100.701858,9.0094102 100.558627,9.77773133 100.407782,10.6524485 C100.256936,11.5271657 100.157066,12.1300023 100.108168,12.4609763 Z M92.355673,10.5602491 C92.1785816,11.193828 91.6001337,11.5247971 90.6203119,11.5531663 C90.1814425,11.5720791 90.0140907,11.3734976 90.1182515,10.957416 C90.1608755,10.7493751 90.2468023,10.3876732 90.3760346,9.87229925 C90.5052668,9.35692535 90.6123899,8.91484519 90.697407,8.54604551 L91.0810211,6.67368728 C91.2129988,5.98336994 91.3180815,5.37816929 91.3962723,4.85806718 C91.424551,4.4892675 91.5767746,4.3001423 91.8529477,4.2906859 C92.5823355,4.42307553 93.244826,4.69730707 93.8404389,5.11338876 L95.8830115,5.11338876 L96.521526,4.48926935 C96.7021211,4.30014131 96.9048083,4.23394749 97.1295936,4.2906859 C97.6536612,4.64057277 98.0868022,5.01882318 98.4290298,5.42544846 C98.5396456,5.6240329 98.5028346,5.80370185 98.3185954,5.96446068 L97.9026063,6.33325851 L97.7166116,7.24106856 C97.6236138,7.69497586 97.5322663,8.19852171 97.4425662,8.75172122 C97.3528661,9.30492074 97.2730277,9.77536968 97.2030485,10.1630822 C97.0708398,10.9006815 96.3881422,11.2789319 95.154935,11.2978447 C94.8617866,11.2978447 94.7434226,11.1370883 94.7998397,10.8155706 L94.9393357,10.1347131 L92.442858,10.1347131 L92.355673,10.5602491 Z M93.6055963,5.56729378 C93.4332127,5.62403219 93.3323761,5.74696358 93.3030834,5.93609162 L92.5358554,9.68080807 L95.032333,9.68080807 L95.8751214,5.56729378 L93.6055963,5.56729378 Z" id="Combined-Shape"></path>
                    <path d="M14.8568523,5.87935349 L10.0880791,6.44673477 C9.84076831,9.45387059 10.2252835,11.2694725 11.2416361,11.8935951 C11.7332287,12.3096768 12.2968698,11.9125138 12.9325764,10.7020944 C13.3153095,10.1725359 13.4852913,10.2198172 13.442527,10.8439397 C13.1753892,12.1016412 13.1707266,12.8628701 13.4285391,13.1276494 C13.730311,13.6855771 13.6239835,14.1583901 13.1095534,14.5461026 C12.6978989,14.8014254 12.0591973,14.8841677 11.1934295,14.7943319 C10.3276617,14.704496 9.56434716,14.3569785 8.90346287,13.7517688 C8.36117516,13.2600359 7.94047917,12.4633459 7.64136227,11.3616751 C7.34224538,10.2600043 7.30070294,8.6973573 7.51673371,6.67368728 L6.35290948,6.8155326 C5.91962157,6.85335821 5.64709659,6.89118325 5.53532635,6.92900886 L5.26021846,6.33325851 C5.62878727,6.38054052 6.03540645,6.38054052 6.48008821,6.33325851 L7.53043619,6.19141319 C7.67713047,5.19849099 7.85435962,4.14884611 8.06212896,3.04244708 C8.08948419,2.86277544 8.13148513,2.5885439 8.18813304,2.21974422 C8.24478095,1.85094455 8.29282504,1.50106292 8.33226673,1.17008885 C8.32760871,0.96204801 8.46045808,0.867485409 8.73081883,0.886398213 C9.69855413,1.00933144 10.5072251,1.17008786 11.1568559,1.3686723 C11.5608511,1.51997473 11.5844216,1.72801246 11.227568,1.99279171 L10.7664654,2.30485142 C10.4995585,3.51527087 10.2893931,4.72567216 10.135963,5.93609162 L12.2817724,5.7091391 C12.5673114,5.33088302 12.8756335,4.9337201 13.2067479,4.51763841 C13.3834681,4.34742318 13.5369366,4.29068562 13.6671579,4.34742403 C13.9486816,4.40416244 14.4179411,4.7445878 15.0749505,5.36871033 C15.3630697,5.62403319 15.290371,5.79424587 14.8568523,5.87935349 Z M11.6770459,1.73747013 C13.1454182,1.5861677 14.061752,1.77529291 14.4260747,2.30485142 C14.641725,2.68310749 14.6426687,3.07081416 14.428906,3.46798304 C14.2151433,3.86515192 13.9197608,4.12992721 13.5427496,4.26231684 C12.9327414,4.47035768 12.5459582,4.28123248 12.3823883,3.69493555 C12.3571109,3.4490691 12.285948,3.20793447 12.1688973,2.97152442 C12.0518466,2.73511437 11.8096177,2.47506722 11.4422032,2.19137516 C11.314612,1.98333432 11.3928921,1.83203415 11.6770459,1.73747013 Z M0.814980049,9.19853398 C0.471919517,9.34983641 0.358675261,9.30255511 0.475243885,9.05668866 C1.36479764,7.76116159 2.1543672,6.41128046 2.84397624,5.00700477 C3.53358527,3.60272908 4.08082062,2.30485737 4.48569868,1.11335073 C4.54359144,0.876940676 4.70480959,0.782378075 4.96935798,0.829660085 C5.42474099,0.914767702 5.87473153,1.03769908 6.31934311,1.19845792 C6.76395469,1.35921675 7.09380456,1.49160439 7.30890261,1.59562481 C7.57252752,1.83203486 7.5621478,2.02116007 7.27776313,2.1630061 L6.75992243,2.4750658 C6.38812146,3.08973193 5.82821482,3.88405778 5.08018572,4.85806718 L5.69780019,5.02828157 C5.88817308,5.16067119 5.87414937,5.32142761 5.65572865,5.51055565 L5.33135167,5.7091391 L3.59055775,14.2056738 C3.53538555,14.6595811 2.88926811,14.9054438 1.65218604,14.9432695 C1.14882841,15.0000079 0.97395778,14.7919701 1.1275689,14.31915 C1.30078544,13.7044839 1.4926935,12.9408909 1.70329883,12.0283481 C1.91390417,11.1158053 2.08992128,10.3143873 2.23135544,9.62406994 L2.64403113,7.60986639 C2.44429234,7.84627644 2.1587927,8.12050799 1.78752365,8.43256925 C1.4162546,8.74463052 1.09207664,8.99994954 0.814980049,9.19853398 Z" id="Combined-Shape"></path>
                    <path d="M20.243653,9.14179585 C19.5364416,11.4397015 17.880849,13.3356817 15.2768255,14.8297932 C14.8828389,14.9527264 14.8154003,14.8203388 15.0745076,14.4326263 C15.952758,13.5153553 16.6436116,12.5319043 17.1470893,11.4822436 C17.650567,10.432583 18.0931837,9.16071603 18.4749527,7.66660452 L19.2247437,4.00699526 C19.3371161,3.45852395 19.4167236,3.0353563 19.4635688,2.73747964 C19.5104141,2.43960298 19.5651814,2.06844477 19.6278725,1.62399388 C19.6462331,1.34975822 19.8321761,1.22682684 20.185707,1.25519605 C20.4824995,1.28356525 20.8271912,1.37812785 21.2197926,1.53888669 C21.612394,1.69964552 21.9340675,1.86040194 22.1848228,2.02116078 L27.7451594,2.02116078 L28.2985667,1.39704137 C28.5533373,1.12280571 28.8222183,1.05661189 29.1052178,1.19845792 C29.7410555,1.51051918 30.1989213,1.86040081 30.478829,2.24811329 C30.6083577,2.44669773 30.5846469,2.65473545 30.4076958,2.8722327 L29.9233439,3.29776866 L28.4935098,10.2765584 C28.332932,11.0141578 28.1571333,11.9645119 27.9661084,13.1276494 C27.7442247,14.0260075 26.941547,14.5744706 25.5580514,14.7730551 C25.0413624,14.8487063 24.8131674,14.7163186 24.8734593,14.3758882 C24.838635,13.761222 24.49835,13.3451466 23.8525941,13.1276494 C23.7204354,13.0803673 23.6806503,12.9976251 23.7332377,12.87942 C23.785825,12.761215 23.9123778,12.6973853 24.1128997,12.6879289 C25.3209199,12.7919493 25.9309189,12.5839116 25.9429149,12.0638095 L26.5415852,9.14179585 L24.3571673,9.14179585 L24.0781753,10.5035109 C23.9115542,11.3167615 23.7655547,12.1678249 23.6401724,13.0567267 C23.5818179,13.3877008 23.3560197,13.6359276 22.962771,13.8014146 C22.5695223,13.9669017 22.1213413,14.0543721 21.6182145,14.0638285 C21.2019019,14.1111105 21.0667938,13.8936165 21.212886,13.41134 C21.3013162,13.1181915 21.418011,12.6524707 21.5629738,12.0141636 C21.7079365,11.3758565 21.8065721,10.9290482 21.8588833,10.6737253 L22.1727494,9.14179585 L20.243653,9.14179585 Z M26.6345826,8.68789083 L27.2216283,5.82261536 L25.0372103,5.82261536 L24.4501646,8.68789083 L26.6345826,8.68789083 Z M27.9074836,2.4750658 L25.7230657,2.4750658 L25.1302077,5.36871033 L27.3146256,5.36871033 L27.9074836,2.4750658 Z M23.5386478,2.4750658 L22.0350874,2.4750658 C21.8173593,2.52234781 21.6726545,2.72092927 21.6009687,3.07081615 L21.1301696,5.36871033 L22.9457897,5.36871033 L23.5386478,2.4750658 Z M21.0371723,5.82261536 L20.6768076,7.58149733 C20.5917905,7.95029701 20.4973184,8.31909115 20.3933885,8.68789083 L22.2657467,8.68789083 L22.8527924,5.82261536 L21.0371723,5.82261536 Z" id="Combined-Shape"></path>
                    <path d="M44.5067192,3.21266147 C43.3845897,3.33559469 42.2285268,3.43961355 41.0384959,3.52472117 C41.1474052,3.68548 41.0577314,3.84623643 40.7694718,4.00699526 L40.4509072,4.17720964 L40.1544782,5.62403191 L41.9700983,5.62403191 L42.5634993,4.94317437 C42.8085826,4.71622073 43.04522,4.66893943 43.2734185,4.80132905 C43.9148377,5.13230312 44.4066538,5.50109727 44.7488813,5.90772255 C44.8541466,6.04011218 44.8059418,6.22923738 44.6042656,6.47510383 L44.2566393,6.78716354 L43.9892719,8.09214048 C43.8887552,8.53659138 43.7972118,8.98339967 43.7146392,9.43257876 C43.6320665,9.88175785 43.5371553,10.4373131 43.4299027,11.0992613 C43.3211744,11.6761018 43.0098307,12.1110898 42.4958623,12.4042382 C41.981894,12.6973867 41.3710417,12.8865119 40.6632873,12.9716195 C40.2183747,13.0661835 40.0018041,12.8770583 40.0135692,12.4042382 C40.022152,11.8084849 39.7007795,11.3924095 39.0494422,11.1559994 C38.8408897,12.0354448 38.6709033,12.9574301 38.5394778,13.9219831 C38.4319038,14.2624136 38.123421,14.4988201 37.6140202,14.6312097 C37.1046193,14.7635994 36.67971,14.8297932 36.3392795,14.8297932 C36.0250499,14.8865316 35.9469102,14.6217563 36.104858,14.0354594 C36.5299436,12.191461 36.8946865,10.5035186 37.1990977,8.97158147 L37.7919557,6.07793694 L36.0898118,6.07793694 C35.885415,6.10630614 35.7486908,6.21978126 35.6796351,6.4183657 L34.5171683,12.0921785 C34.4125458,12.6028242 33.7283725,12.8959683 32.4646278,12.9716195 C32.1809357,12.9716195 32.0623409,12.8581444 32.1088398,12.6311907 C32.3115799,11.7801146 32.497111,10.9668762 32.6654386,10.1914512 L33.281546,7.18433043 C33.4149995,6.57912071 33.5200822,5.97392006 33.5967972,5.36871033 C33.6306574,5.01882346 33.8224127,4.8675233 34.1720687,4.91480531 C34.7637162,4.98100012 35.4528689,5.21740663 36.2395473,5.62403191 L37.884953,5.62403191 C38.0380119,4.87697616 38.1452629,4.21503795 38.2067092,3.63819743 C36.6178028,3.68547944 34.9779949,3.70439196 33.2872364,3.69493555 C33.0622202,3.68547915 32.9595164,3.60982907 32.9791218,3.46798304 C32.9987272,3.32613701 33.1173922,3.23157441 33.3351203,3.1842924 C35.6913805,2.85331833 37.7332424,2.5105289 39.4607673,2.15591383 C41.1882921,1.80129876 42.7037405,1.39704364 44.0071577,0.943136341 C44.1172214,0.867485125 44.2796844,0.905310166 44.4945516,1.0566126 C44.6374116,1.23628423 44.8049014,1.50342358 44.9970261,1.85803866 C45.1891509,2.21265373 45.34211,2.55071503 45.4559082,2.8722327 C45.5003293,3.07081714 45.4646601,3.21029697 45.3488995,3.29067639 C45.2331389,3.37105581 45.1223968,3.39233239 45.0166698,3.35450679 L44.5067192,3.21266147 Z M42.1607916,6.07793694 L40.0614808,6.07793694 L39.1198828,10.6737253 C39.1804961,10.6548125 39.2580836,10.6453562 39.3526476,10.6453562 C39.7457107,10.7115511 40.1494815,10.7139151 40.563972,10.6524485 C40.9784626,10.5909819 41.235616,10.4089489 41.3354402,10.106344 L42.1607916,6.07793694 Z" id="Combined-Shape"></path>
                    <path d="M53.828359,10.53188 L47.0197837,10.53188 L47.322025,9.05668866 L54.1306004,9.05668866 L53.828359,10.53188 Z M54.4677157,7.41128295 L47.6591404,7.41128295 L47.9613817,5.93609162 L54.7699571,5.93609162 L54.4677157,7.41128295 Z" id="Combined-Shape"></path>
                    <path d="M68.4912065,2.30485142 L65.7677764,2.30485142 C65.5842298,2.32376422 65.4625433,2.45615186 65.4027131,2.70201831 L64.0658763,9.22690305 C63.8565408,9.87939478 63.3178553,10.2009076 62.4498038,10.1914512 C62.1465063,10.3332973 61.7148387,10.5247865 61.1547879,10.7659248 C60.5947371,11.007063 60.0005714,11.2647461 59.3722729,11.5389818 C58.7439744,11.8132174 58.1862383,12.0661724 57.699048,12.2978542 C57.2118577,12.5295361 56.8961447,12.6973847 56.7518994,12.8014051 C56.4027957,13.0283588 56.1588703,13.0189025 56.0201161,12.7730361 C55.8369408,12.3285852 55.6995738,11.7990346 55.6080111,11.1843685 C55.5298702,10.9195892 55.6593065,10.7493765 55.9963238,10.6737253 C56.5452568,10.5791613 57.1509192,10.4845987 57.8133291,10.3900347 L58.5340584,6.87227073 L57.7964628,6.87227073 C57.4635513,6.88172713 57.1590135,6.89118339 56.8828404,6.90063979 L56.5961078,6.36162758 C57.0138961,6.39945318 57.435553,6.4183657 57.8610911,6.4183657 L58.6270558,6.4183657 L59.3535975,2.8722327 L58.3039421,2.8722327 C58.1034202,2.8816891 57.8745325,2.89114536 57.6172722,2.90060176 L57.3305397,2.36158954 C57.6443075,2.39941515 57.9903143,2.41832767 58.3685704,2.41832767 L61.5175365,2.41832767 C61.725256,2.09681 61.9783162,1.78475342 62.2767248,1.48214856 C62.4573199,1.29302052 62.6823327,1.30247678 62.95177,1.51051762 C63.1421429,1.64290725 63.3172444,1.80366367 63.4770797,1.99279171 C63.4816472,1.83203288 63.4915652,1.73747028 63.506834,1.70910107 C63.5164308,1.29301938 63.7348482,1.10389418 64.1620929,1.14171979 C64.791566,1.2079146 65.3766998,1.44432111 65.9175118,1.85094639 L68.3572514,1.85094639 L69.052504,1.22682698 C69.3371195,1.03769894 69.5584883,1.01878642 69.7166171,1.17008885 C70.1633268,1.48215012 70.554768,1.87931304 70.8909523,2.36158954 C70.9714924,2.52234838 70.9290999,2.6831048 70.7637736,2.84386363 L70.3652215,3.12755427 L69.9060471,5.36871033 C69.572805,6.99521147 69.3565965,8.28126285 69.2574151,9.22690305 C69.0713289,9.76591796 68.4438932,10.059062 67.3750889,10.106344 C67.061321,10.0685184 66.9373757,9.88884948 67.0032491,9.56733181 L67.1892438,8.65952176 C66.9805103,8.80136779 66.8491367,8.98103674 66.7951188,9.19853398 L66.1615744,12.290762 C66.0367943,12.669018 66.1115209,12.8581432 66.3857565,12.8581432 L66.7545544,12.8581432 C66.9606578,12.8675996 67.2332756,12.7139354 67.5724159,12.397146 C67.9115563,12.0803565 68.2531836,11.5437137 68.5973079,10.7872016 C68.7100017,10.5602479 68.8230275,10.4585931 68.9363889,10.4822341 C69.0497503,10.5058751 69.0955434,10.6169862 69.0737697,10.8155706 C68.8084788,11.695016 68.8071841,12.347498 69.0698856,12.7730361 C69.484582,13.0567281 69.4572725,13.4207941 68.987956,13.865245 C68.6783845,14.1300243 68.2992106,14.3191495 67.8504231,14.4326263 C67.4016355,14.5461031 67.0117606,14.6028407 66.6807865,14.6028407 L65.0637498,14.6028407 C64.0858655,14.6217535 63.7283293,14.059106 63.9911305,12.9148814 L64.1364388,12.2056548 C63.447226,12.7541261 62.626351,13.2529438 61.6737894,13.7021229 C60.7212277,14.151302 59.7288953,14.5177321 58.6967622,14.8014241 C58.0474528,14.9243574 58.0083829,14.7919697 58.5795514,14.4042572 C60.0113929,13.6004631 61.2552873,12.7446715 62.3112719,11.8368569 C62.9934275,11.1843652 63.5578314,10.4373207 64.0045005,9.59570088 C64.4511696,8.7540811 64.805277,7.69497997 65.0668333,6.4183657 C65.2067918,5.64294074 65.3411667,4.84861489 65.4699622,4.03536432 C65.5132788,3.68547745 65.705034,3.53417729 66.0452336,3.5814593 C66.5820802,3.63819771 67.1131064,3.72330405 67.6383283,3.83678087 C67.9591534,3.9786269 67.9562925,4.17720837 67.6297455,4.43253122 L67.3562944,4.65948373 C67.2100618,5.55784192 66.9644706,6.66422435 66.6195132,7.97866423 C66.8292606,8.01648984 67.0404806,8.13942122 67.2531795,8.34746206 L68.4912065,2.30485142 Z M61.8277622,9.76591526 C61.8524874,9.73754606 61.8716307,9.69026476 61.8851929,9.62406994 C62.0106657,9.10396783 62.3046926,7.7611789 62.7672824,5.59566285 L63.3252665,2.8722327 L61.7082298,2.8722327 C61.7038932,2.98570952 61.642819,3.09918464 61.5250055,3.21266147 C61.3356466,3.25994348 61.2139601,3.39233112 61.1599422,3.60982836 L60.5787089,6.44673477 C60.7810777,6.05902229 60.9924381,5.76587822 61.2127962,5.56729378 C61.3914539,5.38762215 61.5541477,5.37816588 61.7008827,5.53892472 C61.9870644,5.80370397 62.2371234,6.1063043 62.4510671,6.44673477 C62.5350204,6.68314482 62.4567403,6.83444498 62.2162244,6.90063979 L60.4857115,6.90063979 L59.8231055,10.1347131 C60.5310908,10.0023235 61.199303,9.87939209 61.8277622,9.76591526 Z" id="Combined-Shape"></path>
                    <path d="M82.0071903,7.01411605 L80.0213558,7.01411605 C79.9319115,7.12759287 79.8592128,7.29780556 79.8032575,7.5247592 L79.4428929,9.28364117 L81.4570964,9.28364117 C82.0102756,8.70680065 82.4092855,8.32855025 82.6541379,8.14887861 C82.737539,8.111053 82.8321016,8.111053 82.9378286,8.14887861 C83.2661726,8.30018104 83.6804011,8.67843145 84.1805266,9.28364117 C84.3532315,9.54842043 84.2844076,9.69972059 83.974053,9.7375462 L79.3498955,9.7375462 L78.5158256,13.8085069 L78.8278853,13.8085069 C79.6348212,12.7777591 80.4002306,11.5342609 81.1241367,10.077975 C81.1345166,9.88884693 81.3124789,9.85102189 81.6580292,9.96449871 C82.5246955,10.2576472 83.2153238,10.57916 83.7299349,10.9290469 C83.850469,11.0330673 83.8800826,11.165455 83.8187767,11.3262138 C83.7574707,11.4869726 83.6265588,11.572079 83.4260369,11.5815354 C83.2160586,11.5909918 83.0191837,11.6288168 82.8354063,11.6950116 C81.5357236,12.5460878 80.4646719,13.2505792 79.6222191,13.8085069 L81.4945774,13.8085069 C82.1444889,13.174928 82.580586,12.7541244 82.8028816,12.5460835 C82.9604581,12.4231503 83.1212145,12.4231503 83.2851557,12.5460835 C83.6828768,12.8203192 84.1092368,13.2316665 84.5642486,13.7801378 C84.7350161,14.0543735 84.6453423,14.2151299 84.2952246,14.2624119 L72.1532651,14.2624119 C71.8167096,14.2434991 71.2983218,14.2813242 70.5980864,14.3758882 L70.4087783,13.6382925 C71.094759,13.7517693 71.8774603,13.8085069 72.7569056,13.8085069 L76.1895624,13.8085069 L77.0236323,9.7375462 L74.6122618,9.7375462 C73.8028862,9.7186334 73.1521108,9.75645844 72.6599161,9.85102246 L72.470608,9.11342679 C73.0147427,9.22690361 73.797444,9.28364117 74.8187354,9.28364117 L77.1166296,9.28364117 L77.5816163,7.01411605 L76.4752228,7.01411605 C75.9437268,7.02357245 75.5199017,7.06139749 75.2037346,7.12759231 L75.0683943,6.95737792 C73.9231058,7.56258765 72.8107707,8.00703187 71.7313557,8.29072393 C71.3812379,8.33800594 71.3477495,8.22453082 71.6308893,7.95029516 C74.3943362,5.95499435 76.5350137,3.67603566 78.052986,1.11335073 C78.1678481,0.829658666 78.3499162,0.725639805 78.5991958,0.801291021 C79.585613,0.971506256 80.4922597,1.20791276 81.3191629,1.51051762 C81.6754144,1.75638407 81.6119411,1.97387806 81.1287411,2.1630061 C81.0227832,2.1724625 80.8807085,2.2197438 80.7025125,2.30485142 C82.0193424,4.1393934 83.8073088,5.15121323 86.0664654,5.34034127 C86.2800877,5.35925407 86.3969759,5.43490415 86.4171336,5.56729378 C86.4147344,5.6713142 86.2930478,5.80370185 86.0520703,5.96446068 C85.4826083,6.38999877 84.9197503,7.01411194 84.3634793,7.83681891 C84.260242,8.06377255 84.0725925,8.1488789 83.8005252,8.09214048 C83.5437266,8.00703287 83.2665437,7.83682018 82.968968,7.58149733 C82.6879306,7.34036435 82.4726441,7.10766917 82.3231029,6.88340558 C82.3353199,6.93961913 82.2300162,6.98318897 82.0071903,7.01411605 Z M81.2874527,5.68077004 C81.0434332,5.30251396 80.830612,4.82970095 80.6489826,4.26231684 C80.4673532,3.69493272 80.3523469,3.13701337 80.3039604,2.58854206 C79.6456065,3.40179263 78.8668105,4.19139035 77.9675492,4.95735891 C77.0682878,5.72332746 76.3504053,6.23869364 75.8138801,6.5034729 C76.0878849,6.55075491 76.339329,6.56966743 76.5682201,6.56021102 L79.8022934,6.56021102 C80.0362138,6.29543177 80.3554678,5.98337519 80.7600652,5.62403191 C80.938492,5.49164228 81.1142861,5.5105548 81.2874527,5.68077004 Z M73.4403978,12.6879289 C73.4339427,12.0732627 73.1876681,11.3829557 72.7015666,10.6169872 C72.5232801,10.3332951 72.6185353,10.1914512 72.987335,10.1914512 C74.4715284,10.2860152 75.3981015,10.7020907 75.7670822,11.43969 C76.0866125,12.2340278 75.8612737,12.8723254 75.091059,13.3546019 C74.6890918,13.5626427 74.3237685,13.6264725 73.9950781,13.546093 C73.6663878,13.4657136 73.4814963,13.1796618 73.4403978,12.6879289 Z" id="Combined-Shape"></path>
                </g>
            </g>
        </g>
    </g>
</svg>