<?xml version="1.0" encoding="UTF-8"?>
<svg width="70px" height="16px" viewBox="0 0 70 16" version="1.1" xmlns="http://www.w3.org/2000/svg" xmlns:xlink="http://www.w3.org/1999/xlink">
    <!-- Generator: Sketch 48.1 (47250) - http://www.bohemiancoding.com/sketch -->
    <title>名额仅剩</title>
    <desc>Created with Sketch.</desc>
    <defs></defs>
    <g id="2.-彩蛋计划--首页未购买-活动主页" stroke="none" stroke-width="1" fill="none" fill-rule="evenodd" transform="translate(-55.000000, -602.000000)">
        <g id="Group-8" transform="translate(21.000000, 576.000000)" fill="#E6CA9F">
            <path d="M35.9550987,28.2164502 C36.2273633,28.2164502 36.5053684,28.1528188 36.7670977,28.0305952 L36.8649184,27.9849144 C37.1254396,27.8632551 37.3680966,27.6978422 37.5807579,27.4969456 L38.1811605,26.9297579 C38.6680285,26.4698241 39.2988838,26.2077922 39.9193304,26.2077922 L41.6952688,26.2077922 C41.8106992,26.2077922 41.8902804,26.301723 41.8730185,26.4175925 C41.8677068,26.4532468 41.8534306,26.488313 41.8315377,26.5194805 C41.76039,26.6207687 41.7777167,26.7484958 41.8702379,26.804767 C41.8987077,26.8220823 41.9322873,26.8311688 41.9678065,26.8311688 L50.3067979,26.8311688 C50.8784257,26.8311688 51.2725234,27.2963275 51.1870397,27.8701299 L51.1410436,28.178875 C51.0703877,28.6531477 50.850041,29.1149143 50.512386,29.4963132 L47.2176353,33.2179048 C46.9446721,33.5262309 46.6055064,33.7701684 46.233275,33.9258844 L45.2709663,34.3284481 C44.9698831,34.4544006 44.6546793,34.5194805 44.3457326,34.5194805 L35.464599,34.5194805 C34.9120255,34.5194805 34.5310644,34.0698271 34.6136986,33.5151515 C34.6963328,32.9604759 35.2112704,32.5108225 35.763844,32.5108225 L39.3242676,32.5108225 C39.7749267,32.5108225 40.1948912,32.1441014 40.2622847,31.691728 C40.2890371,31.5121546 40.2562599,31.3375573 40.1689972,31.1948052 L40.1386764,31.1452037 C39.9271336,30.799143 40.067014,30.3045109 40.451108,30.0404119 C40.6035773,29.9355756 40.7794174,29.8787879 40.9515676,29.8787879 L41.5044084,29.8787879 C42.1597133,29.8787879 42.7376357,30.170967 43.0818682,30.6763012 L44.1465582,32.239269 C44.2039763,32.3235589 44.3003738,32.3722944 44.4096787,32.3722944 C44.5223416,32.3722944 44.6374728,32.3400449 44.7415674,32.2793289 L45.0302511,32.1109463 C45.2834907,31.9632374 45.5135587,31.7736045 45.7086949,31.5517407 L46.7841304,30.3290043 C47.1677394,29.8928529 47.165113,29.2799971 46.7782641,28.9601527 C46.6292826,28.8369757 46.4370777,28.7705628 46.2295739,28.7705628 L40.2755563,28.7705628 C39.9273365,28.7705628 39.5718803,28.8931102 39.2710333,29.1168831 L39.1170533,29.2314149 C38.9106721,29.3849233 38.685296,29.5075225 38.449712,29.5944327 L37.899689,29.7973437 C37.629698,29.8969471 37.3507045,29.9480519 37.0769372,29.9480519 L36.1456392,29.9480519 C35.6692827,29.9480519 35.340868,29.5604197 35.4121044,29.0822511 L35.4791765,28.6320346 C35.51337,28.4025137 35.7264476,28.2164502 35.9550987,28.2164502 Z M34.024856,39.7835498 L34.4066512,37.2207792 C34.5890164,35.9966676 35.7254304,35.004329 36.944903,35.004329 L47.5711459,35.004329 C48.7906185,35.004329 49.6313603,35.9966676 49.4489951,37.2207792 L49.1593371,39.1650856 C49.0676702,39.7803929 48.7253174,40.3680104 48.2142208,40.7872922 L47.4603246,41.4057563 C46.9947793,41.7876699 46.4255335,42 45.8671892,42 L35.9027051,42 C34.6832325,42 33.8424908,41.0076614 34.024856,39.7835498 Z M46.2916586,39.8874459 C46.5408234,39.6890469 46.7083304,39.4064073 46.7525136,39.1098312 L46.8688392,38.3290043 C46.9714196,37.6404415 46.4985024,37.0822511 45.8125491,37.0822511 L38.3258779,37.0822511 C37.4684362,37.0822511 36.6693951,37.7799891 36.5411696,38.6406926 C36.4129442,39.5013961 37.0040907,40.1991342 37.8615323,40.1991342 L45.4360555,40.1991342 C45.7348731,40.1991342 46.0396555,40.0881048 46.2916586,39.8874459 Z M54.1673418,26.6233766 L55.0643624,26.6233766 C55.2358507,26.6233766 55.3956589,26.483829 55.421304,26.3116883 C55.4469491,26.1395476 55.6067573,26 55.7782457,26 L57.9172946,26 C58.0887829,26 58.2070122,26.1395476 58.1813671,26.3116883 C58.155722,26.483829 58.2739513,26.6233766 58.4454397,26.6233766 L59.2389578,26.6233766 C59.8486941,26.6233766 60.269065,27.1195459 60.1778824,27.7316017 L60.0850133,28.3549784 C59.9938307,28.9670342 59.4256237,29.4632035 58.8158874,29.4632035 L58.1603724,29.4632035 C57.912667,29.4632035 57.7418914,29.2616347 57.7789343,29.012987 C57.8159772,28.7643393 57.6452015,28.5627706 57.3974962,28.5627706 L55.2929481,28.5627706 C55.0642969,28.5627706 54.8512193,28.748834 54.8170258,28.978355 C54.7828324,29.2078759 54.9404715,29.3939394 55.1691226,29.3939394 L55.9564188,29.3939394 C56.0880805,29.3939394 56.1788521,29.5010783 56.1591629,29.6332409 C56.1536283,29.6703912 56.1395529,29.7070314 56.1180515,29.7402597 C56.04156,29.8584695 56.0678781,30.0022115 56.1768346,30.0613164 C56.2074618,30.0779305 56.2426745,30.0865801 56.2796841,30.0865801 L59.0680262,30.0865801 C59.4491113,30.0865801 59.7118431,30.3966859 59.654854,30.7792208 C59.5886757,31.2234377 59.3528131,31.650205 58.9972359,31.9691085 L57.0815038,33.6872544 C57.0380064,33.7262656 57.0292237,33.7884152 57.0617783,33.8268398 C57.1004303,33.8724613 57.1500624,33.9075303 57.2071819,33.9295791 L57.4925009,34.0397153 C57.7212081,34.1279988 57.9698527,34.1731602 58.2272066,34.1731602 L58.4937183,34.1731602 C58.8557492,34.1731602 59.1053444,34.4677607 59.0512048,34.8311688 L59.0254078,35.004329 C58.9570209,35.4633709 58.5308656,35.8354978 58.0735634,35.8354978 L57.0294529,35.8354978 C56.7170607,35.8354978 56.418137,35.7689586 56.1524306,35.6402762 L55.9119475,35.5238095 C55.502659,35.3255899 55.0002649,35.3255899 54.5319159,35.5238095 L54.2567309,35.6402762 C53.952683,35.7689586 53.6339335,35.8354978 53.3215413,35.8354978 L52.2774309,35.8354978 C51.8201286,35.8354978 51.5048505,35.4633709 51.5732374,35.004329 L51.6093532,34.7619048 C51.6577939,34.4367501 51.9596539,34.1731602 52.2835763,34.1731602 L52.5608413,34.1731602 C52.7660057,34.1731602 52.9744451,34.1444573 53.1801443,34.0878799 L53.3737384,34.034632 C53.5479734,33.9867088 53.6707735,33.8118864 53.6480201,33.6441552 C53.6417918,33.5982424 53.6248313,33.5559013 53.5984138,33.5203159 L53.3889021,33.2380952 C53.2682794,33.0756117 53.3192727,32.8260389 53.5027989,32.6806589 C53.5845578,32.6158937 53.6832571,32.5800866 53.7800182,32.5800866 L54.8393964,32.5800866 C55.2767656,32.5800866 55.7222039,32.4056814 56.0777197,32.0952381 C56.2047391,31.9843223 56.2315298,31.8044923 56.1375583,31.6935765 C56.0924316,31.6403128 56.0249222,31.6103896 55.9498815,31.6103896 L55.0828787,31.6103896 C54.9266754,31.6103896 54.7675903,31.6726772 54.6406203,31.7835498 C54.510212,31.8974249 54.3591317,31.983223 54.1993443,32.0341495 L53.4952527,32.2585535 C53.2588825,32.333888 53.0173869,32.3722944 52.780061,32.3722944 L52.5518649,32.3722944 C52.2279425,32.3722944 52.0046204,32.1087044 52.0530612,31.7835498 L52.1768867,30.952381 C52.2082307,30.7419868 52.4035518,30.5714286 52.6131487,30.5714286 L52.761219,30.5714286 C52.9134196,30.5714286 53.0688291,30.5358575 53.2151403,30.4675325 C53.3599211,30.3999221 53.4865874,30.2921973 53.5778214,30.1590864 L53.7462009,29.9134199 C53.8479934,29.7649041 53.8202309,29.5796798 53.6841917,29.4997097 C53.6434283,29.4757471 53.5957323,29.4632035 53.5453805,29.4632035 L53.2957612,29.4632035 C52.8765675,29.4632035 52.5875625,29.1220871 52.6502505,28.7012987 L52.7792354,27.8354978 C52.8789663,27.1660618 53.5004428,26.6233766 54.1673418,26.6233766 Z M50.9611988,39.5757576 L51.0850243,38.7445887 C51.2673895,37.5204771 52.4038035,36.5281385 53.6232761,36.5281385 L56.9353518,36.5281385 C58.0023903,36.5281385 58.7380393,37.3964348 58.5784698,38.4675325 L58.4310586,39.4570192 C58.3406901,40.0636105 58.0066044,40.643696 57.5066902,41.0620348 L57.364798,41.1807732 C56.8957551,41.5732784 56.3178901,41.7922078 55.7509146,41.7922078 L52.839048,41.7922078 C51.6195754,41.7922078 50.7788337,40.7998692 50.9611988,39.5757576 Z M54.225225,40.1298701 L55.5623845,40.1298701 C55.6561065,40.1298701 55.7515575,40.0924976 55.8277395,40.025974 C55.9039214,39.9594505 55.9545939,39.8692252 55.9686095,39.7751466 L56.0705455,39.0909091 C56.1389324,38.6318672 55.8236543,38.2597403 55.3663521,38.2597403 L54.5038324,38.2597403 C53.9893673,38.2597403 53.5099427,38.6783831 53.4330074,39.1948052 C53.3560721,39.7112273 53.71076,40.1298701 54.225225,40.1298701 Z M60.8279235,27.0735931 C60.9162566,26.480664 61.4667072,26 62.0573892,26 L67.5775154,26 C68.1681975,26 68.5754317,26.480664 68.4870986,27.0735931 C68.3987655,27.6665222 67.848315,28.1471861 67.2576329,28.1471861 L66.1881085,28.1471861 C65.8451318,28.1471861 65.5255153,28.4262814 65.4742252,28.7705628 C65.422935,29.1148442 65.6593936,29.3939394 66.0023702,29.3939394 L66.7958884,29.3939394 C67.577113,29.3939394 68.1157132,30.0296563 67.9988855,30.8138528 L67.1063101,36.8051948 C67.0208265,37.3789971 66.4881324,37.8441558 65.9165046,37.8441558 C65.3448768,37.8441558 64.9507791,37.3789971 65.0362628,36.8051948 L65.5522023,33.3419913 C65.700374,32.3474006 65.0172714,31.5411255 64.0264499,31.5411255 C63.0356284,31.5411255 62.112292,32.3474006 61.9641203,33.3419913 L61.437862,36.8744589 C61.3523783,37.4482612 60.8196842,37.9134199 60.2480565,37.9134199 C59.6764287,37.9134199 59.282331,37.4482612 59.3678146,36.8744589 L60.2913464,30.6753247 C60.3967763,29.9676351 61.0537656,29.3939394 61.7587732,29.3939394 L62.4142882,29.3939394 C62.7572649,29.3939394 63.0768813,29.1148442 63.1281715,28.7705628 C63.1794617,28.4262814 62.9430031,28.1471861 62.6000264,28.1471861 L61.7375067,28.1471861 C61.1468247,28.1471861 60.7395904,27.6665222 60.8279235,27.0735931 Z M60.4209792,39.5967375 L61.771386,37.7359831 C62.0163119,37.3984946 62.1758779,37.0154292 62.2339744,36.6254612 L62.7386158,33.2380952 C62.8269489,32.6451662 63.3773995,32.1645022 63.9680815,32.1645022 C64.5587636,32.1645022 64.9659979,32.6451662 64.8776647,33.2380952 L64.3841912,36.5504975 C64.3255578,36.9440695 64.3723819,37.3305437 64.5198513,37.6702021 L65.4287948,39.7637222 C65.4929828,39.9115629 65.6068415,40.0277568 65.7536478,40.0952381 C65.9027782,40.1637876 66.0690657,40.1991342 66.2424254,40.1991342 L66.3246831,40.1991342 C66.5152257,40.1991342 66.6465916,40.3541871 66.618097,40.5454545 L66.5252279,41.1688312 C66.4682388,41.5513661 66.1131094,41.8614719 65.7320242,41.8614719 L65.5105887,41.8614719 C65.2016419,41.8614719 64.905829,41.7963919 64.642274,41.6704394 L64.4622694,41.5844156 C64.085286,41.4042559 63.7929959,41.1015367 63.6265246,40.7188509 L63.4344779,40.2773721 C63.2941967,39.9548924 62.8972153,39.8467181 62.547795,40.0357579 C62.4428824,40.0925167 62.3500904,40.1724623 62.277772,40.2683983 L61.9777764,40.6663657 C61.6982816,41.0371372 61.31582,41.3233053 60.8896656,41.4805195 L60.6410546,41.5722355 C60.3710636,41.6718388 60.0920701,41.7229437 59.8183028,41.7229437 L59.4045167,41.7229437 C58.9472144,41.7229437 58.6319363,41.3508168 58.7003232,40.8917749 L58.762236,40.4761905 C58.7964294,40.2466695 59.0095071,40.0606061 59.2381582,40.0606061 L59.3573928,40.0606061 C59.5523199,40.0606061 59.7509008,40.0254138 59.9436521,39.95671 C60.1321243,39.8895313 60.3008144,39.762315 60.4209792,39.5967375 Z M70.9153454,29.5324675 C71.1598147,29.5324675 71.4092002,29.4424109 71.6162073,29.2793765 L71.6466364,29.2554113 C71.8769931,29.0739871 72.0631362,28.8414579 72.185912,28.5817501 L72.7165128,27.4593695 C73.0693265,26.7130621 73.8374621,26.2077922 74.6192207,26.2077922 C75.1557075,26.2077922 75.5255778,26.6443551 75.4453493,27.1828827 C75.4310174,27.2790849 75.4025817,27.3747575 75.3609665,27.4667916 L74.6322371,29.0784116 C74.5376426,29.2876117 74.4730064,29.5050824 74.4404289,29.7237569 L72.8179202,40.6147186 C72.7153398,41.3032814 72.0761069,41.8614719 71.3901536,41.8614719 C70.7042002,41.8614719 70.231283,41.3032814 70.3338634,40.6147186 L71.5772777,32.2683983 C71.6371162,31.8667366 71.3612479,31.5411255 70.9611084,31.5411255 C70.560969,31.5411255 70.2851006,31.2155145 70.3449391,30.8138528 L70.4790834,29.9134199 C70.5104274,29.7030257 70.7057486,29.5324675 70.9153454,29.5324675 Z M77.4276478,26.3463203 L85.6043348,26.3463203 C86.1950168,26.3463203 86.6022511,26.8269843 86.513918,27.4199134 L86.4260434,28.0097647 C86.3785578,28.3285077 86.2631439,28.6435011 86.087674,28.9332591 L81.9292094,35.8002401 C81.5460029,36.433039 81.4609137,37.1653318 81.6994378,37.7776944 L82.1875505,39.0308256 C82.274453,39.2539302 82.4019396,39.4546824 82.5644587,39.6243402 L82.6174447,39.6796537 C82.8096604,39.8803126 83.0813611,39.991342 83.3801787,39.991342 L83.7785378,39.991342 C84.2548942,39.991342 84.583309,40.3789742 84.5120726,40.8571429 L84.5017538,40.9264069 C84.4248185,41.442829 83.9453938,41.8614719 83.4309288,41.8614719 L81.9809354,41.8614719 C81.5537529,41.8614719 81.1542728,41.7370853 80.8309197,41.5033902 L80.5539154,41.3031925 C80.2443895,41.0794906 80.0170656,40.7646141 79.897279,40.393656 L79.8680149,40.3030303 C79.8057174,40.1101061 79.5883755,40.0277925 79.3825681,40.1191776 C79.3081461,40.1522234 79.242174,40.205401 79.193151,40.2718595 L78.9465193,40.6062087 C78.6756065,40.9734748 78.3141952,41.2703103 77.9056623,41.4610889 L77.4010414,41.6967391 C77.0715165,41.8506221 76.7215,41.9307359 76.378711,41.9307359 L74.933416,41.9307359 C74.418951,41.9307359 74.0642631,41.5120931 74.1411984,40.995671 L74.1669954,40.8225108 C74.2296834,40.4017224 74.6203257,40.0606061 75.0395194,40.0606061 L75.2772868,40.0606061 C75.6200758,40.0606061 75.9700923,39.9804923 76.2996172,39.8266092 C76.6560839,39.6601447 76.9540266,39.4116518 77.1735821,39.1043208 L77.953337,38.0128297 C78.4011938,37.3859254 78.5431488,36.625149 78.3339164,35.9731986 L76.6933214,30.8612433 C76.5595749,30.4445004 76.8114491,29.9473065 77.2558981,29.7507297 C77.3746098,29.6982243 77.4997548,29.6709957 77.6223617,29.6709957 C78.4241483,29.6709957 79.0868477,30.1310486 79.3284593,30.8553867 L79.6727148,31.8874459 C79.8582359,32.4436279 80.4903319,32.6761101 81.0845408,32.4067095 C81.3447903,32.2887183 81.5667676,32.0864321 81.7093457,31.8373294 L81.9978164,31.3333333 C82.5772164,30.3210455 82.2813595,29.15166 81.3370014,28.7214376 C81.1071732,28.6167345 80.8512771,28.5627706 80.584605,28.5627706 L77.0974465,28.5627706 C76.4877102,28.5627706 76.0673394,28.0666013 76.158522,27.4545455 C76.2497045,26.8424896 76.8179115,26.3463203 77.4276478,26.3463203 Z M95.6666313,26.6580087 C95.8029836,26.5943343 95.9025131,26.4641741 95.9237245,26.3217938 C95.9451762,26.1778011 96.0694715,26.0692641 96.2028513,26.0692641 L97.2723757,26.0692641 C97.729678,26.0692641 98.0449561,26.441391 97.9765692,26.9004329 C97.8992099,27.4197012 97.5684355,27.904613 97.0951043,28.1926512 L96.8709669,28.3290465 C96.472095,28.5717737 96.026628,28.7012987 95.5907036,28.7012987 L94.4652065,28.7012987 C94.2746639,28.7012987 94.0970992,28.8563516 94.0686047,29.047619 C94.0401101,29.2388865 94.171476,29.3939394 94.3620186,29.3939394 L96.742573,29.3939394 C97.257038,29.3939394 97.6117259,29.8125822 97.5347906,30.3290043 C97.4578553,30.8454264 96.9784307,31.2640693 96.4639657,31.2640693 L95.5669452,31.2640693 C94.5570694,31.2640693 93.6159765,32.0858496 93.4649554,33.0995671 L92.3608448,40.5108225 C92.2668128,41.1420051 91.6808493,41.6536797 91.0520587,41.6536797 C90.4232682,41.6536797 89.9897607,41.1420051 90.0837928,40.5108225 L91.1724252,33.2034632 C91.3319947,32.1323655 90.5963457,31.2640693 89.5293071,31.2640693 L88.5287843,31.2640693 C88.0143192,31.2640693 87.6596313,30.8454264 87.7365666,30.3290043 C87.8135019,29.8125822 88.2929266,29.3939394 88.8073916,29.3939394 L91.36045,29.3939394 C91.5700468,29.3939394 91.765368,29.2233812 91.796712,29.012987 C91.828056,28.8025928 91.6835535,28.6320346 91.4739567,28.6320346 L88.9208983,28.6320346 C88.4064333,28.6320346 88.0517454,28.2133918 88.1286807,27.6969697 C88.205616,27.1805476 88.6850406,26.7619048 89.1995056,26.7619048 L95.2127101,26.7619048 C95.3649106,26.7619048 95.5203202,26.7263337 95.6666313,26.6580087 Z M98.0618643,39.991342 L99.0456446,39.991342 C99.2330886,39.991342 99.4239907,39.9165969 99.5763546,39.7835498 C99.7287185,39.6505027 99.8300634,39.4700521 99.8580946,39.281895 L101.640742,27.3160173 C101.737623,26.665708 102.341343,26.1385281 102.989188,26.1385281 C103.637033,26.1385281 104.083677,26.665708 103.986795,27.3160173 L102.251562,38.9636315 C102.17274,39.4927231 101.907967,40.0043618 101.505097,40.4060782 L100.960675,40.9489402 C100.467997,41.4402073 99.8134743,41.7229437 99.1688894,41.7229437 L97.8038945,41.7229437 C97.3275381,41.7229437 96.9991233,41.3353115 97.0703597,40.8571429 C97.1415961,40.3789742 97.5855078,39.991342 98.0618643,39.991342 Z M99.9808449,26.4155844 C100.590581,26.4155844 101.010952,26.9117537 100.919769,27.5238095 L99.3306757,38.1904762 C99.2394932,38.802532 98.6712861,39.2987013 98.0615498,39.2987013 C97.4518135,39.2987013 97.0314427,38.802532 97.1226253,38.1904762 L98.711719,27.5238095 C98.8029016,26.9117537 99.3711086,26.4155844 99.9808449,26.4155844 Z M94.0288591,36.4935065 L93.9516867,36.3761302 C93.692247,35.9815321 93.5919601,35.4892318 93.6675942,34.9815436 L93.9221695,33.2727273 C94.019051,32.622418 94.6227709,32.0952381 95.2706157,32.0952381 L96.0986347,32.0952381 C96.2891773,32.0952381 96.4205431,32.250291 96.3920486,32.4415584 C96.363554,32.6328259 96.4949199,32.7878788 96.6854625,32.7878788 L96.7544641,32.7878788 C96.9831152,32.7878788 97.1407543,32.9739423 97.1065608,33.2034632 L96.9724165,34.1038961 C96.9382231,34.333417 96.7251455,34.5194805 96.4964943,34.5194805 L96.3584912,34.5194805 C96.2060571,34.5194805 96.0640054,34.6435228 96.0412097,34.7965368 L96.0329708,34.8518399 C96.0115854,34.9953876 96.0395062,35.1346613 96.1121407,35.2467532 C96.1830618,35.3562009 96.3056296,35.4199134 96.4452597,35.4199134 L96.4658524,35.4199134 C96.5992322,35.4199134 96.6911884,35.5284505 96.6712422,35.6623377 L96.5732137,36.3203463 C96.4991278,36.8176417 96.0374596,37.2207792 95.5420489,37.2207792 L95.4391852,37.2207792 C94.8495753,37.2207792 94.3313088,36.9535211 94.0288591,36.4935065 Z M87.8048966,32.6493506 L87.9428998,32.6493506 C88.0953338,32.6493506 88.2373856,32.5253083 88.2601812,32.3722944 C88.2829769,32.2192804 88.4250286,32.0952381 88.5774627,32.0952381 L89.508984,32.0952381 C90.1758831,32.0952381 90.6356637,32.6379232 90.5359328,33.3073593 L90.3028977,34.871589 C90.2054201,35.5258997 89.8220499,36.1460522 89.2574315,36.5627706 L89.0537106,36.7131273 C88.6090985,37.0412746 88.0851036,37.2207792 87.5718155,37.2207792 L87.5378659,37.2207792 C87.0805637,37.2207792 86.7652855,36.8486523 86.8336725,36.3896104 L86.9213822,35.8008658 C86.9470273,35.6287251 87.1068355,35.4891775 87.2783238,35.4891775 L87.393665,35.4891775 C87.5186276,35.4891775 87.6458957,35.4393474 87.7474717,35.3506494 C87.8490476,35.2619513 87.9166109,35.1416509 87.9352983,35.0162128 L87.9577064,34.8658009 C87.9862009,34.6745334 87.854835,34.5194805 87.6642924,34.5194805 L87.5607901,34.5194805 C87.3130847,34.5194805 87.142309,34.3179117 87.1793519,34.0692641 L87.3289744,33.0649351 C87.3631679,32.8354141 87.5762455,32.6493506 87.8048966,32.6493506 Z M88.2539504,41.4458874 L88.1277256,41.5190057 C87.7415117,41.7427279 87.3149955,41.8614719 86.8976224,41.8614719 L86.7775053,41.8614719 C86.3583116,41.8614719 86.0693067,41.5203555 86.1319947,41.0995671 L86.2455014,40.3376623 C86.268297,40.1846484 86.4103488,40.0606061 86.5627829,40.0606061 L86.684497,40.0606061 C86.785964,40.0606061 86.8895703,40.036892 86.9871111,39.991342 C87.0809888,39.9475026 87.1561693,39.8666229 87.1919245,39.7710024 L87.5368798,38.8484848 C87.7716202,38.2207165 88.3936439,37.7748918 89.0347788,37.7748918 C89.5360055,37.7748918 89.8763454,38.1765995 89.8025223,38.672131 C89.793173,38.7348875 89.7772903,38.7974708 89.7551351,38.8588533 L89.2461304,40.2690841 C89.0704472,40.7558259 88.712691,41.1801527 88.2539504,41.4458874 Z M94.1484686,37.7748918 L94.1877395,37.7748918 C94.7729502,37.7748918 95.2235022,38.1746912 95.2805347,38.7445887 L95.353802,39.4767119 C95.3693592,39.6321679 95.4282867,39.7741388 95.5242841,39.8874459 L95.5672536,39.9381633 C95.6336756,40.0165621 95.7330426,40.0606061 95.843495,40.0606061 C95.9387663,40.0606061 96.0044493,40.1381325 95.990202,40.2337662 L95.8870141,40.9264069 C95.8271755,41.3280686 95.4542897,41.6536797 95.0541502,41.6536797 L94.8816463,41.6536797 C94.519215,41.6536797 94.1756975,41.5641255 93.8814109,41.3929208 L93.853397,41.3766234 C93.5508856,41.2006338 93.3605553,40.890227 93.3316407,40.5256987 L93.1937737,38.7876007 C93.1584261,38.3419721 93.501989,37.8979315 93.9611428,37.7958083 C94.0236385,37.7819083 94.0864773,37.7748918 94.1484686,37.7748918 Z" id="名额仅剩"></path>
        </g>
    </g>
</svg>