<?xml version="1.0" encoding="UTF-8"?>
<svg width="49px" height="49px" viewBox="0 0 49 49" version="1.1" xmlns="http://www.w3.org/2000/svg" xmlns:xlink="http://www.w3.org/1999/xlink">
    <!-- Generator: Sketch 49 (51002) - http://www.bohemiancoding.com/sketch -->
    <title>即赠</title>
    <desc>Created with Sketch.</desc>
    <defs>
        <filter x="-12.8%" y="-12.8%" width="125.6%" height="125.6%" filterUnits="objectBoundingBox" id="filter-1">
            <feGaussianBlur stdDeviation="1" in="SourceGraphic"></feGaussianBlur>
        </filter>
        <linearGradient x1="50%" y1="24.0384615%" x2="50%" y2="99.2627298%" id="linearGradient-2">
            <stop stop-color="#ECC495" offset="0%"></stop>
            <stop stop-color="#F5D7B2" offset="100%"></stop>
        </linearGradient>
        <filter x="-12.8%" y="-12.8%" width="125.6%" height="125.6%" filterUnits="objectBoundingBox" id="filter-3">
            <feGaussianBlur stdDeviation="1" in="SourceGraphic"></feGaussianBlur>
        </filter>
    </defs>
    <g id="彩蛋计划-V3.1（满额即开）" stroke="none" stroke-width="1" fill="none" fill-rule="evenodd">
        <g id="2.-彩蛋计划--首页未购买-活动主页" transform="translate(-102.000000, -289.000000)">
            <g id="2" transform="translate(27.000000, 290.000000)">
                <g id="即赠" transform="translate(75.000000, 0.000000)">
                    <g id="再赠">
                        <polygon id="Rectangle-4" stroke="#3F3F45" stroke-width="0.5" points="6 0 38.5 2 48.5 47.5 16 45"></polygon>
                        <polygon id="Rectangle-4" stroke="#3F3F45" stroke-width="0.5" points="0.818359375 5 34.1638021 6.66666667 48.5 47.5 15.5969835 45.3888889"></polygon>
                        <path d="M38.471875,17.8125 C38.7062511,18.5156285 38.667189,19.0976539 38.3546875,19.5585938 C38.0421859,20.0195336 37.6593772,20.2968745 37.20625,20.390625 C36.1437446,20.5000005 35.5968751,20.1875037 35.565625,19.453125 C35.565625,19.0781231 35.4875007,18.6093778 35.33125,18.046875 C35.1749992,17.4843722 34.9406265,16.9843772 34.628125,16.546875 C34.2687482,16.140623 34.3624972,15.9375 34.909375,15.9375 C35.6437536,16.0000003 36.3624964,16.2109357 37.065625,16.5703125 C37.7687535,16.9296893 38.2374988,17.3437477 38.471875,17.8125 Z M40.065625,16.359375 C40.0968751,15.8281223 40.409372,15.6406242 41.003125,15.796875 C41.3312516,15.8593753 41.7960907,15.9570306 42.3976562,16.0898438 C42.9992217,16.2226569 43.5187478,16.390624 43.95625,16.59375 C44.2843766,16.9375017 44.2375021,17.2031241 43.815625,17.390625 L43.1125,17.578125 C42.2218705,18.8906316 41.3625041,19.9218713 40.534375,20.671875 L42.26875,20.671875 L42.83125,19.828125 C43.0812512,19.437498 43.4249978,19.343749 43.8625,19.546875 C44.1593764,19.6875007 44.503123,19.8984361 44.89375,20.1796875 C45.2843769,20.4609389 45.5812489,20.703124 45.784375,20.90625 C46.0500013,21.2031265 46.0656261,21.4687488 45.83125,21.703125 L45.409375,22.078125 C45.4718753,24.0156347 45.5343746,25.7656172 45.596875,27.328125 C45.6906254,28.2656297 44.9718826,28.7968744 43.440625,28.921875 C42.7687466,28.8124995 42.4562497,28.562502 42.503125,28.171875 L42.503125,27.9375 L35.940625,27.9375 C35.7687491,28.6718787 35.0187566,29.0312501 33.690625,29.015625 C33.0812469,28.9218745 32.7999997,28.6093777 32.846875,28.078125 C32.9093753,27.1718705 32.9562498,26.0000072 32.9875,24.5625 L32.9875,22.78125 C32.9718749,22.0781215 32.9406252,21.1406309 32.89375,19.96875 C32.909375,19.6406234 33.0656235,19.4999998 33.3625,19.546875 C34.2375043,19.7343759 35.2062446,20.1093722 36.26875,20.671875 L39.175,20.671875 C39.6281272,19.3749935 39.9249992,17.9375079 40.065625,16.359375 Z M34.01875,34.03125 L34.01875,32.484375 C34.0031249,31.1093681 33.9718752,30.2031272 33.925,29.765625 C33.8624996,29.2031222 34.0812475,28.9843744 34.58125,29.109375 C35.6750054,29.2656258 36.7687445,29.5781227 37.8625,30.046875 L40.815625,30.046875 L41.471875,29.15625 C41.7062511,28.8437484 41.9718735,28.7656242 42.26875,28.921875 C42.6593769,29.0468756 43.0929663,29.2617172 43.5695312,29.5664062 C44.0460961,29.8710953 44.4406234,30.1718735 44.753125,30.46875 C45.0031262,30.7656265 45.018751,31.0312488 44.8,31.265625 L44.378125,31.78125 L44.378125,34.21875 C44.378125,35.2656302 44.4093746,36.3046823 44.471875,37.3359375 C44.4406248,38.4140679 43.5968832,39.007812 41.940625,39.1171875 C41.2999967,39.1796878 40.9874999,38.8671909 41.003125,38.1796875 L41.003125,37.1484375 L37.39375,37.1484375 L37.39375,37.7109375 C37.2531242,38.6953174 36.4406324,39.1953124 34.95625,39.2109375 C34.2374964,39.1484372 33.8937498,38.8515652 33.925,38.3203125 C33.940625,37.6953094 33.9562499,36.9218796 33.971875,36 C33.9875,35.0781204 34.0031249,34.421877 34.01875,34.03125 Z M41.003125,30.796875 L37.76875,30.796875 C37.5187487,30.8906255 37.39375,31.0781236 37.39375,31.359375 L37.39375,33.234375 L41.003125,33.234375 L41.003125,30.796875 Z M37.39375,33.984375 L37.39375,36.3984375 L41.003125,36.3984375 L41.003125,33.984375 L37.39375,33.984375 Z M26.425,20.578125 C26.425,20.2968736 26.5968732,20.1250003 26.940625,20.0625 C27.550003,20.1406254 28.253121,20.2656241 29.05,20.4375 C29.5500025,20.6875013 29.6281267,20.9843733 29.284375,21.328125 L29.003125,21.5625 L29.003125,26.109375 C29.003125,27.1562552 28.9757815,28.3124937 28.9210937,29.578125 C28.8664059,30.8437563 28.7218761,31.9843699 28.4875,33 C30.1906335,33.4687523 31.4249961,34.2187448 32.190625,35.25 C32.5343767,35.7343774 32.6906251,36.2499973 32.659375,36.796875 C32.6281248,37.3437527 32.2843782,37.8203105 31.628125,38.2265625 C30.5343695,38.7421901 29.8156267,38.4140684 29.471875,37.2421875 C29.3468743,36.6328095 29.2257818,36.0937523 29.1085937,35.625 C28.9914056,35.1562477 28.7062522,34.5781284 28.253125,33.890625 C27.9718735,34.7500043 27.4289102,35.6367142 26.6242187,36.5507812 C25.8195272,37.4648483 24.7531316,38.2265595 23.425,38.8359375 C22.4718702,39.1484391 22.3156217,38.9453161 22.95625,38.2265625 C24.5812581,36.8203055 25.6007791,35.2343838 26.0148437,33.46875 C26.4289083,31.7031162 26.6125002,29.2500157 26.565625,26.109375 L26.565625,23.578125 C26.5343748,22.57812 26.4875003,21.57813 26.425,20.578125 Z M23.096875,33.1875 C23.1437502,31.8437433 23.1749999,30.5000067 23.190625,29.15625 L23.190625,20.671875 C23.1593748,19.7499954 23.1125003,18.8281296 23.05,17.90625 C23.0343749,17.6093735 23.2062482,17.4687499 23.565625,17.484375 C24.3937541,17.7187512 25.2218708,18.0937474 26.05,18.609375 L29.425,18.609375 C29.6906263,18.1093725 29.9406238,17.7187514 30.175,17.4375 C30.3156257,17.2812492 30.581248,17.2812492 30.971875,17.4375 C31.6906285,17.7812517 32.2687478,18.1718728 32.70625,18.609375 C33.0031264,18.9531267 33.0187513,19.2187491 32.753125,19.40625 L32.425,19.921875 L32.425,28.078125 C32.425,28.8437538 32.4367186,29.4843724 32.4601562,30 C32.4835938,30.5156276 32.5031249,31.0937468 32.51875,31.734375 C32.4718747,32.1875023 32.2414083,32.535155 31.8273437,32.7773438 C31.4132791,33.0195325 31.003127,33.140625 30.596875,33.140625 C30.003122,33.2187504 29.6906251,32.9687529 29.659375,32.390625 L29.659375,19.359375 L26.096875,19.359375 C25.9406242,19.5000007 25.8625,19.6562491 25.8625,19.828125 L25.8625,32.15625 C25.7062492,33.2031302 25.0343809,33.7499998 23.846875,33.796875 C23.3624975,33.8750004 23.1125,33.6718774 23.096875,33.1875 Z M35.940625,22.078125 L35.940625,22.453125 C36.7375039,22.5937507 37.3937474,23.0156215 37.909375,23.71875 L37.909375,21.421875 L36.175,21.421875 C36.0499993,21.5000004 35.9718751,21.7187482 35.940625,22.078125 Z M36.315625,25.6875 C36.2531246,24.6718699 36.1281259,23.8906277 35.940625,23.34375 L35.940625,27.1875 L37.909375,27.1875 L37.909375,26.25 C37.5656232,26.453126 37.2257829,26.4843757 36.8898437,26.34375 C36.5539045,26.2031243 36.3625002,25.9843765 36.315625,25.6875 Z M41.6125,22.125 C41.9093764,22.2343755 42.2062485,22.390624 42.503125,22.59375 L42.503125,21.421875 L40.534375,21.421875 L40.534375,25.5 C40.7687511,24.6562458 40.9562492,23.6250061 41.096875,22.40625 C41.1437502,22.1562488 41.3156235,22.0624997 41.6125,22.125 Z M40.534375,26.8125 L40.534375,27.1875 L42.503125,27.1875 L42.503125,24.5625 C41.9406221,25.5000047 41.2843787,26.2499972 40.534375,26.8125 Z" id="赠" fill="#000000" opacity="0.5" filter="url(#filter-1)"></path>
                    </g>
                    <g id="Group-6" transform="translate(7.000000, 10.000000)">
                        <path d="M7.68840839,3.17488301 L3.77785232,3.17488301 L3.77785232,5.02153449 L7.68840839,5.02153449 L7.68840839,3.17488301 Z M3.77785232,9.30142084 L7.68840839,9.30142084 L7.68840839,7.3244175 L3.77785232,7.3244175 L3.77785232,9.30142084 Z M5.64622911,13.2337022 L7.88393619,12.1474366 C8.97020176,13.9289122 10.2954458,16.2969711 10.8820292,17.8177429 L8.4705196,19.0995363 C8.29671711,18.5564035 8.03601337,17.9046442 7.7101337,17.2311595 C2.60468551,18.8388326 1.73567305,19.1864376 1.12736433,19.5992185 C0.975287147,18.8605579 0.540780918,17.6004898 0.128,16.9704558 C0.605956852,16.7314774 1.12736433,16.2969711 1.12736433,15.449684 L1.12736433,0.872 L10.2737204,0.872 L10.2737204,11.6043039 L3.77785232,11.6043039 L3.77785232,15.8841902 L6.66731875,15.0586284 C6.31971376,14.4285943 5.97210878,13.7985603 5.64622911,13.2337022 Z M19.2679994,1.02407718 L19.2679994,13.5161313 C19.2679994,14.6892981 19.0724716,15.3627827 18.333811,15.797289 C17.638601,16.2100699 16.6392367,16.2317952 15.2488168,16.2317952 C15.1619155,15.5365852 14.8577612,14.472045 14.5318815,13.7985603 C15.3139927,13.8420109 16.1178292,13.8420109 16.3568077,13.8202856 C16.6175114,13.8202856 16.7261379,13.7333844 16.7261379,13.4509553 L16.7261379,3.39213613 L14.0973753,3.39213613 L14.0973753,20.0771753 L11.4903379,20.0771753 L11.4903379,1.02407718 L19.2679994,1.02407718 Z" id="即" fill="url(#linearGradient-2)"></path>
                        <path d="M29.471875,5.8125 C29.7062511,6.51562852 29.667189,7.09765395 29.3546875,7.55859375 C29.0421859,8.01953355 28.6593772,8.29687453 28.20625,8.390625 C27.1437446,8.50000055 26.5968751,8.18750367 26.565625,7.453125 C26.565625,7.07812312 26.4875007,6.60937781 26.33125,6.046875 C26.1749992,5.48437219 25.9406265,4.98437719 25.628125,4.546875 C25.2687482,4.14062297 25.3624972,3.9375 25.909375,3.9375 C26.6437536,4.00000031 27.3624964,4.2109357 28.065625,4.5703125 C28.7687535,4.9296893 29.2374988,5.34374766 29.471875,5.8125 Z M31.065625,4.359375 C31.0968751,3.82812234 31.409372,3.64062422 32.003125,3.796875 C32.3312516,3.85937531 32.7960907,3.95703059 33.3976562,4.08984375 C33.9992217,4.22265691 34.5187478,4.39062398 34.95625,4.59375 C35.2843766,4.93750172 35.2375021,5.20312406 34.815625,5.390625 L34.1125,5.578125 C33.2218705,6.89063156 32.3625041,7.92187125 31.534375,8.671875 L33.26875,8.671875 L33.83125,7.828125 C34.0812512,7.43749805 34.4249978,7.34374898 34.8625,7.546875 C35.1593764,7.6875007 35.503123,7.89843609 35.89375,8.1796875 C36.2843769,8.46093891 36.5812489,8.70312398 36.784375,8.90625 C37.0500013,9.20312648 37.0656261,9.46874883 36.83125,9.703125 L36.409375,10.078125 C36.4718753,12.0156347 36.5343746,13.7656172 36.596875,15.328125 C36.6906254,16.2656297 35.9718826,16.7968744 34.440625,16.921875 C33.7687466,16.8124995 33.4562497,16.562502 33.503125,16.171875 L33.503125,15.9375 L26.940625,15.9375 C26.7687491,16.6718787 26.0187566,17.0312501 24.690625,17.015625 C24.0812469,16.9218745 23.7999997,16.6093777 23.846875,16.078125 C23.9093753,15.1718705 23.9562498,14.0000072 23.9875,12.5625 L23.9875,10.78125 C23.9718749,10.0781215 23.9406252,9.14063086 23.89375,7.96875 C23.909375,7.64062336 24.0656235,7.49999977 24.3625,7.546875 C25.2375043,7.73437594 26.2062446,8.10937219 27.26875,8.671875 L30.175,8.671875 C30.6281272,7.37499352 30.9249992,5.93750789 31.065625,4.359375 Z M25.01875,22.03125 L25.01875,20.484375 C25.0031249,19.1093681 24.9718752,18.2031272 24.925,17.765625 C24.8624996,17.2031222 25.0812475,16.9843744 25.58125,17.109375 C26.6750054,17.2656258 27.7687445,17.5781227 28.8625,18.046875 L31.815625,18.046875 L32.471875,17.15625 C32.7062511,16.8437484 32.9718735,16.7656242 33.26875,16.921875 C33.6593769,17.0468756 34.0929663,17.2617172 34.5695312,17.5664062 C35.0460961,17.8710953 35.4406234,18.1718735 35.753125,18.46875 C36.0031262,18.7656265 36.018751,19.0312488 35.8,19.265625 L35.378125,19.78125 L35.378125,22.21875 C35.378125,23.2656302 35.4093746,24.3046823 35.471875,25.3359375 C35.4406248,26.4140679 34.5968832,27.007812 32.940625,27.1171875 C32.2999967,27.1796878 31.9874999,26.8671909 32.003125,26.1796875 L32.003125,25.1484375 L28.39375,25.1484375 L28.39375,25.7109375 C28.2531242,26.6953174 27.4406324,27.1953124 25.95625,27.2109375 C25.2374964,27.1484372 24.8937498,26.8515652 24.925,26.3203125 C24.940625,25.6953094 24.9562499,24.9218796 24.971875,24 C24.9875,23.0781204 25.0031249,22.421877 25.01875,22.03125 Z M32.003125,18.796875 L28.76875,18.796875 C28.5187487,18.8906255 28.39375,19.0781236 28.39375,19.359375 L28.39375,21.234375 L32.003125,21.234375 L32.003125,18.796875 Z M28.39375,21.984375 L28.39375,24.3984375 L32.003125,24.3984375 L32.003125,21.984375 L28.39375,21.984375 Z M17.425,8.578125 C17.425,8.29687359 17.5968732,8.12500031 17.940625,8.0625 C18.550003,8.14062539 19.253121,8.26562414 20.05,8.4375 C20.5500025,8.68750125 20.6281267,8.98437328 20.284375,9.328125 L20.003125,9.5625 L20.003125,14.109375 C20.003125,15.1562552 19.9757815,16.3124937 19.9210937,17.578125 C19.8664059,18.8437563 19.7218761,19.9843699 19.4875,21 C21.1906335,21.4687523 22.4249961,22.2187448 23.190625,23.25 C23.5343767,23.7343774 23.6906251,24.2499973 23.659375,24.796875 C23.6281248,25.3437527 23.2843782,25.8203105 22.628125,26.2265625 C21.5343695,26.7421901 20.8156267,26.4140684 20.471875,25.2421875 C20.3468743,24.6328095 20.2257818,24.0937523 20.1085937,23.625 C19.9914056,23.1562477 19.7062522,22.5781284 19.253125,21.890625 C18.9718735,22.7500043 18.4289102,23.6367142 17.6242187,24.5507812 C16.8195272,25.4648483 15.7531316,26.2265595 14.425,26.8359375 C13.4718702,27.1484391 13.3156217,26.9453161 13.95625,26.2265625 C15.5812581,24.8203055 16.6007791,23.2343838 17.0148437,21.46875 C17.4289083,19.7031162 17.6125002,17.2500157 17.565625,14.109375 L17.565625,11.578125 C17.5343748,10.57812 17.4875003,9.57813 17.425,8.578125 Z M14.096875,21.1875 C14.1437502,19.8437433 14.1749999,18.5000067 14.190625,17.15625 L14.190625,8.671875 C14.1593748,7.74999539 14.1125003,6.82812961 14.05,5.90625 C14.0343749,5.60937352 14.2062482,5.46874992 14.565625,5.484375 C15.3937541,5.71875117 16.2218708,6.09374742 17.05,6.609375 L20.425,6.609375 C20.6906263,6.1093725 20.9406238,5.71875141 21.175,5.4375 C21.3156257,5.28124922 21.581248,5.28124922 21.971875,5.4375 C22.6906285,5.78125172 23.2687478,6.17187281 23.70625,6.609375 C24.0031264,6.95312672 24.0187513,7.21874906 23.753125,7.40625 L23.425,7.921875 L23.425,16.078125 C23.425,16.8437538 23.4367186,17.4843724 23.4601562,18 C23.4835938,18.5156276 23.5031249,19.0937468 23.51875,19.734375 C23.4718747,20.1875023 23.2414083,20.535155 22.8273437,20.7773437 C22.4132791,21.0195325 22.003127,21.140625 21.596875,21.140625 C21.003122,21.2187504 20.6906251,20.9687529 20.659375,20.390625 L20.659375,7.359375 L17.096875,7.359375 C16.9406242,7.5000007 16.8625,7.65624914 16.8625,7.828125 L16.8625,20.15625 C16.7062492,21.2031302 16.0343809,21.7499998 14.846875,21.796875 C14.3624975,21.8750004 14.1125,21.6718774 14.096875,21.1875 Z M26.940625,10.078125 L26.940625,10.453125 C27.7375039,10.5937507 28.3937474,11.0156215 28.909375,11.71875 L28.909375,9.421875 L27.175,9.421875 C27.0499993,9.50000039 26.9718751,9.7187482 26.940625,10.078125 Z M27.315625,13.6875 C27.2531246,12.6718699 27.1281259,11.8906277 26.940625,11.34375 L26.940625,15.1875 L28.909375,15.1875 L28.909375,14.25 C28.5656232,14.453126 28.2257829,14.4843757 27.8898437,14.34375 C27.5539045,14.2031243 27.3625002,13.9843765 27.315625,13.6875 Z M32.6125,10.125 C32.9093764,10.2343755 33.2062485,10.390624 33.503125,10.59375 L33.503125,9.421875 L31.534375,9.421875 L31.534375,13.5 C31.7687511,12.6562458 31.9562492,11.6250061 32.096875,10.40625 C32.1437502,10.1562487 32.3156235,10.0624997 32.6125,10.125 Z M31.534375,14.8125 L31.534375,15.1875 L33.503125,15.1875 L33.503125,12.5625 C32.9406221,13.5000047 32.2843787,14.2499972 31.534375,14.8125 Z" id="赠" fill="#000000" opacity="0.5" filter="url(#filter-3)"></path>
                        <path d="M31.471875,6.8125 C31.7062511,7.51562852 31.667189,8.09765395 31.3546875,8.55859375 C31.0421859,9.01953355 30.6593772,9.29687453 30.20625,9.390625 C29.1437446,9.50000055 28.5968751,9.18750367 28.565625,8.453125 C28.565625,8.07812312 28.4875007,7.60937781 28.33125,7.046875 C28.1749992,6.48437219 27.9406265,5.98437719 27.628125,5.546875 C27.2687482,5.14062297 27.3624972,4.9375 27.909375,4.9375 C28.6437536,5.00000031 29.3624964,5.2109357 30.065625,5.5703125 C30.7687535,5.9296893 31.2374988,6.34374766 31.471875,6.8125 Z M33.065625,5.359375 C33.0968751,4.82812234 33.409372,4.64062422 34.003125,4.796875 C34.3312516,4.85937531 34.7960907,4.95703059 35.3976562,5.08984375 C35.9992217,5.22265691 36.5187478,5.39062398 36.95625,5.59375 C37.2843766,5.93750172 37.2375021,6.20312406 36.815625,6.390625 L36.1125,6.578125 C35.2218705,7.89063156 34.3625041,8.92187125 33.534375,9.671875 L35.26875,9.671875 L35.83125,8.828125 C36.0812512,8.43749805 36.4249978,8.34374898 36.8625,8.546875 C37.1593764,8.6875007 37.503123,8.89843609 37.89375,9.1796875 C38.2843769,9.46093891 38.5812489,9.70312398 38.784375,9.90625 C39.0500013,10.2031265 39.0656261,10.4687488 38.83125,10.703125 L38.409375,11.078125 C38.4718753,13.0156347 38.5343746,14.7656172 38.596875,16.328125 C38.6906254,17.2656297 37.9718826,17.7968744 36.440625,17.921875 C35.7687466,17.8124995 35.4562497,17.562502 35.503125,17.171875 L35.503125,16.9375 L28.940625,16.9375 C28.7687491,17.6718787 28.0187566,18.0312501 26.690625,18.015625 C26.0812469,17.9218745 25.7999997,17.6093777 25.846875,17.078125 C25.9093753,16.1718705 25.9562498,15.0000072 25.9875,13.5625 L25.9875,11.78125 C25.9718749,11.0781215 25.9406252,10.1406309 25.89375,8.96875 C25.909375,8.64062336 26.0656235,8.49999977 26.3625,8.546875 C27.2375043,8.73437594 28.2062446,9.10937219 29.26875,9.671875 L32.175,9.671875 C32.6281272,8.37499352 32.9249992,6.93750789 33.065625,5.359375 Z M27.01875,23.03125 L27.01875,21.484375 C27.0031249,20.1093681 26.9718752,19.2031272 26.925,18.765625 C26.8624996,18.2031222 27.0812475,17.9843744 27.58125,18.109375 C28.6750054,18.2656258 29.7687445,18.5781227 30.8625,19.046875 L33.815625,19.046875 L34.471875,18.15625 C34.7062511,17.8437484 34.9718735,17.7656242 35.26875,17.921875 C35.6593769,18.0468756 36.0929663,18.2617172 36.5695312,18.5664062 C37.0460961,18.8710953 37.4406234,19.1718735 37.753125,19.46875 C38.0031262,19.7656265 38.018751,20.0312488 37.8,20.265625 L37.378125,20.78125 L37.378125,23.21875 C37.378125,24.2656302 37.4093746,25.3046823 37.471875,26.3359375 C37.4406248,27.4140679 36.5968832,28.007812 34.940625,28.1171875 C34.2999967,28.1796878 33.9874999,27.8671909 34.003125,27.1796875 L34.003125,26.1484375 L30.39375,26.1484375 L30.39375,26.7109375 C30.2531242,27.6953174 29.4406324,28.1953124 27.95625,28.2109375 C27.2374964,28.1484372 26.8937498,27.8515652 26.925,27.3203125 C26.940625,26.6953094 26.9562499,25.9218796 26.971875,25 C26.9875,24.0781204 27.0031249,23.421877 27.01875,23.03125 Z M34.003125,19.796875 L30.76875,19.796875 C30.5187487,19.8906255 30.39375,20.0781236 30.39375,20.359375 L30.39375,22.234375 L34.003125,22.234375 L34.003125,19.796875 Z M30.39375,22.984375 L30.39375,25.3984375 L34.003125,25.3984375 L34.003125,22.984375 L30.39375,22.984375 Z M19.425,9.578125 C19.425,9.29687359 19.5968732,9.12500031 19.940625,9.0625 C20.550003,9.14062539 21.253121,9.26562414 22.05,9.4375 C22.5500025,9.68750125 22.6281267,9.98437328 22.284375,10.328125 L22.003125,10.5625 L22.003125,15.109375 C22.003125,16.1562552 21.9757815,17.3124937 21.9210937,18.578125 C21.8664059,19.8437563 21.7218761,20.9843699 21.4875,22 C23.1906335,22.4687523 24.4249961,23.2187448 25.190625,24.25 C25.5343767,24.7343774 25.6906251,25.2499973 25.659375,25.796875 C25.6281248,26.3437527 25.2843782,26.8203105 24.628125,27.2265625 C23.5343695,27.7421901 22.8156267,27.4140684 22.471875,26.2421875 C22.3468743,25.6328095 22.2257818,25.0937523 22.1085937,24.625 C21.9914056,24.1562477 21.7062522,23.5781284 21.253125,22.890625 C20.9718735,23.7500043 20.4289102,24.6367142 19.6242187,25.5507812 C18.8195272,26.4648483 17.7531316,27.2265595 16.425,27.8359375 C15.4718702,28.1484391 15.3156217,27.9453161 15.95625,27.2265625 C17.5812581,25.8203055 18.6007791,24.2343838 19.0148437,22.46875 C19.4289083,20.7031162 19.6125002,18.2500157 19.565625,15.109375 L19.565625,12.578125 C19.5343748,11.57812 19.4875003,10.57813 19.425,9.578125 Z M16.096875,22.1875 C16.1437502,20.8437433 16.1749999,19.5000067 16.190625,18.15625 L16.190625,9.671875 C16.1593748,8.74999539 16.1125003,7.82812961 16.05,6.90625 C16.0343749,6.60937352 16.2062482,6.46874992 16.565625,6.484375 C17.3937541,6.71875117 18.2218708,7.09374742 19.05,7.609375 L22.425,7.609375 C22.6906263,7.1093725 22.9406238,6.71875141 23.175,6.4375 C23.3156257,6.28124922 23.581248,6.28124922 23.971875,6.4375 C24.6906285,6.78125172 25.2687478,7.17187281 25.70625,7.609375 C26.0031264,7.95312672 26.0187513,8.21874906 25.753125,8.40625 L25.425,8.921875 L25.425,17.078125 C25.425,17.8437538 25.4367186,18.4843724 25.4601562,19 C25.4835938,19.5156276 25.5031249,20.0937468 25.51875,20.734375 C25.4718747,21.1875023 25.2414083,21.535155 24.8273437,21.7773437 C24.4132791,22.0195325 24.003127,22.140625 23.596875,22.140625 C23.003122,22.2187504 22.6906251,21.9687529 22.659375,21.390625 L22.659375,8.359375 L19.096875,8.359375 C18.9406242,8.5000007 18.8625,8.65624914 18.8625,8.828125 L18.8625,21.15625 C18.7062492,22.2031302 18.0343809,22.7499998 16.846875,22.796875 C16.3624975,22.8750004 16.1125,22.6718774 16.096875,22.1875 Z M28.940625,11.078125 L28.940625,11.453125 C29.7375039,11.5937507 30.3937474,12.0156215 30.909375,12.71875 L30.909375,10.421875 L29.175,10.421875 C29.0499993,10.5000004 28.9718751,10.7187482 28.940625,11.078125 Z M29.315625,14.6875 C29.2531246,13.6718699 29.1281259,12.8906277 28.940625,12.34375 L28.940625,16.1875 L30.909375,16.1875 L30.909375,15.25 C30.5656232,15.453126 30.2257829,15.4843757 29.8898437,15.34375 C29.5539045,15.2031243 29.3625002,14.9843765 29.315625,14.6875 Z M34.6125,11.125 C34.9093764,11.2343755 35.2062485,11.390624 35.503125,11.59375 L35.503125,10.421875 L33.534375,10.421875 L33.534375,14.5 C33.7687511,13.6562458 33.9562492,12.6250061 34.096875,11.40625 C34.1437502,11.1562487 34.3156235,11.0624997 34.6125,11.125 Z M33.534375,15.8125 L33.534375,16.1875 L35.503125,16.1875 L35.503125,13.5625 C34.9406221,14.5000047 34.2843787,15.2499972 33.534375,15.8125 Z" id="赠" fill="url(#linearGradient-2)"></path>
                    </g>
                </g>
            </g>
        </g>
    </g>
</svg>