<?xml version="1.0" encoding="UTF-8"?>
<svg width="29px" height="29px" viewBox="0 0 29 29" version="1.1" xmlns="http://www.w3.org/2000/svg" xmlns:xlink="http://www.w3.org/1999/xlink">
    <!-- Generator: Sketch 48.1 (47250) - http://www.bohemiancoding.com/sketch -->
    <title>close</title>
    <desc>Created with Sketch.</desc>
    <defs>
        <linearGradient x1="50%" y1="100%" x2="50%" y2="3.63373587e-15%" id="linearGradient-1">
            <stop stop-color="#ED5C40" offset="0%"></stop>
            <stop stop-color="#D62F1E" offset="100%"></stop>
        </linearGradient>
    </defs>
    <g id="1.-霸王餐插入活动广告" stroke="none" stroke-width="1" fill="none" fill-rule="evenodd" transform="translate(-333.000000, -70.000000)">
        <g id="ads" transform="translate(0.000000, 64.000000)">
            <g id="close" transform="translate(333.000000, 6.000000)">
                <circle id="Oval-8" fill="url(#linearGradient-1)" opacity="0.261322464" cx="14.3034237" cy="14.4900046" r="14.2701057"></circle>
                <path d="M13.6443328,13.8309137 L13.6443328,7.8990955 C13.6443328,7.53508965 13.9394179,7.2400046 14.3034237,7.2400046 C14.6674296,7.2400046 14.9625146,7.53508965 14.9625146,7.8990955 L14.9625146,13.8309137 L20.8943328,13.8309137 C21.2583387,13.8309137 21.5534237,14.1259987 21.5534237,14.4900046 C21.5534237,14.8540105 21.2583387,15.1490955 20.8943328,15.1490955 L14.9625146,15.1490955 L14.9625146,21.0809137 C14.9625146,21.4449195 14.6674296,21.7400046 14.3034237,21.7400046 C13.9394179,21.7400046 13.6443328,21.4449195 13.6443328,21.0809137 L13.6443328,15.1490955 L7.71251462,15.1490955 C7.34850876,15.1490955 7.05342371,14.8540105 7.05342371,14.4900046 C7.05342371,14.1259987 7.34850876,13.8309137 7.71251462,13.8309137 L13.6443328,13.8309137 Z" id="Combined-Shape" fill="#FFFFFF" transform="translate(14.303424, 14.490005) rotate(45.000000) translate(-14.303424, -14.490005) "></path>
            </g>
        </g>
    </g>
</svg>