<?xml version="1.0" encoding="UTF-8"?>
<svg width="21px" height="20px" viewBox="0 0 21 20" version="1.1" xmlns="http://www.w3.org/2000/svg" xmlns:xlink="http://www.w3.org/1999/xlink">
    <!-- Generator: Sketch 48.1 (47250) - http://www.bohemiancoding.com/sketch -->
    <title>close</title>
    <desc>Created with Sketch.</desc>
    <defs>
        <circle id="path-1" cx="9.86443015" cy="9.99310662" r="9.84145221"></circle>
    </defs>
    <g id="B-奖品升级-1-广告" stroke="none" stroke-width="1" fill="none" fill-rule="evenodd" transform="translate(-351.000000, -67.000000)">
        <g id="close" transform="translate(351.500000, 67.000000)">
            <g id="Oval-8">
                <use fill="#000000" fill-rule="evenodd" xlink:href="#path-1"></use>
                <circle stroke="#FFFFFF" stroke-width="2" cx="9.86443015" cy="9.99310662" r="8.84145221"></circle>
            </g>
            <path d="M9.40988469,9.53856116 L9.40988469,5.44765207 C9.40988469,5.19661355 9.61339162,4.99310662 9.86443015,4.99310662 C10.1154687,4.99310662 10.3189756,5.19661355 10.3189756,5.44765207 L10.3189756,9.53856116 L14.4098847,9.53856116 C14.6609232,9.53856116 14.8644301,9.74206809 14.8644301,9.99310662 C14.8644301,10.2441451 14.6609232,10.4476521 14.4098847,10.4476521 L10.3189756,10.4476521 L10.3189756,14.5385612 C10.3189756,14.7895997 10.1154687,14.9931066 9.86443015,14.9931066 C9.61339162,14.9931066 9.40988469,14.7895997 9.40988469,14.5385612 L9.40988469,10.4476521 L5.3189756,10.4476521 C5.06793708,10.4476521 4.86443015,10.2441451 4.86443015,9.99310662 C4.86443015,9.74206809 5.06793708,9.53856116 5.3189756,9.53856116 L9.40988469,9.53856116 Z" id="Combined-Shape" fill="#FFFFFF" transform="translate(9.864430, 9.993107) rotate(45.000000) translate(-9.864430, -9.993107) "></path>
        </g>
    </g>
</svg>