<?xml version="1.0" encoding="UTF-8"?>
<svg width="8px" height="8px" viewBox="0 0 8 8" version="1.1" xmlns="http://www.w3.org/2000/svg" xmlns:xlink="http://www.w3.org/1999/xlink">
    <!-- Generator: Sketch 48.1 (47250) - http://www.bohemiancoding.com/sketch -->
    <title>助力人-close</title>
    <desc>Created with Sketch.</desc>
    <defs></defs>
    <g id="3.-助力人扫canvas后插入活动广告" stroke="none" stroke-width="1" fill="none" fill-rule="evenodd" transform="translate(-348.000000, -520.000000)">
        <g id="ads" transform="translate(10.000000, 511.000000)" fill="#FFFFFF">
            <path d="M341.176683,12.8386346 L341.176683,8.74772552 C341.176683,8.496687 341.38019,8.29318007 341.631229,8.29318007 C341.882267,8.29318007 342.085774,8.496687 342.085774,8.74772552 L342.085774,12.8386346 L346.176683,12.8386346 C346.427722,12.8386346 346.631229,13.0421415 346.631229,13.2931801 C346.631229,13.5442186 346.427722,13.7477255 346.176683,13.7477255 L342.085774,13.7477255 L342.085774,17.8386346 C342.085774,18.0896731 341.882267,18.2931801 341.631229,18.2931801 C341.38019,18.2931801 341.176683,18.0896731 341.176683,17.8386346 L341.176683,13.7477255 L337.085774,13.7477255 C336.834736,13.7477255 336.631229,13.5442186 336.631229,13.2931801 C336.631229,13.0421415 336.834736,12.8386346 337.085774,12.8386346 L341.176683,12.8386346 Z" id="助力人-close" transform="translate(341.631229, 13.293180) rotate(45.000000) translate(-341.631229, -13.293180) "></path>
        </g>
    </g>
</svg>