<?xml version="1.0" encoding="utf-8"?>
<!-- Generator: Adobe Illustrator 20.1.0, SVG Export Plug-In . SVG Version: 6.00 Build 0)  -->
<svg version="1.1" id="图层_1" xmlns="http://www.w3.org/2000/svg" xmlns:xlink="http://www.w3.org/1999/xlink" x="0px" y="0px"
	 viewBox="0 0 64.5 72" style="enable-background:new 0 0 64.5 72;" xml:space="preserve">
<style type="text/css">
	.st0{fill:#FFF35F;}
	.st1{fill:#CC601D;}
	.st2{fill:#F61D41;}
</style>
<title>助力人-免费抢领</title>
<desc>Created with Sketch.</desc>
<polygon id="Rectangle-10" class="st0" points="0,24.4 59.8,12.8 64.5,37 64.5,66 33.5,72 9.3,72 "/>
<path id="免费-抢领" class="st1" d="M19,34.8l1.6-0.3c1-0.2,1.5-0.2,1.7,0c0.2,0.2,0.3,0.4,0.4,0.6c0.1,0.2,0,0.6-0.2,1
	l-0.2,0.4l0.7-0.1c0.9-0.2,1.5-0.1,1.7,0.3c0.3,0.4,0.4,0.7,0.4,0.9l0.3,1.4c0,0.3,0,0.6,0,1.1c0,0.5-0.6,0.8-1.5,1l-0.8,0.2
	l0.5,2.7c0,0.1,0.1,0.2,0.1,0.3c0.1,0.1,0.3,0.1,0.7,0l0.6-0.1c0.3-0.1,0.5-0.2,0.7-0.3c0.1-0.1,0.2-0.3,0.3-0.6
	c0-0.3,0.1-0.5,0.2-0.6c0.1-0.1,0.2-0.2,0.5-0.3c0.3-0.1,0.5,0,0.7,0.2c0.2,0.2,0.3,0.4,0.4,0.6c0,0.1,0,0.4-0.1,0.8
	s-0.2,0.7-0.4,0.9s-0.4,0.4-0.7,0.5c-0.3,0.1-1,0.3-2.2,0.5C23.6,46,23,46,22.7,45.8c-0.3-0.2-0.5-0.5-0.6-1l-0.6-3.2l-0.3,0.1
	c-0.1,0.4-0.2,1.1-0.5,1.9c-0.2,0.9-0.9,1.7-2,2.4c-1.1,0.7-1.8,1.1-2.1,1.1c-0.2,0-0.4,0-0.6-0.1c-0.2-0.1-0.3-0.3-0.4-0.5
	c-0.1-0.2,0-0.4,0-0.5c0-0.1,0.1-0.2,0.2-0.3c0.1-0.1,0.4-0.2,0.8-0.4c0.4-0.2,0.9-0.6,1.4-1.1c0.5-0.5,0.8-0.9,0.9-1.2l0.4-1
	l-1.2,0.2c-0.6,0.1-1.1,0.1-1.4,0c-0.3-0.1-0.5-0.3-0.6-0.6c-0.1-0.2-0.2-0.5-0.2-0.8l-0.3-1.7c-0.2,0.2-0.4,0.4-0.6,0.4
	c-0.3,0.1-0.6,0-0.8-0.2c-0.2-0.2-0.3-0.4-0.3-0.6c0-0.2,0-0.4,0.2-0.6c0.1-0.2,0.4-0.4,0.8-0.7c0.4-0.3,0.8-0.8,1.2-1.3
	c0.4-0.6,0.7-1,0.9-1.5c0.2-0.4,0.4-0.7,0.5-0.8s0.3-0.2,0.5-0.3c0.2,0,0.4,0,0.6,0.1s0.4,0.2,0.5,0.3c0.1,0.2,0.1,0.3,0,0.4
	L19,34.8z M19.6,40.5c0-0.6,0-1,0-1.2l-0.1-0.8l-1.6,0.3c-0.4,0.1-0.6,0.4-0.5,0.8l0.1,0.7c0,0.2,0.1,0.3,0.2,0.4
	c0.1,0.1,0.3,0.1,0.5,0L19.6,40.5z M17.2,37.5l3.1-0.6l0.3-0.6c0.1-0.2,0.1-0.3,0-0.3c0,0-0.1,0-0.3,0l-2.3,0.4
	C17.8,36.7,17.5,37.1,17.2,37.5z M21.3,40.2l2-0.4c0.4-0.1,0.6-0.3,0.5-0.7l-0.1-0.7c0-0.1-0.1-0.2-0.2-0.4
	c-0.1-0.2-0.3-0.2-0.6-0.2l-1.8,0.3C21.2,38.9,21.2,39.5,21.3,40.2z M31.3,37.7c0.2-0.1,0.4-0.2,0.8-0.3l4.1-0.8
	c0.7-0.1,1.2-0.1,1.6,0.1c0.3,0.2,0.6,0.6,0.7,1.1l0.4,1.9c0,0.1,0,0.3-0.1,0.4c-0.1,0.2-0.3,0.3-0.5,0.3c-0.3,0.1-0.5,0-0.6-0.1
	c-0.2-0.1-0.3-0.3-0.3-0.4l-0.4-1.8c0,0,0-0.1-0.1-0.2c-0.1-0.1-0.2-0.1-0.4-0.1l-4.1,0.8c-0.2,0-0.3,0.1-0.4,0.2c0,0.1,0,0.2,0,0.3
	l0.4,2.1c0,0.2-0.1,0.4-0.3,0.7c-0.2,0.2-0.5,0.3-0.8,0.2c-0.3-0.1-0.5-0.3-0.5-0.5l-0.4-2.2c-0.1-0.3,0-0.6,0.1-1
	c-0.4,0.4-0.9,0.7-1.4,0.8c-0.4,0.1-0.7,0-0.8-0.2c-0.1-0.2-0.2-0.4-0.2-0.5c0-0.1,0-0.3,0-0.4c0.1-0.1,0.2-0.2,0.4-0.3l0.6-0.3
	c0.3-0.2,0.7-0.5,1.1-0.8c-0.7,0.1-1.2,0.1-1.3,0c-0.2-0.1-0.3-0.2-0.4-0.3s-0.1-0.4-0.1-0.7l0-0.5c0-0.2,0-0.5,0.1-0.7
	c0.1-0.2,0.4-0.4,1-0.6l0.7-0.1l0.9-0.2l-0.1-0.5l-2.4,0.5c-0.2,0-0.3,0-0.5-0.1c-0.1-0.1-0.2-0.3-0.2-0.4c0-0.2,0-0.3,0.1-0.5
	s0.2-0.2,0.3-0.2l2.5-0.5c-0.1-0.2-0.1-0.4,0-0.6c0.1-0.2,0.3-0.3,0.6-0.3c0.3,0,0.6,0,0.7,0.1c0.1,0.1,0.2,0.2,0.2,0.2l0,0.3
	l1.6-0.3l0-0.1c-0.1-0.1,0-0.3,0.1-0.4c0.1-0.1,0.3-0.3,0.6-0.3c0.2-0.1,0.5,0,0.7,0s0.3,0.2,0.3,0.3l0,0.1l1-0.2
	c0.5-0.1,1-0.1,1.4,0c0.4,0.1,0.6,0.4,0.7,1l0.1,0.3c0.1,0.5,0,0.8-0.2,1s-0.7,0.4-1.4,0.5l-1,0.2l0.1,0.5l2.1-0.4
	c0.6-0.1,1.1-0.1,1.3,0c0.2,0.1,0.4,0.3,0.4,0.5c0.1,0.2,0.1,0.5,0.1,0.7c0,0.3,0,0.5,0,0.6c0,0.2-0.1,0.3-0.2,0.6
	c-0.1,0.2-0.5,0.4-1.1,0.6c-0.4,0.1-0.6,0.1-0.7-0.1c-0.1-0.2-0.2-0.3-0.2-0.4c0-0.1-0.1-0.2,0-0.3c0-0.2,0-0.3,0.1-0.4
	c0.1,0,0.2-0.1,0.3-0.1c0.2-0.1,0.2-0.2,0.2-0.3c0-0.1-0.2-0.2-0.4-0.1l-1.7,0.3l0.1,0.2c0,0.2,0,0.3-0.2,0.5
	c-0.2,0.1-0.3,0.2-0.6,0.3c-0.2,0-0.4,0-0.6-0.1c-0.2-0.1-0.3-0.2-0.3-0.4l0-0.2l-2.4,0.5c-0.3,0.4-0.5,0.8-0.6,0.9l-0.3,0.3
	L31.3,37.7z M31,34.8l-0.9,0.2C30.1,35,30,35,30,35.1c0,0.1,0,0.2,0,0.3c0,0.1,0.1,0.1,0.3,0.1l0.8-0.2C31,35.1,31,35,31,34.8z
	 M32.6,35l1.9-0.4l-0.1-0.5l-1.8,0.4L32.6,35z M32.5,33.4l1.7-0.3l-0.1-0.5l-1.7,0.3L32.5,33.4z M35.7,32.2l0.1,0.5l0.8-0.2
	c0.3,0,0.4-0.1,0.4-0.3l0-0.1c0-0.1-0.2-0.2-0.5-0.1L35.7,32.2z M35.8,41.7c-0.1-0.2-0.2-0.4-0.1-0.8s0.4-0.5,1-0.4l2.5,0.4
	c0.6,0.1,1,0.2,1.4,0.3c0.4,0.1,0.5,0.4,0.4,0.8c-0.1,0.4-0.4,0.6-0.8,0.6c-0.1,0-0.7-0.1-1.7-0.3c-1.1-0.2-1.8-0.3-2.1-0.4
	C36.1,41.9,35.9,41.8,35.8,41.7z M29.8,43.7c0-0.2,0-0.4,0.1-0.5s0.4-0.2,0.9-0.4c0.5-0.2,1-0.4,1.5-0.7s0.8-0.6,1-0.9
	c0.2-0.3,0.3-0.7,0.3-1c0-0.4,0-0.6,0-0.8c0-0.2,0-0.3,0-0.5s0.2-0.3,0.5-0.4c0.3-0.1,0.5,0,0.7,0.1c0.2,0.1,0.3,0.3,0.3,0.4
	c0,0.2,0.1,0.4,0.1,0.6c0,0.6-0.1,1.1-0.2,1.5c-0.1,0.4-0.4,0.9-0.8,1.3c-0.4,0.4-1.1,0.9-2,1.3c-0.9,0.4-1.5,0.7-1.7,0.7
	c-0.2,0-0.4-0.1-0.6-0.2C29.9,44.2,29.8,44,29.8,43.7z M24.8,48.5c0.8,0.8,1.3,1.4,1.6,1.6c0.3,0.2,0.6,0.4,1,0.6
	c0.4,0.2,0.8,0.4,1.1,0.5c0.4,0.1,0.6,0.2,0.7,0.2c0.1,0,0.2,0.2,0.3,0.3c0.1,0.2,0.1,0.4,0,0.6c-0.1,0.2-0.3,0.4-0.4,0.5
	c-0.2,0.1-0.4,0.1-0.7,0.1c-0.2,0-0.6-0.2-1.2-0.5s-1-0.6-1.4-0.9s-0.9-0.8-1.4-1.4c-0.3,1-0.7,1.8-1,2.6c-0.4,0.8-0.6,1.2-0.8,1.5
	c-0.2,0.2-0.5,0.3-0.9,0.4c-0.4,0.1-0.6-0.2-0.7-0.7c0-0.1,0-0.2,0-0.3c0-0.1,0.1-0.2,0.2-0.3c0.1-0.1,0.3-0.4,0.6-0.8
	c0.3-0.5,0.5-1,0.8-1.7c0.2-0.7,0.4-1.2,0.5-1.7c0.1-0.5,0.1-0.8,0.2-0.9c0.1-0.1,0.2-0.2,0.5-0.3c0.2,0,0.4,0,0.6,0
	c0.2,0.1,0.3,0.1,0.4,0.2c0.1,0.1,0.1,0.2,0.1,0.2L24.8,48.5z M23.6,59.3l-0.8-4.1c0-0.3-0.1-0.5,0-0.9c0-0.3,0.2-0.6,0.4-0.8
	c0.2-0.2,0.6-0.3,1-0.4l1.9-0.4c0.4-0.1,0.8-0.1,1.2,0c0.4,0.1,0.7,0.4,0.7,0.8l0.4,1.8c0.1,0.5,0.1,0.9-0.1,1.2
	c-0.1,0.3-0.5,0.5-1.1,0.7c-0.4,0.1-0.7,0.2-0.9,0.1c-0.2,0-0.3-0.2-0.4-0.4c-0.1-0.2-0.1-0.4-0.1-0.5c0-0.2,0.1-0.3,0.1-0.4
	c0.1-0.1,0.3-0.1,0.6-0.2c0.3-0.1,0.4-0.3,0.3-0.7l-0.2-0.8c0-0.2-0.2-0.3-0.5-0.2l-1.5,0.3c-0.1,0-0.2,0.1-0.2,0.1c0,0,0,0.1,0,0.2
	c0,0.1,0,0.1,0,0.2l0.7,3.6c0,0.2,0.1,0.3,0.2,0.4c0.1,0.1,0.5,0,1.1-0.1c0.1,0,0.5-0.1,1.3-0.3s1.2-0.3,1.3-0.4
	c0.1-0.1,0.2-0.3,0.2-0.5l0-0.5c0.1-0.4,0.3-0.5,0.7-0.6c0.5,0,0.8,0.3,0.9,0.8c0,0.1,0,0.3,0,0.6c0,0.3-0.1,0.6-0.2,0.8
	c-0.1,0.2-0.3,0.4-0.5,0.6c-0.2,0.2-0.7,0.4-1.4,0.5c-2.1,0.5-3.4,0.7-3.9,0.6c-0.5,0-0.8-0.2-0.9-0.3
	C23.7,60.1,23.6,59.8,23.6,59.3z M20.9,56.5l0.7,3.8c0.1,0.3,0,0.5,0,0.7c-0.1,0.2-0.4,0.4-0.9,0.6c-0.5,0.2-0.9,0.2-1.2,0.2
	c-0.3,0-0.5,0-0.6-0.1c-0.1-0.1-0.2-0.2-0.2-0.4c0-0.2-0.1-0.3-0.1-0.4c0-0.3,0.1-0.5,0.4-0.6c0,0,0.1,0,0.2,0c0.1,0,0.2,0,0.2-0.1
	c0.2-0.1,0.3-0.1,0.4-0.2c0-0.1,0.1-0.2,0-0.4l-0.5-2.3c-0.4,0.2-0.7,0.4-1,0.4c-0.3,0.1-0.6,0-0.7-0.1c-0.1-0.2-0.2-0.4-0.2-0.5
	c0-0.2,0-0.3,0-0.4c0-0.1,0.2-0.2,0.3-0.4l0.7-0.3l0.5-0.3l-0.5-2.3l-1.2,0.2c-0.2,0-0.3,0-0.5-0.1c-0.1-0.1-0.2-0.3-0.3-0.5
	c0-0.2,0-0.4,0.1-0.6c0.1-0.2,0.2-0.3,0.4-0.3l1.2-0.2l-0.4-2c0-0.2,0-0.3,0.2-0.5c0.1-0.2,0.3-0.3,0.5-0.3c0.2,0,0.4,0,0.6,0.1
	c0.2,0.1,0.3,0.2,0.3,0.4l0.4,2l0.6-0.1c0.1,0,0.3,0,0.4,0.1c0.2,0.1,0.3,0.3,0.3,0.5c0.1,0.2,0,0.4-0.1,0.6
	c-0.1,0.1-0.2,0.2-0.3,0.2l-0.6,0.1l0.4,1.9c0.1-0.1,0.2-0.1,0.3-0.2l0.2-0.1c0.2-0.1,0.4-0.1,0.6,0s0.3,0.3,0.3,0.6
	s-0.1,0.4-0.2,0.6S21.4,56.3,20.9,56.5z M33.7,46.9c1.3,0.7,2.2,1.2,2.4,1.5c0.3,0.3,0.3,0.6,0.2,0.9c-0.1,0.2-0.2,0.3-0.4,0.4
	c-0.2,0.1-0.3,0.1-0.5,0.1c-0.1,0-0.2,0-0.3-0.1c-0.1-0.1-0.4-0.3-0.7-0.5c-0.4-0.3-0.7-0.5-1.2-0.8c-0.1,0.2-0.2,0.7-0.5,1.5
	c-0.2,0.7-0.5,1.3-0.7,1.7c-0.2,0.4-0.5,0.6-0.8,0.6c-0.3,0-0.5,0-0.7-0.2s-0.2-0.3-0.2-0.5c0-0.2,0-0.4,0.2-0.6l0.5-0.9
	c0.1-0.3,0.3-0.7,0.5-1.4c0.2-0.6,0.3-1.1,0.4-1.3l0-0.3c0-0.2,0.1-0.4,0.2-0.5c0.1-0.1,0.2-0.2,0.4-0.2c0.4-0.1,0.7,0,0.9,0.2
	c0.1,0.1,0.1,0.2,0.1,0.2L33.7,46.9z M35.6,56.1c0.4,0.3,0.7,0.5,1,0.7c0.2,0.2,0.3,0.4,0.3,0.7c0,0.2-0.1,0.4-0.2,0.5
	c-0.1,0.1-0.3,0.2-0.4,0.3c-0.1,0-0.2,0-0.3,0c-0.1,0-0.3-0.1-0.6-0.4c-0.2-0.2-0.6-0.5-1.1-0.9c-0.5-0.4-0.8-0.6-0.8-0.6L33,56.2
	c-0.3-0.2-0.5-0.4-0.5-0.7c0-0.1,0-0.3,0.1-0.4c0.1-0.2,0.2-0.3,0.4-0.3c0.2-0.1,0.4-0.1,0.6,0c0.1,0,0.3,0.2,0.8,0.5
	c0.5-1,0.7-1.6,0.7-1.7c-0.1-0.1-0.2-0.1-0.3-0.1L31.8,54c-0.2,0-0.3,0-0.5-0.1s-0.2-0.3-0.3-0.5c-0.1-0.3,0-0.5,0.1-0.6
	s0.2-0.2,0.4-0.2l3.4-0.7c0.6-0.1,1-0.2,1.3-0.1s0.5,0.2,0.6,0.4c0.1,0.2,0.1,0.5,0,0.7c0,0.2-0.2,0.5-0.4,1l-0.7,1.6L35.6,56.1z
	 M32.9,50.8c-0.1-0.1-0.1-0.2-0.1-0.4c0-0.1,0-0.2,0.1-0.3c0.1-0.1,0.2-0.2,0.4-0.3c0.2-0.1,0.4-0.1,0.6,0c0.2,0.1,0.4,0.3,0.6,0.6
	c0.2,0.3,0.3,0.6,0.3,0.8c0.1,0.2,0,0.4-0.2,0.6C34.3,51.9,34.2,52,34,52c-0.2,0-0.4-0.1-0.6-0.3l-0.3-0.5L32.9,50.8z M41.3,54.6
	c0.2-0.1,0.4-0.2,0.6-0.1c0.3,0,0.8,0.2,1.4,0.5c0.6,0.3,1,0.5,1.1,0.7c0.1,0.1,0.2,0.3,0.2,0.4c0,0.1,0,0.3-0.1,0.5
	c-0.1,0.2-0.2,0.3-0.4,0.4c-0.1,0-0.3,0-0.5,0c-0.2-0.1-0.4-0.2-0.8-0.4c-0.3-0.2-0.9-0.5-1.7-0.9c-0.3,0.5-0.8,1-1.4,1.7
	c-0.6,0.7-1.1,1-1.4,0.9c-0.3-0.1-0.6-0.3-0.7-0.5c-0.1-0.2-0.1-0.4,0-0.6c0-0.1,0.3-0.3,0.9-0.7c0.6-0.4,0.9-0.8,1.1-1.3
	c0.2-0.5,0.3-0.9,0.2-1.3c0-0.4-0.1-0.9-0.2-1.5c-0.1-0.7-0.2-1.1-0.2-1.3c-0.1-0.2-0.1-0.4-0.1-0.5c0-0.4,0.2-0.6,0.6-0.7
	c0.4-0.1,0.7-0.1,0.8,0.2c0.1,0.3,0.1,0.5,0.2,0.6c0,0.3,0.1,0.8,0.2,1.5c0.1,0.7,0.2,1.2,0.2,1.5C41.3,53.9,41.3,54.3,41.3,54.6z
	 M40,46.8c0,0.4,0.1,0.8,0.1,1.1l0.9-0.2c0.5-0.1,0.9-0.1,1.1,0s0.4,0.3,0.5,0.5c0.1,0.2,0.2,0.4,0.2,0.6l0.9,4.5
	c0,0.2,0,0.3-0.2,0.5c-0.1,0.2-0.3,0.2-0.5,0.3c-0.1,0-0.3,0-0.5-0.1c-0.2-0.1-0.3-0.2-0.3-0.4l-0.8-4.1c0,0,0-0.1,0-0.1
	c0-0.1-0.1-0.1-0.1-0.2c0,0-0.2,0-0.4,0l-2.2,0.4c-0.2,0-0.3,0.1-0.4,0.1c0,0.1,0,0.1,0,0.2l0.8,4.4c0,0.1,0,0.3-0.1,0.5
	c-0.1,0.2-0.3,0.3-0.5,0.3c-0.1,0-0.3,0-0.5-0.1c-0.2-0.1-0.3-0.2-0.3-0.4L36.8,50c0-0.2,0-0.3,0-0.6c0-0.2,0.1-0.4,0.2-0.7
	c0.2-0.2,0.6-0.4,1.2-0.5l0.3-0.1c0-0.2,0-0.4,0-0.4l-0.1-0.6l-2.1,0.4c-0.2,0-0.3,0-0.5-0.1c-0.2-0.1-0.2-0.3-0.3-0.5
	c0-0.1,0-0.3,0.1-0.5c0.1-0.2,0.2-0.3,0.4-0.3l5.6-1.1c0.1,0,0.2,0,0.4,0.1c0.1,0.1,0.2,0.2,0.3,0.5c0.1,0.2,0,0.4-0.1,0.5
	c-0.1,0.1-0.3,0.2-0.4,0.2L40,46.8z"/>
<path id="Combined-Shape_2_" class="st1" d="M51.5,45.9c-2.9,0-5.2-2.3-5.2-5.2s2.3-5.2,5.2-5.2s5.2,2.3,5.2,5.2
	S54.4,45.9,51.5,45.9z M50.3,38.5l1.5,4.5l1-3L50.3,38.5z"/>
<g>
	<path class="st2" d="M39,7.4l2.1-3.5c0.3-0.4,0.1-1-0.3-1.3c-0.4-0.3-1-0.1-1.3,0.3L39,3.8V7.4z"/>
	<path class="st2" d="M50.8,0.9c-2.6-1.6-6.1-0.7-7.6,1.9L41,6.4l-6.8,11.4c-0.9,1.5,0,3.8,1.5,4.7c1.3,0.8,3.2,0.7,4.3-0.3l0.7-0.9
		l7.7-12.9c0.3-0.4,0.1-1-0.3-1.3c-0.4-0.3-1-0.1-1.3,0.3c0,0,0,0,0,0l-7.9,13.2c-0.3,0.5-1.5,0.7-2.3,0.2c-0.8-0.5-1.2-1.6-0.9-2.2
		l6.8-11.4l2.2-3.6c1.1-1.8,3.4-2.3,5.1-1.3c1.7,1,2.2,3.2,1.1,5l-4.7,7.8l2.4-0.4l3.8-6.4C54.1,5.9,53.4,2.5,50.8,0.9z"/>
</g>
</svg>
