<?xml version="1.0" encoding="UTF-8"?>
<svg width="76px" height="35px" viewBox="0 0 76 35" version="1.1" xmlns="http://www.w3.org/2000/svg" xmlns:xlink="http://www.w3.org/1999/xlink">
    <!-- Generator: Sketch 48.1 (47250) - http://www.bohemiancoding.com/sketch -->
    <title>免费领</title>
    <desc>Created with Sketch.</desc>
    <defs>
        <linearGradient x1="10.8555647%" y1="27.4322818%" x2="1.11022302e-14%" y2="100%" id="linearGradient-1">
            <stop stop-color="#C8841E" offset="0%"></stop>
            <stop stop-color="#D59330" offset="100%"></stop>
        </linearGradient>
        <linearGradient x1="88.8134058%" y1="18.1158288%" x2="50%" y2="100%" id="linearGradient-2">
            <stop stop-color="#FFEECD" offset="0%"></stop>
            <stop stop-color="#F5F1BB" offset="100%"></stop>
        </linearGradient>
        <polygon id="path-3" points="0 9.13924051 59.0815643 0.614714967 66.3797468 25.0126582 7.59129967 34.6329114"></polygon>
        <filter x="-50.4%" y="-50.4%" width="200.7%" height="200.7%" filterUnits="objectBoundingBox" id="filter-5">
            <feGaussianBlur stdDeviation="5.52176339" in="SourceGraphic"></feGaussianBlur>
        </filter>
    </defs>
    <g id="1.-霸王餐插入活动广告" stroke="none" stroke-width="1" fill="none" fill-rule="evenodd" transform="translate(-265.000000, -140.000000)">
        <g id="ads" transform="translate(0.000000, 64.000000)">
            <g id="免费领" transform="translate(265.000000, 75.500000)">
                <polygon id="Rectangle-15" fill="#F3AE46" points="0.495264153 32.0958732 59.5768284 23.5713477 67.1538766 0.828773211 8.07231232 9.35329875"></polygon>
                <polygon id="Rectangle-15" fill="url(#linearGradient-1)" points="1.45728947 32.0958732 60.5388537 23.5713477 68.1159019 0.828773211 9.03433764 9.35329875"></polygon>
                <polygon id="Rectangle-15" fill="#F3AE46" points="8.67247934 9.26670424 27.8987342 6.73417722 17.3164557 34.6329114 16.2495275 34.6329114"></polygon>
                <g id="Group-13" transform="translate(9.620253, 0.000000)">
                    <mask id="mask-4" fill="white">
                        <use xlink:href="#path-3"></use>
                    </mask>
                    <use id="Rectangle-15" fill="url(#linearGradient-2)" xlink:href="#path-3"></use>
                    <path d="M17.8364587,18.5217005 L18.1669085,21.6185758 C18.1828504,21.7623784 18.2296899,21.8753644 18.3074284,21.9575373 C18.3851669,22.0397102 18.4883742,22.080796 18.6170533,22.080796 L22.4130693,22.080796 L22.5223844,23.0668657 L17.388112,23.0668657 C17.0535462,23.0668657 16.7476442,22.9384725 16.4703969,22.6816822 C16.1931496,22.424892 16.0289076,22.065391 15.9776659,21.6031685 L15.6882092,18.8760693 L12.5575439,23.0206437 L9.77808814,23.0206437 L13.6950637,17.8437776 L10.6453832,17.8437776 C10.319396,17.8437776 10.0300816,17.7102486 9.77743146,17.4431868 C9.52478129,17.1761249 9.37682303,16.8474382 9.33355226,16.457117 L9.02268746,13.6529812 L17.1423012,13.6529812 L17.5408679,12.6052821 L11.3642996,12.6052821 L11.1211736,13.3140197 L8.85643189,13.3140197 L9.60812961,11.1569922 L11.8600035,11.1569922 L11.7036513,11.603805 L19.7460579,11.603805 L19.857081,12.6052821 L19.4327786,13.6529812 L21.1055991,13.6529812 L21.4164639,16.457117 C21.4597347,16.8474382 21.3846525,17.1761249 21.1912149,17.4431868 C20.9977774,17.7102486 20.7380689,17.8437776 20.4120817,17.8437776 L16.4487838,17.8437776 L15.9448846,18.5217005 L17.8364587,18.5217005 Z M11.3212452,14.6544583 L11.4954661,16.2260069 C11.5148241,16.4006243 11.5803767,16.5469926 11.6921258,16.6651161 C11.8038749,16.7832396 11.9283765,16.8423005 12.0656342,16.8423005 L14.3818473,16.8423005 L14.1393045,14.6544583 L11.3212452,14.6544583 Z M18.7569165,16.8423005 C18.9027529,16.8423005 19.0184488,16.7832396 19.1040077,16.6651161 C19.1895666,16.5469926 19.2226666,16.4006243 19.2033086,16.2260069 L19.0290877,14.6544583 L16.3268391,14.6544583 L16.5693819,16.8423005 L18.7569165,16.8423005 Z M29.853163,16.2414143 L29.709687,14.9471977 L28.0754699,14.9471977 L28.0874263,15.0550491 C28.1284196,15.4248271 28.034055,15.7149958 27.8043294,15.9255638 C27.5746039,16.1361318 27.2924624,16.2414143 26.9578966,16.2414143 L22.7372416,16.2414143 L22.6527507,15.3631959 L25.5737528,15.3631959 C25.8225325,15.3631959 25.9343949,15.2502099 25.9093434,15.0242344 L25.9008032,14.9471977 L23.3401009,14.9471977 C23.1685287,14.9471977 23.0101498,14.8727297 22.8649595,14.7237913 C22.7197691,14.574853 22.6352188,14.3925346 22.611306,14.1768308 L22.4541655,12.7593555 L25.6582603,12.7593555 L25.6001867,12.235506 L22.3574883,12.235506 L22.2652537,11.4035096 L25.5079521,11.4035096 L25.4806233,11.1569922 L27.65529,11.1569922 L27.6826188,11.4035096 L29.3168358,11.4035096 L29.2895071,11.1569922 L31.4770417,11.1569922 L31.5043704,11.4035096 L34.7342009,11.4035096 L34.8657206,12.5898748 C34.8987431,12.8877515 34.8378575,13.1316986 34.683062,13.3217234 C34.5282665,13.5117482 34.326482,13.6067592 34.0777023,13.6067592 L31.7486213,13.6067592 L31.8049869,14.1152014 L35.1377602,14.1152014 L35.2436592,15.0704565 C35.2766817,15.3683332 35.2169348,15.6225517 35.0644167,15.8331198 C34.9118986,16.0436878 34.7112528,16.1489702 34.4624731,16.1489702 L32.7124454,16.1489702 L32.628751,15.3940106 L32.8989759,15.3940106 C32.9590262,15.3940106 33.0036458,15.3708998 33.032836,15.3246776 C33.0620263,15.2784553 33.0732052,15.2245302 33.0663729,15.1629005 L33.0424603,14.9471977 L31.8972216,14.9471977 L32.0406976,16.2414143 L29.853163,16.2414143 Z M36.0786649,23.0668657 L33.9683374,23.0668657 C33.7538722,23.0668657 33.5472865,23.0411871 33.3485743,22.989829 C33.149862,22.938471 32.9567518,22.8408921 32.7692377,22.6970896 L29.7309552,20.4784327 L27.0301764,22.6970896 C26.8573888,22.8408921 26.6816244,22.938471 26.5028778,22.989829 C26.3241312,23.0411871 26.123239,23.0668657 25.9001951,23.0668657 L23.5582463,23.0668657 L23.4472232,22.0653886 L24.0777479,22.0653886 C24.1892698,22.0653886 24.2910729,22.0551172 24.3831602,22.034574 C24.4752475,22.0140307 24.5644867,21.9678092 24.6508805,21.8959079 L28.1849984,18.953106 L28.0534787,17.7667409 L30.2410133,17.7667409 L30.4750159,19.8775464 L30.0030031,20.2627299 L32.1905377,20.2627299 L34.6878039,21.8959079 C34.7901395,21.9678092 34.8896269,22.0140307 34.986269,22.034574 C35.0829112,22.0551172 35.1827024,22.0653886 35.2856457,22.0653886 L35.9676418,22.0653886 L36.0786649,23.0668657 Z M23.0615492,17.8899996 C23.0182784,17.4996784 23.0955053,17.1709918 23.2932321,16.9039299 C23.490959,16.636868 23.7485228,16.503339 24.0659314,16.503339 L34.1929298,16.503339 C34.518917,16.503339 34.8082313,16.636868 35.0608815,16.9039299 C35.3135317,17.1709918 35.4614899,17.4996784 35.5047607,17.8899996 L35.762676,20.2165079 L33.5880092,20.2165079 L33.33351,17.9208143 C33.3187069,17.7872833 33.2678628,17.6768652 33.1809763,17.5895565 C33.0940899,17.5022478 32.9991764,17.4585941 32.8962331,17.4585941 L25.5872939,17.4585941 C25.475772,17.4585941 25.3883928,17.5022478 25.3251536,17.5895565 C25.2619144,17.6768652 25.2376967,17.7872833 25.2524999,17.9208143 L25.5069991,20.2165079 L23.3194645,20.2165079 L23.0615492,17.8899996 Z M27.8329271,12.7593555 L29.4671441,12.7593555 L29.4090704,12.235506 L27.7748534,12.235506 L27.8329271,12.7593555 Z M27.9832353,14.1152014 L29.6174523,14.1152014 L29.5610867,13.6067592 L27.9268697,13.6067592 L27.9832353,14.1152014 Z M32.5039568,12.7593555 C32.5640071,12.7593555 32.6086267,12.7362447 32.637817,12.6900225 C32.6670072,12.6438002 32.6781861,12.5898751 32.6713539,12.5282454 L32.6389009,12.235506 L31.596605,12.235506 L31.6546787,12.7593555 L32.5039568,12.7593555 Z M24.7356428,13.6067592 L24.7663877,13.8840913 C24.7732199,13.945721 24.7984996,13.9996461 24.8422275,14.0458684 C24.8859554,14.0920906 24.9335545,14.1152014 24.9850261,14.1152014 L25.8085686,14.1152014 L25.752203,13.6067592 L24.7356428,13.6067592 Z M42.2126434,11.2494362 L48.5693616,11.2494362 L48.6803847,12.2509133 L46.5957929,12.2509133 L46.6743632,12.9596509 L47.7681305,12.9596509 C48.042646,12.9596509 48.2876445,13.0803405 48.5031335,13.3217234 C48.7186225,13.5631063 48.8451537,13.8532749 48.882731,14.1922381 L49.3626926,18.5217005 L47.7413434,18.5217005 L47.269922,14.2692748 C47.2608124,14.1871019 47.2292508,14.1152017 47.1752362,14.053572 C47.1212216,13.9919424 47.0599008,13.961128 46.9912719,13.961128 L44.3919661,13.961128 C44.3233372,13.961128 44.2688485,13.9919424 44.2284984,14.053572 C44.1881483,14.1152017 44.1725283,14.1871019 44.1816379,14.2692748 L44.6530592,18.5217005 L43.0317101,18.5217005 L42.5517485,14.1922381 C42.5141712,13.8532749 42.5763666,13.5631063 42.7383365,13.3217234 C42.9003063,13.0803405 43.1185457,12.9596509 43.3930613,12.9596509 L44.4868286,12.9596509 L44.4082583,12.2509133 L42.3236665,12.2509133 L42.2126434,11.2494362 Z M42.4141765,16.5495611 L42.3848849,21.9729446 C42.3870856,22.147562 42.3585596,22.2964981 42.2993058,22.4197575 C42.2400521,22.5430168 42.1637942,22.6482992 42.0705299,22.7356079 C41.9772656,22.8229166 41.8728621,22.8871132 41.7573164,22.9281997 C41.6417707,22.9692861 41.51966,22.989829 41.3909809,22.989829 L38.7788072,22.989829 C38.5300275,22.989829 38.2822958,22.9025216 38.0356047,22.7279042 C37.7889136,22.5532869 37.6253353,22.2965004 37.544865,21.9575373 L36.8231405,19.0455501 L38.7533181,19.0455501 L39.3902067,21.7726492 C39.418751,21.8753653 39.4640344,21.9549691 39.5260582,22.011463 C39.5880821,22.0679568 39.6576967,22.0962033 39.7349042,22.0962033 L40.1209397,22.0962033 C40.1895686,22.0962033 40.2532051,22.0705247 40.3118511,22.0191666 C40.3704972,21.9678086 40.4027048,21.8907726 40.408475,21.7880565 L40.3914194,16.410895 L36.466725,16.410895 L36.3574099,15.4248253 L42.289489,15.4248253 L42.4141765,16.5495611 Z M45.6407877,23.0206437 L43.4017817,23.0206437 L45.1062835,17.9670363 L44.7134324,14.4233482 L46.7722885,14.4233482 L47.2061328,18.3368125 L46.9234917,19.1534015 L47.8885805,19.1534015 L49.8485748,23.0206437 L47.7125116,23.0206437 L46.4612672,20.5554694 L45.6407877,23.0206437 Z M38.4487355,12.235506 C38.3801066,12.235506 38.3250486,12.2611846 38.2835597,12.3125427 C38.2420709,12.3639007 38.2173031,12.4306652 38.2092555,12.5128381 L38.1422884,14.3463115 L36.1606394,14.3463115 L36.2441204,12.0814326 C36.2574071,11.8143707 36.3394351,11.6063737 36.4902068,11.4574353 C36.6409784,11.308497 36.8150157,11.2340289 37.0123237,11.2340289 L40.7826039,11.2340289 C40.979912,11.2340289 41.1683156,11.308497 41.3478204,11.4574353 C41.5273252,11.6063737 41.6533254,11.8143707 41.7258247,12.0814326 L42.3243398,14.3463115 L40.329823,14.3463115 L39.8563404,12.5128381 C39.8300735,12.4306652 39.7905027,12.3639007 39.7376268,12.3125427 C39.684751,12.2611846 39.6282887,12.235506 39.5682385,12.235506 L38.4487355,12.235506 Z M38.6600736,15.0704565 L38.3451028,13.6221665 L39.9921877,13.6221665 L40.3071584,15.0704565 L38.6600736,15.0704565 Z" id="免费领" fill="#D62F1E" mask="url(#mask-4)" transform="translate(29.352503, 17.111929) rotate(-9.000000) translate(-29.352503, -17.111929) "></path>
                    <path d="M53.3271505,7.21518987 C53.9130244,7.21518987 54.4766252,7.55762554 54.7685866,8.09098547 L57.1855469,12.5063291 L55.5885584,16.9216728 C55.3956471,17.4550327 54.8956399,17.7974684 54.309766,17.7974684 C53.9676472,17.7974684 53.6645526,17.5201263 53.6327852,17.1780075 C53.6245742,17.0895789 53.6353908,17.0021752 53.6645078,16.9216728 L55.2614962,12.5063291 L52.8445359,8.09098547 C52.6740462,7.77953199 52.7776634,7.4122841 53.0759715,7.27071433 C53.1530762,7.23412233 53.2387219,7.21518987 53.3271505,7.21518987 Z" id="Rectangle-16" fill="#D62F1E" mask="url(#mask-4)" transform="translate(54.973993, 12.506329) rotate(-9.000000) translate(-54.973993, -12.506329) "></path>
                    <circle id="Oval-2" fill="#FFFCFC" filter="url(#filter-5)" mask="url(#mask-4)" cx="58.2776899" cy="-4.7515825" r="16.4493176"></circle>
                </g>
            </g>
        </g>
    </g>
</svg>