<?xml version="1.0" encoding="UTF-8"?>
<svg width="136px" height="19px" viewBox="0 0 136 19" version="1.1" xmlns="http://www.w3.org/2000/svg" xmlns:xlink="http://www.w3.org/1999/xlink">
    <!-- Generator: Sketch 48.1 (47250) - http://www.bohemiancoding.com/sketch -->
    <title>助力人-labelBg</title>
    <desc>Created with Sketch.</desc>
    <defs></defs>
    <g id="3.-助力人扫canvas后插入活动广告" stroke="none" stroke-width="1" fill="none" fill-rule="evenodd" transform="translate(-40.000000, -591.000000)">
        <g id="ads" transform="translate(10.000000, 511.000000)" fill="#FA7E4B">
            <g id="助力人-labelBg" transform="translate(30.000000, 80.000000)">
                <path d="M16.3189547,2.69347667e-14 L126.38435,1.37667655e-14 C128.041204,6.10449537e-15 129.38435,1.34314575 129.38435,3 C129.38435,3.38635229 129.309722,3.76906749 129.164567,4.12711533 L127.087722,9.25 C124.820906,14.8414814 119.38999,18.5 113.35649,18.5 L3.29109501,18.5 C1.63424076,18.5 0.291095006,17.1568542 0.291095006,15.5 C0.291095006,15.1136477 0.365722674,14.7309325 0.510877202,14.3728847 L2.58772234,9.25 C4.85453913,3.65851858 10.2854547,2.77536886e-14 16.3189547,2.66453526e-14 Z" id="Rectangle-11"></path>
                <path d="M129.136707,-3.08982533e-15 L132.853438,-3.99680289e-15 C134.510292,-4.30116208e-15 135.853438,1.34314575 135.853438,3 C135.853438,3.38635229 135.778811,3.76906749 135.633656,4.12711533 L133.556811,9.25 C131.289994,14.8414814 125.859079,18.5 119.825578,18.5 L119.089747,18.5 C123.153559,16.9584886 126.469954,13.7316185 128.056811,9.5 L130.286797,3.55337032 C130.413109,3.21653915 130.477809,2.85973585 130.477809,2.5 C130.477809,1.45651462 129.945055,0.537460769 129.136707,-2.1032065e-12 Z" id="Combined-Shape" opacity="0.5"></path>
            </g>
        </g>
    </g>
</svg>