<?xml version="1.0" encoding="UTF-8" standalone="no"?>
<!-- Created with Inkscape (http://www.inkscape.org/) -->

<svg
   xmlns:dc="http://purl.org/dc/elements/1.1/"
   xmlns:cc="http://creativecommons.org/ns#"
   xmlns:rdf="http://www.w3.org/1999/02/22-rdf-syntax-ns#"
   xmlns:svg="http://www.w3.org/2000/svg"
   xmlns="http://www.w3.org/2000/svg"
   xmlns:xlink="http://www.w3.org/1999/xlink"
   xmlns:sodipodi="http://sodipodi.sourceforge.net/DTD/sodipodi-0.dtd"
   xmlns:inkscape="http://www.inkscape.org/namespaces/inkscape"
   width="300"
   height="164"
   viewBox="0 0 79.375 43.391666"
   version="1.1"
   id="svg8"
   inkscape:version="0.92.1 r15371"
   sodipodi:docname="绘图.svg">
  <defs
     id="defs2">
    <linearGradient
       id="linearGradient-1"
       y2="209.7856"
       x2="209.7856"
       y1="0"
       x1="2.7892501"
       gradientTransform="matrix(1.1583252,0,0,0.77698372,416.89288,260.51968)"
       gradientUnits="userSpaceOnUse">
      <stop
         id="stop14"
         offset="0%"
         stop-color="#DDC796" />
      <stop
         id="stop16"
         offset="100%"
         stop-color="#AC834A" />
    </linearGradient>
    <rect
       rx="10"
       height="163"
       width="270"
       y="0"
       x="0"
       id="path-2" />
    <linearGradient
       id="linearGradient-4"
       y2="0.6944356"
       x2="0.3055644"
       y1="0.013452646"
       x1="0.98654729">
      <stop
         id="stop20"
         offset="0%"
         stop-opacity="0.2"
         stop-color="#B78746" />
      <stop
         id="stop22"
         offset="100%"
         stop-opacity="0"
         stop-color="#CBAD79" />
    </linearGradient>
    <linearGradient
       id="linearGradient-5"
       y2="63.924088"
       x2="28.127771"
       y1="1.2383411"
       x1="90.813515"
       gradientTransform="matrix(1.032027,0,0,0.96896692,463.21429,260.51969)"
       gradientUnits="userSpaceOnUse">
      <stop
         id="stop25"
         offset="0%"
         stop-opacity="0.2"
         stop-color="#9D7A4A" />
      <stop
         id="stop27"
         offset="100%"
         stop-opacity="0"
         stop-color="#CBAD79" />
    </linearGradient>
    <linearGradient
       inkscape:collect="always"
       xlink:href="#linearGradient-4"
       id="linearGradient79"
       x1="164.08258"
       y1="2.2374446"
       x2="50.821484"
       y2="115.49855"
       gradientTransform="matrix(1.2926885,0,0,0.77358155,463.21429,260.51969)"
       gradientUnits="userSpaceOnUse" />
    <linearGradient
       inkscape:collect="always"
       xlink:href="#linearGradient-4"
       id="linearGradient81"
       x1="164.08258"
       y1="2.2374446"
       x2="50.821484"
       y2="115.49855"
       gradientTransform="matrix(1.2926885,0,0,0.77358155,463.21429,260.51969)"
       gradientUnits="userSpaceOnUse" />
    <linearGradient
       inkscape:collect="always"
       xlink:href="#linearGradient-4"
       id="linearGradient83"
       x1="311.06308"
       y1="2.2374446"
       x2="197.80199"
       y2="115.49855"
       gradientTransform="matrix(1.2926885,0,0,0.77358155,-463.21429,260.51969)"
       gradientUnits="userSpaceOnUse" />
  </defs>
  <sodipodi:namedview
     id="base"
     pagecolor="#ffffff"
     bordercolor="#666666"
     borderopacity="1.0"
     inkscape:pageopacity="0.0"
     inkscape:pageshadow="2"
     inkscape:zoom="1.979899"
     inkscape:cx="231.80977"
     inkscape:cy="21.928554"
     inkscape:document-units="mm"
     inkscape:current-layer="layer1"
     showgrid="false"
     fit-margin-top="0"
     fit-margin-left="0"
     fit-margin-right="0"
     fit-margin-bottom="0"
     units="px"
     inkscape:window-width="1920"
     inkscape:window-height="1018"
     inkscape:window-x="-8"
     inkscape:window-y="-8"
     inkscape:window-maximized="1" />
  <metadata
     id="metadata5">
    <rdf:RDF>
      <cc:Work
         rdf:about="">
        <dc:format>image/svg+xml</dc:format>
        <dc:type
           rdf:resource="http://purl.org/dc/dcmitype/StillImage" />
        <dc:title></dc:title>
      </cc:Work>
    </rdf:RDF>
  </metadata>
  <g
     inkscape:label="Layer 1"
     inkscape:groupmode="layer"
     id="layer1"
     transform="translate(-122.55878,-68.929167)">
    <g
       id="领券、会员卡样式合集"
       transform="matrix(0.26458333,0,0,0.26458333,122.55878,68.929167)"
       style="fill:none;fill-rule:evenodd;stroke:none;stroke-width:1">
      <g
         transform="translate(-241,-134)"
         id="标注-2017.04.01">
        <g
           transform="translate(241,134)"
           id="VIP卡背景">
          <g
             id="defaultBG_vip">
            <rect
               rx="10"
               height="67"
               width="270"
               y="97"
               x="0"
               id="Combined-Shape"
               style="fill:#9d7a4a" />
            <mask
               fill="white"
               id="mask-3">
              <use
                 id="use33"
                 xlink:href="#path-2"
                 x="0"
                 y="0"
                 width="100%"
                 height="100%" />
            </mask>
            <use
               xlink:href="#path-2"
               id="use36"
               style="fill:url(#linearGradient-1)"
               x="0"
               y="0"
               width="100%"
               height="100%"
               transform="scale(1.1111111,1)" />
            <polygon
               points="0,128.66211 2.7002706e-013,0 215,0 80,128.66211 "
               mask="url(#mask-3)"
               id="Rectangle"
               style="fill:url(#linearGradient79)" />
            <polygon
               points="0,128.66211 2.7002706e-013,0 215,0 80,128.66211 "
               mask="url(#mask-3)"
               id="polygon39"
               style="fill:url(#linearGradient81)" />
            <polygon
               points="190,128.66211 190,0 405,0 270,128.66211 "
               transform="matrix(-1,0,0,1,595,0)"
               mask="url(#mask-3)"
               id="polygon41"
               style="fill:url(#linearGradient83)" />
            <polygon
               points="95,0 1.1368684e-013,89.195205 1.1368684e-013,0 "
               mask="url(#mask-3)"
               id="polygon43"
               style="fill:url(#linearGradient-5)" />
            <path
               mask="url(#mask-3)"
               id="VIP"
               d="m 198.02047,50.068968 c 2.80041,-2.821528 5.65362,-5.862644 8.5597,-9.130543 2.90609,-3.338415 5.66683,-6.666246 8.28231,-9.976286 2.61547,-3.370816 4.94031,-6.557413 6.97457,-9.545052 2.03426,-3.028634 3.57974,-5.541162 4.6365,-7.517344 0.84541,-1.500286 1.2681,-2.707599 1.2681,-3.615717 0,-0.170272 -0.0264,-0.3358019 -0.0793,-0.4965456 -0.0528,-0.1606786 -0.0793,-0.2977162 -0.0793,-0.4111657 0,-0.226899 0.0528,-0.3500053 0.15851,-0.3693226 0.15852,-0.028976 0.29061,0.032102 0.39629,0.183334 0.26419,0.236417 0.58121,0.6062665 0.95107,1.1102929 0.36987,0.505548 0.5548,0.930331 0.5548,1.273222 0,0.40004 -0.0793,0.842067 -0.23777,1.325705 -0.15851,0.483116 -0.50195,1.167092 -1.03033,2.050056 -0.52838,0.879922 -1.2681,2.001925 -2.21919,3.362018 -0.95108,1.351682 -2.24559,3.093201 -3.88356,5.213738 -1.63798,2.097632 -3.64579,4.614182 -6.0235,7.531333 -2.3777,2.869724 -5.23091,6.226745 -8.5597,10.03794 -0.79257,0.843936 -1.71722,1.835403 -2.77397,2.971417 -1.05676,1.127104 -2.1003,2.283313 -3.13063,3.468351 -1.03034,1.175717 -1.98141,2.300772 -2.85324,3.376678 -0.87182,1.068555 -1.49266,1.958973 -1.86253,2.675195 -0.36986,0.663718 -0.89823,1.001677 -1.58513,1.01537 -1.00392,0.06993 -1.75684,0.246513 -2.2588,0.529209 -0.50196,0.28156 -0.91145,0.424485 -1.22848,0.429632 -0.21135,0.0034 -0.31703,-0.09354 -0.31703,-0.290903 0,-0.148025 0.10568,-0.421431 0.31703,-0.820748 0.21135,-0.400013 0.4227,-0.874954 0.63405,-1.425035 0.68689,-1.95582 1.32094,-4.132053 1.90216,-6.529018 0.58121,-2.40832 1.06996,-4.733454 1.46624,-6.972336 0.39629,-2.246053 0.71331,-4.252054 0.95108,-6.015216 0.23777,-1.766535 0.35665,-2.979293 0.35665,-3.635779 0,-0.908981 -0.0528,-1.798569 -0.15851,-2.66822 -0.10567,-0.86889 -0.35665,-1.616078 -0.75294,-2.240507 -0.39628,-0.622228 -0.97749,-1.08987 -1.74364,-1.402581 -0.76615,-0.310033 -1.80968,-0.364702 -3.13063,-0.166018 -1.05676,0.158948 -2.23238,0.518959 -3.52691,1.077051 -1.29453,0.554099 -2.31165,1.220321 -3.05138,1.998487 -0.4227,0.442754 -0.71331,0.5551 -0.87182,0.338328 -0.15851,-0.216445 -0.0528,-0.470233 0.31703,-0.762186 1.5323,-1.183225 3.35518,-2.253303 5.46869,-3.209289 2.11352,-0.967286 4.09491,-1.601081 5.94424,-1.892929 1.955,-0.308525 3.28914,0.0023 4.00245,0.936982 0.71332,0.9407 1.06997,2.233003 1.06997,3.872438 0,1.741899 -0.17172,3.760586 -0.51517,6.051459 -0.34345,2.284658 -0.73973,4.580732 -1.18885,6.886787 -0.44912,2.297835 -0.8454,4.431826 -1.18885,6.404123 -0.34344,1.96686 -0.51516,3.554604 -0.51516,4.767361 0,0.252658 0.0528,0.377002 0.15851,0.373038 0.15851,-0.0059 0.29061,-0.06153 0.39628,-0.166804 z m 18.46676,3.542329 c 0.42271,-0.06387 0.83219,-0.236841 1.22848,-0.519401 0.39628,-0.283375 0.72652,-0.593265 0.9907,-0.929558 0.63406,-0.84278 1.49266,-2.083422 2.57584,-3.728718 1.08318,-1.658215 2.2456,-3.529126 3.48729,-5.616889 1.24169,-2.106147 2.52299,-4.346977 3.84394,-6.725067 1.32094,-2.39982 2.56262,-4.741513 3.72505,-7.022297 1.16243,-2.298712 2.17955,-4.437427 3.05137,-6.411367 0.87183,-1.985414 1.46625,-3.590847 1.78328,-4.809697 0.10567,-0.367717 0.15851,-0.698492 0.15851,-0.992139 0,-0.646023 -0.7133,-0.860202 -2.13993,-0.642543 -0.63405,0.09674 -1.34735,0.234572 -2.13992,0.413261 -0.79257,0.178364 -1.53229,0.405909 -2.21918,0.682251 l -0.23777,-0.05011 c 0.10567,-0.474919 0.26418,-0.843553 0.47554,-1.105914 2.21919,-0.459854 4.39872,-0.929936 6.53866,-1.410541 2.13993,-0.482806 3.97602,-0.994473 5.50832,-1.535728 0.26419,0.137983 0.39629,0.357096 0.39629,0.657099 0,0.120001 -0.15852,0.264641 -0.47554,0.433728 -0.42271,0.185167 -0.76615,0.507121 -1.03034,0.965564 -0.26419,0.457683 -0.52837,0.974179 -0.79256,1.549342 -1.1096,2.476165 -2.36448,5.219257 -3.76469,8.221974 -1.4002,2.975075 -2.89285,6.033557 -4.47799,9.171089 -1.58513,3.103958 -3.20988,6.162722 -4.87427,9.175382 -1.6644,2.97775 -3.26272,5.721531 -4.79502,8.236814 -0.4227,0.625543 -0.89824,1.111303 -1.42662,1.457752 -0.52837,0.345145 -1.03033,0.577744 -1.50587,0.69849 -0.58122,0.122548 -1.21526,0.204448 -1.90215,0.245955 -0.6869,0.04137 -1.29452,0.04005 -1.8229,-0.0037 -0.10568,-0.05228 -0.15852,-0.18729 -0.15852,-0.405062 z m 59.91791,-36.975799 c 0,1.669107 -0.40949,3.53802 -1.22848,5.599342 -0.81899,2.051386 -1.99461,3.997324 -3.52691,5.833274 -1.5323,1.819879 -3.39481,3.359711 -5.58759,4.620433 -2.19277,1.245841 -4.68932,1.975304 -7.48973,2.19957 -1.32095,0.105786 -2.48337,-0.02017 -3.48729,-0.375715 -0.15851,-0.111658 -0.23777,-0.229768 -0.23777,-0.354431 0,-0.249325 0.10568,-0.382937 0.31703,-0.400841 0.26419,0.102522 0.75293,0.186423 1.46624,0.251981 0.71331,0.06614 1.38699,0.07317 2.02104,0.02063 2.00784,-0.166368 3.87035,-0.800008 5.58759,-1.908883 1.71723,-1.119469 3.19667,-2.519382 4.43836,-4.201028 1.24169,-1.693902 2.21918,-3.568027 2.93249,-5.619842 0.71331,-2.060615 1.06996,-4.084167 1.06996,-6.064116 0,-2.771928 -0.67367,-4.552355 -2.02104,-5.3351 -1.34737,-0.774433 -2.97211,-1.0093156 -4.87427,-0.710889 -1.32095,0.20724 -2.50979,0.553912 -3.56654,1.038396 -0.6869,0.361529 -1.21527,0.983742 -1.58513,1.866021 -1.00393,2.176756 -2.20597,4.761566 -3.60617,7.745198 -1.40021,2.958005 -2.8136,5.98507 -4.24023,9.079603 -1.42662,3.066662 -2.80039,6.024594 -4.12133,8.876451 -1.32095,2.827409 -2.43053,5.256176 -3.32878,7.295566 -0.58121,1.352098 -0.87182,2.447533 -0.87182,3.290279 0,1.143729 0.4227,1.929565 1.26811,2.35949 0.8454,0.432532 2.11349,0.62953 3.80431,0.589043 0.58121,-0.01392 0.87182,0.07125 0.87182,0.255507 0,0.184255 -0.13209,0.309995 -0.39628,0.377142 -0.95109,0.204145 -2.02104,0.379096 -3.20989,0.525006 -1.18885,0.144932 -2.36448,0.228437 -3.52691,0.251252 -0.21136,0.0041 -0.54159,-0.01929 -0.99071,-0.07018 -0.44912,-0.0507 -0.88503,-0.146162 -1.30773,-0.286194 -0.42271,-0.139597 -0.79257,-0.339238 -1.10959,-0.598814 -0.31703,-0.258989 -0.47554,-0.62487 -0.47554,-1.098096 0,-0.354918 0.13209,-0.891267 0.39628,-1.610038 0.73973,-1.865091 1.71722,-3.988711 2.93249,-6.378469 1.21527,-2.40925 2.37769,-4.713595 3.48729,-6.910463 1.32094,-2.656421 2.74755,-5.635895 4.27985,-8.94574 1.53229,-3.3423 2.87964,-6.367877 4.04208,-9.067182 0.10567,-0.201063 0.26418,-0.580797 0.47553,-1.139669 0.21136,-0.559612 0.42271,-1.135566 0.63406,-1.727913 0.21135,-0.593129 0.39628,-1.15186 0.55479,-1.676015 0.15852,-0.524676 0.23777,-0.88119 0.23777,-1.069162 0,-0.250628 -0.13209,-0.355706 -0.39628,-0.315236 -1.69081,0.321238 -3.34197,0.728552 -4.95353,1.220489 -1.61156,0.489286 -3.26272,0.860087 -4.95353,1.114403 -1.00392,0.151 -1.50587,-0.104755 -1.50587,-0.767272 0,-0.120457 0.0925,-0.451013 0.27739,-0.992162 0.18494,-0.541795 0.35666,-0.825585 0.51517,-0.850894 0.10568,-0.01687 0.18493,0.09133 0.23777,0.324679 0.0528,0.293887 0.36986,0.455792 0.95108,0.485998 0.47554,0.04715 1.05675,0.03263 1.74364,-0.04375 0.68689,-0.07624 1.34736,-0.16356 1.98141,-0.262058 1.58514,-0.246244 3.19667,-0.558647 4.83465,-0.938228 1.63797,-0.38093 3.18346,-0.780228 4.6365,-1.198243 1.45304,-0.419807 2.74755,-0.784281 3.88357,-1.0927908 1.13602,-0.3094439 2.02104,-0.515131 2.65509,-0.6163667 1.16244,-0.1855987 2.33806,-0.2429552 3.52692,-0.1706042 1.18885,0.074307 2.27201,0.3812653 3.24951,0.9225843 0.9775,0.5455404 1.77006,1.3555444 2.3777,2.4301504 0.60763,1.07898 0.91145,2.488024 0.91145,4.223896 z"
               inkscape:connector-curvature="0"
               style="fill:#ffffff;fill-opacity:0.3" />
          </g>
        </g>
      </g>
    </g>
  </g>
</svg>
