<?xml version="1.0" encoding="UTF-8"?>
<svg width="210px" height="111px" viewBox="0 0 210 111" version="1.1" xmlns="http://www.w3.org/2000/svg" xmlns:xlink="http://www.w3.org/1999/xlink">
    <!-- Generator: Sketch 42 (36781) - http://www.bohemiancoding.com/sketch -->
    <title>VIP活动背景</title>
    <desc>Created with Sketch.</desc>
    <defs>
        <linearGradient x1="1.32957176%" y1="0%" x2="100%" y2="100%" id="linearGradient-1">
            <stop stop-color="#DDC796" offset="0%"></stop>
            <stop stop-color="#AC834A" offset="100%"></stop>
        </linearGradient>
        <rect id="path-2" x="0" y="0" width="210" height="111" rx="5"></rect>
        <linearGradient x1="98.6547353%" y1="1.34526467%" x2="30.5564413%" y2="69.4435587%" id="linearGradient-4">
            <stop stop-color="#B78746" stop-opacity="0.2" offset="0%"></stop>
            <stop stop-color="#CBAD79" stop-opacity="0" offset="100%"></stop>
        </linearGradient>
        <linearGradient x1="98.6547353%" y1="1.34526467%" x2="30.5564413%" y2="69.4435587%" id="linearGradient-5">
            <stop stop-color="#9D7A4A" stop-opacity="0.2" offset="0%"></stop>
            <stop stop-color="#CBAD79" stop-opacity="0" offset="100%"></stop>
        </linearGradient>
    </defs>
    <g id="领券、会员卡样式合集" stroke="none" stroke-width="1" fill="none" fill-rule="evenodd">
        <g id="标注-2017.04.01" transform="translate(-269.000000, -1529.000000)">
            <g id="Group-12" transform="translate(269.000000, 1529.000000)">
                <g id="VIP活动背景">
                    <mask id="mask-3" fill="white">
                        <use xlink:href="#path-2"></use>
                    </mask>
                    <use id="Rectangle-13" fill="url(#linearGradient-1)" xlink:href="#path-2"></use>
                    <polygon id="Rectangle" fill="url(#linearGradient-4)" mask="url(#mask-3)" points="-1 0.183565022 110.481481 0.183565022 40.4814815 75.6621094 -1 75.6621094"></polygon>
                    <polygon id="Rectangle" fill="url(#linearGradient-4)" mask="url(#mask-3)" points="-1 0.183565022 110.481481 0.183565022 40.4814815 75.6621094 -1 75.6621094"></polygon>
                    <polyline id="Rectangle" fill="url(#linearGradient-4)" mask="url(#mask-3)" points="219 0.183565022 107.518519 0.183565022 177.518519 75.6621094 219 75.6621094"></polyline>
                    <polygon id="Rectangle" fill="url(#linearGradient-5)" mask="url(#mask-3)" points="-1 0.183565022 48.2592593 0.183565022 -1 52.5091817"></polygon>
                    <path d="M145.26363,48.0981242 C147.763312,45.5795911 150.31012,42.865052 152.90413,39.9480827 C155.498139,36.9681697 157.962412,33.9977047 160.297021,31.0431197 C162.631629,28.0342858 164.706806,25.1898878 166.522613,22.5230825 C168.33842,19.8196845 169.717941,17.5769694 170.661217,15.8130036 C171.415838,14.4738284 171.793143,13.396165 171.793143,12.5855675 C171.793143,12.4335804 171.769561,12.2858263 171.722398,12.1423443 C171.675234,11.9989205 171.651652,11.876599 171.651652,11.7753325 C171.651652,11.5727995 171.698815,11.4629132 171.793143,11.4456704 C171.934634,11.419806 172.052542,11.4743252 172.14687,11.6093166 C172.382689,11.8203456 172.665668,12.1504781 172.995814,12.6003787 C173.325961,13.0516371 173.491032,13.4308043 173.491032,13.7368733 C173.491032,14.0939537 173.420287,14.4885133 173.278796,14.9202147 C173.137304,15.3514505 172.830744,15.9619757 172.359106,16.7501212 C171.887468,17.5355511 171.227184,18.5370657 170.378236,19.7511018 C169.529287,20.9576312 168.373791,22.5121336 166.911713,24.4049523 C165.449634,26.2773265 163.657436,28.5236318 161.535065,31.1275184 C159.412693,33.6890709 156.865885,36.6855914 153.894565,40.0875143 C153.187107,40.8408222 152.361753,41.7258187 151.418477,42.7398391 C150.475201,43.7459067 149.543729,44.7779539 148.624035,45.8357351 C147.70434,46.8851949 146.855404,47.8894335 146.077201,48.8498012 C145.298999,49.8036079 144.744832,50.5984061 144.414685,51.237715 C144.084539,51.8301585 143.612908,52.1318252 142.999778,52.144048 C142.103665,52.2064693 141.431591,52.3640883 140.983535,52.6164262 C140.535479,52.8677505 140.169965,52.9953276 139.886982,52.9999215 C139.698326,53.0029841 139.604,52.9164304 139.604,52.740258 C139.604,52.6081287 139.698326,52.3640827 139.886982,52.0076471 C140.075637,51.6505909 140.264289,51.226652 140.452945,50.7356431 C141.066074,48.9898528 141.632032,47.0473184 142.150834,44.9077562 C142.669635,42.758059 143.105894,40.6826137 143.459623,38.6841585 C143.813351,36.6793022 144.09633,34.8887194 144.308567,33.3148985 C144.520804,31.7380663 144.626921,30.6555431 144.626921,30.069555 C144.626921,29.258187 144.579758,28.4641293 144.485431,27.6878674 C144.391103,26.9122845 144.167078,26.2453346 143.81335,25.6879618 C143.459621,25.1325529 142.940827,24.7151296 142.256952,24.4359996 C141.573076,24.1592603 140.641605,24.1104619 139.46251,24.2878099 C138.519233,24.4296884 137.469854,24.7510393 136.314341,25.2491992 C135.158827,25.7437949 134.250937,26.3384734 133.590644,27.0330746 C133.213333,27.4282826 132.953936,27.528564 132.812445,27.3350711 C132.670953,27.1418691 132.76528,26.9153346 133.095426,26.6547334 C134.463177,25.5985716 136.090304,24.6434059 137.976857,23.7900805 C139.863409,22.9266687 141.632026,22.3609351 143.282759,22.1004277 C145.027821,21.8250341 146.218689,22.1024765 146.855401,22.9367894 C147.492112,23.7764705 147.810463,24.9299972 147.810463,26.3933781 C147.810463,27.9482203 147.657183,29.7501263 147.350618,31.7949895 C147.044053,33.8343051 146.69033,35.8838104 146.289438,37.9422249 C145.888545,39.9933024 145.534822,41.8981306 145.228257,43.6586287 C144.921692,45.4142727 144.768412,46.8315144 144.768412,47.9140368 C144.768412,48.1395623 144.815575,48.2505539 144.909903,48.2470151 C145.051394,48.2417067 145.169302,48.1920963 145.26363,48.0981242 Z M161.747301,51.2600523 C162.124611,51.2030418 162.490125,51.0486451 162.843854,50.7964285 C163.197582,50.5434845 163.492352,50.2668724 163.728171,49.9666932 C164.294137,49.2144165 165.060537,48.1070035 166.027395,46.6383909 C166.994254,45.1582466 168.031842,43.4882469 169.140192,41.6246827 C170.248541,39.7447086 171.392247,37.7445148 172.571342,35.6218009 C173.750437,33.47969 174.85877,31.3894642 175.896374,29.3536067 C176.933978,27.3017467 177.841868,25.3927024 178.620071,23.6307375 C179.398274,21.8585309 179.928859,20.4255008 180.211842,19.3375398 C180.306169,19.0093108 180.353333,18.7140569 180.353333,18.4519437 C180.353333,17.8752948 179.716631,17.684116 178.443208,17.8784014 C177.877242,17.9647505 177.24054,18.0877826 176.533083,18.2472833 C175.825625,18.406493 175.165342,18.6096027 174.552212,18.8562693 L174.339976,18.811544 C174.434304,18.3876252 174.575793,18.0585773 174.764448,17.8243905 C176.745329,17.4139193 178.690807,16.994318 180.600941,16.5653231 C182.511076,16.1343643 184.149994,15.6776443 185.517744,15.1945128 C185.753564,15.3176786 185.871471,15.513261 185.871471,15.7810478 C185.871471,15.8881625 185.729982,16.0172699 185.446999,16.1681992 C185.069689,16.3334813 184.763128,16.6208623 184.527309,17.0300744 C184.29149,17.4386076 184.055675,17.899639 183.819856,18.4130368 C182.829416,20.6232943 181.709292,23.0718134 180.459451,25.7520774 C179.20961,28.4076683 177.877252,31.1377093 176.462337,33.9383109 C175.047423,36.708944 173.597157,39.4392367 172.111497,42.1283762 C170.625837,44.7863543 169.199153,47.2354896 167.831402,49.4806634 C167.454092,50.0390312 167.029624,50.4726272 166.557986,50.7818719 C166.086348,51.0899528 165.638298,51.2975741 165.213824,51.4053532 C164.695022,51.5147411 164.129064,51.587846 163.515935,51.6248957 C162.902805,51.6618193 162.36043,51.6606463 161.888791,51.6216168 C161.794464,51.5749492 161.747301,51.4544386 161.747301,51.2600523 Z M215.230799,18.2549739 C215.230799,19.7448408 214.865285,21.4130566 214.134246,23.2530194 C213.403207,25.0841129 212.353828,26.8210829 210.986077,28.4598754 C209.618327,30.0843237 207.955827,31.4587973 205.998529,32.584134 C204.04123,33.6961885 201.812774,34.3473165 199.313091,34.5474992 C198.133996,34.6419249 197.096408,34.5294917 196.200295,34.212131 C196.058804,34.1124631 195.988059,34.0070367 195.988059,33.8957614 C195.988059,33.6732106 196.082385,33.5539466 196.27104,33.5379656 C196.50686,33.6294781 196.943118,33.7043685 197.57983,33.7628864 C198.216541,33.821928 198.817871,33.8281973 199.383837,33.7813018 C201.176062,33.6327992 202.838561,33.0672041 204.371385,32.0774075 C205.904209,31.0781547 207.224776,29.8285742 208.333126,28.3275155 C209.441475,26.8155168 210.313993,25.1426479 210.950704,23.3111716 C211.587416,21.4718394 211.905767,19.6655905 211.905767,17.8982626 C211.905767,15.4240035 211.304437,13.8347713 210.10176,13.136083 C208.899083,12.4448141 207.448817,12.2351547 205.75092,12.5015341 C204.571825,12.6865197 203.510655,12.9959636 202.567378,13.4284204 C201.954249,13.7511255 201.482618,14.3065203 201.152471,15.0940543 C200.256358,17.0370551 199.183398,19.3442903 197.933557,22.0075186 C196.683716,24.6478728 195.422102,27.3498703 194.148679,30.1120903 C192.875256,32.8494334 191.649016,35.4897218 190.46992,38.035326 C189.290825,40.5591084 188.3004,42.7270576 187.498615,44.5474435 C186.979813,45.7543438 186.720416,46.7321426 186.720416,47.4843895 C186.720416,48.5052961 187.097721,49.2067441 187.852342,49.5905003 C188.606963,49.9765842 189.738877,50.152427 191.248119,50.1162882 C191.766921,50.1038654 192.026318,50.1798875 192.026318,50.3443565 C192.026318,50.5088255 191.908411,50.6210629 191.672592,50.6809991 C190.823643,50.8632213 189.86859,51.019385 188.807404,51.1496258 C187.746218,51.2789937 186.696839,51.3535316 185.659235,51.3738963 C185.47058,51.377599 185.175811,51.3566776 184.774918,51.3112551 C184.374026,51.2659975 183.98493,51.1807891 183.60762,51.0557947 C183.230309,50.9311882 182.900167,50.7529863 182.617184,50.5212855 C182.334201,50.2901085 182.192712,49.9635178 182.192712,49.5411109 C182.192712,49.2243057 182.31062,48.7455543 182.546439,48.1039695 C183.206732,46.4391651 184.07925,44.5435946 185.164018,42.4104656 C186.248785,40.2599374 187.286374,38.2030491 188.276814,36.2420958 C189.455909,33.8709404 190.729313,31.2114232 192.097064,28.2570125 C193.464814,25.2736322 194.667474,22.5729627 195.705078,20.1635279 C195.799405,19.9840564 195.940894,19.645101 196.12955,19.1462441 C196.318205,18.6467278 196.506857,18.1326236 196.695513,17.603887 C196.884168,17.0744521 197.049239,16.5757213 197.19073,16.1078542 C197.332222,15.6395215 197.402966,15.3212925 197.402966,15.1535065 C197.402966,14.929792 197.285059,14.8359982 197.04924,14.8721225 C195.539997,15.1588633 194.06615,15.5224376 192.627654,15.961547 C191.189158,16.3982899 189.715311,16.7292717 188.206068,16.9562773 C187.309956,17.0910618 186.861906,16.8627719 186.861906,16.2714007 C186.861906,16.1638786 186.944442,15.8688202 187.109515,15.3857838 C187.274589,14.9021704 187.427869,14.6488555 187.56936,14.6262644 C187.663688,14.6112037 187.734432,14.7077876 187.781596,14.9160772 C187.82876,15.1784043 188.111739,15.3229232 188.630541,15.3498856 C189.055015,15.3919766 189.573809,15.3790149 190.186939,15.3108328 C190.800068,15.2427767 191.389607,15.164837 191.955573,15.0769167 C193.370487,14.8571161 194.808962,14.5782611 196.27104,14.2394414 C197.733119,13.8994191 199.11264,13.5429999 200.409645,13.169875 C201.706649,12.7951497 202.862146,12.4698149 203.876168,12.1944353 C204.89019,11.9182216 205.680172,11.7346226 206.246137,11.6442584 C207.283741,11.4785905 208.333121,11.4273934 209.394306,11.4919748 C210.455492,11.5583019 211.422336,11.8322972 212.294866,12.3154856 C213.167397,12.8024418 213.874844,13.525462 214.417228,14.4846696 C214.959611,15.4477808 215.230799,16.7055123 215.230799,18.2549739 Z" id="VIP" fill-opacity="0.3" fill="#FFFFFF" mask="url(#mask-3)"></path>
                </g>
            </g>
        </g>
    </g>
</svg>