<?xml version="1.0" encoding="UTF-8"?>
<svg width="248px" height="32px" viewBox="0 0 248 32" version="1.1" xmlns="http://www.w3.org/2000/svg" xmlns:xlink="http://www.w3.org/1999/xlink">
    <!-- Generator: Sketch 42 (36781) - http://www.bohemiancoding.com/sketch -->
    <title>按钮</title>
    <desc>Created with Sketch.</desc>
    <defs>
        <linearGradient x1="50%" y1="0%" x2="50%" y2="100%" id="linearGradient-1">
            <stop stop-color="#FFFFFF" offset="0%"></stop>
            <stop stop-color="#FEF9CB" offset="100%"></stop>
        </linearGradient>
        <linearGradient x1="0%" y1="0%" x2="73.2958984%" y2="71.6796875%" id="linearGradient-2">
            <stop stop-color="#FFFFFF" offset="0%"></stop>
            <stop stop-color="#FEF9CB" offset="100%"></stop>
        </linearGradient>
        <rect id="path-3" x="0" y="0" width="240" height="24" rx="3"></rect>
        <filter x="-50%" y="-50%" width="200%" height="200%" filterUnits="objectBoundingBox" id="filter-4">
            <feOffset dx="0" dy="2" in="SourceAlpha" result="shadowOffsetOuter1"></feOffset>
            <feGaussianBlur stdDeviation="2" in="shadowOffsetOuter1" result="shadowBlurOuter1"></feGaussianBlur>
            <feColorMatrix values="0 0 0 0 0   0 0 0 0 0   0 0 0 0 0  0 0 0 0.2 0" type="matrix" in="shadowBlurOuter1"></feColorMatrix>
        </filter>
    </defs>
    <g id="领券、会员卡样式合集" stroke="none" stroke-width="1" fill="none" fill-rule="evenodd">
        <g id="Group-2" transform="translate(4.000000, 2.000000)">
            <g id="Rectangle-6">
                <use fill="black" fill-opacity="1" filter="url(#filter-4)" xlink:href="#path-3"></use>
                <use fill="url(#linearGradient-2)" fill-rule="evenodd" xlink:href="#path-3"></use>
            </g>
            <path d="M77.536,6.676 L77.536,13.312 L76.66,13.312 L76.66,7.504 L73.06,7.504 L73.06,13.312 L72.208,13.312 L72.208,6.676 L77.536,6.676 Z M77.272,17.008 L76.024,17.008 C75.364,17.008 75.04,16.672 75.04,16.012 L75.04,13.264 L75.904,13.264 L75.904,15.832 C75.904,16.084 76.024,16.216 76.276,16.216 L77.116,16.216 C77.308,16.216 77.452,16.144 77.536,16.024 C77.632,15.868 77.704,15.412 77.752,14.668 L78.556,14.92 C78.484,15.904 78.34,16.516 78.136,16.732 C77.944,16.912 77.656,17.008 77.272,17.008 Z M74.404,8.356 L75.232,8.356 L75.232,11.284 C75.184,12.892 74.86,14.176 74.26,15.136 C73.684,16.024 72.724,16.732 71.38,17.236 L70.912,16.504 C72.208,16 73.12,15.352 73.636,14.56 C74.116,13.72 74.38,12.628 74.404,11.284 L74.404,8.356 Z M67.756,10.636 L69.136,10.636 L69.136,7.828 L67.6,7.828 L67.6,7 L71.536,7 L71.536,7.828 L70.024,7.828 L70.024,10.636 L71.368,10.636 L71.368,11.476 L70.024,11.476 L70.024,14.2 C70.552,14.02 71.056,13.828 71.56,13.624 L71.56,14.452 C70.372,14.932 69.1,15.328 67.744,15.652 L67.54,14.824 C68.08,14.728 68.608,14.608 69.136,14.464 L69.136,11.476 L67.756,11.476 L67.756,10.636 Z M83.908,11.788 L86.656,11.788 L86.656,9.556 L87.532,9.556 L87.532,11.788 L90.4,11.788 L90.4,12.628 L87.532,12.628 L87.532,15.94 L90.94,15.94 L90.94,16.792 L83.416,16.792 L83.416,15.94 L86.656,15.94 L86.656,12.628 L83.908,12.628 L83.908,11.788 Z M81.976,12.316 C81.532,12.772 81.064,13.216 80.56,13.636 L80.02,12.928 C81.52,11.692 82.684,10.276 83.524,8.68 L80.44,8.68 L80.44,7.828 L83.932,7.828 C84.172,7.276 84.388,6.7 84.556,6.112 L85.456,6.22 C85.288,6.772 85.108,7.312 84.892,7.828 L90.928,7.828 L90.928,8.68 L84.508,8.68 C84.04,9.628 83.476,10.516 82.828,11.332 L82.828,17.236 L81.976,17.236 L81.976,12.316 Z M97.6719999,8.98 C96.9039999,12.172 95.2359999,14.62 92.6679999,16.3 L93.1839999,17.032 C95.7039999,15.4 97.3599999,13.048 98.1519999,9.988 C98.2119999,10.132 98.2719999,10.3 98.3439999,10.492 C99.5799999,13.66 101.164,15.844 103.108,17.02 L103.648,16.324 C101.752,15.136 100.252,13.108 99.1239999,10.24 C98.3799999,8.296 97.4799999,6.94 96.4119999,6.196 L95.6919999,6.652 C96.4599999,7.204 97.1199999,7.972 97.6719999,8.98 Z M110.488,6.196 L111.112,6.196 C112.636,7.9 114.388,9.244 116.368,10.228 L115.9,11.056 C113.908,10.012 112.216,8.644 110.8,6.964 C109.504,8.548 107.788,9.916 105.652,11.068 L105.196,10.24 C107.308,9.16 109.072,7.816 110.488,6.196 Z M107.872,9.88 L113.764,9.88 L113.764,10.696 L107.872,10.696 L107.872,9.88 Z M105.988,12.292 L105.988,13.132 L109,13.132 C108.484,14.116 107.836,15.04 107.068,15.928 C106.972,16.024 106.828,16.096 106.612,16.156 L106.852,16.912 C109.72,16.744 112.084,16.504 113.956,16.204 C114.196,16.54 114.412,16.864 114.616,17.188 L115.336,16.684 C114.748,15.784 113.908,14.728 112.816,13.504 L112.144,13.936 C112.636,14.488 113.08,15.04 113.488,15.568 C111.712,15.808 109.852,15.976 107.896,16.096 C108.712,15.244 109.408,14.26 109.984,13.132 L115.636,13.132 L115.636,12.292 L105.988,12.292 Z M122.992,8.128 L122.992,8.968 L133.036,8.968 L133.036,8.128 L128.536,8.128 C128.356,7.408 128.176,6.76 127.984,6.196 L126.988,6.364 C127.204,6.892 127.408,7.48 127.6,8.128 L122.992,8.128 Z M122.584,15.664 L128.536,15.664 C129.268,14.068 129.904,12.064 130.456,9.664 L131.368,9.904 C130.876,12.064 130.264,13.984 129.52,15.664 L133.444,15.664 L133.444,16.504 L122.584,16.504 L122.584,15.664 Z M125.572,9.712 C126.1,11.272 126.568,13.048 126.976,15.064 L126.052,15.292 C125.692,13.468 125.224,11.704 124.672,10.012 L125.572,9.712 Z M137.008,8.74 L144.196,8.74 L144.196,11.164 L137.008,11.164 L137.008,8.74 Z M143.368,10.42 L143.368,9.484 L137.836,9.484 L137.836,10.42 L143.368,10.42 Z M140.464,6.172 L139.48,6.328 C139.684,6.592 139.876,6.892 140.056,7.204 L135.388,7.204 L135.388,8.02 L145.804,8.02 L145.804,7.204 L141.004,7.204 C140.836,6.82 140.656,6.484 140.464,6.172 Z M135.124,14.2 L135.124,14.992 L140.38,14.992 L140.38,15.856 C140.38,16.264 140.188,16.468 139.828,16.468 C139.444,16.468 138.916,16.444 138.244,16.408 L138.472,17.2 L140.164,17.2 C140.872,17.2 141.232,16.828 141.232,16.108 L141.232,14.992 L146.068,14.992 L146.068,14.2 L141.232,14.2 L141.232,13.972 C142.54,13.468 143.704,12.988 144.712,12.52 L144.712,11.896 L136.288,11.896 L136.288,12.676 L143.008,12.676 C142,13.096 141.124,13.444 140.38,13.732 L140.38,14.2 L135.124,14.2 Z M155.02,6.196 L155.02,7.48 L152.908,7.48 L152.908,8.26 L155.02,8.26 L155.02,9.664 L152.248,9.664 L152.248,10.48 L158.632,10.48 L158.632,9.664 L155.884,9.664 L155.884,8.26 L158.104,8.26 L158.104,7.48 L155.884,7.48 L155.884,6.196 L155.02,6.196 Z M152.536,11.896 L156.376,11.896 L156.376,11.116 L157.216,11.116 L157.216,11.896 L158.536,11.896 L158.536,12.712 L157.216,12.712 L157.216,16.096 C157.216,16.768 156.892,17.116 156.268,17.116 L154.744,17.116 L154.564,16.3 C155.044,16.336 155.512,16.36 155.968,16.36 C156.232,16.36 156.376,16.192 156.376,15.88 L156.376,12.712 L152.536,12.712 L152.536,11.896 Z M153.424,13.264 C154.048,13.96 154.528,14.56 154.864,15.088 L154.18,15.568 C153.832,14.992 153.352,14.368 152.752,13.684 L153.424,13.264 Z M148.888,9.544 L150.016,9.544 L150.016,12.724 C149.272,12.964 148.516,13.168 147.748,13.324 L147.952,14.164 C148.648,13.972 149.344,13.768 150.016,13.54 L150.016,17.2 L150.844,17.2 L150.844,13.228 C151.216,13.084 151.588,12.928 151.972,12.76 L151.972,11.944 C151.6,12.112 151.228,12.268 150.844,12.424 L150.844,9.544 L151.936,9.544 L151.936,8.704 L150.844,8.704 L150.844,6.208 L150.016,6.208 L150.016,8.704 L149.008,8.704 C149.068,8.224 149.104,7.732 149.128,7.216 L148.336,7.156 C148.288,8.536 148.072,9.844 147.7,11.092 L148.456,11.308 C148.624,10.744 148.768,10.156 148.888,9.544 Z M163.24,10.948 L163.24,17.152 L162.376,17.152 L162.376,10.924 C161.944,12.196 161.356,13.336 160.624,14.356 L160.24,13.384 C161.224,12.208 161.932,10.876 162.352,9.376 L160.492,9.376 L160.492,8.548 L162.376,8.548 L162.376,6.208 L163.24,6.208 L163.24,8.548 L164.824,8.548 L164.824,9.376 L163.24,9.376 L163.24,10.06 C163.84,10.636 164.452,11.296 165.064,12.016 L164.572,12.748 C164.056,12.004 163.612,11.404 163.24,10.948 Z M169.672,7.756 L166.432,7.756 C166.576,9.604 167.08,11.26 167.956,12.724 C168.82,11.284 169.384,9.628 169.672,7.756 Z M167.452,13.492 C166.384,11.764 165.76,9.856 165.592,7.756 L165.112,7.756 L165.112,6.928 L170.512,6.928 L170.512,7.744 C170.164,9.988 169.48,11.92 168.472,13.528 C169.24,14.608 170.2,15.592 171.376,16.468 L170.788,17.164 C169.66,16.276 168.712,15.304 167.968,14.26 C167.128,15.4 166.096,16.36 164.884,17.152 L164.332,16.456 C165.592,15.616 166.636,14.632 167.452,13.492 Z" id="现在入会-立享特权" fill="#744923"></path>
            <polygon id="Triangle" fill="#CAB08B" points="234 12.5 230 15 230 10"></polygon>
        </g>
    </g>
</svg>