<?xml version="1.0" encoding="UTF-8"?>
<svg width="39px" height="77px" viewBox="0 0 39 77" version="1.1" xmlns="http://www.w3.org/2000/svg" xmlns:xlink="http://www.w3.org/1999/xlink">
    <!-- Generator: Sketch 42 (36781) - http://www.bohemiancoding.com/sketch -->
    <title>金小</title>
    <desc>Created with Sketch.</desc>
    <defs>
        <path d="M27.9947244,30.757348 C28.3054163,31.0180482 28.4997373,31.3854485 28.4996763,31.7908919 L28.4996763,42.5156809 C28.4996763,43.3015769 27.7694533,43.9445353 26.8770374,43.9445353 L15.4497627,43.9445353 C15.3219135,43.9445353 15.2342508,43.910948 15.1741452,43.8646074 C15.117922,43.9111692 15.0370915,43.9446395 14.9208836,43.9446395 L3.46854707,43.9446395 C2.57613111,43.9446395 1.84590812,43.301681 1.84590812,42.515785 L1.84590812,31.7908919 C1.84590812,31.3854485 2.0402587,31.0180482 2.35096485,30.757348 L1.63619214,30.757348 C0.743776184,30.757348 0.0135531915,30.1143895 0.0135531915,29.3284935 L0.0135531915,24.8680731 C0.0135531915,24.0822813 0.743776184,23.4392187 1.63619214,23.4392187 L14.7591635,23.4392187 C14.9530828,23.4392187 15.0777896,23.5008992 15.1579869,23.580231 C15.230832,23.5026388 15.349912,23.4392187 15.5445723,23.4392187 L28.7093923,23.4392187 C29.6018083,23.4392187 30.3320313,24.0822813 30.3320313,24.8680731 L30.3320313,29.3284935 C30.3320313,30.1143895 29.6018083,30.757348 28.7093923,30.757348 L27.9947244,30.757348 Z" id="path-1"></path>
        <mask id="mask-2" maskContentUnits="userSpaceOnUse" maskUnits="objectBoundingBox" x="0" y="0" width="30.3184781" height="20.5054208" fill="white">
            <use xlink:href="#path-1"></use>
        </mask>
        <path d="M15.1879628,3.51238319 C15.3317285,3.07215912 15.8184821,2.47893471 17.1675242,1.68331465 C18.3498916,0.985981539 19.6736914,0.463339855 20.7087892,0.285277637 C21.1156706,0.215249382 21.4988204,0.17977177 21.8475211,0.17977177 C23.4964816,0.17977177 24.5777027,0.96070058 24.8920502,2.37862528 C25.071855,3.18896427 24.9331976,3.88688727 24.4797144,4.4530122 C23.9736964,5.08478335 23.1335227,5.49408207 21.9107734,5.70441965 C21.4295395,5.78708838 20.8806516,5.82913904 20.279803,5.82913904 C20.279803,5.82913904 20.279803,5.82913904 20.2796117,5.82913904 C19.2692024,5.82913904 18.1867372,5.70854887 17.3096265,5.49837984 C16.0756276,5.20275513 15.3799012,4.76082028 15.1879411,4.14956761 C14.9958667,4.76084749 14.3001511,5.2026868 13.0662922,5.49837984 C12.1891815,5.70854887 11.1066207,5.82913904 10.0962114,5.82913904 C9.49526712,5.82913904 8.94637919,5.78717265 8.46504964,5.70433538 C7.24249171,5.4939978 6.40222237,5.08461481 5.89620434,4.45292793 C5.44281678,3.886803 5.30406373,3.18888 5.48367717,2.37845674 C5.79831167,0.960532041 6.87962856,0.1796875 8.5282062,0.1796875 C8.87709836,0.1796875 9.26024816,0.215165112 9.66712952,0.285193367 C10.7021316,0.463255585 12.0259314,0.985897269 13.2083945,1.68323038 C14.5574584,2.4789012 15.0442102,3.07215056 15.1879628,3.51238319 Z M25.5678727,12.6086494 C25.6365372,12.7486218 25.6746206,12.9026763 25.6745963,13.0641889 L25.6745963,21.7455016 C25.6745963,22.3816548 25.0835083,22.9021054 24.3611312,22.9021054 L15.2637153,22.9021054 C15.260736,22.9021614 15.257727,22.9021897 15.2546882,22.9021897 L5.98445325,22.9021897 C5.26207616,22.9021897 4.67098816,22.381739 4.67098816,21.7455859 L4.67098816,13.0641889 C4.67098816,12.9026763 4.70908965,12.7486218 4.77776769,12.6086494 L4.50123098,12.6086494 C3.77885388,12.6086494 3.18776588,12.0881988 3.18776588,11.4520456 L3.18776588,7.84150335 C3.18776588,7.20543443 3.77885388,6.68489949 4.50123098,6.68489949 L15.1237819,6.68489949 C15.1348075,6.68489949 15.1455567,6.68514582 15.1560364,6.68562613 C15.1663782,6.68514613 15.177006,6.68489949 15.1879277,6.68489949 L25.8443535,6.68489949 C26.5667306,6.68489949 27.1578186,7.20543443 27.1578186,7.84150335 L27.1578186,11.4520456 C27.1578186,12.0881988 26.5667306,12.6086494 25.8443535,12.6086494 L25.5678727,12.6086494 Z M17.7686599,3.58857195 C17.7002403,3.62354395 17.7333496,3.67874071 17.7687556,3.68775758 C18.3588867,3.83716805 19.257815,3.97520208 20.2796117,3.97520208 C20.7390278,3.97520208 21.1634208,3.94393796 21.5071456,3.88478052 C22.1438785,3.7752297 22.5887495,3.59750456 22.7593679,3.38430181 C22.800324,3.33331854 22.9246276,3.17817773 22.8258737,2.73399129 C22.7054935,2.19070349 22.4859766,2.03362446 21.8474255,2.03362446 C21.6338414,2.03362446 21.3865739,2.0575571 21.1123214,2.10474823 C19.9353127,2.30716443 18.5404139,3.03483469 17.7686599,3.58857195 Z M8.52830189,2.03354019 C7.88984647,2.03354019 7.67042526,2.19061922 7.54994934,2.73390702 C7.45138682,3.17809346 7.57569042,3.33323427 7.61645511,3.38421754 C7.78716921,3.59742029 8.23184882,3.7752297 8.86867748,3.88469625 C9.21230659,3.94385369 9.63689093,3.97511781 10.0961157,3.97511781 C11.1059508,3.97511781 11.9955971,3.8403703 12.5859196,3.69298231 C12.6288852,3.68228004 12.6955823,3.63753274 12.6241006,3.60003266 C11.8523466,3.04637966 10.4404146,2.30708016 9.26350168,2.10457969 C8.98934479,2.0575571 8.7418859,2.03354019 8.52830189,2.03354019 Z" id="path-3"></path>
        <mask id="mask-4" maskContentUnits="userSpaceOnUse" maskUnits="objectBoundingBox" x="0" y="0" width="23.9700527" height="22.7225022" fill="white">
            <use xlink:href="#path-3"></use>
        </mask>
    </defs>
    <g id="领券、会员卡样式合集" stroke="none" stroke-width="1" fill="none" fill-rule="evenodd">
        <g id="金小">
            <path d="M1.35355339,57.3535534 L1.70710678,57 L2.41421356,57.7071068 L2.06066017,58.0606602 L1.06066017,59.0606602 L0.707106781,59.4142136 L-7.10542736e-15,58.7071068 L0.353553391,58.3535534 L1.35355339,57.3535534 Z M3.35355339,57.3535534 L3.70710678,57 L4.41421356,57.7071068 L4.06066017,58.0606602 L3.06066017,59.0606602 L2.70710678,59.4142136 L2,58.7071068 L2.35355339,58.3535534 L3.35355339,57.3535534 Z M5.35355339,57.3535534 L5.70710678,57 L6.41421356,57.7071068 L6.06066017,58.0606602 L5.06066017,59.0606602 L4.70710678,59.4142136 L4,58.7071068 L4.35355339,58.3535534 L5.35355339,57.3535534 Z M7.35355339,57.3535534 L7.70710678,57 L8.41421356,57.7071068 L8.06066017,58.0606602 L7.06066017,59.0606602 L6.70710678,59.4142136 L6,58.7071068 L6.35355339,58.3535534 L7.35355339,57.3535534 Z M9.35355339,57.3535534 L9.70710678,57 L10.4142136,57.7071068 L10.0606602,58.0606602 L9.06066017,59.0606602 L8.70710678,59.4142136 L8,58.7071068 L8.35355339,58.3535534 L9.35355339,57.3535534 Z M11.3535534,57.3535534 L11.7071068,57 L12.4142136,57.7071068 L12.0606602,58.0606602 L11.0606602,59.0606602 L10.7071068,59.4142136 L10,58.7071068 L10.3535534,58.3535534 L11.3535534,57.3535534 Z M13.3535534,57.3535534 L13.7071068,57 L14.4142136,57.7071068 L14.0606602,58.0606602 L13.0606602,59.0606602 L12.7071068,59.4142136 L12,58.7071068 L12.3535534,58.3535534 L13.3535534,57.3535534 Z M15.3535534,57.3535534 L15.7071068,57 L16.4142136,57.7071068 L16.0606602,58.0606602 L15.0606602,59.0606602 L14.7071068,59.4142136 L14,58.7071068 L14.3535534,58.3535534 L15.3535534,57.3535534 Z M17.3535534,57.3535534 L17.7071068,57 L18.4142136,57.7071068 L18.0606602,58.0606602 L17.0606602,59.0606602 L16.7071068,59.4142136 L16,58.7071068 L16.3535534,58.3535534 L17.3535534,57.3535534 Z M19.3535534,57.3535534 L19.7071068,57 L20.4142136,57.7071068 L20.0606602,58.0606602 L19.0606602,59.0606602 L18.7071068,59.4142136 L18,58.7071068 L18.3535534,58.3535534 L19.3535534,57.3535534 Z M21.3535534,57.3535534 L21.7071068,57 L22.4142136,57.7071068 L22.0606602,58.0606602 L21.0606602,59.0606602 L20.7071068,59.4142136 L20,58.7071068 L20.3535534,58.3535534 L21.3535534,57.3535534 Z M23.3535534,57.3535534 L23.7071068,57 L24.4142136,57.7071068 L24.0606602,58.0606602 L23.0606602,59.0606602 L22.7071068,59.4142136 L22,58.7071068 L22.3535534,58.3535534 L23.3535534,57.3535534 Z M25.3535534,57.3535534 L25.7071068,57 L26.4142136,57.7071068 L26.0606602,58.0606602 L25.0606602,59.0606602 L24.7071068,59.4142136 L24,58.7071068 L24.3535534,58.3535534 L25.3535534,57.3535534 Z M27.3535534,57.3535534 L27.7071068,57 L28.4142136,57.7071068 L28.0606602,58.0606602 L27.0606602,59.0606602 L26.7071068,59.4142136 L26,58.7071068 L26.3535534,58.3535534 L27.3535534,57.3535534 Z M29.3535534,57.3535534 L29.7071068,57 L30.4142136,57.7071068 L30.0606602,58.0606602 L29.0606602,59.0606602 L28.7071068,59.4142136 L28,58.7071068 L28.3535534,58.3535534 L29.3535534,57.3535534 Z M31.3535534,57.3535534 L31.7071068,57 L32.4142136,57.7071068 L32.0606602,58.0606602 L31.0606602,59.0606602 L30.7071068,59.4142136 L30,58.7071068 L30.3535534,58.3535534 L31.3535534,57.3535534 Z M33.3535534,57.3535534 L33.7071068,57 L34.4142136,57.7071068 L34.0606602,58.0606602 L33.0606602,59.0606602 L32.7071068,59.4142136 L32,58.7071068 L32.3535534,58.3535534 L33.3535534,57.3535534 Z M35.3535534,57.3535534 L35.7071068,57 L36.4142136,57.7071068 L36.0606602,58.0606602 L35.0606602,59.0606602 L34.7071068,59.4142136 L34,58.7071068 L34.3535534,58.3535534 L35.3535534,57.3535534 Z M37.3535534,57.3535534 L37.7071068,57 L38.4142136,57.7071068 L38.0606602,58.0606602 L37.0606602,59.0606602 L36.7071068,59.4142136 L36,58.7071068 L36.3535534,58.3535534 L37.3535534,57.3535534 Z" id="Combined-Shape" fill="#CCCACB"></path>
            <path d="M1.35355339,74.3535534 L1.70710678,74 L2.41421356,74.7071068 L2.06066017,75.0606602 L1.06066017,76.0606602 L0.707106781,76.4142136 L0,75.7071068 L0.353553391,75.3535534 L1.35355339,74.3535534 Z M3.35355339,74.3535534 L3.70710678,74 L4.41421356,74.7071068 L4.06066017,75.0606602 L3.06066017,76.0606602 L2.70710678,76.4142136 L2,75.7071068 L2.35355339,75.3535534 L3.35355339,74.3535534 Z M5.35355339,74.3535534 L5.70710678,74 L6.41421356,74.7071068 L6.06066017,75.0606602 L5.06066017,76.0606602 L4.70710678,76.4142136 L4,75.7071068 L4.35355339,75.3535534 L5.35355339,74.3535534 Z M7.35355339,74.3535534 L7.70710678,74 L8.41421356,74.7071068 L8.06066017,75.0606602 L7.06066017,76.0606602 L6.70710678,76.4142136 L6,75.7071068 L6.35355339,75.3535534 L7.35355339,74.3535534 Z M9.35355339,74.3535534 L9.70710678,74 L10.4142136,74.7071068 L10.0606602,75.0606602 L9.06066017,76.0606602 L8.70710678,76.4142136 L8,75.7071068 L8.35355339,75.3535534 L9.35355339,74.3535534 Z M11.3535534,74.3535534 L11.7071068,74 L12.4142136,74.7071068 L12.0606602,75.0606602 L11.0606602,76.0606602 L10.7071068,76.4142136 L10,75.7071068 L10.3535534,75.3535534 L11.3535534,74.3535534 Z M13.3535534,74.3535534 L13.7071068,74 L14.4142136,74.7071068 L14.0606602,75.0606602 L13.0606602,76.0606602 L12.7071068,76.4142136 L12,75.7071068 L12.3535534,75.3535534 L13.3535534,74.3535534 Z M15.3535534,74.3535534 L15.7071068,74 L16.4142136,74.7071068 L16.0606602,75.0606602 L15.0606602,76.0606602 L14.7071068,76.4142136 L14,75.7071068 L14.3535534,75.3535534 L15.3535534,74.3535534 Z M17.3535534,74.3535534 L17.7071068,74 L18.4142136,74.7071068 L18.0606602,75.0606602 L17.0606602,76.0606602 L16.7071068,76.4142136 L16,75.7071068 L16.3535534,75.3535534 L17.3535534,74.3535534 Z M19.3535534,74.3535534 L19.7071068,74 L20.4142136,74.7071068 L20.0606602,75.0606602 L19.0606602,76.0606602 L18.7071068,76.4142136 L18,75.7071068 L18.3535534,75.3535534 L19.3535534,74.3535534 Z M21.3535534,74.3535534 L21.7071068,74 L22.4142136,74.7071068 L22.0606602,75.0606602 L21.0606602,76.0606602 L20.7071068,76.4142136 L20,75.7071068 L20.3535534,75.3535534 L21.3535534,74.3535534 Z M23.3535534,74.3535534 L23.7071068,74 L24.4142136,74.7071068 L24.0606602,75.0606602 L23.0606602,76.0606602 L22.7071068,76.4142136 L22,75.7071068 L22.3535534,75.3535534 L23.3535534,74.3535534 Z M25.3535534,74.3535534 L25.7071068,74 L26.4142136,74.7071068 L26.0606602,75.0606602 L25.0606602,76.0606602 L24.7071068,76.4142136 L24,75.7071068 L24.3535534,75.3535534 L25.3535534,74.3535534 Z M27.3535534,74.3535534 L27.7071068,74 L28.4142136,74.7071068 L28.0606602,75.0606602 L27.0606602,76.0606602 L26.7071068,76.4142136 L26,75.7071068 L26.3535534,75.3535534 L27.3535534,74.3535534 Z M29.3535534,74.3535534 L29.7071068,74 L30.4142136,74.7071068 L30.0606602,75.0606602 L29.0606602,76.0606602 L28.7071068,76.4142136 L28,75.7071068 L28.3535534,75.3535534 L29.3535534,74.3535534 Z M31.3535534,74.3535534 L31.7071068,74 L32.4142136,74.7071068 L32.0606602,75.0606602 L31.0606602,76.0606602 L30.7071068,76.4142136 L30,75.7071068 L30.3535534,75.3535534 L31.3535534,74.3535534 Z M33.3535534,74.3535534 L33.7071068,74 L34.4142136,74.7071068 L34.0606602,75.0606602 L33.0606602,76.0606602 L32.7071068,76.4142136 L32,75.7071068 L32.3535534,75.3535534 L33.3535534,74.3535534 Z M35.3535534,74.3535534 L35.7071068,74 L36.4142136,74.7071068 L36.0606602,75.0606602 L35.0606602,76.0606602 L34.7071068,76.4142136 L34,75.7071068 L34.3535534,75.3535534 L35.3535534,74.3535534 Z M37.3535534,74.3535534 L37.7071068,74 L38.4142136,74.7071068 L38.0606602,75.0606602 L37.0606602,76.0606602 L36.7071068,76.4142136 L36,75.7071068 L36.3535534,75.3535534 L37.3535534,74.3535534 Z" id="Combined-Shape" fill="#CCCACB" transform="translate(19.207107, 75.207107) scale(-1, 1) translate(-19.207107, -75.207107) "></path>
            <g id="Group-17" transform="translate(4.000000, 61.000000)" fill="#9B855B">
                <path d="M2.77,6 L2.77,10.06 L3.82,10.06 L3.82,5.85 C4.26,6.15 4.71,6.5 5.15,6.91 L5.74,6.01 C5.22,5.57 4.64,5.19 4.01,4.86 C4.61,4.23 5.05,3.59 5.34,2.94 L5.34,2.04 L3.76,2.04 C3.67,1.63 3.54,1.18 3.38,0.69 L2.36,0.98 C2.5,1.32 2.63,1.67 2.75,2.04 L1.26,2.04 L1.26,3.06 L4.21,3.06 C3.62,4.03 2.51,5.03 0.88,6.06 L1.2,7.13 C1.78,6.75 2.3,6.38 2.77,6 Z M8.77,9.89 C9.25,9.89 9.58,9.77 9.77,9.53 C9.94,9.28 10.06,8.57 10.12,7.4 L9.12,7.08 C9.09,7.98 9.04,8.5 8.98,8.66 C8.9,8.8 8.77,8.88 8.59,8.88 L7.38,8.88 C7.16,8.88 7.05,8.74 7.05,8.48 L7.05,0.84 L6,0.84 L6,8.62 C6,9.46 6.38,9.89 7.14,9.89 L8.77,9.89 Z M12.63,1.1 L18.38,1.1 L18.38,4.67 L12.63,4.67 L12.63,1.1 Z M17.33,3.69 L17.33,2.08 L13.68,2.08 L13.68,3.69 L17.33,3.69 Z M15.05,5.33 L15.05,9.89 L14.04,9.89 L14.04,9.42 L12.3,9.42 L12.3,9.89 L11.28,9.89 L11.28,5.33 L15.05,5.33 Z M12.3,8.45 L14.04,8.45 L14.04,6.31 L12.3,6.31 L12.3,8.45 Z M19.72,5.33 L19.72,9.89 L18.68,9.89 L18.68,9.42 L16.85,9.42 L16.85,9.89 L15.83,9.89 L15.83,5.33 L19.72,5.33 Z M16.85,8.45 L18.68,8.45 L18.68,6.31 L16.85,6.31 L16.85,8.45 Z M24.09,6.99 L22.9,6.99 L22.9,6.47 C22.43,6.82 21.93,7.13 21.39,7.39 L20.81,6.51 C21.73,6.12 22.5,5.61 23.12,4.98 L21.16,4.98 L21.16,4.04 L23.9,4.04 C24.07,3.78 24.23,3.5 24.37,3.22 L21.71,3.22 L21.71,2.3 L23.1,2.3 C22.89,1.83 22.67,1.41 22.43,1.05 L23.33,0.75 C23.59,1.16 23.81,1.6 24.01,2.08 L23.52,2.3 L24.75,2.3 C24.91,1.79 25.04,1.25 25.13,0.69 L26.17,0.82 C26.08,1.34 25.96,1.83 25.81,2.3 L27.45,2.3 L27.06,2.08 C27.36,1.68 27.61,1.23 27.8,0.71 L28.67,1.03 C28.47,1.51 28.24,1.93 27.96,2.3 L29.29,2.3 L29.29,3.22 L25.47,3.22 C25.35,3.5 25.21,3.78 25.06,4.04 L29.84,4.04 L29.84,4.98 L27.96,4.98 C28.44,5.54 29.18,6.04 30.18,6.48 L29.5,7.33 C29.02,7.05 28.6,6.76 28.24,6.47 C28.2,7.23 28.16,7.87 28.1,8.37 C28.02,8.95 27.88,9.36 27.7,9.6 C27.51,9.82 27.21,9.95 26.81,9.97 L25.17,9.97 L24.9,8.99 C25.4,9.02 25.87,9.04 26.31,9.04 C26.67,9.04 26.9,8.91 27.01,8.66 C27.13,8.4 27.2,7.84 27.24,6.99 L25.06,6.99 C24.86,7.68 24.6,8.24 24.28,8.66 C23.84,9.18 23.2,9.64 22.36,10.06 L21.71,9.22 C22.45,8.9 23.02,8.55 23.41,8.17 C23.69,7.87 23.92,7.47 24.09,6.99 Z M24.43,4.98 C24.13,5.36 23.8,5.71 23.45,6.03 L27.74,6.03 C27.38,5.69 27.09,5.34 26.87,4.98 L24.43,4.98 Z" id="礼品券"></path>
            </g>
            <g id="Group-2" transform="translate(4.000000, 0.000000)" stroke="#CCCACB" stroke-width="2">
                <use id="Combined-Shape" mask="url(#mask-2)" fill="#EBE0CF" fill-rule="nonzero" xlink:href="#path-1"></use>
                <use id="Combined-Shape" mask="url(#mask-4)" fill="#EBE0CF" fill-rule="nonzero" xlink:href="#path-3"></use>
                <path d="M5.5,12 L25.5,12" id="Line" stroke-linecap="square"></path>
                <path d="M14.9960938,22 L15,8" id="Line" stroke-linecap="square"></path>
                <path d="M3,30 L27,30" id="Line" stroke-linecap="square"></path>
                <path d="M15,43 L15,25" id="Line" stroke-linecap="square"></path>
            </g>
        </g>
    </g>
</svg>