<?xml version="1.0" encoding="UTF-8"?>
<svg width="270px" height="30px" viewBox="0 0 270 30" version="1.1" xmlns="http://www.w3.org/2000/svg" xmlns:xlink="http://www.w3.org/1999/xlink">
    <!-- Generator: Sketch 42 (36781) - http://www.bohemiancoding.com/sketch -->
    <title>VIP卡遮条</title>
    <desc>Created with Sketch.</desc>
    <defs></defs>
    <g id="领券、会员卡样式合集" stroke="none" stroke-width="1" fill="none" fill-rule="evenodd">
        <g id="标注-2017.04.01" transform="translate(-241.000000, -243.000000)">
            <g id="VIP卡遮条" transform="translate(241.000000, 243.000000)">
                <rect id="Rectangle-2" fill-opacity="0.7" fill="#FFFFFF" x="0" y="0" width="270" height="30"></rect>
                <path d="M86.992,11.728 L89.512,11.728 L89.512,10.924 L85.96,10.924 L85.96,10.18 L88.624,10.18 C88.456,9.844 88.276,9.532 88.084,9.244 L88.948,9.1 C89.116,9.412 89.296,9.772 89.464,10.18 L92.416,10.18 C92.632,9.832 92.788,9.472 92.896,9.112 L93.784,9.232 C93.664,9.568 93.508,9.88 93.316,10.18 L96.076,10.18 L96.076,10.924 L92.464,10.924 L92.464,11.728 L95.008,11.728 L95.008,16.456 L94.156,16.456 L94.156,17.2 L96.268,17.2 L96.268,17.956 L94.156,17.956 L94.156,19.012 C94.156,19.72 93.832,20.08 93.184,20.08 L91.516,20.08 L91.336,19.3 C91.888,19.336 92.404,19.36 92.896,19.36 C93.184,19.36 93.328,19.168 93.328,18.796 L93.328,17.956 L88.192,17.956 C89.008,18.412 89.692,18.88 90.244,19.348 L89.656,19.936 C89.164,19.48 88.48,18.988 87.616,18.46 L88.132,17.956 L85.708,17.956 L85.708,17.2 L93.328,17.2 L93.328,16.456 L86.992,16.456 L86.992,11.728 Z M91.648,11.728 L91.648,10.924 L90.316,10.924 L90.316,11.728 L91.648,11.728 Z M94.168,15.772 L94.168,15.088 L87.832,15.088 L87.832,15.772 L94.168,15.772 Z M87.832,14.44 L94.168,14.44 L94.168,13.792 L92.632,13.792 C91.972,13.792 91.648,13.504 91.648,12.952 L91.648,12.424 L90.232,12.424 C90.04,13.192 89.524,13.768 88.66,14.164 L88.072,13.636 C88.78,13.348 89.224,12.952 89.404,12.424 L87.832,12.424 L87.832,14.44 Z M92.464,12.424 L92.464,12.868 C92.464,13.072 92.596,13.18 92.86,13.18 L94.168,13.18 L94.168,12.424 L92.464,12.424 Z M97.7405714,13.168 L102.648571,13.168 L102.648571,12.4 L99.1565714,12.4 L99.1565714,10 L102.648571,10 L102.648571,9.232 L103.512571,9.232 L103.512571,10 L107.028571,10 L107.028571,12.4 L103.512571,12.4 L103.512571,13.168 L108.420571,13.168 L108.420571,13.912 L97.7405714,13.912 L97.7405714,13.168 Z M106.212571,11.704 L106.212571,10.696 L103.512571,10.696 L103.512571,11.704 L106.212571,11.704 Z M102.648571,11.704 L102.648571,10.696 L99.9725714,10.696 L99.9725714,11.704 L102.648571,11.704 Z M106.908571,14.68 L106.908571,18.1 L106.068571,18.1 L106.068571,15.436 L100.200571,15.436 L100.200571,18.244 L99.3725714,18.244 L99.3725714,14.68 L106.908571,14.68 Z M102.792571,16.036 L103.632571,16.12 C103.464571,17.548 103.092571,18.508 102.504571,19.012 C101.868571,19.624 100.416571,20.008 98.1605714,20.176 L97.8245714,19.396 C99.8165714,19.3 101.136571,19 101.784571,18.496 C102.360571,18.016 102.696571,17.188 102.792571,16.036 Z M103.932571,18.04 C105.552571,18.472 107.028571,18.976 108.360571,19.576 L107.904571,20.308 C106.476571,19.612 105.012571,19.072 103.500571,18.688 L103.932571,18.04 Z M114.849143,9.196 L115.473143,9.196 C116.997143,10.9 118.749143,12.244 120.729143,13.228 L120.261143,14.056 C118.269143,13.012 116.577143,11.644 115.161143,9.964 C113.865143,11.548 112.149143,12.916 110.013143,14.068 L109.557143,13.24 C111.669143,12.16 113.433143,10.816 114.849143,9.196 Z M112.233143,12.88 L118.125143,12.88 L118.125143,13.696 L112.233143,13.696 L112.233143,12.88 Z M110.349143,15.292 L110.349143,16.132 L113.361143,16.132 C112.845143,17.116 112.197143,18.04 111.429143,18.928 C111.333143,19.024 111.189143,19.096 110.973143,19.156 L111.213143,19.912 C114.081143,19.744 116.445143,19.504 118.317143,19.204 C118.557143,19.54 118.773143,19.864 118.977143,20.188 L119.697143,19.684 C119.109143,18.784 118.269143,17.728 117.177143,16.504 L116.505143,16.936 C116.997143,17.488 117.441143,18.04 117.849143,18.568 C116.073143,18.808 114.213143,18.976 112.257143,19.096 C113.073143,18.244 113.769143,17.26 114.345143,16.132 L119.997143,16.132 L119.997143,15.292 L110.349143,15.292 Z M131.285714,13.552 L131.285714,18.028 L130.433714,18.028 L130.433714,14.344 L124.061714,14.344 L124.061714,18.172 L123.209714,18.172 L123.209714,13.552 L131.285714,13.552 Z M123.929714,9.64 L130.565714,9.64 L130.565714,12.652 L123.929714,12.652 L123.929714,9.64 Z M129.725714,11.896 L129.725714,10.408 L124.769714,10.408 L124.769714,11.896 L129.725714,11.896 Z M126.917714,15.124 L127.793714,15.196 C127.625714,16.96 127.253714,18.148 126.677714,18.772 C126.053714,19.516 124.625714,19.996 122.393714,20.2 L122.057714,19.42 C124.001714,19.3 125.297714,18.916 125.933714,18.256 C126.485714,17.644 126.821714,16.6 126.917714,15.124 Z M128.105714,17.908 C129.665714,18.352 131.093714,18.892 132.389714,19.516 L131.921714,20.236 C130.541714,19.516 129.125714,18.964 127.673714,18.556 L128.105714,17.908 Z M145.222857,9.196 L145.222857,10.48 L143.110857,10.48 L143.110857,11.26 L145.222857,11.26 L145.222857,12.664 L142.450857,12.664 L142.450857,13.48 L148.834857,13.48 L148.834857,12.664 L146.086857,12.664 L146.086857,11.26 L148.306857,11.26 L148.306857,10.48 L146.086857,10.48 L146.086857,9.196 L145.222857,9.196 Z M142.738857,14.896 L146.578857,14.896 L146.578857,14.116 L147.418857,14.116 L147.418857,14.896 L148.738857,14.896 L148.738857,15.712 L147.418857,15.712 L147.418857,19.096 C147.418857,19.768 147.094857,20.116 146.470857,20.116 L144.946857,20.116 L144.766857,19.3 C145.246857,19.336 145.714857,19.36 146.170857,19.36 C146.434857,19.36 146.578857,19.192 146.578857,18.88 L146.578857,15.712 L142.738857,15.712 L142.738857,14.896 Z M143.626857,16.264 C144.250857,16.96 144.730857,17.56 145.066857,18.088 L144.382857,18.568 C144.034857,17.992 143.554857,17.368 142.954857,16.684 L143.626857,16.264 Z M139.090857,12.544 L140.218857,12.544 L140.218857,15.724 C139.474857,15.964 138.718857,16.168 137.950857,16.324 L138.154857,17.164 C138.850857,16.972 139.546857,16.768 140.218857,16.54 L140.218857,20.2 L141.046857,20.2 L141.046857,16.228 C141.418857,16.084 141.790857,15.928 142.174857,15.76 L142.174857,14.944 C141.802857,15.112 141.430857,15.268 141.046857,15.424 L141.046857,12.544 L142.138857,12.544 L142.138857,11.704 L141.046857,11.704 L141.046857,9.208 L140.218857,9.208 L140.218857,11.704 L139.210857,11.704 C139.270857,11.224 139.306857,10.732 139.330857,10.216 L138.538857,10.156 C138.490857,11.536 138.274857,12.844 137.902857,14.092 L138.658857,14.308 C138.826857,13.744 138.970857,13.156 139.090857,12.544 Z M152.923429,13.948 L152.923429,20.152 L152.059429,20.152 L152.059429,13.924 C151.627429,15.196 151.039429,16.336 150.307429,17.356 L149.923429,16.384 C150.907429,15.208 151.615429,13.876 152.035429,12.376 L150.175429,12.376 L150.175429,11.548 L152.059429,11.548 L152.059429,9.208 L152.923429,9.208 L152.923429,11.548 L154.507429,11.548 L154.507429,12.376 L152.923429,12.376 L152.923429,13.06 C153.523429,13.636 154.135429,14.296 154.747429,15.016 L154.255429,15.748 C153.739429,15.004 153.295429,14.404 152.923429,13.948 Z M159.355429,10.756 L156.115429,10.756 C156.259429,12.604 156.763429,14.26 157.639429,15.724 C158.503429,14.284 159.067429,12.628 159.355429,10.756 Z M157.135429,16.492 C156.067429,14.764 155.443429,12.856 155.275429,10.756 L154.795429,10.756 L154.795429,9.928 L160.195429,9.928 L160.195429,10.744 C159.847429,12.988 159.163429,14.92 158.155429,16.528 C158.923429,17.608 159.883429,18.592 161.059429,19.468 L160.471429,20.164 C159.343429,19.276 158.395429,18.304 157.651429,17.26 C156.811429,18.4 155.779429,19.36 154.567429,20.152 L154.015429,19.456 C155.275429,18.616 156.319429,17.632 157.135429,16.492 Z M162.172,12.856 L162.172,13.696 L165.364,13.696 C165.112,14.524 164.836,15.316 164.548,16.084 L170.476,16.084 C169.84,16.876 168.964,17.644 167.86,18.364 C167.032,18.076 166.168,17.8 165.268,17.56 L164.812,18.232 C166.72,18.748 168.58,19.444 170.38,20.332 L170.86,19.576 C170.2,19.264 169.504,18.964 168.784,18.7 C170.02,17.812 170.92,16.912 171.496,16.024 L171.496,15.28 L165.784,15.28 C165.952,14.788 166.132,14.26 166.3,13.696 L172.948,13.696 L172.948,12.856 L166.528,12.856 C166.648,12.388 166.768,11.896 166.888,11.368 L172.24,11.368 L172.24,10.564 L167.068,10.564 C167.164,10.132 167.248,9.664 167.344,9.184 L166.456,9.112 C166.36,9.592 166.264,10.072 166.156,10.564 L162.988,10.564 L162.988,11.368 L165.976,11.368 C165.856,11.872 165.736,12.364 165.604,12.856 L162.172,12.856 Z M176.052571,11.74 L183.240571,11.74 L183.240571,14.164 L176.052571,14.164 L176.052571,11.74 Z M182.412571,13.42 L182.412571,12.484 L176.880571,12.484 L176.880571,13.42 L182.412571,13.42 Z M179.508571,9.172 L178.524571,9.328 C178.728571,9.592 178.920571,9.892 179.100571,10.204 L174.432571,10.204 L174.432571,11.02 L184.848571,11.02 L184.848571,10.204 L180.048571,10.204 C179.880571,9.82 179.700571,9.484 179.508571,9.172 Z M174.168571,17.2 L174.168571,17.992 L179.424571,17.992 L179.424571,18.856 C179.424571,19.264 179.232571,19.468 178.872571,19.468 C178.488571,19.468 177.960571,19.444 177.288571,19.408 L177.516571,20.2 L179.208571,20.2 C179.916571,20.2 180.276571,19.828 180.276571,19.108 L180.276571,17.992 L185.112571,17.992 L185.112571,17.2 L180.276571,17.2 L180.276571,16.972 C181.584571,16.468 182.748571,15.988 183.756571,15.52 L183.756571,14.896 L175.332571,14.896 L175.332571,15.676 L182.052571,15.676 C181.044571,16.096 180.168571,16.444 179.424571,16.732 L179.424571,17.2 L174.168571,17.2 Z" id="尊贵会员-特权专享" fill="#9D7A4A"></path>
            </g>
        </g>
    </g>
</svg>