<?xml version="1.0" encoding="UTF-8"?>
<svg width="58px" height="58px" viewBox="0 0 58 58" version="1.1" xmlns="http://www.w3.org/2000/svg" xmlns:xlink="http://www.w3.org/1999/xlink">
    <!-- Generator: Sketch 42 (36781) - http://www.bohemiancoding.com/sketch -->
    <title>规则按钮</title>
    <desc>Created with Sketch.</desc>
    <defs>
        <linearGradient x1="50%" y1="0%" x2="50%" y2="100%" id="linearGradient-1">
            <stop stop-color="#FFFFFF" offset="0%"></stop>
            <stop stop-color="#FEF9CB" offset="100%"></stop>
        </linearGradient>
        <circle id="path-2" cx="25" cy="25" r="25"></circle>
        <filter x="-50%" y="-50%" width="200%" height="200%" filterUnits="objectBoundingBox" id="filter-3">
            <feOffset dx="0" dy="2" in="SourceAlpha" result="shadowOffsetOuter1"></feOffset>
            <feGaussianBlur stdDeviation="2" in="shadowOffsetOuter1" result="shadowBlurOuter1"></feGaussianBlur>
            <feColorMatrix values="0 0 0 0 0   0 0 0 0 0   0 0 0 0 0  0 0 0 0.2 0" type="matrix" in="shadowBlurOuter1"></feColorMatrix>
        </filter>
    </defs>
    <g id="领券、会员卡样式合集" stroke="none" stroke-width="1" fill="none" fill-rule="evenodd">
        <g id="标注-2017.04.01" transform="translate(-445.000000, -1047.000000)">
            <g id="规则按钮" transform="translate(449.000000, 1049.000000)">
                <g id="Oval-3">
                    <use fill="black" fill-opacity="1" filter="url(#filter-3)" xlink:href="#path-2"></use>
                    <use fill="url(#linearGradient-1)" fill-rule="evenodd" xlink:href="#path-2"></use>
                </g>
                <path d="M17.544,12.112 L18.456,12.112 C19.956,13.756 21.684,15.052 23.652,15.988 L22.968,17.212 C22.272,16.852 21.624,16.444 21.012,16.012 L21.012,16.876 L15.024,16.876 L15.024,15.964 C14.388,16.408 13.704,16.828 12.984,17.224 L12.312,16 C14.412,14.968 16.152,13.672 17.544,12.112 Z M15.384,15.7 L20.604,15.7 C19.62,14.968 18.756,14.152 18,13.24 C17.256,14.128 16.392,14.956 15.384,15.7 Z M13.14,18.1 L13.14,19.324 L15.852,19.324 C15.432,20.092 14.928,20.836 14.328,21.544 C14.196,21.688 13.98,21.808 13.68,21.88 L14.016,22.972 C16.8,22.804 19.116,22.576 20.976,22.288 C21.204,22.6 21.42,22.924 21.624,23.236 L22.668,22.504 C22.068,21.64 21.228,20.608 20.136,19.432 L19.164,20.044 C19.56,20.5 19.932,20.944 20.28,21.376 C18.744,21.556 17.16,21.688 15.54,21.784 C16.212,21.088 16.8,20.26 17.304,19.324 L22.884,19.324 L22.884,18.1 L13.14,18.1 Z M34.776,16.42 L34.776,20.992 L33.528,20.992 L33.528,17.56 L27.684,17.56 L27.684,21.184 L26.436,21.184 L26.436,16.42 L34.776,16.42 Z M27.144,12.472 L34.068,12.472 L34.068,15.748 L27.144,15.748 L27.144,12.472 Z M32.856,14.668 L32.856,13.576 L28.356,13.576 L28.356,14.668 L32.856,14.668 Z M30.072,18.124 L31.344,18.244 C31.176,20.068 30.804,21.268 30.228,21.856 C29.628,22.6 28.164,23.092 25.812,23.308 L25.32,22.168 C27.24,22.072 28.512,21.724 29.136,21.124 C29.676,20.548 29.988,19.54 30.072,18.124 Z M31.584,20.812 C33.132,21.22 34.548,21.7 35.844,22.276 L35.172,23.32 C33.804,22.648 32.4,22.12 30.96,21.736 L31.584,20.812 Z M12.792,27.708 L14.4,27.708 L14.4,26.208 L15.648,26.208 L15.648,27.708 L17.088,27.708 L17.088,28.908 L15.648,28.908 L15.648,30.516 L17.256,30.516 L17.256,31.716 L15.588,31.716 L15.516,32.4 C16.164,32.976 16.812,33.624 17.46,34.344 L16.764,35.412 C16.188,34.632 15.708,34.02 15.324,33.576 C14.964,35.16 14.34,36.396 13.452,37.296 L12.516,36.468 C13.56,35.412 14.172,33.828 14.34,31.716 L12.636,31.716 L12.636,30.516 L14.4,30.516 L14.4,28.908 L12.792,28.908 L12.792,27.708 Z M22.788,26.544 L22.788,33.312 L21.576,33.312 L21.576,27.696 L18.756,27.696 L18.756,33.312 L17.544,33.312 L17.544,26.544 L22.788,26.544 Z M22.308,37.068 L21.228,37.068 C20.52,37.068 20.172,36.684 20.172,35.94 L20.172,34.02 C20.04,34.368 19.896,34.692 19.728,34.98 C19.128,35.976 18.144,36.744 16.8,37.284 L16.152,36.24 C17.472,35.688 18.372,34.992 18.828,34.164 C19.284,33.276 19.548,32.112 19.596,30.696 L19.596,28.452 L20.736,28.452 L20.736,30.696 C20.712,31.68 20.592,32.544 20.4,33.3 L21.312,33.3 L21.312,35.688 C21.312,35.868 21.396,35.964 21.588,35.964 L22.104,35.964 C22.224,35.964 22.308,35.904 22.368,35.784 C22.44,35.64 22.488,35.244 22.512,34.572 L23.592,34.92 C23.508,35.964 23.364,36.588 23.172,36.792 C22.98,36.972 22.692,37.068 22.308,37.068 Z M31.092,26.52 L31.092,34.128 L29.868,34.128 L29.868,27.72 L26.844,27.72 L26.844,34.236 L25.632,34.236 L25.632,26.52 L31.092,26.52 Z M29.556,34.38 C30.312,35.016 30.96,35.64 31.488,36.264 L30.54,37.212 C30.096,36.6 29.472,35.94 28.668,35.244 L29.556,34.38 Z M27.768,28.404 L28.98,28.404 L28.98,32.136 C28.932,33.552 28.644,34.692 28.128,35.532 C27.612,36.312 26.784,36.924 25.656,37.356 L24.948,36.228 C26.028,35.82 26.76,35.304 27.144,34.704 C27.516,34.032 27.72,33.18 27.768,32.136 L27.768,28.404 Z M32.124,27.192 L33.336,27.192 L33.336,34.572 L32.124,34.572 L32.124,27.192 Z M34.464,37.128 L32.808,37.128 L32.52,35.916 C33.048,35.964 33.552,35.988 34.02,35.988 C34.356,35.988 34.524,35.82 34.524,35.496 L34.524,26.184 L35.772,26.184 L35.772,35.82 C35.772,36.684 35.328,37.128 34.464,37.128 Z" id="会员-规则" fill="#744923"></path>
            </g>
        </g>
    </g>
</svg>