<?xml version="1.0" encoding="UTF-8"?>
<svg width="88px" height="52px" viewBox="0 0 88 52" version="1.1" xmlns="http://www.w3.org/2000/svg" xmlns:xlink="http://www.w3.org/1999/xlink">
    <!-- Generator: Sketch 43.1 (39012) - http://www.bohemiancoding.com/sketch -->
    <title>立即激活按钮</title>
    <desc>Created with Sketch.</desc>
    <defs>
        <linearGradient x1="50%" y1="0%" x2="50%" y2="100%" id="linearGradient-1">
            <stop stop-color="#FFFFFF" offset="0%"></stop>
            <stop stop-color="#FEF9CB" offset="100%"></stop>
        </linearGradient>
        <linearGradient x1="0%" y1="0%" x2="73.2958984%" y2="71.6796875%" id="linearGradient-2">
            <stop stop-color="#FFFFFF" offset="0%"></stop>
            <stop stop-color="#FEF9CB" offset="100%"></stop>
        </linearGradient>
        <rect id="path-3" x="0" y="0" width="80" height="44" rx="3"></rect>
        <filter x="-8.8%" y="-11.4%" width="117.5%" height="131.8%" filterUnits="objectBoundingBox" id="filter-4">
            <feOffset dx="0" dy="2" in="SourceAlpha" result="shadowOffsetOuter1"></feOffset>
            <feGaussianBlur stdDeviation="2" in="shadowOffsetOuter1" result="shadowBlurOuter1"></feGaussianBlur>
            <feColorMatrix values="0 0 0 0 0   0 0 0 0 0   0 0 0 0 0  0 0 0 0.2 0" type="matrix" in="shadowBlurOuter1"></feColorMatrix>
        </filter>
    </defs>
    <g id="H5优化-&gt;-领券、会员卡样式合集" stroke="none" stroke-width="1" fill="none" fill-rule="evenodd">
        <g id="品牌新视觉-2017.04.01" transform="translate(-276.000000, -394.000000)">
            <g id="未入会" transform="translate(78.000000, 163.000000)">
                <g id="main">
                    <g id="VIP" transform="translate(23.000000, 125.000000)">
                        <g id="立即激活按钮" transform="translate(179.000000, 108.000000)">
                            <g id="Rectangle-6">
                                <use fill="black" fill-opacity="1" filter="url(#filter-4)" xlink:href="#path-3"></use>
                                <use fill="url(#linearGradient-2)" fill-rule="evenodd" xlink:href="#path-3"></use>
                            </g>
                            <path d="M24.092,9.592 L24.092,11.006 L35.95,11.006 L35.95,9.592 L30.84,9.592 C30.644,8.836 30.462,8.15 30.266,7.534 L28.558,7.814 C28.796,8.374 29.006,8.962 29.202,9.592 L24.092,9.592 Z M23.616,18.328 L30.476,18.328 C31.274,16.508 31.974,14.268 32.59,11.58 L34.144,12 C33.612,14.366 32.954,16.48 32.17,18.328 L36.426,18.328 L36.426,19.742 L23.616,19.742 L23.616,18.328 Z M27.452,11.552 C28.068,13.358 28.6,15.43 29.076,17.754 L27.494,18.146 C27.074,16.046 26.556,14.016 25.912,12.07 L27.452,11.552 Z M41.404,11.972 L41.404,13.47 L44.176,13.47 L44.176,11.972 L41.404,11.972 Z M44.176,10.67 L44.176,9.256 L41.404,9.256 L41.404,10.67 L44.176,10.67 Z M39.864,20.078 L39.36,18.678 C39.766,18.538 39.976,18.286 39.976,17.936 L39.976,7.94 L45.548,7.94 L45.548,14.828 L41.404,14.828 L41.404,18.202 C42.384,17.922 43.266,17.614 44.078,17.306 C43.868,16.942 43.658,16.592 43.434,16.242 L44.54,15.542 C45.394,16.858 46.052,18.006 46.514,18.986 L45.38,19.784 C45.184,19.364 44.988,18.944 44.764,18.524 C43.322,19.112 41.684,19.63 39.864,20.078 Z M50.238,18.552 C51.274,18.552 51.806,18.02 51.806,16.956 L51.806,7.968 L46.92,7.968 L46.92,20.428 L48.376,20.428 L48.376,9.34 L50.35,9.34 L50.35,16.62 C50.35,16.998 50.14,17.194 49.748,17.194 L48.782,17.138 L49.174,18.552 L50.238,18.552 Z M26.85,24.64 L28.166,24.64 C28.306,24.262 28.404,23.87 28.46,23.478 L29.888,23.674 C29.804,24.01 29.706,24.332 29.594,24.64 L31.288,24.64 L31.288,27.986 C31.932,26.754 32.394,25.256 32.646,23.492 L34.004,23.744 C33.878,24.5 33.724,25.214 33.542,25.886 L36.342,25.886 L36.342,27.258 L35.656,27.258 C35.586,29.442 35.222,31.318 34.578,32.872 C35.152,33.824 35.824,34.566 36.608,35.112 L35.768,36.358 C35.068,35.812 34.438,35.098 33.892,34.216 C33.36,35.084 32.716,35.812 31.96,36.428 L31.162,35.154 C31.974,34.552 32.618,33.768 33.122,32.802 C32.66,31.822 32.268,30.688 31.946,29.428 C31.82,29.61 31.694,29.778 31.568,29.946 L31.008,29.26 L29.356,29.26 L29.706,30.17 L31.61,30.17 L31.61,31.402 L28.95,31.402 C28.908,31.682 28.866,31.934 28.824,32.172 L31.26,32.172 C31.26,34.076 31.134,35.252 30.896,35.672 C30.672,36.078 30.252,36.288 29.664,36.316 L28.796,36.316 L28.432,35.07 L29.3,35.07 C29.538,35.056 29.692,34.958 29.748,34.762 C29.804,34.552 29.832,34.076 29.846,33.348 L28.586,33.348 C28.502,33.684 28.418,33.978 28.32,34.244 C27.984,35.07 27.48,35.812 26.808,36.47 L25.912,35.308 C26.444,34.79 26.85,34.216 27.13,33.572 C27.34,33.012 27.508,32.298 27.634,31.402 L26.388,31.402 L26.388,30.17 L28.334,30.17 L27.998,29.26 L26.85,29.26 L26.85,24.64 Z M32.772,27.972 C33.024,29.19 33.36,30.268 33.752,31.22 C34.102,30.072 34.298,28.742 34.354,27.258 L33.08,27.258 C32.968,27.51 32.87,27.748 32.772,27.972 Z M30.028,28.21 L30.028,27.496 L28.11,27.496 L28.11,28.21 L30.028,28.21 Z M28.11,26.46 L30.028,26.46 L30.028,25.676 L28.11,25.676 L28.11,26.46 Z M24.526,23.702 C25.366,24.332 26.08,24.962 26.668,25.606 L25.73,26.53 C25.226,25.928 24.512,25.284 23.588,24.598 L24.526,23.702 Z M24.316,27.076 C25.1,27.734 25.772,28.392 26.318,29.064 L25.338,30.044 C24.862,29.4 24.204,28.728 23.336,28 L24.316,27.076 Z M25.212,31.262 L26.444,31.752 C25.94,33.376 25.394,34.902 24.792,36.33 L23.532,35.784 C24.176,34.314 24.736,32.802 25.212,31.262 Z M43.028,27.44 L46.864,27.44 L46.864,25.69 C45.884,25.774 44.834,25.816 43.728,25.816 L43.28,24.5 C46.304,24.5 48.852,24.164 50.938,23.506 L51.666,24.738 C50.714,25.074 49.608,25.34 48.348,25.522 L48.348,27.44 L52.212,27.44 L52.212,28.84 L48.348,28.84 L48.348,30.506 L51.4,30.506 L51.4,36.456 L49.958,36.456 L49.958,35.798 L45.366,35.798 L45.366,36.456 L43.924,36.456 L43.924,30.506 L46.864,30.506 L46.864,28.84 L43.028,28.84 L43.028,27.44 Z M45.366,34.426 L49.958,34.426 L49.958,31.878 L45.366,31.878 L45.366,34.426 Z M40.732,23.618 C41.656,24.22 42.454,24.836 43.112,25.452 L42.118,26.432 C41.558,25.858 40.774,25.228 39.738,24.556 L40.732,23.618 Z M40.41,26.95 L39.388,27.944 C40.424,28.686 41.236,29.372 41.81,30.016 L42.818,29.008 C42.174,28.322 41.362,27.636 40.41,26.95 Z M41.656,30.73 C41.082,32.41 40.396,34.048 39.612,35.644 L41.082,36.288 C41.782,34.72 42.412,33.04 42.986,31.262 L41.656,30.73 Z" id="立即-激活" fill="#744923"></path>
                            <polygon id="Triangle" fill="#CAB08B" points="74 22.5 70 25 70 20"></polygon>
                        </g>
                    </g>
                </g>
            </g>
        </g>
    </g>
</svg>