<svg id="图层_1" data-name="图层 1" xmlns="http://www.w3.org/2000/svg" viewBox="0 0 66 67"><defs><style>.cls-1{fill:#c68e30;}.cls-2{fill:#fff;stroke:#c68e30;stroke-miterlimit:10;stroke-width:0.3px;}</style></defs><title>upgrade</title><polygon class="cls-1" points="25.14 0 66 0 0 67 0 25.32 25.14 0"/><path class="cls-2" d="M2.56,36.67q1.63-1.76,2.69-3.08l1.33,1q-.4.46-.8,1l.83.83.89-.89,1.23,1.23-.9.89.86.86L8.63,38l.89-.17c.4,0,.71-.09.93-.13L6,33.25l4.11-4.11,4.57,4.57-4.08,4.08.2,1.59q-.6,0-1.16,0L12.21,42,11,43.2,8.66,40.84q.27.93.43,1.82a5.73,5.73,0,0,0-.6-.33q-.8-.46-1.19-.66a9.76,9.76,0,0,0-.76-2.75l-.86.86L4.45,38.56l1-1-.76-.76-.43.43a5,5,0,0,1-.4.46Zm8.05-1.36,1.49-1.49L10,31.66,8.46,33.15ZM12,40.71a19.19,19.19,0,0,0-.5-3.55l1.76-.5a29.3,29.3,0,0,1,.63,3.75Zm1.86-5.9q.5.1,1.36.23,1.49.23,2.15.37L17,37.3q-1.66-.4-3.58-.73Z"/><path class="cls-2" d="M17.18,30.14,17,30l-.9.9-.46-.46-.1.7q0,.37-.07.6-.53-.2-2-.7A9.09,9.09,0,0,0,13,25.5l1.82-.76a13.52,13.52,0,0,1,.86,4.18L19.57,25a9.85,9.85,0,0,1-4.21-1.09L16,22.28a7.92,7.92,0,0,0,5.63.46q.2.73.7,2l-.27.07-.83.1q.23.23.73.8,1.16,1.23,1.49,1.62,1.62,1.56-.13,3.25-1,1-1.29,1.36l-1.56-1q.53-.46,1.36-1.29a.7.7,0,0,0,0-1.16,8.9,8.9,0,0,0-.79-.86q-.56-.63-.83-.9l-1.86,1.86.13.13a.41.41,0,0,0,.1.17q2.45,2.19.73,6.1a5.85,5.85,0,0,0-.6-.07,5.26,5.26,0,0,0-1.36-.17Q18.94,31.7,17.18,30.14Z"/><path class="cls-2" d="M32,18.87a11,11,0,0,0-.7-.9,3.59,3.59,0,0,1,.5-.23q.47-.2,1.19-.6a8.56,8.56,0,0,1,.9,1.43,1.45,1.45,0,0,1-.43,2l-1.26,1.26a1.39,1.39,0,0,1-2.22,0l-1.59-1.59-.83.83q2.06,1.72.17,5.54-.7-.17-2-.36,1.69-2.75.4-3.78l-1.39,1.39L20.89,20l1.33-1.33c-.22,0-.58-.13-1.06-.27l-.56-.1,1.26-1.79a11,11,0,0,1,1.26.33l.73.2.83-.83q-.2-.73-.43-2L26,12.87q.17.7.3,1.69l1.33-1.33,3.85,3.84-1.76,1.76L30.87,20a.52.52,0,0,0,.83,0l.23-.23Q32.36,19.4,32,18.87Zm-7,2.39,4-4-1.46-1.46-4,4Z"/><path class="cls-2" d="M41.24,8.66l-2.12,2.12a4.21,4.21,0,0,0,3.25-1.19,7.76,7.76,0,0,0,.6,1.59q-2.32,1.39-3.71,1.06a6.23,6.23,0,0,1-1.09,3.88.51.51,0,0,1-.2-.07l-1.53-.4q1.63-2.42,1.26-3.45l-2.12,2.12-.79-.8a1.77,1.77,0,0,0-.33.46l1.69,1.69q1.09,1,.23,2a6,6,0,0,1-.76.9,7.3,7.3,0,0,0-1.39-1l.4-.4a.44.44,0,0,0,0-.7l-1.06-1.06a1.46,1.46,0,0,0-.23.36,3,3,0,0,0-.27.4L31.5,15q.33-.46.66-.86L30.9,12.84l-.66.66L29,12.27l.66-.66-1.42-1.43L29.44,9l1.42,1.43.56-.56.5.5A8.86,8.86,0,0,0,31.4,7l1.46-1.46.1.3a6.43,6.43,0,0,1,.17.7l2.25-2.25,1,1,.17,1.29,1-1,2.32,2.32.37-.36Zm-7.69,3.45q.43.5,1,1.06l.43-.43L33.26,11,33,11l-.66-.2.3.3-.56.56,1.06,1.06a.75.75,0,0,0,.13-.2C33.4,12.35,33.49,12.22,33.55,12.11Zm-.07-3.84a9.88,9.88,0,0,1,.13,1.19L35.11,8,35,6.77Zm3.28,2.68-.56-.56q-.43-.5-.7-.76l-.7.7,1.29,1.29ZM36.7,8.43q.23.23.63.7l.63.63.66-.66L37.33,7.8Z"/></svg>