<svg id="图层_1" data-name="图层 1" xmlns="http://www.w3.org/2000/svg" viewBox="0 0 66 67"><defs><style>.cls-1{fill:#c68e30;}.cls-2{fill:#fff;stroke:#c68e30;stroke-miterlimit:10;stroke-width:0.3px;}</style></defs><title>coupon</title><polygon class="cls-1" points="25.09 -0.06 65.95 -0.06 -0.04 66.94 -0.04 25.26 25.09 -0.06"/><path class="cls-2" d="M6.56,39.52l-.37-.1a9.74,9.74,0,0,0-1.53-.33,11.62,11.62,0,0,0,.7-6.2l1.69-1.56a.53.53,0,0,0,.07.2,2.51,2.51,0,0,0,.07.27,10.49,10.49,0,0,0,5.47-1l.53,1.92q-1.06.33-1.92.53l.66.66L7.66,38.23l-.6-.6Q6.79,38.83,6.56,39.52Zm0,1,7.66-7.66,1.19,1.19-1.86,1.86q1.66,0,3.18-.07l-.2,1.92-.9-.1q-.23.23-.89,1-2.09,2.22-2.49,2.69T11.2,42.64a.41.41,0,0,1-.1.17l-1.69-.56a4.1,4.1,0,0,0,.23-1.49,4.08,4.08,0,0,0,0-.89L7.76,41.71Zm.86-7a16.33,16.33,0,0,1-.1,2.62L10,33.52A10.64,10.64,0,0,1,7.42,33.56Zm3.85,6.56q1.49-1.49,2.45-2.52l-1.13-.13.13-.73-1.56,1.56a8.06,8.06,0,0,1,.07,1.19Q11.27,39.92,11.27,40.12Z"/><path class="cls-2" d="M11.73,27.19l6.2-6.2,2.68,2.68-6.2,6.2Zm6.43-3.25-.5-.5-3.48,3.48.5.5Zm-.9,9.51-2.82-2.82,6.93-6.93L24,26.36l-1.39,1.39-1.49-1.49L17,30.41l1.66,1.66Zm1.46-4.18,1.43-1.43A5.05,5.05,0,0,1,20.91,29q1.29-.76,3.45-1.92l.93-.53.63,1.76q-2,.93-4.54,2.35.06,1.39-2.42,4.61a3,3,0,0,1-.5-.23,12,12,0,0,0-1.26-.46q2.62-3,2.25-4.11A2.22,2.22,0,0,0,18.73,29.28Z"/><path class="cls-2" d="M19.89,19.9q2-2.29,3.94-4.67l1.56.89-.7.9-.73.93,1.52,1.52,2-2-3.28-3.28,1.43-1.43,3.28,3.28,1.43-1.43,1.26,1.26-1.43,1.43,3.25,3.25L32,22,28.7,18.77l-2,2a5.56,5.56,0,0,1,1.46,5.37,20.34,20.34,0,0,0-2.09.1,3.86,3.86,0,0,0-.8-4L23.6,23.88l-1.26-1.26,1.72-1.72-1.42-1.43q-.7.76-1.29,1.49Q21,20.66,20,20Z"/><path class="cls-2" d="M33.78,13.7a2.15,2.15,0,0,0,.2-.27,8.23,8.23,0,0,0,.76-1c.13.13.31.33.53.6a5.2,5.2,0,0,1,.53.6,26.36,26.36,0,0,0-2,2.55l-1.46-.73a3.37,3.37,0,0,0,0-1.33,4.2,4.2,0,0,0-.1-.76,2.1,2.1,0,0,0-.07-.33,13.05,13.05,0,0,0-.86,1.06l-1.43-.76a2.83,2.83,0,0,0-.17-1.16,13.17,13.17,0,0,0-1-2.69l1.69-.9q.43,1.43.79,3.18l.53-.53q-.13-.46-.3-.9L33,9.76Q33.61,12.41,33.78,13.7Zm1.36,4.54-1.39-1.06q.83-1,2.25-2.85a6.83,6.83,0,0,0,.5.56,11.2,11.2,0,0,0-2.88-4.81l-.5-.5q-.4-.46-.6-.66l-.6.6L30.69,8.3l4.44-4.44,1.26,1.26.3,1.62,1.16-1.16L39,6.77a11.2,11.2,0,0,1,1.13,3.12,11.73,11.73,0,0,0,2.09-.43,10,10,0,0,0,.4,1.86q-.66.13-1.89.3l-.5.1a15.12,15.12,0,0,1-.66,2.85,9,9,0,0,0-1.52-.33,3.22,3.22,0,0,1,.23.83q.1.36.13.53a9.56,9.56,0,0,1-1.36-.1Q35.89,17.08,35.13,18.24ZM33.77,7.67a12.87,12.87,0,0,0,1.06,1.19A8.3,8.3,0,0,0,38.38,10a6.82,6.82,0,0,0-.63-1.82s0,0,0-.1L36.49,9.26,35.37,8.13,35,6.41Zm2.92,3.58A9.29,9.29,0,0,1,38,13.73a11.64,11.64,0,0,0,.5-2.09A6,6,0,0,1,36.69,11.25Z"/></svg>