<?xml version="1.0" encoding="UTF-8"?>
<svg width="280px" height="48px" viewBox="0 0 280 48" version="1.1" xmlns="http://www.w3.org/2000/svg" xmlns:xlink="http://www.w3.org/1999/xlink">
    <!-- Generator: Sketch 44.1 (41455) - http://www.bohemiancoding.com/sketch -->
    <title>弹窗Banner</title>
    <desc>Created with Sketch.</desc>
    <defs>
        <linearGradient x1="86.4312066%" y1="0%" x2="50.1844214%" y2="99.4937819%" id="linearGradient-1">
            <stop stop-color="#38E5FF" offset="0%"></stop>
            <stop stop-color="#27D0E9" offset="100%"></stop>
        </linearGradient>
        <linearGradient x1="50%" y1="3.13297194%" x2="50%" y2="100%" id="linearGradient-2">
            <stop stop-color="#FEAD76" offset="0%"></stop>
            <stop stop-color="#F7AB75" offset="100%"></stop>
        </linearGradient>
        <linearGradient x1="0%" y1="100%" x2="65.7618788%" y2="69.362571%" id="linearGradient-3">
            <stop stop-color="#1BB787" offset="0%"></stop>
            <stop stop-color="#1BB787" offset="52.4174904%"></stop>
            <stop stop-color="#1BB787" offset="100%"></stop>
        </linearGradient>
    </defs>
    <g id="买单成功后" stroke="none" stroke-width="1" fill="none" fill-rule="evenodd">
        <g id="弹窗Banner">
            <path d="M83.7445654,32.2869853 L95.2019546,32.2869853 C96.0773397,30.0663406 96.5150258,27.5452936 96.5150258,24.7237686 L96.5150258,22.0009418 L96.5150258,22.0009418 C96.5150258,21.448657 96.962741,21.0009418 97.5150258,21.0009418 L98.4294034,21.0009418 L98.4294034,21.0009418 C98.9816881,21.0009418 99.4294034,21.448657 99.4294034,22.0009418 L99.4294034,25.6642723 C99.4294034,27.9632926 99.1198206,30.1708416 98.5006457,32.2869853 L107.628092,32.2869853 C107.991057,32.2869853 108.311315,32.1302363 108.588876,31.8167335 L108.588876,31.8167335 L108.588876,31.8167335 C108.803834,31.5701464 109.177991,31.5445062 109.424578,31.7594645 C109.465062,31.7947562 109.500559,31.8353902 109.530091,31.8802491 L109.59083,31.9725094 L109.59083,31.9725094 C109.847701,32.3626893 109.800211,32.8787254 109.476441,33.2154693 L109.389529,33.3058642 C109.090617,33.619367 108.716983,33.7761161 108.268615,33.7761161 L97.9562015,33.7761161 C97.4010792,35.1346281 96.6965114,36.3886204 95.8424771,37.5381306 C94.9884428,38.6876408 93.9529417,39.6803847 92.7359427,40.5163921 C91.5189438,41.3523995 90.1204836,41.9989892 88.54052,42.4561808 C86.9605565,42.9133723 85.1884619,43.1289023 83.2241829,43.102777 C85.8503385,42.1100182 88.1241708,40.8560259 90.045748,39.3407625 C91.9673253,37.8254991 93.4725382,35.9706355 94.561432,33.7761161 L83.7445654,33.7761161 L83.7445654,33.7761161 C83.3333533,33.7761161 83,33.4427628 83,33.0315507 L83,33.0315507 L83,33.0315507 C83,32.6203386 83.3333533,32.2869853 83.7445654,32.2869853 Z M84.9739905,18.3361815 L106.362059,18.3361815 L106.362059,18.3361815 C106.675265,18.3361815 106.95035,18.1281203 107.035609,17.826742 L107.035609,17.826742 L107.035609,17.826742 C107.10733,17.573214 107.370997,17.4258309 107.624525,17.4975525 C107.640436,17.5020536 107.656102,17.5073789 107.67146,17.5135068 L110.12613,18.4929321 C109.592358,19.8514441 108.919817,21.092374 108.108484,22.2157589 C107.297151,23.3391439 106.347052,24.1751388 105.258159,24.7237686 L106.214605,21.0372548 L106.214605,21.0372548 C106.3533,20.502669 106.032367,19.9568667 105.497782,19.8181713 C105.415767,19.7968931 105.331381,19.7861246 105.246651,19.7861246 L84.9739905,19.7861246 L84.9739905,19.7861246 C84.5735998,19.7861246 84.249019,19.4615438 84.249019,19.061153 L84.249019,19.061153 L84.249019,19.061153 C84.249019,18.6607623 84.5735998,18.3361815 84.9739905,18.3361815 Z M98.6928024,35.1476838 C99.5681876,35.2521848 100.486261,35.4481211 101.447049,35.7354986 C102.407838,36.0228762 103.37395,36.3886239 104.345414,36.8327528 C105.316878,37.2768818 106.28299,37.7993786 107.243778,38.4002589 C108.204567,39.0011392 109.12264,39.6542602 109.998025,40.3596415 L108.762708,42.209991 L108.762708,42.209991 C108.456055,42.6693189 107.835104,42.7930861 107.375776,42.4864328 C107.344273,42.4654012 107.313991,42.4425967 107.285076,42.4181296 L98.6928024,35.1476838 Z M91.7605073,26.2668948 L87.8359452,21.2360677 C88.4551201,21.2883181 89.084961,21.4189423 89.7254868,21.6279442 C90.3660125,21.836946 90.9798405,22.1047256 91.5669891,22.431291 C92.1541377,22.7578564 92.6932388,23.1301354 93.1843085,23.5481391 C93.6753783,23.9661428 94.0917138,24.4102651 94.4333275,24.8805192 L93.3334784,26.2719312 L93.3334784,26.2719312 C92.9909963,26.7052031 92.3621235,26.7788027 91.9288517,26.4363207 C91.8661699,26.3867735 91.8096521,26.3298926 91.7605073,26.2668948 Z M88.1668538,29.9810981 L84.249019,24.9588945 C85.4873688,25.0633955 86.7043494,25.4487368 87.8999975,26.1149302 C89.0956456,26.7811236 90.0670951,27.6105873 90.8143751,28.6033461 L89.7449444,29.9796023 L89.7449444,29.9796023 C89.40607,30.4157016 88.7778297,30.4945179 88.3417304,30.1556436 C88.276447,30.1049145 88.2177065,30.0462853 88.1668538,29.9810981 Z" id="Combined-Shape" fill="#BCA365"></path>
            <path d="M119.351288,21.2948491 C119.351288,21.5653834 119.570599,21.7846948 119.841133,21.7846948 L121.706426,21.7846948 C122.25871,21.7846948 122.706426,21.3369795 122.706426,20.7846948 C122.706426,20.6181515 122.66483,20.4542454 122.585416,20.3078554 L120.920568,17.2389272 C121.326234,17.212802 121.769258,17.2715829 122.249652,17.4152717 C122.730046,17.5589604 123.194421,17.7810216 123.642789,18.0814617 C124.091157,18.3819019 124.51283,18.7345872 124.907821,19.1395283 C125.302812,19.5444694 125.617732,19.9951229 125.852591,20.4915023 L125.852591,20.4915023 C125.544526,20.7561716 125.509347,21.2204646 125.774016,21.5285298 C125.913722,21.6911425 126.117433,21.7846948 126.331818,21.7846948 L129.297136,21.7846948 L129.297136,21.7846948 C129.726642,21.7846948 130.108177,21.5104275 130.245022,21.103305 L131.323667,17.8942654 L131.323667,17.8942654 C131.499631,17.3707625 132.06666,17.0890262 132.590163,17.2649898 C132.597071,17.2673117 132.603954,17.2697091 132.610809,17.2721816 L134.691803,18.0226803 C134.243435,18.8325624 133.731022,19.5575267 133.154548,20.1975949 C132.578075,20.8376631 132.001611,21.3666911 131.425138,21.7846948 L135.521545,21.7846948 L135.521545,21.7846948 C135.828954,21.7846948 136.101513,21.5870416 136.197031,21.2948491 C136.28743,21.0183153 136.575283,20.8577965 136.858054,20.9262364 L138.465139,21.3152054 L138.465139,21.3152054 C138.869338,21.4130352 139.1177,21.82001 139.01987,22.2242091 C139.014152,22.2478356 139.007292,22.2711713 138.999317,22.2941343 L138.782453,22.9185055 L138.782453,22.9185055 C138.745806,23.0240144 138.727095,23.1349172 138.727095,23.2466092 L138.727095,32.5018025 C138.727095,33.0540872 138.279379,33.5018025 137.727095,33.5018025 L136.314995,33.5018025 C136.055282,33.5018025 135.844743,33.2912636 135.844743,33.0315507 C135.844743,32.7718378 135.634204,32.5612989 135.374491,32.5612989 L130.023178,32.5612989 L130.023178,32.5612989 C129.470893,32.5612989 129.023178,33.0090141 129.023178,33.5612989 L129.023178,34.9706245 C129.023178,35.5229093 129.470893,35.9706245 130.023178,35.9706245 L139.5918,35.9706245 C139.762607,35.9706245 139.928074,35.9444997 140.088205,35.8922492 C140.248336,35.8399988 140.403128,35.722437 140.552584,35.5395604 C140.791378,35.2817438 141.193961,35.2663231 141.451777,35.5051172 C141.487365,35.5380796 141.519067,35.5750036 141.546266,35.6151694 L141.571917,35.6530503 L141.571917,35.6530503 C141.836575,36.0438916 141.7919,36.5665717 141.464752,36.9068293 L141.385263,36.9895035 C141.043649,37.3291315 140.670015,37.4989429 140.264349,37.4989429 L130.023178,37.4989429 C129.470893,37.4989429 129.023178,37.9466582 129.023178,38.4989429 L129.023178,42.1811523 L129.023178,42.1811523 C129.023178,42.7334371 128.575463,43.1811523 128.023178,43.1811523 L127.140827,43.1811523 C126.588542,43.1811523 126.140827,42.7334371 126.140827,42.1811523 L126.140827,38.4989429 C126.140827,37.9466582 125.693111,37.4989429 125.140827,37.4989429 L114.222639,37.4989429 L114.222639,37.4989429 C113.800606,37.4989429 113.45848,37.1568172 113.45848,36.7347837 L113.45848,36.7347837 C113.45848,36.3127502 113.800606,35.9706245 114.222639,35.9706245 L125.140827,35.9706245 C125.693111,35.9706245 126.140827,35.5229093 126.140827,34.9706245 L126.140827,33.5612989 C126.140827,33.0090141 125.693111,32.5612989 125.140827,32.5612989 L119.821539,32.5612989 L119.821539,32.5612989 C119.561826,32.5612989 119.351288,32.7718378 119.351288,33.0315507 C119.351288,33.2912636 119.140749,33.5018025 118.881036,33.5018025 L117.468936,33.5018025 C116.916651,33.5018025 116.468936,33.0540872 116.468936,32.5018025 L116.468936,21.8050035 L116.468936,21.8050035 C116.468936,21.2527188 116.916651,20.8050035 117.468936,20.8050035 L118.861442,20.8050035 L118.861442,20.8050035 C119.131976,20.8050035 119.351288,21.0243149 119.351288,21.2948491 L119.351288,21.2948491 Z M130.023178,31.0721681 L134.844743,31.0721681 C135.397028,31.0721681 135.844743,30.6244529 135.844743,30.0721681 L135.844743,28.8979684 C135.844743,28.3456836 135.397028,27.8979684 134.844743,27.8979684 L130.023178,27.8979684 C129.470893,27.8979684 129.023178,28.3456836 129.023178,28.8979684 L129.023178,30.0721681 C129.023178,30.6244529 129.470893,31.0721681 130.023178,31.0721681 Z M130.023178,26.4088376 L134.844743,26.4088376 C135.397028,26.4088376 135.844743,25.9611224 135.844743,25.4088376 L135.844743,24.2346379 C135.844743,23.6823531 135.397028,23.2346379 134.844743,23.2346379 L130.023178,23.2346379 C129.470893,23.2346379 129.023178,23.6823531 129.023178,24.2346379 L129.023178,25.4088376 C129.023178,25.9611224 129.470893,26.4088376 130.023178,26.4088376 Z M120.351288,31.0721681 L125.140827,31.0721681 C125.693111,31.0721681 126.140827,30.6244529 126.140827,30.0721681 L126.140827,28.8979684 C126.140827,28.3456836 125.693111,27.8979684 125.140827,27.8979684 L120.351288,27.8979684 C119.799003,27.8979684 119.351288,28.3456836 119.351288,28.8979684 L119.351288,30.0721681 C119.351288,30.6244529 119.799003,31.0721681 120.351288,31.0721681 Z M120.351288,26.4088376 L125.140827,26.4088376 C125.693111,26.4088376 126.140827,25.9611224 126.140827,25.4088376 L126.140827,24.2346379 C126.140827,23.6823531 125.693111,23.2346379 125.140827,23.2346379 L120.351288,23.2346379 C119.799003,23.2346379 119.351288,23.6823531 119.351288,24.2346379 L119.351288,25.4088376 C119.351288,25.9611224 119.799003,26.4088376 120.351288,26.4088376 Z" id="Combined-Shape" fill="#BCA365"></path>
            <path d="M145.35891,21.2360677 L152.204537,21.2360677 C152.482098,20.5568117 152.738305,19.8645034 152.973164,19.1591222 C153.208024,18.4537409 153.421529,17.7353078 153.613687,17.0038013 L156.496038,17.7091791 C156.325231,18.3100594 156.149089,18.8978683 155.967607,19.4726234 C155.786125,20.0473785 155.588632,20.6351873 155.375124,21.2360677 L169.46662,21.2360677 C169.808234,21.2360677 170.128492,21.0793186 170.427404,20.7658159 C170.64588,20.5151929 171.02616,20.4891331 171.276783,20.7076096 C171.315549,20.7414032 171.349825,20.780025 171.378774,20.8225314 L171.420214,20.8833788 L171.420214,20.8833788 C171.696577,21.2891739 171.635488,21.8359201 171.276376,22.1707118 L171.228057,22.2157589 C170.886443,22.555387 170.523484,22.7251984 170.139168,22.7251984 L154.766627,22.7251984 C154.531768,23.2999535 154.291574,23.8681688 154.046039,24.4298612 C153.800505,24.9915537 153.528285,25.5336441 153.229373,26.0561488 L165.222795,26.0561488 L165.222795,26.0561488 C165.51984,26.0561488 165.783943,25.8670863 165.879694,25.585897 C165.970018,25.3206419 166.249498,25.1698077 166.520804,25.2398912 L168.118862,25.6526995 C168.527758,25.758325 168.773607,26.1754269 168.667982,26.5843228 C168.662785,26.6044397 168.656771,26.6243365 168.649954,26.6439635 L168.43309,27.2683348 C168.396443,27.3738437 168.377731,27.4847465 168.377731,27.5964385 L168.377731,40.4772044 C168.377731,40.8429577 168.351043,41.1825806 168.297666,41.4960833 C168.244289,41.8095861 168.137536,42.0904281 167.977405,42.3386178 C167.817273,42.5868075 167.593093,42.7827438 167.304856,42.9264326 C167.01662,43.0701214 166.648323,43.1419647 166.199955,43.1419647 L163.720699,43.1419647 L163.720699,43.1419647 C163.320717,43.1419647 162.959212,42.9036221 162.801604,42.5360006 L162.548976,41.9467413 C162.362392,41.5115316 162.563944,41.0074683 162.999153,40.8208845 C163.105906,40.7751175 163.220844,40.751518 163.336993,40.751518 L164.49538,40.751518 L164.49538,40.751518 C165.047665,40.751518 165.49538,40.3038027 165.49538,39.751518 L165.49538,38.38138 C165.49538,37.8290952 165.047665,37.38138 164.49538,37.38138 L154.229373,37.38138 L154.229373,37.38138 C153.677088,37.38138 153.229373,37.8290952 153.229373,38.38138 L153.229373,42.1419647 L153.229373,42.1419647 C153.229373,42.6942494 152.781658,43.1419647 152.229373,43.1419647 L151.347022,43.1419647 L151.347022,43.1419647 C150.794737,43.1419647 150.347022,42.6942494 150.347022,42.1419647 L150.347022,30.3667904 C149.386233,31.5163006 148.366745,32.4829196 147.288527,33.2666766 C146.210308,34.0504335 145.062717,34.5598679 143.845718,34.794995 C145.425681,33.1491054 146.87218,31.3073042 148.185258,29.2695362 C149.498336,27.2317681 150.645927,25.050344 151.628067,22.7251984 L145.35891,22.7251984 C144.947698,22.7251984 144.614345,22.3918451 144.614345,21.980633 C144.614345,21.5694209 144.947698,21.2360677 145.35891,21.2360677 Z M154.229373,30.9937928 L164.49538,30.9937928 C165.047665,30.9937928 165.49538,30.5460776 165.49538,29.9937928 L165.49538,28.5452795 C165.49538,27.9929948 165.047665,27.5452795 164.49538,27.5452795 L154.229373,27.5452795 C153.677088,27.5452795 153.229373,27.9929948 153.229373,28.5452795 L153.229373,29.9937928 C153.229373,30.5460776 153.677088,30.9937928 154.229373,30.9937928 Z M154.229373,35.8922492 L164.49538,35.8922492 C165.047665,35.8922492 165.49538,35.444534 165.49538,34.8922492 L165.49538,33.4829236 L165.49538,33.4829236 C165.49538,32.9306388 165.047665,32.4829236 164.49538,32.4829236 L154.229373,32.4829236 C153.677088,32.4829236 153.229373,32.9306388 153.229373,33.4829236 L153.229373,34.8922492 C153.229373,35.444534 153.677088,35.8922492 154.229373,35.8922492 Z" id="Combined-Shape" fill="#BCA365"></path>
            <path d="M176.265756,21.4320059 L179.284584,21.4320059 C179.836869,21.4320059 180.284584,20.9842907 180.284584,20.4320059 C180.284584,20.3022924 180.259348,20.1738179 180.210282,20.0537424 L178.980013,17.042989 C179.940801,16.9646133 180.842861,17.2062681 181.68622,17.7679605 C182.529579,18.329653 183.164758,19.0284925 183.591775,19.8644999 L183.591775,19.8644999 C183.227004,20.2078381 183.209629,20.7818743 183.552967,21.1466456 C183.724372,21.3287509 183.96336,21.4320059 184.213444,21.4320059 L184.744715,21.4320059 C184.830119,21.2230041 184.915521,21.0270678 185.000924,20.8441912 C185.086328,20.6613145 185.182405,20.4653782 185.28916,20.2563764 L188.107459,21.5887565 C187.552337,22.8688929 186.98121,24.0510419 186.394061,25.135239 C185.806912,26.2194361 185.20376,27.2187112 184.584585,28.1330943 C184.990251,28.4465971 185.406587,28.8450009 185.833604,29.3283176 C186.260621,29.8116344 186.682294,30.3406624 187.098636,30.9154175 C187.514978,31.4901726 187.909963,32.0845127 188.283603,32.6984556 C188.657243,33.3123986 188.972163,33.9328635 189.228373,34.5598691 L187.852451,35.6312507 C187.416691,35.9705613 186.788372,35.8923737 186.449061,35.4566137 C186.383852,35.3728689 186.332391,35.2792767 186.29661,35.1793509 L184.0796,28.9878578 L184.0796,28.9878578 C184.068763,28.9575947 184.035446,28.9418463 184.005183,28.9526827 C183.993244,28.9569577 183.983028,28.9650149 183.976088,28.9756288 C183.934294,29.0395535 183.912036,29.1142728 183.912036,29.1906476 L183.912036,42.0635894 L183.912036,42.0635894 C183.912036,42.6158741 183.464321,43.0635894 182.912036,43.0635894 L182.029685,43.0635894 L182.029685,43.0635894 C181.4774,43.0635894 181.029685,42.6158741 181.029685,42.0635894 L181.029685,32.2869853 C179.962142,33.2797441 178.921303,34.0634893 177.907137,34.6382444 C176.892971,35.2129995 175.92686,35.6440593 175.008773,35.9314369 C175.92686,34.9648033 176.791556,33.9851218 177.602889,32.992363 C178.414222,31.9996042 179.188179,30.9742043 179.924783,29.9161324 C180.661388,28.8580605 181.365956,27.7542861 182.038508,26.6047759 C182.71106,25.4552657 183.367589,24.2273982 184.008115,22.9211367 L176.265756,22.9211367 L176.265756,22.9211367 C175.854544,22.9211367 175.521191,22.5877834 175.521191,22.1765713 C175.521191,21.7653592 175.854544,21.4320059 176.265756,21.4320059 L176.265756,21.4320059 Z M194.224449,18.0038013 L194.224449,39.3988291 C194.224449,39.9511139 194.672164,40.3988291 195.224449,40.3988291 L199.981346,40.3988291 C200.452904,40.3988291 200.860379,40.069402 200.959159,39.6083068 L201.225922,38.3630955 L201.225922,38.3630955 C201.270972,38.1528078 201.477964,38.0188562 201.688252,38.0639063 C201.844552,38.0973905 201.964513,38.2229926 201.990785,38.3806651 L202.187821,39.563187 C202.268169,40.0453939 202.685367,40.3988291 203.174222,40.3988291 L203.48,40.3988291 C203.48,41.3132122 203.325209,41.959802 203.015621,42.3386178 C202.706034,42.7174337 202.305711,42.9068388 201.814641,42.9068388 L193.007456,42.9068388 C192.537737,42.9068388 192.142752,42.7109025 191.82249,42.319024 C191.502227,41.9271455 191.342098,41.443836 191.342098,40.8690809 L191.342098,18.0038013 L191.342098,18.0038013 C191.342098,17.4515166 191.789813,17.0038013 192.342098,17.0038013 L193.224449,17.0038013 L193.224449,17.0038013 C193.776734,17.0038013 194.224449,17.4515166 194.224449,18.0038013 L194.224449,18.0038013 Z" id="Combined-Shape" fill="#BCA365"></path>
            <path d="M197,7 L202,10 C203.333333,8 204.333333,6 205,4 C205.666667,2 206,0.666666667 206,0 C204.594814,0.947703826 203.570863,1.48582732 202.928148,1.61437049 C202.285432,1.74291366 201.642716,1.5381235 201,1 C200.844201,2.23369892 200.458934,3.31159856 199.844201,4.23369892 C199.229467,5.15579928 198.2814,6.07789964 197,7 Z" id="Path-10" fill="url(#linearGradient-1)"></path>
            <path d="M265.642679,23.6775763 C268.926453,30.5032869 270.743024,34.945554 271.092391,37.0043775 C271.616442,40.0926128 266.375934,43.1808481 266.375934,47.5043775 C266.026567,49.5632011 266.375934,51.0043775 267.424035,51.827907 L264.279731,53.0632011 C262.532895,51.0043775 262.358211,48.7396717 263.75568,46.2690834 C265.851883,42.5632011 269.520239,40.0926128 270.044289,38.2396717 C270.393657,37.0043775 268.392202,34.1056511 264.039924,29.5434923 L265.642679,23.6775763 Z" id="Path-6" fill="url(#linearGradient-2)" transform="translate(266.976632, 38.370389) rotate(-63.000000) translate(-266.976632, -38.370389) "></path>
            <g id="Group-6" transform="translate(0.000000, 17.000000)">
                <path d="M1,27 C2.33333333,26.3333333 3.33333333,25.6666667 4,25 C4.59871852,24.4012815 4.92858914,23.5337151 4.98961186,22.3973007 L4.98961187,22.3973007 C5.00267209,22.1540827 4.92651565,21.9144596 4.77543687,21.7234079 C3.24322901,19.785803 2.31808338,17.5446671 2,15 C1.66666667,12.3333333 2.33333333,9.66666667 4,7 C1.33333333,9 8.5623178e-17,12.6666667 0,18 C0,23.3333333 0.333333333,26.3333333 1,27 Z" id="Path-7" fill="#41D1A5"></path>
                <path d="M2,12 C2,10 2.66666667,8.16666667 4,6.5 C6,4 8,3 11,3 C14,3 18,5 20,4 C21.3333333,3.33333333 21.6666667,2.33333333 21,1 C23,3.33333333 23.6666667,5.16666667 23,6.5 C22,8.5 17,9.5 12,8 C8.66666667,7 5.33333333,8.33333333 2,12 Z" id="Path-8" fill="url(#linearGradient-3)"></path>
                <path d="M18,0 C21.3333333,3.33333333 22.3333333,6 21,8 C23,7 26,4 24,2 C22.6666667,0.666666667 20.6666667,-4.4408921e-16 18,0 Z" id="Path-9" fill="#41D1A5"></path>
            </g>
        </g>
    </g>
</svg>