<?xml version="1.0" encoding="UTF-8"?>
<svg width="243px" height="23px" viewBox="0 0 243 23" version="1.1" xmlns="http://www.w3.org/2000/svg" xmlns:xlink="http://www.w3.org/1999/xlink">
    <!-- Generator: Sketch 44.1 (41455) - http://www.bohemiancoding.com/sketch -->
    <title>已绑定</title>
    <desc>Created with Sketch.</desc>
    <defs></defs>
    <g id="买单成功后" stroke="none" stroke-width="1" fill="none" fill-rule="evenodd">
        <g id="已绑定">
            <g id="Group-3" transform="translate(0.000000, 9.000000)" stroke="#EADFCD" stroke-linecap="square">
                <path d="M0,10 C40.9637405,3.33333333 81.6183206,0 121.96374,0 C162.30916,0 202.65458,3.33333333 243,10" id="Line"></path>
                <path d="M0,13 C40.9637405,6.33333333 81.6183206,3 121.96374,3 C162.30916,3 202.65458,6.33333333 243,13" id="Line"></path>
            </g>
            <path d="M73.6125836,1.34262918 C88.8456144,0.447543059 104.26393,3.41916934e-16 119.867529,0 C135.563313,0 151.259098,0.452846778 166.954882,1.35854033 L166.954882,1.35853954 C172.59387,1.68392594 177,6.35163223 177,12 L177,12 L177,12 C177,17.184678 172.796988,21.3876899 167.61231,21.3876899 C167.432732,21.3876899 167.253191,21.3825371 167.073908,21.372238 C151.149078,20.4574124 135.413619,20 119.867529,20 C104.406357,20 88.9451858,20.452429 73.4840142,21.3572869 L73.4840154,21.3573071 C68.3161174,21.6597559 63.8815251,17.7155301 63.5790762,12.5476321 C63.5684043,12.365283 63.563065,12.182661 63.563065,12 L63.563065,12 L63.563065,12 C63.563065,6.34718543 67.9695032,1.67422637 73.6125843,1.34264143 Z" id="Rectangle-6" fill="#FFFFFF"></path>
            <path d="M84.93,4.84 L85.63,4.84 L85.63,5.92 L88.21,5.92 L88.21,4.83 L88.91,4.83 L88.91,5.92 L90.87,5.92 L90.87,6.57 L88.91,6.57 L88.91,7.8 L91.29,7.8 L91.29,8.5 L88.81,8.5 C89.43,9.23 90.37,9.81 91.64,10.23 L91.33,10.87 C89.79,10.27 88.7,9.48 88.05,8.5 L85.9,8.5 C85.24,9.46 84.19,10.26 82.75,10.89 L82.37,10.28 C83.61,9.81 84.54,9.22 85.16,8.5 L82.71,8.5 L82.71,7.8 L84.93,7.8 L84.93,6.57 L83.12,6.57 L83.12,5.92 L84.93,5.92 L84.93,4.84 Z M85.63,7.8 L88.21,7.8 L88.21,6.57 L85.63,6.57 L85.63,7.8 Z M84.29,10.79 L84.92,11.1 C84.57,11.97 84.16,12.72 83.68,13.35 L83.09,12.93 C83.55,12.33 83.95,11.62 84.29,10.79 Z M89.61,10.42 C90.12,11.27 90.56,12.17 90.94,13.13 L90.29,13.43 C89.89,12.37 89.45,11.44 88.98,10.63 L89.61,10.42 Z M88.02,10.69 C88.43,11.49 88.79,12.34 89.09,13.25 L88.43,13.54 C88.11,12.54 87.77,11.66 87.39,10.89 L88.02,10.69 Z M85.95,13.95 L84.95,13.95 L84.79,13.26 C85.11,13.29 85.41,13.31 85.7,13.31 C85.9,13.31 86.01,13.16 86.01,12.88 L86.01,9.49 L86.74,9.49 L86.74,13.07 C86.74,13.65 86.47,13.95 85.95,13.95 Z M93.28,6.7 L93.28,7.28 L100.72,7.28 L100.72,6.7 L97.35,6.7 L97.35,6.05 L101.05,6.05 L101.05,5.46 L97.35,5.46 L97.35,4.82 L96.65,4.82 L96.65,5.46 L92.96,5.46 L92.96,6.05 L96.65,6.05 L96.65,6.7 L93.28,6.7 Z M94.82,9.61 L93.87,9.61 L93.87,7.81 L100.13,7.81 L100.13,9.61 L99.29,9.61 L98.88,10.34 L101.46,10.34 L101.46,10.94 L92.54,10.94 L92.54,10.34 L95.14,10.34 L94.82,9.61 Z M98.53,9.61 L95.57,9.61 L95.89,10.34 L98.13,10.34 L98.53,9.61 Z M99.44,9.08 L99.44,8.34 L94.56,8.34 L94.56,9.08 L99.44,9.08 Z M100.28,11.52 L100.28,14 L99.59,14 L99.59,13.59 L94.42,13.59 L94.42,14 L93.72,14 L93.72,11.52 L100.28,11.52 Z M94.42,13 L99.59,13 L99.59,12.11 L94.42,12.11 L94.42,13 Z M102.6,5.6 L102.6,6.25 L104.94,6.25 L104.94,6.98 L105.68,6.98 L105.68,6.25 L108.32,6.25 L108.32,6.98 L109.06,6.98 L109.06,6.25 L111.4,6.25 L111.4,5.6 L109.06,5.6 L109.06,4.78 L108.32,4.78 L108.32,5.6 L105.68,5.6 L105.68,4.78 L104.94,4.78 L104.94,5.6 L102.6,5.6 Z M105.41,7.22 L106.01,7.59 C105.65,8.05 105.3,8.44 104.94,8.76 C105.43,9.59 105.68,10.61 105.68,11.82 C105.68,12.7 105.55,13.31 105.29,13.65 C105.1,13.85 104.82,13.95 104.45,13.95 C104.05,13.95 103.74,13.94 103.5,13.93 L103.3,13.27 C103.61,13.3 103.94,13.32 104.28,13.32 C104.53,13.32 104.71,13.23 104.81,13.07 C104.93,12.86 104.99,12.43 105,11.77 C105,11.45 104.98,11.15 104.94,10.87 C104.4,11.42 103.75,11.88 103.01,12.26 L102.62,11.67 C103.54,11.25 104.27,10.73 104.8,10.13 C104.7,9.78 104.58,9.47 104.42,9.19 C103.99,9.5 103.47,9.81 102.86,10.11 L102.48,9.51 C103.06,9.27 103.58,8.98 104.04,8.62 C103.74,8.26 103.37,7.95 102.95,7.71 L103.48,7.26 C103.9,7.52 104.26,7.83 104.55,8.19 C104.85,7.9 105.14,7.58 105.41,7.22 Z M106.17,8.97 L108.23,8.97 C108.25,8.25 108.26,7.69 108.26,7.3 L108.98,7.3 C108.98,7.77 108.97,8.33 108.96,8.97 L111.26,8.97 L111.26,9.65 L109.02,9.65 C109.42,11.27 110.24,12.53 111.5,13.41 L111.02,13.95 C109.87,13.08 109.1,11.97 108.72,10.61 C108.32,11.96 107.56,13.09 106.45,13.99 L105.97,13.47 C107.27,12.38 108.01,11.11 108.19,9.65 L106.17,9.65 L106.17,8.97 Z M109.98,7.09 C110.48,7.57 110.86,7.99 111.13,8.35 L110.59,8.73 C110.31,8.33 109.93,7.89 109.44,7.42 L109.98,7.09 Z M113.78,9.8 C113.43,10.13 113.05,10.45 112.63,10.75 L112.42,10.06 C113.48,9.27 114.26,8.37 114.74,7.37 L115.36,7.65 C115.12,8.14 114.83,8.6 114.48,9.04 L114.48,14 L113.78,14 L113.78,9.8 Z M114.7,4.82 L115.3,5.1 C114.75,6.18 113.85,7.14 112.6,7.98 L112.39,7.28 C113.45,6.56 114.22,5.74 114.7,4.82 Z M116.01,5.18 L120.74,5.18 L120.74,8.37 L116.01,8.37 L116.01,5.18 Z M120.05,7.79 L120.05,7.05 L116.7,7.05 L116.7,7.79 L120.05,7.79 Z M116.7,6.5 L120.05,6.5 L120.05,5.76 L116.7,5.76 L116.7,6.5 Z M115.57,9.08 L121.34,9.08 L121.34,9.71 L120.13,9.71 L120.13,10.56 L121.57,10.56 L121.57,11.19 L120.13,11.19 L120.13,13.11 C120.13,13.66 119.84,13.94 119.26,13.94 L118.15,13.94 L118,13.26 C118.36,13.29 118.69,13.31 119.01,13.31 C119.28,13.31 119.42,13.18 119.42,12.94 L119.42,11.19 L115.21,11.19 L115.21,10.56 L119.42,10.56 L119.42,9.71 L115.57,9.71 L115.57,9.08 Z M116.62,11.49 C117.19,12.04 117.63,12.53 117.93,12.96 L117.38,13.34 C117.05,12.88 116.62,12.38 116.1,11.86 L116.62,11.49 Z M125.77,5.92 C126.68,6.97 127.38,7.89 127.86,8.67 L127.25,9.09 C126.74,8.25 126.05,7.32 125.17,6.29 L125.77,5.92 Z M129.21,10.82 C128.55,12.03 127.49,13.06 126.03,13.9 L125.55,13.31 C127.25,12.33 128.38,11.11 128.93,9.63 C129.35,8.38 129.56,6.79 129.57,4.86 L130.32,4.86 C130.32,6.76 130.11,8.36 129.69,9.68 C129.64,9.83 129.59,9.98 129.53,10.13 C130.35,11.17 131.04,12.21 131.6,13.25 L131.05,13.8 C130.58,12.86 129.97,11.87 129.21,10.82 Z M123.29,12.86 L123.05,12.18 C123.23,12.04 123.32,11.86 123.32,11.63 L123.32,5.12 L124.06,5.12 L124.06,11.8 C124.84,11.48 125.61,11.09 126.38,10.63 L126.58,11.33 C125.56,11.92 124.46,12.43 123.29,12.86 Z M132.55,5.36 L132.55,6.07 L136.37,6.07 L136.37,14.02 L137.1,14.02 L137.1,8.34 C138,8.82 139.12,9.5 140.45,10.38 L140.88,9.74 C139.6,8.92 138.34,8.2 137.1,7.58 L137.1,6.07 L141.44,6.07 L141.44,5.36 L132.55,5.36 Z M144.87,8.79 L144.87,13.96 L144.15,13.96 L144.15,8.77 C143.79,9.83 143.3,10.78 142.69,11.63 L142.37,10.82 C143.19,9.84 143.78,8.73 144.13,7.48 L142.58,7.48 L142.58,6.79 L144.15,6.79 L144.15,4.84 L144.87,4.84 L144.87,6.79 L146.19,6.79 L146.19,7.48 L144.87,7.48 L144.87,8.05 C145.37,8.53 145.88,9.08 146.39,9.68 L145.98,10.29 C145.55,9.67 145.18,9.17 144.87,8.79 Z M150.23,6.13 L147.53,6.13 C147.65,7.67 148.07,9.05 148.8,10.27 C149.52,9.07 149.99,7.69 150.23,6.13 Z M148.38,10.91 C147.49,9.47 146.97,7.88 146.83,6.13 L146.43,6.13 L146.43,5.44 L150.93,5.44 L150.93,6.12 C150.64,7.99 150.07,9.6 149.23,10.94 C149.87,11.84 150.67,12.66 151.65,13.39 L151.16,13.97 C150.22,13.23 149.43,12.42 148.81,11.55 C148.11,12.5 147.25,13.3 146.24,13.96 L145.78,13.38 C146.83,12.68 147.7,11.86 148.38,10.91 Z M160.19,9.77 L160.19,12.98 L161.43,12.98 L161.43,13.67 L152.58,13.67 L152.58,12.98 L153.89,12.98 L153.89,9.77 L160.19,9.77 Z M154.58,12.98 L155.76,12.98 L155.76,10.45 L154.58,10.45 L154.58,12.98 Z M156.42,12.98 L157.64,12.98 L157.64,10.45 L156.42,10.45 L156.42,12.98 Z M158.3,12.98 L159.49,12.98 L159.49,10.45 L158.3,10.45 L158.3,12.98 Z M152.79,6.59 L152.79,7.29 L161.22,7.29 L161.22,6.59 L158.82,6.59 C159.18,6.14 159.5,5.62 159.79,5.04 L159.09,4.8 C158.79,5.44 158.44,6.03 158.03,6.59 L155.48,6.59 L155.95,6.25 C155.66,5.84 155.24,5.36 154.69,4.8 L154.1,5.17 C154.6,5.68 155.01,6.15 155.33,6.59 L152.79,6.59 Z M158.4,7.66 C159.54,8.18 160.57,8.81 161.5,9.55 L161.1,10.18 C160.1,9.35 159.07,8.69 158.03,8.21 L158.4,7.66 Z M155.58,7.6 L156.04,8.12 C155.18,8.94 154.09,9.63 152.79,10.17 L152.48,9.5 C153.74,9.02 154.77,8.39 155.58,7.6 Z" id="恭喜获得以下权益" fill="#000000"></path>
        </g>
    </g>
</svg>