<?xml version="1.0" encoding="UTF-8"?>
<svg width="38px" height="38px" viewBox="0 0 38 38" version="1.1" xmlns="http://www.w3.org/2000/svg" xmlns:xlink="http://www.w3.org/1999/xlink">
    <!-- Generator: Sketch 44.1 (41455) - http://www.bohemiancoding.com/sketch -->
    <title>券ico</title>
    <desc>Created with Sketch.</desc>
    <defs>
        <linearGradient x1="50%" y1="0%" x2="50%" y2="98.0050223%" id="linearGradient-1">
            <stop stop-color="#C6A874" offset="0%"></stop>
            <stop stop-color="#C6A874" offset="100%"></stop>
        </linearGradient>
        <circle id="path-2" cx="15" cy="15" r="15"></circle>
        <filter x="-25.0%" y="-18.3%" width="143.3%" height="143.3%" filterUnits="objectBoundingBox" id="filter-3">
            <feOffset dx="-1" dy="1" in="SourceAlpha" result="shadowOffsetOuter1"></feOffset>
            <feGaussianBlur stdDeviation="2" in="shadowOffsetOuter1" result="shadowBlurOuter1"></feGaussianBlur>
            <feColorMatrix values="0 0 0 0 0.776470588   0 0 0 0 0.658823529   0 0 0 0 0.454901961  0 0 0 0.420855978 0" type="matrix" in="shadowBlurOuter1"></feColorMatrix>
        </filter>
    </defs>
    <g id="买单成功后" stroke="none" stroke-width="1" fill="none" fill-rule="evenodd">
        <g id="券ico" transform="translate(5.000000, 3.000000)">
            <g id="Oval-3">
                <use fill="black" fill-opacity="1" filter="url(#filter-3)" xlink:href="#path-2"></use>
                <use fill="url(#linearGradient-1)" fill-rule="evenodd" xlink:href="#path-2"></use>
            </g>
            <path d="M12.2929688,13.9482422 L9.6953125,13.9414062 L8.96386719,13.9755859 L8.59472656,13.4833984 L9.54492188,13.5722656 L12.4775391,13.5791016 C12.5185549,13.4788406 12.5504556,13.4013675 12.5732422,13.3466797 L12.9287109,12.5332031 L13.0722656,12.0888672 L10.7753906,12.0751953 L10.0439453,12.1162109 L9.67480469,11.6240234 L10.6318359,11.7128906 L13.1884766,11.7128906 C13.2340497,11.5533846 13.271647,11.4166672 13.3012695,11.3027344 C13.3308921,11.1888015 13.4015294,10.8640977 13.5131836,10.3286133 C13.6248378,9.79312883 13.6874999,9.40918085 13.7011719,9.17675781 L13.7216797,8.69140625 L13.6806641,8.36328125 C13.6897787,8.31315079 13.7182615,8.27213558 13.7661133,8.24023437 C13.8139651,8.20833317 13.9221997,8.21516904 14.0908203,8.26074219 C14.1136069,8.26985682 14.3733699,8.3279617 14.8701172,8.43505859 C15.3668645,8.54215548 15.6972648,8.64925077 15.8613281,8.75634766 C16.0253914,8.86344455 16.1142577,8.96028603 16.1279297,9.046875 C16.1461589,9.21093832 16.0003271,9.38639229 15.6904297,9.57324219 C15.6175127,9.80110791 15.5673829,9.97200464 15.5400391,10.0859375 L15.2802734,11.1865234 L15.1367188,11.7128906 L15.9296875,11.7128906 C16.0208338,11.5351554 16.1074215,11.3574228 16.1894531,11.1796875 C16.2714848,11.0019522 16.3842766,10.6943381 16.527832,10.2568359 C16.6713874,9.81933375 16.7659503,9.52994862 16.8115234,9.38867187 L16.9345703,8.97851562 L16.9755859,8.7734375 C17.0439457,8.59114492 17.1920562,8.55696558 17.4199219,8.67089844 L17.9326172,8.91699219 L18.5273438,9.24511719 C18.9329447,9.45019634 19.1106773,9.64160067 19.0605469,9.81933594 C19.019531,9.96061269 18.832684,10.0517576 18.5,10.0927734 C17.8893199,10.6533231 17.3059924,11.1933568 16.75,11.7128906 L17.6113281,11.7197266 C17.7298183,11.5830071 17.816406,11.4804691 17.8710938,11.4121094 L18.3017578,10.8583984 C18.4475919,10.6852205 18.564941,10.5974935 18.6538086,10.5952148 C18.7426762,10.5929362 18.8714184,10.6601556 19.0400391,10.796875 C19.5823595,11.2617211 19.8968095,11.546549 19.9833984,11.6513672 C20.0699874,11.7561854 20.1053061,11.8530269 20.0893555,11.9418945 C20.0734049,12.0307622 20.0221358,12.0751953 19.9355469,12.0751953 L15.0273438,12.0751953 C14.958984,12.2483733 14.8769536,12.4716783 14.78125,12.7451172 C14.6855464,13.0185561 14.6263022,13.1780597 14.6035156,13.2236328 L14.4394531,13.5722656 L18.1171875,13.5791016 C18.4225276,13.1826152 18.6344395,12.8909515 18.7529297,12.7041016 C18.8714199,12.5172517 18.9750972,12.412435 19.0639648,12.3896484 C19.1528325,12.3668619 19.2792961,12.4010412 19.4433594,12.4921875 C19.5664069,12.5651045 19.7521146,12.7120757 20.0004883,12.9331055 C20.2488619,13.1541352 20.4265945,13.3330071 20.5336914,13.4697266 C20.6407883,13.606446 20.676107,13.7203771 20.6396484,13.8115234 C20.6031899,13.9026697 20.4710298,13.9482422 20.2431641,13.9482422 L16.4423828,13.9482422 C16.8160826,14.3173847 17.197752,14.6079091 17.5874023,14.8198242 C17.9770527,15.0317393 18.3792297,15.1923823 18.7939453,15.3017578 C19.2086609,15.4111334 19.5880517,15.4897459 19.9321289,15.5375977 C20.2762061,15.5854495 20.5439444,15.6002605 20.7353516,15.5820312 L21.0019531,15.5615234 C21.2207042,15.5478515 21.3505857,15.5478515 21.3916016,15.5615234 C21.4326174,15.5751954 21.4736326,15.6333003 21.5146484,15.7358398 C21.5556643,15.8383794 21.4462904,15.9443354 21.1865234,16.0537109 L20.9609375,16.1494141 C20.8880205,16.1813153 20.7980149,16.2576491 20.690918,16.378418 C20.5838211,16.4991868 20.499512,16.6119786 20.4379883,16.7167969 C20.3764645,16.8216151 20.3206383,16.9503573 20.2705078,17.1030273 C20.2203774,17.2556974 20.1896159,17.3855789 20.1782227,17.4926758 C20.1668294,17.5997727 20.1429038,17.685221 20.1064453,17.7490234 C20.0699868,17.8128258 19.8854183,17.7786465 19.5527344,17.6464844 C19.3020821,17.5507808 18.9124375,17.3525406 18.3837891,17.0517578 C18.3017574,17.170248 18.2060552,17.272786 18.0966797,17.359375 C18.0830077,17.9518259 18.0670574,18.4143864 18.0488281,18.7470703 C18.0305989,19.0797543 17.990723,19.4204084 17.9291992,19.769043 C17.8676755,20.1176775 17.7355153,20.4252916 17.5327148,20.6918945 C17.3299144,20.9584974 16.9892602,21.1624342 16.5107422,21.3037109 C16.0322242,21.4449877 15.6801769,21.5065105 15.4545898,21.4882812 C15.2290028,21.470052 15.0957033,21.4267582 15.0546875,21.3583984 C15.0227863,21.3173826 15.0205077,21.2057301 15.0478516,21.0234375 C15.0751954,20.8411449 15.0706382,20.6930344 15.0341797,20.5791016 C14.9931639,20.4651687 14.9270838,20.360352 14.8359375,20.2646484 C14.7447912,20.1689448 14.6536463,20.1051434 14.5625,20.0732422 L14.3164063,19.9912109 L14.0498047,19.9296875 C13.8994133,19.8248693 13.8606767,19.7246099 13.9335938,19.6289062 C14.0065108,19.5332026 14.0725908,19.4842123 14.1318359,19.4819336 C14.191081,19.4796549 14.3141267,19.4921874 14.5009766,19.5195312 L14.7675781,19.5605469 C15.041017,19.60612 15.2848297,19.6083986 15.4990234,19.5673828 C15.7132172,19.526367 15.8795567,19.4545904 15.9980469,19.3520508 C16.1165371,19.2495112 16.1962889,18.9794944 16.2373047,18.5419922 C16.2919925,17.9495413 16.3193359,17.6077479 16.3193359,17.5166016 L16.3330078,16.59375 L14.9726563,16.6005859 L14.7265625,16.9082031 C14.6673174,17.1542981 14.6057946,17.4265936 14.5419922,17.7250977 C14.4781898,18.0236018 14.3904628,18.3255193 14.2788086,18.6308594 C14.1671544,18.9361994 13.8846051,19.3509088 13.4311523,19.875 C12.9776996,20.3990912 11.8486418,20.8867165 10.0439453,21.3378906 L9.79785156,21.3994141 C9.57454315,21.4586592 9.41276092,21.4871419 9.3125,21.4848633 C9.21223908,21.4825846 9.14843764,21.4404301 9.12109375,21.3583984 C9.09374986,21.2763668 9.16438718,21.1806646 9.33300781,21.0712891 L9.65429688,20.9277344 L9.90039063,20.8046875 C10.9668022,20.2714817 11.6731754,19.753095 12.0195313,19.2495117 C12.3658871,18.7459285 12.584635,18.3334977 12.6757813,18.012207 C12.7669275,17.6909164 12.830729,17.3707698 12.8671875,17.0517578 L12.921875,16.59375 L11.8212891,16.6416016 L11.7255859,16.4091797 C10.6044866,17.0745476 9.84570511,17.4801425 9.44921875,17.6259766 L9.05957031,17.7695312 C8.95019477,17.8105471 8.85904984,17.8242188 8.78613281,17.8105469 C8.71321578,17.7968749 8.65738952,17.7524418 8.61865234,17.6772461 C8.57991517,17.6020504 8.58675104,17.5371096 8.63916016,17.4824219 C8.69156927,17.4277341 8.79980387,17.3525395 8.96386719,17.2568359 L9.25097656,17.0927734 C9.34668017,17.0380857 9.55289555,16.8888359 9.86962891,16.6450195 C10.1863623,16.4012032 10.5760068,16.0514346 11.0385742,15.5957031 C11.5011416,15.1399717 11.8304027,14.7412126 12.0263672,14.3994141 L12.2929688,13.9482422 Z M12.0878906,16.1699219 L13.0107422,16.2314453 L16.0732422,16.2314453 C16.1643885,16.1129551 16.26123,15.9921881 16.3637695,15.8691406 C16.4663091,15.7460931 16.560872,15.6857096 16.6474609,15.6879883 C16.7340499,15.6902669 16.8707673,15.7574863 17.0576172,15.8896484 C16.5244114,15.1969366 16.2167973,14.759441 16.1347656,14.5771484 L15.8271484,13.9482422 L14.3164063,13.9482422 C13.9108053,14.5315784 13.5804049,14.9485665 13.3251953,15.1992187 C13.0699857,15.449871 12.6575549,15.7734355 12.0878906,16.1699219 Z M10.5771484,9.38867187 L10.4541016,9.30664062 C10.358398,9.24739554 10.2843427,9.18701203 10.2319336,9.12548828 C10.1795245,9.06396454 10.1726886,8.99560584 10.2114258,8.92041016 C10.250163,8.84521447 10.3242182,8.79622407 10.4335938,8.7734375 C10.5292974,8.75520824 10.7571597,8.79166621 11.1171875,8.8828125 C11.4772153,8.97395879 11.775715,9.08902925 12.0126953,9.22802734 C12.2496757,9.36702543 12.4536124,9.54475803 12.6245117,9.76123047 C12.795411,9.97770291 12.8706056,10.2386052 12.8500977,10.5439453 C12.8295897,10.8492854 12.7076834,11.0999339 12.484375,11.2958984 C12.2610666,11.491863 12.0035822,11.576172 11.7119141,11.5488281 C11.4703764,11.5305989 11.2801114,11.4497077 11.1411133,11.3061523 C11.0021152,11.1625969 10.9166668,10.9723319 10.8847656,10.7353516 L10.84375,10.0380859 C10.8255207,9.90592382 10.7913414,9.7760423 10.7412109,9.6484375 C10.6910805,9.5208327 10.6363935,9.43424502 10.5771484,9.38867187 Z" id="券" fill="#FFFFFF"></path>
        </g>
    </g>
</svg>