<?xml version="1.0" encoding="UTF-8"?>
<svg width="74px" height="21px" viewBox="0 0 74 21" version="1.1" xmlns="http://www.w3.org/2000/svg" xmlns:xlink="http://www.w3.org/1999/xlink">
    <!-- Generator: Sketch 44.1 (41455) - http://www.bohemiancoding.com/sketch -->
    <title>奖励已到账</title>
    <desc>Created with Sketch.</desc>
    <defs></defs>
    <g id="买单成功后" stroke="none" stroke-width="1" fill="none" fill-rule="evenodd">
        <g id="奖励已到账" transform="translate(-3.000000, -2.000000)">
            <path d="M10,4 L69.3432963,4 L69.3432963,4 C70.35632,4 71.3009257,4.51124445 71.8549285,5.35935873 L75.9575274,11.6399636 L75.9575274,11.6399636 C76.5937259,12.6139098 76.6095096,13.8678564 75.9980273,14.8575074 L71.8462706,21.5769026 L71.8462706,21.5769026 C71.2996875,22.4615179 70.3339929,23 69.2941385,23 L10,23 L10,23 C8.34314575,23 7,21.6568542 7,20 L7,7 L7,7 C7,5.34314575 8.34314575,4 10,4 Z" id="Combined-Shape" fill="#FF4D63"></path>
            <g id="钱袋子" transform="translate(9.938448, 10.498696) rotate(-14.000000) translate(-9.938448, -10.498696) translate(1.938448, 2.498696)">
                <path d="M10.848471,4.51615621 L5.26984605,4.51615621 C2.7928148,6.32277861 0.255740664,10.2353059 1.05940855,12.5835196 C2.05940855,15.5053904 4.1931898,15.5053904 8.05940855,15.5053904 C11.9256273,15.5053904 14.0594085,15.5053904 15.0594085,12.5835196 C15.8637024,10.233477 13.3260023,6.32277861 10.848471,4.51615621 Z M5.43991959,3.51615621 L10.67847,3.51615621 C10.67847,3.51615621 12.7546281,1.58730512 11.8155884,0.74349722 C10.8765487,-0.100310676 8.79305434,1.68106155 8.05942956,1.61855726 C7.32580479,1.68106155 5.24231042,-0.100310676 4.30327071,0.74349722 C3.36423099,1.58730512 5.43991959,3.51615621 5.43991959,3.51615621 Z" id="Combined-Shape" fill="#E6B869" fill-rule="nonzero"></path>
                <path d="M10.5594085,3.51615621 C10.8357835,3.51615621 11.0594085,3.73978121 11.0594085,4.01615621 C11.0594085,4.29253121 10.8357835,4.51615621 10.5594085,4.51615621 L5.55940855,4.51615621 C5.28303355,4.51615621 5.05940855,4.29253121 5.05940855,4.01615621 C5.05940855,3.73978121 5.28303355,3.51615621 5.55940855,3.51615621 L10.5594085,3.51615621 Z" id="Shape" fill="#9E7E45"></path>
                <path d="M9.80940855,7.81303121 C9.93961753,7.50052965 10.2104482,7.31303152 10.6219085,7.25053121 L10.6219085,6.93803121 L8.65315855,6.93803121 L8.65315855,7.25053121 C9.11670253,7.25573957 9.34586691,7.37032176 9.34065855,7.59428121 C9.3979505,7.62032301 9.09587019,8.28698301 8.43440855,9.59428121 C8.10107355,8.90677777 7.76774355,8.20886808 7.43440855,7.50053121 C7.46045034,7.32344699 7.65836503,7.24011449 8.02815855,7.25053121 L8.02815855,6.93803121 L5.49690855,6.93803121 L5.49690855,7.25053121 C5.84586863,7.19844762 6.14794894,7.49011137 6.40315855,8.12553121 L7.40315855,10.1880312 L6.12190855,10.1880312 L6.12190855,10.7974062 L7.40315855,10.7974062 L7.40315855,11.5630312 C7.44482542,12.0630337 7.14274511,12.3026146 6.49690855,12.2817812 L6.49690855,12.5864687 L9.52815855,12.5864687 L9.52815855,12.2817812 C8.8927387,12.307823 8.60107495,12.0682421 8.65315855,11.5630312 L8.65315855,10.7974062 L9.96565855,10.7974062 L9.96565855,10.1880312 L8.65315855,10.1880312 L8.65315855,10.1567812 L9.80940855,7.81303121 Z" id="￥" fill="#FFFFFF"></path>
            </g>
            <path d="M21.621,13.669 L21.621,14.299 L24.987,14.299 C24.528,15.217 23.331,15.883 21.405,16.288 L21.675,16.891 C23.709,16.423 24.996,15.658 25.545,14.605 C26.067,15.676 27.318,16.432 29.307,16.864 L29.568,16.261 C27.759,15.919 26.562,15.262 25.968,14.299 L29.379,14.299 L29.379,13.669 L25.815,13.669 C25.842,13.435 25.86,13.183 25.86,12.913 L25.23,12.913 C25.221,13.201 25.203,13.453 25.176,13.669 L21.621,13.669 Z M24.024,8.692 L24.69,8.692 L24.69,12.841 L24.024,12.841 L24.024,11.554 C23.376,11.896 22.629,12.211 21.774,12.49 L21.513,11.896 C22.476,11.608 23.313,11.275 24.024,10.897 L24.024,8.692 Z M22.071,9.07 C22.62,9.34 23.124,9.664 23.574,10.06 L23.223,10.6 C22.737,10.168 22.233,9.826 21.72,9.583 L22.071,9.07 Z M26.688,8.656 C26.382,9.349 25.806,9.934 24.96,10.42 L25.356,10.942 C25.842,10.645 26.247,10.321 26.58,9.961 L28.56,9.961 C28.326,10.456 27.948,10.888 27.444,11.257 C27.174,10.978 26.895,10.717 26.598,10.474 L26.148,10.807 C26.418,11.014 26.688,11.266 26.976,11.554 C26.472,11.824 25.878,12.049 25.176,12.229 L25.491,12.796 C27.525,12.238 28.758,11.284 29.208,9.916 L29.208,9.367 L27.03,9.367 C27.156,9.169 27.255,8.953 27.345,8.737 L26.688,8.656 Z M32.565,11.266 L31.683,11.266 L31.683,12.679 C31.656,14.434 31.422,15.838 30.981,16.9 L30.522,16.486 C30.882,15.577 31.071,14.308 31.089,12.679 L31.089,9.016 L35.103,9.016 L35.103,9.61 L31.683,9.61 L31.683,10.672 L34.869,10.672 L34.869,11.266 L33.141,11.266 L33.141,12.598 L34.815,12.598 C34.797,14.353 34.725,15.487 34.617,15.991 C34.5,16.504 34.194,16.765 33.699,16.783 C33.537,16.783 33.357,16.765 33.159,16.747 L32.988,16.207 C33.24,16.225 33.456,16.243 33.627,16.243 C33.897,16.225 34.059,16.027 34.122,15.64 C34.176,15.262 34.203,14.434 34.212,13.156 L33.132,13.156 C33.06,14.812 32.7,16.045 32.07,16.855 L31.611,16.459 C32.232,15.667 32.547,14.407 32.565,12.661 L32.565,11.266 Z M36.219,8.683 L36.849,8.683 L36.849,10.582 L38.46,10.582 C38.46,13.408 38.406,15.145 38.316,15.793 C38.226,16.45 37.821,16.783 37.101,16.783 C36.966,16.783 36.732,16.774 36.408,16.756 L36.273,16.207 C36.552,16.225 36.795,16.243 37.011,16.243 C37.416,16.243 37.659,16.027 37.731,15.604 C37.803,15.136 37.848,13.66 37.857,11.176 L36.84,11.176 C36.786,13.768 36.264,15.685 35.274,16.909 L34.815,16.504 C35.706,15.379 36.174,13.606 36.219,11.176 L35.193,11.176 L35.193,10.582 L36.219,10.582 L36.219,8.683 Z M46.911,12.724 L46.911,9.124 L40.251,9.124 L40.251,9.754 L46.254,9.754 L46.254,12.103 L41.259,12.103 L41.259,10.771 L40.611,10.771 L40.611,15.496 C40.611,16.234 40.971,16.612 41.7,16.612 L46.578,16.612 C46.956,16.594 47.253,16.495 47.451,16.306 C47.667,16.072 47.82,15.406 47.91,14.29 L47.28,14.092 C47.226,15.082 47.109,15.658 46.929,15.82 C46.794,15.928 46.614,15.982 46.398,15.982 L41.88,15.982 C41.466,15.982 41.259,15.775 41.259,15.379 L41.259,12.724 L46.911,12.724 Z M53.679,15.397 L53.679,16.036 C52.293,16.324 50.799,16.576 49.197,16.774 L49.053,16.153 C49.773,16.072 50.475,15.982 51.159,15.874 L51.159,14.173 L49.404,14.173 L49.404,13.543 L51.159,13.543 L51.159,12.499 L51.807,12.499 L51.807,13.543 L53.427,13.543 L53.427,14.173 L51.807,14.173 L51.807,15.766 C52.446,15.658 53.067,15.532 53.679,15.397 Z M49.17,9.043 L53.643,9.043 L53.643,9.655 L51.33,9.655 C50.898,10.555 50.493,11.23 50.115,11.689 C51.006,11.599 51.852,11.491 52.662,11.347 C52.464,11.023 52.239,10.699 51.996,10.366 L52.491,10.042 C53.094,10.852 53.553,11.563 53.877,12.166 L53.337,12.544 C53.22,12.31 53.094,12.076 52.95,11.833 C51.816,12.031 50.565,12.202 49.215,12.337 L49.062,11.752 C49.17,11.734 49.26,11.716 49.323,11.689 C49.692,11.365 50.133,10.69 50.646,9.655 L49.17,9.655 L49.17,9.043 Z M56.019,16.819 L54.696,16.819 L54.552,16.189 C54.984,16.207 55.398,16.225 55.794,16.225 C56.046,16.225 56.181,16.09 56.181,15.829 L56.181,8.674 L56.838,8.674 L56.838,15.991 C56.838,16.54 56.559,16.819 56.019,16.819 Z M54.381,9.484 L55.011,9.484 L55.011,15.055 L54.381,15.055 L54.381,9.484 Z M61.635,9.007 L61.635,14.659 L61.059,14.659 L61.059,9.61 L59.115,9.61 L59.115,14.659 L58.521,14.659 L58.521,9.007 L61.635,9.007 Z M59.79,10.267 L60.348,10.267 L60.348,13.192 C60.33,14.2 60.186,15.01 59.898,15.613 C59.619,16.171 59.169,16.612 58.539,16.927 L58.188,16.387 C58.782,16.09 59.205,15.694 59.439,15.199 C59.655,14.677 59.772,14.011 59.79,13.192 L59.79,10.267 Z M60.654,14.911 C61.158,15.415 61.572,15.91 61.905,16.396 L61.446,16.855 C61.158,16.369 60.753,15.856 60.24,15.316 L60.654,14.911 Z M64.083,13.003 L63.291,13.003 L63.291,16.063 C63.687,15.91 64.101,15.703 64.515,15.442 L64.632,16.018 C64.074,16.369 63.444,16.657 62.724,16.882 L62.454,16.306 C62.589,16.243 62.661,16.153 62.661,16.027 L62.661,13.003 L62.013,13.003 L62.013,12.373 L62.661,12.373 L62.661,8.656 L63.291,8.656 L63.291,12.373 L66.279,12.373 L66.279,13.003 L64.65,13.003 C65.064,14.443 65.667,15.541 66.45,16.315 L66.009,16.819 C65.163,15.955 64.515,14.677 64.083,13.003 Z M65.649,9.061 L66.144,9.466 C65.514,10.474 64.767,11.23 63.921,11.716 L63.57,11.212 C64.38,10.744 65.073,10.024 65.649,9.061 Z" fill="#FFFFFF"></path>
        </g>
    </g>
</svg>