<?xml version="1.0" encoding="UTF-8"?>
<svg width="37px" height="38px" viewBox="0 0 37 38" version="1.1" xmlns="http://www.w3.org/2000/svg" xmlns:xlink="http://www.w3.org/1999/xlink">
    <!-- Generator: Sketch 44.1 (41455) - http://www.bohemiancoding.com/sketch -->
    <title>返利</title>
    <desc>Created with Sketch.</desc>
    <defs>
        <polygon id="path-1" points="7.6629509 7.6629509 44.6629509 7.6629509 44.6629509 44.6629509"></polygon>
    </defs>
    <g id="买单成功后" stroke="none" stroke-width="1" fill="none" fill-rule="evenodd">
        <g id="返利" transform="translate(18.476659, 19.476659) rotate(45.000000) translate(-18.476659, -19.476659) translate(-8.023341, -7.023341)">
            <mask id="mask-2" fill="white">
                <use xlink:href="#path-1"></use>
            </mask>
            <use id="Rectangle" fill="#E75040" transform="translate(26.162951, 26.162951) rotate(-45.000000) translate(-26.162951, -26.162951) " xlink:href="#path-1"></use>
            <path d="M19.5201551,16.1701551 L18.2801551,17.0501551 C17.9801551,16.6101551 17.3201551,15.8801551 16.8701551,15.3501551 L18.0301551,14.5801551 C18.4801551,15.0501551 19.1801551,15.7401551 19.5201551,16.1701551 Z M21.5501551,18.8501551 L22.4001551,18.1401551 C22.7301551,18.4301551 23.1201551,18.7601551 23.5301551,19.1101551 C23.7501551,18.7701551 23.9401551,18.4001551 24.0901551,17.9901551 L21.6201551,17.9901551 C21.6001551,18.2701551 21.5801551,18.5601551 21.5501551,18.8501551 Z M21.0601551,20.9801551 C21.6601551,20.7801551 22.1801551,20.4801551 22.6301551,20.1101551 C22.2501551,19.7501551 21.8601551,19.4101551 21.5201551,19.0901551 C21.4401551,19.7301551 21.3001551,20.3901551 21.0601551,20.9801551 Z M19.3201551,21.3001551 L19.3201551,21.7001551 C19.4701551,21.7901551 19.6401551,21.8901551 19.8501551,21.9801551 C20.5701551,22.3301551 21.5701551,22.3901551 22.7001551,22.3901551 C23.6801551,22.3901551 25.2801551,22.3001551 26.2801551,22.1301551 C26.1101551,22.5301551 25.8701551,23.2601551 25.8401551,23.6801551 C25.2401551,23.7301551 23.6801551,23.8001551 22.6401551,23.8001551 C21.3401551,23.8001551 20.4401551,23.6601551 19.6301551,23.2901551 C19.0801551,23.0301551 18.7001551,22.7201551 18.4501551,22.7201551 C18.1901551,22.7201551 17.8201551,23.4601551 17.5801551,23.9901551 L16.5701551,22.5401551 C17.0001551,22.0601551 17.4601551,21.7201551 17.8601551,21.5401551 L17.8601551,19.3001551 L16.8301551,19.3001551 L16.8301551,17.9301551 L19.3201551,17.9301551 L19.3201551,21.0701551 C20.1301551,19.9601551 20.1901551,18.4101551 20.1901551,17.2701551 L20.1901551,15.0301551 C21.9401551,14.9701551 23.8401551,14.7801551 25.0201551,14.4401551 L26.2201551,15.6001551 C24.8701551,15.9901551 23.2001551,16.1901551 21.6301551,16.2701551 L21.6301551,16.7101551 L24.6301551,16.7101551 L24.8801551,16.6701551 L25.7901551,16.9501551 C25.5601551,18.2101551 25.1701551,19.2201551 24.6101551,20.0301551 C25.0901551,20.4401551 25.5301551,20.8401551 25.8401551,21.1501551 L24.7401551,22.1601551 C24.4801551,21.8601551 24.1001551,21.4801551 23.6701551,21.0701551 C23.1501551,21.5301551 22.5301551,21.9001551 21.8201551,22.1801551 C21.6601551,21.8401551 21.3201551,21.3101551 21.0401551,21.0101551 C20.8901551,21.3901551 20.6901551,21.7401551 20.4501551,22.0401551 C20.2201551,21.8301551 19.6801551,21.4801551 19.3201551,21.3001551 Z M30.6534885,16.0101551 L30.4034885,16.0601551 L29.8134885,16.0601551 L30.4334885,15.6901551 C30.2534885,15.2901551 29.8634885,14.7201551 29.4834885,14.3001551 L28.3234885,14.9301551 C28.5834885,15.2601551 28.8634885,15.6901551 29.0534885,16.0601551 L27.3434885,16.0601551 L27.3434885,17.3601551 L29.6034885,17.3601551 C28.9734885,18.3501551 28.0234885,19.2401551 27.0234885,19.7401551 C27.1834885,20.0401551 27.4534885,20.8401551 27.5234885,21.2601551 C27.9434885,21.0101551 28.3634885,20.7101551 28.7634885,20.3501551 L28.7634885,23.9001551 L30.1834885,23.9001551 L30.1834885,20.2901551 C30.4434885,20.6301551 30.6834885,20.9801551 30.8534885,21.2601551 L31.7534885,20.0401551 C31.5434885,19.8201551 30.7634885,19.0301551 30.3134885,18.6101551 C30.7634885,17.9701551 31.1434885,17.2801551 31.4234885,16.5601551 L30.6534885,16.0101551 Z M33.9434885,22.3401551 C33.6034885,22.3401551 33.5634885,22.2601551 33.5634885,21.6701551 L33.5634885,14.5301551 L32.1134885,14.5301551 L32.1134885,21.6601551 C32.1134885,23.1601551 32.4534885,23.6401551 33.7134885,23.6401551 L34.9434885,23.6401551 C36.1034885,23.6401551 36.4534885,22.9401551 36.5934885,21.1201551 C36.2034885,21.0301551 35.6234885,20.7501551 35.2834885,20.4901551 C35.2234885,21.9801551 35.1534885,22.3401551 34.8034885,22.3401551 L33.9434885,22.3401551 Z" id="返礼" fill="#FFFFFF" mask="url(#mask-2)"></path>
            <path d="M28.8786835,7.99079442 C28.7811918,7.91068284 28.6494873,7.90370171 28.5456959,7.97284294 L27.2908472,8.80725928 L26.2495719,7.0762665 C26.2381676,7.05731772 26.2192683,7.04866922 26.2051782,7.03370966 L26.4940675,6.71324778 C26.55227,6.64875025 26.55227,6.54270877 26.4940675,6.47821124 L26.1061819,6.04837315 C26.0479794,5.98387562 25.9522876,5.98387562 25.8940851,6.04837315 L25.5061995,6.47821124 C25.447997,6.54270877 25.447997,6.64875025 25.5061995,6.71324778 L25.7950888,7.03370966 C25.7806893,7.04866922 25.7620853,7.05731772 25.7506951,7.0762665 L24.7094339,8.80725928 L23.4545852,7.97284294 C23.3504844,7.90402895 23.2190893,7.91101008 23.1213023,7.99079442 C23.0241059,8.07124881 22.9797122,8.20820672 23.0088065,8.33852633 L23.6087888,10.9980093 C23.6423829,11.1459375 23.7623878,11.25 23.9000827,11.25 L28.0999312,11.25 C28.2376261,11.25 28.357617,11.1462804 28.3912251,10.9980093 L28.9912075,8.33852633 C29.0202736,8.20820672 28.9758799,8.07124881 28.8786835,7.99079442 Z" id="Shape" fill="#F8E81C" fill-rule="nonzero" mask="url(#mask-2)"></path>
            <path d="M18.5,10.5 L20.5,10.5" id="Line" stroke="#F8E81C" stroke-linecap="square" mask="url(#mask-2)"></path>
            <path d="M31.5,10.5 L33.5,10.5" id="Line" stroke="#F8E81C" stroke-linecap="square" mask="url(#mask-2)"></path>
        </g>
    </g>
</svg>