<?xml version="1.0" encoding="UTF-8"?>
<svg width="65px" height="22px" viewBox="0 0 65 22" version="1.1" xmlns="http://www.w3.org/2000/svg" xmlns:xlink="http://www.w3.org/1999/xlink">
    <!-- Generator: Sketch 44.1 (41455) - http://www.bohemiancoding.com/sketch -->
    <title>奖励待领</title>
    <desc>Created with Sketch.</desc>
    <defs></defs>
    <g id="买单成功后" stroke="none" stroke-width="1" fill="none" fill-rule="evenodd">
        <g id="奖励待领" transform="translate(-3.000000, -1.000000)">
            <path d="M11,4.5 C9.61928813,4.5 8.5,5.61928813 8.5,7 L8.5,20 C8.5,21.3807119 9.61928813,22.5 11,22.5 L61.0229029,22.5 C61.9487894,22.5 62.7988563,21.9882795 63.232193,21.1700587 L66.7934036,14.4458261 C67.1907042,13.6956482 67.1801857,12.7951175 66.7654712,12.0544243 L63.2516663,5.77865692 C62.8095636,4.98904741 61.9752606,4.5 61.0703087,4.5 L11,4.5 Z" id="Combined-Shape" stroke="#EFEFEF"></path>
            <g id="钱袋子" transform="translate(10.000000, 10.000000) rotate(-14.000000) translate(-10.000000, -10.000000) translate(2.000000, 2.000000)">
                <path d="M10.848471,4.51615621 L5.26984605,4.51615621 C2.7928148,6.32277861 0.255740664,10.2353059 1.05940855,12.5835196 C2.05940855,15.5053904 4.1931898,15.5053904 8.05940855,15.5053904 C11.9256273,15.5053904 14.0594085,15.5053904 15.0594085,12.5835196 C15.8637024,10.233477 13.3260023,6.32277861 10.848471,4.51615621 Z M5.43991959,3.51615621 L10.67847,3.51615621 C10.67847,3.51615621 12.7546281,1.58730512 11.8155884,0.74349722 C10.8765487,-0.100310676 8.79305434,1.68106155 8.05942956,1.61855726 C7.32580479,1.68106155 5.24231042,-0.100310676 4.30327071,0.74349722 C3.36423099,1.58730512 5.43991959,3.51615621 5.43991959,3.51615621 Z" id="Combined-Shape" fill="#E6B869" fill-rule="nonzero"></path>
                <path d="M9.80940855,7.81303121 C9.93961753,7.50052965 10.2104482,7.31303152 10.6219085,7.25053121 L10.6219085,6.93803121 L8.65315855,6.93803121 L8.65315855,7.25053121 C9.11670253,7.25573957 9.34586691,7.37032176 9.34065855,7.59428121 C9.3979505,7.62032301 9.09587019,8.28698301 8.43440855,9.59428121 C8.10107355,8.90677777 7.76774355,8.20886808 7.43440855,7.50053121 C7.46045034,7.32344699 7.65836503,7.24011449 8.02815855,7.25053121 L8.02815855,6.93803121 L5.49690855,6.93803121 L5.49690855,7.25053121 C5.84586863,7.19844762 6.14794894,7.49011137 6.40315855,8.12553121 L7.40315855,10.1880312 L6.12190855,10.1880312 L6.12190855,10.7974062 L7.40315855,10.7974062 L7.40315855,11.5630312 C7.44482542,12.0630337 7.14274511,12.3026146 6.49690855,12.2817812 L6.49690855,12.5864687 L9.52815855,12.5864687 L9.52815855,12.2817812 C8.8927387,12.307823 8.60107495,12.0682421 8.65315855,11.5630312 L8.65315855,10.7974062 L9.96565855,10.7974062 L9.96565855,10.1880312 L8.65315855,10.1880312 L8.65315855,10.1567812 L9.80940855,7.81303121 Z" id="￥" fill="#FFFFFF"></path>
                <path d="M10.5594085,3.51615621 C10.8357835,3.51615621 11.0594085,3.73978121 11.0594085,4.01615621 C11.0594085,4.29253121 10.8357835,4.51615621 10.5594085,4.51615621 L5.55940855,4.51615621 C5.28303355,4.51615621 5.05940855,4.29253121 5.05940855,4.01615621 C5.05940855,3.73978121 5.28303355,3.51615621 5.55940855,3.51615621 L10.5594085,3.51615621 Z" id="Shape" fill="#9E7E45"></path>
            </g>
            <path d="M22.621,13.669 L22.621,14.299 L25.987,14.299 C25.528,15.217 24.331,15.883 22.405,16.288 L22.675,16.891 C24.709,16.423 25.996,15.658 26.545,14.605 C27.067,15.676 28.318,16.432 30.307,16.864 L30.568,16.261 C28.759,15.919 27.562,15.262 26.968,14.299 L30.379,14.299 L30.379,13.669 L26.815,13.669 C26.842,13.435 26.86,13.183 26.86,12.913 L26.23,12.913 C26.221,13.201 26.203,13.453 26.176,13.669 L22.621,13.669 Z M25.024,8.692 L25.69,8.692 L25.69,12.841 L25.024,12.841 L25.024,11.554 C24.376,11.896 23.629,12.211 22.774,12.49 L22.513,11.896 C23.476,11.608 24.313,11.275 25.024,10.897 L25.024,8.692 Z M23.071,9.07 C23.62,9.34 24.124,9.664 24.574,10.06 L24.223,10.6 C23.737,10.168 23.233,9.826 22.72,9.583 L23.071,9.07 Z M27.688,8.656 C27.382,9.349 26.806,9.934 25.96,10.42 L26.356,10.942 C26.842,10.645 27.247,10.321 27.58,9.961 L29.56,9.961 C29.326,10.456 28.948,10.888 28.444,11.257 C28.174,10.978 27.895,10.717 27.598,10.474 L27.148,10.807 C27.418,11.014 27.688,11.266 27.976,11.554 C27.472,11.824 26.878,12.049 26.176,12.229 L26.491,12.796 C28.525,12.238 29.758,11.284 30.208,9.916 L30.208,9.367 L28.03,9.367 C28.156,9.169 28.255,8.953 28.345,8.737 L27.688,8.656 Z M33.565,11.266 L32.683,11.266 L32.683,12.679 C32.656,14.434 32.422,15.838 31.981,16.9 L31.522,16.486 C31.882,15.577 32.071,14.308 32.089,12.679 L32.089,9.016 L36.103,9.016 L36.103,9.61 L32.683,9.61 L32.683,10.672 L35.869,10.672 L35.869,11.266 L34.141,11.266 L34.141,12.598 L35.815,12.598 C35.797,14.353 35.725,15.487 35.617,15.991 C35.5,16.504 35.194,16.765 34.699,16.783 C34.537,16.783 34.357,16.765 34.159,16.747 L33.988,16.207 C34.24,16.225 34.456,16.243 34.627,16.243 C34.897,16.225 35.059,16.027 35.122,15.64 C35.176,15.262 35.203,14.434 35.212,13.156 L34.132,13.156 C34.06,14.812 33.7,16.045 33.07,16.855 L32.611,16.459 C33.232,15.667 33.547,14.407 33.565,12.661 L33.565,11.266 Z M37.219,8.683 L37.849,8.683 L37.849,10.582 L39.46,10.582 C39.46,13.408 39.406,15.145 39.316,15.793 C39.226,16.45 38.821,16.783 38.101,16.783 C37.966,16.783 37.732,16.774 37.408,16.756 L37.273,16.207 C37.552,16.225 37.795,16.243 38.011,16.243 C38.416,16.243 38.659,16.027 38.731,15.604 C38.803,15.136 38.848,13.66 38.857,11.176 L37.84,11.176 C37.786,13.768 37.264,15.685 36.274,16.909 L35.815,16.504 C36.706,15.379 37.174,13.606 37.219,11.176 L36.193,11.176 L36.193,10.582 L37.219,10.582 L37.219,8.683 Z M42.619,8.593 L43.186,8.854 C42.718,9.844 41.971,10.726 40.927,11.491 L40.738,10.87 C41.602,10.204 42.223,9.448 42.619,8.593 Z M42.952,10.663 L43.51,10.924 C43.294,11.41 43.024,11.869 42.7,12.301 L42.7,16.855 L42.079,16.855 L42.079,13.021 C41.755,13.363 41.395,13.678 41.008,13.975 L40.819,13.354 C41.791,12.571 42.502,11.671 42.952,10.663 Z M45.985,8.629 L45.985,9.61 L43.978,9.61 L43.978,10.195 L45.985,10.195 L45.985,11.32 L43.636,11.32 L43.636,11.914 L49,11.914 L49,11.32 L46.606,11.32 L46.606,10.195 L48.631,10.195 L48.631,9.61 L46.606,9.61 L46.606,8.629 L45.985,8.629 Z M43.681,13.012 L47.173,13.012 L47.173,12.346 L47.821,12.346 L47.821,13.012 L48.874,13.012 L48.874,13.615 L47.821,13.615 L47.821,15.928 C47.821,16.513 47.524,16.81 46.948,16.81 L45.67,16.81 L45.526,16.189 C45.94,16.216 46.345,16.234 46.723,16.234 C47.02,16.234 47.173,16.072 47.173,15.766 L47.173,13.615 L43.681,13.615 L43.681,13.012 Z M44.743,13.966 C45.247,14.479 45.634,14.929 45.904,15.307 L45.4,15.667 C45.112,15.253 44.725,14.785 44.239,14.281 L44.743,13.966 Z M53.824,9.025 L58.09,9.025 L58.09,9.637 L56.299,9.637 C56.254,9.979 56.2,10.303 56.128,10.627 L57.811,10.627 L57.811,14.875 L57.181,14.875 L57.181,11.221 L54.85,11.221 L54.85,14.947 L54.211,14.947 L54.211,10.627 L55.498,10.627 C55.57,10.303 55.624,9.979 55.66,9.637 L53.824,9.637 L53.824,9.025 Z M56.686,14.902 C57.298,15.424 57.811,15.955 58.234,16.477 L57.775,16.936 C57.406,16.432 56.893,15.892 56.245,15.325 L56.686,14.902 Z M55.696,11.815 L56.308,11.815 L56.308,13.363 C56.29,14.326 56.101,15.1 55.75,15.676 C55.408,16.207 54.85,16.63 54.076,16.936 L53.734,16.387 C54.463,16.108 54.976,15.73 55.264,15.262 C55.534,14.776 55.678,14.146 55.696,13.363 L55.696,11.815 Z M51.736,8.728 L52.222,8.728 C52.834,9.439 53.428,10.195 54.004,10.996 L53.572,11.455 C52.987,10.573 52.474,9.871 52.042,9.349 C51.529,10.267 50.935,11.104 50.26,11.86 L49.891,11.338 C50.566,10.6 51.178,9.727 51.736,8.728 Z M50.404,12.661 L50.404,13.264 L52.933,13.264 C52.591,13.93 52.24,14.515 51.871,15.01 C51.592,14.767 51.304,14.524 50.998,14.281 L50.566,14.695 C51.511,15.46 52.249,16.18 52.789,16.855 L53.257,16.396 C52.969,16.063 52.645,15.73 52.294,15.397 C52.798,14.749 53.239,14.02 53.626,13.201 L53.626,12.661 L50.404,12.661 Z M51.925,10.681 C52.321,11.212 52.618,11.671 52.834,12.067 L52.366,12.4 C52.141,11.968 51.835,11.491 51.457,10.969 L51.925,10.681 Z" fill="#000000"></path>
        </g>
    </g>
</svg>