<?xml version="1.0" encoding="UTF-8"?>
<svg width="27px" height="27px" viewBox="0 0 27 27" version="1.1" xmlns="http://www.w3.org/2000/svg" xmlns:xlink="http://www.w3.org/1999/xlink">
    <!-- Generator: Sketch 44.1 (41455) - http://www.bohemiancoding.com/sketch -->
    <title>LOGO</title>
    <desc>Created with Sketch.</desc>
    <defs></defs>
    <g id="买单成功后" stroke="none" stroke-width="1" fill="none" fill-rule="evenodd" opacity="0.4">
        <g id="LOGO">
            <rect id="Combined-Shape" stroke="#CECECE" x="1.87452897" y="1.84467766" width="22.8493341" height="22.8493341" rx="8"></rect>
            <path d="M17.5398734,4.27518359 L22.0096273,8.74493753 C24.3532323,11.0885425 24.3516887,14.8842308 22.0096273,17.2262922 L17.5398734,21.6960462 C15.1962684,24.0396512 11.4005801,24.0381076 9.05851866,21.6960462 L4.58876472,17.2262922 C2.24515973,14.8826872 2.24670329,11.086999 4.58876472,8.74493753 L9.05851866,4.27518359 C11.4021237,1.93157859 15.1978119,1.93312216 17.5398734,4.27518359 Z M8.77813852,14.0757522 L14.6434887,13.6855656 L13.6420661,16.9261452 C13.1997569,18.1921825 12.8698511,19.3102321 13.5406045,19.5804011 L16.703715,14.0860952 C17.0574956,13.4225312 17.2915427,11.8749744 15.6957739,11.8749744 L12.3988481,12.265161 L14.2035501,7.46838495 C14.3975,6.9528791 14.2528367,6.20706538 13.8810001,5.80317654 L14.4862313,6.46057845 C14.1141419,6.0564151 13.5831057,6.10911795 13.2927001,6.59061044 L8.77813852,14.0757522 Z" id="Combined-Shape" fill="#CECECE"></path>
        </g>
    </g>
</svg>