<?xml version="1.0" encoding="UTF-8"?>
<svg width="38px" height="38px" viewBox="0 0 38 38" version="1.1" xmlns="http://www.w3.org/2000/svg" xmlns:xlink="http://www.w3.org/1999/xlink">
    <!-- Generator: Sketch 44.1 (41455) - http://www.bohemiancoding.com/sketch -->
    <title>积分ico</title>
    <desc>Created with Sketch.</desc>
    <defs>
        <linearGradient x1="50%" y1="0%" x2="50%" y2="98.0050223%" id="linearGradient-1">
            <stop stop-color="#C6A874" offset="0%"></stop>
            <stop stop-color="#C6A874" offset="100%"></stop>
        </linearGradient>
        <circle id="path-2" cx="15" cy="15" r="15"></circle>
        <filter x="-25.0%" y="-18.3%" width="143.3%" height="143.3%" filterUnits="objectBoundingBox" id="filter-3">
            <feOffset dx="-1" dy="1" in="SourceAlpha" result="shadowOffsetOuter1"></feOffset>
            <feGaussianBlur stdDeviation="2" in="shadowOffsetOuter1" result="shadowBlurOuter1"></feGaussianBlur>
            <feColorMatrix values="0 0 0 0 0.776470588   0 0 0 0 0.658823529   0 0 0 0 0.454901961  0 0 0 0.420855978 0" type="matrix" in="shadowBlurOuter1"></feColorMatrix>
        </filter>
    </defs>
    <g id="买单成功后" stroke="none" stroke-width="1" fill="none" fill-rule="evenodd">
        <g id="积分ico" transform="translate(5.000000, 3.000000)">
            <g id="Oval-3">
                <use fill="black" fill-opacity="1" filter="url(#filter-3)" xlink:href="#path-2"></use>
                <use fill="url(#linearGradient-1)" fill-rule="evenodd" xlink:href="#path-2"></use>
            </g>
            <path d="M13.6669922,10.6054688 C13.4983716,10.8515637 13.2978527,11.1512027 13.0654297,11.5043945 C12.8330067,11.8575864 12.5960299,12.2039371 12.3544922,12.543457 C12.1129545,12.882977 11.8474949,13.194009 11.5581055,13.4765625 C11.268716,13.759116 10.8562852,14.1145812 10.3208008,14.5429688 C9.78531633,14.9713563 9.4355477,15.2470697 9.27148437,15.3701172 L9.10742187,15.4931641 C8.87499884,15.666342 8.73486352,15.6914069 8.68701172,15.5683594 C8.63915992,15.4453119 8.63802061,15.3473311 8.68359375,15.2744141 C8.72916689,15.201497 8.79524696,15.1103521 8.88183594,15.0009766 L8.96386719,14.8984375 C9.07324273,14.7617181 9.2475574,14.5190447 9.48681641,14.1704102 C9.72607542,13.8217756 9.96305221,13.435549 10.1977539,13.0117188 C10.4324556,12.5878885 10.6249992,12.2050798 10.7753906,11.8632812 C10.925782,11.5214827 11.0944001,11.1158878 11.28125,10.6464844 C11.4680999,10.177081 11.5843097,9.85579514 11.6298828,9.68261719 L11.7529297,9.19726562 L11.7939453,9.03320312 C11.8167319,8.94205684 11.8497719,8.87597677 11.8930664,8.83496094 C11.9363609,8.79394511 12.0810535,8.84635344 12.3271484,8.9921875 L13.1201172,9.42285156 C13.8720741,9.85123912 14.2503255,10.1018877 14.2548828,10.1748047 C14.2594401,10.4300143 14.0634785,10.5735675 13.6669922,10.6054688 Z M16.5449219,14.8369141 L14.8632812,14.8369141 C14.7812496,14.9781908 14.6741543,15.1126296 14.5419922,15.2402344 C14.4781898,15.495444 14.4348959,15.6868483 14.4121094,15.8144531 L14.2275391,16.9423828 C14.0361319,18.0042371 13.7273784,18.7641579 13.3012695,19.222168 C12.8751606,19.6801781 12.3123407,20.0789371 11.612793,20.418457 C10.9132452,20.757977 10.1829465,21.0074862 9.421875,21.1669922 L9.23046875,21.2080078 C9.089192,21.239909 8.98893259,21.2421876 8.9296875,21.2148438 C8.87044241,21.1874999 8.84537756,21.1168625 8.85449219,21.0029297 C8.8590495,20.9391273 8.87499986,20.8958334 8.90234375,20.8730469 C8.92968764,20.8502603 9.0048822,20.8115237 9.12792969,20.7568359 L9.3125,20.6748047 C10.0234411,20.36035 10.6660128,19.8772819 11.2402344,19.2255859 C11.814456,18.57389 12.1687819,17.8709348 12.3032227,17.1166992 C12.4376634,16.3624637 12.5253904,15.7187527 12.5664062,15.1855469 L12.59375,14.8232422 L11.9443359,14.8369141 L11.0009766,14.8779297 L10.6523437,14.40625 L11.71875,14.4746094 L16.4833984,14.4677734 C16.5699874,14.3492833 16.6725254,14.2045907 16.7910156,14.0336914 C16.9095058,13.8627921 17.0325514,13.7750651 17.1601562,13.7705078 C17.3059903,13.7705078 17.549803,13.8878569 17.8916016,14.1225586 C18.2334001,14.3572603 18.4806307,14.5201818 18.6333008,14.6113281 C18.7859708,14.7024744 18.8736978,14.777669 18.8964844,14.8369141 C18.9283856,14.937175 18.8600269,15.0944 18.6914062,15.3085938 L18.4658203,15.5957031 C18.4521484,15.9648456 18.4418946,16.3351218 18.4350586,16.706543 C18.4282226,17.0779641 18.4168295,17.3707672 18.4008789,17.5849609 C18.3849283,17.7991547 18.3530276,18.1352516 18.3051758,18.5932617 C18.257324,19.0512718 18.1866867,19.4261053 18.0932617,19.7177734 C17.9998368,20.0094416 17.8414725,20.2794584 17.6181641,20.527832 C17.3948557,20.7762057 17.2080086,20.93457 17.0576172,21.0029297 C16.9072258,21.0712894 16.498213,21.1863599 15.8305664,21.3481445 C15.1629198,21.5099292 14.7880863,21.4085305 14.7060547,21.0439453 L14.7470703,20.6542969 C14.7516276,20.5631506 14.7242842,20.4469408 14.6650391,20.3056641 C14.5875647,20.1370434 14.5123702,20.0174157 14.4394531,19.9467773 C14.3665361,19.876139 14.282227,19.8111982 14.1865234,19.7519531 L13.9609375,19.6152344 L13.5917969,19.4511719 C13.491536,19.3554683 13.4619139,19.263184 13.5029297,19.1743164 C13.5439455,19.0854488 13.6100256,19.0421549 13.7011719,19.0444336 C13.7923182,19.0467123 13.9404287,19.0729164 14.1455078,19.1230469 L14.453125,19.2050781 C14.4941408,19.2187501 14.6171865,19.2324218 14.8222656,19.2460938 L15.2871094,19.2871094 C15.6243506,19.2916667 15.8875316,19.2005218 16.0766602,19.0136719 C16.2657887,18.826822 16.3854164,18.4075553 16.4355469,17.7558594 C16.4856773,17.1041634 16.5152994,16.514 16.5244141,15.9853516 L16.5449219,14.8369141 Z M16.6201172,9.29296875 C16.6474611,9.47070401 16.6941728,9.67805871 16.7602539,9.91503906 C16.826335,10.1520194 17.04964,10.5029274 17.4301758,10.9677734 C17.8107115,11.4326195 18.2459285,11.8040351 18.7358398,12.0820312 C19.2257511,12.3600274 19.5755198,12.5286455 19.7851562,12.5878906 C19.9947927,12.6471357 20.2363268,12.6927082 20.5097656,12.7246094 L20.8925781,12.7724609 L21.1933594,12.7929688 C21.275391,12.8203126 21.3312173,12.8738603 21.3608398,12.9536133 C21.3904624,13.0333663 21.3688155,13.1097002 21.2958984,13.1826172 L21.0292969,13.3261719 L20.7626953,13.5244141 C20.6259759,13.6292323 20.5222985,13.7363276 20.4516602,13.8457031 C20.3810218,13.9550787 20.2864589,14.113443 20.1679687,14.3208008 C20.0494786,14.5281586 19.9720054,14.6922194 19.9355469,14.8129883 C19.8990884,14.9337571 19.8614911,15.0089517 19.8227539,15.0385742 C19.7840167,15.0681968 19.6621104,15.0283209 19.4570312,14.9189453 L18.6777344,14.5498047 C17.6933545,14.0530574 17.0234393,13.4742872 16.6679687,12.8134766 C16.3124982,12.152666 16.1017256,11.7277028 16.0356445,11.5385742 C15.9695635,11.3494457 15.8579109,10.9894232 15.7006836,10.4584961 C15.5434562,9.92756896 15.4431968,9.55729271 15.3999023,9.34765625 C15.3566079,9.13801979 15.3053388,8.99218791 15.2460937,8.91015625 L15.0205078,8.6640625 C14.9521481,8.5683589 14.940755,8.46696017 14.9863281,8.35986328 C15.0319013,8.25276639 15.2552063,8.23111947 15.65625,8.29492188 L16.1894531,8.35644531 C16.5904968,8.40657577 16.8297522,8.48177033 16.9072266,8.58203125 C17.0348314,8.7552092 16.9391292,8.992186 16.6201172,9.29296875 Z" id="分" fill="#FFFFFF"></path>
        </g>
    </g>
</svg>