<?xml version="1.0" encoding="UTF-8"?>
<svg width="243px" height="23px" viewBox="0 0 243 23" version="1.1" xmlns="http://www.w3.org/2000/svg" xmlns:xlink="http://www.w3.org/1999/xlink">
    <!-- Generator: Sketch 44.1 (41455) - http://www.bohemiancoding.com/sketch -->
    <title>未绑定</title>
    <desc>Created with Sketch.</desc>
    <defs></defs>
    <g id="买单成功后" stroke="none" stroke-width="1" fill="none" fill-rule="evenodd">
        <g id="未绑定">
            <g id="Group-3" transform="translate(0.000000, 9.000000)" stroke="#EADFCD" stroke-linecap="square">
                <path d="M0,10 C40.9637405,3.33333333 81.6183206,0 121.96374,0 C162.30916,0 202.65458,3.33333333 243,10" id="Line"></path>
                <path d="M0,13 C40.9637405,6.33333333 81.6183206,3 121.96374,3 C162.30916,3 202.65458,6.33333333 243,13" id="Line"></path>
            </g>
            <path d="M73.6125836,1.34262918 C88.8456144,0.447543059 104.26393,3.41916934e-16 119.867529,0 C135.563313,0 151.259098,0.452846778 166.954882,1.35854033 L166.954882,1.35853954 C172.59387,1.68392594 177,6.35163223 177,12 L177,12 L177,12 C177,17.184678 172.796988,21.3876899 167.61231,21.3876899 C167.432732,21.3876899 167.253191,21.3825371 167.073908,21.372238 C151.149078,20.4574124 135.413619,20 119.867529,20 C104.406357,20 88.9451858,20.452429 73.4840142,21.3572869 L73.4840154,21.3573071 C68.3161174,21.6597559 63.8815251,17.7155301 63.5790762,12.5476321 C63.5684043,12.365283 63.563065,12.182661 63.563065,12 L63.563065,12 L63.563065,12 C63.563065,6.34718543 67.9695032,1.67422637 73.6125843,1.34264143 Z" id="Rectangle-6" fill="#FFFFFF"></path>
            <path d="M79.93,4.84 L80.63,4.84 L80.63,5.92 L83.21,5.92 L83.21,4.83 L83.91,4.83 L83.91,5.92 L85.87,5.92 L85.87,6.57 L83.91,6.57 L83.91,7.8 L86.29,7.8 L86.29,8.5 L83.81,8.5 C84.43,9.23 85.37,9.81 86.64,10.23 L86.33,10.87 C84.79,10.27 83.7,9.48 83.05,8.5 L80.9,8.5 C80.24,9.46 79.19,10.26 77.75,10.89 L77.37,10.28 C78.61,9.81 79.54,9.22 80.16,8.5 L77.71,8.5 L77.71,7.8 L79.93,7.8 L79.93,6.57 L78.12,6.57 L78.12,5.92 L79.93,5.92 L79.93,4.84 Z M80.63,7.8 L83.21,7.8 L83.21,6.57 L80.63,6.57 L80.63,7.8 Z M79.29,10.79 L79.92,11.1 C79.57,11.97 79.16,12.72 78.68,13.35 L78.09,12.93 C78.55,12.33 78.95,11.62 79.29,10.79 Z M84.61,10.42 C85.12,11.27 85.56,12.17 85.94,13.13 L85.29,13.43 C84.89,12.37 84.45,11.44 83.98,10.63 L84.61,10.42 Z M83.02,10.69 C83.43,11.49 83.79,12.34 84.09,13.25 L83.43,13.54 C83.11,12.54 82.77,11.66 82.39,10.89 L83.02,10.69 Z M80.95,13.95 L79.95,13.95 L79.79,13.26 C80.11,13.29 80.41,13.31 80.7,13.31 C80.9,13.31 81.01,13.16 81.01,12.88 L81.01,9.49 L81.74,9.49 L81.74,13.07 C81.74,13.65 81.47,13.95 80.95,13.95 Z M88.28,6.7 L88.28,7.28 L95.72,7.28 L95.72,6.7 L92.35,6.7 L92.35,6.05 L96.05,6.05 L96.05,5.46 L92.35,5.46 L92.35,4.82 L91.65,4.82 L91.65,5.46 L87.96,5.46 L87.96,6.05 L91.65,6.05 L91.65,6.7 L88.28,6.7 Z M89.82,9.61 L88.87,9.61 L88.87,7.81 L95.13,7.81 L95.13,9.61 L94.29,9.61 L93.88,10.34 L96.46,10.34 L96.46,10.94 L87.54,10.94 L87.54,10.34 L90.14,10.34 L89.82,9.61 Z M93.53,9.61 L90.57,9.61 L90.89,10.34 L93.13,10.34 L93.53,9.61 Z M94.44,9.08 L94.44,8.34 L89.56,8.34 L89.56,9.08 L94.44,9.08 Z M95.28,11.52 L95.28,14 L94.59,14 L94.59,13.59 L89.42,13.59 L89.42,14 L88.72,14 L88.72,11.52 L95.28,11.52 Z M89.42,13 L94.59,13 L94.59,12.11 L89.42,12.11 L89.42,13 Z M100.85,9.68 L104.65,9.68 L104.65,8.67 L105.37,8.67 L105.37,9.68 L106.58,9.68 L106.58,10.37 L105.37,10.37 L105.37,13.07 C105.37,13.67 105.05,13.97 104.41,13.97 L103.08,13.97 L102.93,13.28 C103.36,13.31 103.77,13.33 104.16,13.33 C104.48,13.33 104.65,13.18 104.65,12.89 L104.65,10.37 L100.85,10.37 L100.85,9.68 Z M99.53,4.83 L100.26,4.83 L100.26,13.99 L99.53,13.99 L99.53,10.68 C98.87,11.3 98.26,11.79 97.7,12.16 L97.38,11.47 C97.98,11.11 98.69,10.55 99.53,9.81 L99.53,4.83 Z M102.12,10.78 C102.68,11.39 103.1,11.92 103.4,12.38 L102.84,12.78 C102.53,12.28 102.11,11.72 101.59,11.11 L102.12,10.78 Z M102.82,6.23 C102.36,6.76 101.79,7.2 101.1,7.56 L100.64,7 C101.73,6.46 102.46,5.73 102.84,4.82 L103.58,4.96 C103.49,5.17 103.39,5.37 103.28,5.57 L106.2,5.57 L106.2,6.19 C105.63,7.65 104.05,8.68 101.47,9.27 L101.11,8.63 C101.9,8.46 102.59,8.25 103.19,8.01 C102.87,7.71 102.55,7.46 102.24,7.24 L102.75,6.85 C103.12,7.12 103.47,7.41 103.8,7.72 C104.55,7.31 105.09,6.81 105.42,6.23 L102.82,6.23 Z M98.01,6 C98.48,6.68 98.88,7.41 99.22,8.18 L98.59,8.44 C98.23,7.6 97.83,6.87 97.39,6.25 L98.01,6 Z M107.6,5.6 L107.6,6.25 L109.94,6.25 L109.94,6.98 L110.68,6.98 L110.68,6.25 L113.32,6.25 L113.32,6.98 L114.06,6.98 L114.06,6.25 L116.4,6.25 L116.4,5.6 L114.06,5.6 L114.06,4.78 L113.32,4.78 L113.32,5.6 L110.68,5.6 L110.68,4.78 L109.94,4.78 L109.94,5.6 L107.6,5.6 Z M110.41,7.22 L111.01,7.59 C110.65,8.05 110.3,8.44 109.94,8.76 C110.43,9.59 110.68,10.61 110.68,11.82 C110.68,12.7 110.55,13.31 110.29,13.65 C110.1,13.85 109.82,13.95 109.45,13.95 C109.05,13.95 108.74,13.94 108.5,13.93 L108.3,13.27 C108.61,13.3 108.94,13.32 109.28,13.32 C109.53,13.32 109.71,13.23 109.81,13.07 C109.93,12.86 109.99,12.43 110,11.77 C110,11.45 109.98,11.15 109.94,10.87 C109.4,11.42 108.75,11.88 108.01,12.26 L107.62,11.67 C108.54,11.25 109.27,10.73 109.8,10.13 C109.7,9.78 109.58,9.47 109.42,9.19 C108.99,9.5 108.47,9.81 107.86,10.11 L107.48,9.51 C108.06,9.27 108.58,8.98 109.04,8.62 C108.74,8.26 108.37,7.95 107.95,7.71 L108.48,7.26 C108.9,7.52 109.26,7.83 109.55,8.19 C109.85,7.9 110.14,7.58 110.41,7.22 Z M111.17,8.97 L113.23,8.97 C113.25,8.25 113.26,7.69 113.26,7.3 L113.98,7.3 C113.98,7.77 113.97,8.33 113.96,8.97 L116.26,8.97 L116.26,9.65 L114.02,9.65 C114.42,11.27 115.24,12.53 116.5,13.41 L116.02,13.95 C114.87,13.08 114.1,11.97 113.72,10.61 C113.32,11.96 112.56,13.09 111.45,13.99 L110.97,13.47 C112.27,12.38 113.01,11.11 113.19,9.65 L111.17,9.65 L111.17,8.97 Z M114.98,7.09 C115.48,7.57 115.86,7.99 116.13,8.35 L115.59,8.73 C115.31,8.33 114.93,7.89 114.44,7.42 L114.98,7.09 Z M118.78,9.8 C118.43,10.13 118.05,10.45 117.63,10.75 L117.42,10.06 C118.48,9.27 119.26,8.37 119.74,7.37 L120.36,7.65 C120.12,8.14 119.83,8.6 119.48,9.04 L119.48,14 L118.78,14 L118.78,9.8 Z M119.7,4.82 L120.3,5.1 C119.75,6.18 118.85,7.14 117.6,7.98 L117.39,7.28 C118.45,6.56 119.22,5.74 119.7,4.82 Z M121.01,5.18 L125.74,5.18 L125.74,8.37 L121.01,8.37 L121.01,5.18 Z M125.05,7.79 L125.05,7.05 L121.7,7.05 L121.7,7.79 L125.05,7.79 Z M121.7,6.5 L125.05,6.5 L125.05,5.76 L121.7,5.76 L121.7,6.5 Z M120.57,9.08 L126.34,9.08 L126.34,9.71 L125.13,9.71 L125.13,10.56 L126.57,10.56 L126.57,11.19 L125.13,11.19 L125.13,13.11 C125.13,13.66 124.84,13.94 124.26,13.94 L123.15,13.94 L123,13.26 C123.36,13.29 123.69,13.31 124.01,13.31 C124.28,13.31 124.42,13.18 124.42,12.94 L124.42,11.19 L120.21,11.19 L120.21,10.56 L124.42,10.56 L124.42,9.71 L120.57,9.71 L120.57,9.08 Z M121.62,11.49 C122.19,12.04 122.63,12.53 122.93,12.96 L122.38,13.34 C122.05,12.88 121.62,12.38 121.1,11.86 L121.62,11.49 Z M130.77,5.92 C131.68,6.97 132.38,7.89 132.86,8.67 L132.25,9.09 C131.74,8.25 131.05,7.32 130.17,6.29 L130.77,5.92 Z M134.21,10.82 C133.55,12.03 132.49,13.06 131.03,13.9 L130.55,13.31 C132.25,12.33 133.38,11.11 133.93,9.63 C134.35,8.38 134.56,6.79 134.57,4.86 L135.32,4.86 C135.32,6.76 135.11,8.36 134.69,9.68 C134.64,9.83 134.59,9.98 134.53,10.13 C135.35,11.17 136.04,12.21 136.6,13.25 L136.05,13.8 C135.58,12.86 134.97,11.87 134.21,10.82 Z M128.29,12.86 L128.05,12.18 C128.23,12.04 128.32,11.86 128.32,11.63 L128.32,5.12 L129.06,5.12 L129.06,11.8 C129.84,11.48 130.61,11.09 131.38,10.63 L131.58,11.33 C130.56,11.92 129.46,12.43 128.29,12.86 Z M137.55,5.36 L137.55,6.07 L141.37,6.07 L141.37,14.02 L142.1,14.02 L142.1,8.34 C143,8.82 144.12,9.5 145.45,10.38 L145.88,9.74 C144.6,8.92 143.34,8.2 142.1,7.58 L142.1,6.07 L146.44,6.07 L146.44,5.36 L137.55,5.36 Z M149.87,8.79 L149.87,13.96 L149.15,13.96 L149.15,8.77 C148.79,9.83 148.3,10.78 147.69,11.63 L147.37,10.82 C148.19,9.84 148.78,8.73 149.13,7.48 L147.58,7.48 L147.58,6.79 L149.15,6.79 L149.15,4.84 L149.87,4.84 L149.87,6.79 L151.19,6.79 L151.19,7.48 L149.87,7.48 L149.87,8.05 C150.37,8.53 150.88,9.08 151.39,9.68 L150.98,10.29 C150.55,9.67 150.18,9.17 149.87,8.79 Z M155.23,6.13 L152.53,6.13 C152.65,7.67 153.07,9.05 153.8,10.27 C154.52,9.07 154.99,7.69 155.23,6.13 Z M153.38,10.91 C152.49,9.47 151.97,7.88 151.83,6.13 L151.43,6.13 L151.43,5.44 L155.93,5.44 L155.93,6.12 C155.64,7.99 155.07,9.6 154.23,10.94 C154.87,11.84 155.67,12.66 156.65,13.39 L156.16,13.97 C155.22,13.23 154.43,12.42 153.81,11.55 C153.11,12.5 152.25,13.3 151.24,13.96 L150.78,13.38 C151.83,12.68 152.7,11.86 153.38,10.91 Z M165.19,9.77 L165.19,12.98 L166.43,12.98 L166.43,13.67 L157.58,13.67 L157.58,12.98 L158.89,12.98 L158.89,9.77 L165.19,9.77 Z M159.58,12.98 L160.76,12.98 L160.76,10.45 L159.58,10.45 L159.58,12.98 Z M161.42,12.98 L162.64,12.98 L162.64,10.45 L161.42,10.45 L161.42,12.98 Z M163.3,12.98 L164.49,12.98 L164.49,10.45 L163.3,10.45 L163.3,12.98 Z M157.79,6.59 L157.79,7.29 L166.22,7.29 L166.22,6.59 L163.82,6.59 C164.18,6.14 164.5,5.62 164.79,5.04 L164.09,4.8 C163.79,5.44 163.44,6.03 163.03,6.59 L160.48,6.59 L160.95,6.25 C160.66,5.84 160.24,5.36 159.69,4.8 L159.1,5.17 C159.6,5.68 160.01,6.15 160.33,6.59 L157.79,6.59 Z M163.4,7.66 C164.54,8.18 165.57,8.81 166.5,9.55 L166.1,10.18 C165.1,9.35 164.07,8.69 163.03,8.21 L163.4,7.66 Z M160.58,7.6 L161.04,8.12 C160.18,8.94 159.09,9.63 157.79,10.17 L157.48,9.5 C158.74,9.02 159.77,8.39 160.58,7.6 Z" id="恭喜将获得以下权益" fill="#000000"></path>
        </g>
    </g>
</svg>