<?xml version="1.0" encoding="UTF-8"?>
<svg width="86px" height="34px" viewBox="0 0 86 34" version="1.1" xmlns="http://www.w3.org/2000/svg" xmlns:xlink="http://www.w3.org/1999/xlink">
    <!-- Generator: Sketch 44.1 (41455) - http://www.bohemiancoding.com/sketch -->
    <title>奖励待领</title>
    <desc>Created with Sketch.</desc>
    <defs></defs>
    <g id="买单成功后" stroke="none" stroke-width="1" fill="none" fill-rule="evenodd">
        <g id="奖励待领" transform="translate(-3.000000, -1.000000)">
            <path d="M11,4.5 C9.61928813,4.5 8.5,5.61928813 8.5,7 L8.5,32 C8.5,33.3807119 9.61928813,34.5 11,34.5 L81.6556483,34.5 C82.7361219,34.5 83.6943311,33.8058781 84.0311062,32.7792303 L88.2128633,20.0312818 C88.3816467,19.5167513 88.3788046,18.9613286 88.2047645,18.4485523 L84.0463273,6.19650077 C83.7020899,5.18227006 82.7500253,4.5 81.6789682,4.5 L11,4.5 Z" id="Combined-Shape" stroke="#EFEFEF"></path>
            <g id="钱袋子" transform="translate(10.000000, 10.000000) rotate(-14.000000) translate(-10.000000, -10.000000) translate(2.000000, 2.000000)">
                <path d="M10.848471,4.51615621 L5.26984605,4.51615621 C2.7928148,6.32277861 0.255740664,10.2353059 1.05940855,12.5835196 C2.05940855,15.5053904 4.1931898,15.5053904 8.05940855,15.5053904 C11.9256273,15.5053904 14.0594085,15.5053904 15.0594085,12.5835196 C15.8637024,10.233477 13.3260023,6.32277861 10.848471,4.51615621 Z M5.43991959,3.51615621 L10.67847,3.51615621 C10.67847,3.51615621 12.7546281,1.58730512 11.8155884,0.74349722 C10.8765487,-0.100310676 8.79305434,1.68106155 8.05942956,1.61855726 C7.32580479,1.68106155 5.24231042,-0.100310676 4.30327071,0.74349722 C3.36423099,1.58730512 5.43991959,3.51615621 5.43991959,3.51615621 Z" id="Combined-Shape" fill="#E6B869" fill-rule="nonzero"></path>
                <path d="M9.80940855,7.81303121 C9.93961753,7.50052965 10.2104482,7.31303152 10.6219085,7.25053121 L10.6219085,6.93803121 L8.65315855,6.93803121 L8.65315855,7.25053121 C9.11670253,7.25573957 9.34586691,7.37032176 9.34065855,7.59428121 C9.3979505,7.62032301 9.09587019,8.28698301 8.43440855,9.59428121 C8.10107355,8.90677777 7.76774355,8.20886808 7.43440855,7.50053121 C7.46045034,7.32344699 7.65836503,7.24011449 8.02815855,7.25053121 L8.02815855,6.93803121 L5.49690855,6.93803121 L5.49690855,7.25053121 C5.84586863,7.19844762 6.14794894,7.49011137 6.40315855,8.12553121 L7.40315855,10.1880312 L6.12190855,10.1880312 L6.12190855,10.7974062 L7.40315855,10.7974062 L7.40315855,11.5630312 C7.44482542,12.0630337 7.14274511,12.3026146 6.49690855,12.2817812 L6.49690855,12.5864687 L9.52815855,12.5864687 L9.52815855,12.2817812 C8.8927387,12.307823 8.60107495,12.0682421 8.65315855,11.5630312 L8.65315855,10.7974062 L9.96565855,10.7974062 L9.96565855,10.1880312 L8.65315855,10.1880312 L8.65315855,10.1567812 L9.80940855,7.81303121 Z" id="￥" fill="#FFFFFF"></path>
                <path d="M10.5594085,3.51615621 C10.8357835,3.51615621 11.0594085,3.73978121 11.0594085,4.01615621 C11.0594085,4.29253121 10.8357835,4.51615621 10.5594085,4.51615621 L5.55940855,4.51615621 C5.28303355,4.51615621 5.05940855,4.29253121 5.05940855,4.01615621 C5.05940855,3.73978121 5.28303355,3.51615621 5.55940855,3.51615621 L10.5594085,3.51615621 Z" id="Shape" fill="#9E7E45"></path>
            </g>
            <path d="M22.621,13.669 L22.621,14.299 L25.987,14.299 C25.528,15.217 24.331,15.883 22.405,16.288 L22.675,16.891 C24.709,16.423 25.996,15.658 26.545,14.605 C27.067,15.676 28.318,16.432 30.307,16.864 L30.568,16.261 C28.759,15.919 27.562,15.262 26.968,14.299 L30.379,14.299 L30.379,13.669 L26.815,13.669 C26.842,13.435 26.86,13.183 26.86,12.913 L26.23,12.913 C26.221,13.201 26.203,13.453 26.176,13.669 L22.621,13.669 Z M25.024,8.692 L25.69,8.692 L25.69,12.841 L25.024,12.841 L25.024,11.554 C24.376,11.896 23.629,12.211 22.774,12.49 L22.513,11.896 C23.476,11.608 24.313,11.275 25.024,10.897 L25.024,8.692 Z M23.071,9.07 C23.62,9.34 24.124,9.664 24.574,10.06 L24.223,10.6 C23.737,10.168 23.233,9.826 22.72,9.583 L23.071,9.07 Z M27.688,8.656 C27.382,9.349 26.806,9.934 25.96,10.42 L26.356,10.942 C26.842,10.645 27.247,10.321 27.58,9.961 L29.56,9.961 C29.326,10.456 28.948,10.888 28.444,11.257 C28.174,10.978 27.895,10.717 27.598,10.474 L27.148,10.807 C27.418,11.014 27.688,11.266 27.976,11.554 C27.472,11.824 26.878,12.049 26.176,12.229 L26.491,12.796 C28.525,12.238 29.758,11.284 30.208,9.916 L30.208,9.367 L28.03,9.367 C28.156,9.169 28.255,8.953 28.345,8.737 L27.688,8.656 Z M33.565,11.266 L32.683,11.266 L32.683,12.679 C32.656,14.434 32.422,15.838 31.981,16.9 L31.522,16.486 C31.882,15.577 32.071,14.308 32.089,12.679 L32.089,9.016 L36.103,9.016 L36.103,9.61 L32.683,9.61 L32.683,10.672 L35.869,10.672 L35.869,11.266 L34.141,11.266 L34.141,12.598 L35.815,12.598 C35.797,14.353 35.725,15.487 35.617,15.991 C35.5,16.504 35.194,16.765 34.699,16.783 C34.537,16.783 34.357,16.765 34.159,16.747 L33.988,16.207 C34.24,16.225 34.456,16.243 34.627,16.243 C34.897,16.225 35.059,16.027 35.122,15.64 C35.176,15.262 35.203,14.434 35.212,13.156 L34.132,13.156 C34.06,14.812 33.7,16.045 33.07,16.855 L32.611,16.459 C33.232,15.667 33.547,14.407 33.565,12.661 L33.565,11.266 Z M37.219,8.683 L37.849,8.683 L37.849,10.582 L39.46,10.582 C39.46,13.408 39.406,15.145 39.316,15.793 C39.226,16.45 38.821,16.783 38.101,16.783 C37.966,16.783 37.732,16.774 37.408,16.756 L37.273,16.207 C37.552,16.225 37.795,16.243 38.011,16.243 C38.416,16.243 38.659,16.027 38.731,15.604 C38.803,15.136 38.848,13.66 38.857,11.176 L37.84,11.176 C37.786,13.768 37.264,15.685 36.274,16.909 L35.815,16.504 C36.706,15.379 37.174,13.606 37.219,11.176 L36.193,11.176 L36.193,10.582 L37.219,10.582 L37.219,8.683 Z M43.861,13.012 L47.281,13.012 L47.281,12.103 L47.929,12.103 L47.929,13.012 L49.018,13.012 L49.018,13.633 L47.929,13.633 L47.929,16.063 C47.929,16.603 47.641,16.873 47.065,16.873 L45.868,16.873 L45.733,16.252 C46.12,16.279 46.489,16.297 46.84,16.297 C47.128,16.297 47.281,16.162 47.281,15.901 L47.281,13.633 L43.861,13.633 L43.861,13.012 Z M42.673,8.647 L43.33,8.647 L43.33,16.891 L42.673,16.891 L42.673,13.912 C42.079,14.47 41.53,14.911 41.026,15.244 L40.738,14.623 C41.278,14.299 41.917,13.795 42.673,13.129 L42.673,8.647 Z M45.004,14.002 C45.508,14.551 45.886,15.028 46.156,15.442 L45.652,15.802 C45.373,15.352 44.995,14.848 44.527,14.299 L45.004,14.002 Z M45.634,9.907 C45.22,10.384 44.707,10.78 44.086,11.104 L43.672,10.6 C44.653,10.114 45.31,9.457 45.652,8.638 L46.318,8.764 C46.237,8.953 46.147,9.133 46.048,9.313 L48.676,9.313 L48.676,9.871 C48.163,11.185 46.741,12.112 44.419,12.643 L44.095,12.067 C44.806,11.914 45.427,11.725 45.967,11.509 C45.679,11.239 45.391,11.014 45.112,10.816 L45.571,10.465 C45.904,10.708 46.219,10.969 46.516,11.248 C47.191,10.879 47.677,10.429 47.974,9.907 L45.634,9.907 Z M41.305,9.7 C41.728,10.312 42.088,10.969 42.394,11.662 L41.827,11.896 C41.503,11.14 41.143,10.483 40.747,9.925 L41.305,9.7 Z M52.825,12.841 L54.886,12.841 L54.886,11.167 L55.543,11.167 L55.543,12.841 L57.694,12.841 L57.694,13.471 L55.543,13.471 L55.543,15.955 L58.099,15.955 L58.099,16.594 L52.456,16.594 L52.456,15.955 L54.886,15.955 L54.886,13.471 L52.825,13.471 L52.825,12.841 Z M51.376,13.237 C51.043,13.579 50.692,13.912 50.314,14.227 L49.909,13.696 C51.034,12.769 51.907,11.707 52.537,10.51 L50.224,10.51 L50.224,9.871 L52.843,9.871 C53.023,9.457 53.185,9.025 53.311,8.584 L53.986,8.665 C53.86,9.079 53.725,9.484 53.563,9.871 L58.09,9.871 L58.09,10.51 L53.275,10.51 C52.924,11.221 52.501,11.887 52.015,12.499 L52.015,16.927 L51.376,16.927 L51.376,13.237 Z M60.178,11.509 C60.862,11.788 61.492,12.121 62.059,12.508 L61.726,13.03 C61.123,12.58 60.502,12.22 59.863,11.968 L60.178,11.509 Z M61.006,10.249 C61.69,10.528 62.302,10.861 62.86,11.257 L62.527,11.77 C61.933,11.32 61.33,10.96 60.7,10.708 L61.006,10.249 Z M63.49,10.249 L64.129,10.249 L64.129,12.139 C64.111,12.634 64.048,13.084 63.949,13.498 L67.297,13.498 L67.297,14.128 L63.733,14.128 C63.67,14.272 63.607,14.416 63.535,14.542 C64.84,15.127 66.028,15.757 67.099,16.432 L66.658,16.918 C65.542,16.207 64.399,15.577 63.211,15.028 C63.157,15.091 63.112,15.154 63.067,15.208 C62.41,15.919 61.339,16.477 59.854,16.873 L59.485,16.297 C60.979,15.91 62.014,15.397 62.608,14.758 C62.77,14.56 62.905,14.353 63.013,14.128 L59.44,14.128 L59.44,13.498 L63.274,13.498 C63.4,13.084 63.472,12.625 63.49,12.139 L63.49,10.249 Z M59.782,9.178 L66.64,9.178 L66.64,9.583 C66.505,10.123 66.325,10.654 66.109,11.185 L65.497,11.014 C65.686,10.645 65.839,10.231 65.965,9.781 L59.782,9.781 L59.782,9.178 Z M69.349,10.051 L73.228,10.051 C73.516,9.601 73.777,9.106 74.002,8.584 L74.632,8.809 C74.416,9.268 74.173,9.682 73.903,10.051 L75.631,10.051 L75.631,13.75 L72.814,13.75 L72.814,14.605 L76.486,14.605 L76.486,15.217 L72.814,15.217 L72.814,16.927 L72.166,16.927 L72.166,15.217 L68.494,15.217 L68.494,14.605 L72.166,14.605 L72.166,13.75 L69.349,13.75 L69.349,10.051 Z M75.001,13.174 L75.001,12.166 L72.814,12.166 L72.814,13.174 L75.001,13.174 Z M72.166,13.174 L72.166,12.166 L69.979,12.166 L69.979,13.174 L72.166,13.174 Z M69.979,11.608 L72.166,11.608 L72.166,10.618 L69.979,10.618 L69.979,11.608 Z M72.814,10.618 L72.814,11.608 L75.001,11.608 L75.001,10.618 L72.814,10.618 Z M70.942,8.629 C71.239,8.971 71.518,9.358 71.788,9.772 L71.248,10.042 C70.978,9.61 70.699,9.232 70.393,8.89 L70.942,8.629 Z M25.708,28.1 C24.79,28.433 23.728,28.703 22.504,28.901 L22.585,29.531 C23.755,29.315 24.79,29.045 25.708,28.712 L25.708,28.1 Z M24.043,21.62 L24.646,21.854 C24.187,23.024 23.719,23.96 23.251,24.662 C23.674,24.608 24.097,24.545 24.529,24.473 C24.7,24.149 24.88,23.816 25.06,23.474 L25.627,23.681 C24.808,25.202 24.124,26.282 23.575,26.93 C24.259,26.795 24.934,26.615 25.6,26.39 L25.6,26.966 C24.628,27.299 23.692,27.524 22.792,27.641 L22.621,27.056 C22.738,27.002 22.837,26.939 22.918,26.867 C23.26,26.516 23.683,25.922 24.187,25.076 C23.674,25.157 23.161,25.229 22.639,25.301 L22.477,24.707 C22.576,24.662 22.666,24.581 22.747,24.464 C23.251,23.636 23.683,22.691 24.043,21.62 Z M25.6,22.763 L27.751,22.763 L27.751,21.674 L28.408,21.674 L28.408,22.763 L30.55,22.763 L30.55,23.393 L28.408,23.393 L28.408,24.725 L30.289,24.725 L30.289,25.355 L25.897,25.355 L25.897,24.725 L27.751,24.725 L27.751,23.393 L25.6,23.393 L25.6,22.763 Z M30.028,26.255 L30.028,29.873 L29.398,29.873 L29.398,29.441 L26.824,29.441 L26.824,29.873 L26.185,29.873 L26.185,26.255 L30.028,26.255 Z M26.824,28.829 L29.398,28.829 L29.398,26.867 L26.824,26.867 L26.824,28.829 Z M31.846,22.574 L35.365,22.574 L35.365,21.674 L36.031,21.674 L36.031,22.574 L39.532,22.574 L39.532,23.195 L36.031,23.195 L36.031,24.077 L38.866,24.077 L38.866,26.624 L36.58,26.624 C37.228,27.542 38.326,28.352 39.856,29.072 L39.415,29.63 C37.822,28.739 36.706,27.74 36.058,26.624 L36.031,26.624 L36.031,29.891 L35.365,29.891 L35.365,26.624 L35.338,26.624 C34.654,27.848 33.52,28.856 31.927,29.648 L31.549,29.054 C33.043,28.424 34.132,27.614 34.807,26.624 L32.548,26.624 L32.548,24.077 L35.365,24.077 L35.365,23.195 L31.846,23.195 L31.846,22.574 Z M38.218,26.03 L38.218,24.689 L36.031,24.689 L36.031,26.03 L38.218,26.03 Z M35.365,26.03 L35.365,24.689 L33.196,24.689 L33.196,26.03 L35.365,26.03 Z M42.448,24.824 L42.448,25.058 C42.394,27.074 41.98,28.676 41.224,29.873 L40.747,29.378 C41.404,28.334 41.755,26.894 41.809,25.058 L41.809,22.358 C44.131,22.331 46.21,22.124 48.064,21.737 L48.388,22.322 C46.624,22.682 44.644,22.88 42.448,22.934 L42.448,24.194 L48.928,24.194 L48.928,24.824 L42.448,24.824 Z M48.217,26.084 L48.217,29.9 L47.569,29.9 L47.569,29.477 L43.924,29.477 L43.924,29.9 L43.276,29.9 L43.276,26.084 L48.217,26.084 Z M43.924,28.847 L47.569,28.847 L47.569,26.705 L43.924,26.705 L43.924,28.847 Z M50.638,24.41 L51.349,21.908 L51.988,22.016 L51.475,23.789 L53.05,23.789 C53.23,23.087 53.374,22.358 53.482,21.584 L54.139,21.665 C54.022,22.421 53.878,23.123 53.716,23.789 L57.928,23.789 L57.928,24.41 L53.545,24.41 C53.437,24.77 53.329,25.112 53.203,25.436 L56.884,25.436 L56.884,25.994 C56.641,26.768 56.155,27.47 55.417,28.1 C56.146,28.532 57.037,28.928 58.081,29.288 L57.748,29.891 C56.596,29.468 55.642,29.009 54.886,28.514 C54.148,29.036 53.23,29.504 52.141,29.927 L51.799,29.324 C52.807,28.955 53.644,28.55 54.319,28.109 C53.617,27.569 53.122,26.984 52.825,26.354 C52.168,27.776 51.322,28.901 50.296,29.738 L49.963,29.144 C51.277,27.992 52.24,26.417 52.87,24.41 L50.638,24.41 Z M53.311,26.03 C53.617,26.642 54.13,27.209 54.85,27.731 C55.516,27.209 55.975,26.642 56.227,26.03 L53.311,26.03 Z M55.651,21.656 C56.299,22.151 56.83,22.646 57.262,23.141 L56.803,23.6 C56.425,23.123 55.894,22.619 55.219,22.079 L55.651,21.656 Z M63.661,25.031 C63.499,25.283 63.328,25.517 63.148,25.733 L62.752,25.256 C63.454,24.356 63.931,23.141 64.183,21.62 L64.822,21.728 C64.741,22.187 64.642,22.619 64.525,23.015 L67.18,23.015 L67.18,23.636 L66.514,23.636 C66.46,25.148 66.109,26.444 65.461,27.515 C66.028,28.325 66.703,28.946 67.477,29.378 L67.108,29.927 C66.325,29.477 65.65,28.856 65.092,28.064 C64.552,28.784 63.868,29.387 63.022,29.873 L62.653,29.288 C63.517,28.82 64.201,28.226 64.723,27.497 C64.3,26.777 63.949,25.958 63.661,25.031 Z M64.327,23.636 C64.237,23.888 64.138,24.122 64.03,24.347 C64.3,25.337 64.651,26.192 65.074,26.921 C65.578,25.994 65.848,24.896 65.893,23.636 L64.327,23.636 Z M59.287,23.006 L61.006,23.006 C60.844,22.574 60.646,22.16 60.43,21.755 L61.06,21.575 C61.312,22.097 61.519,22.574 61.663,23.006 L63.013,23.006 L63.013,23.627 L60.826,23.627 L60.826,24.455 C60.826,24.635 60.817,24.806 60.817,24.968 L62.536,24.968 C62.536,27.155 62.491,28.496 62.41,29 C62.32,29.513 61.96,29.774 61.321,29.774 C61.204,29.774 60.997,29.756 60.7,29.738 L60.556,29.18 C60.808,29.198 61.033,29.207 61.231,29.207 C61.555,29.207 61.753,29.054 61.816,28.757 C61.879,28.415 61.915,27.344 61.924,25.562 L60.79,25.562 C60.664,27.488 60.268,28.928 59.602,29.882 L59.098,29.441 C59.836,28.406 60.205,26.741 60.223,24.455 L60.223,23.627 L59.287,23.627 L59.287,23.006 Z" id="奖励将在买单-结束后发放" fill="#000000"></path>
        </g>
    </g>
</svg>