<?xml version="1.0" encoding="UTF-8"?>
<svg width="60px" height="26px" viewBox="0 0 60 26" version="1.1" xmlns="http://www.w3.org/2000/svg" xmlns:xlink="http://www.w3.org/1999/xlink">
    <!-- Generator: Sketch 46.2 (44496) - http://www.bohemiancoding.com/sketch -->
    <title>5</title>
    <desc>Created with Sketch.</desc>
    <defs>
        <rect id="path-1" x="0.5" y="0" width="59" height="25"></rect>
        <linearGradient x1="50%" y1="0%" x2="50%" y2="100%" id="linearGradient-3">
            <stop stop-color="#F5CFA9" offset="0%"></stop>
            <stop stop-color="#E2BB8E" offset="100%"></stop>
        </linearGradient>
        <polygon id="path-4" points="-5 0 47 0 54 13 47 25 -5 25"></polygon>
    </defs>
    <g id="会员列表页简版-w375" stroke="none" stroke-width="1" fill="none" fill-rule="evenodd">
        <g id="5" transform="translate(0.466309, 0.166992)">
            <mask id="mask-2" fill="white">
                <use xlink:href="#path-1"></use>
            </mask>
            <g id="Rectangle-6"></g>
            <g id="Combined-Shape" mask="url(#mask-2)">
                <use fill="#FFFFFF" fill-rule="evenodd" xlink:href="#path-4"></use>
                <path stroke="url(#linearGradient-3)" stroke-width="2" d="M-4,1 L-4,24 L46.4256297,24 L52.8537093,12.9804349 L46.4027059,1 L-4,1 Z"></path>
            </g>
            <g id="gift_1208593_easyicon.net" mask="url(#mask-2)" fill-rule="nonzero">
                <g transform="translate(51.000000, 11.000000) rotate(-14.000000) translate(-51.000000, -11.000000) translate(44.000000, 3.000000)">
                    <path d="M12.7975315,15.0809144 L1.02661014,15.0809144 C0.690965566,15.0809144 0.41891429,14.8099738 0.41891429,14.4757661 L0.41891429,6.28371435 L13.4052573,6.28371435 L13.4052573,14.4757661 C13.4052274,14.8100036 13.1331761,15.0809144 12.7975315,15.0809144 Z" id="Shape" fill="#9D77F1"></path>
                    <path d="M13.4052573,6.70262864 L13.4052573,13.5677345 C8.67075346,14.7831465 3.9525723,11.5432065 3.35131432,6.70262864 L13.4052573,6.70262864 Z" id="Shape" fill="#B190F8"></path>
                    <path d="M13.4052573,4.77073817 L13.4052573,6.31967994 C13.4052573,6.53122053 13.2407054,6.70262864 13.0375967,6.70262864 L0.367306521,6.70262864 C0.164551906,6.70262864 0,6.53125126 0,6.31967994 L0,4.99066787 C0,4.77912727 0.164522405,4.60805719 0.367306521,4.60805719 L13.2487589,4.60805719 C13.3351944,4.60805719 13.4052573,4.68100858 13.4052573,4.77073817 Z" id="Shape" fill="#966AF5"></path>
                    <path d="M5.2158894,4.73856284 C4.12076414,4.73856284 3.25213578,4.73856284 3.14022993,4.73856284 C1.2923599,3.24437722 1.22993306,1.3556258 2.74493891,0.421522609 C3.71148884,-0.174254262 4.50509153,-0.0297570251 5.00065641,0.196564662 C5.66836893,0.501360741 6.23876902,1.15598599 6.70261703,2.14680301 C7.16643543,1.1559267 7.73683552,0.501331095 8.40454804,0.196564662 C8.9000833,-0.0297866716 9.69374523,-0.174254262 10.6602952,0.421552255 C12.1761598,1.35618908 12.1119561,3.24502944 10.2650041,4.73856284 C10.1587534,4.73856284 9.28813459,4.73856284 8.18918236,4.73856284 C8.22017384,4.78299056 8.238035,4.83521886 8.238035,4.89110035 L8.238035,6.32424786 C8.238035,6.48603047 8.0884096,6.61712711 7.90392291,6.61712711 L7.71109081,6.61712711 L7.71109081,15.0809144 L5.69392972,15.0809144 L5.69392972,6.61712711 L5.5011864,6.61712711 C5.31664052,6.61712711 5.16704471,6.48600085 5.16704471,6.32424786 L5.16704471,4.89110035 C5.16704471,4.83521414 5.18490235,4.78298747 5.21588921,4.73856284 Z M3.36929616,2.31869365 C3.48837507,2.91930291 4.41239893,3.7981153 5.66742127,4.22893882 C5.60857776,4.01471292 5.53756278,3.77899328 5.45245142,3.53648458 C4.96867302,2.15768329 4.48726376,1.81277544 4.30288543,1.72857927 C4.0800678,1.6271881 3.84789208,1.71924061 3.62667362,1.85558505 C3.33935616,2.03242666 3.34104417,2.17556016 3.36929616,2.31869365 Z M10.0358787,2.31869365 C10.0641307,2.17556016 10.0658187,2.03239701 9.77850121,1.85564434 C9.56012573,1.72104905 9.3273281,1.62629871 9.10228941,1.72863856 C8.43232621,2.0346798 7.93459949,3.51270805 7.73772395,4.22899811 C8.22621102,4.06128763 8.69050325,3.81812671 9.09186519,3.51599882 C9.7044952,3.05490618 9.98106269,2.59520693 10.0358787,2.31869365 Z" id="Combined-Shape" fill="#E3BC8F"></path>
                    <path d="M0.326139594,6.63313454 C0.142990906,6.61419079 0,6.45645512 0,6.26451961 L0,4.9783375 C0,4.77361421 0.16287996,4.60805719 0.36363966,4.60805719 L1.45853061,4.60805719 C1.25780011,4.60805719 1.09489095,4.77358447 1.09489095,4.9783375 L1.09489095,6.26451961 C1.09489095,6.43415087 1.20820891,6.57906903 1.36051642,6.62299354 C1.38030768,6.62299386 1.40048631,6.62299354 1.42105975,6.62299354 L1.42105975,14.394449 C1.42103054,14.77377 1.72266659,15.0809144 2.09457145,15.0809144 L0.999709706,15.0809144 C0.627804845,15.0809144 0.326168799,14.7737403 0.326168799,14.394449 L0.326168799,6.63313454 Z" id="Combined-Shape" fill="#7E54DB"></path>
                </g>
            </g>
        </g>
    </g>
</svg>