<?xml version="1.0" encoding="UTF-8"?>
<svg width="37px" height="410px" viewBox="0 0 37 410" version="1.1" xmlns="http://www.w3.org/2000/svg" xmlns:xlink="http://www.w3.org/1999/xlink">
    <!-- Generator: Sketch 46.2 (44496) - http://www.bohemiancoding.com/sketch -->
    <title>VIP Level</title>
    <desc>Created with Sketch.</desc>
    <defs>
        <circle id="path-1" cx="15" cy="15" r="15"></circle>
        <filter x="-11.7%" y="-8.3%" width="123.3%" height="123.3%" filterUnits="objectBoundingBox" id="filter-3">
            <feOffset dx="0" dy="1" in="SourceAlpha" result="shadowOffsetOuter1"></feOffset>
            <feGaussianBlur stdDeviation="1" in="shadowOffsetOuter1" result="shadowBlurOuter1"></feGaussianBlur>
            <feColorMatrix values="0 0 0 0 0.223529412   0 0 0 0 0.215686275   0 0 0 0 0.219607843  0 0 0 1 0" type="matrix" in="shadowBlurOuter1"></feColorMatrix>
        </filter>
        <circle id="path-4" cx="15" cy="15" r="12.4137931"></circle>
        <filter x="-14.1%" y="-10.1%" width="128.2%" height="128.2%" filterUnits="objectBoundingBox" id="filter-5">
            <feOffset dx="0" dy="1" in="SourceAlpha" result="shadowOffsetOuter1"></feOffset>
            <feGaussianBlur stdDeviation="1" in="shadowOffsetOuter1" result="shadowBlurOuter1"></feGaussianBlur>
            <feColorMatrix values="0 0 0 0 0.625797194   0 0 0 0 0.622320583   0 0 0 0 0.613117788  0 0 0 1 0" type="matrix" in="shadowBlurOuter1"></feColorMatrix>
        </filter>
        <circle id="path-6" cx="15" cy="15" r="15"></circle>
        <filter x="-11.7%" y="-8.3%" width="123.3%" height="123.3%" filterUnits="objectBoundingBox" id="filter-8">
            <feOffset dx="0" dy="1" in="SourceAlpha" result="shadowOffsetOuter1"></feOffset>
            <feGaussianBlur stdDeviation="1" in="shadowOffsetOuter1" result="shadowBlurOuter1"></feGaussianBlur>
            <feColorMatrix values="0 0 0 0 0.223529412   0 0 0 0 0.215686275   0 0 0 0 0.219607843  0 0 0 1 0" type="matrix" in="shadowBlurOuter1"></feColorMatrix>
        </filter>
        <radialGradient cx="32.1960449%" cy="21.9197591%" fx="32.1960449%" fy="21.9197591%" r="136.608887%" id="radialGradient-9">
            <stop stop-color="#FFFFFF" offset="0%"></stop>
            <stop stop-color="#BEBEBE" offset="100%"></stop>
        </radialGradient>
        <circle id="path-10" cx="15" cy="15" r="12.4137931"></circle>
        <filter x="-14.1%" y="-10.1%" width="128.2%" height="128.2%" filterUnits="objectBoundingBox" id="filter-11">
            <feOffset dx="0" dy="1" in="SourceAlpha" result="shadowOffsetOuter1"></feOffset>
            <feGaussianBlur stdDeviation="1" in="shadowOffsetOuter1" result="shadowBlurOuter1"></feGaussianBlur>
            <feColorMatrix values="0 0 0 0 0.40837585   0 0 0 0 0.395689084   0 0 0 0 0.362106467  0 0 0 1 0" type="matrix" in="shadowBlurOuter1"></feColorMatrix>
        </filter>
        <circle id="path-12" cx="15" cy="15" r="15"></circle>
        <filter x="-11.7%" y="-8.3%" width="123.3%" height="123.3%" filterUnits="objectBoundingBox" id="filter-14">
            <feOffset dx="0" dy="1" in="SourceAlpha" result="shadowOffsetOuter1"></feOffset>
            <feGaussianBlur stdDeviation="1" in="shadowOffsetOuter1" result="shadowBlurOuter1"></feGaussianBlur>
            <feColorMatrix values="0 0 0 0 0.223529412   0 0 0 0 0.215686275   0 0 0 0 0.219607843  0 0 0 1 0" type="matrix" in="shadowBlurOuter1"></feColorMatrix>
        </filter>
        <radialGradient cx="32.1960449%" cy="21.9197591%" fx="32.1960449%" fy="21.9197591%" r="136.608887%" id="radialGradient-15">
            <stop stop-color="#FFFFFF" offset="0%"></stop>
            <stop stop-color="#D7C699" offset="100%"></stop>
        </radialGradient>
        <circle id="path-16" cx="15" cy="15" r="12.4137931"></circle>
        <filter x="-14.1%" y="-10.1%" width="128.2%" height="128.2%" filterUnits="objectBoundingBox" id="filter-17">
            <feOffset dx="0" dy="1" in="SourceAlpha" result="shadowOffsetOuter1"></feOffset>
            <feGaussianBlur stdDeviation="1" in="shadowOffsetOuter1" result="shadowBlurOuter1"></feGaussianBlur>
            <feColorMatrix values="0 0 0 0 0.641767645   0 0 0 0 0.554446447   0 0 0 0 0.323302099  0 0 0 1 0" type="matrix" in="shadowBlurOuter1"></feColorMatrix>
        </filter>
        <circle id="path-18" cx="15" cy="15" r="15"></circle>
        <filter x="-11.7%" y="-8.3%" width="123.3%" height="123.3%" filterUnits="objectBoundingBox" id="filter-20">
            <feOffset dx="0" dy="1" in="SourceAlpha" result="shadowOffsetOuter1"></feOffset>
            <feGaussianBlur stdDeviation="1" in="shadowOffsetOuter1" result="shadowBlurOuter1"></feGaussianBlur>
            <feColorMatrix values="0 0 0 0 0.223529412   0 0 0 0 0.215686275   0 0 0 0 0.219607843  0 0 0 1 0" type="matrix" in="shadowBlurOuter1"></feColorMatrix>
        </filter>
        <radialGradient cx="32.1960449%" cy="21.9197591%" fx="32.1960449%" fy="21.9197591%" r="136.608887%" id="radialGradient-21">
            <stop stop-color="#FFFFFF" offset="0%"></stop>
            <stop stop-color="#A166B6" offset="100%"></stop>
        </radialGradient>
        <circle id="path-22" cx="15" cy="15" r="12.4137931"></circle>
        <filter x="-14.1%" y="-10.1%" width="128.2%" height="128.2%" filterUnits="objectBoundingBox" id="filter-23">
            <feOffset dx="0" dy="1" in="SourceAlpha" result="shadowOffsetOuter1"></feOffset>
            <feGaussianBlur stdDeviation="1" in="shadowOffsetOuter1" result="shadowBlurOuter1"></feGaussianBlur>
            <feColorMatrix values="0 0 0 0 0.56802754   0 0 0 0 0.388058793   0 0 0 0 0.63892432  0 0 0 1 0" type="matrix" in="shadowBlurOuter1"></feColorMatrix>
        </filter>
        <circle id="path-24" cx="15" cy="15" r="15"></circle>
        <filter x="-11.7%" y="-8.3%" width="123.3%" height="123.3%" filterUnits="objectBoundingBox" id="filter-26">
            <feOffset dx="0" dy="1" in="SourceAlpha" result="shadowOffsetOuter1"></feOffset>
            <feGaussianBlur stdDeviation="1" in="shadowOffsetOuter1" result="shadowBlurOuter1"></feGaussianBlur>
            <feColorMatrix values="0 0 0 0 0.223529412   0 0 0 0 0.215686275   0 0 0 0 0.219607843  0 0 0 1 0" type="matrix" in="shadowBlurOuter1"></feColorMatrix>
        </filter>
        <radialGradient cx="32.1960449%" cy="21.9197591%" fx="32.1960449%" fy="21.9197591%" r="136.608887%" id="radialGradient-27">
            <stop stop-color="#5C5A5B" offset="0%"></stop>
            <stop stop-color="#2A2728" offset="100%"></stop>
        </radialGradient>
        <circle id="path-28" cx="12.9310345" cy="12.9310345" r="12.4137931"></circle>
        <filter x="-14.1%" y="-10.1%" width="128.2%" height="128.2%" filterUnits="objectBoundingBox" id="filter-30">
            <feOffset dx="0" dy="1" in="SourceAlpha" result="shadowOffsetOuter1"></feOffset>
            <feGaussianBlur stdDeviation="1" in="shadowOffsetOuter1" result="shadowBlurOuter1"></feGaussianBlur>
            <feColorMatrix values="0 0 0 0 0.574750213   0 0 0 0 0.467605265   0 0 0 0 0.183986288  0 0 0 1 0" type="matrix" in="shadowBlurOuter1"></feColorMatrix>
        </filter>
        <linearGradient x1="0%" y1="0%" x2="0%" y2="100%" id="linearGradient-31">
            <stop stop-color="#FDE5C1" offset="0%"></stop>
            <stop stop-color="#FDE4C5" offset="100%"></stop>
        </linearGradient>
        <linearGradient x1="100%" y1="6.796875%" x2="100%" y2="100%" id="linearGradient-32">
            <stop stop-color="#F4D2A5" offset="0%"></stop>
            <stop stop-color="#EBBE85" offset="100%"></stop>
        </linearGradient>
        <linearGradient x1="0%" y1="50%" x2="100%" y2="100%" id="linearGradient-33">
            <stop stop-color="#EFC589" stop-opacity="0" offset="0%"></stop>
            <stop stop-color="#D7B37F" offset="100%"></stop>
        </linearGradient>
        <linearGradient x1="37.9638672%" y1="59.436849%" x2="100%" y2="100%" id="linearGradient-34">
            <stop stop-color="#FDE4C3" stop-opacity="0" offset="0%"></stop>
            <stop stop-color="#F8D8A9" offset="100%"></stop>
        </linearGradient>
        <radialGradient cx="33.3251953%" cy="76.6357422%" fx="33.3251953%" fy="76.6357422%" r="100%" id="radialGradient-35">
            <stop stop-color="#EFCA98" offset="0%"></stop>
            <stop stop-color="#FDE5C2" offset="100%"></stop>
        </radialGradient>
    </defs>
    <g id="会员列表页新版-w375" stroke="none" stroke-width="1" fill="none" fill-rule="evenodd">
        <g id="VIP-Level">
            <g id="v1" transform="translate(3.500000, 0.000000)">
                <mask id="mask-2" fill="white">
                    <use xlink:href="#path-1"></use>
                </mask>
                <g id="Oval-3">
                    <use fill="black" fill-opacity="1" filter="url(#filter-3)" xlink:href="#path-1"></use>
                    <use fill="#C5C4C1" fill-rule="evenodd" xlink:href="#path-1"></use>
                </g>
                <g id="Oval-3" mask="url(#mask-2)">
                    <use fill="black" fill-opacity="1" filter="url(#filter-5)" xlink:href="#path-4"></use>
                    <use fill="#FFFFFF" fill-rule="evenodd" xlink:href="#path-4"></use>
                </g>
                <path d="M16.6231579,11.4719782 L15.9410526,11.5856624 C15.6884198,11.636189 15.5157899,11.775135 15.4231579,12.0025045 L12.5178947,19.3919782 L12.1642105,19.3919782 L9.09473684,12.2172414 C9.0021048,11.9982929 8.92000036,11.8530312 8.84842105,11.7814519 C8.77684175,11.7098726 8.67789537,11.6572415 8.55157895,11.6235572 L7.92,11.4719782 L7.92,11.1688203 C8.20631722,11.1940836 8.78736404,11.2067151 9.66315789,11.2067151 C10.1010548,11.2067151 10.5052613,11.2046098 10.8757895,11.2003993 C11.2463176,11.1961887 11.5368411,11.1856625 11.7473684,11.1688203 L11.7473684,11.4719782 L11.2421053,11.5225045 C11.0821045,11.5477678 10.9578952,11.5793465 10.8694737,11.6172414 C10.7810522,11.6551363 10.7200002,11.7119778 10.6863158,11.7877677 C10.6526314,11.8635575 10.6505262,11.9625039 10.68,12.0846098 C10.7094738,12.2067157 10.7621049,12.3603983 10.8378947,12.5456624 L12.8210526,17.4593466 L14.6526316,12.469873 C14.7115792,12.3014511 14.7536841,12.1625051 14.7789474,12.0530309 C14.8042107,11.9435566 14.7936844,11.8572417 14.7473684,11.7940835 C14.7010524,11.7309253 14.6147375,11.6803995 14.4884211,11.6425045 C14.3621046,11.6046096 14.1852643,11.5688205 13.9578947,11.5351361 L13.4526316,11.4719782 L13.4526316,11.1688203 C13.5705269,11.1856625 13.7684197,11.1961887 14.0463158,11.2003993 C14.3242119,11.2046098 14.6736821,11.2067151 15.0947368,11.2067151 C15.9200041,11.2067151 16.4294727,11.1940836 16.6231579,11.1688203 L16.6231579,11.4719782 Z M21.1867669,19.1393466 C20.9678185,19.1309255 20.7088737,19.1225046 20.4099248,19.1140835 C20.1109759,19.1056624 19.8015054,19.1014519 19.4815038,19.1014519 C19.1615022,19.1014519 18.8520316,19.1056624 18.5530827,19.1140835 C18.2541338,19.1225046 17.9951891,19.1309255 17.7762406,19.1393466 L17.7762406,18.8361887 L18.5088722,18.7225045 C18.8036105,18.6551358 18.9509774,18.4909269 18.9509774,18.229873 L18.9509774,12.2046098 L17.4478195,13.1772414 L17.2457143,12.8361887 C17.3888729,12.7435567 17.5593975,12.6319789 17.7572932,12.5014519 C17.955189,12.3709249 18.1615027,12.2298737 18.3762406,12.078294 C18.5909785,11.9267143 18.8099237,11.7667159 19.0330827,11.598294 C19.2562417,11.4298721 19.4688712,11.2572423 19.6709774,11.0803993 L20.0878195,11.0803993 L20.0878195,18.229873 C20.0878195,18.5161902 20.2351865,18.6846095 20.5299248,18.7351361 L21.1867669,18.8361887 L21.1867669,19.1393466 Z" id="V1" fill="#A09E99" mask="url(#mask-2)"></path>
            </g>
            <g id="v2" transform="translate(3.500000, 45.000000)">
                <mask id="mask-7" fill="white">
                    <use xlink:href="#path-6"></use>
                </mask>
                <g id="Oval-3">
                    <use fill="black" fill-opacity="1" filter="url(#filter-8)" xlink:href="#path-6"></use>
                    <use fill="#A09D92" fill-rule="evenodd" xlink:href="#path-6"></use>
                </g>
                <g id="Oval-3" mask="url(#mask-7)">
                    <use fill="black" fill-opacity="1" filter="url(#filter-11)" xlink:href="#path-10"></use>
                    <use fill="url(#radialGradient-9)" fill-rule="evenodd" xlink:href="#path-10"></use>
                </g>
                <path d="M16.1694955,11.6545045 L15.5214955,11.7625045 C15.2814943,11.8105048 15.1174959,11.9425035 15.0294955,12.1585045 L12.2694955,19.1785045 L11.9334955,19.1785045 L9.01749546,12.3625045 C8.92949502,12.1545035 8.8514958,12.0165049 8.78349546,11.9485045 C8.71549512,11.8805042 8.62149606,11.8305047 8.50149546,11.7985045 L7.90149546,11.6545045 L7.90149546,11.3665045 C8.17349682,11.3905047 8.7254913,11.4025045 9.55749546,11.4025045 C9.97349754,11.4025045 10.3574937,11.4005046 10.7094955,11.3965045 C11.0614972,11.3925045 11.3374945,11.3825046 11.5374955,11.3665045 L11.5374955,11.6545045 L11.0574955,11.7025045 C10.9054947,11.7265047 10.7874959,11.7565044 10.7034955,11.7925045 C10.619495,11.8285047 10.5614956,11.8825042 10.5294955,11.9545045 C10.4974953,12.0265049 10.4954953,12.120504 10.5234955,12.2365045 C10.5514956,12.3525051 10.6014951,12.4985037 10.6734955,12.6745045 L12.5574955,17.3425045 L14.2974955,12.6025045 C14.3534957,12.4425037 14.3934953,12.3105051 14.4174955,12.2065045 C14.4414956,12.102504 14.4314957,12.0205048 14.3874955,11.9605045 C14.3434952,11.9005042 14.2614961,11.8525047 14.1414955,11.8165045 C14.0214949,11.7805044 13.8534965,11.7465047 13.6374955,11.7145045 L13.1574955,11.6545045 L13.1574955,11.3665045 C13.269496,11.3825046 13.4574941,11.3925045 13.7214955,11.3965045 C13.9854968,11.4005046 14.3174935,11.4025045 14.7174955,11.4025045 C15.5014994,11.4025045 15.9854945,11.3905047 16.1694955,11.3665045 L16.1694955,11.6545045 Z M20.8394955,18.9385045 C20.551494,18.9225045 20.2274973,18.9125046 19.8674955,18.9085045 C19.5074937,18.9045045 19.0634981,18.9025045 18.5354955,18.9025045 C18.0074928,18.9025045 17.5354975,18.9045045 17.1194955,18.9085045 C16.7034934,18.9125046 16.3554969,18.9225045 16.0754955,18.9385045 C16.1234957,18.7545036 16.1774952,18.5805054 16.2374955,18.4165045 C16.2974958,18.2525037 16.3854949,18.0805054 16.5014955,17.9005045 C16.617496,17.7205036 16.7694945,17.5205056 16.9574955,17.3005045 C17.1454964,17.0805034 17.3914939,16.8145061 17.6954955,16.5025045 L18.0554955,16.1185045 C18.3514969,15.8225031 18.5994945,15.5525058 18.7994955,15.3085045 C18.9994965,15.0645033 19.1554949,14.8365056 19.2674955,14.6245045 C19.379496,14.4125035 19.4594952,14.2105055 19.5074955,14.0185045 C19.5554957,13.8265036 19.5794955,13.6265056 19.5794955,13.4185045 C19.5794955,12.9945024 19.4554967,12.6605058 19.2074955,12.4165045 C18.9594942,12.1725033 18.6354975,12.0505045 18.2354955,12.0505045 C17.8274934,12.0505045 17.4814969,12.1845032 17.1974955,12.4525045 C16.913494,12.7205059 16.715496,13.106502 16.6034955,13.6105045 L16.2674955,13.5025045 C16.3874961,12.790501 16.6554934,12.2425065 17.0714955,11.8585045 C17.4874975,11.4745026 18.0074923,11.2825045 18.6314955,11.2825045 C18.9194969,11.2825045 19.1914942,11.3265041 19.4474955,11.4145045 C19.7034967,11.502505 19.9274945,11.6305037 20.1194955,11.7985045 C20.3114964,11.9665054 20.4634949,12.1665034 20.5754955,12.3985045 C20.687496,12.6305057 20.7434955,12.8905031 20.7434955,13.1785045 C20.7434955,13.466506 20.6954959,13.7325033 20.5994955,13.9765045 C20.503495,14.2205058 20.3694963,14.4565034 20.1974955,14.6845045 C20.0254946,14.9125057 19.8194967,15.1365034 19.5794955,15.3565045 C19.3394943,15.5765056 19.0794969,15.8065033 18.7994955,16.0465045 L18.3674955,16.4305045 C18.1594944,16.6065054 17.9354967,16.8225033 17.6954955,17.0785045 C17.4554943,17.3345058 17.2154967,17.6345028 16.9754955,17.9785045 L19.6634955,17.9785045 C19.8474964,17.9785045 19.9914949,17.9605047 20.0954955,17.9245045 C20.199496,17.8885044 20.2834951,17.8325049 20.3474955,17.7565045 C20.4114958,17.6805042 20.4674952,17.5785052 20.5154955,17.4505045 L20.6954955,16.9705045 L21.0194955,16.9705045 L20.8394955,18.9385045 Z" id="V2" fill="#A09D92" mask="url(#mask-7)"></path>
            </g>
            <g id="v3" transform="translate(3.500000, 90.000000)">
                <mask id="mask-13" fill="white">
                    <use xlink:href="#path-12"></use>
                </mask>
                <g id="Oval-3">
                    <use fill="black" fill-opacity="1" filter="url(#filter-14)" xlink:href="#path-12"></use>
                    <use fill="#D7C699" fill-rule="evenodd" xlink:href="#path-12"></use>
                </g>
                <g id="Oval-3" mask="url(#mask-13)">
                    <use fill="black" fill-opacity="1" filter="url(#filter-17)" xlink:href="#path-16"></use>
                    <use fill="url(#radialGradient-15)" fill-rule="evenodd" xlink:href="#path-16"></use>
                </g>
                <path d="M16.1694955,11.6545045 L15.5214955,11.7625045 C15.2814943,11.8105048 15.1174959,11.9425035 15.0294955,12.1585045 L12.2694955,19.1785045 L11.9334955,19.1785045 L9.01749546,12.3625045 C8.92949502,12.1545035 8.8514958,12.0165049 8.78349546,11.9485045 C8.71549512,11.8805042 8.62149606,11.8305047 8.50149546,11.7985045 L7.90149546,11.6545045 L7.90149546,11.3665045 C8.17349682,11.3905047 8.7254913,11.4025045 9.55749546,11.4025045 C9.97349754,11.4025045 10.3574937,11.4005046 10.7094955,11.3965045 C11.0614972,11.3925045 11.3374945,11.3825046 11.5374955,11.3665045 L11.5374955,11.6545045 L11.0574955,11.7025045 C10.9054947,11.7265047 10.7874959,11.7565044 10.7034955,11.7925045 C10.619495,11.8285047 10.5614956,11.8825042 10.5294955,11.9545045 C10.4974953,12.0265049 10.4954953,12.120504 10.5234955,12.2365045 C10.5514956,12.3525051 10.6014951,12.4985037 10.6734955,12.6745045 L12.5574955,17.3425045 L14.2974955,12.6025045 C14.3534957,12.4425037 14.3934953,12.3105051 14.4174955,12.2065045 C14.4414956,12.102504 14.4314957,12.0205048 14.3874955,11.9605045 C14.3434952,11.9005042 14.2614961,11.8525047 14.1414955,11.8165045 C14.0214949,11.7805044 13.8534965,11.7465047 13.6374955,11.7145045 L13.1574955,11.6545045 L13.1574955,11.3665045 C13.269496,11.3825046 13.4574941,11.3925045 13.7214955,11.3965045 C13.9854968,11.4005046 14.3174935,11.4025045 14.7174955,11.4025045 C15.5014994,11.4025045 15.9854945,11.3905047 16.1694955,11.3665045 L16.1694955,11.6545045 Z M16.8314955,13.1305045 L16.6274955,12.9745045 C16.8354965,12.4465019 17.0994939,12.032506 17.4194955,11.7325045 C17.7394971,11.432503 18.1754927,11.2825045 18.7274955,11.2825045 C18.9434965,11.2825045 19.1514945,11.3105043 19.3514955,11.3665045 C19.5514965,11.4225048 19.7254947,11.504504 19.8734955,11.6125045 C20.0214962,11.7205051 20.141495,11.8505038 20.2334955,12.0025045 C20.3254959,12.1545053 20.3714955,12.3265036 20.3714955,12.5185045 C20.3714955,12.8305061 20.2454967,13.136503 19.9934955,13.4365045 C19.7414942,13.736506 19.3874977,14.0345031 18.9314955,14.3305045 C19.243497,14.3065044 19.5274942,14.3405041 19.7834955,14.4325045 C20.0394967,14.524505 20.2574946,14.6605036 20.4374955,14.8405045 C20.6174964,15.0205054 20.755495,15.2365033 20.8514955,15.4885045 C20.9474959,15.7405058 20.9954955,16.018503 20.9954955,16.3225045 C20.9954955,16.7145065 20.9174962,17.0805028 20.7614955,17.4205045 C20.6054947,17.7605062 20.3914968,18.0545033 20.1194955,18.3025045 C19.8474941,18.5505058 19.5274973,18.7445038 19.1594955,18.8845045 C18.7914936,19.0245052 18.3994975,19.0945045 17.9834955,19.0945045 C17.4314927,19.0945045 17.0074969,19.0225053 16.7114955,18.8785045 C16.415494,18.7345038 16.2674955,18.5545056 16.2674955,18.3385045 C16.2674955,18.2585041 16.2934952,18.1825049 16.3454955,18.1105045 C16.3974957,18.0385042 16.469495,17.9865047 16.5614955,17.9545045 C16.6534959,17.9225044 16.7614948,17.9225044 16.8854955,17.9545045 C17.0094961,17.9865047 17.1434947,18.0705039 17.2874955,18.2065045 C17.5194966,18.4145056 17.7074947,18.5605041 17.8514955,18.6445045 C17.9954962,18.728505 18.1474947,18.7705045 18.3074955,18.7705045 C18.5554967,18.7705045 18.7774945,18.7105051 18.9734955,18.5905045 C19.1694964,18.4705039 19.3374948,18.3105055 19.4774955,18.1105045 C19.6174962,17.9105035 19.7234951,17.6825058 19.7954955,17.4265045 C19.8674958,17.1705033 19.9034955,16.9105059 19.9034955,16.6465045 C19.9034955,16.134502 19.7814967,15.736506 19.5374955,15.4525045 C19.2934942,15.1685031 18.9914973,15.0265045 18.6314955,15.0265045 C18.2874937,15.0265045 17.963497,15.1625032 17.6594955,15.4345045 L17.4794955,15.1825045 C17.5594959,15.1105042 17.643495,15.0385049 17.7314955,14.9665045 C17.8194959,14.8945042 17.911495,14.8225049 18.0074955,14.7505045 C18.4474977,14.4225029 18.7854943,14.1245059 19.0214955,13.8565045 C19.2574966,13.5885032 19.3754955,13.3385057 19.3754955,13.1065045 C19.3754955,12.7785029 19.2774964,12.5245054 19.0814955,12.3445045 C18.8854945,12.1645036 18.6154972,12.0745045 18.2714955,12.0745045 C17.9914941,12.0745045 17.7214968,12.1585037 17.4614955,12.3265045 C17.2014942,12.4945054 16.9914963,12.7625027 16.8314955,13.1305045 Z" id="V3" fill="#977454" mask="url(#mask-13)"></path>
            </g>
            <g id="v4" transform="translate(3.500000, 135.000000)">
                <mask id="mask-19" fill="white">
                    <use xlink:href="#path-18"></use>
                </mask>
                <g id="Oval-3">
                    <use fill="black" fill-opacity="1" filter="url(#filter-20)" xlink:href="#path-18"></use>
                    <use fill="#B27AC9" fill-rule="evenodd" xlink:href="#path-18"></use>
                </g>
                <g id="Oval-3" mask="url(#mask-19)">
                    <use fill="black" fill-opacity="1" filter="url(#filter-23)" xlink:href="#path-22"></use>
                    <use fill="url(#radialGradient-21)" fill-rule="evenodd" xlink:href="#path-22"></use>
                </g>
                <path d="M16.1694955,11.6545045 L15.5214955,11.7625045 C15.2814943,11.8105048 15.1174959,11.9425035 15.0294955,12.1585045 L12.2694955,19.1785045 L11.9334955,19.1785045 L9.01749546,12.3625045 C8.92949502,12.1545035 8.8514958,12.0165049 8.78349546,11.9485045 C8.71549512,11.8805042 8.62149606,11.8305047 8.50149546,11.7985045 L7.90149546,11.6545045 L7.90149546,11.3665045 C8.17349682,11.3905047 8.7254913,11.4025045 9.55749546,11.4025045 C9.97349754,11.4025045 10.3574937,11.4005046 10.7094955,11.3965045 C11.0614972,11.3925045 11.3374945,11.3825046 11.5374955,11.3665045 L11.5374955,11.6545045 L11.0574955,11.7025045 C10.9054947,11.7265047 10.7874959,11.7565044 10.7034955,11.7925045 C10.619495,11.8285047 10.5614956,11.8825042 10.5294955,11.9545045 C10.4974953,12.0265049 10.4954953,12.120504 10.5234955,12.2365045 C10.5514956,12.3525051 10.6014951,12.4985037 10.6734955,12.6745045 L12.5574955,17.3425045 L14.2974955,12.6025045 C14.3534957,12.4425037 14.3934953,12.3105051 14.4174955,12.2065045 C14.4414956,12.102504 14.4314957,12.0205048 14.3874955,11.9605045 C14.3434952,11.9005042 14.2614961,11.8525047 14.1414955,11.8165045 C14.0214949,11.7805044 13.8534965,11.7465047 13.6374955,11.7145045 L13.1574955,11.6545045 L13.1574955,11.3665045 C13.269496,11.3825046 13.4574941,11.3925045 13.7214955,11.3965045 C13.9854968,11.4005046 14.3174935,11.4025045 14.7174955,11.4025045 C15.5014994,11.4025045 15.9854945,11.3905047 16.1694955,11.3665045 L16.1694955,11.6545045 Z M19.6394955,11.2825045 L20.0954955,11.2825045 L20.0954955,16.2025045 L21.1994955,16.2025045 L21.1994955,16.8865045 L20.0954955,16.8865045 L20.0954955,19.0945045 L18.9674955,19.0945045 L18.9674955,16.8865045 L16.0034955,16.8865045 L16.0034955,16.3585045 L17.5154955,14.2345045 C17.8754973,13.7385021 18.2294937,13.246507 18.5774955,12.7585045 C18.9254972,12.2705021 19.2794937,11.778507 19.6394955,11.2825045 Z M18.9674955,16.2025045 L18.9674955,12.9025045 C18.6954941,13.2785064 18.4494966,13.618503 18.2294955,13.9225045 C18.0094944,14.2265061 17.8094964,14.5085032 17.6294955,14.7685045 C17.4494946,15.0285058 17.2794963,15.2745034 17.1194955,15.5065045 C16.9594947,15.7385057 16.8034962,15.9705034 16.6514955,16.2025045 L18.9674955,16.2025045 Z" id="V4" fill="#A47EB4" mask="url(#mask-19)"></path>
            </g>
            <g id="v5" transform="translate(3.500000, 180.000000)">
                <mask id="mask-25" fill="white">
                    <use xlink:href="#path-24"></use>
                </mask>
                <g id="Oval-3">
                    <use fill="black" fill-opacity="1" filter="url(#filter-26)" xlink:href="#path-24"></use>
                    <use fill="#CAAE64" fill-rule="evenodd" xlink:href="#path-24"></use>
                </g>
                <g id="Group-2" mask="url(#mask-25)">
                    <g transform="translate(2.068966, 2.068966)">
                        <mask id="mask-29" fill="white">
                            <use xlink:href="#path-28"></use>
                        </mask>
                        <g id="Oval-3" stroke="none" fill="none">
                            <use fill="black" fill-opacity="1" filter="url(#filter-30)" xlink:href="#path-28"></use>
                            <use fill="url(#radialGradient-27)" fill-rule="evenodd" xlink:href="#path-28"></use>
                        </g>
                        <circle id="Oval-3" stroke="#484647" stroke-width="1" fill="none" mask="url(#mask-29)" cx="12.9310345" cy="13.4482759" r="11.9137931"></circle>
                        <circle id="Oval-3" stroke="#4A4849" stroke-width="1" fill="none" mask="url(#mask-29)" cx="12.9310345" cy="12.9310345" r="11.9137931"></circle>
                    </g>
                </g>
                <path d="M16.1694955,11.6545045 L15.5214955,11.7625045 C15.2814943,11.8105048 15.1174959,11.9425035 15.0294955,12.1585045 L12.2694955,19.1785045 L11.9334955,19.1785045 L9.01749546,12.3625045 C8.92949502,12.1545035 8.8514958,12.0165049 8.78349546,11.9485045 C8.71549512,11.8805042 8.62149606,11.8305047 8.50149546,11.7985045 L7.90149546,11.6545045 L7.90149546,11.3665045 C8.17349682,11.3905047 8.7254913,11.4025045 9.55749546,11.4025045 C9.97349754,11.4025045 10.3574937,11.4005046 10.7094955,11.3965045 C11.0614972,11.3925045 11.3374945,11.3825046 11.5374955,11.3665045 L11.5374955,11.6545045 L11.0574955,11.7025045 C10.9054947,11.7265047 10.7874959,11.7565044 10.7034955,11.7925045 C10.619495,11.8285047 10.5614956,11.8825042 10.5294955,11.9545045 C10.4974953,12.0265049 10.4954953,12.120504 10.5234955,12.2365045 C10.5514956,12.3525051 10.6014951,12.4985037 10.6734955,12.6745045 L12.5574955,17.3425045 L14.2974955,12.6025045 C14.3534957,12.4425037 14.3934953,12.3105051 14.4174955,12.2065045 C14.4414956,12.102504 14.4314957,12.0205048 14.3874955,11.9605045 C14.3434952,11.9005042 14.2614961,11.8525047 14.1414955,11.8165045 C14.0214949,11.7805044 13.8534965,11.7465047 13.6374955,11.7145045 L13.1574955,11.6545045 L13.1574955,11.3665045 C13.269496,11.3825046 13.4574941,11.3925045 13.7214955,11.3965045 C13.9854968,11.4005046 14.3174935,11.4025045 14.7174955,11.4025045 C15.5014994,11.4025045 15.9854945,11.3905047 16.1694955,11.3665045 L16.1694955,11.6545045 Z M20.3474955,12.3865045 L18.6074955,12.3865045 C18.2954939,12.3865045 18.0334965,12.3885045 17.8214955,12.3925045 C17.6094944,12.3965046 17.4874956,12.4065045 17.4554955,12.4225045 L17.3234955,14.2705045 C17.4994963,14.1825041 17.6934944,14.1185047 17.9054955,14.0785045 C18.1174965,14.0385043 18.3154945,14.0185045 18.4994955,14.0185045 C18.8754973,14.0185045 19.213494,14.0805039 19.5134955,14.2045045 C19.813497,14.3285052 20.0674944,14.5005034 20.2754955,14.7205045 C20.4834965,14.9405056 20.6434949,15.1985031 20.7554955,15.4945045 C20.867496,15.790506 20.9234955,16.1065029 20.9234955,16.4425045 C20.9234955,16.8425065 20.8414963,17.2045029 20.6774955,17.5285045 C20.5134946,17.8525062 20.2994968,18.1305034 20.0354955,18.3625045 C19.7714941,18.5945057 19.4694972,18.7745039 19.1294955,18.9025045 C18.7894938,19.0305052 18.4394973,19.0945045 18.0794955,19.0945045 C17.8874945,19.0945045 17.6894965,19.0765047 17.4854955,19.0405045 C17.2814944,19.0045044 17.0914963,18.9545049 16.9154955,18.8905045 C16.7394946,18.8265042 16.595496,18.748505 16.4834955,18.6565045 C16.3714949,18.5645041 16.3154955,18.4585051 16.3154955,18.3385045 C16.3154955,18.2505041 16.3434952,18.1725049 16.3994955,18.1045045 C16.4554957,18.0365042 16.5234951,17.9845047 16.6034955,17.9485045 C16.6834959,17.9125044 16.765495,17.8925046 16.8494955,17.8885045 C16.9334959,17.8845045 17.0074951,17.9065043 17.0714955,17.9545045 C17.2394963,18.0905052 17.3874948,18.208504 17.5154955,18.3085045 C17.6434961,18.408505 17.757495,18.4905042 17.8574955,18.5545045 C17.957496,18.6185049 18.053495,18.6665044 18.1454955,18.6985045 C18.2374959,18.7305047 18.3394949,18.7465045 18.4514955,18.7465045 C18.6754966,18.7465045 18.8794945,18.6925051 19.0634955,18.5845045 C19.2474964,18.476504 19.4054948,18.3325054 19.5374955,18.1525045 C19.6694961,17.9725036 19.7714951,17.7625057 19.8434955,17.5225045 C19.9154958,17.2825033 19.9514955,17.0305059 19.9514955,16.7665045 C19.9514955,16.5105033 19.9094959,16.2705057 19.8254955,16.0465045 C19.741495,15.8225034 19.6234962,15.6285054 19.4714955,15.4645045 C19.3194947,15.3005037 19.1414965,15.172505 18.9374955,15.0805045 C18.7334944,14.9885041 18.5074967,14.9425045 18.2594955,14.9425045 C17.7394929,14.9425045 17.3754965,15.0665033 17.1674955,15.3145045 L16.9634955,15.3145045 L17.1914955,11.4025045 L19.3694955,11.4025045 C19.5654964,11.4025045 19.7194949,11.3945046 19.8314955,11.3785045 C19.943496,11.3625045 20.0274952,11.3345047 20.0834955,11.2945045 C20.1394957,11.2545043 20.1794953,11.1985049 20.2034955,11.1265045 L20.4554955,11.1265045 L20.3474955,12.3865045 Z" id="V5" fill="#ECDDB7" mask="url(#mask-25)"></path>
            </g>
            <g id="king" transform="translate(0.000000, 225.000000)">
                <polygon id="Combined-Shape" fill="url(#linearGradient-31)" points="8 1.6875 10.8571429 5.125 15.4285714 1.6875 13.7142857 13.5 8 15.5"></polygon>
                <polygon id="Combined-Shape" fill="url(#linearGradient-32)" points="0.571428571 1.6875 5.14285714 5.125 8 1.6875 8 15.5 2.28571429 13.5"></polygon>
                <ellipse id="Oval-2" fill="url(#linearGradient-31)" cx="15.1428571" cy="1.85000002" rx="1" ry="1"></ellipse>
                <ellipse id="Oval-2" fill="url(#linearGradient-32)" cx="0.857142857" cy="1.85000002" rx="1" ry="1"></ellipse>
                <polygon id="Rectangle-6" fill="#FFF5E7" points="3 7 8 5.5 13 7 12.5 12.5 8 14 3.5 12.5"></polygon>
                <polygon id="Triangle-2" fill="url(#linearGradient-33)" points="8 1 8 14 2 12 0.5 2"></polygon>
                <polygon id="Triangle-2" fill="url(#linearGradient-34)" transform="translate(11.750000, 7.500000) scale(-1, 1) translate(-11.750000, -7.500000) " points="15.5 1 15.5 14 9.5 12 8 2"></polygon>
                <circle id="Oval-2" fill="url(#radialGradient-35)" cx="8" cy="1" r="1"></circle>
            </g>
        </g>
    </g>
</svg>