<?xml version="1.0" encoding="UTF-8"?>
<svg width="268px" height="156px" viewBox="0 0 268 156" version="1.1" xmlns="http://www.w3.org/2000/svg" xmlns:xlink="http://www.w3.org/1999/xlink">
    <!-- Generator: Sketch 42 (36781) - http://www.bohemiancoding.com/sketch -->
    <title>vipcard</title>
    <desc>Created with Sketch.</desc>
    <defs>
        <linearGradient x1="50%" y1="-23.7568431%" x2="23.1638012%" y2="105.103498%" id="linearGradient-1">
            <stop stop-color="#E5E0DE" offset="0%"></stop>
            <stop stop-color="#FEFEFE" offset="50.3109056%"></stop>
            <stop stop-color="#E5E0DE" offset="100%"></stop>
        </linearGradient>
        <rect id="path-2" x="0" y="0" width="260" height="148" rx="5"></rect>
        <filter x="-50%" y="-50%" width="200%" height="200%" filterUnits="objectBoundingBox" id="filter-4">
            <feOffset dx="0" dy="0" in="SourceAlpha" result="shadowOffsetOuter1"></feOffset>
            <feGaussianBlur stdDeviation="2" in="shadowOffsetOuter1" result="shadowBlurOuter1"></feGaussianBlur>
            <feColorMatrix values="0 0 0 0 0   0 0 0 0 0   0 0 0 0 0  0 0 0 0.16 0" type="matrix" in="shadowBlurOuter1"></feColorMatrix>
        </filter>
        <linearGradient x1="0%" y1="-58.1510417%" x2="100%" y2="100%" id="linearGradient-5">
            <stop stop-color="#D5C081" offset="0%"></stop>
            <stop stop-color="#8B6224" offset="100%"></stop>
        </linearGradient>
        <linearGradient x1="16.9039445%" y1="-23.4623545%" x2="100%" y2="100%" id="linearGradient-6">
            <stop stop-color="#D5C081" offset="0%"></stop>
            <stop stop-color="#8B6224" offset="100%"></stop>
        </linearGradient>
    </defs>
    <g id="H5优化-&gt;-会员领取" stroke="none" stroke-width="1" fill="none" fill-rule="evenodd">
        <g id="vipcard" transform="translate(3.000000, 4.000000)">
            <g id="Group-10" transform="translate(1.000000, 0.000000)">
                <mask id="mask-3" fill="white">
                    <use xlink:href="#path-2"></use>
                </mask>
                <g id="Combined-Shape">
                    <use fill="black" fill-opacity="1" filter="url(#filter-4)" xlink:href="#path-2"></use>
                    <use fill="url(#linearGradient-1)" fill-rule="evenodd" xlink:href="#path-2"></use>
                </g>
                <g id="Group-13" mask="url(#mask-3)" fill-rule="nonzero" fill="#F5F5F5">
                    <g transform="translate(-23.000000, -22.000000)" id="Oval-2">
                        <path d="M26.5,45 C36.7172679,45 45,36.7172679 45,26.5 C45,16.2827321 36.7172679,8 26.5,8 C16.2827321,8 8,16.2827321 8,26.5 C8,36.7172679 16.2827321,45 26.5,45 Z M26.5,53 C11.8644541,53 0,41.1355459 0,26.5 C0,11.8644541 11.8644541,0 26.5,0 C41.1355459,0 53,11.8644541 53,26.5 C53,41.1355459 41.1355459,53 26.5,53 Z"></path>
                        <path d="M154,165 C181.061953,165 203,143.061953 203,116 C203,88.9380473 181.061953,67 154,67 C126.938047,67 105,88.9380473 105,116 C105,143.061953 126.938047,165 154,165 Z M154,173 C122.519769,173 97,147.480231 97,116 C97,84.5197693 122.519769,59 154,59 C185.480231,59 211,84.5197693 211,116 C211,147.480231 185.480231,173 154,173 Z"></path>
                        <path d="M274,101 C293.329966,101 309,85.3299662 309,66 C309,46.6700338 293.329966,31 274,31 C254.670034,31 239,46.6700338 239,66 C239,85.3299662 254.670034,101 274,101 Z M274,109 C250.251756,109 231,89.7482442 231,66 C231,42.2517558 250.251756,23 274,23 C297.748244,23 317,42.2517558 317,66 C317,89.7482442 297.748244,109 274,109 Z"></path>
                        <path d="M90,124 C109.329966,124 125,108.329966 125,89 C125,69.6700338 109.329966,54 90,54 C70.6700338,54 55,69.6700338 55,89 C55,108.329966 70.6700338,124 90,124 Z M90,132 C66.2517558,132 47,112.748244 47,89 C47,65.2517558 66.2517558,46 90,46 C113.748244,46 133,65.2517558 133,89 C133,112.748244 113.748244,132 90,132 Z"></path>
                        <path d="M164,30 C170.075132,30 175,25.0751322 175,19 C175,12.9248678 170.075132,8 164,8 C157.924868,8 153,12.9248678 153,19 C153,25.0751322 157.924868,30 164,30 Z M164,38 C153.50659,38 145,29.4934102 145,19 C145,8.50658975 153.50659,0 164,0 C174.49341,0 183,8.50658975 183,19 C183,29.4934102 174.49341,38 164,38 Z"></path>
                    </g>
                </g>
            </g>
            <path d="M16.265625,5.9140625 C16.1874996,6.27864766 16.0963547,6.57812383 15.9921875,6.8125 L18.375,6.8125 L18.375,7.203125 L15.2109375,7.203125 L15.2109375,8.0625 L17.59375,8.0625 L17.59375,10.6015625 C17.6197918,11.3307328 17.2812535,11.6822918 16.578125,11.65625 L16.578125,12.515625 L18.53125,12.515625 L18.53125,12.90625 L16.578125,12.90625 L16.578125,13.84375 C16.6041668,14.5729203 16.2526078,14.9244793 15.5234375,14.8984375 L14.7421875,14.8984375 L14.7421875,14.5078125 L15.328125,14.5078125 C15.7447937,14.5078125 15.953125,14.312502 15.953125,13.921875 L15.953125,12.90625 L9.46875,12.90625 L9.46875,12.515625 L15.953125,12.515625 L15.953125,11.65625 L10.40625,11.65625 L10.40625,8.0625 L12.828125,8.0625 L12.828125,7.203125 L9.625,7.203125 L9.625,6.8125 L12.0078125,6.8125 C11.9036453,6.68229102 11.8255211,6.42187695 11.7734375,6.03125 C11.7473957,5.97916641 11.734375,5.9401043 11.734375,5.9140625 L12.359375,5.9140625 C12.3854168,6.25260586 12.4765617,6.55208203 12.6328125,6.8125 L15.3671875,6.8125 C15.4713547,6.55208203 15.5624996,6.25260586 15.640625,5.9140625 L16.265625,5.9140625 Z M14.6640625,8.765625 L14.6640625,8.4140625 L13.375,8.4140625 C13.4010418,9.2474 12.6067789,9.71614531 10.9921875,9.8203125 L10.9921875,10.25 L17.0078125,10.25 L17.0078125,9.6640625 L15.640625,9.6640625 C14.9635383,9.6901043 14.6380207,9.39062813 14.6640625,8.765625 Z M17.0078125,10.640625 L17.0078125,10.6015625 L10.9921875,10.6015625 L10.9921875,11.3046875 L16.34375,11.3046875 C16.8125023,11.3046875 17.0338543,11.0833355 17.0078125,10.640625 Z M17.0078125,8.4140625 L15.2109375,8.4140625 L15.2109375,8.6875 C15.2109375,9.10416875 15.406248,9.3125 15.796875,9.3125 L17.0078125,9.3125 L17.0078125,8.4140625 Z M10.9921875,9.46875 C12.1901102,9.39062461 12.8020832,9.03906563 12.828125,8.4140625 L10.9921875,8.4140625 L10.9921875,9.46875 Z M13.4140625,7.203125 L13.4140625,8.0625 L14.6640625,8.0625 L14.6640625,7.203125 L13.4140625,7.203125 Z M11.890625,13.21875 C12.3072937,13.6875023 12.5937492,14.1171855 12.75,14.5078125 L12.125,14.5078125 C11.9687492,14.1692691 11.7083352,13.7395859 11.34375,13.21875 L11.890625,13.21875 Z M20.4196429,8.7265625 L20.4196429,6.8125 L23.5446429,6.8125 L23.5446429,5.953125 L24.1696429,5.953125 L24.1696429,6.8125 L27.2946429,6.8125 L27.2946429,7.7890625 C27.3206846,8.44010742 26.9691257,8.7526043 26.2399554,8.7265625 L24.1696429,8.7265625 L24.1696429,9.625 L28.4274554,9.625 L28.4274554,10.015625 L19.2868304,10.015625 L19.2868304,9.625 L23.5446429,9.625 L23.5446429,8.7265625 L20.4196429,8.7265625 Z M20.6149554,13.453125 L20.6149554,10.875 L27.0993304,10.875 L27.0993304,13.453125 L26.5133929,13.453125 L26.5133929,11.3046875 L21.2008929,11.3046875 L21.2008929,13.453125 L20.6149554,13.453125 Z M23.8571429,13.3359375 C23.1540143,14.1953168 21.7087163,14.7421863 19.5212054,14.9765625 L19.5212054,14.5859375 C22.2816358,14.1953105 23.6227682,13.4140684 23.5446429,12.2421875 L23.5446429,11.7734375 L24.1696429,11.7734375 L24.1696429,12.2421875 C24.1436011,13.4140684 25.4847335,14.1953105 28.1930804,14.5859375 L28.1930804,14.9765625 C26.0316112,14.7421863 24.5863132,14.1953168 23.8571429,13.3359375 Z M21.0446429,7.203125 L21.0446429,8.3359375 L23.5446429,8.3359375 L23.5446429,7.203125 L21.0446429,7.203125 Z M26.6696429,7.75 L26.6696429,7.203125 L24.1696429,7.203125 L24.1696429,8.3359375 L26.0837054,8.3359375 C26.5003741,8.3619793 26.6956846,8.16666875 26.6696429,7.75 Z M36.0580357,12.359375 C36.5528298,13.0885453 36.9434509,13.8958289 37.2299107,14.78125 L36.6049107,14.78125 C36.5528271,14.6770828 36.513765,14.5208344 36.4877232,14.3125 C36.4616814,14.2864582 36.4486607,14.2604168 36.4486607,14.234375 C34.7819857,14.364584 33.0372115,14.4296875 31.2142857,14.4296875 L30.3939732,14.4296875 L30.3939732,14 C31.2533525,13.2187461 31.8653255,12.3593797 32.2299107,11.421875 L29.4955357,11.421875 L29.4955357,10.9921875 L37.9330357,10.9921875 L37.9330357,11.421875 L32.9720982,11.421875 C32.4512623,12.4635469 31.7872064,13.3229133 30.9799107,14 C33.2715888,14.0260418 35.0424045,13.9869797 36.2924107,13.8828125 C36.1622017,13.5703109 35.9148084,13.0885449 35.5502232,12.4375 C35.576265,12.4635418 35.5632443,12.4375004 35.5111607,12.359375 L36.0580357,12.359375 Z M29.1049107,9.2734375 C30.9538783,8.51822539 32.3991763,7.38542422 33.4408482,5.875 L33.9877232,5.875 C35.0293951,7.38542422 36.4746931,8.51822539 38.3236607,9.2734375 L38.3236607,9.6640625 C36.3965677,8.98697578 34.8601248,7.97136094 33.7142857,6.6171875 C32.5684466,7.97136094 31.0320037,8.98697578 29.1049107,9.6640625 L29.1049107,9.2734375 Z M31.2142857,9.078125 L36.1752232,9.078125 L36.1752232,9.5078125 L31.2142857,9.5078125 L31.2142857,9.078125 Z M39.9386161,13.21875 L39.9386161,9.78125 L47.1651786,9.78125 L47.1651786,13.21875 L46.5792411,13.21875 L46.5792411,10.171875 L40.5636161,10.171875 L40.5636161,13.21875 L39.9386161,13.21875 Z M46.0323661,7.59375 L46.0323661,6.8515625 L41.1104911,6.8515625 L41.1104911,8.375 L45.2511161,8.375 C45.7979938,8.4010418 46.0584078,8.14062773 46.0323661,7.59375 Z M40.4854911,8.765625 L40.4854911,6.421875 L46.6573661,6.421875 L46.6573661,7.671875 C46.6834078,8.42708711 46.2407039,8.7916668 45.3292411,8.765625 L40.4854911,8.765625 Z M43.5714286,12.9453125 C42.998509,13.8307336 41.5141489,14.4947895 39.1183036,14.9375 L39.1183036,14.546875 C41.9829012,13.9999973 43.3630957,13.0625066 43.2589286,11.734375 L43.2589286,10.71875 L43.8839286,10.71875 L43.8839286,11.734375 C43.7797614,13.0625066 45.1469352,13.9999973 47.9854911,14.546875 L47.9854911,14.9375 C45.6417293,14.4947895 44.1703899,13.8307336 43.5714286,12.9453125 Z M53.7935268,5.9921875 L54.3404018,5.9921875 L54.3404018,7.671875 L55.3169643,7.671875 L55.3169643,8.0625 L54.3404018,8.0625 L54.3404018,10.9921875 C54.4185271,10.9661457 54.5487342,10.9270836 54.7310268,10.875 C55.0174865,10.7708328 55.2258178,10.6927086 55.3560268,10.640625 L55.3560268,11.03125 C55.0435252,11.2135426 54.7049869,11.3567703 54.3404018,11.4609375 L54.3404018,15.015625 L53.7935268,15.015625 L53.7935268,11.6171875 C53.3508162,11.7213547 52.7648846,11.8124996 52.0357143,11.890625 L52.0357143,11.34375 C52.6867592,11.3177082 53.2726908,11.239584 53.7935268,11.109375 L53.7935268,8.0625 L52.9732143,8.0625 C52.8690471,8.81771211 52.5435295,9.48176797 51.9966518,10.0546875 L51.9966518,9.5078125 C52.3872787,8.85676758 52.5695686,7.85417344 52.5435268,6.5 L53.0513393,6.5 C53.0513393,7.04687773 53.0383186,7.43749883 53.0122768,7.671875 L53.7935268,7.671875 L53.7935268,5.9921875 Z M55.9029018,7.4375 L55.9029018,7.0078125 L58.0122768,7.0078125 L58.0122768,5.953125 L58.5982143,5.953125 L58.5982143,7.0078125 L60.7075893,7.0078125 L60.7075893,7.4375 L58.5982143,7.4375 L58.5982143,9.0390625 L61.1372768,9.0390625 L61.1372768,9.46875 L55.4732143,9.46875 L55.4732143,9.0390625 L58.0122768,9.0390625 L58.0122768,7.4375 L55.9029018,7.4375 Z M59.7700893,10.09375 L59.7700893,10.953125 L61.1372768,10.953125 L61.1372768,11.34375 L59.7700893,11.34375 L59.7700893,13.84375 C59.7700893,14.5468785 59.4055096,14.8984375 58.6763393,14.8984375 L57.7779018,14.8984375 L57.7779018,14.5078125 L58.5200893,14.5078125 C58.936758,14.5078125 59.1450893,14.312502 59.1450893,13.921875 L59.1450893,11.34375 L55.5513393,11.34375 L55.5513393,10.953125 L59.1450893,10.953125 L59.1450893,10.09375 L59.7700893,10.09375 Z M56.6841518,12.0859375 C56.9966533,12.5026063 57.2570674,13.0624965 57.4654018,13.765625 L56.8794643,13.765625 C56.7752971,13.2968727 56.5409244,12.7369824 56.1763393,12.0859375 L56.6841518,12.0859375 Z M71.0334821,14.5078125 L71.0334821,14.9375 C69.5751415,14.1562461 68.5465059,13.414066 67.9475446,12.7109375 C67.2183743,13.4401078 66.176718,14.1822879 64.8225446,14.9375 L64.8225446,14.5078125 C65.9683837,13.8307258 66.8928536,13.0885457 67.5959821,12.28125 C66.710561,11.2135363 66.0725466,9.69011406 65.6819196,7.7109375 L66.3069196,7.7109375 C66.6194212,9.3776125 67.1662907,10.757807 67.9475446,11.8515625 C68.8590075,10.6536398 69.4579598,9.07813477 69.7444196,7.125 L65.4084821,7.125 L65.4084821,6.6953125 L70.3694196,6.6953125 L70.3694196,7.125 C70.0308762,9.33855273 69.340779,11.0703062 68.2991071,12.3203125 C68.950152,13.1276082 69.8616012,13.8567676 71.0334821,14.5078125 Z M62.0100446,8.0234375 L62.0100446,7.59375 L63.4553571,7.59375 L63.4553571,5.9921875 L64.0412946,5.9921875 L64.0412946,7.59375 L65.3303571,7.59375 L65.3303571,8.0234375 L64.0803571,8.0234375 C64.4449423,9.22136016 64.9006669,10.3020785 65.4475446,11.265625 L65.4475446,11.9296875 C64.7704579,10.9400992 64.3017126,10.0807328 64.0412946,9.3515625 L64.0412946,14.9375 L63.4553571,14.9375 L63.4553571,9.6640625 C63.1688973,10.627609 62.6090071,11.7343687 61.7756696,12.984375 L61.7756696,12.3984375 C62.5569235,10.9140551 63.0907723,9.45573633 63.3772321,8.0234375 L62.0100446,8.0234375 Z M71.7890625,9.390625 L71.7890625,8.9609375 L74.484375,8.9609375 C74.6145839,8.67447773 74.7838531,8.21875313 74.9921875,7.59375 C75.0182293,7.48958281 75.0442707,7.41145859 75.0703125,7.359375 L72.375,7.359375 L72.375,6.96875 L75.1875,6.96875 L75.4609375,5.953125 L76.125,5.953125 C76.0468746,6.31771016 75.9427089,6.65624844 75.8125,6.96875 L80.2265625,6.96875 L80.2265625,7.359375 L75.6953125,7.359375 C75.5911453,7.69791836 75.4088554,8.17968437 75.1484375,8.8046875 C75.1223957,8.88281289 75.0963543,8.9348957 75.0703125,8.9609375 L80.8515625,8.9609375 L80.8515625,9.390625 L74.875,9.390625 C74.6406238,9.91146094 74.3802097,10.4062477 74.09375,10.875 L79.9140625,10.875 L79.9140625,11.265625 C79.1848921,12.1770879 78.2604222,13.0104129 77.140625,13.765625 C77.9479207,13.9739594 78.5859351,14.1953113 79.0546875,14.4296875 L79.0546875,15.015625 C77.4661378,14.3385383 75.5781359,13.6875031 73.390625,13.0625 L73.390625,12.671875 C74.7708402,13.0104184 75.8645793,13.3229152 76.671875,13.609375 C77.6614632,12.9062465 78.4557261,12.1250043 79.0546875,11.265625 L73.5859375,11.265625 L73.5859375,10.875 C73.8723972,10.3281223 74.1067699,9.83333555 74.2890625,9.390625 L71.7890625,9.390625 Z M82.9352678,9.9375 L82.9352678,7.984375 L89.3415178,7.984375 L89.3415178,8.84375 C89.3936014,9.62500391 89.0029803,9.98958359 88.1696428,9.9375 L82.9352678,9.9375 Z M81.5680803,13.0234375 L81.5680803,12.59375 L85.9040178,12.59375 L85.9040178,12.125 C86.9977733,11.8385402 87.8310983,11.5390641 88.4040178,11.2265625 L82.4274553,11.2265625 L82.4274553,10.8359375 L89.4196428,10.8359375 L89.4196428,11.2265625 C88.6644307,11.6953148 87.7008987,12.0729152 86.5290178,12.359375 L86.5290178,12.59375 L90.6696428,12.59375 L90.6696428,13.0234375 L86.5290178,13.0234375 L86.5290178,13.8046875 C86.5550596,14.5598996 86.1644385,14.9244793 85.3571428,14.8984375 L84.4196428,14.8984375 L84.4196428,14.5078125 L85.1618303,14.5078125 C85.708708,14.5598961 85.9561014,14.3385441 85.9040178,13.84375 L85.9040178,13.0234375 L81.5680803,13.0234375 Z M88.7165178,8.84375 L88.7165178,8.375 L83.5602678,8.375 L83.5602678,9.546875 L88.0524553,9.546875 C88.5212076,9.5729168 88.7425596,9.33854414 88.7165178,8.84375 Z M81.6852678,7.125 L81.6852678,6.734375 L85.8258928,6.734375 L85.8258928,5.9921875 L86.4508928,5.9921875 L86.4508928,6.734375 L90.5915178,6.734375 L90.5915178,7.125 L81.6852678,7.125 Z" id="尊贵会员-特权专享" fill="url(#linearGradient-5)"></path>
            <polygon id="Line" fill="#D7C699" fill-rule="nonzero" points="0.5 24.5 196.5 24.5 196.5 23.5 0.5 23.5"></polygon>
            <polygon id="Line" fill="#D7C699" fill-rule="nonzero" points="0.5 21.5 192.5 21.5 192.5 20.5 0.5 20.5"></polygon>
            <polygon id="Line" fill="#D7C699" fill-rule="nonzero" points="235.5 23.5 260.5 23.5 260.5 22.5 235.5 22.5"></polygon>
            <polygon id="Line" fill="#D7C699" fill-rule="nonzero" points="237.5 20.5 260.5 20.5 260.5 19.5 237.5 19.5"></polygon>
            <path d="M213.482334,7.92094087 C213.652992,7.62580255 213.555473,7.25687965 213.262915,7.08471563 C212.994737,6.91255161 212.62904,7.01093105 212.458382,7.30606937 L203.706028,22.0629855 L200.170955,7.45363853 C200.097815,7.13390535 199.780878,6.93714647 199.46394,7.03552591 C199.122623,7.10931049 198.927584,7.42904367 199.025103,7.74877685 L202.901494,23.7600308 C202.925874,23.8338154 202.950254,23.9076 202.999013,23.9813846 L203.096532,24.079764 C203.120912,24.1043589 203.145292,24.1043589 203.169672,24.1289537 L203.194052,24.1289537 C203.218432,24.1535486 203.267191,24.1781434 203.315951,24.2027383 L203.340331,24.2027383 C203.38909,24.2273332 203.43785,24.2273332 203.486609,24.2273332 C203.535369,24.2273332 203.584129,24.2273332 203.632888,24.2027383 L203.657268,24.2027383 C203.681648,24.1781434 203.730408,24.1781434 203.754787,24.1535486 C203.779167,24.1535486 203.779167,24.1289537 203.803547,24.1289537 C203.827927,24.1043589 203.852307,24.1043589 203.876687,24.079764 C203.876687,24.0551691 203.901066,24.0551691 203.901066,24.0305743 L203.998586,23.9321948 L213.482334,7.92094087 Z M216.139734,24.3011177 C216.432291,24.3011177 216.67609,24.1043589 216.724849,23.8092205 L219.528528,7.79796657 C219.577288,7.47823339 219.357869,7.15850021 219.040932,7.10931049 C218.723994,7.06012077 218.407056,7.25687965 218.358297,7.60120769 L215.554618,23.6124616 C215.505858,23.9321948 215.700897,24.251928 216.042214,24.3011177 L216.139734,24.3011177 Z M225.90385,7.03552591 L230.731053,7.03552591 C231.925664,7.03552591 232.973996,7.47823339 233.72977,8.24067406 C234.485545,8.97851986 234.900002,10.0360988 234.900002,11.1920573 C234.900002,11.4871956 234.875622,11.7577391 234.826862,12.0528774 C234.339266,14.7337171 231.901284,16.8488751 229.219505,16.87347 L224.879897,16.87347 L223.685286,23.7600308 C223.636527,24.0551691 223.392729,24.251928 223.100171,24.251928 C223.075791,24.251928 223.027031,24.251928 223.002652,24.2273332 C222.685714,24.1781434 222.466296,23.8584103 222.515055,23.5386771 L225.318734,7.52742311 C225.367494,7.23228479 225.635672,7.03552591 225.90385,7.03552591 Z M233.705391,11.1920573 C233.705391,9.47041706 232.535159,8.26526892 230.731053,8.24067406 L226.391446,8.24067406 L225.099316,15.6683218 L229.219505,15.6683218 C231.243029,15.6929167 233.315314,13.9220868 233.656631,11.8561185 C233.705391,11.6347648 233.705391,11.413411 233.705391,11.1920573 Z" id="VIP" fill="url(#linearGradient-6)"></path>
        </g>
    </g>
</svg>