<?xml version="1.0" encoding="UTF-8"?>
<svg width="208px" height="13px" viewBox="0 0 208 13" version="1.1" xmlns="http://www.w3.org/2000/svg" xmlns:xlink="http://www.w3.org/1999/xlink">
    <!-- Generator: Sketch 49 (51002) - http://www.bohemiancoding.com/sketch -->
    <title>更多专属权益请至“我的权益”查看</title>
    <desc>Created with Sketch.</desc>
    <defs>
        <linearGradient x1="100%" y1="50%" x2="3.28591087%" y2="50%" id="linearGradient-1">
            <stop stop-color="#29BFF6" offset="0%"></stop>
            <stop stop-color="#7374FF" offset="100%"></stop>
        </linearGradient>
    </defs>
    <g id="新人有礼-V3.0-完全新人" stroke="none" stroke-width="1" fill="none" fill-rule="evenodd">
        <g id="新人有礼弹窗-02" transform="translate(-89.000000, -711.000000)" fill="url(#linearGradient-1)">
            <path d="M96.3759766,713.413086 L96.3759766,714.098633 L98.4199219,714.098633 C99.0123728,714.098633 99.4567042,714.221353 99.7529297,714.466797 C100.049155,714.712241 100.197266,715.114255 100.197266,715.672852 L100.197266,717.666016 C100.197266,717.970705 100.148601,718.281737 100.05127,718.599121 C99.9539383,718.916505 99.7360043,719.092122 99.3974609,719.125977 C99.0589176,719.159831 98.7330745,719.176758 98.4199219,719.176758 L96.3251953,719.189453 C96.291341,719.468751 96.2553713,719.741698 96.2172852,720.008301 C96.179199,720.274904 96.0966803,720.640948 95.9697266,721.106445 C96.1136075,721.174154 96.3632795,721.2736 96.71875,721.404785 C97.0742205,721.535971 97.628577,721.656575 98.3818359,721.766602 L99.3339844,721.868164 C100.31576,721.978191 100.891275,722.067057 101.060547,722.134766 C101.229819,722.202474 101.316569,722.367512 101.320801,722.629883 C101.325033,722.892254 101.280599,723.082682 101.1875,723.201172 C101.018228,723.421225 100.696617,723.514323 100.222656,723.480469 C98.8684828,723.404296 97.8380569,723.260418 97.1313477,723.048828 C96.4246384,722.837239 95.7327508,722.57064 95.0556641,722.249023 C94.3277958,722.722984 93.5364626,723.063638 92.6816406,723.270996 C91.8268186,723.478354 91.166669,723.573568 90.7011719,723.556641 C90.1425753,723.548177 89.8590495,723.364097 89.8505859,723.004395 C89.8421224,722.644692 89.9140617,722.401368 90.0664062,722.274414 C90.1510421,722.206705 90.2483718,722.162272 90.3583984,722.141113 C90.468425,722.119954 90.6948225,722.103027 91.0375977,722.090332 C91.3803728,722.077637 91.8225884,722.009929 92.3642578,721.887207 C92.9059272,721.764485 93.3248683,721.597332 93.6210938,721.385742 C93.4348949,721.267252 93.2804368,721.159343 93.1577148,721.062012 C93.0349929,720.964681 92.8847665,720.831381 92.7070312,720.662109 C92.529296,720.492838 92.4086917,720.353191 92.3452148,720.243164 C92.281738,720.133137 92.2457683,720.02946 92.2373047,719.932129 C92.2288411,719.834798 92.2753901,719.701498 92.3769531,719.532227 C92.4785161,719.362955 92.6435535,719.265625 92.8720703,719.240234 C93.1005871,719.214844 93.2656245,719.233886 93.3671875,719.297363 C93.4687505,719.36084 93.6083975,719.492024 93.7861328,719.690918 C93.9638681,719.889812 94.2431622,720.11621 94.6240234,720.370117 C94.6663414,720.217773 94.7001952,720.090821 94.7255859,719.989258 C94.7509767,719.887695 94.793294,719.621096 94.8525391,719.189453 L92.5419922,719.176758 C91.6956338,719.176758 91.2237961,718.954592 91.1264648,718.510254 C91.0291336,718.065916 90.9804688,717.754884 90.9804688,717.577148 L90.9804688,715.672852 C90.9804688,715.495116 91.0143226,715.188316 91.0820312,714.752441 C91.1497399,714.316567 91.6956329,714.098633 92.7197266,714.098633 L94.890625,714.098633 L94.890625,713.413086 L90.3583984,713.413086 C90.1129545,713.413086 89.9309902,713.343262 89.8125,713.203613 C89.6940098,713.063964 89.6432291,712.879884 89.6601562,712.651367 C89.6940106,712.228188 89.9267557,712.016602 90.3583984,712.016602 L100.692383,712.016602 C100.853191,712.016602 100.994954,712.077962 101.117676,712.200684 C101.240398,712.323406 101.303874,712.496906 101.308105,712.721191 C101.312337,712.945476 101.250977,713.116861 101.124023,713.235352 C100.99707,713.353842 100.853191,713.413086 100.692383,713.413086 L96.3759766,713.413086 Z M94.890625,717.831055 L94.890625,717.24707 L92.4404297,717.24707 L92.4404297,717.526367 C92.4404297,717.636394 92.4615883,717.714681 92.5039062,717.76123 C92.5462242,717.80778 92.6393222,717.831055 92.7832031,717.831055 L94.890625,717.831055 Z M92.4404297,715.977539 L94.890625,715.977539 L94.890625,715.40625 L92.8085938,715.40625 C92.6562492,715.40625 92.5568036,715.433756 92.5102539,715.48877 C92.4637042,715.543783 92.4404297,715.638997 92.4404297,715.774414 L92.4404297,715.977539 Z M96.3759766,715.977539 L98.7373047,715.977539 L98.7373047,715.774414 C98.7373047,715.630533 98.7097985,715.533203 98.6547852,715.482422 C98.5997719,715.43164 98.5003262,715.40625 98.3564453,715.40625 L96.3759766,715.40625 L96.3759766,715.977539 Z M96.3759766,717.24707 L96.3759766,717.831055 L98.3564453,717.831055 C98.6103528,717.831055 98.7373047,717.725261 98.7373047,717.513672 L98.7373047,717.24707 L96.3759766,717.24707 Z M106.849609,716.167969 C106.739583,716.049479 106.654948,715.960612 106.595703,715.901367 L106.316406,715.647461 C106.172525,715.50358 106.102702,715.340658 106.106934,715.158691 C106.111165,714.976724 106.210611,714.828614 106.405273,714.714355 C106.599936,714.600097 106.764973,714.5472 106.900391,714.555664 C107.018881,714.572591 107.145833,714.623372 107.28125,714.708008 L107.776367,715.152344 L108.131836,715.469727 C108.758141,715.071938 109.200357,714.779949 109.458496,714.59375 C109.716635,714.407551 109.83724,714.289063 109.820312,714.238281 C109.803385,714.1875 109.701824,714.162109 109.515625,714.162109 L106.760742,714.162109 C106.625325,714.272136 106.326988,714.494302 105.865723,714.828613 C105.404457,715.162925 105.010907,715.406249 104.685059,715.558594 C104.359211,715.710938 104.098959,715.672853 103.904297,715.444336 C103.709634,715.215819 103.625,715.004233 103.650391,714.80957 C103.667318,714.665689 103.724446,714.540853 103.821777,714.435059 C103.919109,714.329264 104.181476,714.162111 104.608887,713.933594 C105.036298,713.705077 105.442544,713.417319 105.827637,713.070312 C106.21273,712.723306 106.502603,712.43978 106.697266,712.219727 C106.891928,711.999673 107.092935,711.794435 107.300293,711.604004 C107.507651,711.413573 107.757323,711.415689 108.049316,711.610352 C108.34131,711.805014 108.487305,712.0166 108.487305,712.245117 C108.478841,712.46517 108.339194,712.697915 108.068359,712.943359 L110.163086,712.943359 C111.170252,712.943359 111.673828,713.273434 111.673828,713.933594 C111.665365,714.289064 111.515138,714.625487 111.223145,714.942871 C110.931151,715.260255 110.237147,715.776526 109.141113,716.491699 C108.045079,717.206872 106.94483,717.746417 105.840332,718.110352 C104.735834,718.474286 104.073569,718.639323 103.853516,718.605469 C103.447264,718.554687 103.244141,718.385418 103.244141,718.097656 C103.244141,717.809894 103.29069,717.606771 103.383789,717.488281 C103.443034,717.412109 103.540364,717.346517 103.675781,717.291504 C103.811199,717.236491 104.23014,717.107423 104.932617,716.904297 C105.635095,716.701171 106.274086,716.455731 106.849609,716.167969 Z M108.081055,721.360352 L107.928711,721.131836 L107.484375,720.598633 C107.42513,720.49707 107.393392,720.365886 107.38916,720.205078 C107.384928,720.04427 107.482258,719.89616 107.681152,719.760742 C107.880047,719.625325 108.068358,719.566081 108.246094,719.583008 C108.423829,719.608399 108.605793,719.714192 108.791992,719.900391 L109.198242,720.433594 L109.477539,720.776367 C109.722983,720.666341 109.879557,720.590169 109.947266,720.547852 C110.014974,720.505534 110.222329,720.365887 110.569336,720.128906 C110.916343,719.891926 111.119466,719.748047 111.178711,719.697266 L111.508789,719.367188 C111.593425,719.282552 111.627279,719.214844 111.610352,719.164062 C111.593424,719.113281 111.479168,719.083659 111.267578,719.075195 L108.614258,719.0625 C106.980786,719.942713 106.001141,720.384928 105.675293,720.38916 C105.349445,720.393392 105.108236,720.319337 104.95166,720.166992 C104.795084,720.014648 104.746419,719.815756 104.805664,719.570312 C104.831055,719.434895 104.898762,719.318523 105.008789,719.221191 C105.118816,719.12386 105.427732,718.988445 105.935547,718.814941 C106.443362,718.641438 106.951169,718.408693 107.458984,718.116699 C107.966799,717.824706 108.351887,717.581381 108.614258,717.386719 C108.876629,717.192056 109.143228,716.978354 109.414062,716.745605 C109.684897,716.512857 109.913411,716.333008 110.099609,716.206055 C110.285808,716.079101 110.495279,716.108723 110.728027,716.294922 C110.960776,716.481121 111.083496,716.648274 111.096191,716.796387 C111.108887,716.944499 111.081381,717.082031 111.013672,717.208984 C110.9375,717.335938 110.76823,717.509439 110.505859,717.729492 L111.661133,717.729492 C112.846035,717.729492 113.434245,718.114579 113.425781,718.884766 C113.417318,719.240236 113.31364,719.557616 113.114746,719.836914 C112.915852,720.116212 112.418624,720.579587 111.623047,721.227051 C110.82747,721.874515 109.596037,722.447914 107.928711,722.947266 C106.261385,723.446617 105.089196,723.67513 104.412109,723.632812 C103.921222,723.607422 103.639812,723.45508 103.567871,723.175781 C103.495931,722.896483 103.498046,722.676433 103.574219,722.515625 C103.684245,722.270181 103.933917,722.126302 104.323242,722.083984 L105.478516,721.995117 C106.341801,721.910481 107.209306,721.698895 108.081055,721.360352 Z M119.773438,715.723633 C119.891928,715.359699 119.959635,715.131185 119.976562,715.038086 L120.09082,714.454102 L117.488281,714.454102 C117.302082,714.454102 117.139161,714.392741 116.999512,714.27002 C116.859863,714.147298 116.787923,713.973797 116.783691,713.749512 C116.77946,713.525227 116.847167,713.345378 116.986816,713.209961 C117.126466,713.074544 117.293619,713.006836 117.488281,713.006836 L120.395508,713.006836 C120.437826,712.786783 120.469564,712.570965 120.490723,712.359375 C120.511882,712.147785 120.562662,711.944662 120.643066,711.75 C120.72347,711.555338 120.996417,711.491862 121.461914,711.55957 C121.825848,711.618815 122.056477,711.711913 122.153809,711.838867 C122.25114,711.965821 122.28711,712.13509 122.261719,712.34668 C122.236328,712.499024 122.181316,712.719074 122.09668,713.006836 L125.422852,713.006836 C125.617514,713.006836 125.77832,713.080891 125.905273,713.229004 C126.032227,713.377117 126.095703,713.548502 126.095703,713.743164 C126.08724,713.937826 126.021648,714.10498 125.898926,714.244629 C125.776204,714.384278 125.617514,714.454102 125.422852,714.454102 L121.766602,714.454102 C121.665039,714.868817 121.559245,715.29199 121.449219,715.723633 L126.552734,715.723633 C126.764324,715.723633 126.929361,715.797688 127.047852,715.945801 C127.166342,716.093914 127.225586,716.273762 127.225586,716.485352 C127.217122,716.680014 127.155762,716.845051 127.041504,716.980469 C126.927246,717.115886 126.764324,717.183594 126.552734,717.183594 L121.09375,717.183594 L120.928711,717.678711 C120.877929,717.831055 120.863118,717.926269 120.884277,717.964355 C120.905436,718.002442 120.932943,718.025716 120.966797,718.03418 C121.000651,718.042643 121.102213,718.046875 121.271484,718.046875 L123.912109,718.046875 C124.360679,718.046875 124.694986,718.087076 124.915039,718.16748 C125.135092,718.247885 125.30013,718.379068 125.410156,718.561035 C125.520183,718.743002 125.554037,718.944009 125.511719,719.164062 C125.435546,719.485679 124.805019,720.281244 123.620117,721.550781 C124.297204,721.872397 124.699218,722.079752 124.826172,722.172852 C124.953126,722.265951 125.052571,722.40983 125.124512,722.604492 C125.196452,722.799155 125.137208,723.048827 124.946777,723.353516 C124.756347,723.658205 124.436851,723.742839 123.988281,723.607422 C123.861327,723.573568 123.653973,723.474122 123.366211,723.309082 C123.078449,723.144042 122.619307,722.915529 121.98877,722.623535 C121.358233,722.331542 120.890627,722.122071 120.585938,721.995117 L119.494141,721.576172 C119.274087,721.5 119.130209,721.415365 119.0625,721.322266 C118.994791,721.229166 118.948242,721.095867 118.922852,720.922363 C118.897461,720.74886 118.939778,720.566895 119.049805,720.376465 C119.159831,720.186034 119.316405,720.06543 119.519531,720.014648 C119.654949,719.989258 119.949054,720.063313 120.401855,720.236816 C120.854657,720.41032 121.457679,720.649413 122.210938,720.954102 C122.608726,720.590167 122.896483,720.298178 123.074219,720.078125 L123.353516,719.722656 C123.412761,719.646484 123.440267,719.591472 123.436035,719.557617 C123.431803,719.523763 123.414876,719.492025 123.385254,719.462402 C123.355631,719.43278 123.235027,719.417969 123.023438,719.417969 L120.217773,719.417969 C119.566077,719.417969 119.200033,719.291017 119.119629,719.037109 C119.039225,718.783202 119.011719,718.575847 119.037109,718.415039 C119.045573,718.313476 119.109049,718.089194 119.227539,717.742188 L119.417969,717.183594 L116.383789,717.183594 C116.19759,717.183594 116.034669,717.122234 115.89502,716.999512 C115.75537,716.87679 115.685547,716.705405 115.685547,716.485352 C115.685547,716.265298 115.751139,716.087566 115.882324,715.952148 C116.01351,715.816731 116.180663,715.744792 116.383789,715.736328 L119.773438,715.723633 Z M130.996094,714.78418 C130.996094,714.919597 130.993978,715.137531 130.989746,715.437988 C130.985514,715.738446 130.974935,716.371089 130.958008,717.335938 C130.941081,718.300786 130.902995,719.121741 130.84375,719.798828 C130.784505,720.475915 130.695639,720.973143 130.577148,721.290527 C130.458658,721.607912 130.323243,721.931639 130.170898,722.261719 C130.018554,722.591799 129.847169,722.862629 129.656738,723.074219 C129.466308,723.285808 129.189129,723.26465 128.825195,723.010742 C128.715169,722.943034 128.622071,722.83724 128.545898,722.693359 C128.469726,722.549478 128.444336,722.375978 128.469727,722.172852 C128.47819,722.054361 128.524739,721.910483 128.609375,721.741211 L128.825195,721.322266 C129.019858,720.916014 129.170084,720.473798 129.275879,719.995605 C129.381674,719.517413 129.443034,718.952477 129.459961,718.300781 C129.476888,717.649085 129.485352,716.938155 129.485352,716.167969 L129.472656,713.133789 C129.464193,712.727537 129.574218,712.418621 129.802734,712.207031 C130.031251,711.995442 130.526363,711.889648 131.288086,711.889648 L138.080078,711.889648 C138.680993,711.889648 139.085123,711.972167 139.29248,712.137207 C139.499838,712.302247 139.633138,712.494791 139.692383,712.714844 C139.751628,712.934897 139.78125,713.104166 139.78125,713.222656 L139.78125,713.56543 C139.78125,713.717774 139.75586,713.884927 139.705078,714.066895 C139.654297,714.248862 139.542156,714.413899 139.368652,714.562012 C139.195149,714.710124 138.765628,714.78418 138.080078,714.78418 L130.996094,714.78418 Z M130.996094,713.679688 L138.016602,713.679688 C138.236655,713.679688 138.34668,713.607748 138.34668,713.463867 L138.34668,713.349609 C138.34668,713.180338 138.22396,713.095703 137.978516,713.095703 L131.415039,713.095703 C131.152668,713.095703 131.017253,713.129557 131.008789,713.197266 C131.000325,713.264974 130.996094,713.324218 130.996094,713.375 L130.996094,713.679688 Z M136.31543,716.21875 L136.31543,716.675781 L137.610352,716.675781 C138.6683,716.675781 139.197266,717.03971 139.197266,717.767578 L139.197266,718.110352 C139.197266,718.279623 139.165528,718.442545 139.102051,718.599121 C139.038574,718.755697 138.922201,718.901692 138.75293,719.037109 C138.583658,719.172527 138.198571,719.240234 137.597656,719.240234 L136.31543,719.25293 L136.31543,719.68457 L138.511719,719.671875 C139.154951,719.671875 139.611978,719.777668 139.882812,719.989258 C140.153647,720.200847 140.289062,720.530922 140.289062,720.979492 L140.289062,722.71875 C140.289062,723.031903 140.191733,723.235026 139.99707,723.328125 C139.802408,723.421224 139.548504,723.497396 139.235352,723.556641 C138.922199,723.615886 138.706381,723.632813 138.587891,723.607422 C138.359374,723.582031 138.204916,723.510092 138.124512,723.391602 C138.044108,723.273111 138.00179,723.11019 137.997559,722.902832 C137.993327,722.695474 138.029296,722.545248 138.105469,722.452148 C138.173177,722.359049 138.238769,722.306152 138.302246,722.293457 C138.365723,722.280762 138.450358,722.272298 138.556152,722.268066 C138.661947,722.263835 138.733887,722.242676 138.771973,722.20459 C138.810059,722.166504 138.829102,722.088217 138.829102,721.969727 L138.829102,721.131836 C138.829102,720.954101 138.710613,720.861003 138.473633,720.852539 L137.610352,720.839844 C137.77116,721.093751 137.904459,721.315917 138.010254,721.506348 C138.116049,721.696778 138.160482,721.876627 138.143555,722.045898 C138.126628,722.164389 138.063152,722.284993 137.953125,722.407715 C137.843098,722.530437 137.673829,722.579102 137.445312,722.553711 C137.301432,722.545247 137.191407,722.469076 137.115234,722.325195 C136.8444,722.375977 136.268885,722.466959 135.388672,722.598145 C134.508459,722.72933 133.958334,722.773763 133.738281,722.731445 C133.5944,722.714518 133.475912,722.663737 133.382812,722.579102 C133.289713,722.494466 133.232585,722.392904 133.211426,722.274414 C133.190267,722.155924 133.202962,722.028972 133.249512,721.893555 C133.296061,721.758137 133.387044,721.656576 133.522461,721.588867 C133.581706,721.563476 133.755207,721.550781 134.042969,721.550781 L134.525391,721.525391 L134.842773,721.538086 L134.842773,720.839844 L132.963867,720.852539 C132.760741,720.861003 132.65918,720.962564 132.65918,721.157227 L132.65918,722.921875 C132.65918,723.048829 132.602051,723.171549 132.487793,723.290039 C132.373535,723.408529 132.197918,723.476237 131.960938,723.493164 C131.723957,723.510091 131.546225,723.444499 131.427734,723.296387 C131.309244,723.148274 131.25,723.014975 131.25,722.896484 L131.25,721.004883 C131.25,720.116206 131.78743,719.671875 132.862305,719.671875 L134.842773,719.68457 L134.842773,719.25293 L133.49707,719.240234 C132.743811,719.240234 132.305827,719.111167 132.183105,718.853027 C132.060384,718.594888 131.999023,718.360027 131.999023,718.148438 L131.999023,717.767578 C131.999023,717.36979 132.125975,717.08838 132.379883,716.92334 C132.63379,716.7583 133.014646,716.675781 133.522461,716.675781 L134.842773,716.675781 L134.842773,716.244141 C134.62272,716.244141 133.924485,716.252604 132.748047,716.269531 C132.113278,716.286458 131.723959,716.231446 131.580078,716.104492 C131.436197,715.977538 131.381185,715.795574 131.415039,715.558594 C131.431966,715.406249 131.480631,715.294108 131.561035,715.222168 C131.641439,715.150228 131.787434,715.105794 131.999023,715.088867 C132.100586,715.088867 132.335447,715.099447 132.703613,715.120605 C133.071779,715.141764 133.52669,715.148112 134.068359,715.139648 L135.236328,715.139648 C135.786461,715.139648 136.330238,715.120606 136.867676,715.08252 C137.405113,715.044433 137.811359,715.012695 138.086426,714.987305 C138.361492,714.961914 138.541341,714.944987 138.625977,714.936523 C138.820639,714.936523 138.970865,714.96403 139.07666,715.019043 C139.182455,715.074056 139.26709,715.173502 139.330566,715.317383 C139.394043,715.461264 139.42155,715.583984 139.413086,715.685547 C139.379232,715.897136 139.239585,716.032552 138.994141,716.091797 C138.748697,716.151042 137.855802,716.193359 136.31543,716.21875 Z M134.855469,718.199219 L134.842773,717.704102 L133.649414,717.704102 C133.446288,717.704102 133.344727,717.767577 133.344727,717.894531 L133.344727,718.008789 C133.344727,718.135743 133.433593,718.199219 133.611328,718.199219 L134.855469,718.199219 Z M136.31543,720.839844 L136.31543,721.461914 L136.670898,721.411133 C136.645508,721.368815 136.626465,721.326498 136.61377,721.28418 C136.601074,721.241862 136.596842,721.186849 136.601074,721.119141 C136.605306,721.051432 136.683593,720.962566 136.835938,720.852539 L136.31543,720.839844 Z M136.31543,718.199219 L137.458008,718.199219 C137.661134,718.199219 137.762695,718.139975 137.762695,718.021484 L137.762695,717.894531 C137.762695,717.767577 137.648439,717.704102 137.419922,717.704102 L136.31543,717.704102 L136.31543,718.199219 Z M149.582031,718.770508 C149.802084,718.347329 150.028482,717.875491 150.26123,717.35498 C150.493979,716.83447 150.675943,716.239912 150.807129,715.571289 C150.938314,714.902666 150.999675,714.52181 150.991211,714.428711 C150.974284,714.369466 150.953125,714.325033 150.927734,714.29541 C150.902344,714.265788 150.821941,714.250977 150.686523,714.250977 L147.042969,714.250977 C146.85677,714.250977 146.689617,714.189616 146.541504,714.066895 C146.393391,713.944173 146.31722,713.783367 146.312988,713.584473 C146.308756,713.385578 146.376464,713.207846 146.516113,713.05127 C146.655762,712.894693 146.831379,712.816406 147.042969,712.816406 L150.788086,712.816406 C151.693689,712.816406 152.214192,712.941242 152.349609,713.190918 C152.485027,713.440594 152.556966,713.624674 152.56543,713.743164 C152.573893,713.861654 152.573893,714.026692 152.56543,714.238281 L152.552734,714.479492 C152.51888,714.911135 152.406739,715.467607 152.216309,716.148926 C152.025878,716.830244 151.83545,717.409991 151.64502,717.888184 C151.454589,718.366376 151.084313,719.083654 150.53418,720.040039 C150.957359,720.505536 151.359373,720.858886 151.740234,721.100098 C152.121096,721.34131 152.482908,721.540201 152.825684,721.696777 C153.168459,721.853354 153.373698,722.001464 153.441406,722.141113 C153.509115,722.280762 153.538737,722.414062 153.530273,722.541016 C153.504883,722.752605 153.407553,722.93457 153.238281,723.086914 C153.06901,723.239259 152.861655,723.302735 152.616211,723.277344 C152.26074,723.251953 151.784671,723.027671 151.187988,722.604492 C150.591306,722.181313 150.047528,721.720055 149.556641,721.220703 C148.735673,721.880863 148.035322,722.378091 147.455566,722.712402 C146.875811,723.046714 146.450522,723.222331 146.179688,723.239258 C145.824217,723.273112 145.580893,723.192709 145.449707,722.998047 C145.318521,722.803384 145.261393,722.62142 145.27832,722.452148 C145.286784,722.232095 145.360839,722.067058 145.500488,721.957031 C145.640137,721.847005 145.989255,721.694662 146.547852,721.5 C147.106448,721.305338 147.783525,720.818689 148.579102,720.040039 C148.384439,719.73535 148.213054,719.445477 148.064941,719.17041 C147.916829,718.895344 147.760255,718.522952 147.595215,718.053223 C147.430175,717.583494 147.28418,717.08415 147.157227,716.555176 C147.030273,716.026202 146.958333,715.702475 146.941406,715.583984 C146.924479,715.465494 146.9139,715.357585 146.909668,715.260254 C146.905436,715.162923 146.928711,715.063477 146.979492,714.961914 C147.089519,714.741861 147.296873,714.614909 147.601562,714.581055 C147.897788,714.555664 148.105143,714.623372 148.223633,714.78418 C148.342123,714.944988 148.428873,715.188312 148.483887,715.51416 C148.5389,715.840008 148.587565,716.100259 148.629883,716.294922 C148.672201,716.489584 148.750488,716.770994 148.864746,717.13916 C148.979004,717.507326 149.061523,717.733724 149.112305,717.818359 L149.582031,718.770508 Z M143.488281,715.698242 L142.21875,715.685547 C142.057942,715.685547 141.907716,715.622071 141.768066,715.495117 C141.628417,715.368163 141.562825,715.198894 141.571289,714.987305 C141.571289,714.775715 141.643228,714.608562 141.787109,714.48584 C141.93099,714.363118 142.074869,714.301758 142.21875,714.301758 L143.577148,714.301758 L143.577148,712.308594 C143.577148,712.173176 143.634277,712.035645 143.748535,711.895996 C143.862794,711.756347 144.023599,711.682292 144.230957,711.673828 C144.438315,711.665365 144.622395,711.722493 144.783203,711.845215 C144.944011,711.967937 145.024414,712.122395 145.024414,712.308594 L145.024414,714.301758 L145.671875,714.301758 C145.82422,714.301758 145.953287,714.363118 146.059082,714.48584 C146.164877,714.608562 146.224121,714.758788 146.236816,714.936523 C146.249512,715.114259 146.200847,715.283528 146.09082,715.444336 C145.980794,715.605144 145.841147,715.685547 145.671875,715.685547 L145.024414,715.698242 L145.024414,716.891602 C145.159831,716.806966 145.295247,716.764648 145.430664,716.764648 C145.599936,716.781576 145.743815,716.845052 145.862305,716.955078 C145.980795,717.065105 146.137369,717.26188 146.332031,717.54541 C146.526694,717.82894 146.655761,718.053222 146.719238,718.218262 C146.782715,718.383302 146.797526,718.533528 146.763672,718.668945 C146.729818,718.804363 146.628256,718.950357 146.458984,719.106934 C146.289713,719.26351 146.090821,719.316407 145.862305,719.265625 C145.701497,719.240234 145.574545,719.164063 145.481445,719.037109 L145.316406,718.732422 L145.024414,718.262695 L145.024414,722.959961 C145.024414,723.120769 144.954591,723.260416 144.814941,723.378906 C144.675292,723.497396 144.501791,723.558756 144.294434,723.562988 C144.087076,723.56722 143.915691,723.503744 143.780273,723.372559 C143.644856,723.241373 143.577148,723.082683 143.577148,722.896484 L143.577148,719.100586 C143.29785,719.489911 142.997397,719.885577 142.675781,720.287598 C142.354165,720.689618 142.015627,720.793295 141.660156,720.598633 C141.431639,720.488606 141.294108,720.315105 141.247559,720.078125 C141.201009,719.841145 141.24121,719.612631 141.368164,719.392578 C141.418946,719.307942 141.689776,719.037112 142.180664,718.580078 C142.671552,718.123045 143.10742,717.162442 143.488281,715.698242 Z M158.25293,715.152344 L155.625,715.152344 C155.421874,715.152344 155.252605,715.080404 155.117188,714.936523 C154.98177,714.792643 154.918294,714.636069 154.926758,714.466797 C154.926758,714.229817 155.009277,714.058432 155.174316,713.952637 C155.339356,713.846842 155.489583,713.793945 155.625,713.793945 L158.0625,713.793945 C157.994791,713.650064 157.931315,713.516765 157.87207,713.394043 C157.812825,713.271321 157.736654,713.138022 157.643555,712.994141 L157.415039,712.651367 C157.313476,712.490559 157.260579,712.340333 157.256348,712.200684 C157.252116,712.061034 157.313476,711.923503 157.44043,711.788086 C157.567383,711.652669 157.75358,711.568034 157.999023,711.53418 C158.244467,711.500325 158.434895,711.568033 158.570312,711.737305 C158.70573,711.906576 158.870767,712.145669 159.06543,712.45459 C159.260092,712.763511 159.374349,712.949707 159.408203,713.013184 C159.442057,713.07666 159.486491,713.186685 159.541504,713.343262 C159.596517,713.499838 159.624023,713.603515 159.624023,713.654297 L159.624023,713.806641 L161.401367,713.806641 C161.375976,713.713541 161.365397,713.639486 161.369629,713.584473 C161.373861,713.529459 161.390788,713.472331 161.42041,713.413086 C161.450033,713.353841 161.536783,713.21631 161.680664,713.000488 C161.824545,712.784667 161.966308,712.5223 162.105957,712.213379 C162.245606,711.904458 162.353515,711.711914 162.429688,711.635742 C162.50586,711.55957 162.62858,711.508789 162.797852,711.483398 C162.967123,711.458008 163.14274,711.510904 163.324707,711.64209 C163.506674,711.773275 163.608236,711.906575 163.629395,712.041992 C163.650553,712.17741 163.631511,712.35091 163.572266,712.5625 C163.513021,712.77409 163.288739,713.188799 162.899414,713.806641 L165.311523,713.793945 C165.480795,713.793945 165.645833,713.851074 165.806641,713.965332 C165.967449,714.07959 166.054199,714.240396 166.066895,714.447754 C166.07959,714.655112 166.005535,714.824381 165.844727,714.955566 C165.683918,715.086752 165.506186,715.152344 165.311523,715.152344 L162.467773,715.152344 C162.890953,715.397788 163.568029,715.801918 164.499023,716.364746 C165.430018,716.927574 165.984374,717.28304 166.162109,717.431152 C166.339845,717.579265 166.430827,717.767577 166.435059,717.996094 C166.43929,718.224611 166.356772,718.415038 166.1875,718.567383 C166.018228,718.719727 165.844727,718.795898 165.666992,718.795898 C165.506184,718.804362 165.370769,718.772624 165.260742,718.700684 C165.150716,718.628743 164.956056,718.484864 164.676758,718.269043 C164.39746,718.053222 163.944665,717.744305 163.318359,717.342285 C162.692054,716.940265 162.184247,716.63558 161.794922,716.428223 C161.405597,716.220865 161.170736,716.079102 161.090332,716.00293 C161.009928,715.926757 160.965495,715.791342 160.957031,715.59668 C160.948568,715.452799 160.995117,715.304688 161.09668,715.152344 L159.573242,715.152344 C159.683269,715.304688 159.73405,715.448567 159.725586,715.583984 C159.708659,715.702475 159.653646,715.831542 159.560547,715.971191 C159.467447,716.110841 159.177574,716.398598 158.690918,716.834473 C158.204262,717.270347 157.580082,717.697752 156.818359,718.116699 C156.056637,718.535647 155.578451,718.753581 155.383789,718.770508 C155.19759,718.795899 155.015626,718.757813 154.837891,718.65625 C154.660155,718.554687 154.571289,718.364259 154.571289,718.084961 C154.571289,717.864908 154.632649,717.704102 154.755371,717.602539 C154.878093,717.500976 155.106606,717.388835 155.440918,717.266113 C155.77523,717.143391 156.232256,716.885256 156.812012,716.491699 C157.391767,716.098143 157.872068,715.651695 158.25293,715.152344 Z M156.145508,721.957031 L156.145508,719.773438 C156.145508,719.544921 156.162435,719.312176 156.196289,719.075195 C156.230143,718.838215 156.346516,718.64144 156.54541,718.484863 C156.744304,718.328287 157.182288,718.25 157.859375,718.25 L163.394531,718.25 C164.080082,718.25 164.518065,718.330403 164.708496,718.491211 C164.898927,718.652019 165.008952,718.819172 165.038574,718.992676 C165.068197,719.166179 165.083008,719.426431 165.083008,719.773438 L165.083008,721.957031 L165.946289,721.957031 C166.149415,721.957031 166.310221,722.026855 166.428711,722.166504 C166.547201,722.306153 166.606445,722.452148 166.606445,722.604492 C166.597982,722.807618 166.523926,722.97054 166.384277,723.093262 C166.244628,723.215984 166.098634,723.277344 165.946289,723.277344 L155.294922,723.277344 C155.184895,723.277344 155.045248,723.232911 154.875977,723.144043 C154.706705,723.055175 154.619954,722.909181 154.615723,722.706055 C154.611491,722.502929 154.668619,722.327312 154.787109,722.179199 C154.9056,722.031086 155.074869,721.957031 155.294922,721.957031 L156.145508,721.957031 Z M157.554688,721.957031 L158.709961,721.957031 L158.709961,719.506836 L158.011719,719.506836 C157.774738,719.506836 157.635091,719.551269 157.592773,719.640137 C157.550456,719.729004 157.533529,719.849609 157.541992,720.001953 L157.554688,721.957031 Z M160.081055,721.957031 L161.185547,721.957031 L161.185547,719.506836 L160.081055,719.506836 L160.081055,721.957031 Z M162.556641,721.957031 L163.673828,721.957031 L163.673828,720.001953 C163.673828,719.7819 163.629395,719.644369 163.540527,719.589355 C163.45166,719.534342 163.335287,719.506836 163.191406,719.506836 L162.556641,719.506836 L162.556641,721.957031 Z M174.490234,715.698242 L174.490234,715.266602 L172.509766,715.253906 C172.357421,715.253906 172.209311,715.207357 172.06543,715.114258 C171.921549,715.021158 171.83903,714.883627 171.817871,714.70166 C171.796712,714.519693 171.858072,714.363119 172.001953,714.231934 C172.145834,714.100748 172.310871,714.035156 172.49707,714.035156 L174.490234,714.035156 L174.490234,713.603516 L172.06543,713.616211 C171.896158,713.624675 171.748048,713.569662 171.621094,713.451172 C171.49414,713.332682 171.424316,713.182455 171.411621,713.000488 C171.398926,712.818521 171.468749,712.664063 171.621094,712.537109 C171.773438,712.410156 171.930012,712.34668 172.09082,712.34668 L174.490234,712.34668 L174.490234,712.003906 C174.490234,711.868489 174.543131,711.739421 174.648926,711.616699 C174.754721,711.493977 174.926106,711.430501 175.163086,711.42627 C175.400066,711.422038 175.596842,711.481282 175.753418,711.604004 C175.909994,711.726726 175.988281,711.868489 175.988281,712.029297 L175.988281,712.34668 L178.514648,712.34668 C178.68392,712.34668 178.836262,712.414387 178.97168,712.549805 C179.107097,712.685222 179.168457,712.850259 179.155762,713.044922 C179.143066,713.239584 179.069011,713.385579 178.933594,713.48291 C178.798176,713.580241 178.666993,713.624675 178.540039,713.616211 L175.988281,713.603516 L175.988281,714.035156 L177.803711,714.035156 C177.956055,714.035156 178.095702,714.098632 178.222656,714.225586 C178.34961,714.35254 178.413086,714.504882 178.413086,714.682617 C178.404622,714.851889 178.343262,714.98942 178.229004,715.095215 C178.114746,715.20101 177.972983,715.253906 177.803711,715.253906 L175.988281,715.266602 L175.988281,715.698242 L178.819336,715.698242 C178.920899,715.698242 179.037271,715.740559 179.168457,715.825195 C179.299643,715.909831 179.36735,716.05371 179.371582,716.256836 C179.375814,716.459962 179.31657,716.620768 179.193848,716.739258 C179.071126,716.857748 178.929363,716.916992 178.768555,716.916992 L171.621094,716.916992 C171.477213,716.916992 171.33545,716.866211 171.195801,716.764648 C171.056152,716.663085 170.99056,716.506511 170.999023,716.294922 C170.999023,716.108723 171.073079,715.962728 171.221191,715.856934 C171.369304,715.751139 171.527994,715.698242 171.697266,715.698242 L174.490234,715.698242 Z M176.96582,721.449219 L173.525391,721.449219 L173.525391,722.896484 C173.525391,723.040365 173.459799,723.180012 173.328613,723.31543 C173.197428,723.450847 173.017579,723.50586 172.789062,723.480469 C172.679036,723.472005 172.545736,723.419109 172.38916,723.321777 C172.232584,723.224446 172.154297,723.082683 172.154297,722.896484 L172.154297,718.605469 C172.154297,718.097654 172.283365,717.74642 172.541504,717.551758 C172.799643,717.357095 173.2207,717.259766 173.804688,717.259766 L176.762695,717.259766 C177.295901,717.259766 177.702147,717.365559 177.981445,717.577148 C178.260744,717.788738 178.400391,718.144203 178.400391,718.643555 L178.400391,722.401367 C178.400391,722.646811 178.319988,722.904947 178.15918,723.175781 C177.998372,723.446616 177.444015,723.573568 176.496094,723.556641 C176.140623,723.556641 175.931153,723.476238 175.867676,723.31543 C175.804199,723.154622 175.780924,722.972657 175.797852,722.769531 C175.823242,722.397134 175.950194,722.181315 176.178711,722.12207 C176.212565,722.113607 176.331054,722.115723 176.53418,722.128418 C176.737306,722.141113 176.860026,722.113607 176.902344,722.045898 C176.944662,721.97819 176.96582,721.889323 176.96582,721.779297 L176.96582,721.449219 Z M173.525391,718.87207 L176.96582,718.87207 L176.96582,718.668945 C176.96582,718.558919 176.946778,718.489095 176.908691,718.459473 C176.870605,718.42985 176.792318,718.415039 176.673828,718.415039 L173.868164,718.415039 C173.639647,718.415039 173.525391,718.49121 173.525391,718.643555 L173.525391,718.87207 Z M176.96582,720.357422 L176.96582,719.951172 L173.525391,719.951172 L173.525391,720.357422 L176.96582,720.357422 Z M170.453125,720.662109 C170.597006,720.543619 170.743001,720.414551 170.891113,720.274902 C171.039226,720.135253 171.168294,720.048503 171.27832,720.014648 C171.506837,719.963867 171.718424,720.04427 171.913086,720.255859 C172.107748,720.467449 172.103517,720.759438 171.900391,721.131836 C171.790364,721.326498 171.502606,721.635415 171.037109,722.058594 L170.503906,722.553711 C170.013018,722.968427 169.659669,723.165202 169.443848,723.144043 C169.228026,723.122884 169.048178,722.987469 168.904297,722.737793 C168.760416,722.488117 168.726562,722.227866 168.802734,721.957031 L169.005859,721.474609 C169.048177,721.356119 169.069336,721.233399 169.069336,721.106445 L169.069336,716.828125 C169.069336,716.692708 169.050293,716.603841 169.012207,716.561523 C168.974121,716.519206 168.883139,716.498047 168.739258,716.498047 L168.015625,716.498047 C167.914062,716.498047 167.801921,716.449382 167.679199,716.352051 C167.556477,716.25472 167.499349,716.074871 167.507812,715.8125 C167.516276,715.643228 167.581868,715.484539 167.70459,715.336426 C167.827312,715.188313 167.973306,715.114258 168.142578,715.114258 L168.942383,715.114258 C169.492516,715.114258 169.871255,715.224283 170.078613,715.444336 C170.285971,715.664389 170.400228,715.892902 170.421387,716.129883 C170.442546,716.366863 170.453125,716.561523 170.453125,716.713867 L170.453125,720.662109 Z M168.955078,712.854492 C168.878906,712.736002 168.842936,712.602703 168.847168,712.45459 C168.8514,712.306477 168.923339,712.152019 169.062988,711.991211 C169.202637,711.830403 169.41634,711.762695 169.704102,711.788086 C169.966473,711.82194 170.224608,711.991209 170.478516,712.295898 C170.732423,712.600587 170.905924,712.837564 170.999023,713.006836 C171.092123,713.176108 171.10905,713.370767 171.049805,713.59082 C171.007487,713.70931 170.89323,713.865884 170.707031,714.060547 C170.520832,714.255209 170.27116,714.246746 169.958008,714.035156 C169.898763,714.001302 169.759116,713.836265 169.539062,713.540039 L169.145508,713.095703 C169.035481,712.977213 168.972005,712.89681 168.955078,712.854492 Z M185.827148,721.588867 L185.827148,720.014648 L182.729492,720.014648 C182.585611,720.014648 182.441732,719.961752 182.297852,719.855957 C182.153971,719.750162 182.079915,719.591472 182.075684,719.379883 C182.071452,719.168293 182.132812,718.992676 182.259766,718.853027 C182.386719,718.713378 182.543293,718.643555 182.729492,718.643555 L185.827148,718.643555 L185.827148,717.869141 C185.827148,717.716796 185.890624,717.56657 186.017578,717.418457 C186.144532,717.270344 186.330728,717.194173 186.576172,717.189941 C186.821616,717.18571 187.020507,717.255533 187.172852,717.399414 C187.325196,717.543295 187.401367,717.699869 187.401367,717.869141 L187.388672,718.643555 L190.384766,718.643555 C190.562501,718.643555 190.719075,718.709146 190.854492,718.840332 C190.98991,718.971518 191.059733,719.140787 191.063965,719.348145 C191.068197,719.555502 190.998373,719.718424 190.854492,719.836914 C190.710611,719.955404 190.554037,720.014648 190.384766,720.014648 L187.388672,720.014648 L187.388672,721.588867 L191.552734,721.588867 C191.75586,721.588867 191.92513,721.658691 192.060547,721.79834 C192.195964,721.937989 192.263672,722.113606 192.263672,722.325195 C192.255208,722.790692 192.018231,723.023438 191.552734,723.023438 L181.472656,723.023438 C181.261067,723.023438 181.093913,722.962077 180.971191,722.839355 C180.848469,722.716634 180.787109,722.477541 180.787109,722.12207 C180.787109,721.7666 181.015623,721.588867 181.472656,721.588867 L185.827148,721.588867 Z M187.020508,713.654297 C186.935872,713.865886 186.838542,714.020345 186.728516,714.117676 C186.618489,714.215007 186.288414,714.456216 185.738281,714.841309 C185.188148,715.226402 184.773439,715.50358 184.494141,715.672852 C185.2474,715.715169 185.846189,715.729981 186.290527,715.717285 C186.734866,715.70459 187.536778,715.638998 188.696289,715.520508 C188.620117,715.418945 188.565104,715.338542 188.53125,715.279297 L188.150391,714.796875 C188.040364,714.636067 187.987467,714.485841 187.991699,714.346191 C187.995931,714.206542 188.072102,714.073243 188.220215,713.946289 C188.368328,713.819335 188.531249,713.755859 188.708984,713.755859 C188.88672,713.764323 189.072916,713.840494 189.267578,713.984375 C189.462241,714.128256 189.887529,714.581051 190.543457,715.342773 C191.199385,716.104496 191.527344,716.620767 191.527344,716.891602 C191.51888,717.120118 191.440593,717.295735 191.29248,717.418457 C191.144368,717.541179 190.98991,717.606771 190.829102,717.615234 C190.668293,717.623698 190.513835,717.585612 190.365723,717.500977 C190.21761,717.416341 190.03353,717.187827 189.813477,716.81543 C188.196932,716.942383 186.140312,717.03125 183.643555,717.082031 C183.203448,717.098958 182.841636,717.088379 182.558105,717.050293 C182.274575,717.012207 182.056641,716.910645 181.904297,716.745605 C181.751952,716.580566 181.688476,716.400717 181.713867,716.206055 C181.730794,715.977538 181.874673,715.772299 182.145508,715.590332 C182.416342,715.408365 182.721027,715.220053 183.05957,715.025391 C183.398114,714.830728 183.685871,714.659343 183.922852,714.51123 C184.159832,714.363118 184.515297,714.077476 184.989258,713.654297 L181.612305,713.654297 C181.383788,713.654297 181.218751,713.578126 181.117188,713.425781 C181.015624,713.273437 180.969075,713.112631 180.977539,712.943359 C180.977539,712.73177 181.034667,712.564616 181.148926,712.441895 C181.263184,712.319173 181.417642,712.257812 181.612305,712.257812 L191.413086,712.257812 C191.599285,712.257812 191.753743,712.321288 191.876465,712.448242 C191.999187,712.575196 192.062663,712.750813 192.066895,712.975098 C192.071126,713.199383 192.011882,713.368652 191.88916,713.48291 C191.766438,713.597169 191.607748,713.654297 191.413086,713.654297 L187.020508,713.654297 Z M204.019531,713.006836 C204.070313,713.006836 204.127441,713.008952 204.190918,713.013184 C204.254395,713.017415 204.336914,713.044922 204.438477,713.095703 C204.54004,713.146485 204.643717,713.231119 204.749512,713.349609 C204.855307,713.4681 204.908203,713.6416 204.908203,713.870117 C204.89974,714.115561 204.806642,714.322916 204.628906,714.492188 C204.451171,714.661459 204.231121,714.74821 203.96875,714.752441 C203.706379,714.756673 203.494792,714.678386 203.333984,714.517578 C203.173176,714.35677 203.077962,714.151531 203.04834,713.901855 C203.018717,713.65218 203.067382,713.404624 203.194336,713.15918 C203.236654,713.06608 203.340331,712.913738 203.505371,712.702148 C203.670411,712.490559 203.795247,712.342448 203.879883,712.257812 L204.273438,711.902344 C204.34961,711.826171 204.421549,711.777507 204.489258,711.756348 C204.556966,711.735189 204.609863,711.745768 204.647949,711.788086 C204.686035,711.830404 204.696615,711.885416 204.679688,711.953125 C204.66276,711.995443 204.618327,712.052571 204.546387,712.124512 C204.474446,712.196452 204.396159,712.298014 204.311523,712.429199 C204.226888,712.560385 204.129558,712.752928 204.019531,713.006836 Z M201.620117,713.006836 C201.670899,713.006836 201.728027,713.008952 201.791504,713.013184 C201.854981,713.017415 201.937499,713.044922 202.039062,713.095703 C202.140626,713.146485 202.244303,713.231119 202.350098,713.349609 C202.455892,713.4681 202.508789,713.6416 202.508789,713.870117 C202.500325,714.115561 202.407227,714.322916 202.229492,714.492188 C202.051757,714.661459 201.831707,714.74821 201.569336,714.752441 C201.306965,714.756673 201.095378,714.678386 200.93457,714.517578 C200.773762,714.35677 200.680664,714.151531 200.655273,713.901855 C200.629883,713.65218 200.676432,713.404624 200.794922,713.15918 C200.83724,713.06608 200.940917,712.913738 201.105957,712.702148 C201.270997,712.490559 201.395833,712.342448 201.480469,712.257812 L201.874023,711.902344 C201.950196,711.826171 202.022135,711.777507 202.089844,711.756348 C202.157552,711.735189 202.210449,711.745768 202.248535,711.788086 C202.286621,711.830404 202.297201,711.885416 202.280273,711.953125 C202.263346,711.995443 202.218913,712.052571 202.146973,712.124512 C202.075032,712.196452 201.996745,712.298014 201.912109,712.429199 C201.827474,712.560385 201.730144,712.752928 201.620117,713.006836 Z M209.364258,715.152344 L209.364258,713.99707 C208.272455,714.276369 207.652507,714.4139 207.504395,714.409668 C207.356282,714.405436 207.201824,714.333497 207.041016,714.193848 C206.880208,714.054199 206.808268,713.853191 206.825195,713.59082 C206.833659,713.413085 206.88444,713.27767 206.977539,713.18457 C207.070638,713.091471 207.174316,713.027995 207.288574,712.994141 C207.402833,712.960286 207.775225,712.888347 208.405762,712.77832 C209.036299,712.668294 209.694333,712.448244 210.379883,712.118164 C211.065433,711.788084 211.533039,711.718261 211.782715,711.908691 C212.032391,712.099122 212.144531,712.329751 212.119141,712.600586 C212.09375,712.795248 212.013347,712.949706 211.87793,713.063965 C211.742512,713.178223 211.399742,713.324218 210.849609,713.501953 L210.849609,715.152344 L212.728516,715.152344 C212.694661,714.449866 212.675619,713.944175 212.671387,713.635254 C212.667155,713.326333 212.669271,712.977215 212.677734,712.587891 C212.677734,712.317056 212.724283,712.099122 212.817383,711.934082 C212.910482,711.769042 213.155922,711.67806 213.553711,711.661133 C213.951499,711.644206 214.167318,711.919268 214.201172,712.486328 C214.201172,712.570964 214.199056,712.687336 214.194824,712.835449 C214.190592,712.983562 214.192708,713.290362 214.201172,713.755859 L214.201172,714.771484 L214.213867,715.152344 L217.451172,715.152344 C217.628907,715.152344 217.79606,715.217936 217.952637,715.349121 C218.109213,715.480307 218.1875,715.664387 218.1875,715.901367 C218.179036,716.146811 218.096518,716.333007 217.939941,716.459961 C217.783365,716.586915 217.620444,716.650391 217.451172,716.650391 L214.31543,716.650391 C214.349284,717.022788 214.402181,717.418455 214.474121,717.837402 C214.546062,718.25635 214.615885,718.554687 214.683594,718.732422 L214.810547,719.113281 C214.971355,718.85091 215.085612,718.647787 215.15332,718.503906 L215.610352,717.450195 C215.779623,717.111652 216.0166,716.946615 216.321289,716.955078 C216.532879,716.972005 216.721191,717.060872 216.88623,717.22168 C217.05127,717.382488 217.138021,717.524251 217.146484,717.646973 C217.154948,717.769695 217.129558,717.911458 217.070312,718.072266 C216.99414,718.250001 216.854493,718.535643 216.651367,718.929199 C216.448241,719.322756 216.321289,719.557617 216.270508,719.633789 L215.572266,720.636719 C216.046226,721.263024 216.372069,721.57194 216.549805,721.563477 C216.592123,721.563477 216.638672,721.550781 216.689453,721.525391 C216.740235,721.5 216.793131,721.400554 216.848145,721.227051 C216.903158,721.053547 216.949707,720.901205 216.987793,720.77002 C217.025879,720.638834 217.07666,720.528809 217.140137,720.439941 C217.203614,720.351074 217.332681,720.29183 217.527344,720.262207 C217.722006,720.232584 217.903971,720.268554 218.073242,720.370117 C218.242514,720.47168 218.344075,720.581705 218.37793,720.700195 C218.411784,720.818685 218.424479,720.932942 218.416016,721.042969 C218.399088,721.178386 218.346192,721.444985 218.257324,721.842773 C218.168457,722.240562 217.999187,722.653155 217.749512,723.080566 C217.499836,723.507977 217.27767,723.732259 217.083008,723.753418 C216.888345,723.774577 216.689454,723.72168 216.486328,723.594727 C216.283202,723.476236 215.99756,723.247723 215.629395,722.90918 C215.261229,722.570636 214.899416,722.177086 214.543945,721.728516 C214.146157,722.067059 213.826661,722.323079 213.585449,722.496582 C213.344237,722.670086 213.10726,722.822428 212.874512,722.953613 C212.641763,723.084799 212.436524,723.152506 212.258789,723.156738 C212.081054,723.16097 211.899089,723.089031 211.712891,722.940918 C211.526692,722.792805 211.431478,722.610841 211.427246,722.39502 C211.423014,722.179198 211.465332,722.018392 211.554199,721.912598 C211.643067,721.806803 211.799641,721.705241 212.023926,721.60791 C212.248211,721.510579 212.546548,721.345542 212.918945,721.112793 C213.291343,720.880044 213.574869,720.645183 213.769531,720.408203 C213.667968,720.205077 213.570638,719.993491 213.477539,719.773438 C213.38444,719.553384 213.282878,719.195803 213.172852,718.700684 C213.062825,718.205564 212.986654,717.74219 212.944336,717.310547 L212.868164,716.650391 L210.849609,716.650391 L210.849609,718.021484 C211.552087,717.792968 211.945638,717.674479 212.030273,717.666016 C212.495771,717.649088 212.741211,717.820473 212.766602,718.180176 C212.791992,718.539878 212.703126,718.795898 212.5,718.948242 C212.432291,718.999024 212.347657,719.045573 212.246094,719.087891 C212.144531,719.130209 211.679041,719.278319 210.849609,719.532227 L210.849609,722.426758 C210.849609,722.689129 210.798829,722.915526 210.697266,723.105957 C210.595703,723.296388 210.371421,723.442382 210.024414,723.543945 C209.677407,723.645508 209.368491,723.696289 209.097656,723.696289 C208.234371,723.730143 207.811198,723.433922 207.828125,722.807617 C207.836589,722.418292 208.043943,722.206706 208.450195,722.172852 C208.492513,722.172852 208.625813,722.181315 208.850098,722.198242 C209.074383,722.215169 209.216146,722.183431 209.275391,722.103027 C209.334636,722.022623 209.364258,721.88086 209.364258,721.677734 L209.364258,719.989258 C208.450191,720.310874 207.798505,720.475911 207.40918,720.484375 C207.096027,720.501302 206.882325,720.412436 206.768066,720.217773 C206.653808,720.023111 206.59668,719.843263 206.59668,719.678223 C206.59668,719.513183 206.630534,719.375652 206.698242,719.265625 C206.749024,719.189453 206.818847,719.130209 206.907715,719.087891 C206.996582,719.045573 207.313962,718.96517 207.859863,718.84668 C208.405764,718.72819 208.907224,718.597006 209.364258,718.453125 L209.364258,716.650391 L207.320312,716.650391 C207.117186,716.650391 206.945801,716.584799 206.806152,716.453613 C206.666503,716.322428 206.600911,716.138348 206.609375,715.901367 C206.609375,715.664387 206.681314,715.480307 206.825195,715.349121 C206.969076,715.217936 207.134114,715.152344 207.320312,715.152344 L209.364258,715.152344 Z M217.070312,713.895508 C217.070312,714.073243 216.964519,714.28483 216.75293,714.530273 C216.54134,714.775717 216.245119,714.754559 215.864258,714.466797 C215.805013,714.432943 215.644207,714.267905 215.381836,713.97168 L214.899414,713.463867 C214.755533,713.294596 214.67513,713.125326 214.658203,712.956055 C214.641276,712.786783 214.749185,712.58366 214.981934,712.34668 C215.214682,712.109699 215.546873,712.152017 215.978516,712.473633 C216.037761,712.524414 216.23242,712.708495 216.5625,713.025879 C216.89258,713.343263 217.061849,713.633137 217.070312,713.895508 Z M221.551758,713.806641 C221.585612,713.66276 221.623698,713.508302 221.666016,713.343262 C221.708334,713.178222 221.750651,712.922202 221.792969,712.575195 C221.835287,712.228188 221.896647,711.993327 221.977051,711.870605 C222.057455,711.747884 222.245767,711.686523 222.541992,711.686523 C222.846681,711.694987 223.058268,711.773274 223.176758,711.921387 C223.295248,712.069499 223.358724,712.211262 223.367188,712.34668 C223.375651,712.482097 223.341797,712.676757 223.265625,712.930664 C223.197916,713.125326 223.113282,713.417316 223.011719,713.806641 L223.202148,713.806641 C223.777672,713.806641 224.175455,713.908202 224.395508,714.111328 C224.615561,714.314454 224.746745,714.523925 224.789062,714.739746 C224.83138,714.955567 224.852539,715.173502 224.852539,715.393555 L224.852539,721.09375 C224.852539,721.356121 224.822917,721.59733 224.763672,721.817383 C224.704427,722.037436 224.558432,722.246907 224.325684,722.445801 C224.092935,722.644695 223.659183,722.744141 223.024414,722.744141 L221.729492,722.744141 C221.399412,722.744141 221.052411,722.725098 220.688477,722.687012 C220.324542,722.648926 220.11084,722.437339 220.047363,722.052246 C219.983886,721.667153 219.952148,721.347658 219.952148,721.09375 L219.952148,715.393555 C219.952148,715.148111 219.988118,714.822268 220.060059,714.416016 C220.131999,714.009764 220.565751,713.806641 221.361328,713.806641 L221.551758,713.806641 Z M221.424805,717.399414 L223.392578,717.399414 L223.392578,715.672852 C223.392578,715.512043 223.369304,715.385092 223.322754,715.291992 C223.276204,715.198893 223.142905,715.152344 222.922852,715.152344 L221.894531,715.152344 C221.657551,715.152344 221.52002,715.201009 221.481934,715.29834 C221.443847,715.395671 221.424805,715.520507 221.424805,715.672852 L221.424805,717.399414 Z M223.392578,718.732422 L221.424805,718.732422 L221.424805,720.916016 C221.424805,721.042969 221.448079,721.150878 221.494629,721.239746 C221.541179,721.328614 221.674478,721.373047 221.894531,721.373047 L222.922852,721.373047 C223.134441,721.373047 223.265625,721.332845 223.316406,721.252441 C223.367188,721.172037 223.392578,721.059897 223.392578,720.916016 L223.392578,718.732422 Z M227.759766,713.933594 L229.143555,713.933594 C229.837569,713.933594 230.294595,714.030924 230.514648,714.225586 C230.734702,714.420248 230.859538,714.623371 230.88916,714.834961 C230.918783,715.046551 230.933594,715.359698 230.933594,715.774414 L230.933594,717.742188 L230.895508,720.268555 C230.895508,721.182622 230.832032,721.821613 230.705078,722.185547 C230.374998,723.074223 229.554043,723.518555 228.242188,723.518555 C227.861326,723.527018 227.584148,723.450847 227.410645,723.290039 C227.237141,723.129231 227.148275,722.928224 227.144043,722.687012 C227.139811,722.4458 227.209635,722.257488 227.353516,722.12207 C227.429688,722.045898 227.52067,721.997233 227.626465,721.976074 C227.73226,721.954915 227.95231,721.94222 228.286621,721.937988 C228.620933,721.933756 228.862141,721.851238 229.010254,721.69043 C229.158367,721.529622 229.257812,721.288413 229.308594,720.966797 C229.359375,720.645181 229.388997,720.207197 229.397461,719.652832 C229.405925,719.098467 229.410156,718.046883 229.410156,716.498047 L229.410156,715.952148 C229.410156,715.740559 229.384766,715.579753 229.333984,715.469727 C229.283203,715.3597 229.126629,715.304688 228.864258,715.304688 L227.226562,715.304688 C227.108072,715.558595 227.010743,715.757486 226.93457,715.901367 C226.858398,716.045248 226.731446,716.252603 226.553711,716.523438 C226.375976,716.794272 226.223633,716.976237 226.09668,717.069336 C225.969726,717.162435 225.815268,717.2111 225.633301,717.215332 C225.451334,717.219564 225.282065,717.156088 225.125488,717.024902 C224.968912,716.893717 224.888509,716.735027 224.884277,716.548828 C224.880046,716.362629 224.911784,716.210287 224.979492,716.091797 C225.004883,716.041015 225.11914,715.897137 225.322266,715.660156 C225.525392,715.423176 225.698893,715.143882 225.842773,714.822266 C225.986654,714.500649 226.128417,714.128257 226.268066,713.705078 C226.407716,713.281899 226.502929,712.901043 226.553711,712.5625 C226.604492,712.223957 226.665853,711.967937 226.737793,711.794434 C226.809733,711.62093 227.010741,711.53418 227.34082,711.53418 C227.594728,711.542643 227.791503,711.610351 227.931152,711.737305 C228.070801,711.864258 228.149088,712.016601 228.166016,712.194336 C228.182943,712.372071 228.149089,712.600585 228.064453,712.879883 L227.848633,713.628906 L227.759766,713.933594 Z M226.249023,717.526367 C226.435222,717.314778 226.667967,717.219564 226.947266,717.240723 C227.226564,717.261882 227.495279,717.475584 227.753418,717.881836 C228.011557,718.288088 228.187174,718.594888 228.280273,718.802246 C228.373373,719.009604 228.422038,719.193684 228.42627,719.354492 C228.430501,719.5153 228.35433,719.678222 228.197754,719.843262 C228.041178,720.008302 227.852866,720.086589 227.632812,720.078125 C227.43815,720.078125 227.294271,720.031576 227.201172,719.938477 C227.108072,719.845377 227.01709,719.70573 226.928223,719.519531 C226.839355,719.333332 226.769532,719.197917 226.71875,719.113281 C226.667968,719.028645 226.553712,718.846681 226.375977,718.567383 C226.198241,718.288085 226.100912,718.078614 226.083984,717.938965 C226.067057,717.799316 226.12207,717.661785 226.249023,717.526367 Z M240.582031,718.770508 C240.802084,718.347329 241.028482,717.875491 241.26123,717.35498 C241.493979,716.83447 241.675943,716.239912 241.807129,715.571289 C241.938314,714.902666 241.999675,714.52181 241.991211,714.428711 C241.974284,714.369466 241.953125,714.325033 241.927734,714.29541 C241.902344,714.265788 241.821941,714.250977 241.686523,714.250977 L238.042969,714.250977 C237.85677,714.250977 237.689617,714.189616 237.541504,714.066895 C237.393391,713.944173 237.31722,713.783367 237.312988,713.584473 C237.308756,713.385578 237.376464,713.207846 237.516113,713.05127 C237.655762,712.894693 237.831379,712.816406 238.042969,712.816406 L241.788086,712.816406 C242.693689,712.816406 243.214192,712.941242 243.349609,713.190918 C243.485027,713.440594 243.556966,713.624674 243.56543,713.743164 C243.573893,713.861654 243.573893,714.026692 243.56543,714.238281 L243.552734,714.479492 C243.51888,714.911135 243.406739,715.467607 243.216309,716.148926 C243.025878,716.830244 242.83545,717.409991 242.64502,717.888184 C242.454589,718.366376 242.084313,719.083654 241.53418,720.040039 C241.957359,720.505536 242.359373,720.858886 242.740234,721.100098 C243.121096,721.34131 243.482908,721.540201 243.825684,721.696777 C244.168459,721.853354 244.373698,722.001464 244.441406,722.141113 C244.509115,722.280762 244.538737,722.414062 244.530273,722.541016 C244.504883,722.752605 244.407553,722.93457 244.238281,723.086914 C244.06901,723.239259 243.861655,723.302735 243.616211,723.277344 C243.26074,723.251953 242.784671,723.027671 242.187988,722.604492 C241.591306,722.181313 241.047528,721.720055 240.556641,721.220703 C239.735673,721.880863 239.035322,722.378091 238.455566,722.712402 C237.875811,723.046714 237.450522,723.222331 237.179688,723.239258 C236.824217,723.273112 236.580893,723.192709 236.449707,722.998047 C236.318521,722.803384 236.261393,722.62142 236.27832,722.452148 C236.286784,722.232095 236.360839,722.067058 236.500488,721.957031 C236.640137,721.847005 236.989255,721.694662 237.547852,721.5 C238.106448,721.305338 238.783525,720.818689 239.579102,720.040039 C239.384439,719.73535 239.213054,719.445477 239.064941,719.17041 C238.916829,718.895344 238.760255,718.522952 238.595215,718.053223 C238.430175,717.583494 238.28418,717.08415 238.157227,716.555176 C238.030273,716.026202 237.958333,715.702475 237.941406,715.583984 C237.924479,715.465494 237.9139,715.357585 237.909668,715.260254 C237.905436,715.162923 237.928711,715.063477 237.979492,714.961914 C238.089519,714.741861 238.296873,714.614909 238.601562,714.581055 C238.897788,714.555664 239.105143,714.623372 239.223633,714.78418 C239.342123,714.944988 239.428873,715.188312 239.483887,715.51416 C239.5389,715.840008 239.587565,716.100259 239.629883,716.294922 C239.672201,716.489584 239.750488,716.770994 239.864746,717.13916 C239.979004,717.507326 240.061523,717.733724 240.112305,717.818359 L240.582031,718.770508 Z M234.488281,715.698242 L233.21875,715.685547 C233.057942,715.685547 232.907716,715.622071 232.768066,715.495117 C232.628417,715.368163 232.562825,715.198894 232.571289,714.987305 C232.571289,714.775715 232.643228,714.608562 232.787109,714.48584 C232.93099,714.363118 233.074869,714.301758 233.21875,714.301758 L234.577148,714.301758 L234.577148,712.308594 C234.577148,712.173176 234.634277,712.035645 234.748535,711.895996 C234.862794,711.756347 235.023599,711.682292 235.230957,711.673828 C235.438315,711.665365 235.622395,711.722493 235.783203,711.845215 C235.944011,711.967937 236.024414,712.122395 236.024414,712.308594 L236.024414,714.301758 L236.671875,714.301758 C236.82422,714.301758 236.953287,714.363118 237.059082,714.48584 C237.164877,714.608562 237.224121,714.758788 237.236816,714.936523 C237.249512,715.114259 237.200847,715.283528 237.09082,715.444336 C236.980794,715.605144 236.841147,715.685547 236.671875,715.685547 L236.024414,715.698242 L236.024414,716.891602 C236.159831,716.806966 236.295247,716.764648 236.430664,716.764648 C236.599936,716.781576 236.743815,716.845052 236.862305,716.955078 C236.980795,717.065105 237.137369,717.26188 237.332031,717.54541 C237.526694,717.82894 237.655761,718.053222 237.719238,718.218262 C237.782715,718.383302 237.797526,718.533528 237.763672,718.668945 C237.729818,718.804363 237.628256,718.950357 237.458984,719.106934 C237.289713,719.26351 237.090821,719.316407 236.862305,719.265625 C236.701497,719.240234 236.574545,719.164063 236.481445,719.037109 L236.316406,718.732422 L236.024414,718.262695 L236.024414,722.959961 C236.024414,723.120769 235.954591,723.260416 235.814941,723.378906 C235.675292,723.497396 235.501791,723.558756 235.294434,723.562988 C235.087076,723.56722 234.915691,723.503744 234.780273,723.372559 C234.644856,723.241373 234.577148,723.082683 234.577148,722.896484 L234.577148,719.100586 C234.29785,719.489911 233.997397,719.885577 233.675781,720.287598 C233.354165,720.689618 233.015627,720.793295 232.660156,720.598633 C232.431639,720.488606 232.294108,720.315105 232.247559,720.078125 C232.201009,719.841145 232.24121,719.612631 232.368164,719.392578 C232.418946,719.307942 232.689776,719.037112 233.180664,718.580078 C233.671552,718.123045 234.10742,717.162442 234.488281,715.698242 Z M249.25293,715.152344 L246.625,715.152344 C246.421874,715.152344 246.252605,715.080404 246.117188,714.936523 C245.98177,714.792643 245.918294,714.636069 245.926758,714.466797 C245.926758,714.229817 246.009277,714.058432 246.174316,713.952637 C246.339356,713.846842 246.489583,713.793945 246.625,713.793945 L249.0625,713.793945 C248.994791,713.650064 248.931315,713.516765 248.87207,713.394043 C248.812825,713.271321 248.736654,713.138022 248.643555,712.994141 L248.415039,712.651367 C248.313476,712.490559 248.260579,712.340333 248.256348,712.200684 C248.252116,712.061034 248.313476,711.923503 248.44043,711.788086 C248.567383,711.652669 248.75358,711.568034 248.999023,711.53418 C249.244467,711.500325 249.434895,711.568033 249.570312,711.737305 C249.70573,711.906576 249.870767,712.145669 250.06543,712.45459 C250.260092,712.763511 250.374349,712.949707 250.408203,713.013184 C250.442057,713.07666 250.486491,713.186685 250.541504,713.343262 C250.596517,713.499838 250.624023,713.603515 250.624023,713.654297 L250.624023,713.806641 L252.401367,713.806641 C252.375976,713.713541 252.365397,713.639486 252.369629,713.584473 C252.373861,713.529459 252.390788,713.472331 252.42041,713.413086 C252.450033,713.353841 252.536783,713.21631 252.680664,713.000488 C252.824545,712.784667 252.966308,712.5223 253.105957,712.213379 C253.245606,711.904458 253.353515,711.711914 253.429688,711.635742 C253.50586,711.55957 253.62858,711.508789 253.797852,711.483398 C253.967123,711.458008 254.14274,711.510904 254.324707,711.64209 C254.506674,711.773275 254.608236,711.906575 254.629395,712.041992 C254.650553,712.17741 254.631511,712.35091 254.572266,712.5625 C254.513021,712.77409 254.288739,713.188799 253.899414,713.806641 L256.311523,713.793945 C256.480795,713.793945 256.645833,713.851074 256.806641,713.965332 C256.967449,714.07959 257.054199,714.240396 257.066895,714.447754 C257.07959,714.655112 257.005535,714.824381 256.844727,714.955566 C256.683918,715.086752 256.506186,715.152344 256.311523,715.152344 L253.467773,715.152344 C253.890953,715.397788 254.568029,715.801918 255.499023,716.364746 C256.430018,716.927574 256.984374,717.28304 257.162109,717.431152 C257.339845,717.579265 257.430827,717.767577 257.435059,717.996094 C257.43929,718.224611 257.356772,718.415038 257.1875,718.567383 C257.018228,718.719727 256.844727,718.795898 256.666992,718.795898 C256.506184,718.804362 256.370769,718.772624 256.260742,718.700684 C256.150716,718.628743 255.956056,718.484864 255.676758,718.269043 C255.39746,718.053222 254.944665,717.744305 254.318359,717.342285 C253.692054,716.940265 253.184247,716.63558 252.794922,716.428223 C252.405597,716.220865 252.170736,716.079102 252.090332,716.00293 C252.009928,715.926757 251.965495,715.791342 251.957031,715.59668 C251.948568,715.452799 251.995117,715.304688 252.09668,715.152344 L250.573242,715.152344 C250.683269,715.304688 250.73405,715.448567 250.725586,715.583984 C250.708659,715.702475 250.653646,715.831542 250.560547,715.971191 C250.467447,716.110841 250.177574,716.398598 249.690918,716.834473 C249.204262,717.270347 248.580082,717.697752 247.818359,718.116699 C247.056637,718.535647 246.578451,718.753581 246.383789,718.770508 C246.19759,718.795899 246.015626,718.757813 245.837891,718.65625 C245.660155,718.554687 245.571289,718.364259 245.571289,718.084961 C245.571289,717.864908 245.632649,717.704102 245.755371,717.602539 C245.878093,717.500976 246.106606,717.388835 246.440918,717.266113 C246.77523,717.143391 247.232256,716.885256 247.812012,716.491699 C248.391767,716.098143 248.872068,715.651695 249.25293,715.152344 Z M247.145508,721.957031 L247.145508,719.773438 C247.145508,719.544921 247.162435,719.312176 247.196289,719.075195 C247.230143,718.838215 247.346516,718.64144 247.54541,718.484863 C247.744304,718.328287 248.182288,718.25 248.859375,718.25 L254.394531,718.25 C255.080082,718.25 255.518065,718.330403 255.708496,718.491211 C255.898927,718.652019 256.008952,718.819172 256.038574,718.992676 C256.068197,719.166179 256.083008,719.426431 256.083008,719.773438 L256.083008,721.957031 L256.946289,721.957031 C257.149415,721.957031 257.310221,722.026855 257.428711,722.166504 C257.547201,722.306153 257.606445,722.452148 257.606445,722.604492 C257.597982,722.807618 257.523926,722.97054 257.384277,723.093262 C257.244628,723.215984 257.098634,723.277344 256.946289,723.277344 L246.294922,723.277344 C246.184895,723.277344 246.045248,723.232911 245.875977,723.144043 C245.706705,723.055175 245.619954,722.909181 245.615723,722.706055 C245.611491,722.502929 245.668619,722.327312 245.787109,722.179199 C245.9056,722.031086 246.074869,721.957031 246.294922,721.957031 L247.145508,721.957031 Z M248.554688,721.957031 L249.709961,721.957031 L249.709961,719.506836 L249.011719,719.506836 C248.774738,719.506836 248.635091,719.551269 248.592773,719.640137 C248.550456,719.729004 248.533529,719.849609 248.541992,720.001953 L248.554688,721.957031 Z M251.081055,721.957031 L252.185547,721.957031 L252.185547,719.506836 L251.081055,719.506836 L251.081055,721.957031 Z M253.556641,721.957031 L254.673828,721.957031 L254.673828,720.001953 C254.673828,719.7819 254.629395,719.644369 254.540527,719.589355 C254.45166,719.534342 254.335287,719.506836 254.191406,719.506836 L253.556641,719.506836 L253.556641,721.957031 Z M260.107401,713.501957 C260.056623,713.510419 259.993154,713.518881 259.916992,713.527344 C259.84082,713.535807 259.756185,713.523112 259.663086,713.489258 C259.569987,713.455403 259.462077,713.383464 259.339355,713.273438 C259.216634,713.163411 259.14681,712.98991 259.129883,712.75293 C259.112956,712.515949 259.178547,712.300131 259.32666,712.105469 C259.474773,711.910806 259.67578,711.79655 259.929688,711.762695 C260.183595,711.728841 260.403645,711.783853 260.589844,711.927734 C260.776043,712.071615 260.896647,712.259927 260.95166,712.492676 C261.006673,712.725424 260.991862,712.977212 260.907227,713.248047 C260.847981,713.408855 260.767579,713.576008 260.666016,713.749512 C260.564453,713.923015 260.454428,714.081705 260.335938,714.225586 L259.993164,714.631836 C259.916992,714.724935 259.847168,714.78418 259.783691,714.80957 C259.720215,714.834961 259.665202,714.828613 259.618652,714.790527 C259.572103,714.752441 259.557292,714.699545 259.574219,714.631836 C259.574219,714.597982 259.608073,714.540853 259.675781,714.460449 C259.74349,714.380045 259.809082,714.274252 259.872559,714.143066 C259.936035,714.011881 259.988932,713.87435 260.03125,713.730469 C260.072937,713.588732 260.098198,713.512702 260.107032,713.502377 L260.107401,713.501957 Z M260.107032,713.502377 C260.107166,713.50222 260.107296,713.502079 260.107422,713.501953 C260.107415,713.501954 260.107408,713.501955 260.107401,713.501957 L260.107032,713.502377 Z M262.481435,713.501955 C262.430655,713.510418 262.367183,713.518881 262.291016,713.527344 C262.214843,713.535807 262.130209,713.523112 262.037109,713.489258 C261.94401,713.455403 261.836101,713.383464 261.713379,713.273438 C261.590657,713.163411 261.518718,712.98991 261.497559,712.75293 C261.4764,712.515949 261.541991,712.300131 261.694336,712.105469 C261.84668,711.910806 262.049803,711.79655 262.303711,711.762695 C262.557618,711.728841 262.777668,711.783853 262.963867,711.927734 C263.150066,712.071615 263.27067,712.259927 263.325684,712.492676 C263.380697,712.725424 263.365886,712.977212 263.28125,713.248047 C263.222005,713.408855 263.141602,713.576008 263.040039,713.749512 C262.938476,713.923015 262.828451,714.081705 262.709961,714.225586 L262.367188,714.631836 C262.291015,714.724935 262.221192,714.78418 262.157715,714.80957 C262.094238,714.834961 262.041341,714.828613 261.999023,714.790527 C261.956706,714.752441 261.94401,714.699545 261.960938,714.631836 C261.960938,714.597982 261.992675,714.538737 262.056152,714.454102 C262.119629,714.369466 262.189453,714.255209 262.265625,714.111328 C262.341797,713.967447 262.394694,713.832032 262.424316,713.705078 C262.453636,713.579425 262.47259,713.51181 262.481182,713.502232 L262.481435,713.501955 Z M262.481182,713.502232 C262.481271,713.502133 262.481359,713.50204 262.481445,713.501953 C262.481442,713.501954 262.481438,713.501954 262.481435,713.501955 L262.481182,713.502232 Z M275.646484,714.339844 L272.663086,714.339844 C272.519205,714.339844 272.366863,714.284831 272.206055,714.174805 C272.045247,714.064778 271.977539,713.870119 272.00293,713.59082 C272.011393,713.446939 272.076985,713.303061 272.199707,713.15918 C272.322429,713.015299 272.481119,712.943359 272.675781,712.943359 L276.750977,712.943359 L276.763672,712.232422 C276.763672,712.122395 276.812337,711.997559 276.909668,711.85791 C277.006999,711.718261 277.201659,711.646322 277.493652,711.64209 C277.785646,711.637858 277.986653,711.711913 278.09668,711.864258 C278.206706,712.016602 278.261719,712.139322 278.261719,712.232422 L278.261719,712.943359 L282.425781,712.943359 C282.569662,712.943359 282.707193,713.006835 282.838379,713.133789 C282.969564,713.260743 283.039388,713.438475 283.047852,713.666992 C283.056315,713.895509 282.98226,714.064778 282.825684,714.174805 C282.669107,714.284831 282.531576,714.339844 282.413086,714.339844 L279.34082,714.339844 C279.569337,714.585288 279.77246,714.782063 279.950195,714.930176 C280.127931,715.078289 280.483396,715.304686 281.016602,715.609375 C281.549807,715.914064 282.032224,716.119303 282.463867,716.225098 C282.89551,716.330892 283.17692,716.438802 283.308105,716.548828 C283.439291,716.658855 283.506999,716.832356 283.51123,717.069336 C283.515462,717.306316 283.437175,717.488281 283.276367,717.615234 C283.115559,717.742188 282.914552,717.809896 282.67334,717.818359 C282.432128,717.826823 281.911625,717.638511 281.111816,717.253418 C280.312008,716.868325 279.736493,716.540366 279.385254,716.269531 C279.034015,715.998697 278.659507,715.66439 278.261719,715.266602 L278.261719,716.282227 C278.261719,716.451498 278.191895,716.622883 278.052246,716.796387 C277.912597,716.96989 277.724285,717.052409 277.487305,717.043945 C277.233397,717.043945 277.049317,716.957195 276.935059,716.783691 C276.8208,716.610188 276.763672,716.443035 276.763672,716.282227 L276.750977,715.330078 C276.141599,715.846357 275.354497,716.394366 274.389648,716.974121 C273.4248,717.553877 272.790041,717.839518 272.485352,717.831055 C272.19759,717.831055 271.988119,717.750652 271.856934,717.589844 C271.725748,717.429036 271.660156,717.253419 271.660156,717.062988 C271.660156,716.872558 271.732096,716.705404 271.875977,716.561523 C271.943685,716.493815 272.153156,716.392253 272.504395,716.256836 C272.855633,716.121419 273.255532,715.945802 273.704102,715.72998 C274.152672,715.514159 274.800126,715.050785 275.646484,714.339844 Z M279.112305,717.234375 C279.8571,717.276693 280.345865,717.38037 280.578613,717.54541 C280.811362,717.71045 280.961588,717.909341 281.029297,718.14209 C281.097006,718.374838 281.130859,718.626626 281.130859,718.897461 L281.130859,720.116211 C281.130859,720.488609 281.092774,720.78483 281.016602,721.004883 C280.940429,721.224936 280.802898,721.4069 280.604004,721.550781 C280.40511,721.694662 279.907882,721.766602 279.112305,721.766602 L275.697266,721.766602 C274.994788,721.766602 274.537761,721.696778 274.326172,721.557129 C274.114582,721.41748 273.977051,721.250326 273.913574,721.055664 C273.850097,720.861002 273.818359,720.552085 273.818359,720.128906 L273.818359,718.897461 C273.818359,718.685871 273.850097,718.457358 273.913574,718.211914 C273.977051,717.96647 274.127277,717.742189 274.364258,717.539062 C274.601238,717.335936 275.04557,717.234375 275.697266,717.234375 L279.112305,717.234375 Z M279.645508,720.078125 L275.291016,720.078125 L275.291016,720.28125 C275.291016,720.374349 275.305827,720.448405 275.335449,720.503418 C275.365072,720.558431 275.472981,720.585938 275.65918,720.585938 L279.213867,720.585938 C279.501629,720.585938 279.645508,720.480144 279.645508,720.268555 L279.645508,720.078125 Z M275.291016,718.910156 L279.645508,718.910156 L279.645508,718.745117 C279.645508,718.618163 279.611654,718.535645 279.543945,718.497559 C279.476237,718.459472 279.353517,718.44043 279.175781,718.44043 L275.68457,718.44043 C275.540689,718.44043 275.439128,718.474284 275.379883,718.541992 C275.320638,718.609701 275.291016,718.660482 275.291016,718.694336 L275.291016,718.910156 Z M282.56543,723.455078 L272.358398,723.455078 C272.19759,723.455078 272.041016,723.402182 271.888672,723.296387 C271.736327,723.190592 271.660156,723.019207 271.660156,722.782227 C271.660156,722.545246 271.742675,722.369629 271.907715,722.255371 C272.072755,722.141113 272.222981,722.083984 272.358398,722.083984 L282.56543,722.083984 C282.692383,722.083984 282.836262,722.136881 282.99707,722.242676 C283.157878,722.348471 283.240397,722.502929 283.244629,722.706055 C283.248861,722.909181 283.187501,723.084797 283.060547,723.23291 C282.933593,723.381023 282.768556,723.455078 282.56543,723.455078 Z M289.649414,717.399414 L293.216797,717.399414 C293.978519,717.399414 294.486327,717.500976 294.740234,717.704102 C294.994142,717.907228 295.121094,718.283851 295.121094,718.833984 L295.121094,721.893555 C295.121094,722.155926 295.091472,722.384439 295.032227,722.579102 C294.972981,722.773764 294.829103,722.951497 294.600586,723.112305 C294.372069,723.273113 293.910811,723.353516 293.216797,723.353516 L289.166992,723.353516 C288.472978,723.353516 288.01172,723.270997 287.783203,723.105957 C287.554686,722.940917 287.421387,722.756837 287.383301,722.553711 C287.345215,722.350585 287.330404,722.130535 287.338867,721.893555 L287.351562,719.417969 C286.429032,719.976565 285.790041,720.264323 285.43457,720.28125 C285.0791,720.306641 284.829428,720.205079 284.685547,719.976562 C284.541666,719.748046 284.507812,719.519532 284.583984,719.291016 C284.626302,719.155598 284.698242,719.049805 284.799805,718.973633 C284.901368,718.897461 285.208168,718.781088 285.720215,718.624512 C286.232262,718.467935 286.695636,718.239422 287.110352,717.938965 C287.525067,717.638508 287.888996,717.297853 288.202148,716.916992 L285.43457,716.916992 C285.222981,716.916992 285.057943,716.853516 284.939453,716.726562 C284.820963,716.599609 284.76595,716.45573 284.774414,716.294922 C284.774414,716.083332 284.850585,715.924642 285.00293,715.818848 C285.155274,715.713053 285.299153,715.660156 285.43457,715.660156 L289.040039,715.660156 C289.141602,715.499348 289.230468,715.325847 289.306641,715.139648 L286.500977,715.139648 C286.357096,715.139648 286.208985,715.088868 286.056641,714.987305 C285.904296,714.885742 285.832357,714.720704 285.84082,714.492188 C285.84082,714.289061 285.914876,714.138835 286.062988,714.041504 C286.211101,713.944173 286.357096,713.895508 286.500977,713.895508 L289.700195,713.895508 C289.75944,713.709309 289.810221,713.518881 289.852539,713.324219 C288.599929,713.358073 287.778973,713.370768 287.389648,713.362305 C286.627926,713.362305 286.101076,713.330567 285.809082,713.26709 C285.517088,713.203613 285.400716,712.968752 285.459961,712.5625 C285.502279,712.198566 285.756183,712.003906 286.22168,711.978516 C286.34017,711.978516 286.640623,712.00179 287.123047,712.04834 C287.605471,712.09489 288.358719,712.113932 289.382812,712.105469 C290.508469,712.105469 291.375974,712.082194 291.985352,712.035645 C292.59473,711.989095 293.142738,711.919271 293.629395,711.826172 C294.116051,711.733072 294.414387,711.690755 294.524414,711.699219 C294.744467,711.72461 294.928547,711.81136 295.07666,711.959473 C295.224773,712.107585 295.300944,712.28955 295.305176,712.505371 C295.309408,712.721192 295.197267,712.896809 294.96875,713.032227 C294.867187,713.099935 294.659832,713.152832 294.34668,713.190918 C294.033527,713.229004 293.077156,713.264974 291.477539,713.298828 C291.418294,713.493491 291.363282,713.692382 291.3125,713.895508 L294.587891,713.895508 C294.782553,713.895508 294.939127,713.963215 295.057617,714.098633 C295.176107,714.23405 295.237467,714.39274 295.241699,714.574707 C295.245931,714.756674 295.16976,714.896321 295.013184,714.993652 C294.856607,715.090984 294.714844,715.139648 294.587891,715.139648 L290.931641,715.139648 C290.830078,715.317384 290.745443,715.490885 290.677734,715.660156 L295.844727,715.660156 C295.97168,715.660156 296.096516,715.715169 296.219238,715.825195 C296.34196,715.935222 296.411784,716.096028 296.428711,716.307617 C296.445638,716.519207 296.382162,716.673665 296.238281,716.770996 C296.0944,716.868327 295.963217,716.916992 295.844727,716.916992 L290.017578,716.916992 C289.932942,717.035482 289.810222,717.196288 289.649414,717.399414 Z M293.623047,721.639648 L288.875,721.639648 L288.875,721.90625 C288.875,722.083985 289.006184,722.172852 289.268555,722.172852 L293.216797,722.172852 C293.386069,722.172852 293.496093,722.147461 293.546875,722.09668 C293.597657,722.045898 293.623047,721.969727 293.623047,721.868164 L293.623047,721.639648 Z M293.623047,720.128906 L288.875,720.128906 L288.875,720.662109 L293.623047,720.662109 L293.623047,720.128906 Z M288.875,719.075195 L293.623047,719.075195 L293.623047,718.922852 C293.623047,718.795898 293.595541,718.707032 293.540527,718.65625 C293.485514,718.605468 293.377605,718.580078 293.216797,718.580078 L289.268555,718.580078 C289.006184,718.580078 288.875,718.694335 288.875,718.922852 L288.875,719.075195 Z" id="更多专属权益请至“我的权益”查看"></path>
        </g>
    </g>
</svg>