<?xml version="1.0" encoding="UTF-8"?>
<svg width="300px" height="106px" viewBox="0 0 300 106" version="1.1" xmlns="http://www.w3.org/2000/svg" xmlns:xlink="http://www.w3.org/1999/xlink">
    <!-- Generator: Sketch 49 (51002) - http://www.bohemiancoding.com/sketch -->
    <title>专属特权@2x</title>
    <desc>Created with Sketch.</desc>
    <defs>
        <linearGradient x1="50%" y1="0%" x2="50%" y2="100%" id="linearGradient-1">
            <stop stop-color="#DBE7F7" offset="0%"></stop>
            <stop stop-color="#E6ECF9" stop-opacity="0" offset="100%"></stop>
        </linearGradient>
        <linearGradient x1="100%" y1="50%" x2="-4.61991194%" y2="100%" id="linearGradient-2">
            <stop stop-color="#29BFF6" offset="0%"></stop>
            <stop stop-color="#7374FF" offset="50.3782522%"></stop>
            <stop stop-color="#4387EA" offset="100%"></stop>
        </linearGradient>
    </defs>
    <g id="新人有礼-V3.0-完全新人" stroke="none" stroke-width="1" fill="none" fill-rule="evenodd">
        <g id="新人有礼弹窗-02" transform="translate(-40.000000, -446.000000)">
            <g id="专属特权" transform="translate(40.000000, 444.000000)">
                <g id="Group-20" transform="translate(0.000000, 7.000000)">
                    <path d="M300,101 C300,80.206798 300,52.8734647 300,19 C300,1.02704709 277.608872,20.249688 251.884789,20.0895822 C213,19.8475648 193.795798,0 151.5,0 C109.336153,0 86,19.8475648 51.3119331,19.8475648 C25.4585162,19.8475648 0,0.924603679 0,19 C0,40.7575643 0.166666667,68.0908977 0.5,101 L300,101 Z" id="Oval-4" fill="url(#linearGradient-1)"></path>
                    <polygon id="Star" fill="#909EFB" transform="translate(107.666667, 6.500000) rotate(-18.000000) translate(-107.666667, -6.500000) " points="107.666667 8.83333333 104.923669 10.2754126 105.447535 7.22103965 103.228403 5.05792069 106.295168 4.61229368 107.666667 1.83333333 109.038166 4.61229368 112.10493 5.05792069 109.885799 7.22103965 110.409665 10.2754126"></polygon>
                    <polygon id="Star" fill="#2CBCF6" transform="translate(192.666667, 6.500000) scale(-1, 1) rotate(-18.000000) translate(-192.666667, -6.500000) " points="192.666667 8.83333333 189.923669 10.2754126 190.447535 7.22103965 188.228403 5.05792069 191.295168 4.61229368 192.666667 1.83333333 194.038166 4.61229368 197.10493 5.05792069 194.885799 7.22103965 195.409665 10.2754126"></polygon>
                    <polygon id="Star" fill="#2CBCF6" transform="translate(202.128205, 9.000000) scale(-1, 1) rotate(-18.000000) translate(-202.128205, -9.000000) " points="202.128205 10.7948718 200.018207 11.9041636 200.421181 9.55464589 198.714156 7.89070823 201.073206 7.54791822 202.128205 5.41025641 203.183204 7.54791822 205.542254 7.89070823 203.83523 9.55464589 204.238203 11.9041636"></polygon>
                    <polygon id="Star" fill="#2CBCF6" transform="translate(209.589744, 11.500000) scale(-1, 1) rotate(-18.000000) translate(-209.589744, -11.500000) " points="209.589744 12.7564103 208.112745 13.5329145 208.394826 11.8882521 207.199909 10.7234958 208.851244 10.4835428 209.589744 8.98717949 210.328243 10.4835428 211.979578 10.7234958 210.784661 11.8882521 211.066742 13.5329145"></polygon>
                    <polygon id="Star" fill="#909EFB" transform="translate(98.396720, 9.182138) rotate(-18.000000) translate(-98.396720, -9.182138) " points="98.3967203 11.2663579 96.3394719 12.3479174 96.7323714 10.0571376 95.0680225 8.43479842 97.3680961 8.10057816 98.3967203 6.0163579 99.4253445 8.10057816 101.725418 8.43479842 100.061069 10.0571376 100.453969 12.3479174"></polygon>
                    <polygon id="Star" fill="#909EFB" transform="translate(90.589744, 12.500000) rotate(-18.000000) translate(-90.589744, -12.500000) " points="90.5897436 13.7564103 89.1127448 14.5329145 89.3948264 12.8882521 88.1999093 11.7234958 89.8512442 11.4835428 90.5897436 9.98717949 91.328243 11.4835428 92.9795779 11.7234958 91.7846608 12.8882521 92.0667424 14.5329145"></polygon>
                </g>
                <path d="M133.344,8.992 C133.322667,9.30133488 133.210668,9.52533264 133.008,9.664 C132.826666,9.79200064 132.576002,9.83466688 132.256,9.792 C131.839998,9.72799968 131.344003,9.6693336 130.768,9.616 C130.191997,9.5626664 129.597336,9.52000016 128.984,9.488 C128.370664,9.45599984 127.76267,9.44266664 127.16,9.448 C126.55733,9.45333336 126.021336,9.4826664 125.552,9.536 C125.370666,9.55733344 125.226667,9.59999968 125.12,9.664 C125.013333,9.72800032 124.949333,9.80266624 124.928,9.888 C124.896,9.97333376 124.909333,10.0586662 124.968,10.144 C125.026667,10.2293338 125.119999,10.272 125.248,10.272 C125.600002,10.2826667 126.039997,10.2826667 126.568,10.272 C127.096003,10.2613333 127.658664,10.2480001 128.256,10.232 C128.853336,10.2159999 129.458664,10.1920002 130.072,10.16 C130.685336,10.1279998 131.253331,10.0906669 131.776,10.048 C131.957334,10.0266666 132.109333,10.0613329 132.232,10.152 C132.354667,10.2426671 132.437333,10.3626659 132.48,10.512 C132.522667,10.6400006 132.557333,10.8506652 132.584,11.144 C132.610667,11.4373348 132.608,11.7226653 132.576,12 C132.554667,12.1386674 132.506667,12.2799993 132.432,12.424 C132.357333,12.5680007 132.245334,12.6666664 132.096,12.72 C131.861332,12.794667 131.610668,12.8773329 131.344,12.968 C131.077332,13.0586671 130.808001,13.1546662 130.536,13.256 C130.263999,13.3573338 130.005335,13.4586662 129.76,13.56 C129.514665,13.6613338 129.301334,13.7653328 129.12,13.872 C129.034666,13.9146669 129.005333,13.973333 129.032,14.048 C129.058667,14.122667 129.114666,14.16 129.2,14.16 C129.520002,14.1813334 129.893331,14.1360006 130.32,14.024 C130.746669,13.9119994 131.141332,13.7706675 131.504,13.6 C131.770668,13.4826661 132.005332,13.4986659 132.208,13.648 C132.357334,13.7653339 132.432,13.9413322 132.432,14.176 C132.432,14.6026688 132.362667,15.0346645 132.224,15.472 C132.085333,15.9093355 131.877335,16.2666653 131.6,16.544 C131.482666,16.6613339 131.344001,16.757333 131.184,16.832 C131.023999,16.906667 130.853334,16.9706664 130.672,17.024 C130.458666,17.0773336 130.248001,17.1199998 130.04,17.152 C129.831999,17.1840002 129.637334,17.1946667 129.456,17.184 C128.730663,17.1626666 128.005337,17.1093338 127.28,17.024 C126.554663,16.9386662 125.845337,16.8320006 125.152,16.704 C124.447996,16.5759994 123.781336,16.4373341 123.152,16.288 C122.522664,16.1386659 121.973336,15.9893341 121.504,15.84 C121.408,15.8079998 121.250668,15.7733335 121.032,15.736 C120.813332,15.6986665 120.602668,15.6693334 120.4,15.648 C120.304,15.6266666 120.226667,15.5813337 120.168,15.512 C120.109333,15.4426663 120.072,15.3600005 120.056,15.264 C120.04,15.1679995 120.034667,15.0666672 120.04,14.96 C120.045333,14.8533328 120.064,14.762667 120.096,14.688 C120.138667,14.5599994 120.205333,14.429334 120.296,14.296 C120.386667,14.162666 120.487999,14.0346673 120.6,13.912 C120.712001,13.7893327 120.826666,13.6773338 120.944,13.576 C121.061334,13.4746662 121.168,13.3920003 121.264,13.328 C121.424001,13.2213328 121.597332,13.1653334 121.784,13.16 C121.970668,13.1546666 122.143999,13.189333 122.304,13.264 C122.4,13.3173336 122.533332,13.3679998 122.704,13.416 C122.874668,13.4640002 123.066666,13.5093331 123.28,13.552 C123.493334,13.5946669 123.717332,13.6213333 123.952,13.632 C124.186668,13.6426667 124.426665,13.6213336 124.672,13.568 C125.066669,13.493333 125.469331,13.3786674 125.88,13.224 C126.290669,13.0693326 126.618665,12.9013342 126.864,12.72 C126.906667,12.6879998 126.917333,12.6373337 126.896,12.568 C126.874667,12.4986663 126.837334,12.464 126.784,12.464 C126.261331,12.464 125.728003,12.4693333 125.184,12.48 C124.639997,12.4906667 124.117336,12.5119998 123.616,12.544 C123.114664,12.5760002 122.653335,12.621333 122.232,12.68 C121.810665,12.738667 121.456001,12.8159995 121.168,12.912 C120.773331,13.0506674 120.458668,13.0080011 120.224,12.784 C120.085333,12.6559994 119.970667,12.4800011 119.88,12.256 C119.789333,12.0319989 119.733333,11.8080011 119.712,11.584 C119.690667,11.4346659 119.72,11.2666676 119.8,11.08 C119.88,10.8933324 120.021332,10.7733336 120.224,10.72 C120.373334,10.6773331 120.538666,10.589334 120.72,10.456 C120.901334,10.322666 121.034666,10.1866674 121.12,10.048 C121.173334,9.97333296 121.178667,9.88800048 121.136,9.792 C121.093333,9.69599952 121.008001,9.65866656 120.88,9.68 C120.762666,9.70133344 120.600001,9.7653328 120.392,9.872 C120.183999,9.9786672 119.989334,10.0906661 119.808,10.208 C119.679999,10.2933338 119.541334,10.306667 119.392,10.248 C119.242666,10.189333 119.141334,10.1120005 119.088,10.016 C118.992,9.83466576 118.925334,9.62933448 118.888,9.4 C118.850666,9.17066552 118.829333,8.93066792 118.824,8.68 C118.818667,8.42933208 118.826667,8.18133456 118.848,7.936 C118.869333,7.69066544 118.896,7.46666768 118.928,7.264 C118.96,7.11466592 119.055999,6.9866672 119.216,6.88 C119.322667,6.81599968 119.437333,6.77600008 119.56,6.76 C119.682667,6.74399992 119.792,6.75199984 119.888,6.784 C120.261335,6.92266736 120.607998,6.99733328 120.928,7.008 C121.248002,7.01866672 121.573332,6.98666704 121.904,6.912 C121.978667,6.89066656 122.04,6.84800032 122.088,6.784 C122.136,6.71999968 122.154667,6.64533376 122.144,6.56 C122.133333,6.49599968 122.101334,6.4373336 122.048,6.384 C121.994666,6.3306664 121.925334,6.29866672 121.84,6.288 C121.626666,6.26666656 121.397335,6.2826664 121.152,6.336 C120.906665,6.3893336 120.688001,6.4426664 120.496,6.496 C120.335999,6.5493336 120.157334,6.54133368 119.96,6.472 C119.762666,6.40266632 119.632,6.28266752 119.568,6.112 C119.525333,5.98399936 119.490667,5.82133432 119.464,5.624 C119.437333,5.42666568 119.424,5.2213344 119.424,5.008 C119.424,4.7946656 119.429333,4.59200096 119.44,4.4 C119.450667,4.20799904 119.466667,4.04800064 119.488,3.92 C119.541334,3.64266528 119.663999,3.47466696 119.856,3.416 C120.048001,3.35733304 120.245332,3.35999968 120.448,3.424 C120.938669,3.5840008 121.50933,3.6906664 122.16,3.744 C122.394668,3.76533344 122.549333,3.74400032 122.624,3.68 C122.698667,3.61599968 122.730667,3.52533392 122.72,3.408 C122.72,3.3546664 122.712,3.29333368 122.696,3.224 C122.68,3.15466632 122.661333,3.08266704 122.64,3.008 C122.608,2.89066608 122.621333,2.78400048 122.68,2.688 C122.738667,2.59199952 122.847999,2.53866672 123.008,2.528 C123.253335,2.50666656 123.541332,2.496 123.872,2.496 C124.202668,2.496 124.538665,2.50399992 124.88,2.52 C125.221335,2.53600008 125.549332,2.55999984 125.864,2.592 C126.178668,2.62400016 126.431999,2.66133312 126.624,2.704 C126.773334,2.73600016 126.848,2.8053328 126.848,2.912 C126.848,3.0186672 126.816,3.13066608 126.752,3.248 C126.72,3.3013336 126.677334,3.3546664 126.624,3.408 C126.570666,3.4613336 126.522667,3.5146664 126.48,3.568 C126.448,3.61066688 126.442667,3.66933296 126.464,3.744 C126.485333,3.81866704 126.522666,3.856 126.576,3.856 C126.842668,3.856 127.191998,3.84000016 127.624,3.808 C128.056002,3.77599984 128.517331,3.73066696 129.008,3.672 C129.498669,3.61333304 129.994664,3.54933368 130.496,3.48 C130.997336,3.41066632 131.450665,3.33866704 131.856,3.264 C132.069334,3.22133312 132.261332,3.26399936 132.432,3.392 C132.602668,3.52000064 132.714666,3.6906656 132.768,3.904 C132.789333,3.97866704 132.808,4.10133248 132.824,4.272 C132.84,4.44266752 132.848,4.63199896 132.848,4.84 C132.848,5.04800104 132.837333,5.26133224 132.816,5.48 C132.794667,5.69866776 132.752,5.89333248 132.688,6.064 C132.602666,6.2773344 132.469334,6.41866632 132.288,6.488 C132.106666,6.55733368 131.909334,6.57066688 131.696,6.528 C131.226664,6.44266624 130.728003,6.3733336 130.2,6.32 C129.671997,6.2666664 129.146669,6.22933344 128.624,6.208 C128.101331,6.18666656 127.594669,6.18133328 127.104,6.192 C126.613331,6.20266672 126.170669,6.22933312 125.776,6.272 C125.573332,6.30400016 125.472,6.41066576 125.472,6.592 C125.472,6.67733376 125.490666,6.7599996 125.528,6.84 C125.565334,6.9200004 125.616,6.96533328 125.68,6.976 C126.032002,7.0293336 126.506664,7.06399992 127.104,7.08 C127.701336,7.09600008 128.327997,7.09600008 128.984,7.08 C129.640003,7.06399992 130.282664,7.03200024 130.912,6.984 C131.541336,6.93599976 132.063998,6.87466704 132.48,6.8 C132.544,6.78933328 132.618666,6.79199992 132.704,6.808 C132.789334,6.82400008 132.874666,6.85066648 132.96,6.888 C133.045334,6.92533352 133.12,6.97333304 133.184,7.032 C133.248,7.09066696 133.285333,7.15199968 133.296,7.216 C133.338667,7.5360016 133.362667,7.8426652 133.368,8.136 C133.373333,8.4293348 133.365333,8.71466528 133.344,8.992 Z M137.632,3.776 C140.496,2.96 143.248,2.496 144.8,2.496 C146.304,2.496 146.896,2.688 147.92,3.408 C148.224,3.632 148.608,4.176 148.608,4.736 C148.608,5.152 148.464,5.392 148.352,5.584 C148.528,6.176 148.528,6.464 148.528,6.544 C148.528,7.056 148.144,7.328 147.792,7.392 C147.552,7.44 147.408,7.424 146.944,7.408 C147.072,7.584 147.136,7.712 147.136,7.872 C147.136,8.464 146.608,8.48 146.32,8.496 C144.576,8.56 144.544,8.56 143.296,8.816 C143.504,9.04 143.536,9.056 143.616,9.168 C144.048,9.104 145.76,8.976 146.16,8.976 C147.024,8.976 147.808,9.456 147.968,9.584 C148.432,9.936 148.672,10.16 148.672,10.896 C148.672,11.136 148.656,11.696 148.368,12.288 C148.24,12.544 147.968,12.64 147.808,12.688 C148.144,12.8 148.448,12.912 148.848,13.36 C149.424,13.984 149.424,14.384 149.424,14.688 C149.424,15.312 149.232,16.128 149.056,16.464 C148.752,17.008 147.984,17.392 147.264,17.392 C146.144,17.392 144.016,17.024 143.68,16.944 C143.44,16.896 142.768,16.64 142.48,16.528 C142.064,16.656 141.68,16.768 141.152,16.768 C140.816,16.768 140.656,16.736 139.936,16.576 C139.936,16.656 139.936,17.008 139.92,17.072 C139.856,17.392 139.344,17.392 139.28,17.392 C138.576,17.392 137.888,17.024 137.888,16.096 C137.888,16.032 137.984,14.592 138.032,14.368 C137.76,14.272 137.6,14.16 137.472,13.984 C137.44,14.272 137.408,14.384 137.264,15.392 C137.152,16.208 137.152,16.304 137.04,16.56 C136.864,16.944 136.736,17.232 136.176,17.232 C136.128,17.232 135.168,17.216 134.816,16.544 C134.656,16.24 134.464,15.888 134.464,15.44 C134.464,15.28 134.48,15.184 134.736,14.384 C134.752,14.352 134.896,13.568 134.928,13.44 C135.232,11.936 135.264,11.76 135.472,10.496 C135.632,9.456 135.936,7.792 136.096,6.752 C136.128,6.592 136.128,6.464 136.128,6.144 C135.776,5.696 135.536,5.28 135.536,4.672 C135.536,4.336 135.664,4 135.888,3.744 C136.032,3.584 136.24,3.488 136.64,3.488 C137.008,3.488 137.312,3.568 137.632,3.776 Z M145.824,14.032 C146.144,14.4 146.288,14.64 146.48,15.104 C146.592,14.928 146.688,14.752 146.688,14.304 C146.688,14.032 146.608,13.984 146.464,13.984 C146.4,13.984 145.936,14.032 145.824,14.032 Z M138.512,6.448 C139.568,6.192 141.6,5.696 143.664,5.376 C143.904,5.344 144.896,5.216 145.104,5.184 C145.36,4.912 145.488,4.576 145.488,4.544 C145.488,4.432 145.328,4.4 145.216,4.4 C145.104,4.4 143.424,4.576 140.368,5.328 C140.048,5.408 139.376,5.488 139.344,5.488 C139.184,5.52 138.48,5.552 138.352,5.552 C138.512,5.792 138.56,6.064 138.512,6.448 Z M139.808,15.52 C140.384,15.44 140.448,15.44 140.656,15.392 L140.656,14.992 C140.32,15.024 140.128,14.992 139.776,14.88 C139.776,15.008 139.792,15.344 139.808,15.52 Z M143.664,12.864 C143.872,12.816 145.088,12.656 146.144,12.576 C146,12.512 145.952,12.496 145.632,12.352 C145.568,12.336 145.44,12.256 145.36,12.224 C145.264,12.24 144.032,12.4 143.712,12.416 C143.68,12.576 143.664,12.624 143.664,12.864 Z M143.808,11.12 C144.064,11.072 145.248,10.816 145.504,10.784 C145.6,10.528 145.6,10.496 145.68,10.304 C145.264,10.352 145.104,10.384 144.672,10.496 C144.384,10.56 144,10.672 143.84,10.704 C143.808,10.864 143.808,10.912 143.808,11.12 Z M137.552,13.184 C137.68,13.12 137.856,13.024 138.096,13.024 C139.136,13.024 139.6,13.52 139.68,13.68 C139.84,13.632 140.592,13.44 140.752,13.392 C140.768,13.2 140.768,13.136 140.784,12.928 C140.64,12.96 140.576,12.976 140.176,12.992 C140.048,13.072 139.904,13.168 139.728,13.168 C139.152,13.168 138.464,12.624 138.16,11.824 C138.048,11.536 137.984,11.28 137.92,10.96 C137.824,11.296 137.6,12.864 137.552,13.184 Z M138.112,9.648 C138.496,9.104 138.672,8.848 140.384,8.304 C140.624,8.224 141.68,7.952 141.888,7.888 C141.856,7.84 141.744,7.6 141.728,7.552 C139.872,7.92 139.68,7.952 138.96,7.952 C138.672,7.952 138.608,7.936 138.432,7.904 C138.368,8.4 138.192,9.168 138.112,9.648 Z M140.528,9.472 C140.336,9.488 139.76,9.6 139.68,9.712 C139.584,9.824 139.568,10.208 139.568,10.24 C139.568,10.336 139.584,10.384 139.6,10.512 C139.664,10.496 140.448,10.256 140.992,9.984 C140.784,9.824 140.608,9.6 140.528,9.472 Z M140.88,11.808 L140.88,11.456 C140.32,11.472 140.08,11.36 139.872,11.232 C139.936,11.36 140.112,11.776 140.192,11.952 C140.4,11.888 140.448,11.872 140.88,11.808 Z M143.376,15.024 C143.584,14.96 143.92,14.832 144.144,14.768 C144.064,14.576 143.968,14.24 143.968,14.208 C143.616,14.256 143.568,14.272 143.408,14.288 C143.408,14.656 143.408,14.816 143.376,15.024 Z M144.512,15.712 C144.288,15.808 143.584,16.032 143.36,16.112 C143.808,16.272 145.008,16.352 145.088,16.352 C144.816,16.096 144.736,16 144.512,15.712 Z M152.88,7.008 L152.88,6.544 L152.944,4.512 C152.944,4.416 152.896,4.336 152.848,4.304 C152.496,4.08 152.256,3.936 152.256,3.552 C152.256,3.088 152.64,2.56 153.28,2.56 C154.176,2.56 155.2,3.632 155.248,4.592 C155.296,5.6 155.296,5.696 155.312,5.84 C155.888,6.016 156.064,6.064 156.304,6.384 C156.512,6.672 156.56,6.944 156.56,7.424 C156.56,7.648 156.384,8 156,8.336 C155.856,8.448 155.792,8.48 155.168,8.832 L155.232,9.328 L155.232,9.376 C155.328,9.312 155.728,8.976 155.808,8.896 C155.824,8.832 155.872,8.704 155.936,8.688 L157.744,7.984 C157.856,7.936 158.592,7.712 158.96,7.616 C158.96,7.456 158.96,7.344 158.928,6.992 C158.784,7.008 158.672,7.04 158.528,7.04 C157.168,7.04 156.48,6.192 156.48,5.696 C156.48,5.488 156.624,5.376 156.72,5.36 C157.152,5.328 157.184,5.28 157.728,5.04 L158.944,4.512 L159.088,4.448 C159.104,4.256 159.104,4.208 159.104,4.032 C159.04,3.952 158.688,3.712 158.64,3.648 C158.48,3.424 158.432,3.264 158.432,3.12 C158.432,2.592 159.056,2.352 159.616,2.352 C160.416,2.352 161.072,2.752 161.264,2.976 C161.696,3.488 161.744,3.536 161.824,3.616 C162,3.632 162.832,3.616 162.992,3.616 C163.744,3.616 164.992,4.32 164.992,5.232 C164.992,5.888 164.624,6.064 164.384,6.176 C164.336,6.208 163.664,6.272 163.648,6.272 C163.632,6.272 162.416,6.224 162.192,6.224 C162.192,6.336 162.16,6.864 162.16,6.96 C162.528,6.912 163.024,6.88 163.184,6.88 C164.496,6.88 165.424,7.552 165.408,8.432 C165.408,8.832 165.184,9.52 164.24,9.52 C164.112,9.52 163.392,9.456 163.328,9.44 C163.392,9.536 163.712,9.936 163.76,10.016 C164.224,10.144 164.608,10.256 165.008,10.576 C165.328,10.848 165.6,11.264 165.6,11.632 C165.6,12.08 165.248,12.544 164.928,12.576 C164.768,12.592 164.688,12.592 164.304,12.576 C164.304,12.656 164.336,12.816 164.336,12.88 C164.352,13.28 164.384,13.328 164.384,13.776 L164.4,15.104 C164.4,15.216 164.4,16.048 163.728,16.656 C163.216,17.12 162.992,17.184 162.592,17.264 C161.904,17.408 161.776,17.44 161.312,17.44 C160.048,17.44 159.84,17.376 158.704,17.04 C158.368,16.944 157.568,16.4 157.312,16.016 C156.944,15.472 156.608,14.576 156.608,13.568 L156.608,13.184 C156.592,13.168 156.32,12.848 156.304,12.816 C156.016,12.272 155.984,12.192 155.904,12 C155.856,12.032 155.44,12.432 155.216,12.72 C155.216,12.912 155.216,13.792 155.232,13.904 L155.392,15.232 C155.408,15.328 155.424,15.552 155.424,15.728 C155.424,16.096 155.328,16.672 155.136,16.992 C154.992,17.216 154.592,17.36 154.336,17.36 C154.304,17.36 152.864,17.312 152.832,15.792 L152.8,14.416 L152.8,14.336 C152.352,14.416 152.304,14.416 152.272,14.416 C151.712,14.416 150.704,13.856 150.704,12.608 C150.704,12.464 150.736,11.52 151.248,11.52 C151.296,11.52 151.552,11.568 151.552,11.568 C151.664,11.568 152.608,11.056 152.8,10.864 C152.8,10.736 152.768,10.128 152.768,10 C152.528,10.064 152.384,10.08 152.192,10.08 C152.016,10.08 151.488,10.08 151.072,9.616 C150.944,9.472 150.4,8.656 150.4,7.696 C150.4,7.072 150.736,5.888 150.752,5.824 C150.784,5.728 150.96,5.28 150.96,5.184 C150.96,5.12 150.72,4.864 150.688,4.8 C150.608,4.672 150.56,4.528 150.56,4.384 C150.56,3.984 150.896,3.728 151.264,3.728 C151.664,3.728 152.08,3.984 152.272,4.336 C152.352,4.48 152.4,4.64 152.432,5.088 L152.464,5.552 C152.464,5.584 152.448,5.632 152.416,5.968 C152.336,6.64 152.336,6.72 152.176,7.392 L152.176,7.584 C152.576,7.312 152.736,7.152 152.88,7.008 Z M156.224,11.536 C156.4,11.568 156.464,11.584 156.528,11.584 C156.688,11.584 157.024,11.488 157.2,11.424 C157.568,11.312 157.84,11.216 158.08,11.136 C158.048,11.056 157.84,10.736 157.808,10.656 C157.792,10.576 157.76,10.496 157.744,10.336 C157.568,10.352 157.36,10.352 157.072,10.288 C157.04,10.272 156.464,9.984 156.384,9.952 L156.384,10.848 C156.336,11.216 156.272,11.36 156.224,11.536 Z M161.568,12.704 C161.504,12.72 161.072,12.8 161.04,12.8 C160.656,12.896 160.624,12.912 160.56,12.928 C160.592,13.136 160.656,13.376 160.656,13.456 C160.656,14.144 160.224,14.608 159.584,14.608 C159.248,14.608 158.8,14.432 158.528,14.048 C158.464,13.952 158.448,13.904 158.272,13.392 C157.792,13.328 157.728,13.328 157.584,13.344 C157.552,13.424 157.584,13.712 157.728,13.968 C158.144,14.656 159.216,14.896 160,14.896 C160.016,14.896 161.12,14.848 161.456,14.496 C161.648,14.272 161.584,12.96 161.568,12.704 Z M160.96,9.616 L160.896,9.632 L160.624,9.68 L159.52,9.936 L159.376,9.984 C159.584,10.256 159.68,10.32 159.92,10.512 C160.064,10.464 160.112,10.448 160.544,10.336 C161.056,10.208 161.12,10.208 161.216,10.192 C161.168,10.096 160.992,9.68 160.96,9.616 Z M181.232,15.824 C181.189333,16.1546683 181.093334,16.4213323 180.944,16.624 C180.794666,16.8266677 180.613334,16.9759995 180.4,17.072 C180.069332,17.2213341 179.637336,17.2373339 179.104,17.12 C178.645331,17.0133328 178.272001,16.8480011 177.984,16.624 C177.599998,16.3146651 177.322668,15.8506698 177.152,15.232 C177.130667,15.157333 177.08,15.1173334 177,15.112 C176.92,15.1066666 176.869333,15.1359997 176.848,15.2 C176.677332,15.6053354 176.485334,15.970665 176.272,16.296 C176.058666,16.621335 175.728002,16.8746658 175.28,17.056 C174.938665,17.1946674 174.621335,17.2373336 174.328,17.184 C174.034665,17.1306664 173.786668,17.008001 173.584,16.816 C173.466666,16.7093328 173.354667,16.5680009 173.248,16.392 C173.141333,16.2159991 173.042667,16.024001 172.952,15.816 C172.861333,15.607999 172.786667,15.3946678 172.728,15.176 C172.669333,14.9573322 172.629333,14.752001 172.608,14.56 C172.586667,14.3893325 172.586667,14.2426673 172.608,14.12 C172.629333,13.9973327 172.703999,13.8773339 172.832,13.76 C173.120001,13.5039987 173.338666,13.2346681 173.488,12.952 C173.637334,12.6693319 173.744,12.2933357 173.808,11.824 C173.829333,11.7066661 173.885333,11.6346668 173.976,11.608 C174.066667,11.5813332 174.165333,11.5786666 174.272,11.6 C174.368,11.6213334 174.450666,11.5866671 174.52,11.496 C174.589334,11.4053329 174.602667,11.3066672 174.56,11.2 C174.410666,10.7839979 174.274667,10.3706687 174.152,9.96 C174.029333,9.54933128 173.936,9.12000224 173.872,8.672 C173.850667,8.50133248 173.832,8.3360008 173.816,8.176 C173.8,8.0159992 173.802667,7.8560008 173.824,7.696 C173.866667,7.30133136 173.888,6.94933488 173.888,6.64 C173.888,6.33066512 173.877333,6.02133488 173.856,5.712 C173.834667,5.45599872 173.784,5.2346676 173.704,5.048 C173.624,4.8613324 173.525334,4.7146672 173.408,4.608 C173.290666,4.51199952 173.2,4.42133376 173.136,4.336 C173.072,4.25066624 173.029333,4.14933392 173.008,4.032 C172.965333,3.8186656 172.970666,3.59466784 173.024,3.36 C173.077334,3.12533216 173.141333,2.92266752 173.216,2.752 C173.269334,2.6453328 173.354666,2.56266696 173.472,2.504 C173.589334,2.44533304 173.706666,2.4426664 173.824,2.496 C174.101335,2.61333392 174.413332,2.70666632 174.76,2.776 C175.106668,2.84533368 175.434665,2.88533328 175.744,2.896 C175.968001,2.90666672 176.215999,2.91466664 176.488,2.92 C176.760001,2.92533336 177.039999,2.928 177.328,2.928 C177.616001,2.928 177.901332,2.92266672 178.184,2.912 C178.466668,2.90133328 178.725332,2.88533344 178.96,2.864 C179.205335,2.84266656 179.434666,2.81600016 179.648,2.784 C179.861334,2.75199984 180.031999,2.71466688 180.16,2.672 C180.373334,2.60799968 180.565332,2.62666616 180.736,2.728 C180.906668,2.82933384 181.002667,2.98133232 181.024,3.184 C181.077334,3.79200304 181.074667,4.45066312 181.016,5.16 C180.957333,5.86933688 180.864001,6.59199632 180.736,7.328 C180.618666,7.98933664 180.466668,8.64533008 180.28,9.296 C180.093332,9.94666992 179.888001,10.5493306 179.664,11.104 C179.642667,11.1573336 179.632,11.250666 179.632,11.384 C179.632,11.517334 179.658666,11.6106664 179.712,11.664 C179.754667,11.7066669 179.802666,11.7253334 179.856,11.72 C179.909334,11.7146666 179.946667,11.7013334 179.968,11.68 C180.032,11.5626661 180.125333,11.4506672 180.248,11.344 C180.370667,11.2373328 180.474666,11.1520003 180.56,11.088 C180.688001,10.9919995 180.826666,10.9626665 180.976,11 C181.125334,11.0373335 181.210667,11.1199994 181.232,11.248 C181.285334,11.514668 181.322667,11.8399981 181.344,12.224 C181.365333,12.6080019 181.373333,13.0106646 181.368,13.432 C181.362667,13.8533354 181.349333,14.2746646 181.328,14.696 C181.306667,15.1173354 181.274667,15.4933317 181.232,15.824 Z M177.712,6.336 C177.712,6.26133296 177.690667,6.20800016 177.648,6.176 C177.605333,6.14399984 177.557334,6.128 177.504,6.128 C177.44,6.128 177.341334,6.12533336 177.208,6.12 C177.074666,6.11466664 176.949334,6.112 176.832,6.112 C176.778666,6.112 176.736,6.13599976 176.704,6.184 C176.672,6.23200024 176.656,6.2826664 176.656,6.336 C176.634667,6.8160024 176.648,7.3093308 176.696,7.816 C176.744,8.3226692 176.842666,8.80533104 176.992,9.264 C177.013333,9.30666688 177.050666,9.33066664 177.104,9.336 C177.157334,9.34133336 177.194667,9.31200032 177.216,9.248 C177.269334,9.11999936 177.322666,8.93333456 177.376,8.688 C177.429334,8.44266544 177.482666,8.17600144 177.536,7.888 C177.589334,7.59999856 177.632,7.31733472 177.664,7.04 C177.696,6.76266528 177.712,6.52800096 177.712,6.336 Z M173.344,11.52 C173.301333,11.8400016 173.232,12.1439986 173.136,12.432 C173.04,12.7200014 172.912001,12.9439992 172.752,13.104 C172.666666,13.1893338 172.557334,13.2293334 172.424,13.224 C172.290666,13.2186666 172.192,13.1573339 172.128,13.04 C172.096,12.9866664 172.053334,12.9200004 172,12.84 C171.946666,12.7599996 171.898667,12.6933336 171.856,12.64 C171.824,12.5973331 171.781334,12.5893332 171.728,12.616 C171.674666,12.6426668 171.648,12.6826664 171.648,12.736 C171.637333,13.0880018 171.642667,13.4133318 171.664,13.712 C171.685333,14.0106682 171.72,14.3013319 171.768,14.584 C171.816,14.8666681 171.88,15.1519986 171.96,15.44 C172.04,15.7280014 172.133333,16.0373317 172.24,16.368 C172.293334,16.5386675 172.288,16.6986659 172.224,16.848 C172.16,16.9973341 172.037334,17.0986664 171.856,17.152 C171.695999,17.2053336 171.464002,17.2453332 171.16,17.272 C170.855998,17.2986668 170.530668,17.3146666 170.184,17.32 C169.837332,17.3253334 169.506668,17.3200001 169.192,17.304 C168.877332,17.2879999 168.634668,17.2533336 168.464,17.2 C168.282666,17.1466664 168.133334,17.0640006 168.016,16.952 C167.898666,16.8399994 167.829333,16.7200006 167.808,16.592 C167.754666,16.3679989 167.839999,16.1280013 168.064,15.872 C168.16,15.7546661 168.263999,15.6240007 168.376,15.48 C168.488001,15.3359993 168.570666,15.1893341 168.624,15.04 C168.688,14.847999 168.738666,14.6773341 168.776,14.528 C168.813334,14.3786659 168.845333,14.2346674 168.872,14.096 C168.898667,13.9573326 168.917333,13.8133341 168.928,13.664 C168.938667,13.5146659 168.944,13.3386677 168.944,13.136 C168.944,13.0933331 168.904,13.0640001 168.824,13.048 C168.744,13.0319999 168.693333,13.0506664 168.672,13.104 C168.597333,13.3493346 168.498667,13.6106653 168.376,13.888 C168.253333,14.1653347 168.117334,14.399999 167.968,14.592 C167.882666,14.6986672 167.784001,14.7733331 167.672,14.816 C167.559999,14.8586669 167.456,14.8693334 167.36,14.848 C167.274666,14.8266666 167.192,14.7813337 167.112,14.712 C167.032,14.6426663 166.981333,14.5333341 166.96,14.384 C166.842666,13.7333301 166.792,13.0186706 166.808,12.24 C166.824,11.4613294 166.874666,10.7253368 166.96,10.032 C166.981333,9.8719992 167.026666,9.7386672 167.096,9.632 C167.165334,9.5253328 167.248,9.44000032 167.344,9.376 C167.546668,9.25866608 167.711999,9.31199888 167.84,9.536 C167.872,9.60000032 167.928,9.62666672 168.008,9.616 C168.088,9.60533328 168.154666,9.5733336 168.208,9.52 C168.272,9.4666664 168.333333,9.39200048 168.392,9.296 C168.450667,9.19999952 168.509333,9.10133384 168.568,9 C168.626667,8.89866616 168.677333,8.79733384 168.72,8.696 C168.762667,8.59466616 168.789333,8.5173336 168.8,8.464 C168.832,8.36799952 168.816,8.29866688 168.752,8.256 C168.688,8.21333312 168.613334,8.19733328 168.528,8.208 C168.432,8.22933344 168.293334,8.27733296 168.112,8.352 C167.930666,8.42666704 167.786667,8.50666624 167.68,8.592 C167.541333,8.6986672 167.381334,8.71466704 167.2,8.64 C167.061333,8.57599968 166.965334,8.46933408 166.912,8.32 C166.858666,8.1599992 166.818667,7.96266784 166.792,7.728 C166.765333,7.49333216 166.754667,7.24800128 166.76,6.992 C166.765333,6.73599872 166.784,6.48000128 166.816,6.224 C166.848,5.96799872 166.890666,5.74400096 166.944,5.552 C167.008,5.30666544 167.130666,5.15200032 167.312,5.088 C167.482668,5.0346664 167.647999,5.0613328 167.808,5.168 C167.893334,5.2213336 167.999999,5.27199976 168.128,5.32 C168.256001,5.36800024 168.373333,5.38666672 168.48,5.376 C168.650668,5.35466656 168.725333,5.25866752 168.704,5.088 C168.682667,4.86399888 168.602667,4.62933456 168.464,4.384 C168.325333,4.13866544 168.176001,3.88800128 168.016,3.632 C167.962666,3.54666624 167.933333,3.45333384 167.928,3.352 C167.922667,3.25066616 167.938666,3.15200048 167.976,3.056 C168.013334,2.95999952 168.069333,2.87466704 168.144,2.8 C168.218667,2.72533296 168.304,2.67733344 168.4,2.656 C168.698668,2.58133296 169.010665,2.52800016 169.336,2.496 C169.661335,2.46399984 169.967999,2.45333328 170.256,2.464 C170.490668,2.47466672 170.767998,2.50133312 171.088,2.544 C171.408002,2.58666688 171.685332,2.65066624 171.92,2.736 C172.218668,2.8426672 172.384,2.99733232 172.416,3.2 C172.448,3.38133424 172.394667,3.56799904 172.256,3.76 C172.127999,3.93066752 172.000001,4.1226656 171.872,4.336 C171.743999,4.5493344 171.669333,4.77333216 171.648,5.008 C171.637333,5.09333376 171.658666,5.14666656 171.712,5.168 C171.765334,5.18933344 171.824,5.19466672 171.888,5.184 C172.069334,5.16266656 172.261332,5.10400048 172.464,5.008 C172.709335,4.89066608 172.901333,4.898666 173.04,5.032 C173.178667,5.165334 173.258667,5.34399888 173.28,5.568 C173.301333,5.76000096 173.32,5.97066552 173.336,6.2 C173.352,6.42933448 173.357333,6.6639988 173.352,6.904 C173.346667,7.1440012 173.330667,7.37599888 173.304,7.6 C173.277333,7.82400112 173.237334,8.02666576 173.184,8.208 C173.141333,8.35733408 173.050667,8.46399968 172.912,8.528 C172.783999,8.59200032 172.645334,8.59200032 172.496,8.528 C172.4,8.48533312 172.285334,8.42933368 172.152,8.36 C172.018666,8.29066632 171.893334,8.24000016 171.776,8.208 C171.647999,8.16533312 171.546667,8.19466616 171.472,8.296 C171.397333,8.39733384 171.402666,8.49599952 171.488,8.592 C171.701334,8.83733456 171.935999,9.02399936 172.192,9.152 C172.266667,9.18400016 172.349333,9.19733336 172.44,9.192 C172.530667,9.18666664 172.629333,9.14133376 172.736,9.056 C172.810667,8.99199968 172.882666,8.97599984 172.952,9.008 C173.021334,9.04000016 173.085333,9.09066632 173.144,9.16 C173.202667,9.22933368 173.248,9.30666624 173.28,9.392 C173.312,9.47733376 173.333333,9.5466664 173.344,9.6 C173.386667,9.82400112 173.410667,10.1093316 173.416,10.456 C173.421333,10.8026684 173.397334,11.1573315 173.344,11.52 Z" fill="url(#linearGradient-2)"></path>
            </g>
        </g>
    </g>
</svg>