<?xml version="1.0" encoding="UTF-8"?>
<svg width="300px" height="134px" viewBox="0 0 300 134" version="1.1" xmlns="http://www.w3.org/2000/svg" xmlns:xlink="http://www.w3.org/1999/xlink">
    <!-- Generator: Sketch 49 (51002) - http://www.bohemiancoding.com/sketch -->
    <title>入会福利@2x</title>
    <desc>Created with Sketch.</desc>
    <defs>
        <linearGradient x1="50%" y1="0%" x2="50%" y2="100%" id="linearGradient-1">
            <stop stop-color="#DBE7F7" offset="0%"></stop>
            <stop stop-color="#E6ECF9" stop-opacity="0" offset="100%"></stop>
        </linearGradient>
        <linearGradient x1="100%" y1="50%" x2="-4.61991194%" y2="100%" id="linearGradient-2">
            <stop stop-color="#29BFF6" offset="0%"></stop>
            <stop stop-color="#7374FF" offset="50.3782522%"></stop>
            <stop stop-color="#4387EA" offset="100%"></stop>
        </linearGradient>
    </defs>
    <g id="新人有礼-V3.0-完全新人" stroke="none" stroke-width="1" fill="none" fill-rule="evenodd">
        <g id="新人有礼弹窗-02" transform="translate(-40.000000, -218.000000)">
            <g id="入会福利" transform="translate(40.000000, 218.000000)">
                <g id="Group-20" transform="translate(0.000000, 3.000000)">
                    <path d="M300,131 C300,90.206798 300,52.8734647 300,19 C300,1.02704709 277.608872,20.249688 251.884789,20.0895822 C213,19.8475648 193.795798,0 151.5,0 C109.336153,0 86,19.8475648 51.3119331,19.8475648 C25.4585162,19.8475648 0,0.924603679 0,19 C0,40.7575643 0,78.0908977 0,131 L300,131 Z" id="Oval-4" fill="url(#linearGradient-1)"></path>
                    <polygon id="Star" fill="#909EFB" transform="translate(107.666667, 6.500000) rotate(-18.000000) translate(-107.666667, -6.500000) " points="107.666667 8.83333333 104.923669 10.2754126 105.447535 7.22103965 103.228403 5.05792069 106.295168 4.61229368 107.666667 1.83333333 109.038166 4.61229368 112.10493 5.05792069 109.885799 7.22103965 110.409665 10.2754126"></polygon>
                    <polygon id="Star" fill="#2CBCF6" transform="translate(192.666667, 6.500000) scale(-1, 1) rotate(-18.000000) translate(-192.666667, -6.500000) " points="192.666667 8.83333333 189.923669 10.2754126 190.447535 7.22103965 188.228403 5.05792069 191.295168 4.61229368 192.666667 1.83333333 194.038166 4.61229368 197.10493 5.05792069 194.885799 7.22103965 195.409665 10.2754126"></polygon>
                    <polygon id="Star" fill="#2CBCF6" transform="translate(202.128205, 9.000000) scale(-1, 1) rotate(-18.000000) translate(-202.128205, -9.000000) " points="202.128205 10.7948718 200.018207 11.9041636 200.421181 9.55464589 198.714156 7.89070823 201.073206 7.54791822 202.128205 5.41025641 203.183204 7.54791822 205.542254 7.89070823 203.83523 9.55464589 204.238203 11.9041636"></polygon>
                    <polygon id="Star" fill="#2CBCF6" transform="translate(209.589744, 11.500000) scale(-1, 1) rotate(-18.000000) translate(-209.589744, -11.500000) " points="209.589744 12.7564103 208.112745 13.5329145 208.394826 11.8882521 207.199909 10.7234958 208.851244 10.4835428 209.589744 8.98717949 210.328243 10.4835428 211.979578 10.7234958 210.784661 11.8882521 211.066742 13.5329145"></polygon>
                    <polygon id="Star" fill="#909EFB" transform="translate(98.396720, 9.182138) rotate(-18.000000) translate(-98.396720, -9.182138) " points="98.3967203 11.2663579 96.3394719 12.3479174 96.7323714 10.0571376 95.0680225 8.43479842 97.3680961 8.10057816 98.3967203 6.0163579 99.4253445 8.10057816 101.725418 8.43479842 100.061069 10.0571376 100.453969 12.3479174"></polygon>
                    <polygon id="Star" fill="#909EFB" transform="translate(90.589744, 12.500000) rotate(-18.000000) translate(-90.589744, -12.500000) " points="90.5897436 13.7564103 89.1127448 14.5329145 89.3948264 12.8882521 88.1999093 11.7234958 89.8512442 11.4835428 90.5897436 9.98717949 91.328243 11.4835428 92.9795779 11.7234958 91.7846608 12.8882521 92.0667424 14.5329145"></polygon>
                </g>
                <path d="M126.144,1.328 C126.416,1.184 126.576,1.12 126.928,1.12 C127.552,1.12 127.92,1.312 128.4,1.776 C128.912,1.2 129.552,0.864 130.304,0.864 C132,0.864 133.024,2.8 133.2,3.792 C133.312,4.416 133.312,4.736 133.36,7.696 C133.376,8.784 133.424,10.528 133.424,11.616 L133.424,12.432 C133.424,12.768 133.424,13.888 132.688,14.464 C132.32,14.736 131.712,15.056 130.768,15.056 C129.968,15.056 128.8,14.784 127.856,14.24 C127.056,13.792 126.848,13.568 125.936,12.656 C125.504,13.44 124.72,14.016 123.856,14.48 C122.464,15.216 121.792,15.28 121.168,15.28 C120.496,15.28 119.456,15.136 118.864,14.352 C118.576,13.952 118.368,13.376 118.368,12.992 C118.368,12.272 119.136,11.84 119.456,11.664 C119.088,11.408 118.288,10.896 118.288,9.84 C118.288,9.76 118.288,9.328 118.624,9.328 C118.704,9.328 118.992,9.424 119.04,9.424 C119.152,9.424 120.432,8.896 120.72,8.816 L120.72,8.32 C119.6,8.32 118.464,7.552 118.464,6.4 C118.464,5.552 118.88,4.88 119.248,4.272 C118.528,4.176 118.096,3.28 118.096,2.656 C118.096,2.384 118.16,2.128 118.432,2.128 C118.48,2.128 118.704,2.16 118.752,2.16 C118.864,2.16 119.792,1.728 120,1.648 C121.04,1.248 123.04,0.576 124.064,0.576 C124.176,0.576 125.504,0.592 126.144,1.328 Z M126.528,10.784 C126.4,11.472 126.4,11.552 126.24,11.888 C127.36,12.304 129.12,12.32 129.392,12.32 C130.272,12.32 130.272,12.112 130.272,11.68 C130.272,10.928 130.208,7.616 130.208,6.928 C130.208,6.528 130.24,4.176 130.24,3.76 C130.24,2.848 130.24,2.56 130.064,2.56 C129.904,2.56 129.408,3.104 129.232,3.392 C128.912,3.936 128.896,4.08 128.896,5.792 C128.896,5.936 129.024,9.28 129.024,9.952 C129.024,10.384 129.024,11.056 128.576,11.328 C128.416,11.424 128.08,11.536 127.776,11.536 C126.96,11.536 126.672,11.008 126.528,10.784 Z M126.384,5.616 C126.384,5.456 126.4,3.936 126.432,3.088 C126.224,3.344 126.096,3.472 125.632,3.472 C125.328,3.472 124.832,3.424 124.464,3.392 C125.28,4 126.064,4.912 126.384,5.616 Z M119.792,13.12 C120.08,13.088 120.16,13.056 120.752,12.784 L120.752,12.144 C120.064,12.24 119.312,12.48 119.312,12.704 C119.312,12.88 119.6,13.024 119.792,13.12 Z M120.64,5.968 C121.68,5.184 121.968,4.96 122.912,4.592 C122.608,4.096 122.592,4.048 122.352,3.776 C122.064,3.856 121.904,3.904 121.536,4.08 C121.008,4.688 120.4,5.6 120.4,5.792 C120.4,5.888 120.48,5.92 120.64,5.968 Z M123.984,8.032 C125.584,7.92 125.904,8.912 125.904,9.392 C125.904,10.112 125.408,10.288 124.016,10.592 L124.016,11.488 C125.056,11.008 126.064,10.496 126.416,10.256 C126.368,9.872 126.32,9.568 126.32,9.056 C126.32,8.8 126.352,7.648 126.352,7.424 C126.048,7.872 125.568,7.872 125.44,7.872 C125.296,7.872 124.624,7.872 124.224,7.088 C124.112,7.152 123.648,7.376 123.552,7.424 C123.856,7.632 123.92,7.744 123.984,8.032 Z M149.216,8.768 C149.205333,8.86400048 149.176,8.95466624 149.128,9.04 C149.08,9.12533376 149.016,9.19733304 148.936,9.256 C148.856,9.31466696 148.770667,9.35466656 148.68,9.376 C148.589333,9.39733344 148.496,9.39200016 148.4,9.36 C148.122665,9.24266608 147.840001,9.1440004 147.552,9.064 C147.263999,8.9839996 146.976001,8.92266688 146.688,8.88 C146.581333,8.85866656 146.493334,8.89333288 146.424,8.984 C146.354666,9.07466712 146.346666,9.1733328 146.4,9.28 C146.549334,9.55733472 146.701333,9.79466568 146.856,9.992 C147.010667,10.1893343 147.226665,10.3733325 147.504,10.544 C147.578667,10.5973336 147.685333,10.6053335 147.824,10.568 C147.962667,10.5306665 148.064,10.4853336 148.128,10.432 C148.202667,10.3679997 148.282666,10.3120002 148.368,10.264 C148.453334,10.2159998 148.538666,10.1813334 148.624,10.16 C148.72,10.1386666 148.823999,10.1519998 148.936,10.2 C149.048001,10.2480002 149.114667,10.3199995 149.136,10.416 C149.189334,10.6720013 149.229333,10.9679983 149.256,11.304 C149.282667,11.6400017 149.298667,11.9946648 149.304,12.368 C149.309333,12.7413352 149.304,13.1146648 149.288,13.488 C149.272,13.8613352 149.237334,14.2079984 149.184,14.528 C149.173333,14.6453339 149.125334,14.7493329 149.04,14.84 C148.954666,14.9306671 148.856001,15.0026664 148.744,15.056 C148.631999,15.1093336 148.514667,15.1439999 148.392,15.16 C148.269333,15.1760001 148.154667,15.1626669 148.048,15.12 C147.535997,14.9173323 147.053336,14.6000022 146.6,14.168 C146.146664,13.7359978 145.749335,13.2213363 145.408,12.624 C145.173332,12.2186646 144.978667,11.7653358 144.824,11.264 C144.669333,10.7626642 144.533334,10.2506693 144.416,9.728 C144.405333,9.6746664 144.376,9.63733344 144.328,9.616 C144.28,9.59466656 144.229334,9.584 144.176,9.584 C144.122666,9.584 144.072,9.59466656 144.024,9.616 C143.976,9.63733344 143.941333,9.6746664 143.92,9.728 C143.877333,9.86666736 143.858667,10.0586654 143.864,10.304 C143.869333,10.5493346 143.898666,10.8373317 143.952,11.168 C143.973333,11.3386675 144.005333,11.5066658 144.048,11.672 C144.090667,11.8373342 144.170666,11.9839994 144.288,12.112 C144.554668,12.4213349 144.818665,12.7813313 145.08,13.192 C145.341335,13.6026687 145.557332,13.9839982 145.728,14.336 C145.781334,14.4533339 145.784,14.5733327 145.736,14.696 C145.688,14.8186673 145.594667,14.8906666 145.456,14.912 C144.911997,15.0080005 144.362669,15.0879997 143.808,15.152 C143.253331,15.2160003 142.704003,15.2426667 142.16,15.232 C141.893332,15.232 141.736,15.1733339 141.688,15.056 C141.64,14.9386661 141.642666,14.7680011 141.696,14.544 C141.738667,14.3946659 141.773333,14.2080011 141.8,13.984 C141.826667,13.7599989 141.845333,13.5200013 141.856,13.264 C141.866667,13.0079987 141.869333,12.7546679 141.864,12.504 C141.858667,12.2533321 141.845333,12.0266677 141.824,11.824 C141.802667,11.5893322 141.789333,11.368001 141.784,11.16 C141.778667,10.951999 141.802666,10.7360011 141.856,10.512 C141.92,10.2239986 141.936,9.9200016 141.904,9.6 C141.872,9.29066512 141.754668,9.15199984 141.552,9.184 C141.231998,9.2373336 141.056,9.130668 141.024,8.864 C140.970666,8.34133072 140.941333,7.80800272 140.936,7.264 C140.930667,6.71999728 140.954666,6.2613352 141.008,5.888 C141.029333,5.7813328 141.085333,5.69600032 141.176,5.632 C141.266667,5.56799968 141.36,5.55733312 141.456,5.6 C141.733335,5.7066672 141.877333,5.626668 141.888,5.36 C141.909333,5.08266528 141.92,4.77333504 141.92,4.432 C141.92,4.09066496 141.906667,3.74133512 141.88,3.384 C141.853333,3.02666488 141.816,2.6746684 141.768,2.328 C141.72,1.9813316 141.664,1.66400144 141.6,1.376 C141.557333,1.20533248 141.557333,1.03200088 141.6,0.856 C141.642667,0.67999912 141.754666,0.5653336 141.936,0.512 C142.352002,0.39466608 142.805331,0.35199984 143.296,0.384 C143.786669,0.41600016 144.293331,0.49599936 144.816,0.624 C144.890667,0.64533344 144.962666,0.69333296 145.032,0.768 C145.101334,0.84266704 145.157333,0.93066616 145.2,1.032 C145.242667,1.13333384 145.269333,1.23466616 145.28,1.336 C145.290667,1.43733384 145.269334,1.51999968 145.216,1.584 C145.045332,1.82933456 144.896001,2.10399848 144.768,2.408 C144.639999,2.71200152 144.549334,3.01866512 144.496,3.328 C144.474667,3.46666736 144.530666,3.56799968 144.664,3.632 C144.797334,3.69600032 144.922666,3.66400064 145.04,3.536 C145.157334,3.40799936 145.271999,3.24800096 145.384,3.056 C145.496001,2.86399904 145.602666,2.65866776 145.704,2.44 C145.805334,2.22133224 145.898666,2.00000112 145.984,1.776 C146.069334,1.55199888 146.133333,1.34400096 146.176,1.152 C146.229334,0.95999904 146.343999,0.81333384 146.52,0.712 C146.696001,0.61066616 146.906665,0.53866688 147.152,0.496 C147.493335,0.4426664 147.757332,0.4426664 147.944,0.496 C148.130668,0.5493336 148.330666,0.63999936 148.544,0.768 C148.757334,0.90666736 148.912,1.07466568 149.008,1.272 C149.104,1.46933432 149.162667,1.67999888 149.184,1.904 C149.205333,2.1173344 149.186667,2.32799896 149.128,2.536 C149.069333,2.74400104 148.992,2.93866576 148.896,3.12 C148.714666,3.4400016 148.488001,3.72533208 148.216,3.976 C147.943999,4.22666792 147.642668,4.4319992 147.312,4.592 C146.949332,4.77333424 146.634668,4.9439992 146.368,5.104 C146.101332,5.2640008 145.866668,5.43466576 145.664,5.616 C145.610666,5.6693336 145.597333,5.74399952 145.624,5.84 C145.650667,5.93600048 145.706666,5.984 145.792,5.984 C146.101335,5.97333328 146.463998,5.89866736 146.88,5.76 C147.296002,5.62133264 147.690665,5.43466784 148.064,5.2 C148.149334,5.1466664 148.242666,5.12 148.344,5.12 C148.445334,5.12 148.544,5.13599984 148.64,5.168 C148.736,5.20000016 148.818666,5.24799968 148.888,5.312 C148.957334,5.37600032 149.002667,5.44533296 149.024,5.52 C149.152001,6.04266928 149.229333,6.57599728 149.256,7.12 C149.282667,7.66400272 149.269334,8.21333056 149.216,8.768 Z M141.248,1.472 C141.205333,2.005336 141.165334,2.53599736 141.128,3.064 C141.090666,3.59200264 141.072,4.10666416 141.072,4.608 C141.072,4.88533472 141.018667,5.0773328 140.912,5.184 C140.826666,5.26933376 140.762667,5.36266616 140.72,5.464 C140.677333,5.56533384 140.645333,5.68533264 140.624,5.824 C140.506666,6.4640032 140.456,7.02933088 140.472,7.52 C140.488,8.01066912 140.533333,8.4959976 140.608,8.976 C140.629333,9.14666752 140.685333,9.29599936 140.776,9.424 C140.866667,9.55200064 140.975999,9.66399952 141.104,9.76 C141.157334,9.80266688 141.176,9.88533272 141.16,10.008 C141.144,10.1306673 141.077334,10.2186664 140.96,10.272 C140.853333,10.3253336 140.744001,10.3546666 140.632,10.36 C140.519999,10.3653334 140.432,10.3626667 140.368,10.352 C140.186666,10.3306666 140.058667,10.290667 139.984,10.232 C139.909333,10.173333 139.866667,10.0533342 139.856,9.872 C139.834667,8.95466208 139.834667,8.01067152 139.856,7.04 C139.877333,6.06932848 139.909333,5.12000464 139.952,4.192 C139.962667,4.07466608 139.949334,3.95466728 139.912,3.832 C139.874666,3.70933272 139.824,3.60533376 139.76,3.52 C139.653333,3.38133264 139.525334,3.29600016 139.376,3.264 C139.002665,3.18933296 138.610669,3.14933336 138.2,3.144 C137.789331,3.13866664 137.445335,3.14666656 137.168,3.168 C137.072,3.17866672 136.968001,3.20266648 136.856,3.24 C136.743999,3.27733352 136.645334,3.33333296 136.56,3.408 C136.389332,3.54666736 136.309333,3.72799888 136.32,3.952 C136.394667,4.9120048 136.448,5.86666192 136.48,6.816 C136.512,7.76533808 136.517333,8.70399536 136.496,9.632 C136.496,9.72800048 136.482667,9.81866624 136.456,9.904 C136.429333,9.98933376 136.373334,10.0639997 136.288,10.128 C136.213333,10.1813336 136.128,10.2213332 136.032,10.248 C135.936,10.2746668 135.834667,10.2933333 135.728,10.304 C135.642666,10.3146667 135.565334,10.3146667 135.496,10.304 C135.426666,10.2933333 135.36,10.2773334 135.296,10.256 C135.178666,10.2239998 135.082667,10.1653338 135.008,10.08 C134.933333,9.99466624 134.912,9.87733408 134.944,9.728 C135.093334,8.9813296 135.184,8.28533656 135.216,7.64 C135.248,6.99466344 135.264,6.36800304 135.264,5.76 C135.264,5.09866336 135.234667,4.42667008 135.176,3.744 C135.117333,3.06132992 135.029334,2.2933376 134.912,1.44 C134.88,1.18399872 134.906666,0.99733392 134.992,0.88 C135.098667,0.75199936 135.274665,0.70933312 135.52,0.752 C135.904002,0.82666704 136.306665,0.8773332 136.728,0.904 C137.149335,0.9306668 137.583998,0.93333344 138.032,0.912 C138.394668,0.89066656 138.778665,0.86133352 139.184,0.824 C139.589335,0.78666648 139.946665,0.7413336 140.256,0.688 C140.554668,0.6346664 140.789332,0.67733264 140.96,0.816 C141.045334,0.88000032 141.12,0.96799944 141.184,1.08 C141.248,1.19200056 141.269333,1.32266592 141.248,1.472 Z M141.28,14.384 C141.258667,14.5653342 141.202667,14.7173327 141.112,14.84 C141.021333,14.9626673 140.917334,15.0559997 140.8,15.12 C140.693333,15.1733336 140.565334,15.2 140.416,15.2 C140.266666,15.2 140.080001,15.162667 139.856,15.088 C139.450665,14.9493326 139.136001,14.7040018 138.912,14.352 C138.762666,14.1279989 138.650667,13.8773347 138.576,13.6 C138.501333,13.3226653 138.474667,13.0560013 138.496,12.8 C138.496,12.7466664 138.482667,12.7013335 138.456,12.664 C138.429333,12.6266665 138.397334,12.6053334 138.36,12.6 C138.322666,12.5946666 138.285334,12.6053332 138.248,12.632 C138.210666,12.6586668 138.192,12.7039997 138.192,12.768 C138.170667,13.0240013 138.133334,13.2719988 138.08,13.512 C138.026666,13.7520012 137.941334,13.9786656 137.824,14.192 C137.653332,14.5013349 137.418668,14.7466658 137.12,14.928 C136.821332,15.1093342 136.496002,15.2106666 136.144,15.232 C135.866665,15.2533334 135.613334,15.2026673 135.384,15.08 C135.154666,14.9573327 135.013334,14.7466682 134.96,14.448 C134.906666,14.1706653 134.866667,13.8666683 134.84,13.536 C134.813333,13.2053317 134.8,12.8853349 134.8,12.576 C134.8,12.2986653 134.808,12.0506678 134.824,11.832 C134.84,11.6133322 134.858667,11.4453339 134.88,11.328 C134.901333,11.1466658 134.970666,11.0346669 135.088,10.992 C135.205334,10.9493331 135.343999,10.9493331 135.504,10.992 C135.792001,11.0773338 136.058665,11.0800004 136.304,11 C136.549335,10.9199996 136.709333,10.7146683 136.784,10.384 C136.869334,9.98933136 136.928,9.53066928 136.96,9.008 C136.992,8.48533072 137.002667,7.94133616 136.992,7.376 C136.981333,6.82133056 136.952,6.27200272 136.904,5.728 C136.856,5.18399728 136.794667,4.68800224 136.72,4.24 C136.698667,4.12266608 136.709333,4.01333384 136.752,3.912 C136.794667,3.81066616 136.874666,3.74400016 136.992,3.712 C137.098667,3.69066656 137.245332,3.67200008 137.432,3.656 C137.618668,3.63999992 137.813332,3.62933336 138.016,3.624 C138.218668,3.61866664 138.415999,3.61866664 138.608,3.624 C138.800001,3.62933336 138.954666,3.64266656 139.072,3.664 C139.242668,3.69600016 139.362666,3.77066608 139.432,3.888 C139.501334,4.00533392 139.514667,4.19199872 139.472,4.448 C139.408,4.90666896 139.362667,5.3626644 139.336,5.816 C139.309333,6.2693356 139.296,6.7359976 139.296,7.216 C139.296,7.6426688 139.301333,8.07199784 139.312,8.504 C139.322667,8.93600216 139.338667,9.37599776 139.36,9.824 C139.370667,10.0693346 139.421333,10.287999 139.512,10.48 C139.602667,10.672001 139.749332,10.8266661 139.952,10.944 C140.154668,11.0613339 140.346666,11.0720005 140.528,10.976 C140.698668,10.8906662 140.839999,10.8533333 140.952,10.864 C141.064001,10.8746667 141.136,10.9439994 141.168,11.072 C141.285334,11.5626691 141.346667,12.1093303 141.352,12.712 C141.357333,13.3146697 141.333334,13.8719974 141.28,14.384 Z M164.064,2.784 L162.816,2.56 C162.8,2.56 161.856,2.544 161.76,2.56 C161.152,2.624 160.416,2.688 159.088,3.248 C158.064,3.664 157.888,4.192 157.792,4.512 C158.048,4.528 158.128,4.48 158.848,4.048 C158.928,4.016 160.784,2.976 162.24,2.976 C163.232,2.976 163.728,3.344 164.208,3.712 C164.896,4.24 164.944,4.88 164.944,5.12 C164.944,5.536 164.768,5.856 164.656,6.048 C164.832,6.416 164.832,6.768 164.832,6.864 C164.832,7.584 164.208,7.776 163.936,7.776 C163.76,7.776 163.76,7.776 162.688,7.536 C162.448,7.472 162.144,7.472 162.032,7.472 C161.68,7.472 161.056,7.536 160.8,7.6 L159.296,8 C158.352,8.256 158.24,8.272 157.952,8.304 C157.968,8.384 158.064,8.752 158.08,8.832 C158.096,8.912 158.096,8.992 158.112,9.12 C158.704,8.752 159.248,8.512 159.296,8.48 L160.16,8.176 C160.832,7.936 161.52,7.888 161.984,7.888 C163.424,7.888 164.368,8.432 164.848,9.232 C165.248,9.888 165.344,10.096 165.424,10.944 C165.472,11.072 165.472,11.264 165.472,11.472 L165.456,12.784 C165.456,13.232 165.408,13.28 165.408,13.536 C165.376,13.696 165.312,14.448 165.264,14.544 C165.168,14.8 164.976,15.312 163.952,15.312 C163.712,15.312 163.632,15.296 162.912,15.152 C162.752,15.12 162.032,15.072 161.84,15.072 C161.312,15.072 158.944,15.312 158.448,15.312 C157.504,15.312 156.192,15.056 156.16,13.712 L156.128,12.24 L156.128,11.776 C156,11.84 155.92,11.888 155.728,11.888 C155.328,11.888 155.056,11.632 154.832,11.168 L154.848,11.872 L154.944,12.96 C154.96,13.12 154.992,13.968 154.992,14.272 C154.992,14.96 154.672,15.504 153.904,15.504 C153.328,15.504 153.248,15.44 152.944,15.184 C152.608,14.992 152.352,14.816 152.368,14.08 L152.4,12.704 L152.4,12.112 C152.224,12.24 152.096,12.304 151.936,12.304 C151.008,12.304 150.32,11.312 150.32,10.416 C150.32,9.872 150.656,8.944 151.616,8.048 C150.896,7.648 150.48,6.656 150.48,6.144 C150.48,4.912 152.128,3.84 153.152,3.36 C152.688,3.12 152.48,3.04 152.048,2.896 C151.808,2.816 150.928,2.528 150.928,1.888 C150.928,1.184 151.856,0.576 152.784,0.576 C154.256,0.576 155.856,2.128 155.856,3.024 C155.856,3.584 155.504,3.824 155.072,4 L153.744,4.56 C153.296,4.832 152.928,5.056 152.576,5.472 C152.272,5.808 152.144,6.16 152.144,6.352 C152.144,6.448 152.208,6.576 152.352,6.576 C152.432,6.576 152.528,6.56 152.736,6.32 L153.472,5.488 C153.68,5.264 154.24,4.64 154.848,4.64 C155.504,4.64 155.856,5.248 156.16,5.76 C156.16,4.752 156.336,4.48 156.96,3.52 C156.208,3.152 156.064,2.576 156.064,2.32 C156.064,1.984 156.176,1.856 156.576,1.744 C157.328,1.552 157.424,1.504 158.304,1.12 C158.512,1.04 160.592,0.336 162.112,0.336 C164.144,0.336 165.024,1.296 165.024,2.128 C165.024,2.912 164.192,2.8 164.064,2.784 Z M156.976,7.872 C156.624,7.504 156.4,7.072 156.256,6.592 C156.192,7.072 156.16,7.28 155.424,8.304 C155.872,8.592 156.048,8.768 156.288,9.168 C156.288,9.104 156.304,8.832 156.304,8.784 C156.304,8.72 156.24,8.464 156.24,8.416 C156.24,7.952 156.704,7.904 156.976,7.872 Z M161.984,4.592 L160.992,5.136 C160.496,5.408 159.184,5.92 158.784,5.92 C158.4,5.92 157.888,5.792 157.616,5.488 C157.52,6.112 157.856,6.672 158.064,6.672 C158.224,6.672 158.896,6.432 159.024,6.4 C159.36,6.304 160.928,5.888 161.136,5.808 C161.44,5.68 162.384,5.072 162.48,4.8 C162.496,4.624 162.24,4.528 162.192,4.528 C162.144,4.528 162.032,4.576 161.984,4.592 Z M158,10.992 L158,11.744 C158.224,11.616 158.336,11.568 158.672,11.504 L158.672,11.2 C158.528,11.168 158.144,11.04 158,10.992 Z M158.112,13.52 C158.432,13.44 158.512,13.408 158.8,13.376 C158.8,13.312 158.752,13.024 158.736,12.96 C158.496,12.896 158.352,12.848 158.048,12.688 C158.096,13.248 158.112,13.312 158.112,13.52 Z M161.552,10.464 C161.664,10.416 161.792,10.352 162.016,10.352 C162.24,10.352 162.384,10.416 162.512,10.464 C162.528,10.208 162.512,9.904 162.496,9.776 C162.48,9.648 162.352,9.648 162.352,9.648 C162.224,9.648 161.712,9.888 161.552,9.968 L161.552,10.464 Z M161.648,12.4 L161.648,12.912 C161.984,12.816 162.304,12.784 162.464,12.768 L162.464,12.112 C162.272,12.24 162.192,12.272 161.648,12.4 Z M172.064,11.072 L172.096,12.768 L172.064,14.128 C172.048,14.672 171.856,14.896 171.472,15.072 C171.344,15.136 171.088,15.248 170.8,15.248 C170.544,15.248 170.048,15.152 169.888,15.04 C169.36,14.672 169.312,14.176 169.312,14.016 C169.312,13.728 169.36,13.28 169.36,12.992 C168.944,13.04 168.56,13.056 168.064,12.72 C167.424,12.288 167.136,11.552 167.136,11.248 C167.136,11.072 167.232,10.544 167.408,10.352 L168.304,9.344 C168.432,9.216 168.896,8.592 169.008,8.464 C168.576,8.48 168.272,8.496 167.776,8.24 C166.544,7.584 166.544,5.904 166.544,5.744 C166.544,4.816 166.896,4.32 167.424,3.648 C167.584,3.44 168.912,2.224 169.312,2 C169.36,1.984 169.456,1.92 169.456,1.856 C169.456,1.84 169.44,1.84 169.44,1.824 C169.28,1.552 169.264,1.52 169.264,1.392 C169.264,0.928 169.728,0.496 170.592,0.496 C172.064,0.496 172.704,1.552 172.704,2.304 C172.704,2.592 172.528,2.88 172.32,3.04 C172.144,3.184 172.048,3.2 171.456,3.392 C171.856,3.952 171.872,4.176 171.904,4.48 C172.992,4.624 173.376,5.184 173.376,6.208 C173.376,7.264 172.496,7.424 172.016,7.504 C172,7.664 172,7.696 172,7.76 C172.432,8.08 172.608,8.24 172.832,8.672 C172.912,8.816 173.104,9.2 173.104,9.568 C173.104,9.872 172.96,10.432 172.736,10.704 C172.56,10.944 172.256,11.024 172.064,11.072 Z M169.44,5.12 C169.2,4.944 169.024,4.736 168.96,4.432 C168.704,4.592 168.224,4.88 168.176,4.928 C168.048,5.008 167.728,5.264 167.728,5.44 C167.728,5.488 167.76,5.776 168.048,5.776 C168.288,5.776 169.2,5.264 169.44,5.12 Z M177.936,10.32 L177.936,7.552 L177.952,7.024 L178,5.648 L178.224,3.104 C178.24,3.024 178.032,2.736 177.872,2.736 C177.424,2.736 176.368,3.936 176.4,4.816 L176.448,6.16 L176.496,6.656 L176.512,9.536 C176.512,9.856 176.496,10.64 176.304,10.88 C175.904,11.344 175.824,11.424 175.392,11.424 C174.736,11.424 174.48,11.376 174.128,10.944 C173.872,10.64 173.664,10.064 173.68,9.728 L173.712,8.384 L173.856,6.464 L173.984,4.08 C174,3.888 173.936,2.992 173.952,2.8 C173.904,2.72 173.68,2.336 173.68,2.336 C173.632,2.096 173.6,2.016 173.6,1.92 C173.6,1.44 174.16,0.928 174.64,0.928 C175.104,0.928 175.664,1.248 175.872,1.456 C175.904,1.488 176.192,1.872 176.272,1.968 C176.48,1.664 177.12,0.752 178.224,0.752 C179.376,0.752 180.256,1.888 180.352,2.08 C180.832,3.008 180.88,3.104 180.944,3.488 C181.008,3.824 181.008,3.84 181.024,4.144 C181.024,4.16 181.04,4.256 181.04,4.272 L180.992,7.504 L180.992,9.632 C180.992,10 181.104,11.616 181.104,11.952 C181.104,12.752 180.96,13.968 180.368,14.464 C180.032,14.752 180,14.784 179.856,14.832 C179.472,14.976 178.64,15.168 177.968,15.168 C176.512,15.168 175.008,14.32 173.904,13.456 C173.728,13.312 173.04,12.192 173.04,12.112 C173.04,12.048 173.184,12 173.232,12 L173.712,12.144 C173.84,12.176 174.416,12.304 174.544,12.336 L176.048,12.48 C176.352,12.512 176.832,12.544 177.12,12.544 C177.776,12.544 177.808,12.48 177.856,12.368 C177.984,12.096 178,11.872 178,11.808 L177.936,10.32 Z" id="到账福利" fill="url(#linearGradient-2)"></path>
            </g>
        </g>
    </g>
</svg>