<?xml version="1.0" encoding="UTF-8"?>
<svg width="23px" height="14px" viewBox="0 0 23 14" version="1.1" xmlns="http://www.w3.org/2000/svg" xmlns:xlink="http://www.w3.org/1999/xlink">
    <!-- Generator: Sketch 49 (51002) - http://www.bohemiancoding.com/sketch -->
    <title>chain</title>
    <desc>Created with Sketch.</desc>
    <defs>
        <linearGradient x1="100%" y1="50%" x2="0%" y2="50%" id="linearGradient-1">
            <stop stop-color="#F04A4F" offset="0%"></stop>
            <stop stop-color="#F865B6" offset="100%"></stop>
        </linearGradient>
        <rect id="path-2" x="0" y="0" width="23" height="14" rx="7"></rect>
        <linearGradient x1="-1.11022302e-14%" y1="50%" x2="100%" y2="50%" id="linearGradient-3">
            <stop stop-color="#F55C92" offset="0%"></stop>
            <stop stop-color="#F3526C" offset="100%"></stop>
        </linearGradient>
    </defs>
    <g id="新人有礼-V3.0-完全新人" stroke="none" stroke-width="1" fill="none" fill-rule="evenodd">
        <g id="新人有礼弹窗-02" transform="translate(-258.000000, -141.000000)">
            <g id="chain" transform="translate(258.000000, 141.000000)">
                <g id="Rectangle-9">
                    <use fill="url(#linearGradient-1)" fill-rule="evenodd" xlink:href="#path-2"></use>
                    <rect stroke="#FFFFFF" stroke-width="1" x="0.5" y="0.5" width="22" height="13" rx="6.5"></rect>
                </g>
                <path d="M6.5,4.5 C5.11928813,4.5 4,5.61928813 4,7 C4,8.38071187 5.11928813,9.5 6.5,9.5 L8.5,9.5 C9.88071187,9.5 11,8.38071187 11,7 C11,5.61928813 9.88071187,4.5 8.5,4.5 L6.5,4.5 Z M14.5,4.5 C13.1192881,4.5 12,5.61928813 12,7 C12,8.38071187 13.1192881,9.5 14.5,9.5 L16.5,9.5 C17.8807119,9.5 19,8.38071187 19,7 C19,5.61928813 17.8807119,4.5 16.5,4.5 L14.5,4.5 Z" id="Combined-Shape" stroke="#FFFFFF"></path>
                <rect id="Rectangle-15" fill="#FFFFFF" x="8" y="6.5" width="7" height="1" rx="0.5"></rect>
                <rect id="Rectangle-15" fill="url(#linearGradient-3)" x="8" y="5.5" width="7" height="1" rx="0.5"></rect>
                <rect id="Rectangle-15" fill="url(#linearGradient-3)" x="8" y="7.5" width="7" height="1" rx="0.5"></rect>
            </g>
        </g>
    </g>
</svg>