<?xml version="1.0" encoding="UTF-8"?>
<svg width="266px" height="74px" viewBox="0 0 266 74" version="1.1" xmlns="http://www.w3.org/2000/svg" xmlns:xlink="http://www.w3.org/1999/xlink">
    <!-- Generator: Sketch 49 (51002) - http://www.bohemiancoding.com/sketch -->
    <title>新人礼coupon</title>
    <desc>Created with Sketch.</desc>
    <defs></defs>
    <g id="新人有礼-V3.0-完全新人" stroke="none" stroke-width="1" fill="none" fill-rule="evenodd">
        <g id="新人有礼弹窗-01a" transform="translate(-55.000000, -215.000000)" fill="#FFFFFF">
            <g id="Group-28" transform="translate(55.000000, 215.000000)">
                <path d="M88.0021832,74 L3.8458278,74 C2.50854969,74 2.02362033,73.8607616 1.53473144,73.5993009 C1.04584256,73.3378403 0.662159695,72.9541574 0.400699056,72.4652686 C0.139238417,71.9763797 0,71.4914503 0,70.1541722 L0,3.8458278 C0,2.50854969 0.139238417,2.02362033 0.400699056,1.53473144 C0.662159695,1.04584256 1.04584256,0.662159695 1.53473144,0.400699056 C2.02362033,0.139238417 2.50854969,-9.02779573e-17 3.8458278,1.55376046e-16 L88.0021832,5.41336199e-17 C88.000732,0.0390768167 88,0.078337453 88,0.117769061 C88,1.83966537 89.3958728,3.23553812 91.1177691,3.23553812 C92.8396654,3.23553812 94.2355381,1.83966537 94.2355381,0.117769061 C94.2355381,0.078337453 94.2348061,0.0390768167 94.2333549,-9.22872889e-16 L262.154172,-1.55376046e-16 C263.49145,9.02779573e-17 263.97638,0.139238417 264.465269,0.400699056 C264.954157,0.662159695 265.33784,1.04584256 265.599301,1.53473144 C265.860762,2.02362033 266,2.50854969 266,3.8458278 L266,70.1541722 C266,71.4914503 265.860762,71.9763797 265.599301,72.4652686 C265.33784,72.9541574 264.954157,73.3378403 264.465269,73.5993009 C263.97638,73.8607616 263.49145,74 262.154172,74 L94.2333549,74 C94.1714359,72.3326735 92.8002338,71 91.1177691,71 C89.4353044,71 88.0641022,72.3326735 88.0021832,74 Z" id="新人礼coupon"></path>
            </g>
        </g>
    </g>
</svg>