<?xml version="1.0" encoding="utf-8"?>
<!-- Generator: Adobe Illustrator 20.1.0, SVG Export Plug-In . SVG Version: 6.00 Build 0)  -->
<svg version="1.1" id="图层_1" xmlns="http://www.w3.org/2000/svg" xmlns:xlink="http://www.w3.org/1999/xlink" x="0px" y="0px"
	 viewBox="0 0 42 36" style="enable-background:new 0 0 42 36;" xml:space="preserve">
<style type="text/css">
	.st0{fill:url(#path-2_1_);}
	.st1{fill:none;stroke:#D9212E;}
	.st2{fill:#FE8D15;}
	.st3{fill:url(#SVGID_1_);}
	.st4{filter:url(#filter-3);}
	.st5{fill:#FFFFFF;}
	.st6{filter:url(#filter-4);}
	.st7{filter:url(#filter-5);}
</style>
<filter  filterUnits="objectBoundingBox" height="219.5%" id="filter-5" width="506.5%" x="-203.2%" y="-59.8%">
	<feGaussianBlur  in="SourceGraphic" stdDeviation="3"></feGaussianBlur>
</filter>
<filter  filterUnits="objectBoundingBox" height="219.5%" id="filter-4" width="506.5%" x="-203.2%" y="-59.8%">
	<feGaussianBlur  in="SourceGraphic" stdDeviation="3"></feGaussianBlur>
</filter>
<filter  filterUnits="objectBoundingBox" height="506.5%" id="filter-3" width="158.1%" x="-29.0%" y="-203.2%">
	<feGaussianBlur  in="SourceGraphic" stdDeviation="3"></feGaussianBlur>
</filter>
<title>提示图标</title>
<desc>Created with Sketch.</desc>
<g id="新人有礼-V3.0-完全新人">
	<g id="新人有礼弹窗-01" transform="translate(-52.000000, -154.000000)">
		<g id="提示图标" transform="translate(55.000000, 155.000000)">
			<g id="Oval-4">
				<g>
					
						<linearGradient id="path-2_1_" gradientUnits="userSpaceOnUse" x1="-386.1538" y1="304.5492" x2="-386.1538" y2="303.5492" gradientTransform="matrix(26 0 0 -26 10066 7927.2798)">
						<stop  offset="0" style="stop-color:#FFFA9F"/>
						<stop  offset="1" style="stop-color:#FED031"/>
					</linearGradient>
					<circle id="path-2" class="st0" cx="26" cy="22" r="13"/>
				</g>
				<circle class="st1" cx="26" cy="22" r="12.5"/>
			</g>
			<path id="Combined-Shape" class="st2" d="M21.5,18.9c0,0.2,0.2,0.4,0.5,0.4l2.1-0.2c0.3,0,0.5-0.2,0.6-0.5v-0.1
				c0-0.2-0.2-0.4-0.5-0.4L22,18.3C21.8,18.3,21.5,18.5,21.5,18.9L21.5,18.9z M26.6,18.4c0,0.2,0.2,0.4,0.5,0.4l2.1-0.2
				c0.3,0,0.5-0.2,0.6-0.5V18c0-0.2-0.2-0.4-0.5-0.4l-2.1,0.2C26.8,17.8,26.6,18,26.6,18.4L26.6,18.4z M29.3,20.5
				c-0.2,0.3-0.5,0.4-0.9,0.5l-1.6,0.2c-0.1,0-0.6,0.2-0.6,0.4c0,0.3,0.3,0.3,0.5,0.3l2.4-0.3c0.1,0,0.2-0.1,0.3-0.2
				c0.1-0.1,0.1-0.2,0.1-0.3v-1.2c0-0.2-0.2-0.4-0.5-0.4L27,19.6c-0.1,0-0.5,0.2-0.6,0.4s0.3,0.3,0.5,0.3l2-0.2
				C29.3,20.1,29.5,20.2,29.3,20.5L29.3,20.5z M31.8,22.3c0,0.2-0.2,0.5-0.5,0.5l-0.8,0.1c-0.3,0-0.5-0.1-0.6-0.4l0,0.1
				c-0.1-0.3-0.3-0.4-0.6-0.4l-10.2,1.3c-0.3,0-0.5-0.1-0.5-0.4v0.1c0.1-0.3,0.3-0.5,0.6-0.5l4.7-0.6c0.3,0,0.5-0.2,0.6-0.5l0,0.2
				c0-0.2-0.2-0.4-0.5-0.4l-4,0.4c-0.3,0-0.5-0.1-0.5-0.4l0.2-3.2c0.1-0.3,0.3-0.5,0.6-0.5l4-0.4c0.3,0,0.5-0.2,0.6-0.5l0,0.3
				c0-0.2-0.2-0.4-0.5-0.4l-4.7,0.5c-0.3,0-0.5-0.1-0.5-0.4v0.1c0.1-0.3,0.3-0.5,0.6-0.5l4.7-0.5c0.2,0,0.4-0.1,0.6-0.3
				c0.1-0.3,0.3-0.5,0.6-0.5l0.8-0.1c0.3,0,0.5,0.1,0.5,0.4c0.1,0.1,0.3,0.2,0.5,0.2l4.7-0.5c0.3,0,0.4,0.1,0.3,0.4l0,0
				c-0.2,0.3-0.5,0.4-0.8,0.5l-4.2,0.4c-0.3,0-0.5,0.2-0.6,0.5l0-0.3c0,0.2,0.2,0.4,0.5,0.4l4-0.4c0.3,0,0.5,0.1,0.5,0.4l-0.2,3
				c0,0.3,0,0.6,0,0.9L31.8,22.3z M33.2,23.3c0.2,0.1,0.4,0.3,0.4,0.5c0.1,0.2,0,0.5-0.1,0.7c-0.1,0.2-0.3,0.3-0.6,0.3l-0.3,0
				L32.3,25c-0.1,0.1-0.3,0-0.4,0s-0.2-0.2-0.2-0.3c-0.1-0.4-0.4-0.8-1.4-0.2c0.6,0.4,0.9,1.2,0.7,1.9c-0.5,2.5-6.1,3.4-8.6,1.3
				c-0.8-0.6-1.2-1.5-1.4-2.4c0-0.2,0-0.3,0.1-0.5s0.3-0.2,0.4-0.2l0.7-0.1c0.3,0,0.6,0.2,0.7,0.5c0.1,0.8,0.8,2.4,4,2.3
				c3.8-0.1,2.8-1.8,2.5-2.2c-1.8,1.4-2.6,1.3-2.6,1.3c-0.2,0-0.4,0.1-0.7,0.1c-1.9,0-2.5-1.3-1.7-2.1c1.4-1.5,4.4-0.4,4.7-0.3
				c0.2-0.1,0.4-0.2,0.6-0.3C29.8,23.7,31.7,22.4,33.2,23.3z M18,26.7c0-0.4,0.1-0.8,0.2-1.2c0.1-0.2,0.2-0.4,0.5-0.4l0.6-0.1
				c0.2,0,0.3,0,0.4,0.2s0.1,0.3,0.1,0.5c0,0.2-0.1,0.3-0.1,0.5c-0.1,0.3-0.1,0.5-0.1,0.8c0,0.3-0.2,0.5-0.5,0.5l-0.6,0.1
				c-0.2,0-0.3,0-0.4-0.1S18,27.1,18,27L18,26.7z M25.4,24.5c-0.5,0.4,0.1,1,1.7,0.5c0,0,0.5-0.2,1.2-0.5
				C27.9,24.3,26.3,23.7,25.4,24.5z"/>
		</g>
	</g>
</g>
<linearGradient id="SVGID_1_" gradientUnits="userSpaceOnUse" x1="24.4667" y1="21.3975" x2="27.6608" y2="21.3975">
	<stop  offset="0" style="stop-color:#FFFA9F"/>
	<stop  offset="1" style="stop-color:#FED031"/>
</linearGradient>
<path class="st3" d="M24.9,21.9c-0.2,0-0.4-0.1-0.4-0.3c0-0.2,0.2-0.4,0.4-0.4l2.3-0.2c0.2,0,0.4,0.1,0.4,0.3c0,0.2-0.2,0.4-0.4,0.4
	L24.9,21.9z"/>
<g id="Group-26" transform="translate(17.500000, 14.528571) scale(-1, 1) rotate(30.000000) translate(-17.500000, -14.528571) translate(2.000000, 7.000000)">
	<g id="Oval-8" class="st4">
		<ellipse transform="matrix(0.866 -0.5 0.5 0.866 -2.4197 8.0266)" class="st5" cx="13.8" cy="8.5" rx="15.5" ry="2.2"/>
	</g>
	<g id="Oval-10" class="st6">
		<ellipse transform="matrix(0.866 -0.5 0.5 0.866 -2.4197 8.0266)" class="st5" cx="13.8" cy="8.5" rx="2.2" ry="7.5"/>
	</g>
	<g id="Oval-10_1_" class="st7">
		<ellipse transform="matrix(0.1219 -0.9925 0.9925 0.1219 3.6251 21.1545)" class="st5" cx="13.8" cy="8.5" rx="7.5" ry="2.2"/>
	</g>
</g>
</svg>
