<?xml version="1.0" encoding="utf-8"?>
<!-- Generator: Adobe Illustrator 20.1.0, SVG Export Plug-In . SVG Version: 6.00 Build 0)  -->
<svg version="1.1" id="图层_1" xmlns="http://www.w3.org/2000/svg" xmlns:xlink="http://www.w3.org/1999/xlink" x="0px" y="0px"
	 viewBox="0 0 21 61" style="enable-background:new 0 0 21 61;" xml:space="preserve">
<style type="text/css">
	.st0{fill:url(#Rectangle-9_1_);}
	.st1{fill:url(#即-领-即-用_1_);}
	.st2{fill:#ACE2FF;}
</style>
<title>即领即用</title>
<desc>Created with Sketch.</desc>
<g id="新人有礼-V3.0-完全新人">
	<g id="新人有礼弹窗-01" transform="translate(-321.000000, -222.000000)">
		<g id="即领即用" transform="translate(321.000000, 222.000000)">
			
				<linearGradient id="Rectangle-9_1_" gradientUnits="userSpaceOnUse" x1="-390.1796" y1="323.403" x2="-390.4762" y2="323.403" gradientTransform="matrix(21 0 0 -61 8200 19758.0801)">
				<stop  offset="0" style="stop-color:#EEF9FF"/>
				<stop  offset="1" style="stop-color:#CEE2EE"/>
			</linearGradient>
			<polygon id="Rectangle-9" class="st0" points="0,0 15,0 21,7 21,61 0,61 			"/>
			
				<linearGradient id="即-领-即-用_1_" gradientUnits="userSpaceOnUse" x1="-370.0996" y1="322.0386" x2="-370.0996" y2="321.0386" gradientTransform="matrix(10.406 0 0 -42.779 3861.7021 13786.7227)">
				<stop  offset="0" style="stop-color:#3B8CE8"/>
				<stop  offset="1" style="stop-color:#4BB3FE"/>
			</linearGradient>
			<path id="即-领-即-用" class="st1" d="M9.3,11.4h-2v0.9h2V11.4z M7.4,14.5h2v-1h-2V14.5z M8.3,16.5l1.1-0.6
				c0.6,0.9,1.2,2.1,1.5,2.9l-1.2,0.6c-0.1-0.3-0.2-0.6-0.4-0.9c-2.6,0.8-3,1-3.3,1.2c-0.1-0.4-0.3-1-0.5-1.3C5.8,18.3,6,18,6,17.6
				v-7.4h4.6v5.4H7.4v2.2l1.5-0.4C8.7,17.1,8.5,16.8,8.3,16.5z M15.2,10.3v6.3c0,0.6-0.1,0.9-0.5,1.2C14.4,18,13.9,18,13.2,18
				c0-0.4-0.2-0.9-0.4-1.2c0.4,0,0.8,0,0.9,0c0.1,0,0.2,0,0.2-0.2v-5.1h-1.3V20h-1.3v-9.6H15.2z M10.7,23.3h1.4
				c0.1-0.3,0.2-0.6,0.3-0.9h-1.9v-1.1h5v1.1h-1.9c-0.1,0.3-0.3,0.6-0.4,0.9h2.1v5.1h-1.2v-4.2h-2.2v4.2h-1.2V23.3z M10.7,23.9
				l-0.8,0.9c-0.4-0.6-1.1-1.4-1.7-2.1c-0.6,0.9-1.2,1.8-2,2.5c-0.2-0.2-0.6-0.6-0.9-0.9c1.1-0.9,2.1-2.3,2.6-3.6L9,21
				c-0.1,0.2-0.2,0.5-0.3,0.7C9.4,22.4,10.3,23.3,10.7,23.9z M7.2,24.1L8,23.6c0.4,0.4,0.9,0.9,1.1,1.2l-0.8,0.6
				C8,25.1,7.6,24.5,7.2,24.1z M9.4,25.4l0.8,0.5c-0.4,1.1-1.1,2.3-1.7,3.2c0.3,0.3,0.6,0.7,0.8,0.9l-0.9,0.8
				c-0.4-0.7-1.4-1.7-2.2-2.5L7,27.8c0.2,0.2,0.4,0.4,0.6,0.6c0.3-0.5,0.7-1.2,1-1.7H6.1v-1.1h3.1L9.4,25.4z M13.1,28.9l0.6-0.5
				c0.7,0.5,1.6,1.3,2,1.8L14.8,31c-0.4-0.5-1.2-1.2-1.8-1.8c-0.4,0.9-1.2,1.4-2.4,1.8c-0.1-0.3-0.4-0.7-0.6-0.9
				c2.5-0.7,2.5-2,2.5-5.5h1.1C13.5,26.5,13.5,27.9,13.1,28.9z M9.3,33.4h-2v0.9h2V33.4z M7.4,36.5h2v-1h-2V36.5z M8.3,38.5l1.1-0.5
				c0.6,0.9,1.2,2.1,1.5,2.9l-1.2,0.6c-0.1-0.3-0.2-0.6-0.4-0.9c-2.6,0.8-3,1-3.3,1.2c-0.1-0.4-0.3-1-0.5-1.3C5.8,40.3,6,40,6,39.6
				v-7.4h4.6v5.4H7.4v2.2l1.5-0.4C8.7,39.1,8.5,38.8,8.3,38.5z M15.2,32.3v6.3c0,0.6-0.1,0.9-0.5,1.2C14.4,40,13.9,40,13.2,40
				c0-0.4-0.2-0.9-0.4-1.2c0.4,0,0.8,0,0.9,0c0.1,0,0.2,0,0.2-0.2v-5.1h-1.3V42h-1.3v-9.6H15.2z M11.3,48.5h2.3v-1.4h-2.3V48.5z
				 M7.8,48.5h2.1v-1.4H7.9v0.2C7.9,47.7,7.9,48.1,7.8,48.5z M9.9,44.7H7.9v1.3h2.1V44.7z M13.6,45.9v-1.3h-2.3v1.3H13.6z
				 M14.9,43.4v8c0,0.7-0.2,1.1-0.6,1.3c-0.5,0.2-1.1,0.2-2.1,0.2c0-0.4-0.3-0.9-0.4-1.3c0.6,0,1.3,0,1.5,0c0.2,0,0.3-0.1,0.3-0.3
				v-1.7h-2.3v3.1H9.9v-3.1H7.7c-0.2,1.2-0.6,2.4-1.4,3.3c-0.2-0.2-0.7-0.7-1-0.8c1.2-1.3,1.3-3.3,1.3-4.8v-3.9H14.9z"/>
			<polygon id="Path-4" class="st2" points="15,0 15,8 21,7 			"/>
		</g>
	</g>
</g>
</svg>
