<?xml version="1.0" encoding="UTF-8"?>
<svg width="244px" height="198px" viewBox="0 0 244 198" version="1.1" xmlns="http://www.w3.org/2000/svg" xmlns:xlink="http://www.w3.org/1999/xlink">
    <!-- Generator: Sketch 42 (36781) - http://www.bohemiancoding.com/sketch -->
    <title>border2</title>
    <desc>Created with Sketch.</desc>
    <defs></defs>
    <g id="H5优化-&gt;-关注有礼流程图" stroke="none" stroke-width="1" fill="none" fill-rule="evenodd">
        <g id="切图" transform="translate(-641.000000, -59.000000)">
            <g id="Group-15" transform="translate(641.000000, 59.000000)">
                <path d="M2,39.0060501 L2,186.99395 C2,191.973171 6.0245492,196 10.9949117,196 L233.005088,196 C237.965728,196 242,191.964227 242,186.99395 L242,39.0060501 C242,34.026829 237.975451,30 233.005088,30 L10.9949117,30 C6.03427238,30 2,34.035773 2,39.0060501 Z M0,39.0060501 C0,32.93137 4.92953634,28 10.9949117,28 L233.005088,28 C239.080274,28 244,32.922513 244,39.0060501 L244,186.99395 C244,193.06863 239.070464,198 233.005088,198 L10.9949117,198 C4.91972607,198 0,193.077487 0,186.99395 L0,39.0060501 Z" id="Rectangle-20" fill="#D5C081" fill-rule="nonzero"></path>
                <g id="Group-25" transform="translate(103.000000, 0.000000)">
                    <path d="M19,38 C29.4934102,38 38,29.4934102 38,19 C38,8.50658975 29.4934102,0 19,0 C8.50658975,0 0,8.50658975 0,19 C0,29.4934102 8.50658975,38 19,38 Z" id="Path" fill="#D5C081"></path>
                    <path d="M19,36 C9.61115925,36 2,28.3888407 2,19 C2,9.61115925 9.61115925,2 19,2 C28.3888407,2 36,9.61115925 36,19 C36,28.3888407 28.3888407,36 19,36 Z" id="Oval-6" fill="#FFFFFF" fill-rule="nonzero"></path>
                    <path d="M22.2638598,23.1526084 L13.0025713,23.1526084 C11.8215264,23.1526084 10.8447401,24.1226581 10.8447401,25.3192751 C10.8447401,26.5242346 11.810834,27.4859418 13.0025713,27.4859418 L24.6869089,27.4859418 C25.8679537,27.4859418 26.8447401,26.5158921 26.8447401,25.3192751 C26.8447401,24.9353242 26.7466498,24.5760714 26.5744249,24.2647606 C26.58943,24.1613044 26.5971932,24.0554769 26.5971932,23.9478179 L26.5971932,6.28712476 C26.5971932,5.09117058 25.6271435,4.11747134 24.4305265,4.11747134 C23.2255669,4.11747134 22.2638598,5.08885826 22.2638598,6.28712476 L22.2638598,23.1526084 Z" id="Combined-Shape" fill="#D5C081" transform="translate(18.844740, 15.801707) rotate(45.000000) translate(-18.844740, -15.801707) "></path>
                </g>
            </g>
        </g>
    </g>
</svg>