<?xml version="1.0" encoding="UTF-8"?>
<svg width="193px" height="95px" viewBox="0 0 193 95" version="1.1" xmlns="http://www.w3.org/2000/svg" xmlns:xlink="http://www.w3.org/1999/xlink">
    <!-- Generator: Sketch 42 (36781) - http://www.bohemiancoding.com/sketch -->
    <title>notice</title>
    <desc>Created with Sketch.</desc>
    <defs>
        <linearGradient x1="16.9039445%" y1="-23.4623545%" x2="100%" y2="100%" id="linearGradient-1">
            <stop stop-color="#D5C081" offset="0%"></stop>
            <stop stop-color="#8B6224" offset="100%"></stop>
        </linearGradient>
        <rect id="path-2" x="106" y="7" width="80" height="80"></rect>
        <mask id="mask-3" maskContentUnits="userSpaceOnUse" maskUnits="objectBoundingBox" x="0" y="0" width="80" height="80" fill="white">
            <use xlink:href="#path-2"></use>
        </mask>
    </defs>
    <g id="H5优化-&gt;-关注有礼流程图" stroke="none" stroke-width="1" fill="none" fill-rule="evenodd">
        <g id="切图" transform="translate(-912.000000, -331.000000)">
            <g id="Group-21" transform="translate(912.000000, 331.000000)">
                <g id="Group-20" transform="translate(0.000000, 19.000000)" fill="#000000">
                    <path d="M44.9203288,56.915552 C44.722314,56.849051 44.5242992,56.4500445 44.5242992,56.1840401 C44.5903041,56.1175391 44.722314,55.7850336 44.9203288,55.4525282 C46.900477,52.3269774 48.0885659,49.0019232 48.5506005,45.1448605 C48.6826104,44.2138453 48.7486153,42.7508215 48.7486153,41.9528085 C48.7486153,41.4207998 48.7486153,41.1547955 48.8806252,41.0217933 C49.07864,40.4232836 49.8706993,40.4897847 50.134719,41.0882944 C50.2667289,41.4873009 50.0687141,44.6793529 49.7386894,46.7408864 C49.2106499,49.9994395 47.956556,53.1914914 46.2404276,56.051038 C45.7123881,56.915552 45.3823634,57.1150553 44.9203288,56.915552 Z M41.2900571,56.849051 C41.0260374,56.7825499 40.8280225,56.5165456 40.8940275,56.2505412 C40.8940275,55.9845369 40.9600324,55.8515347 41.422067,55.1865239 C42.9401806,53.1914914 44.0622646,50.9969557 44.722314,48.6694178 C44.8543239,48.2039102 44.9863337,47.8049038 45.0523387,47.7384027 C45.2503535,47.4058973 45.778393,47.2728951 46.1084177,47.6054005 C46.3724375,47.8049038 46.4384424,48.004407 46.1744227,48.9354222 C45.3823634,51.5289644 44.1942745,53.9230033 42.478146,56.1175391 C41.9501065,56.849051 41.6860868,57.0485542 41.2900571,56.849051 Z M49.144645,55.6520315 C48.9466301,55.5855304 48.7486153,55.253025 48.7486153,55.0535217 C48.7486153,54.9870207 48.9466301,54.455012 49.2106499,53.9230033 C50.7287635,50.5979492 51.4548178,47.5388994 51.7188376,43.6153356 C51.7848425,42.351815 51.7848425,38.7607565 51.6528327,37.8297414 C51.5208228,36.5662208 50.9927833,35.2361992 50.2667289,34.1056808 C49.8046944,33.4406699 48.7486153,32.4431537 48.0885659,31.9776461 C46.5704523,30.9801299 45.2503535,30.5146223 43.4682201,30.4481212 C42.0821164,30.4481212 40.8940275,30.6476245 39.7059386,31.1796331 C39.177899,31.4456375 38.9138793,31.4456375 38.6498595,31.1796331 C38.3858398,30.9801299 38.3198348,30.7141256 38.4518447,30.4481212 C38.5838546,30.1821169 38.7818694,30.0491147 39.5079237,29.7166093 C41.8180966,28.8520953 44.1282695,28.7855942 46.4384424,29.5836072 C49.4086647,30.5811234 51.6528327,32.8421602 52.6429068,35.8347089 C53.0389364,37.0982295 53.1049413,37.5637371 53.1709463,40.4232836 C53.1709463,42.9503247 53.1709463,44.2803464 52.9069265,45.8763724 C52.5108969,49.0019232 51.6528327,52.1274741 50.3987388,54.7875174 C50.0687141,55.5190293 50.0027092,55.5855304 49.7386894,55.7185326 C49.4746697,55.7850336 49.3426598,55.7850336 49.144645,55.6520315 Z M36.2076768,55.3860272 C35.943657,55.1865239 35.8776521,54.7210163 36.0756669,54.455012 C36.0756669,54.3885109 36.4716965,54.1225066 36.8017212,53.8565023 C37.5937805,53.3244936 38.5178496,52.5929817 38.9798842,52.060973 C39.4419188,51.5289644 39.5739287,51.4624633 39.9039534,51.4624633 C40.4319929,51.4624633 40.6960127,52.060973 40.4979978,52.5264806 C40.365988,52.7259839 39.3759139,53.7235001 38.7818694,54.1890077 C38.5838546,54.3885109 38.0558151,54.7210163 37.6597854,54.9870207 C37.065741,55.4525282 36.8677262,55.5190293 36.6697113,55.5190293 C36.4716965,55.5190293 36.3396866,55.4525282 36.2076768,55.3860272 Z M53.2369512,53.9230033 C53.1709463,53.8565023 53.0389364,53.7235001 52.9729315,53.5904979 L52.8409216,53.3244936 L53.1709463,52.1939752 C54.4910451,48.2039102 54.9530797,44.4133485 54.7550648,39.4922684 C54.6890599,36.8987262 54.4910451,35.90121 53.8309957,34.4381862 C53.1709463,32.8421602 52.2468771,31.5121386 50.8607734,30.248618 C50.0687141,29.5836072 50.0027092,29.450605 50.134719,29.0515985 C50.2667289,28.7855942 50.5307487,28.5860909 50.7947684,28.5860909 C50.9927833,28.5860909 51.256803,28.7190931 51.9168524,29.3176028 C54.1610204,31.3126353 55.6131291,34.1056808 56.0751636,37.1647306 C56.2071735,38.1622468 56.2731785,42.6843204 56.1411686,44.2138453 C56.0091587,46.408381 55.679134,48.4034135 55.2170994,50.3319449 C54.8870747,51.5289644 54.4250401,52.9919882 54.2270253,53.5239968 C54.0290105,53.9230033 53.6329809,54.1225066 53.2369512,53.9230033 Z M32.7754199,53.0584893 C32.3793902,52.9254871 32.2473804,52.4599795 32.3793902,52.060973 C32.5114001,51.8614698 32.5114001,51.8614698 33.5674792,51.3959622 C36.6037064,50.1324416 38.6498595,47.8714048 39.4419188,44.9453572 C39.7059386,43.8813399 39.7719435,43.3493312 39.8379484,40.6892879 C39.9039534,38.0957457 39.9039534,38.0292446 40.0359633,37.5637371 C40.299983,36.9652273 40.5640028,36.4997197 41.0260374,36.0342122 C41.7520917,35.3692013 42.478146,35.103197 43.4682201,35.103197 C45.1183436,35.103197 46.5044474,36.1007132 47.0324869,37.7632403 C47.1644968,37.9627436 47.2305017,38.5612533 47.2965066,39.6252706 C47.3625116,41.6203031 47.3625116,42.7508215 47.2965066,43.0833269 C47.0324869,43.5488345 46.3724375,43.6153356 46.0424128,43.149828 C45.9104029,42.9503247 45.9104029,42.8838237 45.9104029,41.8198063 C45.9104029,41.2212966 45.9104029,40.1572793 45.844398,39.4922684 C45.778393,38.4282511 45.778393,38.2287479 45.5803782,37.8962425 C45.3823634,37.4307349 44.9203288,36.9652273 44.4582942,36.699223 C44.0622646,36.5662208 43.9302547,36.5662208 43.4682201,36.5662208 C43.0061856,36.5662208 42.8741757,36.5662208 42.544151,36.699223 C42.0821164,36.9652273 41.6200818,37.4307349 41.422067,37.9627436 C41.2900571,38.295249 41.2900571,38.4282511 41.2240522,40.9552923 C41.1580472,43.0168258 41.1580472,43.7483377 41.0920423,44.2138453 C40.299983,48.3369124 37.8578002,51.26296 33.699489,52.9254871 C33.1714495,53.1249903 32.9734347,53.1249903 32.7754199,53.0584893 Z M30.2012272,50.5314481 C29.9372075,50.398446 29.8051976,50.1324416 29.8051976,49.8664373 C29.8051976,49.4674308 30.0692174,49.2679276 30.8612766,49.0019232 C33.1714495,48.2039102 34.5575533,46.9403897 35.1515977,45.1448605 C35.4816224,44.0808431 35.5476274,43.5488345 35.6136323,40.6227868 C35.6796372,37.8962425 35.6796372,37.8297414 35.8116471,37.2977327 C36.0756669,36.4997197 36.2736817,36.0342122 36.7357163,35.3692013 C38.12182,33.2411667 40.6960127,31.911145 43.2042004,32.0441472 C46.1084177,32.1771494 48.6166054,34.1056808 49.4746697,36.8987262 C49.6726845,37.4307349 49.8046944,38.2287479 49.8046944,38.6942555 C49.8046944,39.2927652 49.2766548,39.6252706 48.7486153,39.4257674 C48.4845956,39.2927652 48.3525857,38.9602598 48.3525857,38.4947522 C48.3525857,37.2312316 47.5605264,35.6352057 46.3724375,34.7041905 C45.9104029,34.3716851 45.1843486,33.9061775 44.656309,33.7731754 C43.4682201,33.3741689 42.0161115,33.4406699 40.8280225,33.8396764 C39.3759139,34.3716851 38.0558151,35.6352057 37.4617706,36.9652273 C37.065741,37.8297414 37.065741,37.9627436 36.999736,40.8887912 C36.9337311,43.947841 36.9337311,44.2138453 36.4716965,45.4773659 C35.6796372,47.8714048 34.0295137,49.4009297 31.2573063,50.3319449 C30.465247,50.5979492 30.465247,50.5979492 30.2012272,50.5314481 Z M41.4880719,50.3319449 C41.2900571,50.2654438 41.0920423,49.9329384 41.0920423,49.6669341 C41.0920423,49.5339319 41.2240522,49.2679276 41.2900571,49.0019232 C41.6200818,48.4034135 41.9501065,47.4058973 42.1481213,46.6743854 C42.478146,45.2778626 42.544151,44.745854 42.6101559,42.2188128 C42.6101559,40.0242771 42.6761609,39.7582728 42.7421658,39.6252706 C43.0061856,39.2262641 43.4682201,39.159763 43.7982448,39.4922684 L44.0622646,39.6917717 L43.9962596,42.0193096 C43.9962596,44.6128518 43.9302547,45.4108648 43.5342251,46.9403897 C43.2042004,48.2039102 42.544151,49.9329384 42.2141263,50.1989427 C42.0821164,50.3319449 41.6860868,50.398446 41.4880719,50.3319449 Z M57.5932772,49.6669341 C57.5272723,49.6669341 57.3952624,49.5339319 57.3292575,49.4009297 C57.1312427,49.2014265 57.1312427,49.0684243 57.3952624,47.4058973 C57.6592822,45.8763724 57.7252871,45.0783594 57.7912921,43.3493312 C57.857297,41.553802 57.7912921,37.9627436 57.5932772,36.8322251 C56.8672229,31.4456375 53.1049413,26.9235639 47.956556,25.1945357 C46.3724375,24.596026 44.9203288,24.3965227 43.2042004,24.3965227 C41.4880719,24.3965227 40.299983,24.596026 38.7158645,25.1280346 C36.1416718,25.9925487 33.8314989,27.5220736 31.9173557,29.7166093 C31.3233112,30.4481212 31.1913013,30.5146223 30.7952717,30.3816202 C30.3992421,30.1821169 30.2672322,29.7831104 30.3992421,29.450605 C30.7292667,28.8520953 32.5114001,27.056566 33.5674792,26.258553 C35.2836076,24.9285314 37.2637558,23.9975162 39.3099089,23.4655076 C40.8280225,23.0665011 41.5540769,23 43.2042004,23 C44.8543239,23 45.5803782,23.0665011 47.0324869,23.3990065 C49.9367042,24.1305184 52.5108969,25.5935422 54.623055,27.7880779 C55.5471241,28.652592 55.9431538,29.1846007 56.6032031,30.1821169 C57.857297,32.1106483 58.6493563,34.2386829 59.0453859,36.5662208 C59.2434007,38.1622468 59.3094057,43.4158323 59.1113909,45.610368 C58.979381,46.8073875 58.7153612,48.6694178 58.5833513,49.1349254 C58.4513415,49.5339319 57.9893069,49.7999362 57.5932772,49.6669341 Z M28.4190939,48.004407 C28.221079,48.004407 27.9570593,47.6719016 27.9570593,47.3393962 C27.9570593,46.9403897 28.0890692,46.7408864 28.8151235,46.5413832 C30.9272816,45.8763724 31.6533359,45.543867 32.2473804,45.0118583 C32.5774051,44.6793529 32.9074298,44.0808431 33.0394396,43.6153356 C33.1054446,43.4158323 33.1714495,42.8838237 33.1714495,42.4848172 C33.2374545,41.6203031 33.3034594,41.4207998 33.6334841,41.2212966 C33.8314989,41.1547955 33.8975039,41.1547955 34.0955187,41.2212966 C34.6235582,41.3542988 34.7555681,41.8863074 34.5575533,43.2163291 C34.2275286,45.2778626 33.3034594,46.408381 31.2573063,47.2728951 C30.7292667,47.4723983 28.6831136,48.0709081 28.6171087,48.0709081 C28.6171087,48.0709081 28.5511037,48.0709081 28.4190939,48.004407 Z M28.221079,44.812355 C28.0230642,44.745854 27.8250494,44.4133485 27.8250494,44.2138453 C27.8250494,43.947841 28.0230642,43.5488345 28.221079,43.5488345 C28.287084,43.4823334 28.4850988,43.4823334 28.6831136,43.4158323 C29.2111531,43.3493312 29.5411778,43.0833269 29.7391927,42.6843204 L29.9372075,42.4183161 L29.9372075,40.0907782 C30.0032124,37.6302381 30.0692174,37.0317284 30.3992421,35.8347089 C31.587331,31.2461342 35.2836076,27.5885747 39.8379484,26.3915552 C40.8940275,26.1255509 41.4880719,26.0590498 42.7421658,25.9925487 C44.1942745,25.9925487 45.0523387,26.0590498 46.3064325,26.3915552 C47.0984918,26.5245574 48.1545709,26.9235639 48.4185906,27.056566 C48.7486153,27.3225704 48.6826104,27.9875812 48.3525857,28.1870844 C48.0885659,28.3865877 47.8905511,28.3200866 47.0984918,28.0540823 C45.5803782,27.5220736 43.7322399,27.3225704 42.1481213,27.4555725 C40.6300077,27.5885747 39.3759139,27.9210801 37.9898101,28.5860909 C34.6235582,30.248618 32.2473804,33.3076678 31.521326,37.0317284 C31.4553211,37.4307349 31.4553211,38.2287479 31.3893161,40.0907782 C31.3233112,42.4183161 31.3233112,42.6178193 31.1913013,42.9503247 C30.7952717,44.0808431 29.8712025,44.745854 28.8151235,44.8788561 C28.5511037,44.8788561 28.3530889,44.8788561 28.221079,44.812355 Z M27.5610296,42.0193096 C27.165,41.8198063 27.165,41.8198063 27.165,39.4257674 C27.2310049,37.0982295 27.2970099,36.5662208 27.5610296,35.3027003 C28.0230642,33.4406699 28.8151235,31.4456375 29.2111531,31.2461342 C29.4751729,31.1131321 29.8051976,31.1796331 30.0032124,31.3791364 C30.2672322,31.6451407 30.2672322,31.911145 29.8712025,32.709158 C29.343163,33.9726786 28.9471334,35.4357024 28.6831136,36.9652273 C28.6831136,37.3642338 28.6171087,38.4947522 28.5511037,39.6917717 C28.5511037,41.8863074 28.5511037,41.8863074 28.0890692,42.0858107 C27.8250494,42.1523117 27.8250494,42.1523117 27.5610296,42.0193096 Z M33.5014742,39.4257674 C33.2374545,39.2262641 33.1714495,39.0267609 33.2374545,38.1622468 C33.3694643,35.9677111 34.4255434,33.7731754 36.0756669,32.0441472 C36.5377015,31.5786396 36.6697113,31.4456375 36.8677262,31.3791364 C37.3957657,31.3126353 37.9238052,31.911145 37.6597854,32.3766526 C37.5937805,32.4431537 37.3297607,32.7756591 37.065741,33.0416634 C35.6136323,34.5046873 34.821573,36.3667176 34.6895631,38.36175 C34.6235582,39.093262 34.5575533,39.159763 34.3595384,39.3592663 C34.1615236,39.6252706 33.765494,39.6252706 33.5014742,39.4257674 Z" id="Shape"></path>
                    <path d="M0.732,4.852 L3.168,4.852 L3.168,0.256 L4.032,0.256 L4.032,4.852 L11.304,4.852 L11.304,5.692 L7.356,5.692 C7.86,7.612 9.228,9.112 11.448,10.192 L10.944,10.996 C8.52,9.712 7.056,7.948 6.528,5.692 L4.032,5.692 L4.032,10.036 C4.932,9.82 5.832,9.544 6.72,9.208 L6.948,10.036 C5.772,10.444 4.512,10.792 3.168,11.104 L2.892,10.312 C3.072,10.216 3.168,10.084 3.168,9.892 L3.168,5.692 L0.732,5.692 L0.732,4.852 Z M9.48,0.352 L10.068,0.94 C9.108,2.02 7.656,2.992 5.736,3.856 L5.22,3.172 C7.128,2.332 8.544,1.396 9.48,0.352 Z M23.352,1.564 L23.352,3.928 L22.524,3.928 L22.524,2.344 L17.736,2.344 L17.736,3.976 L16.92,3.976 L16.92,1.564 L19.68,1.564 C19.524,1.084 19.344,0.652 19.152,0.244 L20.028,0.1 C20.208,0.532 20.376,1.012 20.544,1.564 L23.352,1.564 Z M19.152,3.1 L19.992,3.172 C19.824,3.856 19.644,4.48 19.476,5.032 L23.736,5.032 L23.736,5.86 L22.296,5.86 C22.104,7.06 21.684,8.068 21.048,8.86 C22.176,9.484 23.076,10.048 23.772,10.528 L23.184,11.212 C22.464,10.684 21.564,10.108 20.484,9.472 C19.644,10.216 18.3,10.804 16.428,11.248 L16.08,10.432 C17.664,10.072 18.852,9.592 19.668,8.992 C18.972,8.596 18.228,8.188 17.436,7.768 C17.76,7.168 18.048,6.532 18.312,5.86 L16.632,5.86 L16.632,5.032 L18.6,5.032 C18.804,4.408 18.984,3.772 19.152,3.1 Z M21.468,5.86 L19.188,5.86 C18.948,6.484 18.708,7.036 18.456,7.492 C19.104,7.828 19.716,8.14 20.28,8.44 C20.868,7.768 21.264,6.916 21.468,5.86 Z M14.16,11.092 L13.14,11.092 L12.96,10.252 C13.272,10.276 13.572,10.3 13.86,10.3 C14.148,10.3 14.304,10.144 14.304,9.832 L14.304,6.94 C13.824,7.12 13.344,7.288 12.876,7.432 L12.66,6.568 C13.224,6.436 13.776,6.268 14.304,6.076 L14.304,3.328 L12.9,3.328 L12.9,2.5 L14.304,2.5 L14.304,0.232 L15.192,0.232 L15.192,2.5 L16.32,2.5 L16.32,3.328 L15.192,3.328 L15.192,5.728 C15.564,5.56 15.936,5.38 16.308,5.188 L16.308,6.064 C15.936,6.244 15.564,6.412 15.192,6.58 L15.192,10.048 C15.192,10.744 14.844,11.092 14.16,11.092 Z M28.224,0.244 C28.704,0.868 29.16,1.54 29.592,2.284 L28.812,2.68 C28.38,1.912 27.924,1.228 27.432,0.628 L28.224,0.244 Z M32.736,0.136 L33.564,0.364 C33.276,1.228 32.916,2.008 32.484,2.692 L34.956,2.692 L34.956,3.532 L30.948,3.532 L30.948,4.096 C30.924,4.696 30.876,5.26 30.78,5.764 L35.652,5.764 L35.652,6.604 L31.284,6.604 C31.872,8.224 33.42,9.484 35.94,10.384 L35.436,11.188 C32.796,10.12 31.164,8.668 30.516,6.844 C30.288,7.528 29.988,8.128 29.604,8.644 C28.788,9.7 27.456,10.528 25.608,11.116 L25.14,10.36 C26.976,9.772 28.26,8.992 28.98,8.032 C29.268,7.6 29.496,7.132 29.664,6.604 L25.356,6.604 L25.356,5.764 L29.88,5.764 C29.988,5.236 30.048,4.684 30.06,4.096 L30.06,3.532 L26.04,3.532 L26.04,2.692 L31.524,2.692 C31.98,1.996 32.376,1.144 32.736,0.136 Z M38.328,0.376 L37.704,0.976 C38.592,1.6 39.3,2.2 39.804,2.764 L40.416,2.152 C39.852,1.564 39.156,0.976 38.328,0.376 Z M38.028,3.208 L37.416,3.796 C38.256,4.444 38.916,5.044 39.396,5.596 L40.008,4.984 C39.48,4.384 38.82,3.796 38.028,3.208 Z M39.54,6.52 C39,7.96 38.364,9.364 37.644,10.732 L38.508,11.104 C39.168,9.772 39.768,8.344 40.308,6.832 L39.54,6.52 Z M40.884,2.224 L40.884,3.076 L44.004,3.076 L44.004,5.956 L41.22,5.956 L41.22,6.784 L44.004,6.784 L44.004,9.94 L40.584,9.94 L40.584,10.792 L48.204,10.792 L48.204,9.94 L44.88,9.94 L44.88,6.784 L47.652,6.784 L47.652,5.956 L44.88,5.956 L44.88,3.076 L47.976,3.076 L47.976,2.224 L44.4,2.224 L44.892,2.032 C44.712,1.456 44.448,0.832 44.112,0.136 L43.296,0.364 C43.608,0.964 43.872,1.576 44.112,2.224 L40.884,2.224 Z M49.968,0.748 L60.06,0.748 L60.06,1.564 L55.44,1.564 L55.44,2.8 L59.028,2.8 L59.028,7.348 L60.408,7.348 L60.408,8.164 L59.028,8.164 L59.028,9.94 C59.028,10.756 58.656,11.164 57.936,11.164 L56.76,11.164 L56.532,10.324 L57.66,10.36 C58.008,10.36 58.188,10.156 58.188,9.748 L58.188,8.164 L51.828,8.164 L51.828,11.2 L50.988,11.2 L50.988,8.164 L49.608,8.164 L49.608,7.348 L50.988,7.348 L50.988,2.8 L54.576,2.8 L54.576,1.564 L49.968,1.564 L49.968,0.748 Z M51.828,7.348 L54.576,7.348 L54.576,5.824 L51.828,5.824 L51.828,7.348 Z M55.44,7.348 L58.188,7.348 L58.188,5.824 L55.44,5.824 L55.44,7.348 Z M51.828,5.056 L54.576,5.056 L54.576,3.592 L51.828,3.592 L51.828,5.056 Z M55.44,3.592 L55.44,5.056 L58.188,5.056 L58.188,3.592 L55.44,3.592 Z M66.9,0.7 L72.588,0.7 L72.588,1.516 L70.2,1.516 C70.14,1.972 70.068,2.404 69.972,2.836 L72.216,2.836 L72.216,8.5 L71.376,8.5 L71.376,3.628 L68.268,3.628 L68.268,8.596 L67.416,8.596 L67.416,2.836 L69.132,2.836 C69.228,2.404 69.3,1.972 69.348,1.516 L66.9,1.516 L66.9,0.7 Z M70.716,8.536 C71.532,9.232 72.216,9.94 72.78,10.636 L72.168,11.248 C71.676,10.576 70.992,9.856 70.128,9.1 L70.716,8.536 Z M69.396,4.42 L70.212,4.42 L70.212,6.484 C70.188,7.768 69.936,8.8 69.468,9.568 C69.012,10.276 68.268,10.84 67.236,11.248 L66.78,10.516 C67.752,10.144 68.436,9.64 68.82,9.016 C69.18,8.368 69.372,7.528 69.396,6.484 L69.396,4.42 Z M64.116,0.304 L64.764,0.304 C65.58,1.252 66.372,2.26 67.14,3.328 L66.564,3.94 C65.784,2.764 65.1,1.828 64.524,1.132 C63.84,2.356 63.048,3.472 62.148,4.48 L61.656,3.784 C62.556,2.8 63.372,1.636 64.116,0.304 Z M62.34,5.548 L62.34,6.352 L65.712,6.352 C65.256,7.24 64.788,8.02 64.296,8.68 C63.924,8.356 63.54,8.032 63.132,7.708 L62.556,8.26 C63.816,9.28 64.8,10.24 65.52,11.14 L66.144,10.528 C65.76,10.084 65.328,9.64 64.86,9.196 C65.532,8.332 66.12,7.36 66.636,6.268 L66.636,5.548 L62.34,5.548 Z M64.368,2.908 C64.896,3.616 65.292,4.228 65.58,4.756 L64.956,5.2 C64.656,4.624 64.248,3.988 63.744,3.292 L64.368,2.908 Z M78.12,7.408 L76.428,7.408 L76.428,6.76 C75.816,7.228 75.156,7.636 74.46,7.972 L73.98,7.24 C75.252,6.688 76.308,5.944 77.136,5.008 L74.352,5.008 L74.352,4.216 L77.748,4.216 C78.024,3.796 78.264,3.352 78.468,2.896 L75.012,2.896 L75.012,2.128 L78.78,2.128 C78.996,1.48 79.152,0.796 79.272,0.076 L80.124,0.184 C80.004,0.88 79.848,1.528 79.656,2.128 L82.092,2.128 L81.48,1.78 C81.864,1.3 82.176,0.748 82.428,0.112 L83.148,0.376 C82.872,1.048 82.536,1.624 82.128,2.128 L84.012,2.128 L84.012,2.896 L79.368,2.896 C79.176,3.364 78.948,3.808 78.708,4.216 L84.672,4.216 L84.672,5.008 L82.044,5.008 C82.656,5.824 83.652,6.568 85.044,7.216 L84.492,7.924 C83.796,7.528 83.208,7.12 82.704,6.712 C82.668,7.768 82.608,8.632 82.524,9.292 C82.428,9.964 82.26,10.432 82.032,10.696 C81.804,10.948 81.444,11.092 80.952,11.116 L79.164,11.116 L78.936,10.312 C79.5,10.336 80.028,10.348 80.532,10.348 C81.036,10.348 81.372,10.168 81.54,9.808 C81.708,9.424 81.816,8.632 81.864,7.408 L78.924,7.408 C78.684,8.308 78.348,9.028 77.928,9.568 C77.412,10.168 76.644,10.72 75.612,11.212 L75.072,10.528 C76.008,10.12 76.716,9.664 77.196,9.172 C77.604,8.716 77.904,8.128 78.12,7.408 Z M78.168,5.008 C77.712,5.608 77.196,6.148 76.62,6.616 L82.596,6.616 C81.972,6.088 81.504,5.56 81.168,5.008 L78.168,5.008 Z M76.728,0.184 C77.064,0.688 77.364,1.216 77.604,1.792 L76.908,2.116 C76.62,1.48 76.32,0.916 75.984,0.424 L76.728,0.184 Z" id="长按关注再领券"></path>
                </g>
                <rect id="Rectangle-18" fill="url(#linearGradient-1)" x="98" y="4.54747351e-13" width="95" height="95"></rect>
                <use id="Rectangle-16" stroke="#DFC78B" mask="url(#mask-3)" stroke-width="2" fill="#FFFFFF" xlink:href="#path-2"></use>
            </g>
        </g>
    </g>
</svg>