<?xml version="1.0" encoding="UTF-8"?>
<svg width="95px" height="95px" viewBox="0 0 95 95" version="1.1" xmlns="http://www.w3.org/2000/svg" xmlns:xlink="http://www.w3.org/1999/xlink">
    <!-- Generator: Sketch 42 (36781) - http://www.bohemiancoding.com/sketch -->
    <title>submit</title>
    <desc>Created with Sketch.</desc>
    <defs>
        <linearGradient x1="16.9039445%" y1="-23.4623545%" x2="100%" y2="100%" id="linearGradient-1">
            <stop stop-color="#D5C081" offset="0%"></stop>
            <stop stop-color="#8B6224" offset="100%"></stop>
        </linearGradient>
        <rect id="path-2" x="13" y="12" width="70" height="70" rx="35"></rect>
        <mask id="mask-3" maskContentUnits="userSpaceOnUse" maskUnits="objectBoundingBox" x="0" y="0" width="70" height="70" fill="white">
            <use xlink:href="#path-2"></use>
        </mask>
    </defs>
    <g id="H5优化-&gt;-关注有礼流程图" stroke="none" stroke-width="1" fill="none" fill-rule="evenodd">
        <g id="切图" transform="translate(-961.000000, -203.000000)">
            <g id="Group-18" transform="translate(961.000000, 203.000000)">
                <g id="Group-22">
                    <rect id="Rectangle-18" fill="url(#linearGradient-1)" x="0" y="0" width="95" height="95" rx="47.5"></rect>
                    <use id="Rectangle-16" stroke="#DFC78B" mask="url(#mask-3)" stroke-width="2" fill="#FFFFFF" xlink:href="#path-2"></use>
                    <path d="M39.384,36.72 L39.384,38.352 C39.384,38.48 39.368,38.624 39.368,38.768 L41.448,38.768 L41.448,36.72 L39.384,36.72 Z M39.288,39.776 C39.096,41.28 38.648,42.528 37.912,43.552 L37.08,42.8 C37.88,41.648 38.28,40.176 38.312,38.416 L38.312,33.168 C38.072,33.392 37.832,33.616 37.608,33.808 L36.888,32.96 C38.152,31.92 39.192,30.56 40.008,28.896 L41.112,29.136 C40.952,29.472 40.776,29.792 40.616,30.112 L44.472,30.112 L44.472,30.928 C43.992,31.632 43.512,32.24 43.032,32.72 L45.72,32.72 L45.72,42.304 C45.72,43.024 45.304,43.392 44.488,43.392 L43.304,43.392 L43.032,42.352 C43.432,42.384 43.8,42.416 44.152,42.416 C44.472,42.416 44.632,42.24 44.632,41.92 L44.632,39.776 L42.488,39.776 L42.488,43.312 L41.448,43.312 L41.448,39.776 L39.288,39.776 Z M41.784,32.72 C42.248,32.24 42.696,31.696 43.144,31.088 L40.024,31.088 C39.624,31.68 39.192,32.224 38.744,32.72 L41.784,32.72 Z M44.632,38.768 L44.632,36.72 L42.488,36.72 L42.488,38.768 L44.632,38.768 Z M44.632,35.696 L44.632,33.744 L42.488,33.744 L42.488,35.696 L44.632,35.696 Z M41.448,33.744 L39.384,33.744 L39.384,35.696 L41.448,35.696 L41.448,33.744 Z M32.072,29.824 L37.416,29.824 L37.416,30.944 L35,30.944 C34.792,32.24 34.488,33.456 34.104,34.576 L37.016,34.576 L37.016,41.856 L34.216,41.856 L34.216,43.072 L33.128,43.072 L33.128,36.8 C32.856,37.296 32.568,37.76 32.28,38.208 L31.608,37.136 C32.76,35.328 33.512,33.264 33.88,30.944 L32.072,30.944 L32.072,29.824 Z M34.216,40.816 L35.96,40.816 L35.96,35.632 L34.216,35.632 L34.216,40.816 Z M57.352,29.008 L58.536,29.008 C58.536,30.352 58.488,31.616 58.392,32.768 C59.24,36.864 60.712,40.128 62.808,42.528 L61.976,43.488 C60.264,41.312 58.968,38.624 58.072,35.456 C57.992,35.904 57.912,36.32 57.832,36.736 C57.224,39.488 55.864,41.76 53.736,43.52 L52.952,42.576 C54.808,41.008 56.056,39.04 56.664,36.656 C57.112,34.656 57.352,32.112 57.352,29.008 Z M49.912,29.088 L49.112,29.872 C50.264,30.736 51.192,31.568 51.864,32.352 L52.648,31.552 C51.912,30.72 51,29.904 49.912,29.088 Z M48.04,33.824 L51.496,33.824 L51.496,40.816 C52.072,40.336 52.696,39.792 53.352,39.168 L53.64,40.352 C52.648,41.296 51.592,42.144 50.472,42.88 L50.024,41.856 C50.264,41.664 50.392,41.424 50.392,41.168 L50.392,34.928 L48.04,34.928 L48.04,33.824 Z M38.52,51.6 L46.104,51.6 L46.104,52.688 L42.92,52.688 C42.84,53.296 42.744,53.872 42.616,54.448 L45.608,54.448 L45.608,62 L44.488,62 L44.488,55.504 L40.344,55.504 L40.344,62.128 L39.208,62.128 L39.208,54.448 L41.496,54.448 C41.624,53.872 41.72,53.296 41.784,52.688 L38.52,52.688 L38.52,51.6 Z M43.608,62.048 C44.696,62.976 45.608,63.92 46.36,64.848 L45.544,65.664 C44.888,64.768 43.976,63.808 42.824,62.8 L43.608,62.048 Z M41.848,56.56 L42.936,56.56 L42.936,59.312 C42.904,61.024 42.568,62.4 41.944,63.424 C41.336,64.368 40.344,65.12 38.968,65.664 L38.36,64.688 C39.656,64.192 40.568,63.52 41.08,62.688 C41.56,61.824 41.816,60.704 41.848,59.312 L41.848,56.56 Z M34.808,51.072 L35.672,51.072 C36.76,52.336 37.816,53.68 38.84,55.104 L38.072,55.92 C37.032,54.352 36.12,53.104 35.352,52.176 C34.44,53.808 33.384,55.296 32.184,56.64 L31.528,55.712 C32.728,54.4 33.816,52.848 34.808,51.072 Z M32.44,58.064 L32.44,59.136 L36.936,59.136 C36.328,60.32 35.704,61.36 35.048,62.24 C34.552,61.808 34.04,61.376 33.496,60.944 L32.728,61.68 C34.408,63.04 35.72,64.32 36.68,65.52 L37.512,64.704 C37,64.112 36.424,63.52 35.8,62.928 C36.696,61.776 37.48,60.48 38.168,59.024 L38.168,58.064 L32.44,58.064 Z M35.144,54.544 C35.848,55.488 36.376,56.304 36.76,57.008 L35.928,57.6 C35.528,56.832 34.984,55.984 34.312,55.056 L35.144,54.544 Z M56.072,61.216 L56.072,62.352 C55.576,62.48 55.096,62.592 54.616,62.704 L54.616,65.6 L53.496,65.6 L53.496,62.96 C51.832,63.312 50.12,63.616 48.328,63.872 L48.056,62.752 C48.536,62.688 49.016,62.608 49.496,62.544 L49.496,52.64 L48.232,52.64 L48.232,51.552 L55.848,51.552 L55.848,52.416 L62.04,52.416 L62.04,53.472 C61.688,56.432 60.952,58.96 59.848,61.056 C60.616,62.368 61.576,63.584 62.712,64.688 L61.944,65.568 C60.872,64.464 59.976,63.312 59.24,62.112 C58.376,63.456 57.352,64.608 56.152,65.552 L55.368,64.656 C56.664,63.632 57.736,62.416 58.6,60.976 C57.416,58.704 56.712,56.224 56.488,53.536 L55.848,53.536 L55.848,52.64 L54.616,52.64 L54.616,61.568 C55.112,61.456 55.592,61.344 56.072,61.216 Z M57.544,53.536 C57.736,55.84 58.296,57.936 59.208,59.84 C60.072,58.016 60.664,55.92 60.952,53.536 L57.544,53.536 Z M53.496,61.824 L53.496,59.648 L50.616,59.648 L50.616,62.368 C51.592,62.208 52.552,62.016 53.496,61.824 Z M50.616,58.608 L53.496,58.608 L53.496,56.176 L50.616,56.176 L50.616,58.608 Z M50.616,55.12 L53.496,55.12 L53.496,52.64 L50.616,52.64 L50.616,55.12 Z" id="确认-领取" fill="#000000"></path>
                </g>
            </g>
        </g>
    </g>
</svg>