<?xml version="1.0" encoding="utf-8"?>
<!-- Generator: Adobe Illustrator 20.1.0, SVG Export Plug-In . SVG Version: 6.00 Build 0)  -->
<svg version="1.1" id="Layer_1" xmlns="http://www.w3.org/2000/svg" xmlns:xlink="http://www.w3.org/1999/xlink" x="0px" y="0px"
	 viewBox="0 0 24 24" style="enable-background:new 0 0 24 24;" xml:space="preserve">
<style type="text/css">
	.st0{fill:#C68E3D;}
</style>
<g>
	<g>
		<g>
			<path class="st0" d="M20,24H4c-2.2,0-4-1.8-4-4V4c0-2.2,1.8-4,4-4h16c2.2,0,4,1.8,4,4v16C24,22.2,22.2,24,20,24z M4,2
				C2.9,2,2,2.9,2,4v16c0,1.1,0.9,2,2,2h16c1.1,0,2-0.9,2-2V4c0-1.1-0.9-2-2-2H4z"/>
		</g>
	</g>
	<g>
		<g>
			<path class="st0" d="M5,5.4c-0.6,0-1-0.1-1-0.2v-4C4,1.1,4.4,1,5,1s1,0.1,1,0.2v4.1C6,5.4,5.6,5.4,5,5.4z"/>
		</g>
	</g>
	<g>
		<g>
			<path class="st0" d="M5,11.4c-0.6,0-1-0.1-1-0.2v-4C4,7.1,4.4,7,5,7s1,0.1,1,0.2v4.1C6,11.4,5.6,11.4,5,11.4z"/>
		</g>
	</g>
	<g>
		<g>
			<path class="st0" d="M5,17.4c-0.6,0-1-0.1-1-0.2v-4.1c0,0,0.4-0.1,1-0.1s1,0.1,1,0.2v4.1C6,17.4,5.6,17.4,5,17.4z"/>
		</g>
	</g>
	<g>
		<g>
			<path class="st0" d="M5,23.4c-0.6,0-1-0.1-1-0.2v-4.1c0,0,0.4-0.1,1-0.1s1,0.1,1,0.2v4.1C6,23.4,5.6,23.4,5,23.4z"/>
		</g>
	</g>
</g>
<polygon class="st0" points="14.4,5.7 16.2,9.4 20.3,10 17.3,12.9 18,17 14.4,15.1 10.7,17 11.4,12.9 8.4,10 12.5,9.4 "/>
</svg>
