<?xml version="1.0" encoding="UTF-8"?>
<svg width="107px" height="178px" viewBox="0 0 107 178" version="1.1" xmlns="http://www.w3.org/2000/svg" xmlns:xlink="http://www.w3.org/1999/xlink">
    <!-- Generator: Sketch 44.1 (41455) - http://www.bohemiancoding.com/sketch -->
    <title>插图</title>
    <desc>Created with Sketch.</desc>
    <defs>
        <path d="M106,34.5643787 L106,34.5643787 L106,34.5643787 L106,34.5643787 C81.7598772,63.8354704 38.3804667,67.9138765 9.109375,43.6737537 C5.79474624,40.9288267 2.74492694,37.8790074 7.10542736e-15,34.5643787 L0,34.5643787 L0,34.5643787 L-1.42108547e-14,34.5643787 C24.2401228,5.29328694 67.6195333,1.21488083 96.890625,25.4550037 C100.205254,28.1999306 103.255073,31.2497499 106,34.5643787 Z" id="path-1"></path>
        <path d="M106,34.5643787 L106,34.5643787 L64.2489015,39.2909181 L64.2489015,39.2909181 C56.7735087,40.137189 49.2264913,40.137189 41.7510985,39.2909181 L0,34.5643787 L0,34.5643787 L-1.42108547e-14,34.5643787 C24.2401228,5.29328694 67.6195333,1.21488083 96.890625,25.4550037 C100.205254,28.1999306 103.255073,31.2497499 106,34.5643787 Z" id="path-2"></path>
        <path d="M52,23 C64.1502645,23 74,20.627417 74,14 C74,7.372583 64.1502645,0 52,0 C39.8497355,0 30,7.372583 30,14 C30,20.627417 39.8497355,23 52,23 Z" id="path-3"></path>
    </defs>
    <g id="扫描后模版消息推送-V2.0" stroke="none" stroke-width="1" fill="none" fill-rule="evenodd">
        <g id="1.2-超时提示页面" transform="translate(-140.000000, -160.000000)">
            <g id="插图" transform="translate(139.000000, 156.000000)">
                <g id="Group-10" transform="translate(55.000000, 34.500000) rotate(4.000000) translate(-55.000000, -34.500000) translate(2.000000, 4.000000)">
                    <g id="Rectangle-10">
                        <use fill="#414141" fill-rule="evenodd" xlink:href="#path-1"></use>
                        <path stroke="#FFFFFF" stroke-width="6" d="M102.042583,34.5650601 C99.8605868,32.1268997 97.4990207,29.8539718 94.9771831,27.765575 C67.6332733,5.12139977 27.4164422,8.31603672 3.95742324,34.5636904 C6.13941321,37.0018577 8.50097929,39.2747855 11.0228169,41.3631823 C38.366729,64.0073595 78.5835648,60.8127201 102.042583,34.5650601 Z"></path>
                    </g>
                    <g id="Rectangle-10">
                        <use fill="#414141" fill-rule="evenodd" xlink:href="#path-2"></use>
                        <path stroke="#FFFFFF" stroke-width="6" d="M99.8585083,32.2404792 C98.3083672,30.6687374 96.6792809,29.1751248 94.9771831,27.765575 C68.4623172,5.80795175 29.8432884,8.14607176 6.13658329,32.2399235 L42.0885655,36.3099592 C49.3396966,37.130842 56.6603034,37.130842 63.9114345,36.3099592 L99.8585083,32.2404792 Z"></path>
                    </g>
                    <g id="Oval-4">
                        <use fill="#414141" fill-rule="evenodd" xlink:href="#path-3"></use>
                        <path stroke="#FFFFFF" stroke-width="6" d="M52,20 C64.15983,20 71,17.5575809 71,14 C71,8.95957766 62.1189503,3 52,3 C41.8810497,3 33,8.95957766 33,14 C33,17.5575809 39.84017,20 52,20 Z"></path>
                    </g>
                </g>
                <ellipse id="Oval-6" fill-opacity="0.3" fill="#FFFFFF" cx="55" cy="177.5" rx="47" ry="4.5"></ellipse>
                <path d="M8.28685028,177 C8.09730729,177.164167 8,177.330995 8,177.5 C8,179.985281 29.0426168,182 55,182 C80.9573832,182 102,179.985281 102,177.5 C102,177.330995 101.902693,177.164167 101.71315,177 L102,177 L68,62 L42,62 L8,177 L8.28685028,177 Z" id="Combined-Shape" fill-opacity="0.1" fill="#FFFFFF"></path>
                <path d="M37.3266567,79.6328546 C36.2416994,79.1604148 35.0483994,78.6652938 33.7427814,78.1430466 C32.7172143,77.7328198 31.5532734,78.2316516 31.1430466,79.2572186 C30.7328198,80.2827857 31.2316516,81.4467266 32.2572186,81.8569534 C33.4548062,82.3359884 34.5541466,82.7958005 35.5499851,83.2305136 C34.9535888,84.5558055 34.3211866,86.0617747 33.6430466,87.7571247 C33.2328198,88.7826918 33.7316516,89.9466327 34.7572186,90.3568595 C35.7827857,90.7670863 36.9467266,90.2682545 37.3569534,89.2426875 C38.0058165,87.6205296 38.6194107,86.1786285 39.1831332,84.9300434 C40.9944544,85.8531285 42.0357755,86.5436869 42.2111456,86.8944272 C42.7051241,87.8823842 43.9064702,88.2828329 44.8944272,87.7888544 C45.8823842,87.2948759 46.2828329,86.0935298 45.7888544,85.1055728 C45.1997553,83.9273746 43.6336491,82.7231923 40.9488394,81.3345821 C41.6125961,80.1279743 42.1129446,79.4295018 42.3944272,79.2887605 C43.3823842,78.794782 43.7828329,77.5934359 43.2888544,76.6054789 C42.7948759,75.6175219 41.5935298,75.2170732 40.6055728,75.7110517 C39.56872,76.2294781 38.5117436,77.5045548 37.3266567,79.6328546 Z" id="Combined-Shape" fill="#FFFFFF" fill-rule="nonzero"></path>
                <path d="M87.217321,114.254881 C86.4940629,113.939941 85.698581,113.609882 84.8282253,113.26174 C84.1445581,112.988273 83.3686477,113.320806 83.0951809,114.004473 C82.821714,114.68814 83.1542471,115.464051 83.8379142,115.737517 C84.6362543,116.056854 85.3691005,116.363375 86.0329499,116.653165 C85.635378,117.536636 85.2138039,118.54055 84.7617398,119.670711 C84.4882729,120.354378 84.8208059,121.130288 85.5044731,121.403755 C86.1881402,121.677222 86.9640506,121.344689 87.2375175,120.661022 C87.6700649,119.579653 88.0791013,118.618448 88.454892,117.786112 C89.6623614,118.401462 90.3565305,118.861804 90.4734364,119.095616 C90.8027341,119.754212 91.6035797,120.02116 92.2621751,119.691862 C92.9207705,119.362565 93.187719,118.561719 92.8584213,117.903124 C92.4657139,117.117709 91.4217107,116.314973 89.6319533,115.389292 C90.0744291,114.584939 90.4079733,114.119321 90.5956162,114.0255 C91.2542116,113.696202 91.5211601,112.895356 91.1918624,112.236761 C90.8625647,111.578166 90.0617191,111.311217 89.4031237,111.640515 C88.7119332,111.98611 88.0073279,112.836106 87.217321,114.254881 Z" id="Combined-Shape" fill="#FFFFFF" fill-rule="nonzero" transform="translate(87.999468, 116.499468) scale(-1, 1) translate(-87.999468, -116.499468) "></path>
                <path d="M30.217321,160.254881 C29.4940629,159.939941 28.698581,159.609882 27.8282253,159.26174 C27.1445581,158.988273 26.3686477,159.320806 26.0951809,160.004473 C25.821714,160.68814 26.1542471,161.464051 26.8379142,161.737517 C27.6362543,162.056854 28.3691005,162.363375 29.0329499,162.653165 C28.635378,163.536636 28.2138039,164.54055 27.7617398,165.670711 C27.4882729,166.354378 27.8208059,167.130288 28.5044731,167.403755 C29.1881402,167.677222 29.9640506,167.344689 30.2375175,166.661022 C30.6700649,165.579653 31.0791013,164.618448 31.454892,163.786112 C32.6623614,164.401462 33.3565305,164.861804 33.4734364,165.095616 C33.8027341,165.754212 34.6035797,166.02116 35.2621751,165.691862 C35.9207705,165.362565 36.187719,164.561719 35.8584213,163.903124 C35.4657139,163.117709 34.4217107,162.314973 32.6319533,161.389292 C33.0744291,160.584939 33.4079733,160.119321 33.5956162,160.0255 C34.2542116,159.696202 34.5211601,158.895356 34.1918624,158.236761 C33.8625647,157.578166 33.0617191,157.311217 32.4031237,157.640515 C31.7119332,157.98611 31.0073279,158.836106 30.217321,160.254881 Z" id="Combined-Shape" fill="#FFFFFF" fill-rule="nonzero"></path>
                <circle id="Oval-5" fill="#FFFFFF" cx="19" cy="134" r="2"></circle>
                <circle id="Oval-5" fill="#FFFFFF" cx="61" cy="74" r="2"></circle>
                <circle id="Oval-5" fill="#FFFFFF" cx="81" cy="165" r="2"></circle>
                <g id="Group" transform="translate(56.560307, 126.342020) rotate(-20.000000) translate(-56.560307, -126.342020) translate(43.060307, 94.342020)">
                    <path d="M5.88183626,41.670194 C6.85773853,38.4810483 8.71764164,39.60563 10.9179455,39.8124813 C13.1182494,40.0193326 15.3638532,40.6621387 16.3164548,41.4424069 C17.2690563,42.2226752 17.4353144,44.6996255 14.735409,48.072054 C12.0355037,51.4444825 13.8686593,53.0410959 10.9179455,55.6712329 C7.96723167,58.3013699 10.4016606,58.3013699 6.50128698,60.9315068 C2.60091338,63.5616438 -1.29946022,64.4383562 0.867414003,62.6849315 C3.03428823,60.9315068 6.50128698,60.9315068 7.85433867,54.7945205 C9.20739037,48.6575342 8.51183948,50.2060073 7.85433867,48.072054 C7.19683787,45.9381007 4.90593399,44.8593398 5.88183626,41.670194 Z" id="Path-6" fill="#FFFFFF"></path>
                    <g id="Group-35" transform="translate(15.417940, 31.265470) rotate(6.000000) translate(-15.417940, -31.265470) translate(5.417940, 17.765470)">
                        <path d="M22.1625937,6.63958407 C22.1625937,6.63958407 16.2278285,5.56613102 14.0286986,3.95488587 C13.5500873,3.60421989 13.1809694,3.25231056 12.9916741,2.91522623" id="Path-7" stroke="#FFF2E2" stroke-width="3" stroke-linecap="round" transform="translate(17.577134, 4.777405) scale(-1, -1) rotate(-265.000000) translate(-17.577134, -4.777405) "></path>
                        <polygon id="Rectangle-21" fill="#FFF2E2" points="5.63387298 6.45205479 10.5550369 4.48366975 10.2181001 11.9922128 5.63387298 11.9922128"></polygon>
                        <g id="Group-33" transform="translate(0.000000, 4.136986)" fill="#91D0CD">
                            <path d="M6.64311919,4.16042033 L7.18333839,5.02731686 L7.69829838,4.59153749 L8.07845461,5.04356603 L8.57731629,4.09752815 L8.57731629,4.09752815 C9.8714081,3.15314422 12.2922492,4.48417664 12.2922492,4.48417664 L12.2922492,4.48417664 C12.2922492,4.48417664 13.1886837,4.31247643 13.9770919,3.92402432 C14.7655,3.53557221 16.7938017,0.755077311 16.7938017,0.755077311 L19.5389346,2.93217296 C19.5389346,2.93217296 18.1325176,5.09432025 16.837547,6.29033644 C15.5425764,7.48635264 13.5254408,7.96476642 13.5254408,7.96476642 C13.5254408,7.96476642 13.4546932,12.5124164 13.3429394,14.5957299 C13.2311856,16.6790433 12.8358331,20.8204321 12.8358331,20.8204321 C12.8358331,20.8204321 9.64373428,21.9196021 7.12642715,21.8681831 C4.60912003,21.816764 1.49558727,20.5887937 1.49558727,20.5887937 C1.49558727,20.5887937 1.87382761,18.3219958 1.78117146,17.1472006 C1.68851531,15.9724054 0.931481833,13.436453 0.931481833,13.436453 L5.76742696,8.78953896 L3.77608701,6.40004525 L0.148399368,7.62382786 C0.148399368,7.62382786 0.452107512,6.11999999 0.615933492,5.93327088 C1.00478418,5.49005824 0.615933492,5.93327088 0.615933492,5.93327088 C2.6561184,3.97503423 6.64311919,4.16042033 6.64311919,4.16042033 L6.64311919,4.16042033 Z" id="Path-13"></path>
                        </g>
                    </g>
                    <g id="Group-11" transform="translate(13.404216, 13.678422) rotate(-18.000000) translate(-13.404216, -13.678422) translate(3.404216, 2.678422)">
                        <ellipse id="Oval-4" fill="#D8D8D8" cx="1.56550605" cy="13.0569878" rx="1.56550605" ry="1.58910395"></ellipse>
                        <ellipse id="Oval-5" fill="#000000" cx="1.21761581" cy="13.0569878" rx="1" ry="1"></ellipse>
                        <polygon id="Path-4" fill="#FFE2BE" points="0.789208018 20.6488561 15.3581307 21.604629 16.0311488 8.40623785 1.35996543 8.5824601"></polygon>
                        <polygon id="Path-5" fill="#FFF2E2" points="2.33297092 9.3580449 2.05031011 19.4556487 15.081755 21.1652804 15.3134554 8.83627531"></polygon>
                        <ellipse id="Oval-6" fill="#E5B780" cx="6.26202418" cy="16.0586286" rx="1.39156093" ry="1.41253684"></ellipse>
                        <ellipse id="Oval-7" fill="#E5B780" cx="14.0895544" cy="15.8820615" rx="1" ry="1"></ellipse>
                        <ellipse id="Oval-8" fill="#000000" cx="8.34936558" cy="13.0569878" rx="1" ry="1"></ellipse>
                        <ellipse id="Oval-8" fill="#000000" cx="14.2634995" cy="13.0569878" rx="1" ry="1"></ellipse>
                        <polygon id="Rectangle-9" fill="#000000" points="10.436707 12.5272865 11.1324874 12.5272865 11.4803777 15.7054944 10.0888167 15.7054944"></polygon>
                        <polygon id="Path-2" fill="#91D1CD" points="0.653313396 8.57883909 1.49738887 2.49555053 8.92151678 -5.55111512e-17 14.1386463 1.81687072 16.4454576 8.58849511"></polygon>
                        <polygon id="Path-2" fill="#75B8B5" points="0.653313396 8.57883909 1.49738887 2.49555053 2.71500468 2.08120409 2.18195803 8.58849511"></polygon>
                        <ellipse id="Oval-3" fill="#75B8B5" cx="9.39303628" cy="4.40519965" rx="1.39156093" ry="1.41253684"></ellipse>
                        <polygon id="Path-3" fill="#5FA5A1" points="3.17212022 8.55487149 8.31810982 4.96007557 15.7797438 4.4210631 19.0067097 7.06231014 16.6671357 8.5352146"></polygon>
                    </g>
                    <path d="M9.72785596,29.3877749 C9.72785596,29.3877749 11.0012524,26.0636801 12.3885394,24.1777557 C13.7758265,22.2918314 14.5667624,21.6315537 14.5667624,21.6315537" id="Path-7" stroke="#E5B780" stroke-width="3" stroke-linecap="round" transform="translate(12.147309, 25.509664) scale(-1, -1) translate(-12.147309, -25.509664) "></path>
                    <path d="M6.50128698,26.739726 L6.06791214,28.4931507 L9.53491089,27.6164384 L11.2684103,30.2465753 L6.06791214,34.630137 C4.62332932,32 4.0454962,30.2465753 4.33441276,29.369863 C4.62332932,28.4931507 5.34562073,27.6164384 6.50128698,26.739726 Z" id="Path-11" fill="#5FA5A1"></path>
                </g>
            </g>
        </g>
    </g>
</svg>