<?xml version="1.0" encoding="UTF-8"?>
<svg width="144px" height="22px" viewBox="0 0 144 22" version="1.1" xmlns="http://www.w3.org/2000/svg" xmlns:xlink="http://www.w3.org/1999/xlink">
    <!-- Generator: Sketch 48.1 (47250) - http://www.bohemiancoding.com/sketch -->
    <title>footer-white</title>
    <desc>Created with Sketch.</desc>
    <defs></defs>
    <g id="footer" stroke="none" stroke-width="1" fill="none" fill-rule="evenodd" transform="translate(-172.000000, -57.000000)">
        <g id="footer-white" transform="translate(172.000000, 57.000000)" fill="#FFFFFF">
            <path d="M14.9988571,7.953 L10.0548571,7.953 C11.2068571,10.657 13.2228571,13.185 15.4308571,14.433 C15.1268571,14.689 14.7108571,15.121 14.5188571,15.441 C12.1508571,13.953 10.0868571,11.073 8.88685715,7.953 L8.66285715,7.953 L8.66285715,13.857 L12.3748571,13.857 L12.3748571,15.041 L8.66285715,15.041 L8.66285715,18.017 L7.43085715,18.017 L7.43085715,15.041 L3.71885715,15.041 L3.71885715,13.857 L7.43085715,13.857 L7.43085715,7.953 L7.17485715,7.953 C5.94285715,11.073 3.87885715,13.921 1.57485715,15.489 C1.38285715,15.201 0.998857149,14.769 0.726857149,14.545 C2.83885715,13.249 4.80685715,10.657 5.97485715,7.953 L1.14285715,7.953 L1.14285715,6.769 L7.43085715,6.769 L7.43085715,3.425 L8.66285715,3.425 L8.66285715,6.769 L14.9988571,6.769 L14.9988571,7.953 Z M18.7725714,11.521 L21.2205714,11.521 L21.2205714,8.833 L18.8045714,8.833 L18.8045714,9.713 C18.8045714,10.257 18.7885714,10.881 18.7725714,11.521 Z M21.2205714,5.105 L18.8045714,5.105 L18.8045714,7.729 L21.2205714,7.729 L21.2205714,5.105 Z M22.3245714,4.001 L22.3245714,16.609 C22.3245714,17.249 22.1965714,17.601 21.7805714,17.809 C21.3805714,18.017 20.7405714,18.033 19.6685714,18.033 C19.6365714,17.729 19.4765714,17.201 19.3165714,16.897 C20.0525714,16.913 20.7245714,16.913 20.9165714,16.897 C21.1405714,16.881 21.2205714,16.817 21.2205714,16.593 L21.2205714,12.657 L18.7085714,12.657 C18.5645714,14.545 18.2445714,16.545 17.5085714,18.049 C17.3005714,17.857 16.8205714,17.585 16.5325714,17.473 C17.6365714,15.233 17.7165714,12.065 17.7165714,9.713 L17.7165714,4.001 L22.3245714,4.001 Z M29.6365714,10.545 L26.2925714,10.545 C26.7245714,11.857 27.3005714,13.073 28.0365714,14.129 C28.7245714,13.105 29.2685714,11.905 29.6365714,10.545 Z M30.2445714,9.409 L30.9325714,9.649 C30.5165714,11.825 29.7485714,13.617 28.7405714,15.041 C29.5085714,15.921 30.4045714,16.641 31.4125714,17.137 C31.1405714,17.361 30.8205714,17.761 30.6445714,18.049 C29.6845714,17.505 28.8205714,16.785 28.0525714,15.889 C27.3325714,16.737 26.5165714,17.425 25.6365714,17.937 C25.4765714,17.665 25.1725714,17.265 24.9325714,17.057 C25.8125714,16.577 26.6445714,15.889 27.3805714,15.025 C26.4845714,13.729 25.7805714,12.193 25.2525714,10.545 L24.8525714,10.545 L24.8525714,18.033 L23.7325714,18.033 L23.7325714,4.049 L30.4845714,4.049 L30.4845714,7.121 C30.4845714,7.729 30.3405714,8.033 29.8605714,8.209 C29.3485714,8.369 28.5485714,8.369 27.3485714,8.369 C27.3005714,8.049 27.1245714,7.649 26.9645714,7.361 C27.9405714,7.377 28.7725714,7.377 29.0125714,7.361 C29.2685714,7.361 29.3325714,7.297 29.3325714,7.105 L29.3325714,5.153 L24.8525714,5.153 L24.8525714,9.441 L30.0365714,9.441 L30.2445714,9.409 Z M39.8902857,12.289 L45.6822857,12.289 C45.6822857,12.289 45.6662857,12.657 45.6182857,12.817 C45.2822857,15.713 44.9142857,16.913 44.3702857,17.409 C44.0182857,17.729 43.6662857,17.809 43.0742857,17.841 C42.6102857,17.857 41.6502857,17.857 40.7062857,17.793 C40.6902857,17.473 40.5462857,17.041 40.3382857,16.737 C41.3462857,16.833 42.3542857,16.849 42.7542857,16.849 C43.0742857,16.849 43.2662857,16.833 43.4422857,16.705 C43.8102857,16.401 44.1302857,15.425 44.4022857,13.329 L39.5542857,13.329 C38.5462857,15.905 36.5782857,17.249 33.4422857,18.001 C33.3142857,17.729 33.0102857,17.233 32.7862857,16.993 C35.6022857,16.449 37.3782857,15.377 38.2902857,13.329 L33.8902857,13.329 L33.8902857,12.289 L38.6582857,12.289 C38.7862857,11.809 38.8982857,11.281 38.9622857,10.705 L40.1942857,10.801 C40.1142857,11.329 40.0022857,11.841 39.8902857,12.289 Z M37.2502857,6.081 L37.0102857,6.305 C37.7142857,7.185 38.7222857,7.873 39.9542857,8.401 C41.4582857,7.793 42.7702857,7.025 43.7142857,6.081 L37.2502857,6.081 Z M44.8342857,4.993 L45.5542857,5.489 C44.5942857,6.929 43.1062857,8.033 41.3462857,8.897 C43.0102857,9.409 44.9942857,9.697 47.1222857,9.825 C46.8822857,10.097 46.6102857,10.561 46.4662857,10.897 C44.0182857,10.689 41.7942857,10.257 39.9382857,9.489 C37.8102857,10.321 35.4102857,10.801 33.0902857,11.089 C33.0102857,10.785 32.8022857,10.321 32.6102857,10.049 C34.6422857,9.857 36.7382857,9.473 38.6262857,8.865 C37.6982857,8.353 36.8982857,7.729 36.2422857,6.977 C35.6022857,7.505 34.8662857,7.985 34.0502857,8.449 C33.8902857,8.177 33.5702857,7.761 33.3142857,7.569 C35.5542857,6.433 37.1382857,4.785 37.9542857,3.393 L39.2022857,3.649 C38.8982857,4.113 38.5622857,4.593 38.1782857,5.057 L44.6262857,5.057 L44.8342857,4.993 Z M56.256,15.873 L60.656,15.873 L60.656,12.321 L56.256,12.321 L56.256,15.873 Z M50.768,12.321 L50.768,15.873 L55.072,15.873 L55.072,12.321 L50.768,12.321 Z M55.072,7.697 L50.768,7.697 L50.768,11.153 L55.072,11.153 L55.072,7.697 Z M60.656,7.697 L56.256,7.697 L56.256,11.153 L60.656,11.153 L60.656,7.697 Z M56.256,6.513 L61.856,6.513 L61.856,17.953 L60.656,17.953 L60.656,17.041 L50.768,17.041 L50.768,18.033 L49.584,18.033 L49.584,6.513 L55.072,6.513 L55.072,3.441 L56.256,3.441 L56.256,6.513 Z M125.117714,6.113 L125.117714,4.849 L119.837714,4.849 L119.837714,6.113 L125.117714,6.113 Z M125.117714,8.225 L125.117714,6.945 L119.837714,6.945 L119.837714,8.225 L125.117714,8.225 Z M126.253714,3.953 L126.253714,9.137 L118.749714,9.137 L118.749714,3.953 L126.253714,3.953 Z M117.565714,10.385 L117.709714,11.473 C117.133714,11.681 116.541714,11.857 115.949714,12.065 L115.949714,16.545 C115.949714,17.201 115.805714,17.505 115.405714,17.697 C115.037714,17.889 114.429714,17.937 113.421714,17.921 C113.373714,17.633 113.229714,17.153 113.069714,16.817 C113.757714,16.833 114.381714,16.833 114.557714,16.833 C114.765714,16.833 114.845714,16.769 114.845714,16.529 L114.845714,12.417 C114.189714,12.641 113.565714,12.833 112.989714,13.009 L112.701714,11.857 C113.293714,11.713 114.029714,11.489 114.845714,11.233 L114.845714,7.729 L112.877714,7.729 L112.877714,6.625 L114.845714,6.625 L114.845714,3.441 L115.949714,3.441 L115.949714,6.625 L117.709714,6.625 L117.709714,7.729 L115.949714,7.729 L115.949714,10.881 L117.565714,10.385 Z M123.037714,14.129 L123.037714,16.641 C123.501714,16.705 124.013714,16.737 124.541714,16.737 C124.925714,16.737 127.101714,16.737 127.629714,16.721 C127.469714,16.977 127.325714,17.473 127.277714,17.777 L124.493714,17.777 C122.189714,17.777 120.509714,17.345 119.469714,15.105 C119.021714,16.305 118.397714,17.281 117.549714,18.033 C117.373714,17.841 116.925714,17.473 116.669714,17.313 C118.093714,16.193 118.797714,14.401 119.053714,12.033 L120.157714,12.161 C120.077714,12.753 119.981714,13.345 119.837714,13.873 C120.301714,15.217 121.005714,15.953 121.917714,16.337 L121.917714,11.281 L118.013714,11.281 L118.013714,10.273 L127.133714,10.273 L127.133714,11.281 L123.037714,11.281 L123.037714,13.153 L126.349714,13.153 L126.349714,14.129 L123.037714,14.129 Z M132.395429,3.457 L133.515429,3.809 C133.067429,4.961 132.507429,6.129 131.883429,7.233 L131.883429,18.001 L130.715429,18.001 L130.715429,9.025 C130.219429,9.745 129.675429,10.401 129.131429,10.961 C129.003429,10.689 128.667429,10.081 128.459429,9.793 C130.027429,8.273 131.499429,5.873 132.395429,3.457 Z M135.803429,13.937 L136.939429,14.289 C136.139429,15.681 134.955429,17.073 133.883429,17.985 C133.675429,17.777 133.211429,17.393 132.939429,17.249 C134.027429,16.417 135.131429,15.169 135.803429,13.937 Z M139.419429,14.513 L140.347429,13.985 C141.451429,15.025 142.635429,16.449 143.195429,17.393 L142.187429,18.049 C141.659429,17.057 140.475429,15.569 139.419429,14.513 Z M136.635429,7.969 L136.635429,11.873 L139.755429,11.873 L139.755429,7.969 L136.635429,7.969 Z M140.907429,11.873 L143.371429,11.873 L143.371429,13.041 L133.035429,13.041 L133.035429,11.873 L135.483429,11.873 L135.483429,7.969 L133.419429,7.969 L133.419429,6.817 L135.483429,6.817 L135.483429,3.601 L136.635429,3.601 L136.635429,6.817 L139.755429,6.817 L139.755429,3.585 L140.907429,3.585 L140.907429,6.817 L143.179429,6.817 L143.179429,7.969 L140.907429,7.969 L140.907429,11.873 Z" id="本服务由-提供"></path>
            <path d="M79.8153576,6.19476759 L83.4386201,5.95946783 C83.8283978,5.93415512 84.1648952,6.22961243 84.1902079,6.61939022 C84.1935347,6.67061798 84.1912741,6.72205568 84.1834659,6.77279406 L84.1716714,6.84943643 C84.1003184,7.31309888 83.7162456,7.66483358 83.2481112,7.69523489 L79.1063156,7.96420892 C78.6381811,7.99461023 78.2541083,8.34634493 78.1827553,8.81000738 L77.5012346,13.2386305 C76.6763146,13.3711244 75.6886564,13.5818063 74.7524473,13.8359717 L76.5272138,1.21969529 C76.5921151,0.75833127 76.9670283,0.402916121 77.4311981,0.362724339 L78.2421598,0.29250435 C78.7923857,0.24486109 79.2770544,0.652284836 79.3246977,1.20251076 C79.3315803,1.28199677 79.3289257,1.36202084 79.3167907,1.440876 L78.7621875,5.04477015 C78.6781853,5.59062917 79.0525942,6.1012326 79.5984532,6.18523483 C79.6701944,6.19627508 79.7429245,6.1994715 79.8153576,6.19476759 Z M82.426329,13.276035 C82.935388,13.1626137 83.9895835,12.9487422 84.0258101,12.9506502 C84.071786,12.9533555 83.9807975,12.9799311 83.8130249,13.0136755 C83.733333,13.0297042 83.6647638,13.0480928 83.6605198,13.0526241 C83.6477506,13.0689838 83.8643574,13.0327727 84.2544285,12.9543168 C84.4515612,12.9146671 84.6556223,12.878221 84.7086757,12.8730668 C84.7784816,12.866382 84.837202,12.8545715 84.9267924,12.8282771 C85.0499747,12.792468 85.0513728,12.7921868 85.0776387,12.8089702 C85.126001,12.8415367 85.116177,12.8462709 84.8993715,12.8972329 C84.7441074,12.9339781 84.6937135,12.9487111 84.6935769,12.9588523 C84.6932043,12.9865101 84.748967,12.987247 84.8538869,12.9615471 C85.018975,12.9200677 84.9695694,12.964943 84.7946076,13.0148444 C84.7582072,13.0258434 84.7120077,13.0397327 84.6923969,13.0464354 C84.7117344,13.0600151 84.7522298,13.0555479 84.7829881,13.0493614 C84.8500722,13.0377075 84.8540927,13.0497709 84.7909792,13.0771759 L84.7446928,13.0975187 L84.8100186,13.1128819 C84.8781159,13.1295265 84.9101729,13.1304342 84.8825089,13.1139321 C84.8548449,13.0974299 84.8814337,13.0902432 84.9986758,13.0813729 C85.0838235,13.0743606 85.227791,13.0481624 85.6444509,12.9625199 C86.129618,12.8630983 86.3448267,12.8271683 86.373926,12.8406235 C86.3780831,12.8425457 86.3737521,12.8535305 86.3652145,12.8662808 C86.3495993,12.8868907 87.8944167,12.6964585 87.9795645,12.6894463 C88.0867992,12.680047 88.0139492,12.7421522 87.7102736,12.8730668 C87.6060237,12.9180089 87.4681871,12.9423024 87.3097699,13.0136755 C87.2691302,13.0319853 87.074516,13.0457964 86.9100552,13.1139321 C86.8269422,13.1483656 86.6973845,13.2241356 86.5213821,13.3412423 C87.2197851,13.1765494 87.5581886,13.0953083 87.5365927,13.0975187 C87.5239904,13.0988291 87.4594011,13.2019266 87.3790859,13.2473677 C87.2696255,13.3092987 87.131154,13.320466 87.0571077,13.3412423 C86.8182927,13.4082502 86.4622702,13.5096225 86.1877094,13.5612576 C85.6537329,13.661302 84.9081355,14.0061405 84.9722372,14.0088779 C84.9945199,14.0108321 85.1133463,13.9878517 85.2797704,13.9507008 C85.5510896,13.8896937 85.5524877,13.8894125 85.728239,13.8844045 C85.9625864,13.8768051 86.0589935,13.8620117 86.2550014,13.8023607 C86.4720181,13.735726 86.6299914,13.7048719 86.7345139,13.7086736 C86.8125593,13.7113648 86.8433052,13.7061002 87.1901096,13.6308301 C87.6054211,13.541781 88.0285942,13.5936622 87.9700477,13.5925658 C87.9324107,13.591861 87.8234703,13.6054975 87.7102736,13.6245873 C87.5090211,13.6595491 87.400118,13.6704198 87.36263,13.6586519 C87.3182136,13.6436803 85.6708741,14.0025962 85.7069019,14.019255 C85.7082875,14.0198957 85.9291011,13.981919 86.1946664,13.9340218 C86.7229883,13.8397119 87.0597576,13.7848487 87.3097699,13.7529518 C87.4536256,13.7350509 87.4816001,13.7285049 87.5670832,13.6966007 C87.6553873,13.6622901 87.6693683,13.6594781 87.7502597,13.6579191 C87.8088434,13.6562498 87.6615084,13.725419 87.5578251,13.7628228 C87.5298009,13.7730565 87.5255445,13.7785097 87.5365927,13.7864013 C87.5628835,13.8013408 87.3936259,13.84182 87.025999,13.910245 C86.7366535,13.9638446 86.6443165,13.9870137 86.7251954,13.9863766 C86.7767886,13.9861133 87.0827748,13.9392805 87.3790859,13.8861188 C87.6041186,13.8454546 87.6795542,13.8348792 87.6682575,13.8454262 C87.6569858,13.8541293 87.5436648,13.8824384 87.3548835,13.9231667 C87.191268,13.9588333 87.0485744,13.9939696 87.0066189,14.0033276 C86.99009,13.9882635 86.9633025,14.0102011 86.9615193,14.039062 L86.9611591,14.0657979 L86.6493695,14.1294283 C86.3949021,14.1815293 86.3109661,14.2020892 86.1877094,14.2434299 C86.1050722,14.271084 86.0252063,14.3000196 86.0111508,14.3083632 C85.9718051,14.3309877 86.1646566,14.2986351 86.5351915,14.2213503 C86.8525984,14.1547513 86.8679652,14.15258 86.9263999,14.1619737 C87.0335447,14.1781201 87.3939202,14.1304615 87.9795645,14.0246222 C88.2758757,13.9714605 88.6307954,13.9147855 88.7466766,13.9034307 C88.8136987,13.8963864 88.8122882,13.8975895 88.6877575,13.9299921 C88.6164045,13.9480212 88.5631772,13.9660823 88.5673094,13.9698484 C88.5714292,13.9745363 88.6259056,13.9672571 88.6874097,13.955806 C88.7880608,13.9364813 88.796437,13.935716 88.7613478,13.9528873 C88.7402893,13.9635588 88.7093571,13.9826523 88.6267075,14.0112284 C88.5933517,14.0032264 88.583565,14.0051949 88.5022886,14.0353336 C88.4546413,14.0531919 88.3944359,14.0717371 88.36927,14.0767988 C88.3455022,14.0815793 88.3230705,14.0906881 88.3201873,14.097704 C88.3173166,14.103798 88.2836627,14.1179223 88.2458766,14.1282806 C88.2066925,14.1389201 88.1758596,14.1506381 88.17581,14.1543259 C88.175574,14.1718425 88.2786238,14.181457 88.4338134,14.1502434 C88.5862068,14.1195922 86.9389613,14.5750292 86.6090335,14.6395494 C86.024688,14.752483 85.9560815,14.7736374 86.4396144,14.6920136 C86.6366602,14.6588174 86.6659831,14.6556779 86.6713644,14.6702258 C86.6808406,14.6913056 86.7171292,14.6886039 86.9100552,14.6507197 C87.0023177,14.6330822 87.1085239,14.6153984 87.144825,14.6117748 C87.2928129,14.59764 86.8047999,14.7013117 85.5647187,14.9479736 C84.4700403,15.1653904 84.2826694,15.2049156 84.2615364,15.2211187 C84.2418263,15.2351967 84.1914449,15.2490078 84.078186,15.2727072 C83.9928892,15.2907826 83.8935742,15.3144358 83.8599576,15.3257943 C83.7973409,15.3163222 83.7679932,15.3213056 83.5078837,15.3782191 C83.1442896,15.4577856 83.0225676,15.4887038 83.0503682,15.4950648 C83.0614909,15.4974248 83.1984431,15.4744764 83.3564289,15.4427004 C83.5227908,15.4101591 83.6737116,15.3853206 83.7155678,15.383338 C83.7755621,15.3804655 83.7979317,15.3759663 83.841422,15.3561858 C83.9101775,15.3239683 84.2931215,15.2570597 84.3166036,15.2734835 C84.3649535,15.306972 84.6219935,15.2709032 84.777593,15.209266 C84.8462864,15.1816581 84.8574712,15.1794085 84.8866451,15.1873321 C84.9033106,15.192255 84.9311857,15.1930844 84.9450302,15.2004136 C84.8917159,15.2249282 84.2483395,15.3727205 84.2440831,15.3781738 C84.2298909,15.3966586 84.088347,15.4499522 84.0884464,15.4425768 C84.0885333,15.4361233 84.1068205,15.4241703 84.1292646,15.4141395 C84.2049858,15.3823598 83.8793145,15.4414268 83.5631939,15.5160419 C83.2750353,15.5850331 83.0763058,15.6397148 83.2299234,15.6216894 C83.2171666,15.6371272 83.1542519,15.6497814 83.118075,15.6441857 C83.094419,15.6406688 83.0790151,15.6456059 83.0480705,15.6656213 C83.0185364,15.6844336 82.9821236,15.6963545 82.8954535,15.7128672 C82.8325388,15.7255214 82.7821574,15.7393324 82.7820953,15.743942 C82.8850582,15.7600101 82.908826,15.7552296 83.0376006,15.7182957 C83.2769497,15.6499275 83.3342844,15.6374762 83.3704612,15.6430719 C83.4052524,15.6480268 83.4052399,15.6489488 83.3534231,15.6658068 C83.325399,15.6760405 83.143546,15.7199724 82.949135,15.7645913 C82.3826792,15.8950735 82.0693175,15.9718921 82.0552123,15.9839234 C82.0340668,16.0010484 82.1093533,16.0015362 82.1918415,15.9849452 C82.2295903,15.9773527 82.3135262,15.9567927 82.3779135,15.9383258 C82.5276846,15.89533 83.4476993,15.7056883 83.4139834,15.7244222 C83.4013383,15.7315627 83.3257538,15.7532012 83.2474351,15.7707924 C83.1509162,15.7938832 83.0977137,15.8101005 83.0864047,15.8215694 C83.0765186,15.8309133 83.0596668,15.8398193 83.048482,15.8420689 C83.0037426,15.8510674 83.0396586,15.8760236 83.0576353,15.8871188 C83.0212721,15.895352 82.8561095,15.9423629 82.6923202,15.9909366 C82.3479394,16.0933021 82.279395,16.1098468 82.2796807,16.0886425 C82.2799663,16.0674382 82.2240049,16.0814521 82.1145926,16.1301219 C82.0640869,16.1531522 81.988403,16.1821661 81.9478083,16.1940087 C81.7938057,16.2406139 81.9517294,16.2134475 82.3489152,16.1243664 C82.7125341,16.0429561 82.7516686,16.0360043 82.766849,16.0476619 C82.7806562,16.0577568 82.7932267,16.0561479 82.8352816,16.0394144 C82.9151723,16.008635 82.994827,15.9953722 83.0239263,16.0088274 C83.1371479,15.9878937 83.566366,15.9015641 83.636147,15.8967232 C83.5112313,15.9577055 83.4174714,15.9829997 83.0482849,16.063691 C82.6721079,16.1457883 82.6301399,16.1560682 82.5655663,16.1883641 C82.5038013,16.2191756 82.4660152,16.2295339 82.3038351,16.2621535 C82.1710152,16.2888679 82.0982517,16.3081001 82.0631749,16.3243495 C81.9944069,16.3574889 81.9955442,16.3765682 82.0641507,16.3554138 C82.1201494,16.3386341 82.1592218,16.3362919 82.1590355,16.3501208 C82.1589734,16.3547305 82.122573,16.3657295 82.0792317,16.3744468 C82.0344924,16.3834453 81.9883177,16.3954908 81.9756851,16.4017094 C81.9350034,16.4200055 81.9516068,16.429538 82.0507853,16.416026 C82.0296398,16.4331511 81.8729155,16.4747871 81.5344501,16.5520577 C81.1834017,16.6318591 80.9972675,16.6830881 80.9970439,16.6996828 C81.1045862,16.6863275 81.1143232,16.6880467 81.1141121,16.7037195 C81.1137271,16.7322992 81.1304795,16.7307687 81.2704265,16.6925071 C81.4369624,16.6470588 81.9683538,16.531904 81.9290703,16.5499189 C81.8743579,16.5747148 81.6071213,16.6431755 81.1721121,16.7453807 C80.7077303,16.8544131 80.5845978,16.8865345 80.5844363,16.8985195 C80.5842624,16.9114265 80.6191778,16.9071622 80.7380663,16.8795722 C80.8205917,16.8602154 80.8485414,16.8555132 80.8330629,16.8659819 C80.7993221,16.8865597 80.6355327,16.9351333 80.5194901,16.9584732 C80.4314095,16.976189 80.4215855,16.9809232 80.4368032,16.9898151 C80.4464781,16.996144 80.4798836,17.0004582 80.5119531,17.000444 C80.6318671,17.0002306 80.5729853,17.0240262 80.2820429,17.0926578 C80.0204608,17.1553841 79.9812269,17.1697113 80.0255688,17.1902144 C80.0477274,17.2013879 79.8405595,17.2614447 79.6728118,17.2933453 C79.4757164,17.3302292 79.4351589,17.339306 79.4252853,17.347728 C79.3999082,17.3684624 79.4697638,17.3580899 79.7689954,17.2951465 C79.9493757,17.2570274 80.1115309,17.2262516 80.1268728,17.2259241 C80.1487457,17.258302 80.1599057,17.2578962 80.2382368,17.239383 C80.3347556,17.2162922 80.4044621,17.2169829 80.3762516,17.2410455 C80.3677761,17.2491862 80.2586246,17.2784955 80.1215607,17.3097412 C79.9900768,17.340784 79.8795768,17.3666868 79.8976032,17.3740943 C79.9129202,17.3756107 80.0848373,17.3447103 80.2791738,17.305623 C80.4721122,17.2668169 80.6370886,17.2336348 80.6440791,17.2322288 C80.6510572,17.2317447 80.6453406,17.2420888 80.6298124,17.2562452 C80.6058086,17.2785422 80.5904046,17.2834793 80.4996024,17.296226 C80.4297468,17.3065985 80.3723873,17.3208936 80.3219313,17.3402362 C80.2686667,17.3610632 80.2588179,17.3676412 80.2853695,17.3632203 C80.355225,17.3528478 80.2054415,17.3967655 79.9298038,17.4678354 C79.6079914,17.5509509 78.6036557,17.7897323 78.4498767,17.8197427 C78.3883601,17.8321157 78.2330463,17.8725486 78.1042717,17.9094825 C77.8943076,17.9701016 77.8523521,17.9794596 77.722465,17.9954704 C77.6121265,18.0093881 77.5338451,18.0242136 77.4065058,18.0581005 C77.2959686,18.0867691 77.123977,18.123201 76.9073453,18.161256 C76.7256415,18.1941248 76.6012847,18.2136204 76.6320554,18.206512 C76.7076151,18.1867173 76.7093734,18.1597003 76.593455,18.1738209 C76.6287057,18.1446645 76.7925323,18.0933252 77.0555498,18.0275519 C77.3437456,17.955795 77.5411515,17.8958629 77.4671638,17.9024693 C77.4476152,17.9045623 77.307755,17.9363704 77.159469,17.9726315 C76.6502486,18.0980378 76.7693855,18.0520093 77.3725026,17.8911676 C77.733524,17.7955688 78.1210721,17.697393 78.6134657,17.5790488 C79.3520622,17.4010715 79.3464698,17.4021963 79.2935281,17.3990531 C79.2464397,17.3754247 79.3164815,17.3512233 79.4017783,17.333148 C79.4730816,17.3188066 79.4786989,17.3158379 79.4944507,17.2850868 C79.52025,17.2330069 79.516155,17.2264751 79.4629774,17.2408485 C79.4279999,17.2497225 79.4167406,17.2575037 79.3578215,17.2840651 C79.3383846,17.2778607 79.2923093,17.2825308 79.2070249,17.2996842 C79.0811955,17.3249926 79.0474671,17.3446484 79.1325528,17.3422458 C79.1771803,17.3415447 79.1743717,17.343029 79.0777659,17.3725733 C79.0203691,17.3896342 78.8454818,17.4340039 78.6888196,17.4710303 C78.5307593,17.5083379 78.3866552,17.5446773 78.3670321,17.5523019 C78.348807,17.5596452 78.327674,17.5758483 78.320522,17.5892394 C78.3104869,17.6096464 78.2922494,17.6179117 78.2152916,17.6379875 C78.1635121,17.6520798 78.0977266,17.6708279 78.0669187,17.6807021 C78.0025189,17.700091 77.9327379,17.7049319 77.9455071,17.6885721 C77.9511617,17.6828377 77.9931669,17.6697919 78.0379062,17.6607934 C78.0840437,17.6515137 78.1316413,17.6373431 78.1442988,17.6292807 C78.1850798,17.6036092 78.1307276,17.6016692 78.0383658,17.6266821 C77.7752986,17.6961431 77.7781072,17.6946588 77.7777967,17.717707 C77.7775483,17.7361455 77.7663014,17.7430048 77.708917,17.7591438 C77.5829262,17.7964371 77.4683313,17.8158082 77.4685424,17.8001354 C77.4686418,17.79276 77.4757565,17.7821347 77.4841948,17.7767597 C77.4985609,17.745368 77.3712961,17.7737233 77.3487402,17.7920515 C77.3360454,17.8028796 77.2814697,17.8175343 77.1863986,17.8366562 C77.057773,17.8625269 77.0409585,17.8686671 77.0099394,17.8942141 L76.9774973,17.9218861 L77.1969748,17.879581 C77.4010857,17.8394471 77.4122581,17.8381194 77.3561849,17.8604307 C77.2524395,17.9024441 77.1167488,17.9352524 76.9365424,17.9604646 C76.7842732,17.9818965 76.7605676,17.9820674 76.7286968,17.9673307 C76.6926566,17.9515939 76.6856785,17.9520779 76.4787591,17.9936961 C76.3627164,18.017036 76.2635007,18.0333138 76.2593685,18.0295478 C76.2469719,18.0182497 76.3734347,17.9459231 76.4055041,17.9459089 C76.5421209,17.9478526 76.6735551,17.9204975 76.7298768,17.8797476 C76.755229,17.8608571 76.7524452,17.8604976 76.6335815,17.8862437 C76.6337678,17.8724148 76.6730016,17.8580876 76.758286,17.8409342 C76.8016272,17.8322169 76.8422343,17.8194523 76.8479137,17.811874 C76.8677728,17.7867328 76.3333741,17.9181228 75.7371482,18.0849339 C75.6041917,18.1217895 75.4866267,18.1546298 75.47684,18.1565983 C75.464257,18.1591291 75.4584783,18.1740828 75.4581554,18.1980529 C75.4575468,18.2432274 75.4561487,18.2435086 75.2294695,18.3028925 C75.012577,18.360308 74.8542931,18.4142103 74.8428475,18.4358204 C74.8199437,18.4799625 74.9344392,18.4679669 75.1584092,18.4026919 C75.2256051,18.3827406 75.2843503,18.3690862 75.2898931,18.3716491 C75.3134497,18.3825414 75.2545554,18.407259 75.1020006,18.4498952 C75.012435,18.4743458 74.9354275,18.4981093 74.9297978,18.5019999 C74.9142696,18.5161563 75.1212636,18.4690065 75.3157864,18.4160903 C75.5187226,18.359643 75.7312842,18.3132123 75.7129473,18.328853 C75.7073052,18.3336655 75.6457141,18.3515701 75.5771573,18.3690368 C75.2945415,18.4405908 75.4632029,18.4443641 75.7750796,18.3742803 L75.9680801,18.3308645 L75.9677695,18.3539127 C75.9675708,18.3686635 75.9786066,18.377477 75.9995037,18.3787905 C76.0204131,18.3791821 75.9601829,18.3995712 75.8118348,18.4404419 C75.5025308,18.5265581 75.1679615,18.6251113 74.4833322,18.8336084 C73.1070581,19.2538523 72.7614034,19.3472798 71.9559338,19.5212382 C71.4077776,19.6388455 71.4035833,19.6396891 71.2354133,19.7029352 C71.1429273,19.7371674 71.0350497,19.7754148 70.9958655,19.7860543 C70.9104693,19.8115051 70.7653149,19.8223117 70.7655633,19.8038732 C70.7658365,19.7835908 70.8364125,19.7197465 70.8996377,19.6840442 C70.9642734,19.6471387 70.9642858,19.6462168 70.9438235,19.6126358 C70.9246971,19.5833833 70.9543803,19.5535079 71.0300021,19.5291036 C71.1812458,19.4802951 71.1692714,19.4376515 71.0033814,19.4351596 C70.9601768,19.4337357 70.8641671,19.4190274 70.7891166,19.4010231 C70.6056474,19.3579343 70.5429066,19.3576815 70.3554737,19.4018163 C70.2407795,19.4285627 70.1637595,19.4532482 70.0235765,19.5090264 C69.6983593,19.6378786 69.4943106,19.6734028 69.2520837,19.6448904 C69.0321272,19.6192541 68.8548466,19.530788 68.6620928,19.348894 C68.4776035,19.1745321 68.4762427,19.1720475 68.5420708,19.046637 C68.6021822,18.9315706 68.5982363,18.9139757 68.4888294,18.8587489 C68.3877365,18.8073665 68.3671873,18.780239 68.3026244,18.6047417 C68.2568526,18.483389 68.2404231,18.4609494 68.1409147,18.3954569 C68.0497203,18.3338087 68.0112193,18.2937422 67.9455883,18.1975306 C67.9223794,18.1608244 67.8634533,18.0844111 67.8168244,18.0266713 C67.7701831,17.9698535 67.7209816,17.8960815 67.707485,17.8629384 C67.6723639,17.7789789 67.6808519,17.7699162 67.8304614,17.7389055 C67.9674881,17.7104256 68.016608,17.6867546 68.1967702,17.5613335 C68.2615052,17.5170526 68.3880053,17.4419602 68.4778566,17.3963054 C68.8681691,17.1964363 68.9215206,17.1691559 68.9398202,17.156281 C68.9693543,17.1374687 68.9390182,17.1123097 68.8833052,17.1078851 L68.8994047,17.05132 L68.8971426,17.0122396 C68.8230307,17.0280653 68.8134675,17.013439 68.8725729,16.9730487 C68.9105701,16.9470177 68.9105701,16.9470177 69.0234688,16.9500542 L69.1349694,16.9533718 L69.20521,16.9144196 C69.2627931,16.8835298 69.2755002,16.8717797 69.2757983,16.8496534 C69.2761461,16.8238394 69.2831738,16.8196676 69.384123,16.7782166 C69.4430049,16.754421 69.5284631,16.7243606 69.5746502,16.7113932 C69.6208249,16.6993477 69.6684723,16.6814894 69.6811546,16.6715832 C69.7318589,16.633802 69.8833262,16.5683988 70.0626064,16.5084346 C70.1676506,16.4735154 70.4170472,16.3838182 70.6174357,16.3094948 C71.1513555,16.1101634 71.2003885,16.0929459 71.5643055,15.9894093 C71.7448721,15.9374612 72.0794289,15.8398299 72.3062198,15.7721487 C72.5582016,15.6975619 72.8003096,15.631397 72.930383,15.6015574 C73.0786317,15.5680621 73.1570125,15.5458612 73.1879074,15.5295335 C73.2174042,15.513487 73.2817791,15.495942 73.3866618,15.4730078 C73.4705605,15.4552137 73.5657185,15.4296383 73.5965637,15.4169984 C73.6358224,15.4008273 73.6637969,15.3942813 73.6944559,15.3954703 C73.7251148,15.3966592 73.7866687,15.3815204 73.9252549,15.3407743 C74.3270325,15.2213479 74.9007148,15.071943 75.7512218,14.8668598 C76.2925738,14.7368296 76.5304751,14.6724303 76.6804449,14.6146837 C76.7463172,14.589482 76.7841157,14.5782018 76.7896212,14.5835305 C76.7951267,14.5888592 76.8608252,14.5765645 76.9839329,14.546287 C77.2175653,14.4882629 77.57548,14.4162747 77.6536373,14.4106685 C77.7094621,14.4067957 77.7150793,14.4038271 77.7321671,14.3774044 C77.7464214,14.35431 77.7562578,14.3486539 77.7827597,14.3479206 C77.86751,14.3704101 77.8717043,14.3695665 77.9446417,14.3374273 C78.009178,14.3078972 78.051146,14.2976172 78.269213,14.2565152 L78.5194364,14.2089455 L78.5589311,14.1752579 C78.6083119,14.1322263 78.6769308,14.11015 78.7843985,14.1023262 C78.8318596,14.0982969 78.9017027,14.0888463 78.9408496,14.0809726 C78.9864405,14.1122577 79.2450402,14.0639227 79.3236942,14.0214394 C79.3377373,14.0140177 79.4300867,13.9899267 79.529377,13.9681174 C79.6286672,13.946308 79.7601511,13.9152653 79.8217174,13.8992046 C79.9196717,13.8730668 79.9364986,13.8660047 79.9507529,13.8429102 C79.9664425,13.8167688 80.0028926,13.8020821 80.0180606,13.8146616 C80.026325,13.8221937 80.1156298,13.8171036 80.1645759,13.8063395 C80.3939519,13.7537686 80.4513487,13.7367077 80.4515723,13.720113 C80.4519201,13.6942991 80.535856,13.6737391 81.0950977,13.5612576 C81.473984,13.4850514 81.5830113,13.4649614 81.5786928,13.4750242 C81.5758096,13.4820401 81.5561244,13.4942743 81.5365137,13.500977 C81.5501718,13.522135 81.6018395,13.5163401 81.647977,13.5070604 C81.7444462,13.4876573 81.9349361,13.4235997 81.9351224,13.4097708 C81.8766877,13.400377 81.9788115,13.3752395 82.426329,13.276035 Z M93.0355408,11.2364175 L101.183877,10.707253 C101.595528,10.6805199 101.950908,10.9925572 101.977641,11.4042079 C101.981155,11.4583104 101.978767,11.5126346 101.970521,11.5662203 L101.90612,11.9847079 C101.861106,12.2772166 101.618807,12.499114 101.323477,12.5182932 C101.028147,12.5374723 100.785849,12.7593697 100.740835,13.0518784 L100.676434,13.4703661 C100.61369,13.8780844 100.893347,14.2594692 101.301065,14.322213 C101.354651,14.3304593 101.408975,14.3328468 101.463078,14.3293333 L103.651521,14.1872127 C104.063172,14.1604795 104.418552,14.4725168 104.445285,14.8841676 C104.448799,14.9382701 104.446411,14.9925943 104.438165,15.0461799 L104.418854,15.1716658 C104.347501,15.6353283 103.963428,15.987063 103.495294,16.0174643 L87.0238627,17.0871421 C86.612212,17.1138753 86.2568316,16.801838 86.2300984,16.3901873 C86.2265849,16.3360848 86.2289724,16.2817606 86.2372187,16.2281749 L86.2565297,16.102689 C86.3278827,15.6390266 86.7119556,15.2872919 87.18009,15.2568906 L96.7000714,14.6386496 C97.1682058,14.6082483 97.5522786,14.2565136 97.6236317,13.7928511 L97.6429427,13.6673652 C97.7056864,13.2596469 97.4260293,12.8782621 97.018311,12.8155183 C96.9647254,12.807272 96.9104012,12.8048845 96.8562987,12.808398 L91.8546039,13.1332151 C91.7635776,13.1391265 91.6737882,13.1574646 91.5877337,13.1877194 L90.1162429,13.705061 C89.5952209,13.8882401 89.0243532,13.6143643 88.8411741,13.0933424 C88.7866414,12.9382333 88.771195,12.772071 88.7962026,12.6095678 L89.4236057,8.53260866 C89.4888165,8.10885953 89.8168939,7.77382993 90.2391827,7.69974916 L101.90322,5.65356423 C102.26611,5.58990364 102.611897,5.83247678 102.675558,6.19536652 C102.688125,6.26700422 102.688892,6.34021494 102.67783,6.41210038 L102.644066,6.63150334 C102.579537,7.05082384 102.257437,7.38378581 101.840487,7.46218259 L93.0117956,9.12219031 C92.5948452,9.20058709 92.2727459,9.53354906 92.2082167,9.95286956 L92.1581302,10.2783386 C92.0881468,10.7331014 92.4000721,11.1584921 92.8548348,11.2284756 C92.9146034,11.2376734 92.9751958,11.2403363 93.0355408,11.2364175 Z M95.41798,2.10540054 L95.4566021,1.85442873 C95.5279551,1.39076628 95.9120279,1.03903158 96.3801624,1.00863027 L97.6841381,0.923948254 C98.0957888,0.897215076 98.4511692,1.20925241 98.4779024,1.62090314 C98.4814159,1.67500562 98.4790284,1.72932982 98.4707821,1.78291547 C98.4080383,2.19063376 98.6876954,2.57201861 99.0954137,2.63476237 C99.1489994,2.64300866 99.2033236,2.64539617 99.257426,2.64188268 L105.176069,2.25751771 C105.727192,2.22172695 106.202981,2.63948694 106.238771,3.19061076 C106.243475,3.26304392 106.240279,3.33577394 106.229239,3.40751515 L106.116395,4.14078936 C106.045042,4.60445181 105.660969,4.95618651 105.192835,4.98658782 L103.424806,5.10140608 C103.218981,5.11477267 103.041291,4.958754 103.027924,4.75292864 C103.026167,4.7258774 103.027361,4.6987153 103.031484,4.67192248 C103.062856,4.46806333 102.923028,4.2773709 102.719168,4.24599902 C102.692376,4.24187588 102.665213,4.24068212 102.638162,4.24243887 L90.4211402,5.03582946 C90.1500689,5.05343321 89.9276731,5.25710374 89.8863565,5.52558556 C89.8450398,5.79406738 89.622644,5.9977379 89.3515727,6.01534166 L88.0246957,6.10151092 C87.4735718,6.13730167 86.9977836,5.71954168 86.9619928,5.16841786 C86.9572889,5.0959847 86.9604853,5.02325469 86.9715256,4.95151347 L87.0843691,4.21823927 C87.1557221,3.75457682 87.5397949,3.40284212 88.0079294,3.37244081 L94.4944197,2.951199 C94.9625542,2.92079769 95.346627,2.56906299 95.41798,2.10540054 Z M85.8727661,18.8199056 L90.3410369,17.2489665 C90.7767589,17.0957769 91.254166,17.3248146 91.4073556,17.7605365 C91.4529604,17.8902516 91.4658779,18.0292104 91.4449645,18.165109 L91.3239474,18.951496 C91.2678196,19.3162226 91.0153885,19.6203955 90.6672573,19.7427902 L86.1989864,21.3137294 C85.7632645,21.466919 85.2858574,21.2378813 85.1326678,20.8021594 C85.087063,20.6724442 85.0741454,20.5334855 85.0950589,20.3975868 L85.216076,19.6111998 C85.2722037,19.2464733 85.5246349,18.9423004 85.8727661,18.8199056 Z M98.5167135,17.3942843 L102.445922,17.7425715 C102.996049,17.7913351 103.402485,18.2768325 103.353722,18.8269603 C103.35183,18.848306 103.349252,18.8695853 103.345993,18.8907654 L103.226436,19.6676629 C103.146227,20.188872 102.675061,20.5582194 102.149776,20.5116579 L98.2205681,20.1633707 C97.6704403,20.1146071 97.2640044,19.6291097 97.312768,19.0789819 C97.3146601,19.0576362 97.3172378,19.0363568 97.3204972,19.0151768 L97.440054,18.2382793 C97.5202628,17.7170701 97.9914284,17.3477228 98.5167135,17.3942843 Z" id="Combined-Shape"></path>
        </g>
    </g>
</svg>