<?xml version="1.0" encoding="UTF-8"?>
<svg width="12px" height="20px" viewBox="0 0 12 20" version="1.1" xmlns="http://www.w3.org/2000/svg" xmlns:xlink="http://www.w3.org/1999/xlink">
    <!-- Generator: Sketch 42 (36781) - http://www.bohemiancoding.com/sketch -->
    <title>Combined Shape</title>
    <desc>Created with Sketch.</desc>
    <defs>
        <linearGradient x1="100%" y1="0%" x2="0%" y2="100%" id="linearGradient-1">
            <stop stop-color="#FFBA3F" offset="0%"></stop>
            <stop stop-color="#FF0000" offset="100%"></stop>
        </linearGradient>
    </defs>
    <g id="H5优化-&gt;-首页改版" stroke="none" stroke-width="1" fill="none" fill-rule="evenodd">
        <path d="M0,16 L0,3.33333333 L12,3.33333333 L12,16 L0,16 Z M12,2.66666667 L0,2.66666667 L0,2.33333333 C0,1.04666667 1.04666667,0 2.33333333,0 L9.66666667,0 C10.9533333,0 12,1.04666667 12,2.33333333 L12,2.66666667 Z M0,16.6666667 L12,16.6666667 L12,17.6666667 C12,18.9533333 10.9533333,20 9.66666667,20 L2.33333333,20 C1.04666667,20 0,18.9533333 0,17.6666667 L0,16.6666667 Z M6,18.6666667 C6.36733333,18.6666667 6.66666667,18.3666667 6.66666667,18 C6.66666667,17.6333333 6.36733333,17.3333333 6,17.3333333 C5.63266667,17.3333333 5.33333333,17.6333333 5.33333333,18 C5.33333333,18.3666667 5.63266667,18.6666667 6,18.6666667 Z M4.33333333,1.33333333 C4.14933333,1.33333333 4,1.48666667 4,1.66666667 C4,1.85333333 4.14933333,2 4.33333333,2 L7.66666667,2 C7.85066667,2 8,1.85333333 8,1.66666667 C8,1.48666667 7.85066667,1.33333333 7.66666667,1.33333333 L4.33333333,1.33333333 Z M9.68,1.33333333 C9.496,1.33333333 9.35,1.48666667 9.35,1.66666667 C9.35,1.85333333 9.50266667,2 9.68666667,2 C9.87066667,2 10.02,1.85333333 10.02,1.66666667 C10.02,1.48666667 9.87066667,1.33333333 9.68666667,1.33333333 L9.68,1.33333333 Z M6,14 C6.55228475,14 7,13.5522847 7,13 C7,12.4477153 6.55228475,12 6,12 C5.44771525,12 5,12.4477153 5,13 C5,13.5522847 5.44771525,14 6,14 Z M5.00350152,5.98649498 L5.45691678,10.9740629 L6.54311003,10.9740629 L6.99652529,5.98649498 C7.04538614,5.44902568 6.63975384,5 6.08902637,5 L5.91100044,5 C5.35343498,5 4.95397187,5.44166885 5.00350152,5.98649498 Z" id="Combined-Shape" fill="url(#linearGradient-1)"></path>
    </g>
</svg>