<?xml version="1.0" encoding="UTF-8"?>
<svg width="296px" height="24px" viewBox="0 0 296 24" version="1.1" xmlns="http://www.w3.org/2000/svg" xmlns:xlink="http://www.w3.org/1999/xlink">
    <!-- Generator: Sketch 42 (36781) - http://www.bohemiancoding.com/sketch -->
    <title>Group 26</title>
    <desc>Created with Sketch.</desc>
    <defs>
        <linearGradient x1="100%" y1="0%" x2="0%" y2="100%" id="linearGradient-1">
            <stop stop-color="#FFBA3F" offset="0%"></stop>
            <stop stop-color="#FF0000" offset="100%"></stop>
        </linearGradient>
    </defs>
    <g id="H5优化-&gt;-首页改版" stroke="none" stroke-width="1" fill="none" fill-rule="evenodd">
        <g id="Group-26">
            <rect id="Rectangle-8" fill="url(#linearGradient-1)" x="0" y="0" width="296" height="24" rx="12"></rect>
            <path d="M120,13.3787185 L120.000399,13.3787185 L120,13.3803142 L120,13.3787185 L120,13.3787185 Z M119.00266,7.69098949 L119.00266,7.59574362 L120.99734,7.59574362 L120.99734,7.69092376 C121.418316,7.96760987 121.573344,8.77367157 121.639228,9.11489155 C121.644015,9.13962557 121.659174,9.16276386 121.684706,9.18350852 C122.233642,9.63590184 122.56436,10.2925503 122.591488,10.9847041 C122.61702,11.6337729 122.37327,12.2624958 121.906116,12.7555806 C121.420611,13.2686122 120.740824,13.568612 120.041888,13.5793833 L120,13.5797822 C118.570214,13.5797822 117.406917,12.4583734 117.406917,11.0804488 C117.406917,10.350795 117.738033,9.65943906 118.315294,9.18310959 C118.340826,9.16236492 118.355985,9.13962557 118.360772,9.11529048 C118.426649,8.77345397 118.581918,7.96768961 119.00266,7.69098949 Z M120,15.5744617 C119.889894,15.5744617 119.800532,15.4851001 119.800532,15.3749938 L119.800532,14.1781861 C119.800532,14.0680797 119.889894,13.9787181 120,13.9787181 C120.110106,13.9787181 120.199468,14.0680797 120.199468,14.1781861 L120.199468,15.3749938 C120.199468,15.4851001 120.110106,15.5744617 120,15.5744617 Z M117.805853,14.9864302 C117.771943,14.9864302 117.737634,14.9780525 117.706119,14.9597015 C117.610773,14.9046483 117.57806,14.7829729 117.633113,14.6872283 L118.231517,13.6507928 C118.28657,13.5554471 118.409044,13.5235322 118.50399,13.5777875 C118.599336,13.6328407 118.632049,13.7549151 118.576996,13.8502607 L117.978592,14.8866962 C117.94189,14.9509249 117.874469,14.9864302 117.805853,14.9864302 Z M116.199737,13.3803142 C116.13112,13.3803142 116.063699,13.34441 116.026997,13.2805803 C115.971545,13.1852346 116.004258,13.0631602 116.100003,13.008107 L117.136438,12.4097032 C117.231784,12.35465 117.353858,12.3873628 117.408911,12.4827085 C117.464363,12.5780541 117.431651,12.7001285 117.335906,12.7551817 L116.299471,13.3535855 C116.267955,13.3719366 116.233646,13.3803142 116.199737,13.3803142 Z M122.194147,14.9864302 C122.125531,14.9864302 122.05811,14.9509249 122.021408,14.8866962 L121.423004,13.8502607 C121.367951,13.7549151 121.400664,13.6328407 121.49601,13.5777875 C121.590956,13.5227344 121.71343,13.5550482 121.768483,13.6507928 L122.366887,14.6872283 C122.42194,14.7829729 122.389227,14.9046483 122.293881,14.9597015 C122.262366,14.9780525 122.228057,14.9864302 122.194147,14.9864302 Z M123.800263,13.3803142 C123.766354,13.3803142 123.732045,13.3719366 123.700529,13.3535855 L122.664094,12.7551817 C122.568349,12.7001285 122.535637,12.5780541 122.591089,12.4827085 C122.646142,12.3877617 122.767817,12.355049 122.863562,12.4097032 L123.899997,13.008107 C123.995742,13.0631602 124.028455,13.1852346 123.973003,13.2805803 C123.936301,13.34441 123.86888,13.3803142 123.800263,13.3803142 Z M120.99734,7.19680772 L119.00266,7.19680772 L119.00266,6.76356332 C119.00266,6.60398896 119.064894,6.45359012 119.177793,6.34069126 L119.343352,6.17513286 C119.454655,6.06382974 119.609043,6 119.766224,6 L120.233776,6 C120.390957,6 120.545345,6.06382974 120.656648,6.17513286 L120.822207,6.34069126 C120.935106,6.45359012 120.99734,6.60398896 120.99734,6.76356332 L120.99734,7.19680772 Z" id="Combined-Shape" fill="#FFFFFF" transform="translate(120.000000, 10.787231) scale(1, -1) translate(-120.000000, -10.787231) "></path>
            <text id="优惠券待领取" font-family=".PingFangSC-Regular, .PingFang SC" font-size="9" font-weight="normal" fill="#FFFFFF">
                <tspan x="128" y="15">优惠券待领取</tspan>
            </text>
        </g>
    </g>
</svg>