<?xml version="1.0" encoding="UTF-8" standalone="no"?>
<!-- Created with Inkscape (http://www.inkscape.org/) -->

<svg
   xmlns:dc="http://purl.org/dc/elements/1.1/"
   xmlns:cc="http://creativecommons.org/ns#"
   xmlns:rdf="http://www.w3.org/1999/02/22-rdf-syntax-ns#"
   xmlns:svg="http://www.w3.org/2000/svg"
   xmlns="http://www.w3.org/2000/svg"
   xmlns:xlink="http://www.w3.org/1999/xlink"
   xmlns:sodipodi="http://sodipodi.sourceforge.net/DTD/sodipodi-0.dtd"
   xmlns:inkscape="http://www.inkscape.org/namespaces/inkscape"
   width="105"
   height="210.10706"
   viewBox="0 0 27.781257 55.590819"
   version="1.1"
   id="svg4350"
   inkscape:version="0.92.1 r15371"
   sodipodi:docname="index.svg">
  <defs
     id="defs4344">
    <polygon
       points="30,58 0,58 30,0 "
       id="path-1" />
  </defs>
  <sodipodi:namedview
     id="base"
     pagecolor="#ffffff"
     bordercolor="#666666"
     borderopacity="1.0"
     inkscape:pageopacity="0.0"
     inkscape:pageshadow="2"
     inkscape:zoom="1"
     inkscape:cx="265.12054"
     inkscape:cy="137.26924"
     inkscape:document-units="px"
     inkscape:current-layer="layer1"
     showgrid="true"
     inkscape:measure-start="50,890"
     inkscape:measure-end="0,0"
     inkscape:window-width="1366"
     inkscape:window-height="746"
     inkscape:window-x="1912"
     inkscape:window-y="-8"
     inkscape:window-maximized="1"
     objecttolerance="10"
     units="px"
     width="1122.5197px"
     fit-margin-top="2.8"
     fit-margin-left="0"
     fit-margin-right="0"
     fit-margin-bottom="10">
    <inkscape:grid
       type="xygrid"
       id="grid4406"
       originx="1.7120045e-008"
       originy="-241.60678" />
  </sodipodi:namedview>
  <metadata
     id="metadata4347">
    <rdf:RDF>
      <cc:Work
         rdf:about="">
        <dc:format>image/svg+xml</dc:format>
        <dc:type
           rdf:resource="http://purl.org/dc/dcmitype/StillImage" />
        <dc:title></dc:title>
      </cc:Work>
    </rdf:RDF>
  </metadata>
  <g
     inkscape:label="Layer 1"
     inkscape:groupmode="layer"
     id="layer1"
     transform="translate(0,0.19780511)">
    <g
       style="fill:none;fill-rule:evenodd;stroke:none;stroke-width:1"
       id="Group-11"
       transform="matrix(0.26458333,0,0,0.26458333,0,0.44260897)"
       inkscape:transform-center-x="6.2971494"
       inkscape:transform-center-y="-120.18523">
      <ellipse
         style="fill:#d8d8d8"
         id="Oval-4"
         cx="2.2909091"
         cy="19.354839"
         rx="2.2909091"
         ry="2.3225806" />
      <ellipse
         style="fill:#000000"
         id="Oval-5"
         cx="1.7818182"
         cy="19.354839"
         rx="0.76363635"
         ry="0.77419353" />
      <polygon
         style="fill:#ffe2be"
         id="Path-4"
         points="1.1549006,30.450857 22.474574,31.847782 23.459446,12.55746 1.9901278,12.81502 " />
      <polygon
         style="fill:#fff2e2"
         id="Path-5"
         points="3.4139915,13.948589 3.0003551,28.706905 22.070135,31.205645 22.409197,13.185988 " />
      <ellipse
         style="fill:#e5b780"
         id="Oval-6"
         cx="9.1636362"
         cy="23.741936"
         rx="2.0363636"
         ry="2.0645161" />
      <ellipse
         style="fill:#e5b780"
         id="Oval-7"
         cx="20.618181"
         cy="23.483871"
         rx="1.2727273"
         ry="1.2903225" />
      <ellipse
         style="fill:#000000"
         id="Oval-8"
         cx="12.218182"
         cy="19.354839"
         rx="0.5090909"
         ry="0.77419353" />
      <ellipse
         style="fill:#000000"
         id="ellipse3766"
         cx="20.872726"
         cy="19.354839"
         rx="0.5090909"
         ry="0.77419353" />
      <polygon
         style="fill:#000000"
         id="Rectangle-9"
         points="15.272727,18.580645 16.290909,18.580645 16.8,23.225807 14.763636,23.225807 " />
      <polygon
         style="fill:#91d1cd"
         id="Path-2"
         points="24.065731,12.823841 0.95603693,12.809728 2.1912287,3.9185988 12.887358,0.37953629 20.690021,2.9266633 " />
      <polygon
         style="fill:#75b8b5"
         id="polygon3770"
         points="0.95603693,12.809728 2.1912287,3.9185988 3.9730469,3.313004 3.1930043,12.823841 " />
      <ellipse
         style="fill:#75b8b5"
         id="Oval-3"
         cx="13.745455"
         cy="6.7096772"
         rx="2.0363636"
         ry="2.0645161" />
      <polygon
         style="fill:#5fa5a1"
         id="Path-3"
         points="24.390128,12.745968 4.6419744,12.774698 12.172443,7.5206653 23.091548,6.7328629 27.696733,10.84123 " />
    </g>
    <path
       style="fill:#ffffff;fill-rule:evenodd;stroke:none;stroke-width:0.26458332"
       inkscape:connector-curvature="0"
       d="M 4.3917508,12.832038 C 3.9633073,12.272 3.2406056,11.904158 2.42125,11.904158 c -1.3151281,0 -2.38125,0.947663 -2.38125,2.116666 0,0.643295 0.3228454,1.219563 0.8323715,1.607767 l -0.3032049,0.928447 0.9095269,-0.591836 c 0.2890566,0.110863 0.6077367,0.172289 0.9425565,0.172289 1.3151281,0 2.38125,-0.947663 2.38125,-2.116667 0,-0.341683 -0.09108,-0.664458 -0.2528374,-0.950187 l -2.919062,1.801426 -0.507075,-1.333315 0.7220489,0.357085 z"
       id="path3863"
       inkscape:transform-center-x="7.5799464"
       inkscape:transform-center-y="-10.468029" />
    <path
       style="fill:#c3c3c3;fill-rule:evenodd;stroke:none;stroke-width:0.26458332"
       inkscape:connector-curvature="0"
       d="m 2.0460006,21.833333 -1.341534,-1.537726 c -0.08106,-0.09291 -0.0482,-0.21844 0.07338,-0.280379 0.121583,-0.06194 0.285855,-0.03683 0.366911,0.05608 l 1.344918,1.541605 c 0.01699,0.0052 0.03353,0.01175 0.04934,0.01979 0.08905,0.04537 0.130501,0.124841 0.114465,0.200628 0.01604,0.07579 -0.02542,0.155263 -0.114465,0.200628 -0.01582,0.0081 -0.03236,0.01463 -0.04934,0.01979 l -1.344918,1.541606 c -0.08106,0.09291 -0.245328,0.118014 -0.366911,0.05607 -0.12158402,-0.06194 -0.15443802,-0.18747 -0.07338,-0.280379 z"
       id="path3755" />
    <g
       transform="matrix(0.26458333,0,0,0.26458333,0.07341298,27.249023)"
       style="fill:none;fill-rule:evenodd;stroke:none;stroke-width:1"
       id="主体板块改版(无往来)">
      <g
         id="gifts">
        <path
           style="stroke:#eeeeee;stroke-linecap:square"
           inkscape:connector-curvature="0"
           d="m 15.5,0.5 -15,31"
           id="Line" />
        <path
           style="fill:#f06a5a"
           inkscape:connector-curvature="0"
           d="m 19.3125,20.65625 c 0.416669,0.76042 0.95833,0.906252 1.625,0.4375 0.427085,-0.322918 0.635417,-0.705727 0.625,-1.148438 C 21.55208,19.502602 21.364585,19.093752 21,18.71875 20.083329,17.895829 18.854174,17.427084 17.3125,17.3125 c 0.156251,-0.322918 0.28125,-0.739581 0.375,-1.25 H 22 c 0.250001,-0.08333 0.333334,-0.249999 0.25,-0.5 -0.562503,-0.593753 -1.104164,-1.052082 -1.625,-1.375 -0.208334,-0.125001 -0.395833,-0.125001 -0.5625,0 -0.385419,0.479169 -0.718749,0.937498 -1,1.375 H 17.75 c 0.09375,-0.427085 0.15625,-1.135412 0.1875,-2.125 l 0.25,-0.125 c 0.208334,-0.125001 0.291667,-0.249999 0.25,-0.375 h 3.25 c 0.197918,-0.104167 0.239584,-0.270832 0.125,-0.5 -0.500003,-0.562503 -0.979164,-0.999998 -1.4375,-1.3125 -0.208334,-0.135417 -0.395833,-0.135417 -0.5625,0 -0.343752,0.468752 -0.656249,0.906248 -0.9375,1.3125 h -1.0625 c 0.677087,-0.614586 1.322914,-1.385412 1.9375,-2.3125 l 0.4375,-0.0625 C 20.520835,9.9374994 20.562501,9.7500013 20.3125,9.5 19.489579,9.0312477 18.76042,8.7187508 18.125,8.5625 c -0.291668,-0.093751 -0.458333,0.010415 -0.5,0.3125 -0.229168,1.375007 -0.520832,2.562495 -0.875,3.5625 h -2.15625 c -0.708337,-0.01042 -1.416663,-0.05208 -2.125,-0.125 l 0.6875,0.75 c 0.260418,-0.07292 0.677081,-0.114583 1.25,-0.125 H 15.5 c 0.04167,1.000005 0.02083,1.874996 -0.0625,2.625 H 14.25 c -0.72917,-0.01042 -1.45833,-0.05208 -2.1875,-0.125 l 0.6875,0.75 c 0.302085,-0.07292 0.697914,-0.114583 1.1875,-0.125 h 1.4375 c -0.333335,2.020843 -1.302075,3.69791 -2.90625,5.03125 -0.572919,-0.364585 -0.84375,-0.968746 -0.8125,-1.8125 v -3.375 l 0.3125,-0.375 c 0.156251,-0.197918 0.177084,-0.364583 0.0625,-0.5 C 11.572914,14.552081 11.020837,14.166668 10.375,13.875 10.197916,13.749999 9.979168,13.843748 9.71875,14.15625 l -0.5,0.75 h -0.25 c -0.5625028,-0.01042 -1.1249972,-0.05208 -1.6875,-0.125 l 0.5,0.75 c 0.3750019,-0.07292 0.7499981,-0.114583 1.125,-0.125 h 0.4375 v 4.125 c -0.072917,0.458336 -0.7083273,1.02083 -1.90625,1.6875 -0.2916681,0.218751 -0.3541675,0.447915 -0.1875,0.6875 0.4166688,0.541669 0.9166638,1.098955 1.5,1.671875 0.2812514,0.135417 0.4687495,-0.01041 0.5625,-0.4375 0.03125,-0.291668 0.3333305,-0.901037 0.90625,-1.828125 0.09375,-0.177084 0.223957,-0.317708 0.390625,-0.421875 0.166668,-0.104167 0.328124,-0.01563 0.484375,0.265625 0.291668,0.718754 0.804684,1.317706 1.539063,1.796875 0.734378,0.479169 1.908846,0.729167 3.523437,0.75 h 1.9375 2.71875 c 0.500002,0.03125 0.75,-0.156248 0.75,-0.5625 0.02083,-0.197918 0.124999,-0.434894 0.3125,-0.710938 0.187501,-0.276043 0.395832,-0.492186 0.625,-0.648437 0.312502,-0.364585 0.187503,-0.541667 -0.375,-0.53125 -0.864588,0.166667 -1.958327,0.265625 -3.28125,0.296875 -1.322923,0.03125 -2.770826,0.02604 -4.34375,-0.01563 -0.541669,-0.01042 -0.999998,-0.05208 -1.375,-0.125 2.06251,-1.104172 3.39583,-2.302077 4,-3.59375 0.885421,0.625003 1.61458,1.57291 2.1875,2.84375 v 0 z m -5.21875,-9.1875 c 0.07292,0.343752 0.265623,0.580728 0.578125,0.710938 0.312502,0.130209 0.65104,0.09115 1.015625,-0.117188 C 16.41667,11.572914 16.645835,10.968754 16.375,10.25 16.166666,9.8645814 15.80469,9.5572928 15.289063,9.328125 14.773435,9.0989572 14.19792,8.947917 13.5625,8.875 13.083331,8.8229164 12.979165,8.9687483 13.25,9.3125 c 0.416669,0.5833363 0.697916,1.302079 0.84375,2.15625 z m -4.625,0.34375 c 0.1041672,0.677087 0.572912,0.916668 1.40625,0.71875 C 11.656254,12.218748 11.968751,11.625004 11.8125,10.75 11.447915,9.8541622 10.427092,9.3125009 8.75,9.125 8.3333313,9.135417 8.2291656,9.3020817 8.4375,9.625 c 0.5625028,0.572919 0.9062494,1.302079 1.03125,2.1875 z"
           id="送" />
      </g>
    </g>
    <g
       id="领券、会员卡样式合集"
       transform="matrix(0.26458333,0,0,0.26458333,0.06741298,37.311458)"
       style="fill:none;fill-rule:evenodd;stroke:none;stroke-width:1">
      <g
         transform="translate(-6,-15)"
         id="Group">
        <path
           id="Line-5"
           d="m 21.5,15.5 -15,31"
           inkscape:connector-curvature="0"
           style="stroke:#eeeeee;stroke-linecap:square" />
        <mask
           fill="white"
           id="mask-2">
          <use
             id="use4512"
             xlink:href="#path-1"
             x="0"
             y="0"
             width="100%"
             height="100%" />
        </mask>
        <g
           id="Rectangle-3" />
        <text
           font-weight="normal"
           font-size="16"
           mask="url(#mask-2)"
           id="兑"
           style="font-weight:normal;font-size:16px;font-family:CloudRuiSongCuGBK;fill:#f06a5a">
          <tspan
             id="tspan4516"
             y="37"
             x="13">兑</tspan>
        </text>
      </g>
    </g>
    <polygon
       style="fill:#fdf0ee;fill-rule:evenodd;stroke:none;stroke-width:1"
       id="polygon3854"
       transform="matrix(0,0.2597968,0.16605512,0,1.8546594,38.785372)"
       points="53.741299,99.448264 35.979554,69.773877 35.979554,20.697993 53.358182,-8.889586 " />
  </g>
</svg>
