<?xml version="1.0" encoding="UTF-8"?>
<svg width="55px" height="188px" viewBox="0 0 55 188" version="1.1" xmlns="http://www.w3.org/2000/svg" xmlns:xlink="http://www.w3.org/1999/xlink">
    <!-- Generator: Sketch 43.1 (39012) - http://www.bohemiancoding.com/sketch -->
    <title>切图1</title>
    <desc>Created with Sketch.</desc>
    <defs>
        <linearGradient x1="100%" y1="0%" x2="0%" y2="100%" id="linearGradient-1">
            <stop stop-color="#FFBA3F" offset="0%"></stop>
            <stop stop-color="#FF0000" offset="100%"></stop>
        </linearGradient>
        <path d="M8.35714286,8.58245207 C8.35714286,6.40667387 6.4863327,4.64285714 4.17857143,4.64285714 C1.87081015,4.64285714 1.77635684e-15,6.40667387 1.77635684e-15,8.58245207 C1.77635684e-15,10.7582303 8.35714286,10.7582303 8.35714286,8.58245207 Z" id="path-2"></path>
        <path d="M12.0714286,12.2967378 C12.0714286,10.1209596 10.616354,8.35714286 8.82142857,8.35714286 C7.02650313,8.35714286 5.57142857,10.1209596 5.57142857,12.2967378 C5.57142857,14.472516 12.0714286,14.472516 12.0714286,12.2967378 Z" id="path-3"></path>
        <circle id="path-4" cx="4.17857143" cy="2.32142857" r="2.32142857"></circle>
        <path d="M8.82142857,8.35714286 C10.1035182,8.35714286 11.1428571,7.31780388 11.1428571,6.03571429 C11.1428571,5.88116487 11.1277544,5.73014288 11.0989443,5.58404367 C10.8887556,4.5181533 9.94896875,3.71428571 8.82142857,3.71428571 C7.69700784,3.71428571 6.75930301,4.51371149 6.54567409,5.57520302 C6.51571855,5.72404781 6.5,5.87804542 6.5,6.03571429 C6.5,7.31780388 7.53933897,8.35714286 8.82142857,8.35714286 Z" id="path-5"></path>
    </defs>
    <g id="上宾图标库" stroke="none" stroke-width="1" fill="none" fill-rule="evenodd">
        <g id="切图1">
            <g id="有券待领">
                <g id="Group-25">
                    <rect id="Rectangle-3" fill="url(#linearGradient-1)" x="0" y="0" width="55" height="17.7639752" rx="8.88198758"></rect>
                    <path d="M10.6925466,7.49981366 L10.6925466,8.54242236 L14.4899379,8.54242236 L14.4899379,7.49981366 L10.6925466,7.49981366 Z M14.4899379,9.14503106 L10.6925466,9.14503106 L10.6925466,10.1589441 L14.4899379,10.1589441 L14.4899379,9.14503106 Z M14.4899379,10.7615528 L10.6925466,10.7615528 L10.6925466,12.8085093 L10.0421118,12.8085093 L10.0421118,7.80590062 C9.50645963,8.47546584 8.8847205,9.09720497 8.19602484,9.65198758 L7.74645963,9.06850932 C8.95167702,8.11198758 9.87950311,7.0215528 10.5395031,5.78763975 L8.0047205,5.78763975 L8.0047205,5.11807453 L10.8551553,5.11807453 C11.017764,4.74503106 11.1612422,4.37198758 11.2760248,3.9989441 L11.9742857,4.08503106 C11.8595031,4.4389441 11.7447205,4.78329193 11.6108075,5.11807453 L16.3647205,5.11807453 L16.3647205,5.78763975 L11.3238509,5.78763975 C11.1325466,6.17024845 10.931677,6.54329193 10.7021118,6.89720497 L15.1403727,6.89720497 L15.1403727,12.0624224 C15.1403727,12.531118 14.8725466,12.7702484 14.3368944,12.7893789 L13.2655901,12.7893789 L13.0934161,12.1580745 C13.4568944,12.177205 13.8012422,12.1963354 14.1168944,12.1963354 C14.3655901,12.1963354 14.4899379,12.0815528 14.4899379,11.8519876 L14.4899379,10.7615528 Z M20.5829814,9.80503106 L19.2342857,9.80503106 L19.2342857,9.28850932 C18.7464596,9.6615528 18.2203727,9.98677019 17.6655901,10.2545963 L17.2829814,9.67111801 C18.2968944,9.23111801 19.1386335,8.63807453 19.7986335,7.89198758 L17.5795031,7.89198758 L17.5795031,7.26068323 L20.2864596,7.26068323 C20.5064596,6.92590062 20.697764,6.57198758 20.8603727,6.20850932 L18.1055901,6.20850932 L18.1055901,5.5963354 L21.1090683,5.5963354 C21.2812422,5.07981366 21.4055901,4.53459627 21.5012422,3.96068323 L22.1803727,4.04677019 C22.0847205,4.6015528 21.9603727,5.11807453 21.8073292,5.5963354 L23.7490683,5.5963354 L23.2612422,5.3189441 C23.5673292,4.9363354 23.8160248,4.4963354 24.0168944,3.98937888 L24.5908075,4.19981366 C24.3708075,4.73546584 24.1029814,5.19459627 23.777764,5.5963354 L25.2795031,5.5963354 L25.2795031,6.20850932 L21.577764,6.20850932 C21.4247205,6.5815528 21.2429814,6.93546584 21.051677,7.26068323 L25.8055901,7.26068323 L25.8055901,7.89198758 L23.7108075,7.89198758 C24.1986335,8.54242236 24.9925466,9.13546584 26.1021118,9.65198758 L25.6621118,10.2163354 C25.1073292,9.90068323 24.6386335,9.57546584 24.2368944,9.25024845 C24.2081988,10.0919876 24.1603727,10.7806832 24.0934161,11.3067702 C24.0168944,11.8424224 23.8829814,12.2154658 23.7012422,12.4259006 C23.5195031,12.6267702 23.2325466,12.7415528 22.8403727,12.7606832 L21.4151553,12.7606832 L21.2334161,12.1198137 C21.6829814,12.1389441 22.1038509,12.1485093 22.5055901,12.1485093 C22.9073292,12.1485093 23.1751553,12.0050311 23.3090683,11.7180745 C23.4429814,11.4119876 23.5290683,10.7806832 23.5673292,9.80503106 L21.2238509,9.80503106 C21.0325466,10.5224224 20.7647205,11.0963354 20.4299379,11.5267702 C20.0186335,12.0050311 19.4064596,12.4450311 18.5838509,12.837205 L18.1534161,12.2919876 C18.8995031,11.9667702 19.4638509,11.6032919 19.8464596,11.211118 C20.171677,10.8476398 20.4108075,10.3789441 20.5829814,9.80503106 Z M20.6212422,7.89198758 C20.257764,8.37024845 19.8464596,8.80068323 19.3873292,9.17372671 L24.1508075,9.17372671 C23.6534161,8.75285714 23.2803727,8.33198758 23.0125466,7.89198758 L20.6212422,7.89198758 Z M19.4734161,4.04677019 C19.7412422,4.44850932 19.9803727,4.86937888 20.171677,5.32850932 L19.6168944,5.58677019 C19.3873292,5.07981366 19.1481988,4.63024845 18.8803727,4.23807453 L19.4734161,4.04677019 Z M28.837764,3.9989441 L29.4403727,4.2763354 C28.9429814,5.32850932 28.1490683,6.26590062 27.0395031,7.0789441 L26.8386335,6.4189441 C27.7568944,5.71111801 28.4168944,4.90763975 28.837764,3.9989441 Z M29.191677,6.1989441 L29.7847205,6.4763354 C29.5551553,6.99285714 29.2681988,7.48068323 28.9238509,7.93981366 L28.9238509,12.7798137 L28.2638509,12.7798137 L28.2638509,8.70503106 C27.9195031,9.06850932 27.5368944,9.40329193 27.1255901,9.7189441 L26.9247205,9.0589441 C27.957764,8.22677019 28.7134161,7.27024845 29.191677,6.1989441 Z M32.4151553,4.03720497 L32.4151553,5.07981366 L30.2821118,5.07981366 L30.2821118,5.7015528 L32.4151553,5.7015528 L32.4151553,6.89720497 L29.9186335,6.89720497 L29.9186335,7.52850932 L35.6195031,7.52850932 L35.6195031,6.89720497 L33.0751553,6.89720497 L33.0751553,5.7015528 L35.2273292,5.7015528 L35.2273292,5.07981366 L33.0751553,5.07981366 L33.0751553,4.03720497 L32.4151553,4.03720497 Z M29.9664596,8.69546584 L33.677764,8.69546584 L33.677764,7.98763975 L34.3664596,7.98763975 L34.3664596,8.69546584 L35.4855901,8.69546584 L35.4855901,9.3363354 L34.3664596,9.3363354 L34.3664596,11.7945963 C34.3664596,12.4163354 34.0508075,12.7319876 33.4386335,12.7319876 L32.0803727,12.7319876 L31.9273292,12.0719876 C32.3673292,12.1006832 32.797764,12.1198137 33.1995031,12.1198137 C33.5151553,12.1198137 33.677764,11.9476398 33.677764,11.6224224 L33.677764,9.3363354 L29.9664596,9.3363354 L29.9664596,8.69546584 Z M31.0951553,9.70937888 C31.6308075,10.2545963 32.0421118,10.7328571 32.3290683,11.1345963 L31.7934161,11.517205 C31.4873292,11.077205 31.0760248,10.5798137 30.5595031,10.0441615 L31.0951553,9.70937888 Z M40.5360248,4.45807453 L45.0699379,4.45807453 L45.0699379,5.10850932 L43.1664596,5.10850932 C43.1186335,5.47198758 43.0612422,5.8163354 42.9847205,6.16068323 L44.7734161,6.16068323 L44.7734161,10.6754658 L44.1038509,10.6754658 L44.1038509,6.79198758 L41.6264596,6.79198758 L41.6264596,10.7519876 L40.9473292,10.7519876 L40.9473292,6.16068323 L42.3151553,6.16068323 C42.391677,5.8163354 42.4490683,5.47198758 42.4873292,5.10850932 L40.5360248,5.10850932 L40.5360248,4.45807453 Z M43.577764,10.7041615 C44.2281988,11.2589441 44.7734161,11.8232919 45.2229814,12.3780745 L44.7351553,12.8659006 C44.3429814,12.3302484 43.797764,11.7563354 43.1090683,11.1537267 L43.577764,10.7041615 Z M42.5255901,7.42329193 L43.1760248,7.42329193 L43.1760248,9.06850932 C43.1568944,10.0919876 42.9560248,10.9145963 42.5829814,11.5267702 C42.2195031,12.091118 41.6264596,12.5406832 40.8038509,12.8659006 L40.4403727,12.2824224 C41.2151553,11.9859006 41.7603727,11.5841615 42.0664596,11.0867702 C42.3534161,10.5702484 42.5064596,9.90068323 42.5255901,9.06850932 L42.5255901,7.42329193 Z M38.3168944,4.14242236 L38.8334161,4.14242236 C39.4838509,4.89807453 40.1151553,5.7015528 40.7273292,6.55285714 L40.2681988,7.04068323 C39.6464596,6.10329193 39.1012422,5.35720497 38.6421118,4.80242236 C38.0968944,5.77807453 37.4655901,6.66763975 36.7481988,7.47111801 L36.3560248,6.9163354 C37.0734161,6.13198758 37.7238509,5.20416149 38.3168944,4.14242236 Z M36.9012422,8.32242236 L36.9012422,8.96329193 L39.5890683,8.96329193 C39.2255901,9.67111801 38.8525466,10.2928571 38.4603727,10.8189441 C38.1638509,10.5606832 37.857764,10.3024224 37.5325466,10.0441615 L37.0734161,10.4841615 C38.077764,11.297205 38.8621118,12.0624224 39.4360248,12.7798137 L39.9334161,12.2919876 C39.6273292,11.9380745 39.2829814,11.5841615 38.9099379,11.2302484 C39.4455901,10.5415528 39.9142857,9.76677019 40.3255901,8.8963354 L40.3255901,8.32242236 L36.9012422,8.32242236 Z M38.517764,6.21807453 C38.9386335,6.78242236 39.2542857,7.27024845 39.4838509,7.69111801 L38.9864596,8.04503106 C38.7473292,7.58590062 38.4221118,7.0789441 38.0203727,6.52416149 L38.517764,6.21807453 Z" id="有券待领" fill="#FFFFFF"></path>
                </g>
            </g>
            <g id="出生日期" transform="translate(0.000000, 164.000000)">
                <path d="M23.4545455,0 C23.7561818,0 24,0.243818182 24,0.545454545 L24,23.4545455 C24,23.7561818 23.7561818,24 23.4545455,24 L0.545454545,24 C0.244363636,24 0,23.7561818 0,23.4545455 L0,0.545454545 C0,0.243818182 0.244363636,0 0.545454545,0 L23.4545455,0 Z M1.47399902,1.49926758 L1.47399902,11.4869659 L11.4616974,11.4869659 L11.4616974,1.49926758 L1.47399902,1.49926758 Z M22.5007324,1.49926758 L12.5130341,1.49926758 L12.5130341,11.4869659 L22.5007324,11.4869659 L22.5007324,1.49926758 Z M1.47399902,22.526001 L11.4616974,22.526001 L11.4616974,12.5383026 L1.47399902,12.5383026 L1.47399902,22.526001 Z M22.5007324,22.526001 L22.5007324,12.5383026 L12.5130341,12.5383026 L12.5130341,22.526001 L22.5007324,22.526001 Z" id="Combined-Shape" fill="#000000"></path>
                <path d="M11.8869644,11.8991021 C11.7918398,11.9934835 8.63117643,11.8649167 6.70267383,9.93641409 C5.78338377,9.01786719 5.76257526,7.55309701 6.66105682,6.65907442 C7.55953838,5.76579499 9.03842861,5.78140137 9.95771867,6.70069143 C11.8862213,8.62993718 11.9085161,11.8775504 11.8869644,11.8991021 L11.8869644,11.8991021 Z" id="Path" stroke="#5FA5A1" stroke-width="2"></path>
                <path d="M13.8569561,6.70160296 C14.7755724,5.78298665 16.2478855,5.76366301 17.1442053,6.6599828 C18.040525,7.5563026 18.0219446,9.02787241 17.1025851,9.94723193 C15.1709639,11.8781099 12.0293853,11.988106 11.9349968,11.8937174 C11.9134435,11.8721642 11.9513475,8.60646832 13.8569561,6.70160296 L13.8569561,6.70160296 Z" id="Path" stroke="#5FA5A1" stroke-width="2"></path>
                <path d="M12.5068321,11.937473 C12.5068321,11.937473 8.96594529,11.4786783 8.96594529,18.8796387" id="Path-6" stroke="#5FA5A1" stroke-width="2" stroke-linecap="round"></path>
                <path d="M12.5250796,11.937473 C12.5250796,11.937473 16.0659665,11.4786783 16.0659665,18.8796387" id="Path-6" stroke="#5FA5A1" stroke-width="2" stroke-linecap="round"></path>
            </g>
            <g id="手机号码" transform="translate(0.000000, 62.000000)">
                <path d="M23.4545455,0 C23.7561818,0 24,0.243818182 24,0.545454545 L24,23.4545455 C24,23.7561818 23.7561818,24 23.4545455,24 L0.545454545,24 C0.244363636,24 0,23.7561818 0,23.4545455 L0,0.545454545 C0,0.243818182 0.244363636,0 0.545454545,0 L23.4545455,0 Z M22,22.0252686 L22,2.02526855 L2,2.02526855 L2,22.0252686 L22,22.0252686 Z" id="Combined-Shape" fill="#000000"></path>
                <path d="M18.6973701,15.8480159 C18.6577049,15.728654 18.4058001,15.5529065 17.9416558,15.3210174 C17.8159475,15.2480334 17.6367827,15.1486872 17.4050156,15.0227348 C17.1728824,14.8967824 16.9623515,14.7807158 16.773545,14.674535 C16.5844944,14.5685983 16.4071602,14.4657128 16.2415426,14.3664887 C16.2150584,14.346595 16.1321886,14.2886228 15.9929331,14.1924498 C15.8536776,14.0963989 15.7361464,14.0251235 15.6398514,13.9786236 C15.5438005,13.9322458 15.4493362,13.9090569 15.3564585,13.9090569 C15.2239156,13.9090569 15.058298,14.0035212 14.8594836,14.1924498 C14.6606692,14.3813784 14.4783312,14.5867833 14.3127135,14.8090307 C14.1469738,15.031156 13.9713484,15.236561 13.7858371,15.4254895 C13.6002038,15.6145402 13.4476452,15.7088824 13.3284053,15.7088824 C13.2687244,15.7088824 13.1940317,15.6922841 13.1045713,15.6593314 C13.015233,15.6262567 12.9472529,15.5978198 12.900631,15.5748749 C12.8543752,15.551564 12.7749227,15.5053082 12.6621514,15.4354974 C12.549258,15.3659307 12.4864038,15.32773 12.4732228,15.3210174 C11.5650719,14.8172078 10.7861686,14.2404142 10.136513,13.5908807 C9.48697944,12.9412251 8.91018583,12.1623218 8.40637626,11.2541709 C8.39978573,11.2408678 8.36158506,11.1778916 8.29201833,11.0652423 C8.22232955,10.952471 8.17595173,10.8730185 8.15276282,10.8265186 C8.12957392,10.7801408 8.10138108,10.7121607 8.06830638,10.6227003 C8.03523167,10.5332399 8.01863329,10.4586693 8.01863329,10.3989883 C8.01863329,10.2797485 8.11309758,10.1271899 8.30202617,9.94155658 C8.49095476,9.75604531 8.69648173,9.58029778 8.91848502,9.41468015 C9.14061036,9.24906252 9.34601528,9.06672446 9.53494387,8.86791008 C9.72387246,8.66897365 9.81833675,8.50335601 9.81833675,8.37081309 C9.81833675,8.27805745 9.79514784,8.18347111 9.74877002,8.08742021 C9.7023922,7.99112521 9.63111682,7.87359405 9.53494387,7.73433855 C9.43877092,7.59508305 9.38079864,7.51233526 9.360905,7.48572903 C9.26155883,7.3201114 9.1589174,7.14277727 9.0527366,6.95384868 C8.94655581,6.76492009 8.83061126,6.55438921 8.70465887,6.32237807 C8.57870647,6.09048897 8.47936031,5.91144618 8.40637626,5.78549379 C8.17436512,5.32159356 7.99873965,5.06956673 7.87937779,5.02990149 C7.83299997,5.01000785 7.76331119,5 7.67055556,5 C7.49151277,5 7.25791502,5.03307471 6.96951821,5.09946822 C6.68112141,5.16573968 6.45411419,5.23530641 6.28837451,5.30829045 C5.95689516,5.4474239 5.6056442,5.85176525 5.23437756,6.52119245 C4.89630767,7.14424183 4.72727273,7.76082273 4.72727273,8.37069104 C4.72727273,8.54948974 4.73886718,8.72352861 4.76205609,8.8926856 C4.785245,9.06172054 4.82674094,9.25235779 4.88642187,9.46447528 C4.9461028,9.67659278 4.99418928,9.83415532 5.03055925,9.93679675 C5.06692923,10.0394382 5.13490934,10.2233629 5.23437756,10.4885707 C5.33372373,10.7537786 5.39340466,10.916101 5.4132983,10.9757819 C5.64530944,11.6254375 5.92040314,12.2054044 6.23857938,12.7159265 C6.7620385,13.5643965 7.47637895,14.4411814 8.3812346,15.346037 C9.28609026,16.2508927 10.1627531,16.9652331 11.0113451,17.4889363 C11.5217452,17.8069905 12.1019561,18.0822063 12.7514897,18.3143395 C12.8111706,18.3341111 12.973615,18.393792 13.2387009,18.4933823 C13.5037867,18.5927284 13.6878334,18.6607085 13.7904749,18.6972006 C13.8931163,18.7336926 14.0506788,18.7817791 14.2626743,18.84146 C14.4750359,18.9011409 14.6655511,18.9426369 14.834586,18.9659478 C15.003621,18.9888926 15.1776598,19.0007312 15.3565806,19.0007312 C15.9663269,19.0007312 16.5829077,18.8315742 17.2060792,18.4936263 C17.8753843,18.1223597 18.2797257,17.7709867 18.4189812,17.4393853 C18.4920873,17.2738897 18.5615319,17.0467604 18.6278034,16.7583636 C18.6941969,16.4700889 18.7272716,16.2364911 18.7272716,16.0574483 C18.7273937,15.9643266 18.7173858,15.8947598 18.6973701,15.8480159 L18.6973701,15.8480159 Z" id="Shape" fill="#5FA5A1" transform="translate(11.727273, 12.000366) scale(-1, 1) translate(-11.727273, -12.000366) "></path>
            </g>
            <g id="性别" transform="translate(0.000000, 130.000000)">
                <path d="M23.4545455,0 C23.7561818,0 24,0.243818182 24,0.545454545 L24,23.4545455 C24,23.7561818 23.7561818,24 23.4545455,24 L0.545454545,24 C0.244363636,24 0,23.7561818 0,23.4545455 L0,0.545454545 C0,0.243818182 0.244363636,0 0.545454545,0 L23.4545455,0 Z M22,22.0252686 L22,2.02526855 L2,2.02526855 L2,22.0252686 L22,22.0252686 Z" id="Combined-Shape" fill="#000000"></path>
                <g id="Group" transform="translate(6.000000, 5.000000)">
                    <g id="Oval-3">
                        <use fill="#5FA5A1" fill-rule="evenodd" xlink:href="#path-2"></use>
                        <path stroke="#FFFFFF" stroke-width="1" d="M8.85714286,8.58245207 C8.85714286,6.12373345 6.75610625,4.14285714 4.17857143,4.14285714 C1.6010366,4.14285714 -0.5,6.12373345 -0.5,8.58245207 C-0.5,11.4248969 8.85714286,11.4248969 8.85714286,8.58245207 Z"></path>
                    </g>
                    <g id="Oval-3">
                        <use fill="#5FA5A1" fill-rule="evenodd" xlink:href="#path-3"></use>
                        <path stroke="#FFFFFF" stroke-width="1" d="M12.5714286,12.2967378 C12.5714286,9.86378065 10.9160368,7.85714286 8.82142857,7.85714286 C6.72682029,7.85714286 5.07142857,9.86378065 5.07142857,12.2967378 C5.07142857,15.1391826 12.5714286,15.1391826 12.5714286,12.2967378 Z"></path>
                    </g>
                    <g id="Oval-2">
                        <use fill="#5FA5A1" fill-rule="evenodd" xlink:href="#path-4"></use>
                        <circle stroke="#FFFFFF" stroke-width="1" cx="4.17857143" cy="2.32142857" r="2.82142857"></circle>
                    </g>
                    <g id="Oval-2">
                        <use fill="#5FA5A1" fill-rule="evenodd" xlink:href="#path-5"></use>
                        <path stroke="#FFFFFF" stroke-width="1" d="M8.82142857,8.85714286 C10.3796605,8.85714286 11.6428571,7.59394626 11.6428571,6.03571429 C11.6428571,5.85025282 11.6248947,5.66681196 11.5894974,5.48730883 C11.3306136,4.17448017 10.1751653,3.21428571 8.82142857,3.21428571 C7.47171953,3.21428571 6.31868079,4.16885782 6.05550227,5.47655421 C6.01868882,5.65947496 6,5.84654049 6,6.03571429 C6,7.59394626 7.2631966,8.85714286 8.82142857,8.85714286 Z"></path>
                    </g>
                    <path d="M7.42857143,4.64285714 C7.42857143,4.64285714 11.1428571,4.64285714 11.1428571,6.5 C11.1428571,8.35714286 11.5142857,9.28571429 12.2571429,9.28571429 C13,9.28571429 13,8.35714286 13,8.35714286 C13,8.35714286 12.35,8.35714286 11.5142857,5.57142857 C10.6785714,2.78571429 7.42857143,4.64285714 7.42857143,4.64285714 Z" id="Path-4" fill="#5FA5A1"></path>
                </g>
            </g>
            <g id="买单记录" transform="translate(0.000000, 28.000000)">
                <path d="M17.4545455,18.09375 L17.4545455,0.65625 C17.4545455,0.29334375 17.2107273,0 16.9090909,0 L0.545454545,0 C0.243818182,0 0,0.29334375 0,0.65625 L0,19.40625 C0,21.9433125 1.70945455,24 3.81818182,24 L20.1818182,24 C22.2905455,24 24,21.9433125 24,19.40625 L24,18.75 C24,18.3870937 23.7561818,18.09375 23.4545455,18.09375 L17.4545455,18.09375 Z M2,19.40625 L2,2 L16,2 L16,18.09375 L6.54545455,18.09375 C6.24381818,18.09375 6,18.3870937 6,18.75 L6,19.40625 C6,21.2188125 5.50654545,22 4,22 C3,22 2,21.2188125 2,19.40625 Z M8,20 L22,20 C22,21 21.5065455,22 20,22 L7,22 C8,21 8,21 8,20 Z" id="Shape" fill="#000000"></path>
                <path d="M4.81818182,5.34375 L7.96166992,5.34375 L10.8181818,5.34375 C11.1198182,5.34375 11.3636364,5.63709375 11.3636364,6 C11.3636364,6.36290625 11.1198182,6.65625 10.8181818,6.65625 L4.81818182,6.65625 C4.51654545,6.65625 4.27272727,6.36290625 4.27272727,6 C4.27272727,5.63709375 4.51654545,5.34375 4.81818182,5.34375 Z M4.81818182,7.96875 L10.8181818,7.96875 C11.1198182,7.96875 11.3636364,8.26209375 11.3636364,8.625 C11.3636364,8.98790625 11.1198182,9.28125 10.8181818,9.28125 L4.81818182,9.28125 C4.51654545,9.28125 4.27272727,8.98790625 4.27272727,8.625 C4.27272727,8.26209375 4.51654545,7.96875 4.81818182,7.96875 Z M8.09090909,10.59375 C8.39254545,10.59375 8.63636364,10.8870937 8.63636364,11.25 C8.63636364,11.6129062 8.39254545,11.90625 8.09090909,11.90625 L4.81818182,11.90625 C4.51654545,11.90625 4.27272727,11.6129062 4.27272727,11.25 C4.27272727,10.8870937 4.51654545,10.59375 4.81818182,10.59375 L8.09090909,10.59375 Z" id="Combined-Shape" fill="#5FA5A1"></path>
            </g>
            <g id="我的二维码" transform="translate(0.000000, 96.000000)">
                <g id="Icon-/-QR" transform="translate(4.000000, 4.000000)">
                    <path d="M10.2276029,7.05882353 L8.83292978,7.05882353 L8.83292978,5.64705882 L10.2276029,5.64705882 L10.2276029,7.05882353 Z M14.4116223,1.41223529 L14.4116223,0 L15.8067603,0 L15.8067603,1.41223529 L14.4116223,1.41223529 Z M14.4116223,13.1764706 L14.4116223,8.94117647 L15.8067603,8.94117647 L15.8067603,13.1764706 L14.4116223,13.1764706 Z M8.83292978,16 L8.83292978,14.5882353 L14.4116223,14.5882353 L14.4116223,16 L8.83292978,16 Z M2.78934625,13.1764706 L1.39467312,13.1764706 L1.39467312,11.7647059 L2.78934625,11.7647059 L2.78934625,13.1764706 Z M0,11.7647059 L0,8.94117647 L1.39467312,8.94117647 L1.39467312,11.7647059 L0,11.7647059 Z M0,16 L0,13.1764706 L1.39467312,13.1764706 L1.39467312,16 L0,16 Z" id="Fill-1" fill="#000000"></path>
                    <path d="M0,7.05882353 L6.97336562,7.05882353 L6.97336562,0 L0,0 L0,7.05882353 Z M1.39467312,1.41176471 L5.57869249,1.41176471 L5.57869249,5.64705882 L1.39467312,5.64705882 L1.39467312,1.41176471 Z" id="Fill-8" fill="#5FA5A1"></path>
                    <path d="M14.4115758,5.64705882 L14.4115758,4.23501176 L13.9466847,4.23501176 L13.0169027,4.23501176 L13.0169027,1.41195294 L14.4115758,1.41195294 L14.4115758,2.82371765 L15.8062489,2.82371765 L15.8062489,5.64724706 L14.4116223,5.64724706 L14.4116223,7.05882353 L13.0169492,7.05882353 L11.622276,7.05882353 L11.622276,5.64705882 L10.2276029,5.64705882 L10.2276029,4.23529412 L11.622276,4.23529412 L13.0169492,4.23529412 L13.0169492,5.64705882 L14.4115758,5.64705882 Z M8.83288329,-9.41176471e-05 L13.0169027,-9.41176471e-05 L13.0169027,1.41214118 L10.2275564,1.41214118 L10.2275564,2.82343529 L8.83288329,2.82343529 L8.83288329,1.41214118 L8.83288329,-9.41176471e-05 Z M2.78934625,8.94117647 L6.97336562,8.94117647 L6.97336562,10.3529412 L5.57869249,10.3529412 L5.57869249,11.7647059 L4.18401937,11.7647059 L4.18401937,10.3529412 L2.78934625,10.3529412 L2.78934625,8.94117647 Z M5.57855303,11.7647059 L6.97369104,11.7647059 L6.97369104,14.5882353 L6.04344407,14.5882353 L5.57855303,14.5882353 L5.57855303,16 L2.78967167,16 L2.78967167,14.5882353 L4.1838799,14.5882353 L4.1838799,13.1764706 L5.57855303,13.1764706 L5.57855303,11.7647059 Z M10.2276029,8.94117647 L13.0169492,8.94117647 L13.0169492,10.8235294 L13.0169492,11.7647059 L13.0169492,13.1764706 L11.622276,13.1764706 L11.622276,11.7647059 L10.2276029,11.7647059 L10.2276029,13.1764706 L8.83292978,13.1764706 L8.83292978,10.3529412 L10.2276029,10.3529412 L10.2276029,8.94117647 Z M14.4116223,13.1764706 L15.8067603,13.1764706 L15.8067603,16 L13.0169492,16 L13.0169492,14.5887059 L14.4116223,14.5887059 L14.4116223,13.1764706 Z" id="Fill-9" fill="#000000"></path>
                    <polygon id="Path" fill="#5FA5A1" points="4.18401937 4.23529412 2.78934625 4.23529412 2.78934625 2.82352941 4.18401937 2.82352941"></polygon>
                </g>
                <path d="M23.4545455,0 C23.7561818,0 24,0.243818182 24,0.545454545 L24,23.4545455 C24,23.7561818 23.7561818,24 23.4545455,24 L0.545454545,24 C0.244363636,24 0,23.7561818 0,23.4545455 L0,0.545454545 C0,0.243818182 0.244363636,0 0.545454545,0 L23.4545455,0 Z M22,22.0252686 L22,2.02526855 L2,2.02526855 L2,22.0252686 L22,22.0252686 Z" id="Combined-Shape" fill="#000000"></path>
            </g>
        </g>
    </g>
</svg>