<?xml version="1.0" encoding="UTF-8"?>
<svg width="7px" height="12px" viewBox="0 0 7 12" version="1.1" xmlns="http://www.w3.org/2000/svg" xmlns:xlink="http://www.w3.org/1999/xlink">
    <!-- Generator: Sketch 42 (36781) - http://www.bohemiancoding.com/sketch -->
    <title>Combined Shape@3x</title>
    <desc>Created with Sketch.</desc>
    <defs></defs>
    <g id="H5优化-&gt;-首页" stroke="none" stroke-width="1" fill="none" fill-rule="evenodd">
        <g id="2.-桌边付（活动列表优化）" transform="translate(-150.000000, -124.000000)" fill="#DFC78B">
            <path d="M150,133.333333 L150,125.944444 L157,125.944444 L157,133.333333 L150,133.333333 Z M157,125.555556 L150,125.555556 L150,125.361111 C150,124.610556 150.610556,124 151.361111,124 L155.638889,124 C156.389444,124 157,124.610556 157,125.361111 L157,125.555556 Z M150,133.722222 L157,133.722222 L157,134.305556 C157,135.056111 156.389444,135.666667 155.638889,135.666667 L151.361111,135.666667 C150.610556,135.666667 150,135.056111 150,134.305556 L150,133.722222 Z M153.5,134.888889 C153.714278,134.888889 153.888889,134.713889 153.888889,134.5 C153.888889,134.286111 153.714278,134.111111 153.5,134.111111 C153.285722,134.111111 153.111111,134.286111 153.111111,134.5 C153.111111,134.713889 153.285722,134.888889 153.5,134.888889 Z M155.646667,124.777778 C155.539333,124.777778 155.454167,124.867222 155.454167,124.972222 C155.454167,125.081111 155.543222,125.166667 155.650556,125.166667 C155.757889,125.166667 155.845,125.081111 155.845,124.972222 C155.845,124.867222 155.757889,124.777778 155.650556,124.777778 L155.646667,124.777778 Z M152.527778,124.777778 C152.420444,124.777778 152.333333,124.867222 152.333333,124.972222 C152.333333,125.081111 152.420444,125.166667 152.527778,125.166667 L154.472222,125.166667 C154.579556,125.166667 154.666667,125.081111 154.666667,124.972222 C154.666667,124.867222 154.579556,124.777778 154.472222,124.777778 L152.527778,124.777778 Z" id="Combined-Shape"></path>
        </g>
    </g>
</svg>