<?xml version="1.0" encoding="UTF-8"?>
<svg width="72px" height="200px" viewBox="0 0 72 200" version="1.1" xmlns="http://www.w3.org/2000/svg" xmlns:xlink="http://www.w3.org/1999/xlink">
    <!-- Generator: Sketch 43.1 (39012) - http://www.bohemiancoding.com/sketch -->
    <title>新支付场景切图</title>
    <desc>Created with Sketch.</desc>
    <defs>
        <rect id="path-1" x="0" y="0" width="73" height="58"></rect>
        <polygon id="path-3" points="-1 -1 73 -1 -1 59"></polygon>
        <ellipse id="path-4" cx="13" cy="13" rx="13" ry="13"></ellipse>
    </defs>
    <g id="H5优化-&gt;-领券、会员卡样式合集" stroke="none" stroke-width="1" fill="none" fill-rule="evenodd">
        <g id="新支付场景切图">
            <g id="Group-37">
                <mask id="mask-2" fill="white">
                    <use xlink:href="#path-1"></use>
                </mask>
                <g id="Rectangle-25"></g>
                <g id="Rectangle-7" mask="url(#mask-2)">
                    <use fill="#FFF5BE" fill-rule="evenodd" xlink:href="#path-3"></use>
                    <path stroke="#E0ECF0" stroke-width="1" d="M-0.5,-0.5 L71.589433,-0.5 L-0.5,57.9508916 L-0.5,-0.5 Z"></path>
                </g>
            </g>
            <g id="Group-18" transform="translate(0.000000, 140.000000)">
                <g id="Oval-16">
                    <use fill="#FFFFFF" fill-rule="evenodd" xlink:href="#path-4"></use>
                    <ellipse stroke="#5FA5A1" stroke-width="1" cx="13" cy="13" rx="12.5" ry="12.5"></ellipse>
                </g>
                <path d="M20.5273291,23.1054614 C20.7349121,22.3865165 20.6250097,21.6195668 20.2222505,20.9772215 C19.8194914,20.3348762 19.1576701,19.8710324 18.3857613,19.6901047 L16.4365921,19.2331063 C15.8045842,19.0849327 15.3612713,18.5533277 15.3612713,17.9435632 L15.3612713,17.1579835 C16.3521515,16.1684269 17.1485036,14.6928438 17.6201485,13.1584245 C18.3060428,13.186846 18.9957331,12.6230934 19.2316482,11.7934082 C19.4946916,10.8684934 19.0944323,9.96584793 18.3374302,9.77729493 C18.2503972,9.75563214 18.1624383,9.74549395 18.0744794,9.74384757 C17.8608781,6.52986821 15.5885757,4 12.8150001,4 C10.0414245,4 7.76921458,6.52995486 7.55552074,9.74384757 C7.46756184,9.74549395 7.37960294,9.75554548 7.29256992,9.77729493 C6.53566044,9.96584793 6.13530856,10.86858 6.39835196,11.7934082 C6.63435958,12.6230934 7.32404995,13.186846 8.00985161,13.1584245 C8.48149649,14.6928438 9.2778486,16.1684269 10.2687288,17.1579835 L10.2687288,17.9435632 C10.2687288,18.5533277 9.82541591,19.0849327 9.19340806,19.2331063 L7.24423882,19.6901047 C6.47233003,19.871119 5.81050874,20.3348762 5.40774957,20.9772215 C5.00499039,21.6195668 4.89508806,22.3864298 5.10267106,23.1054614 C5.10267106,23.1054614 10.4768853,26 12.8150001,26 C15.1531148,26 20.5273291,23.1054614 20.5273291,23.1054614 Z" id="Shape" fill="#5FA5A1" fill-rule="nonzero"></path>
            </g>
            <g id="Group-20" transform="translate(0.000000, 68.000000)">
                <g id="Group-18" stroke="#E75040">
                    <ellipse id="Oval-16" cx="13" cy="13" rx="12.5" ry="12.5"></ellipse>
                </g>
                <path d="M10,1 C10,1 13.3999798,0.822219973 15,1 C16.6000202,1.17778003 19,2 19,2 L15,10.1428571 L21,10.1428571 L10.3333333,23 L11.8333333,14 L6,14 L10,1 Z" id="Path-8" fill="#E75040"></path>
            </g>
            <g id="Group-20" transform="translate(0.000000, 104.000000)">
                <g id="Group-18" stroke="#FFFFFF">
                    <circle id="Oval-16" cx="13" cy="13" r="12.5"></circle>
                </g>
                <path d="M10,1 C10,1 13.3999798,0.822219973 15,1 C16.6000202,1.17778003 19,2 19,2 L15,10.1428571 L21,10.1428571 L10.3333333,23 L11.8333333,14 L6,14 L10,1 Z" id="Path-8" fill="#FFFFFF"></path>
            </g>
            <g id="qrcode_1158132_easyicon.net" transform="translate(0.000000, 176.000000)" fill-rule="nonzero" fill="#000000">
                <path d="M7.5,1.5 L1.5,1.5 L1.5,7.5 L7.5,7.5 L7.5,1.5 Z M9,0 L9,0 L9,9 L0,9 L0,0 L9,0 Z M3,3 L6,3 L6,6 L3,6 L3,3 Z M22.5,1.5 L16.5,1.5 L16.5,7.5 L22.5,7.5 L22.5,1.5 Z M24,0 L24,0 L24,9 L15,9 L15,0 L24,0 Z M18,3 L21,3 L21,6 L18,6 L18,3 Z M7.5,16.5 L1.5,16.5 L1.5,22.5 L7.5,22.5 L7.5,16.5 Z M9,15 L9,15 L9,24 L0,24 L0,15 L9,15 Z M3,18 L6,18 L6,21 L3,21 L3,18 Z M10.5,0 L12,0 L12,1.5 L10.5,1.5 L10.5,0 Z M12,1.5 L13.5,1.5 L13.5,3 L12,3 L12,1.5 Z M10.5,3 L12,3 L12,4.5 L10.5,4.5 L10.5,3 Z M12,4.5 L13.5,4.5 L13.5,6 L12,6 L12,4.5 Z M10.5,6 L12,6 L12,7.5 L10.5,7.5 L10.5,6 Z M12,7.5 L13.5,7.5 L13.5,9 L12,9 L12,7.5 Z M10.5,9 L12,9 L12,10.5 L10.5,10.5 L10.5,9 Z M10.5,12 L12,12 L12,13.5 L10.5,13.5 L10.5,12 Z M12,13.5 L13.5,13.5 L13.5,15 L12,15 L12,13.5 Z M10.5,15 L12,15 L12,16.5 L10.5,16.5 L10.5,15 Z M12,16.5 L13.5,16.5 L13.5,18 L12,18 L12,16.5 Z M10.5,18 L12,18 L12,19.5 L10.5,19.5 L10.5,18 Z M12,19.5 L13.5,19.5 L13.5,21 L12,21 L12,19.5 Z M10.5,21 L12,21 L12,22.5 L10.5,22.5 L10.5,21 Z M12,22.5 L13.5,22.5 L13.5,24 L12,24 L12,22.5 Z M22.5,12 L24,12 L24,13.5 L22.5,13.5 L22.5,12 Z M1.5,12 L3,12 L3,13.5 L1.5,13.5 L1.5,12 Z M3,10.5 L4.5,10.5 L4.5,12 L3,12 L3,10.5 Z M0,10.5 L1.5,10.5 L1.5,12 L0,12 L0,10.5 Z M6,10.5 L7.5,10.5 L7.5,12 L6,12 L6,10.5 Z M7.5,12 L9,12 L9,13.5 L7.5,13.5 L7.5,12 Z M9,10.5 L10.5,10.5 L10.5,12 L9,12 L9,10.5 Z M13.5,12 L15,12 L15,13.5 L13.5,13.5 L13.5,12 Z M15,10.5 L16.5,10.5 L16.5,12 L15,12 L15,10.5 Z M16.5,12 L18,12 L18,13.5 L16.5,13.5 L16.5,12 Z M18,10.5 L19.5,10.5 L19.5,12 L18,12 L18,10.5 Z M19.5,12 L21,12 L21,13.5 L19.5,13.5 L19.5,12 Z M21,10.5 L22.5,10.5 L22.5,12 L21,12 L21,10.5 Z M22.5,15 L24,15 L24,16.5 L22.5,16.5 L22.5,15 Z M13.5,15 L15,15 L15,16.5 L13.5,16.5 L13.5,15 Z M15,13.5 L16.5,13.5 L16.5,15 L15,15 L15,13.5 Z M16.5,15 L18,15 L18,16.5 L16.5,16.5 L16.5,15 Z M19.5,15 L21,15 L21,16.5 L19.5,16.5 L19.5,15 Z M21,13.5 L22.5,13.5 L22.5,15 L21,15 L21,13.5 Z M22.5,18 L24,18 L24,19.5 L22.5,19.5 L22.5,18 Z M13.5,18 L15,18 L15,19.5 L13.5,19.5 L13.5,18 Z M15,16.5 L16.5,16.5 L16.5,18 L15,18 L15,16.5 Z M18,16.5 L19.5,16.5 L19.5,18 L18,18 L18,16.5 Z M19.5,18 L21,18 L21,19.5 L19.5,19.5 L19.5,18 Z M21,16.5 L22.5,16.5 L22.5,18 L21,18 L21,16.5 Z M22.5,21 L24,21 L24,22.5 L22.5,22.5 L22.5,21 Z M15,19.5 L16.5,19.5 L16.5,21 L15,21 L15,19.5 Z M16.5,21 L18,21 L18,22.5 L16.5,22.5 L16.5,21 Z M18,19.5 L19.5,19.5 L19.5,21 L18,21 L18,19.5 Z M19.5,21 L21,21 L21,22.5 L19.5,22.5 L19.5,21 Z M15,22.5 L16.5,22.5 L16.5,24 L15,24 L15,22.5 Z M18,22.5 L19.5,22.5 L19.5,24 L18,24 L18,22.5 Z M21,22.5 L22.5,22.5 L22.5,24 L21,24 L21,22.5 Z" id="Shape"></path>
            </g>
        </g>
    </g>
</svg>