<?xml version="1.0" encoding="UTF-8"?>
<svg width="20px" height="147px" viewBox="0 0 20 147" version="1.1" xmlns="http://www.w3.org/2000/svg" xmlns:xlink="http://www.w3.org/1999/xlink">
    <!-- Generator: Sketch 44.1 (41455) - http://www.bohemiancoding.com/sketch -->
    <title>opCon</title>
    <desc>Created with Sketch.</desc>
    <defs>
        <circle id="path-1" cx="10" cy="10" r="10"></circle>
    </defs>
    <g id="门店首页（自助式）-copy" stroke="none" stroke-width="1" fill="none" fill-rule="evenodd">
        <g id="opCon">
            <g id="Group-6">
                <g id="Oval">
                    <use fill="#FFFFFF" fill-rule="evenodd" xlink:href="#path-1"></use>
                    <circle stroke="#D7D7D7" stroke-width="1" cx="10" cy="10" r="9.5"></circle>
                </g>
                <rect id="Rectangle-2" fill="#C7C7C7" x="5" y="9" width="10" height="2" rx="1"></rect>
            </g>
            <g id="Group-8" transform="translate(0.000000, 30.000000)">
                <circle id="Oval" fill="#FF4D63" cx="10" cy="10" r="10"></circle>
                <path d="M9,9 L6,9 L6,9 C5.44771525,9 5,9.44771525 5,10 C5,10.5522847 5.44771525,11 6,11 L9,11 L9,14 C9,14.5522847 9.44771525,15 10,15 C10.5522847,15 11,14.5522847 11,14 L11,11 L14,11 C14.5522847,11 15,10.5522847 15,10 C15,9.44771525 14.5522847,9 14,9 L11,9 L11,6 L11,6 C11,5.44771525 10.5522847,5 10,5 L10,5 L10,5 C9.44771525,5 9,5.44771525 9,6 L9,9 Z" id="Combined-Shape" fill="#FFFFFF"></path>
            </g>
        </g>
    </g>
</svg>