<?xml version="1.0" encoding="UTF-8"?>
<svg width="187px" height="27px" viewBox="0 0 187 27" version="1.1" xmlns="http://www.w3.org/2000/svg" xmlns:xlink="http://www.w3.org/1999/xlink">
    <!-- Generator: Sketch 48.1 (47250) - http://www.bohemiancoding.com/sketch -->
    <title>计算你的专享优惠</title>
    <desc>Created with Sketch.</desc>
    <defs></defs>
    <g id="01-载入效果" stroke="none" stroke-width="1" fill="none" fill-rule="evenodd" transform="translate(-94.000000, -314.000000)">
        <path d="M106.328,317.44 C107.288005,317.600001 108.175996,317.967997 108.992,318.544 C109.120001,319.056003 109.247999,319.639997 109.376,320.296 C109.151999,321.400006 109.143999,322.279997 109.352,322.936 C110.536006,322.471998 111.975992,322.224 113.672,322.192 C114.264003,322.624002 114.472001,323.167997 114.296,323.824 C113.431996,324.288002 112.792002,324.200003 112.376,323.56 C111.223994,323.736001 110.176005,323.951999 109.232,324.208 C109.007999,327.344016 108.936,330.559984 109.016,333.856 C108.807999,334.752004 108.728,335.639996 108.776,336.52 C108.68,337.112003 108.488001,337.703997 108.2,338.296 C108.007999,337.687997 107.832001,337.080003 107.672,336.472 C107.752,332.39198 107.696001,328.528018 107.504,324.88 C106.575995,325.264002 105.472006,325.703998 104.192,326.2 C103.375996,326.616002 102.520004,326.712001 101.624,326.488 C101.351999,326.087998 101.431998,325.776001 101.864,325.552 C103.94401,325.023997 105.887991,324.344004 107.696,323.512 C107.632,322.471995 107.6,321.360006 107.6,320.176 L107.216,319.384 L106.136,318.592 C105.815998,318.143998 105.879998,317.760002 106.328,317.44 Z M100.208,324.472 C100.079999,326.52001 99.9600006,328.223993 99.848,329.584 C100.072001,328.927997 100.503997,328.064005 101.144,326.992 C101.352001,326.831999 101.727997,326.792 102.272,326.872 L102.272,327.904 L101.552,329.104 C101.231998,330.032005 100.896002,330.887996 100.544,331.672 L100.472,332.344 L100.064,332.776 L99.2,332.824 C98.607997,332.359998 98.3519996,331.752004 98.432,331 L98.576,326.128 C97.9199967,326.640003 97.1280046,327.103998 96.2,327.52 C95.6239971,327.664001 95.1200022,327.552002 94.688,327.184 L94.52,326.488 C94.6480006,326.135998 94.8879982,325.712002 95.24,325.216 L95.984,325.168 L96.104,326.032 L99.056,324.28 L100.208,324.472 Z M101.624,318.88 L102.152,319.408 L101.984,320.104 C101.071995,320.488002 100.224004,320.975997 99.44,321.568 L98.984,321.352 L98.864,320.752 C99.3120022,320.303998 99.5519998,320.016001 99.584,319.888 L99.128,319.72 C98.327996,319.72 97.5360039,319.568002 96.752,319.264 L96.32,318.712 L97.016,318.376 L98.696,318.208 L99.488,318.304 L101.624,318.88 Z M130.688,322.048 C130.992002,322.544002 130.856003,322.903999 130.28,323.128 C129.895998,323.112 129.552002,323.183999 129.248,323.344 C128.783998,323.728002 128.376002,323.936 128.024,323.968 L127.928,324.208 C128.168001,324.256 128.663996,324.088002 129.416,323.704 L130.28,324.04 L130.4,324.688 L129.824,325.552 C130.048001,325.52 130.407998,325.567999 130.904,325.696 C131.272002,324.143992 131.464,322.552008 131.48,320.92 L131.264,320.728 C130.287995,321.096002 129.280005,321.511998 128.24,321.976 L127.328,321.976 L127.28,321.472 C128.048004,321.103998 128.727997,320.720002 129.32,320.32 L131.312,319.6 C131.760002,319.584 132.247997,319.671999 132.776,319.864 L133.136,320.728 C132.687998,323.448014 132.472,326.151987 132.488,328.84 L131.984,329.176 L132.296,329.584 L133.424,329.536 L133.808,329.104 L134.12,328.96 L135.68,329.68 C135.904001,330.080002 135.864002,330.407999 135.56,330.664 C134.343994,330.776001 133.232005,330.744001 132.224,330.568 L132.08,330.688 C131.935999,331.968006 131.832,333.335993 131.768,334.792 C131.848,336.200007 131.864,337.647993 131.816,339.136 C131.928001,339.792003 131.696003,340.423997 131.12,341.032 L130.568,340.672 C130.343999,337.247983 130.28,334.032015 130.376,331.024 C129.767997,331.184001 129.072004,331.256 128.288,331.24 L128.048,331.408 C128.064,332.240004 127.944001,333.135995 127.688,334.096 C127.431999,334.640003 127.032003,335.135998 126.488,335.584 C125.895997,335.760001 125.328003,335.664002 124.784,335.296 L124.688,334.6 C125.120002,334.295998 125.415999,334.199999 125.576,334.312 L126.008,334.048 C126.376002,333.215996 126.504001,332.496003 126.392,331.888 C124.535991,332.448003 122.448012,333.015997 120.128,333.592 L119.072,333.328 L119.072,332.656 C119.360001,332.543999 119.567999,332.432001 119.696,332.32 L120.296,332.224 L120.416,332.416 L120.992,332.272 C122.768009,331.679997 124.543991,331.192002 126.32,330.808 L126.32,330.472 C125.983998,330.231999 125.887999,329.824003 126.032,329.248 C126.528002,329.007999 126.959998,329.039998 127.328,329.344 L127.88,330.424 L130.304,329.92 L130.328,329.896 C129.847998,329.719999 129.735999,329.208004 129.992,328.36 L130.616,328.288 L130.616,326.824 L130.808,326.104 C129.927996,326.712003 129.072004,327.167998 128.24,327.472 L128.024,327.736 C127.543998,328.088002 127.096002,328.048002 126.68,327.616 C126.279998,326.239993 126.12,324.976006 126.2,323.824 C125.799998,323.76 125.376002,323.528002 124.928,323.128 C124.607998,322.951999 124.583999,322.672002 124.856,322.288 L125.528,322.096 C126.056003,322.336001 126.631997,322.472 127.256,322.504 C127.432001,322.776001 127.655999,322.904 127.928,322.888 C128.456003,322.599999 129.119996,322.272002 129.92,321.904 L130.688,322.048 Z M131.816,314.92 C132.152002,314.872 132.471998,314.935999 132.776,315.112 C132.824,315.688003 132.816,316.143998 132.752,316.48 L132.848,316.744 C133.264002,316.76 133.895996,316.640001 134.744,316.384 L135.512,316.552 C135.816002,316.760001 135.928,317.079998 135.848,317.512 C135.047996,318.024003 134.352003,318.399999 133.76,318.64 L133.568,318.88 C133.039997,319.168001 132.536002,319.168001 132.056,318.88 L131.936,318.4 L132.392,318.136 C132.199999,318.088 131.928002,317.968001 131.576,317.776 L131.192,317.08 L130.16,317.896 L129.344,318.736 L129.128,318.928 L127.664,320.44 L126.464,321.16 C125.695996,321.24 125.136002,321.184001 124.784,320.992 L124.112,321.352 L123.8,321.664 C123.303998,321.920001 122.880002,321.832002 122.528,321.4 L122.528,320.824 C122.896002,320.391998 123.287998,320.080001 123.704,319.888 C124.120002,319.423998 124.479998,318.888003 124.784,318.28 C124.623999,318.007999 124.671999,317.672002 124.928,317.272 C125.424002,317.015999 125.895998,317.071998 126.344,317.44 L126.44,318.28 L125.672,319.624 C125.832001,319.816001 126.143998,319.744002 126.608,319.408 L129.368,316.984 L129.584,316.624 C130.144003,316.335999 130.599998,315.992002 130.952,315.592 L131.432,315.328 L131.816,314.92 Z M127.568,325.024 C127.536,325.456002 127.655999,325.799999 127.928,326.056 L128.672,325.072 L127.808,324.952 L127.76,324.88 L127.568,325.024 Z M146.696,318.832 C147.608005,318.976001 148.463996,319.215998 149.264,319.552 C149.568002,320.352004 149.624001,321.015997 149.432,321.544 C148.311994,323.736011 147.288005,325.559993 146.36,327.016 L146.96,327.136 L147.92,327.904 C148.048001,329.184006 148.064,330.055998 147.968,330.52 L148.112,330.376 L148.832,330.232 L149.192,330.64 C148.855998,331.536004 148.536002,332.247997 148.232,332.776 C148.248,333.544004 148.096002,334.399995 147.776,335.344 L147.152,335.992 C146.703998,336.232001 146.328002,336.136002 146.024,335.704 C146.024,334.071992 146.072,332.512007 146.168,331.024 C146.328001,330.319996 146.416,329.640003 146.432,328.984 L146.192,328.624 L145.64,328.264 L145.4,328.264 C145.015998,328.552001 144.712001,328.975997 144.488,329.536 C143.527995,330.496005 142.640004,331.407996 141.824,332.272 L140.648,333.016 L140.168,332.584 L140.912,331.84 C142.240007,330.079991 143.615993,328.21601 145.04,326.248 C146.352007,324.34399 147.215998,322.488009 147.632,320.68 C147.391999,320.519999 146.976003,320.232002 146.384,319.816 C146.223999,319.399998 146.327998,319.072001 146.696,318.832 Z M157.376,329.272 C158.128004,328.743997 158.959995,328.288002 159.872,327.904 C160.752004,327.647999 161.655995,327.671998 162.584,327.976 L163.232,329.2 C163.376001,329.776003 163.320001,330.343997 163.064,330.904 C162.375997,331.560003 161.624004,331.648002 160.808,331.168 L160.688,330.616 L161.648,329.896 L161.648,329.152 L161.24,328.72 L160.448,328.84 C159.887997,329.288002 159.328003,329.567999 158.768,329.68 L158.432,330.016 L157.4,330.664 L157.208,331.192 C157.272,332.392006 157.232001,333.655993 157.088,334.984 L156.656,335.44 L155.624,335.44 C154.615995,334.671996 154.072,333.840004 153.992,332.944 L153.632,333.016 L153.44,333.184 C153.087998,333.248 152.800001,333.343999 152.576,333.472 C152.063997,333.424 151.592002,333.320001 151.16,333.16 C150.599997,332.087995 150.511998,331.008005 150.896,329.92 L151.544,329.32 L152.264,328.984 C152.312,330.168006 152.32,331.095997 152.288,331.768 L152.384,332.056 C152.592001,332.12 152.983997,331.968002 153.56,331.6 C154.136003,331.135998 154.751997,330.728002 155.408,330.376 C155.792002,329.767997 155.896001,328.952005 155.72,327.928 L155.384,327.472 L154.304,327.136 C153.871998,326.591997 153.831998,326.200001 154.184,325.96 C155.128005,325.976 155.999996,326.183998 156.8,326.584 L157.4,327.424 C157.464,328.256004 157.456,328.871998 157.376,329.272 Z M154.304,316.816 C154.912003,317.328003 155.287999,317.887997 155.432,318.496 C155.271999,319.152003 155.16,319.751997 155.096,320.296 L154.904,320.44 C154.631999,321.176004 154.312002,321.911996 153.944,322.648 L153.44,324.496 L153.224,324.76 L153.248,324.784 L153.32,324.808 L153.464,324.64 C154.584006,323.983997 155.775994,323.416002 157.04,322.936 C157.824004,322.807999 158.583996,322.536002 159.32,322.12 C160.008003,321.831999 160.815995,321.815999 161.744,322.072 C161.904001,322.584003 161.832002,322.951999 161.528,323.176 L161.312,323.248 L161.216,323.536 L160.568,323.968 L160.28,324.232 L160.064,324.328 L159.968,324.568 L159.464,324.856 L159.32,325.168 C158.983998,325.280001 158.712001,325.415999 158.504,325.576 C158.087998,325.704001 157.744001,325.544002 157.472,325.096 L157.64,324.904 L158.384,324.28 L158.504,324.04 L159.344,323.416 C158.815997,323.736002 158.224003,323.983999 157.568,324.16 C156.607995,324.624002 155.688004,325.055998 154.808,325.456 L154.328,325.888 C153.895998,325.968 153.512002,326.159998 153.176,326.464 L152.84,326.8 C152.359998,327.376003 151.744004,327.512002 150.992,327.208 C150.976,326.807998 150.936,326.56 150.872,326.464 C151.880005,323.871987 152.855995,321.288013 153.8,318.712 C153.655999,318.359998 153.416002,318.032002 153.08,317.728 C152.759998,317.359998 152.855997,316.984002 153.368,316.6 L154.304,316.816 Z M155.072,332.248 L155.648,333.064 L155.816,331.552 L155.792,331.552 L155.072,332.248 Z M179,323.32 C179.656003,323.095999 180.439995,322.808002 181.352,322.456 C182.200004,322.231999 183.071996,322.191999 183.968,322.336 C184.544003,322.928003 184.88,323.527997 184.976,324.136 C184.976,324.920004 184.936,325.663996 184.856,326.368 L184.4,327.736 C184.159999,329.224007 183.872002,330.695993 183.536,332.152 L183.536,332.68 C183.135998,333.464004 182.744002,334.215996 182.36,334.936 C181.479996,335.608003 180.712003,335.584004 180.056,334.864 L179.168,333.784 C178.559997,332.215992 177.824004,330.672008 176.96,329.152 L177.152,328.504 C177.680003,328.199998 178.175998,328 178.64,327.904 C179.696005,328.080001 180.663996,328.391998 181.544,328.84 L181.808,329.464 L181.52,330.016 L180.632,330.208 C180.039997,329.999999 179.488003,329.792001 178.976,329.584 C178.912,329.648 179.023999,329.919998 179.312,330.4 C179.792002,331.696006 180.359997,332.767996 181.016,333.616 L181.088,333.64 C181.376001,333.191998 181.679998,332.624003 182,331.936 C182.224001,330.191991 182.551998,328.35201 182.984,326.416 C183.048,325.503995 183.064,324.704003 183.032,324.016 C182.791999,323.727999 182.416003,323.663999 181.904,323.824 C181.247997,324.144002 180.616003,324.344 180.008,324.424 L178.28,325.312 L177.608,326.056 C177.111998,326.264001 176.656002,326.232001 176.24,325.96 L176.096,325.336 C177.008005,323.991993 177.847996,322.528008 178.616,320.944 C178.968002,320.095996 179.176,319.464002 179.24,319.048 L178.664,318.592 C178.423999,318.271998 178.431999,317.912002 178.688,317.512 C179.328003,317.416 179.879998,317.511999 180.344,317.8 C180.728002,318.296002 180.904,318.791998 180.872,319.288 L180.488,320.872 C179.815997,321.816005 179.320002,322.631997 179,323.32 Z M172.4,332.416 C172.368,332.448 172.344,332.48 172.328,332.512 L171.92,332.68 L171.728,332.992 L171.296,333.232 L170.816,333.736 C170.479998,333.992001 170.064002,334.024001 169.568,333.832 L169.256,333.424 C169.111999,330.991988 169.04,328.78401 169.04,326.8 L168.296,326.464 C167.607997,326.063998 167.575997,325.552003 168.2,324.928 C168.904004,325.168001 169.607996,325.375999 170.312,325.552 L170.888,326.704 L170.936,327.472 L172.544,327.472 L173.432,327.712 L173.432,327.856 C173.528,326.959996 173.647999,325.968005 173.792,324.88 L173.816,324.856 L173.432,324.976 L173.312,325.096 C172.911998,325.176 172.536002,325.367998 172.184,325.672 C171.879998,325.784001 171.520002,325.696001 171.104,325.408 L171.272,324.736 C172.184005,324.079997 173.191994,323.608001 174.296,323.32 C174.760002,323.24 175.175998,323.415998 175.544,323.848 C175.335999,325.304007 175.232,326.639994 175.232,327.856 L174.992,328.84 C174.831999,330.328007 174.688001,331.879992 174.56,333.496 L174.56,334.696 L174.032,335.464 C173.423997,335.448 173.008001,335.208002 172.784,334.744 C172.511999,334.055997 172.376,333.296004 172.376,332.464 L172.4,332.416 Z M171.344,318.928 C171.936003,318.976 172.551997,319.143999 173.192,319.432 C173.448001,319.848002 173.608,320.271998 173.672,320.704 C173.463999,321.392003 173.160002,321.943998 172.76,322.36 L172.52,322.408 L172.04,323.056 L171.152,323.92 C170.799998,324.176001 170.432002,324.256 170.048,324.16 C169.663998,323.855998 169.615999,323.512002 169.904,323.128 C170.800004,322.247996 171.399998,321.424004 171.704,320.656 L171.104,320.224 C170.751998,319.759998 170.831997,319.328002 171.344,318.928 Z M170.888,328.936 L170.72,329.08 C170.688,329.976004 170.688,330.759997 170.72,331.432 C171.280003,330.439995 171.608,329.592004 171.704,328.888 L171.368,328.888 L171.32,328.84 L170.888,328.936 Z M172.808,331.816 C172.904,331.784 173.031999,331.776 173.192,331.792 C173.208,331.551999 173.24,331.216002 173.288,330.784 C173.192,331.088002 173.032001,331.431998 172.808,331.816 Z M203.696,329.632 C201.967991,330.480004 200.304008,331.255996 198.704,331.96 C198.367998,332.152001 198.040002,332.120001 197.72,331.864 L197.624,331.072 C198.408004,329.711993 198.959998,328.368007 199.28,327.04 L199.064,327.28 C198.215996,327.632002 197.392004,327.927999 196.592,328.168 C196.063997,328.312001 195.528003,328.280001 194.984,328.072 C194.567998,327.623998 194.607998,327.232002 195.104,326.896 C196.800008,325.615994 198.543991,324.352006 200.336,323.104 C200.480001,322.767998 200.536,322.576 200.504,322.528 C199.511995,322.992002 198.400006,323.463998 197.168,323.944 C196.095995,324.360002 194.976006,324.528 193.808,324.448 C193.375998,324.287999 193.239999,323.960002 193.4,323.464 C193.704002,323.335999 193.967999,323.272 194.192,323.272 L194.72,322.912 C194.736,323.136001 194.76,323.272 194.792,323.32 C195.112002,323.352 195.655996,323.280001 196.424,323.104 C197.912007,322.511997 199.375993,321.920003 200.816,321.328 C200.944001,320.463996 201,319.536005 200.984,318.544 L200.84,318.28 C200.744,318.36 200.504002,318.336001 200.12,318.208 L200.096,317.752 L200.888,317.152 L201.848,317.224 C202.328002,317.784003 202.56,318.399997 202.544,319.072 L202.4,320.704 C203.024003,320.511999 203.919994,320.272001 205.088,319.984 L205.664,320.416 L205.664,320.992 C204.367994,321.792004 203.160006,322.503997 202.04,323.128 C201.623998,323.752003 201.392,324.407997 201.344,325.096 L203.12,324.352 C203.104,324.304 202.912002,323.952003 202.544,323.296 C203.456005,323.440001 204.095998,323.552 204.464,323.632 C204.992003,323.327998 205.623996,323.351998 206.36,323.704 L206.456,324.208 C205.687996,324.672002 205.024003,324.912 204.464,324.928 C203.279994,325.392002 202.176005,325.887997 201.152,326.416 C200.751998,327.616006 200.320002,328.775994 199.856,329.896 L199.856,329.92 C201.216007,329.423998 202.767991,328.760004 204.512,327.928 L205.976,327.616 L206.48,328.384 L205.304,330.088 L204.728,330.52 L204.152,331.264 L202.592,332.656 C202.223998,332.816001 201.864002,332.760001 201.512,332.488 L201.536,332.08 L201.824,331.792 L203.696,329.632 Z M198.296,333.064 C198.792002,333.08 199.247998,333.191999 199.664,333.4 L201.296,334.792 L202.304,335.992 L202.304,336.808 C201.919998,337.256002 201.512002,337.408001 201.08,337.264 C200.199996,336.127994 199.256005,335.064005 198.248,334.072 C197.879998,333.751998 197.895998,333.416002 198.296,333.064 Z M199.976,324.52 C199.96,324.536 199.832001,324.607999 199.592,324.736 L199.4,324.976 C198.919998,325.200001 198.528002,325.447999 198.224,325.72 L197.744,325.792 L197.24,326.464 L196.664,326.776 L196.616,326.872 L196.808,326.848 L199.64,325.912 C199.848001,325.399997 199.96,324.936002 199.976,324.52 Z M202.688,321.592 C202.431999,321.544 202.216001,321.623999 202.04,321.832 L202.04,322.192 L202.688,321.592 Z M220.712,316.312 L220.856,315.712 L221.336,315.4 L223.016,315.208 C223.944005,315.304 224.823996,315.471999 225.656,315.712 C226.120002,315.984001 226.184002,316.319998 225.848,316.72 C224.903995,317.312003 223.832006,317.496001 222.632,317.272 L222.536,316.696 L222.8,316.456 L220.712,316.312 Z M229.136,317.656 C228.319996,317.896001 227.408005,318.135999 226.4,318.376 C223.663986,319.416005 220.952013,320.407995 218.264,321.352 C217.431996,321.608001 216.616004,321.536002 215.816,321.136 L215.864,320.536 C217.064006,320.584 218.071996,320.408002 218.888,320.008 C222.504018,318.567993 226.183981,317.336005 229.928,316.312 C230.504003,316.296 231.055997,316.455998 231.584,316.792 C231.648,317.256002 231.584001,317.639998 231.392,317.944 C230.655996,318.520003 229.784005,318.856 228.776,318.952 C228.279998,318.679999 228.215998,318.368002 228.584,318.016 L229.136,317.656 Z M226.064,323.632 C226.240001,323.68 226.471999,323.791999 226.76,323.968 L226.736,324.616 L225.728,325.6 C224.623994,326.416004 223.496006,327.199996 222.344,327.952 L222.032,328.024 L221.792,328.312 C223.104007,327.687997 224.543992,327.032003 226.112,326.344 L227.48,326.512 C227.832002,326.896002 227.920001,327.311998 227.744,327.76 C227.199997,328.640004 226.696002,329.343997 226.232,329.872 L226.808,330.592 C227.784005,330.351999 228.887994,330.152001 230.12,329.992 L230.768,330.328 C230.960001,330.824002 230.888002,331.239998 230.552,331.576 C229.911997,331.720001 229.432002,331.624002 229.112,331.288 C228.407996,331.416001 227.736003,331.535999 227.096,331.648 C227.240001,333.136007 227.120002,334.727992 226.736,336.424 C226.399998,337.400005 225.896003,338.303996 225.224,339.136 L223.736,339.16 C223.239998,339.031999 222.728003,338.744002 222.2,338.296 L222.2,337.72 L222.632,337.504 C223.288003,337.808002 223.783998,337.944 224.12,337.912 C224.648003,337.223997 225.047999,336.384005 225.32,335.392 C225.480001,334.223994 225.56,333.160005 225.56,332.2 C224.791996,332.440001 223.832006,332.623999 222.68,332.752 L222.464,332.992 C221.295994,333.312002 220.264004,333.623998 219.368,333.928 C218.663996,334.264002 218.008003,334.160003 217.4,333.616 L217.784,333.208 C220.264012,332.455996 222.711988,331.768003 225.128,331.144 L225.128,331.024 L224.792,330.712 L224,330.64 L223.52,330.16 L223.952,329.728 C224.320002,329.664 224.615999,329.536001 224.84,329.344 L226.016,327.712 C225.343997,327.904001 224.648004,328.175998 223.928,328.528 C222.887995,329.232004 221.888005,329.783998 220.928,330.184 C220.223996,330.536002 219.560003,330.520002 218.936,330.136 L218.84,329.296 C220.040006,328.191994 221.295993,327.272004 222.608,326.536 L223.208,325.936 L223.16,325.888 L221.624,325.816 C221.351999,324.983996 221.120001,324.104005 220.928,323.176 C220.735999,322.823998 220.751999,322.384003 220.976,321.856 L221.816,321.592 L222.272,322.264 L225.152,321.016 L226.664,320.704 L227.624,320.776 L228.128,321.256 L228.008,322.12 L226.064,323.632 Z M225.272,322.36 C224.775998,322.584001 224.248003,322.783999 223.688,322.96 L223.568,323.056 L222.8,323.416 C222.72,323.768002 222.887998,324.087999 223.304,324.376 L225.272,322.36 Z M250.856,317.56 C251.288002,318.216003 251.528,318.943996 251.576,319.744 L251.336,321.496 C251.031998,322.248004 250.784001,322.967997 250.592,323.656 L250.592,323.704 C250.896002,323.591999 251.391997,323.288002 252.08,322.792 C252.864004,322.455998 253.703996,322.431999 254.6,322.72 L254.6,323.512 C253.879996,323.688001 253.320002,323.808 252.92,323.872 C251.783994,324.304002 250.808004,324.823997 249.992,325.432 C249.367997,326.856007 248.712003,328.295993 248.024,329.752 C247.495997,330.808005 246.904003,331.727996 246.248,332.512 L246.128,332.56 L245.864,332.992 C245.575999,333.376002 245.152003,333.552 244.592,333.52 L244.4,333.088 C245.024003,332.047995 245.655997,331.104004 246.296,330.256 C246.904003,328.879993 247.487997,327.592006 248.048,326.392 L246.152,327.4 C245.543997,327.704002 244.936003,327.680002 244.328,327.328 L244.328,326.656 C245.224004,326.576 245.975997,326.336002 246.584,325.936 L248.528,324.856 C249.232004,323.239992 249.735998,321.536009 250.04,319.744 C249.799999,319.071997 249.496002,318.240005 249.128,317.248 L249.656,316.912 L250.04,316.912 L250.856,317.56 Z M255.704,318.328 C256.408004,318.600001 257.071997,318.807999 257.696,318.952 C257.984001,319.880005 257.864003,320.687997 257.336,321.376 C256.935998,321.824002 256.408003,322.024 255.752,321.976 L255.248,321.496 C255.856003,320.855997 256.184,320.432001 256.232,320.224 L256.04,319.96 L255.68,319.84 C255.311998,319.647999 255.152,319.256003 255.2,318.664 L255.704,318.328 Z M242.576,331.72 C242.880002,330.951996 243.183998,330.192004 243.488,329.44 C243.744001,329.103998 243.975999,328.736002 244.184,328.336 L244.88,328.36 L244.952,329.08 C244.455998,330.136005 244.136001,331.135995 243.992,332.08 L243.68,332.632 L243.632,333.064 C243.295998,333.928004 242.928002,334.855995 242.528,335.848 C242.127998,336.136001 241.664003,336.216001 241.136,336.088 C240.831998,333.655988 240.887998,331.288012 241.304,328.984 L241.16,328.768 L240.176,328.456 L239.72,329.008 L238.28,330.424 C237.911998,330.728002 237.512002,330.704002 237.08,330.352 L236.912,329.68 C237.408002,329.535999 237.783999,329.312002 238.04,329.008 C239.800009,327.151991 241.375993,325.072012 242.768,322.768 C243.104002,321.951996 243.375999,321.128004 243.584,320.296 C243.455999,320.103999 243.288001,319.888001 243.08,319.648 L242.384,319.408 L242.288,318.808 L242.792,318.4 L243.872,318.496 L245.168,319.384 C245.264,320.424005 245.144002,321.335996 244.808,322.12 C244.247997,323.080005 243.744002,323.991996 243.296,324.856 C242.303995,325.896005 241.624002,326.743997 241.256,327.4 L242.048,327.664 L242.792,328.312 C242.776,329.592006 242.704001,330.727995 242.576,331.72 Z M250.736,327.856 C251.136002,328.336002 251.407999,328.839997 251.552,329.368 C251.263999,331.240009 251.239999,332.847993 251.48,334.192 C252.200004,334.544002 252.975996,334.664001 253.808,334.552 C254.672004,334.423999 255.543996,334.344 256.424,334.312 C256.680001,334.216 256.816,334.16 256.832,334.144 C256.832,333.167995 256.816,332.000007 256.784,330.64 L257.168,330.208 L257.6,330.496 C258.016002,331.792006 258.359999,333.079994 258.632,334.36 L258.248,335.176 C256.551992,335.768003 254.944008,336.04 253.424,335.992 C252.367995,336.008 251.352005,335.824002 250.376,335.44 C250.007998,334.895997 249.808,334.344003 249.776,333.784 L249.776,332.632 C249.952001,331.655995 250.064,330.688005 250.112,329.728 C249.615998,329.231998 249.535998,328.568004 249.872,327.736 L250.736,327.856 Z M268.4,323.56 C269.168004,323.303999 269.799998,323.048001 270.296,322.792 C270.424001,322.615999 270.456,322.496 270.392,322.432 C269.911998,322.560001 269.432002,322.775998 268.952,323.08 L268.232,323.152 L268.04,322.792 C268.616003,322.247997 269.231997,321.864001 269.888,321.64 L270.536,321.088 C270.536,320.719998 270.504,320.456001 270.44,320.296 C270.087998,320.552001 269.480004,320.767999 268.616,320.944 C268.263998,321.056001 267.880002,320.984001 267.464,320.728 L267.464,320.2 C268.648006,319.863998 269.711995,319.400003 270.656,318.808 C270.736,318.487998 270.720001,317.992003 270.608,317.32 L269.816,316.648 C269.415998,316.455999 269.375998,316.136002 269.696,315.688 L270.416,315.664 L271.592,316.312 L272.096,316.864 C272,317.568004 272.023999,318.015999 272.168,318.208 C272.536002,317.983999 273.103996,317.88 273.872,317.896 L274.184,318.256 L274.184,318.832 C273.351996,319.424003 272.688002,319.68 272.192,319.6 C272.063999,319.904002 272.016,320.151999 272.048,320.344 C272.672003,320.135999 273.543994,319.832002 274.664,319.432 C275.240003,319.303999 275.799997,319.431998 276.344,319.816 L276.368,320.704 C275.759997,321.968006 275.064004,323.103995 274.28,324.112 C273.671997,324.784003 273.056003,325.032001 272.432,324.856 L271.976,325.288 C271.88,325.928003 271.84,326.431998 271.856,326.8 C271.872,326.784 272.335995,326.544002 273.248,326.08 L273.92,325.84 C273.872,325.776 273.872,325.536002 273.92,325.12 C274.928005,325.12 275.807996,325.415997 276.56,326.008 C277.328004,326.584003 277.336004,327.215997 276.584,327.904 L275.36,328.24 C274.623996,328.480001 273.920003,328.424002 273.248,328.072 L273.176,327.64 C273.864003,327.431999 274.495997,327.296 275.072,327.232 L275.48,326.968 L275.048,326.656 L274.784,327.256 L274.52,326.944 C274.247999,326.992 274.064,326.984 273.968,326.92 L273.752,327.088 C272.167992,327.840004 270.568008,328.703995 268.952,329.68 C268.183996,329.984002 267.400004,330.311998 266.6,330.664 C265.863996,330.904001 265.200003,330.808002 264.608,330.376 L264.608,329.848 L266.288,329.584 C267.824008,328.943997 269.231994,328.304003 270.512,327.664 L270.2,327.472 C270.023999,327.103998 270.071999,326.808001 270.344,326.584 L270.392,326.08 C270.039998,326.352001 269.608003,326.44 269.096,326.344 C269.112,326.680002 268.960002,327.135997 268.64,327.712 C268.143998,327.920001 267.728002,327.896001 267.392,327.64 C267.231999,326.967997 267.279999,326.296003 267.536,325.624 C267.423999,325.047997 267.248001,324.536002 267.008,324.088 C266.559998,323.943999 266.088002,323.688002 265.592,323.32 L265.616,322.648 C266.320004,322.535999 266.967997,322.575999 267.56,322.768 C267.896002,323.104002 268.175999,323.447998 268.4,323.8 L268.4,323.56 Z M276.296,332.128 C276.952003,333.136005 277.583997,334.071996 278.192,334.936 L278.936,335.392 L279.296,336.064 L279.032,336.616 C278.183996,336.920002 277.352004,337.151999 276.536,337.312 L273.488,337.36 C273.103998,337.199999 272.704002,337.12 272.288,337.12 C271.359995,336.815998 270.512004,336.408003 269.744,335.896 C269.199997,335.239997 268.624003,334.560004 268.016,333.856 C267.711998,333.375998 267.815997,332.992001 268.328,332.704 L269.24,332.824 L270.44,334.144 L270.608,334.144 L270.848,334.48 C271.520003,335.056003 272.351995,335.447999 273.344,335.656 C274.640006,335.976002 275.903994,336.000001 277.136,335.728 L277.16,335.728 C276.679998,335.055997 276.240002,334.288004 275.84,333.424 L275.744,333.088 L274.88,332.152 L274.88,331.504 L275.336,331.504 L276.296,332.128 Z M272.96,330.088 L273.56,330.592 C274.616005,330.223998 275.743994,329.832002 276.944,329.416 C277.360002,329.48 277.791998,329.440001 278.24,329.296 L278.432,329.44 C278.992003,329.52 279.607997,329.783998 280.28,330.232 L280.424,331.048 C279.975998,331.240001 279.536002,331.423999 279.104,331.6 L278.192,331.216 L278.144,330.64 L277.568,330.544 C277.023997,330.704001 276.472003,330.8 275.912,330.832 L275.648,331.144 L274.232,331.768 C273.447996,331.912001 272.808002,331.824002 272.312,331.504 C271.527996,331.103998 271.128,330.408005 271.112,329.416 L271.736,329.104 L272.288,329.272 L272.96,330.088 Z M266.336,334 L267.152,334.072 L267.176,334.816 L266.768,335.104 C266.575999,335.712003 266.192003,336.431996 265.616,337.264 L265.448,337.048 C265.223999,337.336001 264.904002,337.312002 264.488,336.976 C264.071998,335.967995 263.999999,334.960005 264.272,333.952 L265.376,332.824 C265.472,333.448003 265.544,334.023997 265.592,334.552 L266.336,334 Z M268.616,324.232 C268.792001,324.584002 268.904,324.951998 268.952,325.336 C269.432002,325.432 269.943997,325.216003 270.488,324.688 C270.488,324.399999 270.464,324.168001 270.416,323.992 C270.063998,324.136001 269.600003,324.271999 269.024,324.4 L268.616,324.232 Z M272.936,323.152 C272.551998,323.104 272.192002,323.12 271.856,323.2 C271.615999,323.488001 271.639999,323.775999 271.928,324.064 L272.816,323.392 L272.936,323.152 Z M274.496,320.776 C273.727996,320.904001 272.936004,321.215998 272.12,321.712 L272.096,321.952 C272.304001,321.807999 272.855996,321.512002 273.752,321.064 C274.024001,321.400002 274.223999,321.472001 274.352,321.28 L274.496,320.776 Z" id="计算你的专享优惠" fill="#4F4F4F"></path>
    </g>
</svg>