<?xml version="1.0" encoding="utf-8"?>
<!-- Generator: Adobe Illustrator 20.1.0, SVG Export Plug-In . SVG Version: 6.00 Build 0)  -->
<svg version="1.1" id="图层_2" xmlns="http://www.w3.org/2000/svg" xmlns:xlink="http://www.w3.org/1999/xlink" x="0px" y="0px"
	 viewBox="0 0 211.8 26" style="enable-background:new 0 0 211.8 26;" xml:space="preserve">
<title>画板 1</title>
<path d="M9.1,6.4h14.7c0-0.6-0.5-1.1-1.1-1.1H10.3C9.6,5.3,9.1,5.7,9.1,6.4C9.1,6.4,9.1,6.4,9.1,6.4z M23.8,9.8H9.1v3.3l-1.8,1v0.4
	l4.1-2.2c1.7-0.9,3.6-1.7,4.5-0.5s-0.1,2.4-1.3,3.6h8.1c0.6,0,1.1-0.5,1.1-1.1V9.8z M12,17.7c-1.8,1.7-2.6,3.4-6.8,3.4H0.1V10.6
	L4.2,7c1.2-1,2-1.7,3-1.7C7.6,3.9,8.8,3,10.3,3h12.4c1.9,0,3.4,1.5,3.4,3.3c0,0,0,0,0,0.1v7.9c0,1.9-1.5,3.4-3.3,3.4c0,0,0,0-0.1,0
	H12z"/>
<g id="同享">
	<path d="M56.1,13c0-6.6-5.4-12-12-12s-12,5.4-12,12s5.4,12,12,12S56.1,19.6,56.1,13z M34.1,13c0-5.5,4.5-10,10-10s10,4.5,10,10
		s-4.5,10-10,10C38.5,23,34.1,18.5,34.1,13C34.1,13,34.1,13,34.1,13z M43.1,5h2v11h-2V5z M43.1,18h2v2h-2V18z"/>
</g>
<g id="门店">
	<path id="门店-" d="M69.8,10.5c0-1.1,0.8-1.9,1.9-2c1.1,0,1.9,0.9,1.9,1.9c0,0,0,0,0,0.1c0,1-0.8,1.9-1.9,1.9
		C70.6,12.4,69.8,11.6,69.8,10.5C69.8,10.5,69.8,10.5,69.8,10.5z M64.1,10.5c0-1.1,0.8-1.9,1.9-2c1.1,0,1.9,0.9,1.9,1.9
		c0,0,0,0,0,0.1c0,1-0.8,1.9-1.9,1.9C64.9,12.4,64.1,11.6,64.1,10.5C64.1,10.5,64.1,10.5,64.1,10.5z M75.6,10.5c0-1.1,0.8-1.9,1.9-2
		c1.1,0,1.9,0.9,1.9,1.9c0,0,0,0,0,0.1c0,1.1-0.8,1.9-1.9,2C76.4,12.5,75.5,11.6,75.6,10.5C75.6,10.5,75.6,10.5,75.6,10.5z
		 M81.3,10.5c0-1.1,0.8-1.9,1.9-2c1.1,0,1.9,0.9,1.9,1.9c0,0,0,0,0,0.1c0,1.1-0.8,1.9-1.9,2C82.1,12.5,81.2,11.6,81.3,10.5
		C81.3,10.5,81.3,10.5,81.3,10.5z M82.1,2L84,3.5H65L66.9,2L65,10.3h-0.4l-1.3-1.6l0.1-0.4l11,0.3h-0.1l11.2-0.3l0.1,0.4l-1.3,1.6
		h-0.4L82.1,2z M86.1,10.2l-11.6,0.3l-11.4-0.3l2-8.7h19L86.1,10.2z M82.1,20.5l1-1h-17l1,1v-6h-2v7h19v-7h-2V20.5z M84.6,24.5h1v-2
		h-22v2H84.6z"/>
</g>
<path d="M105.9,25.2c-6.6,0-12-5.4-12-12c0-4.3,2.4-8.3,6.1-10.5l2.4-1.4l-1,2.6c-0.4,1-0.6,2.2-0.5,3.3c0,0.1,0,0.3,0,0.4
	c2.7-2,6.5-1.7,8.8,0.7l0,0c0.4,0.4,0.7,0.8,1,1.3c0.6,0.9,0.9,1.9,1,3c0,0.2,0,0.3,0,0.5c0,1.5-0.4,2.9-1.3,4.1
	c1.9,0.1,3.7-0.3,5.4-1.2l2.3-1.3l-0.9,2.5C115.5,22,111,25.2,105.9,25.2z M99.1,9.3c-0.1-0.7-0.2-1.4-0.2-2.1c0-0.4,0-0.8,0.1-1.2
	c-4,3.8-4.1,10.2-0.3,14.1s10.2,4.1,14.1,0.3c0.5-0.5,1-1.1,1.4-1.7c-6.4,1.8-13.1-1.9-14.9-8.3c0-0.2-0.1-0.3-0.1-0.5L99.1,9.3z
	 M101.3,10c1,3.3,3.5,5.8,6.7,6.8l0.3-0.3c1-1,1.5-2.3,1.5-3.7c-0.1-0.8-0.4-1.6-0.8-2.3c-0.2-0.3-0.4-0.6-0.7-0.8l0,0
	c-0.2-0.2-0.5-0.4-0.8-0.6c-0.5-0.3-1.1-0.6-1.7-0.7c-1.5-0.2-3.1,0.3-4.2,1.4L101.3,10z M117.1,11.9h-2.6c-0.8-0.1-1.4-0.8-1.4-1.6
	c0-0.8,0.6-1.5,1.4-1.6h2.6c0.8,0.1,1.4,0.8,1.4,1.6C118.5,11.2,117.9,11.9,117.1,11.9z M112.4,8.1L112.4,8.1
	c-0.5,0-0.9-0.2-1.2-0.5c-0.6-0.6-0.5-1.6,0.1-2.2l2.6-2.2c0.7-0.6,1.7-0.5,2.2,0.2c0.5,0.6,0.5,1.6-0.1,2.2l0,0l-2.5,2.2
	C113.1,8,112.8,8.2,112.4,8.1z M112,6.3L112,6.3L112,6.3z M115.2,4.6L115.2,4.6z M108.2,5.6c-0.1,0-0.3,0-0.4-0.1
	c-0.4-0.1-0.7-0.3-0.9-0.6c-0.3-0.4-0.3-0.9-0.1-1.3l1.1-2.3c0.3-0.7,1.1-1.1,1.8-0.9c0.4,0.1,0.7,0.3,0.9,0.6
	c0.2,0.4,0.3,0.9,0.1,1.3l-1.1,2.3C109.4,5.3,108.8,5.7,108.2,5.6L108.2,5.6z M108.6,4.5L108.6,4.5z"/>
<path d="M149.5,12.5c0-6.6-5.4-12-12-12s-12,5.4-12,12s5.4,12,12,12S149.5,19.1,149.5,12.5z M127.5,12.5c0-5.5,4.5-10,10-10
	s10,4.5,10,10s-4.5,10-10,10S127.5,18,127.5,12.5z M135.5,4.5h2v10h-2V4.5z M143.5,12.5v2h-6v-2H143.5z"/>
<path d="M168.9,25h-5v-9h-8V4h8V1h5v3h5.6l5.8,6l-5.8,6h-5.6V25z M165.9,23h1v-7h-1V23z M168.9,14h4.8l3.8-4l-3.8-4h-15.8v8H168.9z
	 M165.9,4h1V3h-1V4z"/>
<path d="M205.7,24.4c-1.1,0-2.1-0.4-2.9-1.2l-3.7-3.7l-3.7,3.7c-0.7,0.7-1.7,1.2-2.7,1.2c-1.1,0-2.1-0.4-2.9-1.2l-1-1
	c-0.7-0.7-1.2-1.7-1.2-2.7c0-1.1,0.4-2.2,1.2-2.9l3.7-3.7l-3.7-3.7c-0.7-0.7-1.2-1.7-1.2-2.7c0-1.1,0.4-2.2,1.2-2.9l1-1
	c0.7-0.7,1.7-1.2,2.7-1.2c1.1,0,2.2,0.4,2.9,1.2l3.8,3.7l3.6-3.7c0.7-0.8,1.7-1.2,2.7-1.2c1.1,0,2.2,0.4,2.9,1.2l1,1
	c0.7,0.7,1.2,1.7,1.2,2.7c0,1.1-0.4,2.2-1.2,2.9l-3.7,3.7l3.7,3.7c0.7,0.7,1.2,1.7,1.2,2.7c0,1.1-0.4,2.2-1.2,2.9l-1,1
	C207.8,24,206.8,24.4,205.7,24.4L205.7,24.4z M199.2,16.7l5.1,5.1c0.4,0.4,0.9,0.6,1.5,0.6c0.5,0,1-0.2,1.3-0.6l1-1
	c0.4-0.4,0.6-0.9,0.6-1.5c0-0.5-0.2-1-0.6-1.3l-5.1-5.2l5.1-5.1c0.4-0.4,0.6-0.9,0.6-1.5c0-0.5-0.2-1-0.6-1.3l-1-1
	c-0.4-0.4-0.9-0.6-1.5-0.6c-0.5,0-1,0.2-1.3,0.6l-5,5.1L194.1,4c-0.4-0.4-0.9-0.6-1.5-0.6c-0.5,0-1,0.2-1.3,0.6l-1,1
	c-0.4,0.4-0.6,0.9-0.6,1.5c0,0.5,0.2,1,0.6,1.3l5.1,5.1l-5.2,5.1c-0.4,0.4-0.6,0.9-0.6,1.5c0,0.5,0.2,1,0.6,1.3l1,1
	c0.4,0.4,0.9,0.6,1.5,0.6c0.5,0,1-0.2,1.3-0.6L199.2,16.7z"/>
</svg>
