<?xml version="1.0" encoding="UTF-8"?>
<svg width="63px" height="20px" viewBox="0 0 63 20" version="1.1" xmlns="http://www.w3.org/2000/svg" xmlns:xlink="http://www.w3.org/1999/xlink">
    <!-- Generator: Sketch 49 (51002) - http://www.bohemiancoding.com/sketch -->
    <title>推荐活动icon</title>
    <desc>Created with Sketch.</desc>
    <defs></defs>
    <g id="页面插入其他活动广告-V1.0" stroke="none" stroke-width="1" fill="none" fill-rule="evenodd">
        <g id="2.-在线砍价插入活动广告" transform="translate(-312.000000, -56.000000)">
            <g id="ads" transform="translate(0.000000, 56.921875)">
                <g id="推荐活动icon" transform="translate(312.000000, 0.000000)">
                    <path d="M0,0 L63,0 L63,19 L19,19 C8.50658975,19 1.28507213e-15,10.4934102 0,2.32682892e-15 Z" id="Rectangle-18" fill-opacity="0.8" fill="#000000"></path>
                    <path d="M20.3442856,10.04 L20.3442856,11.39 L22.0242856,11.39 L22.0242856,10.04 L20.3442856,10.04 Z M22.0242856,7.39 L22.0242856,6.1 L20.3442856,6.1 L20.3442856,7.39 L22.0242856,7.39 Z M22.0242856,9.37 L22.0242856,8.06 L20.3442856,8.06 L20.3442856,9.37 L22.0242856,9.37 Z M24.8242856,11.39 L24.8242856,12.07 L20.3442856,12.07 L20.3442856,12.77 L19.6242856,12.77 L19.6242856,6.93 C19.3742856,7.35 19.0942856,7.73 18.8142856,8.06 L18.7842856,8.02 L18.8842856,8.66 L17.7442856,9.03 L17.7442856,11.85 C17.7442856,12.28 17.6442856,12.48 17.3942856,12.61 C17.1542856,12.73 16.7742856,12.76 16.1342856,12.75 C16.1142856,12.55 16.0142856,12.24 15.9142856,12.03 C16.3442856,12.04 16.7342856,12.04 16.8442856,12.03 C16.9742856,12.03 17.0242856,12 17.0242856,11.85 L17.0242856,9.26 L15.8542856,9.65 L15.6642856,8.93 C16.0442856,8.82 16.5142856,8.69 17.0242856,8.52 L17.0242856,6.31 L15.7542856,6.31 L15.7542856,5.62 L17.0242856,5.62 L17.0242856,3.64 L17.7442856,3.64 L17.7442856,5.62 L18.8642856,5.62 L18.8642856,6.31 L17.7442856,6.31 L17.7442856,8.3 L18.7442856,7.99 C18.6142856,7.84 18.3942856,7.63 18.2642856,7.53 C19.1342856,6.6 19.8842856,5.16 20.3342856,3.69 L21.0342856,3.87 C20.8642856,4.39 20.6542856,4.91 20.4342856,5.41 L22.4042856,5.41 C22.2842856,5.01 21.9842856,4.4 21.7142856,3.96 L22.3542856,3.71 C22.6542856,4.17 22.9642856,4.76 23.0842856,5.16 L22.5042856,5.41 L24.6242856,5.41 L24.6242856,6.1 L22.7242856,6.1 L22.7242856,7.39 L24.4642856,7.39 L24.4642856,8.06 L22.7242856,8.06 L22.7242856,9.37 L24.4542856,9.37 L24.4542856,10.04 L22.7242856,10.04 L22.7242856,11.39 L24.8242856,11.39 Z M28.4971428,5.9 L28.4971428,5.08 L26.2171428,5.08 L26.2171428,4.41 L28.4971428,4.41 L28.4971428,3.65 L29.2171428,3.65 L29.2171428,4.41 L32.0871428,4.41 L32.0871428,3.65 L32.8071428,3.65 L32.8071428,4.41 L35.0871428,4.41 L35.0871428,5.08 L32.8071428,5.08 L32.8071428,5.9 L32.0871428,5.9 L32.0871428,5.08 L29.2171428,5.08 L29.2171428,5.9 L28.4971428,5.9 Z M34.9971428,7.05 L29.4671428,7.05 C29.1471428,7.61 28.7771428,8.14 28.3771428,8.62 L28.3771428,12.77 L27.6771428,12.77 L27.6771428,9.35 C27.2971428,9.72 26.9071428,10.06 26.4771428,10.34 C26.3871428,10.2 26.1271428,9.89 25.9671428,9.75 C27.0271428,9.1 27.9471428,8.17 28.6471428,7.05 L26.2971428,7.05 L26.2971428,6.38 L29.0371428,6.38 C29.1971428,6.08 29.3471428,5.77 29.4671428,5.45 L30.1771428,5.64 C30.0671428,5.89 29.9571428,6.14 29.8371428,6.38 L34.9971428,6.38 L34.9971428,7.05 Z M35.1271428,9.87 L35.1271428,10.52 L32.5071428,10.52 L32.5071428,11.97 C32.5071428,12.36 32.4271428,12.53 32.1371428,12.64 C31.8371428,12.75 31.3771428,12.75 30.6471428,12.75 C30.6071428,12.55 30.4971428,12.3 30.3971428,12.12 C30.9571428,12.14 31.4671428,12.13 31.5971428,12.12 C31.7471428,12.11 31.7971428,12.08 31.7971428,11.96 L31.7971428,10.52 L29.0571428,10.52 L29.0571428,9.87 L31.7971428,9.87 L31.7971428,9.21 C32.2171428,9.02 32.6871428,8.75 33.0771428,8.48 L29.8171428,8.48 L29.8171428,7.88 L33.8071428,7.88 L33.9471428,7.84 L34.3971428,8.19 C33.8971428,8.66 33.1771428,9.13 32.5071428,9.46 L32.5071428,9.87 L35.1271428,9.87 Z M39.22,4.79 L38.79,5.39 C38.38,5.1 37.55,4.62 36.94,4.29 L37.35,3.76 C37.96,4.05 38.8,4.51 39.22,4.79 Z M38.71,7.49 L38.29,8.1 C37.88,7.82 37.06,7.34 36.45,7.02 L36.86,6.48 C37.44,6.77 38.27,7.21 38.71,7.49 Z M37.31,12.63 L36.69,12.13 C37.23,11.38 38,10.06 38.58,8.93 L39.12,9.42 C38.6,10.47 37.9,11.71 37.31,12.63 Z M44.17,11.65 L44.17,9.59 L40.61,9.59 L40.61,11.65 L44.17,11.65 Z M45.53,7.26 L42.79,7.26 L42.79,8.9 L44.88,8.9 L44.88,12.71 L44.17,12.71 L44.17,12.34 L40.61,12.34 L40.61,12.76 L39.93,12.76 L39.93,8.9 L42.08,8.9 L42.08,7.26 L39.2,7.26 L39.2,6.54 L42.08,6.54 L42.08,4.92 C41.35,5.03 40.59,5.12 39.88,5.19 C39.85,5.01 39.75,4.73 39.68,4.56 C41.4,4.38 43.41,4.07 44.52,3.67 L45.11,4.25 C44.46,4.47 43.65,4.66 42.79,4.81 L42.79,6.54 L45.53,6.54 L45.53,7.26 Z M51.1128572,4.45 L51.1128572,5.12 L47.2728572,5.12 L47.2728572,4.45 L51.1128572,4.45 Z M51.4628572,11.12 L50.8028572,11.33 C50.7528572,11.15 50.6928572,10.92 50.6228572,10.68 C47.8628572,11.29 47.5028572,11.4 47.2728572,11.54 L47.2728572,11.5 C47.2628572,11.51 47.2628572,11.52 47.2628572,11.53 C47.2328572,11.38 47.1128572,11.03 47.0328572,10.84 C47.1928572,10.8 47.3228572,10.53 47.4828572,10.16 C47.6228572,9.83 48.0428572,8.66 48.2928572,7.5 L46.9128572,7.5 L46.9128572,6.82 L51.2828572,6.82 L51.2828572,7.5 L49.0628572,7.5 C48.8028572,8.55 48.4328572,9.65 48.0428572,10.55 L50.4128572,10.05 C50.2328572,9.54 50.0328572,9 49.8328572,8.53 L50.4428572,8.36 C50.8328572,9.25 51.2728572,10.42 51.4628572,11.12 Z M53.5628572,5.93 L55.7628572,5.93 C55.7628572,5.93 55.7528572,6.2 55.7528572,6.3 C55.6228572,10.39 55.5028572,11.8 55.1628572,12.24 C54.9528572,12.5 54.7628572,12.58 54.4428572,12.62 C54.1328572,12.65 53.5928572,12.64 53.0628572,12.61 C53.0428572,12.39 52.9628572,12.09 52.8328572,11.88 C53.3928572,11.93 53.9128572,11.93 54.1328572,11.93 C54.3028572,11.94 54.4128572,11.91 54.5128572,11.78 C54.7728572,11.49 54.9128572,10.18 55.0228572,6.64 L53.5328572,6.64 C53.3928572,9.1 52.9728572,11.36 51.5128572,12.76 C51.3828572,12.58 51.1228572,12.33 50.9328572,12.22 C52.2828572,10.98 52.6828572,8.91 52.8028572,6.64 L51.4128572,6.64 L51.4128572,5.93 L52.8328572,5.93 C52.8628572,5.23 52.8628572,4.51 52.8628572,3.8 L53.5928572,3.8 C53.5928572,4.51 53.5828572,5.23 53.5628572,5.93 Z" id="推荐活动" fill="#FFFFFF"></path>
                </g>
            </g>
        </g>
    </g>
</svg>