<?xml version="1.0" encoding="UTF-8"?>
<svg width="109px" height="20px" viewBox="0 0 109 20" version="1.1" xmlns="http://www.w3.org/2000/svg" xmlns:xlink="http://www.w3.org/1999/xlink">
    <!-- Generator: Sketch 42 (36781) - http://www.bohemiancoding.com/sketch -->
    <title>Group 24</title>
    <desc>Created with Sketch.</desc>
    <defs>
        <linearGradient x1="100%" y1="0%" x2="0%" y2="100%" id="linearGradient-1">
            <stop stop-color="#FFBA3F" offset="0%"></stop>
            <stop stop-color="#FF0000" offset="100%"></stop>
        </linearGradient>
    </defs>
    <g id="H5优化-&gt;-首页" stroke="none" stroke-width="1" fill="none" fill-rule="evenodd">
        <g id="Group-24">
            <rect id="Rectangle-8" fill="url(#linearGradient-1)" x="0" y="0" width="109" height="20" rx="10"></rect>
            <path d="M25,11.3787185 L25.0003989,11.3787185 L25,11.3803142 L25,11.3787185 L25,11.3787185 Z M24.0026602,5.69098949 L24.0026602,5.59574362 L25.9973398,5.59574362 L25.9973398,5.69092376 C26.4183157,5.96760987 26.5733437,6.77367157 26.6392276,7.11489155 C26.6440149,7.13962557 26.6591744,7.16276386 26.6847063,7.18350852 C27.2336421,7.63590184 27.56436,8.29255034 27.5914876,8.98470413 C27.6170195,9.63377285 27.3732697,10.2624958 26.9061158,10.7555806 C26.4206108,11.2686122 25.740824,11.568612 25.0418883,11.5793833 L25,11.5797822 C23.5702137,11.5797822 22.4069166,10.4583734 22.4069166,9.08044875 C22.4069166,8.35079498 22.7380334,7.65943906 23.3152937,7.18310959 C23.3408256,7.16236492 23.3559851,7.13962557 23.3607724,7.11529048 C23.4266488,6.77345397 23.5819182,5.96768961 24.0026602,5.69098949 Z M25,13.5744617 C24.8898937,13.5744617 24.800532,13.4851001 24.800532,13.3749938 L24.800532,12.1781861 C24.800532,12.0680797 24.8898937,11.9787181 25,11.9787181 C25.1101063,11.9787181 25.199468,12.0680797 25.199468,12.1781861 L25.199468,13.3749938 C25.199468,13.4851001 25.1101063,13.5744617 25,13.5744617 Z M22.8058525,12.9864302 C22.771943,12.9864302 22.7376345,12.9780525 22.7061185,12.9597015 C22.6107729,12.9046483 22.5780601,12.7829729 22.6331133,12.6872283 L23.2315171,11.6507928 C23.2865703,11.5554471 23.4090436,11.5235322 23.5039904,11.5777875 C23.599336,11.6328407 23.6320488,11.7549151 23.5769956,11.8502607 L22.9785918,12.8866962 C22.9418897,12.9509249 22.8744695,12.9864302 22.8058525,12.9864302 Z M21.1997366,11.3803142 C21.1311196,11.3803142 21.0636994,11.34441 21.0269973,11.2805803 C20.9715452,11.1852346 21.004258,11.0631602 21.1000026,11.008107 L22.1364381,10.4097032 C22.2317838,10.35465 22.3538581,10.3873628 22.4089113,10.4827085 C22.4643634,10.5780541 22.4316506,10.7001285 22.335906,10.7551817 L21.2994705,11.3535855 C21.2679546,11.3719366 21.2336461,11.3803142 21.1997366,11.3803142 Z M27.1941475,12.9864302 C27.1255305,12.9864302 27.0581103,12.9509249 27.0214082,12.8866962 L26.4230044,11.8502607 C26.3679512,11.7549151 26.400664,11.6328407 26.4960096,11.5777875 C26.5909564,11.5227344 26.7134297,11.5550482 26.7684829,11.6507928 L27.3668867,12.6872283 C27.4219399,12.7829729 27.3892271,12.9046483 27.2938815,12.9597015 C27.2623655,12.9780525 27.228057,12.9864302 27.1941475,12.9864302 Z M28.8002634,11.3803142 C28.7663539,11.3803142 28.7320454,11.3719366 28.7005295,11.3535855 L27.664094,10.7551817 C27.5683494,10.7001285 27.5356366,10.5780541 27.5910887,10.4827085 C27.6461419,10.3877617 27.7678173,10.355049 27.8635619,10.4097032 L28.8999974,11.008107 C28.995742,11.0631602 29.0284548,11.1852346 28.9730027,11.2805803 C28.9363006,11.34441 28.8688804,11.3803142 28.8002634,11.3803142 Z M25.9973398,5.19680772 L24.0026602,5.19680772 L24.0026602,4.76356332 C24.0026602,4.60398896 24.0648942,4.45359012 24.1777931,4.34069126 L24.3433515,4.17513286 C24.4546546,4.06382974 24.6090428,4 24.7662236,4 L25.2337764,4 C25.3909572,4 25.5453454,4.06382974 25.6566485,4.17513286 L25.8222069,4.34069126 C25.9351058,4.45359012 25.9973398,4.60398896 25.9973398,4.76356332 L25.9973398,5.19680772 Z" id="Combined-Shape" fill="#FFFFFF" transform="translate(25.000000, 8.787231) scale(1, -1) translate(-25.000000, -8.787231) "></path>
            <text id="优惠券待领取" font-family=".PingFangSC-Regular, .PingFang SC" font-size="9" font-weight="normal" fill="#FFFFFF">
                <tspan x="33" y="13">优惠券待领取</tspan>
            </text>
        </g>
    </g>
</svg>