<?xml version="1.0" encoding="UTF-8"?>
<svg width="77px" height="761px" viewBox="0 0 77 761" version="1.1" xmlns="http://www.w3.org/2000/svg" xmlns:xlink="http://www.w3.org/1999/xlink">
    <!-- Generator: Sketch 46.2 (44496) - http://www.bohemiancoding.com/sketch -->
    <title>Artboard</title>
    <desc>Created with Sketch.</desc>
    <defs>
        <linearGradient x1="61.8830886%" y1="99.3092863%" x2="61.8830886%" y2="-0.460475825%" id="linearGradient-1">
            <stop stop-color="#FBDA61" offset="0%"></stop>
            <stop stop-color="#F76B1C" offset="100%"></stop>
        </linearGradient>
    </defs>
    <g id="Page-1" stroke="none" stroke-width="1" fill="none" fill-rule="evenodd">
        <g id="Asset-1">
            <g id="绑定手机按钮" transform="translate(0.000000, 52.000000)" fill-rule="nonzero">
                <path d="M0.5,3 C0.5,1.34314575 1.84314575,0 3.5,0 L40.5,0 C42.1568542,0 43.5,1.34314575 43.5,3 L43.5,16 C43.5,17.6568542 42.1568542,19 40.5,19 L3.5,19 C1.84314575,19 0.5,17.6568542 0.5,16 L0.5,3 Z" id="Rectangle-4" fill="#FFFFFF"></path>
                <path d="M13.24,10.2 L12.66,10.57 C13.19,11.27 13.66,11.94 14.09,12.57 C13.09,12.69 11.43,12.84 9.01,13.03 C9.91530977,12.0593414 10.6460627,10.9395301 11.17,9.72 L15.94,9.72 L15.94,9 L11.87,9 L11.87,7.14 L15.3,7.14 L15.3,6.44 L11.87,6.44 L11.87,4.85 L11.13,4.85 L11.13,6.44 L7.68,6.44 L7.68,7.14 L11.13,7.14 L11.13,9 L7.05,9 L7.05,9.7 L10.37,9.7 C9.82823735,11.0596153 8.91302106,12.238303 7.73,13.1 L7.86,13.69 C9.94,13.57 12.14,13.39 14.46,13.15 C14.64,13.45 14.81,13.75 14.97,14.04 L15.58,13.61 C14.8856846,12.4168508 14.1035239,11.2770355 13.24,10.2 L13.24,10.2 Z M20,12 L20,12.71 C19.126345,13.1042933 18.2150374,13.4091793 17.28,13.62 L17.19,12.9 C18.1592195,12.7131859 19.1025956,12.411037 20,12 L20,12 Z M18.54,4.84 L19.23,5.11 C18.9164936,6.1790594 18.5047383,7.21681648 18,8.21 C18.35,8.15 18.71,8.09 19.07,8.01 C19.23,7.62 19.41,7.21 19.59,6.77 L20.25,7.02 C19.7267836,8.28403025 19.097888,9.50167922 18.37,10.66 C18.8815489,10.5260768 19.3828347,10.3556396 19.87,10.15 L19.87,10.8 C19.1172899,11.1237362 18.3282474,11.3554125 17.52,11.49 L17.34,10.86 C17.4548427,10.813136 17.5599646,10.7453154 17.65,10.66 C18.0942792,10.0338631 18.4729406,9.36366599 18.78,8.66 L17.36,8.95 L17.19,8.33 C17.3039522,8.26859266 17.4003316,8.17909755 17.47,8.07 C17.9304245,7.0182442 18.2952301,5.92717407 18.56,4.81 L18.54,4.84 Z M20.35,8.12 L21.26,8.12 L21.26,6.67 L20.17,6.67 L20.17,6 L21.28,6 L21.28,4.91 L22,4.91 L22,6 L23,6 L23,6.65 L22,6.65 L22,8.07 L22.91,8.07 L22.91,8.72 L22,8.72 L22,9.31 C22,9.59 22,9.86 22,10.11 L23.15,10.11 L23.15,10.76 L21.86,10.76 C21.7313121,11.9629194 21.1824457,13.0818985 20.31,13.92 L19.78,13.46 C20.5425896,12.7498275 21.0310952,11.7940558 21.16,10.76 L20.16,10.76 L20.16,10.11 L21.24,10.11 C21.24,9.85 21.24,9.58 21.24,9.31 L21.24,8.72 L20.33,8.72 L20.35,8.12 Z M23.35,5.27 L23.35,13.98 L24.02,13.98 L24.02,5.98 L25.24,5.98 C25.0141379,6.92329891 24.7404512,7.85450147 24.42,8.77 C24.970541,9.54417557 25.3147044,10.4458834 25.42,11.39 C25.4332564,11.5788151 25.3988709,11.7679353 25.32,11.94 C25.2196465,11.9852393 25.1099256,12.0058119 25,12 C24.83,12 24.63,12 24.4,12 L24.59,12.65 C25.0415922,12.6994098 25.4965509,12.5936054 25.88,12.35 C26.1070974,12.0688156 26.2148147,11.709758 26.18,11.35 C26.0747044,10.4058834 25.730541,9.50417557 25.18,8.73 C25.48,7.83 25.76,6.86 26.02,5.81 L26.02,5.28 L23.35,5.27 Z M29,7.8 L34.88,7.8 L34.88,8.48 L32.35,8.48 L32.35,10.24 L35.35,10.24 L35.35,10.92 L32.35,10.92 L32.35,13 C33.1920714,13.1118172 34.0405382,13.1686043 34.89,13.17 C35.4,13.17 35.89,13.17 36.46,13.11 L36.33,13.83 L35.21,13.83 C33.7413386,13.9082054 32.2707063,13.7184464 30.87,13.27 C30.2046935,12.9568166 29.6451791,12.4563814 29.26,11.83 C28.9118725,12.6326731 28.4243443,13.367351 27.82,14 L27.36,13.43 C28.3871841,12.266441 29.0603003,10.833467 29.3,9.3 L30,9.42 C29.8874156,10.0001881 29.7336942,10.5716309 29.54,11.13 C29.9051425,11.8867797 30.550823,12.4714792 31.34,12.76 L31.63,12.84 L31.63,8.48 L29,8.48 L29,7.8 Z M36,5.8 L36,8 L35.3,8 L35.3,6.51 L28.55,6.51 L28.55,8 L27.85,8 L27.85,5.85 L31.67,5.85 C31.5280451,5.50487291 31.3609287,5.17064016 31.17,4.85 L31.94,4.73 C32.1159154,5.09023273 32.269538,5.4609307 32.4,5.84 L36,5.8 Z" id="去绑定" fill="#FF6421"></path>
            </g>
            <g id="手机警告">
                <path d="M0.5,12.8 L0.5,2.67 L10.1,2.67 L10.1,12.8 L0.5,12.8 Z M10.1,2.13 L0.5,2.13 L0.5,1.87 C0.5,0.837227518 1.33722752,-6.32390757e-17 2.37,0 L8.23,0 C9.26277248,6.32390757e-17 10.1,0.837227518 10.1,1.87 L10.1,2.13 Z M0.5,13.33 L10.1,13.33 L10.1,14.13 C10.1,15.1627725 9.26277248,16 8.23,16 L2.37,16 C1.33722752,16 0.5,15.1627725 0.5,14.13 L0.5,13.33 Z M5.3,14.93 C5.59271092,14.93 5.83,14.6927109 5.83,14.4 C5.83,14.1072891 5.59271092,13.87 5.3,13.87 C5.00728908,13.87 4.77,14.1072891 4.77,14.4 C4.77,14.6927109 5.00728908,14.93 5.3,14.93 L5.3,14.93 Z M4,1.07 C3.85088312,1.07 3.73,1.19088312 3.73,1.34 C3.73538135,1.4851977 3.85470264,1.60009969 4,1.6 L6.63,1.6 C6.77911688,1.6 6.9,1.47911688 6.9,1.33 C6.9,1.18088312 6.77911688,1.06 6.63,1.06 L4,1.07 Z" id="Combined-Shape" fill="#FFFFFF" fill-rule="nonzero"></path>
                <g id="Combined-Shape-2" transform="translate(4.000000, 5.000000)">
                    <path d="M6,1.6 C6.82,0.16 8.15,0.17 9,1.6 L14,10.4 C14.82,11.84 14.15,13 12.48,13 L2.48,13 C0.85,13 0.17,11.83 1,10.4 L6,1.6 Z" id="path-1" fill="#FF0E05" fill-rule="nonzero"></path>
                    <path d="M5.58,1.35 L0.58,10.15 C-0.42,11.92 0.49,13.5 2.58,13.5 L12.58,13.5 C14.63,13.5 15.58,11.92 14.58,10.15 L9.58,1.35 C8.41,-0.42 6.59,-0.42 5.58,1.35 Z" id="Shape" stroke="#FFFFFF"></path>
                </g>
                <path d="M11.5,16 C10.9477153,16 10.5,15.5522847 10.5,15 C10.5,14.4477153 10.9477153,14 11.5,14 C12.0522847,14 12.5,14.4477153 12.5,15 C12.5,15.5522847 12.0522847,16 11.5,16 Z M10.5,9 C10.4611851,8.74418555 10.5382485,8.48436794 10.7102676,8.29108813 C10.8822866,8.09780832 11.1314099,7.99112394 11.39,8 L11.57,8 C11.827484,7.99466008 12.0743845,8.10238161 12.2456037,8.29476274 C12.4168229,8.48714386 12.4951744,8.744874 12.46,9 L12,13 L11,13 L10.5,9 Z" id="Combined-Shape-3" fill="#FFFFFF" fill-rule="nonzero"></path>
            </g>
            <g id="去领券按钮" transform="translate(1.000000, 81.000000)">
                <rect id="Rectangle-4-2" stroke="#F8872D" x="0" y="0.5" width="42" height="18" rx="3"></rect>
                <path d="M12.24,10.2 L11.66,10.57 C12.19,11.27 12.66,11.94 13.09,12.57 C12.09,12.69 10.43,12.84 8.01,13.03 C8.91530977,12.0593414 9.64606273,10.9395301 10.17,9.72 L14.94,9.72 L14.94,9 L10.87,9 L10.87,7.14 L14.3,7.14 L14.3,6.44 L10.87,6.44 L10.87,4.85 L10.13,4.85 L10.13,6.44 L6.68,6.44 L6.68,7.14 L10.13,7.14 L10.13,9 L6.05,9 L6.05,9.7 L9.37,9.7 C8.82823735,11.0596153 7.91302106,12.238303 6.73,13.1 L6.86,13.69 C8.94,13.57 11.14,13.39 13.46,13.15 C13.64,13.45 13.81,13.75 13.97,14.04 L14.58,13.61 C13.8856846,12.4168508 13.1035239,11.2770355 12.24,10.2 Z M20.42,5.25 L25.16,5.25 L25.16,5.93 L23.16,5.93 C23.16,6.31 23.05,6.67 22.97,7.03 L24.84,7.03 L24.84,11.75 L24.14,11.75 L24.14,7.69 L21.56,7.69 L21.56,11.83 L20.85,11.83 L20.85,7 L22.28,7 C22.3610347,6.63708659 22.4211339,6.26981372 22.46,5.9 L20.46,5.9 L20.42,5.25 Z M23.6,11.78 C24.2256479,12.309502 24.8013945,12.8952906 25.32,13.53 L24.81,14.04 C24.3094384,13.3838624 23.7394657,12.7837147 23.11,12.25 L23.6,11.78 Z M22.5,8.35 L23.18,8.35 L23.18,10.07 C23.2028245,10.9662715 22.9889725,11.8527223 22.56,12.64 C22.0971233,13.2763349 21.4467371,13.7518861 20.7,14 L20.32,13.39 C20.9956228,13.1779711 21.5848074,12.753618 22,12.18 C22.3277268,11.525635 22.4924042,10.8017408 22.48,10.07 L22.5,8.35 Z M18.1,4.92 L18.64,4.92 C19.3066667,5.70666667 19.9733333,6.54666667 20.64,7.44 L20.16,7.95 C19.6336608,7.14148399 19.0662507,6.36046062 18.46,5.61 C17.8980674,6.61078582 17.2273357,7.54645658 16.46,8.4 L16,7.82 C16.8103763,6.93827336 17.5151384,5.96503037 18.1,4.92 L18.1,4.92 Z M16.62,9.29 L16.62,10 L19.43,10 C19.0905871,10.6779617 18.6959201,11.3268211 18.25,11.94 C17.94,11.67 17.62,11.4 17.25,11.13 L16.77,11.59 C17.6759234,12.3003617 18.5038941,13.1048677 19.24,13.99 L19.76,13.48 C19.44,13.11 19.08,12.74 18.69,12.37 C19.2713807,11.6134437 19.7677038,10.7951814 20.17,9.93 L20.17,9.33 L16.62,9.29 Z M18.31,7.09 C18.6786762,7.57949866 19.0128178,8.09407665 19.31,8.63 L18.8,9 C18.5051119,8.44677199 18.1709211,7.91540854 17.8,7.41 L18.31,7.09 Z M31.41,11.26 L31.41,12 L30.5,12.22 L30.5,14 L29.8,14 L29.8,12.35 C28.8,12.57 27.69,12.76 26.57,12.92 L26.4,12.22 L27.3,12.09 L27.3,5.9 L26.51,5.9 L26.51,5.22 L31.27,5.22 L31.27,5.76 L35.14,5.76 L35.14,6.42 C34.9770486,8.07048645 34.5126964,9.67707698 33.77,11.16 C34.2614372,11.9940161 34.8635776,12.7576242 35.56,13.43 L35.08,13.98 C34.4386554,13.3245958 33.8718674,12.6001803 33.39,11.82 C32.8741542,12.6502664 32.2216215,13.387324 31.46,14 L31,13.41 C31.8011893,12.7715475 32.4789851,11.9920823 33,11.11 C32.2524959,9.66425297 31.8035843,8.08285975 31.68,6.46 L31.28,6.46 L31.28,5.9 L30.5,5.9 L30.5,11.48 L31.41,11.26 Z M32.33,6.46 C32.4197701,7.82340634 32.7587046,9.15880819 33.33,10.4 C33.9035445,9.15408309 34.2716379,7.82354353 34.42,6.46 L32.33,6.46 Z M29.8,11.64 L29.8,10.28 L28,10.28 L28,12 C28.61,11.88 29.21,11.76 29.8,11.64 Z M28,9.64 L29.8,9.64 L29.8,8.11 L28,8.11 L28,9.64 Z M28,7.46 L29.8,7.46 L29.8,5.9 L28,5.9 L28,7.46 Z" id="去领取" fill="#F98D37" fill-rule="nonzero"></path>
            </g>
            <path d="M4.58,39.7 L4.58,39.83 L7.29,39.83 L7.29,39.7 C7.86,39.32 8.07,38.23 8.16,37.77 C8.16894543,37.7339443 8.19015835,37.7021249 8.22,37.68 C8.96068176,37.0761531 9.40821637,36.1847223 9.45,35.23 C9.47878251,34.336901 9.1430565,33.4705113 8.52,32.83 C7.86326006,32.1351382 6.95585716,31.731848 6,31.71 L5.93,31.71 C4.02281295,31.6765378 2.44829712,33.1929039 2.41,35.1 C2.41273346,36.1008511 2.86415113,37.0477272 3.64,37.68 C3.66984165,37.7021249 3.69105457,37.7339443 3.7,37.77 C3.79,38.23 4,39.33 4.58,39.7 Z M5.93,29 C5.78088312,29 5.66,29.1208831 5.66,29.27 L5.66,30.9 C5.66,31.0491169 5.78088312,31.17 5.93,31.17 C6.07911688,31.17 6.2,31.0491169 6.2,30.9 L6.2,29.27 C6.2,29.1983915 6.17155365,29.129716 6.12091883,29.0790812 C6.07028401,29.0284463 6.00160845,29 5.93,29 L5.93,29 Z M2.93,29.8 C2.88414503,29.7876908 2.83585497,29.7876908 2.79,29.8 C2.72746704,29.8356101 2.68173676,29.8947098 2.66296136,29.9641787 C2.64418597,30.0336477 2.65391911,30.1077375 2.69,30.17 L3.5,31.58 C3.54287187,31.6693164 3.63013684,31.7289763 3.72892305,31.7365064 C3.82770925,31.7440364 3.92300871,31.6982927 3.97892305,31.6165064 C4.03483738,31.53472 4.04287187,31.4293164 4,31.34 L3.19,29.93 C3.14923999,29.8604842 3.07955982,29.8128083 3,29.8 L2.93,29.8 Z M0.77,32 C0.642172928,31.991744 0.526138222,32.0744412 0.492229722,32.197965 C0.458321221,32.3214888 0.515872857,32.4518372 0.63,32.51 L2,33.3 C2.12978692,33.3745584 2.29544155,33.3297869 2.36999999,33.2 C2.44455843,33.0702131 2.39978691,32.9045584 2.27,32.83 L0.91,32 C0.864145029,31.9876908 0.815854971,31.9876908 0.77,32 Z M8.91,29.8 C8.8138736,29.8023821 8.72626778,29.8557073 8.68,29.94 L7.87,31.35 C7.79544156,31.4797869 7.84021309,31.6454416 7.97,31.72 C8.09978692,31.7945584 8.26544156,31.7497869 8.34,31.62 L9.15,30.21 C9.18608089,30.1477375 9.19581403,30.0736477 9.17703864,30.0041787 C9.15826324,29.9347098 9.11253296,29.8756101 9.05,29.84 C9.00787678,29.8140979 8.95944911,29.8002614 8.91,29.8 L8.91,29.8 Z M11.09,32 C11.0602113,31.9949648 11.0297887,31.9949648 11,32 L9.59,32.81 C9.46021308,32.8845584 9.41544156,33.0502131 9.49,33.18 C9.56455844,33.3097869 9.73021308,33.3545584 9.86,33.28 L11.27,32.47 C11.3841271,32.4118372 11.4416788,32.2814888 11.4077703,32.157965 C11.3738618,32.0344412 11.2578271,31.951744 11.13,31.96 L11.09,32 Z M7.28,40.4 L4.58,40.4 L4.58,41 C4.58145979,41.214265 4.66775767,41.4192224 4.82,41.57 L5.04,41.79 C5.19139152,41.9413315 5.39595749,42.0274646 5.61,42.03 L6.24,42.03 C6.45404251,42.0274646 6.65860848,41.9413315 6.81,41.79 L7,41.54 C7.16366887,41.4049359 7.26779933,41.2110378 7.29,41 L7.28,40.4 Z" id="领券通知" fill="url(#linearGradient-1)" fill-rule="nonzero"></path>
            <g id="余额" transform="translate(3.000000, 195.000000)">
                <path d="M5.55111512e-17,4.5 L24,4.5 L24,16 C24.0026638,16.3995545 23.8458052,16.7836595 23.5642114,17.0671306 C23.2826176,17.3506016 22.8995634,17.5100089 22.5,17.51 L1.5,17.51 C1.10043658,17.5100089 0.71738238,17.3506016 0.435788579,17.0671306 C0.154194779,16.7836595 -0.00266375625,16.3995545 5.55111512e-17,16 L5.55111512e-17,4.5 Z" id="Rectangle-18" stroke="#979797"></path>
                <polygon id="_" fill="#979797" fill-rule="nonzero" points="8.74 6.86 11.03 10.88 9.37 10.88 9.37 11.44 11.35 11.44 11.35 12.54 9.37 12.54 9.37 13.1 11.35 13.1 11.35 14.86 12.33 14.86 12.33 13.1 14.32 13.1 14.32 12.54 12.33 12.54 12.33 11.44 14.32 11.44 14.32 10.88 12.65 10.88 14.94 6.86 13.83 6.86 11.84 10.53 9.85 6.86"></polygon>
                <path d="M0,3.5 L24,3.5 L24,2 C24,1.17157288 23.3284271,0.5 22.5,0.5 L1.5,0.5 C0.671572875,0.5 0,1.17157288 0,2 L0,3.5 Z" id="Rectangle-18-2" stroke="#979797"></path>
            </g>
            <g id="积分" transform="translate(6.000000, 165.000000)" stroke="#979797">
                <path d="M9.5,3 L9.5,5.5 C9.5,6.88 11.5,8 14,8 L14,8 C16.49,8 18.5,6.88 18.5,5.5 L18.5,3" id="Oval-10"></path>
                <path d="M9.5,6 L9.5,8.5 C9.5,9.88 11.5,11 14,11 L14,11 C16.49,11 18.5,9.88 18.5,8.5 L18.5,6" id="Oval-10-2"></path>
                <path d="M9.5,9 L9.5,11.5 C9.5,12.88 11.5,14 14,14 L14,14 C16.49,14 18.5,12.88 18.5,11.5 L18.5,9" id="Oval-10-3"></path>
                <path d="M9.5,12 L9.5,14.5 C9.5,15.88 11.5,17 14,17 L14,17 C16.49,17 18.5,15.88 18.5,14.5 L18.5,12" id="Oval-10-4"></path>
                <ellipse id="Oval-10-5" cx="14" cy="2.5" rx="4.5" ry="2.5"></ellipse>
                <path d="M0.5,8 L0.5,10.5 C0.5,11.88 2.5,13 5,13 L5,13 C7.49,13 9.5,11.88 9.5,10.5 L9.5,8" id="Oval-10-6"></path>
                <path d="M0.5,11 L0.5,13.5 C0.5,14.88 2.5,16 5,16 L5,16 C7.49,16 9.5,14.88 9.5,13.5 L9.5,11" id="Oval-10-7"></path>
                <path d="M0.5,14 L0.5,16.5 C0.5,17.88 2.5,19 5,19 L5,19 C7.49,19 9.5,17.88 9.5,16.5 L9.5,14" id="Oval-10-8"></path>
                <ellipse id="Oval-10-9" cx="5" cy="7.5" rx="4.5" ry="2.5"></ellipse>
            </g>
            <g id="券" transform="translate(1.000000, 134.000000)">
                <path d="M24,14.45 L24,18 C24.0000089,18.3969113 23.8416553,18.777422 23.5600595,19.0571405 C23.2784638,19.3368589 22.8969024,19.4926638 22.5,19.49 L1.5,19.49 C0.675462457,19.4900183 0.00549691675,18.8245192 0,18 L0,14.44 C1.16516199,14.2034038 2.00250628,13.1789408 2.00250628,11.99 C2.00250628,10.8010592 1.16516199,9.77659623 0,9.54 L0,6 C-8.93914235e-06,5.6030887 0.158344724,5.22257799 0.439940478,4.94285954 C0.721536232,4.66314109 1.10309764,4.50733617 1.5,4.51 L22.5,4.51 C23.3245375,4.50998168 23.9945031,5.17548078 24,6 L24,9.56 C22.834838,9.79659623 21.9974937,10.8210592 21.9974937,12.01 C21.9974937,13.1989408 22.834838,14.2234038 24,14.46 L24,14.45 Z" id="Combined-Shape-4" stroke="#979797"></path>
                <path d="M14.63,11.7 C15.1614083,11.6722358 15.6703138,11.9172644 15.98,12.35 C16.2782367,12.7953019 16.4254751,13.3246591 16.4,13.86 C16.4226754,14.3950227 16.2756748,14.923525 15.98,15.37 C15.6622142,15.7918502 15.1577348,16.0310109 14.63,16.01 C14.1011913,16.0363371 13.5943422,15.7960531 13.28,15.37 C12.9811092,14.9249989 12.8338094,14.3954211 12.86,13.86 C12.8293798,13.3240935 12.9770652,12.7931296 13.28,12.35 C13.5871588,11.9142698 14.0978267,11.6683926 14.63,11.7 L14.63,11.7 Z M13.68,8 L14.38,8 L10,16.15 L9.28,16.15 L13.68,8 Z M9.04,8.15 C9.57140827,8.12223581 10.0803138,8.36726442 10.39,8.8 C10.6882367,9.24530189 10.8354751,9.77465906 10.81,10.31 C10.8326754,10.8450227 10.6856748,11.373525 10.39,11.82 C10.0722142,12.2418502 9.56773477,12.4810109 9.04,12.46 C8.51119133,12.4863371 8.00434219,12.2460531 7.69,11.82 C7.39110924,11.3749989 7.24380944,10.8454211 7.27,10.31 C7.23937984,9.77409349 7.38706515,9.24312962 7.69,8.8 C7.98938177,8.37659781 8.48174778,8.13229407 9,8.15 L9.04,8.15 Z M14.63,12.3 C14.3119559,12.2856056 14.0178492,12.4684287 13.89,12.76 C13.7316153,13.104142 13.6595334,13.4817136 13.68,13.86 C13.6611941,14.2317164 13.7332744,14.6024147 13.89,14.94 C14.0169688,15.2335733 14.3102989,15.4198776 14.63,15.41 C14.9513396,15.4154172 15.2439325,15.2256272 15.37,14.93 C15.5218623,14.594391 15.5937488,14.2281121 15.58,13.86 C15.5943154,13.4853852 15.5224716,13.1124815 15.37,12.77 C15.2461659,12.4725028 14.9521365,12.2817811 14.63,12.29 L14.63,12.3 Z M9,8.74 C8.68195591,8.72560564 8.38784923,8.90842872 8.26,9.2 C8.10161526,9.54414203 8.02953341,9.92171363 8.05,10.3 C8.03119413,10.6717164 8.10327437,11.0424147 8.26,11.38 C8.38696878,11.6735733 8.68029886,11.8598776 9,11.85 C9.32133958,11.8554172 9.61393246,11.6656272 9.74,11.37 C9.90911756,11.0385615 9.99816738,10.6720872 10,10.3 C10.0169228,9.92414152 9.94138186,9.54987038 9.78,9.21 C9.65303547,8.89766189 9.33546974,8.70630818 9,8.74 L9,8.74 Z" id="_2" fill="#979797" fill-rule="nonzero"></path>
                <path d="M27.5,2 C27.5,1.44771525 27.0522847,1 26.5,1 L5.5,1 C4.94771525,1 4.5,1.44771525 4.5,2 L4.5,3.1 L3.5,3.1 L3.5,2 C3.5,0.8954305 4.3954305,0 5.5,0 L26.5,0 C27.6045695,0 28.5,0.8954305 28.5,2 L28.5,6 C27.3954305,6 26.5,6.8954305 26.5,8 C26.5,9.1045695 27.3954305,10 28.5,10 L28.5,14 C28.5,15.1045695 27.6045695,16 26.5,16 L25.5,16 L25.5,15 L26.5,15 C27.0522847,15 27.5,14.5522847 27.5,14 L27.5,10.82 C26.2990566,10.397531 25.4955401,9.26308484 25.4955401,7.99 C25.4955401,6.71691516 26.2990566,5.58246898 27.5,5.16 L27.5,2 Z" id="Combined-Shape-5" fill="#979797" fill-rule="nonzero"></path>
            </g>
            <g id="male" transform="translate(0.000000, 245.000000)" fill-rule="nonzero">
                <g id="图层_1">
                    <ellipse id="Oval" fill="#4990E2" cx="6.82" cy="6.14" rx="6.25" ry="6.14"></ellipse>
                    <path d="M4.49,8.29 L4.19,7 C4.09601787,6.92135625 3.97454039,6.88346379 3.85251334,6.89472783 C3.73048628,6.90599186 3.61799789,6.96548117 3.54,7.06 C3.51459324,7.94245948 3.67117832,8.82069753 4,9.64 C4.86837888,9.78202441 5.75665075,9.74458766 6.61,9.53 C6.76472205,9.33316507 6.73361261,9.04873582 6.54,8.89 L5.2,8.89 L6.85,6.89 C8.01843449,7.52416884 9.47766105,7.16254795 10.2147555,6.05615695 C10.95185,4.94976596 10.7234838,3.46384514 9.6881776,2.6298485 C8.65287142,1.79585185 7.15239912,1.8890972 6.22831564,2.84485816 C5.30423215,3.80061911 5.26159465,5.30338119 6.13,6.31 L4.49,8.29 Z M9.07,3.35 C9.7523726,3.92309057 9.84377843,4.93969685 9.27458014,5.62531954 C8.70538185,6.31094223 7.68931216,6.40813151 7.00046159,5.84284392 C6.31161101,5.27755634 6.20864143,4.26205616 6.77,3.57 C7.04524645,3.23495161 7.44264694,3.02338166 7.87428728,2.98209432 C8.30592763,2.94080698 8.73622944,3.07320541 9.07,3.35 L9.07,3.35 Z" id="Shape" fill="#FFFFFF"></path>
                </g>
            </g>
            <g id="female" transform="translate(0.000000, 223.000000)" fill-rule="nonzero">
                <g id="图层_1-2">
                    <ellipse id="Oval-2" fill="#FF7BAC" cx="6.82" cy="6.14" rx="6.25" ry="6.14"></ellipse>
                    <path d="M6.36,6.65 L6.36,8.46 L5.36,8.46 C5.10871044,8.46 4.905,8.66371044 4.905,8.915 C4.905,9.16628956 5.10871044,9.37 5.36,9.37 L6.36,9.37 L6.36,10.19 C6.36,10.4468124 6.56818759,10.655 6.825,10.655 C7.08181241,10.655 7.29,10.4468124 7.29,10.19 L7.29,9.37 L8.29,9.37 C8.54128956,9.37 8.745,9.16628956 8.745,8.915 C8.745,8.66371044 8.54128956,8.46 8.29,8.46 L7.29,8.46 L7.29,6.65 C8.57208612,6.40219892 9.45495746,5.21937588 9.32787933,3.91976004 C9.20080119,2.62014419 8.1055273,1.63074678 6.79972384,1.63599291 C5.49392038,1.64123905 4.40663164,2.63940503 4.29,3.94 C4.17795373,5.25222471 5.09134705,6.43093705 6.39,6.65 L6.36,6.65 Z M6.82,2.55 C7.7120148,2.56101337 8.42726515,3.29111616 8.41994546,4.18316891 C8.41262577,5.07522166 7.6854909,5.79348904 6.79341548,5.78986316 C5.90134007,5.78623727 5.18006799,5.06208278 5.18,4.17 C5.18264404,3.73769458 5.35691665,3.32414653 5.66447809,3.02033584 C5.97203952,2.71652515 6.38769468,2.54733968 6.82,2.55 L6.82,2.55 Z" id="Shape-2" fill="#FFFFFF"></path>
                </g>
            </g>
            <path d="M7.42,116.17 L2.34,110.34 C1.97045585,109.977528 1.41013071,109.892875 0.95,110.13 C0.741993618,110.201807 0.583456832,110.372559 0.527257482,110.585313 C0.471058133,110.798068 0.524589393,111.024837 0.67,111.19 L5.74,117 L0.67,122.81 C0.524589393,122.975163 0.471058133,123.201932 0.527257482,123.414687 C0.583456832,123.627441 0.741993618,123.798193 0.95,123.87 C1.41013071,124.107125 1.97045585,124.022472 2.34,123.66 L7.42,117.83 L7.61,117.76 C7.88023023,117.602263 8.04637854,117.312898 8.04637854,117 C8.04637854,116.687102 7.88023023,116.397737 7.61,116.24 L7.42,116.17 Z" id="展开箭头" fill="#C3C3C3" fill-rule="nonzero"></path>
            <g id="买单按钮-小" transform="translate(0.000000, 267.000000)" fill-rule="nonzero">
                <path d="M20.5,0 C9.454305,0 0.5,8.954305 0.5,20 C0.5,31.045695 9.454305,40 20.5,40 L78.5,40 L78.5,0 L20.5,0 Z" id="Combined-Shape-6" fill-opacity="0.5" fill="#5FA5A1"></path>
                <path d="M21.17,3 C12.1251763,3.22157972 4.9082585,10.6174626 4.9082585,19.665 C4.9082585,28.7125374 12.1251763,36.1084203 21.17,36.33 L77.5,36.33 L77.5,3 L21.17,3 Z" id="Combined-Shape-7" fill="#5FA5A1"></path>
                <path d="M33.59,19.64 L32.89,20.08 C33.53,20.92 34.1,21.72 34.61,22.49 C33.46,22.63 31.42,22.81 28.51,23.04 C29.5984295,21.8666913 30.4747879,20.513242 31.1,19.04 L36.82,19.04 L36.82,18.2 L31.94,18.2 L31.94,16 L36.06,16 L36.06,15.16 L31.94,15.16 L31.94,13.25 L31.05,13.25 L31.05,15.16 L26.92,15.16 L26.92,16 L31.06,16 L31.06,18.27 L26.16,18.27 L26.16,19.11 L30.16,19.11 C29.08,21.27 28.0233333,22.63 26.99,23.19 L27.15,23.9 C29.6433333,23.7533333 32.2833333,23.5366667 35.07,23.25 C35.29,23.61 35.49,23.97 35.68,24.32 L36.41,23.8 C35.575873,22.3444392 34.6332019,20.9538321 33.59,19.64 L33.59,19.64 Z M39.35,17 C40.2312677,17.3534921 41.0726254,17.7993111 41.86,18.33 L41.42,19.03 C40.6598176,18.449001 39.8258655,17.9714961 38.94,17.61 L39.35,17 Z M40.45,15.32 C41.3222742,15.6698763 42.1511223,16.1195348 42.92,16.66 L42.48,17.34 C41.7205445,16.7631832 40.8862495,16.2922103 40,15.94 L40.45,15.32 Z M43.76,15.32 L44.61,15.32 L44.61,17.84 C44.5902812,18.4498043 44.5098845,19.0561293 44.37,19.65 L48.83,19.65 L48.83,20.49 L44.09,20.49 C44.0128655,20.6776897 43.9260831,20.8612678 43.83,21.04 C45.4704883,21.767532 47.0577426,22.6096121 48.58,23.56 L47.99,24.21 C46.5150766,23.2675186 44.9782544,22.4256073 43.39,21.69 L43.2,21.93 C42.0062902,23.0518532 40.5246327,23.8203765 38.92,24.15 L38.43,23.38 C39.9782287,23.0905048 41.417222,22.3813855 42.59,21.33 C42.8029973,21.0726411 42.984297,20.7906195 43.13,20.49 L38.36,20.49 L38.36,19.65 L43.47,19.65 C43.6438183,19.061584 43.7412835,18.4532666 43.76,17.84 L43.76,15.32 Z M38.82,13.89 L48,13.89 L48,14.43 C47.8142725,15.159236 47.5770095,15.8743669 47.29,16.57 L46.47,16.34 C46.7305623,15.8152557 46.9382525,15.2658816 47.09,14.7 L38.82,14.7 L38.82,13.89 Z M51.31,15.05 L56.48,15.05 C56.8672339,14.4116737 57.2016793,13.7427829 57.48,13.05 L58.32,13.35 C58.0411955,13.9344035 57.7062899,14.4903467 57.32,15.01 L59.62,15.01 L59.62,20 L55.93,20 L55.93,21.14 L60.83,21.14 L60.83,22 L55.93,22 L55.93,24.28 L55.07,24.28 L55.07,22 L50.17,22 L50.17,21.18 L55.07,21.18 L55.07,20 L51.31,20 L51.31,15.05 Z M58.85,19.21 L58.85,17.87 L55.93,17.87 L55.93,19.21 L58.85,19.21 Z M55.07,19.21 L55.07,17.87 L52.15,17.87 L52.15,19.21 L55.07,19.21 Z M52.15,17.12 L55.07,17.12 L55.07,15.8 L52.15,15.8 L52.15,17.12 Z M55.93,15.8 L55.93,17.12 L58.85,17.12 L58.85,15.8 L55.93,15.8 Z M53.43,13.15 C53.8406911,13.6304624 54.2182289,14.138301 54.56,14.67 L53.84,15.03 C53.5051394,14.4847399 53.1237162,13.969484 52.7,13.49 L53.43,13.15 Z" id="去买单" fill="#FFFFFF"></path>
            </g>
            <g id="策略勾选" transform="translate(0.000000, 345.000000)" stroke="#FFFFFF" stroke-linecap="round">
                <path d="M14.81,2.3 C12.0280373,-0.30904764 7.84880387,-0.745637948 4.5876744,1.2321084 C1.32654493,3.20985474 -0.217974668,7.11767541 0.809808799,10.7905635 C1.83759227,14.4634517 5.18602023,17.0020799 9,17 L9,17 C13.6944204,17 17.5,13.1944204 17.5,8.5" id="Oval-3"></path>
                <path d="M4,6.5 L9,11.5" id="Line" stroke-width="2"></path>
                <path d="M9,11.5 L18,3.5" id="Line-2" stroke-width="2"></path>
            </g>
            <path d="M17.54,321.41 C18.1800211,322.499272 18.5247106,323.736708 18.54,325 C18.54,329.42 14.54,333 9.54,333 C8.32355706,333.002993 7.11689663,332.782676 5.98,332.35 L2.5,334.59 L3.65,331.08 C1.70094153,329.662629 0.533714364,327.409695 0.5,325 C0.5,320.58 4.5,317 9.5,317 C12.3929465,316.95292 15.1443754,318.249231 16.95,320.51 L7.33,324.51 L4.6,323.18 L6.52,328.18 L17.54,321.41 Z" id="微信支付" fill="#FFFFFF" fill-rule="nonzero"></path>
            <g id="无消费记录" transform="translate(0.000000, 373.000000)" fill-rule="nonzero">
                <g id="Layer_1-3">
                    <path d="M42.5,36 L31.5,36 L31.5,5 C31.5,4.44771525 31.0522847,4 30.5,4 L5.5,4 C4.94771525,4 4.5,4.44771525 4.5,5 L4.5,37 C4.5,40.67 6.44,42.75 9.94,43 C12.5,42.59 14.5,38.66 14.5,36 L16.5,36 C16.5129749,39.6468347 13.7238828,42.6926451 10.09,43 C10.23,43 10.35,43 10.5,43 L37.5,43 C40.37,43 43.5,40.87 43.5,38 L43.5,37 C43.5,36.4477153 43.0522847,36 42.5,36 L42.5,36 Z" id="Shape-3" fill="#C0E59B"></path>
                    <path d="M43.5,35 L32.5,35 L32.5,1 C32.5,0.44771525 32.0522847,0 31.5,0 L1.5,0 C0.94771525,0 0.5,0.44771525 0.5,1 L0.5,37 C0.5,40.8659932 3.63400675,44 7.5,44 L37.5,44 C41.3659932,44 44.5,40.8659932 44.5,37 L44.5,36 C44.5,35.4477153 44.0522847,35 43.5,35 Z M7.5,42 C4.73857625,42 2.5,39.7614237 2.5,37 L2.5,2 L30.5,2 L30.5,35 L13.5,35 C12.9477153,35 12.5,35.4477153 12.5,36 L12.5,37 C12.5,39.7614237 10.2614237,42 7.5,42 Z M37.5,42 L12.4,42 C13.7433974,40.6832072 14.5002687,38.8811326 14.5,37 L42.5,37 C42.5,39.7614237 40.2614237,42 37.5,42 Z" id="Shape-4" fill="#000000"></path>
                </g>
                <polygon id="Line-3" fill="#FFFFFF" points="23.23 20.27 24.1 20.76 25.08 19.02 24.21 18.53 15.49 13.63 14.62 13.14 13.64 14.88 14.51 15.37"></polygon>
                <polygon id="Line-4" fill="#FFFFFF" points="14.51 18.53 13.64 19.02 14.62 20.76 15.49 20.27 24.21 15.37 25.08 14.88 24.1 13.14 23.23 13.63"></polygon>
                <polygon id="Line-5" fill="#000000" points="21.23 19.27 22.1 19.76 23.08 18.02 22.21 17.53 13.49 12.63 12.62 12.14 11.64 13.88 12.51 14.37"></polygon>
                <polygon id="Line-6" fill="#000000" points="12.51 17.53 11.64 18.02 12.62 19.76 13.49 19.27 22.21 14.37 23.08 13.88 22.1 12.14 21.23 12.63"></polygon>
            </g>
            <polygon id="Rectangle-6" fill="#B9B9B9" fill-rule="nonzero" points="0.41 496.94 18.48 478.86 43.9 478.56 0.23 522.57"></polygon>
            <polygon id="Rectangle-6-2" fill="#F6A623" fill-rule="nonzero" points="0.41 548.94 18.48 530.86 43.9 530.55 0.23 574.57"></polygon>
            <polygon id="Rectangle-6-3" fill="#E75040" fill-rule="nonzero" points="0.41 444.94 18.48 426.86 43.9 426.56 0.23 470.57"></polygon>
            <path d="M3.4,448.81 C3.59774734,449.931349 3.59774734,451.078651 3.4,452.2 C3.17557962,452.124958 2.94454378,452.071385 2.71,452.04 C2.89953918,451.072529 2.89953918,450.077471 2.71,449.11 L3.4,448.81 Z M5,450.27 C5.14110108,450.737111 5.24147623,451.215565 5.3,451.7 L9.14,455.54 L8.63,456.05 L5.41,452.8 C5.45311,453.329123 5.45311,453.860877 5.41,454.39 C5.15052889,454.290216 4.88284751,454.213257 4.61,454.16 C4.78958405,452.95226 4.72153693,451.720607 4.41,450.54 L5,450.27 Z M9.41,447.91 L10.19,448.69 L11.14,447.74 L11.62,448.22 L10.67,449.17 L12.45,450.95 C12.77,451.27 12.85,451.47 12.71,451.78 C12.4373821,452.229888 12.1004901,452.637527 11.71,452.99 C11.5026501,452.850151 11.2772536,452.739135 11.04,452.66 C11.48,452.25 11.87,451.86 11.97,451.75 C12.07,451.64 12.08,451.57 11.97,451.47 L10.19,449.69 L7.33,452.55 L6.85,452.07 L9.71,449.21 L8.93,448.43 L6,451.36 L5.51,450.87 L7.51,448.87 L6.61,447.97 L5,449.56 L4.52,449.08 L6.07,447.53 L5.19,446.65 L5.71,446.13 L6.59,447.01 L8.2,445.4 L8.68,445.88 L7.06,447.5 L7.96,448.4 L9.96,446.4 L10.45,446.89 L9.41,447.91 Z M8.41,451.78 C9.10945497,451.816552 9.80154401,451.940859 10.47,452.15 L10.29,452.86 C9.62433639,452.633393 8.93170146,452.495539 8.23,452.45 L8.41,451.78 Z" id="Shape" fill="#FFFFFF" fill-rule="nonzero"></path>
            <path d="M10.55,441.51 C10.849017,442.224672 11.0963198,442.959897 11.29,443.71 L16.17,448.59 L15.67,449.09 L11.55,445 C11.642826,445.561916 11.689648,446.130469 11.69,446.7 C11.4287055,446.599921 11.1570054,446.52948 10.88,446.49 C10.8775273,444.903006 10.5366107,443.33479 9.88,441.89 L10.55,441.51 Z M16.55,443.02 C16.9935276,443.543132 17.299443,444.168712 17.44,444.84 C18.6625337,444.443007 19.799111,443.818738 20.79,443 C20.8026496,443.266713 20.8566256,443.529846 20.95,443.78 C19.9218857,444.583484 18.7464611,445.177991 17.49,445.53 C17.4514354,446.397348 17.2007838,447.24201 16.76,447.99 C16.5170102,447.915577 16.2641271,447.878487 16.01,447.88 C16.4423581,447.219677 16.7098552,446.465198 16.79,445.68 C16.0619164,445.782009 15.3208006,445.737814 14.61,445.55 L14.91,444.97 C15.5125851,445.104508 16.1374149,445.104508 16.74,444.97 C16.6250876,444.43 16.3815229,443.925718 16.03,443.5 L14.32,445.21 L12.38,443.27 L14.13,441.52 L13.44,440.83 L11.44,442.83 L10.96,442.35 L12.96,440.35 L12.2,439.59 L12.72,439.07 L13.48,439.83 L15.48,437.83 L15.96,438.31 L13.96,440.31 L14.65,441 L16.45,439.2 L18.39,441.14 L16.55,443.02 Z M15.62,443.02 C15.52,442.91 15.41,442.8 15.31,442.7 L14.58,441.97 L13.32,443.23 L14.32,444.23 L15.62,443.02 Z M15.1,441.45 L15.83,442.18 C15.94,442.29 16.04,442.39 16.14,442.5 L17.45,441.19 L16.45,440.19 L15.1,441.45 Z" id="Shape" fill="#FFFFFF" fill-rule="nonzero"></path>
            <path d="M27,436.26 C27.34,436.6 27.4,436.85 27.27,437.17 C26.9289312,437.692988 26.5147271,438.16444 26.04,438.57 C25.8255782,438.430019 25.5935607,438.319054 25.35,438.24 C25.87,437.77 26.35,437.24 26.47,437.15 C26.59,437.06 26.61,436.91 26.47,436.78 L25.04,435.35 L23.14,437.25 L25.22,439.33 L24.7,439.85 L22.61,437.76 L20.84,439.53 C21.5711295,440.400977 22.0270771,441.469495 22.15,442.6 C21.8984019,442.581264 21.6454194,442.601503 21.4,442.66 C21.163973,441.096524 20.3635795,439.673603 19.15,438.66 L16.61,436.12 L21.76,431 L27,436.26 Z M17.63,436.15 L18.76,437.28 L20.45,435.59 L19.32,434.46 L17.63,436.15 Z M22.12,437.26 L21,436.09 L19.31,437.78 L19.73,438.2 C19.96,438.43 20.22,438.7 20.46,438.99 L22.12,437.26 Z M21.75,432 L19.85,433.9 L21,435.07 L22.9,433.17 L21.75,432 Z M24.55,434.8 L23.38,433.63 L21.48,435.53 L22.65,436.7 L24.55,434.8 Z" id="Shape" fill="#FFFFFF" fill-rule="nonzero"></path>
            <path d="M6.21,499.18 C6.32,499.6 6.4,500.02 6.49,500.46 L11.13,505.1 L10.57,505.66 L6.64,501.73 C6.75561286,503.284296 6.58616184,504.846634 6.14,506.34 C5.87334105,506.281929 5.60248807,506.245147 5.33,506.23 C5.99912096,504.165858 6.07534604,501.955331 5.55,499.85 L2.41,503 L1.89,502.48 L7.89,496.48 L8.41,497 L6.21,499.18 Z M7.42,500.33 C8.82284097,500.012629 10.2525241,499.828478 11.69,499.78 L11.69,500.6 C10.2451708,500.614041 8.80510413,500.768094 7.39,501.06 L7.42,500.33 Z" id="Shape" fill="#FFFFFF" fill-rule="nonzero"></path>
            <path d="M15.64,489.75 L14.77,490.62 L19.45,495.3 C19.83,495.68 19.92,495.96 19.73,496.3 C19.3486418,496.87861 18.8912097,497.403312 18.37,497.86 C18.1202839,497.719882 17.8551858,497.609145 17.58,497.53 C18.17,496.99 18.75,496.41 18.9,496.24 C19.05,496.07 19.05,495.98 18.9,495.83 L14.23,491.16 L9.39,496 L8.87,495.48 L15.12,489.23 L15.64,489.75 Z M14.27,498.43 L14.84,499 L14.33,499.51 L11.14,496.32 L14,493.45 L16.62,496.07 L14.27,498.43 Z M12.16,496.32 L13.77,497.93 L15.61,496.09 L14,494.47 L12.16,496.32 Z" id="Shape" fill="#FFFFFF" fill-rule="nonzero"></path>
            <path d="M27,487.82 C27.34,488.16 27.4,488.41 27.27,488.73 C26.9289312,489.252988 26.5147271,489.72444 26.04,490.13 C25.8253507,489.990424 25.5933883,489.879485 25.35,489.8 C25.87,489.33 26.35,488.8 26.47,488.71 C26.59,488.62 26.61,488.47 26.47,488.34 L25.04,486.91 L23.14,488.81 L25.22,490.9 L24.7,491.42 L22.61,489.34 L20.84,491.11 C21.5711295,491.980977 22.0270771,493.049495 22.15,494.18 C21.8984019,494.161264 21.6454194,494.181503 21.4,494.24 C21.163973,492.676524 20.3635795,491.253603 19.15,490.24 L16.61,487.7 L21.75,482.56 L27,487.82 Z M17.63,487.71 L18.76,488.84 L20.45,487.15 L19.33,486 L17.63,487.71 Z M22.12,488.82 L21,487.65 L19.31,489.34 L19.73,489.76 C19.96,489.99 20.22,490.26 20.46,490.54 L22.12,488.82 Z M21.75,483.6 L19.85,485.5 L21,486.63 L22.9,484.73 L21.75,483.6 Z M24.55,486.4 L23.38,485.23 L21.48,487.13 L22.65,488.3 L24.55,486.4 Z" id="Shape" fill="#FFFFFF" fill-rule="nonzero"></path>
            <path d="M7,555.81 C6.68,555.69 6.05,555.5 5.52,555.34 L9.21,559 L8.71,559.5 L5.34,556.13 C5.84252853,557.00053 6.21322475,557.94075 6.44,558.92 C6.1926794,558.805515 5.92986831,558.728019 5.66,558.69 C5.35697738,557.374142 4.81829523,556.123993 4.07,555 L3.16,555.9 L2.66,555.41 L3.6,554.47 L2.24,553.11 L2.74,552.61 L4.1,553.97 L4.9,553.17 L5.4,553.66 L4.6,554.46 L4.88,554.74 C5.33,554.81 6.64,555.09 6.96,555.16 L7,555.81 Z M9.11,550.64 C9.58844808,552.482293 9.50486539,554.425591 8.87,556.22 C8.64521926,556.157313 8.41332866,556.123706 8.18,556.12 C8.55610585,555.088359 8.74572542,553.998046 8.74,552.9 C8.20408866,553.442222 7.72184604,554.034979 7.3,554.67 C7.10041602,554.535498 6.88964024,554.418401 6.67,554.32 C6.81601621,554.129145 6.90292792,553.899698 6.92,553.66 C6.82325125,552.984978 6.68295861,552.316918 6.5,551.66 L5.16,553 L4.67,552.51 L6.51,550.67 C6.1295642,550.469738 5.73114479,550.305683 5.32,550.18 L5.66,549.54 C6.14037464,549.657635 6.60163541,549.842813 7.03,550.09 L7.03,550.19 L8.61,548.61 L9.1,549.1 L7.1,551.1 C7.26,551.73 7.45,552.61 7.59,553.25 L8.69,552 C8.64106523,551.659968 8.56072165,551.325203 8.45,551 L9.11,550.64 Z M10.94,551.35 C11.1580454,552.161192 11.2524413,553.000641 11.22,553.84 C12.038835,553.732535 12.864178,553.682413 13.69,553.69 L13.63,554.44 C12.8089098,554.414873 11.987059,554.44494 11.17,554.53 C11.0251089,555.783034 10.6630291,557.001246 10.1,558.13 C9.85809088,558.064777 9.6101238,558.024566 9.36,558.01 C10.4441295,556.0942 10.7485419,553.834385 10.21,551.7 L10.94,551.35 Z" id="Shape" fill="#FFFFFF" fill-rule="nonzero"></path>
            <path d="M10.48,547.55 C10.6011135,548.02454 10.6715079,548.510597 10.69,549 C10.4500518,548.908185 10.2024082,548.837908 9.95,548.79 C9.92718458,547.858948 9.6911332,546.945532 9.26,546.12 L9.85,545.8 C10.0155613,546.120742 10.1527507,546.45535 10.26,546.8 L11.72,545.34 L12.22,545.84 L10.48,547.55 Z M13.39,548.91 L14.39,547.91 L14.87,548.39 L13.87,549.39 L15.36,550.88 L15.74,549.66 C15.9105486,549.792817 16.0949527,549.906813 16.29,550 C16.0121614,550.76755 15.8144431,551.561774 15.7,552.37 C15.4818506,552.269599 15.2487954,552.205424 15.01,552.18 C15.0831308,551.858782 14.9933632,551.522153 14.77,551.28 L13.38,549.89 L12.38,550.89 L11.9,550.41 L12.9,549.41 L11.9,548.41 L11.2,549.11 L10.73,548.64 L12.73,546.64 L13.2,547.11 L12.37,547.94 L13.39,548.91 Z M13.47,545.36 C12.8327654,545.068197 12.1605522,544.859811 11.47,544.74 L11.69,544.14 C12.3786492,544.236678 13.0512772,544.425014 13.69,544.7 L13.47,545.36 Z M16.47,542.89 L20.26,546.68 C20.54,546.96 20.63,547.16 20.52,547.44 C20.2548289,547.874771 19.9165175,548.260446 19.52,548.58 C19.3250133,548.440024 19.1089728,548.332004 18.88,548.26 C19.29,547.88 19.64,547.52 19.73,547.42 C19.82,547.32 19.84,547.24 19.73,547.14 L18.86,546.27 L16.51,548.62 L18.05,550.16 L17.57,550.64 L13.12,546.19 L14.56,544.75 L12.56,542.75 L13.05,542.26 L15.05,544.26 L15.95,543.35 L16.47,542.89 Z M14.14,546.22 L14.89,546.97 L17.24,544.62 L16.49,543.87 L14.14,546.22 Z M15.08,541.1 C15.3041202,541.789836 15.4779095,542.495019 15.6,543.21 L15.03,543.42 C14.8943345,542.712956 14.6934767,542.019997 14.43,541.35 L15.08,541.1 Z M18.46,545.83 L17.7,545.07 L15.35,547.42 L16.11,548.18 L18.46,545.83 Z" id="Shape" fill="#FFFFFF" fill-rule="nonzero"></path>
            <path d="M22.63,535.21 L25.94,538.52 L25.4,539.06 L25,538.66 L23,540.66 L25.26,543 L24.72,543.54 L22.43,541.25 L20.43,543.25 L20.87,543.69 L20.35,544.21 L17,540.86 L19.54,538.32 L18.28,537.06 L18.82,536.52 L20.08,537.78 L22.63,535.21 Z M21.91,540.71 L20,538.84 L18,540.84 L19.87,542.71 L21.91,540.71 Z M24.48,538.14 L22.61,536.27 L20.61,538.27 L22.48,540.14 L24.48,538.14 Z" id="Shape" fill="#FFFFFF" fill-rule="nonzero"></path>
            <polygon id="Rectangle-6-4" fill="#B9B9B9" fill-rule="nonzero" points="0.4 600.94 18.48 582.86 43.89 582.56 0.23 626.57"></polygon>
            <polygon id="Rectangle-6-5" fill="#B9B9B9" fill-rule="nonzero" points="0.4 652.94 18.48 634.86 43.89 634.56 0.23 678.57"></polygon>
            <path d="M11.8,607 C12.57,606.23 12.45,605.88 11.41,604.65 C11.6742725,604.589827 11.925151,604.481339 12.15,604.33 C13.31,605.76 13.46,606.33 12.31,607.52 L9.67,610.16 C8.54,611.29 7.99,611.45 7.12,610.58 L3.59,607.05 L4.12,606.52 L5.28,607.68 L9,604 L7.15,602.15 L2.56,606.74 L2,606.26 L7.13,601.13 L10.37,604.37 L9.83,604.91 L9.48,604.56 L5.79,608.25 L7.66,610.12 C8.11,610.57 8.36,610.51 9.12,609.75 L11.8,607 Z" id="Shape" fill="#FFFFFF" fill-rule="nonzero"></path>
            <path d="M11.24,599.46 C10.5026847,599.314941 9.75076231,599.257875 9,599.29 L9.13,598.62 C9.87843914,598.574057 10.6296633,598.610947 11.37,598.73 L11.24,599.46 Z M14.82,602.56 C15.04,602.56 15.31,602.49 15.7,602.4 C16.5500157,602.108467 17.3039539,601.589702 17.88,600.9 C18.71,600.07 19.7,598.96 20.31,598.2 C20.4008972,598.464289 20.5361667,598.711156 20.71,598.93 C20.24,599.47 19.04,600.74 18.36,601.42 C17.7457508,602.167204 16.9248774,602.716772 16,603 C15.53,603.11 15.06,603.11 14.9,603.26 C14.74,603.41 14.74,604.26 14.9,605.09 L14.04,604.96 C13.9866385,604.320901 14.0649179,603.677648 14.27,603.07 L12.43,601.23 L11.43,602.23 L10.93,601.73 L12.41,600.25 L14.82,602.56 Z M14.82,596.11 L12.11,598.82 L11.61,598.32 L14.32,595.61 L13.08,594.37 L13.6,593.85 L14.84,595.09 L15.84,594.09 L16.34,594.59 L15.34,595.59 L18.13,598.38 C18.48,598.73 18.55,598.98 18.38,599.3 C18.0352658,599.835047 17.6179527,600.319669 17.14,600.74 C16.9215222,600.589582 16.6823603,600.471685 16.43,600.39 C16.95,599.9 17.43,599.39 17.59,599.26 C17.75,599.13 17.73,599.02 17.59,598.9 L14.82,596.11 Z M13.41,598.63 C14.2145291,598.695687 15.0132698,598.819341 15.8,599 L15.62,599.71 C14.8333745,599.497966 14.0306838,599.350807 13.22,599.27 L13.41,598.63 Z" id="Shape" fill="#FFFFFF" fill-rule="nonzero"></path>
            <path d="M23.51,593.35 L20.06,596.8 L19.59,596.33 L20.28,595.64 L17.41,592.77 L16.82,593.36 L16.35,592.89 L16.94,592.3 L16.08,591.44 L16.56,590.96 L17.42,591.82 L18.7,590.54 L17.84,589.68 L18.33,589.19 L19.19,590.05 L19.71,589.53 L20.18,590 L19.66,590.52 L22.53,593.39 L23.05,592.87 L23.51,593.35 Z M17.89,592.29 L18.51,592.91 L19.79,591.63 L19.17,591.01 L17.89,592.29 Z M19.62,594 L20.9,592.72 L20.21,592.03 L18.93,593.31 L19.62,594 Z M27.33,591.56 C27.64,591.87 27.72,592.1 27.61,592.38 C27.3456001,592.818221 27.0072614,593.207311 26.61,593.53 C26.4046119,593.381798 26.1789661,593.263924 25.94,593.18 C26.32,592.81 26.68,592.46 26.77,592.35 C26.86,592.24 26.88,592.17 26.77,592.05 L25.07,590.35 L23.58,591.84 C24.420604,592.736793 25.0373664,593.819553 25.38,595 C25.1321189,594.993897 24.8850758,595.031123 24.65,595.11 C24.134231,593.580815 23.2193671,592.21715 22,591.16 L19.45,588.61 L21.9,586.17 L27.33,591.56 Z M20.75,595.13 L22,593.88 L21.29,593.17 L20,594.45 L20.75,595.13 Z M20.43,588.56 L21.55,589.69 L23,588.28 L21.88,587.16 L20.43,588.56 Z M21.82,595.56 C22.1025701,596.351681 22.2315413,597.189994 22.2,598.03 C21.9537965,598.049986 21.7096456,598.09012 21.47,598.15 C21.5368201,597.394419 21.4378483,596.63336 21.18,595.92 L21.82,595.56 Z M24.65,589.88 L23.48,588.71 L22,590.19 L22.47,590.66 L23.16,591.37 L24.65,589.88 Z M22.65,594.52 C23.2566423,594.546874 23.8577447,594.647617 24.44,594.82 L24.26,595.49 C23.6753695,595.30663 23.0712362,595.192516 22.46,595.15 L22.65,594.52 Z" id="Shape" fill="#FFFFFF" fill-rule="nonzero"></path>
            <path d="M11.8,659.26 C12.57,658.49 12.45,658.14 11.41,656.91 C11.6742725,656.849827 11.925151,656.741339 12.15,656.59 C13.31,658.02 13.46,658.59 12.31,659.78 L9.67,662.42 C8.54,663.55 7.99,663.71 7.12,662.84 L3.59,659.31 L4.12,658.78 L5.28,659.94 L9,656.25 L7.11,654.4 L2.51,659 L2,658.47 L7.13,653.34 L10.37,656.58 L9.83,657.12 L9.48,656.77 L5.79,660.46 L7.66,662.33 C8.11,662.78 8.36,662.72 9.12,661.96 L11.8,659.26 Z" id="Shape" fill="#FFFFFF" fill-rule="nonzero"></path>
            <path d="M10.55,649.31 C10.8493088,650.024562 11.0966188,650.759808 11.29,651.51 L16.17,656.39 L15.67,656.89 L11.55,652.77 C11.6434073,653.331844 11.6902333,653.900445 11.69,654.47 C11.4285292,654.370473 11.1568913,654.300048 10.88,654.26 C10.8766096,652.673106 10.5357346,651.10508 9.88,649.66 L10.55,649.31 Z M16.55,650.82 C16.9931723,651.343364 17.2990415,651.96885 17.44,652.64 C18.6635771,652.240655 19.8003255,651.612898 20.79,650.79 C20.8028098,651.056693 20.8567808,651.319801 20.95,651.57 C19.9210579,652.372179 18.745901,652.966551 17.49,653.32 C17.4518408,654.187416 17.2011606,655.032174 16.76,655.78 C16.5169094,655.706025 16.2640948,655.668946 16.01,655.67 C16.4399292,655.008476 16.7072119,654.254602 16.79,653.47 C16.0619271,653.572279 15.3207579,653.528081 14.61,653.34 L14.91,652.76 C15.5125851,652.894508 16.1374149,652.894508 16.74,652.76 C16.6243406,652.220256 16.380858,651.716144 16.03,651.29 L14.32,653 L12.38,651.06 L14.13,649.31 L13.44,648.62 L11.44,650.62 L10.96,650.14 L12.96,648.14 L12.2,647.38 L12.72,646.86 L13.48,647.62 L15.48,645.62 L15.96,646.1 L13.96,648.1 L14.65,648.79 L16.45,646.99 L18.38,649 L16.55,650.82 Z M15.62,650.82 L15.31,650.49 L14.58,649.76 L13.32,651.02 L14.32,652.02 L15.62,650.82 Z M15.1,649.25 L15.83,649.98 L16.14,650.31 L17.44,649 L16.44,648 L15.1,649.25 Z" id="Shape" fill="#FFFFFF" fill-rule="nonzero"></path>
            <path d="M27,644.06 C27.34,644.4 27.4,644.65 27.27,644.96 C26.9290411,645.483072 26.514824,645.954538 26.04,646.36 C25.8259928,646.219283 25.5938734,646.108269 25.35,646.03 C25.87,645.56 26.35,645.03 26.47,644.94 C26.59,644.85 26.61,644.7 26.47,644.57 L25.04,643.14 L23.14,645.04 L25.22,647.13 L24.7,647.65 L22.62,645.57 L20.85,647.34 C21.5821705,648.210337 22.0382593,649.279186 22.16,650.41 C21.9084005,650.390611 21.655317,650.410858 21.41,650.47 C21.173973,648.906524 20.3735795,647.483603 19.16,646.47 L16.62,644 L21.76,638.86 L27,644.06 Z M17.63,643.95 L18.76,645.08 L20.45,643.39 L19.32,642.26 L17.63,643.95 Z M22.12,645.06 L21,643.88 L19.31,645.57 L19.73,645.99 C19.96,646.22 20.22,646.49 20.46,646.77 L22.12,645.06 Z M21.75,639.84 L19.85,641.74 L21,642.87 L22.9,640.97 L21.75,639.84 Z M24.55,642.64 L23.38,641.47 L21.48,643.37 L22.65,644.54 L24.55,642.64 Z" id="Shape" fill="#FFFFFF" fill-rule="nonzero"></path>
        </g>
        <g id="Artboard"></g>
    </g>
</svg>