<?xml version="1.0" encoding="UTF-8"?>
<svg width="22px" height="22px" viewBox="0 0 22 22" version="1.1" xmlns="http://www.w3.org/2000/svg" xmlns:xlink="http://www.w3.org/1999/xlink">
    <!-- Generator: Sketch 47 (45396) - http://www.bohemiancoding.com/sketch -->
    <title>add</title>
    <desc>Created with Sketch.</desc>
    <defs></defs>
    <g id="门店首页（自助式）-" stroke="none" stroke-width="1" fill="none" fill-rule="evenodd">
        <g id="01-门店首页（买单状态-自助式）-2" transform="translate(-116.000000, -407.000000)" fill="#48B5B6">
            <g id="Group-4" transform="translate(93.500000, 383.335938)">
                <path d="M32.5916797,33.8264844 L23.3516797,33.8264844 L23.3516797,33.8264844 C22.8656691,33.8264844 22.4716797,34.2204738 22.4716797,34.7064844 C22.4716797,35.192495 22.8656691,35.5864844 23.3516797,35.5864844 L32.5916797,35.5864844 L32.5916797,44.8264844 C32.5916797,45.312495 32.9856691,45.7064844 33.4716797,45.7064844 L33.4716797,45.7064844 C33.9576903,45.7064844 34.3516797,45.312495 34.3516797,44.8264844 L34.3516797,44.8264844 L34.3516797,35.5864844 L43.5916797,35.5864844 C44.0776903,35.5864844 44.4716797,35.192495 44.4716797,34.7064844 L44.4716797,34.7064844 C44.4716797,34.2204738 44.0776903,33.8264844 43.5916797,33.8264844 L43.5916797,33.8264844 L34.3516797,33.8264844 L34.3516797,24.5864844 L34.3516797,24.5864844 C34.3516797,24.1004738 33.9576903,23.7064844 33.4716797,23.7064844 C32.9856691,23.7064844 32.5916797,24.1004738 32.5916797,24.5864844 L32.5916797,33.8264844 Z" id="add"></path>
            </g>
        </g>
    </g>
</svg>