<?xml version="1.0" encoding="UTF-8"?>
<svg width="13px" height="13px" viewBox="0 0 13 13" version="1.1" xmlns="http://www.w3.org/2000/svg" xmlns:xlink="http://www.w3.org/1999/xlink">
    <!-- Generator: Sketch 44.1 (41455) - http://www.bohemiancoding.com/sketch -->
    <title>Combined Shape</title>
    <desc>Created with Sketch.</desc>
    <defs></defs>
    <g id="门店首页（自助式）-" stroke="none" stroke-width="1" fill="none" fill-rule="evenodd">
        <path d="M5,5.5 L-1,5.5 L-1,5.5 C-1.55228475,5.5 -2,5.94771525 -2,6.5 C-2,7.05228475 -1.55228475,7.5 -1,7.5 L5,7.5 L5,13.5 C5,14.0522847 5.44771525,14.5 6,14.5 C6.55228475,14.5 7,14.0522847 7,13.5 L7,7.5 L13,7.5 C13.5522847,7.5 14,7.05228475 14,6.5 C14,5.94771525 13.5522847,5.5 13,5.5 L7,5.5 L7,-0.5 L7,-0.5 C7,-1.05228475 6.55228475,-1.5 6,-1.5 C5.44771525,-1.5 5,-1.05228475 5,-0.5 L5,5.5 Z" id="Combined-Shape" fill="#E75040" fill-rule="nonzero" transform="translate(6.000000, 7.500000) rotate(45.000000) translate(-6.000000, -7.500000) "></path>
    </g>
</svg>