<?xml version="1.0" encoding="UTF-8"?>
<svg width="29px" height="17px" viewBox="0 0 29 17" version="1.1" xmlns="http://www.w3.org/2000/svg" xmlns:xlink="http://www.w3.org/1999/xlink">
    <!-- Generator: Sketch 48.1 (47250) - http://www.bohemiancoding.com/sketch -->
    <title>delete</title>
    <desc>Created with Sketch.</desc>
    <defs></defs>
    <g id="01-数字键盘" stroke="none" stroke-width="1" fill="none" fill-rule="evenodd" transform="translate(-284.000000, -621.000000)">
        <g id="delete" transform="translate(284.000000, 621.000000)">
            <path d="M8.92682039,1.57573824e-15 L26.5860271,0 C27.6905966,-2.16501571e-15 28.5860271,0.8954305 28.5860271,2 L28.5860271,15 C28.5860271,16.1045695 27.6905966,17 26.5860271,17 L8.90187763,17 C8.37889689,17 7.87672096,16.7951498 7.50296063,16.4293464 L1.0150566,10.0801979 C0.225650358,9.30759737 0.212026631,8.0413407 0.984627153,7.25193446 C0.984732823,7.25182649 0.984838506,7.25171854 0.984944201,7.25161059 L7.497791,0.600759135 C7.87400208,0.216538873 8.3890844,5.42869707e-16 8.92682039,4.4408921e-16 Z" id="Rectangle-10" fill="#000000"></path>
            <path d="M16.5,8 L16.5,3 C16.5,2.72385763 16.7238576,2.5 17,2.5 C17.2761424,2.5 17.5,2.72385763 17.5,3 L17.5,8 L22.5,8 C22.7761424,8 23,8.22385763 23,8.5 C23,8.77614237 22.7761424,9 22.5,9 L17.5,9 L17.5,14 C17.5,14.2761424 17.2761424,14.5 17,14.5 C16.7238576,14.5 16.5,14.2761424 16.5,14 L16.5,9 L11.5,9 C11.2238576,9 11,8.77614237 11,8.5 C11,8.22385763 11.2238576,8 11.5,8 L16.5,8 Z" id="Combined-Shape" fill="#FFFFFF" fill-rule="nonzero" transform="translate(17.000000, 8.500000) rotate(45.000000) translate(-17.000000, -8.500000) "></path>
        </g>
    </g>
</svg>