<?xml version="1.0" encoding="UTF-8"?>
<svg width="48px" height="34px" viewBox="0 0 48 34" version="1.1" xmlns="http://www.w3.org/2000/svg" xmlns:xlink="http://www.w3.org/1999/xlink">
    <!-- Generator: Sketch 49 (51002) - http://www.bohemiancoding.com/sketch -->
    <title>SBH5/Overrides/Tab Bar/Icons/Active/coupon</title>
    <desc>Created with Sketch.</desc>
    <defs>
        <linearGradient x1="50%" y1="0%" x2="50%" y2="100%" id="linearGradient-1">
            <stop stop-color="#FFF5F5" offset="0%"></stop>
            <stop stop-color="#FFE8E8" offset="100%"></stop>
        </linearGradient>
        <rect id="path-2" x="0.483870968" y="0.0967741935" width="28.3156923" height="28.3458591" rx="14.1578462"></rect>
    </defs>
    <g id="SBH5/Overrides/Tab-Bar/Icons/Active/coupon" stroke="none" stroke-width="1" fill="none" fill-rule="evenodd">
        <g id="Group-4" transform="translate(9.000000, 2.500000)">
            <mask id="mask-3" fill="white">
                <use xlink:href="#path-2"></use>
            </mask>
            <g id="Rectangle-8">
                <use fill="url(#linearGradient-1)" fill-rule="evenodd" xlink:href="#path-2"></use>
                <rect stroke="#FFD7D7" stroke-width="1" x="0.983870968" y="0.596774194" width="27.3156923" height="27.3458591" rx="13.6578462"></rect>
            </g>
            <path d="M22.6637228,13.0741933 L22.6637228,10.3440761 C22.6637228,9.4860392 21.9589288,8.78400905 21.0975138,8.78400905 L18.9439764,8.78400905 C18.9439764,9.09602245 18.6698899,9.36903418 18.3566481,9.36903418 C18.0434063,9.36903418 17.7693197,9.09602245 17.7693197,8.78400905 L8.56784183,8.78400905 C7.70642688,8.78400905 7.00163283,9.4860392 7.00163283,10.3440761 L7.00163283,13.0741933 C7.86304778,13.0741933 8.56784183,13.7762235 8.56784183,14.6342603 C8.56784183,15.4922972 7.86304778,16.1943273 7.00163283,16.1943273 L7.00163283,18.9244446 C7.00163283,19.7824814 7.70642688,20.4845116 8.56784183,20.4845116 L17.7693197,20.4845116 C17.7693197,20.1724982 18.0434063,19.8994864 18.3566481,19.8994864 C18.6698899,19.8994864 18.9439764,20.1724982 18.9439764,20.4845116 L21.0975138,20.4845116 C21.9589288,20.4845116 22.6637228,19.7824814 22.6637228,18.9244446 L22.6637228,16.1943273 C21.8023079,16.1943273 21.0975138,15.4922972 21.0975138,14.6342603 C21.0975138,13.7762235 21.8023079,13.0741933 22.6637228,13.0741933 Z M18.3566481,19.1194529 C18.0434063,19.1194529 17.7693197,18.8464412 17.7693197,18.5344278 C17.7693197,18.2224144 18.0434063,17.9494027 18.3566481,17.9494027 C18.6698899,17.9494027 18.9439764,18.2224144 18.9439764,18.5344278 C18.9439764,18.8464412 18.6698899,19.1194529 18.3566481,19.1194529 Z M18.3566481,17.1693692 C18.0434063,17.1693692 17.7693197,16.8963575 17.7693197,16.5843441 C17.7693197,16.2723307 18.0434063,15.9993189 18.3566481,15.9993189 C18.6698899,15.9993189 18.9439764,16.2723307 18.9439764,16.5843441 C18.9439764,16.8963575 18.6698899,17.1693692 18.3566481,17.1693692 Z M18.3566481,15.2192854 C18.0434063,15.2192854 17.7693197,14.9462737 17.7693197,14.6342603 C17.7693197,14.3222469 18.0434063,14.0492352 18.3566481,14.0492352 C18.6698899,14.0492352 18.9439764,14.3222469 18.9439764,14.6342603 C18.9439764,14.9462737 18.6698899,15.2192854 18.3566481,15.2192854 Z M18.3566481,13.2692017 C18.0434063,13.2692017 17.7693197,12.99619 17.7693197,12.6841766 C17.7693197,12.3721632 18.0434063,12.0991514 18.3566481,12.0991514 C18.6698899,12.0991514 18.9439764,12.3721632 18.9439764,12.6841766 C18.9439764,12.99619 18.6698899,13.2692017 18.3566481,13.2692017 Z M18.3566481,11.3191179 C18.0434063,11.3191179 17.7693197,11.0461062 17.7693197,10.7340928 C17.7693197,10.4220794 18.0434063,10.1490677 18.3566481,10.1490677 C18.6698899,10.1490677 18.9439764,10.4220794 18.9439764,10.7340928 C18.9439764,11.0461062 18.6698899,11.3191179 18.3566481,11.3191179 Z M13.6580211,11.9041431 L14.5585913,13.6982201 L16.5555077,13.9712318 L15.1067644,15.3752921 L15.4200062,17.3643776 L13.6580211,16.4283374 L11.896036,17.3643776 L12.2092778,15.3752921 L10.7605344,13.9712318 L12.7574509,13.6982201 L13.6580211,11.9041431 Z" id="Combined-Shape" fill="#F75D5D" fill-rule="nonzero" mask="url(#mask-3)"></path>
        </g>
    </g>
</svg>