<?xml version="1.0" encoding="UTF-8"?>
<svg width="48px" height="34px" viewBox="0 0 48 34" version="1.1" xmlns="http://www.w3.org/2000/svg" xmlns:xlink="http://www.w3.org/1999/xlink">
    <!-- Generator: Sketch 49 (51002) - http://www.bohemiancoding.com/sketch -->
    <title>SBH5/Overrides/Tab Bar/Icons/Active/sell</title>
    <desc>Created with Sketch.</desc>
    <defs>
        <linearGradient x1="50%" y1="0%" x2="50%" y2="100%" id="linearGradient-1">
            <stop stop-color="#FFF5F5" offset="0%"></stop>
            <stop stop-color="#FFE8E8" offset="100%"></stop>
        </linearGradient>
        <rect id="path-2" x="0" y="0" width="29.2595487" height="29.2907211" rx="14.6297744"></rect>
    </defs>
    <g id="SBH5/Overrides/Tab-Bar/Icons/Active/sell" stroke="none" stroke-width="1" fill="none" fill-rule="evenodd">
        <g id="Group-2" transform="translate(9.000000, 2.500000)">
            <mask id="mask-3" fill="white">
                <use xlink:href="#path-2"></use>
            </mask>
            <g id="Rectangle-8">
                <use fill="url(#linearGradient-1)" fill-rule="evenodd" xlink:href="#path-2"></use>
                <rect stroke="#FFD7D7" stroke-width="1" x="0.5" y="0.5" width="28.2595487" height="28.2907211" rx="14.1297744"></rect>
            </g>
            <path d="M9.48439694,12.1679859 L6.28371582,13.8506836 L6.89499152,10.2866728 L4.3055861,7.76262632 L7.88405638,7.24264415 L9.48439694,4 L11.0847375,7.24264415 L14.6632078,7.76262632 L12.0738024,10.2866728 L12.6850781,13.8506836 L9.48439694,12.1679859 Z M20.129918,23.5247828 L15.1055299,26.1662599 L16.0651026,20.5715215 L12.0002873,16.6093058 L17.6177239,15.7930445 L20.129918,10.7027834 L22.642112,15.7930445 L28.2595487,16.6093058 L24.1947334,20.5715215 L25.1543061,26.1662599 L20.129918,23.5247828 Z" id="Combined-Shape" fill="#F75D5D" mask="url(#mask-3)"></path>
        </g>
    </g>
</svg>