<?xml version="1.0" encoding="UTF-8"?>
<svg width="32px" height="33px" viewBox="0 0 32 33" version="1.1" xmlns="http://www.w3.org/2000/svg" xmlns:xlink="http://www.w3.org/1999/xlink">
    <!-- Generator: Sketch 47 (45396) - http://www.bohemiancoding.com/sketch -->
    <title>ico-registedCoupon</title>
    <desc>Created with Sketch.</desc>
    <defs>
        <rect id="path-1" x="0" y="0" width="30" height="30" rx="15"></rect>
    </defs>
    <g id="门店首页（自助式）-" stroke="none" stroke-width="1" fill="none" fill-rule="evenodd">
        <g id="01-门店首页（买单状态-自助式）-2" transform="translate(-63.000000, -599.000000)">
            <g id="ico-registedCoupon" transform="translate(64.000000, 600.100000)">
                <mask id="mask-2" fill="white">
                    <use xlink:href="#path-1"></use>
                </mask>
                <g id="Rectangle-8">
                    <use fill="#FFE8E8" fill-rule="evenodd" xlink:href="#path-1"></use>
                    <rect stroke="#FFFFFF" stroke-width="1" x="-0.5" y="-0.5" width="31" height="31" rx="15.5"></rect>
                </g>
                <path d="M22.9191802,13.4099998 L22.9191802,10.5888786 C22.9191802,9.70224051 22.1908931,8.97680935 21.3007643,8.97680935 L19.0754423,8.97680935 C19.0754423,9.2992232 18.7922195,9.58133532 18.4685363,9.58133532 C18.1448531,9.58133532 17.8616304,9.2992232 17.8616304,8.97680935 L8.35343656,8.97680935 C7.46330778,8.97680935 6.73502059,9.70224051 6.73502059,10.5888786 L6.73502059,13.4099998 C7.62514938,13.4099998 8.35343656,14.1354309 8.35343656,15.022069 C8.35343656,15.9087071 7.62514938,16.6341382 6.73502059,16.6341382 L6.73502059,19.4552594 C6.73502059,20.3418975 7.46330778,21.0673286 8.35343656,21.0673286 L17.8616304,21.0673286 C17.8616304,20.7449148 18.1448531,20.4628027 18.4685363,20.4628027 C18.7922195,20.4628027 19.0754423,20.7449148 19.0754423,21.0673286 L21.3007643,21.0673286 C22.1908931,21.0673286 22.9191802,20.3418975 22.9191802,19.4552594 L22.9191802,16.6341382 C22.0290515,16.6341382 21.3007643,15.9087071 21.3007643,15.022069 C21.3007643,14.1354309 22.0290515,13.4099998 22.9191802,13.4099998 Z M18.4685363,19.656768 C18.1448531,19.656768 17.8616304,19.3746559 17.8616304,19.0522421 C17.8616304,18.7298282 18.1448531,18.4477161 18.4685363,18.4477161 C18.7922195,18.4477161 19.0754423,18.7298282 19.0754423,19.0522421 C19.0754423,19.3746559 18.7922195,19.656768 18.4685363,19.656768 Z M18.4685363,17.6416815 C18.1448531,17.6416815 17.8616304,17.3595694 17.8616304,17.0371555 C17.8616304,16.7147417 18.1448531,16.4326296 18.4685363,16.4326296 C18.7922195,16.4326296 19.0754423,16.7147417 19.0754423,17.0371555 C19.0754423,17.3595694 18.7922195,17.6416815 18.4685363,17.6416815 Z M18.4685363,15.626595 C18.1448531,15.626595 17.8616304,15.3444828 17.8616304,15.022069 C17.8616304,14.6996551 18.1448531,14.417543 18.4685363,14.417543 C18.7922195,14.417543 19.0754423,14.6996551 19.0754423,15.022069 C19.0754423,15.3444828 18.7922195,15.626595 18.4685363,15.626595 Z M18.4685363,13.6115084 C18.1448531,13.6115084 17.8616304,13.3293963 17.8616304,13.0069824 C17.8616304,12.6845686 18.1448531,12.4024565 18.4685363,12.4024565 C18.7922195,12.4024565 19.0754423,12.6845686 19.0754423,13.0069824 C19.0754423,13.3293963 18.7922195,13.6115084 18.4685363,13.6115084 Z M18.4685363,11.5964219 C18.1448531,11.5964219 17.8616304,11.3143097 17.8616304,10.9918959 C17.8616304,10.6694821 18.1448531,10.3873699 18.4685363,10.3873699 C18.7922195,10.3873699 19.0754423,10.6694821 19.0754423,10.9918959 C19.0754423,11.3143097 18.7922195,11.5964219 18.4685363,11.5964219 Z M13.6132884,12.2009478 L14.5438776,14.0548274 L16.607358,14.3369396 L15.1103232,15.7878019 L15.4340064,17.8431902 L13.6132884,16.8759486 L11.7925705,17.8431902 L12.1162537,15.7878019 L10.6192189,14.3369396 L12.6826993,14.0548274 L13.6132884,12.2009478 Z" id="Combined-Shape" fill="#F75D5D" fill-rule="nonzero" mask="url(#mask-2)"></path>
            </g>
        </g>
    </g>
</svg>