<?xml version="1.0" encoding="UTF-8"?>
<svg width="21px" height="126px" viewBox="0 0 21 126" version="1.1" xmlns="http://www.w3.org/2000/svg" xmlns:xlink="http://www.w3.org/1999/xlink">
    <!-- Generator: Sketch 44.1 (41455) - http://www.bohemiancoding.com/sketch -->
    <title>icons</title>
    <desc>Created with Sketch.</desc>
    <defs></defs>
    <g id="门店首页（自助式）-" stroke="none" stroke-width="1" fill="none" fill-rule="evenodd">
        <g id="icons">
            <g id="Group-4" fill="#E75040">
                <path d="M7,16 C3.13400675,16 0,13.8659932 0,10 C0,6.13400675 3.13400675,6 7,6 C10.8659932,6 14,6.13400675 14,10 C14,13.8659932 10.8659932,16 7,16 Z M7,10 C9.57732883,10 11.2439955,9.42857143 12,8.28571429 C11.2439955,7.42857143 9.57732883,7 7,7 C4.42267117,7 2.7560045,7.42857143 2,8.28571429 C2.7560045,9.42857143 4.42267117,10 7,10 Z" id="Combined-Shape"></path>
                <path d="M3.49275212,0.0712535371 C1.82382387,1.07261049 1.82382387,2.26804603 3.56430466,2.96423835 C4.49049054,3.3347127 4.49049054,3.47261049 3.49275212,4.07125354 C3.25596199,4.21332762 3.17917946,4.52045774 3.32125354,4.75724788 C3.46332762,4.99403801 3.77045774,5.07082054 4.00724788,4.92874646 C5.67617613,3.92738951 5.67617613,2.73195397 3.93569534,2.03576165 C3.00950946,1.6652873 3.00950946,1.52738951 4.00724788,0.928746463 C4.24403801,0.786672383 4.32082054,0.479542255 4.17874646,0.242752122 C4.03667238,0.00596198931 3.72954226,-0.0708205426 3.49275212,0.0712535371 Z" id="Line" fill-rule="nonzero" transform="translate(3.750000, 2.500000) rotate(11.000000) translate(-3.750000, -2.500000) "></path>
                <path d="M6.49275212,0.0712535371 C4.82382387,1.07261049 4.82382387,2.26804603 6.56430466,2.96423835 C7.49049054,3.3347127 7.49049054,3.47261049 6.49275212,4.07125354 C6.25596199,4.21332762 6.17917946,4.52045774 6.32125354,4.75724788 C6.46332762,4.99403801 6.77045774,5.07082054 7.00724788,4.92874646 C8.67617613,3.92738951 8.67617613,2.73195397 6.93569534,2.03576165 C6.00950946,1.6652873 6.00950946,1.52738951 7.00724788,0.928746463 C7.24403801,0.786672383 7.32082054,0.479542255 7.17874646,0.242752122 C7.03667238,0.00596198931 6.72954226,-0.0708205426 6.49275212,0.0712535371 Z" id="Line" fill-rule="nonzero" transform="translate(6.750000, 2.500000) rotate(11.000000) translate(-6.750000, -2.500000) "></path>
                <path d="M9.49275212,0.0712535371 C7.82382387,1.07261049 7.82382387,2.26804603 9.56430466,2.96423835 C10.4904905,3.3347127 10.4904905,3.47261049 9.49275212,4.07125354 C9.25596199,4.21332762 9.17917946,4.52045774 9.32125354,4.75724788 C9.46332762,4.99403801 9.77045774,5.07082054 10.0072479,4.92874646 C11.6761761,3.92738951 11.6761761,2.73195397 9.93569534,2.03576165 C9.00950946,1.6652873 9.00950946,1.52738951 10.0072479,0.928746463 C10.244038,0.786672383 10.3208205,0.479542255 10.1787465,0.242752122 C10.0366724,0.00596198931 9.72954226,-0.0708205426 9.49275212,0.0712535371 Z" id="Line" fill-rule="nonzero" transform="translate(9.750000, 2.500000) rotate(11.000000) translate(-9.750000, -2.500000) "></path>
            </g>
            <path d="M7,40 C3.13400675,40 0,36.8659932 0,33 C0,29.1340068 3.13400675,26 7,26 C10.8659932,26 14,29.1340068 14,33 C14,36.8659932 10.8659932,40 7,40 Z M7,29 C6.44771525,29 6,29.4477153 6,30 L6,30 L6,33 C6,33.5522847 6.44771525,34 7,34 C7.55228475,34 8,33.5522847 8,33 L8,30 C8,29.4477153 7.55228475,29 7,29 Z M7,35 L7,35 C6.44771525,35 6,35.4477153 6,36 L6,36 C6,36.5522847 6.44771525,37 7,37 L7,37 C7.55228475,37 8,36.5522847 8,36 L8,36 C8,35.4477153 7.55228475,35 7,35 L7,35 L7,35 Z" id="Combined-Shape" fill="#F9BA48"></path>
            <path d="M20.2547894,65.7788237 L20.2547894,65.7788237 C20.3483941,65.9344517 20.3978506,66.1126326 20.3978506,66.2942418 C20.3978506,66.8465266 19.9501353,67.2942418 19.3978506,67.2942418 L1.00015011,67.2942418 C0.818540854,67.2942418 0.64036001,67.2447853 0.484731989,67.1511806 C0.0114577398,66.8665231 -0.141446292,66.2520979 0.143211275,65.7788237 L0.143211275,65.7788237 L9.3420615,50.484732 C9.42628736,50.3446973 9.54354755,50.2274371 9.68358222,50.1432113 C10.1568565,49.8585537 10.7712816,50.0114577 11.0559392,50.484732 L11.0559392,50.484732 L20.2547894,65.7788237 Z M10.1322491,53.7602316 C9.30382193,53.7602316 8.63224905,54.4318044 8.63224905,55.2602316 L8.63224905,59.2602316 C8.63224905,60.0886587 9.30382193,60.7602316 10.1322491,60.7602316 C10.9606762,60.7602316 11.6322491,60.0886587 11.6322491,59.2602316 L11.6322491,55.2602316 C11.6322491,54.4318044 10.9606762,53.7602316 10.1322491,53.7602316 Z M10.1321735,62.5939822 C9.3037849,62.5939822 8.63224324,63.2655238 8.63224324,64.0939124 L8.63224324,64.0939124 C8.63224324,64.922301 9.3037849,65.5938427 10.1321735,65.5938427 C10.9605621,65.5938427 11.6321038,64.922301 11.6321038,64.0939124 L11.6321038,64.0939124 C11.6321038,63.2655238 10.9605621,62.5939822 10.1321735,62.5939822 L10.1321735,62.5939822 Z" id="Combined-Shape" fill="#F9BA48"></path>
        </g>
    </g>
</svg>