<?xml version="1.0" encoding="UTF-8"?>
<svg width="286px" height="43px" viewBox="0 0 286 43" version="1.1" xmlns="http://www.w3.org/2000/svg" xmlns:xlink="http://www.w3.org/1999/xlink">
    <!-- Generator: Sketch 47 (45396) - http://www.bohemiancoding.com/sketch -->
    <title>illus</title>
    <desc>Created with Sketch.</desc>
    <defs>
        <linearGradient x1="103.578126%" y1="50%" x2="0%" y2="50%" id="linearGradient-1">
            <stop stop-color="#65DDFB" stop-opacity="0.240177763" offset="0%"></stop>
            <stop stop-color="#2DA2F5" offset="100%"></stop>
        </linearGradient>
        <circle id="path-2" cx="20.8193439" cy="20.8193439" r="20.8193439"></circle>
    </defs>
    <g id="门店首页（自助式）-" stroke="none" stroke-width="1" fill="none" fill-rule="evenodd">
        <g id="03-引导出示券（第一次使用）" transform="translate(-43.000000, -262.000000)">
            <g id="Group-7" transform="translate(25.000000, 232.500000)">
                <g id="Group-6" transform="translate(18.500000, 30.000000)">
                    <g id="illus">
                        <path d="M96.7128906,20.0390625 L96.7128906,28.0390625 L19.8554688,30.8338778 L19.8554688,35.7519531 L0.31015625,21.7910156 L19.8554688,7.83007812 L19.8554688,13.2442472 L96.7128906,16.0390625 L100.712891,16.0390625 L100.712891,20.0390625 L96.7128906,20.0390625 Z M107.13623,20.0390625 L107.13623,18.0390625 L104.712891,18.0390625 L104.712891,20.4624023 L106.712891,20.4624023 L106.712891,22.4624023 L109.13623,22.4624023 L109.13623,20.0390625 L107.13623,20.0390625 Z M96.7128906,24.0390625 L102.212891,24.0390625 L102.212891,27.5390625 L96.7128906,28.0390625 L96.7128906,24.0390625 Z M100.712891,20.0390625 L104.712891,20.0390625 L104.712891,24.0390625 L100.712891,24.0390625 L100.712891,20.0390625 Z M101.212891,16.5390625 L103.63623,16.5390625 L103.63623,18.9624023 L101.212891,18.9624023 L101.212891,16.5390625 Z" id="Combined-Shape" fill="url(#linearGradient-1)" opacity="0.790194746"></path>
                        <path d="M272.902734,20.0390625 L272.902734,28.0390625 L196.045313,30.8338778 L196.045312,35.7519531 L176.5,21.7910156 L196.045312,7.83007812 L196.045312,13.2442472 L272.902734,16.0390625 L276.902734,16.0390625 L276.902734,20.0390625 L272.902734,20.0390625 Z M283.326074,20.0390625 L283.326074,18.0390625 L280.902734,18.0390625 L280.902734,20.4624023 L282.902734,20.4624023 L282.902734,22.4624023 L285.326074,22.4624023 L285.326074,20.0390625 L283.326074,20.0390625 Z M272.902734,24.0390625 L278.402734,24.0390625 L278.402734,27.5390625 L272.902734,28.0390625 L272.902734,24.0390625 Z M276.902734,20.0390625 L280.902734,20.0390625 L280.902734,24.0390625 L276.902734,24.0390625 L276.902734,20.0390625 Z M277.402734,16.5390625 L279.826074,16.5390625 L279.826074,18.9624023 L277.402734,18.9624023 L277.402734,16.5390625 Z" id="Combined-Shape" fill="url(#linearGradient-1)" opacity="0.790194746" transform="translate(230.913037, 21.791016) scale(-1, 1) translate(-230.913037, -21.791016) "></path>
                        <g id="Group-8" transform="translate(123.000000, 0.291016)">
                            <mask id="mask-3" fill="white">
                                <use xlink:href="#path-2"></use>
                            </mask>
                            <g id="Oval">
                                <use fill="#1B8FF3" fill-rule="evenodd" xlink:href="#path-2"></use>
                                <circle stroke="#FFFFFF" stroke-width="1" cx="20.8193439" cy="20.8193439" r="20.3193439"></circle>
                            </g>
                            <circle id="Oval-2" fill-opacity="0.4" fill="#FFFFFF" mask="url(#mask-3)" cx="22.9012783" cy="16.6554752" r="6.24580318"></circle>
                            <path d="M16.2480102,17.4745046 C14.6813222,17.4745046 13.3916185,18.632246 13.3916185,20.0386298 L13.3916185,30.1348731 L12.7667828,29.547261 L12.5287501,29.3602936 C11.4304166,28.3743421 9.64003672,28.3743421 8.54170323,29.3602936 C7.44336974,30.346245 7.44336974,31.9534336 8.54170323,32.9393851 L8.54170323,32.9660947 L16.3372725,39.883891 L16.3967807,39.9106006 L16.4265347,39.9640199 C17.711276,40.8289848 19.3445351,41.4063404 21.1871877,41.4063404 L22.8236622,41.4063404 C27.1399872,41.4063404 30.6192315,38.2830931 30.6192315,34.4084152 L30.6192315,27.7310056 C30.6192315,26.3246214 29.3295277,25.1668804 27.7628397,25.1668804 C27.3572987,25.1668804 26.9830428,25.2678864 26.6321846,25.4072671 C26.3194211,24.2967265 25.1934762,23.4574635 23.865055,23.4574635 C23.1347023,23.4574635 22.4681595,23.7141031 21.9607938,24.1252045 C21.4534282,23.7141031 20.7868854,23.4574635 20.0565326,23.4574635 C19.7203477,23.4574635 19.4050725,23.5200852 19.104402,23.6177213 L19.104402,20.0386298 C19.104402,18.632246 17.8146983,17.4745046 16.2480102,17.4745046 Z M16.2480102,19.1839214 C16.7760095,19.1839214 17.2001408,19.5646551 17.2001408,20.0386298 L17.2001408,26.0215888 L17.2001408,29.4404225 L19.104402,29.4404225 L19.104402,26.0215888 C19.104402,25.5476145 19.5285334,25.1668804 20.0565326,25.1668804 C20.5845319,25.1668804 21.0086632,25.5476145 21.0086632,26.0215888 L21.0086632,29.4404225 L22.9129244,29.4404225 L22.9129244,26.0215888 C22.9129244,25.5476145 23.3370558,25.1668804 23.865055,25.1668804 C24.3930543,25.1668804 24.8171856,25.5476145 24.8171856,26.0215888 L24.8171856,29.4404225 L24.9064479,29.4404225 L26.7214468,29.4404225 L26.8107091,29.4404225 L26.8107091,27.7310056 C26.8107091,27.2570313 27.2348404,26.8762972 27.7628397,26.8762972 C28.2908389,26.8762972 28.7149703,27.2570313 28.7149703,27.7310056 L28.7149703,34.4084152 C28.7149703,37.3714046 26.1243819,39.6969235 22.8236622,39.6969235 L21.1871877,39.6969235 C19.7925963,39.6969235 18.5873161,39.248629 17.5869439,38.5751187 L9.88063688,31.7374513 C9.45556141,31.3558693 9.45556141,30.9438093 9.88063688,30.5622273 C10.3057123,30.1806453 10.764741,30.1806453 11.1898165,30.5622273 L13.6594052,32.7791272 L15.2958797,34.2481573 L15.2958797,32.1648056 L15.2958797,20.0386298 C15.2958797,19.5646551 15.720011,19.1839214 16.2480102,19.1839214 Z" id="Shape" fill="#FFFFFF" fill-rule="nonzero" mask="url(#mask-3)" transform="translate(19.168592, 29.440422) rotate(36.000000) translate(-19.168592, -29.440422) "></path>
                        </g>
                    </g>
                </g>
            </g>
        </g>
    </g>
</svg>